<svg xmlns="http://www.w3.org/2000/svg" width="608.064" height="547.096" viewBox="0 0 608.064 547.096"><g transform="translate(-138.768 -133.904)"><path d="M5.344-4.592V-8.1H4.256v3.5H.768V-3.5H4.256V0H5.344V-3.5H8.832V-4.592Z" transform="translate(138 142)" fill="#dadae4"/><path d="M5.344-4.592V-8.1H4.256v3.5H.768V-3.5H4.256V0H5.344V-3.5H8.832V-4.592Z" transform="translate(458 142)" fill="#dadae4"/><path d="M5.344-4.592V-8.1H4.256v3.5H.768V-3.5H4.256V0H5.344V-3.5H8.832V-4.592Z" transform="translate(298 142)" fill="#dadae4"/><path d="M5.344-4.592V-8.1H4.256v3.5H.768V-3.5H4.256V0H5.344V-3.5H8.832V-4.592Z" transform="translate(618 142)" fill="#dadae4"/><path d="M5.344-4.592V-8.1H4.256v3.5H.768V-3.5H4.256V0H5.344V-3.5H8.832V-4.592Z" transform="translate(218 142)" fill="#dadae4"/><path d="M5.344-4.592V-8.1H4.256v3.5H.768V-3.5H4.256V0H5.344V-3.5H8.832V-4.592Z" transform="translate(538 142)" fill="#dadae4"/><path d="M5.344-4.592V-8.1H4.256v3.5H.768V-3.5H4.256V0H5.344V-3.5H8.832V-4.592Z" transform="translate(378 142)" fill="#dadae4"/><path d="M5.344-4.592V-8.1H4.256v3.5H.768V-3.5H4.256V0H5.344V-3.5H8.832V-4.592Z" transform="translate(698 142)" fill="#dadae4"/><path d="M5.344-4.592V-8.1H4.256v3.5H.768V-3.5H4.256V0H5.344V-3.5H8.832V-4.592Z" transform="translate(178 142)" fill="#dadae4"/><path d="M5.344-4.592V-8.1H4.256v3.5H.768V-3.5H4.256V0H5.344V-3.5H8.832V-4.592Z" transform="translate(498 142)" fill="#dadae4"/><path d="M5.344-4.592V-8.1H4.256v3.5H.768V-3.5H4.256V0H5.344V-3.5H8.832V-4.592Z" transform="translate(338 142)" fill="#dadae4"/><path d="M5.344-4.592V-8.1H4.256v3.5H.768V-3.5H4.256V0H5.344V-3.5H8.832V-4.592Z" transform="translate(658 142)" fill="#dadae4"/><path d="M5.344-4.592V-8.1H4.256v3.5H.768V-3.5H4.256V0H5.344V-3.5H8.832V-4.592Z" transform="translate(258 142)" fill="#dadae4"/><path d="M5.344-4.592V-8.1H4.256v3.5H.768V-3.5H4.256V0H5.344V-3.5H8.832V-4.592Z" transform="translate(578 142)" fill="#dadae4"/><path d="M5.344-4.592V-8.1H4.256v3.5H.768V-3.5H4.256V0H5.344V-3.5H8.832V-4.592Z" transform="translate(418 142)" fill="#dadae4"/><path d="M5.344-4.592V-8.1H4.256v3.5H.768V-3.5H4.256V0H5.344V-3.5H8.832V-4.592Z" transform="translate(738 142)" fill="#dadae4"/><path d="M5.344-4.592V-8.1H4.256v3.5H.768V-3.5H4.256V0H5.344V-3.5H8.832V-4.592Z" transform="translate(138 474)" fill="#dadae4"/><path d="M5.344-4.592V-8.1H4.256v3.5H.768V-3.5H4.256V0H5.344V-3.5H8.832V-4.592Z" transform="translate(458 474)" fill="#dadae4"/><path d="M5.344-4.592V-8.1H4.256v3.5H.768V-3.5H4.256V0H5.344V-3.5H8.832V-4.592Z" transform="translate(298 474)" fill="#dadae4"/><path d="M5.344-4.592V-8.1H4.256v3.5H.768V-3.5H4.256V0H5.344V-3.5H8.832V-4.592Z" transform="translate(618 474)" fill="#dadae4"/><path d="M5.344-4.592V-8.1H4.256v3.5H.768V-3.5H4.256V0H5.344V-3.5H8.832V-4.592Z" transform="translate(218 474)" fill="#dadae4"/><path d="M5.344-4.592V-8.1H4.256v3.5H.768V-3.5H4.256V0H5.344V-3.5H8.832V-4.592Z" transform="translate(538 474)" fill="#dadae4"/><path d="M5.344-4.592V-8.1H4.256v3.5H.768V-3.5H4.256V0H5.344V-3.5H8.832V-4.592Z" transform="translate(378 474)" fill="#dadae4"/><path d="M5.344-4.592V-8.1H4.256v3.5H.768V-3.5H4.256V0H5.344V-3.5H8.832V-4.592Z" transform="translate(698 474)" fill="#dadae4"/><path d="M5.344-4.592V-8.1H4.256v3.5H.768V-3.5H4.256V0H5.344V-3.5H8.832V-4.592Z" transform="translate(178 474)" fill="#dadae4"/><path d="M5.344-4.592V-8.1H4.256v3.5H.768V-3.5H4.256V0H5.344V-3.5H8.832V-4.592Z" transform="translate(498 474)" fill="#dadae4"/><path d="M5.344-4.592V-8.1H4.256v3.5H.768V-3.5H4.256V0H5.344V-3.5H8.832V-4.592Z" transform="translate(338 474)" fill="#dadae4"/><path d="M5.344-4.592V-8.1H4.256v3.5H.768V-3.5H4.256V0H5.344V-3.5H8.832V-4.592Z" transform="translate(658 474)" fill="#dadae4"/><path d="M5.344-4.592V-8.1H4.256v3.5H.768V-3.5H4.256V0H5.344V-3.5H8.832V-4.592Z" transform="translate(258 474)" fill="#dadae4"/><path d="M5.344-4.592V-8.1H4.256v3.5H.768V-3.5H4.256V0H5.344V-3.5H8.832V-4.592Z" transform="translate(578 474)" fill="#dadae4"/><path d="M5.344-4.592V-8.1H4.256v3.5H.768V-3.5H4.256V0H5.344V-3.5H8.832V-4.592Z" transform="translate(418 474)" fill="#dadae4"/><path d="M5.344-4.592V-8.1H4.256v3.5H.768V-3.5H4.256V0H5.344V-3.5H8.832V-4.592Z" transform="translate(738 474)" fill="#dadae4"/><path d="M5.344-4.592V-8.1H4.256v3.5H.768V-3.5H4.256V0H5.344V-3.5H8.832V-4.592Z" transform="translate(138 308)" fill="#dadae4"/><path d="M5.344-4.592V-8.1H4.256v3.5H.768V-3.5H4.256V0H5.344V-3.5H8.832V-4.592Z" transform="translate(458 308)" fill="#dadae4"/><path d="M5.344-4.592V-8.1H4.256v3.5H.768V-3.5H4.256V0H5.344V-3.5H8.832V-4.592Z" transform="translate(298 308)" fill="#dadae4"/><path d="M5.344-4.592V-8.1H4.256v3.5H.768V-3.5H4.256V0H5.344V-3.5H8.832V-4.592Z" transform="translate(618 308)" fill="#dadae4"/><path d="M5.344-4.592V-8.1H4.256v3.5H.768V-3.5H4.256V0H5.344V-3.5H8.832V-4.592Z" transform="translate(218 308)" fill="#dadae4"/><path d="M5.344-4.592V-8.1H4.256v3.5H.768V-3.5H4.256V0H5.344V-3.5H8.832V-4.592Z" transform="translate(538 308)" fill="#dadae4"/><path d="M5.344-4.592V-8.1H4.256v3.5H.768V-3.5H4.256V0H5.344V-3.5H8.832V-4.592Z" transform="translate(378 308)" fill="#dadae4"/><path d="M5.344-4.592V-8.1H4.256v3.5H.768V-3.5H4.256V0H5.344V-3.5H8.832V-4.592Z" transform="translate(698 308)" fill="#dadae4"/><path d="M5.344-4.592V-8.1H4.256v3.5H.768V-3.5H4.256V0H5.344V-3.5H8.832V-4.592Z" transform="translate(178 308)" fill="#dadae4"/><path d="M5.344-4.592V-8.1H4.256v3.5H.768V-3.5H4.256V0H5.344V-3.5H8.832V-4.592Z" transform="translate(498 308)" fill="#dadae4"/><path d="M5.344-4.592V-8.1H4.256v3.5H.768V-3.5H4.256V0H5.344V-3.5H8.832V-4.592Z" transform="translate(338 308)" fill="#dadae4"/><path d="M5.344-4.592V-8.1H4.256v3.5H.768V-3.5H4.256V0H5.344V-3.5H8.832V-4.592Z" transform="translate(658 308)" fill="#dadae4"/><path d="M5.344-4.592V-8.1H4.256v3.5H.768V-3.5H4.256V0H5.344V-3.5H8.832V-4.592Z" transform="translate(258 308)" fill="#dadae4"/><path d="M5.344-4.592V-8.1H4.256v3.5H.768V-3.5H4.256V0H5.344V-3.5H8.832V-4.592Z" transform="translate(578 308)" fill="#dadae4"/><path d="M5.344-4.592V-8.1H4.256v3.5H.768V-3.5H4.256V0H5.344V-3.5H8.832V-4.592Z" transform="translate(418 308)" fill="#dadae4"/><path d="M5.344-4.592V-8.1H4.256v3.5H.768V-3.5H4.256V0H5.344V-3.5H8.832V-4.592Z" transform="translate(738 308)" fill="#dadae4"/><path d="M5.344-4.592V-8.1H4.256v3.5H.768V-3.5H4.256V0H5.344V-3.5H8.832V-4.592Z" transform="translate(138 640)" fill="#dadae4"/><path d="M5.344-4.592V-8.1H4.256v3.5H.768V-3.5H4.256V0H5.344V-3.5H8.832V-4.592Z" transform="translate(458 640)" fill="#dadae4"/><path d="M5.344-4.592V-8.1H4.256v3.5H.768V-3.5H4.256V0H5.344V-3.5H8.832V-4.592Z" transform="translate(298 640)" fill="#dadae4"/><path d="M5.344-4.592V-8.1H4.256v3.5H.768V-3.5H4.256V0H5.344V-3.5H8.832V-4.592Z" transform="translate(618 640)" fill="#dadae4"/><path d="M5.344-4.592V-8.1H4.256v3.5H.768V-3.5H4.256V0H5.344V-3.5H8.832V-4.592Z" transform="translate(218 640)" fill="#dadae4"/><path d="M5.344-4.592V-8.1H4.256v3.5H.768V-3.5H4.256V0H5.344V-3.5H8.832V-4.592Z" transform="translate(538 640)" fill="#dadae4"/><path d="M5.344-4.592V-8.1H4.256v3.5H.768V-3.5H4.256V0H5.344V-3.5H8.832V-4.592Z" transform="translate(378 640)" fill="#dadae4"/><path d="M5.344-4.592V-8.1H4.256v3.5H.768V-3.5H4.256V0H5.344V-3.5H8.832V-4.592Z" transform="translate(698 640)" fill="#dadae4"/><path d="M5.344-4.592V-8.1H4.256v3.5H.768V-3.5H4.256V0H5.344V-3.5H8.832V-4.592Z" transform="translate(178 640)" fill="#dadae4"/><path d="M5.344-4.592V-8.1H4.256v3.5H.768V-3.5H4.256V0H5.344V-3.5H8.832V-4.592Z" transform="translate(498 640)" fill="#dadae4"/><path d="M5.344-4.592V-8.1H4.256v3.5H.768V-3.5H4.256V0H5.344V-3.5H8.832V-4.592Z" transform="translate(338 640)" fill="#dadae4"/><path d="M5.344-4.592V-8.1H4.256v3.5H.768V-3.5H4.256V0H5.344V-3.5H8.832V-4.592Z" transform="translate(658 640)" fill="#dadae4"/><path d="M5.344-4.592V-8.1H4.256v3.5H.768V-3.5H4.256V0H5.344V-3.5H8.832V-4.592Z" transform="translate(258 640)" fill="#dadae4"/><path d="M5.344-4.592V-8.1H4.256v3.5H.768V-3.5H4.256V0H5.344V-3.5H8.832V-4.592Z" transform="translate(578 640)" fill="#dadae4"/><path d="M5.344-4.592V-8.1H4.256v3.5H.768V-3.5H4.256V0H5.344V-3.5H8.832V-4.592Z" transform="translate(418 640)" fill="#dadae4"/><path d="M5.344-4.592V-8.1H4.256v3.5H.768V-3.5H4.256V0H5.344V-3.5H8.832V-4.592Z" transform="translate(738 640)" fill="#dadae4"/><path d="M5.344-4.592V-8.1H4.256v3.5H.768V-3.5H4.256V0H5.344V-3.5H8.832V-4.592Z" transform="translate(138 225)" fill="#dadae4"/><path d="M5.344-4.592V-8.1H4.256v3.5H.768V-3.5H4.256V0H5.344V-3.5H8.832V-4.592Z" transform="translate(458 225)" fill="#dadae4"/><path d="M5.344-4.592V-8.1H4.256v3.5H.768V-3.5H4.256V0H5.344V-3.5H8.832V-4.592Z" transform="translate(298 225)" fill="#dadae4"/><path d="M5.344-4.592V-8.1H4.256v3.5H.768V-3.5H4.256V0H5.344V-3.5H8.832V-4.592Z" transform="translate(618 225)" fill="#dadae4"/><path d="M5.344-4.592V-8.1H4.256v3.5H.768V-3.5H4.256V0H5.344V-3.5H8.832V-4.592Z" transform="translate(218 225)" fill="#dadae4"/><path d="M5.344-4.592V-8.1H4.256v3.5H.768V-3.5H4.256V0H5.344V-3.5H8.832V-4.592Z" transform="translate(538 225)" fill="#dadae4"/><path d="M5.344-4.592V-8.1H4.256v3.5H.768V-3.5H4.256V0H5.344V-3.5H8.832V-4.592Z" transform="translate(378 225)" fill="#dadae4"/><path d="M5.344-4.592V-8.1H4.256v3.5H.768V-3.5H4.256V0H5.344V-3.5H8.832V-4.592Z" transform="translate(698 225)" fill="#dadae4"/><path d="M5.344-4.592V-8.1H4.256v3.5H.768V-3.5H4.256V0H5.344V-3.5H8.832V-4.592Z" transform="translate(178 225)" fill="#dadae4"/><path d="M5.344-4.592V-8.1H4.256v3.5H.768V-3.5H4.256V0H5.344V-3.5H8.832V-4.592Z" transform="translate(498 225)" fill="#dadae4"/><path d="M5.344-4.592V-8.1H4.256v3.5H.768V-3.5H4.256V0H5.344V-3.5H8.832V-4.592Z" transform="translate(338 225)" fill="#dadae4"/><path d="M5.344-4.592V-8.1H4.256v3.5H.768V-3.5H4.256V0H5.344V-3.5H8.832V-4.592Z" transform="translate(658 225)" fill="#dadae4"/><path d="M5.344-4.592V-8.1H4.256v3.5H.768V-3.5H4.256V0H5.344V-3.5H8.832V-4.592Z" transform="translate(258 225)" fill="#dadae4"/><path d="M5.344-4.592V-8.1H4.256v3.5H.768V-3.5H4.256V0H5.344V-3.5H8.832V-4.592Z" transform="translate(578 225)" fill="#dadae4"/><path d="M5.344-4.592V-8.1H4.256v3.5H.768V-3.5H4.256V0H5.344V-3.5H8.832V-4.592Z" transform="translate(418 225)" fill="#dadae4"/><path d="M5.344-4.592V-8.1H4.256v3.5H.768V-3.5H4.256V0H5.344V-3.5H8.832V-4.592Z" transform="translate(738 225)" fill="#dadae4"/><path d="M5.344-4.592V-8.1H4.256v3.5H.768V-3.5H4.256V0H5.344V-3.5H8.832V-4.592Z" transform="translate(138 557)" fill="#dadae4"/><path d="M5.344-4.592V-8.1H4.256v3.5H.768V-3.5H4.256V0H5.344V-3.5H8.832V-4.592Z" transform="translate(458 557)" fill="#dadae4"/><path d="M5.344-4.592V-8.1H4.256v3.5H.768V-3.5H4.256V0H5.344V-3.5H8.832V-4.592Z" transform="translate(298 557)" fill="#dadae4"/><path d="M5.344-4.592V-8.1H4.256v3.5H.768V-3.5H4.256V0H5.344V-3.5H8.832V-4.592Z" transform="translate(618 557)" fill="#dadae4"/><path d="M5.344-4.592V-8.1H4.256v3.5H.768V-3.5H4.256V0H5.344V-3.5H8.832V-4.592Z" transform="translate(218 557)" fill="#dadae4"/><path d="M5.344-4.592V-8.1H4.256v3.5H.768V-3.5H4.256V0H5.344V-3.5H8.832V-4.592Z" transform="translate(538 557)" fill="#dadae4"/><path d="M5.344-4.592V-8.1H4.256v3.5H.768V-3.5H4.256V0H5.344V-3.5H8.832V-4.592Z" transform="translate(378 557)" fill="#dadae4"/><path d="M5.344-4.592V-8.1H4.256v3.5H.768V-3.5H4.256V0H5.344V-3.5H8.832V-4.592Z" transform="translate(698 557)" fill="#dadae4"/><path d="M5.344-4.592V-8.1H4.256v3.5H.768V-3.5H4.256V0H5.344V-3.5H8.832V-4.592Z" transform="translate(178 557)" fill="#dadae4"/><path d="M5.344-4.592V-8.1H4.256v3.5H.768V-3.5H4.256V0H5.344V-3.5H8.832V-4.592Z" transform="translate(498 557)" fill="#dadae4"/><path d="M5.344-4.592V-8.1H4.256v3.5H.768V-3.5H4.256V0H5.344V-3.5H8.832V-4.592Z" transform="translate(338 557)" fill="#dadae4"/><path d="M5.344-4.592V-8.1H4.256v3.5H.768V-3.5H4.256V0H5.344V-3.5H8.832V-4.592Z" transform="translate(658 557)" fill="#dadae4"/><path d="M5.344-4.592V-8.1H4.256v3.5H.768V-3.5H4.256V0H5.344V-3.5H8.832V-4.592Z" transform="translate(258 557)" fill="#dadae4"/><path d="M5.344-4.592V-8.1H4.256v3.5H.768V-3.5H4.256V0H5.344V-3.5H8.832V-4.592Z" transform="translate(578 557)" fill="#dadae4"/><path d="M5.344-4.592V-8.1H4.256v3.5H.768V-3.5H4.256V0H5.344V-3.5H8.832V-4.592Z" transform="translate(418 557)" fill="#dadae4"/><path d="M5.344-4.592V-8.1H4.256v3.5H.768V-3.5H4.256V0H5.344V-3.5H8.832V-4.592Z" transform="translate(738 557)" fill="#dadae4"/><path d="M5.344-4.592V-8.1H4.256v3.5H.768V-3.5H4.256V0H5.344V-3.5H8.832V-4.592Z" transform="translate(138 391)" fill="#dadae4"/><path d="M5.344-4.592V-8.1H4.256v3.5H.768V-3.5H4.256V0H5.344V-3.5H8.832V-4.592Z" transform="translate(458 391)" fill="#dadae4"/><path d="M5.344-4.592V-8.1H4.256v3.5H.768V-3.5H4.256V0H5.344V-3.5H8.832V-4.592Z" transform="translate(298 391)" fill="#dadae4"/><path d="M5.344-4.592V-8.1H4.256v3.5H.768V-3.5H4.256V0H5.344V-3.5H8.832V-4.592Z" transform="translate(618 391)" fill="#dadae4"/><path d="M5.344-4.592V-8.1H4.256v3.5H.768V-3.5H4.256V0H5.344V-3.5H8.832V-4.592Z" transform="translate(218 391)" fill="#dadae4"/><path d="M5.344-4.592V-8.1H4.256v3.5H.768V-3.5H4.256V0H5.344V-3.5H8.832V-4.592Z" transform="translate(538 391)" fill="#dadae4"/><path d="M5.344-4.592V-8.1H4.256v3.5H.768V-3.5H4.256V0H5.344V-3.5H8.832V-4.592Z" transform="translate(378 391)" fill="#dadae4"/><path d="M5.344-4.592V-8.1H4.256v3.5H.768V-3.5H4.256V0H5.344V-3.5H8.832V-4.592Z" transform="translate(698 391)" fill="#dadae4"/><path d="M5.344-4.592V-8.1H4.256v3.5H.768V-3.5H4.256V0H5.344V-3.5H8.832V-4.592Z" transform="translate(178 391)" fill="#dadae4"/><path d="M5.344-4.592V-8.1H4.256v3.5H.768V-3.5H4.256V0H5.344V-3.5H8.832V-4.592Z" transform="translate(498 391)" fill="#dadae4"/><path d="M5.344-4.592V-8.1H4.256v3.5H.768V-3.5H4.256V0H5.344V-3.5H8.832V-4.592Z" transform="translate(338 391)" fill="#dadae4"/><path d="M5.344-4.592V-8.1H4.256v3.5H.768V-3.5H4.256V0H5.344V-3.5H8.832V-4.592Z" transform="translate(658 391)" fill="#dadae4"/><path d="M5.344-4.592V-8.1H4.256v3.5H.768V-3.5H4.256V0H5.344V-3.5H8.832V-4.592Z" transform="translate(258 391)" fill="#dadae4"/><path d="M5.344-4.592V-8.1H4.256v3.5H.768V-3.5H4.256V0H5.344V-3.5H8.832V-4.592Z" transform="translate(578 391)" fill="#dadae4"/><path d="M5.344-4.592V-8.1H4.256v3.5H.768V-3.5H4.256V0H5.344V-3.5H8.832V-4.592Z" transform="translate(418 391)" fill="#dadae4"/><path d="M5.344-4.592V-8.1H4.256v3.5H.768V-3.5H4.256V0H5.344V-3.5H8.832V-4.592Z" transform="translate(738 391)" fill="#dadae4"/><path d="M5.344-4.592V-8.1H4.256v3.5H.768V-3.5H4.256V0H5.344V-3.5H8.832V-4.592Z" transform="translate(138 183)" fill="#dadae4"/><path d="M5.344-4.592V-8.1H4.256v3.5H.768V-3.5H4.256V0H5.344V-3.5H8.832V-4.592Z" transform="translate(458 183)" fill="#dadae4"/><path d="M5.344-4.592V-8.1H4.256v3.5H.768V-3.5H4.256V0H5.344V-3.5H8.832V-4.592Z" transform="translate(298 183)" fill="#dadae4"/><path d="M5.344-4.592V-8.1H4.256v3.5H.768V-3.5H4.256V0H5.344V-3.5H8.832V-4.592Z" transform="translate(618 183)" fill="#dadae4"/><path d="M5.344-4.592V-8.1H4.256v3.5H.768V-3.5H4.256V0H5.344V-3.5H8.832V-4.592Z" transform="translate(218 183)" fill="#dadae4"/><path d="M5.344-4.592V-8.1H4.256v3.5H.768V-3.5H4.256V0H5.344V-3.5H8.832V-4.592Z" transform="translate(538 183)" fill="#dadae4"/><path d="M5.344-4.592V-8.1H4.256v3.5H.768V-3.5H4.256V0H5.344V-3.5H8.832V-4.592Z" transform="translate(378 183)" fill="#dadae4"/><path d="M5.344-4.592V-8.1H4.256v3.5H.768V-3.5H4.256V0H5.344V-3.5H8.832V-4.592Z" transform="translate(698 183)" fill="#dadae4"/><path d="M5.344-4.592V-8.1H4.256v3.5H.768V-3.5H4.256V0H5.344V-3.5H8.832V-4.592Z" transform="translate(178 183)" fill="#dadae4"/><path d="M5.344-4.592V-8.1H4.256v3.5H.768V-3.5H4.256V0H5.344V-3.5H8.832V-4.592Z" transform="translate(498 183)" fill="#dadae4"/><path d="M5.344-4.592V-8.1H4.256v3.5H.768V-3.5H4.256V0H5.344V-3.5H8.832V-4.592Z" transform="translate(338 183)" fill="#dadae4"/><path d="M5.344-4.592V-8.1H4.256v3.5H.768V-3.5H4.256V0H5.344V-3.5H8.832V-4.592Z" transform="translate(658 183)" fill="#dadae4"/><path d="M5.344-4.592V-8.1H4.256v3.5H.768V-3.5H4.256V0H5.344V-3.5H8.832V-4.592Z" transform="translate(258 183)" fill="#dadae4"/><path d="M5.344-4.592V-8.1H4.256v3.5H.768V-3.5H4.256V0H5.344V-3.5H8.832V-4.592Z" transform="translate(578 183)" fill="#dadae4"/><path d="M5.344-4.592V-8.1H4.256v3.5H.768V-3.5H4.256V0H5.344V-3.5H8.832V-4.592Z" transform="translate(418 183)" fill="#dadae4"/><path d="M5.344-4.592V-8.1H4.256v3.5H.768V-3.5H4.256V0H5.344V-3.5H8.832V-4.592Z" transform="translate(738 183)" fill="#dadae4"/><path d="M5.344-4.592V-8.1H4.256v3.5H.768V-3.5H4.256V0H5.344V-3.5H8.832V-4.592Z" transform="translate(138 515)" fill="#dadae4"/><path d="M5.344-4.592V-8.1H4.256v3.5H.768V-3.5H4.256V0H5.344V-3.5H8.832V-4.592Z" transform="translate(458 515)" fill="#dadae4"/><path d="M5.344-4.592V-8.1H4.256v3.5H.768V-3.5H4.256V0H5.344V-3.5H8.832V-4.592Z" transform="translate(298 515)" fill="#dadae4"/><path d="M5.344-4.592V-8.1H4.256v3.5H.768V-3.5H4.256V0H5.344V-3.5H8.832V-4.592Z" transform="translate(618 515)" fill="#dadae4"/><path d="M5.344-4.592V-8.1H4.256v3.5H.768V-3.5H4.256V0H5.344V-3.5H8.832V-4.592Z" transform="translate(218 515)" fill="#dadae4"/><path d="M5.344-4.592V-8.1H4.256v3.5H.768V-3.5H4.256V0H5.344V-3.5H8.832V-4.592Z" transform="translate(538 515)" fill="#dadae4"/><path d="M5.344-4.592V-8.1H4.256v3.5H.768V-3.5H4.256V0H5.344V-3.5H8.832V-4.592Z" transform="translate(378 515)" fill="#dadae4"/><path d="M5.344-4.592V-8.1H4.256v3.5H.768V-3.5H4.256V0H5.344V-3.5H8.832V-4.592Z" transform="translate(698 515)" fill="#dadae4"/><path d="M5.344-4.592V-8.1H4.256v3.5H.768V-3.5H4.256V0H5.344V-3.5H8.832V-4.592Z" transform="translate(178 515)" fill="#dadae4"/><path d="M5.344-4.592V-8.1H4.256v3.5H.768V-3.5H4.256V0H5.344V-3.5H8.832V-4.592Z" transform="translate(498 515)" fill="#dadae4"/><path d="M5.344-4.592V-8.1H4.256v3.5H.768V-3.5H4.256V0H5.344V-3.5H8.832V-4.592Z" transform="translate(338 515)" fill="#dadae4"/><path d="M5.344-4.592V-8.1H4.256v3.5H.768V-3.5H4.256V0H5.344V-3.5H8.832V-4.592Z" transform="translate(658 515)" fill="#dadae4"/><path d="M5.344-4.592V-8.1H4.256v3.5H.768V-3.5H4.256V0H5.344V-3.5H8.832V-4.592Z" transform="translate(258 515)" fill="#dadae4"/><path d="M5.344-4.592V-8.1H4.256v3.5H.768V-3.5H4.256V0H5.344V-3.5H8.832V-4.592Z" transform="translate(578 515)" fill="#dadae4"/><path d="M5.344-4.592V-8.1H4.256v3.5H.768V-3.5H4.256V0H5.344V-3.5H8.832V-4.592Z" transform="translate(418 515)" fill="#dadae4"/><path d="M5.344-4.592V-8.1H4.256v3.5H.768V-3.5H4.256V0H5.344V-3.5H8.832V-4.592Z" transform="translate(738 515)" fill="#dadae4"/><path d="M5.344-4.592V-8.1H4.256v3.5H.768V-3.5H4.256V0H5.344V-3.5H8.832V-4.592Z" transform="translate(138 349)" fill="#dadae4"/><path d="M5.344-4.592V-8.1H4.256v3.5H.768V-3.5H4.256V0H5.344V-3.5H8.832V-4.592Z" transform="translate(458 349)" fill="#dadae4"/><path d="M5.344-4.592V-8.1H4.256v3.5H.768V-3.5H4.256V0H5.344V-3.5H8.832V-4.592Z" transform="translate(298 349)" fill="#dadae4"/><path d="M5.344-4.592V-8.1H4.256v3.5H.768V-3.5H4.256V0H5.344V-3.5H8.832V-4.592Z" transform="translate(618 349)" fill="#dadae4"/><path d="M5.344-4.592V-8.1H4.256v3.5H.768V-3.5H4.256V0H5.344V-3.5H8.832V-4.592Z" transform="translate(218 349)" fill="#dadae4"/><path d="M5.344-4.592V-8.1H4.256v3.5H.768V-3.5H4.256V0H5.344V-3.5H8.832V-4.592Z" transform="translate(538 349)" fill="#dadae4"/><path d="M5.344-4.592V-8.1H4.256v3.5H.768V-3.5H4.256V0H5.344V-3.5H8.832V-4.592Z" transform="translate(378 349)" fill="#dadae4"/><path d="M5.344-4.592V-8.1H4.256v3.5H.768V-3.5H4.256V0H5.344V-3.5H8.832V-4.592Z" transform="translate(698 349)" fill="#dadae4"/><path d="M5.344-4.592V-8.1H4.256v3.5H.768V-3.5H4.256V0H5.344V-3.5H8.832V-4.592Z" transform="translate(178 349)" fill="#dadae4"/><path d="M5.344-4.592V-8.1H4.256v3.5H.768V-3.5H4.256V0H5.344V-3.5H8.832V-4.592Z" transform="translate(498 349)" fill="#dadae4"/><path d="M5.344-4.592V-8.1H4.256v3.5H.768V-3.5H4.256V0H5.344V-3.5H8.832V-4.592Z" transform="translate(338 349)" fill="#dadae4"/><path d="M5.344-4.592V-8.1H4.256v3.5H.768V-3.5H4.256V0H5.344V-3.5H8.832V-4.592Z" transform="translate(658 349)" fill="#dadae4"/><path d="M5.344-4.592V-8.1H4.256v3.5H.768V-3.5H4.256V0H5.344V-3.5H8.832V-4.592Z" transform="translate(258 349)" fill="#dadae4"/><path d="M5.344-4.592V-8.1H4.256v3.5H.768V-3.5H4.256V0H5.344V-3.5H8.832V-4.592Z" transform="translate(578 349)" fill="#dadae4"/><path d="M5.344-4.592V-8.1H4.256v3.5H.768V-3.5H4.256V0H5.344V-3.5H8.832V-4.592Z" transform="translate(418 349)" fill="#dadae4"/><path d="M5.344-4.592V-8.1H4.256v3.5H.768V-3.5H4.256V0H5.344V-3.5H8.832V-4.592Z" transform="translate(738 349)" fill="#dadae4"/><path d="M5.344-4.592V-8.1H4.256v3.5H.768V-3.5H4.256V0H5.344V-3.5H8.832V-4.592Z" transform="translate(138 681)" fill="#dadae4"/><path d="M5.344-4.592V-8.1H4.256v3.5H.768V-3.5H4.256V0H5.344V-3.5H8.832V-4.592Z" transform="translate(458 681)" fill="#dadae4"/><path d="M5.344-4.592V-8.1H4.256v3.5H.768V-3.5H4.256V0H5.344V-3.5H8.832V-4.592Z" transform="translate(298 681)" fill="#dadae4"/><path d="M5.344-4.592V-8.1H4.256v3.5H.768V-3.5H4.256V0H5.344V-3.5H8.832V-4.592Z" transform="translate(618 681)" fill="#dadae4"/><path d="M5.344-4.592V-8.1H4.256v3.5H.768V-3.5H4.256V0H5.344V-3.5H8.832V-4.592Z" transform="translate(218 681)" fill="#dadae4"/><path d="M5.344-4.592V-8.1H4.256v3.5H.768V-3.5H4.256V0H5.344V-3.5H8.832V-4.592Z" transform="translate(538 681)" fill="#dadae4"/><path d="M5.344-4.592V-8.1H4.256v3.5H.768V-3.5H4.256V0H5.344V-3.5H8.832V-4.592Z" transform="translate(378 681)" fill="#dadae4"/><path d="M5.344-4.592V-8.1H4.256v3.5H.768V-3.5H4.256V0H5.344V-3.5H8.832V-4.592Z" transform="translate(698 681)" fill="#dadae4"/><path d="M5.344-4.592V-8.1H4.256v3.5H.768V-3.5H4.256V0H5.344V-3.5H8.832V-4.592Z" transform="translate(178 681)" fill="#dadae4"/><path d="M5.344-4.592V-8.1H4.256v3.5H.768V-3.5H4.256V0H5.344V-3.5H8.832V-4.592Z" transform="translate(498 681)" fill="#dadae4"/><path d="M5.344-4.592V-8.1H4.256v3.5H.768V-3.5H4.256V0H5.344V-3.5H8.832V-4.592Z" transform="translate(338 681)" fill="#dadae4"/><path d="M5.344-4.592V-8.1H4.256v3.5H.768V-3.5H4.256V0H5.344V-3.5H8.832V-4.592Z" transform="translate(658 681)" fill="#dadae4"/><path d="M5.344-4.592V-8.1H4.256v3.5H.768V-3.5H4.256V0H5.344V-3.5H8.832V-4.592Z" transform="translate(258 681)" fill="#dadae4"/><path d="M5.344-4.592V-8.1H4.256v3.5H.768V-3.5H4.256V0H5.344V-3.5H8.832V-4.592Z" transform="translate(578 681)" fill="#dadae4"/><path d="M5.344-4.592V-8.1H4.256v3.5H.768V-3.5H4.256V0H5.344V-3.5H8.832V-4.592Z" transform="translate(418 681)" fill="#dadae4"/><path d="M5.344-4.592V-8.1H4.256v3.5H.768V-3.5H4.256V0H5.344V-3.5H8.832V-4.592Z" transform="translate(738 681)" fill="#dadae4"/><path d="M5.344-4.592V-8.1H4.256v3.5H.768V-3.5H4.256V0H5.344V-3.5H8.832V-4.592Z" transform="translate(138 266)" fill="#dadae4"/><path d="M5.344-4.592V-8.1H4.256v3.5H.768V-3.5H4.256V0H5.344V-3.5H8.832V-4.592Z" transform="translate(458 266)" fill="#dadae4"/><path d="M5.344-4.592V-8.1H4.256v3.5H.768V-3.5H4.256V0H5.344V-3.5H8.832V-4.592Z" transform="translate(298 266)" fill="#dadae4"/><path d="M5.344-4.592V-8.1H4.256v3.5H.768V-3.5H4.256V0H5.344V-3.5H8.832V-4.592Z" transform="translate(618 266)" fill="#dadae4"/><path d="M5.344-4.592V-8.1H4.256v3.5H.768V-3.5H4.256V0H5.344V-3.5H8.832V-4.592Z" transform="translate(218 266)" fill="#dadae4"/><path d="M5.344-4.592V-8.1H4.256v3.5H.768V-3.5H4.256V0H5.344V-3.5H8.832V-4.592Z" transform="translate(538 266)" fill="#dadae4"/><path d="M5.344-4.592V-8.1H4.256v3.5H.768V-3.5H4.256V0H5.344V-3.5H8.832V-4.592Z" transform="translate(378 266)" fill="#dadae4"/><path d="M5.344-4.592V-8.1H4.256v3.5H.768V-3.5H4.256V0H5.344V-3.5H8.832V-4.592Z" transform="translate(698 266)" fill="#dadae4"/><path d="M5.344-4.592V-8.1H4.256v3.5H.768V-3.5H4.256V0H5.344V-3.5H8.832V-4.592Z" transform="translate(178 266)" fill="#dadae4"/><path d="M5.344-4.592V-8.1H4.256v3.5H.768V-3.5H4.256V0H5.344V-3.5H8.832V-4.592Z" transform="translate(498 266)" fill="#dadae4"/><path d="M5.344-4.592V-8.1H4.256v3.5H.768V-3.5H4.256V0H5.344V-3.5H8.832V-4.592Z" transform="translate(338 266)" fill="#dadae4"/><path d="M5.344-4.592V-8.1H4.256v3.5H.768V-3.5H4.256V0H5.344V-3.5H8.832V-4.592Z" transform="translate(658 266)" fill="#dadae4"/><path d="M5.344-4.592V-8.1H4.256v3.5H.768V-3.5H4.256V0H5.344V-3.5H8.832V-4.592Z" transform="translate(258 266)" fill="#dadae4"/><path d="M5.344-4.592V-8.1H4.256v3.5H.768V-3.5H4.256V0H5.344V-3.5H8.832V-4.592Z" transform="translate(578 266)" fill="#dadae4"/><path d="M5.344-4.592V-8.1H4.256v3.5H.768V-3.5H4.256V0H5.344V-3.5H8.832V-4.592Z" transform="translate(418 266)" fill="#dadae4"/><path d="M5.344-4.592V-8.1H4.256v3.5H.768V-3.5H4.256V0H5.344V-3.5H8.832V-4.592Z" transform="translate(738 266)" fill="#dadae4"/><path d="M5.344-4.592V-8.1H4.256v3.5H.768V-3.5H4.256V0H5.344V-3.5H8.832V-4.592Z" transform="translate(138 598)" fill="#dadae4"/><path d="M5.344-4.592V-8.1H4.256v3.5H.768V-3.5H4.256V0H5.344V-3.5H8.832V-4.592Z" transform="translate(458 598)" fill="#dadae4"/><path d="M5.344-4.592V-8.1H4.256v3.5H.768V-3.5H4.256V0H5.344V-3.5H8.832V-4.592Z" transform="translate(298 598)" fill="#dadae4"/><path d="M5.344-4.592V-8.1H4.256v3.5H.768V-3.5H4.256V0H5.344V-3.5H8.832V-4.592Z" transform="translate(618 598)" fill="#dadae4"/><path d="M5.344-4.592V-8.1H4.256v3.5H.768V-3.5H4.256V0H5.344V-3.5H8.832V-4.592Z" transform="translate(218 598)" fill="#dadae4"/><path d="M5.344-4.592V-8.1H4.256v3.5H.768V-3.5H4.256V0H5.344V-3.5H8.832V-4.592Z" transform="translate(538 598)" fill="#dadae4"/><path d="M5.344-4.592V-8.1H4.256v3.5H.768V-3.5H4.256V0H5.344V-3.5H8.832V-4.592Z" transform="translate(378 598)" fill="#dadae4"/><path d="M5.344-4.592V-8.1H4.256v3.5H.768V-3.5H4.256V0H5.344V-3.5H8.832V-4.592Z" transform="translate(698 598)" fill="#dadae4"/><path d="M5.344-4.592V-8.1H4.256v3.5H.768V-3.5H4.256V0H5.344V-3.5H8.832V-4.592Z" transform="translate(178 598)" fill="#dadae4"/><path d="M5.344-4.592V-8.1H4.256v3.5H.768V-3.5H4.256V0H5.344V-3.5H8.832V-4.592Z" transform="translate(498 598)" fill="#dadae4"/><path d="M5.344-4.592V-8.1H4.256v3.5H.768V-3.5H4.256V0H5.344V-3.5H8.832V-4.592Z" transform="translate(338 598)" fill="#dadae4"/><path d="M5.344-4.592V-8.1H4.256v3.5H.768V-3.5H4.256V0H5.344V-3.5H8.832V-4.592Z" transform="translate(658 598)" fill="#dadae4"/><path d="M5.344-4.592V-8.1H4.256v3.5H.768V-3.5H4.256V0H5.344V-3.5H8.832V-4.592Z" transform="translate(258 598)" fill="#dadae4"/><path d="M5.344-4.592V-8.1H4.256v3.5H.768V-3.5H4.256V0H5.344V-3.5H8.832V-4.592Z" transform="translate(578 598)" fill="#dadae4"/><path d="M5.344-4.592V-8.1H4.256v3.5H.768V-3.5H4.256V0H5.344V-3.5H8.832V-4.592Z" transform="translate(418 598)" fill="#dadae4"/><path d="M5.344-4.592V-8.1H4.256v3.5H.768V-3.5H4.256V0H5.344V-3.5H8.832V-4.592Z" transform="translate(738 598)" fill="#dadae4"/><path d="M5.344-4.592V-8.1H4.256v3.5H.768V-3.5H4.256V0H5.344V-3.5H8.832V-4.592Z" transform="translate(138 432)" fill="#dadae4"/><path d="M5.344-4.592V-8.1H4.256v3.5H.768V-3.5H4.256V0H5.344V-3.5H8.832V-4.592Z" transform="translate(458 432)" fill="#dadae4"/><path d="M5.344-4.592V-8.1H4.256v3.5H.768V-3.5H4.256V0H5.344V-3.5H8.832V-4.592Z" transform="translate(298 432)" fill="#dadae4"/><path d="M5.344-4.592V-8.1H4.256v3.5H.768V-3.5H4.256V0H5.344V-3.5H8.832V-4.592Z" transform="translate(618 432)" fill="#dadae4"/><path d="M5.344-4.592V-8.1H4.256v3.5H.768V-3.5H4.256V0H5.344V-3.5H8.832V-4.592Z" transform="translate(218 432)" fill="#dadae4"/><path d="M5.344-4.592V-8.1H4.256v3.5H.768V-3.5H4.256V0H5.344V-3.5H8.832V-4.592Z" transform="translate(538 432)" fill="#dadae4"/><path d="M5.344-4.592V-8.1H4.256v3.5H.768V-3.5H4.256V0H5.344V-3.5H8.832V-4.592Z" transform="translate(378 432)" fill="#dadae4"/><path d="M5.344-4.592V-8.1H4.256v3.5H.768V-3.5H4.256V0H5.344V-3.5H8.832V-4.592Z" transform="translate(698 432)" fill="#dadae4"/><path d="M5.344-4.592V-8.1H4.256v3.5H.768V-3.5H4.256V0H5.344V-3.5H8.832V-4.592Z" transform="translate(178 432)" fill="#dadae4"/><path d="M5.344-4.592V-8.1H4.256v3.5H.768V-3.5H4.256V0H5.344V-3.5H8.832V-4.592Z" transform="translate(498 432)" fill="#dadae4"/><path d="M5.344-4.592V-8.1H4.256v3.5H.768V-3.5H4.256V0H5.344V-3.5H8.832V-4.592Z" transform="translate(338 432)" fill="#dadae4"/><path d="M5.344-4.592V-8.1H4.256v3.5H.768V-3.5H4.256V0H5.344V-3.5H8.832V-4.592Z" transform="translate(658 432)" fill="#dadae4"/><path d="M5.344-4.592V-8.1H4.256v3.5H.768V-3.5H4.256V0H5.344V-3.5H8.832V-4.592Z" transform="translate(258 432)" fill="#dadae4"/><path d="M5.344-4.592V-8.1H4.256v3.5H.768V-3.5H4.256V0H5.344V-3.5H8.832V-4.592Z" transform="translate(578 432)" fill="#dadae4"/><path d="M5.344-4.592V-8.1H4.256v3.5H.768V-3.5H4.256V0H5.344V-3.5H8.832V-4.592Z" transform="translate(418 432)" fill="#dadae4"/><path d="M5.344-4.592V-8.1H4.256v3.5H.768V-3.5H4.256V0H5.344V-3.5H8.832V-4.592Z" transform="translate(738 432)" fill="#dadae4"/><path d="M0,0H600" transform="translate(142.5 138)" fill="none" stroke="#dadae4" stroke-width="1" stroke-dasharray="1 3"/><path d="M0,0H538.5" transform="translate(662.7 138.5) rotate(90)" fill="none" stroke="#dadae4" stroke-width="1" stroke-dasharray="1 3"/><path d="M0,0H538.5" transform="translate(742.7 138.5) rotate(90)" fill="none" stroke="#dadae4" stroke-width="1" stroke-dasharray="1 3"/><path d="M0,0H600" transform="translate(142.5 470)" fill="none" stroke="#dadae4" stroke-width="1" stroke-dasharray="1 3"/><path d="M0,0H538.5" transform="translate(342.7 138.5) rotate(90)" fill="none" stroke="#dadae4" stroke-width="1" stroke-dasharray="1 3"/><path d="M0,0H600" transform="translate(142.5 304)" fill="none" stroke="#dadae4" stroke-width="1" stroke-dasharray="1 3"/><path d="M0,0H538.5" transform="translate(502.7 138.5) rotate(90)" fill="none" stroke="#dadae4" stroke-width="1" stroke-dasharray="1 3"/><path d="M0,0H600" transform="translate(142.5 636)" fill="none" stroke="#dadae4" stroke-width="1" stroke-dasharray="1 3"/><path d="M0,0H538.5" transform="translate(183 138.5) rotate(90)" fill="none" stroke="#dadae4" stroke-width="1" stroke-dasharray="1 3"/><path d="M0,0H600" transform="translate(142.5 221)" fill="none" stroke="#dadae4" stroke-width="1" stroke-dasharray="1 3"/><path d="M0,0H538.5" transform="translate(582.7 138.5) rotate(90)" fill="none" stroke="#dadae4" stroke-width="1" stroke-dasharray="1 3"/><path d="M0,0H600" transform="translate(142.5 553)" fill="none" stroke="#dadae4" stroke-width="1" stroke-dasharray="1 3"/><path d="M0,0H538.5" transform="translate(262.7 138.5) rotate(90)" fill="none" stroke="#dadae4" stroke-width="1" stroke-dasharray="1 3"/><path d="M0,0H600" transform="translate(142.5 387)" fill="none" stroke="#dadae4" stroke-width="1" stroke-dasharray="1 3"/><path d="M0,0H538.5" transform="translate(422.7 138.5) rotate(90)" fill="none" stroke="#dadae4" stroke-width="1" stroke-dasharray="1 3"/><path d="M0,0H600" transform="translate(142.5 179)" fill="none" stroke="#dadae4" stroke-width="1" stroke-dasharray="1 3"/><path d="M0,0H538.5" transform="translate(622.7 138.5) rotate(90)" fill="none" stroke="#dadae4" stroke-width="1" stroke-dasharray="1 3"/><path d="M0,0H538.5" transform="translate(702.7 138.5) rotate(90)" fill="none" stroke="#dadae4" stroke-width="1" stroke-dasharray="1 3"/><path d="M0,0H600" transform="translate(142.5 511)" fill="none" stroke="#dadae4" stroke-width="1" stroke-dasharray="1 3"/><path d="M0,0H538.5" transform="translate(302.7 138.5) rotate(90)" fill="none" stroke="#dadae4" stroke-width="1" stroke-dasharray="1 3"/><path d="M0,0H600" transform="translate(142.5 345)" fill="none" stroke="#dadae4" stroke-width="1" stroke-dasharray="1 3"/><path d="M0,0H538.5" transform="translate(462.7 138.5) rotate(90)" fill="none" stroke="#dadae4" stroke-width="1" stroke-dasharray="1 3"/><path d="M0,0H600" transform="translate(142.5 677)" fill="none" stroke="#dadae4" stroke-width="1" stroke-dasharray="1 3"/><path d="M0,0H538.5" transform="translate(142.7 138.5) rotate(90)" fill="none" stroke="#dadae4" stroke-width="1" stroke-dasharray="1 3"/><path d="M0,0H600" transform="translate(142.5 262)" fill="none" stroke="#dadae4" stroke-width="1" stroke-dasharray="1 3"/><path d="M0,0H538.5" transform="translate(542.7 138.5) rotate(90)" fill="none" stroke="#dadae4" stroke-width="1" stroke-dasharray="1 3"/><path d="M0,0H600" transform="translate(142.5 594)" fill="none" stroke="#dadae4" stroke-width="1" stroke-dasharray="1 3"/><path d="M0,0H538.5" transform="translate(222.7 138.5) rotate(90)" fill="none" stroke="#dadae4" stroke-width="1" stroke-dasharray="1 3"/><path d="M0,0H600" transform="translate(142.5 428)" fill="none" stroke="#dadae4" stroke-width="1" stroke-dasharray="1 3"/><path d="M0,0H538.5" transform="translate(382.7 138.5) rotate(90)" fill="none" stroke="#dadae4" stroke-width="1" stroke-dasharray="1 3"/></g></svg>