<svg xmlns="http://www.w3.org/2000/svg" width="41.891" height="32.261" viewBox="0 0 41.891 32.261"><path d="M388.918,305.519a6.5,6.5,0,0,0,.632-12.726l-.171-.036a6.495,6.495,0,0,0-7.326,9.1l.332.706-7.55,6.191-.637-.545a9.469,9.469,0,0,0-10.057-1.411l-.751.344-2.2-3.09.437-.585a5.034,5.034,0,1,0-2.509,1.785l.694-.221L362,308.1l-.6.6a9.455,9.455,0,0,0,6.656,16.15h.017a9.39,9.39,0,0,0,6.672-2.757,9.486,9.486,0,0,0,1.577-11.313l-.409-.73,7.549-6.19.626.462A6.464,6.464,0,0,0,388.918,305.519Zm-28.072-4.3h0a3.326,3.326,0,0,1-3.238,2.586,3.384,3.384,0,0,1-.736-.083,3.321,3.321,0,1,1,3.975-2.5Zm14.793,15.9a7.776,7.776,0,0,1-7.563,6.055,7.922,7.922,0,0,1-1.732-.194,7.771,7.771,0,1,1,9.3-5.861Zm7.606-19.091a4.811,4.811,0,0,1,9.381,2.138v0a4.814,4.814,0,0,1-4.68,3.742,4.851,4.851,0,0,1-1.081-.123,4.81,4.81,0,0,1-3.62-5.759Z" transform="translate(-352.554 -292.592)" fill="#1ab395"/></svg>