<svg xmlns="http://www.w3.org/2000/svg" width="1502.076" height="215.008" viewBox="0 0 1502.076 215.008"><g transform="translate(-453.483 -696.75)" opacity="0.3"><g transform="translate(453.733 793.821)"><path d="M31.649,6.6a.81.81,0,0,0,.8-.8V.8a.8.8,0,0,0-.8-.8h-5a.8.8,0,0,0-.8.8V2.545H6.6V.8a.81.81,0,0,0-.8-.8H.8A.811.811,0,0,0,0,.8v5a.8.8,0,0,0,.8.8H2.545V25.851H.8a.81.81,0,0,0-.8.8v5a.811.811,0,0,0,.8.8h5a.8.8,0,0,0,.8-.8V29.907H25.851v1.742a.81.81,0,0,0,.8.8h5a.811.811,0,0,0,.8-.8v-5a.8.8,0,0,0-.8-.8H29.907V6.6ZM1.591,5.011V1.591h3.42v3.42Zm3.42,25.851H1.591v-3.42h3.42Zm20.84-4.216v1.67H6.6v-1.67a.8.8,0,0,0-.8-.8H4.136V6.6h1.67a.8.8,0,0,0,.8-.8V4.136H25.851v1.67a.8.8,0,0,0,.8.8h1.67V25.851h-1.67A.8.8,0,0,0,25.851,26.646Zm5.011.8v3.42h-3.42v-3.42ZM27.442,5.011V1.591h3.42v3.42Z" fill="#d9d9d9" stroke="#d9d9d9" stroke-width="0.5"/></g><g transform="translate(968.405 703.916)"><path d="M25.78,315.834a1.73,1.73,0,0,0-2.449,0l-2.824,2.825-2.824-2.825a1.731,1.731,0,1,0-2.447,2.448l2.824,2.826-2.824,2.824a1.731,1.731,0,1,0,2.447,2.449l2.824-2.826,2.824,2.826a1.732,1.732,0,0,0,2.449-2.449l-2.826-2.824,2.826-2.826A1.731,1.731,0,0,0,25.78,315.834Z" transform="translate(-14.728 -292.985)" fill="#10a378"/><path d="M56.185,40.774H44.935V29.525a1.731,1.731,0,0,0-3.462,0V40.774H30.224a1.731,1.731,0,1,0,0,3.462H41.473V55.485a1.731,1.731,0,0,0,3.462,0V44.235h11.25a1.731,1.731,0,0,0,0-3.462Z" transform="translate(-26.104 -25.875)" fill="#10a378"/><path d="M306.279,21.521a1.73,1.73,0,0,0-2.426.323l-5.523,7.214-2.022-1.517a1.731,1.731,0,0,0-2.077,2.77l3.394,2.544a1.717,1.717,0,0,0,1.037.345,1.734,1.734,0,0,0,1.376-.678l6.563-8.575A1.73,1.73,0,0,0,306.279,21.521Z" transform="translate(-272.209 -21.165)" fill="#10a378"/></g><path d="M30.378,105.869H20.151a12.513,12.513,0,0,0-7.494-2.532,12.657,12.657,0,1,0,0,25.315,12.513,12.513,0,0,0,7.494-2.532H30.378a10.126,10.126,0,1,0,0-20.252ZM2.531,115.994A10.126,10.126,0,1,1,12.657,126.12,10.137,10.137,0,0,1,2.531,115.994Zm27.846,7.594H22.719a12.406,12.406,0,0,0,0-15.189h7.659a7.594,7.594,0,1,1,0,15.189Z" transform="translate(584.88 604.037)" fill="#10a378"/><g transform="translate(885.911 795.55)"><g transform="translate(0 0)"><path d="M36.739,32.547H34.074V29.789a1.275,1.275,0,0,0-1.087-1.262,19.587,19.587,0,0,0-5.831.175,13.1,13.1,0,0,0-8.149,4.562A13.1,13.1,0,0,0,10.858,28.7a19.592,19.592,0,0,0-5.831-.175A1.276,1.276,0,0,0,3.94,29.789v2.758H1.276A1.276,1.276,0,0,0,0,33.823V57.861a1.276,1.276,0,0,0,1.7,1.2c.1-.033,9.655-3.3,16.783-.044a1.275,1.275,0,0,0,1.059,0c7.108-3.242,16.688.011,16.783.044a1.275,1.275,0,0,0,1.7-1.2V33.823A1.276,1.276,0,0,0,36.739,32.547ZM2.551,56.154V35.1H3.94V52.087A1.277,1.277,0,0,0,5.4,53.349c.07-.01,5.612-.771,9.661,2.007A31.058,31.058,0,0,0,2.551,56.154Zm15.18-1.949A13.745,13.745,0,0,0,10.858,51,20.018,20.018,0,0,0,7.3,50.688c-.293,0-.565.006-.811.016V30.96h0c2.452-.111,8.416.152,11.24,4.939ZM20.283,35.9c2.814-4.767,8.788-5.041,11.24-4.936V50.7a20.222,20.222,0,0,0-4.366.3,13.744,13.744,0,0,0-6.874,3.2V35.9Zm2.664,19.457c4.049-2.78,9.594-2.018,9.663-2.008a1.276,1.276,0,0,0,1.465-1.262V35.1h1.389V56.154A31.051,31.051,0,0,0,22.947,55.356Z" transform="translate(0 -28.39)" fill="#f35f5f"/></g></g><g transform="translate(1685.53 697)"><g transform="translate(18.202)"><path d="M196.55,0a4.55,4.55,0,1,0,4.55,4.55A4.55,4.55,0,0,0,196.55,0Zm0,7.584a3.034,3.034,0,1,1,3.034-3.034A3.034,3.034,0,0,1,196.55,7.584Z" transform="translate(-192 0)" fill="#f35f5f" stroke="#f35f5f" stroke-width="0.5"/></g><g transform="translate(15.926 9.859)"><path d="M177.859,104h-.179l-.16.08a6.046,6.046,0,0,1-5.389,0l-.16-.08h-.179A3.8,3.8,0,0,0,168,107.792v4.55a2.275,2.275,0,0,0,2.275,2.275h9.1a2.275,2.275,0,0,0,2.275-2.275v-4.55A3.8,3.8,0,0,0,177.859,104Zm2.275,8.342a.758.758,0,0,1-.758.758h-9.1a.758.758,0,0,1-.758-.758v-4.55a2.275,2.275,0,0,1,2.114-2.269,7.59,7.59,0,0,0,6.39,0,2.275,2.275,0,0,1,2.114,2.269Z" transform="translate(-168 -104)" fill="#f35f5f" stroke="#f35f5f" stroke-width="0.5"/></g><g transform="translate(34.128 25.027)"><path d="M364.55,264a4.55,4.55,0,1,0,4.55,4.55A4.55,4.55,0,0,0,364.55,264Zm0,7.584a3.034,3.034,0,1,1,3.034-3.034A3.034,3.034,0,0,1,364.55,271.584Z" transform="translate(-360 -264)" fill="#f35f5f" stroke="#f35f5f" stroke-width="0.5"/></g><g transform="translate(31.853 34.886)"><path d="M345.859,368h-.179l-.16.076a6.046,6.046,0,0,1-5.389,0l-.16-.076h-.179A3.8,3.8,0,0,0,336,371.792v4.55a2.275,2.275,0,0,0,2.275,2.275h9.1a2.275,2.275,0,0,0,2.275-2.275v-4.55A3.8,3.8,0,0,0,345.859,368Zm2.275,8.342a.758.758,0,0,1-.758.759h-9.1a.758.758,0,0,1-.758-.759v-4.55a2.275,2.275,0,0,1,2.114-2.269,7.59,7.59,0,0,0,6.39,0,2.275,2.275,0,0,1,2.114,2.269Z" transform="translate(-336 -368)" fill="#f35f5f" stroke="#f35f5f" stroke-width="0.5"/></g><g transform="translate(2.275 25.027)"><path d="M28.55,264a4.55,4.55,0,1,0,4.55,4.55A4.55,4.55,0,0,0,28.55,264Zm0,7.584a3.034,3.034,0,1,1,3.034-3.034A3.034,3.034,0,0,1,28.55,271.584Z" transform="translate(-24 -264)" fill="#f35f5f" stroke="#f35f5f" stroke-width="0.5"/></g><g transform="translate(0 34.886)"><path d="M9.859,368H9.68l-.16.076a6.046,6.046,0,0,1-5.389,0L3.971,368H3.792A3.8,3.8,0,0,0,0,371.792v4.55a2.275,2.275,0,0,0,2.275,2.275h9.1a2.275,2.275,0,0,0,2.275-2.275v-4.55A3.8,3.8,0,0,0,9.859,368Zm2.275,8.342a.758.758,0,0,1-.758.759h-9.1a.758.758,0,0,1-.758-.759v-4.55a2.275,2.275,0,0,1,2.114-2.269,7.59,7.59,0,0,0,6.39,0,2.275,2.275,0,0,1,2.114,2.269Z" transform="translate(0 -368)" fill="#f35f5f" stroke="#f35f5f" stroke-width="0.5"/></g><g transform="translate(15.168 37.161)"><path d="M175.106,393.349v0a.758.758,0,0,0-.995-.4h0a16.824,16.824,0,0,1-10.817.745l.71-.209a.759.759,0,0,0-.426-1.456l-3.034.89c-.011,0-.02.013-.03.017a.754.754,0,0,0-.2.108.677.677,0,0,0-.076.048.735.735,0,0,0-.186.258.759.759,0,0,0-.058.313,2.339,2.339,0,0,0,.076.3c0,.011,0,.023.008.033l1.517,2.9a.759.759,0,0,0,1.345-.7l-.617-1.18a18.255,18.255,0,0,0,12.376-.673A.758.758,0,0,0,175.106,393.349Z" transform="translate(-159.998 -391.995)" fill="#f35f5f" stroke="#f35f5f" stroke-width="0.5"/></g><g transform="translate(28.819 5.937)"><path d="M318.185,76.626a.758.758,0,0,0-1.072,0L316.04,77.7a18.174,18.174,0,0,0-10.986-15.016.758.758,0,0,0-.595,1.4,16.66,16.66,0,0,1,10.031,13.4l-.855-.855a.758.758,0,0,0-1.072,1.072l2.275,2.275a.758.758,0,0,0,1.073,0h0l2.275-2.275A.758.758,0,0,0,318.185,76.626Z" transform="translate(-303.998 -62.622)" fill="#f35f5f" stroke="#f35f5f" stroke-width="0.5"/></g><g transform="translate(4.55 4.563)"><path d="M60.112,50.138a.707.707,0,0,0-.02-.131c0-.007-.008-.011-.011-.019s0-.013,0-.019a.729.729,0,0,0-.071-.1.767.767,0,0,0-.086-.125.712.712,0,0,0-.148-.1.668.668,0,0,0-.085-.061l-3.034-1.386a.758.758,0,0,0-.629,1.379l1.571.718A18.174,18.174,0,0,0,48,66.323a.758.758,0,0,0,1.517,0,16.659,16.659,0,0,1,8.208-14.367L57.177,53.1a.758.758,0,0,0,.354,1.011.747.747,0,0,0,.328.076.758.758,0,0,0,.683-.43l1.517-3.165a.035.035,0,0,1,.006-.024.729.729,0,0,0,.041-.161.785.785,0,0,0,.029-.125A.758.758,0,0,0,60.112,50.138Z" transform="translate(-48 -48.134)" fill="#f35f5f" stroke="#f35f5f" stroke-width="0.5"/></g></g><g transform="translate(589.093 880.269)"><g transform="translate(0 0)"><g transform="translate(0 0)"><path d="M36.448,56.829l0,0h0l-5.262-5.262a1.315,1.315,0,0,0-1.86,1.86l3.018,3.018H24.993a9.218,9.218,0,0,0-9.208,9.208,6.585,6.585,0,0,1-6.577,6.577H1.315a1.315,1.315,0,1,0,0,2.631H9.208a9.218,9.218,0,0,0,9.208-9.208,6.585,6.585,0,0,1,6.577-6.577H32.34l-3.016,3.016a1.315,1.315,0,1,0,1.828,1.892l.032-.032,5.262-5.262A1.315,1.315,0,0,0,36.448,56.829Z" transform="translate(0 -51.197)" fill="#f35f5f"/></g></g><g transform="translate(18.423 15.785)"><g transform="translate(0 0)"><path d="M257.06,261.63l0,0h0l-5.262-5.262a1.315,1.315,0,0,0-1.86,1.86l3.018,3.018h-7.348a6.567,6.567,0,0,1-4.385-1.674,1.315,1.315,0,0,0-1.755,1.96,9.194,9.194,0,0,0,6.14,2.345h7.348l-3.016,3.016a1.315,1.315,0,0,0,1.828,1.892l.032-.032,5.262-5.262A1.315,1.315,0,0,0,257.06,261.63Z" transform="translate(-239.036 -255.998)" fill="#f35f5f"/></g></g><g transform="translate(0 5.247)"><g transform="translate(0 0)"><path d="M15.348,121.617a9.194,9.194,0,0,0-6.14-2.345H1.315a1.315,1.315,0,0,0,0,2.631H9.208a6.567,6.567,0,0,1,4.386,1.674,1.315,1.315,0,0,0,1.755-1.96Z" transform="translate(0 -119.272)" fill="#f35f5f"/></g></g></g><g transform="translate(1575.686 800.737)"><g transform="translate(0 0)"><path d="M40.763,134.68a4.839,4.839,0,0,0-4.056,7.483l-5.232,5.232a4.828,4.828,0,0,0-5.364.054l-5.285-5.286a4.842,4.842,0,1,0-8.112,0l-5.232,5.232A4.849,4.849,0,1,0,8.9,148.81l5.232-5.232a4.826,4.826,0,0,0,5.281,0l5.315,5.315a4.842,4.842,0,1,0,8.166-.083l5.232-5.232a4.841,4.841,0,1,0,2.64-8.9ZM4.842,154.291a2.841,2.841,0,1,1,2.841-2.841A2.844,2.844,0,0,1,4.842,154.291ZM16.77,142.363a2.841,2.841,0,1,1,2.841-2.841A2.844,2.844,0,0,1,16.77,142.363Zm12.065,11.928a2.841,2.841,0,1,1,2.841-2.841A2.844,2.844,0,0,1,28.835,154.291Zm11.928-11.928a2.841,2.841,0,1,1,2.841-2.841A2.844,2.844,0,0,1,40.763,142.363Z" transform="translate(0 -134.68)" fill="#fb9b02"/></g></g><g transform="translate(1928.469 703.916)"><path d="M16.159,30.389c2.483,0,3.8-2.218,4.189-3.528q.009-.031.017-.063c.9-3.741,2.342-9.671,3.408-13.984h3.814a1.3,1.3,0,0,0,0-2.6H24.419c.341-1.359.591-2.327.689-2.657l.109-.37c.4-1.374,1.345-4.592,2.8-4.592,1.352,0,1.553,2.082,1.563,2.183a1.3,1.3,0,0,0,2.589-.2C32.05,2.993,31.025,0,28.02,0c-3.4,0-4.681,4.362-5.3,6.459l-.1.354c-.125.415-.452,1.693-.879,3.4H17.2a1.3,1.3,0,1,0,0,2.6h3.9c-1.333,5.408-3.056,12.541-3.246,13.327-.071.206-.6,1.651-1.692,1.651-1.663,0-2.383-2.334-2.389-2.352a1.3,1.3,0,1,0-2.495.723C11.73,27.732,13.269,30.389,16.159,30.389Z" transform="translate(-11.224)" fill="#d9d9d9"/><path d="M93.2,85.818a1.363,1.363,0,0,0,1.408-1.409,1.763,1.763,0,0,0-.5-1.167l-2.7-3.1,2.617-3.059a1.628,1.628,0,0,0,.422-1.047,1.352,1.352,0,0,0-1.429-1.329,1.763,1.763,0,0,0-1.328.786L89.658,78.15l-1.992-2.656a1.749,1.749,0,0,0-1.429-.785,1.363,1.363,0,0,0-1.409,1.409,1.764,1.764,0,0,0,.5,1.167l2.516,2.9-2.758,3.26a1.529,1.529,0,0,0-.422,1.047A1.352,1.352,0,0,0,86.1,85.818a1.762,1.762,0,0,0,1.328-.785L89.6,82.176l2.173,2.857A1.75,1.75,0,0,0,93.2,85.818Z" transform="translate(-69.007 -58.779)" fill="#d9d9d9"/></g><g transform="translate(776.111 710.832)"><g transform="translate(0 0)"><path d="M32.365,141.333A9.283,9.283,0,0,0,25.8,144l-4.916,4.35-.009-.009-2.636,2.323.017.017-4.689,4.159A5.886,5.886,0,1,1,9.4,144.813a5.945,5.945,0,0,1,4.246,1.792l1.975,1.749,2.627-2.323-2.2-1.949a9.348,9.348,0,1,0-.078,13.294l4.916-4.359.009.009,2.627-2.332-.009-.009,4.689-4.15a5.884,5.884,0,1,1,4.167,10.023,5.971,5.971,0,0,1-4.246-1.784l-1.975-1.749-2.628,2.332,2.2,1.949a9.378,9.378,0,1,0,6.647-15.974Z" transform="translate(0 -141.333)" fill="#3167ac"/></g></g><path d="M-4.6-8.943A6.893,6.893,0,0,1-.383-7.755a3.788,3.788,0,0,1,1.6,3.205A4.189,4.189,0,0,1,.445-2.066,6.574,6.574,0,0,1-2.045-.118,8.822,8.822,0,0,1,.887,2.166a4.255,4.255,0,0,1,.89,2.608,4.339,4.339,0,0,1-1.755,3.6A7.321,7.321,0,0,1-4.6,9.74,7.705,7.705,0,0,1-9.289,8.47a4.22,4.22,0,0,1-1.705-3.6,4.77,4.77,0,0,1,.828-2.763A6.875,6.875,0,0,1-7.509-.019a6.819,6.819,0,0,1-2.241-2.1,4.614,4.614,0,0,1-.685-2.452A3.764,3.764,0,0,1-8.816-7.736,6.877,6.877,0,0,1-4.6-8.943ZM-7.434,4.649a2.016,2.016,0,0,0,.747,1.668,3.181,3.181,0,0,0,2.041.6A3.193,3.193,0,0,0-2.505,6.3,2.047,2.047,0,0,0-1.8,4.674a2.222,2.222,0,0,0-.7-1.562,9.041,9.041,0,0,0-2.284-1.55Q-7.434,2.782-7.434,4.649ZM-4.621-6.13a2.394,2.394,0,0,0-1.587.5,1.67,1.67,0,0,0-.6,1.351,2.069,2.069,0,0,0,.479,1.338A5.268,5.268,0,0,0-4.6-1.724a4.861,4.861,0,0,0,1.705-1.17,2.128,2.128,0,0,0,.485-1.382,1.644,1.644,0,0,0-.622-1.357A2.471,2.471,0,0,0-4.621-6.13ZM16.3.392q0,4.767-1.562,7.058A5.42,5.42,0,0,1,9.93,9.74,5.358,5.358,0,0,1,5.181,7.375Q3.582,5.01,3.582.392q0-4.817,1.556-7.1A5.4,5.4,0,0,1,9.93-8.993,5.372,5.372,0,0,1,14.691-6.6Q16.3-4.213,16.3.392Zm-8.9,0a14.158,14.158,0,0,0,.579,4.8A2,2,0,0,0,9.93,6.641a2.025,2.025,0,0,0,1.942-1.469,13.766,13.766,0,0,0,.6-4.78,13.726,13.726,0,0,0-.6-4.811A2.028,2.028,0,0,0,9.93-5.881,2.01,2.01,0,0,0,7.988-4.419,14.134,14.134,0,0,0,7.4.392ZM22.85,1.923,24.506-.193l3.9-4.232h4.282L27.157,1.612,33.02,9.491H28.638L24.63,3.852,23,5.159V9.491H19.2V-9.877H23v8.638l-.2,3.162Z" transform="translate(681.192 810.614)" fill="#a0d1c5"/><path d="M36.758,23.913a7.233,7.233,0,0,0-5.575,2.623L22.53,21.623a7.23,7.23,0,0,0,0-4.84l8.653-4.914a7.238,7.238,0,1,0-1.254-2.2L21.276,14.58a7.245,7.245,0,1,0,0,9.246l8.653,4.913a7.244,7.244,0,1,0,6.829-4.826Zm0-21.378a4.711,4.711,0,1,1-4.71,4.71A4.715,4.715,0,0,1,36.758,2.535ZM15.7,23.913a4.71,4.71,0,1,1,4.709-4.71A4.716,4.716,0,0,1,15.7,23.913ZM36.758,35.87a4.711,4.711,0,1,1,4.709-4.71A4.716,4.716,0,0,1,36.758,35.87Z" transform="translate(771.114 873.353)" fill="#fb9b02"/><g transform="translate(1469.694 703.916)"><path d="M0,7.78H7.78V0H0ZM11.67,31.121h7.78v-7.78H11.67ZM0,31.121H7.78v-7.78H0Zm0-11.67H7.78V11.67H0Zm11.67,0h7.78V11.67H11.67ZM23.341,0V7.78h7.78V0ZM11.67,7.78h7.78V0H11.67Zm11.67,11.67h7.78V11.67h-7.78Zm0,11.67h7.78v-7.78h-7.78Z" fill="#a0d1c5"/></g><g transform="translate(1928.469 869.895)"><path d="M23.458,0H9.668A3.637,3.637,0,0,0,6.035,3.633v.446h-2.4A3.637,3.637,0,0,0,0,7.711V29.19a3.637,3.637,0,0,0,3.633,3.633h13.79a3.637,3.637,0,0,0,3.633-3.633v-.446h2.4a3.637,3.637,0,0,0,3.633-3.633V3.633A3.637,3.637,0,0,0,23.458,0ZM18.712,29.19a1.291,1.291,0,0,1-1.289,1.289H3.633A1.291,1.291,0,0,1,2.343,29.19V7.711A1.291,1.291,0,0,1,3.633,6.422h13.79a1.291,1.291,0,0,1,1.289,1.289V29.19Zm6.035-4.079A1.291,1.291,0,0,1,23.458,26.4h-2.4V7.711a3.637,3.637,0,0,0-3.633-3.633H8.379V3.633A1.291,1.291,0,0,1,9.668,2.343h13.79a1.291,1.291,0,0,1,1.289,1.289V25.112Z" transform="translate(27.09 32.823) rotate(180)" fill="#d9d9d9"/><circle cx="2.91" cy="2.91" r="2.91" transform="translate(14.013 11.639)" fill="#d9d9d9"/></g><g transform="translate(1789.417 802.467)"><path d="M10.987,120.3a.577.577,0,0,0-.189-.424l-.944-.922a.6.6,0,0,0-.868,0l-8.8,8.593a.571.571,0,0,0,0,.848l8.8,8.593a.6.6,0,0,0,.868,0l.944-.922a.571.571,0,0,0,0-.848l-7.419-7.247L10.8,120.72A.576.576,0,0,0,10.987,120.3Z" transform="translate(0 -118.765)" fill="#a0d1c5" stroke="#d9d9d9" stroke-width="0.75"/><path d="M367.11,127.539l-8.8-8.593a.6.6,0,0,0-.868,0l-.944.922a.572.572,0,0,0,0,.848l7.419,7.247L356.5,135.21a.571.571,0,0,0,0,.848l.944.921a.6.6,0,0,0,.868,0l8.8-8.592a.571.571,0,0,0,0-.848Z" transform="translate(-332.238 -118.762)" fill="#a0d1c5" stroke="#d9d9d9" stroke-width="0.75"/></g><path d="M27.6,12.251l-2.838-.473a10.69,10.69,0,0,0-.9-2.4l1.817-2.253A1.252,1.252,0,0,0,25.643,5.5l-1.129-1.27A1.253,1.253,0,0,0,22.909,4L20.482,5.53A10.678,10.678,0,0,0,16.9,3.914L16.426,1.06A1.252,1.252,0,0,0,15.19.013h-1.7A1.249,1.249,0,0,0,12.254,1.06l-.477,2.854A10.673,10.673,0,0,0,8.765,5.166L6.457,3.519a1.255,1.255,0,0,0-1.615.133l-1.2,1.2A1.253,1.253,0,0,0,3.508,6.47L5.159,8.782a10.7,10.7,0,0,0-1.242,2.99l-2.869.479A1.253,1.253,0,0,0,0,13.487v1.7a1.253,1.253,0,0,0,1.047,1.236l2.869.479a10.67,10.67,0,0,0,.95,2.5l-1.809,2.24a1.253,1.253,0,0,0,.038,1.62l1.128,1.27a1.254,1.254,0,0,0,1.606.229l2.462-1.547a10.664,10.664,0,0,0,3.485,1.547l.477,2.854a1.249,1.249,0,0,0,1.234,1.047h1.7a1.252,1.252,0,0,0,1.236-1.047L16.9,24.76a10.658,10.658,0,0,0,2.978-1.231l2.4,1.717a1.25,1.25,0,0,0,1.614-.134l1.2-1.2a1.249,1.249,0,0,0,.132-1.614L23.52,19.9a10.648,10.648,0,0,0,1.244-3l2.838-.474a1.251,1.251,0,0,0,1.047-1.236v-1.7A1.253,1.253,0,0,0,27.6,12.251ZM14.37,19.709a5.372,5.372,0,1,1,5.372-5.372A5.373,5.373,0,0,1,14.37,19.709Z" transform="translate(1694.173 873.34)" fill="#10a378"/><g transform="translate(1467.006 869.896)"><path d="M26.254,36.529a10.177,10.177,0,0,1-3.492-.624,37.233,37.233,0,0,1-13.52-8.618A37.23,37.23,0,0,1,.624,13.767,10.1,10.1,0,0,1,.109,8.8,10.361,10.361,0,0,1,5.434,1.217,10.172,10.172,0,0,1,10.3,0,1.142,1.142,0,0,1,11.42.9l1.792,8.361A1.142,1.142,0,0,1,12.9,10.31L9.841,13.371A30.047,30.047,0,0,0,23.158,26.688l3.061-3.062a1.142,1.142,0,0,1,1.046-.309l8.361,1.792a1.142,1.142,0,0,1,.9,1.116,10.171,10.171,0,0,1-1.217,4.87,10.361,10.361,0,0,1-7.584,5.325A10.154,10.154,0,0,1,26.254,36.529ZM9.392,2.333A8,8,0,0,0,2.77,12.988,34.623,34.623,0,0,0,23.542,33.76,8,8,0,0,0,34.2,27.138l-6.8-1.458-3.2,3.2A1.141,1.141,0,0,1,22.9,29.1,32.322,32.322,0,0,1,7.426,13.625a1.141,1.141,0,0,1,.226-1.293l3.2-3.2Z" transform="translate(0 0)" fill="#3167ac"/></g></g></svg>