<svg xmlns="http://www.w3.org/2000/svg" width="39.524" height="39.529" viewBox="0 0 39.524 39.529"><g transform="translate(94.343 -278.103)"><path d="M-84.358,309.656l-.542-.294.423-.449a4.241,4.241,0,0,0,1.162-3.053,4.241,4.241,0,0,0-1.337-2.979,4.257,4.257,0,0,0-2.929-1.162,4.253,4.253,0,0,0-3.1,1.337,4.272,4.272,0,0,0,0,5.857l.423.449-.542.294a6.762,6.762,0,0,0-3.538,5.943v1.321a.712.712,0,0,0,.71.711h12.1a.712.712,0,0,0,.711-.711V315.6A6.763,6.763,0,0,0-84.358,309.656Zm-6.071-3.664h0a2.849,2.849,0,0,1,2.846-2.845,2.849,2.849,0,0,1,2.847,2.845,2.849,2.849,0,0,1-2.847,2.846A2.854,2.854,0,0,1-90.429,305.992Zm8.169,10.217H-92.91l-.012-.462a5.351,5.351,0,0,1,5.2-5.485l.138,0a5.306,5.306,0,0,1,3.777,1.567,5.308,5.308,0,0,1,1.563,3.779Z" fill="#1ab395"/><path d="M-58.357,309.657l-.542-.294.423-.449a4.241,4.241,0,0,0,1.162-3.053,4.242,4.242,0,0,0-1.337-2.979,4.25,4.25,0,0,0-2.929-1.162,4.253,4.253,0,0,0-3.1,1.337,4.272,4.272,0,0,0,0,5.857l.423.449-.542.294A6.763,6.763,0,0,0-68.34,315.6v1.321a.712.712,0,0,0,.711.711h12.1a.712.712,0,0,0,.711-.711V315.6A6.764,6.764,0,0,0-58.357,309.657Zm-6.072-3.665h0a2.849,2.849,0,0,1,2.846-2.845,2.849,2.849,0,0,1,2.847,2.845,2.849,2.849,0,0,1-2.847,2.846A2.853,2.853,0,0,1-64.429,305.992Zm8.192,9.754-.012.463H-66.9l-.012-.463a5.349,5.349,0,0,1,5.208-5.472,5.361,5.361,0,0,1,5.471,5.207C-56.235,315.569-56.235,315.658-56.237,315.746Z" fill="#1ab395"/><path d="M-68.531,294.015a.712.712,0,0,0,.709-.711v-1.322a6.761,6.761,0,0,0-3.536-5.941l-.542-.294.423-.45a4.271,4.271,0,0,0-.176-6.032,4.251,4.251,0,0,0-2.928-1.162,4.254,4.254,0,0,0-3.1,1.337,4.273,4.273,0,0,0,0,5.858l.423.449-.542.294a6.761,6.761,0,0,0-3.536,5.942V293.3a.712.712,0,0,0,.711.711Zm-8.9-11.639h0a2.85,2.85,0,0,1,2.847-2.846,2.85,2.85,0,0,1,2.846,2.846,2.852,2.852,0,0,1-2.843,2.847A2.854,2.854,0,0,1-77.43,282.376Zm-1.022,5.94a5.305,5.305,0,0,1,3.737-1.658,5.32,5.32,0,0,1,3.814,1.47,5.308,5.308,0,0,1,1.657,3.737c0,.089,0,.177,0,.265l-.011.464H-79.911l-.012-.464A5.307,5.307,0,0,1-78.452,288.316Z" fill="#1ab395"/><path d="M-79.486,308.1a.7.7,0,0,0-.191-.027.713.713,0,0,0-.681.514.71.71,0,0,0,.452.871A17.54,17.54,0,0,0-69.2,309.4a.709.709,0,0,0,.429-.347.71.71,0,0,0,.053-.542.7.7,0,0,0-.346-.42.712.712,0,0,0-.541-.054l-.188-.437.146.452A16.151,16.151,0,0,1-79.486,308.1Z" fill="#1ab395"/><path d="M-84,288.328a.706.706,0,0,0-.211-.5.71.71,0,0,0-.977-.021,17.558,17.558,0,0,0-5.059,9.441.715.715,0,0,0,.1.543.71.71,0,0,0,.451.3.711.711,0,0,0,.84-.553,16.17,16.17,0,0,1,4.656-8.716A.7.7,0,0,0-84,288.328Z" fill="#1ab395"/><path d="M-59.48,298.042a.708.708,0,0,0,.558-.808,17.548,17.548,0,0,0-5.061-9.434l-.007-.007a.712.712,0,0,0-.506-.21.709.709,0,0,0-.5.2.712.712,0,0,0,0,1.005,16.183,16.183,0,0,1,4.682,8.7A.71.71,0,0,0-59.48,298.042Z" fill="#1ab395"/></g></svg>