<svg xmlns="http://www.w3.org/2000/svg" width="43.22" height="41.419" viewBox="0 0 43.22 41.419"><g transform="translate(0 -1)"><path d="M42.319,24.7H.9A.852.852,0,1,1,.9,23H42.319a.852.852,0,1,1,0,1.7Z" transform="translate(0 17.717)" fill="#1ab395"/><path d="M10.36,28.913H1.851A.851.851,0,0,1,1,28.062V18.7A1.7,1.7,0,0,1,2.7,17H9.509a1.7,1.7,0,0,1,1.7,1.7v9.36A.851.851,0,0,1,10.36,28.913ZM2.7,27.211H9.509V18.7H2.7Z" transform="translate(0.702 13.506)" fill="#1ab395"/><path d="M18.36,33.124H9.851A.851.851,0,0,1,9,32.273V12.7A1.7,1.7,0,0,1,10.7,11h6.807a1.7,1.7,0,0,1,1.7,1.7V32.273A.851.851,0,0,1,18.36,33.124Zm-7.658-1.7h6.807V12.7H10.7Z" transform="translate(7.504 9.295)" fill="#1ab395"/><path d="M26.36,31.72H17.851A.851.851,0,0,1,17,30.869V14.7A1.7,1.7,0,0,1,18.7,13h6.807a1.7,1.7,0,0,1,1.7,1.7V30.869A.851.851,0,0,1,26.36,31.72Zm-7.658-1.7h6.807V14.7H18.7Z" transform="translate(14.307 10.699)" fill="#1ab395"/><path d="M2.911,18.019a.948.948,0,0,1-.644-.248.813.813,0,0,1,0-1.2l9.1-8.509a.947.947,0,0,1,.865-.225L26.3,11.119l10.56-9.871a.957.957,0,0,1,1.287,0,.813.813,0,0,1,0,1.2L27.223,12.663a.949.949,0,0,1-.865.223L12.292,9.6,3.553,17.77a.94.94,0,0,1-.643.248Z" transform="translate(1.404 0)" fill="#1ab395"/><path d="M24.658,9.509a.851.851,0,0,1-.851-.851V2.7H17.851a.851.851,0,1,1,0-1.7h6.807a.851.851,0,0,1,.851.851V8.658A.851.851,0,0,1,24.658,9.509Z" transform="translate(14.307 0)" fill="#1ab395"/></g></svg>