<svg xmlns="http://www.w3.org/2000/svg" width="39.5" height="35.913" viewBox="0 0 39.5 35.913"><g transform="translate(13.985 -277.926)"><path d="M-1.225,292.3a7.2,7.2,0,0,0,7.187-7.187,7.208,7.208,0,0,0-7.187-7.187,7.2,7.2,0,0,0-7.187,7.187A7.2,7.2,0,0,0-1.225,292.3Zm0-12.531a5.35,5.35,0,0,1,5.344,5.344,5.359,5.359,0,0,1-5.344,5.344h0a5.35,5.35,0,0,1-5.344-5.344A5.35,5.35,0,0,1-1.225,279.769Z" fill="#1ab395"/><path d="M19.905,298.261H11.1a5.544,5.544,0,0,0-.737.05l-.158.021-.086-.134a8.867,8.867,0,0,0-7.482-4.085H-5.083a8.925,8.925,0,0,0-8.9,8.9v9.9a.922.922,0,0,0,.922.922H24.593a.923.923,0,0,0,.922-.922V303.87A5.626,5.626,0,0,0,19.905,298.261ZM5.487,303.87v8.121H-12.141v-8.974a7.078,7.078,0,0,1,7.058-7.059H2.632a7.089,7.089,0,0,1,5.6,2.767l.168.22-.235.145a5.648,5.648,0,0,0-2.677,4.78Zm18.185,8.121H7.33V303.87A3.775,3.775,0,0,1,11.1,300.1h8.811a3.777,3.777,0,0,1,3.766,3.766Z" fill="#1ab395"/><path d="M9.763,290.428a5.734,5.734,0,1,0,5.733-5.734A5.741,5.741,0,0,0,9.763,290.428Zm5.734-3.889a3.89,3.89,0,1,1,0,7.78h0a3.89,3.89,0,1,1,0-7.78Z" fill="#1ab395"/></g></svg>