<svg xmlns="http://www.w3.org/2000/svg" width="28.284" height="34.163" viewBox="0 0 28.284 34.163"><g transform="translate(-1352.619 -792.75)"><path d="M24.058,0H9.916A3.73,3.73,0,0,0,6.19,3.726v.457H3.726A3.73,3.73,0,0,0,0,7.909V29.938a3.73,3.73,0,0,0,3.726,3.726H17.868a3.73,3.73,0,0,0,3.726-3.726V29.48h2.464a3.73,3.73,0,0,0,3.726-3.726V3.726A3.73,3.73,0,0,0,24.058,0ZM19.191,29.938a1.324,1.324,0,0,1-1.322,1.322H3.726A1.324,1.324,0,0,1,2.4,29.938V7.909A1.324,1.324,0,0,1,3.726,6.586H17.868a1.324,1.324,0,0,1,1.322,1.322V29.938Zm6.19-4.183a1.324,1.324,0,0,1-1.322,1.322H21.594V7.909a3.73,3.73,0,0,0-3.726-3.726H8.593V3.726A1.324,1.324,0,0,1,9.916,2.4H24.058a1.324,1.324,0,0,1,1.322,1.322V25.755Z" transform="translate(1380.652 826.663) rotate(180)" fill="#1ab395" stroke="#fff" stroke-width="0.5"/><path d="M5.606,4.259H-4.331V1.8H5.606Z" transform="translate(1369.334 807.314)" fill="#1ab395" stroke="#fff" stroke-width="0.5"/><path d="M5.606,4.259H-4.331V1.8H5.606Z" transform="translate(1369.334 802.837)" fill="#1ab395" stroke="#fff" stroke-width="0.5"/></g></svg>