<svg xmlns="http://www.w3.org/2000/svg" width="31.932" height="38.161" viewBox="0 0 31.932 38.161"><path d="M-49.663,312.671l12.161,4.558a.764.764,0,0,0,.537,0l12.159-4.559a.77.77,0,0,0,.5-.716v-4.712l.3-.061a3.446,3.446,0,0,0,2.74-3.353,3.444,3.444,0,0,0-2.741-3.356l-.3-.062V296a.781.781,0,0,0-1.033-.715l-2.408.9-.171-.178a12.978,12.978,0,0,0-4.926-3.2l-.659-.238.564-.416a7.181,7.181,0,0,0,2.853-4.738,7.182,7.182,0,0,0-1.333-5.367A7.18,7.18,0,0,0-36.16,279.2a7.176,7.176,0,0,0-5.366,1.333,7.233,7.233,0,0,0-1.52,10.1,7.229,7.229,0,0,0,1.52,1.52l.564.416-.66.238a12.978,12.978,0,0,0-4.926,3.2l-.171.179-2.407-.9a.757.757,0,0,0-.267-.048.767.767,0,0,0-.718.5.767.767,0,0,0-.048.269v4.406l-.3.061a3.4,3.4,0,0,0-2.173,1.467,3.4,3.4,0,0,0-.5,2.572,3.418,3.418,0,0,0,2.672,2.673l.3.06v4.715A.771.771,0,0,0-49.663,312.671Zm23.834-10.737h1.135a1.883,1.883,0,0,1,1.34.555,1.888,1.888,0,0,1,.554,1.34,1.9,1.9,0,0,1-1.894,1.895h-1.135Zm-.01-4.831v3.268l-.3.061a1.53,1.53,0,0,0-1.22,1.495v3.8a1.529,1.529,0,0,0,1.219,1.494l.3.06v4.147l-10.63,3.988V301.089Zm-17.09-10.754h0a5.7,5.7,0,0,1,5.695-5.695,5.7,5.7,0,0,1,5.7,5.695,5.7,5.7,0,0,1-5.7,5.7A5.709,5.709,0,0,1-42.929,286.349Zm-1.763,10.006a11.376,11.376,0,0,1,7.454-2.782h.008a11.375,11.375,0,0,1,7.453,2.782l.477.413-7.934,2.97-7.934-2.97Zm-3.937,10.928.3-.06a1.53,1.53,0,0,0,1.22-1.494v-3.8a1.53,1.53,0,0,0-1.221-1.495l-.3-.061v-3.266L-38,301.094v14.322l-10.63-3.986Zm-3.04-3.454v0a1.9,1.9,0,0,1,1.894-1.893h1.136v3.79h-1.135A1.9,1.9,0,0,1-51.669,303.829Z" transform="translate(53.201 -279.117)" fill="#1ab395"/></svg>