<svg xmlns="http://www.w3.org/2000/svg" width="37.057" height="33.904" viewBox="0 0 37.057 33.904"><g transform="translate(-382.986 -274.798)"><path d="M400.722,285.925a.81.81,0,0,0-.821.024l-7.283,4.6h-3.309a1.6,1.6,0,0,0-1.6,1.6v5.511a1.6,1.6,0,0,0,1.6,1.594h3.308l7.283,4.6a.823.823,0,0,0,.819.026.809.809,0,0,0,.419-.707v-5.085l.333-.038a3.17,3.17,0,0,0,0-6.3l-.333-.037V286.63A.8.8,0,0,0,400.722,285.925Zm-1.191,15.783-6.249-3.944a.792.792,0,0,0-.428-.126h-3.527v-5.475h3.527a.787.787,0,0,0,.426-.125l6.251-3.945Zm1.612-8.454.506.188a1.545,1.545,0,0,1,0,2.915l-.505.188Z" fill="#1ab395"/><path d="M405.945,299.825a.764.764,0,0,0,.694.386.726.726,0,0,0,.368-.09,5.594,5.594,0,0,0,.022-10.436.829.829,0,0,0-1.111.335.814.814,0,0,0,.344,1.091,4,4,0,0,1-.03,7.592.81.81,0,0,0-.312,1.074Z" fill="#1ab395"/><path d="M420.043,304.745v-25.99a3.963,3.963,0,0,0-3.957-3.957H386.943a3.967,3.967,0,0,0-3.957,3.957v25.99a3.967,3.967,0,0,0,3.957,3.957h29.143A3.963,3.963,0,0,0,420.043,304.745ZM384.6,278.754a2.348,2.348,0,0,1,2.343-2.344h29.144a2.346,2.346,0,0,1,2.344,2.344v1.555H384.6Zm2.344,28.335a2.349,2.349,0,0,1-2.344-2.344V281.922H418.43v22.823a2.347,2.347,0,0,1-2.344,2.344Z" fill="#1ab395"/><path d="M409.073,302.756a.8.8,0,0,0,1.021.365,9.087,9.087,0,0,0,0-16.452.785.785,0,0,0-.611,0,.805.805,0,0,0-.011,1.487,7.489,7.489,0,0,1,.012,13.48.808.808,0,0,0-.437,1.061Z" fill="#1ab395"/></g></svg>