<svg xmlns="http://www.w3.org/2000/svg" width="5.873" height="21.485" viewBox="0 0 5.873 21.485"><g transform="translate(-7880.938 573.105)"><path d="M1.791,11.806a2.9,2.9,0,0,1-2.066-.8,2.536,2.536,0,0,1-.851-1.914A2.59,2.59,0,0,1-.274,7.148a2.885,2.885,0,0,1,2.066-.81,2.945,2.945,0,0,1,2.1.81,2.576,2.576,0,0,1,.861,1.944,2.523,2.523,0,0,1-.861,1.914A2.966,2.966,0,0,1,1.791,11.806Zm0-16.018a2.9,2.9,0,0,1-2.066-.8,2.536,2.536,0,0,1-.851-1.914A2.59,2.59,0,0,1-.274-8.87a2.885,2.885,0,0,1,2.066-.81,2.945,2.945,0,0,1,2.1.81,2.576,2.576,0,0,1,.861,1.944,2.523,2.523,0,0,1-.861,1.914A2.966,2.966,0,0,1,1.791-4.212Z" transform="translate(7882.063 -563.425)" fill="#22242b"/></g></svg>