<svg xmlns="http://www.w3.org/2000/svg" width="25.468" height="5.873" viewBox="0 0 25.468 5.873"><g transform="translate(-7631.203 565.203)"><path d="M1.791-4.212a2.9,2.9,0,0,1-2.066-.8,2.536,2.536,0,0,1-.851-1.914A2.59,2.59,0,0,1-.274-8.87a2.885,2.885,0,0,1,2.066-.81,2.945,2.945,0,0,1,2.1.81,2.576,2.576,0,0,1,.861,1.944,2.523,2.523,0,0,1-.861,1.914A2.966,2.966,0,0,1,1.791-4.212Z" transform="translate(7650.882 -560.455) rotate(-90)" fill="#22242b"/><path d="M1.791-4.212a2.9,2.9,0,0,1-2.066-.8,2.536,2.536,0,0,1-.851-1.914A2.59,2.59,0,0,1-.274-8.87a2.885,2.885,0,0,1,2.066-.81,2.945,2.945,0,0,1,2.1.81,2.576,2.576,0,0,1,.861,1.944,2.523,2.523,0,0,1-.861,1.914A2.966,2.966,0,0,1,1.791-4.212Z" transform="translate(7640.882 -560.455) rotate(-90)" fill="#22242b"/><path d="M1.791-4.212a2.9,2.9,0,0,1-2.066-.8,2.536,2.536,0,0,1-.851-1.914A2.59,2.59,0,0,1-.274-8.87a2.885,2.885,0,0,1,2.066-.81,2.945,2.945,0,0,1,2.1.81,2.576,2.576,0,0,1,.861,1.944,2.523,2.523,0,0,1-.861,1.914A2.966,2.966,0,0,1,1.791-4.212Z" transform="translate(7660.882 -560.455) rotate(-90)" fill="#22242b"/></g></svg>