<svg xmlns="http://www.w3.org/2000/svg" width="17.391" height="16.75" viewBox="0 0 17.391 16.75"><g transform="translate(-7816 570)"><path d="M5.281-17.7a2.88,2.88,0,0,0-2.031.75,2.411,2.411,0,0,0-.812,1.844,2.322,2.322,0,0,0,.836,1.844,3.087,3.087,0,0,0,2.086.719,2.971,2.971,0,0,0,2.07-.727,2.367,2.367,0,0,0,.8-1.836,2.381,2.381,0,0,0-.82-1.867A3.1,3.1,0,0,0,5.281-17.7Zm11.594,0a2.88,2.88,0,0,0-2.031.75,2.411,2.411,0,0,0-.812,1.844,2.322,2.322,0,0,0,.836,1.844,3.087,3.087,0,0,0,2.086.719,2.971,2.971,0,0,0,2.07-.727,2.367,2.367,0,0,0,.8-1.836,2.381,2.381,0,0,0-.82-1.867A3.1,3.1,0,0,0,16.875-17.7Zm-5.8,11.594a2.88,2.88,0,0,0-2.031.75,2.411,2.411,0,0,0-.812,1.844A2.322,2.322,0,0,0,9.07-1.672a3.087,3.087,0,0,0,2.086.719,2.971,2.971,0,0,0,2.07-.727,2.367,2.367,0,0,0,.8-1.836,2.381,2.381,0,0,0-.82-1.867A3.1,3.1,0,0,0,11.078-6.109Z" transform="translate(7813.563 -552.297)" fill="#22242b"/></g></svg>