<svg xmlns="http://www.w3.org/2000/svg" width="31.929" height="18.094" viewBox="0 0 31.929 18.094"><defs><style>.a{fill:#22242b;}</style></defs><g transform="translate(-126.712 -303.077)"><path class="a" d="M-7.767.171a3.551,3.551,0,0,1-2.6-.906,3.465,3.465,0,0,1-.923-2.589,8,8,0,0,1,.628-3.217A5.311,5.311,0,0,1-8.9-8.806a4.315,4.315,0,0,1,2.581-.816A6.017,6.017,0,0,1-3.777-9.1l-.6,1.572a4.8,4.8,0,0,0-1.888-.453A2.5,2.5,0,0,0-8.4-6.669a5.819,5.819,0,0,0-.854,3.243,2.062,2.062,0,0,0,.479,1.461,1.723,1.723,0,0,0,1.324.513,3.642,3.642,0,0,0,1.183-.188A9.314,9.314,0,0,0-5.161-2.1V-.436A5.679,5.679,0,0,1-7.767.171ZM2.743-2.905A2.736,2.736,0,0,1,1.735-.628a4.4,4.4,0,0,1-2.8.8A6.028,6.028,0,0,1-3.82-.4V-2.136a5.2,5.2,0,0,0,2.666.769A2.378,2.378,0,0,0,.188-1.709,1.065,1.065,0,0,0,.7-2.64a1.05,1.05,0,0,0-.295-.748A5.767,5.767,0,0,0-.8-4.221,4.51,4.51,0,0,1-2.311-5.388a2.3,2.3,0,0,1-.44-1.406A2.542,2.542,0,0,1-1.837-8.87,3.771,3.771,0,0,1,.632-9.622,5.948,5.948,0,0,1,3.589-8.9L2.939-7.4A4.779,4.779,0,0,0,.667-8.049a1.684,1.684,0,0,0-1.013.282.916.916,0,0,0-.389.786A.969.969,0,0,0-.453-6.3,4.993,4.993,0,0,0,.7-5.529a6.7,6.7,0,0,1,1.273.863,2.592,2.592,0,0,1,.573.782A2.3,2.3,0,0,1,2.743-2.905ZM8.263.171a3.551,3.551,0,0,1-2.6-.906,3.465,3.465,0,0,1-.923-2.589A8,8,0,0,1,5.37-6.541,5.311,5.311,0,0,1,7.135-8.806a4.315,4.315,0,0,1,2.581-.816,6.017,6.017,0,0,1,2.538.521l-.6,1.572a4.8,4.8,0,0,0-1.888-.453A2.5,2.5,0,0,0,7.631-6.669a5.819,5.819,0,0,0-.854,3.243,2.062,2.062,0,0,0,.479,1.461,1.723,1.723,0,0,0,1.324.513,3.642,3.642,0,0,0,1.183-.188A9.314,9.314,0,0,0,10.869-2.1V-.436A5.679,5.679,0,0,1,8.263.171Z" transform="translate(138 321)"/><path class="a" d="M-5.407-3.158l.319-1.437h3.554l-.319,1.437ZM2.743,0H1.29L2.444-5.31a17.627,17.627,0,0,1,.5-1.978,4.6,4.6,0,0,1-.824.623L.979-5.951.332-6.989l3.1-1.935H4.641Z" transform="translate(154 312)"/></g></svg>