<svg xmlns="http://www.w3.org/2000/svg" width="33.869" height="18.094" viewBox="0 0 33.869 18.094"><defs><style>.a{fill:#22242b;}</style></defs><g transform="translate(-125.772 -303.077)"><path class="a" d="M-8.707.171a3.551,3.551,0,0,1-2.6-.906,3.465,3.465,0,0,1-.923-2.589A8,8,0,0,1-11.6-6.541,5.311,5.311,0,0,1-9.835-8.806a4.315,4.315,0,0,1,2.581-.816A6.017,6.017,0,0,1-4.717-9.1l-.6,1.572A4.8,4.8,0,0,0-7.2-7.981,2.5,2.5,0,0,0-9.34-6.669a5.819,5.819,0,0,0-.854,3.243,2.062,2.062,0,0,0,.479,1.461,1.723,1.723,0,0,0,1.324.513,3.642,3.642,0,0,0,1.183-.188A9.314,9.314,0,0,0-6.1-2.1V-.436A5.679,5.679,0,0,1-8.707.171ZM2.316-6A2.214,2.214,0,0,0,1.9-7.43,1.451,1.451,0,0,0,.7-7.947a1.988,1.988,0,0,0-1.423.611A4.028,4.028,0,0,0-1.7-5.678a7.074,7.074,0,0,0-.346,2.234,2.2,2.2,0,0,0,.423,1.453,1.541,1.541,0,0,0,1.252.5,1.966,1.966,0,0,0,1.384-.581A3.82,3.82,0,0,0,1.974-3.7,7.385,7.385,0,0,0,2.316-6Zm2.025.085a7.7,7.7,0,0,1-.624,3.14A5.033,5.033,0,0,1,2-.6,4.29,4.29,0,0,1-.5.154,3.5,3.5,0,0,1-3.11-.825a3.624,3.624,0,0,1-.966-2.662,7.8,7.8,0,0,1,.611-3.119A5.144,5.144,0,0,1-1.752-8.814,4.257,4.257,0,0,1,.795-9.6,3.419,3.419,0,0,1,3.4-8.613,3.764,3.764,0,0,1,4.341-5.913Zm7.494,3.008A2.736,2.736,0,0,1,10.826-.628a4.4,4.4,0,0,1-2.8.8A6.028,6.028,0,0,1,5.272-.4V-2.136a5.2,5.2,0,0,0,2.666.769A2.378,2.378,0,0,0,9.28-1.709a1.065,1.065,0,0,0,.513-.931A1.05,1.05,0,0,0,9.5-3.388a5.767,5.767,0,0,0-1.209-.833A4.51,4.51,0,0,1,6.78-5.388a2.3,2.3,0,0,1-.44-1.406A2.542,2.542,0,0,1,7.255-8.87a3.771,3.771,0,0,1,2.469-.752,5.948,5.948,0,0,1,2.957.718l-.649,1.5a4.779,4.779,0,0,0-2.273-.649,1.684,1.684,0,0,0-1.013.282.916.916,0,0,0-.389.786.969.969,0,0,0,.282.684,4.993,4.993,0,0,0,1.154.769,6.7,6.7,0,0,1,1.273.863,2.592,2.592,0,0,1,.573.782A2.3,2.3,0,0,1,11.835-2.905Z" transform="translate(138 321)"/><path class="a" d="M-5.407-3.158l.319-1.437h3.554l-.319,1.437ZM2.743,0H1.29L2.444-5.31a17.627,17.627,0,0,1,.5-1.978,4.6,4.6,0,0,1-.824.623L.979-5.951.332-6.989l3.1-1.935H4.641Z" transform="translate(155 312)"/></g></svg>