<svg xmlns="http://www.w3.org/2000/svg" width="34.13" height="18.094" viewBox="0 0 34.13 18.094"><defs><style>.a{fill:#22242b;}</style></defs><g transform="translate(-125.512 -303.077)"><path class="a" d="M-5.926-2.905A2.736,2.736,0,0,1-6.934-.628a4.4,4.4,0,0,1-2.8.8A6.028,6.028,0,0,1-12.488-.4V-2.136a5.2,5.2,0,0,0,2.666.769,2.378,2.378,0,0,0,1.342-.342,1.065,1.065,0,0,0,.513-.931,1.05,1.05,0,0,0-.295-.748,5.767,5.767,0,0,0-1.209-.833A4.51,4.51,0,0,1-10.98-5.388a2.3,2.3,0,0,1-.44-1.406,2.542,2.542,0,0,1,.914-2.076,3.771,3.771,0,0,1,2.469-.752A5.948,5.948,0,0,1-5.08-8.9l-.649,1.5A4.779,4.779,0,0,0-8-8.049a1.684,1.684,0,0,0-1.013.282.916.916,0,0,0-.389.786.969.969,0,0,0,.282.684,4.993,4.993,0,0,0,1.154.769,6.7,6.7,0,0,1,1.273.863,2.592,2.592,0,0,1,.573.782A2.3,2.3,0,0,1-5.926-2.905ZM.944-8.083A2.148,2.148,0,0,0-.6-7.349a4.237,4.237,0,0,0-1.038,1.94h.248a5.661,5.661,0,0,0,2.512-.457,1.415,1.415,0,0,0,.906-1.295.863.863,0,0,0-.273-.679A1.187,1.187,0,0,0,.944-8.083ZM-.355.171A3.542,3.542,0,0,1-2.982-.778a3.59,3.59,0,0,1-.944-2.649,7.519,7.519,0,0,1,.662-3.149A5.4,5.4,0,0,1-1.47-8.827a4.307,4.307,0,0,1,2.534-.795A3.315,3.315,0,0,1,3.2-9a2.131,2.131,0,0,1,.765,1.756A2.72,2.72,0,0,1,2.546-4.815a7.772,7.772,0,0,1-4.055.876h-.367l-.017.265v.248A2.147,2.147,0,0,0-1.41-1.94,1.835,1.835,0,0,0,.03-1.4a4.708,4.708,0,0,0,1.222-.162,8.714,8.714,0,0,0,1.436-.555v1.6A7.931,7.931,0,0,1,1.179.013,6.861,6.861,0,0,1-.355.171Zm9.135,0a3.551,3.551,0,0,1-2.6-.906,3.465,3.465,0,0,1-.923-2.589,8,8,0,0,1,.628-3.217A5.311,5.311,0,0,1,7.652-8.806a4.315,4.315,0,0,1,2.581-.816A6.017,6.017,0,0,1,12.77-9.1l-.6,1.572a4.8,4.8,0,0,0-1.888-.453A2.5,2.5,0,0,0,8.148-6.669a5.819,5.819,0,0,0-.854,3.243,2.062,2.062,0,0,0,.479,1.461A1.723,1.723,0,0,0,9.1-1.453a3.642,3.642,0,0,0,1.183-.188A9.314,9.314,0,0,0,11.386-2.1V-.436A5.679,5.679,0,0,1,8.78.171Z" transform="translate(138 321)"/><path class="a" d="M-5.407-3.158l.319-1.437h3.554l-.319,1.437ZM2.743,0H1.29L2.444-5.31a17.627,17.627,0,0,1,.5-1.978,4.6,4.6,0,0,1-.824.623L.979-5.951.332-6.989l3.1-1.935H4.641Z" transform="translate(155 312)"/></g></svg>