<svg xmlns="http://www.w3.org/2000/svg" width="21.952" height="13.245" viewBox="0 0 21.952 13.245"><defs><style>.a{fill:#22242b;}</style></defs><path class="a" d="M-4.824-2.905A2.736,2.736,0,0,1-5.832-.628a4.4,4.4,0,0,1-2.8.8A6.028,6.028,0,0,1-11.386-.4V-2.136a5.2,5.2,0,0,0,2.666.769,2.378,2.378,0,0,0,1.342-.342,1.065,1.065,0,0,0,.513-.931,1.05,1.05,0,0,0-.295-.748A5.767,5.767,0,0,0-8.37-4.221,4.51,4.51,0,0,1-9.878-5.388a2.3,2.3,0,0,1-.44-1.406A2.542,2.542,0,0,1-9.4-8.87a3.771,3.771,0,0,1,2.469-.752A5.948,5.948,0,0,1-3.978-8.9l-.649,1.5A4.779,4.779,0,0,0-6.9-8.049a1.684,1.684,0,0,0-1.013.282.916.916,0,0,0-.389.786.969.969,0,0,0,.282.684,4.993,4.993,0,0,0,1.154.769,6.7,6.7,0,0,1,1.273.863,2.592,2.592,0,0,1,.573.782A2.3,2.3,0,0,1-4.824-2.905Zm4.016-8.87a1.326,1.326,0,0,1,.333-.94,1.219,1.219,0,0,1,.94-.359,1.138,1.138,0,0,1,.735.226.829.829,0,0,1,.282.688,1.312,1.312,0,0,1-.342.957,1.2,1.2,0,0,1-.9.35,1.227,1.227,0,0,1-.752-.222A.815.815,0,0,1-.807-11.775ZM-1.209,0H-3.226l2.017-9.451H.8ZM7.182,0,8.4-5.742a6.457,6.457,0,0,0,.154-1.119.982.982,0,0,0-1.1-1.119,1.915,1.915,0,0,0-1.213.487A4.406,4.406,0,0,0,5.157-6.088a7.955,7.955,0,0,0-.718,2.081L3.6,0H1.585L3.6-9.451H5.174L4.995-7.7h.077A5.12,5.12,0,0,1,6.533-9.164a3.085,3.085,0,0,1,1.632-.457,2.352,2.352,0,0,1,1.773.649,2.547,2.547,0,0,1,.628,1.846,8.068,8.068,0,0,1-.2,1.547L9.2,0Z" transform="translate(11.386 13.074)"/></svg>