<svg xmlns="http://www.w3.org/2000/svg" width="25.156" height="11.724" viewBox="0 0 25.156 11.724"><defs><style>.a{fill:#22242b;}</style></defs><path class="a" d="M-9.553-1.453a3.724,3.724,0,0,0,1.29-.265V-.2A3.7,3.7,0,0,1-9.075.06,4.83,4.83,0,0,1-10.1.171q-2.341,0-2.341-2.111A5.372,5.372,0,0,1-12.3-3.059l1.034-4.871h-1.384l.179-.94,1.624-.7,1.1-1.982H-8.5l-.444,2.1h2.384L-6.9-7.93H-9.263l-1.042,4.888a3.534,3.534,0,0,0-.111.786.8.8,0,0,0,.214.585A.873.873,0,0,0-9.553-1.453ZM-3.606.171A2.319,2.319,0,0,1-5.511-.7a3.788,3.788,0,0,1-.7-2.44,8.714,8.714,0,0,1,.594-3.23,5.827,5.827,0,0,1,1.636-2.38,3.482,3.482,0,0,1,2.29-.876,2.56,2.56,0,0,1,1.427.389A2.551,2.551,0,0,1,.667-8.1H.752l.53-1.35H2.82L.8,0H-.752l.179-1.5H-.624A3.836,3.836,0,0,1-3.606.171Zm.735-1.624A1.98,1.98,0,0,0-1.5-2.115,5,5,0,0,0-.385-3.888,6.588,6.588,0,0,0,.051-6.315a1.766,1.766,0,0,0-.4-1.209A1.332,1.332,0,0,0-1.4-7.981a1.9,1.9,0,0,0-1.367.658,4.681,4.681,0,0,0-1.025,1.79,7.244,7.244,0,0,0-.385,2.346,2.057,2.057,0,0,0,.346,1.3A1.164,1.164,0,0,0-2.871-1.453ZM9.117,0l1.213-5.742a6.457,6.457,0,0,0,.154-1.119.982.982,0,0,0-1.1-1.119,1.915,1.915,0,0,0-1.213.487A4.406,4.406,0,0,0,7.092-6.088a7.955,7.955,0,0,0-.718,2.081L5.537,0H3.521L5.537-9.451H7.109L6.93-7.7h.077A5.12,5.12,0,0,1,8.468-9.164,3.085,3.085,0,0,1,10.1-9.622a2.352,2.352,0,0,1,1.773.649A2.547,2.547,0,0,1,12.5-7.126a8.068,8.068,0,0,1-.2,1.547L11.134,0Z" transform="translate(12.655 11.553)"/></svg>