<svg xmlns="http://www.w3.org/2000/svg" width="24.259" height="11.724" viewBox="0 0 24.259 11.724"><defs><style>.a{fill:#22242b;}</style></defs><path class="a" d="M-7.981.171a3.551,3.551,0,0,1-2.6-.906A3.465,3.465,0,0,1-11.5-3.324a8,8,0,0,1,.628-3.217A5.311,5.311,0,0,1-9.109-8.806a4.315,4.315,0,0,1,2.581-.816A6.017,6.017,0,0,1-3.99-9.1l-.6,1.572a4.8,4.8,0,0,0-1.888-.453A2.5,2.5,0,0,0-8.613-6.669a5.819,5.819,0,0,0-.854,3.243,2.062,2.062,0,0,0,.479,1.461,1.723,1.723,0,0,0,1.324.513,3.642,3.642,0,0,0,1.183-.188A9.314,9.314,0,0,0-5.375-2.1V-.436A5.679,5.679,0,0,1-7.981.171ZM3.042-6A2.214,2.214,0,0,0,2.623-7.43a1.451,1.451,0,0,0-1.2-.517A1.988,1.988,0,0,0,0-7.336,4.028,4.028,0,0,0-.97-5.678a7.074,7.074,0,0,0-.346,2.234A2.2,2.2,0,0,0-.893-1.991a1.541,1.541,0,0,0,1.252.5,1.966,1.966,0,0,0,1.384-.581A3.82,3.82,0,0,0,2.7-3.7,7.385,7.385,0,0,0,3.042-6Zm2.025.085a7.7,7.7,0,0,1-.624,3.14A5.033,5.033,0,0,1,2.73-.6,4.29,4.29,0,0,1,.222.154,3.5,3.5,0,0,1-2.384-.825,3.624,3.624,0,0,1-3.35-3.486a7.8,7.8,0,0,1,.611-3.119A5.144,5.144,0,0,1-1.025-8.814,4.257,4.257,0,0,1,1.521-9.6a3.419,3.419,0,0,1,2.606.991A3.764,3.764,0,0,1,5.067-5.913Zm4.7,4.46a3.724,3.724,0,0,0,1.29-.265V-.2a3.7,3.7,0,0,1-.812.256A4.83,4.83,0,0,1,9.22.171Q6.879.171,6.879-1.94a5.372,5.372,0,0,1,.137-1.119L8.049-7.93H6.665l.179-.94,1.624-.7,1.1-1.982h1.248l-.444,2.1h2.384L12.424-7.93H10.057L9.015-3.042a3.534,3.534,0,0,0-.111.786.8.8,0,0,0,.214.585A.873.873,0,0,0,9.767-1.453Z" transform="translate(11.501 11.553)"/></svg>