<svg xmlns="http://www.w3.org/2000/svg" width="33.188" height="13.467" viewBox="0 0 33.188 13.467"><defs><style>.a{fill:#22242b;}</style></defs><path class="a" d="M-13.142.171a3.551,3.551,0,0,1-2.6-.906,3.465,3.465,0,0,1-.923-2.589,8,8,0,0,1,.628-3.217A5.311,5.311,0,0,1-14.27-8.806a4.315,4.315,0,0,1,2.581-.816A6.017,6.017,0,0,1-9.152-9.1l-.6,1.572a4.8,4.8,0,0,0-1.888-.453,2.5,2.5,0,0,0-2.136,1.312,5.819,5.819,0,0,0-.854,3.243,2.062,2.062,0,0,0,.479,1.461,1.723,1.723,0,0,0,1.324.513,3.642,3.642,0,0,0,1.183-.188A9.314,9.314,0,0,0-10.536-2.1V-.436A5.679,5.679,0,0,1-13.142.171ZM-2.119-6A2.214,2.214,0,0,0-2.538-7.43a1.451,1.451,0,0,0-1.2-.517,1.988,1.988,0,0,0-1.423.611,4.028,4.028,0,0,0-.974,1.658,7.074,7.074,0,0,0-.346,2.234,2.2,2.2,0,0,0,.423,1.453,1.541,1.541,0,0,0,1.252.5,1.966,1.966,0,0,0,1.384-.581A3.82,3.82,0,0,0-2.461-3.7,7.385,7.385,0,0,0-2.119-6Zm2.025.085a7.7,7.7,0,0,1-.624,3.14A5.033,5.033,0,0,1-2.431-.6,4.29,4.29,0,0,1-4.939.154,3.5,3.5,0,0,1-7.545-.825a3.624,3.624,0,0,1-.966-2.662A7.8,7.8,0,0,1-7.9-6.605,5.144,5.144,0,0,1-6.187-8.814,4.257,4.257,0,0,1-3.64-9.6a3.419,3.419,0,0,1,2.606.991A3.764,3.764,0,0,1-.094-5.913Zm4.7,4.46A3.724,3.724,0,0,0,5.9-1.718V-.2A3.7,3.7,0,0,1,5.084.06,4.83,4.83,0,0,1,4.059.171Q1.718.171,1.718-1.94a5.372,5.372,0,0,1,.137-1.119L2.888-7.93H1.5l.179-.94,1.624-.7,1.1-1.982H5.657l-.444,2.1H7.6L7.263-7.93H4.9L3.854-3.042a3.534,3.534,0,0,0-.111.786.8.8,0,0,0,.214.585A.873.873,0,0,0,4.606-1.453ZM13.142,0l1.213-5.742a6.47,6.47,0,0,0,.154-1.085q0-1.154-1.1-1.154a2.316,2.316,0,0,0-1.79,1.068A7.032,7.032,0,0,0,10.4-3.99L9.562,0H7.545l2.82-13.3h2.008l-.487,2.239q-.231,1.077-.624,2.5l-.162.641h.068a5.038,5.038,0,0,1,1.44-1.307,3.076,3.076,0,0,1,1.517-.4,2.321,2.321,0,0,1,1.782.662,2.668,2.668,0,0,1,.62,1.893,6.6,6.6,0,0,1-.2,1.487L15.142,0Z" transform="translate(16.663 13.296)"/></svg>