<svg xmlns="http://www.w3.org/2000/svg" width="35.479" height="13.467" viewBox="0 0 35.479 13.467"><defs><style>.a{fill:#22242b;}</style></defs><path class="a" d="M-14.714-1.453a3.724,3.724,0,0,0,1.29-.265V-.2a3.7,3.7,0,0,1-.812.256,4.83,4.83,0,0,1-1.025.111Q-17.6.171-17.6-1.94a5.372,5.372,0,0,1,.137-1.119l1.034-4.871h-1.384l.179-.94,1.624-.7,1.1-1.982h1.248l-.444,2.1h2.384l-.333,1.521h-2.367l-1.042,4.888a3.534,3.534,0,0,0-.111.786.8.8,0,0,0,.214.585A.873.873,0,0,0-14.714-1.453ZM-8.767.171A2.319,2.319,0,0,1-10.673-.7a3.788,3.788,0,0,1-.7-2.44,8.714,8.714,0,0,1,.594-3.23,5.827,5.827,0,0,1,1.636-2.38,3.482,3.482,0,0,1,2.29-.876,2.56,2.56,0,0,1,1.427.389A2.551,2.551,0,0,1-4.495-8.1h.085l.53-1.35h1.538L-4.358,0H-5.913l.179-1.5h-.051A3.836,3.836,0,0,1-8.767.171Zm.735-1.624a1.98,1.98,0,0,0,1.376-.662A5,5,0,0,0-5.546-3.888,6.588,6.588,0,0,0-5.11-6.315a1.766,1.766,0,0,0-.4-1.209,1.332,1.332,0,0,0-1.051-.457,1.9,1.9,0,0,0-1.367.658,4.681,4.681,0,0,0-1.025,1.79A7.244,7.244,0,0,0-9.34-3.187a2.057,2.057,0,0,0,.346,1.3A1.164,1.164,0,0,0-8.032-1.453ZM3.956,0,5.17-5.742a6.457,6.457,0,0,0,.154-1.119.982.982,0,0,0-1.1-1.119,1.915,1.915,0,0,0-1.213.487A4.406,4.406,0,0,0,1.931-6.088a7.955,7.955,0,0,0-.718,2.081L.376,0H-1.641L.376-9.451H1.948L1.769-7.7h.077A5.12,5.12,0,0,1,3.307-9.164a3.085,3.085,0,0,1,1.632-.457,2.352,2.352,0,0,1,1.773.649A2.547,2.547,0,0,1,7.34-7.126a8.068,8.068,0,0,1-.2,1.547L5.973,0ZM14.279,0l1.213-5.742a6.47,6.47,0,0,0,.154-1.085q0-1.154-1.1-1.154a2.316,2.316,0,0,0-1.79,1.068A7.032,7.032,0,0,0,11.536-3.99L10.7,0H8.682L11.5-13.3H13.51l-.487,2.239q-.231,1.077-.624,2.5l-.162.641H12.3a5.038,5.038,0,0,1,1.44-1.307,3.076,3.076,0,0,1,1.517-.4,2.321,2.321,0,0,1,1.782.662,2.668,2.668,0,0,1,.62,1.893,6.6,6.6,0,0,1-.2,1.487L16.278,0Z" transform="translate(17.816 13.296)"/></svg>