<svg xmlns="http://www.w3.org/2000/svg" width="32.761" height="13.467" viewBox="0 0 32.761 13.467"><defs><style>.a{fill:#22242b;}</style></defs><path class="a" d="M-12.928.171a3.551,3.551,0,0,1-2.6-.906,3.465,3.465,0,0,1-.923-2.589,8,8,0,0,1,.628-3.217,5.311,5.311,0,0,1,1.765-2.264,4.315,4.315,0,0,1,2.581-.816A6.017,6.017,0,0,1-8.938-9.1l-.6,1.572a4.8,4.8,0,0,0-1.888-.453,2.5,2.5,0,0,0-2.136,1.312,5.819,5.819,0,0,0-.854,3.243,2.062,2.062,0,0,0,.479,1.461,1.723,1.723,0,0,0,1.324.513,3.642,3.642,0,0,0,1.183-.188A9.314,9.314,0,0,0-10.322-2.1V-.436A5.679,5.679,0,0,1-12.928.171Zm10.51-3.076A2.736,2.736,0,0,1-3.427-.628a4.4,4.4,0,0,1-2.8.8A6.028,6.028,0,0,1-8.981-.4V-2.136a5.2,5.2,0,0,0,2.666.769,2.378,2.378,0,0,0,1.342-.342A1.065,1.065,0,0,0-4.46-2.64a1.05,1.05,0,0,0-.295-.748,5.767,5.767,0,0,0-1.209-.833A4.51,4.51,0,0,1-7.473-5.388a2.3,2.3,0,0,1-.44-1.406A2.542,2.542,0,0,1-7-8.87a3.771,3.771,0,0,1,2.469-.752A5.948,5.948,0,0,1-1.572-8.9l-.649,1.5a4.779,4.779,0,0,0-2.273-.649,1.684,1.684,0,0,0-1.013.282.916.916,0,0,0-.389.786.969.969,0,0,0,.282.684,4.993,4.993,0,0,0,1.154.769,6.7,6.7,0,0,1,1.273.863,2.592,2.592,0,0,1,.573.782A2.3,2.3,0,0,1-2.418-2.905ZM3.1.171A3.551,3.551,0,0,1,.5-.735,3.465,3.465,0,0,1-.419-3.324,8,8,0,0,1,.209-6.541,5.311,5.311,0,0,1,1.974-8.806a4.315,4.315,0,0,1,2.581-.816A6.017,6.017,0,0,1,7.092-9.1l-.6,1.572a4.8,4.8,0,0,0-1.888-.453A2.5,2.5,0,0,0,2.469-6.669a5.819,5.819,0,0,0-.854,3.243,2.062,2.062,0,0,0,.479,1.461,1.723,1.723,0,0,0,1.324.513A3.642,3.642,0,0,0,4.6-1.641,9.314,9.314,0,0,0,5.708-2.1V-.436A5.679,5.679,0,0,1,3.1.171ZM12.928,0l1.213-5.742A6.47,6.47,0,0,0,14.3-6.827q0-1.154-1.1-1.154A2.316,2.316,0,0,0,11.4-6.913,7.032,7.032,0,0,0,10.186-3.99L9.348,0H7.332l2.82-13.3h2.008l-.487,2.239q-.231,1.077-.624,2.5l-.162.641h.068a5.038,5.038,0,0,1,1.44-1.307,3.076,3.076,0,0,1,1.517-.4,2.321,2.321,0,0,1,1.782.662,2.668,2.668,0,0,1,.62,1.893,6.6,6.6,0,0,1-.2,1.487L14.928,0Z" transform="translate(16.449 13.296)"/></svg>