<svg xmlns="http://www.w3.org/2000/svg" width="34.479" height="13.467" viewBox="0 0 34.479 13.467"><defs><style>.a{fill:#22242b;}</style></defs><path class="a" d="M-11.087-2.905A2.736,2.736,0,0,1-12.1-.628a4.4,4.4,0,0,1-2.8.8A6.028,6.028,0,0,1-17.65-.4V-2.136a5.2,5.2,0,0,0,2.666.769,2.378,2.378,0,0,0,1.342-.342,1.065,1.065,0,0,0,.513-.931,1.05,1.05,0,0,0-.295-.748,5.767,5.767,0,0,0-1.209-.833,4.51,4.51,0,0,1-1.508-1.166,2.3,2.3,0,0,1-.44-1.406,2.542,2.542,0,0,1,.914-2.076A3.771,3.771,0,0,1-13.2-9.622a5.948,5.948,0,0,1,2.957.718l-.649,1.5a4.779,4.779,0,0,0-2.273-.649,1.684,1.684,0,0,0-1.013.282.916.916,0,0,0-.389.786.969.969,0,0,0,.282.684,4.993,4.993,0,0,0,1.154.769,6.7,6.7,0,0,1,1.273.863,2.592,2.592,0,0,1,.573.782A2.3,2.3,0,0,1-11.087-2.905Zm6.87-5.178a2.148,2.148,0,0,0-1.542.735A4.237,4.237,0,0,0-6.8-5.409h.248a5.661,5.661,0,0,0,2.512-.457,1.415,1.415,0,0,0,.906-1.295.863.863,0,0,0-.273-.679A1.187,1.187,0,0,0-4.217-8.083ZM-5.516.171A3.542,3.542,0,0,1-8.143-.778a3.59,3.59,0,0,1-.944-2.649,7.519,7.519,0,0,1,.662-3.149A5.4,5.4,0,0,1-6.631-8.827,4.307,4.307,0,0,1-4.1-9.622,3.315,3.315,0,0,1-1.957-9a2.131,2.131,0,0,1,.765,1.756A2.72,2.72,0,0,1-2.615-4.815a7.772,7.772,0,0,1-4.055.876h-.367l-.017.265v.248A2.147,2.147,0,0,0-6.571-1.94a1.835,1.835,0,0,0,1.44.538,4.708,4.708,0,0,0,1.222-.162,8.714,8.714,0,0,0,1.436-.555v1.6A7.931,7.931,0,0,1-3.982.013,6.861,6.861,0,0,1-5.516.171Zm9.135,0a3.551,3.551,0,0,1-2.6-.906A3.465,3.465,0,0,1,.1-3.324,8,8,0,0,1,.726-6.541,5.311,5.311,0,0,1,2.491-8.806a4.315,4.315,0,0,1,2.581-.816A6.017,6.017,0,0,1,7.609-9.1l-.6,1.572a4.8,4.8,0,0,0-1.888-.453A2.5,2.5,0,0,0,2.986-6.669a5.819,5.819,0,0,0-.854,3.243A2.062,2.062,0,0,0,2.61-1.965a1.723,1.723,0,0,0,1.324.513,3.642,3.642,0,0,0,1.183-.188A9.314,9.314,0,0,0,6.225-2.1V-.436A5.679,5.679,0,0,1,3.619.171ZM13.445,0l1.213-5.742a6.47,6.47,0,0,0,.154-1.085q0-1.154-1.1-1.154a2.316,2.316,0,0,0-1.79,1.068A7.032,7.032,0,0,0,10.7-3.99L9.865,0H7.849l2.82-13.3h2.008l-.487,2.239q-.231,1.077-.624,2.5l-.162.641h.068a5.038,5.038,0,0,1,1.44-1.307,3.076,3.076,0,0,1,1.517-.4,2.321,2.321,0,0,1,1.782.662,2.668,2.668,0,0,1,.62,1.893,6.6,6.6,0,0,1-.2,1.487L15.445,0Z" transform="translate(17.65 13.296)"/></svg>