<svg xmlns="http://www.w3.org/2000/svg" width="32.274" height="13.467" viewBox="0 0 32.274 13.467"><defs><style>.a{fill:#22242b;}</style></defs><path class="a" d="M-9.985-2.905A2.736,2.736,0,0,1-10.993-.628a4.4,4.4,0,0,1-2.8.8A6.028,6.028,0,0,1-16.547-.4V-2.136a5.2,5.2,0,0,0,2.666.769,2.378,2.378,0,0,0,1.342-.342,1.065,1.065,0,0,0,.513-.931,1.05,1.05,0,0,0-.295-.748,5.767,5.767,0,0,0-1.209-.833,4.51,4.51,0,0,1-1.508-1.166,2.3,2.3,0,0,1-.44-1.406,2.542,2.542,0,0,1,.914-2.076A3.771,3.771,0,0,1-12.1-9.622,5.948,5.948,0,0,1-9.139-8.9l-.649,1.5a4.779,4.779,0,0,0-2.273-.649,1.684,1.684,0,0,0-1.013.282.916.916,0,0,0-.389.786.969.969,0,0,0,.282.684,4.993,4.993,0,0,0,1.154.769,6.7,6.7,0,0,1,1.273.863,2.592,2.592,0,0,1,.573.782A2.3,2.3,0,0,1-9.985-2.905Zm4.016-8.87a1.326,1.326,0,0,1,.333-.94,1.219,1.219,0,0,1,.94-.359,1.138,1.138,0,0,1,.735.226.829.829,0,0,1,.282.688,1.312,1.312,0,0,1-.342.957,1.2,1.2,0,0,1-.9.35,1.227,1.227,0,0,1-.752-.222A.815.815,0,0,1-5.969-11.775ZM-6.37,0H-8.387L-6.37-9.451h2.008ZM2.021,0,3.234-5.742a6.457,6.457,0,0,0,.154-1.119.982.982,0,0,0-1.1-1.119,1.915,1.915,0,0,0-1.213.487A4.406,4.406,0,0,0,0-6.088,7.955,7.955,0,0,0-.722-4.008L-1.559,0H-3.576l2.017-9.451H.013L-.167-7.7H-.09A5.12,5.12,0,0,1,1.371-9.164,3.085,3.085,0,0,1,3-9.622a2.352,2.352,0,0,1,1.773.649A2.547,2.547,0,0,1,5.4-7.126a8.068,8.068,0,0,1-.2,1.547L4.037,0ZM12.343,0l1.213-5.742a6.47,6.47,0,0,0,.154-1.085q0-1.154-1.1-1.154a2.316,2.316,0,0,0-1.79,1.068A7.032,7.032,0,0,0,9.6-3.99L8.763,0H6.746l2.82-13.3h2.008l-.487,2.239q-.231,1.077-.624,2.5l-.162.641h.068a5.038,5.038,0,0,1,1.44-1.307,3.076,3.076,0,0,1,1.517-.4,2.321,2.321,0,0,1,1.782.662,2.668,2.668,0,0,1,.62,1.893,6.6,6.6,0,0,1-.2,1.487L14.343,0Z" transform="translate(16.547 13.296)"/></svg>