<svg xmlns="http://www.w3.org/2000/svg" width="34.641" height="13.467" viewBox="0 0 34.641 13.467"><defs><style>.a{fill:#22242b;}</style></defs><path class="a" d="M-13.868.171a3.551,3.551,0,0,1-2.6-.906,3.465,3.465,0,0,1-.923-2.589,8,8,0,0,1,.628-3.217A5.311,5.311,0,0,1-15-8.806a4.315,4.315,0,0,1,2.581-.816A6.017,6.017,0,0,1-9.878-9.1l-.6,1.572a4.8,4.8,0,0,0-1.888-.453A2.5,2.5,0,0,0-14.5-6.669a5.819,5.819,0,0,0-.854,3.243,2.062,2.062,0,0,0,.479,1.461,1.723,1.723,0,0,0,1.324.513,3.642,3.642,0,0,0,1.183-.188A9.314,9.314,0,0,0-11.262-2.1V-.436A5.679,5.679,0,0,1-13.868.171ZM-2.845-6A2.214,2.214,0,0,0-3.264-7.43a1.451,1.451,0,0,0-1.2-.517,1.988,1.988,0,0,0-1.423.611,4.028,4.028,0,0,0-.974,1.658A7.074,7.074,0,0,0-7.2-3.444,2.2,2.2,0,0,0-6.78-1.991a1.541,1.541,0,0,0,1.252.5,1.966,1.966,0,0,0,1.384-.581A3.82,3.82,0,0,0-3.187-3.7,7.385,7.385,0,0,0-2.845-6Zm2.025.085a7.7,7.7,0,0,1-.624,3.14A5.033,5.033,0,0,1-3.157-.6,4.29,4.29,0,0,1-5.665.154,3.5,3.5,0,0,1-8.271-.825a3.624,3.624,0,0,1-.966-2.662,7.8,7.8,0,0,1,.611-3.119A5.144,5.144,0,0,1-6.913-8.814,4.257,4.257,0,0,1-4.366-9.6a3.419,3.419,0,0,1,2.606.991A3.764,3.764,0,0,1-.82-5.913ZM6.674-2.905A2.736,2.736,0,0,1,5.665-.628a4.4,4.4,0,0,1-2.8.8A6.028,6.028,0,0,1,.111-.4V-2.136a5.2,5.2,0,0,0,2.666.769,2.378,2.378,0,0,0,1.342-.342,1.065,1.065,0,0,0,.513-.931,1.05,1.05,0,0,0-.295-.748,5.767,5.767,0,0,0-1.209-.833A4.51,4.51,0,0,1,1.619-5.388a2.3,2.3,0,0,1-.44-1.406A2.542,2.542,0,0,1,2.094-8.87a3.771,3.771,0,0,1,2.469-.752A5.948,5.948,0,0,1,7.52-8.9L6.87-7.4A4.779,4.779,0,0,0,4.6-8.049a1.684,1.684,0,0,0-1.013.282.916.916,0,0,0-.389.786.969.969,0,0,0,.282.684,4.993,4.993,0,0,0,1.154.769A6.7,6.7,0,0,1,5.9-4.666a2.592,2.592,0,0,1,.573.782A2.3,2.3,0,0,1,6.674-2.905ZM13.868,0l1.213-5.742a6.47,6.47,0,0,0,.154-1.085q0-1.154-1.1-1.154a2.316,2.316,0,0,0-1.79,1.068A7.032,7.032,0,0,0,11.125-3.99L10.288,0H8.271l2.82-13.3H13.1l-.487,2.239q-.231,1.077-.624,2.5l-.162.641h.068a5.038,5.038,0,0,1,1.44-1.307,3.076,3.076,0,0,1,1.517-.4,2.321,2.321,0,0,1,1.782.662,2.668,2.668,0,0,1,.62,1.893,6.6,6.6,0,0,1-.2,1.487L15.868,0Z" transform="translate(17.389 13.296)"/></svg>