<svg xmlns="http://www.w3.org/2000/svg" width="40.23" height="18.094" viewBox="0 0 40.23 18.094"><defs><style>.a{fill:#22242b;}</style></defs><g transform="translate(-118.411 -303.077)"><path class="a" d="M-24.027-2.905A2.736,2.736,0,0,1-25.035-.628a4.4,4.4,0,0,1-2.8.8A6.028,6.028,0,0,1-30.589-.4V-2.136a5.2,5.2,0,0,0,2.666.769,2.378,2.378,0,0,0,1.342-.342,1.065,1.065,0,0,0,.513-.931,1.05,1.05,0,0,0-.295-.748,5.767,5.767,0,0,0-1.209-.833,4.51,4.51,0,0,1-1.508-1.166,2.3,2.3,0,0,1-.44-1.406,2.542,2.542,0,0,1,.914-2.076,3.771,3.771,0,0,1,2.469-.752,5.948,5.948,0,0,1,2.957.718l-.649,1.5A4.779,4.779,0,0,0-26.1-8.049a1.684,1.684,0,0,0-1.013.282.916.916,0,0,0-.389.786.969.969,0,0,0,.282.684,4.993,4.993,0,0,0,1.154.769,6.7,6.7,0,0,1,1.273.863,2.592,2.592,0,0,1,.573.782A2.3,2.3,0,0,1-24.027-2.905Zm3.141-8.87a1.326,1.326,0,0,1,.333-.94,1.219,1.219,0,0,1,.94-.359,1.138,1.138,0,0,1,.735.226.829.829,0,0,1,.282.688,1.312,1.312,0,0,1-.342.957,1.2,1.2,0,0,1-.9.35,1.227,1.227,0,0,1-.752-.222A.815.815,0,0,1-20.885-11.775ZM-21.287,0H-23.3l2.017-9.451h2.008Zm7.516,0,1.213-5.742A6.457,6.457,0,0,0-12.4-6.862a.982.982,0,0,0-1.1-1.119,1.915,1.915,0,0,0-1.213.487A4.406,4.406,0,0,0-15.8-6.088a7.955,7.955,0,0,0-.718,2.081L-17.351,0h-2.017l2.017-9.451h1.572L-15.958-7.7h.077A5.12,5.12,0,0,1-14.42-9.164a3.085,3.085,0,0,1,1.632-.457,2.352,2.352,0,0,1,1.773.649,2.547,2.547,0,0,1,.628,1.846,8.068,8.068,0,0,1-.2,1.547L-11.754,0Zm9.447,0L-3.11-5.742a6.47,6.47,0,0,0,.154-1.085q0-1.154-1.1-1.154a2.316,2.316,0,0,0-1.79,1.068A7.032,7.032,0,0,0-7.067-3.99L-7.9,0H-9.921L-7.1-13.3h2.008l-.487,2.239q-.231,1.077-.624,2.5l-.162.641H-6.3A5.038,5.038,0,0,1-4.858-9.22a3.076,3.076,0,0,1,1.517-.4,2.321,2.321,0,0,1,1.782.662A2.668,2.668,0,0,1-.94-7.067a6.6,6.6,0,0,1-.2,1.487L-2.324,0Z" transform="translate(149 321)"/><path class="a" d="M-5.407-3.158l.319-1.437h3.554l-.319,1.437ZM2.743,0H1.29L2.444-5.31a17.627,17.627,0,0,1,.5-1.978,4.6,4.6,0,0,1-.824.623L.979-5.951.332-6.989l3.1-1.935H4.641Z" transform="translate(154 312)"/></g></svg>