<svg xmlns="http://www.w3.org/2000/svg" width="41.597" height="18.094" viewBox="0 0 41.597 18.094"><defs><style>.a{fill:#22242b;}</style></defs><g transform="translate(-118.044 -303.077)"><path class="a" d="M-29.436.171a3.551,3.551,0,0,1-2.6-.906,3.465,3.465,0,0,1-.923-2.589,8,8,0,0,1,.628-3.217,5.311,5.311,0,0,1,1.765-2.264,4.315,4.315,0,0,1,2.581-.816,6.017,6.017,0,0,1,2.538.521l-.6,1.572a4.8,4.8,0,0,0-1.888-.453,2.5,2.5,0,0,0-2.136,1.312,5.819,5.819,0,0,0-.854,3.243,2.062,2.062,0,0,0,.479,1.461,1.723,1.723,0,0,0,1.324.513,3.642,3.642,0,0,0,1.183-.188A9.314,9.314,0,0,0-26.829-2.1V-.436A5.679,5.679,0,0,1-29.436.171ZM-19.288-6a2.214,2.214,0,0,0-.419-1.431,1.451,1.451,0,0,0-1.2-.517,1.988,1.988,0,0,0-1.423.611A4.028,4.028,0,0,0-23.3-5.678a7.074,7.074,0,0,0-.346,2.234,2.2,2.2,0,0,0,.423,1.453,1.541,1.541,0,0,0,1.252.5,1.966,1.966,0,0,0,1.384-.581A3.82,3.82,0,0,0-19.629-3.7,7.385,7.385,0,0,0-19.288-6Zm2.025.085a7.7,7.7,0,0,1-.624,3.14A5.033,5.033,0,0,1-19.6-.6a4.29,4.29,0,0,1-2.508.756,3.5,3.5,0,0,1-2.606-.978,3.624,3.624,0,0,1-.966-2.662,7.8,7.8,0,0,1,.611-3.119,5.144,5.144,0,0,1,1.713-2.209,4.257,4.257,0,0,1,2.546-.79,3.419,3.419,0,0,1,2.606.991A3.764,3.764,0,0,1-17.262-5.913Zm6.619,3.008A2.736,2.736,0,0,1-11.652-.628a4.4,4.4,0,0,1-2.8.8A6.028,6.028,0,0,1-17.206-.4V-2.136a5.2,5.2,0,0,0,2.666.769A2.378,2.378,0,0,0-13.2-1.709a1.065,1.065,0,0,0,.513-.931,1.05,1.05,0,0,0-.295-.748,5.767,5.767,0,0,0-1.209-.833A4.51,4.51,0,0,1-15.7-5.388a2.3,2.3,0,0,1-.44-1.406,2.542,2.542,0,0,1,.914-2.076,3.771,3.771,0,0,1,2.469-.752A5.948,5.948,0,0,1-9.8-8.9l-.649,1.5a4.779,4.779,0,0,0-2.273-.649,1.684,1.684,0,0,0-1.013.282.916.916,0,0,0-.389.786.969.969,0,0,0,.282.684,4.993,4.993,0,0,0,1.154.769,6.7,6.7,0,0,1,1.273.863,2.592,2.592,0,0,1,.573.782A2.3,2.3,0,0,1-10.644-2.905ZM-4.324,0-3.11-5.742a6.47,6.47,0,0,0,.154-1.085q0-1.154-1.1-1.154a2.316,2.316,0,0,0-1.79,1.068A7.032,7.032,0,0,0-7.067-3.99L-7.9,0H-9.921L-7.1-13.3h2.008l-.487,2.239q-.231,1.077-.624,2.5l-.162.641H-6.3A5.038,5.038,0,0,1-4.858-9.22a3.076,3.076,0,0,1,1.517-.4,2.321,2.321,0,0,1,1.782.662A2.668,2.668,0,0,1-.94-7.067a6.6,6.6,0,0,1-.2,1.487L-2.324,0Z" transform="translate(151 321)"/><path class="a" d="M-5.407-3.158l.319-1.437h3.554l-.319,1.437ZM2.743,0H1.29L2.444-5.31a17.627,17.627,0,0,1,.5-1.978,4.6,4.6,0,0,1-.824.623L.979-5.951.332-6.989l3.1-1.935H4.641Z" transform="translate(155 312)"/></g></svg>