<svg xmlns="http://www.w3.org/2000/svg" width="43.435" height="18.094" viewBox="0 0 43.435 18.094"><defs><style>.a{fill:#22242b;}</style></defs><g transform="translate(-116.206 -303.077)"><path class="a" d="M-26.231-2.905A2.736,2.736,0,0,1-27.24-.628a4.4,4.4,0,0,1-2.8.8A6.028,6.028,0,0,1-32.794-.4V-2.136a5.2,5.2,0,0,0,2.666.769,2.378,2.378,0,0,0,1.342-.342,1.065,1.065,0,0,0,.513-.931,1.05,1.05,0,0,0-.295-.748,5.767,5.767,0,0,0-1.209-.833,4.51,4.51,0,0,1-1.508-1.166,2.3,2.3,0,0,1-.44-1.406,2.542,2.542,0,0,1,.914-2.076,3.771,3.771,0,0,1,2.469-.752,5.948,5.948,0,0,1,2.957.718l-.649,1.5a4.779,4.779,0,0,0-2.273-.649,1.684,1.684,0,0,0-1.013.282.916.916,0,0,0-.389.786.969.969,0,0,0,.282.684,4.993,4.993,0,0,0,1.154.769A6.7,6.7,0,0,1-27-4.666a2.592,2.592,0,0,1,.573.782A2.3,2.3,0,0,1-26.231-2.905Zm6-5.178a2.148,2.148,0,0,0-1.542.735,4.237,4.237,0,0,0-1.038,1.94h.248a5.661,5.661,0,0,0,2.512-.457,1.415,1.415,0,0,0,.906-1.295.863.863,0,0,0-.273-.679A1.187,1.187,0,0,0-20.236-8.083Zm-1.3,8.254a3.542,3.542,0,0,1-2.628-.948,3.59,3.59,0,0,1-.944-2.649,7.519,7.519,0,0,1,.662-3.149A5.4,5.4,0,0,1-22.65-8.827a4.307,4.307,0,0,1,2.534-.795A3.315,3.315,0,0,1-17.976-9a2.131,2.131,0,0,1,.765,1.756,2.72,2.72,0,0,1-1.423,2.431,7.772,7.772,0,0,1-4.055.876h-.367l-.017.265v.248A2.147,2.147,0,0,0-22.59-1.94a1.835,1.835,0,0,0,1.44.538,4.708,4.708,0,0,0,1.222-.162,8.714,8.714,0,0,0,1.436-.555v1.6A7.931,7.931,0,0,1-20,.013,6.861,6.861,0,0,1-21.535.171Zm8.26,0a3.551,3.551,0,0,1-2.6-.906A3.465,3.465,0,0,1-16.8-3.324a8,8,0,0,1,.628-3.217A5.311,5.311,0,0,1-14.4-8.806a4.315,4.315,0,0,1,2.581-.816A6.017,6.017,0,0,1-9.285-9.1l-.6,1.572a4.8,4.8,0,0,0-1.888-.453,2.5,2.5,0,0,0-2.136,1.312,5.819,5.819,0,0,0-.854,3.243,2.062,2.062,0,0,0,.479,1.461,1.723,1.723,0,0,0,1.324.513,3.642,3.642,0,0,0,1.183-.188A9.314,9.314,0,0,0-10.669-2.1V-.436A5.679,5.679,0,0,1-13.275.171ZM-4.324,0-3.11-5.742a6.47,6.47,0,0,0,.154-1.085q0-1.154-1.1-1.154a2.316,2.316,0,0,0-1.79,1.068A7.032,7.032,0,0,0-7.067-3.99L-7.9,0H-9.921L-7.1-13.3h2.008l-.487,2.239q-.231,1.077-.624,2.5l-.162.641H-6.3A5.038,5.038,0,0,1-4.858-9.22a3.076,3.076,0,0,1,1.517-.4,2.321,2.321,0,0,1,1.782.662A2.668,2.668,0,0,1-.94-7.067a6.6,6.6,0,0,1-.2,1.487L-2.324,0Z" transform="translate(149 321)"/><path class="a" d="M-5.407-3.158l.319-1.437h3.554l-.319,1.437ZM2.743,0H1.29L2.444-5.31a17.627,17.627,0,0,1,.5-1.978,4.6,4.6,0,0,1-.824.623L.979-5.951.332-6.989l3.1-1.935H4.641Z" transform="translate(155 312)"/></g></svg>