<svg xmlns="http://www.w3.org/2000/svg" width="39.717" height="18.094" viewBox="0 0 39.717 18.094"><defs><style>.a{fill:#22242b;}</style></defs><g transform="translate(-118.924 -303.077)"><path class="a" d="M-27.556.171a3.551,3.551,0,0,1-2.6-.906,3.465,3.465,0,0,1-.923-2.589,8,8,0,0,1,.628-3.217,5.311,5.311,0,0,1,1.765-2.264A4.315,4.315,0,0,1-26.1-9.622a6.017,6.017,0,0,1,2.538.521l-.6,1.572a4.8,4.8,0,0,0-1.888-.453,2.5,2.5,0,0,0-2.136,1.312,5.819,5.819,0,0,0-.854,3.243,2.062,2.062,0,0,0,.479,1.461,1.723,1.723,0,0,0,1.324.513,3.642,3.642,0,0,0,1.183-.188A9.314,9.314,0,0,0-24.949-2.1V-.436A5.679,5.679,0,0,1-27.556.171Zm9.635-3.076A2.736,2.736,0,0,1-18.929-.628a4.4,4.4,0,0,1-2.8.8A6.028,6.028,0,0,1-24.483-.4V-2.136a5.2,5.2,0,0,0,2.666.769,2.378,2.378,0,0,0,1.342-.342,1.065,1.065,0,0,0,.513-.931,1.05,1.05,0,0,0-.295-.748,5.767,5.767,0,0,0-1.209-.833,4.51,4.51,0,0,1-1.508-1.166,2.3,2.3,0,0,1-.44-1.406A2.542,2.542,0,0,1-22.5-8.87a3.771,3.771,0,0,1,2.469-.752,5.948,5.948,0,0,1,2.957.718l-.649,1.5A4.779,4.779,0,0,0-20-8.049a1.684,1.684,0,0,0-1.013.282.916.916,0,0,0-.389.786.969.969,0,0,0,.282.684,4.993,4.993,0,0,0,1.154.769,6.7,6.7,0,0,1,1.273.863,2.592,2.592,0,0,1,.573.782A2.3,2.3,0,0,1-17.92-2.905ZM-13.275.171a3.551,3.551,0,0,1-2.6-.906A3.465,3.465,0,0,1-16.8-3.324a8,8,0,0,1,.628-3.217A5.311,5.311,0,0,1-14.4-8.806a4.315,4.315,0,0,1,2.581-.816A6.017,6.017,0,0,1-9.285-9.1l-.6,1.572a4.8,4.8,0,0,0-1.888-.453,2.5,2.5,0,0,0-2.136,1.312,5.819,5.819,0,0,0-.854,3.243,2.062,2.062,0,0,0,.479,1.461,1.723,1.723,0,0,0,1.324.513,3.642,3.642,0,0,0,1.183-.188A9.314,9.314,0,0,0-10.669-2.1V-.436A5.679,5.679,0,0,1-13.275.171ZM-4.324,0-3.11-5.742a6.47,6.47,0,0,0,.154-1.085q0-1.154-1.1-1.154a2.316,2.316,0,0,0-1.79,1.068A7.032,7.032,0,0,0-7.067-3.99L-7.9,0H-9.921L-7.1-13.3h2.008l-.487,2.239q-.231,1.077-.624,2.5l-.162.641H-6.3A5.038,5.038,0,0,1-4.858-9.22a3.076,3.076,0,0,1,1.517-.4,2.321,2.321,0,0,1,1.782.662A2.668,2.668,0,0,1-.94-7.067a6.6,6.6,0,0,1-.2,1.487L-2.324,0Z" transform="translate(150 321)"/><path class="a" d="M-5.407-3.158l.319-1.437h3.554l-.319,1.437ZM2.743,0H1.29L2.444-5.31a17.627,17.627,0,0,1,.5-1.978,4.6,4.6,0,0,1-.824.623L.979-5.951.332-6.989l3.1-1.935H4.641Z" transform="translate(154 312)"/></g></svg>