<svg xmlns="http://www.w3.org/2000/svg" width="41.435" height="18.094" viewBox="0 0 41.435 18.094"><defs><style>.a{fill:#22242b;}</style></defs><g transform="translate(-118.207 -303.077)"><path class="a" d="M-30.692-1.453a3.724,3.724,0,0,0,1.29-.265V-.2a3.7,3.7,0,0,1-.812.256,4.83,4.83,0,0,1-1.025.111q-2.341,0-2.341-2.111a5.372,5.372,0,0,1,.137-1.119l1.034-4.871h-1.384l.179-.94,1.624-.7,1.1-1.982h1.248l-.444,2.1H-27.7l-.333,1.521H-30.4l-1.042,4.888a3.534,3.534,0,0,0-.111.786.8.8,0,0,0,.214.585A.873.873,0,0,0-30.692-1.453ZM-25.619.171A2.319,2.319,0,0,1-27.525-.7a3.788,3.788,0,0,1-.7-2.44,8.714,8.714,0,0,1,.594-3.23A5.827,5.827,0,0,1-26-8.746a3.482,3.482,0,0,1,2.29-.876,2.56,2.56,0,0,1,1.427.389A2.551,2.551,0,0,1-21.347-8.1h.085l.53-1.35h1.538L-21.21,0h-1.555l.179-1.5h-.051A3.836,3.836,0,0,1-25.619.171Zm.735-1.624a1.98,1.98,0,0,0,1.376-.662A5,5,0,0,0-22.4-3.888a6.588,6.588,0,0,0,.436-2.427,1.766,1.766,0,0,0-.4-1.209,1.332,1.332,0,0,0-1.051-.457,1.9,1.9,0,0,0-1.367.658,4.681,4.681,0,0,0-1.025,1.79,7.244,7.244,0,0,0-.385,2.346,2.057,2.057,0,0,0,.346,1.3A1.164,1.164,0,0,0-24.885-1.453ZM-13.771,0l1.213-5.742A6.457,6.457,0,0,0-12.4-6.862a.982.982,0,0,0-1.1-1.119,1.915,1.915,0,0,0-1.213.487A4.406,4.406,0,0,0-15.8-6.088a7.955,7.955,0,0,0-.718,2.081L-17.351,0h-2.017l2.017-9.451h1.572L-15.958-7.7h.077A5.12,5.12,0,0,1-14.42-9.164a3.085,3.085,0,0,1,1.632-.457,2.352,2.352,0,0,1,1.773.649,2.547,2.547,0,0,1,.628,1.846,8.068,8.068,0,0,1-.2,1.547L-11.754,0Zm9.447,0L-3.11-5.742a6.47,6.47,0,0,0,.154-1.085q0-1.154-1.1-1.154a2.316,2.316,0,0,0-1.79,1.068A7.032,7.032,0,0,0-7.067-3.99L-7.9,0H-9.921L-7.1-13.3h2.008l-.487,2.239q-.231,1.077-.624,2.5l-.162.641H-6.3A5.038,5.038,0,0,1-4.858-9.22a3.076,3.076,0,0,1,1.517-.4,2.321,2.321,0,0,1,1.782.662A2.668,2.668,0,0,1-.94-7.067a6.6,6.6,0,0,1-.2,1.487L-2.324,0Z" transform="translate(152 321)"/><path class="a" d="M-5.407-3.158l.319-1.437h3.554l-.319,1.437ZM2.743,0H1.29L2.444-5.31a17.627,17.627,0,0,1,.5-1.978,4.6,4.6,0,0,1-.824.623L.979-5.951.332-6.989l3.1-1.935H4.641Z" transform="translate(155 312)"/></g></svg>