<svg xmlns="http://www.w3.org/2000/svg" width="40.145" height="18.094" viewBox="0 0 40.145 18.094"><defs><style>.a{fill:#22242b;}</style></defs><g transform="translate(-119.497 -303.077)"><path class="a" d="M-27.983.171a3.551,3.551,0,0,1-2.6-.906A3.465,3.465,0,0,1-31.5-3.324a8,8,0,0,1,.628-3.217,5.311,5.311,0,0,1,1.765-2.264,4.315,4.315,0,0,1,2.581-.816,6.017,6.017,0,0,1,2.538.521l-.6,1.572a4.8,4.8,0,0,0-1.888-.453,2.5,2.5,0,0,0-2.136,1.312,5.819,5.819,0,0,0-.854,3.243,2.062,2.062,0,0,0,.479,1.461,1.723,1.723,0,0,0,1.324.513,3.642,3.642,0,0,0,1.183-.188A9.314,9.314,0,0,0-25.377-2.1V-.436A5.679,5.679,0,0,1-27.983.171ZM-17.835-6a2.214,2.214,0,0,0-.419-1.431,1.451,1.451,0,0,0-1.2-.517,1.988,1.988,0,0,0-1.423.611,4.028,4.028,0,0,0-.974,1.658,7.074,7.074,0,0,0-.346,2.234,2.2,2.2,0,0,0,.423,1.453,1.541,1.541,0,0,0,1.252.5,1.966,1.966,0,0,0,1.384-.581A3.82,3.82,0,0,0-18.177-3.7,7.385,7.385,0,0,0-17.835-6Zm2.025.085a7.7,7.7,0,0,1-.624,3.14A5.033,5.033,0,0,1-18.147-.6a4.29,4.29,0,0,1-2.508.756,3.5,3.5,0,0,1-2.606-.978,3.624,3.624,0,0,1-.966-2.662,7.8,7.8,0,0,1,.611-3.119A5.144,5.144,0,0,1-21.9-8.814a4.257,4.257,0,0,1,2.546-.79,3.419,3.419,0,0,1,2.606.991A3.764,3.764,0,0,1-15.81-5.913Zm3.825,4.46a3.724,3.724,0,0,0,1.29-.265V-.2a3.7,3.7,0,0,1-.812.256,4.83,4.83,0,0,1-1.025.111q-2.341,0-2.341-2.111a5.372,5.372,0,0,1,.137-1.119L-13.7-7.93h-1.384l.179-.94,1.624-.7,1.1-1.982h1.248l-.444,2.1h2.384L-9.328-7.93h-2.367l-1.042,4.888a3.534,3.534,0,0,0-.111.786.8.8,0,0,0,.214.585A.873.873,0,0,0-11.985-1.453ZM-4.324,0-3.11-5.742a6.47,6.47,0,0,0,.154-1.085q0-1.154-1.1-1.154a2.316,2.316,0,0,0-1.79,1.068A7.032,7.032,0,0,0-7.067-3.99L-7.9,0H-9.921L-7.1-13.3h2.008l-.487,2.239q-.231,1.077-.624,2.5l-.162.641H-6.3A5.038,5.038,0,0,1-4.858-9.22a3.076,3.076,0,0,1,1.517-.4,2.321,2.321,0,0,1,1.782.662A2.668,2.668,0,0,1-.94-7.067a6.6,6.6,0,0,1-.2,1.487L-2.324,0Z" transform="translate(151 321)"/><path class="a" d="M-5.407-3.158l.319-1.437h3.554l-.319,1.437ZM2.743,0H1.29L2.444-5.31a17.627,17.627,0,0,1,.5-1.978,4.6,4.6,0,0,1-.824.623L.979-5.951.332-6.989l3.1-1.935H4.641Z" transform="translate(155 312)"/></g></svg>