<svg xmlns="http://www.w3.org/2000/svg" width="288.489" height="144.045" viewBox="0 0 288.489 144.045"><g transform="translate(-18.301 -13)"><rect width="287.047" height="143.391" transform="translate(18.965 13)" fill="#fff"/><g transform="translate(18.301 13)"><g transform="translate(0 47.528)"><g fill="#00ad50" stroke="#00ad50" stroke-width="1.5" opacity="0.19"><rect width="48.989" height="48.989" stroke="none"/><rect x="0.75" y="0.75" width="47.489" height="47.489" fill="none"/></g><g fill="none" stroke="#00ad50" stroke-width="1.5"><rect width="48.989" height="48.989" stroke="none"/><rect x="0.75" y="0.75" width="47.489" height="47.489" fill="none"/></g><g transform="translate(95.8)" fill="#00ad50" stroke="#00ad50" stroke-width="1.5" opacity="0.8"><rect width="48.989" height="48.989" stroke="none"/><rect x="0.75" y="0.75" width="47.489" height="47.489" fill="none"/></g><g transform="translate(95.8)" fill="none" stroke="#00ad50" stroke-width="1.5"><rect width="48.989" height="48.989" stroke="none"/><rect x="0.75" y="0.75" width="47.489" height="47.489" fill="none"/></g><g transform="translate(191.6)" fill="#00ad50" stroke="#00ad50" stroke-width="1.5" opacity="0.8"><rect width="48.989" height="48.989" stroke="none"/><rect x="0.75" y="0.75" width="47.489" height="47.489" fill="none"/></g><g transform="translate(191.6)" fill="none" stroke="#00ad50" stroke-width="1.5"><rect width="48.989" height="48.989" stroke="none"/><rect x="0.75" y="0.75" width="47.489" height="47.489" fill="none"/></g><g transform="translate(47.9)" fill="#00ad50" stroke="#00ad50" stroke-width="1.5" opacity="0.8"><rect width="48.989" height="48.989" stroke="none"/><rect x="0.75" y="0.75" width="47.489" height="47.489" fill="none"/></g><g transform="translate(47.9)" fill="none" stroke="#00ad50" stroke-width="1.5"><rect width="48.989" height="48.989" stroke="none"/><rect x="0.75" y="0.75" width="47.489" height="47.489" fill="none"/></g><g transform="translate(143.7)" fill="#00ad50" stroke="#00ad50" stroke-width="1.5" opacity="0.19"><rect width="48.989" height="48.989" stroke="none"/><rect x="0.75" y="0.75" width="47.489" height="47.489" fill="none"/></g><g transform="translate(143.7)" fill="none" stroke="#00ad50" stroke-width="1.5"><rect width="48.989" height="48.989" stroke="none"/><rect x="0.75" y="0.75" width="47.489" height="47.489" fill="none"/></g><g transform="translate(239.5)" fill="#00ad50" stroke="#00ad50" stroke-width="1.5" opacity="0.19"><rect width="48.989" height="48.989" stroke="none"/><rect x="0.75" y="0.75" width="47.489" height="47.489" fill="none"/></g><g transform="translate(239.5)" fill="none" stroke="#00ad50" stroke-width="1.5"><rect width="48.989" height="48.989" stroke="none"/><rect x="0.75" y="0.75" width="47.489" height="47.489" fill="none"/></g></g><g transform="translate(0 95.056)"><g fill="#00ad50" stroke="#00ad50" stroke-width="1.5" opacity="0.19"><rect width="48.989" height="48.989" stroke="none"/><rect x="0.75" y="0.75" width="47.489" height="47.489" fill="none"/></g><g fill="none" stroke="#00ad50" stroke-width="1.5"><rect width="48.989" height="48.989" stroke="none"/><rect x="0.75" y="0.75" width="47.489" height="47.489" fill="none"/></g><g transform="translate(95.8)" fill="#00ad50" stroke="#00ad50" stroke-width="1.5" opacity="0.19"><rect width="48.989" height="48.989" stroke="none"/><rect x="0.75" y="0.75" width="47.489" height="47.489" fill="none"/></g><g transform="translate(95.8)" fill="none" stroke="#00ad50" stroke-width="1.5"><rect width="48.989" height="48.989" stroke="none"/><rect x="0.75" y="0.75" width="47.489" height="47.489" fill="none"/></g><g transform="translate(191.6)" fill="#00ad50" stroke="#00ad50" stroke-width="1.5" opacity="0.19"><rect width="48.989" height="48.989" stroke="none"/><rect x="0.75" y="0.75" width="47.489" height="47.489" fill="none"/></g><g transform="translate(191.6)" fill="none" stroke="#00ad50" stroke-width="1.5"><rect width="48.989" height="48.989" stroke="none"/><rect x="0.75" y="0.75" width="47.489" height="47.489" fill="none"/></g><g transform="translate(47.9)" fill="#00ad50" stroke="#00ad50" stroke-width="1.5" opacity="0.19"><rect width="48.989" height="48.989" stroke="none"/><rect x="0.75" y="0.75" width="47.489" height="47.489" fill="none"/></g><g transform="translate(47.9)" fill="none" stroke="#00ad50" stroke-width="1.5"><rect width="48.989" height="48.989" stroke="none"/><rect x="0.75" y="0.75" width="47.489" height="47.489" fill="none"/></g><g transform="translate(143.7)" fill="#00ad50" stroke="#00ad50" stroke-width="1.5" opacity="0.19"><rect width="48.989" height="48.989" stroke="none"/><rect x="0.75" y="0.75" width="47.489" height="47.489" fill="none"/></g><g transform="translate(143.7)" fill="none" stroke="#00ad50" stroke-width="1.5"><rect width="48.989" height="48.989" stroke="none"/><rect x="0.75" y="0.75" width="47.489" height="47.489" fill="none"/></g><g transform="translate(239.5)" fill="#00ad50" stroke="#00ad50" stroke-width="1.5" opacity="0.19"><rect width="48.989" height="48.989" stroke="none"/><rect x="0.75" y="0.75" width="47.489" height="47.489" fill="none"/></g><g transform="translate(239.5)" fill="none" stroke="#00ad50" stroke-width="1.5"><rect width="48.989" height="48.989" stroke="none"/><rect x="0.75" y="0.75" width="47.489" height="47.489" fill="none"/></g></g><g fill="#00ad50" stroke="#00ad50" stroke-width="1.5" opacity="0.19"><rect width="48.989" height="48.989" stroke="none"/><rect x="0.75" y="0.75" width="47.489" height="47.489" fill="none"/></g><g fill="none" stroke="#00ad50" stroke-width="1.5"><rect width="48.989" height="48.989" stroke="none"/><rect x="0.75" y="0.75" width="47.489" height="47.489" fill="none"/></g><g transform="translate(95.8)" fill="#00ad50" stroke="#00ad50" stroke-width="1.5" opacity="0.8"><rect width="48.989" height="48.989" stroke="none"/><rect x="0.75" y="0.75" width="47.489" height="47.489" fill="none"/></g><g transform="translate(95.8)" fill="none" stroke="#00ad50" stroke-width="1.5"><rect width="48.989" height="48.989" stroke="none"/><rect x="0.75" y="0.75" width="47.489" height="47.489" fill="none"/></g><g transform="translate(191.6)" fill="#00ad50" stroke="#00ad50" stroke-width="1.5" opacity="0.19"><rect width="48.989" height="48.989" stroke="none"/><rect x="0.75" y="0.75" width="47.489" height="47.489" fill="none"/></g><g transform="translate(191.6)" fill="none" stroke="#00ad50" stroke-width="1.5"><rect width="48.989" height="48.989" stroke="none"/><rect x="0.75" y="0.75" width="47.489" height="47.489" fill="none"/></g><g transform="translate(47.9)" fill="#00ad50" stroke="#00ad50" stroke-width="1.5" opacity="0.8"><rect width="48.989" height="48.989" stroke="none"/><rect x="0.75" y="0.75" width="47.489" height="47.489" fill="none"/></g><g transform="translate(47.9)" fill="none" stroke="#00ad50" stroke-width="1.5"><rect width="48.989" height="48.989" stroke="none"/><rect x="0.75" y="0.75" width="47.489" height="47.489" fill="none"/></g><g transform="translate(143.7)" fill="#00ad50" stroke="#00ad50" stroke-width="1.5" opacity="0.19"><rect width="48.989" height="48.989" stroke="none"/><rect x="0.75" y="0.75" width="47.489" height="47.489" fill="none"/></g><g transform="translate(143.7)" fill="none" stroke="#00ad50" stroke-width="1.5"><rect width="48.989" height="48.989" stroke="none"/><rect x="0.75" y="0.75" width="47.489" height="47.489" fill="none"/></g><g transform="translate(239.5)" fill="#00ad50" stroke="#00ad50" stroke-width="1.5" opacity="0.8"><rect width="48.989" height="48.989" stroke="none"/><rect x="0.75" y="0.75" width="47.489" height="47.489" fill="none"/></g><g transform="translate(239.5)" fill="none" stroke="#00ad50" stroke-width="1.5"><rect width="48.989" height="48.989" stroke="none"/><rect x="0.75" y="0.75" width="47.489" height="47.489" fill="none"/></g></g></g></svg>