<svg xmlns="http://www.w3.org/2000/svg" width="247.207" height="145.945" viewBox="0 0 247.207 145.945"><g transform="translate(-16.756 -52.54)"><rect width="247.207" height="145.945" rx="5" transform="translate(16.756 52.54)" fill="#fff"/><g transform="translate(11.455 49.6)"><rect width="220.964" height="110.38" transform="translate(18.812 13)" fill="#fff"/><g transform="translate(18.301 13)"><g transform="translate(0 36.586)"><g fill="#e8e8e9" stroke="#878a91" stroke-width="1.5"><rect width="37.711" height="37.711" stroke="none"/><rect x="0.75" y="0.75" width="36.211" height="36.211" fill="none"/></g><g fill="none" stroke="#878a91" stroke-width="1.5"><rect width="37.711" height="37.711" stroke="none"/><rect x="0.75" y="0.75" width="36.211" height="36.211" fill="none"/></g><g transform="translate(73.745)" fill="#878a91" stroke="#878a91" stroke-width="1.5" opacity="0.8"><rect width="37.711" height="37.711" stroke="none"/><rect x="0.75" y="0.75" width="36.211" height="36.211" fill="none"/></g><g transform="translate(73.745)" fill="none" stroke="#878a91" stroke-width="1.5"><rect width="37.711" height="37.711" stroke="none"/><rect x="0.75" y="0.75" width="36.211" height="36.211" fill="none"/></g><g transform="translate(147.491)" fill="#878a91" stroke="#878a91" stroke-width="1.5" opacity="0.8"><rect width="37.711" height="37.711" stroke="none"/><rect x="0.75" y="0.75" width="36.211" height="36.211" fill="none"/></g><g transform="translate(147.491)" fill="none" stroke="#878a91" stroke-width="1.5"><rect width="37.711" height="37.711" stroke="none"/><rect x="0.75" y="0.75" width="36.211" height="36.211" fill="none"/></g><g transform="translate(36.873)" fill="#878a91" stroke="#878a91" stroke-width="1.5" opacity="0.8"><rect width="37.711" height="37.711" stroke="none"/><rect x="0.75" y="0.75" width="36.211" height="36.211" fill="none"/></g><g transform="translate(36.873)" fill="none" stroke="#878a91" stroke-width="1.5"><rect width="37.711" height="37.711" stroke="none"/><rect x="0.75" y="0.75" width="36.211" height="36.211" fill="none"/></g><g transform="translate(110.618)" fill="#e8e8e9" stroke="#878a91" stroke-width="1.5"><rect width="37.711" height="37.711" stroke="none"/><rect x="0.75" y="0.75" width="36.211" height="36.211" fill="none"/></g><g transform="translate(110.618)" fill="none" stroke="#878a91" stroke-width="1.5"><rect width="37.711" height="37.711" stroke="none"/><rect x="0.75" y="0.75" width="36.211" height="36.211" fill="none"/></g><g transform="translate(184.363)" fill="#e8e8e9" stroke="#878a91" stroke-width="1.5"><rect width="37.711" height="37.711" stroke="none"/><rect x="0.75" y="0.75" width="36.211" height="36.211" fill="none"/></g><g transform="translate(184.363)" fill="none" stroke="#878a91" stroke-width="1.5"><rect width="37.711" height="37.711" stroke="none"/><rect x="0.75" y="0.75" width="36.211" height="36.211" fill="none"/></g></g><g transform="translate(0 73.173)"><g fill="#e8e8e9" stroke="#878a91" stroke-width="1.5"><rect width="37.711" height="37.711" stroke="none"/><rect x="0.75" y="0.75" width="36.211" height="36.211" fill="none"/></g><g fill="none" stroke="#878a91" stroke-width="1.5"><rect width="37.711" height="37.711" stroke="none"/><rect x="0.75" y="0.75" width="36.211" height="36.211" fill="none"/></g><g transform="translate(73.745)" fill="#e8e8e9" stroke="#878a91" stroke-width="1.5"><rect width="37.711" height="37.711" stroke="none"/><rect x="0.75" y="0.75" width="36.211" height="36.211" fill="none"/></g><g transform="translate(73.745)" fill="none" stroke="#878a91" stroke-width="1.5"><rect width="37.711" height="37.711" stroke="none"/><rect x="0.75" y="0.75" width="36.211" height="36.211" fill="none"/></g><g transform="translate(147.491)" fill="#e8e8e9" stroke="#878a91" stroke-width="1.5"><rect width="37.711" height="37.711" stroke="none"/><rect x="0.75" y="0.75" width="36.211" height="36.211" fill="none"/></g><g transform="translate(147.491)" fill="none" stroke="#878a91" stroke-width="1.5"><rect width="37.711" height="37.711" stroke="none"/><rect x="0.75" y="0.75" width="36.211" height="36.211" fill="none"/></g><g transform="translate(36.873)" fill="#e8e8e9" stroke="#878a91" stroke-width="1.5"><rect width="37.711" height="37.711" stroke="none"/><rect x="0.75" y="0.75" width="36.211" height="36.211" fill="none"/></g><g transform="translate(36.873)" fill="none" stroke="#878a91" stroke-width="1.5"><rect width="37.711" height="37.711" stroke="none"/><rect x="0.75" y="0.75" width="36.211" height="36.211" fill="none"/></g><g transform="translate(110.618)" fill="#e8e8e9" stroke="#878a91" stroke-width="1.5"><rect width="37.711" height="37.711" stroke="none"/><rect x="0.75" y="0.75" width="36.211" height="36.211" fill="none"/></g><g transform="translate(110.618)" fill="none" stroke="#878a91" stroke-width="1.5"><rect width="37.711" height="37.711" stroke="none"/><rect x="0.75" y="0.75" width="36.211" height="36.211" fill="none"/></g><g transform="translate(184.363)" fill="#e8e8e9" stroke="#878a91" stroke-width="1.5"><rect width="37.711" height="37.711" stroke="none"/><rect x="0.75" y="0.75" width="36.211" height="36.211" fill="none"/></g><g transform="translate(184.363)" fill="none" stroke="#878a91" stroke-width="1.5"><rect width="37.711" height="37.711" stroke="none"/><rect x="0.75" y="0.75" width="36.211" height="36.211" fill="none"/></g></g><g fill="#e8e8e9" stroke="#878a91" stroke-width="1.5"><rect width="37.711" height="37.711" stroke="none"/><rect x="0.75" y="0.75" width="36.211" height="36.211" fill="none"/></g><g fill="none" stroke="#878a91" stroke-width="1.5"><rect width="37.711" height="37.711" stroke="none"/><rect x="0.75" y="0.75" width="36.211" height="36.211" fill="none"/></g><g transform="translate(73.745)" fill="#878a91" stroke="#878a91" stroke-width="1.5" opacity="0.8"><rect width="37.711" height="37.711" stroke="none"/><rect x="0.75" y="0.75" width="36.211" height="36.211" fill="none"/></g><g transform="translate(73.745)" fill="none" stroke="#878a91" stroke-width="1.5"><rect width="37.711" height="37.711" stroke="none"/><rect x="0.75" y="0.75" width="36.211" height="36.211" fill="none"/></g><g transform="translate(147.491)" fill="#e8e8e9" stroke="#878a91" stroke-width="1.5"><rect width="37.711" height="37.711" stroke="none"/><rect x="0.75" y="0.75" width="36.211" height="36.211" fill="none"/></g><g transform="translate(147.491)" fill="none" stroke="#878a91" stroke-width="1.5"><rect width="37.711" height="37.711" stroke="none"/><rect x="0.75" y="0.75" width="36.211" height="36.211" fill="none"/></g><g transform="translate(36.873)" fill="#878a91" stroke="#878a91" stroke-width="1.5" opacity="0.8"><rect width="37.711" height="37.711" stroke="none"/><rect x="0.75" y="0.75" width="36.211" height="36.211" fill="none"/></g><g transform="translate(36.873)" fill="none" stroke="#878a91" stroke-width="1.5"><rect width="37.711" height="37.711" stroke="none"/><rect x="0.75" y="0.75" width="36.211" height="36.211" fill="none"/></g><g transform="translate(110.618)" fill="#e8e8e9" stroke="#878a91" stroke-width="1.5"><rect width="37.711" height="37.711" stroke="none"/><rect x="0.75" y="0.75" width="36.211" height="36.211" fill="none"/></g><g transform="translate(110.618)" fill="none" stroke="#878a91" stroke-width="1.5"><rect width="37.711" height="37.711" stroke="none"/><rect x="0.75" y="0.75" width="36.211" height="36.211" fill="none"/></g><g transform="translate(184.363)" fill="#878a91" stroke="#878a91" stroke-width="1.5" opacity="0.8"><rect width="37.711" height="37.711" stroke="none"/><rect x="0.75" y="0.75" width="36.211" height="36.211" fill="none"/></g><g transform="translate(184.363)" fill="none" stroke="#878a91" stroke-width="1.5"><rect width="37.711" height="37.711" stroke="none"/><rect x="0.75" y="0.75" width="36.211" height="36.211" fill="none"/></g></g></g></g></svg>