<svg xmlns="http://www.w3.org/2000/svg" width="226.402" height="174.189" viewBox="0 0 226.402 174.189"><rect width="226.402" height="174.189" rx="10" fill="#fff"/><path d="M10,1a9.01,9.01,0,0,0-9,9V164.189a9.01,9.01,0,0,0,9,9H216.4a9.01,9.01,0,0,0,9-9V10a9.01,9.01,0,0,0-9-9H10m0-1H216.4a10,10,0,0,1,10,10V164.189a10,10,0,0,1-10,10H10a10,10,0,0,1-10-10V10A10,10,0,0,1,10,0Z" fill="#dadae4"/><g transform="translate(16.757 12.829)"><path d="M5.624-2.181A2.03,2.03,0,0,1,4.858-.5a3.325,3.325,0,0,1-2.13.612A5,5,0,0,1,.5-.365V-1.912a9.163,9.163,0,0,0,1.345.5,3.981,3.981,0,0,0,1.007.145A1.432,1.432,0,0,0,3.7-1.477.716.716,0,0,0,3.991-2.1a.688.688,0,0,0-.129-.411,1.442,1.442,0,0,0-.379-.346,9.739,9.739,0,0,0-1.018-.532,4.824,4.824,0,0,1-1.08-.65,2.44,2.44,0,0,1-.575-.725A2.069,2.069,0,0,1,.6-5.731,2.029,2.029,0,0,1,1.3-7.369a2.935,2.935,0,0,1,1.952-.6,4.61,4.61,0,0,1,1.168.145,8.03,8.03,0,0,1,1.163.408L5.049-6.118a7.858,7.858,0,0,0-1.039-.36,3.345,3.345,0,0,0-.808-.1,1.07,1.07,0,0,0-.725.22.726.726,0,0,0-.252.575.711.711,0,0,0,.1.384,1.122,1.122,0,0,0,.325.317,10.047,10.047,0,0,0,1.055.551A4.2,4.2,0,0,1,5.215-3.478,2.06,2.06,0,0,1,5.624-2.181ZM9.4-4.952a1.039,1.039,0,0,0-.816.33,1.529,1.529,0,0,0-.338.937h2.3a1.366,1.366,0,0,0-.317-.937A1.073,1.073,0,0,0,9.4-4.952ZM9.636.107a3.1,3.1,0,0,1-2.267-.8,3.03,3.03,0,0,1-.816-2.267,3.333,3.333,0,0,1,.755-2.334,2.687,2.687,0,0,1,2.087-.824,2.645,2.645,0,0,1,1.982.725,2.743,2.743,0,0,1,.709,2v.795H8.212A1.577,1.577,0,0,0,8.626-1.5a1.455,1.455,0,0,0,1.085.392,4.5,4.5,0,0,0,1.026-.113,5.133,5.133,0,0,0,1.01-.36V-.317a3.847,3.847,0,0,1-.918.32A5.791,5.791,0,0,1,9.636.107ZM18.96,0H17.322V-3.507a1.685,1.685,0,0,0-.231-.975.84.84,0,0,0-.736-.325,1.106,1.106,0,0,0-.994.459,2.848,2.848,0,0,0-.306,1.523V0H13.417V-6h1.251l.22.768h.091a1.731,1.731,0,0,1,.755-.658,2.57,2.57,0,0,1,1.093-.223,2.1,2.1,0,0,1,1.59.567,2.274,2.274,0,0,1,.542,1.635Zm4.216-1.2a3.551,3.551,0,0,0,1.031-.188V-.167a3.677,3.677,0,0,1-1.5.274,1.841,1.841,0,0,1-1.431-.5,2.163,2.163,0,0,1-.448-1.49v-2.9H20.04v-.693l.9-.548.473-1.268h1.047V-6h1.681v1.23H22.462v2.9a.64.64,0,0,0,.2.516A.774.774,0,0,0,23.176-1.2Zm4.732-3.754a1.039,1.039,0,0,0-.816.33,1.529,1.529,0,0,0-.338.937h2.3a1.366,1.366,0,0,0-.317-.937A1.073,1.073,0,0,0,27.908-4.952Zm.231,5.06a3.1,3.1,0,0,1-2.267-.8,3.03,3.03,0,0,1-.816-2.267,3.333,3.333,0,0,1,.755-2.334A2.687,2.687,0,0,1,27.9-6.118a2.645,2.645,0,0,1,1.982.725,2.743,2.743,0,0,1,.709,2v.795H26.716a1.577,1.577,0,0,0,.414,1.09,1.455,1.455,0,0,0,1.085.392,4.5,4.5,0,0,0,1.026-.113,5.133,5.133,0,0,0,1.01-.36V-.317a3.847,3.847,0,0,1-.918.32A5.791,5.791,0,0,1,28.139.107ZM37.463,0H35.825V-3.507a1.685,1.685,0,0,0-.231-.975.84.84,0,0,0-.736-.325,1.106,1.106,0,0,0-.994.459,2.848,2.848,0,0,0-.306,1.523V0H31.92V-6h1.251l.22.768h.091a1.731,1.731,0,0,1,.755-.658,2.57,2.57,0,0,1,1.093-.223,2.1,2.1,0,0,1,1.59.567,2.274,2.274,0,0,1,.542,1.635Zm4.125.107q-2.8,0-2.8-3.078a3.283,3.283,0,0,1,.763-2.339,2.861,2.861,0,0,1,2.186-.808,4.167,4.167,0,0,1,1.869.408l-.483,1.268Q42.732-4.6,42.4-4.7a2.319,2.319,0,0,0-.666-.1q-1.278,0-1.278,1.815,0,1.762,1.278,1.762a2.915,2.915,0,0,0,.875-.126,3.161,3.161,0,0,0,.806-.395v1.4a2.64,2.64,0,0,1-.8.349A4.516,4.516,0,0,1,41.588.107Zm5.7-5.06a1.039,1.039,0,0,0-.816.33,1.529,1.529,0,0,0-.338.937h2.3a1.366,1.366,0,0,0-.317-.937A1.073,1.073,0,0,0,47.292-4.952Zm.231,5.06a3.1,3.1,0,0,1-2.267-.8,3.03,3.03,0,0,1-.816-2.267A3.333,3.333,0,0,1,45.2-5.293a2.687,2.687,0,0,1,2.087-.824,2.645,2.645,0,0,1,1.982.725,2.743,2.743,0,0,1,.709,2v.795H46.1a1.577,1.577,0,0,0,.414,1.09,1.455,1.455,0,0,0,1.085.392,4.5,4.5,0,0,0,1.026-.113,5.133,5.133,0,0,0,1.01-.36V-.317a3.847,3.847,0,0,1-.918.32A5.791,5.791,0,0,1,47.523.107Zm8.433-4.474h.537a2.055,2.055,0,0,0,1.166-.263.939.939,0,0,0,.376-.827.859.859,0,0,0-.384-.795,2.33,2.33,0,0,0-1.19-.236h-.5Zm0,1.354V0H54.291V-7.853h2.288a3.916,3.916,0,0,1,2.369.583,2.08,2.08,0,0,1,.768,1.77,2.083,2.083,0,0,1-.381,1.233,2.523,2.523,0,0,1-1.08.846Q60.027-.773,60.564,0H58.717L56.842-3.013Zm7.955-1.939a1.039,1.039,0,0,0-.816.33,1.529,1.529,0,0,0-.338.937h2.3a1.366,1.366,0,0,0-.317-.937A1.073,1.073,0,0,0,63.911-4.952Zm.231,5.06a3.1,3.1,0,0,1-2.267-.8,3.03,3.03,0,0,1-.816-2.267,3.333,3.333,0,0,1,.755-2.334A2.687,2.687,0,0,1,63.9-6.118a2.645,2.645,0,0,1,1.982.725,2.743,2.743,0,0,1,.709,2v.795H62.718a1.577,1.577,0,0,0,.414,1.09,1.455,1.455,0,0,0,1.085.392,4.5,4.5,0,0,0,1.026-.113,5.133,5.133,0,0,0,1.01-.36V-.317a3.847,3.847,0,0,1-.918.32A5.791,5.791,0,0,1,64.142.107Zm7.971-1.891A1.653,1.653,0,0,1,71.47-.376a3.171,3.171,0,0,1-1.92.483A6.031,6.031,0,0,1,68.433.019a4.226,4.226,0,0,1-.865-.26V-1.6a5.711,5.711,0,0,0,1.029.36A4.165,4.165,0,0,0,69.6-1.09q.892,0,.892-.516a.43.43,0,0,0-.118-.314,1.713,1.713,0,0,0-.408-.274q-.29-.153-.773-.357a4.859,4.859,0,0,1-1.018-.537,1.512,1.512,0,0,1-.473-.567,1.87,1.87,0,0,1-.148-.787,1.426,1.426,0,0,1,.62-1.238,3.022,3.022,0,0,1,1.759-.438,4.993,4.993,0,0,1,2.111.473l-.494,1.182q-.451-.193-.843-.317a2.648,2.648,0,0,0-.8-.124q-.725,0-.725.392a.461.461,0,0,0,.234.381,6.354,6.354,0,0,0,1.023.478,4.753,4.753,0,0,1,1.031.532,1.573,1.573,0,0,1,.483.569A1.749,1.749,0,0,1,72.112-1.783ZM76.688.107a1.991,1.991,0,0,1-1.66-.768h-.086q.086.752.086.87V2.643H73.391V-6h1.332l.231.779h.075a1.9,1.9,0,0,1,1.7-.892A1.949,1.949,0,0,1,78.4-5.3,3.8,3.8,0,0,1,79-3.013a4.507,4.507,0,0,1-.282,1.67,2.343,2.343,0,0,1-.8,1.08A2.058,2.058,0,0,1,76.688.107Zm-.483-4.915a1.034,1.034,0,0,0-.886.373,2.143,2.143,0,0,0-.29,1.233v.177a2.53,2.53,0,0,0,.287,1.386,1.026,1.026,0,0,0,.91.419q1.1,0,1.1-1.815a2.592,2.592,0,0,0-.271-1.329A.926.926,0,0,0,76.205-4.807Zm5.452,1.794a2.52,2.52,0,0,0,.293,1.348,1.047,1.047,0,0,0,.953.457,1.03,1.03,0,0,0,.943-.454,2.557,2.557,0,0,0,.287-1.351,2.48,2.48,0,0,0-.29-1.337,1.049,1.049,0,0,0-.951-.446,1.045,1.045,0,0,0-.945.443A2.478,2.478,0,0,0,81.657-3.013Zm4.152,0A3.227,3.227,0,0,1,85.035-.72a2.8,2.8,0,0,1-2.154.827,3.013,3.013,0,0,1-1.525-.379,2.52,2.52,0,0,1-1.015-1.088,3.655,3.655,0,0,1-.354-1.654A3.209,3.209,0,0,1,80.754-5.3a2.821,2.821,0,0,1,2.159-.816,3.03,3.03,0,0,1,1.525.376,2.509,2.509,0,0,1,1.015,1.08A3.621,3.621,0,0,1,85.809-3.013ZM92.705,0H91.067V-3.507a1.685,1.685,0,0,0-.231-.975.84.84,0,0,0-.736-.325,1.106,1.106,0,0,0-.994.459A2.848,2.848,0,0,0,88.8-2.825V0H87.162V-6h1.251l.22.768h.091a1.731,1.731,0,0,1,.755-.658,2.57,2.57,0,0,1,1.093-.223,2.1,2.1,0,0,1,1.59.567,2.274,2.274,0,0,1,.542,1.635Zm5.876-1.783a1.653,1.653,0,0,1-.642,1.407,3.171,3.171,0,0,1-1.92.483A6.031,6.031,0,0,1,94.9.019a4.226,4.226,0,0,1-.865-.26V-1.6a5.711,5.711,0,0,0,1.029.36,4.165,4.165,0,0,0,1.007.145q.892,0,.892-.516a.43.43,0,0,0-.118-.314,1.713,1.713,0,0,0-.408-.274q-.29-.153-.773-.357a4.859,4.859,0,0,1-1.018-.537,1.512,1.512,0,0,1-.473-.567,1.87,1.87,0,0,1-.148-.787,1.426,1.426,0,0,1,.62-1.238,3.022,3.022,0,0,1,1.759-.438,4.993,4.993,0,0,1,2.111.473l-.494,1.182q-.451-.193-.843-.317a2.648,2.648,0,0,0-.8-.124q-.725,0-.725.392a.461.461,0,0,0,.234.381,6.354,6.354,0,0,0,1.023.478,4.753,4.753,0,0,1,1.031.532,1.573,1.573,0,0,1,.483.569A1.749,1.749,0,0,1,98.581-1.783Zm3.765-3.169a1.039,1.039,0,0,0-.816.33,1.529,1.529,0,0,0-.338.937h2.3a1.366,1.366,0,0,0-.317-.937A1.073,1.073,0,0,0,102.346-4.952Zm.231,5.06a3.1,3.1,0,0,1-2.267-.8,3.03,3.03,0,0,1-.816-2.267,3.333,3.333,0,0,1,.755-2.334,2.687,2.687,0,0,1,2.087-.824,2.645,2.645,0,0,1,1.982.725,2.743,2.743,0,0,1,.709,2v.795h-3.873a1.577,1.577,0,0,0,.414,1.09,1.455,1.455,0,0,0,1.085.392,4.5,4.5,0,0,0,1.026-.113,5.133,5.133,0,0,0,1.01-.36V-.317a3.847,3.847,0,0,1-.918.32A5.791,5.791,0,0,1,102.577.107Z" transform="translate(0 12)" fill="#434b5d"/></g><g transform="translate(92.129 57.6)"><rect width="62.307" height="20" rx="2" fill="#cff0de"/><path d="M2,.75A1.251,1.251,0,0,0,.75,2V18A1.251,1.251,0,0,0,2,19.25H60.307A1.251,1.251,0,0,0,61.557,18V2A1.251,1.251,0,0,0,60.307.75H2M2,0H60.307a2,2,0,0,1,2,2V18a2,2,0,0,1-2,2H2a2,2,0,0,1-2-2V2A2,2,0,0,1,2,0Z" fill="#1ab395"/></g><g transform="translate(55.053 80.918)"><rect width="41.383" height="20" rx="2" fill="#cff0de"/><path d="M2,.75A1.251,1.251,0,0,0,.75,2V18A1.251,1.251,0,0,0,2,19.25H39.383A1.251,1.251,0,0,0,40.633,18V2A1.251,1.251,0,0,0,39.383.75H2M2,0H39.383a2,2,0,0,1,2,2V18a2,2,0,0,1-2,2H2a2,2,0,0,1-2-2V2A2,2,0,0,1,2,0Z" fill="#1ab395"/></g><g transform="translate(38.053 105.918)"><rect width="29.08" height="20" rx="2" fill="#cff0de"/><path d="M2,.75A1.251,1.251,0,0,0,.75,2V18A1.251,1.251,0,0,0,2,19.25H27.08A1.251,1.251,0,0,0,28.33,18V2A1.251,1.251,0,0,0,27.08.75H2M2,0H27.08a2,2,0,0,1,2,2V18a2,2,0,0,1-2,2H2a2,2,0,0,1-2-2V2A2,2,0,0,1,2,0Z" fill="#1ab395"/></g><g transform="translate(102.053 105.918)"><rect width="42.668" height="20" rx="2" fill="#cff0de"/><path d="M2,.75A1.251,1.251,0,0,0,.75,2V18A1.251,1.251,0,0,0,2,19.25H40.668A1.251,1.251,0,0,0,41.918,18V2A1.251,1.251,0,0,0,40.668.75H2M2,0H40.668a2,2,0,0,1,2,2V18a2,2,0,0,1-2,2H2a2,2,0,0,1-2-2V2A2,2,0,0,1,2,0Z" fill="#1ab395"/></g><path d="M3.067,0H2.017V-5.524H.127v-.9h4.83v.9H3.067Zm6.86,0H8.89V-2.988a1.308,1.308,0,0,0-.226-.839A.875.875,0,0,0,7.945-4.1a1.14,1.14,0,0,0-.956.389,2.143,2.143,0,0,0-.305,1.3V0H5.652V-6.838H6.684V-5.1a8.1,8.1,0,0,1-.053.892H6.7a1.434,1.434,0,0,1,.587-.545,1.891,1.891,0,0,1,.877-.193,1.567,1.567,0,0,1,1.767,1.78Zm3.38.088a2.351,2.351,0,0,1-1.773-.661A2.511,2.511,0,0,1,10.894-2.4a2.755,2.755,0,0,1,.593-1.872,2.049,2.049,0,0,1,1.63-.681,2,2,0,0,1,1.521.584A2.233,2.233,0,0,1,15.2-2.755V-2.2H11.958A1.6,1.6,0,0,0,12.34-1.11a1.332,1.332,0,0,0,1.015.38,3.747,3.747,0,0,0,.8-.081,4.2,4.2,0,0,0,.8-.27v.839a3.171,3.171,0,0,1-.765.255A4.689,4.689,0,0,1,13.307.088Zm-.189-4.254a1.038,1.038,0,0,0-.789.312,1.487,1.487,0,0,0-.354.91h2.206a1.345,1.345,0,0,0-.29-.912A.992.992,0,0,0,13.118-4.166Zm5.537-.782a2.486,2.486,0,0,1,.514.044l-.1.962a1.952,1.952,0,0,0-.457-.053,1.323,1.323,0,0,0-1,.4,1.461,1.461,0,0,0-.385,1.05V0H16.19V-4.86H17L17.135-4h.053a1.926,1.926,0,0,1,.631-.69A1.5,1.5,0,0,1,18.655-4.948ZM22.013.088A2.351,2.351,0,0,1,20.24-.573,2.511,2.511,0,0,1,19.6-2.4a2.755,2.755,0,0,1,.593-1.872,2.049,2.049,0,0,1,1.63-.681,2,2,0,0,1,1.521.584A2.233,2.233,0,0,1,23.9-2.755V-2.2H20.664a1.6,1.6,0,0,0,.382,1.088,1.332,1.332,0,0,0,1.015.38,3.747,3.747,0,0,0,.8-.081,4.2,4.2,0,0,0,.8-.27v.839A3.171,3.171,0,0,1,22.9.013,4.689,4.689,0,0,1,22.013.088Zm-.189-4.254a1.038,1.038,0,0,0-.789.312,1.487,1.487,0,0,0-.354.91h2.206a1.345,1.345,0,0,0-.29-.912A.992.992,0,0,0,21.824-4.166ZM30.095,0l-.207-.677h-.035a1.991,1.991,0,0,1-.708.6,2.238,2.238,0,0,1-.914.16A1.547,1.547,0,0,1,27.113-.3a1.447,1.447,0,0,1-.4-1.094,1.285,1.285,0,0,1,.558-1.134,3.218,3.218,0,0,1,1.7-.417l.839-.026V-3.23a.983.983,0,0,0-.218-.7.887.887,0,0,0-.675-.231,2.332,2.332,0,0,0-.716.11,5.406,5.406,0,0,0-.659.259l-.334-.738a3.594,3.594,0,0,1,.866-.314,3.984,3.984,0,0,1,.888-.108,2.1,2.1,0,0,1,1.4.4,1.583,1.583,0,0,1,.472,1.27V0ZM28.557-.7a1.279,1.279,0,0,0,.9-.314A1.139,1.139,0,0,0,29.8-1.9V-2.32l-.624.026a2.135,2.135,0,0,0-1.061.244.741.741,0,0,0-.332.666.65.65,0,0,0,.193.5A.831.831,0,0,0,28.557-.7Zm6-4.245a2.486,2.486,0,0,1,.514.044l-.1.962a1.952,1.952,0,0,0-.457-.053,1.323,1.323,0,0,0-1,.4,1.461,1.461,0,0,0-.385,1.05V0H32.094V-4.86H32.9L33.039-4h.053a1.926,1.926,0,0,1,.631-.69A1.5,1.5,0,0,1,34.56-4.948ZM37.917.088a2.351,2.351,0,0,1-1.773-.661A2.511,2.511,0,0,1,35.5-2.4,2.755,2.755,0,0,1,36.1-4.267a2.049,2.049,0,0,1,1.63-.681,2,2,0,0,1,1.521.584,2.233,2.233,0,0,1,.558,1.608V-2.2H36.568a1.6,1.6,0,0,0,.382,1.088,1.332,1.332,0,0,0,1.015.38,3.747,3.747,0,0,0,.8-.081,4.2,4.2,0,0,0,.8-.27v.839A3.171,3.171,0,0,1,38.8.013,4.689,4.689,0,0,1,37.917.088Zm-.189-4.254a1.038,1.038,0,0,0-.789.312,1.487,1.487,0,0,0-.354.91h2.206a1.345,1.345,0,0,0-.29-.912A.992.992,0,0,0,37.728-4.166ZM43.991,0H42.958V-6.838h1.033ZM49.6-2.439A2.653,2.653,0,0,1,48.988-.58a2.189,2.189,0,0,1-1.7.668,2.33,2.33,0,0,1-1.2-.308,2.031,2.031,0,0,1-.8-.883A3.008,3.008,0,0,1,45-2.439,2.635,2.635,0,0,1,45.6-4.285a2.2,2.2,0,0,1,1.709-.664,2.141,2.141,0,0,1,1.67.679A2.623,2.623,0,0,1,49.6-2.439Zm-3.538,0q0,1.683,1.244,1.683t1.23-1.683Q48.535-4.1,47.3-4.1a1.057,1.057,0,0,0-.943.431A2.192,2.192,0,0,0,46.061-2.439ZM53.646,0,53.44-.677H53.4a1.991,1.991,0,0,1-.708.6,2.238,2.238,0,0,1-.914.16A1.547,1.547,0,0,1,50.664-.3a1.447,1.447,0,0,1-.4-1.094,1.285,1.285,0,0,1,.558-1.134,3.218,3.218,0,0,1,1.7-.417l.839-.026V-3.23a.983.983,0,0,0-.218-.7.887.887,0,0,0-.675-.231,2.332,2.332,0,0,0-.716.11,5.406,5.406,0,0,0-.659.259l-.334-.738a3.594,3.594,0,0,1,.866-.314,3.984,3.984,0,0,1,.888-.108,2.1,2.1,0,0,1,1.4.4,1.583,1.583,0,0,1,.472,1.27V0ZM52.108-.7a1.279,1.279,0,0,0,.9-.314,1.139,1.139,0,0,0,.341-.881V-2.32l-.624.026a2.135,2.135,0,0,0-1.061.244.741.741,0,0,0-.332.666.65.65,0,0,0,.193.5A.831.831,0,0,0,52.108-.7Zm5.177.791a1.693,1.693,0,0,1-1.419-.659,2.963,2.963,0,0,1-.51-1.85,2.972,2.972,0,0,1,.516-1.861,1.709,1.709,0,0,1,1.43-.666,1.676,1.676,0,0,1,1.459.708h.053a6.191,6.191,0,0,1-.075-.826V-6.838h1.037V0h-.809l-.18-.637H58.74A1.651,1.651,0,0,1,57.285.088Zm.277-.835a1.124,1.124,0,0,0,.927-.358,1.886,1.886,0,0,0,.3-1.162v-.145a2.178,2.178,0,0,0-.3-1.305,1.109,1.109,0,0,0-.936-.387.95.95,0,0,0-.839.442A2.263,2.263,0,0,0,56.419-2.4,2.207,2.207,0,0,0,56.7-1.171.964.964,0,0,0,57.562-.747Zm6.777-.637A1.272,1.272,0,0,1,63.82-.292a2.483,2.483,0,0,1-1.485.38,3.509,3.509,0,0,1-1.56-.294V-1.1a3.83,3.83,0,0,0,1.6.4q.954,0,.954-.576a.456.456,0,0,0-.105-.308,1.248,1.248,0,0,0-.347-.255,5.974,5.974,0,0,0-.672-.3,3.11,3.11,0,0,1-1.136-.65,1.2,1.2,0,0,1-.3-.844,1.108,1.108,0,0,1,.5-.969,2.388,2.388,0,0,1,1.369-.345,3.877,3.877,0,0,1,1.622.347l-.334.778A3.607,3.607,0,0,0,62.6-4.148q-.817,0-.817.466A.469.469,0,0,0,62-3.3a4.687,4.687,0,0,0,.929.435,4.249,4.249,0,0,1,.875.426,1.274,1.274,0,0,1,.4.446A1.291,1.291,0,0,1,64.338-1.384Zm7.405-1.055A2.653,2.653,0,0,1,71.133-.58a2.189,2.189,0,0,1-1.7.668,2.33,2.33,0,0,1-1.2-.308,2.031,2.031,0,0,1-.8-.883,3.008,3.008,0,0,1-.281-1.336,2.635,2.635,0,0,1,.606-1.846,2.2,2.2,0,0,1,1.709-.664,2.141,2.141,0,0,1,1.67.679A2.623,2.623,0,0,1,71.744-2.439Zm-3.538,0q0,1.683,1.244,1.683t1.23-1.683q0-1.666-1.239-1.666a1.057,1.057,0,0,0-.943.431A2.192,2.192,0,0,0,68.206-2.439Zm6.983-1.639H74V0H72.965V-4.078h-.8v-.483l.8-.316v-.316a1.768,1.768,0,0,1,.4-1.277A1.653,1.653,0,0,1,74.6-6.886a3.3,3.3,0,0,1,1.072.18l-.272.782a2.381,2.381,0,0,0-.729-.123.594.594,0,0,0-.512.218,1.1,1.1,0,0,0-.16.653v.316h1.187Zm5.269-.87a2.486,2.486,0,0,1,.514.044l-.1.962a1.952,1.952,0,0,0-.457-.053,1.323,1.323,0,0,0-1,.4,1.461,1.461,0,0,0-.385,1.05V0H77.993V-4.86H78.8L78.938-4h.053a1.926,1.926,0,0,1,.631-.69A1.5,1.5,0,0,1,80.458-4.948ZM83.816.088a2.351,2.351,0,0,1-1.773-.661A2.511,2.511,0,0,1,81.4-2.4,2.755,2.755,0,0,1,82-4.267a2.049,2.049,0,0,1,1.63-.681,2,2,0,0,1,1.521.584,2.233,2.233,0,0,1,.558,1.608V-2.2H82.467a1.6,1.6,0,0,0,.382,1.088,1.332,1.332,0,0,0,1.015.38,3.747,3.747,0,0,0,.8-.081,4.2,4.2,0,0,0,.8-.27v.839A3.171,3.171,0,0,1,84.7.013,4.689,4.689,0,0,1,83.816.088Zm-.189-4.254a1.038,1.038,0,0,0-.789.312,1.487,1.487,0,0,0-.354.91h2.206a1.345,1.345,0,0,0-.29-.912A.992.992,0,0,0,83.627-4.166ZM89.74,0l-.207-.677H89.5a1.991,1.991,0,0,1-.708.6,2.238,2.238,0,0,1-.914.16A1.547,1.547,0,0,1,86.758-.3a1.447,1.447,0,0,1-.4-1.094,1.285,1.285,0,0,1,.558-1.134,3.218,3.218,0,0,1,1.7-.417l.839-.026V-3.23a.983.983,0,0,0-.218-.7.887.887,0,0,0-.675-.231,2.332,2.332,0,0,0-.716.11,5.406,5.406,0,0,0-.659.259l-.334-.738a3.594,3.594,0,0,1,.866-.314,3.984,3.984,0,0,1,.888-.108,2.1,2.1,0,0,1,1.4.4,1.583,1.583,0,0,1,.472,1.27V0ZM88.2-.7a1.279,1.279,0,0,0,.9-.314,1.139,1.139,0,0,0,.341-.881V-2.32l-.624.026a2.135,2.135,0,0,0-1.061.244.741.741,0,0,0-.332.666.65.65,0,0,0,.193.5A.831.831,0,0,0,88.2-.7ZM95-1.384a1.272,1.272,0,0,1-.519,1.092A2.483,2.483,0,0,1,93,.088a3.509,3.509,0,0,1-1.56-.294V-1.1a3.83,3.83,0,0,0,1.6.4q.954,0,.954-.576a.456.456,0,0,0-.105-.308,1.248,1.248,0,0,0-.347-.255,5.974,5.974,0,0,0-.672-.3,3.11,3.11,0,0,1-1.136-.65,1.2,1.2,0,0,1-.3-.844,1.108,1.108,0,0,1,.5-.969A2.388,2.388,0,0,1,93.3-4.948a3.877,3.877,0,0,1,1.622.347l-.334.778a3.607,3.607,0,0,0-1.323-.325q-.817,0-.817.466a.469.469,0,0,0,.213.387,4.687,4.687,0,0,0,.929.435,4.249,4.249,0,0,1,.875.426,1.274,1.274,0,0,1,.4.446A1.291,1.291,0,0,1,95-1.384Zm5.247-1.055A2.653,2.653,0,0,1,99.641-.58a2.189,2.189,0,0,1-1.7.668,2.33,2.33,0,0,1-1.2-.308,2.031,2.031,0,0,1-.8-.883,3.008,3.008,0,0,1-.281-1.336,2.635,2.635,0,0,1,.606-1.846,2.2,2.2,0,0,1,1.709-.664,2.141,2.141,0,0,1,1.67.679A2.623,2.623,0,0,1,100.252-2.439Zm-3.538,0q0,1.683,1.244,1.683t1.23-1.683q0-1.666-1.239-1.666a1.057,1.057,0,0,0-.943.431A2.192,2.192,0,0,0,96.714-2.439ZM105.534,0H104.5V-2.988a1.308,1.308,0,0,0-.226-.839.875.875,0,0,0-.719-.277,1.142,1.142,0,0,0-.958.387,2.135,2.135,0,0,0-.3,1.3V0h-1.033V-4.86h.809l.145.637h.053a1.438,1.438,0,0,1,.624-.536,2.091,2.091,0,0,1,.9-.189,1.56,1.56,0,0,1,1.749,1.78Zm4.522-1.384a1.272,1.272,0,0,1-.519,1.092,2.483,2.483,0,0,1-1.485.38,3.509,3.509,0,0,1-1.56-.294V-1.1a3.83,3.83,0,0,0,1.6.4q.954,0,.954-.576a.456.456,0,0,0-.105-.308,1.248,1.248,0,0,0-.347-.255,5.974,5.974,0,0,0-.672-.3,3.11,3.11,0,0,1-1.136-.65,1.2,1.2,0,0,1-.3-.844,1.108,1.108,0,0,1,.5-.969,2.388,2.388,0,0,1,1.369-.345,3.877,3.877,0,0,1,1.622.347l-.334.778a3.607,3.607,0,0,0-1.323-.325q-.817,0-.817.466a.469.469,0,0,0,.213.387,4.687,4.687,0,0,0,.929.435,4.249,4.249,0,0,1,.875.426,1.274,1.274,0,0,1,.4.446A1.291,1.291,0,0,1,110.057-1.384Zm4.9.637a2.511,2.511,0,0,0,.756-.119v.778a2.085,2.085,0,0,1-.442.125,3.043,3.043,0,0,1-.56.051q-1.468,0-1.468-1.547V-4.078h-.664v-.457l.712-.378.352-1.028h.637V-4.86h1.384v.782h-1.384v2.6a.73.73,0,0,0,.187.552A.681.681,0,0,0,114.961-.747Zm5.858-1.692a2.653,2.653,0,0,1-.611,1.859,2.189,2.189,0,0,1-1.7.668,2.33,2.33,0,0,1-1.2-.308,2.031,2.031,0,0,1-.8-.883,3.008,3.008,0,0,1-.281-1.336,2.635,2.635,0,0,1,.606-1.846,2.2,2.2,0,0,1,1.709-.664,2.141,2.141,0,0,1,1.67.679A2.623,2.623,0,0,1,120.819-2.439Zm-3.538,0q0,1.683,1.244,1.683t1.23-1.683q0-1.666-1.239-1.666a1.057,1.057,0,0,0-.943.431A2.192,2.192,0,0,0,117.282-2.439ZM126.106.088a2.351,2.351,0,0,1-1.773-.661,2.511,2.511,0,0,1-.639-1.822,2.755,2.755,0,0,1,.593-1.872,2.049,2.049,0,0,1,1.63-.681,2,2,0,0,1,1.521.584A2.233,2.233,0,0,1,128-2.755V-2.2h-3.239a1.6,1.6,0,0,0,.382,1.088,1.332,1.332,0,0,0,1.015.38,3.747,3.747,0,0,0,.8-.081,4.2,4.2,0,0,0,.8-.27v.839a3.171,3.171,0,0,1-.765.255A4.689,4.689,0,0,1,126.106.088Zm-.189-4.254a1.038,1.038,0,0,0-.789.312,1.487,1.487,0,0,0-.354.91h2.206a1.345,1.345,0,0,0-.29-.912A.992.992,0,0,0,125.917-4.166ZM132.03,0l-.207-.677h-.035a1.991,1.991,0,0,1-.708.6,2.238,2.238,0,0,1-.914.16A1.547,1.547,0,0,1,129.049-.3a1.447,1.447,0,0,1-.4-1.094,1.285,1.285,0,0,1,.558-1.134,3.218,3.218,0,0,1,1.7-.417l.839-.026V-3.23a.983.983,0,0,0-.218-.7.887.887,0,0,0-.675-.231,2.332,2.332,0,0,0-.716.11,5.406,5.406,0,0,0-.659.259l-.334-.738a3.594,3.594,0,0,1,.866-.314,3.984,3.984,0,0,1,.888-.108,2.1,2.1,0,0,1,1.4.4,1.583,1.583,0,0,1,.472,1.27V0Zm-1.538-.7a1.279,1.279,0,0,0,.9-.314,1.139,1.139,0,0,0,.341-.881V-2.32l-.624.026a2.135,2.135,0,0,0-1.061.244.741.741,0,0,0-.332.666.65.65,0,0,0,.193.5A.831.831,0,0,0,130.492-.7Zm5.348-.044a2.511,2.511,0,0,0,.756-.119v.778a2.085,2.085,0,0,1-.442.125,3.043,3.043,0,0,1-.56.051q-1.468,0-1.468-1.547V-4.078h-.664v-.457l.712-.378.352-1.028h.637V-4.86h1.384v.782h-1.384v2.6a.73.73,0,0,0,.187.552A.681.681,0,0,0,135.841-.747Zm8.016-1.692a2.653,2.653,0,0,1-.611,1.859,2.189,2.189,0,0,1-1.7.668,2.33,2.33,0,0,1-1.2-.308,2.031,2.031,0,0,1-.8-.883,3.008,3.008,0,0,1-.281-1.336,2.635,2.635,0,0,1,.606-1.846,2.2,2.2,0,0,1,1.709-.664,2.141,2.141,0,0,1,1.67.679A2.623,2.623,0,0,1,143.857-2.439Zm-3.538,0q0,1.683,1.244,1.683t1.23-1.683q0-1.666-1.239-1.666a1.057,1.057,0,0,0-.943.431A2.192,2.192,0,0,0,140.319-2.439Zm7.009-2.509a2.486,2.486,0,0,1,.514.044l-.1.962a1.952,1.952,0,0,0-.457-.053,1.323,1.323,0,0,0-1,.4,1.461,1.461,0,0,0-.385,1.05V0h-1.033V-4.86h.809l.136.857h.053a1.926,1.926,0,0,1,.631-.69A1.5,1.5,0,0,1,147.328-4.948Zm5.34.088v.567l-.831.154a1.341,1.341,0,0,1,.189.378,1.491,1.491,0,0,1,.075.475,1.454,1.454,0,0,1-.519,1.182,2.17,2.17,0,0,1-1.428.431,2.316,2.316,0,0,1-.422-.035.582.582,0,0,0-.334.483.269.269,0,0,0,.156.25,1.349,1.349,0,0,0,.573.083h.848a1.886,1.886,0,0,1,1.222.343,1.206,1.206,0,0,1,.417.989,1.438,1.438,0,0,1-.681,1.274,3.586,3.586,0,0,1-1.969.448,2.717,2.717,0,0,1-1.516-.352,1.136,1.136,0,0,1-.523-1,1.066,1.066,0,0,1,.283-.754A1.519,1.519,0,0,1,149-.369a.776.776,0,0,1-.341-.283.716.716,0,0,1-.134-.411.707.707,0,0,1,.154-.461,1.775,1.775,0,0,1,.457-.374,1.354,1.354,0,0,1-.613-.53,1.558,1.558,0,0,1-.235-.859,1.54,1.54,0,0,1,.5-1.226,2.1,2.1,0,0,1,1.422-.435,3.46,3.46,0,0,1,.433.029,2.725,2.725,0,0,1,.341.059ZM148.849.756a.568.568,0,0,0,.3.514,1.654,1.654,0,0,0,.846.18,2.556,2.556,0,0,0,1.257-.242.725.725,0,0,0,.413-.642.481.481,0,0,0-.226-.45,1.817,1.817,0,0,0-.842-.134h-.782a1.1,1.1,0,0,0-.705.209A.684.684,0,0,0,148.849.756Zm.444-4.043a.978.978,0,0,0,.235.7.889.889,0,0,0,.675.246q.9,0,.9-.958a1.087,1.087,0,0,0-.222-.732.843.843,0,0,0-.675-.257.869.869,0,0,0-.679.255A1.071,1.071,0,0,0,149.293-3.287ZM156.43,0l-.207-.677h-.035a1.991,1.991,0,0,1-.708.6,2.238,2.238,0,0,1-.914.16A1.547,1.547,0,0,1,153.448-.3a1.447,1.447,0,0,1-.4-1.094,1.285,1.285,0,0,1,.558-1.134,3.218,3.218,0,0,1,1.7-.417l.839-.026V-3.23a.983.983,0,0,0-.218-.7.887.887,0,0,0-.675-.231,2.332,2.332,0,0,0-.716.11,5.406,5.406,0,0,0-.659.259l-.334-.738a3.594,3.594,0,0,1,.866-.314,3.984,3.984,0,0,1,.888-.108,2.1,2.1,0,0,1,1.4.4,1.583,1.583,0,0,1,.472,1.27V0Zm-1.538-.7a1.279,1.279,0,0,0,.9-.314,1.139,1.139,0,0,0,.341-.881V-2.32l-.624.026a2.135,2.135,0,0,0-1.061.244.741.741,0,0,0-.332.666.65.65,0,0,0,.193.5A.831.831,0,0,0,154.892-.7Zm7.814.7h-1.037V-2.988a1.308,1.308,0,0,0-.226-.839.875.875,0,0,0-.719-.277,1.142,1.142,0,0,0-.958.387,2.135,2.135,0,0,0-.3,1.3V0H158.43V-4.86h.809l.145.637h.053a1.438,1.438,0,0,1,.624-.536,2.091,2.091,0,0,1,.9-.189,1.56,1.56,0,0,1,1.749,1.78ZM165,0h-1.033V-4.86H165ZM163.9-6.148a.572.572,0,0,1,.152-.426.591.591,0,0,1,.433-.149.578.578,0,0,1,.424.149.572.572,0,0,1,.152.426.561.561,0,0,1-.152.415.573.573,0,0,1-.424.152.586.586,0,0,1-.433-.152A.561.561,0,0,1,163.9-6.148ZM168.252.088a2.128,2.128,0,0,1-1.677-.644A2.69,2.69,0,0,1,166-2.4a2.7,2.7,0,0,1,.6-1.885,2.225,2.225,0,0,1,1.734-.659,3.249,3.249,0,0,1,1.384.286l-.312.831a3.128,3.128,0,0,0-1.081-.255q-1.261,0-1.261,1.674a2.005,2.005,0,0,0,.314,1.228,1.088,1.088,0,0,0,.921.411,2.641,2.641,0,0,0,1.305-.343v.9a2.04,2.04,0,0,1-.591.233A3.547,3.547,0,0,1,168.252.088Zm6.913-4.166h-1.187V0h-1.037V-4.078h-.8v-.483l.8-.316v-.316a1.768,1.768,0,0,1,.4-1.277,1.653,1.653,0,0,1,1.235-.415,3.3,3.3,0,0,1,1.072.18l-.272.782a2.381,2.381,0,0,0-.729-.123.594.594,0,0,0-.512.218,1.1,1.1,0,0,0-.16.653v.316h1.187Zm4.957,1.639a2.653,2.653,0,0,1-.611,1.859,2.189,2.189,0,0,1-1.7.668,2.33,2.33,0,0,1-1.2-.308,2.031,2.031,0,0,1-.8-.883,3.008,3.008,0,0,1-.281-1.336,2.635,2.635,0,0,1,.606-1.846,2.2,2.2,0,0,1,1.709-.664,2.141,2.141,0,0,1,1.67.679A2.623,2.623,0,0,1,180.122-2.439Zm-3.538,0q0,1.683,1.244,1.683t1.23-1.683q0-1.666-1.239-1.666a1.057,1.057,0,0,0-.943.431A2.192,2.192,0,0,0,176.584-2.439Zm8.855,0a2.653,2.653,0,0,1-.611,1.859,2.189,2.189,0,0,1-1.7.668,2.33,2.33,0,0,1-1.2-.308,2.031,2.031,0,0,1-.8-.883,3.008,3.008,0,0,1-.281-1.336,2.635,2.635,0,0,1,.606-1.846,2.2,2.2,0,0,1,1.709-.664,2.141,2.141,0,0,1,1.67.679A2.623,2.623,0,0,1,185.439-2.439Zm-3.538,0q0,1.683,1.244,1.683t1.23-1.683q0-1.666-1.239-1.666a1.057,1.057,0,0,0-.943.431A2.192,2.192,0,0,0,181.9-2.439ZM188.085.088a1.693,1.693,0,0,1-1.419-.659,2.963,2.963,0,0,1-.51-1.85,2.972,2.972,0,0,1,.516-1.861,1.709,1.709,0,0,1,1.43-.666,1.676,1.676,0,0,1,1.459.708h.053a6.191,6.191,0,0,1-.075-.826V-6.838h1.037V0h-.809l-.18-.637h-.048A1.651,1.651,0,0,1,188.085.088Zm.277-.835a1.124,1.124,0,0,0,.927-.358,1.886,1.886,0,0,0,.3-1.162v-.145a2.178,2.178,0,0,0-.3-1.305,1.109,1.109,0,0,0-.936-.387.95.95,0,0,0-.839.442,2.263,2.263,0,0,0-.294,1.259,2.207,2.207,0,0,0,.286,1.233A.964.964,0,0,0,188.362-.747Zm3.358.2a.677.677,0,0,1,.167-.492.645.645,0,0,1,.483-.171.637.637,0,0,1,.488.178.681.681,0,0,1,.167.486.7.7,0,0,1-.169.494.63.63,0,0,1-.486.182.627.627,0,0,1-.483-.18A.7.7,0,0,1,191.72-.549ZM3.067,24H2.017V18.476H.127v-.9h4.83v.9H3.067Zm6.86,0H8.89V21.012a1.308,1.308,0,0,0-.226-.839.875.875,0,0,0-.719-.277,1.14,1.14,0,0,0-.956.389,2.143,2.143,0,0,0-.305,1.3V24H5.652V17.162H6.684V18.9a8.1,8.1,0,0,1-.053.892H6.7a1.434,1.434,0,0,1,.587-.545,1.891,1.891,0,0,1,.877-.193,1.567,1.567,0,0,1,1.767,1.78Zm3.38.088a2.351,2.351,0,0,1-1.773-.661,2.511,2.511,0,0,1-.639-1.822,2.755,2.755,0,0,1,.593-1.872,2.049,2.049,0,0,1,1.63-.681,2,2,0,0,1,1.521.584,2.233,2.233,0,0,1,.558,1.608V21.8H11.958a1.6,1.6,0,0,0,.382,1.088,1.332,1.332,0,0,0,1.015.38,3.747,3.747,0,0,0,.8-.081,4.2,4.2,0,0,0,.8-.27v.839a3.171,3.171,0,0,1-.765.255A4.689,4.689,0,0,1,13.307,24.088Zm-.189-4.254a1.038,1.038,0,0,0-.789.312,1.487,1.487,0,0,0-.354.91h2.206a1.345,1.345,0,0,0-.29-.912A.992.992,0,0,0,13.118,19.834Zm7.04,3.419a2.511,2.511,0,0,0,.756-.119v.778a2.085,2.085,0,0,1-.442.125,3.043,3.043,0,0,1-.56.051q-1.468,0-1.468-1.547V19.922h-.664v-.457l.712-.378.352-1.028h.637V19.14h1.384v.782H19.482v2.6a.73.73,0,0,0,.187.552A.681.681,0,0,0,20.158,23.253Zm3.67.835a2.351,2.351,0,0,1-1.773-.661,2.511,2.511,0,0,1-.639-1.822,2.755,2.755,0,0,1,.593-1.872,2.049,2.049,0,0,1,1.63-.681,2,2,0,0,1,1.521.584,2.233,2.233,0,0,1,.558,1.608V21.8H22.479a1.6,1.6,0,0,0,.382,1.088,1.332,1.332,0,0,0,1.015.38,3.747,3.747,0,0,0,.8-.081,4.2,4.2,0,0,0,.8-.27v.839a3.171,3.171,0,0,1-.765.255A4.689,4.689,0,0,1,23.828,24.088Zm-.189-4.254a1.038,1.038,0,0,0-.789.312,1.487,1.487,0,0,0-.354.91H24.7a1.345,1.345,0,0,0-.29-.912A.992.992,0,0,0,23.639,19.834Zm5.537-.782a2.486,2.486,0,0,1,.514.044l-.1.962a1.952,1.952,0,0,0-.457-.053,1.323,1.323,0,0,0-1,.4,1.461,1.461,0,0,0-.385,1.05V24H26.711V19.14h.809l.136.857h.053a1.926,1.926,0,0,1,.631-.69A1.5,1.5,0,0,1,29.176,19.052ZM34.507,24H33.47V21a1.359,1.359,0,0,0-.211-.833A.778.778,0,0,0,32.6,19.9a1,1,0,0,0-.877.389,2.282,2.282,0,0,0-.279,1.294V24H30.411V19.14h.809l.145.637h.053A1.347,1.347,0,0,1,32,19.241a1.892,1.892,0,0,1,.846-.189,1.478,1.478,0,0,1,1.485.765h.07a1.482,1.482,0,0,1,.606-.562,1.925,1.925,0,0,1,.9-.2,1.632,1.632,0,0,1,1.268.439,1.946,1.946,0,0,1,.4,1.34V24H36.542V21a1.348,1.348,0,0,0-.213-.833.785.785,0,0,0-.661-.275,1.025,1.025,0,0,0-.881.376,1.937,1.937,0,0,0-.279,1.154Zm7.352-6.425-.18,2.32H41.02l-.18-2.32Zm1.736,0-.18,2.32h-.659l-.18-2.32Zm5.454,3.986a2.653,2.653,0,0,1-.611,1.859,2.189,2.189,0,0,1-1.7.668,2.33,2.33,0,0,1-1.2-.308,2.031,2.031,0,0,1-.8-.883,3.008,3.008,0,0,1-.281-1.336,2.635,2.635,0,0,1,.606-1.846,2.2,2.2,0,0,1,1.709-.664,2.141,2.141,0,0,1,1.67.679A2.623,2.623,0,0,1,49.049,21.561Zm-3.538,0q0,1.683,1.244,1.683t1.23-1.683q0-1.666-1.239-1.666a1.057,1.057,0,0,0-.943.431A2.192,2.192,0,0,0,45.512,21.561Zm7.009-2.509a2.486,2.486,0,0,1,.514.044l-.1.962a1.952,1.952,0,0,0-.457-.053,1.323,1.323,0,0,0-1,.4,1.461,1.461,0,0,0-.385,1.05V24H50.056V19.14h.809L51,20h.053a1.926,1.926,0,0,1,.631-.69A1.5,1.5,0,0,1,52.521,19.052Zm5.34.088v.567l-.831.154a1.341,1.341,0,0,1,.189.378,1.491,1.491,0,0,1,.075.475,1.454,1.454,0,0,1-.519,1.182,2.17,2.17,0,0,1-1.428.431,2.316,2.316,0,0,1-.422-.035.582.582,0,0,0-.334.483.269.269,0,0,0,.156.25,1.349,1.349,0,0,0,.573.083h.848a1.886,1.886,0,0,1,1.222.343,1.206,1.206,0,0,1,.417.989,1.438,1.438,0,0,1-.681,1.274,3.586,3.586,0,0,1-1.969.448,2.717,2.717,0,0,1-1.516-.352,1.136,1.136,0,0,1-.523-1,1.066,1.066,0,0,1,.283-.754,1.519,1.519,0,0,1,.793-.424.776.776,0,0,1-.341-.283.716.716,0,0,1-.134-.411.707.707,0,0,1,.154-.461,1.775,1.775,0,0,1,.457-.374,1.354,1.354,0,0,1-.613-.53,1.558,1.558,0,0,1-.235-.859,1.54,1.54,0,0,1,.5-1.226,2.1,2.1,0,0,1,1.422-.435,3.46,3.46,0,0,1,.433.029,2.725,2.725,0,0,1,.341.059Zm-3.819,5.616a.568.568,0,0,0,.3.514,1.654,1.654,0,0,0,.846.18,2.556,2.556,0,0,0,1.257-.242.725.725,0,0,0,.413-.642.481.481,0,0,0-.226-.45,1.817,1.817,0,0,0-.842-.134h-.782a1.1,1.1,0,0,0-.705.209A.684.684,0,0,0,54.042,24.756Zm.444-4.043a.978.978,0,0,0,.235.7.889.889,0,0,0,.675.246q.9,0,.9-.958a1.087,1.087,0,0,0-.222-.732.843.843,0,0,0-.675-.257.869.869,0,0,0-.679.255A1.071,1.071,0,0,0,54.486,20.713ZM61.622,24l-.207-.677h-.035a1.991,1.991,0,0,1-.708.6,2.238,2.238,0,0,1-.914.16,1.547,1.547,0,0,1-1.118-.387,1.447,1.447,0,0,1-.4-1.094,1.285,1.285,0,0,1,.558-1.134,3.218,3.218,0,0,1,1.7-.417l.839-.026V20.77a.983.983,0,0,0-.218-.7.887.887,0,0,0-.675-.231,2.332,2.332,0,0,0-.716.11,5.406,5.406,0,0,0-.659.259l-.334-.738a3.594,3.594,0,0,1,.866-.314,3.984,3.984,0,0,1,.888-.108,2.1,2.1,0,0,1,1.4.4,1.583,1.583,0,0,1,.472,1.27V24Zm-1.538-.7a1.279,1.279,0,0,0,.9-.314,1.139,1.139,0,0,0,.341-.881V21.68l-.624.026a2.135,2.135,0,0,0-1.061.244.741.741,0,0,0-.332.666.65.65,0,0,0,.193.5A.831.831,0,0,0,60.084,23.3ZM67.9,24H66.861V21.012a1.308,1.308,0,0,0-.226-.839.875.875,0,0,0-.719-.277,1.142,1.142,0,0,0-.958.387,2.135,2.135,0,0,0-.3,1.3V24H63.622V19.14h.809l.145.637h.053a1.438,1.438,0,0,1,.624-.536,2.091,2.091,0,0,1,.9-.189,1.56,1.56,0,0,1,1.749,1.78Zm2.29,0H69.155V19.14h1.033Zm-1.094-6.148a.572.572,0,0,1,.152-.426.591.591,0,0,1,.433-.149.578.578,0,0,1,.424.149.572.572,0,0,1,.152.426.561.561,0,0,1-.152.415.573.573,0,0,1-.424.152.586.586,0,0,1-.433-.152A.561.561,0,0,1,69.093,17.852Zm4.351,6.236a2.128,2.128,0,0,1-1.677-.644,2.69,2.69,0,0,1-.573-1.848,2.7,2.7,0,0,1,.6-1.885,2.225,2.225,0,0,1,1.734-.659,3.249,3.249,0,0,1,1.384.286l-.312.831a3.128,3.128,0,0,0-1.081-.255q-1.261,0-1.261,1.674a2.005,2.005,0,0,0,.314,1.228,1.088,1.088,0,0,0,.921.411,2.641,2.641,0,0,0,1.305-.343v.9a2.04,2.04,0,0,1-.591.233A3.547,3.547,0,0,1,73.444,24.088Zm3.182-6.513-.18,2.32h-.659l-.18-2.32Zm1.736,0-.18,2.32h-.659l-.18-2.32ZM82.7,24H81.663V19.14H82.7ZM81.6,17.852a.572.572,0,0,1,.152-.426.591.591,0,0,1,.433-.149.578.578,0,0,1,.424.149.572.572,0,0,1,.152.426.561.561,0,0,1-.152.415.573.573,0,0,1-.424.152.586.586,0,0,1-.433-.152A.561.561,0,0,1,81.6,17.852ZM88.268,24H87.231V21.012A1.308,1.308,0,0,0,87,20.172a.875.875,0,0,0-.719-.277,1.142,1.142,0,0,0-.958.387,2.135,2.135,0,0,0-.3,1.3V24H83.992V19.14H84.8l.145.637H85a1.438,1.438,0,0,1,.624-.536,2.091,2.091,0,0,1,.9-.189,1.56,1.56,0,0,1,1.749,1.78Zm2.9.088a1.693,1.693,0,0,1-1.419-.659,2.963,2.963,0,0,1-.51-1.85,2.972,2.972,0,0,1,.516-1.861,1.709,1.709,0,0,1,1.43-.666,1.676,1.676,0,0,1,1.459.708h.053a6.191,6.191,0,0,1-.075-.826V17.162h1.037V24h-.809l-.18-.637h-.048A1.651,1.651,0,0,1,91.164,24.088Zm.277-.835a1.124,1.124,0,0,0,.927-.358,1.886,1.886,0,0,0,.3-1.162v-.145a2.178,2.178,0,0,0-.3-1.305,1.109,1.109,0,0,0-.936-.387.95.95,0,0,0-.839.442A2.263,2.263,0,0,0,90.3,21.6a2.207,2.207,0,0,0,.286,1.233A.964.964,0,0,0,91.441,23.253ZM95.985,24H94.952V19.14h1.033Zm-1.094-6.148a.572.572,0,0,1,.152-.426.591.591,0,0,1,.433-.149.578.578,0,0,1,.424.149.572.572,0,0,1,.152.426.561.561,0,0,1-.152.415.573.573,0,0,1-.424.152.586.586,0,0,1-.433-.152A.561.561,0,0,1,94.891,17.852Zm4.351,6.236a2.128,2.128,0,0,1-1.677-.644,2.69,2.69,0,0,1-.573-1.848,2.7,2.7,0,0,1,.6-1.885,2.225,2.225,0,0,1,1.734-.659,3.249,3.249,0,0,1,1.384.286l-.312.831a3.128,3.128,0,0,0-1.081-.255q-1.261,0-1.261,1.674a2.005,2.005,0,0,0,.314,1.228,1.088,1.088,0,0,0,.921.411,2.641,2.641,0,0,0,1.305-.343v.9a2.04,2.04,0,0,1-.591.233A3.547,3.547,0,0,1,99.241,24.088ZM104.6,24l-.207-.677h-.035a1.991,1.991,0,0,1-.708.6,2.238,2.238,0,0,1-.914.16,1.547,1.547,0,0,1-1.118-.387,1.447,1.447,0,0,1-.4-1.094,1.285,1.285,0,0,1,.558-1.134,3.218,3.218,0,0,1,1.7-.417l.839-.026V20.77a.983.983,0,0,0-.218-.7.887.887,0,0,0-.675-.231,2.332,2.332,0,0,0-.716.11,5.406,5.406,0,0,0-.659.259l-.334-.738a3.594,3.594,0,0,1,.866-.314,3.984,3.984,0,0,1,.888-.108,2.1,2.1,0,0,1,1.4.4,1.583,1.583,0,0,1,.472,1.27V24Zm-1.538-.7a1.279,1.279,0,0,0,.9-.314,1.139,1.139,0,0,0,.341-.881V21.68l-.624.026a2.135,2.135,0,0,0-1.061.244.741.741,0,0,0-.332.666.65.65,0,0,0,.193.5A.831.831,0,0,0,103.06,23.3Zm5.348-.044a2.511,2.511,0,0,0,.756-.119v.778a2.085,2.085,0,0,1-.442.125,3.043,3.043,0,0,1-.56.051q-1.468,0-1.468-1.547V19.922h-.664v-.457l.712-.378.352-1.028h.637V19.14h1.384v.782h-1.384v2.6a.73.73,0,0,0,.187.552A.681.681,0,0,0,108.409,23.253Zm3.67.835a2.351,2.351,0,0,1-1.773-.661,2.511,2.511,0,0,1-.639-1.822,2.755,2.755,0,0,1,.593-1.872,2.049,2.049,0,0,1,1.63-.681,2,2,0,0,1,1.521.584,2.233,2.233,0,0,1,.558,1.608V21.8h-3.239a1.6,1.6,0,0,0,.382,1.088,1.332,1.332,0,0,0,1.015.38,3.747,3.747,0,0,0,.8-.081,4.2,4.2,0,0,0,.8-.27v.839a3.171,3.171,0,0,1-.765.255A4.689,4.689,0,0,1,112.078,24.088Zm-.189-4.254a1.038,1.038,0,0,0-.789.312,1.487,1.487,0,0,0-.354.91h2.206a1.345,1.345,0,0,0-.29-.912A.992.992,0,0,0,111.889,19.834Zm6.337,2.782a1.272,1.272,0,0,1-.519,1.092,2.483,2.483,0,0,1-1.485.38,3.509,3.509,0,0,1-1.56-.294V22.9a3.83,3.83,0,0,0,1.6.4q.954,0,.954-.576a.456.456,0,0,0-.105-.308,1.248,1.248,0,0,0-.347-.255,5.974,5.974,0,0,0-.672-.3,3.11,3.11,0,0,1-1.136-.65,1.2,1.2,0,0,1-.3-.844,1.108,1.108,0,0,1,.5-.969,2.388,2.388,0,0,1,1.369-.345,3.877,3.877,0,0,1,1.622.347l-.334.778a3.607,3.607,0,0,0-1.323-.325q-.817,0-.817.466a.469.469,0,0,0,.213.387,4.687,4.687,0,0,0,.929.435,4.249,4.249,0,0,1,.875.426,1.274,1.274,0,0,1,.4.446A1.291,1.291,0,0,1,118.226,22.616Zm4.9.637a2.511,2.511,0,0,0,.756-.119v.778a2.085,2.085,0,0,1-.442.125,3.043,3.043,0,0,1-.56.051q-1.468,0-1.468-1.547V19.922h-.664v-.457l.712-.378.352-1.028h.637V19.14h1.384v.782h-1.384v2.6a.73.73,0,0,0,.187.552A.681.681,0,0,0,123.131,23.253Zm5.823.747h-1.037V21.012a1.308,1.308,0,0,0-.226-.839.875.875,0,0,0-.719-.277,1.14,1.14,0,0,0-.956.389,2.143,2.143,0,0,0-.305,1.3V24h-1.033V17.162h1.033V18.9a8.1,8.1,0,0,1-.053.892h.066a1.434,1.434,0,0,1,.587-.545,1.891,1.891,0,0,1,.877-.193,1.567,1.567,0,0,1,1.767,1.78Zm4.3,0-.207-.677h-.035a1.991,1.991,0,0,1-.708.6,2.238,2.238,0,0,1-.914.16,1.547,1.547,0,0,1-1.118-.387,1.447,1.447,0,0,1-.4-1.094,1.285,1.285,0,0,1,.558-1.134,3.218,3.218,0,0,1,1.7-.417l.839-.026V20.77a.983.983,0,0,0-.218-.7.887.887,0,0,0-.675-.231,2.332,2.332,0,0,0-.716.11,5.406,5.406,0,0,0-.659.259l-.334-.738a3.594,3.594,0,0,1,.866-.314,3.984,3.984,0,0,1,.888-.108,2.1,2.1,0,0,1,1.4.4,1.583,1.583,0,0,1,.472,1.27V24Zm-1.538-.7a1.279,1.279,0,0,0,.9-.314,1.139,1.139,0,0,0,.341-.881V21.68l-.624.026a2.135,2.135,0,0,0-1.061.244.741.741,0,0,0-.332.666.65.65,0,0,0,.193.5A.831.831,0,0,0,131.714,23.3Zm5.348-.044a2.511,2.511,0,0,0,.756-.119v.778a2.085,2.085,0,0,1-.442.125,3.043,3.043,0,0,1-.56.051q-1.468,0-1.468-1.547V19.922h-.664v-.457l.712-.378.352-1.028h.637V19.14h1.384v.782h-1.384v2.6a.73.73,0,0,0,.187.552A.681.681,0,0,0,137.062,23.253Zm5.516,0a2.511,2.511,0,0,0,.756-.119v.778a2.085,2.085,0,0,1-.442.125,3.043,3.043,0,0,1-.56.051q-1.468,0-1.468-1.547V19.922H140.2v-.457l.712-.378.352-1.028h.637V19.14h1.384v.782H141.9v2.6a.73.73,0,0,0,.187.552A.681.681,0,0,0,142.578,23.253ZM148.4,24h-1.037V21.012a1.308,1.308,0,0,0-.226-.839.875.875,0,0,0-.719-.277,1.14,1.14,0,0,0-.956.389,2.143,2.143,0,0,0-.305,1.3V24h-1.033V17.162h1.033V18.9a8.1,8.1,0,0,1-.053.892h.066a1.434,1.434,0,0,1,.587-.545,1.891,1.891,0,0,1,.877-.193,1.567,1.567,0,0,1,1.767,1.78Zm3.38.088a2.351,2.351,0,0,1-1.773-.661,2.511,2.511,0,0,1-.639-1.822,2.755,2.755,0,0,1,.593-1.872,2.049,2.049,0,0,1,1.63-.681,2,2,0,0,1,1.521.584,2.233,2.233,0,0,1,.558,1.608V21.8h-3.239a1.6,1.6,0,0,0,.382,1.088,1.332,1.332,0,0,0,1.015.38,3.747,3.747,0,0,0,.8-.081,4.2,4.2,0,0,0,.8-.27v.839a3.171,3.171,0,0,1-.765.255A4.689,4.689,0,0,1,151.78,24.088Zm-.189-4.254a1.038,1.038,0,0,0-.789.312,1.487,1.487,0,0,0-.354.91h2.206a1.345,1.345,0,0,0-.29-.912A.992.992,0,0,0,151.591,19.834Zm7.669.088h-1.187V24h-1.037V19.922h-.8v-.483l.8-.316v-.316a1.768,1.768,0,0,1,.4-1.277,1.653,1.653,0,0,1,1.235-.415,3.3,3.3,0,0,1,1.072.18l-.272.782a2.381,2.381,0,0,0-.729-.123.594.594,0,0,0-.512.218,1.1,1.1,0,0,0-.16.653v.316h1.187Zm4.957,1.639a2.653,2.653,0,0,1-.611,1.859,2.189,2.189,0,0,1-1.7.668,2.33,2.33,0,0,1-1.2-.308,2.031,2.031,0,0,1-.8-.883,3.008,3.008,0,0,1-.281-1.336,2.635,2.635,0,0,1,.606-1.846,2.2,2.2,0,0,1,1.709-.664,2.141,2.141,0,0,1,1.67.679A2.623,2.623,0,0,1,164.217,21.561Zm-3.538,0q0,1.683,1.244,1.683t1.23-1.683q0-1.666-1.239-1.666a1.057,1.057,0,0,0-.943.431A2.192,2.192,0,0,0,160.68,21.561Zm8.855,0a2.653,2.653,0,0,1-.611,1.859,2.189,2.189,0,0,1-1.7.668,2.33,2.33,0,0,1-1.2-.308,2.031,2.031,0,0,1-.8-.883,3.008,3.008,0,0,1-.281-1.336,2.635,2.635,0,0,1,.606-1.846,2.2,2.2,0,0,1,1.709-.664,2.141,2.141,0,0,1,1.67.679A2.623,2.623,0,0,1,169.535,21.561Zm-3.538,0q0,1.683,1.244,1.683t1.23-1.683q0-1.666-1.239-1.666a1.057,1.057,0,0,0-.943.431A2.192,2.192,0,0,0,166,21.561Zm6.183,2.527a1.693,1.693,0,0,1-1.419-.659,2.963,2.963,0,0,1-.51-1.85,2.972,2.972,0,0,1,.516-1.861,1.709,1.709,0,0,1,1.43-.666,1.676,1.676,0,0,1,1.459.708h.053a6.191,6.191,0,0,1-.075-.826V17.162h1.037V24h-.809l-.18-.637h-.048A1.651,1.651,0,0,1,172.181,24.088Zm.277-.835a1.124,1.124,0,0,0,.927-.358,1.886,1.886,0,0,0,.3-1.162v-.145a2.178,2.178,0,0,0-.3-1.305,1.109,1.109,0,0,0-.936-.387.95.95,0,0,0-.839.442,2.263,2.263,0,0,0-.294,1.259,2.207,2.207,0,0,0,.286,1.233A.964.964,0,0,0,172.457,23.253ZM182.4,24h-1.037V21.012a1.308,1.308,0,0,0-.226-.839.875.875,0,0,0-.719-.277,1.14,1.14,0,0,0-.956.389,2.143,2.143,0,0,0-.305,1.3V24h-1.033V17.162h1.033V18.9a8.1,8.1,0,0,1-.053.892h.066a1.434,1.434,0,0,1,.587-.545,1.891,1.891,0,0,1,.877-.193,1.567,1.567,0,0,1,1.767,1.78Zm4.3,0-.207-.677h-.035a1.991,1.991,0,0,1-.708.6,2.238,2.238,0,0,1-.914.16,1.547,1.547,0,0,1-1.118-.387,1.447,1.447,0,0,1-.4-1.094,1.285,1.285,0,0,1,.558-1.134,3.218,3.218,0,0,1,1.7-.417l.839-.026V20.77a.983.983,0,0,0-.218-.7.887.887,0,0,0-.675-.231,2.332,2.332,0,0,0-.716.11,5.406,5.406,0,0,0-.659.259l-.334-.738a3.594,3.594,0,0,1,.866-.314,3.984,3.984,0,0,1,.888-.108,2.1,2.1,0,0,1,1.4.4,1.583,1.583,0,0,1,.472,1.27V24Zm-1.538-.7a1.279,1.279,0,0,0,.9-.314,1.139,1.139,0,0,0,.341-.881V21.68l-.624.026a2.135,2.135,0,0,0-1.061.244.741.741,0,0,0-.332.666.65.65,0,0,0,.193.5A.831.831,0,0,0,185.163,23.3Zm6.8-.681a1.272,1.272,0,0,1-.519,1.092,2.483,2.483,0,0,1-1.485.38,3.509,3.509,0,0,1-1.56-.294V22.9a3.83,3.83,0,0,0,1.6.4q.954,0,.954-.576a.456.456,0,0,0-.105-.308,1.248,1.248,0,0,0-.347-.255,5.974,5.974,0,0,0-.672-.3,3.11,3.11,0,0,1-1.136-.65,1.2,1.2,0,0,1-.3-.844,1.108,1.108,0,0,1,.5-.969,2.388,2.388,0,0,1,1.369-.345,3.877,3.877,0,0,1,1.622.347l-.334.778a3.607,3.607,0,0,0-1.323-.325q-.817,0-.817.466a.469.469,0,0,0,.213.387,4.687,4.687,0,0,0,.929.435,4.249,4.249,0,0,1,.875.426,1.274,1.274,0,0,1,.4.446A1.291,1.291,0,0,1,191.966,22.616ZM3.221,43.052a1.687,1.687,0,0,1,1.417.659,3.625,3.625,0,0,1-.007,3.711,1.7,1.7,0,0,1-1.428.666,1.7,1.7,0,0,1-1.433-.664H1.7L1.512,48H.738V41.162H1.771v1.626q0,.18-.018.536t-.026.453h.044A1.64,1.64,0,0,1,3.221,43.052Zm-.268.844a1.05,1.05,0,0,0-.9.367,2.135,2.135,0,0,0-.283,1.228v.07a2.273,2.273,0,0,0,.281,1.285,1.046,1.046,0,0,0,.918.4.931.931,0,0,0,.833-.435,2.308,2.308,0,0,0,.283-1.257Q4.087,43.9,2.953,43.9Zm5.335,4.192a2.351,2.351,0,0,1-1.773-.661A2.511,2.511,0,0,1,5.876,45.6a2.755,2.755,0,0,1,.593-1.872,2.049,2.049,0,0,1,1.63-.681,2,2,0,0,1,1.521.584,2.233,2.233,0,0,1,.558,1.608V45.8H6.939a1.6,1.6,0,0,0,.382,1.088,1.332,1.332,0,0,0,1.015.38,3.747,3.747,0,0,0,.8-.081,4.2,4.2,0,0,0,.8-.27v.839a3.171,3.171,0,0,1-.765.255A4.689,4.689,0,0,1,8.288,48.088ZM8.1,43.834a1.038,1.038,0,0,0-.789.312,1.487,1.487,0,0,0-.354.91H9.163a1.345,1.345,0,0,0-.29-.912A.992.992,0,0,0,8.1,43.834Zm5.195,4.254a2.351,2.351,0,0,1-1.773-.661,2.511,2.511,0,0,1-.639-1.822,2.755,2.755,0,0,1,.593-1.872,2.049,2.049,0,0,1,1.63-.681,2,2,0,0,1,1.521.584,2.233,2.233,0,0,1,.558,1.608V45.8H11.945a1.6,1.6,0,0,0,.382,1.088,1.332,1.332,0,0,0,1.015.38,3.747,3.747,0,0,0,.8-.081,4.2,4.2,0,0,0,.8-.27v.839a3.171,3.171,0,0,1-.765.255A4.689,4.689,0,0,1,13.294,48.088ZM13.1,43.834a1.038,1.038,0,0,0-.789.312,1.487,1.487,0,0,0-.354.91h2.206a1.345,1.345,0,0,0-.29-.912A.992.992,0,0,0,13.1,43.834ZM20.453,48H19.416V45.012a1.308,1.308,0,0,0-.226-.839.875.875,0,0,0-.719-.277,1.142,1.142,0,0,0-.958.387,2.135,2.135,0,0,0-.3,1.3V48H16.177V43.14h.809l.145.637h.053a1.438,1.438,0,0,1,.624-.536,2.091,2.091,0,0,1,.9-.189,1.56,1.56,0,0,1,1.749,1.78Zm7.519-4.86v.567l-.831.154a1.341,1.341,0,0,1,.189.378,1.491,1.491,0,0,1,.075.475,1.454,1.454,0,0,1-.519,1.182,2.17,2.17,0,0,1-1.428.431,2.316,2.316,0,0,1-.422-.035.582.582,0,0,0-.334.483.269.269,0,0,0,.156.25,1.349,1.349,0,0,0,.573.083h.848a1.886,1.886,0,0,1,1.222.343,1.206,1.206,0,0,1,.417.989,1.438,1.438,0,0,1-.681,1.274,3.586,3.586,0,0,1-1.969.448,2.717,2.717,0,0,1-1.516-.352,1.136,1.136,0,0,1-.523-1,1.066,1.066,0,0,1,.283-.754,1.519,1.519,0,0,1,.793-.424.776.776,0,0,1-.341-.283.716.716,0,0,1-.134-.411.707.707,0,0,1,.154-.461,1.775,1.775,0,0,1,.457-.374,1.354,1.354,0,0,1-.613-.53,1.558,1.558,0,0,1-.235-.859,1.54,1.54,0,0,1,.5-1.226,2.1,2.1,0,0,1,1.422-.435,3.46,3.46,0,0,1,.433.029,2.725,2.725,0,0,1,.341.059Zm-3.819,5.616a.568.568,0,0,0,.3.514,1.654,1.654,0,0,0,.846.18,2.556,2.556,0,0,0,1.257-.242.725.725,0,0,0,.413-.642.481.481,0,0,0-.226-.45,1.817,1.817,0,0,0-.842-.134H25.12a1.1,1.1,0,0,0-.705.209A.684.684,0,0,0,24.153,48.756Zm.444-4.043a.978.978,0,0,0,.235.7.889.889,0,0,0,.675.246q.9,0,.9-.958a1.087,1.087,0,0,0-.222-.732.843.843,0,0,0-.675-.257.869.869,0,0,0-.679.255A1.071,1.071,0,0,0,24.6,44.713Zm6.561-1.661a2.486,2.486,0,0,1,.514.044l-.1.962a1.952,1.952,0,0,0-.457-.053,1.323,1.323,0,0,0-1,.4,1.461,1.461,0,0,0-.385,1.05V48H28.693V43.14H29.5l.136.857h.053a1.926,1.926,0,0,1,.631-.69A1.5,1.5,0,0,1,31.158,43.052ZM36.7,45.561a2.653,2.653,0,0,1-.611,1.859,2.189,2.189,0,0,1-1.7.668,2.33,2.33,0,0,1-1.2-.308,2.031,2.031,0,0,1-.8-.883,3.008,3.008,0,0,1-.281-1.336,2.635,2.635,0,0,1,.606-1.846,2.2,2.2,0,0,1,1.709-.664,2.141,2.141,0,0,1,1.67.679A2.623,2.623,0,0,1,36.7,45.561Zm-3.538,0q0,1.683,1.244,1.683t1.23-1.683q0-1.666-1.239-1.666a1.057,1.057,0,0,0-.943.431A2.192,2.192,0,0,0,33.167,45.561ZM41.7,48l-.628-2.268q-.114-.36-.413-1.674h-.04q-.255,1.187-.4,1.683L39.565,48H38.423L37.06,43.14h1.055l.62,2.4q.211.888.3,1.521h.026q.044-.321.134-.736t.156-.622l.738-2.558h1.134l.716,2.558q.066.215.165.659a5.072,5.072,0,0,1,.116.69h.035a13.485,13.485,0,0,1,.308-1.512l.628-2.4h1.037L42.857,48Zm7.462,0H48.122V45.012a1.308,1.308,0,0,0-.226-.839.875.875,0,0,0-.719-.277,1.142,1.142,0,0,0-.958.387,2.135,2.135,0,0,0-.3,1.3V48H44.883V43.14h.809l.145.637h.053a1.438,1.438,0,0,1,.624-.536,2.091,2.091,0,0,1,.9-.189,1.56,1.56,0,0,1,1.749,1.78Zm7.4,0-.628-2.268q-.114-.36-.413-1.674h-.04q-.255,1.187-.4,1.683L54.428,48H53.286l-1.362-4.86h1.055l.62,2.4q.211.888.3,1.521h.026q.044-.321.134-.736t.156-.622l.738-2.558h1.134L56.8,45.7q.066.215.165.659a5.072,5.072,0,0,1,.116.69h.035a13.485,13.485,0,0,1,.308-1.512l.628-2.4h1.037L57.72,48Zm4.219,0H59.746V43.14h1.033Zm-1.094-6.148a.572.572,0,0,1,.152-.426.591.591,0,0,1,.433-.149.578.578,0,0,1,.424.149.572.572,0,0,1,.152.426.561.561,0,0,1-.152.415.573.573,0,0,1-.424.152.586.586,0,0,1-.433-.152A.561.561,0,0,1,59.684,41.852Zm4.2,5.4a2.511,2.511,0,0,0,.756-.119v.778a2.085,2.085,0,0,1-.442.125,3.043,3.043,0,0,1-.56.051q-1.468,0-1.468-1.547V43.922h-.664v-.457l.712-.378.352-1.028h.637V43.14h1.384v.782H63.209v2.6a.73.73,0,0,0,.187.552A.681.681,0,0,0,63.886,47.253ZM69.709,48H68.671V45.012a1.308,1.308,0,0,0-.226-.839.875.875,0,0,0-.719-.277,1.14,1.14,0,0,0-.956.389,2.143,2.143,0,0,0-.305,1.3V48H65.433V41.162h1.033V42.9a8.1,8.1,0,0,1-.053.892h.066a1.434,1.434,0,0,1,.587-.545,1.891,1.891,0,0,1,.877-.193,1.567,1.567,0,0,1,1.767,1.78Zm5.568-2.439a2.653,2.653,0,0,1-.611,1.859,2.189,2.189,0,0,1-1.7.668,2.33,2.33,0,0,1-1.2-.308,2.031,2.031,0,0,1-.8-.883,3.008,3.008,0,0,1-.281-1.336,2.635,2.635,0,0,1,.606-1.846,2.2,2.2,0,0,1,1.709-.664,2.141,2.141,0,0,1,1.67.679A2.623,2.623,0,0,1,75.277,45.561Zm-3.538,0q0,1.683,1.244,1.683t1.23-1.683q0-1.666-1.239-1.666a1.057,1.057,0,0,0-.943.431A2.192,2.192,0,0,0,71.739,45.561ZM79.711,48l-.145-.637h-.053a1.465,1.465,0,0,1-.613.532,2.05,2.05,0,0,1-.907.193,1.781,1.781,0,0,1-1.318-.439,1.822,1.822,0,0,1-.435-1.332V43.14h1.042v3a1.3,1.3,0,0,0,.229.837.872.872,0,0,0,.716.279,1.14,1.14,0,0,0,.956-.389,2.143,2.143,0,0,0,.305-1.3V43.14h1.037V48Zm3.916-.747a2.511,2.511,0,0,0,.756-.119v.778a2.085,2.085,0,0,1-.442.125,3.043,3.043,0,0,1-.56.051q-1.468,0-1.468-1.547V43.922h-.664v-.457l.712-.378.352-1.028h.637V43.14h1.384v.782H82.95v2.6a.73.73,0,0,0,.187.552A.681.681,0,0,0,83.627,47.253Zm6.17.835a1.7,1.7,0,0,1-1.433-.664H88.3q.062.615.062.747v1.991H87.331V43.14h.835q.035.136.145.65h.053a1.618,1.618,0,0,1,1.45-.738,1.687,1.687,0,0,1,1.417.659,3.615,3.615,0,0,1-.009,3.709A1.7,1.7,0,0,1,89.8,48.088Zm-.25-4.192a1.073,1.073,0,0,0-.9.36,1.868,1.868,0,0,0-.283,1.151v.154a2.273,2.273,0,0,0,.281,1.285,1.046,1.046,0,0,0,.918.4.932.932,0,0,0,.826-.439,2.269,2.269,0,0,0,.29-1.252,2.19,2.19,0,0,0-.288-1.237A.96.96,0,0,0,89.546,43.9Zm5.335,4.192a2.351,2.351,0,0,1-1.773-.661,2.511,2.511,0,0,1-.639-1.822,2.755,2.755,0,0,1,.593-1.872,2.049,2.049,0,0,1,1.63-.681,2,2,0,0,1,1.521.584,2.233,2.233,0,0,1,.558,1.608V45.8H93.532a1.6,1.6,0,0,0,.382,1.088,1.332,1.332,0,0,0,1.015.38,3.747,3.747,0,0,0,.8-.081,4.2,4.2,0,0,0,.8-.27v.839a3.171,3.171,0,0,1-.765.255A4.689,4.689,0,0,1,94.881,48.088Zm-.189-4.254a1.038,1.038,0,0,0-.789.312,1.487,1.487,0,0,0-.354.91h2.206a1.345,1.345,0,0,0-.29-.912A.992.992,0,0,0,94.692,43.834Zm6.337,2.782a1.272,1.272,0,0,1-.519,1.092,2.483,2.483,0,0,1-1.485.38,3.509,3.509,0,0,1-1.56-.294V46.9a3.83,3.83,0,0,0,1.6.4q.954,0,.954-.576a.456.456,0,0,0-.105-.308,1.248,1.248,0,0,0-.347-.255,5.974,5.974,0,0,0-.672-.3,3.11,3.11,0,0,1-1.136-.65,1.2,1.2,0,0,1-.3-.844,1.108,1.108,0,0,1,.5-.969,2.388,2.388,0,0,1,1.369-.345,3.877,3.877,0,0,1,1.622.347l-.334.778a3.607,3.607,0,0,0-1.323-.325q-.817,0-.817.466a.469.469,0,0,0,.213.387,4.687,4.687,0,0,0,.929.435,4.249,4.249,0,0,1,.875.426,1.274,1.274,0,0,1,.4.446A1.291,1.291,0,0,1,101.03,46.616Zm2.747.637a2.511,2.511,0,0,0,.756-.119v.778a2.085,2.085,0,0,1-.442.125,3.043,3.043,0,0,1-.56.051q-1.468,0-1.468-1.547V43.922H101.4v-.457l.712-.378.352-1.028h.637V43.14h1.384v.782H103.1v2.6a.73.73,0,0,0,.187.552A.681.681,0,0,0,103.776,47.253Zm2.58.747h-1.033V43.14h1.033Zm-1.094-6.148a.572.572,0,0,1,.152-.426.591.591,0,0,1,.433-.149.578.578,0,0,1,.424.149.572.572,0,0,1,.152.426.561.561,0,0,1-.152.415.573.573,0,0,1-.424.152.586.586,0,0,1-.433-.152A.561.561,0,0,1,105.262,41.852Zm4.351,6.236a2.128,2.128,0,0,1-1.677-.644,3.263,3.263,0,0,1,.026-3.733,2.225,2.225,0,0,1,1.734-.659,3.249,3.249,0,0,1,1.384.286l-.312.831a3.128,3.128,0,0,0-1.081-.255q-1.261,0-1.261,1.674a2.005,2.005,0,0,0,.314,1.228,1.088,1.088,0,0,0,.921.411,2.641,2.641,0,0,0,1.305-.343v.9a2.04,2.04,0,0,1-.591.233A3.547,3.547,0,0,1,109.613,48.088ZM112.961,48h-1.033V43.14h1.033Zm-1.094-6.148a.572.572,0,0,1,.152-.426.591.591,0,0,1,.433-.149.578.578,0,0,1,.424.149.572.572,0,0,1,.152.426.561.561,0,0,1-.152.415.573.573,0,0,1-.424.152.586.586,0,0,1-.433-.152A.561.561,0,0,1,111.867,41.852Zm4.03,6.236a1.693,1.693,0,0,1-1.419-.659,3.612,3.612,0,0,1,.007-3.711,1.709,1.709,0,0,1,1.43-.666,1.676,1.676,0,0,1,1.459.708h.053a6.191,6.191,0,0,1-.075-.826V41.162h1.037V48h-.809l-.18-.637h-.048A1.651,1.651,0,0,1,115.9,48.088Zm.277-.835a1.124,1.124,0,0,0,.927-.358,1.886,1.886,0,0,0,.3-1.162v-.145a2.178,2.178,0,0,0-.3-1.305,1.109,1.109,0,0,0-.936-.387.95.95,0,0,0-.839.442,2.263,2.263,0,0,0-.294,1.259,2.207,2.207,0,0,0,.286,1.233A.964.964,0,0,0,116.174,47.253Zm5.634.835a2.351,2.351,0,0,1-1.773-.661A2.511,2.511,0,0,1,119.4,45.6a2.755,2.755,0,0,1,.593-1.872,2.049,2.049,0,0,1,1.63-.681,2,2,0,0,1,1.521.584,2.233,2.233,0,0,1,.558,1.608V45.8h-3.239a1.6,1.6,0,0,0,.382,1.088,1.332,1.332,0,0,0,1.015.38,3.747,3.747,0,0,0,.8-.081,4.2,4.2,0,0,0,.8-.27v.839a3.171,3.171,0,0,1-.765.255A4.689,4.689,0,0,1,121.808,48.088Zm-.189-4.254a1.038,1.038,0,0,0-.789.312,1.487,1.487,0,0,0-.354.91h2.206a1.345,1.345,0,0,0-.29-.912A.992.992,0,0,0,121.619,43.834Zm6.337,2.782a1.272,1.272,0,0,1-.519,1.092,2.483,2.483,0,0,1-1.485.38,3.509,3.509,0,0,1-1.56-.294V46.9a3.83,3.83,0,0,0,1.6.4q.954,0,.954-.576a.456.456,0,0,0-.105-.308,1.248,1.248,0,0,0-.347-.255,5.974,5.974,0,0,0-.672-.3,3.11,3.11,0,0,1-1.136-.65,1.2,1.2,0,0,1-.3-.844,1.108,1.108,0,0,1,.5-.969,2.388,2.388,0,0,1,1.369-.345,3.877,3.877,0,0,1,1.622.347l-.334.778a3.607,3.607,0,0,0-1.323-.325q-.817,0-.817.466a.469.469,0,0,0,.213.387,4.687,4.687,0,0,0,.929.435,4.249,4.249,0,0,1,.875.426,1.274,1.274,0,0,1,.4.446A1.291,1.291,0,0,1,127.956,46.616Zm7.405-1.055a2.653,2.653,0,0,1-.611,1.859,2.189,2.189,0,0,1-1.7.668,2.33,2.33,0,0,1-1.2-.308,2.031,2.031,0,0,1-.8-.883,3.008,3.008,0,0,1-.281-1.336,2.635,2.635,0,0,1,.606-1.846,2.2,2.2,0,0,1,1.709-.664,2.141,2.141,0,0,1,1.67.679A2.623,2.623,0,0,1,135.361,45.561Zm-3.538,0q0,1.683,1.244,1.683t1.23-1.683q0-1.666-1.239-1.666a1.057,1.057,0,0,0-.943.431A2.192,2.192,0,0,0,131.824,45.561Zm7.009-2.509a2.486,2.486,0,0,1,.514.044l-.1.962a1.952,1.952,0,0,0-.457-.053,1.323,1.323,0,0,0-1,.4,1.461,1.461,0,0,0-.385,1.05V48h-1.033V43.14h.809l.136.857h.053a1.926,1.926,0,0,1,.631-.69A1.5,1.5,0,0,1,138.833,43.052Zm7.7,2.509a2.653,2.653,0,0,1-.611,1.859,2.189,2.189,0,0,1-1.7.668,2.33,2.33,0,0,1-1.2-.308,2.031,2.031,0,0,1-.8-.883,3.008,3.008,0,0,1-.281-1.336,2.635,2.635,0,0,1,.606-1.846,2.2,2.2,0,0,1,1.709-.664,2.141,2.141,0,0,1,1.67.679A2.623,2.623,0,0,1,146.537,45.561Zm-3.538,0q0,1.683,1.244,1.683t1.23-1.683q0-1.666-1.239-1.666a1.057,1.057,0,0,0-.943.431A2.192,2.192,0,0,0,143,45.561Zm6.355,1.692a2.511,2.511,0,0,0,.756-.119v.778a2.085,2.085,0,0,1-.442.125,3.043,3.043,0,0,1-.56.051q-1.468,0-1.468-1.547V43.922h-.664v-.457l.712-.378.352-1.028h.637V43.14h1.384v.782h-1.384v2.6a.73.73,0,0,0,.187.552A.681.681,0,0,0,149.354,47.253Zm5.823.747H154.14V45.012a1.308,1.308,0,0,0-.226-.839.875.875,0,0,0-.719-.277,1.14,1.14,0,0,0-.956.389,2.143,2.143,0,0,0-.305,1.3V48H150.9V41.162h1.033V42.9a8.1,8.1,0,0,1-.053.892h.066a1.434,1.434,0,0,1,.587-.545,1.891,1.891,0,0,1,.877-.193,1.567,1.567,0,0,1,1.767,1.78Zm3.38.088a2.351,2.351,0,0,1-1.773-.661,2.511,2.511,0,0,1-.639-1.822,2.755,2.755,0,0,1,.593-1.872,2.049,2.049,0,0,1,1.63-.681,2,2,0,0,1,1.521.584,2.233,2.233,0,0,1,.558,1.608V45.8h-3.239a1.6,1.6,0,0,0,.382,1.088,1.332,1.332,0,0,0,1.015.38,3.747,3.747,0,0,0,.8-.081,4.2,4.2,0,0,0,.8-.27v.839a3.171,3.171,0,0,1-.765.255A4.689,4.689,0,0,1,158.557,48.088Zm-.189-4.254a1.038,1.038,0,0,0-.789.312,1.487,1.487,0,0,0-.354.91h2.206a1.345,1.345,0,0,0-.29-.912A.992.992,0,0,0,158.368,43.834Zm5.537-.782a2.486,2.486,0,0,1,.514.044l-.1.962a1.952,1.952,0,0,0-.457-.053,1.323,1.323,0,0,0-1,.4,1.461,1.461,0,0,0-.385,1.05V48H161.44V43.14h.809l.136.857h.053a1.926,1.926,0,0,1,.631-.69A1.5,1.5,0,0,1,163.9,43.052ZM2.7,72.088a2.128,2.128,0,0,1-1.677-.644,3.263,3.263,0,0,1,.026-3.733,2.225,2.225,0,0,1,1.734-.659,3.249,3.249,0,0,1,1.384.286l-.312.831a3.128,3.128,0,0,0-1.081-.255q-1.261,0-1.261,1.674a2.005,2.005,0,0,0,.314,1.228,1.088,1.088,0,0,0,.921.411,2.641,2.641,0,0,0,1.305-.343v.9a2.04,2.04,0,0,1-.591.233A3.547,3.547,0,0,1,2.7,72.088ZM9.29,72H8.253V69.012a1.308,1.308,0,0,0-.226-.839.875.875,0,0,0-.719-.277,1.14,1.14,0,0,0-.956.389,2.143,2.143,0,0,0-.305,1.3V72H5.014V65.162H6.047V66.9a8.1,8.1,0,0,1-.053.892H6.06a1.434,1.434,0,0,1,.587-.545,1.891,1.891,0,0,1,.877-.193,1.567,1.567,0,0,1,1.767,1.78Zm3.38.088a2.351,2.351,0,0,1-1.773-.661,2.511,2.511,0,0,1-.639-1.822,2.755,2.755,0,0,1,.593-1.872,2.049,2.049,0,0,1,1.63-.681A2,2,0,0,1,14,67.636a2.233,2.233,0,0,1,.558,1.608V69.8H11.321A1.6,1.6,0,0,0,11.7,70.89a1.332,1.332,0,0,0,1.015.38,3.747,3.747,0,0,0,.8-.081,4.2,4.2,0,0,0,.8-.27v.839a3.171,3.171,0,0,1-.765.255A4.689,4.689,0,0,1,12.67,72.088Zm-.189-4.254a1.038,1.038,0,0,0-.789.312,1.487,1.487,0,0,0-.354.91h2.206a1.345,1.345,0,0,0-.29-.912A.992.992,0,0,0,12.481,67.834ZM19.648,72H18.611V69a1.359,1.359,0,0,0-.211-.833.778.778,0,0,0-.659-.275,1,1,0,0,0-.877.389,2.282,2.282,0,0,0-.279,1.294V72H15.553V67.14h.809l.145.637h.053a1.346,1.346,0,0,1,.587-.536,1.892,1.892,0,0,1,.846-.189,1.478,1.478,0,0,1,1.485.765h.07a1.482,1.482,0,0,1,.606-.562,1.925,1.925,0,0,1,.9-.2,1.633,1.633,0,0,1,1.268.439,1.946,1.946,0,0,1,.4,1.34V72H21.683V69a1.349,1.349,0,0,0-.213-.833.785.785,0,0,0-.661-.275,1.025,1.025,0,0,0-.881.376,1.937,1.937,0,0,0-.279,1.154Zm5.362,0H23.977V67.14H25.01Zm-1.094-6.148a.572.572,0,0,1,.152-.426.591.591,0,0,1,.433-.149.578.578,0,0,1,.424.149.572.572,0,0,1,.152.426.561.561,0,0,1-.152.415.573.573,0,0,1-.424.152.586.586,0,0,1-.433-.152A.561.561,0,0,1,23.916,65.852Zm4.351,6.236a2.128,2.128,0,0,1-1.677-.644,3.263,3.263,0,0,1,.026-3.733,2.225,2.225,0,0,1,1.734-.659,3.249,3.249,0,0,1,1.384.286l-.312.831a3.128,3.128,0,0,0-1.081-.255q-1.261,0-1.261,1.674a2.005,2.005,0,0,0,.314,1.228,1.088,1.088,0,0,0,.921.411,2.641,2.641,0,0,0,1.305-.343v.9a2.04,2.04,0,0,1-.591.233A3.547,3.547,0,0,1,28.267,72.088ZM33.624,72l-.207-.677h-.035a1.991,1.991,0,0,1-.708.6,2.238,2.238,0,0,1-.914.16,1.547,1.547,0,0,1-1.118-.387,1.447,1.447,0,0,1-.4-1.094,1.285,1.285,0,0,1,.558-1.134,3.218,3.218,0,0,1,1.7-.417l.839-.026V68.77a.983.983,0,0,0-.218-.7.887.887,0,0,0-.675-.231,2.332,2.332,0,0,0-.716.11,5.406,5.406,0,0,0-.659.259l-.334-.738a3.594,3.594,0,0,1,.866-.314,3.984,3.984,0,0,1,.888-.108,2.1,2.1,0,0,1,1.4.4,1.583,1.583,0,0,1,.472,1.27V72Zm-1.538-.7a1.279,1.279,0,0,0,.9-.314,1.139,1.139,0,0,0,.341-.881V69.68l-.624.026a2.135,2.135,0,0,0-1.061.244.741.741,0,0,0-.332.666.65.65,0,0,0,.193.5A.831.831,0,0,0,32.086,71.3Zm4.57.7H35.623V65.162h1.033Zm4.562-1.384a1.272,1.272,0,0,1-.519,1.092,2.483,2.483,0,0,1-1.485.38,3.509,3.509,0,0,1-1.56-.294V70.9a3.83,3.83,0,0,0,1.6.4q.954,0,.954-.576a.456.456,0,0,0-.105-.308,1.248,1.248,0,0,0-.347-.255,5.974,5.974,0,0,0-.672-.3,3.11,3.11,0,0,1-1.136-.65,1.2,1.2,0,0,1-.3-.844,1.108,1.108,0,0,1,.5-.969,2.388,2.388,0,0,1,1.369-.345,3.877,3.877,0,0,1,1.622.347l-.334.778a3.607,3.607,0,0,0-1.323-.325q-.817,0-.817.466a.469.469,0,0,0,.213.387,4.687,4.687,0,0,0,.929.435,4.249,4.249,0,0,1,.875.426,1.274,1.274,0,0,1,.4.446A1.291,1.291,0,0,1,41.218,70.616Z" transform="translate(16.756 70.418)" fill="#212e3a"/></svg>