<svg xmlns="http://www.w3.org/2000/svg" width="247.207" height="145.945" viewBox="0 0 247.207 145.945"><g transform="translate(-16.756 -52.54)"><rect width="247.207" height="145.945" rx="5" transform="translate(16.756 52.54)" fill="#fff"/><text transform="translate(25.385 62.911)" fill="#212e3a" font-size="12" font-family="OpenSans-Semibold, Open Sans" font-weight="600"><tspan x="0" y="13" xml:space="preserve">There are loads of  reasons  to eat </tspan><tspan x="0" y="35">organic food. The term &quot;organic&quot; </tspan><tspan x="0" y="57" xml:space="preserve">indicates that the food  has  been  </tspan><tspan x="0" y="79" xml:space="preserve">grown  without  pesticides or other </tspan><tspan x="0" y="101">chemicals.</tspan></text><g transform="translate(-235.818 -90)"><g transform="translate(367.792 152.686)"><g transform="translate(0 0)" fill="none" stroke="#00ad50" stroke-width="1"><rect width="57.055" height="20.254" stroke="none"/><rect x="0.5" y="0.5" width="56.055" height="19.254" fill="none"/></g><rect width="57.055" height="20.254" transform="translate(0 0)" fill="#00ad50" opacity="0.19"/></g><g transform="translate(394.409 196.125)"><g fill="none" stroke="#00ad50" stroke-width="1"><rect width="28.733" height="20.254" stroke="none"/><rect x="0.5" y="0.5" width="27.733" height="19.254" fill="none"/></g><rect width="28.733" height="20.254" fill="#00ad50" opacity="0.19"/></g><g transform="translate(257.756 218.307)"><g transform="translate(0 0)" fill="none" stroke="#00ad50" stroke-width="1"><rect width="44.264" height="20.254" stroke="none"/><rect x="0.5" y="0.5" width="43.264" height="19.254" fill="none"/></g><rect width="44.264" height="20.254" transform="translate(0 0)" fill="#00ad50" opacity="0.19"/></g><g transform="translate(423.581 196.125)"><g fill="none" stroke="#00ad50" stroke-width="1"><rect width="37.716" height="20.254" stroke="none"/><rect x="0.5" y="0.5" width="36.716" height="19.254" fill="none"/></g><rect width="37.716" height="20.254" fill="#00ad50" opacity="0.19"/></g><g transform="translate(350.663 218.307)"><g transform="translate(0 0)" fill="none" stroke="#00ad50" stroke-width="1"><rect width="66.939" height="20.254" stroke="none"/><rect x="0.5" y="0.5" width="65.939" height="19.254" fill="none"/></g><rect width="66.939" height="20.254" transform="translate(0 0)" fill="#00ad50" opacity="0.19"/></g></g></g></svg>