<svg xmlns="http://www.w3.org/2000/svg" xmlns:xlink="http://www.w3.org/1999/xlink" width="288.489" height="138.971" viewBox="0 0 288.489 138.971"><defs><filter id="a" x="-13.977" y="-55" width="318.489" height="220.672" filterUnits="userSpaceOnUse"><feOffset dy="3" input="SourceAlpha"/><feGaussianBlur stdDeviation="5" result="b"/><feFlood flood-opacity="0.102"/><feComposite operator="in" in2="b"/><feComposite in="SourceGraphic"/></filter></defs><g transform="translate(-337 -210)"><g transform="translate(337 210.001)"><g transform="translate(0 -0.001)" fill="#fff"><path d="M 283.4887084960938 138.4700012207031 L 4.999997138977051 138.4700012207031 C 2.518675565719604 138.4700012207031 0.4999971091747284 136.4513244628906 0.4999971091747284 133.9700012207031 L 0.4999971091747284 5.000000476837158 C 0.4999971091747284 2.518679141998291 2.518675565719604 0.5000005960464478 4.999997138977051 0.5000005960464478 L 283.4887084960938 0.5000005960464478 C 285.9700317382813 0.5000005960464478 287.9887084960938 2.518679141998291 287.9887084960938 5.000000476837158 L 287.9887084960938 133.9700012207031 C 287.9887084960938 136.4513244628906 285.9700317382813 138.4700012207031 283.4887084960938 138.4700012207031 Z" stroke="none"/><path d="M 5 1 C 2.794403076171875 1 1 2.794387817382813 1 5 L 1 133.9700012207031 C 1 136.1756134033203 2.794403076171875 137.9700012207031 5 137.9700012207031 L 283.4887084960938 137.9700012207031 C 285.6943054199219 137.9700012207031 287.4887084960938 136.1756134033203 287.4887084960938 133.9700012207031 L 287.4887084960938 5 C 287.4887084960938 2.794387817382813 285.6943054199219 1 283.4887084960938 1 L 5 1 M 5 0 L 283.4887084960938 0 C 286.2500915527344 0 288.4887084960938 2.238571166992188 288.4887084960938 5 L 288.4887084960938 133.9700012207031 C 288.4887084960938 136.7314300537109 286.2500915527344 138.9700012207031 283.4887084960938 138.9700012207031 L 5 138.9700012207031 C 2.238555908203125 138.9700012207031 0 136.7314300537109 0 133.9700012207031 L 0 5 C 0 2.238571166992188 2.238555908203125 0 5 0 Z" stroke="none" fill="#dbdbdb"/></g><path d="M4.45,15H3.288V6.038H.123V5.006H7.615V6.038H4.45Zm9.625,0V10.153a1.955,1.955,0,0,0-.417-1.367,1.7,1.7,0,0,0-1.306-.451,2.139,2.139,0,0,0-1.726.643,3.255,3.255,0,0,0-.543,2.105V15H8.948V4.363h1.135v3.22a7.015,7.015,0,0,1-.055.964H10.1A2.314,2.314,0,0,1,11.05,7.7a3.1,3.1,0,0,1,1.412-.311,2.891,2.891,0,0,1,2.061.653,2.749,2.749,0,0,1,.687,2.075V15Zm6.631.137a3.442,3.442,0,0,1-2.622-1.012,3.917,3.917,0,0,1-.96-2.81,4.344,4.344,0,0,1,.892-2.878,2.963,2.963,0,0,1,2.4-1.066,2.825,2.825,0,0,1,2.229.926,3.55,3.55,0,0,1,.82,2.444v.718H18.3a2.97,2.97,0,0,0,.667,2,2.305,2.305,0,0,0,1.781.684,6.035,6.035,0,0,0,2.393-.506v1.012A6.005,6.005,0,0,1,22,15.024,6.4,6.4,0,0,1,20.706,15.137ZM20.4,8.321a1.853,1.853,0,0,0-1.439.588,2.71,2.71,0,0,0-.632,1.627h3.917a2.5,2.5,0,0,0-.479-1.644A1.684,1.684,0,0,0,20.4,8.321Zm8.415-.95a4.44,4.44,0,0,1,.9.082l-.157,1.053a3.865,3.865,0,0,0-.82-.1,2,2,0,0,0-1.555.738,2.692,2.692,0,0,0-.646,1.839V15H25.4V7.508h.937l.13,1.388h.055a3.293,3.293,0,0,1,1-1.128A2.262,2.262,0,0,1,28.813,7.371Zm5.462,7.766a3.442,3.442,0,0,1-2.622-1.012,3.917,3.917,0,0,1-.96-2.81,4.344,4.344,0,0,1,.892-2.878,2.963,2.963,0,0,1,2.4-1.066A2.825,2.825,0,0,1,36.21,8.3a3.55,3.55,0,0,1,.82,2.444v.718H31.869a2.97,2.97,0,0,0,.667,2,2.305,2.305,0,0,0,1.781.684,6.035,6.035,0,0,0,2.393-.506v1.012a6.005,6.005,0,0,1-1.138.373A6.4,6.4,0,0,1,34.275,15.137Zm-.308-6.815a1.853,1.853,0,0,0-1.439.588,2.71,2.71,0,0,0-.632,1.627h3.917a2.5,2.5,0,0,0-.479-1.644A1.684,1.684,0,0,0,33.968,8.321ZM47.209,15l-.226-1.066h-.055a3.153,3.153,0,0,1-1.118.954,3.407,3.407,0,0,1-1.391.25,2.5,2.5,0,0,1-1.747-.574,2.094,2.094,0,0,1-.632-1.634q0-2.27,3.63-2.379l1.271-.041v-.465a1.9,1.9,0,0,0-.379-1.3,1.56,1.56,0,0,0-1.213-.42A4.944,4.944,0,0,0,43.23,8.9l-.349-.868A5.332,5.332,0,0,1,44.1,7.556a5.255,5.255,0,0,1,1.323-.171,2.854,2.854,0,0,1,1.986.595,2.482,2.482,0,0,1,.646,1.907V15Zm-2.563-.8a2.3,2.3,0,0,0,1.665-.581,2.15,2.15,0,0,0,.6-1.627v-.677l-1.135.048a4.128,4.128,0,0,0-1.952.42,1.268,1.268,0,0,0-.6,1.159,1.169,1.169,0,0,0,.373.937A1.546,1.546,0,0,0,44.646,14.2Zm9.16-6.829a4.44,4.44,0,0,1,.9.082l-.157,1.053a3.865,3.865,0,0,0-.82-.1,2,2,0,0,0-1.555.738,2.692,2.692,0,0,0-.646,1.839V15H50.388V7.508h.937l.13,1.388h.055a3.293,3.293,0,0,1,1-1.128A2.262,2.262,0,0,1,53.806,7.371Zm5.462,7.766a3.442,3.442,0,0,1-2.622-1.012,3.917,3.917,0,0,1-.96-2.81,4.344,4.344,0,0,1,.892-2.878,2.963,2.963,0,0,1,2.4-1.066A2.825,2.825,0,0,1,61.2,8.3a3.55,3.55,0,0,1,.82,2.444v.718H56.861a2.97,2.97,0,0,0,.667,2,2.305,2.305,0,0,0,1.781.684A6.035,6.035,0,0,0,61.7,13.64v1.012a6.005,6.005,0,0,1-1.138.373A6.4,6.4,0,0,1,59.268,15.137ZM58.96,8.321a1.853,1.853,0,0,0-1.439.588,2.71,2.71,0,0,0-.632,1.627h3.917a2.5,2.5,0,0,0-.479-1.644A1.684,1.684,0,0,0,58.96,8.321ZM68.729,15H67.594V4.363h1.135ZM77.6,11.247a4.133,4.133,0,0,1-.923,2.861,3.25,3.25,0,0,1-2.55,1.029,3.377,3.377,0,0,1-1.784-.472,3.113,3.113,0,0,1-1.2-1.354,4.717,4.717,0,0,1-.424-2.064,4.127,4.127,0,0,1,.916-2.854,3.24,3.24,0,0,1,2.543-1.022,3.169,3.169,0,0,1,2.5,1.046A4.115,4.115,0,0,1,77.6,11.247Zm-5.708,0a3.556,3.556,0,0,0,.574,2.188,2.279,2.279,0,0,0,3.38,0,3.538,3.538,0,0,0,.578-2.191,3.481,3.481,0,0,0-.578-2.17,2.03,2.03,0,0,0-1.706-.742,2,2,0,0,0-1.682.731A3.52,3.52,0,0,0,71.894,11.247ZM84.2,15l-.226-1.066h-.055a3.153,3.153,0,0,1-1.118.954,3.407,3.407,0,0,1-1.391.25,2.5,2.5,0,0,1-1.747-.574,2.094,2.094,0,0,1-.632-1.634q0-2.27,3.63-2.379l1.271-.041v-.465a1.9,1.9,0,0,0-.379-1.3,1.56,1.56,0,0,0-1.213-.42A4.944,4.944,0,0,0,80.22,8.9l-.349-.868a5.332,5.332,0,0,1,1.213-.472,5.255,5.255,0,0,1,1.323-.171,2.854,2.854,0,0,1,1.986.595,2.482,2.482,0,0,1,.646,1.907V15Zm-2.563-.8a2.3,2.3,0,0,0,1.665-.581,2.15,2.15,0,0,0,.6-1.627v-.677l-1.135.048a4.128,4.128,0,0,0-1.952.42,1.268,1.268,0,0,0-.6,1.159,1.169,1.169,0,0,0,.373.937A1.546,1.546,0,0,0,81.635,14.2ZM92.477,14h-.062a2.666,2.666,0,0,1-2.352,1.142,2.782,2.782,0,0,1-2.287-1,4.423,4.423,0,0,1-.817-2.857A4.5,4.5,0,0,1,87.78,8.4a2.76,2.76,0,0,1,2.283-1.025A2.724,2.724,0,0,1,92.4,8.479h.089l-.048-.54-.027-.526V4.363H93.55V15h-.923Zm-2.27.191a2.066,2.066,0,0,0,1.685-.632,3.2,3.2,0,0,0,.523-2.041v-.239A3.76,3.76,0,0,0,91.885,9a2.012,2.012,0,0,0-1.692-.68,1.737,1.737,0,0,0-1.528.776,3.858,3.858,0,0,0-.53,2.191,3.7,3.7,0,0,0,.526,2.167A1.783,1.783,0,0,0,90.207,14.187Zm10.582-1.23a1.877,1.877,0,0,1-.779,1.613,3.663,3.663,0,0,1-2.187.567,4.757,4.757,0,0,1-2.324-.472V13.612a5.621,5.621,0,0,0,1.159.431,4.839,4.839,0,0,0,1.193.157,2.705,2.705,0,0,0,1.367-.284.977.977,0,0,0,.1-1.613,5.968,5.968,0,0,0-1.48-.735,8.025,8.025,0,0,1-1.487-.68,2.031,2.031,0,0,1-.656-.66,1.72,1.72,0,0,1-.215-.882A1.681,1.681,0,0,1,96.223,7.9a3.472,3.472,0,0,1,2.044-.53,5.98,5.98,0,0,1,2.365.492l-.4.923a5.429,5.429,0,0,0-2.044-.465,2.352,2.352,0,0,0-1.217.253.782.782,0,0,0-.41.7.849.849,0,0,0,.154.513,1.518,1.518,0,0,0,.5.4,11.076,11.076,0,0,0,1.313.554,4.9,4.9,0,0,1,1.8.978A1.724,1.724,0,0,1,100.789,12.956Zm11.949-1.709a4.133,4.133,0,0,1-.923,2.861,3.25,3.25,0,0,1-2.55,1.029,3.377,3.377,0,0,1-1.784-.472,3.113,3.113,0,0,1-1.2-1.354,4.717,4.717,0,0,1-.424-2.064,4.127,4.127,0,0,1,.916-2.854,3.24,3.24,0,0,1,2.543-1.022,3.169,3.169,0,0,1,2.5,1.046A4.115,4.115,0,0,1,112.738,11.247Zm-5.708,0a3.556,3.556,0,0,0,.574,2.188,2.279,2.279,0,0,0,3.38,0,3.538,3.538,0,0,0,.578-2.191,3.481,3.481,0,0,0-.578-2.17,2.03,2.03,0,0,0-1.706-.742,2,2,0,0,0-1.682.731A3.52,3.52,0,0,0,107.03,11.247ZM118.1,8.39H116.2V15h-1.135V8.39h-1.34V7.877l1.34-.41V7.05q0-2.762,2.413-2.762a4.966,4.966,0,0,1,1.395.239l-.294.909a3.754,3.754,0,0,0-1.121-.212,1.092,1.092,0,0,0-.95.427,2.384,2.384,0,0,0-.308,1.371v.485H118.1Zm12.059-1.019a4.44,4.44,0,0,1,.9.082L130.9,8.506a3.865,3.865,0,0,0-.82-.1,2,2,0,0,0-1.555.738,2.692,2.692,0,0,0-.646,1.839V15h-1.135V7.508h.937l.13,1.388h.055a3.294,3.294,0,0,1,1-1.128A2.262,2.262,0,0,1,130.163,7.371Zm5.462,7.766A3.442,3.442,0,0,1,133,14.125a3.917,3.917,0,0,1-.96-2.81,4.344,4.344,0,0,1,.892-2.878,2.963,2.963,0,0,1,2.4-1.066,2.825,2.825,0,0,1,2.229.926,3.55,3.55,0,0,1,.82,2.444v.718h-5.161a2.97,2.97,0,0,0,.667,2,2.305,2.305,0,0,0,1.781.684,6.035,6.035,0,0,0,2.393-.506v1.012a6.005,6.005,0,0,1-1.138.373A6.4,6.4,0,0,1,135.625,15.137Zm-.308-6.815a1.853,1.853,0,0,0-1.439.588,2.71,2.71,0,0,0-.632,1.627h3.917a2.5,2.5,0,0,0-.479-1.644A1.684,1.684,0,0,0,135.317,8.321Zm9.6,6.679-.226-1.066h-.055a3.153,3.153,0,0,1-1.118.954,3.407,3.407,0,0,1-1.391.25,2.5,2.5,0,0,1-1.747-.574,2.094,2.094,0,0,1-.632-1.634q0-2.27,3.63-2.379l1.271-.041v-.465a1.9,1.9,0,0,0-.379-1.3,1.56,1.56,0,0,0-1.213-.42,4.944,4.944,0,0,0-2.119.574l-.349-.868a5.333,5.333,0,0,1,1.213-.472,5.255,5.255,0,0,1,1.323-.171,2.854,2.854,0,0,1,1.986.595,2.482,2.482,0,0,1,.646,1.907V15Zm-2.563-.8a2.3,2.3,0,0,0,1.665-.581,2.15,2.15,0,0,0,.6-1.627v-.677l-1.135.048a4.128,4.128,0,0,0-1.952.42,1.268,1.268,0,0,0-.6,1.159,1.169,1.169,0,0,0,.373.937A1.546,1.546,0,0,0,142.358,14.2Zm10.575-1.244a1.877,1.877,0,0,1-.779,1.613,3.663,3.663,0,0,1-2.187.567,4.757,4.757,0,0,1-2.324-.472V13.612a5.621,5.621,0,0,0,1.159.431,4.839,4.839,0,0,0,1.193.157,2.705,2.705,0,0,0,1.367-.284.977.977,0,0,0,.1-1.613,5.968,5.968,0,0,0-1.48-.735,8.025,8.025,0,0,1-1.487-.68,2.031,2.031,0,0,1-.656-.66,1.72,1.72,0,0,1-.215-.882,1.681,1.681,0,0,1,.745-1.446,3.472,3.472,0,0,1,2.044-.53,5.98,5.98,0,0,1,2.365.492l-.4.923a5.429,5.429,0,0,0-2.044-.465,2.352,2.352,0,0,0-1.217.253.782.782,0,0,0-.41.7.849.849,0,0,0,.154.513,1.518,1.518,0,0,0,.5.4,11.075,11.075,0,0,0,1.313.554,4.9,4.9,0,0,1,1.8.978A1.724,1.724,0,0,1,152.934,12.956Zm8.313-1.709a4.133,4.133,0,0,1-.923,2.861,3.25,3.25,0,0,1-2.55,1.029,3.377,3.377,0,0,1-1.784-.472,3.113,3.113,0,0,1-1.2-1.354,4.717,4.717,0,0,1-.424-2.064,4.127,4.127,0,0,1,.916-2.854,3.24,3.24,0,0,1,2.543-1.022,3.169,3.169,0,0,1,2.5,1.046A4.115,4.115,0,0,1,161.246,11.247Zm-5.708,0a3.556,3.556,0,0,0,.574,2.188,2.279,2.279,0,0,0,3.38,0,3.538,3.538,0,0,0,.578-2.191,3.481,3.481,0,0,0-.578-2.17,2.03,2.03,0,0,0-1.706-.742,2,2,0,0,0-1.682.731A3.52,3.52,0,0,0,155.538,11.247ZM168.362,15V10.153a1.955,1.955,0,0,0-.417-1.367,1.7,1.7,0,0,0-1.306-.451,2.153,2.153,0,0,0-1.723.636,3.21,3.21,0,0,0-.547,2.1V15h-1.135V7.508h.923l.185,1.025h.055a2.317,2.317,0,0,1,.978-.858,3.176,3.176,0,0,1,1.4-.3,2.846,2.846,0,0,1,2.037.653,2.778,2.778,0,0,1,.684,2.088V15Zm8.3-2.044a1.877,1.877,0,0,1-.779,1.613,3.663,3.663,0,0,1-2.187.567,4.757,4.757,0,0,1-2.324-.472V13.612a5.621,5.621,0,0,0,1.159.431,4.839,4.839,0,0,0,1.193.157,2.705,2.705,0,0,0,1.367-.284.977.977,0,0,0,.1-1.613,5.968,5.968,0,0,0-1.48-.735,8.025,8.025,0,0,1-1.487-.68,2.031,2.031,0,0,1-.656-.66,1.72,1.72,0,0,1-.215-.882,1.681,1.681,0,0,1,.745-1.446,3.472,3.472,0,0,1,2.044-.53,5.98,5.98,0,0,1,2.365.492l-.4.923a5.429,5.429,0,0,0-2.044-.465,2.352,2.352,0,0,0-1.217.253.782.782,0,0,0-.41.7.849.849,0,0,0,.154.513,1.518,1.518,0,0,0,.5.4,11.075,11.075,0,0,0,1.313.554,4.9,4.9,0,0,1,1.8.978A1.724,1.724,0,0,1,176.661,12.956ZM188.2,14.2a3.707,3.707,0,0,0,.581-.044,3.761,3.761,0,0,0,.444-.092v.868a2.074,2.074,0,0,1-.543.147,4.081,4.081,0,0,1-.646.058q-2.174,0-2.174-2.29V8.39h-1.073V7.843l1.073-.472.479-1.6H187V7.508h2.174V8.39H187V12.8a1.517,1.517,0,0,0,.321,1.039A1.118,1.118,0,0,0,188.2,14.2Zm8.989-2.953a4.133,4.133,0,0,1-.923,2.861,3.25,3.25,0,0,1-2.55,1.029,3.377,3.377,0,0,1-1.784-.472,3.113,3.113,0,0,1-1.2-1.354,4.717,4.717,0,0,1-.424-2.064,4.127,4.127,0,0,1,.916-2.854,3.24,3.24,0,0,1,2.543-1.022,3.169,3.169,0,0,1,2.5,1.046A4.115,4.115,0,0,1,197.189,11.247Zm-5.708,0a3.556,3.556,0,0,0,.574,2.188,2.279,2.279,0,0,0,3.38,0,3.538,3.538,0,0,0,.578-2.191,3.481,3.481,0,0,0-.578-2.17,2.03,2.03,0,0,0-1.706-.742,2,2,0,0,0-1.682.731A3.52,3.52,0,0,0,191.481,11.247Zm14.5,3.89a3.442,3.442,0,0,1-2.622-1.012,3.917,3.917,0,0,1-.96-2.81,4.344,4.344,0,0,1,.892-2.878,2.963,2.963,0,0,1,2.4-1.066,2.825,2.825,0,0,1,2.229.926,3.55,3.55,0,0,1,.82,2.444v.718h-5.161a2.97,2.97,0,0,0,.667,2,2.305,2.305,0,0,0,1.781.684,6.035,6.035,0,0,0,2.393-.506v1.012a6.005,6.005,0,0,1-1.138.373A6.4,6.4,0,0,1,205.98,15.137Zm-.308-6.815a1.853,1.853,0,0,0-1.439.588,2.71,2.71,0,0,0-.632,1.627h3.917a2.5,2.5,0,0,0-.479-1.644A1.684,1.684,0,0,0,205.673,8.321Zm9.6,6.679-.226-1.066H215a3.153,3.153,0,0,1-1.118.954,3.407,3.407,0,0,1-1.391.25,2.5,2.5,0,0,1-1.747-.574,2.094,2.094,0,0,1-.632-1.634q0-2.27,3.63-2.379l1.271-.041v-.465a1.9,1.9,0,0,0-.379-1.3,1.56,1.56,0,0,0-1.213-.42A4.944,4.944,0,0,0,211.3,8.9l-.349-.868a5.333,5.333,0,0,1,1.213-.472,5.255,5.255,0,0,1,1.323-.171,2.854,2.854,0,0,1,1.986.595,2.482,2.482,0,0,1,.646,1.907V15Zm-2.563-.8a2.3,2.3,0,0,0,1.665-.581,2.15,2.15,0,0,0,.6-1.627v-.677l-1.135.048a4.128,4.128,0,0,0-1.952.42,1.268,1.268,0,0,0-.6,1.159,1.169,1.169,0,0,0,.373.937A1.546,1.546,0,0,0,212.714,14.2Zm8.162,0a3.707,3.707,0,0,0,.581-.044,3.761,3.761,0,0,0,.444-.092v.868a2.074,2.074,0,0,1-.543.147,4.081,4.081,0,0,1-.646.058q-2.174,0-2.174-2.29V8.39h-1.073V7.843l1.073-.472.479-1.6h.656V7.508h2.174V8.39h-2.174V12.8a1.517,1.517,0,0,0,.321,1.039A1.118,1.118,0,0,0,220.876,14.2ZM7.67,35.247a4.133,4.133,0,0,1-.923,2.861A3.25,3.25,0,0,1,4.2,39.137a3.377,3.377,0,0,1-1.784-.472,3.113,3.113,0,0,1-1.2-1.354,4.717,4.717,0,0,1-.424-2.064A4.127,4.127,0,0,1,1.7,32.393a3.24,3.24,0,0,1,2.543-1.022,3.169,3.169,0,0,1,2.5,1.046A4.115,4.115,0,0,1,7.67,35.247Zm-5.708,0a3.556,3.556,0,0,0,.574,2.188,1.993,1.993,0,0,0,1.688.752,2.006,2.006,0,0,0,1.692-.749,3.538,3.538,0,0,0,.578-2.191,3.481,3.481,0,0,0-.578-2.17,2.03,2.03,0,0,0-1.706-.742,2,2,0,0,0-1.682.731A3.52,3.52,0,0,0,1.962,35.247Zm11.115-3.876a4.44,4.44,0,0,1,.9.082l-.157,1.053a3.865,3.865,0,0,0-.82-.1,2,2,0,0,0-1.555.738,2.692,2.692,0,0,0-.646,1.839V39H9.659V31.508H10.6l.13,1.388h.055a3.293,3.293,0,0,1,1-1.128A2.262,2.262,0,0,1,13.077,31.371Zm8.429.137v.718l-1.388.164a2.437,2.437,0,0,1,.492,1.5,2.215,2.215,0,0,1-.752,1.757,3.033,3.033,0,0,1-2.064.656,3.438,3.438,0,0,1-.629-.055,1.117,1.117,0,0,0-.725.964.49.49,0,0,0,.253.455,1.848,1.848,0,0,0,.868.147h1.326a2.97,2.97,0,0,1,1.87.513,1.781,1.781,0,0,1,.653,1.49,2.127,2.127,0,0,1-1,1.9,5.342,5.342,0,0,1-2.912.653,3.979,3.979,0,0,1-2.266-.547,1.766,1.766,0,0,1-.8-1.545,1.735,1.735,0,0,1,.438-1.183,2.228,2.228,0,0,1,1.23-.677,1.187,1.187,0,0,1-.482-.4,1.067,1.067,0,0,1-.195-.636,1.207,1.207,0,0,1,.219-.718,2.3,2.3,0,0,1,.69-.595,2.024,2.024,0,0,1-.947-.813,2.39,2.39,0,0,1-.366-1.312,2.424,2.424,0,0,1,.738-1.9,3.014,3.014,0,0,1,2.092-.667,3.8,3.8,0,0,1,1.06.137Zm-5.975,8.75a1.017,1.017,0,0,0,.513.923,2.83,2.83,0,0,0,1.47.314,4.1,4.1,0,0,0,2.116-.427,1.308,1.308,0,0,0,.687-1.159.917.917,0,0,0-.376-.844,2.92,2.92,0,0,0-1.415-.236h-1.36a1.792,1.792,0,0,0-1.2.369A1.319,1.319,0,0,0,15.531,40.258Zm.615-6.351a1.525,1.525,0,0,0,.444,1.189,1.774,1.774,0,0,0,1.237.4,1.447,1.447,0,0,0,1.661-1.613A1.489,1.489,0,0,0,17.808,32.2a1.665,1.665,0,0,0-1.23.431A1.734,1.734,0,0,0,16.146,33.907ZM27.651,39l-.226-1.066h-.055a3.153,3.153,0,0,1-1.118.954,3.407,3.407,0,0,1-1.391.25,2.5,2.5,0,0,1-1.747-.574,2.094,2.094,0,0,1-.632-1.634q0-2.27,3.63-2.379l1.271-.041v-.465a1.9,1.9,0,0,0-.379-1.3,1.56,1.56,0,0,0-1.213-.42,4.944,4.944,0,0,0-2.119.574l-.349-.868a5.332,5.332,0,0,1,1.213-.472,5.255,5.255,0,0,1,1.323-.171,2.854,2.854,0,0,1,1.986.595,2.482,2.482,0,0,1,.646,1.907V39Zm-2.563-.8a2.3,2.3,0,0,0,1.665-.581,2.15,2.15,0,0,0,.6-1.627v-.677l-1.135.048a4.128,4.128,0,0,0-1.952.42,1.268,1.268,0,0,0-.6,1.159,1.169,1.169,0,0,0,.373.937A1.546,1.546,0,0,0,25.088,38.2Zm10.869.8V34.153a1.955,1.955,0,0,0-.417-1.367,1.7,1.7,0,0,0-1.306-.451,2.153,2.153,0,0,0-1.723.636,3.21,3.21,0,0,0-.547,2.1V39H30.83V31.508h.923l.185,1.025h.055a2.317,2.317,0,0,1,.978-.858,3.176,3.176,0,0,1,1.4-.3,2.846,2.846,0,0,1,2.037.653,2.778,2.778,0,0,1,.684,2.088V39Zm4.6,0H39.423V31.508h1.135Zm-1.23-9.522a.754.754,0,0,1,.191-.571.709.709,0,0,1,.95,0,.74.74,0,0,1,.2.567.752.752,0,0,1-.2.571.694.694,0,0,1-.95,0A.768.768,0,0,1,39.327,29.478Zm6.631,9.659a3.2,3.2,0,0,1-2.519-1,4.118,4.118,0,0,1-.892-2.833,4.247,4.247,0,0,1,.906-2.905,3.261,3.261,0,0,1,2.581-1.025,5.121,5.121,0,0,1,1.08.116,3.558,3.558,0,0,1,.848.273l-.349.964a5.336,5.336,0,0,0-.82-.25,3.663,3.663,0,0,0-.786-.1q-2.283,0-2.283,2.912a3.468,3.468,0,0,0,.557,2.119,1.938,1.938,0,0,0,1.651.738,5.048,5.048,0,0,0,1.921-.4v1A4.094,4.094,0,0,1,45.958,39.137ZM56.643,32.39H54.735V39H53.6V32.39h-1.34v-.513l1.34-.41V31.05q0-2.762,2.413-2.762a4.966,4.966,0,0,1,1.395.239l-.294.909a3.754,3.754,0,0,0-1.121-.212,1.092,1.092,0,0,0-.95.427,2.384,2.384,0,0,0-.308,1.371v.485h1.907Zm7.834,2.857a4.133,4.133,0,0,1-.923,2.861A3.25,3.25,0,0,1,61,39.137a3.377,3.377,0,0,1-1.784-.472,3.113,3.113,0,0,1-1.2-1.354,4.717,4.717,0,0,1-.424-2.064,4.127,4.127,0,0,1,.916-2.854,3.24,3.24,0,0,1,2.543-1.022,3.169,3.169,0,0,1,2.5,1.046A4.115,4.115,0,0,1,64.477,35.247Zm-5.708,0a3.556,3.556,0,0,0,.574,2.188,2.279,2.279,0,0,0,3.38,0,3.538,3.538,0,0,0,.578-2.191,3.481,3.481,0,0,0-.578-2.17,2.03,2.03,0,0,0-1.706-.742,2,2,0,0,0-1.682.731A3.52,3.52,0,0,0,58.769,35.247Zm14.164,0a4.133,4.133,0,0,1-.923,2.861,3.25,3.25,0,0,1-2.55,1.029,3.377,3.377,0,0,1-1.784-.472,3.113,3.113,0,0,1-1.2-1.354,4.717,4.717,0,0,1-.424-2.064,4.127,4.127,0,0,1,.916-2.854,3.24,3.24,0,0,1,2.543-1.022,3.169,3.169,0,0,1,2.5,1.046A4.115,4.115,0,0,1,72.933,35.247Zm-5.708,0a3.556,3.556,0,0,0,.574,2.188,2.279,2.279,0,0,0,3.38,0,3.538,3.538,0,0,0,.578-2.191,3.481,3.481,0,0,0-.578-2.17,2.03,2.03,0,0,0-1.706-.742,2,2,0,0,0-1.682.731A3.52,3.52,0,0,0,67.225,35.247ZM80.021,38H79.96a2.666,2.666,0,0,1-2.352,1.142,2.782,2.782,0,0,1-2.287-1,4.423,4.423,0,0,1-.817-2.857,4.5,4.5,0,0,1,.82-2.878,2.76,2.76,0,0,1,2.283-1.025,2.724,2.724,0,0,1,2.338,1.107h.089l-.048-.54-.027-.526V28.363h1.135V39h-.923Zm-2.27.191a2.066,2.066,0,0,0,1.685-.632,3.2,3.2,0,0,0,.523-2.041v-.239A3.76,3.76,0,0,0,79.43,33a2.012,2.012,0,0,0-1.692-.68,1.737,1.737,0,0,0-1.528.776,3.858,3.858,0,0,0-.53,2.191,3.7,3.7,0,0,0,.526,2.167A1.783,1.783,0,0,0,77.752,38.187Zm5.585.089a1.018,1.018,0,0,1,.208-.694.756.756,0,0,1,.6-.236.809.809,0,0,1,.619.236.976.976,0,0,1,.222.694.959.959,0,0,1-.226.684.9.9,0,0,1-1.193.024A.936.936,0,0,1,83.337,38.275ZM94.11,39H92.948V30.038H89.783V29.006h7.492v1.032H94.11Zm9.625,0V34.153a1.955,1.955,0,0,0-.417-1.367,1.7,1.7,0,0,0-1.306-.451,2.139,2.139,0,0,0-1.726.643,3.255,3.255,0,0,0-.543,2.105V39H98.608V28.363h1.135v3.22a7.015,7.015,0,0,1-.055.964h.068a2.314,2.314,0,0,1,.954-.851,3.1,3.1,0,0,1,1.412-.311,2.891,2.891,0,0,1,2.061.653,2.749,2.749,0,0,1,.687,2.075V39Zm6.631.137a3.442,3.442,0,0,1-2.622-1.012,3.917,3.917,0,0,1-.96-2.81,4.344,4.344,0,0,1,.892-2.878,2.963,2.963,0,0,1,2.4-1.066,2.825,2.825,0,0,1,2.229.926,3.55,3.55,0,0,1,.82,2.444v.718H107.96a2.97,2.97,0,0,0,.667,2,2.305,2.305,0,0,0,1.781.684,6.035,6.035,0,0,0,2.393-.506v1.012a6.005,6.005,0,0,1-1.138.373A6.4,6.4,0,0,1,110.366,39.137Zm-.308-6.815a1.853,1.853,0,0,0-1.439.588,2.71,2.71,0,0,0-.632,1.627H111.9a2.5,2.5,0,0,0-.479-1.644A1.684,1.684,0,0,0,110.059,32.321ZM121.112,38.2a3.707,3.707,0,0,0,.581-.044,3.761,3.761,0,0,0,.444-.092v.868a2.074,2.074,0,0,1-.543.147,4.081,4.081,0,0,1-.646.058q-2.174,0-2.174-2.29V32.39H117.7v-.547l1.073-.472.479-1.6h.656v1.736h2.174v.882h-2.174V36.8a1.517,1.517,0,0,0,.321,1.039A1.118,1.118,0,0,0,121.112,38.2Zm5.688.937a3.442,3.442,0,0,1-2.622-1.012,3.917,3.917,0,0,1-.96-2.81,4.344,4.344,0,0,1,.892-2.878,2.963,2.963,0,0,1,2.4-1.066,2.825,2.825,0,0,1,2.229.926,3.55,3.55,0,0,1,.82,2.444v.718h-5.161a2.97,2.97,0,0,0,.667,2,2.305,2.305,0,0,0,1.781.684,6.035,6.035,0,0,0,2.393-.506v1.012a6.005,6.005,0,0,1-1.138.373A6.4,6.4,0,0,1,126.8,39.137Zm-.308-6.815a1.853,1.853,0,0,0-1.439.588,2.71,2.71,0,0,0-.632,1.627h3.917a2.5,2.5,0,0,0-.479-1.644A1.684,1.684,0,0,0,126.492,32.321Zm8.415-.95a4.44,4.44,0,0,1,.9.082l-.157,1.053a3.865,3.865,0,0,0-.82-.1,2,2,0,0,0-1.555.738,2.692,2.692,0,0,0-.646,1.839V39h-1.135V31.508h.937l.13,1.388h.055a3.294,3.294,0,0,1,1-1.128A2.262,2.262,0,0,1,134.907,31.371ZM146.754,39V34.126a2.023,2.023,0,0,0-.383-1.343,1.481,1.481,0,0,0-1.189-.448,1.92,1.92,0,0,0-1.565.608,2.891,2.891,0,0,0-.506,1.873V39h-1.135V34.126a2.023,2.023,0,0,0-.383-1.343,1.49,1.49,0,0,0-1.2-.448,1.853,1.853,0,0,0-1.562.639,3.459,3.459,0,0,0-.5,2.1V39H137.2V31.508h.923l.185,1.025h.055a2.23,2.23,0,0,1,.906-.854,2.767,2.767,0,0,1,1.309-.308,2.226,2.226,0,0,1,2.3,1.271h.055a2.389,2.389,0,0,1,.971-.93,3.012,3.012,0,0,1,1.449-.342,2.537,2.537,0,0,1,1.9.653,2.921,2.921,0,0,1,.632,2.088V39Zm8.087-9.994-.273,3.609h-.718l-.28-3.609Zm2.522,0-.28,3.609h-.711l-.28-3.609Zm8.579,6.241a4.133,4.133,0,0,1-.923,2.861,3.25,3.25,0,0,1-2.55,1.029,3.377,3.377,0,0,1-1.784-.472,3.113,3.113,0,0,1-1.2-1.354,4.717,4.717,0,0,1-.424-2.064,4.127,4.127,0,0,1,.916-2.854,3.24,3.24,0,0,1,2.543-1.022,3.169,3.169,0,0,1,2.5,1.046A4.115,4.115,0,0,1,165.942,35.247Zm-5.708,0a3.556,3.556,0,0,0,.574,2.188,2.279,2.279,0,0,0,3.38,0,3.538,3.538,0,0,0,.578-2.191,3.481,3.481,0,0,0-.578-2.17,2.03,2.03,0,0,0-1.706-.742,2,2,0,0,0-1.682.731A3.52,3.52,0,0,0,160.234,35.247Zm11.115-3.876a4.44,4.44,0,0,1,.9.082l-.157,1.053a3.865,3.865,0,0,0-.82-.1,2,2,0,0,0-1.555.738,2.692,2.692,0,0,0-.646,1.839V39h-1.135V31.508h.937L169,32.9h.055a3.294,3.294,0,0,1,1-1.128A2.262,2.262,0,0,1,171.35,31.371Zm8.429.137v.718l-1.388.164a2.437,2.437,0,0,1,.492,1.5,2.215,2.215,0,0,1-.752,1.757,3.033,3.033,0,0,1-2.064.656,3.438,3.438,0,0,1-.629-.055,1.117,1.117,0,0,0-.725.964.49.49,0,0,0,.253.455,1.848,1.848,0,0,0,.868.147h1.326a2.97,2.97,0,0,1,1.87.513,1.781,1.781,0,0,1,.653,1.49,2.127,2.127,0,0,1-1,1.9,5.342,5.342,0,0,1-2.912.653,3.979,3.979,0,0,1-2.266-.547,1.766,1.766,0,0,1-.8-1.545,1.735,1.735,0,0,1,.438-1.183,2.228,2.228,0,0,1,1.23-.677,1.187,1.187,0,0,1-.482-.4,1.067,1.067,0,0,1-.195-.636,1.207,1.207,0,0,1,.219-.718,2.3,2.3,0,0,1,.69-.595,2.024,2.024,0,0,1-.947-.813,2.39,2.39,0,0,1-.366-1.312,2.424,2.424,0,0,1,.738-1.9,3.014,3.014,0,0,1,2.092-.667,3.8,3.8,0,0,1,1.06.137Zm-5.975,8.75a1.017,1.017,0,0,0,.513.923,2.83,2.83,0,0,0,1.47.314,4.1,4.1,0,0,0,2.116-.427,1.308,1.308,0,0,0,.687-1.159.917.917,0,0,0-.376-.844,2.92,2.92,0,0,0-1.415-.236h-1.36a1.792,1.792,0,0,0-1.2.369A1.319,1.319,0,0,0,173.8,40.258Zm.615-6.351a1.525,1.525,0,0,0,.444,1.189,1.774,1.774,0,0,0,1.237.4,1.447,1.447,0,0,0,1.661-1.613A1.489,1.489,0,0,0,176.08,32.2a1.665,1.665,0,0,0-1.23.431A1.734,1.734,0,0,0,174.419,33.907ZM185.924,39l-.226-1.066h-.055a3.153,3.153,0,0,1-1.118.954,3.407,3.407,0,0,1-1.391.25,2.5,2.5,0,0,1-1.747-.574,2.094,2.094,0,0,1-.632-1.634q0-2.27,3.63-2.379l1.271-.041v-.465a1.9,1.9,0,0,0-.379-1.3,1.56,1.56,0,0,0-1.213-.42,4.944,4.944,0,0,0-2.119.574l-.349-.868a5.332,5.332,0,0,1,1.213-.472,5.255,5.255,0,0,1,1.323-.171,2.854,2.854,0,0,1,1.986.595,2.482,2.482,0,0,1,.646,1.907V39Zm-2.563-.8a2.3,2.3,0,0,0,1.665-.581,2.15,2.15,0,0,0,.6-1.627v-.677l-1.135.048a4.128,4.128,0,0,0-1.952.42,1.268,1.268,0,0,0-.6,1.159,1.169,1.169,0,0,0,.373.937A1.546,1.546,0,0,0,183.36,38.2Zm10.869.8V34.153a1.955,1.955,0,0,0-.417-1.367,1.7,1.7,0,0,0-1.306-.451,2.153,2.153,0,0,0-1.723.636,3.21,3.21,0,0,0-.547,2.1V39H189.1V31.508h.923l.185,1.025h.055a2.317,2.317,0,0,1,.978-.858,3.176,3.176,0,0,1,1.4-.3,2.846,2.846,0,0,1,2.037.653,2.778,2.778,0,0,1,.684,2.088V39Zm4.6,0H197.7V31.508h1.135Zm-1.23-9.522a.754.754,0,0,1,.191-.571.709.709,0,0,1,.95,0,.74.74,0,0,1,.2.567.752.752,0,0,1-.2.571.694.694,0,0,1-.95,0A.768.768,0,0,1,197.6,29.478Zm6.631,9.659a3.2,3.2,0,0,1-2.519-1,4.118,4.118,0,0,1-.892-2.833,4.247,4.247,0,0,1,.906-2.905,3.261,3.261,0,0,1,2.581-1.025,5.121,5.121,0,0,1,1.08.116,3.558,3.558,0,0,1,.848.273l-.349.964a5.336,5.336,0,0,0-.82-.25,3.663,3.663,0,0,0-.786-.1q-2.283,0-2.283,2.912a3.468,3.468,0,0,0,.557,2.119,1.938,1.938,0,0,0,1.651.738,5.048,5.048,0,0,0,1.921-.4v1A4.094,4.094,0,0,1,204.23,39.137Zm4.648-10.131-.273,3.609h-.718l-.28-3.609Zm2.522,0-.28,3.609h-.711l-.28-3.609ZM2.338,63H1.2V55.508H2.338Zm-1.23-9.522a.754.754,0,0,1,.191-.571.669.669,0,0,1,.479-.181.669.669,0,0,1,.472.185.74.74,0,0,1,.2.567.752.752,0,0,1-.2.571.662.662,0,0,1-.472.188.655.655,0,0,1-.479-.188A.768.768,0,0,1,1.107,53.478ZM9.871,63V58.153a1.955,1.955,0,0,0-.417-1.367,1.7,1.7,0,0,0-1.306-.451,2.153,2.153,0,0,0-1.723.636,3.21,3.21,0,0,0-.547,2.1V63H4.744V55.508h.923l.185,1.025h.055a2.317,2.317,0,0,1,.978-.858,3.176,3.176,0,0,1,1.4-.3,2.846,2.846,0,0,1,2.037.653,2.778,2.778,0,0,1,.684,2.088V63Zm8.565-1h-.062a2.666,2.666,0,0,1-2.352,1.142,2.782,2.782,0,0,1-2.287-1,4.423,4.423,0,0,1-.817-2.857,4.5,4.5,0,0,1,.82-2.878,2.76,2.76,0,0,1,2.283-1.025,2.724,2.724,0,0,1,2.338,1.107h.089l-.048-.54-.027-.526V52.363H19.51V63h-.923Zm-2.27.191a2.066,2.066,0,0,0,1.685-.632,3.2,3.2,0,0,0,.523-2.041v-.239A3.76,3.76,0,0,0,17.845,57a2.012,2.012,0,0,0-1.692-.68,1.737,1.737,0,0,0-1.528.776,3.858,3.858,0,0,0-.53,2.191,3.7,3.7,0,0,0,.526,2.167A1.783,1.783,0,0,0,16.167,62.187ZM23.051,63H21.916V55.508h1.135Zm-1.23-9.522a.754.754,0,0,1,.191-.571.709.709,0,0,1,.95,0,.74.74,0,0,1,.2.567.752.752,0,0,1-.2.571.694.694,0,0,1-.95,0A.768.768,0,0,1,21.82,53.478Zm6.631,9.659a3.2,3.2,0,0,1-2.519-1A4.118,4.118,0,0,1,25.04,59.3a4.247,4.247,0,0,1,.906-2.905,3.261,3.261,0,0,1,2.581-1.025,5.121,5.121,0,0,1,1.08.116,3.558,3.558,0,0,1,.848.273l-.349.964a5.336,5.336,0,0,0-.82-.25,3.663,3.663,0,0,0-.786-.1q-2.283,0-2.283,2.912a3.467,3.467,0,0,0,.557,2.119,1.938,1.938,0,0,0,1.651.738,5.048,5.048,0,0,0,1.921-.4v1A4.094,4.094,0,0,1,28.451,63.137ZM36.729,63,36.5,61.934h-.055a3.153,3.153,0,0,1-1.118.954,3.407,3.407,0,0,1-1.391.25,2.5,2.5,0,0,1-1.747-.574,2.094,2.094,0,0,1-.632-1.634q0-2.27,3.63-2.379l1.271-.041v-.465a1.9,1.9,0,0,0-.379-1.3,1.56,1.56,0,0,0-1.213-.42,4.944,4.944,0,0,0-2.119.574l-.349-.868a5.332,5.332,0,0,1,1.213-.472,5.255,5.255,0,0,1,1.323-.171,2.854,2.854,0,0,1,1.986.595,2.482,2.482,0,0,1,.646,1.907V63Zm-2.563-.8a2.3,2.3,0,0,0,1.665-.581,2.15,2.15,0,0,0,.6-1.627v-.677l-1.135.048a4.128,4.128,0,0,0-1.952.42,1.268,1.268,0,0,0-.6,1.159,1.169,1.169,0,0,0,.373.937A1.546,1.546,0,0,0,34.166,62.2Zm8.162,0a3.707,3.707,0,0,0,.581-.044,3.761,3.761,0,0,0,.444-.092v.868a2.074,2.074,0,0,1-.543.147,4.081,4.081,0,0,1-.646.058q-2.174,0-2.174-2.29V56.39H38.917v-.547l1.073-.472.479-1.6h.656v1.736H43.3v.882H41.125V60.8a1.517,1.517,0,0,0,.321,1.039A1.118,1.118,0,0,0,42.328,62.2Zm5.688.937a3.442,3.442,0,0,1-2.622-1.012,3.917,3.917,0,0,1-.96-2.81,4.344,4.344,0,0,1,.892-2.878,2.963,2.963,0,0,1,2.4-1.066,2.825,2.825,0,0,1,2.229.926,3.55,3.55,0,0,1,.82,2.444v.718H45.609a2.97,2.97,0,0,0,.667,2,2.305,2.305,0,0,0,1.781.684,6.035,6.035,0,0,0,2.393-.506v1.012a6.005,6.005,0,0,1-1.138.373A6.4,6.4,0,0,1,48.016,63.137Zm-.308-6.815a1.853,1.853,0,0,0-1.439.588,2.71,2.71,0,0,0-.632,1.627h3.917a2.5,2.5,0,0,0-.479-1.644A1.684,1.684,0,0,0,47.708,56.321Zm9.83,4.635a1.877,1.877,0,0,1-.779,1.613,3.663,3.663,0,0,1-2.187.567,4.757,4.757,0,0,1-2.324-.472V61.612a5.621,5.621,0,0,0,1.159.431A4.839,4.839,0,0,0,54.6,62.2a2.705,2.705,0,0,0,1.367-.284.977.977,0,0,0,.1-1.613,5.968,5.968,0,0,0-1.48-.735,8.025,8.025,0,0,1-1.487-.68,2.031,2.031,0,0,1-.656-.66,1.72,1.72,0,0,1-.215-.882,1.681,1.681,0,0,1,.745-1.446,3.472,3.472,0,0,1,2.044-.53,5.98,5.98,0,0,1,2.365.492l-.4.923a5.429,5.429,0,0,0-2.044-.465,2.352,2.352,0,0,0-1.217.253.782.782,0,0,0-.41.7.849.849,0,0,0,.154.513,1.518,1.518,0,0,0,.5.4,11.075,11.075,0,0,0,1.313.554,4.9,4.9,0,0,1,1.8.978A1.724,1.724,0,0,1,57.538,60.956Zm7.9,1.244a3.707,3.707,0,0,0,.581-.044,3.761,3.761,0,0,0,.444-.092v.868a2.074,2.074,0,0,1-.543.147,4.081,4.081,0,0,1-.646.058q-2.174,0-2.174-2.29V56.39H62.029v-.547l1.073-.472.479-1.6h.656v1.736h2.174v.882H64.237V60.8a1.517,1.517,0,0,0,.321,1.039A1.118,1.118,0,0,0,65.44,62.2Zm7.649.8V58.153a1.955,1.955,0,0,0-.417-1.367,1.7,1.7,0,0,0-1.306-.451,2.139,2.139,0,0,0-1.726.643,3.255,3.255,0,0,0-.543,2.105V63H67.963V52.363H69.1v3.22a7.015,7.015,0,0,1-.055.964h.068a2.314,2.314,0,0,1,.954-.851,3.1,3.1,0,0,1,1.412-.311,2.891,2.891,0,0,1,2.061.653,2.749,2.749,0,0,1,.687,2.075V63Zm8.073,0-.226-1.066h-.055a3.153,3.153,0,0,1-1.118.954,3.407,3.407,0,0,1-1.391.25,2.5,2.5,0,0,1-1.747-.574A2.094,2.094,0,0,1,76,60.929q0-2.27,3.63-2.379l1.271-.041v-.465a1.9,1.9,0,0,0-.379-1.3,1.56,1.56,0,0,0-1.213-.42,4.944,4.944,0,0,0-2.119.574l-.349-.868a5.332,5.332,0,0,1,1.213-.472,5.255,5.255,0,0,1,1.323-.171,2.854,2.854,0,0,1,1.986.595A2.482,2.482,0,0,1,82,57.887V63ZM78.6,62.2a2.3,2.3,0,0,0,1.665-.581,2.15,2.15,0,0,0,.6-1.627v-.677l-1.135.048a4.128,4.128,0,0,0-1.952.42,1.268,1.268,0,0,0-.6,1.159,1.169,1.169,0,0,0,.373.937A1.546,1.546,0,0,0,78.6,62.2Zm8.162,0a3.707,3.707,0,0,0,.581-.044,3.761,3.761,0,0,0,.444-.092v.868a2.074,2.074,0,0,1-.543.147,4.081,4.081,0,0,1-.646.058q-2.174,0-2.174-2.29V56.39H83.351v-.547l1.073-.472.479-1.6h.656v1.736h2.174v.882H85.559V60.8a1.517,1.517,0,0,0,.321,1.039A1.118,1.118,0,0,0,86.762,62.2Zm8.579,0a3.707,3.707,0,0,0,.581-.044,3.761,3.761,0,0,0,.444-.092v.868a2.074,2.074,0,0,1-.543.147,4.081,4.081,0,0,1-.646.058Q93,63.137,93,60.847V56.39H91.93v-.547L93,55.371l.479-1.6h.656v1.736h2.174v.882H94.138V60.8a1.517,1.517,0,0,0,.321,1.039A1.118,1.118,0,0,0,95.341,62.2Zm7.649.8V58.153a1.955,1.955,0,0,0-.417-1.367,1.7,1.7,0,0,0-1.306-.451,2.139,2.139,0,0,0-1.726.643A3.255,3.255,0,0,0,99,59.083V63H97.863V52.363H99v3.22a7.015,7.015,0,0,1-.055.964h.068a2.314,2.314,0,0,1,.954-.851,3.1,3.1,0,0,1,1.412-.311,2.891,2.891,0,0,1,2.061.653,2.749,2.749,0,0,1,.687,2.075V63Zm6.631.137A3.442,3.442,0,0,1,107,62.125a3.917,3.917,0,0,1-.96-2.81,4.344,4.344,0,0,1,.892-2.878,2.963,2.963,0,0,1,2.4-1.066,2.825,2.825,0,0,1,2.229.926,3.55,3.55,0,0,1,.82,2.444v.718h-5.161a2.97,2.97,0,0,0,.667,2,2.305,2.305,0,0,0,1.781.684,6.035,6.035,0,0,0,2.393-.506v1.012a6.005,6.005,0,0,1-1.138.373A6.4,6.4,0,0,1,109.621,63.137Zm-.308-6.815a1.853,1.853,0,0,0-1.439.588,2.71,2.71,0,0,0-.632,1.627h3.917a2.5,2.5,0,0,0-.479-1.644A1.684,1.684,0,0,0,109.313,56.321Zm12.011.068h-1.907V63h-1.135V56.39h-1.34v-.513l1.34-.41V55.05q0-2.762,2.413-2.762a4.966,4.966,0,0,1,1.395.239l-.294.909a3.754,3.754,0,0,0-1.121-.212,1.092,1.092,0,0,0-.95.427,2.384,2.384,0,0,0-.308,1.371v.485h1.907Zm7.834,2.857a4.133,4.133,0,0,1-.923,2.861,3.25,3.25,0,0,1-2.55,1.029,3.377,3.377,0,0,1-1.784-.472,3.113,3.113,0,0,1-1.2-1.354,4.717,4.717,0,0,1-.424-2.064,4.127,4.127,0,0,1,.916-2.854,3.24,3.24,0,0,1,2.543-1.022,3.169,3.169,0,0,1,2.5,1.046A4.115,4.115,0,0,1,129.158,59.247Zm-5.708,0a3.556,3.556,0,0,0,.574,2.188,2.279,2.279,0,0,0,3.38,0,3.538,3.538,0,0,0,.578-2.191,3.481,3.481,0,0,0-.578-2.17,2.03,2.03,0,0,0-1.706-.742,2,2,0,0,0-1.682.731A3.52,3.52,0,0,0,123.45,59.247Zm14.164,0a4.133,4.133,0,0,1-.923,2.861,3.25,3.25,0,0,1-2.55,1.029,3.377,3.377,0,0,1-1.784-.472,3.113,3.113,0,0,1-1.2-1.354,4.717,4.717,0,0,1-.424-2.064,4.127,4.127,0,0,1,.916-2.854,3.24,3.24,0,0,1,2.543-1.022,3.169,3.169,0,0,1,2.5,1.046A4.115,4.115,0,0,1,137.614,59.247Zm-5.708,0a3.556,3.556,0,0,0,.574,2.188,2.279,2.279,0,0,0,3.38,0,3.538,3.538,0,0,0,.578-2.191,3.481,3.481,0,0,0-.578-2.17,2.03,2.03,0,0,0-1.706-.742,2,2,0,0,0-1.682.731A3.52,3.52,0,0,0,131.906,59.247ZM144.7,62h-.062a2.666,2.666,0,0,1-2.352,1.142,2.782,2.782,0,0,1-2.287-1,4.423,4.423,0,0,1-.817-2.857,4.5,4.5,0,0,1,.82-2.878,2.76,2.76,0,0,1,2.283-1.025,2.724,2.724,0,0,1,2.338,1.107h.089l-.048-.54-.027-.526V52.363h1.135V63h-.923Zm-2.27.191a2.066,2.066,0,0,0,1.685-.632,3.2,3.2,0,0,0,.523-2.041v-.239a3.76,3.76,0,0,0-.53-2.273,2.012,2.012,0,0,0-1.692-.68,1.737,1.737,0,0,0-1.528.776,3.858,3.858,0,0,0-.53,2.191,3.7,3.7,0,0,0,.526,2.167A1.783,1.783,0,0,0,142.434,62.187ZM160.583,63V58.153a1.955,1.955,0,0,0-.417-1.367,1.7,1.7,0,0,0-1.306-.451,2.139,2.139,0,0,0-1.726.643,3.255,3.255,0,0,0-.543,2.105V63h-1.135V52.363h1.135v3.22a7.016,7.016,0,0,1-.055.964h.068a2.314,2.314,0,0,1,.954-.851,3.1,3.1,0,0,1,1.412-.311,2.891,2.891,0,0,1,2.061.653,2.749,2.749,0,0,1,.687,2.075V63Zm8.073,0-.226-1.066h-.055a3.153,3.153,0,0,1-1.118.954,3.407,3.407,0,0,1-1.391.25,2.5,2.5,0,0,1-1.747-.574,2.094,2.094,0,0,1-.632-1.634q0-2.27,3.63-2.379l1.271-.041v-.465a1.9,1.9,0,0,0-.379-1.3,1.56,1.56,0,0,0-1.213-.42,4.944,4.944,0,0,0-2.119.574l-.349-.868a5.333,5.333,0,0,1,1.213-.472,5.255,5.255,0,0,1,1.323-.171,2.854,2.854,0,0,1,1.986.595,2.482,2.482,0,0,1,.646,1.907V63Zm-2.563-.8a2.3,2.3,0,0,0,1.665-.581,2.15,2.15,0,0,0,.6-1.627v-.677l-1.135.048a4.128,4.128,0,0,0-1.952.42,1.268,1.268,0,0,0-.6,1.159,1.169,1.169,0,0,0,.373.937A1.546,1.546,0,0,0,166.093,62.2Zm10.575-1.244a1.877,1.877,0,0,1-.779,1.613,3.663,3.663,0,0,1-2.187.567,4.757,4.757,0,0,1-2.324-.472V61.612a5.621,5.621,0,0,0,1.159.431,4.839,4.839,0,0,0,1.193.157,2.705,2.705,0,0,0,1.367-.284.977.977,0,0,0,.1-1.613,5.968,5.968,0,0,0-1.48-.735,8.025,8.025,0,0,1-1.487-.68,2.031,2.031,0,0,1-.656-.66,1.72,1.72,0,0,1-.215-.882A1.681,1.681,0,0,1,172.1,55.9a3.472,3.472,0,0,1,2.044-.53,5.98,5.98,0,0,1,2.365.492l-.4.923a5.429,5.429,0,0,0-2.044-.465,2.352,2.352,0,0,0-1.217.253.782.782,0,0,0-.41.7.849.849,0,0,0,.154.513,1.518,1.518,0,0,0,.5.4,11.074,11.074,0,0,0,1.313.554,4.9,4.9,0,0,1,1.8.978A1.724,1.724,0,0,1,176.668,60.956Zm12.605-5.571a2.785,2.785,0,0,1,2.293,1.008,5.4,5.4,0,0,1-.007,5.722,2.774,2.774,0,0,1-2.287,1.022,3.242,3.242,0,0,1-1.336-.27,2.513,2.513,0,0,1-1.015-.831h-.082L186.6,63h-.813V52.363h1.135v2.584q0,.868-.055,1.559h.055A2.694,2.694,0,0,1,189.273,55.385Zm-.164.95a1.981,1.981,0,0,0-1.675.667,3.76,3.76,0,0,0-.513,2.246,3.749,3.749,0,0,0,.526,2.259,2,2,0,0,0,1.688.68,1.75,1.75,0,0,0,1.559-.762,3.917,3.917,0,0,0,.513-2.191,3.765,3.765,0,0,0-.513-2.181A1.817,1.817,0,0,0,189.109,56.335Zm8.422,6.8a3.442,3.442,0,0,1-2.622-1.012,3.917,3.917,0,0,1-.96-2.81,4.344,4.344,0,0,1,.892-2.878,2.963,2.963,0,0,1,2.4-1.066,2.825,2.825,0,0,1,2.229.926,3.55,3.55,0,0,1,.82,2.444v.718h-5.161a2.97,2.97,0,0,0,.667,2,2.305,2.305,0,0,0,1.781.684,6.035,6.035,0,0,0,2.393-.506v1.012a6.005,6.005,0,0,1-1.138.373A6.4,6.4,0,0,1,197.531,63.137Zm-.308-6.815a1.853,1.853,0,0,0-1.439.588,2.71,2.71,0,0,0-.632,1.627h3.917a2.5,2.5,0,0,0-.479-1.644A1.684,1.684,0,0,0,197.224,56.321Zm8.162,6.815a3.442,3.442,0,0,1-2.622-1.012,3.917,3.917,0,0,1-.96-2.81,4.344,4.344,0,0,1,.892-2.878,2.963,2.963,0,0,1,2.4-1.066,2.825,2.825,0,0,1,2.229.926,3.55,3.55,0,0,1,.82,2.444v.718h-5.161a2.97,2.97,0,0,0,.667,2,2.305,2.305,0,0,0,1.781.684,6.035,6.035,0,0,0,2.393-.506v1.012a6.005,6.005,0,0,1-1.138.373A6.4,6.4,0,0,1,205.386,63.137Zm-.308-6.815a1.853,1.853,0,0,0-1.439.588,2.71,2.71,0,0,0-.632,1.627h3.917a2.5,2.5,0,0,0-.479-1.644A1.684,1.684,0,0,0,205.078,56.321ZM215.2,63V58.153a1.955,1.955,0,0,0-.417-1.367,1.7,1.7,0,0,0-1.306-.451,2.153,2.153,0,0,0-1.723.636,3.21,3.21,0,0,0-.547,2.1V63h-1.135V55.508H211l.185,1.025h.055a2.317,2.317,0,0,1,.978-.858,3.176,3.176,0,0,1,1.4-.3,2.846,2.846,0,0,1,2.037.653,2.778,2.778,0,0,1,.684,2.088V63ZM7.335,79.508v.718l-1.388.164a2.437,2.437,0,0,1,.492,1.5,2.215,2.215,0,0,1-.752,1.757,3.033,3.033,0,0,1-2.064.656,3.438,3.438,0,0,1-.629-.055,1.117,1.117,0,0,0-.725.964.49.49,0,0,0,.253.455,1.848,1.848,0,0,0,.868.147H4.717a2.97,2.97,0,0,1,1.87.513,1.781,1.781,0,0,1,.653,1.49,2.127,2.127,0,0,1-1,1.9,5.342,5.342,0,0,1-2.912.653,3.979,3.979,0,0,1-2.266-.547,1.766,1.766,0,0,1-.8-1.545A1.735,1.735,0,0,1,.7,87.089a2.228,2.228,0,0,1,1.23-.677,1.187,1.187,0,0,1-.482-.4,1.067,1.067,0,0,1-.195-.636,1.207,1.207,0,0,1,.219-.718,2.3,2.3,0,0,1,.69-.595,2.024,2.024,0,0,1-.947-.813,2.39,2.39,0,0,1-.366-1.312,2.424,2.424,0,0,1,.738-1.9,3.014,3.014,0,0,1,2.092-.667,3.8,3.8,0,0,1,1.06.137ZM1.36,88.258a1.017,1.017,0,0,0,.513.923,2.83,2.83,0,0,0,1.47.314,4.1,4.1,0,0,0,2.116-.427,1.308,1.308,0,0,0,.687-1.159.917.917,0,0,0-.376-.844,2.92,2.92,0,0,0-1.415-.236H2.994a1.792,1.792,0,0,0-1.2.369A1.319,1.319,0,0,0,1.36,88.258Zm.615-6.351A1.525,1.525,0,0,0,2.42,83.1a1.774,1.774,0,0,0,1.237.4,1.447,1.447,0,0,0,1.661-1.613A1.489,1.489,0,0,0,3.637,80.2a1.665,1.665,0,0,0-1.23.431A1.734,1.734,0,0,0,1.976,81.907Zm10.315-2.536a4.44,4.44,0,0,1,.9.082l-.157,1.053a3.865,3.865,0,0,0-.82-.1,2,2,0,0,0-1.555.738,2.692,2.692,0,0,0-.646,1.839V87H8.873V79.508H9.81l.13,1.388h.055a3.293,3.293,0,0,1,1-1.128A2.262,2.262,0,0,1,12.291,79.371Zm8.764,3.876a4.133,4.133,0,0,1-.923,2.861,3.25,3.25,0,0,1-2.55,1.029,3.377,3.377,0,0,1-1.784-.472,3.113,3.113,0,0,1-1.2-1.354,4.717,4.717,0,0,1-.424-2.064,4.127,4.127,0,0,1,.916-2.854,3.24,3.24,0,0,1,2.543-1.022,3.169,3.169,0,0,1,2.5,1.046A4.115,4.115,0,0,1,21.055,83.247Zm-5.708,0a3.556,3.556,0,0,0,.574,2.188,1.993,1.993,0,0,0,1.688.752,2.006,2.006,0,0,0,1.692-.749,3.538,3.538,0,0,0,.578-2.191,3.481,3.481,0,0,0-.578-2.17,2.03,2.03,0,0,0-1.706-.742,2,2,0,0,0-1.682.731A3.52,3.52,0,0,0,15.347,83.247ZM29.162,87l-1.374-4.4q-.13-.4-.485-1.832h-.055q-.273,1.2-.479,1.846L25.354,87H24.042L22,79.508h1.189l1.1,4.3a17.421,17.421,0,0,1,.434,1.989h.055q.075-.39.243-1.008t.291-.981l1.374-4.3h1.23l1.34,4.3a14.513,14.513,0,0,1,.52,1.976h.055a7.246,7.246,0,0,1,.147-.759q.12-.513,1.425-5.517H32.58L30.509,87Zm9.9,0V82.153a1.955,1.955,0,0,0-.417-1.367,1.7,1.7,0,0,0-1.306-.451,2.153,2.153,0,0,0-1.723.636,3.21,3.21,0,0,0-.547,2.1V87H33.934V79.508h.923l.185,1.025H35.1a2.317,2.317,0,0,1,.978-.858,3.176,3.176,0,0,1,1.4-.3,2.846,2.846,0,0,1,2.037.653,2.778,2.778,0,0,1,.684,2.088V87Zm16.857,0-1.374-4.4q-.13-.4-.485-1.832H54q-.273,1.2-.479,1.846L52.11,87H50.8l-2.044-7.492h1.189l1.1,4.3a17.421,17.421,0,0,1,.434,1.989h.055q.075-.39.243-1.008t.291-.981l1.374-4.3h1.23l1.34,4.3a14.513,14.513,0,0,1,.52,1.976h.055a7.246,7.246,0,0,1,.147-.759q.12-.513,1.425-5.517h1.176L57.265,87Zm5.906,0H60.689V79.508h1.135Zm-1.23-9.522a.754.754,0,0,1,.191-.571.709.709,0,0,1,.95,0,.74.74,0,0,1,.2.567.752.752,0,0,1-.2.571.694.694,0,0,1-.95,0A.768.768,0,0,1,60.594,77.478ZM66.65,86.2a3.707,3.707,0,0,0,.581-.044,3.762,3.762,0,0,0,.444-.092v.868a2.074,2.074,0,0,1-.543.147,4.081,4.081,0,0,1-.646.058q-2.174,0-2.174-2.29V80.39H63.239v-.547l1.073-.472.479-1.6h.656v1.736h2.174v.882H65.447V84.8a1.517,1.517,0,0,0,.321,1.039A1.118,1.118,0,0,0,66.65,86.2ZM74.3,87V82.153a1.955,1.955,0,0,0-.417-1.367,1.7,1.7,0,0,0-1.306-.451,2.139,2.139,0,0,0-1.726.643,3.255,3.255,0,0,0-.543,2.105V87H69.173V76.363h1.135v3.22a7.015,7.015,0,0,1-.055.964h.068a2.314,2.314,0,0,1,.954-.851,3.1,3.1,0,0,1,1.412-.311,2.891,2.891,0,0,1,2.061.653,2.749,2.749,0,0,1,.687,2.075V87Zm9.933-3.753a4.133,4.133,0,0,1-.923,2.861,3.25,3.25,0,0,1-2.55,1.029,3.377,3.377,0,0,1-1.784-.472,3.113,3.113,0,0,1-1.2-1.354,4.717,4.717,0,0,1-.424-2.064,4.127,4.127,0,0,1,.916-2.854,3.24,3.24,0,0,1,2.543-1.022,3.169,3.169,0,0,1,2.5,1.046A4.115,4.115,0,0,1,84.232,83.247Zm-5.708,0a3.556,3.556,0,0,0,.574,2.188,2.279,2.279,0,0,0,3.38,0,3.538,3.538,0,0,0,.578-2.191,3.481,3.481,0,0,0-.578-2.17,2.03,2.03,0,0,0-1.706-.742,2,2,0,0,0-1.682.731A3.52,3.52,0,0,0,78.524,83.247Zm8.764-3.739v4.86a1.955,1.955,0,0,0,.417,1.367,1.7,1.7,0,0,0,1.306.451,2.13,2.13,0,0,0,1.719-.643,3.241,3.241,0,0,0,.543-2.1V79.508h1.135V87h-.937l-.164-1h-.062a2.262,2.262,0,0,1-.967.848,3.251,3.251,0,0,1-1.412.294,2.864,2.864,0,0,1-2.047-.649,2.764,2.764,0,0,1-.68-2.078v-4.9ZM97.234,86.2a3.707,3.707,0,0,0,.581-.044,3.762,3.762,0,0,0,.444-.092v.868a2.074,2.074,0,0,1-.543.147,4.081,4.081,0,0,1-.646.058q-2.174,0-2.174-2.29V80.39H93.823v-.547l1.073-.472.479-1.6h.656v1.736h2.174v.882H96.031V84.8a1.517,1.517,0,0,0,.321,1.039A1.118,1.118,0,0,0,97.234,86.2Zm13.282.937a3.242,3.242,0,0,1-1.336-.27,2.513,2.513,0,0,1-1.015-.831h-.082a10.049,10.049,0,0,1,.082,1.244v3.083H107.03V79.508h.923l.157,1.025h.055a2.635,2.635,0,0,1,1.019-.889,3.1,3.1,0,0,1,1.333-.273,2.769,2.769,0,0,1,2.3,1.019,5.424,5.424,0,0,1-.014,5.725A2.774,2.774,0,0,1,110.517,87.137Zm-.164-6.8a2.011,2.011,0,0,0-1.661.636,3.271,3.271,0,0,0-.526,2.023v.253a3.749,3.749,0,0,0,.526,2.259,2,2,0,0,0,1.688.68A1.756,1.756,0,0,0,111.9,85.4a3.728,3.728,0,0,0,.55-2.167,3.588,3.588,0,0,0-.55-2.15A1.81,1.81,0,0,0,110.353,80.335Zm8.422,6.8a3.442,3.442,0,0,1-2.622-1.012,3.917,3.917,0,0,1-.96-2.81,4.344,4.344,0,0,1,.892-2.878,2.963,2.963,0,0,1,2.4-1.066,2.825,2.825,0,0,1,2.229.926,3.55,3.55,0,0,1,.82,2.444v.718h-5.161a2.97,2.97,0,0,0,.667,2,2.305,2.305,0,0,0,1.781.684,6.035,6.035,0,0,0,2.393-.506v1.012a6,6,0,0,1-1.138.373A6.4,6.4,0,0,1,118.774,87.137Zm-.308-6.815a1.853,1.853,0,0,0-1.439.588,2.71,2.71,0,0,0-.632,1.627h3.917a2.5,2.5,0,0,0-.479-1.644A1.684,1.684,0,0,0,118.467,80.321Zm9.83,4.635a1.877,1.877,0,0,1-.779,1.613,3.663,3.663,0,0,1-2.187.567,4.757,4.757,0,0,1-2.324-.472V85.612a5.621,5.621,0,0,0,1.159.431,4.838,4.838,0,0,0,1.193.157,2.705,2.705,0,0,0,1.367-.284.977.977,0,0,0,.1-1.613,5.968,5.968,0,0,0-1.48-.735,8.025,8.025,0,0,1-1.487-.68,2.031,2.031,0,0,1-.656-.66,1.72,1.72,0,0,1-.215-.882,1.681,1.681,0,0,1,.745-1.446,3.472,3.472,0,0,1,2.044-.53,5.98,5.98,0,0,1,2.365.492l-.4.923a5.429,5.429,0,0,0-2.044-.465,2.352,2.352,0,0,0-1.217.253.782.782,0,0,0-.41.7.849.849,0,0,0,.154.513,1.518,1.518,0,0,0,.5.4,11.077,11.077,0,0,0,1.313.554,4.9,4.9,0,0,1,1.8.978A1.724,1.724,0,0,1,128.3,84.956Zm4.266,1.244a3.707,3.707,0,0,0,.581-.044,3.762,3.762,0,0,0,.444-.092v.868a2.074,2.074,0,0,1-.543.147,4.081,4.081,0,0,1-.646.058q-2.174,0-2.174-2.29V80.39h-1.073v-.547l1.073-.472.479-1.6h.656v1.736h2.174v.882h-2.174V84.8a1.517,1.517,0,0,0,.321,1.039A1.118,1.118,0,0,0,132.563,86.2Zm3.657.8h-1.135V79.508h1.135Zm-1.23-9.522a.754.754,0,0,1,.191-.571.709.709,0,0,1,.95,0,.74.74,0,0,1,.2.567.752.752,0,0,1-.2.571.694.694,0,0,1-.95,0A.768.768,0,0,1,134.989,77.478Zm6.631,9.659a3.2,3.2,0,0,1-2.519-1,4.118,4.118,0,0,1-.892-2.833,4.247,4.247,0,0,1,.906-2.905,3.261,3.261,0,0,1,2.581-1.025,5.121,5.121,0,0,1,1.08.116,3.558,3.558,0,0,1,.848.273l-.349.964a5.336,5.336,0,0,0-.82-.25,3.663,3.663,0,0,0-.786-.1q-2.283,0-2.283,2.912a3.468,3.468,0,0,0,.557,2.119,1.938,1.938,0,0,0,1.651.738,5.048,5.048,0,0,0,1.921-.4v1A4.094,4.094,0,0,1,141.62,87.137ZM146.426,87h-1.135V79.508h1.135Zm-1.23-9.522a.754.754,0,0,1,.191-.571.709.709,0,0,1,.95,0,.74.74,0,0,1,.2.567.752.752,0,0,1-.2.571.694.694,0,0,1-.95,0A.768.768,0,0,1,145.2,77.478ZM153.932,86h-.062a2.666,2.666,0,0,1-2.352,1.142,2.782,2.782,0,0,1-2.287-1,4.423,4.423,0,0,1-.817-2.857,4.5,4.5,0,0,1,.82-2.878,2.76,2.76,0,0,1,2.283-1.025,2.724,2.724,0,0,1,2.338,1.107h.089l-.048-.54-.027-.526V76.363H155V87h-.923Zm-2.27.191a2.066,2.066,0,0,0,1.685-.632,3.2,3.2,0,0,0,.523-2.041v-.239A3.76,3.76,0,0,0,153.34,81a2.012,2.012,0,0,0-1.692-.68,1.737,1.737,0,0,0-1.528.776,3.858,3.858,0,0,0-.53,2.191,3.7,3.7,0,0,0,.526,2.167A1.783,1.783,0,0,0,151.662,86.187Zm8.914.95a3.442,3.442,0,0,1-2.622-1.012,3.917,3.917,0,0,1-.96-2.81,4.344,4.344,0,0,1,.892-2.878,2.963,2.963,0,0,1,2.4-1.066,2.825,2.825,0,0,1,2.229.926,3.55,3.55,0,0,1,.82,2.444v.718H158.17a2.97,2.97,0,0,0,.667,2,2.305,2.305,0,0,0,1.781.684,6.034,6.034,0,0,0,2.393-.506v1.012a6.005,6.005,0,0,1-1.138.373A6.4,6.4,0,0,1,160.576,87.137Zm-.308-6.815a1.853,1.853,0,0,0-1.439.588,2.71,2.71,0,0,0-.632,1.627h3.917a2.5,2.5,0,0,0-.479-1.644A1.684,1.684,0,0,0,160.269,80.321Zm9.83,4.635a1.877,1.877,0,0,1-.779,1.613,3.663,3.663,0,0,1-2.187.567,4.757,4.757,0,0,1-2.324-.472V85.612a5.621,5.621,0,0,0,1.159.431,4.838,4.838,0,0,0,1.193.157,2.705,2.705,0,0,0,1.367-.284.977.977,0,0,0,.1-1.613,5.968,5.968,0,0,0-1.48-.735,8.025,8.025,0,0,1-1.487-.68,2.031,2.031,0,0,1-.656-.66,1.72,1.72,0,0,1-.215-.882,1.681,1.681,0,0,1,.745-1.446,3.472,3.472,0,0,1,2.044-.53,5.98,5.98,0,0,1,2.365.492l-.4.923a5.429,5.429,0,0,0-2.044-.465,2.352,2.352,0,0,0-1.217.253.782.782,0,0,0-.41.7.849.849,0,0,0,.154.513,1.518,1.518,0,0,0,.5.4,11.076,11.076,0,0,0,1.313.554,4.9,4.9,0,0,1,1.8.978A1.724,1.724,0,0,1,170.1,84.956Zm11.949-1.709a4.133,4.133,0,0,1-.923,2.861,3.25,3.25,0,0,1-2.55,1.029,3.377,3.377,0,0,1-1.784-.472,3.113,3.113,0,0,1-1.2-1.354,4.717,4.717,0,0,1-.424-2.064,4.127,4.127,0,0,1,.916-2.854,3.24,3.24,0,0,1,2.543-1.022,3.169,3.169,0,0,1,2.5,1.046A4.115,4.115,0,0,1,182.048,83.247Zm-5.708,0a3.556,3.556,0,0,0,.574,2.188,2.279,2.279,0,0,0,3.38,0,3.538,3.538,0,0,0,.578-2.191,3.481,3.481,0,0,0-.578-2.17,2.03,2.03,0,0,0-1.706-.742,2,2,0,0,0-1.682.731A3.52,3.52,0,0,0,176.34,83.247Zm11.115-3.876a4.44,4.44,0,0,1,.9.082l-.157,1.053a3.865,3.865,0,0,0-.82-.1,2,2,0,0,0-1.555.738,2.692,2.692,0,0,0-.646,1.839V87h-1.135V79.508h.937l.13,1.388h.055a3.294,3.294,0,0,1,1-1.128A2.262,2.262,0,0,1,187.455,79.371Zm12.4,3.876a4.133,4.133,0,0,1-.923,2.861,3.25,3.25,0,0,1-2.55,1.029,3.377,3.377,0,0,1-1.784-.472,3.113,3.113,0,0,1-1.2-1.354,4.717,4.717,0,0,1-.424-2.064,4.127,4.127,0,0,1,.916-2.854,3.24,3.24,0,0,1,2.543-1.022,3.169,3.169,0,0,1,2.5,1.046A4.115,4.115,0,0,1,199.855,83.247Zm-5.708,0a3.556,3.556,0,0,0,.574,2.188,2.279,2.279,0,0,0,3.38,0,3.538,3.538,0,0,0,.578-2.191,3.481,3.481,0,0,0-.578-2.17,2.03,2.03,0,0,0-1.706-.742,2,2,0,0,0-1.682.731A3.52,3.52,0,0,0,194.147,83.247ZM204.265,86.2a3.707,3.707,0,0,0,.581-.044,3.762,3.762,0,0,0,.444-.092v.868a2.074,2.074,0,0,1-.543.147,4.081,4.081,0,0,1-.646.058q-2.174,0-2.174-2.29V80.39h-1.073v-.547l1.073-.472.479-1.6h.656v1.736h2.174v.882h-2.174V84.8a1.517,1.517,0,0,0,.321,1.039A1.118,1.118,0,0,0,204.265,86.2Zm7.649.8V82.153a1.955,1.955,0,0,0-.417-1.367,1.7,1.7,0,0,0-1.306-.451,2.139,2.139,0,0,0-1.726.643,3.255,3.255,0,0,0-.543,2.105V87h-1.135V76.363h1.135v3.22a7.016,7.016,0,0,1-.055.964h.068a2.314,2.314,0,0,1,.954-.851,3.1,3.1,0,0,1,1.412-.311,2.891,2.891,0,0,1,2.061.653,2.749,2.749,0,0,1,.687,2.075V87Zm6.631.137a3.442,3.442,0,0,1-2.622-1.012,3.917,3.917,0,0,1-.96-2.81,4.344,4.344,0,0,1,.892-2.878,2.963,2.963,0,0,1,2.4-1.066,2.825,2.825,0,0,1,2.229.926,3.55,3.55,0,0,1,.82,2.444v.718h-5.161a2.97,2.97,0,0,0,.667,2,2.305,2.305,0,0,0,1.781.684,6.034,6.034,0,0,0,2.393-.506v1.012a6.005,6.005,0,0,1-1.138.373A6.4,6.4,0,0,1,218.545,87.137Zm-.308-6.815a1.853,1.853,0,0,0-1.439.588,2.71,2.71,0,0,0-.632,1.627h3.917a2.5,2.5,0,0,0-.479-1.644A1.684,1.684,0,0,0,218.237,80.321Zm8.415-.95a4.44,4.44,0,0,1,.9.082l-.157,1.053a3.865,3.865,0,0,0-.82-.1,2,2,0,0,0-1.555.738,2.692,2.692,0,0,0-.646,1.839V87h-1.135V79.508h.937l.13,1.388h.055a3.294,3.294,0,0,1,1-1.128A2.262,2.262,0,0,1,226.652,79.371ZM4.2,111.137a3.2,3.2,0,0,1-2.519-1A4.118,4.118,0,0,1,.786,107.3a4.247,4.247,0,0,1,.906-2.905,3.261,3.261,0,0,1,2.581-1.025,5.121,5.121,0,0,1,1.08.116,3.558,3.558,0,0,1,.848.273l-.349.964a5.336,5.336,0,0,0-.82-.25,3.663,3.663,0,0,0-.786-.1q-2.283,0-2.283,2.912a3.468,3.468,0,0,0,.557,2.119,1.938,1.938,0,0,0,1.651.738,5.048,5.048,0,0,0,1.921-.4v1A4.094,4.094,0,0,1,4.2,111.137ZM13,111v-4.847a1.955,1.955,0,0,0-.417-1.367,1.7,1.7,0,0,0-1.306-.451,2.139,2.139,0,0,0-1.726.643A3.255,3.255,0,0,0,9,107.083V111H7.868V100.363H9v3.22a7.016,7.016,0,0,1-.055.964h.068a2.314,2.314,0,0,1,.954-.851,3.1,3.1,0,0,1,1.412-.311,2.891,2.891,0,0,1,2.061.653,2.749,2.749,0,0,1,.687,2.075V111Zm6.631.137A3.442,3.442,0,0,1,17,110.125a3.917,3.917,0,0,1-.96-2.81,4.344,4.344,0,0,1,.892-2.878,2.963,2.963,0,0,1,2.4-1.066,2.825,2.825,0,0,1,2.229.926,3.55,3.55,0,0,1,.82,2.444v.718H17.22a2.97,2.97,0,0,0,.667,2,2.305,2.305,0,0,0,1.781.684,6.035,6.035,0,0,0,2.393-.506v1.012a6,6,0,0,1-1.138.373A6.4,6.4,0,0,1,19.626,111.137Zm-.308-6.815a1.853,1.853,0,0,0-1.439.588,2.71,2.71,0,0,0-.632,1.627h3.917a2.5,2.5,0,0,0-.479-1.644A1.684,1.684,0,0,0,19.318,104.321ZM33.865,111v-4.874a2.023,2.023,0,0,0-.383-1.343,1.481,1.481,0,0,0-1.189-.448,1.92,1.92,0,0,0-1.565.608,2.891,2.891,0,0,0-.506,1.873V111H29.087v-4.874a2.023,2.023,0,0,0-.383-1.343,1.49,1.49,0,0,0-1.2-.448,1.853,1.853,0,0,0-1.562.639,3.459,3.459,0,0,0-.5,2.1V111H24.315v-7.492h.923l.185,1.025h.055a2.23,2.23,0,0,1,.906-.854,2.767,2.767,0,0,1,1.309-.308,2.226,2.226,0,0,1,2.3,1.271h.055a2.389,2.389,0,0,1,.971-.93,3.012,3.012,0,0,1,1.449-.342,2.537,2.537,0,0,1,1.9.653A2.921,2.921,0,0,1,35,106.112V111Zm4.607,0H37.338v-7.492h1.135Zm-1.23-9.522a.754.754,0,0,1,.191-.571.709.709,0,0,1,.95,0,.74.74,0,0,1,.2.567.752.752,0,0,1-.2.571.694.694,0,0,1-.95,0A.768.768,0,0,1,37.242,101.478Zm6.631,9.659a3.2,3.2,0,0,1-2.519-1,4.118,4.118,0,0,1-.892-2.833,4.247,4.247,0,0,1,.906-2.905,3.261,3.261,0,0,1,2.581-1.025,5.121,5.121,0,0,1,1.08.116,3.558,3.558,0,0,1,.848.273l-.349.964a5.336,5.336,0,0,0-.82-.25,3.663,3.663,0,0,0-.786-.1q-2.283,0-2.283,2.912a3.468,3.468,0,0,0,.557,2.119,1.938,1.938,0,0,0,1.651.738,5.048,5.048,0,0,0,1.921-.4v1A4.094,4.094,0,0,1,43.873,111.137ZM52.151,111l-.226-1.066h-.055a3.153,3.153,0,0,1-1.118.954,3.407,3.407,0,0,1-1.391.25,2.5,2.5,0,0,1-1.747-.574,2.094,2.094,0,0,1-.632-1.634q0-2.27,3.63-2.379l1.271-.041v-.465a1.9,1.9,0,0,0-.379-1.3,1.56,1.56,0,0,0-1.213-.42,4.944,4.944,0,0,0-2.119.574l-.349-.868a5.332,5.332,0,0,1,1.213-.472,5.255,5.255,0,0,1,1.323-.171,2.854,2.854,0,0,1,1.986.595,2.482,2.482,0,0,1,.646,1.907V111Zm-2.563-.8a2.3,2.3,0,0,0,1.665-.581,2.15,2.15,0,0,0,.6-1.627v-.677l-1.135.048a4.127,4.127,0,0,0-1.952.42,1.268,1.268,0,0,0-.6,1.159,1.169,1.169,0,0,0,.373.937A1.546,1.546,0,0,0,49.588,110.2Zm6.877.8H55.33V100.363h1.135Zm7.239-2.044a1.877,1.877,0,0,1-.779,1.613,3.663,3.663,0,0,1-2.187.567,4.757,4.757,0,0,1-2.324-.472v-1.053a5.621,5.621,0,0,0,1.159.431,4.838,4.838,0,0,0,1.193.157,2.705,2.705,0,0,0,1.367-.284.977.977,0,0,0,.1-1.613,5.968,5.968,0,0,0-1.48-.735,8.025,8.025,0,0,1-1.487-.68,2.031,2.031,0,0,1-.656-.66,1.72,1.72,0,0,1-.215-.882,1.681,1.681,0,0,1,.745-1.446,3.472,3.472,0,0,1,2.044-.53,5.98,5.98,0,0,1,2.365.492l-.4.923a5.429,5.429,0,0,0-2.044-.465,2.352,2.352,0,0,0-1.217.253.782.782,0,0,0-.41.7.849.849,0,0,0,.154.513,1.518,1.518,0,0,0,.5.4,11.076,11.076,0,0,0,1.313.554,4.9,4.9,0,0,1,1.8.978A1.724,1.724,0,0,1,63.7,108.956Zm1.682,1.319a1.018,1.018,0,0,1,.208-.694.756.756,0,0,1,.6-.236.809.809,0,0,1,.619.236.976.976,0,0,1,.222.694.959.959,0,0,1-.226.684.9.9,0,0,1-1.193.024A.936.936,0,0,1,65.386,110.275Z" transform="translate(24.552 12.001)" fill="#7c848e"/><g transform="translate(145 12.085)" fill="none"><path d="M0,0H61.731V21.914H0Z" stroke="none"/><path d="M 1.000003814697266 0.9999980926513672 L 1.000003814697266 20.91369819641113 L 60.73144149780273 20.91369819641113 L 60.73144149780273 0.9999980926513672 L 1.000003814697266 0.9999980926513672 M 3.814697265625e-06 -1.9073486328125e-06 L 61.73144149780273 -1.9073486328125e-06 L 61.73144149780273 21.91369819641113 L 3.814697265625e-06 21.91369819641113 L 3.814697265625e-06 -1.9073486328125e-06 Z" stroke="none" fill="#00ad50"/></g><path d="M0,0H61.731V21.914H0Z" transform="translate(145 12.085)" fill="#00ad50" opacity="0.19"/><g transform="translate(174 59.085)" fill="none"><path d="M0,0H31.088V21.914H0Z" stroke="none"/><path d="M 0.9999961853027344 0.9999980926513672 L 0.9999961853027344 20.91369819641113 L 30.0878849029541 20.91369819641113 L 30.0878849029541 0.9999980926513672 L 0.9999961853027344 0.9999980926513672 M -3.814697265625e-06 -1.9073486328125e-06 L 31.0878849029541 -1.9073486328125e-06 L 31.0878849029541 21.91369819641113 L -3.814697265625e-06 21.91369819641113 L -3.814697265625e-06 -1.9073486328125e-06 Z" stroke="none" fill="#00ad50"/></g><path d="M0,0H31.088V21.914H0Z" transform="translate(174 59.085)" fill="#00ad50" opacity="0.19"/><g transform="translate(21 83.085)" fill="none"><path d="M0,0H47.892V21.914H0Z" stroke="none"/><path d="M 1.000003814697266 0.9999980926513672 L 1.000003814697266 20.91369819641113 L 46.89184188842773 20.91369819641113 L 46.89184188842773 0.9999980926513672 L 1.000003814697266 0.9999980926513672 M 3.814697265625e-06 -1.9073486328125e-06 L 47.89184188842773 -1.9073486328125e-06 L 47.89184188842773 21.91369819641113 L 3.814697265625e-06 21.91369819641113 L 3.814697265625e-06 -1.9073486328125e-06 Z" stroke="none" fill="#00ad50"/></g><path d="M0,0H47.892V21.914H0Z" transform="translate(21 83.085)" fill="#00ad50" opacity="0.19"/><g transform="translate(207 59.085)" fill="none"><path d="M0,0H40.808V21.914H0Z" stroke="none"/><path d="M 0.9999961853027344 0.9999980926513672 L 0.9999961853027344 20.91369819641113 L 39.80755615234375 20.91369819641113 L 39.80755615234375 0.9999980926513672 L 0.9999961853027344 0.9999980926513672 M -3.814697265625e-06 -1.9073486328125e-06 L 40.80755615234375 -1.9073486328125e-06 L 40.80755615234375 21.91369819641113 L -3.814697265625e-06 21.91369819641113 L -3.814697265625e-06 -1.9073486328125e-06 Z" stroke="none" fill="#00ad50"/></g><path d="M0,0H40.808V21.914H0Z" transform="translate(207 59.085)" fill="#00ad50" opacity="0.19"/><g transform="translate(126 83.085)" fill="none"><path d="M0,0H72.426V21.914H0Z" stroke="none"/><path d="M 1 0.9999980926513672 L 1 20.91369819641113 L 71.42578125 20.91369819641113 L 71.42578125 0.9999980926513672 L 1 0.9999980926513672 M 0 -1.9073486328125e-06 L 72.42578125 -1.9073486328125e-06 L 72.42578125 21.91369819641113 L 0 21.91369819641113 L 0 -1.9073486328125e-06 Z" stroke="none" fill="#00ad50"/></g><path d="M0,0H72.426V21.914H0Z" transform="translate(126 83.085)" fill="#00ad50" opacity="0.19"/></g></g></svg>