<svg xmlns="http://www.w3.org/2000/svg" width="194.4" height="117.678" viewBox="0 0 194.4 117.678"><g transform="translate(-15.957 -40.256)"><path d="M3.932,0H190.468A3.983,3.983,0,0,1,194.4,4.032V113.646a3.983,3.983,0,0,1-3.932,4.032H3.932A3.983,3.983,0,0,1,0,113.646V4.032A3.983,3.983,0,0,1,3.932,0Z" transform="translate(15.957 40.256)" fill="#fff"/><g transform="translate(10 -3.936)"><g transform="translate(92.129 57.6)"><rect width="62.307" height="20" rx="2" fill="#cff0de"/><path d="M2,.75A1.251,1.251,0,0,0,.75,2V18A1.251,1.251,0,0,0,2,19.25H60.307A1.251,1.251,0,0,0,61.557,18V2A1.251,1.251,0,0,0,60.307.75H2M2,0H60.307a2,2,0,0,1,2,2V18a2,2,0,0,1-2,2H2a2,2,0,0,1-2-2V2A2,2,0,0,1,2,0Z" fill="#1ab395"/></g><g transform="translate(79.053 80.918)"><rect width="41.383" height="20" rx="2" fill="#cff0de"/><path d="M2,.75A1.251,1.251,0,0,0,.75,2V18A1.251,1.251,0,0,0,2,19.25H39.383A1.251,1.251,0,0,0,40.633,18V2A1.251,1.251,0,0,0,39.383.75H2M2,0H39.383a2,2,0,0,1,2,2V18a2,2,0,0,1-2,2H2a2,2,0,0,1-2-2V2A2,2,0,0,1,2,0Z" fill="#1ab395"/></g><g transform="translate(92.053 105.918)"><rect width="29.08" height="20" rx="2" fill="#cff0de"/><path d="M2,.75A1.251,1.251,0,0,0,.75,2V18A1.251,1.251,0,0,0,2,19.25H27.08A1.251,1.251,0,0,0,28.33,18V2A1.251,1.251,0,0,0,27.08.75H2M2,0H27.08a2,2,0,0,1,2,2V18a2,2,0,0,1-2,2H2a2,2,0,0,1-2-2V2A2,2,0,0,1,2,0Z" fill="#1ab395"/></g><g transform="translate(16.053 129.918)"><rect width="42.668" height="20" rx="2" fill="#cff0de"/><path d="M2,.75A1.251,1.251,0,0,0,.75,2V18A1.251,1.251,0,0,0,2,19.25H40.668A1.251,1.251,0,0,0,41.918,18V2A1.251,1.251,0,0,0,40.668.75H2M2,0H40.668a2,2,0,0,1,2,2V18a2,2,0,0,1-2,2H2a2,2,0,0,1-2-2V2A2,2,0,0,1,2,0Z" fill="#1ab395"/></g><path d="M3.067,10H2.017V4.476H.127v-.9h4.83v.9H3.067Zm6.815,0H8.845V7.012a1.308,1.308,0,0,0-.226-.839A.875.875,0,0,0,7.9,5.9a1.14,1.14,0,0,0-.956.389,2.143,2.143,0,0,0-.305,1.3V10H5.607V3.162H6.639V4.9a8.1,8.1,0,0,1-.053.892h.066a1.434,1.434,0,0,1,.587-.545,1.891,1.891,0,0,1,.877-.193,1.567,1.567,0,0,1,1.767,1.78Zm3.335.088a2.351,2.351,0,0,1-1.773-.661A2.511,2.511,0,0,1,10.8,7.6,2.755,2.755,0,0,1,11.4,5.733a2.049,2.049,0,0,1,1.63-.681,2,2,0,0,1,1.521.584,2.233,2.233,0,0,1,.558,1.608V7.8H11.868A1.6,1.6,0,0,0,12.25,8.89a1.332,1.332,0,0,0,1.015.38,3.747,3.747,0,0,0,.8-.081,4.2,4.2,0,0,0,.8-.27v.839a3.171,3.171,0,0,1-.765.255A4.689,4.689,0,0,1,13.217,10.088Zm-.189-4.254a1.038,1.038,0,0,0-.789.312,1.487,1.487,0,0,0-.354.91h2.206a1.345,1.345,0,0,0-.29-.912A.992.992,0,0,0,13.028,5.834Zm5.492-.782a2.486,2.486,0,0,1,.514.044l-.1.962a1.952,1.952,0,0,0-.457-.053,1.323,1.323,0,0,0-1,.4,1.461,1.461,0,0,0-.385,1.05V10H16.055V5.14h.809L17,6h.053a1.926,1.926,0,0,1,.631-.69A1.5,1.5,0,0,1,18.52,5.052Zm3.313,5.036a2.351,2.351,0,0,1-1.773-.661A2.511,2.511,0,0,1,19.42,7.6a2.755,2.755,0,0,1,.593-1.872,2.049,2.049,0,0,1,1.63-.681,2,2,0,0,1,1.521.584,2.233,2.233,0,0,1,.558,1.608V7.8H20.484a1.6,1.6,0,0,0,.382,1.088,1.332,1.332,0,0,0,1.015.38,3.747,3.747,0,0,0,.8-.081,4.2,4.2,0,0,0,.8-.27v.839a3.171,3.171,0,0,1-.765.255A4.689,4.689,0,0,1,21.833,10.088Zm-.189-4.254a1.038,1.038,0,0,0-.789.312,1.487,1.487,0,0,0-.354.91h2.206a1.345,1.345,0,0,0-.29-.912A.992.992,0,0,0,21.644,5.834ZM29.825,10l-.207-.677h-.035a1.991,1.991,0,0,1-.708.6,2.238,2.238,0,0,1-.914.16A1.547,1.547,0,0,1,26.843,9.7a1.447,1.447,0,0,1-.4-1.094A1.285,1.285,0,0,1,27,7.473a3.218,3.218,0,0,1,1.7-.417l.839-.026V6.77a.983.983,0,0,0-.218-.7.887.887,0,0,0-.675-.231,2.332,2.332,0,0,0-.716.11,5.406,5.406,0,0,0-.659.259l-.334-.738a3.594,3.594,0,0,1,.866-.314,3.984,3.984,0,0,1,.888-.108,2.1,2.1,0,0,1,1.4.4,1.583,1.583,0,0,1,.472,1.27V10Zm-1.538-.7a1.279,1.279,0,0,0,.9-.314A1.139,1.139,0,0,0,29.53,8.1V7.68l-.624.026a2.135,2.135,0,0,0-1.061.244.741.741,0,0,0-.332.666.65.65,0,0,0,.193.5A.831.831,0,0,0,28.287,9.3Zm5.958-4.245a2.486,2.486,0,0,1,.514.044l-.1.962a1.952,1.952,0,0,0-.457-.053,1.323,1.323,0,0,0-1,.4,1.461,1.461,0,0,0-.385,1.05V10H31.779V5.14h.809L32.724,6h.053a1.926,1.926,0,0,1,.631-.69A1.5,1.5,0,0,1,34.245,5.052Zm3.313,5.036a2.351,2.351,0,0,1-1.773-.661A2.511,2.511,0,0,1,35.145,7.6a2.755,2.755,0,0,1,.593-1.872,2.049,2.049,0,0,1,1.63-.681,2,2,0,0,1,1.521.584,2.233,2.233,0,0,1,.558,1.608V7.8H36.208a1.6,1.6,0,0,0,.382,1.088,1.332,1.332,0,0,0,1.015.38,3.747,3.747,0,0,0,.8-.081,4.2,4.2,0,0,0,.8-.27v.839a3.171,3.171,0,0,1-.765.255A4.689,4.689,0,0,1,37.557,10.088Zm-.189-4.254a1.038,1.038,0,0,0-.789.312,1.487,1.487,0,0,0-.354.91h2.206a1.345,1.345,0,0,0-.29-.912A.992.992,0,0,0,37.368,5.834ZM43.541,10H42.508V3.162h1.033ZM49.1,7.561a2.653,2.653,0,0,1-.611,1.859,2.189,2.189,0,0,1-1.7.668,2.33,2.33,0,0,1-1.2-.308,2.031,2.031,0,0,1-.8-.883A3.008,3.008,0,0,1,44.5,7.561a2.635,2.635,0,0,1,.606-1.846,2.2,2.2,0,0,1,1.709-.664,2.141,2.141,0,0,1,1.67.679A2.623,2.623,0,0,1,49.1,7.561Zm-3.538,0q0,1.683,1.244,1.683t1.23-1.683Q48.04,5.9,46.8,5.9a1.057,1.057,0,0,0-.943.431A2.192,2.192,0,0,0,45.566,7.561ZM53.106,10,52.9,9.323h-.035a1.991,1.991,0,0,1-.708.6,2.238,2.238,0,0,1-.914.16A1.547,1.547,0,0,1,50.124,9.7a1.447,1.447,0,0,1-.4-1.094,1.285,1.285,0,0,1,.558-1.134,3.218,3.218,0,0,1,1.7-.417l.839-.026V6.77a.983.983,0,0,0-.218-.7.887.887,0,0,0-.675-.231,2.332,2.332,0,0,0-.716.11,5.406,5.406,0,0,0-.659.259l-.334-.738a3.594,3.594,0,0,1,.866-.314,3.984,3.984,0,0,1,.888-.108,2.1,2.1,0,0,1,1.4.4,1.583,1.583,0,0,1,.472,1.27V10Zm-1.538-.7a1.279,1.279,0,0,0,.9-.314,1.139,1.139,0,0,0,.341-.881V7.68l-.624.026a2.135,2.135,0,0,0-1.061.244.741.741,0,0,0-.332.666.65.65,0,0,0,.193.5A.831.831,0,0,0,51.568,9.3Zm5.132.791a1.693,1.693,0,0,1-1.419-.659,2.963,2.963,0,0,1-.51-1.85,2.972,2.972,0,0,1,.516-1.861,1.709,1.709,0,0,1,1.43-.666,1.676,1.676,0,0,1,1.459.708h.053a6.191,6.191,0,0,1-.075-.826V3.162h1.037V10h-.809l-.18-.637h-.048A1.651,1.651,0,0,1,56.7,10.088Zm.277-.835a1.124,1.124,0,0,0,.927-.358,1.886,1.886,0,0,0,.3-1.162V7.587a2.178,2.178,0,0,0-.3-1.305,1.109,1.109,0,0,0-.936-.387.95.95,0,0,0-.839.442A2.263,2.263,0,0,0,55.834,7.6a2.207,2.207,0,0,0,.286,1.233A.964.964,0,0,0,56.977,9.253Zm6.732-.637a1.272,1.272,0,0,1-.519,1.092,2.483,2.483,0,0,1-1.485.38,3.509,3.509,0,0,1-1.56-.294V8.9a3.83,3.83,0,0,0,1.6.4q.954,0,.954-.576a.456.456,0,0,0-.105-.308,1.248,1.248,0,0,0-.347-.255,5.974,5.974,0,0,0-.672-.3,3.11,3.11,0,0,1-1.136-.65,1.2,1.2,0,0,1-.3-.844,1.108,1.108,0,0,1,.5-.969,2.388,2.388,0,0,1,1.369-.345,3.877,3.877,0,0,1,1.622.347l-.334.778a3.607,3.607,0,0,0-1.323-.325q-.817,0-.817.466a.469.469,0,0,0,.213.387,4.687,4.687,0,0,0,.929.435,4.249,4.249,0,0,1,.875.426,1.274,1.274,0,0,1,.4.446A1.291,1.291,0,0,1,63.708,8.616Zm7.315-1.055a2.653,2.653,0,0,1-.611,1.859,2.189,2.189,0,0,1-1.7.668,2.33,2.33,0,0,1-1.2-.308,2.031,2.031,0,0,1-.8-.883,3.008,3.008,0,0,1-.281-1.336,2.635,2.635,0,0,1,.606-1.846,2.2,2.2,0,0,1,1.709-.664,2.141,2.141,0,0,1,1.67.679A2.623,2.623,0,0,1,71.024,7.561Zm-3.538,0q0,1.683,1.244,1.683t1.23-1.683q0-1.666-1.239-1.666a1.057,1.057,0,0,0-.943.431A2.192,2.192,0,0,0,67.486,7.561Zm6.938-1.639H73.238V10H72.2V5.922h-.8V5.438l.8-.316V4.806a1.768,1.768,0,0,1,.4-1.277,1.653,1.653,0,0,1,1.235-.415,3.3,3.3,0,0,1,1.072.18l-.272.782a2.381,2.381,0,0,0-.729-.123.594.594,0,0,0-.512.218,1.1,1.1,0,0,0-.16.653V5.14h1.187Zm5.179-.87a2.486,2.486,0,0,1,.514.044l-.1.962a1.952,1.952,0,0,0-.457-.053,1.323,1.323,0,0,0-1,.4,1.461,1.461,0,0,0-.385,1.05V10H77.138V5.14h.809L78.083,6h.053a1.926,1.926,0,0,1,.631-.69A1.5,1.5,0,0,1,79.6,5.052Zm3.313,5.036a2.351,2.351,0,0,1-1.773-.661A2.511,2.511,0,0,1,80.5,7.6,2.755,2.755,0,0,1,81.1,5.733a2.049,2.049,0,0,1,1.63-.681,2,2,0,0,1,1.521.584,2.233,2.233,0,0,1,.558,1.608V7.8H81.567a1.6,1.6,0,0,0,.382,1.088,1.332,1.332,0,0,0,1.015.38,3.747,3.747,0,0,0,.8-.081,4.2,4.2,0,0,0,.8-.27v.839a3.171,3.171,0,0,1-.765.255A4.689,4.689,0,0,1,82.916,10.088Zm-.189-4.254a1.038,1.038,0,0,0-.789.312,1.487,1.487,0,0,0-.354.91h2.206a1.345,1.345,0,0,0-.29-.912A.992.992,0,0,0,82.727,5.834ZM88.8,10l-.207-.677h-.035a1.991,1.991,0,0,1-.708.6,2.238,2.238,0,0,1-.914.16A1.547,1.547,0,0,1,85.813,9.7a1.447,1.447,0,0,1-.4-1.094,1.285,1.285,0,0,1,.558-1.134,3.218,3.218,0,0,1,1.7-.417l.839-.026V6.77a.983.983,0,0,0-.218-.7.887.887,0,0,0-.675-.231,2.332,2.332,0,0,0-.716.11,5.406,5.406,0,0,0-.659.259l-.334-.738a3.594,3.594,0,0,1,.866-.314,3.984,3.984,0,0,1,.888-.108,2.1,2.1,0,0,1,1.4.4,1.583,1.583,0,0,1,.472,1.27V10Zm-1.538-.7a1.279,1.279,0,0,0,.9-.314A1.139,1.139,0,0,0,88.5,8.1V7.68l-.624.026a2.135,2.135,0,0,0-1.061.244.741.741,0,0,0-.332.666.65.65,0,0,0,.193.5A.831.831,0,0,0,87.257,9.3Zm6.758-.681A1.272,1.272,0,0,1,93.5,9.708a2.483,2.483,0,0,1-1.485.38,3.509,3.509,0,0,1-1.56-.294V8.9a3.83,3.83,0,0,0,1.6.4Q93,9.3,93,8.721a.456.456,0,0,0-.105-.308,1.248,1.248,0,0,0-.347-.255,5.974,5.974,0,0,0-.672-.3,3.11,3.11,0,0,1-1.136-.65,1.2,1.2,0,0,1-.3-.844,1.108,1.108,0,0,1,.5-.969,2.388,2.388,0,0,1,1.369-.345,3.877,3.877,0,0,1,1.622.347l-.334.778a3.607,3.607,0,0,0-1.323-.325q-.817,0-.817.466a.469.469,0,0,0,.213.387,4.687,4.687,0,0,0,.929.435,4.249,4.249,0,0,1,.875.426,1.274,1.274,0,0,1,.4.446A1.291,1.291,0,0,1,94.015,8.616Zm5.2-1.055a2.653,2.653,0,0,1-.611,1.859,2.189,2.189,0,0,1-1.7.668,2.33,2.33,0,0,1-1.2-.308,2.031,2.031,0,0,1-.8-.883,3.008,3.008,0,0,1-.281-1.336,2.635,2.635,0,0,1,.606-1.846,2.2,2.2,0,0,1,1.709-.664,2.141,2.141,0,0,1,1.67.679A2.623,2.623,0,0,1,99.217,7.561Zm-3.538,0q0,1.683,1.244,1.683t1.23-1.683q0-1.666-1.239-1.666a1.057,1.057,0,0,0-.943.431A2.192,2.192,0,0,0,95.68,7.561ZM104.455,10h-1.037V7.012a1.308,1.308,0,0,0-.226-.839.875.875,0,0,0-.719-.277,1.142,1.142,0,0,0-.958.387,2.135,2.135,0,0,0-.3,1.3V10h-1.033V5.14h.809l.145.637h.053a1.438,1.438,0,0,1,.624-.536,2.091,2.091,0,0,1,.9-.189,1.56,1.56,0,0,1,1.749,1.78Zm4.477-1.384a1.272,1.272,0,0,1-.519,1.092,2.483,2.483,0,0,1-1.485.38,3.509,3.509,0,0,1-1.56-.294V8.9a3.83,3.83,0,0,0,1.6.4q.954,0,.954-.576a.456.456,0,0,0-.105-.308,1.248,1.248,0,0,0-.347-.255,5.974,5.974,0,0,0-.672-.3,3.11,3.11,0,0,1-1.136-.65,1.2,1.2,0,0,1-.3-.844,1.108,1.108,0,0,1,.5-.969,2.388,2.388,0,0,1,1.369-.345,3.877,3.877,0,0,1,1.622.347l-.334.778a3.607,3.607,0,0,0-1.323-.325q-.817,0-.817.466a.469.469,0,0,0,.213.387,4.687,4.687,0,0,0,.929.435,4.249,4.249,0,0,1,.875.426,1.274,1.274,0,0,1,.4.446A1.291,1.291,0,0,1,108.932,8.616Zm4.815.637a2.511,2.511,0,0,0,.756-.119v.778a2.085,2.085,0,0,1-.442.125,3.043,3.043,0,0,1-.56.051q-1.468,0-1.468-1.547V5.922h-.664V5.465l.712-.378.352-1.028h.637V5.14h1.384v.782H113.07v2.6a.73.73,0,0,0,.187.552A.681.681,0,0,0,113.746,9.253Zm5.813-1.692a2.653,2.653,0,0,1-.611,1.859,2.189,2.189,0,0,1-1.7.668,2.33,2.33,0,0,1-1.2-.308,2.031,2.031,0,0,1-.8-.883,3.008,3.008,0,0,1-.281-1.336,2.635,2.635,0,0,1,.606-1.846,2.2,2.2,0,0,1,1.709-.664,2.141,2.141,0,0,1,1.67.679A2.623,2.623,0,0,1,119.559,7.561Zm-3.538,0q0,1.683,1.244,1.683t1.23-1.683q0-1.666-1.239-1.666a1.057,1.057,0,0,0-.943.431A2.192,2.192,0,0,0,116.022,7.561Zm8.735,2.527a2.351,2.351,0,0,1-1.773-.661,2.511,2.511,0,0,1-.639-1.822,2.755,2.755,0,0,1,.593-1.872,2.049,2.049,0,0,1,1.63-.681,2,2,0,0,1,1.521.584,2.233,2.233,0,0,1,.558,1.608V7.8h-3.239a1.6,1.6,0,0,0,.382,1.088,1.332,1.332,0,0,0,1.015.38,3.747,3.747,0,0,0,.8-.081,4.2,4.2,0,0,0,.8-.27v.839a3.171,3.171,0,0,1-.765.255A4.689,4.689,0,0,1,124.756,10.088Zm-.189-4.254a1.038,1.038,0,0,0-.789.312,1.487,1.487,0,0,0-.354.91h2.206a1.345,1.345,0,0,0-.29-.912A.992.992,0,0,0,124.567,5.834ZM130.635,10l-.207-.677h-.035a1.991,1.991,0,0,1-.708.6,2.238,2.238,0,0,1-.914.16,1.547,1.547,0,0,1-1.118-.387,1.447,1.447,0,0,1-.4-1.094,1.285,1.285,0,0,1,.558-1.134,3.218,3.218,0,0,1,1.7-.417l.839-.026V6.77a.983.983,0,0,0-.218-.7.887.887,0,0,0-.675-.231,2.332,2.332,0,0,0-.716.11,5.406,5.406,0,0,0-.659.259l-.334-.738a3.594,3.594,0,0,1,.866-.314,3.984,3.984,0,0,1,.888-.108,2.1,2.1,0,0,1,1.4.4,1.583,1.583,0,0,1,.472,1.27V10ZM129.1,9.3a1.279,1.279,0,0,0,.9-.314,1.139,1.139,0,0,0,.341-.881V7.68l-.624.026a2.135,2.135,0,0,0-1.061.244.741.741,0,0,0-.332.666.65.65,0,0,0,.193.5A.831.831,0,0,0,129.1,9.3Zm5.3-.044a2.511,2.511,0,0,0,.756-.119v.778a2.085,2.085,0,0,1-.442.125,3.043,3.043,0,0,1-.56.051q-1.468,0-1.468-1.547V5.922h-.664V5.465l.712-.378.352-1.028h.637V5.14h1.384v.782h-1.384v2.6a.73.73,0,0,0,.187.552A.681.681,0,0,0,134.4,9.253Zm7.926-1.692a2.653,2.653,0,0,1-.611,1.859,2.189,2.189,0,0,1-1.7.668,2.33,2.33,0,0,1-1.2-.308,2.031,2.031,0,0,1-.8-.883,3.008,3.008,0,0,1-.281-1.336,2.635,2.635,0,0,1,.606-1.846,2.2,2.2,0,0,1,1.709-.664,2.141,2.141,0,0,1,1.67.679A2.623,2.623,0,0,1,142.327,7.561Zm-3.538,0q0,1.683,1.244,1.683t1.23-1.683q0-1.666-1.239-1.666a1.057,1.057,0,0,0-.943.431A2.192,2.192,0,0,0,138.789,7.561Zm6.964-2.509a2.486,2.486,0,0,1,.514.044l-.1.962a1.952,1.952,0,0,0-.457-.053,1.323,1.323,0,0,0-1,.4,1.461,1.461,0,0,0-.385,1.05V10h-1.033V5.14h.809l.136.857h.053a1.926,1.926,0,0,1,.631-.69A1.5,1.5,0,0,1,145.753,5.052Zm5.295.088v.567l-.831.154a1.341,1.341,0,0,1,.189.378,1.491,1.491,0,0,1,.075.475,1.454,1.454,0,0,1-.519,1.182,2.17,2.17,0,0,1-1.428.431,2.316,2.316,0,0,1-.422-.035.582.582,0,0,0-.334.483.269.269,0,0,0,.156.25,1.349,1.349,0,0,0,.573.083h.848a1.886,1.886,0,0,1,1.222.343,1.206,1.206,0,0,1,.417.989,1.438,1.438,0,0,1-.681,1.274,3.586,3.586,0,0,1-1.969.448,2.717,2.717,0,0,1-1.516-.352,1.136,1.136,0,0,1-.523-1,1.066,1.066,0,0,1,.283-.754,1.519,1.519,0,0,1,.793-.424.776.776,0,0,1-.341-.283.716.716,0,0,1-.134-.411.707.707,0,0,1,.154-.461,1.775,1.775,0,0,1,.457-.374,1.354,1.354,0,0,1-.613-.53,1.558,1.558,0,0,1-.235-.859,1.54,1.54,0,0,1,.5-1.226,2.1,2.1,0,0,1,1.422-.435,3.46,3.46,0,0,1,.433.029,2.725,2.725,0,0,1,.341.059Zm-3.819,5.616a.568.568,0,0,0,.3.514,1.654,1.654,0,0,0,.846.18,2.556,2.556,0,0,0,1.257-.242.725.725,0,0,0,.413-.642.481.481,0,0,0-.226-.45,1.817,1.817,0,0,0-.842-.134H148.2a1.1,1.1,0,0,0-.705.209A.684.684,0,0,0,147.229,10.756Zm.444-4.043a.978.978,0,0,0,.235.7.889.889,0,0,0,.675.246q.9,0,.9-.958a1.087,1.087,0,0,0-.222-.732.843.843,0,0,0-.675-.257.869.869,0,0,0-.679.255A1.071,1.071,0,0,0,147.673,6.713ZM154.765,10l-.207-.677h-.035a1.991,1.991,0,0,1-.708.6,2.238,2.238,0,0,1-.914.16,1.547,1.547,0,0,1-1.118-.387,1.447,1.447,0,0,1-.4-1.094,1.285,1.285,0,0,1,.558-1.134,3.218,3.218,0,0,1,1.7-.417l.839-.026V6.77a.983.983,0,0,0-.218-.7.887.887,0,0,0-.675-.231,2.332,2.332,0,0,0-.716.11,5.406,5.406,0,0,0-.659.259l-.334-.738a3.594,3.594,0,0,1,.866-.314,3.984,3.984,0,0,1,.888-.108,2.1,2.1,0,0,1,1.4.4,1.583,1.583,0,0,1,.472,1.27V10Zm-1.538-.7a1.279,1.279,0,0,0,.9-.314,1.139,1.139,0,0,0,.341-.881V7.68l-.624.026a2.135,2.135,0,0,0-1.061.244.741.741,0,0,0-.332.666.65.65,0,0,0,.193.5A.831.831,0,0,0,153.227,9.3ZM161,10h-1.037V7.012a1.308,1.308,0,0,0-.226-.839.875.875,0,0,0-.719-.277,1.142,1.142,0,0,0-.958.387,2.135,2.135,0,0,0-.3,1.3V10H156.72V5.14h.809l.145.637h.053a1.438,1.438,0,0,1,.624-.536,2.091,2.091,0,0,1,.9-.189A1.56,1.56,0,0,1,161,6.832Zm2.245,0h-1.033V5.14h1.033Zm-1.094-6.148a.572.572,0,0,1,.152-.426.591.591,0,0,1,.433-.149.578.578,0,0,1,.424.149.572.572,0,0,1,.152.426.561.561,0,0,1-.152.415.573.573,0,0,1-.424.152.586.586,0,0,1-.433-.152A.561.561,0,0,1,162.146,3.852Zm4.306,6.236a2.128,2.128,0,0,1-1.677-.644A2.69,2.69,0,0,1,164.2,7.6a2.7,2.7,0,0,1,.6-1.885,2.225,2.225,0,0,1,1.734-.659,3.249,3.249,0,0,1,1.384.286l-.312.831a3.128,3.128,0,0,0-1.081-.255q-1.261,0-1.261,1.674a2.005,2.005,0,0,0,.314,1.228,1.088,1.088,0,0,0,.921.411,2.641,2.641,0,0,0,1.305-.343v.9a2.04,2.04,0,0,1-.591.233A3.547,3.547,0,0,1,166.452,10.088ZM3.177,29.922H1.991V34H.954V29.922h-.8v-.483l.8-.316v-.316a1.768,1.768,0,0,1,.4-1.277,1.653,1.653,0,0,1,1.235-.415,3.3,3.3,0,0,1,1.072.18l-.272.782a2.381,2.381,0,0,0-.729-.123.594.594,0,0,0-.512.218,1.1,1.1,0,0,0-.16.653v.316H3.177Zm4.912,1.639a2.653,2.653,0,0,1-.611,1.859,2.189,2.189,0,0,1-1.7.668,2.33,2.33,0,0,1-1.2-.308,2.031,2.031,0,0,1-.8-.883,3.008,3.008,0,0,1-.281-1.336,2.635,2.635,0,0,1,.606-1.846A2.2,2.2,0,0,1,5.8,29.052a2.141,2.141,0,0,1,1.67.679A2.623,2.623,0,0,1,8.089,31.561Zm-3.538,0q0,1.683,1.244,1.683t1.23-1.683q0-1.666-1.239-1.666a1.057,1.057,0,0,0-.943.431A2.192,2.192,0,0,0,4.552,31.561Zm8.81,0a2.653,2.653,0,0,1-.611,1.859,2.189,2.189,0,0,1-1.7.668,2.33,2.33,0,0,1-1.2-.308,2.031,2.031,0,0,1-.8-.883,3.008,3.008,0,0,1-.281-1.336,2.635,2.635,0,0,1,.606-1.846,2.2,2.2,0,0,1,1.709-.664,2.141,2.141,0,0,1,1.67.679A2.623,2.623,0,0,1,13.362,31.561Zm-3.538,0q0,1.683,1.244,1.683t1.23-1.683q0-1.666-1.239-1.666a1.057,1.057,0,0,0-.943.431A2.192,2.192,0,0,0,9.824,31.561Zm6.138,2.527a1.693,1.693,0,0,1-1.419-.659,2.963,2.963,0,0,1-.51-1.85,2.972,2.972,0,0,1,.516-1.861,1.709,1.709,0,0,1,1.43-.666,1.676,1.676,0,0,1,1.459.708h.053a6.191,6.191,0,0,1-.075-.826V27.162h1.037V34h-.809l-.18-.637h-.048A1.651,1.651,0,0,1,15.963,34.088Zm.277-.835a1.124,1.124,0,0,0,.927-.358,1.886,1.886,0,0,0,.3-1.162v-.145a2.178,2.178,0,0,0-.3-1.305,1.109,1.109,0,0,0-.936-.387.95.95,0,0,0-.839.442A2.263,2.263,0,0,0,15.1,31.6a2.207,2.207,0,0,0,.286,1.233A.964.964,0,0,0,16.24,33.253Zm3.313.2a.677.677,0,0,1,.167-.492.645.645,0,0,1,.483-.171.637.637,0,0,1,.488.178.681.681,0,0,1,.167.486.7.7,0,0,1-.169.494.738.738,0,0,1-.969,0A.7.7,0,0,1,19.552,33.451ZM26.4,34h-1.05V28.476h-1.89v-.9h4.83v.9H26.4Zm6.815,0H32.175V31.012a1.308,1.308,0,0,0-.226-.839.875.875,0,0,0-.719-.277,1.14,1.14,0,0,0-.956.389,2.143,2.143,0,0,0-.305,1.3V34H28.936V27.162h1.033V28.9a8.1,8.1,0,0,1-.053.892h.066a1.434,1.434,0,0,1,.587-.545,1.891,1.891,0,0,1,.877-.193,1.567,1.567,0,0,1,1.767,1.78Zm3.335.088a2.351,2.351,0,0,1-1.773-.661,2.511,2.511,0,0,1-.639-1.822,2.755,2.755,0,0,1,.593-1.872,2.049,2.049,0,0,1,1.63-.681,2,2,0,0,1,1.521.584,2.233,2.233,0,0,1,.558,1.608V31.8H35.2a1.6,1.6,0,0,0,.382,1.088,1.332,1.332,0,0,0,1.015.38,3.747,3.747,0,0,0,.8-.081,4.2,4.2,0,0,0,.8-.27v.839a3.171,3.171,0,0,1-.765.255A4.689,4.689,0,0,1,36.547,34.088Zm-.189-4.254a1.038,1.038,0,0,0-.789.312,1.487,1.487,0,0,0-.354.91h2.206a1.345,1.345,0,0,0-.29-.912A.992.992,0,0,0,36.358,29.834Zm6.95,3.419a2.511,2.511,0,0,0,.756-.119v.778a2.085,2.085,0,0,1-.442.125,3.043,3.043,0,0,1-.56.051q-1.468,0-1.468-1.547V29.922h-.664v-.457l.712-.378.352-1.028h.637V29.14h1.384v.782H42.631v2.6a.73.73,0,0,0,.187.552A.681.681,0,0,0,43.308,33.253Zm3.625.835a2.351,2.351,0,0,1-1.773-.661A2.511,2.511,0,0,1,44.52,31.6a2.755,2.755,0,0,1,.593-1.872,2.049,2.049,0,0,1,1.63-.681,2,2,0,0,1,1.521.584,2.233,2.233,0,0,1,.558,1.608V31.8H45.584a1.6,1.6,0,0,0,.382,1.088,1.332,1.332,0,0,0,1.015.38,3.747,3.747,0,0,0,.8-.081,4.2,4.2,0,0,0,.8-.27v.839a3.171,3.171,0,0,1-.765.255A4.689,4.689,0,0,1,46.933,34.088Zm-.189-4.254a1.038,1.038,0,0,0-.789.312,1.487,1.487,0,0,0-.354.91h2.206a1.345,1.345,0,0,0-.29-.912A.992.992,0,0,0,46.744,29.834Zm5.492-.782a2.486,2.486,0,0,1,.514.044l-.1.962a1.952,1.952,0,0,0-.457-.053,1.323,1.323,0,0,0-1,.4,1.461,1.461,0,0,0-.385,1.05V34H49.771V29.14h.809l.136.857h.053a1.926,1.926,0,0,1,.631-.69A1.5,1.5,0,0,1,52.236,29.052ZM57.522,34H56.485V31a1.359,1.359,0,0,0-.211-.833.778.778,0,0,0-.659-.275,1,1,0,0,0-.877.389,2.282,2.282,0,0,0-.279,1.294V34H53.426V29.14h.809l.145.637h.053a1.346,1.346,0,0,1,.587-.536,1.892,1.892,0,0,1,.846-.189,1.478,1.478,0,0,1,1.485.765h.07a1.482,1.482,0,0,1,.606-.562,1.925,1.925,0,0,1,.9-.2,1.632,1.632,0,0,1,1.268.439,1.946,1.946,0,0,1,.4,1.34V34H59.556V31a1.348,1.348,0,0,0-.213-.833.785.785,0,0,0-.661-.275,1.025,1.025,0,0,0-.881.376,1.937,1.937,0,0,0-.279,1.154Zm7.262-6.425L64.6,29.9h-.659l-.18-2.32Zm1.736,0-.18,2.32h-.659l-.18-2.32Zm5.409,3.986a2.653,2.653,0,0,1-.611,1.859,2.189,2.189,0,0,1-1.7.668,2.33,2.33,0,0,1-1.2-.308,2.031,2.031,0,0,1-.8-.883,3.008,3.008,0,0,1-.281-1.336,2.635,2.635,0,0,1,.606-1.846,2.2,2.2,0,0,1,1.709-.664,2.141,2.141,0,0,1,1.67.679A2.623,2.623,0,0,1,71.929,31.561Zm-3.538,0q0,1.683,1.244,1.683t1.23-1.683q0-1.666-1.239-1.666a1.057,1.057,0,0,0-.943.431A2.192,2.192,0,0,0,68.391,31.561Zm6.964-2.509a2.486,2.486,0,0,1,.514.044l-.1.962a1.952,1.952,0,0,0-.457-.053,1.323,1.323,0,0,0-1,.4,1.461,1.461,0,0,0-.385,1.05V34H72.89V29.14H73.7l.136.857h.053a1.926,1.926,0,0,1,.631-.69A1.5,1.5,0,0,1,75.356,29.052Zm5.295.088v.567l-.831.154a1.341,1.341,0,0,1,.189.378,1.491,1.491,0,0,1,.075.475,1.454,1.454,0,0,1-.519,1.182,2.17,2.17,0,0,1-1.428.431,2.316,2.316,0,0,1-.422-.035.582.582,0,0,0-.334.483.269.269,0,0,0,.156.25,1.349,1.349,0,0,0,.573.083h.848a1.886,1.886,0,0,1,1.222.343,1.206,1.206,0,0,1,.417.989,1.438,1.438,0,0,1-.681,1.274,3.586,3.586,0,0,1-1.969.448,2.717,2.717,0,0,1-1.516-.352,1.136,1.136,0,0,1-.523-1,1.066,1.066,0,0,1,.283-.754,1.519,1.519,0,0,1,.793-.424.776.776,0,0,1-.341-.283.716.716,0,0,1-.134-.411.707.707,0,0,1,.154-.461,1.775,1.775,0,0,1,.457-.374,1.354,1.354,0,0,1-.613-.53,1.558,1.558,0,0,1-.235-.859,1.54,1.54,0,0,1,.5-1.226,2.1,2.1,0,0,1,1.422-.435,3.46,3.46,0,0,1,.433.029,2.725,2.725,0,0,1,.341.059Zm-3.819,5.616a.568.568,0,0,0,.3.514,1.654,1.654,0,0,0,.846.18,2.556,2.556,0,0,0,1.257-.242.725.725,0,0,0,.413-.642.481.481,0,0,0-.226-.45,1.817,1.817,0,0,0-.842-.134H77.8a1.1,1.1,0,0,0-.705.209A.684.684,0,0,0,76.831,34.756Zm.444-4.043a.978.978,0,0,0,.235.7.889.889,0,0,0,.675.246q.9,0,.9-.958a1.087,1.087,0,0,0-.222-.732.843.843,0,0,0-.675-.257.869.869,0,0,0-.679.255A1.071,1.071,0,0,0,77.275,30.713ZM84.367,34l-.207-.677h-.035a1.991,1.991,0,0,1-.708.6,2.238,2.238,0,0,1-.914.16,1.547,1.547,0,0,1-1.118-.387,1.447,1.447,0,0,1-.4-1.094,1.285,1.285,0,0,1,.558-1.134,3.218,3.218,0,0,1,1.7-.417l.839-.026V30.77a.983.983,0,0,0-.218-.7.887.887,0,0,0-.675-.231,2.332,2.332,0,0,0-.716.11,5.406,5.406,0,0,0-.659.259l-.334-.738a3.594,3.594,0,0,1,.866-.314,3.984,3.984,0,0,1,.888-.108,2.1,2.1,0,0,1,1.4.4,1.583,1.583,0,0,1,.472,1.27V34Zm-1.538-.7a1.279,1.279,0,0,0,.9-.314,1.139,1.139,0,0,0,.341-.881V31.68l-.624.026a2.135,2.135,0,0,0-1.061.244.741.741,0,0,0-.332.666.65.65,0,0,0,.193.5A.831.831,0,0,0,82.829,33.3ZM90.6,34H89.561V31.012a1.308,1.308,0,0,0-.226-.839.875.875,0,0,0-.719-.277,1.142,1.142,0,0,0-.958.387,2.135,2.135,0,0,0-.3,1.3V34H86.322V29.14h.809l.145.637h.053a1.438,1.438,0,0,1,.624-.536,2.091,2.091,0,0,1,.9-.189,1.56,1.56,0,0,1,1.749,1.78Zm2.245,0H91.81V29.14h1.033Zm-1.094-6.148a.572.572,0,0,1,.152-.426.591.591,0,0,1,.433-.149.578.578,0,0,1,.424.149.572.572,0,0,1,.152.426.561.561,0,0,1-.152.415.573.573,0,0,1-.424.152.586.586,0,0,1-.433-.152A.561.561,0,0,1,91.748,27.852Zm4.306,6.236a2.128,2.128,0,0,1-1.677-.644A2.69,2.69,0,0,1,93.8,31.6a2.7,2.7,0,0,1,.6-1.885,2.225,2.225,0,0,1,1.734-.659,3.249,3.249,0,0,1,1.384.286l-.312.831a3.128,3.128,0,0,0-1.081-.255q-1.261,0-1.261,1.674a2.005,2.005,0,0,0,.314,1.228,1.088,1.088,0,0,0,.921.411,2.641,2.641,0,0,0,1.305-.343v.9a2.04,2.04,0,0,1-.591.233A3.547,3.547,0,0,1,96.054,34.088Zm3.137-6.513-.18,2.32h-.659l-.18-2.32Zm1.736,0-.18,2.32h-.659l-.18-2.32ZM105.17,34h-1.033V29.14h1.033Zm-1.094-6.148a.572.572,0,0,1,.152-.426.591.591,0,0,1,.433-.149.578.578,0,0,1,.424.149.572.572,0,0,1,.152.426.561.561,0,0,1-.152.415.573.573,0,0,1-.424.152.586.586,0,0,1-.433-.152A.561.561,0,0,1,104.076,27.852ZM110.7,34H109.66V31.012a1.308,1.308,0,0,0-.226-.839.875.875,0,0,0-.719-.277,1.142,1.142,0,0,0-.958.387,2.135,2.135,0,0,0-.3,1.3V34h-1.033V29.14h.809l.145.637h.053a1.438,1.438,0,0,1,.624-.536,2.091,2.091,0,0,1,.9-.189,1.56,1.56,0,0,1,1.749,1.78Zm2.851.088a1.693,1.693,0,0,1-1.419-.659,2.963,2.963,0,0,1-.51-1.85,2.972,2.972,0,0,1,.516-1.861,1.709,1.709,0,0,1,1.43-.666,1.676,1.676,0,0,1,1.459.708h.053a6.191,6.191,0,0,1-.075-.826V27.162h1.037V34h-.809l-.18-.637H115A1.651,1.651,0,0,1,113.549,34.088Zm.277-.835a1.124,1.124,0,0,0,.927-.358,1.886,1.886,0,0,0,.3-1.162v-.145a2.178,2.178,0,0,0-.3-1.305,1.109,1.109,0,0,0-.936-.387.95.95,0,0,0-.839.442,2.263,2.263,0,0,0-.294,1.259,2.207,2.207,0,0,0,.286,1.233A.964.964,0,0,0,113.825,33.253Zm4.5.747h-1.033V29.14h1.033Zm-1.094-6.148a.572.572,0,0,1,.152-.426.591.591,0,0,1,.433-.149.578.578,0,0,1,.424.149.572.572,0,0,1,.152.426.561.561,0,0,1-.152.415.573.573,0,0,1-.424.152.586.586,0,0,1-.433-.152A.561.561,0,0,1,117.23,27.852Zm4.306,6.236a2.128,2.128,0,0,1-1.677-.644,2.69,2.69,0,0,1-.573-1.848,2.7,2.7,0,0,1,.6-1.885,2.225,2.225,0,0,1,1.734-.659,3.249,3.249,0,0,1,1.384.286l-.312.831a3.128,3.128,0,0,0-1.081-.255q-1.261,0-1.261,1.674a2.005,2.005,0,0,0,.314,1.228,1.088,1.088,0,0,0,.921.411,2.641,2.641,0,0,0,1.305-.343v.9a2.04,2.04,0,0,1-.591.233A3.547,3.547,0,0,1,121.536,34.088ZM126.848,34l-.207-.677h-.035a1.991,1.991,0,0,1-.708.6,2.238,2.238,0,0,1-.914.16,1.547,1.547,0,0,1-1.118-.387,1.447,1.447,0,0,1-.4-1.094,1.285,1.285,0,0,1,.558-1.134,3.218,3.218,0,0,1,1.7-.417l.839-.026V30.77a.983.983,0,0,0-.218-.7.887.887,0,0,0-.675-.231,2.332,2.332,0,0,0-.716.11,5.406,5.406,0,0,0-.659.259l-.334-.738a3.594,3.594,0,0,1,.866-.314,3.984,3.984,0,0,1,.888-.108,2.1,2.1,0,0,1,1.4.4,1.583,1.583,0,0,1,.472,1.27V34Zm-1.538-.7a1.279,1.279,0,0,0,.9-.314,1.139,1.139,0,0,0,.341-.881V31.68l-.624.026a2.135,2.135,0,0,0-1.061.244.741.741,0,0,0-.332.666.65.65,0,0,0,.193.5A.831.831,0,0,0,125.31,33.3Zm5.3-.044a2.511,2.511,0,0,0,.756-.119v.778a2.085,2.085,0,0,1-.442.125,3.043,3.043,0,0,1-.56.051q-1.468,0-1.468-1.547V29.922h-.664v-.457l.712-.378.352-1.028h.637V29.14h1.384v.782h-1.384v2.6a.73.73,0,0,0,.187.552A.681.681,0,0,0,130.613,33.253Zm3.625.835a2.351,2.351,0,0,1-1.773-.661,2.511,2.511,0,0,1-.639-1.822,2.755,2.755,0,0,1,.593-1.872,2.049,2.049,0,0,1,1.63-.681,2,2,0,0,1,1.521.584,2.233,2.233,0,0,1,.558,1.608V31.8h-3.239a1.6,1.6,0,0,0,.382,1.088,1.332,1.332,0,0,0,1.015.38,3.747,3.747,0,0,0,.8-.081,4.2,4.2,0,0,0,.8-.27v.839a3.171,3.171,0,0,1-.765.255A4.689,4.689,0,0,1,134.238,34.088Zm-.189-4.254a1.038,1.038,0,0,0-.789.312,1.487,1.487,0,0,0-.354.91h2.206a1.345,1.345,0,0,0-.29-.912A.992.992,0,0,0,134.049,29.834Zm6.292,2.782a1.272,1.272,0,0,1-.519,1.092,2.483,2.483,0,0,1-1.485.38,3.509,3.509,0,0,1-1.56-.294V32.9a3.83,3.83,0,0,0,1.6.4q.954,0,.954-.576a.456.456,0,0,0-.105-.308,1.248,1.248,0,0,0-.347-.255,5.974,5.974,0,0,0-.672-.3,3.11,3.11,0,0,1-1.136-.65,1.2,1.2,0,0,1-.3-.844,1.108,1.108,0,0,1,.5-.969,2.388,2.388,0,0,1,1.369-.345,3.877,3.877,0,0,1,1.622.347l-.334.778a3.607,3.607,0,0,0-1.323-.325q-.817,0-.817.466A.469.469,0,0,0,138,30.7a4.687,4.687,0,0,0,.929.435,4.249,4.249,0,0,1,.875.426,1.274,1.274,0,0,1,.4.446A1.291,1.291,0,0,1,140.341,32.616Zm4.815.637a2.511,2.511,0,0,0,.756-.119v.778a2.085,2.085,0,0,1-.442.125,3.043,3.043,0,0,1-.56.051q-1.468,0-1.468-1.547V29.922h-.664v-.457l.712-.378.352-1.028h.637V29.14h1.384v.782h-1.384v2.6a.73.73,0,0,0,.187.552A.681.681,0,0,0,145.156,33.253Zm5.778.747H149.9V31.012a1.308,1.308,0,0,0-.226-.839.875.875,0,0,0-.719-.277,1.14,1.14,0,0,0-.956.389,2.143,2.143,0,0,0-.305,1.3V34h-1.033V27.162h1.033V28.9a8.1,8.1,0,0,1-.053.892h.066a1.434,1.434,0,0,1,.587-.545,1.891,1.891,0,0,1,.877-.193,1.567,1.567,0,0,1,1.767,1.78Zm4.253,0-.207-.677h-.035a1.991,1.991,0,0,1-.708.6,2.238,2.238,0,0,1-.914.16,1.547,1.547,0,0,1-1.118-.387,1.447,1.447,0,0,1-.4-1.094,1.285,1.285,0,0,1,.558-1.134,3.218,3.218,0,0,1,1.7-.417l.839-.026V30.77a.983.983,0,0,0-.218-.7.887.887,0,0,0-.675-.231,2.332,2.332,0,0,0-.716.11,5.406,5.406,0,0,0-.659.259l-.334-.738a3.594,3.594,0,0,1,.866-.314,3.984,3.984,0,0,1,.888-.108,2.1,2.1,0,0,1,1.4.4,1.583,1.583,0,0,1,.472,1.27V34Zm-1.538-.7a1.279,1.279,0,0,0,.9-.314,1.139,1.139,0,0,0,.341-.881V31.68l-.624.026a2.135,2.135,0,0,0-1.061.244.741.741,0,0,0-.332.666.65.65,0,0,0,.193.5A.831.831,0,0,0,153.649,33.3Zm5.3-.044a2.511,2.511,0,0,0,.756-.119v.778a2.085,2.085,0,0,1-.442.125,3.043,3.043,0,0,1-.56.051q-1.468,0-1.468-1.547V29.922h-.664v-.457l.712-.378.352-1.028h.637V29.14h1.384v.782h-1.384v2.6a.73.73,0,0,0,.187.552A.681.681,0,0,0,158.952,33.253Zm-156.4,24a2.511,2.511,0,0,0,.756-.119v.778a2.085,2.085,0,0,1-.442.125,3.043,3.043,0,0,1-.56.051q-1.468,0-1.468-1.547V53.922H.171v-.457l.712-.378.352-1.028h.637V53.14H3.256v.782H1.872v2.6a.73.73,0,0,0,.187.552A.681.681,0,0,0,2.549,57.253ZM8.327,58H7.29V55.012a1.308,1.308,0,0,0-.226-.839.875.875,0,0,0-.719-.277,1.14,1.14,0,0,0-.956.389,2.143,2.143,0,0,0-.305,1.3V58H4.051V51.162H5.084V52.9a8.1,8.1,0,0,1-.053.892H5.1a1.434,1.434,0,0,1,.587-.545,1.891,1.891,0,0,1,.877-.193,1.567,1.567,0,0,1,1.767,1.78Zm3.335.088a2.351,2.351,0,0,1-1.773-.661A2.511,2.511,0,0,1,9.249,55.6a2.755,2.755,0,0,1,.593-1.872,2.049,2.049,0,0,1,1.63-.681,2,2,0,0,1,1.521.584,2.233,2.233,0,0,1,.558,1.608V55.8H10.312a1.6,1.6,0,0,0,.382,1.088,1.332,1.332,0,0,0,1.015.38,3.747,3.747,0,0,0,.8-.081,4.2,4.2,0,0,0,.8-.27v.839a3.171,3.171,0,0,1-.765.255A4.689,4.689,0,0,1,11.661,58.088Zm-.189-4.254a1.038,1.038,0,0,0-.789.312,1.487,1.487,0,0,0-.354.91h2.206a1.345,1.345,0,0,0-.29-.912A.992.992,0,0,0,11.472,53.834Zm7.579.088H17.865V58H16.828V53.922h-.8v-.483l.8-.316v-.316a1.768,1.768,0,0,1,.4-1.277,1.653,1.653,0,0,1,1.235-.415,3.3,3.3,0,0,1,1.072.18l-.272.782a2.381,2.381,0,0,0-.729-.123.594.594,0,0,0-.512.218,1.1,1.1,0,0,0-.16.653v.316h1.187Zm4.912,1.639a2.653,2.653,0,0,1-.611,1.859,2.189,2.189,0,0,1-1.7.668,2.33,2.33,0,0,1-1.2-.308,2.031,2.031,0,0,1-.8-.883,3.008,3.008,0,0,1-.281-1.336,2.635,2.635,0,0,1,.606-1.846,2.2,2.2,0,0,1,1.709-.664,2.141,2.141,0,0,1,1.67.679A2.623,2.623,0,0,1,23.963,55.561Zm-3.538,0q0,1.683,1.244,1.683t1.23-1.683q0-1.666-1.239-1.666a1.057,1.057,0,0,0-.943.431A2.192,2.192,0,0,0,20.426,55.561Zm8.81,0a2.653,2.653,0,0,1-.611,1.859,2.189,2.189,0,0,1-1.7.668,2.33,2.33,0,0,1-1.2-.308,2.031,2.031,0,0,1-.8-.883,3.008,3.008,0,0,1-.281-1.336,2.635,2.635,0,0,1,.606-1.846,2.2,2.2,0,0,1,1.709-.664,2.141,2.141,0,0,1,1.67.679A2.623,2.623,0,0,1,29.236,55.561Zm-3.538,0q0,1.683,1.244,1.683t1.23-1.683q0-1.666-1.239-1.666a1.057,1.057,0,0,0-.943.431A2.192,2.192,0,0,0,25.7,55.561Zm6.138,2.527a1.693,1.693,0,0,1-1.419-.659,3.612,3.612,0,0,1,.007-3.711,1.709,1.709,0,0,1,1.43-.666,1.676,1.676,0,0,1,1.459.708h.053a6.191,6.191,0,0,1-.075-.826V51.162h1.037V58H33.52l-.18-.637h-.048A1.651,1.651,0,0,1,31.837,58.088Zm.277-.835a1.124,1.124,0,0,0,.927-.358,1.886,1.886,0,0,0,.3-1.162v-.145a2.178,2.178,0,0,0-.3-1.305A1.109,1.109,0,0,0,32.1,53.9a.95.95,0,0,0-.839.442,2.263,2.263,0,0,0-.294,1.259,2.207,2.207,0,0,0,.286,1.233A.964.964,0,0,0,32.113,57.253ZM41.969,58H40.932V55.012a1.308,1.308,0,0,0-.226-.839.875.875,0,0,0-.719-.277,1.14,1.14,0,0,0-.956.389,2.143,2.143,0,0,0-.305,1.3V58H37.693V51.162h1.033V52.9a8.1,8.1,0,0,1-.053.892h.066a1.434,1.434,0,0,1,.587-.545,1.891,1.891,0,0,1,.877-.193,1.567,1.567,0,0,1,1.767,1.78Zm4.253,0-.207-.677H45.98a1.991,1.991,0,0,1-.708.6,2.238,2.238,0,0,1-.914.16A1.547,1.547,0,0,1,43.24,57.7a1.447,1.447,0,0,1-.4-1.094,1.285,1.285,0,0,1,.558-1.134,3.218,3.218,0,0,1,1.7-.417l.839-.026V54.77a.983.983,0,0,0-.218-.7.887.887,0,0,0-.675-.231,2.332,2.332,0,0,0-.716.11,5.406,5.406,0,0,0-.659.259l-.334-.738a3.594,3.594,0,0,1,.866-.314,3.984,3.984,0,0,1,.888-.108,2.1,2.1,0,0,1,1.4.4,1.583,1.583,0,0,1,.472,1.27V58Zm-1.538-.7a1.279,1.279,0,0,0,.9-.314,1.139,1.139,0,0,0,.341-.881V55.68l-.624.026a2.135,2.135,0,0,0-1.061.244.741.741,0,0,0-.332.666.65.65,0,0,0,.193.5A.831.831,0,0,0,44.684,57.3Zm6.758-.681a1.272,1.272,0,0,1-.519,1.092,2.483,2.483,0,0,1-1.485.38,3.509,3.509,0,0,1-1.56-.294V56.9a3.83,3.83,0,0,0,1.6.4q.954,0,.954-.576a.456.456,0,0,0-.105-.308,1.248,1.248,0,0,0-.347-.255,5.974,5.974,0,0,0-.672-.3,3.11,3.11,0,0,1-1.136-.65,1.2,1.2,0,0,1-.3-.844,1.108,1.108,0,0,1,.5-.969,2.388,2.388,0,0,1,1.369-.345,3.877,3.877,0,0,1,1.622.347l-.334.778a3.607,3.607,0,0,0-1.323-.325q-.817,0-.817.466a.469.469,0,0,0,.213.387,4.687,4.687,0,0,0,.929.435,4.249,4.249,0,0,1,.875.426,1.274,1.274,0,0,1,.4.446A1.291,1.291,0,0,1,51.442,56.616Zm5.487-3.564a1.687,1.687,0,0,1,1.417.659,3.625,3.625,0,0,1-.007,3.711,1.872,1.872,0,0,1-2.861,0h-.07L55.219,58h-.773V51.162h1.033v1.626q0,.18-.018.536t-.026.453h.044A1.64,1.64,0,0,1,56.929,53.052Zm-.268.844a1.05,1.05,0,0,0-.9.367,2.135,2.135,0,0,0-.283,1.228v.07a2.273,2.273,0,0,0,.281,1.285,1.046,1.046,0,0,0,.918.4.931.931,0,0,0,.833-.435,2.308,2.308,0,0,0,.283-1.257Q57.794,53.9,56.66,53.9Zm5.29,4.192a2.351,2.351,0,0,1-1.773-.661,2.511,2.511,0,0,1-.639-1.822,2.755,2.755,0,0,1,.593-1.872,2.049,2.049,0,0,1,1.63-.681,2,2,0,0,1,1.521.584,2.233,2.233,0,0,1,.558,1.608V55.8H60.6a1.6,1.6,0,0,0,.382,1.088,1.332,1.332,0,0,0,1.015.38,3.747,3.747,0,0,0,.8-.081,4.2,4.2,0,0,0,.8-.27v.839a3.171,3.171,0,0,1-.765.255A4.689,4.689,0,0,1,61.951,58.088Zm-.189-4.254a1.038,1.038,0,0,0-.789.312,1.487,1.487,0,0,0-.354.91h2.206a1.345,1.345,0,0,0-.29-.912A.992.992,0,0,0,61.762,53.834Zm5.15,4.254a2.351,2.351,0,0,1-1.773-.661A2.511,2.511,0,0,1,64.5,55.6a2.755,2.755,0,0,1,.593-1.872,2.049,2.049,0,0,1,1.63-.681,2,2,0,0,1,1.521.584,2.233,2.233,0,0,1,.558,1.608V55.8H65.562a1.6,1.6,0,0,0,.382,1.088,1.332,1.332,0,0,0,1.015.38,3.747,3.747,0,0,0,.8-.081,4.2,4.2,0,0,0,.8-.27v.839a3.171,3.171,0,0,1-.765.255A4.689,4.689,0,0,1,66.911,58.088Zm-.189-4.254a1.038,1.038,0,0,0-.789.312,1.487,1.487,0,0,0-.354.91h2.206a1.345,1.345,0,0,0-.29-.912A.992.992,0,0,0,66.722,53.834ZM74.025,58H72.988V55.012a1.308,1.308,0,0,0-.226-.839.875.875,0,0,0-.719-.277,1.142,1.142,0,0,0-.958.387,2.135,2.135,0,0,0-.3,1.3V58H69.749V53.14h.809l.145.637h.053a1.438,1.438,0,0,1,.624-.536,2.091,2.091,0,0,1,.9-.189,1.56,1.56,0,0,1,1.749,1.78Zm7.429-4.86v.567l-.831.154a1.341,1.341,0,0,1,.189.378,1.491,1.491,0,0,1,.075.475,1.454,1.454,0,0,1-.519,1.182,2.17,2.17,0,0,1-1.428.431,2.316,2.316,0,0,1-.422-.035.582.582,0,0,0-.334.483.269.269,0,0,0,.156.25,1.349,1.349,0,0,0,.573.083h.848a1.886,1.886,0,0,1,1.222.343,1.206,1.206,0,0,1,.417.989,1.438,1.438,0,0,1-.681,1.274,3.586,3.586,0,0,1-1.969.448,2.717,2.717,0,0,1-1.516-.352,1.136,1.136,0,0,1-.523-1A1.066,1.066,0,0,1,77,58.055a1.519,1.519,0,0,1,.793-.424.776.776,0,0,1-.341-.283.716.716,0,0,1-.134-.411.707.707,0,0,1,.154-.461,1.775,1.775,0,0,1,.457-.374,1.354,1.354,0,0,1-.613-.53,1.558,1.558,0,0,1-.235-.859,1.54,1.54,0,0,1,.5-1.226A2.1,2.1,0,0,1,79,53.052a3.46,3.46,0,0,1,.433.029,2.725,2.725,0,0,1,.341.059Zm-3.819,5.616a.568.568,0,0,0,.3.514,1.654,1.654,0,0,0,.846.18,2.556,2.556,0,0,0,1.257-.242.725.725,0,0,0,.413-.642.481.481,0,0,0-.226-.45,1.817,1.817,0,0,0-.842-.134H78.6a1.1,1.1,0,0,0-.705.209A.684.684,0,0,0,77.636,58.756Zm.444-4.043a.978.978,0,0,0,.235.7.889.889,0,0,0,.675.246q.9,0,.9-.958a1.087,1.087,0,0,0-.222-.732.843.843,0,0,0-.675-.257.869.869,0,0,0-.679.255A1.071,1.071,0,0,0,78.079,54.713ZM84.6,53.052a2.486,2.486,0,0,1,.514.044l-.1.962a1.952,1.952,0,0,0-.457-.053,1.323,1.323,0,0,0-1,.4,1.461,1.461,0,0,0-.385,1.05V58H82.13V53.14h.809l.136.857h.053a1.926,1.926,0,0,1,.631-.69A1.5,1.5,0,0,1,84.6,53.052Zm5.5,2.509a2.653,2.653,0,0,1-.611,1.859,2.189,2.189,0,0,1-1.7.668,2.33,2.33,0,0,1-1.2-.308,2.031,2.031,0,0,1-.8-.883,3.008,3.008,0,0,1-.281-1.336,2.635,2.635,0,0,1,.606-1.846,2.2,2.2,0,0,1,1.709-.664,2.141,2.141,0,0,1,1.67.679A2.623,2.623,0,0,1,90.1,55.561Zm-3.538,0q0,1.683,1.244,1.683t1.23-1.683q0-1.666-1.239-1.666a1.057,1.057,0,0,0-.943.431A2.192,2.192,0,0,0,86.559,55.561ZM95.044,58l-.628-2.268q-.114-.36-.413-1.674h-.04q-.255,1.187-.4,1.683L92.913,58H91.77l-1.362-4.86h1.055l.62,2.4q.211.888.3,1.521h.026q.044-.321.134-.736T92.7,55.7l.738-2.558h1.134l.716,2.558q.066.215.165.659a5.072,5.072,0,0,1,.116.69H95.6a13.485,13.485,0,0,1,.308-1.512l.628-2.4h1.037L96.2,58Zm7.417,0h-1.037V55.012a1.308,1.308,0,0,0-.226-.839.875.875,0,0,0-.719-.277,1.142,1.142,0,0,0-.958.387,2.135,2.135,0,0,0-.3,1.3V58H98.185V53.14h.809l.145.637h.053a1.438,1.438,0,0,1,.624-.536,2.091,2.091,0,0,1,.9-.189,1.56,1.56,0,0,1,1.749,1.78Zm7.311,0-.628-2.268q-.114-.36-.413-1.674h-.04q-.255,1.187-.4,1.683L107.641,58H106.5l-1.362-4.86h1.055l.62,2.4q.211.888.3,1.521h.026q.044-.321.134-.736t.156-.622l.738-2.558H109.3l.716,2.558q.066.215.165.659a5.072,5.072,0,0,1,.116.69h.035a13.485,13.485,0,0,1,.308-1.512l.628-2.4H112.3L110.932,58Zm4.174,0h-1.033V53.14h1.033Zm-1.094-6.148a.572.572,0,0,1,.152-.426.591.591,0,0,1,.433-.149.578.578,0,0,1,.424.149.572.572,0,0,1,.152.426.561.561,0,0,1-.152.415.573.573,0,0,1-.424.152.586.586,0,0,1-.433-.152A.561.561,0,0,1,112.852,51.852Zm4.156,5.4a2.511,2.511,0,0,0,.756-.119v.778a2.085,2.085,0,0,1-.442.125,3.043,3.043,0,0,1-.56.051q-1.468,0-1.468-1.547V53.922h-.664v-.457l.712-.378.352-1.028h.637V53.14h1.384v.782h-1.384v2.6a.73.73,0,0,0,.187.552A.681.681,0,0,0,117.008,57.253Zm5.778.747h-1.037V55.012a1.308,1.308,0,0,0-.226-.839.875.875,0,0,0-.719-.277,1.14,1.14,0,0,0-.956.389,2.143,2.143,0,0,0-.305,1.3V58H118.51V51.162h1.033V52.9a8.1,8.1,0,0,1-.053.892h.066a1.434,1.434,0,0,1,.587-.545,1.891,1.891,0,0,1,.877-.193,1.567,1.567,0,0,1,1.767,1.78Zm5.523-2.439a2.653,2.653,0,0,1-.611,1.859,2.189,2.189,0,0,1-1.7.668,2.33,2.33,0,0,1-1.2-.308,2.031,2.031,0,0,1-.8-.883,3.008,3.008,0,0,1-.281-1.336,2.635,2.635,0,0,1,.606-1.846,2.2,2.2,0,0,1,1.709-.664,2.141,2.141,0,0,1,1.67.679A2.623,2.623,0,0,1,128.309,55.561Zm-3.538,0q0,1.683,1.244,1.683t1.23-1.683q0-1.666-1.239-1.666a1.057,1.057,0,0,0-.943.431A2.192,2.192,0,0,0,124.771,55.561ZM132.7,58l-.145-.637H132.5a1.465,1.465,0,0,1-.613.532,2.05,2.05,0,0,1-.907.193,1.781,1.781,0,0,1-1.318-.439,1.822,1.822,0,0,1-.435-1.332V53.14h1.042v3a1.3,1.3,0,0,0,.229.837.872.872,0,0,0,.716.279,1.14,1.14,0,0,0,.956-.389,2.143,2.143,0,0,0,.305-1.3V53.14h1.037V58Zm3.871-.747a2.511,2.511,0,0,0,.756-.119v.778a2.085,2.085,0,0,1-.442.125,3.043,3.043,0,0,1-.56.051q-1.468,0-1.468-1.547V53.922h-.664v-.457l.712-.378.352-1.028h.637V53.14h1.384v.782h-1.384v2.6a.73.73,0,0,0,.187.552A.681.681,0,0,0,136.569,57.253ZM3.2,82.088a1.7,1.7,0,0,1-1.433-.664H1.709q.062.615.062.747v1.991H.738V77.14h.835q.035.136.145.65h.053a1.618,1.618,0,0,1,1.45-.738,1.687,1.687,0,0,1,1.417.659A3.615,3.615,0,0,1,4.63,81.42,1.7,1.7,0,0,1,3.2,82.088ZM2.953,77.9a1.073,1.073,0,0,0-.9.36,1.868,1.868,0,0,0-.283,1.151v.154a2.273,2.273,0,0,0,.281,1.285,1.046,1.046,0,0,0,.918.4A.932.932,0,0,0,3.8,80.8a2.269,2.269,0,0,0,.29-1.252A2.19,2.19,0,0,0,3.8,78.315.96.96,0,0,0,2.953,77.9Zm5.29,4.192a2.351,2.351,0,0,1-1.773-.661A2.511,2.511,0,0,1,5.831,79.6a2.755,2.755,0,0,1,.593-1.872,2.049,2.049,0,0,1,1.63-.681,2,2,0,0,1,1.521.584,2.233,2.233,0,0,1,.558,1.608V79.8H6.894a1.6,1.6,0,0,0,.382,1.088,1.332,1.332,0,0,0,1.015.38,3.747,3.747,0,0,0,.8-.081,4.2,4.2,0,0,0,.8-.27v.839a3.171,3.171,0,0,1-.765.255A4.689,4.689,0,0,1,8.243,82.088Zm-.189-4.254a1.038,1.038,0,0,0-.789.312,1.487,1.487,0,0,0-.354.91H9.118a1.345,1.345,0,0,0-.29-.912A.992.992,0,0,0,8.054,77.834Zm6.292,2.782a1.272,1.272,0,0,1-.519,1.092,2.483,2.483,0,0,1-1.485.38,3.509,3.509,0,0,1-1.56-.294V80.9a3.83,3.83,0,0,0,1.6.4q.954,0,.954-.576a.456.456,0,0,0-.105-.308,1.248,1.248,0,0,0-.347-.255,5.974,5.974,0,0,0-.672-.3,3.11,3.11,0,0,1-1.136-.65,1.2,1.2,0,0,1-.3-.844,1.108,1.108,0,0,1,.5-.969,2.388,2.388,0,0,1,1.369-.345,3.877,3.877,0,0,1,1.622.347l-.334.778a3.607,3.607,0,0,0-1.323-.325q-.817,0-.817.466a.469.469,0,0,0,.213.387,4.687,4.687,0,0,0,.929.435,4.249,4.249,0,0,1,.875.426,1.274,1.274,0,0,1,.4.446A1.291,1.291,0,0,1,14.346,80.616Zm2.7.637a2.511,2.511,0,0,0,.756-.119v.778a2.085,2.085,0,0,1-.442.125,3.043,3.043,0,0,1-.56.051q-1.468,0-1.468-1.547V77.922h-.664v-.457l.712-.378.352-1.028h.637V77.14h1.384v.782H16.371v2.6a.73.73,0,0,0,.187.552A.681.681,0,0,0,17.048,81.253ZM19.583,82H18.55V77.14h1.033Zm-1.094-6.148a.572.572,0,0,1,.152-.426.591.591,0,0,1,.433-.149.578.578,0,0,1,.424.149.572.572,0,0,1,.152.426.561.561,0,0,1-.152.415.573.573,0,0,1-.424.152.586.586,0,0,1-.433-.152A.561.561,0,0,1,18.489,75.852Zm4.306,6.236a2.128,2.128,0,0,1-1.677-.644,3.263,3.263,0,0,1,.026-3.733,2.225,2.225,0,0,1,1.734-.659,3.249,3.249,0,0,1,1.384.286l-.312.831a3.128,3.128,0,0,0-1.081-.255q-1.261,0-1.261,1.674a2.005,2.005,0,0,0,.314,1.228,1.088,1.088,0,0,0,.921.411,2.641,2.641,0,0,0,1.305-.343v.9a2.04,2.04,0,0,1-.591.233A3.547,3.547,0,0,1,22.794,82.088ZM26.1,82H25.066V77.14H26.1ZM25,75.852a.572.572,0,0,1,.152-.426.591.591,0,0,1,.433-.149.578.578,0,0,1,.424.149.572.572,0,0,1,.152.426.561.561,0,0,1-.152.415.573.573,0,0,1-.424.152.586.586,0,0,1-.433-.152A.561.561,0,0,1,25,75.852Zm3.985,6.236a1.693,1.693,0,0,1-1.419-.659,3.612,3.612,0,0,1,.007-3.711,1.709,1.709,0,0,1,1.43-.666,1.676,1.676,0,0,1,1.459.708h.053a6.191,6.191,0,0,1-.075-.826V75.162h1.037V82h-.809l-.18-.637h-.048A1.651,1.651,0,0,1,28.989,82.088Zm.277-.835a1.124,1.124,0,0,0,.927-.358,1.886,1.886,0,0,0,.3-1.162v-.145a2.178,2.178,0,0,0-.3-1.305,1.109,1.109,0,0,0-.936-.387.95.95,0,0,0-.839.442,2.263,2.263,0,0,0-.294,1.259,2.207,2.207,0,0,0,.286,1.233A.964.964,0,0,0,29.266,81.253Zm5.589.835a2.351,2.351,0,0,1-1.773-.661,2.511,2.511,0,0,1-.639-1.822,2.755,2.755,0,0,1,.593-1.872,2.049,2.049,0,0,1,1.63-.681,2,2,0,0,1,1.521.584,2.233,2.233,0,0,1,.558,1.608V79.8H33.506a1.6,1.6,0,0,0,.382,1.088,1.332,1.332,0,0,0,1.015.38,3.747,3.747,0,0,0,.8-.081,4.2,4.2,0,0,0,.8-.27v.839a3.171,3.171,0,0,1-.765.255A4.689,4.689,0,0,1,34.855,82.088Zm-.189-4.254a1.038,1.038,0,0,0-.789.312,1.487,1.487,0,0,0-.354.91h2.206a1.345,1.345,0,0,0-.29-.912A.992.992,0,0,0,34.666,77.834Zm6.292,2.782a1.272,1.272,0,0,1-.519,1.092,2.483,2.483,0,0,1-1.485.38,3.509,3.509,0,0,1-1.56-.294V80.9a3.83,3.83,0,0,0,1.6.4q.954,0,.954-.576a.456.456,0,0,0-.105-.308,1.248,1.248,0,0,0-.347-.255,5.974,5.974,0,0,0-.672-.3,3.11,3.11,0,0,1-1.136-.65,1.2,1.2,0,0,1-.3-.844,1.108,1.108,0,0,1,.5-.969,2.388,2.388,0,0,1,1.369-.345,3.877,3.877,0,0,1,1.622.347l-.334.778a3.607,3.607,0,0,0-1.323-.325q-.817,0-.817.466a.469.469,0,0,0,.213.387,4.687,4.687,0,0,0,.929.435,4.249,4.249,0,0,1,.875.426,1.274,1.274,0,0,1,.4.446A1.291,1.291,0,0,1,40.958,80.616Zm7.315-1.055a2.653,2.653,0,0,1-.611,1.859,2.189,2.189,0,0,1-1.7.668,2.33,2.33,0,0,1-1.2-.308,2.031,2.031,0,0,1-.8-.883,3.008,3.008,0,0,1-.281-1.336,2.635,2.635,0,0,1,.606-1.846,2.2,2.2,0,0,1,1.709-.664,2.141,2.141,0,0,1,1.67.679A2.623,2.623,0,0,1,48.273,79.561Zm-3.538,0q0,1.683,1.244,1.683t1.23-1.683q0-1.666-1.239-1.666a1.057,1.057,0,0,0-.943.431A2.192,2.192,0,0,0,44.735,79.561ZM51.7,77.052a2.486,2.486,0,0,1,.514.044l-.1.962a1.952,1.952,0,0,0-.457-.053,1.323,1.323,0,0,0-1,.4,1.461,1.461,0,0,0-.385,1.05V82H49.235V77.14h.809l.136.857h.053a1.926,1.926,0,0,1,.631-.69A1.5,1.5,0,0,1,51.7,77.052Zm7.614,2.509A2.653,2.653,0,0,1,58.7,81.42a2.189,2.189,0,0,1-1.7.668,2.33,2.33,0,0,1-1.2-.308,2.031,2.031,0,0,1-.8-.883,3.008,3.008,0,0,1-.281-1.336,2.635,2.635,0,0,1,.606-1.846,2.2,2.2,0,0,1,1.709-.664,2.141,2.141,0,0,1,1.67.679A2.623,2.623,0,0,1,59.314,79.561Zm-3.538,0q0,1.683,1.244,1.683t1.23-1.683q0-1.666-1.239-1.666a1.057,1.057,0,0,0-.943.431A2.192,2.192,0,0,0,55.776,79.561Zm6.31,1.692a2.511,2.511,0,0,0,.756-.119v.778a2.085,2.085,0,0,1-.442.125,3.043,3.043,0,0,1-.56.051q-1.468,0-1.468-1.547V77.922h-.664v-.457l.712-.378.352-1.028h.637V77.14h1.384v.782H61.409v2.6a.73.73,0,0,0,.187.552A.681.681,0,0,0,62.086,81.253ZM67.864,82H66.827V79.012a1.308,1.308,0,0,0-.226-.839.875.875,0,0,0-.719-.277,1.14,1.14,0,0,0-.956.389,2.143,2.143,0,0,0-.305,1.3V82H63.588V75.162h1.033V76.9a8.1,8.1,0,0,1-.053.892h.066a1.434,1.434,0,0,1,.587-.545,1.891,1.891,0,0,1,.877-.193,1.567,1.567,0,0,1,1.767,1.78Zm3.335.088a2.351,2.351,0,0,1-1.773-.661,2.511,2.511,0,0,1-.639-1.822,2.755,2.755,0,0,1,.593-1.872,2.049,2.049,0,0,1,1.63-.681,2,2,0,0,1,1.521.584,2.233,2.233,0,0,1,.558,1.608V79.8H69.849a1.6,1.6,0,0,0,.382,1.088,1.332,1.332,0,0,0,1.015.38,3.747,3.747,0,0,0,.8-.081,4.2,4.2,0,0,0,.8-.27v.839a3.171,3.171,0,0,1-.765.255A4.689,4.689,0,0,1,71.2,82.088Zm-.189-4.254a1.038,1.038,0,0,0-.789.312,1.487,1.487,0,0,0-.354.91h2.206a1.345,1.345,0,0,0-.29-.912A.992.992,0,0,0,71.009,77.834Zm5.492-.782a2.486,2.486,0,0,1,.514.044l-.1.962a1.952,1.952,0,0,0-.457-.053,1.323,1.323,0,0,0-1,.4,1.461,1.461,0,0,0-.385,1.05V82H74.036V77.14h.809l.136.857h.053a1.926,1.926,0,0,1,.631-.69A1.5,1.5,0,0,1,76.5,77.052Zm5.263,5.036a2.128,2.128,0,0,1-1.677-.644,3.263,3.263,0,0,1,.026-3.733,2.225,2.225,0,0,1,1.734-.659,3.249,3.249,0,0,1,1.384.286l-.312.831a3.128,3.128,0,0,0-1.081-.255q-1.261,0-1.261,1.674a2.005,2.005,0,0,0,.314,1.228,1.088,1.088,0,0,0,.921.411,2.641,2.641,0,0,0,1.305-.343v.9a2.04,2.04,0,0,1-.591.233A3.547,3.547,0,0,1,81.765,82.088ZM88.312,82H87.275V79.012a1.308,1.308,0,0,0-.226-.839.875.875,0,0,0-.719-.277,1.14,1.14,0,0,0-.956.389,2.143,2.143,0,0,0-.305,1.3V82H84.036V75.162h1.033V76.9a8.1,8.1,0,0,1-.053.892h.066a1.434,1.434,0,0,1,.587-.545,1.891,1.891,0,0,1,.877-.193,1.567,1.567,0,0,1,1.767,1.78Zm3.335.088a2.351,2.351,0,0,1-1.773-.661,2.511,2.511,0,0,1-.639-1.822,2.755,2.755,0,0,1,.593-1.872,2.049,2.049,0,0,1,1.63-.681,2,2,0,0,1,1.521.584,2.233,2.233,0,0,1,.558,1.608V79.8H90.3a1.6,1.6,0,0,0,.382,1.088,1.332,1.332,0,0,0,1.015.38,3.747,3.747,0,0,0,.8-.081,4.2,4.2,0,0,0,.8-.27v.839a3.171,3.171,0,0,1-.765.255A4.689,4.689,0,0,1,91.646,82.088Zm-.189-4.254a1.038,1.038,0,0,0-.789.312,1.487,1.487,0,0,0-.354.91h2.206a1.345,1.345,0,0,0-.29-.912A.992.992,0,0,0,91.457,77.834ZM98.58,82H97.543V79a1.359,1.359,0,0,0-.211-.833.778.778,0,0,0-.659-.275,1,1,0,0,0-.877.389,2.282,2.282,0,0,0-.279,1.294V82H94.484V77.14h.809l.145.637h.053a1.346,1.346,0,0,1,.587-.536,1.892,1.892,0,0,1,.846-.189,1.478,1.478,0,0,1,1.485.765h.07a1.482,1.482,0,0,1,.606-.562,1.925,1.925,0,0,1,.9-.2,1.632,1.632,0,0,1,1.268.439,1.946,1.946,0,0,1,.4,1.34V82h-1.033V79a1.348,1.348,0,0,0-.213-.833.785.785,0,0,0-.661-.275,1.025,1.025,0,0,0-.881.376,1.937,1.937,0,0,0-.279,1.154Zm5.317,0h-1.033V77.14H103.9ZM102.8,75.852a.572.572,0,0,1,.152-.426.591.591,0,0,1,.433-.149.578.578,0,0,1,.424.149.572.572,0,0,1,.152.426.561.561,0,0,1-.152.415.573.573,0,0,1-.424.152.586.586,0,0,1-.433-.152A.561.561,0,0,1,102.8,75.852Zm4.306,6.236a2.128,2.128,0,0,1-1.677-.644,3.263,3.263,0,0,1,.026-3.733,2.225,2.225,0,0,1,1.734-.659,3.249,3.249,0,0,1,1.384.286l-.312.831a3.128,3.128,0,0,0-1.081-.255q-1.261,0-1.261,1.674a2.005,2.005,0,0,0,.314,1.228,1.088,1.088,0,0,0,.921.411,2.641,2.641,0,0,0,1.305-.343v.9a2.04,2.04,0,0,1-.591.233A3.547,3.547,0,0,1,107.108,82.088ZM112.42,82l-.207-.677h-.035a1.991,1.991,0,0,1-.708.6,2.238,2.238,0,0,1-.914.16,1.547,1.547,0,0,1-1.118-.387,1.447,1.447,0,0,1-.4-1.094,1.285,1.285,0,0,1,.558-1.134,3.218,3.218,0,0,1,1.7-.417l.839-.026V78.77a.983.983,0,0,0-.218-.7.887.887,0,0,0-.675-.231,2.332,2.332,0,0,0-.716.11,5.406,5.406,0,0,0-.659.259l-.334-.738a3.594,3.594,0,0,1,.866-.314,3.984,3.984,0,0,1,.888-.108,2.1,2.1,0,0,1,1.4.4,1.583,1.583,0,0,1,.472,1.27V82Zm-1.538-.7a1.279,1.279,0,0,0,.9-.314,1.139,1.139,0,0,0,.341-.881V79.68l-.624.026a2.135,2.135,0,0,0-1.061.244.741.741,0,0,0-.332.666.65.65,0,0,0,.193.5A.831.831,0,0,0,110.882,81.3Zm4.525.7h-1.033V75.162h1.033Zm4.517-1.384a1.272,1.272,0,0,1-.519,1.092,2.483,2.483,0,0,1-1.485.38,3.509,3.509,0,0,1-1.56-.294V80.9a3.83,3.83,0,0,0,1.6.4q.954,0,.954-.576a.456.456,0,0,0-.105-.308,1.248,1.248,0,0,0-.347-.255,5.974,5.974,0,0,0-.672-.3,3.11,3.11,0,0,1-1.136-.65,1.2,1.2,0,0,1-.3-.844,1.108,1.108,0,0,1,.5-.969,2.388,2.388,0,0,1,1.369-.345,3.877,3.877,0,0,1,1.622.347l-.334.778a3.607,3.607,0,0,0-1.323-.325q-.817,0-.817.466a.469.469,0,0,0,.213.387,4.687,4.687,0,0,0,.929.435,4.249,4.249,0,0,1,.875.426,1.274,1.274,0,0,1,.4.446A1.291,1.291,0,0,1,119.924,80.616Z" transform="translate(16.756 60.418)" fill="#212e3a"/></g></g></svg>