<svg xmlns="http://www.w3.org/2000/svg" width="112.297" height="35.242" viewBox="0 0 112.297 35.242"><path d="M0,0H10.638V3.632H3.683V7.158h6.955v3.566H3.683v5.13h6.955V19.5H0V0" fill="#00ad50"/><path d="M14.917,19.531H11.3v-1.9a7.153,7.153,0,0,1-2.124,1.452,5.979,5.979,0,0,1-2.309.444,6.441,6.441,0,0,1-4.83-2.167A7.6,7.6,0,0,1,0,11.974,7.789,7.789,0,0,1,1.972,6.5a6.306,6.306,0,0,1,4.79-2.134A6.1,6.1,0,0,1,9.2,4.855a6.668,6.668,0,0,1,2.1,1.472L11.207,0h3.617l.093,19.53ZM6.647,7.7A3.67,3.67,0,0,0,3.861,8.892a4.3,4.3,0,0,0-1.109,3.043A4.342,4.342,0,0,0,3.881,15.01,3.67,3.67,0,0,0,6.66,16.217,3.743,3.743,0,0,0,9.486,15.03a4.361,4.361,0,0,0,1.122-3.109,4.237,4.237,0,0,0-1.122-3.05A3.787,3.787,0,0,0,6.647,7.7Z" transform="translate(12.853 0)" fill="#00ad50"/><path d="M0,0H3.773V7.46a8.268,8.268,0,0,0,.288,2.647,2.34,2.34,0,0,0,.925,1.152,2.84,2.84,0,0,0,1.569.411,2.941,2.941,0,0,0,1.583-.4,2.409,2.409,0,0,0,.966-1.19,8.332,8.332,0,0,0,.233-2.5V0h3.732V6.676a12.926,12.926,0,0,1-.615,4.857,5.455,5.455,0,0,1-2.215,2.448,7.311,7.311,0,0,1-3.719.853,7.065,7.065,0,0,1-3.957-1A5.291,5.291,0,0,1,.437,11.061,15.4,15.4,0,0,1,0,6.576V0" transform="translate(30.442 4.772)" fill="#00ad50"/><path d="M0,19.531H1.855V0H0Z" transform="translate(46.828 0.075)" fill="#434b5d"/><path d="M14.7,14.853H12.909V12.062a7.82,7.82,0,0,1-2.562,2.091,6.956,6.956,0,0,1-3.106.7,6.919,6.919,0,0,1-5.119-2.174A7.325,7.325,0,0,1,0,7.388a7.19,7.19,0,0,1,2.141-5.22A7,7,0,0,1,7.292,0a6.7,6.7,0,0,1,3.146.739A7.2,7.2,0,0,1,12.909,2.96V.363H14.7v14.49ZM7.44,1.752A5.48,5.48,0,0,0,2.6,4.592,5.73,5.73,0,0,0,2.607,10.3a5.6,5.6,0,0,0,2.054,2.12,5.378,5.378,0,0,0,2.767.759,5.691,5.691,0,0,0,2.825-.752,5.273,5.273,0,0,0,2.054-2.036A5.827,5.827,0,0,0,13.027,7.5a5.648,5.648,0,0,0-1.614-4.1A5.367,5.367,0,0,0,7.44,1.752Z" transform="translate(51.828 4.752)" fill="#434b5d"/><path d="M8.446,1.661,7.277,2.869A3.283,3.283,0,0,0,4.417,1.7,2.226,2.226,0,0,0,2.9,2.284a1.807,1.807,0,0,0-.63,1.363A2.021,2.021,0,0,0,2.79,4.96,7.287,7.287,0,0,0,4.975,6.453,8.173,8.173,0,0,1,7.731,8.478a3.7,3.7,0,0,1,.714,2.22,3.986,3.986,0,0,1-1.221,2.947,4.169,4.169,0,0,1-3.054,1.208,5.332,5.332,0,0,1-2.333-.533A5.057,5.057,0,0,1,0,12.854l1.141-1.3a3.97,3.97,0,0,0,2.952,1.571,2.655,2.655,0,0,0,1.86-.7,2.164,2.164,0,0,0,.768-1.648,2.112,2.112,0,0,0-.508-1.389A8.144,8.144,0,0,0,3.925,7.881a7.343,7.343,0,0,1-2.6-1.948A3.67,3.67,0,0,1,.636,3.739a3.569,3.569,0,0,1,1.1-2.675A3.826,3.826,0,0,1,4.509,0,4.677,4.677,0,0,1,8.446,1.661" transform="translate(69.978 4.752)" fill="#434b5d"/><path d="M1.565,0H3.42V5.678H6.149V7.425H3.42V19.531H1.565V7.425H0V5.678H1.565V0" transform="translate(81.747 0.075)" fill="#434b5d"/><path d="M14.407,3.307l-1.444.9A6.05,6.05,0,0,0,7.853,1.719a5.907,5.907,0,0,0-4.3,1.666,5.436,5.436,0,0,0-1.71,4.045,5.748,5.748,0,0,0,.787,2.914,5.515,5.515,0,0,0,2.157,2.121,6.278,6.278,0,0,0,3.076.754,6.216,6.216,0,0,0,5.1-2.487l1.444.951a6.827,6.827,0,0,1-2.726,2.373,8.7,8.7,0,0,1-3.9.844,7.689,7.689,0,0,1-5.568-2.136A6.946,6.946,0,0,1,0,7.566,7.418,7.418,0,0,1,1.035,3.744,7.294,7.294,0,0,1,3.878.99,8.3,8.3,0,0,1,7.925,0a8.615,8.615,0,0,1,2.714.43,7.538,7.538,0,0,1,2.219,1.12,6.093,6.093,0,0,1,1.548,1.758" transform="translate(97.89 4.708)" fill="#434b5d"/><path d="M1.518,0A1.47,1.47,0,0,1,2.6.451a1.488,1.488,0,0,1,.449,1.087A1.473,1.473,0,0,1,2.6,2.611a1.473,1.473,0,0,1-1.082.451A1.459,1.459,0,0,1,.448,2.611,1.473,1.473,0,0,1,0,1.538,1.488,1.488,0,0,1,.448.451,1.456,1.456,0,0,1,1.518,0" transform="translate(91.654 0.075)" fill="#00ad50"/><path d="M0,14.924H1.855V0H0Z" transform="translate(92.251 4.772)" fill="#434b5d"/><text transform="translate(111 32.242)" fill="#434b5d" font-size="9" font-family="OpenSans-Bold, Open Sans" font-weight="700" letter-spacing="0.1em"><tspan x="-51.73" y="0">CERTIFIED</tspan></text></svg>