<svg xmlns="http://www.w3.org/2000/svg" width="65.742" height="26.186" viewBox="0 0 65.742 26.186"><path d="M8.517,0H1.312V-12.136H8.517V-9.5H4.59V-7.6H8.226v2.631H4.59v2.291H8.517ZM20.959-12.136v7.3a4.9,4.9,0,0,1-1.349,3.69A5.365,5.365,0,0,1,15.722.166,5.314,5.314,0,0,1,11.907-1.1a4.808,4.808,0,0,1-1.332-3.652v-7.379h3.3v7.122a2.918,2.918,0,0,0,.481,1.868,1.737,1.737,0,0,0,1.419.581,1.738,1.738,0,0,0,1.457-.577,3.09,3.09,0,0,0,.452-1.888v-7.105Zm5.827,7.72V0H23.508V-12.136h3.976q4.947,0,4.947,3.586a3.583,3.583,0,0,1-2.059,3.262L33.909,0H30.19L27.617-4.416Zm0-2.465H27.4q1.718,0,1.718-1.519,0-1.253-1.685-1.253h-.647ZM42.218,0H35.013V-12.136h7.205V-9.5H38.292V-7.6h3.636v2.631H38.292v2.291h3.926ZM54.71,0h-3.7l-2.4-4.64-.971.581V0h-3.3V-12.136h3.3v5.271a14.386,14.386,0,0,1,1-1.552l2.548-3.719h3.586L50.95-6.7Zm8.757,0-.6-2.274H58.927L58.313,0h-3.6L58.67-12.186h4.375L67.054,0ZM62.189-4.964l-.523-1.992q-.183-.664-.444-1.718t-.344-1.511q-.075.423-.295,1.395t-.975,3.827ZM6.6,14,4.117,5.259H4.042q.174,2.233.174,3.47V14H1.312V1.864H5.678L8.209,10.48h.066l2.482-8.616h4.375V14H12.119V8.679q0-.415.012-.921t.112-2.482h-.075L9.72,14Zm18.594,0-.6-2.274H20.652L20.038,14h-3.6L20.4,1.814H24.77L28.779,14ZM23.915,9.036l-.523-1.992q-.183-.664-.444-1.718T22.6,3.815q-.075.423-.295,1.395t-.975,3.827ZM35.444,14H32.166V4.545H29.2V1.864h9.2V4.545H35.444Zm15.091,0h-3.3V9.053H43.43V14h-3.3V1.864h3.3v4.5h3.81v-4.5h3.3Z" transform="translate(-1.312 12.186)" fill="#fff"/></svg>