<svg xmlns="http://www.w3.org/2000/svg" width="10.456" height="13.746" viewBox="0 0 10.456 13.746"><g transform="translate(0 0)"><path d="M107.3,6.723a3.108,3.108,0,0,0,2.768-3.362C110.07,1.505,109.663,0,107.3,0s-2.768,1.505-2.768,3.362A3.108,3.108,0,0,0,107.3,6.723Z" transform="translate(-102.075)" fill="#bbbfc4"/><path d="M41.9,300.43c0-.113,0-.032,0,0Z" transform="translate(-41.895 -288.574)" fill="#bbbfc4"/><path d="M308.085,301.589c0-.031,0-.215,0,0Z" transform="translate(-297.63 -289.644)" fill="#bbbfc4"/><path d="M52.357,182.479c-.051-3.234-.474-4.156-3.706-4.739a2.271,2.271,0,0,1-3.031,0c-3.2.577-3.645,1.485-3.7,4.634,0,.257-.007.271-.008.241,0,.056,0,.159,0,.34,0,0,.77,1.551,5.227,1.551s5.227-1.551,5.227-1.551c0-.116,0-.2,0-.251A2.08,2.08,0,0,1,52.357,182.479Z" transform="translate(-41.908 -170.759)" fill="#bbbfc4"/></g></svg>