<svg xmlns="http://www.w3.org/2000/svg" width="13.482" height="14.988" viewBox="0 0 13.482 14.988"><g transform="translate(0 0)"><path d="M36.8,5.272a2.1,2.1,0,0,0-1.506.6L29.944,2.787a1.282,1.282,0,0,0,.075-.527,2.26,2.26,0,1,0-4.519,0,2.219,2.219,0,0,0,2.26,2.26,2.1,2.1,0,0,0,1.506-.6L34.614,7a1.282,1.282,0,0,0-.075.527,1.282,1.282,0,0,0,.075.527l-5.348,3.163a2.1,2.1,0,0,0-1.506-.6A2.184,2.184,0,1,0,29.944,12.8a1.47,1.47,0,0,0-.075-.527l5.348-3.163a2.1,2.1,0,0,0,1.506.6,2.219,2.219,0,0,0,2.26-2.26A2.1,2.1,0,0,0,36.8,5.272Z" transform="translate(-25.5)" fill="#bbbfc4"/></g></svg>