<svg xmlns="http://www.w3.org/2000/svg" width="247.207" height="145.945" viewBox="0 0 247.207 145.945"><g transform="translate(-16.756 -52.54)"><rect width="247.207" height="145.945" rx="5" transform="translate(16.756 52.54)" fill="#fff"/><g transform="translate(34.756 160.6)"><rect width="68" height="22" rx="4" fill="#3f85e5"/><text transform="translate(11.809 5)" fill="#fff" font-size="9" font-family="OpenSans-Semibold, Open Sans" font-weight="600"><tspan x="1.077" y="10">OPTION 1</tspan></text></g><g transform="translate(106.857 160.6)"><rect width="68" height="22" rx="4" transform="translate(-0.103)" fill="#3f85e5"/><text transform="translate(12.809 5)" fill="#fff" font-size="9" font-family="OpenSans-Semibold, Open Sans" font-weight="600"><tspan x="0.077" y="10">OPTION 2</tspan></text></g><g transform="translate(178.959 160.6)"><rect width="68" height="22" rx="4" transform="translate(-0.203)" fill="#3f85e5"/><text transform="translate(12.809 5)" fill="#fff" font-size="9" font-family="OpenSans-Semibold, Open Sans" font-weight="600"><tspan x="0.077" y="10">OPTION 3</tspan></text></g><g transform="translate(34.623 66.807)"><g transform="translate(0 27)"><g transform="translate(122.133 -4.208)" fill="#f8f8f8" stroke="#858585" stroke-width="1.5" stroke-dasharray="5 5"><rect width="90" height="48" rx="2" stroke="none"/><rect x="0.75" y="0.75" width="88.5" height="46.5" rx="1.25" fill="none"/></g><text transform="translate(140.133 -15.896)" fill="#212e3a" font-size="12" font-family="OpenSans-Semibold, Open Sans" font-weight="600"><tspan x="0" y="0">Column 2</tspan></text><g transform="translate(-122)"><g transform="translate(122.133 -4.208)" fill="#f8f8f8" stroke="#858585" stroke-width="1.5" stroke-dasharray="5 5"><rect width="90" height="48" rx="2" stroke="none"/><rect x="0.75" y="0.75" width="88.5" height="46.5" rx="1.25" fill="none"/></g><text transform="translate(167.133 -15.896)" fill="#212e3a" font-size="12" font-family="OpenSans-Semibold, Open Sans" font-weight="600"><tspan x="-27.478" y="0">Column 1</tspan></text></g></g></g></g></svg>