<svg xmlns="http://www.w3.org/2000/svg" width="247.207" height="145.945" viewBox="0 0 247.207 145.945"><g transform="translate(-16.756 -52.54)"><rect width="247.207" height="145.945" rx="5" transform="translate(16.756 52.54)" fill="#fff"/><g transform="translate(34.66 66.807)"><text transform="translate(147.133 11.104)" fill="#212e3a" font-size="12" font-family="OpenSans-Semibold, Open Sans" font-weight="600"><tspan x="0" y="0">and</tspan></text><g transform="translate(122.096 -4.208)" fill="#f8f8f8" stroke="#858585" stroke-width="1.5" stroke-dasharray="5 5"><rect width="90" height="22" rx="2" stroke="none"/><rect x="0.75" y="0.75" width="88.5" height="20.5" rx="1.25" fill="none"/></g><g transform="translate(0.096 -4.208)"><g fill="#f8f8f8" stroke="#858585" stroke-width="1"><rect width="90" height="22" rx="2" stroke="none"/><rect x="0.5" y="0.5" width="89" height="21" rx="1.5" fill="none"/></g></g><text transform="translate(45.096 10.792)" fill="#212e3a" font-size="10" font-family="OpenSans-Semibold, Open Sans" font-weight="600"><tspan x="-16.528" y="0">Stem 1</tspan></text><g transform="translate(85.418 -24.197)"><g transform="translate(10 28)"><circle cx="3" cy="3" r="3" transform="translate(0.678 -0.01)" fill="#878a91"/><circle cx="3" cy="3" r="3" transform="translate(14.678 -0.01)" fill="#878a91"/><line x2="9.824" transform="translate(5.766 3.203)" fill="none" stroke="#878a91" stroke-width="2"/></g></g><g transform="translate(0 27)"><g transform="translate(122.133 -4.208)" fill="#f8f8f8" stroke="#858585" stroke-width="1.5" stroke-dasharray="5 5"><rect width="90" height="22" rx="2" stroke="none"/><rect x="0.75" y="0.75" width="88.5" height="20.5" rx="1.25" fill="none"/></g><g transform="translate(0.096 -4.208)"><g fill="#f8f8f8" stroke="#858585" stroke-width="1"><rect width="90" height="22" rx="2" stroke="none"/><rect x="0.5" y="0.5" width="89" height="21" rx="1.5" fill="none"/></g></g><text transform="translate(45.096 10.792)" fill="#212e3a" font-size="10" font-family="OpenSans-Semibold, Open Sans" font-weight="600"><tspan x="-16.528" y="0">Stem 2</tspan></text><g transform="translate(95.418 3.803)"><circle cx="3" cy="3" r="3" transform="translate(0.678 -0.01)" fill="#878a91"/><circle cx="3" cy="3" r="3" transform="translate(14.678 -0.01)" fill="#878a91"/><line x2="9.824" transform="translate(5.766 3.203)" fill="none" stroke="#878a91" stroke-width="2"/></g></g></g><g transform="translate(332)"><g transform="translate(-261.244 160.6)"><rect width="68" height="22" rx="4" fill="#3f85e5"/><text transform="translate(11.809 5)" fill="#fff" font-size="9" font-family="OpenSans-Semibold, Open Sans" font-weight="600"><tspan x="0.67" y="10">OPTION A</tspan></text></g><g transform="translate(-189.143 160.6)"><rect width="68" height="22" rx="4" transform="translate(-0.103)" fill="#3f85e5"/><text transform="translate(11.809 5)" fill="#fff" font-size="9" font-family="OpenSans-Semibold, Open Sans" font-weight="600"><tspan x="0.675" y="10">OPTION B</tspan></text></g></g></g></svg>