<svg xmlns="http://www.w3.org/2000/svg" width="288.489" height="138.967" viewBox="0 0 288.489 138.967"><g transform="translate(-309 -187)"><g transform="translate(309 187.001)" fill="#fff"><path d="M 283.4887084960938 42.46641540527344 L 4.999997138977051 42.46641540527344 C 2.518675565719604 42.46641540527344 0.4999971091747284 40.44773864746094 0.4999971091747284 37.96641540527344 L 0.4999971091747284 4.999987602233887 C 0.4999971091747284 2.51866626739502 2.518675565719604 0.4999876916408539 4.999997138977051 0.4999876916408539 L 283.4887084960938 0.4999876916408539 C 285.9700317382813 0.4999876916408539 287.9887084960938 2.51866626739502 287.9887084960938 4.999987602233887 L 287.9887084960938 37.96641540527344 C 287.9887084960938 40.44773864746094 285.9700317382813 42.46641540527344 283.4887084960938 42.46641540527344 Z" stroke="none"/><path d="M 5 0.9999885559082031 C 2.794403076171875 0.9999885559082031 1 2.794380187988281 1 4.999988555908203 L 1 37.96641540527344 C 1 40.17202377319336 2.794403076171875 41.96641540527344 5 41.96641540527344 L 283.4887084960938 41.96641540527344 C 285.6943054199219 41.96641540527344 287.4887084960938 40.17202377319336 287.4887084960938 37.96641540527344 L 287.4887084960938 4.999988555908203 C 287.4887084960938 2.794380187988281 285.6943054199219 0.9999885559082031 283.4887084960938 0.9999885559082031 L 5 0.9999885559082031 M 5 -1.1444091796875e-05 L 283.4887084960938 -1.1444091796875e-05 C 286.2500915527344 -1.1444091796875e-05 288.4887084960938 2.238559722900391 288.4887084960938 4.999988555908203 L 288.4887084960938 37.96641540527344 C 288.4887084960938 40.72784423828125 286.2500915527344 42.96641540527344 283.4887084960938 42.96641540527344 L 5 42.96641540527344 C 2.238555908203125 42.96641540527344 0 40.72784423828125 0 37.96641540527344 L 0 4.999988555908203 C 0 2.238559722900391 2.238555908203125 -1.1444091796875e-05 5 -1.1444091796875e-05 Z" stroke="none" fill="#dbdbdb"/></g><path d="M0,0H15.507V2.827H0Z" transform="translate(322.973 212.31)" fill="#00ad50"/><path d="M0,0H15.507V2.827H0Z" transform="translate(322.973 206.742)" fill="#00ad50"/><path d="M0,0H15.507V2.827H0Z" transform="translate(322.973 201.001)" fill="#00ad50"/><path d="M-19.508-3.937a4.261,4.261,0,0,1-.967,3A3.584,3.584,0,0,1-23.247.107,3.584,3.584,0,0,1-26.018-.94a4.278,4.278,0,0,1-.967-3.008,4.219,4.219,0,0,1,.969-2.994,3.625,3.625,0,0,1,2.78-1.034,3.575,3.575,0,0,1,2.769,1.042A4.272,4.272,0,0,1-19.508-3.937Zm-5.731,0a3.28,3.28,0,0,0,.5,1.982,1.748,1.748,0,0,0,1.493.666q1.993,0,1.993-2.648T-23.236-6.59a1.76,1.76,0,0,0-1.5.669A3.266,3.266,0,0,0-25.239-3.937Zm9.228-.22h.548a1.825,1.825,0,0,0,1.149-.3,1.062,1.062,0,0,0,.381-.884,1.089,1.089,0,0,0-.32-.865,1.5,1.5,0,0,0-1-.279h-.757Zm3.76-1.246a2.4,2.4,0,0,1-.792,1.939,3.388,3.388,0,0,1-2.253.671h-.714V0h-1.665V-7.853h2.508A3.336,3.336,0,0,1-13-7.238,2.242,2.242,0,0,1-12.252-5.4ZM-7.536,0H-9.2V-6.467h-2.132V-7.853H-5.4v1.386H-7.536Zm3.545,0V-7.853h1.665V0ZM6.983-3.937a4.261,4.261,0,0,1-.967,3A3.584,3.584,0,0,1,3.244.107,3.584,3.584,0,0,1,.473-.94,4.278,4.278,0,0,1-.494-3.948,4.219,4.219,0,0,1,.475-6.942a3.625,3.625,0,0,1,2.78-1.034A3.575,3.575,0,0,1,6.024-6.934,4.272,4.272,0,0,1,6.983-3.937Zm-5.731,0a3.28,3.28,0,0,0,.5,1.982,1.748,1.748,0,0,0,1.493.666q1.993,0,1.993-2.648T3.255-6.59a1.76,1.76,0,0,0-1.5.669A3.266,3.266,0,0,0,1.252-3.937ZM15.781,0H13.664L10.248-5.94H10.2q.1,1.574.1,2.245V0H8.814V-7.853h2.1l3.411,5.881h.038q-.081-1.531-.081-2.165V-7.853h1.5ZM25.83,0l-.569-1.869H22.4L21.829,0H20.035l2.771-7.885h2.036L27.624,0Zm-.967-3.266q-.79-2.541-.889-2.874t-.142-.526q-.177.688-1.015,3.4Z" transform="translate(381 213)" fill="#7c848e"/><g transform="translate(309 235.001)" fill="#fff"><path d="M 283.4887084960938 42.46641540527344 L 4.999997138977051 42.46641540527344 C 2.518675565719604 42.46641540527344 0.4999971091747284 40.44773864746094 0.4999971091747284 37.96641540527344 L 0.4999971091747284 4.999987602233887 C 0.4999971091747284 2.51866626739502 2.518675565719604 0.4999876916408539 4.999997138977051 0.4999876916408539 L 283.4887084960938 0.4999876916408539 C 285.9700317382813 0.4999876916408539 287.9887084960938 2.51866626739502 287.9887084960938 4.999987602233887 L 287.9887084960938 37.96641540527344 C 287.9887084960938 40.44773864746094 285.9700317382813 42.46641540527344 283.4887084960938 42.46641540527344 Z" stroke="none"/><path d="M 5 0.9999885559082031 C 2.794403076171875 0.9999885559082031 1 2.794380187988281 1 4.999988555908203 L 1 37.96641540527344 C 1 40.17202377319336 2.794403076171875 41.96641540527344 5 41.96641540527344 L 283.4887084960938 41.96641540527344 C 285.6943054199219 41.96641540527344 287.4887084960938 40.17202377319336 287.4887084960938 37.96641540527344 L 287.4887084960938 4.999988555908203 C 287.4887084960938 2.794380187988281 285.6943054199219 0.9999885559082031 283.4887084960938 0.9999885559082031 L 5 0.9999885559082031 M 5 -1.1444091796875e-05 L 283.4887084960938 -1.1444091796875e-05 C 286.2500915527344 -1.1444091796875e-05 288.4887084960938 2.238559722900391 288.4887084960938 4.999988555908203 L 288.4887084960938 37.96641540527344 C 288.4887084960938 40.72784423828125 286.2500915527344 42.96641540527344 283.4887084960938 42.96641540527344 L 5 42.96641540527344 C 2.238555908203125 42.96641540527344 0 40.72784423828125 0 37.96641540527344 L 0 4.999988555908203 C 0 2.238559722900391 2.238555908203125 -1.1444091796875e-05 5 -1.1444091796875e-05 Z" stroke="none" fill="#dbdbdb"/></g><path d="M0,0H15.507V2.827H0Z" transform="translate(322.973 260.31)" fill="#00ad50"/><path d="M0,0H15.507V2.827H0Z" transform="translate(322.973 254.742)" fill="#00ad50"/><path d="M0,0H15.507V2.827H0Z" transform="translate(322.973 249.001)" fill="#00ad50"/><path d="M8.116-3.937a4.261,4.261,0,0,1-.967,3A3.584,3.584,0,0,1,4.377.107,3.584,3.584,0,0,1,1.606-.94,4.278,4.278,0,0,1,.639-3.948a4.219,4.219,0,0,1,.969-2.994,3.625,3.625,0,0,1,2.78-1.034A3.575,3.575,0,0,1,7.157-6.934,4.272,4.272,0,0,1,8.116-3.937Zm-5.731,0a3.28,3.28,0,0,0,.5,1.982,1.748,1.748,0,0,0,1.493.666q1.993,0,1.993-2.648T4.388-6.59a1.76,1.76,0,0,0-1.5.669A3.266,3.266,0,0,0,2.385-3.937Zm9.228-.22h.548a1.825,1.825,0,0,0,1.149-.3,1.062,1.062,0,0,0,.381-.884,1.089,1.089,0,0,0-.32-.865,1.5,1.5,0,0,0-1-.279h-.757ZM15.372-5.4a2.4,2.4,0,0,1-.792,1.939,3.388,3.388,0,0,1-2.253.671h-.714V0H9.947V-7.853h2.508a3.336,3.336,0,0,1,2.173.615A2.242,2.242,0,0,1,15.372-5.4ZM20.088,0H18.423V-6.467H16.291V-7.853h5.93v1.386H20.088Zm3.545,0V-7.853H25.3V0ZM34.607-3.937a4.261,4.261,0,0,1-.967,3A3.584,3.584,0,0,1,30.868.107,3.584,3.584,0,0,1,28.1-.94a4.278,4.278,0,0,1-.967-3.008A4.219,4.219,0,0,1,28.1-6.942a3.625,3.625,0,0,1,2.78-1.034,3.575,3.575,0,0,1,2.769,1.042A4.272,4.272,0,0,1,34.607-3.937Zm-5.731,0a3.28,3.28,0,0,0,.5,1.982,1.748,1.748,0,0,0,1.493.666q1.993,0,1.993-2.648T30.879-6.59a1.76,1.76,0,0,0-1.5.669A3.266,3.266,0,0,0,28.876-3.937ZM43.4,0H41.289L37.873-5.94h-.048q.1,1.574.1,2.245V0H36.438V-7.853h2.1l3.411,5.881h.038q-.081-1.531-.081-2.165V-7.853h1.5Zm5.243-7.853h2.444a4.709,4.709,0,0,1,2.425.475,1.655,1.655,0,0,1,.755,1.512,1.905,1.905,0,0,1-.33,1.155,1.32,1.32,0,0,1-.878.542v.054a1.73,1.73,0,0,1,1.077.623,2.027,2.027,0,0,1,.33,1.214A2,2,0,0,1,53.693-.6a3.357,3.357,0,0,1-2.108.6H48.647Zm1.665,3.11h.967a1.768,1.768,0,0,0,.98-.209.781.781,0,0,0,.3-.693.693.693,0,0,0-.33-.647,2.123,2.123,0,0,0-1.045-.2h-.875Zm0,1.321v2.046H51.4a1.609,1.609,0,0,0,1.015-.263.971.971,0,0,0,.328-.806q0-.978-1.4-.978Z" transform="translate(353 261)" fill="#7c848e"/><g transform="translate(309 283.001)" fill="#fff"><path d="M 283.4887084960938 42.46641540527344 L 4.999997138977051 42.46641540527344 C 2.518675565719604 42.46641540527344 0.4999971091747284 40.44773864746094 0.4999971091747284 37.96641540527344 L 0.4999971091747284 4.999987602233887 C 0.4999971091747284 2.51866626739502 2.518675565719604 0.4999876916408539 4.999997138977051 0.4999876916408539 L 283.4887084960938 0.4999876916408539 C 285.9700317382813 0.4999876916408539 287.9887084960938 2.51866626739502 287.9887084960938 4.999987602233887 L 287.9887084960938 37.96641540527344 C 287.9887084960938 40.44773864746094 285.9700317382813 42.46641540527344 283.4887084960938 42.46641540527344 Z" stroke="none"/><path d="M 5 0.9999885559082031 C 2.794403076171875 0.9999885559082031 1 2.794380187988281 1 4.999988555908203 L 1 37.96641540527344 C 1 40.17202377319336 2.794403076171875 41.96641540527344 5 41.96641540527344 L 283.4887084960938 41.96641540527344 C 285.6943054199219 41.96641540527344 287.4887084960938 40.17202377319336 287.4887084960938 37.96641540527344 L 287.4887084960938 4.999988555908203 C 287.4887084960938 2.794380187988281 285.6943054199219 0.9999885559082031 283.4887084960938 0.9999885559082031 L 5 0.9999885559082031 M 5 -1.1444091796875e-05 L 283.4887084960938 -1.1444091796875e-05 C 286.2500915527344 -1.1444091796875e-05 288.4887084960938 2.238559722900391 288.4887084960938 4.999988555908203 L 288.4887084960938 37.96641540527344 C 288.4887084960938 40.72784423828125 286.2500915527344 42.96641540527344 283.4887084960938 42.96641540527344 L 5 42.96641540527344 C 2.238555908203125 42.96641540527344 0 40.72784423828125 0 37.96641540527344 L 0 4.999988555908203 C 0 2.238559722900391 2.238555908203125 -1.1444091796875e-05 5 -1.1444091796875e-05 Z" stroke="none" fill="#dbdbdb"/></g><path d="M0,0H15.507V2.827H0Z" transform="translate(322.973 308.31)" fill="#00ad50"/><path d="M0,0H15.507V2.827H0Z" transform="translate(322.973 302.742)" fill="#00ad50"/><path d="M0,0H15.507V2.827H0Z" transform="translate(322.973 297.001)" fill="#00ad50"/><path d="M8.116-3.937a4.261,4.261,0,0,1-.967,3A3.584,3.584,0,0,1,4.377.107,3.584,3.584,0,0,1,1.606-.94,4.278,4.278,0,0,1,.639-3.948a4.219,4.219,0,0,1,.969-2.994,3.625,3.625,0,0,1,2.78-1.034A3.575,3.575,0,0,1,7.157-6.934,4.272,4.272,0,0,1,8.116-3.937Zm-5.731,0a3.28,3.28,0,0,0,.5,1.982,1.748,1.748,0,0,0,1.493.666q1.993,0,1.993-2.648T4.388-6.59a1.76,1.76,0,0,0-1.5.669A3.266,3.266,0,0,0,2.385-3.937Zm9.228-.22h.548a1.825,1.825,0,0,0,1.149-.3,1.062,1.062,0,0,0,.381-.884,1.089,1.089,0,0,0-.32-.865,1.5,1.5,0,0,0-1-.279h-.757ZM15.372-5.4a2.4,2.4,0,0,1-.792,1.939,3.388,3.388,0,0,1-2.253.671h-.714V0H9.947V-7.853h2.508a3.336,3.336,0,0,1,2.173.615A2.242,2.242,0,0,1,15.372-5.4ZM20.088,0H18.423V-6.467H16.291V-7.853h5.93v1.386H20.088Zm3.545,0V-7.853H25.3V0ZM34.607-3.937a4.261,4.261,0,0,1-.967,3A3.584,3.584,0,0,1,30.868.107,3.584,3.584,0,0,1,28.1-.94a4.278,4.278,0,0,1-.967-3.008A4.219,4.219,0,0,1,28.1-6.942a3.625,3.625,0,0,1,2.78-1.034,3.575,3.575,0,0,1,2.769,1.042A4.272,4.272,0,0,1,34.607-3.937Zm-5.731,0a3.28,3.28,0,0,0,.5,1.982,1.748,1.748,0,0,0,1.493.666q1.993,0,1.993-2.648T30.879-6.59a1.76,1.76,0,0,0-1.5.669A3.266,3.266,0,0,0,28.876-3.937ZM43.4,0H41.289L37.873-5.94h-.048q.1,1.574.1,2.245V0H36.438V-7.853h2.1l3.411,5.881h.038q-.081-1.531-.081-2.165V-7.853h1.5Zm8.578-6.58a1.7,1.7,0,0,0-1.456.706A3.286,3.286,0,0,0,50.012-3.9q0,2.626,1.971,2.626a6.231,6.231,0,0,0,2-.414V-.3a5.564,5.564,0,0,1-2.159.4A3.293,3.293,0,0,1,49.206-.932,4.4,4.4,0,0,1,48.3-3.916a4.872,4.872,0,0,1,.446-2.146,3.222,3.222,0,0,1,1.281-1.413,3.79,3.79,0,0,1,1.958-.491,5.284,5.284,0,0,1,2.3.553l-.537,1.354a8.891,8.891,0,0,0-.886-.365A2.644,2.644,0,0,0,51.983-6.58Z" transform="translate(353 309)" fill="#7c848e"/></g></svg>