<svg xmlns="http://www.w3.org/2000/svg" width="247.207" height="145.945" viewBox="0 0 247.207 145.945"><g transform="translate(-16.756 -51.6)"><rect width="247.207" height="145.945" rx="5" transform="translate(16.756 51.6)" fill="#fff"/><g transform="translate(34.623 66.808)"><g transform="translate(0.096 -4.208)"><g fill="#f8f8f8" stroke="#858585" stroke-width="1"><rect width="212" height="22" rx="2" stroke="none"/><rect x="0.5" y="0.5" width="211" height="21" rx="1.5" fill="none"/></g></g><text transform="translate(26.133 10.792)" fill="#212e3a" font-size="10" font-family="OpenSans-Semibold, Open Sans" font-weight="600"><tspan x="0" y="0">Option 1</tspan></text><g transform="translate(6.133 2.792)"><rect width="8.776" height="1.669" transform="translate(0 6.331)" fill="#878a91"/><rect width="8.776" height="1.669" transform="translate(0 3.214)" fill="#878a91"/><rect width="8.776" height="1.669" transform="translate(0 0)" fill="#878a91"/></g><g transform="translate(0 27)"><g transform="translate(0.096 -4.208)"><g fill="#f8f8f8" stroke="#858585" stroke-width="1"><rect width="212" height="22" rx="2" stroke="none"/><rect x="0.5" y="0.5" width="211" height="21" rx="1.5" fill="none"/></g></g><text transform="translate(26.133 10.792)" fill="#212e3a" font-size="10" font-family="OpenSans-Semibold, Open Sans" font-weight="600"><tspan x="0" y="0">Option 2</tspan></text><g transform="translate(6.133 2.792)"><rect width="8.776" height="1.669" transform="translate(0 6.331)" fill="#878a91"/><rect width="8.776" height="1.669" transform="translate(0 3.214)" fill="#878a91"/><rect width="8.776" height="1.669" transform="translate(0 0)" fill="#878a91"/></g></g><g transform="translate(0 54)"><g transform="translate(0.096 -4.208)"><g fill="#f8f8f8" stroke="#858585" stroke-width="1"><rect width="212" height="22" rx="2" stroke="none"/><rect x="0.5" y="0.5" width="211" height="21" rx="1.5" fill="none"/></g></g><text transform="translate(26.133 10.792)" fill="#212e3a" font-size="10" font-family="OpenSans-Semibold, Open Sans" font-weight="600"><tspan x="0" y="0">Option 3</tspan></text><g transform="translate(6.133 2.792)"><rect width="8.776" height="1.669" transform="translate(0 6.331)" fill="#878a91"/><rect width="8.776" height="1.669" transform="translate(0 3.214)" fill="#878a91"/><rect width="8.776" height="1.669" transform="translate(0 0)" fill="#878a91"/></g></g></g></g></svg>