<svg xmlns="http://www.w3.org/2000/svg" width="247.207" height="145.945" viewBox="0 0 247.207 145.945"><g transform="translate(-17.078 -52.54)"><rect width="247.207" height="145.945" rx="5" transform="translate(17.078 52.54)" fill="#fff"/><g transform="translate(34.623 66.807)"><g transform="translate(122.133 -4.208)" fill="#f8f8f8" stroke="#858585" stroke-width="1.5" stroke-dasharray="5 5"><rect width="90" height="22" rx="2" stroke="none"/><rect x="0.75" y="0.75" width="88.5" height="20.5" rx="1.25" fill="none"/></g><g transform="translate(0.096 -4.208)"><g fill="#f8f8f8" stroke="#858585" stroke-width="1"><rect width="90" height="22" rx="2" stroke="none"/><rect x="0.5" y="0.5" width="89" height="21" rx="1.5" fill="none"/></g></g><text transform="translate(26.133 10.792)" fill="#212e3a" font-size="10" font-family="OpenSans-Semibold, Open Sans" font-weight="600"><tspan x="0" y="0">Option 1</tspan></text><g transform="translate(6.133 2.792)"><rect width="8.776" height="1.669" transform="translate(0 6.331)" fill="#878a91"/><rect width="8.776" height="1.669" transform="translate(0 3.214)" fill="#878a91"/><rect width="8.776" height="1.669" transform="translate(0 0)" fill="#878a91"/></g><g transform="translate(0 27)"><g transform="translate(122.133 -4.208)" fill="#f8f8f8" stroke="#858585" stroke-width="1.5" stroke-dasharray="5 5"><rect width="90" height="22" rx="2" stroke="none"/><rect x="0.75" y="0.75" width="88.5" height="20.5" rx="1.25" fill="none"/></g><g transform="translate(0.096 -4.208)"><g fill="#f8f8f8" stroke="#858585" stroke-width="1"><rect width="90" height="22" rx="2" stroke="none"/><rect x="0.5" y="0.5" width="89" height="21" rx="1.5" fill="none"/></g></g><text transform="translate(26.133 10.792)" fill="#212e3a" font-size="10" font-family="OpenSans-Semibold, Open Sans" font-weight="600"><tspan x="0" y="0">Option 2</tspan></text><g transform="translate(6.133 2.792)"><rect width="8.776" height="1.669" transform="translate(0 6.331)" fill="#878a91"/><rect width="8.776" height="1.669" transform="translate(0 3.214)" fill="#878a91"/><rect width="8.776" height="1.669" transform="translate(0 0)" fill="#878a91"/></g><g transform="translate(111.18 2.792) rotate(90)"><path d="M55.275,4.11h6.393a.454.454,0,0,0,.321-.778l-3.2-3.2a.448.448,0,0,0-.642,0l-3.2,3.2a.457.457,0,0,0,.321.778Z" transform="translate(-54.818)" fill="#3f85e5"/><path d="M61.668,237.549H55.275a.454.454,0,0,0-.321.778l3.2,3.2a.448.448,0,0,0,.642,0l3.2-3.2a.457.457,0,0,0-.321-.778Z" transform="translate(-54.818 -231.612)" fill="#3f85e5"/></g></g><g transform="translate(0 54)"><g transform="translate(122.133 -4.208)" fill="#f8f8f8" stroke="#858585" stroke-width="1.5" stroke-dasharray="5 5"><rect width="90" height="22" rx="2" stroke="none"/><rect x="0.75" y="0.75" width="88.5" height="20.5" rx="1.25" fill="none"/></g><g transform="translate(0.096 -4.208)"><g fill="#f8f8f8" stroke="#858585" stroke-width="1"><rect width="90" height="22" rx="2" stroke="none"/><rect x="0.5" y="0.5" width="89" height="21" rx="1.5" fill="none"/></g></g><text transform="translate(26.133 10.792)" fill="#212e3a" font-size="10" font-family="OpenSans-Semibold, Open Sans" font-weight="600"><tspan x="0" y="0">Option 3</tspan></text><g transform="translate(6.133 2.792)"><rect width="8.776" height="1.669" transform="translate(0 6.331)" fill="#878a91"/><rect width="8.776" height="1.669" transform="translate(0 3.214)" fill="#878a91"/><rect width="8.776" height="1.669" transform="translate(0 0)" fill="#878a91"/></g></g></g></g></svg>