<svg xmlns="http://www.w3.org/2000/svg" width="14.816" height="13.944" viewBox="0 0 14.816 13.944"><path d="M-5.6-9.5A5.917,5.917,0,0,0-5.33-7.44a.918.918,0,0,0,.881.677q1.225,0,1.225-2.737t-1.225-2.737a.918.918,0,0,0-.881.677A5.917,5.917,0,0,0-5.6-9.5Zm4.175-.019a5.514,5.514,0,0,1-.765,3.205A2.6,2.6,0,0,1-4.448-5.242,2.511,2.511,0,0,1-6.633-6.35a5.492,5.492,0,0,1-.775-3.168q0-4.24,2.959-4.24a2.586,2.586,0,0,1,2.24,1.1A5.359,5.359,0,0,1-1.424-9.519ZM3.233-4.082a5.906,5.906,0,0,0,.274,2.069.928.928,0,0,0,.886.687q1.215,0,1.215-2.755Q5.608-6.8,4.393-6.8a.925.925,0,0,0-.886.668A5.742,5.742,0,0,0,3.233-4.082Zm4.175,0a5.465,5.465,0,0,1-.77,3.2A2.6,2.6,0,0,1,4.393.186,2.529,2.529,0,0,1,2.2-.914a5.44,5.44,0,0,1-.779-3.168q0-4.24,2.969-4.24A2.586,2.586,0,0,1,6.615-7.227,5.307,5.307,0,0,1,7.408-4.082ZM4.653-13.563-2.871,0h-1.8L2.853-13.563Z" transform="translate(7.408 13.758)" fill="#22242b"/></svg>