<?xml version="1.0" encoding="UTF-8"?>
<svg width="12px" height="19px" viewBox="0 0 12 19" version="1.1"
	xmlns="http://www.w3.org/2000/svg"
	xmlns:xlink="http://www.w3.org/1999/xlink">
	<g id="Page-1" stroke="none" stroke-width="1" fill="none" fill-rule="evenodd">
		<g id="Path-3348" transform="translate(0.000000, 1.000000)">
			<path d="M1.703,8.698 C1.61663387,9.88068721 2.0594801,11.0407319 2.912,11.865 C3.97549606,12.6565439 5.29054069,13.0343526 6.612,12.928 L11.82,12.928 L11.82,14.476 L6.062,14.476 C5.22928124,14.486105 4.40035877,14.3621887 3.607,14.109 C2.89708819,13.8821214 2.2440768,13.5056595 1.692,13.005 C1.14779468,12.4989885 0.722291663,11.8788333 0.446,11.189 C0.135144737,10.3960257 -0.0164087187,9.5495691 -8.8817842e-16,8.698 C-0.0179527625,7.8456427 0.150293653,6.99963284 0.493,6.219 C0.799316045,5.53585856 1.24918471,4.92671115 1.812,4.433 C2.37648082,3.94850276 3.03291076,3.58287469 3.742,3.358 C4.49150063,3.11658324 5.2745896,2.99574451 6.062,2.9998914 L11.82,2.9998914 L11.82,4.551 L6.25,4.551 C5.03046253,4.46163955 3.82056514,4.82318535 2.85,5.567 C2.02583346,6.39120877 1.60629278,7.53644144 1.703,8.698 Z" id="Path" fill="#22242B" fill-rule="nonzero"></path>
			<line x1="7.5" y1="0.5" x2="4.5" y2="16.5" id="Line" stroke="#22242B" stroke-width="2" stroke-linecap="square"></line>
		</g>
	</g>
</svg>