<svg xmlns="http://www.w3.org/2000/svg" width="13.379" height="15.703" viewBox="0 0 13.379 15.703"><path d="M14.561-7.158a7.81,7.81,0,0,1-1.743,5.42A6.3,6.3,0,0,1,7.881.2,7.254,7.254,0,0,1,4.355-.6L3.438.742,2.061-.176l.957-1.406a7.78,7.78,0,0,1-1.836-5.6,7.737,7.737,0,0,1,1.743-5.43A6.423,6.423,0,0,1,7.9-14.5a7.28,7.28,0,0,1,3.457.8l.879-1.26,1.387.9L12.656-12.7A7.582,7.582,0,0,1,14.561-7.158Zm-2.48,0a6.917,6.917,0,0,0-.781-3.525l-5.723,8.3a4.3,4.3,0,0,0,2.3.586,3.751,3.751,0,0,0,3.14-1.348A6.413,6.413,0,0,0,12.08-7.158Zm-8.418,0a6.919,6.919,0,0,0,.762,3.535l5.732-8.3A4.1,4.1,0,0,0,7.9-12.5a3.789,3.789,0,0,0-3.169,1.357A6.34,6.34,0,0,0,3.662-7.158Z" transform="translate(-1.182 14.961)" fill="#22242b"/></svg>