<svg xmlns="http://www.w3.org/2000/svg" width="11.82" height="15.556" viewBox="0 0 11.82 15.556"><path d="M.95,1.242H.768a1.469,1.469,0,0,1-.182-.012L-.131,3.31H-1.822l.811-2.291A5.841,5.841,0,0,1-2.7.314,4.909,4.909,0,0,1-4-.855a5.115,5.115,0,0,1-.828-1.621,6.9,6.9,0,0,1-.288-2.062,5.86,5.86,0,0,1,.493-2.479A5.213,5.213,0,0,1-3.3-8.8,5.53,5.53,0,0,1-1.37-9.879,7.436,7.436,0,0,1,.95-10.237H2.96l.717-2.009H5.3l-.7,2.009H6.708v1.551H4.052L2.877-5.314h3.83v1.551H2.337L1.127-.309H6.708V1.242Zm.188-9.928a5.284,5.284,0,0,0-3.166.828A3.472,3.472,0,0,0-3.362-5.314H1.221L2.407-8.686Zm-4.5,4.923a3.878,3.878,0,0,0,.869,2.115A3.752,3.752,0,0,0-.471-.52L.668-3.763Z" transform="translate(5.112 12.246)" fill="#22242b"/></svg>