<svg xmlns="http://www.w3.org/2000/svg" width="11.54" height="15.662" viewBox="0 0 11.54 15.662"><path d="M.829-12.949a6.49,6.49,0,0,0-2.415.425,5.376,5.376,0,0,0-1.825,1.175A5.073,5.073,0,0,0-4.569-9.571a6.113,6.113,0,0,0-.4,2.244V2.713H-3.4v-9.5A5.283,5.283,0,0,1-2.384-10.25a3.838,3.838,0,0,1,3.13-1.223A4.006,4.006,0,0,1,3.923-10.25,5.084,5.084,0,0,1,5-6.784v9.5H6.569V-7.327a6.229,6.229,0,0,0-.4-2.256A5.128,5.128,0,0,0,5.04-11.361a5.131,5.131,0,0,0-1.8-1.169A6.524,6.524,0,0,0,.829-12.949Z" transform="translate(4.971 12.949)" fill="#22242b"/></svg>