<svg xmlns="http://www.w3.org/2000/svg" width="11.54" height="15.662" viewBox="0 0 11.54 15.662"><path d="M.829,2.713a6.49,6.49,0,0,1-2.415-.425A5.376,5.376,0,0,1-3.412,1.113,5.073,5.073,0,0,1-4.569-.665a6.113,6.113,0,0,1-.4-2.244v-10.04H-3.4v9.5A5.283,5.283,0,0,0-2.384.014,3.838,3.838,0,0,0,.746,1.237,4.006,4.006,0,0,0,3.923.014,5.084,5.084,0,0,0,5-3.453v-9.5H6.569v10.04a6.229,6.229,0,0,1-.4,2.256A5.128,5.128,0,0,1,5.04,1.124a5.131,5.131,0,0,1-1.8,1.169A6.524,6.524,0,0,1,.829,2.713Z" transform="translate(4.971 12.949)" fill="#22242b"/></svg>