<svg xmlns="http://www.w3.org/2000/svg" width="11.82" height="11.479" viewBox="0 0 11.82 11.479"><path d="M-5.112.9H.645A7.765,7.765,0,0,0,3.1.533a5.213,5.213,0,0,0,1.915-1.1A5.037,5.037,0,0,0,6.261-2.387a6.483,6.483,0,0,0,.446-2.491,5.86,5.86,0,0,0-.493-2.479A5.213,5.213,0,0,0,4.892-9.143a5.53,5.53,0,0,0-1.927-1.075,7.436,7.436,0,0,0-2.321-.358H-5.112v1.551H.457A5.284,5.284,0,0,1,3.623-8.2,3.472,3.472,0,0,1,4.957-5.653H-5.112V-4.1H4.957A3.523,3.523,0,0,1,3.565-1.511,5.853,5.853,0,0,1,.1-.648H-5.112Z" transform="translate(5.112 10.576)" fill="#22242b"/></svg>