<svg xmlns="http://www.w3.org/2000/svg" width="11.82" height="16.932" viewBox="0 0 11.82 16.932"><path d="M6.708,2.488H-4.337V.937H6.708ZM-3.409-6.583A4,4,0,0,0-2.2-3.416a5.463,5.463,0,0,0,3.7,1.063H6.708V-.8H.95a7.765,7.765,0,0,1-2.456-.37,5.213,5.213,0,0,1-1.915-1.1A5.037,5.037,0,0,1-4.666-4.092a6.483,6.483,0,0,1-.446-2.491,5.82,5.82,0,0,1,.493-2.473A5.166,5.166,0,0,1-3.3-10.83,5.5,5.5,0,0,1-1.37-11.894a7.549,7.549,0,0,1,2.32-.352H6.708V-10.7H1.138a5.05,5.05,0,0,0-3.4,1A3.907,3.907,0,0,0-3.409-6.583Z" transform="translate(5.112 13.473)" fill="#22242b"/><path d="M0,0,16.852.776" transform="matrix(-0.259, -0.966, 0.966, -0.259, 8.465, 16.705)" fill="#22242b"/><path d="M.069,0,0,1.5l16.852.775.069-1.5Z" transform="matrix(-0.259, -0.966, 0.966, -0.259, 7.751, 16.933)" fill="#22242b"/></svg>