<svg xmlns="http://www.w3.org/2000/svg" width="14" height="7.565" viewBox="0 0 14 7.565"><path d="M9.25-4.374a3.8,3.8,0,0,1-1,2.664,3.266,3.266,0,0,1-2.514,1.1A4.091,4.091,0,0,1,2.215-2.91Q.728-.661-1.164-.661A3.406,3.406,0,0,1-3.758-1.71,3.817,3.817,0,0,1-4.75-4.443,3.694,3.694,0,0,1-3.729-7.13,3.43,3.43,0,0,1-1.164-8.18,4,4,0,0,1,2.262-5.908,4.113,4.113,0,0,1,5.733-8.122,3.31,3.31,0,0,1,8.287-7.078,3.831,3.831,0,0,1,9.25-4.374ZM-1.071-2.552A1.828,1.828,0,0,0,.122-3.008a5.171,5.171,0,0,0,1.1-1.436,5.127,5.127,0,0,0-1.061-1.4,1.867,1.867,0,0,0-1.257-.467,1.564,1.564,0,0,0-1.257.542A2.009,2.009,0,0,0-2.813-4.42,1.926,1.926,0,0,0-2.34-3.071,1.632,1.632,0,0,0-1.071-2.552ZM5.571-6.265A1.8,1.8,0,0,0,4.4-5.81,5.588,5.588,0,0,0,3.276-4.4,4.979,4.979,0,0,0,4.355-2.979a1.875,1.875,0,0,0,1.24.473,1.624,1.624,0,0,0,1.257-.53A1.94,1.94,0,0,0,7.336-4.4a1.872,1.872,0,0,0-.5-1.349A1.678,1.678,0,0,0,5.571-6.265Z" transform="translate(4.75 8.18)" fill="#22242b"/></svg>