<svg xmlns="http://www.w3.org/2000/svg" width="14.36" height="14.145" viewBox="0 0 14.36 14.145"><path d="M16.606-4.877A6.842,6.842,0,0,1,16.039-2.1,7.079,7.079,0,0,1,14.5.148a7.272,7.272,0,0,1-2.28,1.5,7.106,7.106,0,0,1-2.79.55,7.106,7.106,0,0,1-2.79-.55,7.272,7.272,0,0,1-2.28-1.5A7.079,7.079,0,0,1,2.813-2.1a6.842,6.842,0,0,1-.567-2.779A6.8,6.8,0,0,1,2.813-7.65,7.1,7.1,0,0,1,4.356-9.89a7.272,7.272,0,0,1,2.28-1.5,7.106,7.106,0,0,1,2.79-.55,7.106,7.106,0,0,1,2.79.55,7.272,7.272,0,0,1,2.28,1.5,7.1,7.1,0,0,1,1.543,2.24A6.8,6.8,0,0,1,16.606-4.877ZM10.175.647A5.481,5.481,0,0,0,11.91.12,5.3,5.3,0,0,0,13.334-.912a5.342,5.342,0,0,0,1.01-1.446,5.806,5.806,0,0,0,.516-1.758H10.175Zm4.685-6.284a5.74,5.74,0,0,0-.516-1.752,5.285,5.285,0,0,0-1.01-1.435A5.367,5.367,0,0,0,11.91-9.851a5.481,5.481,0,0,0-1.735-.527v4.741ZM3.993-4.117A5.494,5.494,0,0,0,4.5-2.359,5.515,5.515,0,0,0,5.513-.912,5.247,5.247,0,0,0,6.925.12,5.426,5.426,0,0,0,8.666.647V-4.117Zm4.673-6.261a5.426,5.426,0,0,0-1.741.527A5.31,5.31,0,0,0,5.513-8.824,5.455,5.455,0,0,0,4.5-7.389a5.433,5.433,0,0,0-.51,1.752H8.666Z" transform="translate(-2.246 11.943)" fill="#22242b"/></svg>