<svg xmlns="http://www.w3.org/2000/svg" width="11.82" height="14.734" viewBox="0 0 11.82 14.734"><path d="M-5.112,2.488H5.932V.937H-5.112ZM5-6.583A4,4,0,0,1,3.8-3.416,5.463,5.463,0,0,1,.1-2.353H-5.112V-.8H.645A7.765,7.765,0,0,0,3.1-1.172a5.213,5.213,0,0,0,1.915-1.1A5.037,5.037,0,0,0,6.261-4.092a6.483,6.483,0,0,0,.446-2.491,5.82,5.82,0,0,0-.493-2.473A5.166,5.166,0,0,0,4.892-10.83a5.505,5.505,0,0,0-1.927-1.063,7.55,7.55,0,0,0-2.321-.352H-5.112V-10.7H.457a5.05,5.05,0,0,1,3.4,1A3.907,3.907,0,0,1,5-6.583Z" transform="translate(5.112 12.246)" fill="#22242b"/></svg>