<svg xmlns="http://www.w3.org/2000/svg" width="11.82" height="14.734" viewBox="0 0 11.82 14.734"><path d="M6.708,2.488H-4.337V.937H6.708ZM-3.409-6.583A4,4,0,0,0-2.2-3.416a5.463,5.463,0,0,0,3.7,1.063H6.708V-.8H.95a7.765,7.765,0,0,1-2.456-.37,5.213,5.213,0,0,1-1.915-1.1A5.037,5.037,0,0,1-4.666-4.092a6.483,6.483,0,0,1-.446-2.491,5.82,5.82,0,0,1,.493-2.473A5.166,5.166,0,0,1-3.3-10.83,5.505,5.505,0,0,1-1.37-11.894,7.55,7.55,0,0,1,.95-12.246H6.708V-10.7H1.138a5.05,5.05,0,0,0-3.4,1A3.907,3.907,0,0,0-3.409-6.583Z" transform="translate(5.112 12.246)" fill="#22242b"/></svg>