<svg xmlns="http://www.w3.org/2000/svg" width="1563" height="131.094" viewBox="0 0 1563 131.094"><g transform="translate(1732.541 -231.863)"><rect width="1562" height="130" transform="translate(-1732.041 232.412)" fill="#fff" opacity="0.75"/><path d="M-170.041,362.953h-1562a.5.5,0,0,1-.5-.5.5.5,0,0,1,.5-.5h1562a.5.5,0,0,1,.5.5A.5.5,0,0,1-170.041,362.953Z"/><path d="M-170.041,232.869h-1562a.5.5,0,0,1-.5-.5.5.5,0,0,1,.5-.5h1562a.5.5,0,0,1,.5.5A.5.5,0,0,1-170.041,232.869Z"/><path d="M-1732.041,362.952a.5.5,0,0,1-.5-.5V232.369a.5.5,0,0,1,.5-.5.5.5,0,0,1,.5.5V362.453A.5.5,0,0,1-1732.041,362.952Z"/><path d="M-1601.874,362.714a.5.5,0,0,1-.5-.5v-30a.5.5,0,0,1,.5-.5.5.5,0,0,1,.5.5v30A.5.5,0,0,1-1601.874,362.714Z"/><path d="M-170.041,297.912h-1562a.5.5,0,0,1-.5-.5.5.5,0,0,1,.5-.5h1562a.5.5,0,0,1,.5.5A.5.5,0,0,1-170.041,297.912Z"/><path d="M-1666.958,362.952a.5.5,0,0,1-.5-.5V329.931a.5.5,0,0,1,.5-.5.5.5,0,0,1,.5.5v32.522A.5.5,0,0,1-1666.958,362.952Z"/><path d="M-1699.5,362.953a.5.5,0,0,1-.5-.5V329.932a.5.5,0,0,1,.5-.5.5.5,0,0,1,.5.5v32.522A.5.5,0,0,1-1699.5,362.953Z"/><path d="M-1715.77,362.952a.5.5,0,0,1-.5-.5V338.062a.5.5,0,0,1,.5-.5.5.5,0,0,1,.5.5v24.391A.5.5,0,0,1-1715.77,362.952Z"/><path d="M-1683.228,362.952a.5.5,0,0,1-.5-.5V338.062a.5.5,0,0,1,.5-.5.5.5,0,0,1,.5.5v24.391A.5.5,0,0,1-1683.228,362.952Z"/><path d="M-1618.141,362.952a.5.5,0,0,1-.5-.5V338.062a.5.5,0,0,1,.5-.5.5.5,0,0,1,.5.5v24.391A.5.5,0,0,1-1618.141,362.952Z"/><path d="M-1634.416,362.953a.5.5,0,0,1-.5-.5V329.932a.5.5,0,0,1,.5-.5.5.5,0,0,1,.5.5v32.522A.5.5,0,0,1-1634.416,362.953Z"/><path d="M-1650.687,362.952a.5.5,0,0,1-.5-.5V338.062a.5.5,0,0,1,.5-.5.5.5,0,0,1,.5.5v24.391A.5.5,0,0,1-1650.687,362.952Z"/><path d="M-1723.906,362.957a.5.5,0,0,1-.5-.5v-12.2a.5.5,0,0,1,.5-.5.5.5,0,0,1,.5.5v12.2A.5.5,0,0,1-1723.906,362.957Z"/><path d="M-1707.635,362.957a.5.5,0,0,1-.5-.5v-12.2a.5.5,0,0,1,.5-.5.5.5,0,0,1,.5.5v12.2A.5.5,0,0,1-1707.635,362.957Z"/><path d="M-1675.093,362.957a.5.5,0,0,1-.5-.5v-12.2a.5.5,0,0,1,.5-.5.5.5,0,0,1,.5.5v12.2A.5.5,0,0,1-1675.093,362.957Z"/><path d="M-1691.364,362.957a.5.5,0,0,1-.5-.5v-12.2a.5.5,0,0,1,.5-.5.5.5,0,0,1,.5.5v12.2A.5.5,0,0,1-1691.364,362.957Z"/><path d="M-1610.01,362.957a.5.5,0,0,1-.5-.5v-12.2a.5.5,0,0,1,.5-.5.5.5,0,0,1,.5.5v12.2A.5.5,0,0,1-1610.01,362.957Z"/><path d="M-1626.281,362.957a.5.5,0,0,1-.5-.5v-12.2a.5.5,0,0,1,.5-.5.5.5,0,0,1,.5.5v12.2A.5.5,0,0,1-1626.281,362.957Z"/><path d="M-1642.551,362.957a.5.5,0,0,1-.5-.5v-12.2a.5.5,0,0,1,.5-.5.5.5,0,0,1,.5.5v12.2A.5.5,0,0,1-1642.551,362.957Z"/><path d="M-1658.822,362.957a.5.5,0,0,1-.5-.5v-12.2a.5.5,0,0,1,.5-.5.5.5,0,0,1,.5.5v12.2A.5.5,0,0,1-1658.822,362.957Z"/><path d="M-1471.708,362.714a.5.5,0,0,1-.5-.5v-30a.5.5,0,0,1,.5-.5.5.5,0,0,1,.5.5v30A.5.5,0,0,1-1471.708,362.714Z"/><path d="M-1536.791,362.952a.5.5,0,0,1-.5-.5V329.931a.5.5,0,0,1,.5-.5.5.5,0,0,1,.5.5v32.522A.5.5,0,0,1-1536.791,362.952Z"/><path d="M-1569.333,362.953a.5.5,0,0,1-.5-.5V329.932a.5.5,0,0,1,.5-.5.5.5,0,0,1,.5.5v32.522A.5.5,0,0,1-1569.333,362.953Z"/><path d="M-1585.6,362.952a.5.5,0,0,1-.5-.5V338.062a.5.5,0,0,1,.5-.5.5.5,0,0,1,.5.5v24.391A.5.5,0,0,1-1585.6,362.952Z"/><path d="M-1553.062,362.952a.5.5,0,0,1-.5-.5V338.062a.5.5,0,0,1,.5-.5.5.5,0,0,1,.5.5v24.391A.5.5,0,0,1-1553.062,362.952Z"/><path d="M-1487.978,362.952a.5.5,0,0,1-.5-.5V338.062a.5.5,0,0,1,.5-.5.5.5,0,0,1,.5.5v24.391A.5.5,0,0,1-1487.978,362.952Z"/><path d="M-1504.249,362.953a.5.5,0,0,1-.5-.5V329.932a.5.5,0,0,1,.5-.5.5.5,0,0,1,.5.5v32.522A.5.5,0,0,1-1504.249,362.953Z"/><path d="M-1520.52,362.952a.5.5,0,0,1-.5-.5V338.062a.5.5,0,0,1,.5-.5.5.5,0,0,1,.5.5v24.391A.5.5,0,0,1-1520.52,362.952Z"/><path d="M-1593.741,362.957a.5.5,0,0,1-.5-.5v-12.2a.5.5,0,0,1,.5-.5.5.5,0,0,1,.5.5v12.2A.5.5,0,0,1-1593.741,362.957Z"/><path d="M-1577.468,362.957a.5.5,0,0,1-.5-.5v-12.2a.5.5,0,0,1,.5-.5.5.5,0,0,1,.5.5v12.2A.5.5,0,0,1-1577.468,362.957Z"/><path d="M-1544.927,362.957a.5.5,0,0,1-.5-.5v-12.2a.5.5,0,0,1,.5-.5.5.5,0,0,1,.5.5v12.2A.5.5,0,0,1-1544.927,362.957Z"/><path d="M-1561.2,362.957a.5.5,0,0,1-.5-.5v-12.2a.5.5,0,0,1,.5-.5.5.5,0,0,1,.5.5v12.2A.5.5,0,0,1-1561.2,362.957Z"/><path d="M-1479.841,362.957a.5.5,0,0,1-.5-.5v-12.2a.5.5,0,0,1,.5-.5.5.5,0,0,1,.5.5v12.2A.5.5,0,0,1-1479.841,362.957Z"/><path d="M-1496.114,362.957a.5.5,0,0,1-.5-.5v-12.2a.5.5,0,0,1,.5-.5.5.5,0,0,1,.5.5v12.2A.5.5,0,0,1-1496.114,362.957Z"/><path d="M-1512.385,362.957a.5.5,0,0,1-.5-.5v-12.2a.5.5,0,0,1,.5-.5.5.5,0,0,1,.5.5v12.2A.5.5,0,0,1-1512.385,362.957Z"/><path d="M-1528.655,362.957a.5.5,0,0,1-.5-.5v-12.2a.5.5,0,0,1,.5-.5.5.5,0,0,1,.5.5v12.2A.5.5,0,0,1-1528.655,362.957Z"/><path d="M-1341.541,362.714a.5.5,0,0,1-.5-.5v-30a.5.5,0,0,1,.5-.5.5.5,0,0,1,.5.5v30A.5.5,0,0,1-1341.541,362.714Z"/><path d="M-1406.624,362.952a.5.5,0,0,1-.5-.5V329.931a.5.5,0,0,1,.5-.5.5.5,0,0,1,.5.5v32.522A.5.5,0,0,1-1406.624,362.952Z"/><path d="M-1439.167,362.953a.5.5,0,0,1-.5-.5V329.932a.5.5,0,0,1,.5-.5.5.5,0,0,1,.5.5v32.522A.5.5,0,0,1-1439.167,362.953Z"/><path d="M-1455.441,362.952a.5.5,0,0,1-.5-.5V338.062a.5.5,0,0,1,.5-.5.5.5,0,0,1,.5.5v24.391A.5.5,0,0,1-1455.441,362.952Z"/><path d="M-1422.9,362.952a.5.5,0,0,1-.5-.5V338.062a.5.5,0,0,1,.5-.5.5.5,0,0,1,.5.5v24.391A.5.5,0,0,1-1422.9,362.952Z"/><path d="M-1357.812,362.952a.5.5,0,0,1-.5-.5V338.062a.5.5,0,0,1,.5-.5.5.5,0,0,1,.5.5v24.391A.5.5,0,0,1-1357.812,362.952Z"/><path d="M-1374.082,362.953a.5.5,0,0,1-.5-.5V329.932a.5.5,0,0,1,.5-.5.5.5,0,0,1,.5.5v32.522A.5.5,0,0,1-1374.082,362.953Z"/><path d="M-1390.354,362.952a.5.5,0,0,1-.5-.5V338.062a.5.5,0,0,1,.5-.5.5.5,0,0,1,.5.5v24.391A.5.5,0,0,1-1390.354,362.952Z"/><path d="M-1463.572,362.957a.5.5,0,0,1-.5-.5v-12.2a.5.5,0,0,1,.5-.5.5.5,0,0,1,.5.5v12.2A.5.5,0,0,1-1463.572,362.957Z"/><path d="M-1447.3,362.957a.5.5,0,0,1-.5-.5v-12.2a.5.5,0,0,1,.5-.5.5.5,0,0,1,.5.5v12.2A.5.5,0,0,1-1447.3,362.957Z"/><path d="M-1414.76,362.957a.5.5,0,0,1-.5-.5v-12.2a.5.5,0,0,1,.5-.5.5.5,0,0,1,.5.5v12.2A.5.5,0,0,1-1414.76,362.957Z"/><path d="M-1431.031,362.957a.5.5,0,0,1-.5-.5v-12.2a.5.5,0,0,1,.5-.5.5.5,0,0,1,.5.5v12.2A.5.5,0,0,1-1431.031,362.957Z"/><path d="M-1349.677,362.957a.5.5,0,0,1-.5-.5v-12.2a.5.5,0,0,1,.5-.5.5.5,0,0,1,.5.5v12.2A.5.5,0,0,1-1349.677,362.957Z"/><path d="M-1365.947,362.957a.5.5,0,0,1-.5-.5v-12.2a.5.5,0,0,1,.5-.5.5.5,0,0,1,.5.5v12.2A.5.5,0,0,1-1365.947,362.957Z"/><path d="M-1382.218,362.957a.5.5,0,0,1-.5-.5v-12.2a.5.5,0,0,1,.5-.5.5.5,0,0,1,.5.5v12.2A.5.5,0,0,1-1382.218,362.957Z"/><path d="M-1398.489,362.957a.5.5,0,0,1-.5-.5v-12.2a.5.5,0,0,1,.5-.5.5.5,0,0,1,.5.5v12.2A.5.5,0,0,1-1398.489,362.957Z"/><path d="M-1211.374,362.714a.5.5,0,0,1-.5-.5v-30a.5.5,0,0,1,.5-.5.5.5,0,0,1,.5.5v30A.5.5,0,0,1-1211.374,362.714Z"/><path d="M-1276.458,362.952a.5.5,0,0,1-.5-.5V329.931a.5.5,0,0,1,.5-.5.5.5,0,0,1,.5.5v32.522A.5.5,0,0,1-1276.458,362.952Z"/><path d="M-1309,362.953a.5.5,0,0,1-.5-.5V329.932a.5.5,0,0,1,.5-.5.5.5,0,0,1,.5.5v32.522A.5.5,0,0,1-1309,362.953Z"/><path d="M-1325.27,362.952a.5.5,0,0,1-.5-.5V338.062a.5.5,0,0,1,.5-.5.5.5,0,0,1,.5.5v24.391A.5.5,0,0,1-1325.27,362.952Z"/><path d="M-1292.728,362.952a.5.5,0,0,1-.5-.5V338.062a.5.5,0,0,1,.5-.5.5.5,0,0,1,.5.5v24.391A.5.5,0,0,1-1292.728,362.952Z"/><path d="M-1227.641,362.952a.5.5,0,0,1-.5-.5V338.062a.5.5,0,0,1,.5-.5.5.5,0,0,1,.5.5v24.391A.5.5,0,0,1-1227.641,362.952Z"/><path d="M-1243.916,362.953a.5.5,0,0,1-.5-.5V329.932a.5.5,0,0,1,.5-.5.5.5,0,0,1,.5.5v32.522A.5.5,0,0,1-1243.916,362.953Z"/><path d="M-1260.187,362.952a.5.5,0,0,1-.5-.5V338.062a.5.5,0,0,1,.5-.5.5.5,0,0,1,.5.5v24.391A.5.5,0,0,1-1260.187,362.952Z"/><path d="M-1333.405,362.957a.5.5,0,0,1-.5-.5v-12.2a.5.5,0,0,1,.5-.5.5.5,0,0,1,.5.5v12.2A.5.5,0,0,1-1333.405,362.957Z"/><path d="M-1317.135,362.957a.5.5,0,0,1-.5-.5v-12.2a.5.5,0,0,1,.5-.5.5.5,0,0,1,.5.5v12.2A.5.5,0,0,1-1317.135,362.957Z"/><path d="M-1284.594,362.957a.5.5,0,0,1-.5-.5v-12.2a.5.5,0,0,1,.5-.5.5.5,0,0,1,.5.5v12.2A.5.5,0,0,1-1284.594,362.957Z"/><path d="M-1300.864,362.957a.5.5,0,0,1-.5-.5v-12.2a.5.5,0,0,1,.5-.5.5.5,0,0,1,.5.5v12.2A.5.5,0,0,1-1300.864,362.957Z"/><path d="M-1219.51,362.957a.5.5,0,0,1-.5-.5v-12.2a.5.5,0,0,1,.5-.5.5.5,0,0,1,.5.5v12.2A.5.5,0,0,1-1219.51,362.957Z"/><path d="M-1235.781,362.957a.5.5,0,0,1-.5-.5v-12.2a.5.5,0,0,1,.5-.5.5.5,0,0,1,.5.5v12.2A.5.5,0,0,1-1235.781,362.957Z"/><path d="M-1252.051,362.957a.5.5,0,0,1-.5-.5v-12.2a.5.5,0,0,1,.5-.5.5.5,0,0,1,.5.5v12.2A.5.5,0,0,1-1252.051,362.957Z"/><path d="M-1268.322,362.957a.5.5,0,0,1-.5-.5v-12.2a.5.5,0,0,1,.5-.5.5.5,0,0,1,.5.5v12.2A.5.5,0,0,1-1268.322,362.957Z"/><path d="M-1081.208,362.714a.5.5,0,0,1-.5-.5v-30a.5.5,0,0,1,.5-.5.5.5,0,0,1,.5.5v30A.5.5,0,0,1-1081.208,362.714Z"/><path d="M-1146.291,362.952a.5.5,0,0,1-.5-.5V329.931a.5.5,0,0,1,.5-.5.5.5,0,0,1,.5.5v32.522A.5.5,0,0,1-1146.291,362.952Z"/><path d="M-1178.833,362.953a.5.5,0,0,1-.5-.5V329.932a.5.5,0,0,1,.5-.5.5.5,0,0,1,.5.5v32.522A.5.5,0,0,1-1178.833,362.953Z"/><path d="M-1195.1,362.952a.5.5,0,0,1-.5-.5V338.062a.5.5,0,0,1,.5-.5.5.5,0,0,1,.5.5v24.391A.5.5,0,0,1-1195.1,362.952Z"/><path d="M-1162.562,362.952a.5.5,0,0,1-.5-.5V338.062a.5.5,0,0,1,.5-.5.5.5,0,0,1,.5.5v24.391A.5.5,0,0,1-1162.562,362.952Z"/><path d="M-1097.478,362.952a.5.5,0,0,1-.5-.5V338.062a.5.5,0,0,1,.5-.5.5.5,0,0,1,.5.5v24.391A.5.5,0,0,1-1097.478,362.952Z"/><path d="M-1113.749,362.953a.5.5,0,0,1-.5-.5V329.932a.5.5,0,0,1,.5-.5.5.5,0,0,1,.5.5v32.522A.5.5,0,0,1-1113.749,362.953Z"/><path d="M-1130.02,362.952a.5.5,0,0,1-.5-.5V338.062a.5.5,0,0,1,.5-.5.5.5,0,0,1,.5.5v24.391A.5.5,0,0,1-1130.02,362.952Z"/><path d="M-1203.241,362.957a.5.5,0,0,1-.5-.5v-12.2a.5.5,0,0,1,.5-.5.5.5,0,0,1,.5.5v12.2A.5.5,0,0,1-1203.241,362.957Z"/><path d="M-1186.968,362.957a.5.5,0,0,1-.5-.5v-12.2a.5.5,0,0,1,.5-.5.5.5,0,0,1,.5.5v12.2A.5.5,0,0,1-1186.968,362.957Z"/><path d="M-1154.427,362.957a.5.5,0,0,1-.5-.5v-12.2a.5.5,0,0,1,.5-.5.5.5,0,0,1,.5.5v12.2A.5.5,0,0,1-1154.427,362.957Z"/><path d="M-1170.7,362.957a.5.5,0,0,1-.5-.5v-12.2a.5.5,0,0,1,.5-.5.5.5,0,0,1,.5.5v12.2A.5.5,0,0,1-1170.7,362.957Z"/><path d="M-1089.341,362.957a.5.5,0,0,1-.5-.5v-12.2a.5.5,0,0,1,.5-.5.5.5,0,0,1,.5.5v12.2A.5.5,0,0,1-1089.341,362.957Z"/><path d="M-1105.614,362.957a.5.5,0,0,1-.5-.5v-12.2a.5.5,0,0,1,.5-.5.5.5,0,0,1,.5.5v12.2A.5.5,0,0,1-1105.614,362.957Z"/><path d="M-1121.885,362.957a.5.5,0,0,1-.5-.5v-12.2a.5.5,0,0,1,.5-.5.5.5,0,0,1,.5.5v12.2A.5.5,0,0,1-1121.885,362.957Z"/><path d="M-1138.155,362.957a.5.5,0,0,1-.5-.5v-12.2a.5.5,0,0,1,.5-.5.5.5,0,0,1,.5.5v12.2A.5.5,0,0,1-1138.155,362.957Z"/><path d="M-951.041,362.714a.5.5,0,0,1-.5-.5v-30a.5.5,0,0,1,.5-.5.5.5,0,0,1,.5.5v30A.5.5,0,0,1-951.041,362.714Z"/><path d="M-1016.124,362.952a.5.5,0,0,1-.5-.5V329.931a.5.5,0,0,1,.5-.5.5.5,0,0,1,.5.5v32.522A.5.5,0,0,1-1016.124,362.952Z"/><path d="M-1048.667,362.953a.5.5,0,0,1-.5-.5V329.932a.5.5,0,0,1,.5-.5.5.5,0,0,1,.5.5v32.522A.5.5,0,0,1-1048.667,362.953Z"/><path d="M-1064.941,362.952a.5.5,0,0,1-.5-.5V338.062a.5.5,0,0,1,.5-.5.5.5,0,0,1,.5.5v24.391A.5.5,0,0,1-1064.941,362.952Z"/><path d="M-1032.4,362.952a.5.5,0,0,1-.5-.5V338.062a.5.5,0,0,1,.5-.5.5.5,0,0,1,.5.5v24.391A.5.5,0,0,1-1032.4,362.952Z"/><path d="M-967.312,362.952a.5.5,0,0,1-.5-.5V338.062a.5.5,0,0,1,.5-.5.5.5,0,0,1,.5.5v24.391A.5.5,0,0,1-967.312,362.952Z"/><path d="M-983.582,362.953a.5.5,0,0,1-.5-.5V329.932a.5.5,0,0,1,.5-.5.5.5,0,0,1,.5.5v32.522A.5.5,0,0,1-983.582,362.953Z"/><path d="M-999.854,362.952a.5.5,0,0,1-.5-.5V338.062a.5.5,0,0,1,.5-.5.5.5,0,0,1,.5.5v24.391A.5.5,0,0,1-999.854,362.952Z"/><path d="M-1073.072,362.957a.5.5,0,0,1-.5-.5v-12.2a.5.5,0,0,1,.5-.5.5.5,0,0,1,.5.5v12.2A.5.5,0,0,1-1073.072,362.957Z"/><path d="M-1056.8,362.957a.5.5,0,0,1-.5-.5v-12.2a.5.5,0,0,1,.5-.5.5.5,0,0,1,.5.5v12.2A.5.5,0,0,1-1056.8,362.957Z"/><path d="M-1024.26,362.957a.5.5,0,0,1-.5-.5v-12.2a.5.5,0,0,1,.5-.5.5.5,0,0,1,.5.5v12.2A.5.5,0,0,1-1024.26,362.957Z"/><path d="M-1040.531,362.957a.5.5,0,0,1-.5-.5v-12.2a.5.5,0,0,1,.5-.5.5.5,0,0,1,.5.5v12.2A.5.5,0,0,1-1040.531,362.957Z"/><path d="M-959.177,362.957a.5.5,0,0,1-.5-.5v-12.2a.5.5,0,0,1,.5-.5.5.5,0,0,1,.5.5v12.2A.5.5,0,0,1-959.177,362.957Z"/><path d="M-975.447,362.957a.5.5,0,0,1-.5-.5v-12.2a.5.5,0,0,1,.5-.5.5.5,0,0,1,.5.5v12.2A.5.5,0,0,1-975.447,362.957Z"/><path d="M-991.718,362.957a.5.5,0,0,1-.5-.5v-12.2a.5.5,0,0,1,.5-.5.5.5,0,0,1,.5.5v12.2A.5.5,0,0,1-991.718,362.957Z"/><path d="M-1007.989,362.957a.5.5,0,0,1-.5-.5v-12.2a.5.5,0,0,1,.5-.5.5.5,0,0,1,.5.5v12.2A.5.5,0,0,1-1007.989,362.957Z"/><path d="M-820.874,362.714a.5.5,0,0,1-.5-.5v-30a.5.5,0,0,1,.5-.5.5.5,0,0,1,.5.5v30A.5.5,0,0,1-820.874,362.714Z"/><path d="M-885.958,362.952a.5.5,0,0,1-.5-.5V329.931a.5.5,0,0,1,.5-.5.5.5,0,0,1,.5.5v32.522A.5.5,0,0,1-885.958,362.952Z"/><path d="M-918.5,362.953a.5.5,0,0,1-.5-.5V329.932a.5.5,0,0,1,.5-.5.5.5,0,0,1,.5.5v32.522A.5.5,0,0,1-918.5,362.953Z"/><path d="M-934.771,362.952a.5.5,0,0,1-.5-.5V338.062a.5.5,0,0,1,.5-.5.5.5,0,0,1,.5.5v24.391A.5.5,0,0,1-934.771,362.952Z"/><path d="M-902.228,362.952a.5.5,0,0,1-.5-.5V338.062a.5.5,0,0,1,.5-.5.5.5,0,0,1,.5.5v24.391A.5.5,0,0,1-902.228,362.952Z"/><path d="M-837.141,362.952a.5.5,0,0,1-.5-.5V338.062a.5.5,0,0,1,.5-.5.5.5,0,0,1,.5.5v24.391A.5.5,0,0,1-837.141,362.952Z"/><path d="M-853.416,362.953a.5.5,0,0,1-.5-.5V329.932a.5.5,0,0,1,.5-.5.5.5,0,0,1,.5.5v32.522A.5.5,0,0,1-853.416,362.953Z"/><path d="M-869.687,362.952a.5.5,0,0,1-.5-.5V338.062a.5.5,0,0,1,.5-.5.5.5,0,0,1,.5.5v24.391A.5.5,0,0,1-869.687,362.952Z"/><path d="M-942.905,362.957a.5.5,0,0,1-.5-.5v-12.2a.5.5,0,0,1,.5-.5.5.5,0,0,1,.5.5v12.2A.5.5,0,0,1-942.905,362.957Z"/><path d="M-926.635,362.957a.5.5,0,0,1-.5-.5v-12.2a.5.5,0,0,1,.5-.5.5.5,0,0,1,.5.5v12.2A.5.5,0,0,1-926.635,362.957Z"/><path d="M-894.094,362.957a.5.5,0,0,1-.5-.5v-12.2a.5.5,0,0,1,.5-.5.5.5,0,0,1,.5.5v12.2A.5.5,0,0,1-894.094,362.957Z"/><path d="M-910.364,362.957a.5.5,0,0,1-.5-.5v-12.2a.5.5,0,0,1,.5-.5.5.5,0,0,1,.5.5v12.2A.5.5,0,0,1-910.364,362.957Z"/><path d="M-829.01,362.957a.5.5,0,0,1-.5-.5v-12.2a.5.5,0,0,1,.5-.5.5.5,0,0,1,.5.5v12.2A.5.5,0,0,1-829.01,362.957Z"/><path d="M-845.281,362.957a.5.5,0,0,1-.5-.5v-12.2a.5.5,0,0,1,.5-.5.5.5,0,0,1,.5.5v12.2A.5.5,0,0,1-845.281,362.957Z"/><path d="M-861.551,362.957a.5.5,0,0,1-.5-.5v-12.2a.5.5,0,0,1,.5-.5.5.5,0,0,1,.5.5v12.2A.5.5,0,0,1-861.551,362.957Z"/><path d="M-877.822,362.957a.5.5,0,0,1-.5-.5v-12.2a.5.5,0,0,1,.5-.5.5.5,0,0,1,.5.5v12.2A.5.5,0,0,1-877.822,362.957Z"/><path d="M-690.708,362.714a.5.5,0,0,1-.5-.5v-30a.5.5,0,0,1,.5-.5.5.5,0,0,1,.5.5v30A.5.5,0,0,1-690.708,362.714Z"/><path d="M-755.79,362.952a.5.5,0,0,1-.5-.5V329.931a.5.5,0,0,1,.5-.5.5.5,0,0,1,.5.5v32.522A.5.5,0,0,1-755.79,362.952Z"/><path d="M-788.333,362.953a.5.5,0,0,1-.5-.5V329.932a.5.5,0,0,1,.5-.5.5.5,0,0,1,.5.5v32.522A.5.5,0,0,1-788.333,362.953Z"/><path d="M-804.6,362.952a.5.5,0,0,1-.5-.5V338.062a.5.5,0,0,1,.5-.5.5.5,0,0,1,.5.5v24.391A.5.5,0,0,1-804.6,362.952Z"/><path d="M-772.062,362.952a.5.5,0,0,1-.5-.5V338.062a.5.5,0,0,1,.5-.5.5.5,0,0,1,.5.5v24.391A.5.5,0,0,1-772.062,362.952Z"/><path d="M-706.978,362.952a.5.5,0,0,1-.5-.5V338.062a.5.5,0,0,1,.5-.5.5.5,0,0,1,.5.5v24.391A.5.5,0,0,1-706.978,362.952Z"/><path d="M-723.247,362.953a.5.5,0,0,1-.5-.5V329.932a.5.5,0,0,1,.5-.5.5.5,0,0,1,.5.5v32.522A.5.5,0,0,1-723.247,362.953Z"/><path d="M-739.521,362.952a.5.5,0,0,1-.5-.5V338.062a.5.5,0,0,1,.5-.5.5.5,0,0,1,.5.5v24.391A.5.5,0,0,1-739.521,362.952Z"/><path d="M-812.741,362.957a.5.5,0,0,1-.5-.5v-12.2a.5.5,0,0,1,.5-.5.5.5,0,0,1,.5.5v12.2A.5.5,0,0,1-812.741,362.957Z"/><path d="M-796.468,362.957a.5.5,0,0,1-.5-.5v-12.2a.5.5,0,0,1,.5-.5.5.5,0,0,1,.5.5v12.2A.5.5,0,0,1-796.468,362.957Z"/><path d="M-763.927,362.957a.5.5,0,0,1-.5-.5v-12.2a.5.5,0,0,1,.5-.5.5.5,0,0,1,.5.5v12.2A.5.5,0,0,1-763.927,362.957Z"/><path d="M-780.2,362.957a.5.5,0,0,1-.5-.5v-12.2a.5.5,0,0,1,.5-.5.5.5,0,0,1,.5.5v12.2A.5.5,0,0,1-780.2,362.957Z"/><path d="M-698.841,362.957a.5.5,0,0,1-.5-.5v-12.2a.5.5,0,0,1,.5-.5.5.5,0,0,1,.5.5v12.2A.5.5,0,0,1-698.841,362.957Z"/><path d="M-715.112,362.957a.5.5,0,0,1-.5-.5v-12.2a.5.5,0,0,1,.5-.5.5.5,0,0,1,.5.5v12.2A.5.5,0,0,1-715.112,362.957Z"/><path d="M-731.382,362.957a.5.5,0,0,1-.5-.5v-12.2a.5.5,0,0,1,.5-.5.5.5,0,0,1,.5.5v12.2A.5.5,0,0,1-731.382,362.957Z"/><path d="M-747.655,362.957a.5.5,0,0,1-.5-.5v-12.2a.5.5,0,0,1,.5-.5.5.5,0,0,1,.5.5v12.2A.5.5,0,0,1-747.655,362.957Z"/><path d="M-560.541,362.714a.5.5,0,0,1-.5-.5v-30a.5.5,0,0,1,.5-.5.5.5,0,0,1,.5.5v30A.5.5,0,0,1-560.541,362.714Z"/><path d="M-625.629,362.952a.5.5,0,0,1-.5-.5V329.931a.5.5,0,0,1,.5-.5.5.5,0,0,1,.5.5v32.522A.5.5,0,0,1-625.629,362.952Z"/><path d="M-658.169,362.953a.5.5,0,0,1-.5-.5V329.932a.5.5,0,0,1,.5-.5.5.5,0,0,1,.5.5v32.522A.5.5,0,0,1-658.169,362.953Z"/><path d="M-674.441,362.952a.5.5,0,0,1-.5-.5V338.062a.5.5,0,0,1,.5-.5.5.5,0,0,1,.5.5v24.391A.5.5,0,0,1-674.441,362.952Z"/><path d="M-641.9,362.952a.5.5,0,0,1-.5-.5V338.062a.5.5,0,0,1,.5-.5.5.5,0,0,1,.5.5v24.391A.5.5,0,0,1-641.9,362.952Z"/><path d="M-576.811,362.952a.5.5,0,0,1-.5-.5V338.062a.5.5,0,0,1,.5-.5.5.5,0,0,1,.5.5v24.391A.5.5,0,0,1-576.811,362.952Z"/><path d="M-593.08,362.953a.5.5,0,0,1-.5-.5V329.932a.5.5,0,0,1,.5-.5.5.5,0,0,1,.5.5v32.522A.5.5,0,0,1-593.08,362.953Z"/><path d="M-609.35,362.952a.5.5,0,0,1-.5-.5V338.062a.5.5,0,0,1,.5-.5.5.5,0,0,1,.5.5v24.391A.5.5,0,0,1-609.35,362.952Z"/><path d="M-682.573,362.957a.5.5,0,0,1-.5-.5v-12.2a.5.5,0,0,1,.5-.5.5.5,0,0,1,.5.5v12.2A.5.5,0,0,1-682.573,362.957Z"/><path d="M-666.3,362.957a.5.5,0,0,1-.5-.5v-12.2a.5.5,0,0,1,.5-.5.5.5,0,0,1,.5.5v12.2A.5.5,0,0,1-666.3,362.957Z"/><path d="M-633.764,362.957a.5.5,0,0,1-.5-.5v-12.2a.5.5,0,0,1,.5-.5.5.5,0,0,1,.5.5v12.2A.5.5,0,0,1-633.764,362.957Z"/><path d="M-650.034,362.957a.5.5,0,0,1-.5-.5v-12.2a.5.5,0,0,1,.5-.5.5.5,0,0,1,.5.5v12.2A.5.5,0,0,1-650.034,362.957Z"/><path d="M-568.676,362.957a.5.5,0,0,1-.5-.5v-12.2a.5.5,0,0,1,.5-.5.5.5,0,0,1,.5.5v12.2A.5.5,0,0,1-568.676,362.957Z"/><path d="M-584.941,362.957a.5.5,0,0,1-.5-.5v-12.2a.5.5,0,0,1,.5-.5.5.5,0,0,1,.5.5v12.2A.5.5,0,0,1-584.941,362.957Z"/><path d="M-601.215,362.957a.5.5,0,0,1-.5-.5v-12.2a.5.5,0,0,1,.5-.5.5.5,0,0,1,.5.5v12.2A.5.5,0,0,1-601.215,362.957Z"/><path d="M-617.485,362.957a.5.5,0,0,1-.5-.5v-12.2a.5.5,0,0,1,.5-.5.5.5,0,0,1,.5.5v12.2A.5.5,0,0,1-617.485,362.957Z"/><path d="M-430.375,362.714a.5.5,0,0,1-.5-.5v-30a.5.5,0,0,1,.5-.5.5.5,0,0,1,.5.5v30A.5.5,0,0,1-430.375,362.714Z"/><path d="M-495.452,362.952a.5.5,0,0,1-.5-.5V329.931a.5.5,0,0,1,.5-.5.5.5,0,0,1,.5.5v32.522A.5.5,0,0,1-495.452,362.952Z"/><path d="M-528,362.953a.5.5,0,0,1-.5-.5V329.932a.5.5,0,0,1,.5-.5.5.5,0,0,1,.5.5v32.522A.5.5,0,0,1-528,362.953Z"/><path d="M-544.272,362.952a.5.5,0,0,1-.5-.5V338.062a.5.5,0,0,1,.5-.5.5.5,0,0,1,.5.5v24.391A.5.5,0,0,1-544.272,362.952Z"/><path d="M-511.733,362.952a.5.5,0,0,1-.5-.5V338.062a.5.5,0,0,1,.5-.5.5.5,0,0,1,.5.5v24.391A.5.5,0,0,1-511.733,362.952Z"/><path d="M-446.641,362.952a.5.5,0,0,1-.5-.5V338.062a.5.5,0,0,1,.5-.5.5.5,0,0,1,.5.5v24.391A.5.5,0,0,1-446.641,362.952Z"/><path d="M-462.914,362.953a.5.5,0,0,1-.5-.5V329.932a.5.5,0,0,1,.5-.5.5.5,0,0,1,.5.5v32.522A.5.5,0,0,1-462.914,362.953Z"/><path d="M-479.183,362.952a.5.5,0,0,1-.5-.5V338.062a.5.5,0,0,1,.5-.5.5.5,0,0,1,.5.5v24.391A.5.5,0,0,1-479.183,362.952Z"/><path d="M-552.406,362.957a.5.5,0,0,1-.5-.5v-12.2a.5.5,0,0,1,.5-.5.5.5,0,0,1,.5.5v12.2A.5.5,0,0,1-552.406,362.957Z"/><path d="M-536.141,362.957a.5.5,0,0,1-.5-.5v-12.2a.5.5,0,0,1,.5-.5.5.5,0,0,1,.5.5v12.2A.5.5,0,0,1-536.141,362.957Z"/><path d="M-503.6,362.957a.5.5,0,0,1-.5-.5v-12.2a.5.5,0,0,1,.5-.5.5.5,0,0,1,.5.5v12.2A.5.5,0,0,1-503.6,362.957Z"/><path d="M-519.867,362.957a.5.5,0,0,1-.5-.5v-12.2a.5.5,0,0,1,.5-.5.5.5,0,0,1,.5.5v12.2A.5.5,0,0,1-519.867,362.957Z"/><path d="M-438.509,362.957a.5.5,0,0,1-.5-.5v-12.2a.5.5,0,0,1,.5-.5.5.5,0,0,1,.5.5v12.2A.5.5,0,0,1-438.509,362.957Z"/><path d="M-454.779,362.957a.5.5,0,0,1-.5-.5v-12.2a.5.5,0,0,1,.5-.5.5.5,0,0,1,.5.5v12.2A.5.5,0,0,1-454.779,362.957Z"/><path d="M-471.048,362.957a.5.5,0,0,1-.5-.5v-12.2a.5.5,0,0,1,.5-.5.5.5,0,0,1,.5.5v12.2A.5.5,0,0,1-471.048,362.957Z"/><path d="M-487.318,362.957a.5.5,0,0,1-.5-.5v-12.2a.5.5,0,0,1,.5-.5.5.5,0,0,1,.5.5v12.2A.5.5,0,0,1-487.318,362.957Z"/><path d="M-300.208,362.714a.5.5,0,0,1-.5-.5v-30a.5.5,0,0,1,.5-.5.5.5,0,0,1,.5.5v30A.5.5,0,0,1-300.208,362.714Z"/><path d="M-365.3,362.952a.5.5,0,0,1-.5-.5V329.931a.5.5,0,0,1,.5-.5.5.5,0,0,1,.5.5v32.522A.5.5,0,0,1-365.3,362.952Z"/><path d="M-397.835,362.953a.5.5,0,0,1-.5-.5V329.932a.5.5,0,0,1,.5-.5.5.5,0,0,1,.5.5v32.522A.5.5,0,0,1-397.835,362.953Z"/><path d="M-414.105,362.952a.5.5,0,0,1-.5-.5V338.062a.5.5,0,0,1,.5-.5.5.5,0,0,1,.5.5v24.391A.5.5,0,0,1-414.105,362.952Z"/><path d="M-381.566,362.952a.5.5,0,0,1-.5-.5V338.062a.5.5,0,0,1,.5-.5.5.5,0,0,1,.5.5v24.391A.5.5,0,0,1-381.566,362.952Z"/><path d="M-316.478,362.952a.5.5,0,0,1-.5-.5V338.062a.5.5,0,0,1,.5-.5.5.5,0,0,1,.5.5v24.391A.5.5,0,0,1-316.478,362.952Z"/><path d="M-332.747,362.953a.5.5,0,0,1-.5-.5V329.932a.5.5,0,0,1,.5-.5.5.5,0,0,1,.5.5v32.522A.5.5,0,0,1-332.747,362.953Z"/><path d="M-349.017,362.952a.5.5,0,0,1-.5-.5V338.062a.5.5,0,0,1,.5-.5.5.5,0,0,1,.5.5v24.391A.5.5,0,0,1-349.017,362.952Z"/><path d="M-422.241,362.957a.5.5,0,0,1-.5-.5v-12.2a.5.5,0,0,1,.5-.5.5.5,0,0,1,.5.5v12.2A.5.5,0,0,1-422.241,362.957Z"/><path d="M-405.97,362.957a.5.5,0,0,1-.5-.5v-12.2a.5.5,0,0,1,.5-.5.5.5,0,0,1,.5.5v12.2A.5.5,0,0,1-405.97,362.957Z"/><path d="M-373.431,362.957a.5.5,0,0,1-.5-.5v-12.2a.5.5,0,0,1,.5-.5.5.5,0,0,1,.5.5v12.2A.5.5,0,0,1-373.431,362.957Z"/><path d="M-389.7,362.957a.5.5,0,0,1-.5-.5v-12.2a.5.5,0,0,1,.5-.5.5.5,0,0,1,.5.5v12.2A.5.5,0,0,1-389.7,362.957Z"/><path d="M-308.341,362.957a.5.5,0,0,1-.5-.5v-12.2a.5.5,0,0,1,.5-.5.5.5,0,0,1,.5.5v12.2A.5.5,0,0,1-308.341,362.957Z"/><path d="M-324.612,362.957a.5.5,0,0,1-.5-.5v-12.2a.5.5,0,0,1,.5-.5.5.5,0,0,1,.5.5v12.2A.5.5,0,0,1-324.612,362.957Z"/><path d="M-340.882,362.957a.5.5,0,0,1-.5-.5v-12.2a.5.5,0,0,1,.5-.5.5.5,0,0,1,.5.5v12.2A.5.5,0,0,1-340.882,362.957Z"/><path d="M-357.151,362.957a.5.5,0,0,1-.5-.5v-12.2a.5.5,0,0,1,.5-.5.5.5,0,0,1,.5.5v12.2A.5.5,0,0,1-357.151,362.957Z"/><path d="M-170.041,362.453V232.369" fill="none" stroke="#000" stroke-linecap="round" stroke-linejoin="bevel" stroke-width="0.999"/><path d="M-235.119,362.952a.5.5,0,0,1-.5-.5V329.931a.5.5,0,0,1,.5-.5.5.5,0,0,1,.5.5v32.522A.5.5,0,0,1-235.119,362.952Z"/><path d="M-267.669,362.953a.5.5,0,0,1-.5-.5V329.932a.5.5,0,0,1,.5-.5.5.5,0,0,1,.5.5v32.522A.5.5,0,0,1-267.669,362.953Z"/><path d="M-283.941,362.952a.5.5,0,0,1-.5-.5V338.062a.5.5,0,0,1,.5-.5.5.5,0,0,1,.5.5v24.391A.5.5,0,0,1-283.941,362.952Z"/><path d="M-251.4,362.952a.5.5,0,0,1-.5-.5V338.062a.5.5,0,0,1,.5-.5.5.5,0,0,1,.5.5v24.391A.5.5,0,0,1-251.4,362.952Z"/><path d="M-186.311,338.062v24.391" fill="none" stroke="#000" stroke-linecap="round" stroke-linejoin="bevel" stroke-width="0.999"/><path d="M-202.581,362.953a.5.5,0,0,1-.5-.5V329.932a.5.5,0,0,1,.5-.5.5.5,0,0,1,.5.5v32.522A.5.5,0,0,1-202.581,362.953Z"/><path d="M-218.85,362.952a.5.5,0,0,1-.5-.5V338.062a.5.5,0,0,1,.5-.5.5.5,0,0,1,.5.5v24.391A.5.5,0,0,1-218.85,362.952Z"/><path d="M-292.073,362.957a.5.5,0,0,1-.5-.5v-12.2a.5.5,0,0,1,.5-.5.5.5,0,0,1,.5.5v12.2A.5.5,0,0,1-292.073,362.957Z"/><path d="M-275.8,362.957a.5.5,0,0,1-.5-.5v-12.2a.5.5,0,0,1,.5-.5.5.5,0,0,1,.5.5v12.2A.5.5,0,0,1-275.8,362.957Z"/><path d="M-243.264,362.957a.5.5,0,0,1-.5-.5v-12.2a.5.5,0,0,1,.5-.5.5.5,0,0,1,.5.5v12.2A.5.5,0,0,1-243.264,362.957Z"/><path d="M-259.534,362.957a.5.5,0,0,1-.5-.5v-12.2a.5.5,0,0,1,.5-.5.5.5,0,0,1,.5.5v12.2A.5.5,0,0,1-259.534,362.957Z"/><path d="M-178.176,350.258v12.2" fill="none" stroke="#000" stroke-linecap="round" stroke-linejoin="bevel" stroke-width="0.999"/><path d="M-194.441,362.957a.5.5,0,0,1-.5-.5v-12.2a.5.5,0,0,1,.5-.5.5.5,0,0,1,.5.5v12.2A.5.5,0,0,1-194.441,362.957Z"/><path d="M-210.715,362.957a.5.5,0,0,1-.5-.5v-12.2a.5.5,0,0,1,.5-.5.5.5,0,0,1,.5.5v12.2A.5.5,0,0,1-210.715,362.957Z"/><path d="M-226.985,362.957a.5.5,0,0,1-.5-.5v-12.2a.5.5,0,0,1,.5-.5.5.5,0,0,1,.5.5v12.2A.5.5,0,0,1-226.985,362.957Z"/><path d="M-1711.924,279.3l-1.894.342a1.376,1.376,0,0,0-.434-.854,1.311,1.311,0,0,0-.878-.287,1.434,1.434,0,0,0-1.145.5,2.535,2.535,0,0,0-.427,1.652,2.938,2.938,0,0,0,.434,1.825,1.426,1.426,0,0,0,1.165.535,1.3,1.3,0,0,0,.9-.311,1.872,1.872,0,0,0,.492-1.07l1.887.321a3.352,3.352,0,0,1-1.135,1.96,3.493,3.493,0,0,1-2.233.664,3.321,3.321,0,0,1-2.54-1,3.9,3.9,0,0,1-.946-2.787,3.9,3.9,0,0,1,.95-2.8,3.374,3.374,0,0,1,2.57-1,3.507,3.507,0,0,1,2.109.571A3.164,3.164,0,0,1-1711.924,279.3Zm1.312-2.147h1.771v.991a2.848,2.848,0,0,1,2.263-1.155,2.43,2.43,0,0,1,1.21.287,2.2,2.2,0,0,1,.841.868,3.355,3.355,0,0,1,1.032-.868,2.536,2.536,0,0,1,1.183-.287,2.639,2.639,0,0,1,1.353.324,1.993,1.993,0,0,1,.827.954,4.146,4.146,0,0,1,.2,1.5v4.646h-1.927v-4.149a3.089,3.089,0,0,0-.2-1.395.912.912,0,0,0-.82-.41,1.307,1.307,0,0,0-.759.246,1.365,1.365,0,0,0-.513.721,5.194,5.194,0,0,0-.157,1.5v3.487h-1.915v-3.979a5.5,5.5,0,0,0-.1-1.367.876.876,0,0,0-.318-.458,1,1,0,0,0-.584-.15,1.4,1.4,0,0,0-.8.239,1.312,1.312,0,0,0-.509.69,5.12,5.12,0,0,0-.154,1.5v3.525h-1.924Z"/><path d="M-1718.259,312.168v-1.777h1.926v1.777Zm0,8.244v-7.26h1.926v7.26Zm10.5,0h-1.923v-3.7a5.715,5.715,0,0,0-.123-1.521,1.067,1.067,0,0,0-.4-.537,1.144,1.144,0,0,0-.667-.191,1.538,1.538,0,0,0-.9.273,1.376,1.376,0,0,0-.543.725,6.233,6.233,0,0,0-.144,1.668v3.288h-1.919v-7.26h1.784v1.066a2.905,2.905,0,0,1,2.393-1.23,2.88,2.88,0,0,1,1.162.229,1.951,1.951,0,0,1,.8.584,2.118,2.118,0,0,1,.376.807,6.013,6.013,0,0,1,.1,1.292Zm8.278-5.113-1.894.342a1.376,1.376,0,0,0-.434-.854,1.311,1.311,0,0,0-.878-.287,1.434,1.434,0,0,0-1.145.5,2.535,2.535,0,0,0-.427,1.652,2.938,2.938,0,0,0,.434,1.825,1.424,1.424,0,0,0,1.166.535,1.3,1.3,0,0,0,.9-.311,1.873,1.873,0,0,0,.492-1.07l1.887.321a3.352,3.352,0,0,1-1.135,1.96,3.486,3.486,0,0,1-2.235.663,3.321,3.321,0,0,1-2.54-1,3.9,3.9,0,0,1-.947-2.782,3.9,3.9,0,0,1,.95-2.8,3.374,3.374,0,0,1,2.57-1,3.507,3.507,0,0,1,2.109.571,3.161,3.161,0,0,1,1.125,1.735Zm3.37-4.908v3.685a2.833,2.833,0,0,1,2.222-1.087,2.818,2.818,0,0,1,1.2.246,1.955,1.955,0,0,1,.8.629,2.272,2.272,0,0,1,.369.848,7.562,7.562,0,0,1,.1,1.442v4.258h-1.924v-3.835a5.68,5.68,0,0,0-.109-1.449.949.949,0,0,0-.386-.489,1.247,1.247,0,0,0-.694-.181,1.586,1.586,0,0,0-.854.232,1.339,1.339,0,0,0-.55.7,4.178,4.178,0,0,0-.174,1.384v3.638h-1.922V310.391Z"/><path d="M-1600.971,320.412h-1.231v-7.841a6.386,6.386,0,0,1-1.166.848,8.273,8.273,0,0,1-1.3.636v-1.19a7.446,7.446,0,0,0,1.8-1.176,4.625,4.625,0,0,0,1.094-1.34h.793Z"/><path d="M-1468.973,319.229v1.183h-6.624a2.184,2.184,0,0,1,.143-.854,4.53,4.53,0,0,1,.81-1.333,12.642,12.642,0,0,1,1.61-1.518,13.638,13.638,0,0,0,2.213-2.123,2.548,2.548,0,0,0,.574-1.48,1.642,1.642,0,0,0-.523-1.234,1.888,1.888,0,0,0-1.364-.5,1.924,1.924,0,0,0-1.422.533,2.02,2.02,0,0,0-.54,1.477l-1.269-.132a3.109,3.109,0,0,1,.978-2.157,3.333,3.333,0,0,1,2.276-.742,3.178,3.178,0,0,1,2.283.8,2.625,2.625,0,0,1,.841,1.983,3.012,3.012,0,0,1-.246,1.18,4.6,4.6,0,0,1-.817,1.224,19.82,19.82,0,0,1-1.9,1.764q-1.107.93-1.422,1.261a4.033,4.033,0,0,0-.52.667Z"/><path d="M-1345.265,317.766l1.23-.164a2.709,2.709,0,0,0,.722,1.51,1.782,1.782,0,0,0,1.24.459,1.989,1.989,0,0,0,1.466-.6,2.033,2.033,0,0,0,.6-1.49,1.89,1.89,0,0,0-.554-1.4,1.911,1.911,0,0,0-1.408-.55,3.494,3.494,0,0,0-.868.137l.137-1.08a1.893,1.893,0,0,0,.2.014,2.537,2.537,0,0,0,1.415-.41,1.4,1.4,0,0,0,.629-1.265,1.5,1.5,0,0,0-.458-1.121,1.632,1.632,0,0,0-1.183-.444,1.675,1.675,0,0,0-1.2.451,2.262,2.262,0,0,0-.615,1.354l-1.23-.22a3.158,3.158,0,0,1,1.025-1.917,2.964,2.964,0,0,1,1.989-.68,3.277,3.277,0,0,1,1.511.352,2.548,2.548,0,0,1,1.056.96,2.466,2.466,0,0,1,.366,1.292,2.116,2.116,0,0,1-.348,1.183,2.379,2.379,0,0,1-1.032.848,2.329,2.329,0,0,1,1.381.851,2.592,2.592,0,0,1,.491,1.616,2.958,2.958,0,0,1-.957,2.225,3.369,3.369,0,0,1-2.42.913,3.149,3.149,0,0,1-2.19-.786A3.04,3.04,0,0,1-1345.265,317.766Z"/><path d="M-1211.162,320.412v-2.4h-4.347v-1.127l4.573-6.494h1v6.494h1.358v1.127h-1.353v2.4Zm0-3.527v-4.519l-3.137,4.519Z"/><path d="M-1084.94,317.787l1.292-.109a2.318,2.318,0,0,0,.667,1.418,1.809,1.809,0,0,0,1.26.475,1.962,1.962,0,0,0,1.5-.67,2.525,2.525,0,0,0,.62-1.777,2.285,2.285,0,0,0-.591-1.661,2.059,2.059,0,0,0-1.549-.609,2.152,2.152,0,0,0-1.073.27,2.087,2.087,0,0,0-.752.7l-1.155-.149.971-5.147h4.983V311.7h-4l-.54,2.693a3.266,3.266,0,0,1,1.894-.629,3,3,0,0,1,2.215.909,3.178,3.178,0,0,1,.9,2.338,3.652,3.652,0,0,1-.793,2.352,3.178,3.178,0,0,1-2.63,1.216,3.242,3.242,0,0,1-2.231-.766A2.986,2.986,0,0,1-1084.94,317.787Z"/><path d="M-948.387,312.845l-1.224.1a2.315,2.315,0,0,0-.465-1.053,1.627,1.627,0,0,0-1.23-.526,1.686,1.686,0,0,0-1.032.328,2.8,2.8,0,0,0-.915,1.233,6.451,6.451,0,0,0-.35,2.317,2.849,2.849,0,0,1,1.087-1,2.927,2.927,0,0,1,1.347-.332,2.791,2.791,0,0,1,2.1.906,3.255,3.255,0,0,1,.865,2.341,3.852,3.852,0,0,1-.412,1.753,2.963,2.963,0,0,1-1.118,1.24,3.051,3.051,0,0,1-1.613.431,3.151,3.151,0,0,1-2.506-1.131,5.714,5.714,0,0,1-.974-3.729,6.687,6.687,0,0,1,1.074-4.225,3.084,3.084,0,0,1,2.522-1.148,2.83,2.83,0,0,1,1.938.662A2.817,2.817,0,0,1-948.387,312.845Zm-5.025,4.32a2.844,2.844,0,0,0,.27,1.217,2.013,2.013,0,0,0,.755.885,1.9,1.9,0,0,0,1.019.3,1.737,1.737,0,0,0,1.34-.629,2.473,2.473,0,0,0,.561-1.709,2.318,2.318,0,0,0-.554-1.637,1.818,1.818,0,0,0-1.4-.6,1.9,1.9,0,0,0-1.415.6A2.153,2.153,0,0,0-953.412,317.165Z"/><path d="M-823.524,311.7V310.52h6.487v.957a13.627,13.627,0,0,0-1.9,2.707,16.487,16.487,0,0,0-1.45,3.473,12.934,12.934,0,0,0-.471,2.755h-1.265a12.3,12.3,0,0,1,.465-2.857,15.007,15.007,0,0,1,1.271-3.23,13.8,13.8,0,0,1,1.771-2.622Z"/><path d="M-691.546,314.977a2.32,2.32,0,0,1-1.135-.8,2.09,2.09,0,0,1-.369-1.244,2.43,2.43,0,0,1,.786-1.839,2.916,2.916,0,0,1,2.092-.745,2.935,2.935,0,0,1,2.112.763,2.467,2.467,0,0,1,.8,1.856,2.043,2.043,0,0,1-.361,1.213,2.305,2.305,0,0,1-1.111.8,2.694,2.694,0,0,1,1.4.971,2.667,2.667,0,0,1,.482,1.6,2.879,2.879,0,0,1-.909,2.16,3.306,3.306,0,0,1-2.393.871,3.3,3.3,0,0,1-2.392-.879,2.92,2.92,0,0,1-.91-2.192,2.65,2.65,0,0,1,.5-1.637A2.482,2.482,0,0,1-691.546,314.977Zm-.246-2.085a1.559,1.559,0,0,0,.458,1.162,1.62,1.62,0,0,0,1.189.451,1.591,1.591,0,0,0,1.166-.448,1.48,1.48,0,0,0,.455-1.1,1.536,1.536,0,0,0-.468-1.138,1.592,1.592,0,0,0-1.166-.461,1.613,1.613,0,0,0-1.17.454A1.45,1.45,0,0,0-691.792,312.892Zm-.4,4.628a2.231,2.231,0,0,0,.25,1.019,1.767,1.767,0,0,0,.742.762,2.168,2.168,0,0,0,1.06.27,1.987,1.987,0,0,0,1.456-.567,1.945,1.945,0,0,0,.574-1.442,1.972,1.972,0,0,0-.591-1.47,2.026,2.026,0,0,0-1.478-.58,1.945,1.945,0,0,0-1.442.573,1.953,1.953,0,0,0-.568,1.435Z"/><path d="M-563.086,318.1l1.183-.109a2.057,2.057,0,0,0,.574,1.21,1.575,1.575,0,0,0,1.087.376,1.872,1.872,0,0,0,.99-.26,2.13,2.13,0,0,0,.7-.694,4.091,4.091,0,0,0,.458-1.172,6.169,6.169,0,0,0,.185-1.5c0-.055,0-.137-.007-.246a2.819,2.819,0,0,1-1.008.954,2.746,2.746,0,0,1-1.38.358,2.8,2.8,0,0,1-2.1-.9,3.3,3.3,0,0,1-.862-2.379,3.38,3.38,0,0,1,.9-2.454,3,3,0,0,1,2.252-.93,3.215,3.215,0,0,1,1.788.526,3.294,3.294,0,0,1,1.23,1.5,7.393,7.393,0,0,1,.42,2.82,9.113,9.113,0,0,1-.417,3.059,3.582,3.582,0,0,1-1.241,1.734,3.208,3.208,0,0,1-1.931.6,2.812,2.812,0,0,1-1.921-.653A2.807,2.807,0,0,1-563.086,318.1Zm5.034-4.423a2.406,2.406,0,0,0-.56-1.682,1.766,1.766,0,0,0-1.357-.622,1.872,1.872,0,0,0-1.429.67,2.48,2.48,0,0,0-.608,1.736,2.141,2.141,0,0,0,.578,1.555,1.9,1.9,0,0,0,1.425.6,1.822,1.822,0,0,0,1.4-.6A2.359,2.359,0,0,0-558.052,313.672Z"/><path d="M-432.785,320.412h-1.231v-7.841a6.389,6.389,0,0,1-1.166.848,8.274,8.274,0,0,1-1.3.636v-1.19a7.446,7.446,0,0,0,1.8-1.176,4.625,4.625,0,0,0,1.094-1.34h.793Zm3.151-4.942a9.175,9.175,0,0,1,.366-2.858,3.554,3.554,0,0,1,1.087-1.675,2.782,2.782,0,0,1,1.815-.588,2.959,2.959,0,0,1,1.415.325,2.7,2.7,0,0,1,1,.937,5.042,5.042,0,0,1,.622,1.49,9.927,9.927,0,0,1,.228,2.369,9.2,9.2,0,0,1-.36,2.842,3.558,3.558,0,0,1-1.083,1.68,2.778,2.778,0,0,1-1.822.591,2.749,2.749,0,0,1-2.277-1.039A6.6,6.6,0,0,1-429.634,315.47Zm1.265,0a6.282,6.282,0,0,0,.578,3.285,1.7,1.7,0,0,0,1.425.817,1.7,1.7,0,0,0,1.425-.82,6.288,6.288,0,0,0,.578-3.281,6.277,6.277,0,0,0-.578-3.289,1.715,1.715,0,0,0-1.439-.813,1.578,1.578,0,0,0-1.354.718A6.349,6.349,0,0,0-428.369,315.47Z"/><path d="M-302.785,320.412h-1.231v-7.841a6.389,6.389,0,0,1-1.166.848,8.274,8.274,0,0,1-1.3.636v-1.19a7.446,7.446,0,0,0,1.8-1.176,4.625,4.625,0,0,0,1.094-1.34h.793Zm6.747,0h-1.23v-7.841a6.389,6.389,0,0,1-1.166.848,8.273,8.273,0,0,1-1.3.636v-1.19a7.446,7.446,0,0,0,1.8-1.176,4.626,4.626,0,0,0,1.094-1.34h.793Z"/><path d="M-1680.794,262.869a.5.5,0,0,1-.5-.5v-30a.5.5,0,0,1,.5-.5.5.5,0,0,1,.5.5v30A.5.5,0,0,1-1680.794,262.869Z"/><path d="M-1711.541,245.063a.5.5,0,0,1-.5-.5v-12.2a.5.5,0,0,1,.5-.5.5.5,0,0,1,.5.5v12.2A.5.5,0,0,1-1711.541,245.063Z"/><path d="M-1706.418,257.259a.5.5,0,0,1-.5-.5V232.369a.5.5,0,0,1,.5-.5.5.5,0,0,1,.5.5V256.76A.5.5,0,0,1-1706.418,257.259Z"/><path d="M-1716.667,245.063a.5.5,0,0,1-.5-.5v-12.2a.5.5,0,0,1,.5-.5.5.5,0,0,1,.5.5v12.2A.5.5,0,0,1-1716.667,245.063Z"/><path d="M-1721.792,245.063a.5.5,0,0,1-.5-.5v-12.2a.5.5,0,0,1,.5-.5.5.5,0,0,1,.5.5v12.2A.5.5,0,0,1-1721.792,245.063Z"/><path d="M-1726.916,245.063a.5.5,0,0,1-.5-.5v-12.2a.5.5,0,0,1,.5-.5.5.5,0,0,1,.5.5v12.2A.5.5,0,0,1-1726.916,245.063Z"/><path d="M-1685.919,245.063a.5.5,0,0,1-.5-.5v-12.2a.5.5,0,0,1,.5-.5.5.5,0,0,1,.5.5v12.2A.5.5,0,0,1-1685.919,245.063Z"/><path d="M-1691.041,245.063a.5.5,0,0,1-.5-.5v-12.2a.5.5,0,0,1,.5-.5.5.5,0,0,1,.5.5v12.2A.5.5,0,0,1-1691.041,245.063Z"/><path d="M-1696.168,245.063a.5.5,0,0,1-.5-.5v-12.2a.5.5,0,0,1,.5-.5.5.5,0,0,1,.5.5v12.2A.5.5,0,0,1-1696.168,245.063Z"/><path d="M-1701.293,245.063a.5.5,0,0,1-.5-.5v-12.2a.5.5,0,0,1,.5-.5.5.5,0,0,1,.5.5v12.2A.5.5,0,0,1-1701.293,245.063Z"/><path d="M-1629.548,262.869a.5.5,0,0,1-.5-.5v-30a.5.5,0,0,1,.5-.5.5.5,0,0,1,.5.5v30A.5.5,0,0,1-1629.548,262.869Z"/><path d="M-1660.3,245.063a.5.5,0,0,1-.5-.5v-12.2a.5.5,0,0,1,.5-.5.5.5,0,0,1,.5.5v12.2A.5.5,0,0,1-1660.3,245.063Z"/><path d="M-1655.171,257.259a.5.5,0,0,1-.5-.5V232.369a.5.5,0,0,1,.5-.5.5.5,0,0,1,.5.5V256.76A.5.5,0,0,1-1655.171,257.259Z"/><path d="M-1665.42,245.063a.5.5,0,0,1-.5-.5v-12.2a.5.5,0,0,1,.5-.5.5.5,0,0,1,.5.5v12.2A.5.5,0,0,1-1665.42,245.063Z"/><path d="M-1670.541,245.063a.5.5,0,0,1-.5-.5v-12.2a.5.5,0,0,1,.5-.5.5.5,0,0,1,.5.5v12.2A.5.5,0,0,1-1670.541,245.063Z"/><path d="M-1675.67,245.063a.5.5,0,0,1-.5-.5v-12.2a.5.5,0,0,1,.5-.5.5.5,0,0,1,.5.5v12.2A.5.5,0,0,1-1675.67,245.063Z"/><path d="M-1634.672,245.063a.5.5,0,0,1-.5-.5v-12.2a.5.5,0,0,1,.5-.5.5.5,0,0,1,.5.5v12.2A.5.5,0,0,1-1634.672,245.063Z"/><path d="M-1639.8,245.063a.5.5,0,0,1-.5-.5v-12.2a.5.5,0,0,1,.5-.5.5.5,0,0,1,.5.5v12.2A.5.5,0,0,1-1639.8,245.063Z"/><path d="M-1644.922,245.063a.5.5,0,0,1-.5-.5v-12.2a.5.5,0,0,1,.5-.5.5.5,0,0,1,.5.5v12.2A.5.5,0,0,1-1644.922,245.063Z"/><path d="M-1650.046,245.063a.5.5,0,0,1-.5-.5v-12.2a.5.5,0,0,1,.5-.5.5.5,0,0,1,.5.5v12.2A.5.5,0,0,1-1650.046,245.063Z"/><path d="M-1578.3,262.869a.5.5,0,0,1-.5-.5v-30a.5.5,0,0,1,.5-.5.5.5,0,0,1,.5.5v30A.5.5,0,0,1-1578.3,262.869Z"/><path d="M-1609.049,245.063a.5.5,0,0,1-.5-.5v-12.2a.5.5,0,0,1,.5-.5.5.5,0,0,1,.5.5v12.2A.5.5,0,0,1-1609.049,245.063Z"/><path d="M-1603.924,257.259a.5.5,0,0,1-.5-.5V232.369a.5.5,0,0,1,.5-.5.5.5,0,0,1,.5.5V256.76A.5.5,0,0,1-1603.924,257.259Z"/><path d="M-1614.173,245.063a.5.5,0,0,1-.5-.5v-12.2a.5.5,0,0,1,.5-.5.5.5,0,0,1,.5.5v12.2A.5.5,0,0,1-1614.173,245.063Z"/><path d="M-1619.3,245.063a.5.5,0,0,1-.5-.5v-12.2a.5.5,0,0,1,.5-.5.5.5,0,0,1,.5.5v12.2A.5.5,0,0,1-1619.3,245.063Z"/><path d="M-1624.423,245.063a.5.5,0,0,1-.5-.5v-12.2a.5.5,0,0,1,.5-.5.5.5,0,0,1,.5.5v12.2A.5.5,0,0,1-1624.423,245.063Z"/><path d="M-1583.426,245.063a.5.5,0,0,1-.5-.5v-12.2a.5.5,0,0,1,.5-.5.5.5,0,0,1,.5.5v12.2A.5.5,0,0,1-1583.426,245.063Z"/><path d="M-1588.551,245.063a.5.5,0,0,1-.5-.5v-12.2a.5.5,0,0,1,.5-.5.5.5,0,0,1,.5.5v12.2A.5.5,0,0,1-1588.551,245.063Z"/><path d="M-1593.676,245.063a.5.5,0,0,1-.5-.5v-12.2a.5.5,0,0,1,.5-.5.5.5,0,0,1,.5.5v12.2A.5.5,0,0,1-1593.676,245.063Z"/><path d="M-1598.8,245.063a.5.5,0,0,1-.5-.5v-12.2a.5.5,0,0,1,.5-.5.5.5,0,0,1,.5.5v12.2A.5.5,0,0,1-1598.8,245.063Z"/><path d="M-1527.054,262.869a.5.5,0,0,1-.5-.5v-30a.5.5,0,0,1,.5-.5.5.5,0,0,1,.5.5v30A.5.5,0,0,1-1527.054,262.869Z"/><path d="M-1557.8,245.063a.5.5,0,0,1-.5-.5v-12.2a.5.5,0,0,1,.5-.5.5.5,0,0,1,.5.5v12.2A.5.5,0,0,1-1557.8,245.063Z"/><path d="M-1552.678,257.259a.5.5,0,0,1-.5-.5V232.369a.5.5,0,0,1,.5-.5.5.5,0,0,1,.5.5V256.76A.5.5,0,0,1-1552.678,257.259Z"/><path d="M-1562.927,245.063a.5.5,0,0,1-.5-.5v-12.2a.5.5,0,0,1,.5-.5.5.5,0,0,1,.5.5v12.2A.5.5,0,0,1-1562.927,245.063Z"/><path d="M-1568.052,245.063a.5.5,0,0,1-.5-.5v-12.2a.5.5,0,0,1,.5-.5.5.5,0,0,1,.5.5v12.2A.5.5,0,0,1-1568.052,245.063Z"/><path d="M-1573.177,245.063a.5.5,0,0,1-.5-.5v-12.2a.5.5,0,0,1,.5-.5.5.5,0,0,1,.5.5v12.2A.5.5,0,0,1-1573.177,245.063Z"/><path d="M-1532.179,245.063a.5.5,0,0,1-.5-.5v-12.2a.5.5,0,0,1,.5-.5.5.5,0,0,1,.5.5v12.2A.5.5,0,0,1-1532.179,245.063Z"/><path d="M-1537.3,245.063a.5.5,0,0,1-.5-.5v-12.2a.5.5,0,0,1,.5-.5.5.5,0,0,1,.5.5v12.2A.5.5,0,0,1-1537.3,245.063Z"/><path d="M-1542.428,245.063a.5.5,0,0,1-.5-.5v-12.2a.5.5,0,0,1,.5-.5.5.5,0,0,1,.5.5v12.2A.5.5,0,0,1-1542.428,245.063Z"/><path d="M-1547.553,245.063a.5.5,0,0,1-.5-.5v-12.2a.5.5,0,0,1,.5-.5.5.5,0,0,1,.5.5v12.2A.5.5,0,0,1-1547.553,245.063Z"/><path d="M-1475.808,262.869a.5.5,0,0,1-.5-.5v-30a.5.5,0,0,1,.5-.5.5.5,0,0,1,.5.5v30A.5.5,0,0,1-1475.808,262.869Z"/><path d="M-1506.556,245.063a.5.5,0,0,1-.5-.5v-12.2a.5.5,0,0,1,.5-.5.5.5,0,0,1,.5.5v12.2A.5.5,0,0,1-1506.556,245.063Z"/><path d="M-1501.432,257.259a.5.5,0,0,1-.5-.5V232.369a.5.5,0,0,1,.5-.5.5.5,0,0,1,.5.5V256.76A.5.5,0,0,1-1501.432,257.259Z"/><path d="M-1511.68,245.063a.5.5,0,0,1-.5-.5v-12.2a.5.5,0,0,1,.5-.5.5.5,0,0,1,.5.5v12.2A.5.5,0,0,1-1511.68,245.063Z"/><path d="M-1516.805,245.063a.5.5,0,0,1-.5-.5v-12.2a.5.5,0,0,1,.5-.5.5.5,0,0,1,.5.5v12.2A.5.5,0,0,1-1516.805,245.063Z"/><path d="M-1521.93,245.063a.5.5,0,0,1-.5-.5v-12.2a.5.5,0,0,1,.5-.5.5.5,0,0,1,.5.5v12.2A.5.5,0,0,1-1521.93,245.063Z"/><path d="M-1480.933,245.063a.5.5,0,0,1-.5-.5v-12.2a.5.5,0,0,1,.5-.5.5.5,0,0,1,.5.5v12.2A.5.5,0,0,1-1480.933,245.063Z"/><path d="M-1486.058,245.063a.5.5,0,0,1-.5-.5v-12.2a.5.5,0,0,1,.5-.5.5.5,0,0,1,.5.5v12.2A.5.5,0,0,1-1486.058,245.063Z"/><path d="M-1491.182,245.063a.5.5,0,0,1-.5-.5v-12.2a.5.5,0,0,1,.5-.5.5.5,0,0,1,.5.5v12.2A.5.5,0,0,1-1491.182,245.063Z"/><path d="M-1496.307,245.063a.5.5,0,0,1-.5-.5v-12.2a.5.5,0,0,1,.5-.5.5.5,0,0,1,.5.5v12.2A.5.5,0,0,1-1496.307,245.063Z"/><path d="M-1424.561,262.869a.5.5,0,0,1-.5-.5v-30a.5.5,0,0,1,.5-.5.5.5,0,0,1,.5.5v30A.5.5,0,0,1-1424.561,262.869Z"/><path d="M-1455.309,245.063a.5.5,0,0,1-.5-.5v-12.2a.5.5,0,0,1,.5-.5.5.5,0,0,1,.5.5v12.2A.5.5,0,0,1-1455.309,245.063Z"/><path d="M-1450.185,257.259a.5.5,0,0,1-.5-.5V232.369a.5.5,0,0,1,.5-.5.5.5,0,0,1,.5.5V256.76A.5.5,0,0,1-1450.185,257.259Z"/><path d="M-1460.434,245.063a.5.5,0,0,1-.5-.5v-12.2a.5.5,0,0,1,.5-.5.5.5,0,0,1,.5.5v12.2A.5.5,0,0,1-1460.434,245.063Z"/><path d="M-1465.559,245.063a.5.5,0,0,1-.5-.5v-12.2a.5.5,0,0,1,.5-.5.5.5,0,0,1,.5.5v12.2A.5.5,0,0,1-1465.559,245.063Z"/><path d="M-1470.683,245.063a.5.5,0,0,1-.5-.5v-12.2a.5.5,0,0,1,.5-.5.5.5,0,0,1,.5.5v12.2A.5.5,0,0,1-1470.683,245.063Z"/><path d="M-1429.686,245.063a.5.5,0,0,1-.5-.5v-12.2a.5.5,0,0,1,.5-.5.5.5,0,0,1,.5.5v12.2A.5.5,0,0,1-1429.686,245.063Z"/><path d="M-1434.81,245.063a.5.5,0,0,1-.5-.5v-12.2a.5.5,0,0,1,.5-.5.5.5,0,0,1,.5.5v12.2A.5.5,0,0,1-1434.81,245.063Z"/><path d="M-1439.935,245.063a.5.5,0,0,1-.5-.5v-12.2a.5.5,0,0,1,.5-.5.5.5,0,0,1,.5.5v12.2A.5.5,0,0,1-1439.935,245.063Z"/><path d="M-1445.06,245.063a.5.5,0,0,1-.5-.5v-12.2a.5.5,0,0,1,.5-.5.5.5,0,0,1,.5.5v12.2A.5.5,0,0,1-1445.06,245.063Z"/><path d="M-1373.315,262.869a.5.5,0,0,1-.5-.5v-30a.5.5,0,0,1,.5-.5.5.5,0,0,1,.5.5v30A.5.5,0,0,1-1373.315,262.869Z"/><path d="M-1404.063,245.063a.5.5,0,0,1-.5-.5v-12.2a.5.5,0,0,1,.5-.5.5.5,0,0,1,.5.5v12.2A.5.5,0,0,1-1404.063,245.063Z"/><path d="M-1398.941,257.259a.5.5,0,0,1-.5-.5V232.369a.5.5,0,0,1,.5-.5.5.5,0,0,1,.5.5V256.76A.5.5,0,0,1-1398.941,257.259Z"/><path d="M-1409.188,245.063a.5.5,0,0,1-.5-.5v-12.2a.5.5,0,0,1,.5-.5.5.5,0,0,1,.5.5v12.2A.5.5,0,0,1-1409.188,245.063Z"/><path d="M-1414.312,245.063a.5.5,0,0,1-.5-.5v-12.2a.5.5,0,0,1,.5-.5.5.5,0,0,1,.5.5v12.2A.5.5,0,0,1-1414.312,245.063Z"/><path d="M-1419.441,245.063a.5.5,0,0,1-.5-.5v-12.2a.5.5,0,0,1,.5-.5.5.5,0,0,1,.5.5v12.2A.5.5,0,0,1-1419.441,245.063Z"/><path d="M-1378.441,245.063a.5.5,0,0,1-.5-.5v-12.2a.5.5,0,0,1,.5-.5.5.5,0,0,1,.5.5v12.2A.5.5,0,0,1-1378.441,245.063Z"/><path d="M-1383.564,245.063a.5.5,0,0,1-.5-.5v-12.2a.5.5,0,0,1,.5-.5.5.5,0,0,1,.5.5v12.2A.5.5,0,0,1-1383.564,245.063Z"/><path d="M-1388.689,245.063a.5.5,0,0,1-.5-.5v-12.2a.5.5,0,0,1,.5-.5.5.5,0,0,1,.5.5v12.2A.5.5,0,0,1-1388.689,245.063Z"/><path d="M-1393.814,245.063a.5.5,0,0,1-.5-.5v-12.2a.5.5,0,0,1,.5-.5.5.5,0,0,1,.5.5v12.2A.5.5,0,0,1-1393.814,245.063Z"/><path d="M-1322.069,262.869a.5.5,0,0,1-.5-.5v-30a.5.5,0,0,1,.5-.5.5.5,0,0,1,.5.5v30A.5.5,0,0,1-1322.069,262.869Z"/><path d="M-1352.816,245.063a.5.5,0,0,1-.5-.5v-12.2a.5.5,0,0,1,.5-.5.5.5,0,0,1,.5.5v12.2A.5.5,0,0,1-1352.816,245.063Z"/><path d="M-1347.691,257.259a.5.5,0,0,1-.5-.5V232.369a.5.5,0,0,1,.5-.5.5.5,0,0,1,.5.5V256.76A.5.5,0,0,1-1347.691,257.259Z"/><path d="M-1357.941,245.063a.5.5,0,0,1-.5-.5v-12.2a.5.5,0,0,1,.5-.5.5.5,0,0,1,.5.5v12.2A.5.5,0,0,1-1357.941,245.063Z"/><path d="M-1363.065,245.063a.5.5,0,0,1-.5-.5v-12.2a.5.5,0,0,1,.5-.5.5.5,0,0,1,.5.5v12.2A.5.5,0,0,1-1363.065,245.063Z"/><path d="M-1368.19,245.063a.5.5,0,0,1-.5-.5v-12.2a.5.5,0,0,1,.5-.5.5.5,0,0,1,.5.5v12.2A.5.5,0,0,1-1368.19,245.063Z"/><path d="M-1327.193,245.063a.5.5,0,0,1-.5-.5v-12.2a.5.5,0,0,1,.5-.5.5.5,0,0,1,.5.5v12.2A.5.5,0,0,1-1327.193,245.063Z"/><path d="M-1332.317,245.063a.5.5,0,0,1-.5-.5v-12.2a.5.5,0,0,1,.5-.5.5.5,0,0,1,.5.5v12.2A.5.5,0,0,1-1332.317,245.063Z"/><path d="M-1337.441,245.063a.5.5,0,0,1-.5-.5v-12.2a.5.5,0,0,1,.5-.5.5.5,0,0,1,.5.5v12.2A.5.5,0,0,1-1337.441,245.063Z"/><path d="M-1342.566,245.063a.5.5,0,0,1-.5-.5v-12.2a.5.5,0,0,1,.5-.5.5.5,0,0,1,.5.5v12.2A.5.5,0,0,1-1342.566,245.063Z"/><path d="M-1270.821,262.869a.5.5,0,0,1-.5-.5v-30a.5.5,0,0,1,.5-.5.5.5,0,0,1,.5.5v30A.5.5,0,0,1-1270.821,262.869Z"/><path d="M-1301.57,245.063a.5.5,0,0,1-.5-.5v-12.2a.5.5,0,0,1,.5-.5.5.5,0,0,1,.5.5v12.2A.5.5,0,0,1-1301.57,245.063Z"/><path d="M-1296.441,257.259a.5.5,0,0,1-.5-.5V232.369a.5.5,0,0,1,.5-.5.5.5,0,0,1,.5.5V256.76A.5.5,0,0,1-1296.441,257.259Z"/><path d="M-1306.694,245.063a.5.5,0,0,1-.5-.5v-12.2a.5.5,0,0,1,.5-.5.5.5,0,0,1,.5.5v12.2A.5.5,0,0,1-1306.694,245.063Z"/><path d="M-1311.819,245.063a.5.5,0,0,1-.5-.5v-12.2a.5.5,0,0,1,.5-.5.5.5,0,0,1,.5.5v12.2A.5.5,0,0,1-1311.819,245.063Z"/><path d="M-1316.941,245.063a.5.5,0,0,1-.5-.5v-12.2a.5.5,0,0,1,.5-.5.5.5,0,0,1,.5.5v12.2A.5.5,0,0,1-1316.941,245.063Z"/><path d="M-1275.946,245.063a.5.5,0,0,1-.5-.5v-12.2a.5.5,0,0,1,.5-.5.5.5,0,0,1,.5.5v12.2A.5.5,0,0,1-1275.946,245.063Z"/><path d="M-1281.071,245.063a.5.5,0,0,1-.5-.5v-12.2a.5.5,0,0,1,.5-.5.5.5,0,0,1,.5.5v12.2A.5.5,0,0,1-1281.071,245.063Z"/><path d="M-1286.2,245.063a.5.5,0,0,1-.5-.5v-12.2a.5.5,0,0,1,.5-.5.5.5,0,0,1,.5.5v12.2A.5.5,0,0,1-1286.2,245.063Z"/><path d="M-1291.32,245.063a.5.5,0,0,1-.5-.5v-12.2a.5.5,0,0,1,.5-.5.5.5,0,0,1,.5.5v12.2A.5.5,0,0,1-1291.32,245.063Z"/><path d="M-1219.575,262.869a.5.5,0,0,1-.5-.5v-30a.5.5,0,0,1,.5-.5.5.5,0,0,1,.5.5v30A.5.5,0,0,1-1219.575,262.869Z"/><path d="M-1250.322,245.063a.5.5,0,0,1-.5-.5v-12.2a.5.5,0,0,1,.5-.5.5.5,0,0,1,.5.5v12.2A.5.5,0,0,1-1250.322,245.063Z"/><path d="M-1245.2,257.259a.5.5,0,0,1-.5-.5V232.369a.5.5,0,0,1,.5-.5.5.5,0,0,1,.5.5V256.76A.5.5,0,0,1-1245.2,257.259Z"/><path d="M-1255.447,245.063a.5.5,0,0,1-.5-.5v-12.2a.5.5,0,0,1,.5-.5.5.5,0,0,1,.5.5v12.2A.5.5,0,0,1-1255.447,245.063Z"/><path d="M-1260.572,245.063a.5.5,0,0,1-.5-.5v-12.2a.5.5,0,0,1,.5-.5.5.5,0,0,1,.5.5v12.2A.5.5,0,0,1-1260.572,245.063Z"/><path d="M-1265.7,245.063a.5.5,0,0,1-.5-.5v-12.2a.5.5,0,0,1,.5-.5.5.5,0,0,1,.5.5v12.2A.5.5,0,0,1-1265.7,245.063Z"/><path d="M-1224.7,245.063a.5.5,0,0,1-.5-.5v-12.2a.5.5,0,0,1,.5-.5.5.5,0,0,1,.5.5v12.2A.5.5,0,0,1-1224.7,245.063Z"/><path d="M-1229.825,245.063a.5.5,0,0,1-.5-.5v-12.2a.5.5,0,0,1,.5-.5.5.5,0,0,1,.5.5v12.2A.5.5,0,0,1-1229.825,245.063Z"/><path d="M-1234.949,245.063a.5.5,0,0,1-.5-.5v-12.2a.5.5,0,0,1,.5-.5.5.5,0,0,1,.5.5v12.2A.5.5,0,0,1-1234.949,245.063Z"/><path d="M-1240.074,245.063a.5.5,0,0,1-.5-.5v-12.2a.5.5,0,0,1,.5-.5.5.5,0,0,1,.5.5v12.2A.5.5,0,0,1-1240.074,245.063Z"/><path d="M-1168.328,262.869a.5.5,0,0,1-.5-.5v-30a.5.5,0,0,1,.5-.5.5.5,0,0,1,.5.5v30A.5.5,0,0,1-1168.328,262.869Z"/><path d="M-1199.076,245.063a.5.5,0,0,1-.5-.5v-12.2a.5.5,0,0,1,.5-.5.5.5,0,0,1,.5.5v12.2A.5.5,0,0,1-1199.076,245.063Z"/><path d="M-1193.952,257.259a.5.5,0,0,1-.5-.5V232.369a.5.5,0,0,1,.5-.5.5.5,0,0,1,.5.5V256.76A.5.5,0,0,1-1193.952,257.259Z"/><path d="M-1204.2,245.063a.5.5,0,0,1-.5-.5v-12.2a.5.5,0,0,1,.5-.5.5.5,0,0,1,.5.5v12.2A.5.5,0,0,1-1204.2,245.063Z"/><path d="M-1209.326,245.063a.5.5,0,0,1-.5-.5v-12.2a.5.5,0,0,1,.5-.5.5.5,0,0,1,.5.5v12.2A.5.5,0,0,1-1209.326,245.063Z"/><path d="M-1214.45,245.063a.5.5,0,0,1-.5-.5v-12.2a.5.5,0,0,1,.5-.5.5.5,0,0,1,.5.5v12.2A.5.5,0,0,1-1214.45,245.063Z"/><path d="M-1173.453,245.063a.5.5,0,0,1-.5-.5v-12.2a.5.5,0,0,1,.5-.5.5.5,0,0,1,.5.5v12.2A.5.5,0,0,1-1173.453,245.063Z"/><path d="M-1178.577,245.063a.5.5,0,0,1-.5-.5v-12.2a.5.5,0,0,1,.5-.5.5.5,0,0,1,.5.5v12.2A.5.5,0,0,1-1178.577,245.063Z"/><path d="M-1183.7,245.063a.5.5,0,0,1-.5-.5v-12.2a.5.5,0,0,1,.5-.5.5.5,0,0,1,.5.5v12.2A.5.5,0,0,1-1183.7,245.063Z"/><path d="M-1188.827,245.063a.5.5,0,0,1-.5-.5v-12.2a.5.5,0,0,1,.5-.5.5.5,0,0,1,.5.5v12.2A.5.5,0,0,1-1188.827,245.063Z"/><path d="M-1117.082,262.869a.5.5,0,0,1-.5-.5v-30a.5.5,0,0,1,.5-.5.5.5,0,0,1,.5.5v30A.5.5,0,0,1-1117.082,262.869Z"/><path d="M-1147.83,245.063a.5.5,0,0,1-.5-.5v-12.2a.5.5,0,0,1,.5-.5.5.5,0,0,1,.5.5v12.2A.5.5,0,0,1-1147.83,245.063Z"/><path d="M-1142.7,257.259a.5.5,0,0,1-.5-.5V232.369a.5.5,0,0,1,.5-.5.5.5,0,0,1,.5.5V256.76A.5.5,0,0,1-1142.7,257.259Z"/><path d="M-1152.954,245.063a.5.5,0,0,1-.5-.5v-12.2a.5.5,0,0,1,.5-.5.5.5,0,0,1,.5.5v12.2A.5.5,0,0,1-1152.954,245.063Z"/><path d="M-1158.079,245.063a.5.5,0,0,1-.5-.5v-12.2a.5.5,0,0,1,.5-.5.5.5,0,0,1,.5.5v12.2A.5.5,0,0,1-1158.079,245.063Z"/><path d="M-1163.2,245.063a.5.5,0,0,1-.5-.5v-12.2a.5.5,0,0,1,.5-.5.5.5,0,0,1,.5.5v12.2A.5.5,0,0,1-1163.2,245.063Z"/><path d="M-1122.207,245.063a.5.5,0,0,1-.5-.5v-12.2a.5.5,0,0,1,.5-.5.5.5,0,0,1,.5.5v12.2A.5.5,0,0,1-1122.207,245.063Z"/><path d="M-1127.331,245.063a.5.5,0,0,1-.5-.5v-12.2a.5.5,0,0,1,.5-.5.5.5,0,0,1,.5.5v12.2A.5.5,0,0,1-1127.331,245.063Z"/><path d="M-1132.456,245.063a.5.5,0,0,1-.5-.5v-12.2a.5.5,0,0,1,.5-.5.5.5,0,0,1,.5.5v12.2A.5.5,0,0,1-1132.456,245.063Z"/><path d="M-1137.581,245.063a.5.5,0,0,1-.5-.5v-12.2a.5.5,0,0,1,.5-.5.5.5,0,0,1,.5.5v12.2A.5.5,0,0,1-1137.581,245.063Z"/><path d="M-1065.835,262.869a.5.5,0,0,1-.5-.5v-30a.5.5,0,0,1,.5-.5.5.5,0,0,1,.5.5v30A.5.5,0,0,1-1065.835,262.869Z"/><path d="M-1096.583,245.063a.5.5,0,0,1-.5-.5v-12.2a.5.5,0,0,1,.5-.5.5.5,0,0,1,.5.5v12.2A.5.5,0,0,1-1096.583,245.063Z"/><path d="M-1091.458,257.259a.5.5,0,0,1-.5-.5V232.369a.5.5,0,0,1,.5-.5.5.5,0,0,1,.5.5V256.76A.5.5,0,0,1-1091.458,257.259Z"/><path d="M-1101.708,245.063a.5.5,0,0,1-.5-.5v-12.2a.5.5,0,0,1,.5-.5.5.5,0,0,1,.5.5v12.2A.5.5,0,0,1-1101.708,245.063Z"/><path d="M-1106.832,245.063a.5.5,0,0,1-.5-.5v-12.2a.5.5,0,0,1,.5-.5.5.5,0,0,1,.5.5v12.2A.5.5,0,0,1-1106.832,245.063Z"/><path d="M-1111.957,245.063a.5.5,0,0,1-.5-.5v-12.2a.5.5,0,0,1,.5-.5.5.5,0,0,1,.5.5v12.2A.5.5,0,0,1-1111.957,245.063Z"/><path d="M-1070.959,245.063a.5.5,0,0,1-.5-.5v-12.2a.5.5,0,0,1,.5-.5.5.5,0,0,1,.5.5v12.2A.5.5,0,0,1-1070.959,245.063Z"/><path d="M-1076.084,245.063a.5.5,0,0,1-.5-.5v-12.2a.5.5,0,0,1,.5-.5.5.5,0,0,1,.5.5v12.2A.5.5,0,0,1-1076.084,245.063Z"/><path d="M-1081.209,245.063a.5.5,0,0,1-.5-.5v-12.2a.5.5,0,0,1,.5-.5.5.5,0,0,1,.5.5v12.2A.5.5,0,0,1-1081.209,245.063Z"/><path d="M-1086.334,245.063a.5.5,0,0,1-.5-.5v-12.2a.5.5,0,0,1,.5-.5.5.5,0,0,1,.5.5v12.2A.5.5,0,0,1-1086.334,245.063Z"/><path d="M-1014.588,262.869a.5.5,0,0,1-.5-.5v-30a.5.5,0,0,1,.5-.5.5.5,0,0,1,.5.5v30A.5.5,0,0,1-1014.588,262.869Z"/><path d="M-1045.341,245.063a.5.5,0,0,1-.5-.5v-12.2a.5.5,0,0,1,.5-.5.5.5,0,0,1,.5.5v12.2A.5.5,0,0,1-1045.341,245.063Z"/><path d="M-1040.212,257.259a.5.5,0,0,1-.5-.5V232.369a.5.5,0,0,1,.5-.5.5.5,0,0,1,.5.5V256.76A.5.5,0,0,1-1040.212,257.259Z"/><path d="M-1050.461,245.063a.5.5,0,0,1-.5-.5v-12.2a.5.5,0,0,1,.5-.5.5.5,0,0,1,.5.5v12.2A.5.5,0,0,1-1050.461,245.063Z"/><path d="M-1055.586,245.063a.5.5,0,0,1-.5-.5v-12.2a.5.5,0,0,1,.5-.5.5.5,0,0,1,.5.5v12.2A.5.5,0,0,1-1055.586,245.063Z"/><path d="M-1060.711,245.063a.5.5,0,0,1-.5-.5v-12.2a.5.5,0,0,1,.5-.5.5.5,0,0,1,.5.5v12.2A.5.5,0,0,1-1060.711,245.063Z"/><path d="M-1019.713,245.063a.5.5,0,0,1-.5-.5v-12.2a.5.5,0,0,1,.5-.5.5.5,0,0,1,.5.5v12.2A.5.5,0,0,1-1019.713,245.063Z"/><path d="M-1024.841,245.063a.5.5,0,0,1-.5-.5v-12.2a.5.5,0,0,1,.5-.5.5.5,0,0,1,.5.5v12.2A.5.5,0,0,1-1024.841,245.063Z"/><path d="M-1029.963,245.063a.5.5,0,0,1-.5-.5v-12.2a.5.5,0,0,1,.5-.5.5.5,0,0,1,.5.5v12.2A.5.5,0,0,1-1029.963,245.063Z"/><path d="M-1035.087,245.063a.5.5,0,0,1-.5-.5v-12.2a.5.5,0,0,1,.5-.5.5.5,0,0,1,.5.5v12.2A.5.5,0,0,1-1035.087,245.063Z"/><path d="M-963.341,262.869a.5.5,0,0,1-.5-.5v-30a.5.5,0,0,1,.5-.5.5.5,0,0,1,.5.5v30A.5.5,0,0,1-963.341,262.869Z"/><path d="M-994.09,245.063a.5.5,0,0,1-.5-.5v-12.2a.5.5,0,0,1,.5-.5.5.5,0,0,1,.5.5v12.2A.5.5,0,0,1-994.09,245.063Z"/><path d="M-988.965,257.259a.5.5,0,0,1-.5-.5V232.369a.5.5,0,0,1,.5-.5.5.5,0,0,1,.5.5V256.76A.5.5,0,0,1-988.965,257.259Z"/><path d="M-999.214,245.063a.5.5,0,0,1-.5-.5v-12.2a.5.5,0,0,1,.5-.5.5.5,0,0,1,.5.5v12.2A.5.5,0,0,1-999.214,245.063Z"/><path d="M-1004.341,245.063a.5.5,0,0,1-.5-.5v-12.2a.5.5,0,0,1,.5-.5.5.5,0,0,1,.5.5v12.2A.5.5,0,0,1-1004.341,245.063Z"/><path d="M-1009.464,245.063a.5.5,0,0,1-.5-.5v-12.2a.5.5,0,0,1,.5-.5.5.5,0,0,1,.5.5v12.2A.5.5,0,0,1-1009.464,245.063Z"/><path d="M-968.467,245.063a.5.5,0,0,1-.5-.5v-12.2a.5.5,0,0,1,.5-.5.5.5,0,0,1,.5.5v12.2A.5.5,0,0,1-968.467,245.063Z"/><path d="M-973.592,245.063a.5.5,0,0,1-.5-.5v-12.2a.5.5,0,0,1,.5-.5.5.5,0,0,1,.5.5v12.2A.5.5,0,0,1-973.592,245.063Z"/><path d="M-978.715,245.063a.5.5,0,0,1-.5-.5v-12.2a.5.5,0,0,1,.5-.5.5.5,0,0,1,.5.5v12.2A.5.5,0,0,1-978.715,245.063Z"/><path d="M-983.841,245.063a.5.5,0,0,1-.5-.5v-12.2a.5.5,0,0,1,.5-.5.5.5,0,0,1,.5.5v12.2A.5.5,0,0,1-983.841,245.063Z"/><path d="M-912.095,262.869a.5.5,0,0,1-.5-.5v-30a.5.5,0,0,1,.5-.5.5.5,0,0,1,.5.5v30A.5.5,0,0,1-912.095,262.869Z"/><path d="M-942.841,245.063a.5.5,0,0,1-.5-.5v-12.2a.5.5,0,0,1,.5-.5.5.5,0,0,1,.5.5v12.2A.5.5,0,0,1-942.841,245.063Z"/><path d="M-937.719,257.259a.5.5,0,0,1-.5-.5V232.369a.5.5,0,0,1,.5-.5.5.5,0,0,1,.5.5V256.76A.5.5,0,0,1-937.719,257.259Z"/><path d="M-947.968,245.063a.5.5,0,0,1-.5-.5v-12.2a.5.5,0,0,1,.5-.5.5.5,0,0,1,.5.5v12.2A.5.5,0,0,1-947.968,245.063Z"/><path d="M-953.093,245.063a.5.5,0,0,1-.5-.5v-12.2a.5.5,0,0,1,.5-.5.5.5,0,0,1,.5.5v12.2A.5.5,0,0,1-953.093,245.063Z"/><path d="M-958.218,245.063a.5.5,0,0,1-.5-.5v-12.2a.5.5,0,0,1,.5-.5.5.5,0,0,1,.5.5v12.2A.5.5,0,0,1-958.218,245.063Z"/><path d="M-917.22,245.063a.5.5,0,0,1-.5-.5v-12.2a.5.5,0,0,1,.5-.5.5.5,0,0,1,.5.5v12.2A.5.5,0,0,1-917.22,245.063Z"/><path d="M-922.341,245.063a.5.5,0,0,1-.5-.5v-12.2a.5.5,0,0,1,.5-.5.5.5,0,0,1,.5.5v12.2A.5.5,0,0,1-922.341,245.063Z"/><path d="M-927.469,245.063a.5.5,0,0,1-.5-.5v-12.2a.5.5,0,0,1,.5-.5.5.5,0,0,1,.5.5v12.2A.5.5,0,0,1-927.469,245.063Z"/><path d="M-932.594,245.063a.5.5,0,0,1-.5-.5v-12.2a.5.5,0,0,1,.5-.5.5.5,0,0,1,.5.5v12.2A.5.5,0,0,1-932.594,245.063Z"/><path d="M-860.849,262.869a.5.5,0,0,1-.5-.5v-30a.5.5,0,0,1,.5-.5.5.5,0,0,1,.5.5v30A.5.5,0,0,1-860.849,262.869Z"/><path d="M-891.6,245.063a.5.5,0,0,1-.5-.5v-12.2a.5.5,0,0,1,.5-.5.5.5,0,0,1,.5.5v12.2A.5.5,0,0,1-891.6,245.063Z"/><path d="M-886.471,257.259a.5.5,0,0,1-.5-.5V232.369a.5.5,0,0,1,.5-.5.5.5,0,0,1,.5.5V256.76A.5.5,0,0,1-886.471,257.259Z"/><path d="M-896.721,245.063a.5.5,0,0,1-.5-.5v-12.2a.5.5,0,0,1,.5-.5.5.5,0,0,1,.5.5v12.2A.5.5,0,0,1-896.721,245.063Z"/><path d="M-901.841,245.063a.5.5,0,0,1-.5-.5v-12.2a.5.5,0,0,1,.5-.5.5.5,0,0,1,.5.5v12.2A.5.5,0,0,1-901.841,245.063Z"/><path d="M-906.97,245.063a.5.5,0,0,1-.5-.5v-12.2a.5.5,0,0,1,.5-.5.5.5,0,0,1,.5.5v12.2A.5.5,0,0,1-906.97,245.063Z"/><path d="M-865.974,245.063a.5.5,0,0,1-.5-.5v-12.2a.5.5,0,0,1,.5-.5.5.5,0,0,1,.5.5v12.2A.5.5,0,0,1-865.974,245.063Z"/><path d="M-871.1,245.063a.5.5,0,0,1-.5-.5v-12.2a.5.5,0,0,1,.5-.5.5.5,0,0,1,.5.5v12.2A.5.5,0,0,1-871.1,245.063Z"/><path d="M-876.223,245.063a.5.5,0,0,1-.5-.5v-12.2a.5.5,0,0,1,.5-.5.5.5,0,0,1,.5.5v12.2A.5.5,0,0,1-876.223,245.063Z"/><path d="M-881.348,245.063a.5.5,0,0,1-.5-.5v-12.2a.5.5,0,0,1,.5-.5.5.5,0,0,1,.5.5v12.2A.5.5,0,0,1-881.348,245.063Z"/><path d="M-809.6,262.869a.5.5,0,0,1-.5-.5v-30a.5.5,0,0,1,.5-.5.5.5,0,0,1,.5.5v30A.5.5,0,0,1-809.6,262.869Z"/><path d="M-840.35,245.063a.5.5,0,0,1-.5-.5v-12.2a.5.5,0,0,1,.5-.5.5.5,0,0,1,.5.5v12.2A.5.5,0,0,1-840.35,245.063Z"/><path d="M-835.225,257.259a.5.5,0,0,1-.5-.5V232.369a.5.5,0,0,1,.5-.5.5.5,0,0,1,.5.5V256.76A.5.5,0,0,1-835.225,257.259Z"/><path d="M-845.475,245.063a.5.5,0,0,1-.5-.5v-12.2a.5.5,0,0,1,.5-.5.5.5,0,0,1,.5.5v12.2A.5.5,0,0,1-845.475,245.063Z"/><path d="M-850.6,245.063a.5.5,0,0,1-.5-.5v-12.2a.5.5,0,0,1,.5-.5.5.5,0,0,1,.5.5v12.2A.5.5,0,0,1-850.6,245.063Z"/><path d="M-855.724,245.063a.5.5,0,0,1-.5-.5v-12.2a.5.5,0,0,1,.5-.5.5.5,0,0,1,.5.5v12.2A.5.5,0,0,1-855.724,245.063Z"/><path d="M-814.726,245.063a.5.5,0,0,1-.5-.5v-12.2a.5.5,0,0,1,.5-.5.5.5,0,0,1,.5.5v12.2A.5.5,0,0,1-814.726,245.063Z"/><path d="M-819.851,245.063a.5.5,0,0,1-.5-.5v-12.2a.5.5,0,0,1,.5-.5.5.5,0,0,1,.5.5v12.2A.5.5,0,0,1-819.851,245.063Z"/><path d="M-824.976,245.063a.5.5,0,0,1-.5-.5v-12.2a.5.5,0,0,1,.5-.5.5.5,0,0,1,.5.5v12.2A.5.5,0,0,1-824.976,245.063Z"/><path d="M-830.1,245.063a.5.5,0,0,1-.5-.5v-12.2a.5.5,0,0,1,.5-.5.5.5,0,0,1,.5.5v12.2A.5.5,0,0,1-830.1,245.063Z"/><path d="M-758.356,262.869a.5.5,0,0,1-.5-.5v-30a.5.5,0,0,1,.5-.5.5.5,0,0,1,.5.5v30A.5.5,0,0,1-758.356,262.869Z"/><path d="M-789.1,245.063a.5.5,0,0,1-.5-.5v-12.2a.5.5,0,0,1,.5-.5.5.5,0,0,1,.5.5v12.2A.5.5,0,0,1-789.1,245.063Z"/><path d="M-783.979,257.259a.5.5,0,0,1-.5-.5V232.369a.5.5,0,0,1,.5-.5.5.5,0,0,1,.5.5V256.76A.5.5,0,0,1-783.979,257.259Z"/><path d="M-794.229,245.063a.5.5,0,0,1-.5-.5v-12.2a.5.5,0,0,1,.5-.5.5.5,0,0,1,.5.5v12.2A.5.5,0,0,1-794.229,245.063Z"/><path d="M-799.352,245.063a.5.5,0,0,1-.5-.5v-12.2a.5.5,0,0,1,.5-.5.5.5,0,0,1,.5.5v12.2A.5.5,0,0,1-799.352,245.063Z"/><path d="M-804.477,245.063a.5.5,0,0,1-.5-.5v-12.2a.5.5,0,0,1,.5-.5.5.5,0,0,1,.5.5v12.2A.5.5,0,0,1-804.477,245.063Z"/><path d="M-763.48,245.063a.5.5,0,0,1-.5-.5v-12.2a.5.5,0,0,1,.5-.5.5.5,0,0,1,.5.5v12.2A.5.5,0,0,1-763.48,245.063Z"/><path d="M-768.6,245.063a.5.5,0,0,1-.5-.5v-12.2a.5.5,0,0,1,.5-.5.5.5,0,0,1,.5.5v12.2A.5.5,0,0,1-768.6,245.063Z"/><path d="M-773.73,245.063a.5.5,0,0,1-.5-.5v-12.2a.5.5,0,0,1,.5-.5.5.5,0,0,1,.5.5v12.2A.5.5,0,0,1-773.73,245.063Z"/><path d="M-778.854,245.063a.5.5,0,0,1-.5-.5v-12.2a.5.5,0,0,1,.5-.5.5.5,0,0,1,.5.5v12.2A.5.5,0,0,1-778.854,245.063Z"/><path d="M-707.107,262.869a.5.5,0,0,1-.5-.5v-30a.5.5,0,0,1,.5-.5.5.5,0,0,1,.5.5v30A.5.5,0,0,1-707.107,262.869Z"/><path d="M-737.857,245.063a.5.5,0,0,1-.5-.5v-12.2a.5.5,0,0,1,.5-.5.5.5,0,0,1,.5.5v12.2A.5.5,0,0,1-737.857,245.063Z"/><path d="M-732.732,257.259a.5.5,0,0,1-.5-.5V232.369a.5.5,0,0,1,.5-.5.5.5,0,0,1,.5.5V256.76A.5.5,0,0,1-732.732,257.259Z"/><path d="M-742.981,245.063a.5.5,0,0,1-.5-.5v-12.2a.5.5,0,0,1,.5-.5.5.5,0,0,1,.5.5v12.2A.5.5,0,0,1-742.981,245.063Z"/><path d="M-748.106,245.063a.5.5,0,0,1-.5-.5v-12.2a.5.5,0,0,1,.5-.5.5.5,0,0,1,.5.5v12.2A.5.5,0,0,1-748.106,245.063Z"/><path d="M-753.231,245.063a.5.5,0,0,1-.5-.5v-12.2a.5.5,0,0,1,.5-.5.5.5,0,0,1,.5.5v12.2A.5.5,0,0,1-753.231,245.063Z"/><path d="M-712.234,245.063a.5.5,0,0,1-.5-.5v-12.2a.5.5,0,0,1,.5-.5.5.5,0,0,1,.5.5v12.2A.5.5,0,0,1-712.234,245.063Z"/><path d="M-717.361,245.063a.5.5,0,0,1-.5-.5v-12.2a.5.5,0,0,1,.5-.5.5.5,0,0,1,.5.5v12.2A.5.5,0,0,1-717.361,245.063Z"/><path d="M-722.487,245.063a.5.5,0,0,1-.5-.5v-12.2a.5.5,0,0,1,.5-.5.5.5,0,0,1,.5.5v12.2A.5.5,0,0,1-722.487,245.063Z"/><path d="M-727.6,245.063a.5.5,0,0,1-.5-.5v-12.2a.5.5,0,0,1,.5-.5.5.5,0,0,1,.5.5v12.2A.5.5,0,0,1-727.6,245.063Z"/><path d="M-655.86,262.869a.5.5,0,0,1-.5-.5v-30a.5.5,0,0,1,.5-.5.5.5,0,0,1,.5.5v30A.5.5,0,0,1-655.86,262.869Z"/><path d="M-686.61,245.063a.5.5,0,0,1-.5-.5v-12.2a.5.5,0,0,1,.5-.5.5.5,0,0,1,.5.5v12.2A.5.5,0,0,1-686.61,245.063Z"/><path d="M-681.484,257.259a.5.5,0,0,1-.5-.5V232.369a.5.5,0,0,1,.5-.5.5.5,0,0,1,.5.5V256.76A.5.5,0,0,1-681.484,257.259Z"/><path d="M-691.741,245.063a.5.5,0,0,1-.5-.5v-12.2a.5.5,0,0,1,.5-.5.5.5,0,0,1,.5.5v12.2A.5.5,0,0,1-691.741,245.063Z"/><path d="M-696.864,245.063a.5.5,0,0,1-.5-.5v-12.2a.5.5,0,0,1,.5-.5.5.5,0,0,1,.5.5v12.2A.5.5,0,0,1-696.864,245.063Z"/><path d="M-701.981,245.063a.5.5,0,0,1-.5-.5v-12.2a.5.5,0,0,1,.5-.5.5.5,0,0,1,.5.5v12.2A.5.5,0,0,1-701.981,245.063Z"/><path d="M-660.987,245.063a.5.5,0,0,1-.5-.5v-12.2a.5.5,0,0,1,.5-.5.5.5,0,0,1,.5.5v12.2A.5.5,0,0,1-660.987,245.063Z"/><path d="M-666.114,245.063a.5.5,0,0,1-.5-.5v-12.2a.5.5,0,0,1,.5-.5.5.5,0,0,1,.5.5v12.2A.5.5,0,0,1-666.114,245.063Z"/><path d="M-671.241,245.063a.5.5,0,0,1-.5-.5v-12.2a.5.5,0,0,1,.5-.5.5.5,0,0,1,.5.5v12.2A.5.5,0,0,1-671.241,245.063Z"/><path d="M-676.357,245.063a.5.5,0,0,1-.5-.5v-12.2a.5.5,0,0,1,.5-.5.5.5,0,0,1,.5.5v12.2A.5.5,0,0,1-676.357,245.063Z"/><path d="M-604.613,262.869a.5.5,0,0,1-.5-.5v-30a.5.5,0,0,1,.5-.5.5.5,0,0,1,.5.5v30A.5.5,0,0,1-604.613,262.869Z"/><path d="M-635.363,245.063a.5.5,0,0,1-.5-.5v-12.2a.5.5,0,0,1,.5-.5.5.5,0,0,1,.5.5v12.2A.5.5,0,0,1-635.363,245.063Z"/><path d="M-630.241,257.259a.5.5,0,0,1-.5-.5V232.369a.5.5,0,0,1,.5-.5.5.5,0,0,1,.5.5V256.76A.5.5,0,0,1-630.241,257.259Z"/><path d="M-640.49,245.063a.5.5,0,0,1-.5-.5v-12.2a.5.5,0,0,1,.5-.5.5.5,0,0,1,.5.5v12.2A.5.5,0,0,1-640.49,245.063Z"/><path d="M-645.617,245.063a.5.5,0,0,1-.5-.5v-12.2a.5.5,0,0,1,.5-.5.5.5,0,0,1,.5.5v12.2A.5.5,0,0,1-645.617,245.063Z"/><path d="M-650.734,245.063a.5.5,0,0,1-.5-.5v-12.2a.5.5,0,0,1,.5-.5.5.5,0,0,1,.5.5v12.2A.5.5,0,0,1-650.734,245.063Z"/><path d="M-609.741,245.063a.5.5,0,0,1-.5-.5v-12.2a.5.5,0,0,1,.5-.5.5.5,0,0,1,.5.5v12.2A.5.5,0,0,1-609.741,245.063Z"/><path d="M-614.866,245.063a.5.5,0,0,1-.5-.5v-12.2a.5.5,0,0,1,.5-.5.5.5,0,0,1,.5.5v12.2A.5.5,0,0,1-614.866,245.063Z"/><path d="M-619.993,245.063a.5.5,0,0,1-.5-.5v-12.2a.5.5,0,0,1,.5-.5.5.5,0,0,1,.5.5v12.2A.5.5,0,0,1-619.993,245.063Z"/><path d="M-625.11,245.063a.5.5,0,0,1-.5-.5v-12.2a.5.5,0,0,1,.5-.5.5.5,0,0,1,.5.5v12.2A.5.5,0,0,1-625.11,245.063Z"/><path d="M-553.366,262.869a.5.5,0,0,1-.5-.5v-30a.5.5,0,0,1,.5-.5.5.5,0,0,1,.5.5v30A.5.5,0,0,1-553.366,262.869Z"/><path d="M-584.116,245.063a.5.5,0,0,1-.5-.5v-12.2a.5.5,0,0,1,.5-.5.5.5,0,0,1,.5.5v12.2A.5.5,0,0,1-584.116,245.063Z"/><path d="M-578.989,257.259a.5.5,0,0,1-.5-.5V232.369a.5.5,0,0,1,.5-.5.5.5,0,0,1,.5.5V256.76A.5.5,0,0,1-578.989,257.259Z"/><path d="M-589.241,245.063a.5.5,0,0,1-.5-.5v-12.2a.5.5,0,0,1,.5-.5.5.5,0,0,1,.5.5v12.2A.5.5,0,0,1-589.241,245.063Z"/><path d="M-594.369,245.063a.5.5,0,0,1-.5-.5v-12.2a.5.5,0,0,1,.5-.5.5.5,0,0,1,.5.5v12.2A.5.5,0,0,1-594.369,245.063Z"/><path d="M-599.486,245.063a.5.5,0,0,1-.5-.5v-12.2a.5.5,0,0,1,.5-.5.5.5,0,0,1,.5.5v12.2A.5.5,0,0,1-599.486,245.063Z"/><path d="M-558.492,245.063a.5.5,0,0,1-.5-.5v-12.2a.5.5,0,0,1,.5-.5.5.5,0,0,1,.5.5v12.2A.5.5,0,0,1-558.492,245.063Z"/><path d="M-563.619,245.063a.5.5,0,0,1-.5-.5v-12.2a.5.5,0,0,1,.5-.5.5.5,0,0,1,.5.5v12.2A.5.5,0,0,1-563.619,245.063Z"/><path d="M-568.741,245.063a.5.5,0,0,1-.5-.5v-12.2a.5.5,0,0,1,.5-.5.5.5,0,0,1,.5.5v12.2A.5.5,0,0,1-568.741,245.063Z"/><path d="M-573.863,245.063a.5.5,0,0,1-.5-.5v-12.2a.5.5,0,0,1,.5-.5.5.5,0,0,1,.5.5v12.2A.5.5,0,0,1-573.863,245.063Z"/><path d="M-502.119,262.869a.5.5,0,0,1-.5-.5v-30a.5.5,0,0,1,.5-.5.5.5,0,0,1,.5.5v30A.5.5,0,0,1-502.119,262.869Z"/><path d="M-532.869,245.063a.5.5,0,0,1-.5-.5v-12.2a.5.5,0,0,1,.5-.5.5.5,0,0,1,.5.5v12.2A.5.5,0,0,1-532.869,245.063Z"/><path d="M-527.741,257.259a.5.5,0,0,1-.5-.5V232.369a.5.5,0,0,1,.5-.5.5.5,0,0,1,.5.5V256.76A.5.5,0,0,1-527.741,257.259Z"/><path d="M-538,245.063a.5.5,0,0,1-.5-.5v-12.2a.5.5,0,0,1,.5-.5.5.5,0,0,1,.5.5v12.2A.5.5,0,0,1-538,245.063Z"/><path d="M-543.122,245.063a.5.5,0,0,1-.5-.5v-12.2a.5.5,0,0,1,.5-.5.5.5,0,0,1,.5.5v12.2A.5.5,0,0,1-543.122,245.063Z"/><path d="M-548.249,245.063a.5.5,0,0,1-.5-.5v-12.2a.5.5,0,0,1,.5-.5.5.5,0,0,1,.5.5v12.2A.5.5,0,0,1-548.249,245.063Z"/><path d="M-507.241,245.063a.5.5,0,0,1-.5-.5v-12.2a.5.5,0,0,1,.5-.5.5.5,0,0,1,.5.5v12.2A.5.5,0,0,1-507.241,245.063Z"/><path d="M-512.372,245.063a.5.5,0,0,1-.5-.5v-12.2a.5.5,0,0,1,.5-.5.5.5,0,0,1,.5.5v12.2A.5.5,0,0,1-512.372,245.063Z"/><path d="M-517.5,245.063a.5.5,0,0,1-.5-.5v-12.2a.5.5,0,0,1,.5-.5.5.5,0,0,1,.5.5v12.2A.5.5,0,0,1-517.5,245.063Z"/><path d="M-522.626,245.063a.5.5,0,0,1-.5-.5v-12.2a.5.5,0,0,1,.5-.5.5.5,0,0,1,.5.5v12.2A.5.5,0,0,1-522.626,245.063Z"/><path d="M-450.871,262.869a.5.5,0,0,1-.5-.5v-30a.5.5,0,0,1,.5-.5.5.5,0,0,1,.5.5v30A.5.5,0,0,1-450.871,262.869Z"/><path d="M-481.622,245.063a.5.5,0,0,1-.5-.5v-12.2a.5.5,0,0,1,.5-.5.5.5,0,0,1,.5.5v12.2A.5.5,0,0,1-481.622,245.063Z"/><path d="M-476.495,257.259a.5.5,0,0,1-.5-.5V232.369a.5.5,0,0,1,.5-.5.5.5,0,0,1,.5.5V256.76A.5.5,0,0,1-476.495,257.259Z"/><path d="M-486.749,245.063a.5.5,0,0,1-.5-.5v-12.2a.5.5,0,0,1,.5-.5.5.5,0,0,1,.5.5v12.2A.5.5,0,0,1-486.749,245.063Z"/><path d="M-491.875,245.063a.5.5,0,0,1-.5-.5v-12.2a.5.5,0,0,1,.5-.5.5.5,0,0,1,.5.5v12.2A.5.5,0,0,1-491.875,245.063Z"/><path d="M-497,245.063a.5.5,0,0,1-.5-.5v-12.2a.5.5,0,0,1,.5-.5.5.5,0,0,1,.5.5v12.2A.5.5,0,0,1-497,245.063Z"/><path d="M-456,245.063a.5.5,0,0,1-.5-.5v-12.2a.5.5,0,0,1,.5-.5.5.5,0,0,1,.5.5v12.2A.5.5,0,0,1-456,245.063Z"/><path d="M-461.125,245.063a.5.5,0,0,1-.5-.5v-12.2a.5.5,0,0,1,.5-.5.5.5,0,0,1,.5.5v12.2A.5.5,0,0,1-461.125,245.063Z"/><path d="M-466.252,245.063a.5.5,0,0,1-.5-.5v-12.2a.5.5,0,0,1,.5-.5.5.5,0,0,1,.5.5v12.2A.5.5,0,0,1-466.252,245.063Z"/><path d="M-471.378,245.063a.5.5,0,0,1-.5-.5v-12.2a.5.5,0,0,1,.5-.5.5.5,0,0,1,.5.5v12.2A.5.5,0,0,1-471.378,245.063Z"/><path d="M-399.624,262.869a.5.5,0,0,1-.5-.5v-30a.5.5,0,0,1,.5-.5.5.5,0,0,1,.5.5v30A.5.5,0,0,1-399.624,262.869Z"/><path d="M-430.375,245.063a.5.5,0,0,1-.5-.5v-12.2a.5.5,0,0,1,.5-.5.5.5,0,0,1,.5.5v12.2A.5.5,0,0,1-430.375,245.063Z"/><path d="M-425.248,257.259a.5.5,0,0,1-.5-.5V232.369a.5.5,0,0,1,.5-.5.5.5,0,0,1,.5.5V256.76A.5.5,0,0,1-425.248,257.259Z"/><path d="M-435.5,245.063a.5.5,0,0,1-.5-.5v-12.2a.5.5,0,0,1,.5-.5.5.5,0,0,1,.5.5v12.2A.5.5,0,0,1-435.5,245.063Z"/><path d="M-440.628,245.063a.5.5,0,0,1-.5-.5v-12.2a.5.5,0,0,1,.5-.5.5.5,0,0,1,.5.5v12.2A.5.5,0,0,1-440.628,245.063Z"/><path d="M-445.755,245.063a.5.5,0,0,1-.5-.5v-12.2a.5.5,0,0,1,.5-.5.5.5,0,0,1,.5.5v12.2A.5.5,0,0,1-445.755,245.063Z"/><path d="M-404.751,245.063a.5.5,0,0,1-.5-.5v-12.2a.5.5,0,0,1,.5-.5.5.5,0,0,1,.5.5v12.2A.5.5,0,0,1-404.751,245.063Z"/><path d="M-409.878,245.063a.5.5,0,0,1-.5-.5v-12.2a.5.5,0,0,1,.5-.5.5.5,0,0,1,.5.5v12.2A.5.5,0,0,1-409.878,245.063Z"/><path d="M-415,245.063a.5.5,0,0,1-.5-.5v-12.2a.5.5,0,0,1,.5-.5.5.5,0,0,1,.5.5v12.2A.5.5,0,0,1-415,245.063Z"/><path d="M-420.131,245.063a.5.5,0,0,1-.5-.5v-12.2a.5.5,0,0,1,.5-.5.5.5,0,0,1,.5.5v12.2A.5.5,0,0,1-420.131,245.063Z"/><path d="M-348.387,262.869a.5.5,0,0,1-.5-.5v-30a.5.5,0,0,1,.5-.5.5.5,0,0,1,.5.5v30A.5.5,0,0,1-348.387,262.869Z"/><path d="M-379.127,245.063a.5.5,0,0,1-.5-.5v-12.2a.5.5,0,0,1,.5-.5.5.5,0,0,1,.5.5v12.2A.5.5,0,0,1-379.127,245.063Z"/><path d="M-374.011,257.259a.5.5,0,0,1-.5-.5V232.369a.5.5,0,0,1,.5-.5.5.5,0,0,1,.5.5V256.76A.5.5,0,0,1-374.011,257.259Z"/><path d="M-384.254,245.063a.5.5,0,0,1-.5-.5v-12.2a.5.5,0,0,1,.5-.5.5.5,0,0,1,.5.5v12.2A.5.5,0,0,1-384.254,245.063Z"/><path d="M-389.381,245.063a.5.5,0,0,1-.5-.5v-12.2a.5.5,0,0,1,.5-.5.5.5,0,0,1,.5.5v12.2A.5.5,0,0,1-389.381,245.063Z"/><path d="M-394.508,245.063a.5.5,0,0,1-.5-.5v-12.2a.5.5,0,0,1,.5-.5.5.5,0,0,1,.5.5v12.2A.5.5,0,0,1-394.508,245.063Z"/><path d="M-353.5,245.063a.5.5,0,0,1-.5-.5v-12.2a.5.5,0,0,1,.5-.5.5.5,0,0,1,.5.5v12.2A.5.5,0,0,1-353.5,245.063Z"/><path d="M-358.63,245.063a.5.5,0,0,1-.5-.5v-12.2a.5.5,0,0,1,.5-.5.5.5,0,0,1,.5.5v12.2A.5.5,0,0,1-358.63,245.063Z"/><path d="M-363.757,245.063a.5.5,0,0,1-.5-.5v-12.2a.5.5,0,0,1,.5-.5.5.5,0,0,1,.5.5v12.2A.5.5,0,0,1-363.757,245.063Z"/><path d="M-368.884,245.063a.5.5,0,0,1-.5-.5v-12.2a.5.5,0,0,1,.5-.5.5.5,0,0,1,.5.5v12.2A.5.5,0,0,1-368.884,245.063Z"/><path d="M-297.141,262.869a.5.5,0,0,1-.5-.5v-30a.5.5,0,0,1,.5-.5.5.5,0,0,1,.5.5v30A.5.5,0,0,1-297.141,262.869Z"/><path d="M-327.88,245.063a.5.5,0,0,1-.5-.5v-12.2a.5.5,0,0,1,.5-.5.5.5,0,0,1,.5.5v12.2A.5.5,0,0,1-327.88,245.063Z"/><path d="M-322.763,257.259a.5.5,0,0,1-.5-.5V232.369a.5.5,0,0,1,.5-.5.5.5,0,0,1,.5.5V256.76A.5.5,0,0,1-322.763,257.259Z"/><path d="M-333.007,245.063a.5.5,0,0,1-.5-.5v-12.2a.5.5,0,0,1,.5-.5.5.5,0,0,1,.5.5v12.2A.5.5,0,0,1-333.007,245.063Z"/><path d="M-338.134,245.063a.5.5,0,0,1-.5-.5v-12.2a.5.5,0,0,1,.5-.5.5.5,0,0,1,.5.5v12.2A.5.5,0,0,1-338.134,245.063Z"/><path d="M-343.26,245.063a.5.5,0,0,1-.5-.5v-12.2a.5.5,0,0,1,.5-.5.5.5,0,0,1,.5.5v12.2A.5.5,0,0,1-343.26,245.063Z"/><path d="M-302.257,245.063a.5.5,0,0,1-.5-.5v-12.2a.5.5,0,0,1,.5-.5.5.5,0,0,1,.5.5v12.2A.5.5,0,0,1-302.257,245.063Z"/><path d="M-307.383,245.063a.5.5,0,0,1-.5-.5v-12.2a.5.5,0,0,1,.5-.5.5.5,0,0,1,.5.5v12.2A.5.5,0,0,1-307.383,245.063Z"/><path d="M-312.51,245.063a.5.5,0,0,1-.5-.5v-12.2a.5.5,0,0,1,.5-.5.5.5,0,0,1,.5.5v12.2A.5.5,0,0,1-312.51,245.063Z"/><path d="M-317.641,245.063a.5.5,0,0,1-.5-.5v-12.2a.5.5,0,0,1,.5-.5.5.5,0,0,1,.5.5v12.2A.5.5,0,0,1-317.641,245.063Z"/><path d="M-245.893,262.869a.5.5,0,0,1-.5-.5v-30a.5.5,0,0,1,.5-.5.5.5,0,0,1,.5.5v30A.5.5,0,0,1-245.893,262.869Z"/><path d="M-276.633,245.063a.5.5,0,0,1-.5-.5v-12.2a.5.5,0,0,1,.5-.5.5.5,0,0,1,.5.5v12.2A.5.5,0,0,1-276.633,245.063Z"/><path d="M-271.516,257.259a.5.5,0,0,1-.5-.5V232.369a.5.5,0,0,1,.5-.5.5.5,0,0,1,.5.5V256.76A.5.5,0,0,1-271.516,257.259Z"/><path d="M-281.76,245.063a.5.5,0,0,1-.5-.5v-12.2a.5.5,0,0,1,.5-.5.5.5,0,0,1,.5.5v12.2A.5.5,0,0,1-281.76,245.063Z"/><path d="M-286.886,245.063a.5.5,0,0,1-.5-.5v-12.2a.5.5,0,0,1,.5-.5.5.5,0,0,1,.5.5v12.2A.5.5,0,0,1-286.886,245.063Z"/><path d="M-292.013,245.063a.5.5,0,0,1-.5-.5v-12.2a.5.5,0,0,1,.5-.5.5.5,0,0,1,.5.5v12.2A.5.5,0,0,1-292.013,245.063Z"/><path d="M-251.01,245.063a.5.5,0,0,1-.5-.5v-12.2a.5.5,0,0,1,.5-.5.5.5,0,0,1,.5.5v12.2A.5.5,0,0,1-251.01,245.063Z"/><path d="M-256.141,245.063a.5.5,0,0,1-.5-.5v-12.2a.5.5,0,0,1,.5-.5.5.5,0,0,1,.5.5v12.2A.5.5,0,0,1-256.141,245.063Z"/><path d="M-261.263,245.063a.5.5,0,0,1-.5-.5v-12.2a.5.5,0,0,1,.5-.5.5.5,0,0,1,.5.5v12.2A.5.5,0,0,1-261.263,245.063Z"/><path d="M-266.39,245.063a.5.5,0,0,1-.5-.5v-12.2a.5.5,0,0,1,.5-.5.5.5,0,0,1,.5.5v12.2A.5.5,0,0,1-266.39,245.063Z"/><path d="M-194.641,262.869a.5.5,0,0,1-.5-.5v-30a.5.5,0,0,1,.5-.5.5.5,0,0,1,.5.5v30A.5.5,0,0,1-194.641,262.869Z"/><path d="M-225.386,245.063a.5.5,0,0,1-.5-.5v-12.2a.5.5,0,0,1,.5-.5.5.5,0,0,1,.5.5v12.2A.5.5,0,0,1-225.386,245.063Z"/><path d="M-220.269,257.259a.5.5,0,0,1-.5-.5V232.369a.5.5,0,0,1,.5-.5.5.5,0,0,1,.5.5V256.76A.5.5,0,0,1-220.269,257.259Z"/><path d="M-230.513,245.063a.5.5,0,0,1-.5-.5v-12.2a.5.5,0,0,1,.5-.5.5.5,0,0,1,.5.5v12.2A.5.5,0,0,1-230.513,245.063Z"/><path d="M-235.641,245.063a.5.5,0,0,1-.5-.5v-12.2a.5.5,0,0,1,.5-.5.5.5,0,0,1,.5.5v12.2A.5.5,0,0,1-235.641,245.063Z"/><path d="M-240.766,245.063a.5.5,0,0,1-.5-.5v-12.2a.5.5,0,0,1,.5-.5.5.5,0,0,1,.5.5v12.2A.5.5,0,0,1-240.766,245.063Z"/><path d="M-199.772,245.063a.5.5,0,0,1-.5-.5v-12.2a.5.5,0,0,1,.5-.5.5.5,0,0,1,.5.5v12.2A.5.5,0,0,1-199.772,245.063Z"/><path d="M-204.889,245.063a.5.5,0,0,1-.5-.5v-12.2a.5.5,0,0,1,.5-.5.5.5,0,0,1,.5.5v12.2A.5.5,0,0,1-204.889,245.063Z"/><path d="M-210.016,245.063a.5.5,0,0,1-.5-.5v-12.2a.5.5,0,0,1,.5-.5.5.5,0,0,1,.5.5v12.2A.5.5,0,0,1-210.016,245.063Z"/><path d="M-215.141,245.063a.5.5,0,0,1-.5-.5v-12.2a.5.5,0,0,1,.5-.5.5.5,0,0,1,.5.5v12.2A.5.5,0,0,1-215.141,245.063Z"/><path d="M-174.149,244.564v-12.2" fill="none" stroke="#000" stroke-linecap="round" stroke-linejoin="bevel" stroke-width="0.999"/><path d="M-179.265,244.564v-12.2" fill="none" stroke="#000" stroke-linecap="round" stroke-linejoin="bevel" stroke-width="0.999"/><path d="M-184.392,244.564v-12.2" fill="none" stroke="#000" stroke-linecap="round" stroke-linejoin="bevel" stroke-width="0.999"/><path d="M-189.519,244.564v-12.2" fill="none" stroke="#000" stroke-linecap="round" stroke-linejoin="bevel" stroke-width="0.999"/><path d="M-1680.043,284.412h-1.231v-7.841a6.389,6.389,0,0,1-1.166.848,8.275,8.275,0,0,1-1.3.636v-1.19a7.449,7.449,0,0,0,1.8-1.176,4.629,4.629,0,0,0,1.094-1.34h.793Z"/><path d="M-1625.964,283.229v1.183h-6.624a2.184,2.184,0,0,1,.143-.854,4.527,4.527,0,0,1,.81-1.333,12.634,12.634,0,0,1,1.61-1.518,13.638,13.638,0,0,0,2.213-2.123,2.547,2.547,0,0,0,.574-1.48,1.641,1.641,0,0,0-.523-1.234,1.888,1.888,0,0,0-1.364-.5,1.924,1.924,0,0,0-1.422.533,2.02,2.02,0,0,0-.54,1.477l-1.269-.132a3.11,3.11,0,0,1,.978-2.157,3.333,3.333,0,0,1,2.276-.742,3.178,3.178,0,0,1,2.283.8,2.626,2.626,0,0,1,.841,1.983,3.012,3.012,0,0,1-.246,1.18,4.6,4.6,0,0,1-.817,1.224,19.807,19.807,0,0,1-1.9,1.764q-1.107.93-1.422,1.261a4.046,4.046,0,0,0-.52.667Z"/><path d="M-1581.177,281.766l1.23-.164a2.709,2.709,0,0,0,.722,1.51,1.782,1.782,0,0,0,1.24.459,1.989,1.989,0,0,0,1.466-.6,2.033,2.033,0,0,0,.6-1.49,1.89,1.89,0,0,0-.554-1.4,1.911,1.911,0,0,0-1.408-.55,3.493,3.493,0,0,0-.868.137l.137-1.08a1.9,1.9,0,0,0,.2.014,2.537,2.537,0,0,0,1.415-.41,1.4,1.4,0,0,0,.629-1.265,1.5,1.5,0,0,0-.458-1.121,1.631,1.631,0,0,0-1.183-.444,1.675,1.675,0,0,0-1.2.451,2.262,2.262,0,0,0-.615,1.354l-1.23-.22a3.158,3.158,0,0,1,1.025-1.917,2.964,2.964,0,0,1,1.989-.68,3.276,3.276,0,0,1,1.511.352,2.548,2.548,0,0,1,1.056.96,2.465,2.465,0,0,1,.366,1.292,2.115,2.115,0,0,1-.348,1.183,2.38,2.38,0,0,1-1.032.848,2.329,2.329,0,0,1,1.381.851,2.592,2.592,0,0,1,.491,1.616,2.959,2.959,0,0,1-.957,2.225,3.369,3.369,0,0,1-2.42.913,3.149,3.149,0,0,1-2.19-.786A3.04,3.04,0,0,1-1581.177,281.766Z"/><path d="M-1525.993,284.412v-2.4h-4.347v-1.127l4.573-6.494h1v6.494h1.358v1.127h-1.353v2.4Zm0-3.527v-4.519l-3.137,4.519Z"/><path d="M-1478.689,281.787l1.292-.109a2.319,2.319,0,0,0,.667,1.418,1.809,1.809,0,0,0,1.26.475,1.962,1.962,0,0,0,1.5-.67,2.525,2.525,0,0,0,.62-1.777,2.285,2.285,0,0,0-.591-1.661,2.059,2.059,0,0,0-1.549-.609,2.152,2.152,0,0,0-1.073.27,2.086,2.086,0,0,0-.752.7l-1.155-.149.971-5.147h4.983V275.7h-4l-.54,2.693a3.266,3.266,0,0,1,1.894-.629,3,3,0,0,1,2.215.909,3.178,3.178,0,0,1,.9,2.338,3.652,3.652,0,0,1-.793,2.352,3.178,3.178,0,0,1-2.63,1.216,3.243,3.243,0,0,1-2.231-.766A2.987,2.987,0,0,1-1478.689,281.787Z"/><path d="M-1421.059,276.845l-1.224.1a2.315,2.315,0,0,0-.465-1.053,1.627,1.627,0,0,0-1.23-.526,1.686,1.686,0,0,0-1.032.328,2.8,2.8,0,0,0-.915,1.233,6.452,6.452,0,0,0-.35,2.317,2.85,2.85,0,0,1,1.087-1,2.926,2.926,0,0,1,1.347-.332,2.791,2.791,0,0,1,2.1.906,3.255,3.255,0,0,1,.865,2.341,3.854,3.854,0,0,1-.412,1.753,2.964,2.964,0,0,1-1.118,1.24,3.051,3.051,0,0,1-1.613.431,3.151,3.151,0,0,1-2.506-1.131,5.714,5.714,0,0,1-.974-3.729,6.686,6.686,0,0,1,1.074-4.225,3.084,3.084,0,0,1,2.522-1.148,2.83,2.83,0,0,1,1.938.662A2.818,2.818,0,0,1-1421.059,276.845Zm-5.025,4.32a2.843,2.843,0,0,0,.27,1.217,2.012,2.012,0,0,0,.755.885,1.9,1.9,0,0,0,1.019.3,1.737,1.737,0,0,0,1.34-.629,2.473,2.473,0,0,0,.561-1.709,2.317,2.317,0,0,0-.554-1.637,1.818,1.818,0,0,0-1.4-.6,1.9,1.9,0,0,0-1.415.6A2.154,2.154,0,0,0-1426.084,281.165Z"/><path d="M-1377.116,275.7V274.52h6.487v.957a13.63,13.63,0,0,0-1.9,2.707,16.493,16.493,0,0,0-1.45,3.473,12.937,12.937,0,0,0-.471,2.755h-1.265a12.3,12.3,0,0,1,.465-2.857,15.007,15.007,0,0,1,1.271-3.23,13.8,13.8,0,0,1,1.771-2.622Z"/><path d="M-1323.057,278.977a2.319,2.319,0,0,1-1.135-.8,2.091,2.091,0,0,1-.369-1.244,2.431,2.431,0,0,1,.786-1.839,2.916,2.916,0,0,1,2.092-.745,2.935,2.935,0,0,1,2.112.763,2.467,2.467,0,0,1,.8,1.856,2.043,2.043,0,0,1-.361,1.213,2.306,2.306,0,0,1-1.111.8,2.694,2.694,0,0,1,1.4.971,2.666,2.666,0,0,1,.482,1.6,2.883,2.883,0,0,1-.909,2.16,3.306,3.306,0,0,1-2.393.871,3.3,3.3,0,0,1-2.392-.879,2.92,2.92,0,0,1-.91-2.192,2.65,2.65,0,0,1,.5-1.637A2.482,2.482,0,0,1-1323.057,278.977Zm-.246-2.085a1.56,1.56,0,0,0,.458,1.162,1.62,1.62,0,0,0,1.189.451,1.591,1.591,0,0,0,1.166-.448,1.48,1.48,0,0,0,.455-1.1,1.535,1.535,0,0,0-.468-1.138,1.592,1.592,0,0,0-1.166-.461,1.613,1.613,0,0,0-1.17.454A1.449,1.449,0,0,0-1323.3,276.892Zm-.4,4.628a2.231,2.231,0,0,0,.25,1.019,1.766,1.766,0,0,0,.742.762,2.168,2.168,0,0,0,1.06.27,1.987,1.987,0,0,0,1.456-.567,1.945,1.945,0,0,0,.574-1.442,1.972,1.972,0,0,0-.591-1.47,2.026,2.026,0,0,0-1.478-.58,1.945,1.945,0,0,0-1.442.573,1.953,1.953,0,0,0-.568,1.435Z"/><path d="M-1273.52,282.1l1.183-.109a2.057,2.057,0,0,0,.574,1.21,1.575,1.575,0,0,0,1.087.376,1.872,1.872,0,0,0,.99-.26,2.13,2.13,0,0,0,.7-.694,4.1,4.1,0,0,0,.458-1.172,6.172,6.172,0,0,0,.185-1.5c0-.055,0-.137-.007-.246a2.819,2.819,0,0,1-1.008.954,2.746,2.746,0,0,1-1.38.358,2.8,2.8,0,0,1-2.1-.9,3.3,3.3,0,0,1-.862-2.379,3.38,3.38,0,0,1,.9-2.454,3,3,0,0,1,2.252-.93,3.215,3.215,0,0,1,1.788.526,3.294,3.294,0,0,1,1.23,1.5,7.394,7.394,0,0,1,.42,2.82,9.113,9.113,0,0,1-.417,3.059,3.583,3.583,0,0,1-1.241,1.734,3.209,3.209,0,0,1-1.931.6,2.812,2.812,0,0,1-1.921-.653A2.807,2.807,0,0,1-1273.52,282.1Zm5.034-4.423a2.406,2.406,0,0,0-.56-1.682,1.766,1.766,0,0,0-1.357-.622,1.872,1.872,0,0,0-1.429.67,2.48,2.48,0,0,0-.608,1.736,2.141,2.141,0,0,0,.578,1.555,1.9,1.9,0,0,0,1.425.6,1.822,1.822,0,0,0,1.4-.6A2.359,2.359,0,0,0-1268.486,277.672Z"/><path d="M-1222.511,284.412h-1.231v-7.841a6.394,6.394,0,0,1-1.166.848,8.275,8.275,0,0,1-1.3.636v-1.19a7.447,7.447,0,0,0,1.8-1.176,4.627,4.627,0,0,0,1.094-1.34h.793Zm3.151-4.942a9.174,9.174,0,0,1,.366-2.858,3.554,3.554,0,0,1,1.087-1.675,2.78,2.78,0,0,1,1.815-.588,2.959,2.959,0,0,1,1.415.325,2.7,2.7,0,0,1,1,.937,5.041,5.041,0,0,1,.622,1.49,9.925,9.925,0,0,1,.228,2.369,9.193,9.193,0,0,1-.36,2.842,3.558,3.558,0,0,1-1.083,1.68,2.778,2.778,0,0,1-1.822.591,2.749,2.749,0,0,1-2.277-1.039A6.6,6.6,0,0,1-1219.36,279.47Zm1.265,0a6.282,6.282,0,0,0,.578,3.285,1.7,1.7,0,0,0,1.425.817,1.7,1.7,0,0,0,1.425-.82,6.288,6.288,0,0,0,.578-3.281,6.288,6.288,0,0,0-.578-3.289,1.715,1.715,0,0,0-1.439-.813,1.578,1.578,0,0,0-1.354.718A6.349,6.349,0,0,0-1218.095,279.47Z"/><path d="M-1170.264,284.412h-1.231v-7.841a6.386,6.386,0,0,1-1.166.848,8.269,8.269,0,0,1-1.3.636v-1.19a7.447,7.447,0,0,0,1.8-1.176,4.625,4.625,0,0,0,1.094-1.34h.793Zm6.747,0h-1.23v-7.841a6.394,6.394,0,0,1-1.166.848,8.275,8.275,0,0,1-1.3.636v-1.19a7.447,7.447,0,0,0,1.8-1.176,4.627,4.627,0,0,0,1.094-1.34h.793Z"/><path d="M-1120.017,284.412h-1.231v-7.841a6.389,6.389,0,0,1-1.166.848,8.275,8.275,0,0,1-1.3.636v-1.19a7.449,7.449,0,0,0,1.8-1.176,4.629,4.629,0,0,0,1.094-1.34h.793Zm9.618-1.183v1.183h-6.624a2.167,2.167,0,0,1,.144-.854,4.53,4.53,0,0,1,.81-1.333,12.634,12.634,0,0,1,1.61-1.518,13.694,13.694,0,0,0,2.208-2.123,2.548,2.548,0,0,0,.574-1.48,1.642,1.642,0,0,0-.523-1.234,1.888,1.888,0,0,0-1.364-.5,1.924,1.924,0,0,0-1.422.533,2.02,2.02,0,0,0-.54,1.477l-1.265-.13a3.11,3.11,0,0,1,.978-2.159,3.333,3.333,0,0,1,2.276-.742,3.177,3.177,0,0,1,2.283.8,2.626,2.626,0,0,1,.841,1.983,3.014,3.014,0,0,1-.246,1.18,4.6,4.6,0,0,1-.817,1.224,19.807,19.807,0,0,1-1.9,1.764q-1.107.93-1.422,1.261a4.04,4.04,0,0,0-.52.667Z"/><path d="M-1068.77,284.412H-1070v-7.841a6.39,6.39,0,0,1-1.166.848,8.275,8.275,0,0,1-1.3.636v-1.19a7.447,7.447,0,0,0,1.8-1.176,4.625,4.625,0,0,0,1.094-1.34h.793Zm3.158-2.646,1.226-.164a2.71,2.71,0,0,0,.726,1.51,1.784,1.784,0,0,0,1.241.461,1.989,1.989,0,0,0,1.466-.6,2.033,2.033,0,0,0,.6-1.49,1.89,1.89,0,0,0-.554-1.4,1.912,1.912,0,0,0-1.408-.55,3.493,3.493,0,0,0-.868.137l.137-1.08a1.906,1.906,0,0,0,.2.014,2.537,2.537,0,0,0,1.415-.41,1.4,1.4,0,0,0,.629-1.265,1.5,1.5,0,0,0-.458-1.121,1.631,1.631,0,0,0-1.183-.444,1.675,1.675,0,0,0-1.2.451,2.262,2.262,0,0,0-.615,1.354l-1.228-.222a3.164,3.164,0,0,1,1.022-1.917,2.964,2.964,0,0,1,1.989-.68,3.277,3.277,0,0,1,1.511.352,2.549,2.549,0,0,1,1.056.96,2.465,2.465,0,0,1,.366,1.292,2.122,2.122,0,0,1-.344,1.183,2.379,2.379,0,0,1-1.032.848,2.329,2.329,0,0,1,1.381.851,2.594,2.594,0,0,1,.492,1.617,2.959,2.959,0,0,1-.957,2.225,3.369,3.369,0,0,1-2.42.913,3.147,3.147,0,0,1-2.195-.787A3.041,3.041,0,0,1-1065.612,281.766Z"/><path d="M-1017.523,284.412h-1.231v-7.841a6.388,6.388,0,0,1-1.166.848,8.274,8.274,0,0,1-1.3.636v-1.19a7.447,7.447,0,0,0,1.8-1.176,4.627,4.627,0,0,0,1.094-1.34h.793Zm7.1,0v-2.4h-4.352v-1.127l4.573-6.494h1v6.494h1.363v1.127h-1.358v2.4Zm0-3.527v-4.519l-3.142,4.519Z"/><path d="M-966.276,284.412h-1.231v-7.841a6.39,6.39,0,0,1-1.166.848,8.272,8.272,0,0,1-1.3.636v-1.19a7.447,7.447,0,0,0,1.8-1.176,4.627,4.627,0,0,0,1.094-1.34h.793Zm3.151-2.625,1.292-.109a2.319,2.319,0,0,0,.667,1.418,1.807,1.807,0,0,0,1.261.475,1.961,1.961,0,0,0,1.5-.67,2.528,2.528,0,0,0,.615-1.777,2.285,2.285,0,0,0-.591-1.661,2.062,2.062,0,0,0-1.548-.608,2.152,2.152,0,0,0-1.073.27,2.087,2.087,0,0,0-.752.7l-1.155-.15.971-5.147h4.986V275.7h-4l-.54,2.692a3.266,3.266,0,0,1,1.894-.629,3,3,0,0,1,2.215.909,3.179,3.179,0,0,1,.9,2.338,3.652,3.652,0,0,1-.793,2.352,3.177,3.177,0,0,1-2.629,1.217,3.24,3.24,0,0,1-2.232-.766A2.987,2.987,0,0,1-963.125,281.787Z"/><path d="M-915.029,284.412h-1.231v-7.841a6.388,6.388,0,0,1-1.166.848,8.274,8.274,0,0,1-1.3.636v-1.19a7.446,7.446,0,0,0,1.8-1.176,4.626,4.626,0,0,0,1.094-1.34h.793Zm9.536-7.567-1.224.1a2.315,2.315,0,0,0-.465-1.053,1.627,1.627,0,0,0-1.23-.526,1.686,1.686,0,0,0-1.032.328,2.8,2.8,0,0,0-.916,1.237,6.45,6.45,0,0,0-.349,2.317,2.849,2.849,0,0,1,1.087-1,2.912,2.912,0,0,1,1.347-.336,2.791,2.791,0,0,1,2.1.906,3.251,3.251,0,0,1,.865,2.341,3.853,3.853,0,0,1-.412,1.753,2.963,2.963,0,0,1-1.118,1.24,3.051,3.051,0,0,1-1.613.431,3.154,3.154,0,0,1-2.509-1.131,5.711,5.711,0,0,1-.971-3.729,6.686,6.686,0,0,1,1.074-4.225,3.084,3.084,0,0,1,2.522-1.148,2.831,2.831,0,0,1,1.938.663A2.815,2.815,0,0,1-905.493,276.845Zm-5.024,4.32a2.86,2.86,0,0,0,.272,1.217,2.012,2.012,0,0,0,.755.885,1.9,1.9,0,0,0,1.019.3,1.735,1.735,0,0,0,1.34-.629,2.473,2.473,0,0,0,.561-1.709,2.318,2.318,0,0,0-.554-1.637,1.818,1.818,0,0,0-1.395-.6,1.9,1.9,0,0,0-1.415.6A2.154,2.154,0,0,0-910.517,281.165Z"/><path d="M-863.782,284.412h-1.231v-7.841a6.388,6.388,0,0,1-1.166.848,8.274,8.274,0,0,1-1.3.636v-1.19a7.446,7.446,0,0,0,1.8-1.176,4.625,4.625,0,0,0,1.094-1.34h.793Zm3.233-8.709V274.52h6.487v.957a13.629,13.629,0,0,0-1.9,2.707,16.494,16.494,0,0,0-1.453,3.473,12.929,12.929,0,0,0-.468,2.755h-1.264a12.3,12.3,0,0,1,.465-2.857,14.969,14.969,0,0,1,1.275-3.23,13.854,13.854,0,0,1,1.767-2.622Z"/><path d="M-812.535,284.412h-1.231v-7.841a6.388,6.388,0,0,1-1.166.848,8.274,8.274,0,0,1-1.3.636v-1.19a7.446,7.446,0,0,0,1.8-1.176,4.626,4.626,0,0,0,1.094-1.34h.793Zm5.045-5.435a2.315,2.315,0,0,1-1.135-.8,2.091,2.091,0,0,1-.369-1.244,2.431,2.431,0,0,1,.786-1.839,2.916,2.916,0,0,1,2.092-.745,2.934,2.934,0,0,1,2.112.762,2.47,2.47,0,0,1,.8,1.856,2.05,2.05,0,0,1-.366,1.213,2.305,2.305,0,0,1-1.111.8,2.694,2.694,0,0,1,1.4.971,2.666,2.666,0,0,1,.482,1.6,2.882,2.882,0,0,1-.9,2.161,3.3,3.3,0,0,1-2.393.875,3.3,3.3,0,0,1-2.392-.883,2.919,2.919,0,0,1-.909-2.192,2.65,2.65,0,0,1,.5-1.637A2.479,2.479,0,0,1-807.49,278.977Zm-.246-2.085a1.56,1.56,0,0,0,.458,1.162,1.62,1.62,0,0,0,1.189.451,1.591,1.591,0,0,0,1.166-.448,1.48,1.48,0,0,0,.455-1.1,1.536,1.536,0,0,0-.468-1.138,1.592,1.592,0,0,0-1.166-.461,1.608,1.608,0,0,0-1.169.451A1.452,1.452,0,0,0-807.736,276.892Zm-.4,4.628a2.23,2.23,0,0,0,.25,1.019,1.766,1.766,0,0,0,.742.762,2.168,2.168,0,0,0,1.06.27,1.987,1.987,0,0,0,1.456-.567,1.942,1.942,0,0,0,.577-1.443,1.972,1.972,0,0,0-.591-1.47,2.028,2.028,0,0,0-1.48-.581,1.945,1.945,0,0,0-1.439.574,1.953,1.953,0,0,0-.572,1.436Z"/><path d="M-761.288,284.412h-1.231v-7.841a6.39,6.39,0,0,1-1.166.848,8.274,8.274,0,0,1-1.3.636v-1.19a7.446,7.446,0,0,0,1.8-1.176,4.626,4.626,0,0,0,1.094-1.34h.793Zm3.336-2.317,1.183-.109a2.057,2.057,0,0,0,.574,1.21,1.579,1.579,0,0,0,1.091.375,1.871,1.871,0,0,0,.995-.26,2.13,2.13,0,0,0,.7-.694,4.091,4.091,0,0,0,.458-1.172,6.169,6.169,0,0,0,.185-1.5c0-.055,0-.137-.007-.246a2.819,2.819,0,0,1-1.008.954,2.743,2.743,0,0,1-1.384.366,2.8,2.8,0,0,1-2.105-.9,3.3,3.3,0,0,1-.861-2.379,3.38,3.38,0,0,1,.9-2.454,3,3,0,0,1,2.252-.93,3.216,3.216,0,0,1,1.788.526,3.3,3.3,0,0,1,1.23,1.5,7.393,7.393,0,0,1,.42,2.82,9.113,9.113,0,0,1-.417,3.059,3.581,3.581,0,0,1-1.246,1.727,3.209,3.209,0,0,1-1.931.6,2.8,2.8,0,0,1-1.922-.653A2.807,2.807,0,0,1-757.952,282.1Zm5.038-4.423a2.408,2.408,0,0,0-.564-1.682,1.766,1.766,0,0,0-1.357-.622,1.872,1.872,0,0,0-1.429.67,2.48,2.48,0,0,0-.608,1.736,2.142,2.142,0,0,0,.578,1.555,1.9,1.9,0,0,0,1.425.6,1.822,1.822,0,0,0,1.4-.6A2.36,2.36,0,0,0-752.914,277.672Z"/><path d="M-708.209,283.229v1.183h-6.624a2.184,2.184,0,0,1,.143-.854,4.529,4.529,0,0,1,.81-1.333,12.638,12.638,0,0,1,1.61-1.518,13.64,13.64,0,0,0,2.213-2.123,2.548,2.548,0,0,0,.574-1.48,1.642,1.642,0,0,0-.523-1.234,1.888,1.888,0,0,0-1.364-.5,1.924,1.924,0,0,0-1.422.533,2.02,2.02,0,0,0-.54,1.477l-1.269-.132a3.11,3.11,0,0,1,.978-2.157,3.333,3.333,0,0,1,2.276-.742,3.178,3.178,0,0,1,2.283.8,2.626,2.626,0,0,1,.841,1.983,3.012,3.012,0,0,1-.246,1.18,4.605,4.605,0,0,1-.817,1.224,19.814,19.814,0,0,1-1.9,1.764q-1.107.93-1.422,1.261a4.036,4.036,0,0,0-.52.667Zm1.319-3.76a9.168,9.168,0,0,1,.366-2.857,3.554,3.554,0,0,1,1.087-1.675,2.781,2.781,0,0,1,1.815-.588,2.959,2.959,0,0,1,1.415.325,2.7,2.7,0,0,1,1,.937,5.043,5.043,0,0,1,.622,1.49,9.928,9.928,0,0,1,.228,2.369,9.2,9.2,0,0,1-.36,2.842,3.559,3.559,0,0,1-1.083,1.68,2.778,2.778,0,0,1-1.822.591,2.749,2.749,0,0,1-2.277-1.039,6.6,6.6,0,0,1-.991-4.074Zm1.265,0a6.283,6.283,0,0,0,.578,3.285,1.7,1.7,0,0,0,1.425.817,1.7,1.7,0,0,0,1.425-.82,6.288,6.288,0,0,0,.578-3.281,6.283,6.283,0,0,0-.578-3.288,1.715,1.715,0,0,0-1.439-.813,1.578,1.578,0,0,0-1.354.718,6.349,6.349,0,0,0-.635,3.383Z"/><path d="M-656.962,283.229v1.183h-6.624a2.184,2.184,0,0,1,.143-.854,4.527,4.527,0,0,1,.81-1.333,12.63,12.63,0,0,1,1.61-1.518,13.64,13.64,0,0,0,2.213-2.123,2.547,2.547,0,0,0,.574-1.48,1.642,1.642,0,0,0-.523-1.234,1.888,1.888,0,0,0-1.364-.5,1.924,1.924,0,0,0-1.422.533,2.02,2.02,0,0,0-.54,1.477l-1.269-.132a3.11,3.11,0,0,1,.978-2.157,3.333,3.333,0,0,1,2.276-.742,3.178,3.178,0,0,1,2.283.8,2.626,2.626,0,0,1,.841,1.983,3.013,3.013,0,0,1-.246,1.18,4.605,4.605,0,0,1-.817,1.224,19.807,19.807,0,0,1-1.9,1.764q-1.107.93-1.422,1.261a4.039,4.039,0,0,0-.52.667Zm5.952,1.183h-1.23v-7.841a6.388,6.388,0,0,1-1.166.848,8.274,8.274,0,0,1-1.3.636v-1.19a7.446,7.446,0,0,0,1.8-1.176,4.626,4.626,0,0,0,1.094-1.34h.8Z"/><path d="M-605.715,283.229v1.183h-6.624a2.165,2.165,0,0,1,.143-.854,4.527,4.527,0,0,1,.81-1.333,12.63,12.63,0,0,1,1.61-1.518,13.64,13.64,0,0,0,2.213-2.123,2.547,2.547,0,0,0,.574-1.48,1.641,1.641,0,0,0-.523-1.234,1.888,1.888,0,0,0-1.364-.5,1.924,1.924,0,0,0-1.422.533,2.02,2.02,0,0,0-.54,1.477l-1.269-.132a3.11,3.11,0,0,1,.978-2.157,3.333,3.333,0,0,1,2.276-.742,3.178,3.178,0,0,1,2.283.8,2.626,2.626,0,0,1,.841,1.983,3.014,3.014,0,0,1-.246,1.18,4.605,4.605,0,0,1-.817,1.224,19.807,19.807,0,0,1-1.9,1.764q-1.107.93-1.422,1.261a4.039,4.039,0,0,0-.52.667Zm7.786,0v1.183h-6.624a2.167,2.167,0,0,1,.144-.854,4.529,4.529,0,0,1,.81-1.333,12.638,12.638,0,0,1,1.61-1.518,13.691,13.691,0,0,0,2.208-2.123,2.548,2.548,0,0,0,.574-1.48,1.642,1.642,0,0,0-.523-1.234,1.888,1.888,0,0,0-1.364-.5,1.924,1.924,0,0,0-1.422.533,2.02,2.02,0,0,0-.54,1.477l-1.265-.13a3.11,3.11,0,0,1,.978-2.159,3.333,3.333,0,0,1,2.276-.742,3.178,3.178,0,0,1,2.283.8,2.626,2.626,0,0,1,.841,1.983,3.013,3.013,0,0,1-.246,1.18,4.6,4.6,0,0,1-.817,1.224,19.807,19.807,0,0,1-1.9,1.764q-1.107.93-1.422,1.261a4.043,4.043,0,0,0-.52.667Z"/><path d="M-554.468,283.229v1.183h-6.624a2.184,2.184,0,0,1,.143-.854,4.527,4.527,0,0,1,.81-1.333,12.63,12.63,0,0,1,1.61-1.518,13.64,13.64,0,0,0,2.213-2.123,2.547,2.547,0,0,0,.574-1.48,1.641,1.641,0,0,0-.523-1.234,1.888,1.888,0,0,0-1.364-.5,1.924,1.924,0,0,0-1.422.533,2.02,2.02,0,0,0-.54,1.477l-1.269-.132a3.11,3.11,0,0,1,.978-2.157,3.333,3.333,0,0,1,2.276-.742,3.178,3.178,0,0,1,2.283.8,2.626,2.626,0,0,1,.841,1.983,3.013,3.013,0,0,1-.246,1.18,4.6,4.6,0,0,1-.817,1.224,19.807,19.807,0,0,1-1.9,1.764q-1.107.93-1.422,1.261a4.043,4.043,0,0,0-.52.667Zm1.326-1.463,1.226-.164a2.711,2.711,0,0,0,.726,1.51,1.784,1.784,0,0,0,1.241.461,1.989,1.989,0,0,0,1.466-.6,2.033,2.033,0,0,0,.6-1.49,1.89,1.89,0,0,0-.554-1.4,1.911,1.911,0,0,0-1.408-.55,3.494,3.494,0,0,0-.868.137l.137-1.08a1.9,1.9,0,0,0,.2.014,2.537,2.537,0,0,0,1.415-.41,1.4,1.4,0,0,0,.629-1.265,1.5,1.5,0,0,0-.458-1.121,1.629,1.629,0,0,0-1.183-.444,1.675,1.675,0,0,0-1.2.451,2.262,2.262,0,0,0-.615,1.354l-1.228-.222a3.165,3.165,0,0,1,1.022-1.917,2.964,2.964,0,0,1,1.989-.68,3.273,3.273,0,0,1,1.511.352,2.548,2.548,0,0,1,1.056.96,2.465,2.465,0,0,1,.366,1.292,2.122,2.122,0,0,1-.344,1.183,2.379,2.379,0,0,1-1.032.848,2.329,2.329,0,0,1,1.381.851,2.594,2.594,0,0,1,.492,1.617,2.959,2.959,0,0,1-.957,2.225,3.369,3.369,0,0,1-2.42.913,3.147,3.147,0,0,1-2.195-.787A3.04,3.04,0,0,1-553.142,281.766Z"/><path d="M-503.221,283.229v1.183h-6.624a2.184,2.184,0,0,1,.143-.854,4.529,4.529,0,0,1,.81-1.333,12.634,12.634,0,0,1,1.61-1.518,13.64,13.64,0,0,0,2.213-2.123,2.547,2.547,0,0,0,.574-1.48,1.642,1.642,0,0,0-.523-1.234,1.888,1.888,0,0,0-1.364-.5,1.924,1.924,0,0,0-1.422.533,2.02,2.02,0,0,0-.54,1.477l-1.269-.132a3.11,3.11,0,0,1,.978-2.157,3.333,3.333,0,0,1,2.276-.742,3.178,3.178,0,0,1,2.283.8,2.626,2.626,0,0,1,.841,1.983,3.014,3.014,0,0,1-.246,1.18,4.605,4.605,0,0,1-.817,1.224,19.81,19.81,0,0,1-1.9,1.764q-1.107.93-1.422,1.261a4.04,4.04,0,0,0-.52.667Zm5.264,1.183v-2.4H-502.3v-1.127l4.573-6.494h1v6.494h1.363v1.127h-1.358v2.4Zm0-3.527v-4.519l-3.138,4.519Z"/><path d="M-451.973,283.229v1.183H-458.6a2.184,2.184,0,0,1,.143-.854,4.529,4.529,0,0,1,.81-1.333,12.632,12.632,0,0,1,1.61-1.518,13.639,13.639,0,0,0,2.213-2.123,2.547,2.547,0,0,0,.574-1.48,1.642,1.642,0,0,0-.523-1.234,1.888,1.888,0,0,0-1.364-.5,1.924,1.924,0,0,0-1.422.533,2.02,2.02,0,0,0-.54,1.477l-1.269-.132a3.11,3.11,0,0,1,.978-2.157,3.333,3.333,0,0,1,2.276-.742,3.178,3.178,0,0,1,2.283.8,2.626,2.626,0,0,1,.841,1.983,3.013,3.013,0,0,1-.246,1.18,4.6,4.6,0,0,1-.817,1.224,19.811,19.811,0,0,1-1.9,1.764q-1.107.93-1.422,1.261a4.039,4.039,0,0,0-.52.667Zm1.319-1.442,1.292-.109a2.319,2.319,0,0,0,.667,1.418,1.807,1.807,0,0,0,1.261.475,1.961,1.961,0,0,0,1.5-.67,2.528,2.528,0,0,0,.615-1.777,2.285,2.285,0,0,0-.591-1.661,2.062,2.062,0,0,0-1.548-.608,2.152,2.152,0,0,0-1.073.27,2.087,2.087,0,0,0-.752.7l-1.155-.15.971-5.147h4.986V275.7h-4l-.54,2.692a3.266,3.266,0,0,1,1.894-.629,3,3,0,0,1,2.215.909,3.178,3.178,0,0,1,.9,2.338,3.651,3.651,0,0,1-.793,2.352,3.177,3.177,0,0,1-2.629,1.217,3.24,3.24,0,0,1-2.232-.766A2.987,2.987,0,0,1-450.654,281.787Z"/><path d="M-400.726,283.229v1.183h-6.624a2.184,2.184,0,0,1,.143-.854,4.529,4.529,0,0,1,.81-1.333,12.632,12.632,0,0,1,1.61-1.518,13.64,13.64,0,0,0,2.213-2.123A2.547,2.547,0,0,0-402,277.1a1.642,1.642,0,0,0-.523-1.234,1.888,1.888,0,0,0-1.364-.5,1.924,1.924,0,0,0-1.422.533,2.02,2.02,0,0,0-.54,1.477l-1.269-.132a3.11,3.11,0,0,1,.978-2.157,3.333,3.333,0,0,1,2.276-.742,3.178,3.178,0,0,1,2.283.8,2.626,2.626,0,0,1,.841,1.983,3.014,3.014,0,0,1-.246,1.18,4.605,4.605,0,0,1-.817,1.224,19.81,19.81,0,0,1-1.9,1.764q-1.107.93-1.422,1.261a4.038,4.038,0,0,0-.52.667Zm7.7-6.385-1.224.1a2.315,2.315,0,0,0-.465-1.053,1.627,1.627,0,0,0-1.23-.526,1.686,1.686,0,0,0-1.032.328,2.8,2.8,0,0,0-.916,1.237,6.451,6.451,0,0,0-.349,2.317,2.849,2.849,0,0,1,1.087-1,2.918,2.918,0,0,1,1.351-.335,2.791,2.791,0,0,1,2.1.906,3.255,3.255,0,0,1,.865,2.341,3.852,3.852,0,0,1-.412,1.753,2.963,2.963,0,0,1-1.118,1.24,3.051,3.051,0,0,1-1.613.431,3.154,3.154,0,0,1-2.509-1.131,5.711,5.711,0,0,1-.971-3.729,6.686,6.686,0,0,1,1.074-4.225,3.084,3.084,0,0,1,2.522-1.148,2.831,2.831,0,0,1,1.938.663,2.815,2.815,0,0,1,.906,1.832Zm-5.02,4.321a2.86,2.86,0,0,0,.272,1.217,2.012,2.012,0,0,0,.755.885,1.9,1.9,0,0,0,1.019.3,1.737,1.737,0,0,0,1.34-.629,2.473,2.473,0,0,0,.561-1.709,2.318,2.318,0,0,0-.554-1.637,1.818,1.818,0,0,0-1.395-.6,1.9,1.9,0,0,0-1.415.6A2.154,2.154,0,0,0-398.046,281.165Z"/><path d="M-349.479,283.229v1.183H-356.1a2.184,2.184,0,0,1,.143-.854,4.528,4.528,0,0,1,.81-1.333,12.634,12.634,0,0,1,1.61-1.518,13.64,13.64,0,0,0,2.213-2.123,2.541,2.541,0,0,0,.574-1.48,1.642,1.642,0,0,0-.523-1.234,1.888,1.888,0,0,0-1.364-.5,1.924,1.924,0,0,0-1.422.533,2.02,2.02,0,0,0-.54,1.477l-1.269-.132a3.11,3.11,0,0,1,.978-2.157,3.333,3.333,0,0,1,2.276-.742,3.178,3.178,0,0,1,2.283.8,2.626,2.626,0,0,1,.841,1.983,3.013,3.013,0,0,1-.246,1.18,4.6,4.6,0,0,1-.817,1.224,19.81,19.81,0,0,1-1.9,1.764q-1.107.93-1.422,1.261a4.04,4.04,0,0,0-.52.667Zm1.4-7.526V274.52h6.487v.957a13.628,13.628,0,0,0-1.9,2.707,16.5,16.5,0,0,0-1.453,3.473,12.867,12.867,0,0,0-.467,2.755h-1.264a12.3,12.3,0,0,1,.465-2.857,14.969,14.969,0,0,1,1.275-3.23,13.855,13.855,0,0,1,1.767-2.622Z"/><path d="M-298.232,283.229v1.183h-6.624a2.184,2.184,0,0,1,.143-.854,4.529,4.529,0,0,1,.81-1.333,12.636,12.636,0,0,1,1.61-1.518,13.64,13.64,0,0,0,2.213-2.123,2.547,2.547,0,0,0,.574-1.48,1.642,1.642,0,0,0-.523-1.234,1.888,1.888,0,0,0-1.364-.5,1.924,1.924,0,0,0-1.422.533,2.02,2.02,0,0,0-.54,1.477l-1.269-.132a3.11,3.11,0,0,1,.978-2.157,3.333,3.333,0,0,1,2.276-.742,3.178,3.178,0,0,1,2.283.8,2.626,2.626,0,0,1,.841,1.983,3.013,3.013,0,0,1-.246,1.18,4.6,4.6,0,0,1-.817,1.224,19.811,19.811,0,0,1-1.9,1.764q-1.107.93-1.422,1.261a4.039,4.039,0,0,0-.52.667Zm3.213-4.252a2.315,2.315,0,0,1-1.135-.8,2.09,2.09,0,0,1-.369-1.244,2.431,2.431,0,0,1,.786-1.839,2.916,2.916,0,0,1,2.092-.745,2.934,2.934,0,0,1,2.112.762,2.467,2.467,0,0,1,.8,1.856,2.05,2.05,0,0,1-.366,1.213,2.305,2.305,0,0,1-1.111.8,2.694,2.694,0,0,1,1.4.971,2.666,2.666,0,0,1,.482,1.6,2.882,2.882,0,0,1-.9,2.161,3.3,3.3,0,0,1-2.393.875,3.3,3.3,0,0,1-2.392-.883,2.919,2.919,0,0,1-.909-2.192,2.65,2.65,0,0,1,.5-1.637A2.479,2.479,0,0,1-295.019,278.977Zm-.246-2.085a1.56,1.56,0,0,0,.458,1.162,1.62,1.62,0,0,0,1.189.451,1.591,1.591,0,0,0,1.166-.448,1.48,1.48,0,0,0,.455-1.1,1.536,1.536,0,0,0-.468-1.138,1.592,1.592,0,0,0-1.166-.461,1.608,1.608,0,0,0-1.169.451A1.452,1.452,0,0,0-295.265,276.892Zm-.4,4.628a2.231,2.231,0,0,0,.25,1.019,1.766,1.766,0,0,0,.742.762,2.168,2.168,0,0,0,1.06.27,1.987,1.987,0,0,0,1.456-.567,1.942,1.942,0,0,0,.577-1.443,1.972,1.972,0,0,0-.591-1.47,2.028,2.028,0,0,0-1.48-.581,1.945,1.945,0,0,0-1.439.574,1.953,1.953,0,0,0-.572,1.436Z"/><path d="M-246.985,283.229v1.183h-6.624a2.184,2.184,0,0,1,.143-.854,4.529,4.529,0,0,1,.81-1.333,12.634,12.634,0,0,1,1.61-1.518,13.64,13.64,0,0,0,2.213-2.123,2.541,2.541,0,0,0,.574-1.48,1.642,1.642,0,0,0-.523-1.234,1.888,1.888,0,0,0-1.364-.5,1.924,1.924,0,0,0-1.422.533,2.02,2.02,0,0,0-.54,1.477l-1.269-.132a3.114,3.114,0,0,1,.978-2.157,3.333,3.333,0,0,1,2.276-.742,3.178,3.178,0,0,1,2.283.8,2.626,2.626,0,0,1,.841,1.983,3.013,3.013,0,0,1-.246,1.18,4.6,4.6,0,0,1-.817,1.224,19.811,19.811,0,0,1-1.9,1.764q-1.107.93-1.422,1.261a4.094,4.094,0,0,0-.52.667Zm1.5-1.135,1.183-.109a2.057,2.057,0,0,0,.574,1.21,1.575,1.575,0,0,0,1.1.376,1.871,1.871,0,0,0,.995-.26,2.13,2.13,0,0,0,.7-.694,4.09,4.09,0,0,0,.458-1.172,6.168,6.168,0,0,0,.185-1.5c0-.055,0-.137-.007-.246a2.819,2.819,0,0,1-1.008.954,2.743,2.743,0,0,1-1.384.366,2.8,2.8,0,0,1-2.1-.9,3.3,3.3,0,0,1-.861-2.379,3.38,3.38,0,0,1,.9-2.454,3,3,0,0,1,2.252-.93,3.216,3.216,0,0,1,1.788.526,3.294,3.294,0,0,1,1.23,1.5,7.393,7.393,0,0,1,.42,2.82,9.113,9.113,0,0,1-.417,3.059,3.581,3.581,0,0,1-1.246,1.727,3.209,3.209,0,0,1-1.931.6,2.8,2.8,0,0,1-1.922-.653,2.807,2.807,0,0,1-.9-1.835Zm5.042-4.422a2.408,2.408,0,0,0-.564-1.682,1.766,1.766,0,0,0-1.357-.622,1.872,1.872,0,0,0-1.429.67,2.485,2.485,0,0,0-.608,1.736,2.146,2.146,0,0,0,.578,1.555,1.9,1.9,0,0,0,1.425.6,1.822,1.822,0,0,0,1.4-.6A2.356,2.356,0,0,0-240.443,277.672Z"/><path d="M-202.2,281.766l1.23-.164a2.709,2.709,0,0,0,.722,1.51,1.782,1.782,0,0,0,1.24.459,1.989,1.989,0,0,0,1.466-.6,2.033,2.033,0,0,0,.6-1.49,1.89,1.89,0,0,0-.554-1.4,1.911,1.911,0,0,0-1.408-.55,3.493,3.493,0,0,0-.868.137l.137-1.08a1.9,1.9,0,0,0,.2.014,2.536,2.536,0,0,0,1.415-.41,1.4,1.4,0,0,0,.629-1.265,1.5,1.5,0,0,0-.458-1.121,1.631,1.631,0,0,0-1.183-.444,1.675,1.675,0,0,0-1.2.451,2.262,2.262,0,0,0-.615,1.354l-1.23-.22a3.158,3.158,0,0,1,1.025-1.917,2.964,2.964,0,0,1,1.989-.68,3.277,3.277,0,0,1,1.511.352,2.549,2.549,0,0,1,1.056.96,2.466,2.466,0,0,1,.366,1.292,2.115,2.115,0,0,1-.348,1.183,2.379,2.379,0,0,1-1.032.848,2.329,2.329,0,0,1,1.381.851,2.592,2.592,0,0,1,.491,1.616,2.959,2.959,0,0,1-.957,2.225,3.369,3.369,0,0,1-2.42.913,3.149,3.149,0,0,1-2.19-.786A3.04,3.04,0,0,1-202.2,281.766Zm7.779-2.3a9.15,9.15,0,0,1,.366-2.854,3.554,3.554,0,0,1,1.087-1.675,2.781,2.781,0,0,1,1.815-.588,2.959,2.959,0,0,1,1.415.325,2.7,2.7,0,0,1,1,.937,5.043,5.043,0,0,1,.622,1.49,9.928,9.928,0,0,1,.228,2.369,9.2,9.2,0,0,1-.36,2.842,3.558,3.558,0,0,1-1.083,1.68,2.778,2.778,0,0,1-1.822.591,2.749,2.749,0,0,1-2.277-1.039,6.6,6.6,0,0,1-.991-4.074Zm1.265,0a6.283,6.283,0,0,0,.578,3.285,1.7,1.7,0,0,0,1.425.817,1.7,1.7,0,0,0,1.425-.82,6.288,6.288,0,0,0,.578-3.281,6.282,6.282,0,0,0-.578-3.285,1.715,1.715,0,0,0-1.439-.813,1.578,1.578,0,0,0-1.354.718,6.349,6.349,0,0,0-.635,3.383Z"/></g></svg>