<svg xmlns="http://www.w3.org/2000/svg" 
    xmlns:xlink="http://www.w3.org/1999/xlink" width="720.69" height="90.73" viewBox="0 0 720.69 90.73">
    <defs>
        <radialGradient id="a" cx="0.311" cy="1.269" r="3.96" gradientTransform="translate(0.271 0) scale(0.126 1)" gradientUnits="objectBoundingBox">
            <stop offset="0" stop-color="#feffff"></stop>
            <stop offset="1" stop-color="#f8f8f8"></stop>
        </radialGradient>
        <linearGradient id="b" x1="1" x2="-0.015" y2="1" gradientUnits="objectBoundingBox">
            <stop offset="0" stop-color="#e5e5e5"></stop>
            <stop offset="1" stop-color="#dbdbdb"></stop>
        </linearGradient>
    </defs>
    <g transform="translate(-557.729 -818.036)">
        <g transform="translate(557.313 818.036)">
            <path d="M710.754,0H9.934A9.963,9.963,0,0,0,0,9.934v70.86a9.963,9.963,0,0,0,9.934,9.934h700.82a9.963,9.963,0,0,0,9.934-9.934V9.934A9.963,9.963,0,0,0,710.754,0ZM713.9,46.026a6.642,6.642,0,0,1-6.622,6.622h-.993a7.45,7.45,0,1,1,7.45-7.45v.5C713.9,45.695,713.9,45.86,713.9,46.026Z" fill="url(#a)"></path>
            <path d="M710.754,0H9.934A9.963,9.963,0,0,0,0,9.934v70.86a9.963,9.963,0,0,0,9.934,9.934h700.82a9.963,9.963,0,0,0,9.934-9.934V9.934A9.963,9.963,0,0,0,710.754,0ZM713.9,46.026a6.642,6.642,0,0,1-6.622,6.622h-.993a7.45,7.45,0,1,1,7.45-7.45v.5C713.9,45.695,713.9,45.86,713.9,46.026Z" fill="url(#b)"></path>
            <path d="M513.34,15.894h1.987V0H513.34Zm-34.437,0h1.987V0H478.9Zm-99.5,0h1.987V0H379.4Zm-34.6,0h1.987V0H344.8Zm67.88,0h1.987V0h-1.987Zm134.1,0h1.987V0h-1.987Zm-536.584,0h1.987V0H10.2Zm637.079,0h1.987V0h-1.987Zm-67.549,0h1.987V0H579.73Zm33.443,0h1.987V0h-1.987Zm-167.382,0h1.987V0h-1.987Zm-369.2,0h1.987V0H76.59Zm67.715,0h1.987V0H144.3Zm-32.781,0h1.987V0h-1.987ZM680.723,0V15.894h1.987V0ZM43.478,15.894h1.987V0H43.478Zm234.931,0H280.4V0h-1.987Zm-33.443,0h1.987V0h-1.987Zm66.887,0h1.987V0h-1.987Zm-134.1,0h1.987V0h-1.987Zm33.112,0h1.987V0H210.86Z" transform="translate(6.687)" fill="#b1b1b1"></path>
            <path d="M466.972,15.894h1.987V0h-1.987Zm34.105,0h1.987V0h-1.987Zm-267.878,0h1.987V10.265l-1.987,1.49ZM534.521,0V15.894h1.987V0ZM433.529,15.894h1.987V0h-1.987Zm-100.827,0h1.987V0H332.7Zm-33.112,0h1.987V0H299.59Zm-33.112,0h1.987V0h-1.987Zm134.1,0h1.987V0h-1.987Zm-33.443,0h1.987V0h-1.987Z" transform="translate(152.889)" fill="#b1b1b1"></path>
            <path d="M556.784,9.271h1.987V0h-1.987Zm-33.443,0h1.987V0H523.34Zm-34.437,0h1.987V0H488.9Zm-66.224,0h1.987V0h-1.987Zm-33.278,0h1.987V0H389.4Zm66.39,0h1.987V0h-1.987Zm133.939,0h1.987V0H589.73Zm-569.53,0h1.987V0H20.2Zm602.974,0h1.987V0h-1.987Zm-569.7,0h1.987V0H53.478Zm68.046,0h1.987V0h-1.987Zm32.781,0h1.987V0H154.3Zm33.443,0h1.987V0h-1.987Zm-101.158,0h1.987V0H86.59Zm570.689,0h1.987V0h-1.987Zm-402.314,0h1.987V0h-1.987Zm-34.106,0h1.987V0H220.86Zm100.992,0h1.987V0h-1.987Zm-33.443,0H290.4V0h-1.987Zm66.39,0h1.987V0H354.8Z" transform="translate(13.243)" fill="#fff"></path>
            <path d="M410.582,9.271h1.987V0h-1.987Zm66.39,0h1.987V0h-1.987Zm-33.443,0h1.987V0h-1.987ZM511.078,0V9.271h1.987V0ZM309.59,9.271h1.987V0H309.59Zm-66.39,0h1.987V0H243.2Zm33.278,0h1.987V0h-1.987Zm100.661,0h1.987V0h-1.987Zm-34.437,0h1.987V0H342.7Z" transform="translate(159.445)" fill="#fff"></path>
            <path d="M347.561,5.795h1.821V0h-1.821Zm107.284,0h1.821V0h-1.821Zm-3.311,0h1.821V0h-1.821Zm13.41,0h1.821V0h-1.821Zm3.311,0h1.821V0h-1.821Zm-30.132,0h1.821V0h-1.821Zm70.363,0h1.821V0h-1.821Zm-60.264,0h1.821V0h-1.821Zm-6.788,0h1.821V0h-1.821Zm50.165,0h1.821V0H491.6Zm6.954,0h1.821V0h-1.821Zm3.311,0h1.821V0h-1.821Zm-70.363,0h1.821V0H431.5Zm73.675,0H507V0h-1.821Zm-20.2,0H486.8V0h-1.821Zm-10.1,0H476.7V0h-1.821Zm13.41,0h1.821V0h-1.821Zm-6.622,0h1.821V0h-1.821Zm-10.1,0h1.821V0h-1.821Zm-36.755,0h1.821V0h-1.821Zm-67.052,0h1.821V0H367.76Zm3.311,0h1.821V0h-1.821Zm3.311,0H376.2V0h-1.821Zm6.788,0h1.821V0H381.17Zm-16.722,0h1.821V0h-1.821Zm20.033,0H386.3V0h-1.821Zm-30.3,0H356V0h-1.821Zm-3.311,0h1.821V0h-1.821Zm6.622,0h1.821V0h-1.821Zm30.3,0h1.821V0h-1.821Zm26.821,0h1.821V0h-1.821Zm3.311,0h1.821V0h-1.821Zm-10.1,0h1.821V0h-1.821Zm13.41,0h1.821V0h-1.821Zm-30.132,0h1.821V0H391.1Zm33.443,0h1.821V0h-1.821Zm-26.655,0h1.821V0h-1.821Zm6.622,0h1.821V0h-1.821Zm-3.311,0h1.821V0H401.2Zm214.733,0h1.821V0h-1.821Zm20.033,0h1.821V0h-1.821Zm-10.1,0h1.821V0H625.87Zm-3.311,0h1.821V0h-1.821Zm10.1,0h1.821V0h-1.821Zm-13.411,0h1.821V0h-1.821ZM12.3,5.795h1.821V0H12.3Zm590.06,0h1.821V0H602.36Zm3.311,0h1.821V0h-1.821Zm3.311,0H610.8V0h-1.821Zm-9.934,0h1.821V0h-1.821Zm70.529,0H671.4V0h-1.821Zm-3.311,0h1.821V0h-1.821Zm-6.954,0h1.821V0h-1.821Zm-20.033,0H641.1V0H639.28Zm33.609,0h1.821V0h-1.821ZM656,5.795h1.821V0H656Zm-13.411,0h1.821V0h-1.821Zm6.788,0H651.2V0h-1.821Zm3.311,0h1.821V0H652.69Zm-77.152,0h1.821V0h-1.821Zm-36.92,0h1.821V0h-1.821Zm3.311,0h1.821V0H541.93Zm-6.622,0h1.821V0h-1.821Zm56.953,0h1.821V0h-1.821Zm-73.675,0h1.821V0h-1.821Zm33.609,0h1.821V0h-1.821Zm-30.3,0h1.821V0H521.9Zm3.311,0h1.821V0h-1.821Zm6.788,0h1.821V0H532Zm16.887,0H550.7V0h-1.821Zm6.622,0h1.821V0h-1.821Zm30.132,0h1.821V0h-1.821Zm3.311,0h1.821V0h-1.821Zm-73.675,0H517.1V0h-1.821Zm67.052,0h1.821V0h-1.821Zm-16.722,0h1.821V0h-1.821Zm6.622,0h1.821V0h-1.821Zm-13.411,0h1.821V0h-1.821Zm10.1,0h1.821V0h-1.821Zm-110.76,0h1.821V0h-1.821Zm-338.738,0h1.821V0h-1.821Zm-3.311,0h1.821V0h-1.821Zm16.887,0h1.821V0h-1.821Zm-20.2,0h1.821V0H112.8Zm9.934,0h1.821V0h-1.821Zm6.954,0H131.5V0h-1.821Zm-23.675,0h1.821V0h-1.821Zm-6.622,0h1.821V0H99.385Zm-3.311,0H97.9V0H96.074Zm6.622,0h1.821V0H102.7Zm36.92,0h1.821V0h-1.821Zm23.51,0h1.821V0h-1.821Zm-6.788,0h1.821V0h-1.821Zm10.1,0h1.821V0h-1.821Zm3.311,0h1.821V0h-1.821Zm-80.463,0h1.821V0H89.286Zm57.119,0h1.821V0H146.4Zm-10.1,0h1.821V0h-1.821Zm16.722,0h1.821V0h-1.821Zm-3.311,0h1.821V0h-1.821ZM676.2,0V5.795h1.821V0ZM45.743,5.795h1.821V0H45.743Zm-10.1,0h1.821V0H35.644Zm-6.622,0h1.821V0H29.022Zm9.934,0h1.821V0H38.955Zm301.818,0h1.821V0h-1.821Zm-325.162,0h1.821V0H15.611Zm6.622,0h1.821V0H22.234Zm63.741,0H87.8V0H85.975Zm-67.052,0h1.821V0H18.922Zm154.137,0h1.821V0H173.06ZM72.4,5.795H74.22V0H72.4Zm6.954,0h1.821V0H79.352Zm3.311,0h1.821V0H82.663Zm-13.576,0h1.821V0H69.087Zm-3.311,0H67.6V0H65.776Zm-16.722,0h1.821V0H49.055Zm3.311,0h1.821V0H52.366Zm3.311,0H57.5V0H55.677Zm6.788,0h1.821V0H62.465Zm-30.132,0h1.821V0H32.333Zm251.487,0h1.821V0H283.82Zm16.722,0h1.821V0h-1.821Zm-120.694,0h1.821V0h-1.821Zm117.383,0h1.821V0h-1.821Zm-6.788,0h1.821V0h-1.821Zm-9.934,0h1.821V0h-1.821Zm-10.1,0h1.821V0H270.41Zm-3.311,0h1.821V0H267.1Zm6.622,0h1.821V0h-1.821Zm47.019,0h1.821V0H320.74Zm10.1,0h1.821V0H330.84Zm3.311,0h1.821V0h-1.821Zm-10.1,0h1.821V0h-1.821Zm13.41,0h1.821V0h-1.821Zm-20.033,0h1.821V0h-1.821Zm-3.311,0h1.821V0h-1.821Zm-6.954,0h1.821V0h-1.821Zm-43.377,0h1.821V0h-1.821Zm40.066,0h1.821V0h-1.821Zm-16.722,0h1.821V0h-1.821Zm-83.774,0h1.821V0h-1.821V5.795Zm-3.311,0h1.821V0h-1.821Zm16.722,0h1.821V0h-1.821Zm-3.311,0h1.821V0h-1.821Zm-6.788,0h1.821V0h-1.821Zm-20.2,0h1.821V0H186.47Zm-3.311,0h1.821V0h-1.821Zm13.576,0h1.821V0h-1.821Zm-6.954,0H191.6V0h-1.821Zm63.907,0h1.821V0h-1.821Zm-6.622,0h1.821V0h-1.821Zm-6.954,0h1.821V0h-1.821Zm10.265,0H252.2V0h-1.821Zm6.622,0h1.821V0H257Zm-23.51,0h1.821V0H233.49Zm-3.311,0H232V0h-1.821Zm-6.788,0h1.821V0H223.39Zm13.41,0h1.821V0H236.8Zm-16.722,0H221.9V0h-1.821Z" transform="translate(8.064)" fill="#b1b1b1"></path>
            <g transform="translate(14.569 17.881)">
                <g transform="translate(0 0.166)">
                    <path d="M11.449,10.9a2.136,2.136,0,0,1,1.821.828,5.694,5.694,0,0,1,.828,3.311,5.694,5.694,0,0,1-.828,3.311,2.452,2.452,0,0,1-3.808-.166A5.5,5.5,0,0,1,8.8,14.873a5.694,5.694,0,0,1,.828-3.311A2.648,2.648,0,0,1,11.449,10.9Zm0,1.324a.608.608,0,0,0-.5.166.86.86,0,0,0-.331.662,6.876,6.876,0,0,0-.166,2.152,5.713,5.713,0,0,0,.166,1.987c.166.331.166.662.331.662a.608.608,0,0,0,.5.166.608.608,0,0,0,.5-.166.86.86,0,0,0,.331-.662,6.876,6.876,0,0,0,.166-2.152,5.713,5.713,0,0,0-.166-1.987c-.166-.331-.166-.662-.331-.662S11.615,12.224,11.449,12.224Z" transform="translate(-8.8 -10.9)" fill="#b1b1b1"></path>
                </g>
                <g transform="translate(34.271 0.166)">
                    <path d="M33.142,19.344H31.487v-5.96A6.2,6.2,0,0,1,29.5,14.542v-1.49a2.929,2.929,0,0,0,1.324-.828,2.575,2.575,0,0,0,.993-1.324h1.324Z" transform="translate(-29.5 -10.9)" fill="#b1b1b1"></path>
                </g>
                <g transform="translate(67.549 0.331)">
                    <path d="M55.229,17.788v1.49H49.6a3.194,3.194,0,0,1,.5-1.656,8.871,8.871,0,0,1,1.821-1.987l1.324-1.324a2.353,2.353,0,0,0,.331-.993,1.171,1.171,0,0,0-1.987-.828,1.4,1.4,0,0,0-.331.993L49.6,13.318a2.692,2.692,0,0,1,.828-1.821,3.337,3.337,0,0,1,1.821-.5,2.639,2.639,0,0,1,1.987.662,2.126,2.126,0,0,1,.662,1.656,2.1,2.1,0,0,1-.166.993,3.464,3.464,0,0,1-.662.993,5.445,5.445,0,0,1-.993.993l-.993.993c-.166.166-.166.331-.331.5Z" transform="translate(-49.6 -11)" fill="#b1b1b1"></path>
                </g>
                <g transform="translate(102.482 0)">
                    <path d="M70.7,17.091l1.49-.166a1.171,1.171,0,0,0,1.987.828,2.353,2.353,0,0,0,.331-.993,2.353,2.353,0,0,0-.331-.993,1.265,1.265,0,0,0-.828-.331,1,1,0,0,0-.662.166l.166-1.324c.5,0,.828,0,.993-.331a1.265,1.265,0,0,0,.331-.828.86.86,0,0,0-.331-.662.828.828,0,0,0-1.325,0,1.265,1.265,0,0,0-.331.828l-1.49-.331a8.07,8.07,0,0,1,.5-1.159,1.653,1.653,0,0,1,.828-.662,3.069,3.069,0,0,1,1.159-.331A2.136,2.136,0,0,1,75,11.628a2.044,2.044,0,0,1,.662,1.324,2.1,2.1,0,0,1-1.159,1.821,2.668,2.668,0,0,1,1.159.662,1.88,1.88,0,0,1,.5,1.324,2.659,2.659,0,0,1-.828,1.821,2.742,2.742,0,0,1-1.987.828,2.261,2.261,0,0,1-1.821-.662A3.882,3.882,0,0,1,70.7,17.091Z" transform="translate(-70.7 -10.8)" fill="#b1b1b1"></path>
                </g>
                <g transform="translate(133.773 0.331)">
                    <path d="M93.077,19.278V17.622H89.6V16.3L93.242,11h1.325v5.3h.993v1.324h-.993v1.656Zm0-2.98V13.483L91.09,16.3Z" transform="translate(-89.6 -11)" fill="#b1b1b1"></path>
                </g>
                <g transform="translate(168.872 0.662)">
                    <path d="M110.8,16.995l1.656-.166a1.171,1.171,0,0,0,1.987.828,2.194,2.194,0,0,0,0-2.318c-.166-.331-.5-.331-.828-.331a1.25,1.25,0,0,0-1.159.662l-1.324-.166.828-4.3H116.1v1.49h-2.98l-.331,1.324a2.393,2.393,0,0,1,1.159-.331,2.561,2.561,0,0,1,2.483,2.815,2.49,2.49,0,0,1-.662,1.821,2.9,2.9,0,0,1-2.318,1.159,2.261,2.261,0,0,1-1.821-.662A4.471,4.471,0,0,1,110.8,16.995Z" transform="translate(-110.8 -11.2)" fill="#b1b1b1"></path>
                </g>
                <g transform="translate(200.826 0.497)">
                    <path d="M135.729,12.921l-1.49.166a.86.86,0,0,0-.331-.662c-.166-.166-.331-.166-.662-.166a.91.91,0,0,0-.828.5,8.786,8.786,0,0,0-.5,1.821,1.614,1.614,0,0,1,1.49-.662,2.3,2.3,0,0,1,1.656.828,2.639,2.639,0,0,1,.662,1.987,2.826,2.826,0,0,1-2.815,2.815,2.36,2.36,0,0,1-1.987-.993A5.117,5.117,0,0,1,130.1,15.4a5.7,5.7,0,0,1,.828-3.311,2.67,2.67,0,0,1,2.152-.993,2.024,2.024,0,0,1,1.49.5A1.261,1.261,0,0,1,135.729,12.921ZM132.252,16.4a1.93,1.93,0,0,0,.331,1.159.911.911,0,0,0,.828.5.86.86,0,0,0,.662-.331,2.194,2.194,0,0,0,0-2.318c-.166-.331-.5-.331-.828-.331s-.5.166-.828.331C132.252,15.57,132.252,15.9,132.252,16.4Z" transform="translate(-130.1 -11.1)" fill="#b1b1b1"></path>
                </g>
                <g transform="translate(235.097 0.497)">
                    <path d="M150.8,12.59V11.1h5.464v1.159a17.337,17.337,0,0,0-1.325,1.821,7.316,7.316,0,0,0-.993,2.649,17.216,17.216,0,0,0-.331,2.483h-1.49a12.9,12.9,0,0,1,.662-3.477,9.812,9.812,0,0,1,1.821-3.146Z" transform="translate(-150.8 -11.1)" fill="#b1b1b1"></path>
                </g>
                <g transform="translate(269.037 0.166)">
                    <path d="M172.624,14.708a1.653,1.653,0,0,1-.828-.662,2.353,2.353,0,0,1-.331-.993,1.614,1.614,0,0,1,.662-1.49,3.013,3.013,0,0,1,1.821-.662,2.261,2.261,0,0,1,1.821.662,1.8,1.8,0,0,1,.662,1.49,2.353,2.353,0,0,1-.331.993,1.653,1.653,0,0,1-.828.662,1.7,1.7,0,0,1,.993.828,3.07,3.07,0,0,1,.331,1.159,2.261,2.261,0,0,1-.662,1.821,2.639,2.639,0,0,1-1.987.662,2.261,2.261,0,0,1-1.821-.662,2.228,2.228,0,0,1-.828-1.987,2.393,2.393,0,0,1,.331-1.159A9.8,9.8,0,0,1,172.624,14.708Zm.166,1.987a1.4,1.4,0,0,0,.331.993,1.2,1.2,0,0,0,1.656,0,1.4,1.4,0,0,0,.331-.993,2.354,2.354,0,0,0-.331-.993,1.2,1.2,0,0,0-1.656,0C172.956,16.2,172.79,16.364,172.79,16.695Zm.166-3.477a.86.86,0,0,0,.331.662,1.255,1.255,0,0,0,.662.331.86.86,0,0,0,.662-.331,1.255,1.255,0,0,0,.331-.662.86.86,0,0,0-.331-.662,1.255,1.255,0,0,0-.662-.331.86.86,0,0,0-.662.331A.86.86,0,0,0,172.956,13.218Z" transform="translate(-171.3 -10.9)" fill="#b1b1b1"></path>
                </g>
                <g transform="translate(302.977)">
                    <path d="M191.8,17.422l1.49-.166a.86.86,0,0,0,.331.662c.166.166.331.166.662.166a.91.91,0,0,0,.828-.5,8.786,8.786,0,0,0,.5-1.821,1.614,1.614,0,0,1-1.49.662,2.3,2.3,0,0,1-1.656-.828,2.639,2.639,0,0,1-.662-1.987,2.826,2.826,0,0,1,2.815-2.815,2.914,2.914,0,0,1,2.152.993c.662.662.828,1.656.828,3.146a5.694,5.694,0,0,1-.828,3.311,2.67,2.67,0,0,1-2.152.993,2.8,2.8,0,0,1-1.656-.5C192.131,18.581,191.966,18.085,191.8,17.422Zm3.642-3.477a2.393,2.393,0,0,0-.331-1.159.91.91,0,0,0-.828-.5.86.86,0,0,0-.662.331,1.93,1.93,0,0,0-.331,1.159,1.93,1.93,0,0,0,.331,1.159c.166.331.5.331.828.331s.5-.166.828-.331A5.858,5.858,0,0,0,195.442,13.946Z" transform="translate(-191.8 -10.8)" fill="#b1b1b1"></path>
                </g>
                <g transform="translate(331.453 0.166)">
                    <path d="M212.642,19.344h-1.656v-5.96A6.2,6.2,0,0,1,209,14.542v-1.49a2.929,2.929,0,0,0,1.325-.828,2.575,2.575,0,0,0,.993-1.324h1.324v8.444Z" transform="translate(-209 -10.9)" fill="#b1b1b1"></path>
                    <path d="M215.349,10.9a2.136,2.136,0,0,1,1.821.828A5.694,5.694,0,0,1,218,15.039a5.7,5.7,0,0,1-.828,3.311,2.659,2.659,0,0,1-1.821.828,2.36,2.36,0,0,1-1.987-.993,5.5,5.5,0,0,1-.662-3.311,5.694,5.694,0,0,1,.828-3.311A2.647,2.647,0,0,1,215.349,10.9Zm0,1.324a.608.608,0,0,0-.5.166.86.86,0,0,0-.331.662,6.876,6.876,0,0,0-.166,2.152,5.712,5.712,0,0,0,.166,1.987c.166.331.166.662.331.662a.828.828,0,0,0,.993,0,.86.86,0,0,0,.331-.662,6.877,6.877,0,0,0,.166-2.152,5.713,5.713,0,0,0-.166-1.987c-.166-.331-.166-.662-.331-.662S215.515,12.224,215.349,12.224Z" transform="translate(-206.574 -10.9)" fill="#b1b1b1"></path>
                </g>
                <g transform="translate(367.049 0.166)">
                    <path d="M234.142,19.344h-1.656v-5.96a6.2,6.2,0,0,1-1.987,1.159v-1.49a2.929,2.929,0,0,0,1.324-.828,2.575,2.575,0,0,0,.993-1.324h1.324Z" transform="translate(-230.5 -10.9)" fill="#b1b1b1"></path>
                    <path d="M237.642,19.344h-1.656v-5.96A4.842,4.842,0,0,1,234,14.542v-1.49a2.929,2.929,0,0,0,1.324-.828,2.575,2.575,0,0,0,.993-1.324h1.324Z" transform="translate(-228.205 -10.9)" fill="#b1b1b1"></path>
                </g>
                <g transform="translate(400.989 0.166)">
                    <path d="M254.642,19.344h-1.656v-5.96A6.2,6.2,0,0,1,251,14.542v-1.49a2.929,2.929,0,0,0,1.324-.828,2.575,2.575,0,0,0,.993-1.324h1.324Z" transform="translate(-251 -10.9)" fill="#b1b1b1"></path>
                    <path d="M260.129,17.788v1.49H254.5a3.2,3.2,0,0,1,.5-1.656,8.871,8.871,0,0,1,1.821-1.987l1.324-1.324a2.352,2.352,0,0,0,.331-.993,1.171,1.171,0,0,0-1.987-.828,1.4,1.4,0,0,0-.331.993l-1.656-.166a2.692,2.692,0,0,1,.828-1.821,3.337,3.337,0,0,1,1.821-.5,2.639,2.639,0,0,1,1.987.662,2.126,2.126,0,0,1,.662,1.656,2.1,2.1,0,0,1-.166.993,3.464,3.464,0,0,1-.662.993,5.443,5.443,0,0,1-.993.993l-.993.993c-.166.166-.166.331-.331.5Z" transform="translate(-248.705 -10.834)" fill="#b1b1b1"></path>
                </g>
                <g transform="translate(433.273 0)">
                    <path d="M274.142,19.344h-1.656v-5.96a6.2,6.2,0,0,1-1.987,1.159v-1.49a2.929,2.929,0,0,0,1.324-.828,2.575,2.575,0,0,0,.993-1.324h1.324v8.444Z" transform="translate(-270.5 -10.734)" fill="#b1b1b1"></path>
                    <path d="M274.1,17.091l1.49-.166a1.171,1.171,0,0,0,1.987.828,2.353,2.353,0,0,0,.331-.993,2.353,2.353,0,0,0-.331-.993,1.265,1.265,0,0,0-.828-.331,1,1,0,0,0-.662.166l.166-1.324c.5,0,.828,0,.993-.331a1.265,1.265,0,0,0,.331-.828.86.86,0,0,0-.331-.662.828.828,0,0,0-1.324,0,1.265,1.265,0,0,0-.331.828l-1.49-.331a8.068,8.068,0,0,1,.5-1.159,1.652,1.652,0,0,1,.828-.662,3.069,3.069,0,0,1,1.159-.331,2.372,2.372,0,0,1,1.821.828,2.044,2.044,0,0,1,.662,1.324,2.1,2.1,0,0,1-1.159,1.821,2.669,2.669,0,0,1,1.159.662,1.88,1.88,0,0,1,.5,1.324,2.659,2.659,0,0,1-.828,1.821,2.742,2.742,0,0,1-1.987.828,2.262,2.262,0,0,1-1.821-.662A3.882,3.882,0,0,1,274.1,17.091Z" transform="translate(-268.14 -10.8)" fill="#b1b1b1"></path>
                </g>
                <g transform="translate(465.558 0.166)">
                    <path d="M293.642,19.344h-1.656v-5.96A6.2,6.2,0,0,1,290,14.542v-1.49a2.929,2.929,0,0,0,1.324-.828,2.575,2.575,0,0,0,.993-1.324h1.324v8.444Z" transform="translate(-290 -10.9)" fill="#b1b1b1"></path>
                    <path d="M296.977,19.278V17.622H293.5V16.3l3.642-5.3h1.324v5.3h.993v1.324h-.993v1.656Zm0-2.98V13.483L294.99,16.3Z" transform="translate(-287.705 -10.834)" fill="#b1b1b1"></path>
                </g>
                <g transform="translate(500.326 0.166)">
                    <path d="M314.642,19.344h-1.656v-5.96A6.2,6.2,0,0,1,311,14.542v-1.49a2.928,2.928,0,0,0,1.324-.828,2.575,2.575,0,0,0,.993-1.324h1.324v8.444Z" transform="translate(-311 -10.9)" fill="#b1b1b1"></path>
                    <path d="M314.7,16.995l1.656-.166a1.171,1.171,0,0,0,1.987.828,2.194,2.194,0,0,0,0-2.318c-.166-.331-.5-.331-.828-.331a1.25,1.25,0,0,0-1.159.662l-1.324-.166.828-4.3H320v1.49h-3.146l-.331,1.324a2.393,2.393,0,0,1,1.159-.331,2.561,2.561,0,0,1,2.483,2.815,2.49,2.49,0,0,1-.662,1.821,2.9,2.9,0,0,1-2.318,1.159,2.261,2.261,0,0,1-1.821-.662A4.073,4.073,0,0,1,314.7,16.995Z" transform="translate(-308.574 -10.703)" fill="#b1b1b1"></path>
                </g>
                <g transform="translate(535.094 0.166)">
                    <path d="M335.642,19.344h-1.656v-5.96A6.2,6.2,0,0,1,332,14.542v-1.49a2.929,2.929,0,0,0,1.324-.828,2.575,2.575,0,0,0,.993-1.324h1.324v8.444Z" transform="translate(-332 -10.9)" fill="#b1b1b1"></path>
                    <path d="M341.129,12.921l-1.49.166a.86.86,0,0,0-.331-.662c-.166-.166-.331-.166-.662-.166a.91.91,0,0,0-.828.5,8.781,8.781,0,0,0-.5,1.821,1.614,1.614,0,0,1,1.49-.662,2.3,2.3,0,0,1,1.656.828,2.639,2.639,0,0,1,.662,1.987,2.826,2.826,0,0,1-2.815,2.815,2.36,2.36,0,0,1-1.987-.993A5.117,5.117,0,0,1,335.5,15.4a5.7,5.7,0,0,1,.828-3.311,2.67,2.67,0,0,1,2.152-.993,2.024,2.024,0,0,1,1.49.5A1.261,1.261,0,0,1,341.129,12.921ZM337.652,16.4a1.93,1.93,0,0,0,.331,1.159.91.91,0,0,0,.828.5.86.86,0,0,0,.662-.331,2.194,2.194,0,0,0,0-2.318c-.166-.331-.5-.331-.828-.331s-.5.166-.828.331C337.652,15.57,337.652,15.9,337.652,16.4Z" transform="translate(-329.705 -10.769)" fill="#b1b1b1"></path>
                </g>
                <g transform="translate(566.55 0.166)">
                    <path d="M354.642,19.344h-1.656v-5.96A6.2,6.2,0,0,1,351,14.542v-1.49a2.929,2.929,0,0,0,1.324-.828,2.575,2.575,0,0,0,.993-1.324h1.324v8.444Z" transform="translate(-351 -10.9)" fill="#b1b1b1"></path>
                    <path d="M354.7,12.59V11.1h5.464v1.159a17.329,17.329,0,0,0-1.324,1.821,7.314,7.314,0,0,0-.993,2.649,17.213,17.213,0,0,0-.331,2.483h-1.49a12.9,12.9,0,0,1,.662-3.477,9.811,9.811,0,0,1,1.821-3.146Z" transform="translate(-348.574 -10.769)" fill="#b1b1b1"></path>
                </g>
                <g transform="translate(601.318)">
                    <path d="M375.642,19.244h-1.656v-5.96A6.2,6.2,0,0,1,372,14.442v-1.49a2.929,2.929,0,0,0,1.324-.828,2.575,2.575,0,0,0,.993-1.324h1.324Z" transform="translate(-372 -10.8)" fill="#b1b1b1"></path>
                    <path d="M377.024,14.708a1.653,1.653,0,0,1-.828-.662,2.353,2.353,0,0,1-.331-.993,1.614,1.614,0,0,1,.662-1.49,3.012,3.012,0,0,1,1.821-.662,2.261,2.261,0,0,1,1.821.662,1.8,1.8,0,0,1,.662,1.49,2.352,2.352,0,0,1-.331.993,1.652,1.652,0,0,1-.828.662,1.7,1.7,0,0,1,.993.828A3.07,3.07,0,0,1,381,16.695a2.261,2.261,0,0,1-.662,1.821,2.639,2.639,0,0,1-1.987.662,2.261,2.261,0,0,1-1.821-.662,2.228,2.228,0,0,1-.828-1.987,2.393,2.393,0,0,1,.331-1.159A9.819,9.819,0,0,1,377.024,14.708Zm.166,1.987a1.4,1.4,0,0,0,.331.993,1.2,1.2,0,0,0,1.656,0,1.4,1.4,0,0,0,.331-.993,2.352,2.352,0,0,0-.331-.993,1.2,1.2,0,0,0-1.656,0C377.356,16.2,377.19,16.364,377.19,16.695Zm.166-3.477a.86.86,0,0,0,.331.662,1.255,1.255,0,0,0,.662.331.86.86,0,0,0,.662-.331,1.255,1.255,0,0,0,.331-.662.86.86,0,0,0-.331-.662,1.255,1.255,0,0,0-.662-.331.86.86,0,0,0-.662.331A.86.86,0,0,0,377.356,13.218Z" transform="translate(-369.574 -10.734)" fill="#b1b1b1"></path>
                </g>
                <g transform="translate(633.602)">
                    <path d="M395.142,19.244h-1.656v-5.96a6.2,6.2,0,0,1-1.987,1.159v-1.49a2.929,2.929,0,0,0,1.324-.828,2.575,2.575,0,0,0,.993-1.324h1.324Z" transform="translate(-391.5 -10.8)" fill="#b1b1b1"></path>
                    <path d="M395.2,17.422l1.49-.166a.86.86,0,0,0,.331.662c.166.166.331.166.662.166a.91.91,0,0,0,.828-.5,8.773,8.773,0,0,0,.5-1.821,1.614,1.614,0,0,1-1.49.662,2.3,2.3,0,0,1-1.656-.828,2.639,2.639,0,0,1-.662-1.987,2.826,2.826,0,0,1,2.815-2.815,2.914,2.914,0,0,1,2.152.993,5.117,5.117,0,0,1,.828,3.146,5.7,5.7,0,0,1-.828,3.311,2.67,2.67,0,0,1-2.152.993,2.024,2.024,0,0,1-1.49-.5C395.531,18.581,395.366,18.085,395.2,17.422Zm3.642-3.477a2.393,2.393,0,0,0-.331-1.159.91.91,0,0,0-.828-.5.86.86,0,0,0-.662.331,1.93,1.93,0,0,0-.331,1.159,1.93,1.93,0,0,0,.331,1.159c.166.331.5.331.828.331s.5-.166.828-.331A5.852,5.852,0,0,0,398.842,13.946Z" transform="translate(-389.074 -10.8)" fill="#b1b1b1"></path>
                </g>
                <g transform="translate(668.536 0.166)">
                    <path d="M418.229,17.788v1.49H412.6a3.194,3.194,0,0,1,.5-1.656,8.873,8.873,0,0,1,1.821-1.987l1.324-1.324a2.353,2.353,0,0,0,.331-.993,1.171,1.171,0,0,0-1.987-.828,1.4,1.4,0,0,0-.331.993l-1.656-.166a2.692,2.692,0,0,1,.828-1.821,3.337,3.337,0,0,1,1.821-.5,2.639,2.639,0,0,1,1.987.662,2.125,2.125,0,0,1,.662,1.656,2.1,2.1,0,0,1-.165.993,3.465,3.465,0,0,1-.662.993,5.443,5.443,0,0,1-.993.993l-.993.993c-.166.166-.166.331-.331.5Z" transform="translate(-412.6 -10.834)" fill="#b1b1b1"></path>
                    <path d="M419.349,10.9a2.136,2.136,0,0,1,1.821.828A5.694,5.694,0,0,1,422,15.039a5.694,5.694,0,0,1-.828,3.311,2.452,2.452,0,0,1-3.808-.166,5.5,5.5,0,0,1-.662-3.311,5.694,5.694,0,0,1,.828-3.311A2.647,2.647,0,0,1,419.349,10.9Zm0,1.324a.608.608,0,0,0-.5.166.86.86,0,0,0-.331.662,6.876,6.876,0,0,0-.166,2.152,5.713,5.713,0,0,0,.166,1.987c.166.331.166.662.331.662a.828.828,0,0,0,.993,0,.86.86,0,0,0,.331-.662,6.879,6.879,0,0,0,.165-2.152,5.715,5.715,0,0,0-.165-1.987c-.166-.331-.166-.662-.331-.662S419.514,12.224,419.349,12.224Z" transform="translate(-409.912 -10.9)" fill="#b1b1b1"></path>
                </g>
            </g>
            <path d="M498.478,12.224a15.279,15.279,0,0,1-1.324.828v1.49a5.725,5.725,0,0,0,1.987-1.159v5.96H500.8V11.066h-1.325A6.183,6.183,0,0,1,498.478,12.224ZM474.8,14.708a1.653,1.653,0,0,0,.828-.662,2.353,2.353,0,0,0,.331-.993,1.614,1.614,0,0,0-.662-1.49,3.013,3.013,0,0,0-1.821-.662,2.063,2.063,0,0,0-1.821.662,1.8,1.8,0,0,0-.662,1.49,2.353,2.353,0,0,0,.331.993,1.653,1.653,0,0,0,.828.662,1.7,1.7,0,0,0-.993.828,3.069,3.069,0,0,0-.331,1.159,2.742,2.742,0,0,0,.828,1.987,3.472,3.472,0,0,0,1.821.662,2.639,2.639,0,0,0,1.987-.662,2.49,2.49,0,0,0,.662-1.821A2.393,2.393,0,0,0,475.8,15.7C475.63,15.2,475.3,15.039,474.8,14.708Zm-1.987-2.318a1.255,1.255,0,0,1,.662-.331.86.86,0,0,1,.662.331,1.256,1.256,0,0,1,.331.662.86.86,0,0,1-.331.662,1.255,1.255,0,0,1-.662.331.86.86,0,0,1-.662-.331,1.255,1.255,0,0,1-.331-.662C472.485,12.887,472.65,12.721,472.816,12.39Zm1.49,5.464a1.2,1.2,0,0,1-1.656,0,1.775,1.775,0,0,1-.331-.993,1.265,1.265,0,0,1,.331-.828c.166-.331.5-.331.828-.331a1.264,1.264,0,0,1,.828.331,1.4,1.4,0,0,1,.331.993A2.8,2.8,0,0,1,474.306,17.854Zm61.423-1.49.993-.993a3.463,3.463,0,0,0,.662-.993,2.1,2.1,0,0,0,.166-.993,2.126,2.126,0,0,0-.662-1.656,2.639,2.639,0,0,0-1.987-.662,2.974,2.974,0,0,0-1.821.5,2.136,2.136,0,0,0-.828,1.821l1.656.166a1.4,1.4,0,0,1,.331-.993,1.159,1.159,0,0,1,1.987.828,2.353,2.353,0,0,1-.331.993L534.57,15.7a16.589,16.589,0,0,0-1.821,1.987,2.8,2.8,0,0,0-.5,1.656h5.629v-1.49h-3.146c.166-.166.166-.331.331-.5C534.9,17.191,535.233,16.86,535.729,16.364ZM237.719,12.39a15.258,15.258,0,0,1-1.324.828v1.49a5.725,5.725,0,0,0,1.987-1.159v5.795h1.656V11.066h-1.325A2.574,2.574,0,0,1,237.719,12.39Zm-5.795,0a15.284,15.284,0,0,1-1.324.828v1.49a5.725,5.725,0,0,0,1.987-1.159v5.795h1.656V11.066h-1.324A3.986,3.986,0,0,1,231.924,12.39Zm234.269-.166a15.289,15.289,0,0,1-1.324.828v1.49a5.725,5.725,0,0,0,1.987-1.159v5.96h1.656V11.066h-1.324A6.186,6.186,0,0,1,466.194,12.224Zm76.986-.5a2.659,2.659,0,0,0-1.821-.828,2.136,2.136,0,0,0-1.821.828,5.7,5.7,0,0,0-.828,3.311,7.125,7.125,0,0,0,.662,3.311,2.36,2.36,0,0,0,1.987.993,2.136,2.136,0,0,0,1.821-.828,5.694,5.694,0,0,0,.828-3.311C544.007,13.549,543.842,12.39,543.179,11.728Zm-.993,5.464c-.166.331-.166.5-.331.662a.828.828,0,0,1-.993,0,.86.86,0,0,1-.331-.662,5.714,5.714,0,0,1-.166-1.987,7.472,7.472,0,0,1,.166-2.152.86.86,0,0,1,.331-.662.828.828,0,0,1,.993,0,.86.86,0,0,1,.331.662,5.71,5.71,0,0,1,.166,1.987A6.872,6.872,0,0,1,542.186,17.191ZM505.6,10.9a2.826,2.826,0,0,0-2.815,2.815,2.639,2.639,0,0,0,.662,1.987,2.3,2.3,0,0,0,1.656.828,1.614,1.614,0,0,0,1.49-.662c0,.993-.166,1.656-.5,1.821a.91.91,0,0,1-.828.5c-.331,0-.5,0-.662-.166a.86.86,0,0,1-.331-.662l-1.49.166a2.229,2.229,0,0,0,.828,1.49,2.311,2.311,0,0,0,1.49.5,2.67,2.67,0,0,0,2.152-.993,5.694,5.694,0,0,0,.828-3.311,5.116,5.116,0,0,0-.828-3.146A1.485,1.485,0,0,0,505.6,10.9Zm.828,3.973a1.2,1.2,0,0,1-1.656,0,2.193,2.193,0,0,1,0-2.318,1.255,1.255,0,0,1,.662-.331.911.911,0,0,1,.828.5,2.393,2.393,0,0,1,.331,1.159A.928.928,0,0,1,506.425,14.873ZM273.977,16.529l.993-.993a3.464,3.464,0,0,0,.662-.993,2.1,2.1,0,0,0,.166-.993,2.126,2.126,0,0,0-.662-1.656,2.639,2.639,0,0,0-1.987-.662,2.974,2.974,0,0,0-1.821.5,2.136,2.136,0,0,0-.828,1.821l1.656.166a1.4,1.4,0,0,1,.331-.993,1.159,1.159,0,0,1,1.987.828,2.353,2.353,0,0,1-.331.993l-1.324,1.324A16.6,16.6,0,0,0,271,17.854a2.8,2.8,0,0,0-.5,1.656h5.629v-1.49h-3.477c.166-.166.166-.331.331-.5ZM339.7,11.066H338.38l-3.642,5.3v1.324h3.477v1.656h1.49V17.688h.993V16.364H339.7Zm-1.49,5.3h-1.987l1.987-2.815Zm-7.781-3.973a15.284,15.284,0,0,1-1.324.828v1.49a5.725,5.725,0,0,0,1.987-1.159v5.795h1.656V11.066h-1.324A3.986,3.986,0,0,1,330.433,12.39Zm-23.841,2.483a1.932,1.932,0,0,0,1.159-1.821,1.506,1.506,0,0,0-.662-1.324,2.659,2.659,0,0,0-1.821-.828,2.393,2.393,0,0,0-1.159.331,1.652,1.652,0,0,0-.828.662,8.061,8.061,0,0,0-.5,1.159l1.49.331a1.149,1.149,0,0,1,.993-1.159.86.86,0,0,1,.662.331.86.86,0,0,1,.331.662,1.265,1.265,0,0,1-.331.828,1.4,1.4,0,0,1-.993.331l-.166,1.324c.331,0,.5-.166.662-.166.331,0,.5.166.828.331a1.4,1.4,0,0,1,.331.993,1.4,1.4,0,0,1-.331.993c-.166.331-.5.331-.828.331s-.5-.166-.828-.331a1.264,1.264,0,0,1-.331-.828l-1.49.166a2.038,2.038,0,0,0,.828,1.656,2.49,2.49,0,0,0,1.821.662,2.742,2.742,0,0,0,1.987-.828,2.659,2.659,0,0,0,.828-1.821,1.88,1.88,0,0,0-.5-1.324A1.676,1.676,0,0,0,306.593,14.873ZM265.864,12.39a15.275,15.275,0,0,1-1.324.828v1.49a5.725,5.725,0,0,0,1.987-1.159v5.795h1.656V11.066h-1.325A3.984,3.984,0,0,1,265.864,12.39Zm32.284-.166a15.284,15.284,0,0,1-1.324.828v1.49a5.725,5.725,0,0,0,1.987-1.159v5.96h1.656V11.066h-1.324A6.189,6.189,0,0,1,298.149,12.224Zm133.277.166a15.288,15.288,0,0,1-1.324.828v1.49a5.726,5.726,0,0,0,1.987-1.159v5.795h1.656V11.066h-1.324A3.986,3.986,0,0,1,431.426,12.39Zm4.636.331H439.7a11.988,11.988,0,0,0-1.821,3.146,8.646,8.646,0,0,0-.662,3.477h1.49a17.219,17.219,0,0,1,.331-2.483,12.55,12.55,0,0,1,.993-2.649,10.421,10.421,0,0,1,1.324-1.821V11.231H435.9v1.49ZM407.75,13.88a1.614,1.614,0,0,0-1.49.662c0-.993.166-1.656.5-1.821a.91.91,0,0,1,.828-.5c.331,0,.5,0,.662.166a.86.86,0,0,1,.331.662l1.49-.166a2.229,2.229,0,0,0-.828-1.49,2.311,2.311,0,0,0-1.49-.5,2.67,2.67,0,0,0-2.152.993,5.694,5.694,0,0,0-.828,3.311,5.116,5.116,0,0,0,.828,3.146,2.36,2.36,0,0,0,1.987.993,2.826,2.826,0,0,0,2.815-2.815,2.639,2.639,0,0,0-.662-1.987A3.527,3.527,0,0,0,407.75,13.88Zm.5,3.808a1.255,1.255,0,0,1-.662.331c-.331,0-.5-.166-.828-.5a2.393,2.393,0,0,1-.331-1.159,1.4,1.4,0,0,1,.331-.993,1.2,1.2,0,0,1,1.656,0,2.393,2.393,0,0,1,.331,1.159A2.551,2.551,0,0,1,408.247,17.688Zm-35.43-3.973a4.211,4.211,0,0,0-1.159.331l.331-1.324h2.98V11.066H370.83L370,15.37l1.324.166a2.1,2.1,0,0,1,1.159-.662,1.265,1.265,0,0,1,.828.331,2.394,2.394,0,0,1,.331,1.159,1.93,1.93,0,0,1-.331,1.159c-.166.331-.5.331-.828.331s-.5-.166-.828-.331a1.264,1.264,0,0,1-.331-.828l-1.656.166a2.646,2.646,0,0,0,.828,1.656,3.472,3.472,0,0,0,1.821.662,2.685,2.685,0,0,0,2.318-1.159A3.472,3.472,0,0,0,375.3,16.2a2.639,2.639,0,0,0-.662-1.987A4.8,4.8,0,0,0,372.817,13.715Zm-7.616-1.49a15.284,15.284,0,0,1-1.324.828v1.49a5.725,5.725,0,0,0,1.987-1.159v5.96h1.656V11.066h-1.324A6.186,6.186,0,0,1,365.2,12.224Zm34.768,0a15.275,15.275,0,0,1-1.324.828v1.49a5.725,5.725,0,0,0,1.987-1.159v5.96h1.656V11.066h-1.324A6.185,6.185,0,0,1,399.969,12.224Z" transform="translate(151.184 7.146)" fill="#b1b1b1"></path>
        </g>
    </g>
</svg>