<svg xmlns="http://www.w3.org/2000/svg" xmlns:xlink="http://www.w3.org/1999/xlink" width="360" height="200" viewBox="0 0 360 200"><defs><clipPath id="a"><rect width="360" height="200" transform="translate(-519.882 902.529)" fill="none"/></clipPath></defs><g transform="translate(519.883 -902.529)"><g clip-path="url(#a)"><g opacity="0.75"><path d="M-516.7,1100.831l.042-18.571A176.667,176.667,0,0,1-339.592,906a176.666,176.666,0,0,1,176.266,177.066h0l-.04,17.717Z" fill="#fff"/><path d="M-517.2,1102.261l.043-19.163a176.845,176.845,0,0,1,52.423-125.751A176.833,176.833,0,0,1-339.163,905.5h.415A176.845,176.845,0,0,1-213,957.918a176.841,176.841,0,0,1,51.852,125.988l-.041,18.3h-.5ZM-339.163,906.5a175.824,175.824,0,0,0-124.863,51.559A175.84,175.84,0,0,0-516.153,1083.1l-.041,18.156,354.006-.052.039-17.3a175.842,175.842,0,0,0-51.56-125.277A175.845,175.845,0,0,0-338.75,906.5Z" transform="translate(-0.841 -0.465)"/></g><path d="M-339.98,1077.347l-.008,3.543m-.008,3.543-.008,3.543" fill="#fff"/><path d="M-339.754,1087.977l-.5,0,.008-3.543.5,0Zm.016-7.086-.5,0,.009-3.543.5,0Z"/><path d="M-345.307,1082.645l3.543.008m3.543.008,3.544.008" fill="#fff"/><path d="M-334.677,1082.919l-3.544-.008v-.5l3.544.008Zm-7.087-.016-3.543-.008v-.5l3.543.008Z"/><path d="M-339.992,1084.429h0a1.774,1.774,0,0,1-1.767-1.776,1.774,1.774,0,0,1,1.771-1.766h0a1.772,1.772,0,0,1,1.767,1.775A1.773,1.773,0,0,1-339.992,1084.429Zm0-3.042a1.273,1.273,0,0,0-1.271,1.268,1.274,1.274,0,0,0,1.268,1.274h0a1.272,1.272,0,0,0,1.271-1.269,1.264,1.264,0,0,0-.37-.9,1.266,1.266,0,0,0-.9-.374Z"/><path d="M-192.529,1052.064l-.152-.87,5.517-.96a4.618,4.618,0,0,1-.733-.713,5.967,5.967,0,0,1-.6-.834l.837-.145a5.315,5.315,0,0,0,1.049,1.126,3.3,3.3,0,0,0,1.076.6l.1.558Zm6.525,1.209.832-.145.794,4.566-.673.117a9.788,9.788,0,0,0-2.138-1,11.791,11.791,0,0,0-2.621-.6,9.185,9.185,0,0,0-2,.008l-.155-.887a8.817,8.817,0,0,1,2.067-.028,10.722,10.722,0,0,1,2.429.5,9.923,9.923,0,0,1,2.062.923Zm-1.708,5.887a6.523,6.523,0,0,1,2.058-.093,2.536,2.536,0,0,1,1.309.56,1.983,1.983,0,0,1,.637,1.208,2.115,2.115,0,0,1-.055,1.036,1.932,1.932,0,0,1-.536.822,3.589,3.589,0,0,1-.974.61,7.064,7.064,0,0,1-1.639.452,6.59,6.59,0,0,1-2.045.088,2.545,2.545,0,0,1-1.314-.552,1.983,1.983,0,0,1-.639-1.209,1.967,1.967,0,0,1,.451-1.734A4.715,4.715,0,0,1-187.712,1059.16Zm.155.886a4.5,4.5,0,0,0-2.241.809,1.217,1.217,0,0,0-.4,1.1,1.215,1.215,0,0,0,.752.9,4.492,4.492,0,0,0,2.38,0,4.484,4.484,0,0,0,2.243-.809,1.228,1.228,0,0,0,.4-1.112,1.126,1.126,0,0,0-.671-.865A4.555,4.555,0,0,0-187.557,1060.046Z"/><path d="M-199.881,1027.378l-.3-.831,5.269-1.9a4.555,4.555,0,0,1-.846-.575,5.909,5.909,0,0,1-.742-.716l.8-.289a5.318,5.318,0,0,0,1.228.927,3.3,3.3,0,0,0,1.166.41l.192.532Zm7.4,4.571-.361-.8a1.653,1.653,0,0,0,.6-.568,1.167,1.167,0,0,0,.055-.955,1.2,1.2,0,0,0-.471-.613,1.991,1.991,0,0,0-1.054-.315,4.62,4.62,0,0,0-1.641.328,2.043,2.043,0,0,1,.939.486,2.082,2.082,0,0,1,.547.826,1.993,1.993,0,0,1-.1,1.622,2.323,2.323,0,0,1-1.363,1.15,2.756,2.756,0,0,1-1.276.151,2.122,2.122,0,0,1-1.106-.451,2.19,2.19,0,0,1-.683-.972,2.255,2.255,0,0,1,.151-1.961,4.084,4.084,0,0,1,2.272-1.553,4.776,4.776,0,0,1,3.1-.3,2.2,2.2,0,0,1,1.384,1.414,2.023,2.023,0,0,1,.024,1.463A2.007,2.007,0,0,1-192.481,1031.949Zm-4.123-2.327a2.048,2.048,0,0,0-.751.477,1.445,1.445,0,0,0-.411.723,1.346,1.346,0,0,0,.041.757,1.242,1.242,0,0,0,.748.748,1.765,1.765,0,0,0,1.285-.039,1.656,1.656,0,0,0,.964-.773,1.3,1.3,0,0,0,.061-1.086,1.353,1.353,0,0,0-.741-.8A1.542,1.542,0,0,0-196.6,1029.622Zm2.7,3.91a6.551,6.551,0,0,1,2.011-.449,2.544,2.544,0,0,1,1.387.324,1.991,1.991,0,0,1,.837,1.081,2.125,2.125,0,0,1,.125,1.03,1.931,1.931,0,0,1-.385.9,3.6,3.6,0,0,1-.854.77,7.091,7.091,0,0,1-1.536.73,6.539,6.539,0,0,1-2,.441,2.546,2.546,0,0,1-1.391-.315,1.99,1.99,0,0,1-.838-1.08,1.963,1.963,0,0,1,.143-1.786A4.721,4.721,0,0,1-193.9,1033.532Zm.306.847a4.488,4.488,0,0,0-2.067,1.186,1.218,1.218,0,0,0-.2,1.155,1.216,1.216,0,0,0,.9.758,4.491,4.491,0,0,0,2.345-.409,4.481,4.481,0,0,0,2.069-1.187,1.222,1.222,0,0,0,.2-1.163,1.128,1.128,0,0,0-.811-.736A4.539,4.539,0,0,0-193.6,1034.379Z"/><path d="M-189.268,1078.081l0-.883,5.6.013a4.572,4.572,0,0,1-.6-.83,6,6,0,0,1-.452-.926l.85,0a5.308,5.308,0,0,0,.837,1.291,3.3,3.3,0,0,0,.956.783l0,.566Zm3.874,3.609a1.66,1.66,0,0,1,.573-.81,1.5,1.5,0,0,1,.89-.262,1.736,1.736,0,0,1,1.311.565,2.08,2.08,0,0,1,.529,1.5,2.1,2.1,0,0,1-.547,1.508,1.763,1.763,0,0,1-1.328.568,1.465,1.465,0,0,1-.866-.263,1.641,1.641,0,0,1-.567-.794,1.926,1.926,0,0,1-.7,1,1.9,1.9,0,0,1-1.143.342,2.057,2.057,0,0,1-1.544-.65,2.361,2.361,0,0,1-.618-1.71,2.355,2.355,0,0,1,.631-1.708,2.085,2.085,0,0,1,1.566-.645,1.892,1.892,0,0,1,1.17.356,1.777,1.777,0,0,1,.639,1.01Zm1.49-.173a1.116,1.116,0,0,0-.831.325,1.16,1.16,0,0,0-.324.849,1.138,1.138,0,0,0,.318.834,1.057,1.057,0,0,0,.783.327,1.1,1.1,0,0,0,.814-.332,1.137,1.137,0,0,0,.332-.832,1.152,1.152,0,0,0-.32-.836,1.036,1.036,0,0,0-.772-.331Zm-3.306-.29a1.576,1.576,0,0,0-.728.176,1.255,1.255,0,0,0-.545.529,1.542,1.542,0,0,0-.195.76,1.415,1.415,0,0,0,.4,1.041,1.386,1.386,0,0,0,1.029.413,1.414,1.414,0,0,0,1.051-.42,1.449,1.449,0,0,0,.417-1.057,1.386,1.386,0,0,0-.408-1.029,1.4,1.4,0,0,0-1.024-.409Zm1.455,4.679a6.529,6.529,0,0,1,2.042.266,2.531,2.531,0,0,1,1.192.778,1.98,1.98,0,0,1,.417,1.3,2.113,2.113,0,0,1-.234,1.011,1.93,1.93,0,0,1-.671.716,3.6,3.6,0,0,1-1.065.432,7.069,7.069,0,0,1-1.692.16,6.569,6.569,0,0,1-2.029-.269,2.541,2.541,0,0,1-1.2-.771,1.993,1.993,0,0,1-.419-1.3,1.967,1.967,0,0,1,.746-1.63A4.719,4.719,0,0,1-185.755,1085.906Zm0,.9a4.486,4.486,0,0,0-2.347.408,1.216,1.216,0,0,0-.587,1.015,1.217,1.217,0,0,0,.584,1.02,4.5,4.5,0,0,0,2.343.417,4.477,4.477,0,0,0,2.35-.408,1.223,1.223,0,0,0,.583-1.025,1.126,1.126,0,0,0-.51-.969A4.544,4.544,0,0,0-185.757,1086.806Z"/><path d="M-199.917,1080.645a6.567,6.567,0,0,1,2.043.27,2.545,2.545,0,0,1,1.192.779,1.98,1.98,0,0,1,.417,1.3,2.116,2.116,0,0,1-.234,1.011,1.93,1.93,0,0,1-.671.716,3.58,3.58,0,0,1-1.065.442,7.077,7.077,0,0,1-1.693.147,6.567,6.567,0,0,1-2.029-.262,2.539,2.539,0,0,1-1.2-.776,1.988,1.988,0,0,1-.419-1.3,1.967,1.967,0,0,1,.746-1.627A4.714,4.714,0,0,1-199.917,1080.645Zm0,.9a4.493,4.493,0,0,0-2.346.41,1.217,1.217,0,0,0-.587,1.017,1.214,1.214,0,0,0,.585,1.019,4.493,4.493,0,0,0,2.342.42,4.486,4.486,0,0,0,2.35-.409,1.226,1.226,0,0,0,.583-1.027,1.124,1.124,0,0,0-.511-.968,4.533,4.533,0,0,0-2.416-.458Z" fill="#1ab395"/><path d="M-205.991,1057.1l-.151-.866,5.518-.96a4.57,4.57,0,0,1-.734-.717,5.884,5.884,0,0,1-.606-.833l.837-.146a5.341,5.341,0,0,0,1.049,1.126,3.31,3.31,0,0,0,1.071.608l.1.558Zm3.864,1.612a6.552,6.552,0,0,1,2.058-.093,2.542,2.542,0,0,1,1.31.56,1.984,1.984,0,0,1,.636,1.209,2.116,2.116,0,0,1-.055,1.036,1.944,1.944,0,0,1-.536.822,3.59,3.59,0,0,1-.972.619,7.025,7.025,0,0,1-1.641.446,6.56,6.56,0,0,1-2.044.093,2.535,2.535,0,0,1-1.315-.557,1.978,1.978,0,0,1-.639-1.208,1.962,1.962,0,0,1,.452-1.73A4.716,4.716,0,0,1-202.127,1058.717Zm.154.887a4.5,4.5,0,0,0-2.241.809,1.219,1.219,0,0,0-.4,1.106,1.217,1.217,0,0,0,.752.9,4.5,4.5,0,0,0,2.38.005,4.5,4.5,0,0,0,2.244-.81,1.226,1.226,0,0,0,.4-1.112,1.126,1.126,0,0,0-.671-.865,4.546,4.546,0,0,0-2.46-.033Z" fill="#1ab395"/><path d="M-210.942,1036.04l-.795.287-1.608-4.451a1.56,1.56,0,0,1,.607-.114,3.224,3.224,0,0,1,1.093.222,9.047,9.047,0,0,1,1.41.713,9.8,9.8,0,0,0,1.964.97,1.81,1.81,0,0,0,1.134.027,1.173,1.173,0,0,0,.7-.651,1.348,1.348,0,0,0,.007-1.038,1.374,1.374,0,0,0-.7-.823,1.44,1.44,0,0,0-1.123,0l-.219-.879a2.225,2.225,0,0,1,1.688.135,2.382,2.382,0,0,1,1.051,1.35,2.264,2.264,0,0,1,.017,1.728,1.876,1.876,0,0,1-1.132,1.039,2.138,2.138,0,0,1-.854.121,3.275,3.275,0,0,1-1.021-.251,14.2,14.2,0,0,1-1.646-.847q-.893-.517-1.192-.65a2.88,2.88,0,0,0-.574-.187Zm2.846-.026a6.532,6.532,0,0,1,2.012-.449,2.538,2.538,0,0,1,1.387.324,1.988,1.988,0,0,1,.837,1.08,2.128,2.128,0,0,1,.125,1.03,1.929,1.929,0,0,1-.386.9,3.561,3.561,0,0,1-.85.779,7,7,0,0,1-1.539.724,6.561,6.561,0,0,1-2,.447,2.542,2.542,0,0,1-1.392-.321,1.981,1.981,0,0,1-.839-1.079,1.963,1.963,0,0,1,.145-1.783A4.719,4.719,0,0,1-208.1,1036.014Zm.306.847a4.487,4.487,0,0,0-2.067,1.185,1.215,1.215,0,0,0-.2,1.159,1.214,1.214,0,0,0,.9.759,4.5,4.5,0,0,0,2.345-.408,4.49,4.49,0,0,0,2.07-1.187,1.226,1.226,0,0,0,.2-1.165,1.125,1.125,0,0,0-.811-.735,4.547,4.547,0,0,0-2.428.394Z" fill="#1ab395"/><path d="M-211.528,1004.071l-.44-.766,4.856-2.789a4.544,4.544,0,0,1-.933-.419,5.941,5.941,0,0,1-.854-.576l.737-.424a5.31,5.31,0,0,0,1.37.7,3.29,3.29,0,0,0,1.219.2l.282.491Zm2.747,1.018.527.761a1.652,1.652,0,0,0-.641.918,1.288,1.288,0,0,0,.154.949,1.4,1.4,0,0,0,.95.693,1.8,1.8,0,0,0,1.32-.252,1.63,1.63,0,0,0,.819-.957,1.47,1.47,0,0,0-.175-1.174,1.522,1.522,0,0,0-.549-.569,1.489,1.489,0,0,0-.7-.217l-.318-.768,3.534-1.231,1.773,3.087-.729.419-1.422-2.477-1.859.621a2.328,2.328,0,0,1,1.061.952,2.143,2.143,0,0,1,.228,1.694,2.273,2.273,0,0,1-1.127,1.391,2.608,2.608,0,0,1-1.739.346,2.273,2.273,0,0,1-1.693-1.2,2.32,2.32,0,0,1-.319-1.655A2.134,2.134,0,0,1-208.781,1005.089Zm4.207,4a6.561,6.561,0,0,1,1.9-.791,2.538,2.538,0,0,1,1.421.078,1.984,1.984,0,0,1,1.012.918,2.1,2.1,0,0,1,.3.993,1.924,1.924,0,0,1-.222.955,3.561,3.561,0,0,1-.707.907,7.062,7.062,0,0,1-1.385.985,6.587,6.587,0,0,1-1.892.782,2.54,2.54,0,0,1-1.424-.07,1.988,1.988,0,0,1-1.013-.917,1.964,1.964,0,0,1-.169-1.784A4.72,4.72,0,0,1-204.574,1009.091Zm.448.781a4.483,4.483,0,0,0-1.829,1.526,1.219,1.219,0,0,0,0,1.173,1.216,1.216,0,0,0,1.015.591,4.5,4.5,0,0,0,2.238-.81,4.493,4.493,0,0,0,1.831-1.528,1.227,1.227,0,0,0-.008-1.18,1.123,1.123,0,0,0-.926-.583A4.535,4.535,0,0,0-204.126,1009.872Z"/><path d="M-222.449,1009.408l.539.7a1.929,1.929,0,0,0-.677.983,1.272,1.272,0,0,0,.155.933,1.423,1.423,0,0,0,.894.694,1.449,1.449,0,0,0,1.135-.16,1.346,1.346,0,0,0,.668-.845,1.363,1.363,0,0,0-.16-1.068,2.543,2.543,0,0,0-.395-.488l.718-.3a1.254,1.254,0,0,0,.062.128,1.811,1.811,0,0,0,.758.731,1,1,0,0,0,1-.059,1.074,1.074,0,0,0,.531-.682,1.167,1.167,0,0,0-.146-.891,1.205,1.205,0,0,0-.7-.58,1.617,1.617,0,0,0-1.057.1l-.3-.84a2.26,2.26,0,0,1,1.559-.047,2.113,2.113,0,0,1,1.13.989,2.339,2.339,0,0,1,.319,1.061,1.806,1.806,0,0,1-.219.995,1.76,1.76,0,0,1-.67.686,1.505,1.505,0,0,1-.857.205,1.7,1.7,0,0,1-.892-.337,1.653,1.653,0,0,1-.036,1.157,1.85,1.85,0,0,1-.826.881,2.116,2.116,0,0,1-1.719.2,2.4,2.4,0,0,1-1.426-1.174,2.25,2.25,0,0,1-.292-1.637A2.171,2.171,0,0,1-222.449,1009.408Zm4.19,4a6.534,6.534,0,0,1,1.9-.791,2.541,2.541,0,0,1,1.422.078,1.988,1.988,0,0,1,1.012.918,2.119,2.119,0,0,1,.3.992,1.926,1.926,0,0,1-.223.956,3.6,3.6,0,0,1-.7.915,7.1,7.1,0,0,1-1.39.98,6.569,6.569,0,0,1-1.889.787,2.547,2.547,0,0,1-1.426-.074,1.981,1.981,0,0,1-1.013-.917,1.961,1.961,0,0,1-.167-1.781A4.717,4.717,0,0,1-218.259,1013.41Zm.448.781a4.484,4.484,0,0,0-1.829,1.526,1.217,1.217,0,0,0,0,1.176,1.214,1.214,0,0,0,1.015.591,4.488,4.488,0,0,0,2.239-.809,4.487,4.487,0,0,0,1.831-1.528,1.224,1.224,0,0,0-.008-1.181,1.127,1.127,0,0,0-.927-.583,4.546,4.546,0,0,0-2.322.81Z" fill="#1ab395"/><path d="M-227.367,982.7l-.566-.677,4.3-3.591a4.534,4.534,0,0,1-.991-.251,5.916,5.916,0,0,1-.942-.419l.653-.545a5.3,5.3,0,0,0,1.471.451,3.288,3.288,0,0,0,1.235-.015l.363.435Zm3.25,3.891,1.316-1.1-1.992-2.384.619-.517,5.654-.467.461.551-3.56,2.974.621.744-.618.517-.621-.744-1.316,1.1Zm1.934-1.616,2.477-2.07-3.914.349Zm2.538,1.461a6.55,6.55,0,0,1,1.735-1.11,2.547,2.547,0,0,1,1.414-.17,1.984,1.984,0,0,1,1.156.728,2.116,2.116,0,0,1,.47.925,1.929,1.929,0,0,1-.053.98,3.579,3.579,0,0,1-.538,1.016,7.078,7.078,0,0,1-1.193,1.21,6.562,6.562,0,0,1-1.728,1.1,2.547,2.547,0,0,1-1.414.179,1.985,1.985,0,0,1-1.157-.727,1.966,1.966,0,0,1-.477-1.728A4.718,4.718,0,0,1-219.645,986.431Zm.577.691a4.487,4.487,0,0,0-1.536,1.821,1.218,1.218,0,0,0,.2,1.155,1.216,1.216,0,0,0,1.1.406,4.5,4.5,0,0,0,2.063-1.187,4.486,4.486,0,0,0,1.538-1.824,1.224,1.224,0,0,0-.213-1.16,1.128,1.128,0,0,0-1.014-.414A4.539,4.539,0,0,0-219.068,987.122Z"/><path d="M-236.316,993.914l1.315-1.1-1.992-2.384.619-.517,5.655-.467.46.551-3.56,2.974.62.743-.618.516-.62-.742-1.316,1.1Zm1.934-1.616,2.476-2.07-3.913.35Zm2.534,1.458a6.573,6.573,0,0,1,1.736-1.11,2.538,2.538,0,0,1,1.414-.171,1.987,1.987,0,0,1,1.156.729,2.118,2.118,0,0,1,.471.925,1.941,1.941,0,0,1-.053.98,3.614,3.614,0,0,1-.532,1.023,7.125,7.125,0,0,1-1.2,1.207,6.619,6.619,0,0,1-1.724,1.1,2.552,2.552,0,0,1-1.418.175,1.988,1.988,0,0,1-1.157-.727,1.964,1.964,0,0,1-.474-1.725A4.721,4.721,0,0,1-231.848,993.756Zm.577.691a4.484,4.484,0,0,0-1.535,1.821,1.216,1.216,0,0,0,.206,1.158,1.216,1.216,0,0,0,1.1.406,4.5,4.5,0,0,0,2.064-1.186,4.494,4.494,0,0,0,1.538-1.824,1.224,1.224,0,0,0-.214-1.161,1.124,1.124,0,0,0-1.014-.413,4.544,4.544,0,0,0-2.146,1.2Z" fill="#1ab395"/><rect width="0.5" height="17.717" transform="translate(-180.544 1083.269) rotate(-89.871)"/><rect width="17.714" height="0.5" transform="translate(-182.944 1055.088) rotate(-9.904)"/><rect width="17.716" height="0.5" transform="matrix(0.996, -0.084, 0.084, 0.996, -181.139, 1068.865)"/><rect width="17.718" height="0.5" transform="translate(-190.121 1028.225) rotate(-19.849)"/><rect width="17.411" height="0.5" transform="translate(-185.698 1041.239) rotate(-14.253)"/><path d="M-194.876,1015.44l-.211-.453,16.067-7.457.211.453Z"/><rect width="17.715" height="0.5" transform="translate(-208.975 990.921) rotate(-34.9)"/><rect width="17.715" height="0.5" transform="translate(-201.509 1002.647) rotate(-29.87)"/><rect width="17.712" height="0.499" transform="matrix(0.708, -0.706, 0.706, 0.708, -226.833, 969.626)"/><rect width="17.714" height="0.499" transform="matrix(0.767, -0.642, 0.642, 0.767, -217.436, 979.89)"/><rect width="17.717" height="0.5" transform="translate(-237.432 960.812) rotate(-49.836)"/><path d="M-259.752,945.1l-.432-.25,8.9-15.322.432.25Z"/><rect width="17.719" height="0.499" transform="matrix(0.575, -0.818, 0.818, 0.575, -248.451, 952.34)"/><rect width="17.72" height="0.499" transform="translate(-285.362 933.083) rotate(-69.864)"/><path d="M-272.061,938.63l-.452-.213,7.527-16.038.452.213Z"/><path d="M-298.133,928.8l-.481-.131,4.624-17.1.481.131Z"/><rect width="17.72" height="0.499" transform="translate(-325.88 924.004) rotate(-84.836)"/><rect width="17.718" height="0.499" transform="translate(-312.093 925.831) rotate(-79.856)"/><path d="M-339.38,923.211l-.5,0,.04-17.716.5,0Z"/><path d="M-246.657,964.5l-.675-.569,3.611-4.281a4.589,4.589,0,0,1-1.02-.075,5.925,5.925,0,0,1-1-.25l.548-.65a5.282,5.282,0,0,0,1.527.189,3.3,3.3,0,0,0,1.214-.228l.433.365Zm2.944.01.747.477a1.94,1.94,0,0,0-.3,1.156,1.272,1.272,0,0,0,.465.823,1.42,1.42,0,0,0,1.078.347,1.45,1.45,0,0,0,1.013-.538,1.348,1.348,0,0,0,.339-1.022,1.37,1.37,0,0,0-.513-.946,2.555,2.555,0,0,0-.538-.323l.573-.525q.05.052.1.1a1.808,1.808,0,0,0,.962.424,1,1,0,0,0,.923-.4,1.066,1.066,0,0,0,.266-.822,1.161,1.161,0,0,0-.438-.791,1.2,1.2,0,0,0-.861-.3,1.617,1.617,0,0,0-.959.457l-.571-.686a2.26,2.26,0,0,1,1.441-.575,2.12,2.12,0,0,1,1.4.544,2.343,2.343,0,0,1,.663.888,1.813,1.813,0,0,1,.134,1.01,1.759,1.759,0,0,1-.4.874,1.525,1.525,0,0,1-.735.486,1.71,1.71,0,0,1-.954-.013,1.663,1.663,0,0,1,.362,1.1,1.85,1.85,0,0,1-.476,1.11,2.113,2.113,0,0,1-1.546.774,2.4,2.4,0,0,1-1.742-.616,2.25,2.25,0,0,1-.834-1.438A2.168,2.168,0,0,1-243.713,964.511Zm5.309,2.331a6.526,6.526,0,0,1,1.516-1.393,2.542,2.542,0,0,1,1.363-.413,1.991,1.991,0,0,1,1.265.517,2.118,2.118,0,0,1,.623.83,1.927,1.927,0,0,1,.118.974,3.6,3.6,0,0,1-.354,1.093,7.091,7.091,0,0,1-.966,1.4,6.569,6.569,0,0,1-1.51,1.381,2.542,2.542,0,0,1-1.362.422,1.985,1.985,0,0,1-1.266-.516,1.96,1.96,0,0,1-.768-1.618A4.714,4.714,0,0,1-238.4,966.842Zm.688.581a4.479,4.479,0,0,0-1.2,2.06,1.216,1.216,0,0,0,.4,1.1,1.215,1.215,0,0,0,1.156.208,4.483,4.483,0,0,0,1.826-1.526,4.5,4.5,0,0,0,1.2-2.062,1.228,1.228,0,0,0-.411-1.107,1.126,1.126,0,0,0-1.07-.231A4.531,4.531,0,0,0-237.716,967.423Z"/><path d="M-254.5,973.87l.756.536a1.658,1.658,0,0,0-.29,1.08,1.294,1.294,0,0,0,.47.84,1.4,1.4,0,0,0,1.13.326,1.8,1.8,0,0,0,1.154-.688,1.631,1.631,0,0,0,.443-1.179,1.473,1.473,0,0,0-.565-1.043,1.526,1.526,0,0,0-.711-.347,1.492,1.492,0,0,0-.733.036l-.562-.614,2.9-2.366,2.721,2.295-.541.642-2.182-1.84-1.533,1.221a2.32,2.32,0,0,1,1.324.529,2.141,2.141,0,0,1,.79,1.515,2.27,2.27,0,0,1-.585,1.7,2.613,2.613,0,0,1-1.517.919,2.268,2.268,0,0,1-2-.548,2.316,2.316,0,0,1-.866-1.446A2.139,2.139,0,0,1-254.5,973.87Zm5.319,2.32a6.552,6.552,0,0,1,1.517-1.394,2.542,2.542,0,0,1,1.363-.413,1.991,1.991,0,0,1,1.265.517,2.119,2.119,0,0,1,.624.83,1.939,1.939,0,0,1,.117.974,3.58,3.58,0,0,1-.346,1.1,7.131,7.131,0,0,1-.971,1.4,6.553,6.553,0,0,1-1.507,1.385,2.542,2.542,0,0,1-1.365.418,1.981,1.981,0,0,1-1.266-.515,1.965,1.965,0,0,1-.766-1.616A4.723,4.723,0,0,1-249.177,976.19Zm.688.581a4.488,4.488,0,0,0-1.2,2.06,1.217,1.217,0,0,0,.4,1.1,1.216,1.216,0,0,0,1.156.209,4.486,4.486,0,0,0,1.827-1.526,4.481,4.481,0,0,0,1.2-2.062,1.225,1.225,0,0,0-.411-1.107,1.127,1.127,0,0,0-1.07-.232,4.55,4.55,0,0,0-1.906,1.556Z" fill="#1ab395"/><path d="M-268.456,950.116l-.764-.443,2.811-4.844a4.513,4.513,0,0,1-1.017.1,5.9,5.9,0,0,1-1.028-.072l.427-.735a5.348,5.348,0,0,0,1.536-.079,3.311,3.311,0,0,0,1.156-.436l.49.284Zm6.366,2.718-.424.731-4.092-2.375a1.563,1.563,0,0,1,.393-.478,3.228,3.228,0,0,1,.977-.533,9.156,9.156,0,0,1,1.542-.359,9.734,9.734,0,0,0,2.125-.52,1.821,1.821,0,0,0,.885-.708,1.171,1.171,0,0,0,.119-.949,1.347,1.347,0,0,0-.661-.8,1.368,1.368,0,0,0-1.07-.18,1.441,1.441,0,0,0-.864.718l-.731-.532a2.221,2.221,0,0,1,1.379-.981,2.382,2.382,0,0,1,1.672.357,2.272,2.272,0,0,1,1.124,1.313,1.877,1.877,0,0,1-.192,1.526,2.158,2.158,0,0,1-.576.642,3.3,3.3,0,0,1-.943.464,14.555,14.555,0,0,1-1.809.407q-1.017.177-1.33.268a2.835,2.835,0,0,0-.56.226Zm2.167-1.847a6.539,6.539,0,0,1,1.251-1.636,2.543,2.543,0,0,1,1.27-.643,1.986,1.986,0,0,1,1.336.289,2.126,2.126,0,0,1,.758.708,1.939,1.939,0,0,1,.285.939,3.592,3.592,0,0,1-.159,1.138,7.083,7.083,0,0,1-.707,1.546,6.573,6.573,0,0,1-1.248,1.623,2.536,2.536,0,0,1-1.267.652,1.985,1.985,0,0,1-1.336-.287,1.966,1.966,0,0,1-1.039-1.461A4.723,4.723,0,0,1-259.923,950.987Zm.778.452a4.484,4.484,0,0,0-.82,2.236,1.216,1.216,0,0,0,.586,1.016,1.217,1.217,0,0,0,1.175,0,4.494,4.494,0,0,0,1.533-1.821,4.485,4.485,0,0,0,.822-2.239,1.226,1.226,0,0,0-.6-1.018,1.124,1.124,0,0,0-1.094-.041A4.541,4.541,0,0,0-259.145,951.439Z"/><path d="M-269.062,959.835l-.79-.379a1.653,1.653,0,0,0,.091-.818,1.164,1.164,0,0,0-.572-.766,1.211,1.211,0,0,0-.755-.168,2.007,2.007,0,0,0-1.009.437,4.606,4.606,0,0,0-1.046,1.306,2.04,2.04,0,0,1,1.031-.231,2.093,2.093,0,0,1,.95.28,1.992,1.992,0,0,1,.97,1.308,2.324,2.324,0,0,1-.306,1.76,2.763,2.763,0,0,1-.881.937,2.114,2.114,0,0,1-1.136.364,2.177,2.177,0,0,1-1.149-.31,2.254,2.254,0,0,1-1.145-1.6,4.082,4.082,0,0,1,.737-2.652,4.774,4.774,0,0,1,2.179-2.226,2.2,2.2,0,0,1,1.968.2,2.017,2.017,0,0,1,.959,1.1A2.009,2.009,0,0,1-269.062,959.835Zm-4.653.868a2.035,2.035,0,0,0-.269.848,1.431,1.431,0,0,0,.15.818,1.345,1.345,0,0,0,.519.554,1.241,1.241,0,0,0,1.053.092,1.766,1.766,0,0,0,.959-.856,1.654,1.654,0,0,0,.241-1.212,1.3,1.3,0,0,0-.651-.871,1.354,1.354,0,0,0-1.08-.134A1.537,1.537,0,0,0-273.715,960.7Zm4.578,1.257a6.53,6.53,0,0,1,1.252-1.637,2.539,2.539,0,0,1,1.27-.643,1.979,1.979,0,0,1,1.335.289,2.11,2.11,0,0,1,.758.708,1.918,1.918,0,0,1,.285.939,3.563,3.563,0,0,1-.15,1.143,7.043,7.043,0,0,1-.713,1.544,6.559,6.559,0,0,1-1.243,1.625,2.54,2.54,0,0,1-1.272.65,1.988,1.988,0,0,1-1.336-.288,1.965,1.965,0,0,1-1.035-1.458A4.722,4.722,0,0,1-269.137,961.96Zm.778.451a4.488,4.488,0,0,0-.82,2.237,1.212,1.212,0,0,0,.59,1.017,1.213,1.213,0,0,0,1.174,0,4.479,4.479,0,0,0,1.534-1.82,4.485,4.485,0,0,0,.822-2.238,1.225,1.225,0,0,0-.6-1.019,1.127,1.127,0,0,0-1.094-.042,4.543,4.543,0,0,0-1.606,1.863Z" fill="#1ab395"/><path d="M-292.14,939.847l-.825-.3,1.927-5.259a4.575,4.575,0,0,1-.988.277,5.884,5.884,0,0,1-1.025.108l.292-.8a5.294,5.294,0,0,0,1.5-.345,3.29,3.29,0,0,0,1.063-.63l.532.2Zm4.527,1.658-.825-.3,1.927-5.26a4.529,4.529,0,0,1-.989.277,5.878,5.878,0,0,1-1.025.108l.293-.8a5.312,5.312,0,0,0,1.5-.34,3.29,3.29,0,0,0,1.063-.63l.533.2Zm3.329-2.54a6.537,6.537,0,0,1,.949-1.829,2.542,2.542,0,0,1,1.139-.855,1.988,1.988,0,0,1,1.366.053,2.117,2.117,0,0,1,.869.566,1.942,1.942,0,0,1,.445.875,3.567,3.567,0,0,1,.05,1.152,7.067,7.067,0,0,1-.433,1.644,6.558,6.558,0,0,1-.942,1.817,2.545,2.545,0,0,1-1.14.861,1.988,1.988,0,0,1-1.366-.051,1.964,1.964,0,0,1-1.273-1.257A4.721,4.721,0,0,1-284.284,938.965Zm.846.309a4.486,4.486,0,0,0-.42,2.346,1.219,1.219,0,0,0,.758.9,1.218,1.218,0,0,0,1.158-.2,4.5,4.5,0,0,0,1.194-2.06,4.5,4.5,0,0,0,.42-2.348,1.228,1.228,0,0,0-.765-.9,1.128,1.128,0,0,0-1.084.149,4.546,4.546,0,0,0-1.259,2.114Z"/><path d="M-295.157,947.182l.291-.793,4.352,1.594-.236.643a9.763,9.763,0,0,0-1.938,1.35,11.783,11.783,0,0,0-1.828,1.972,9.272,9.272,0,0,0-.994,1.732l-.845-.309a8.784,8.784,0,0,1,1.014-1.8,10.65,10.65,0,0,1,1.65-1.853,9.839,9.839,0,0,1,1.827-1.326Zm4.24,4.419a6.538,6.538,0,0,1,.951-1.828,2.54,2.54,0,0,1,1.139-.854,1.988,1.988,0,0,1,1.366.053,2.117,2.117,0,0,1,.87.566,1.925,1.925,0,0,1,.444.875,3.594,3.594,0,0,1,.051,1.152,7.043,7.043,0,0,1-.435,1.645,6.568,6.568,0,0,1-.941,1.817,2.545,2.545,0,0,1-1.14.861,1.987,1.987,0,0,1-1.366-.051,1.964,1.964,0,0,1-1.273-1.257,4.725,4.725,0,0,1,.336-2.977Zm.845.31a4.485,4.485,0,0,0-.419,2.346,1.218,1.218,0,0,0,.76.9,1.216,1.216,0,0,0,1.158-.2,4.484,4.484,0,0,0,1.194-2.059,4.484,4.484,0,0,0,.421-2.348,1.225,1.225,0,0,0-.766-.9,1.127,1.127,0,0,0-1.085.149,4.552,4.552,0,0,0-1.258,2.114Z" fill="#1ab395"/><path d="M-317.947,933.7l-.869-.155.985-5.513a4.516,4.516,0,0,1-.92.445,5.9,5.9,0,0,1-.991.285l.15-.837a5.3,5.3,0,0,0,1.416-.6,3.289,3.289,0,0,0,.937-.8l.558.1Zm2.837-3.079a6.539,6.539,0,0,1,.622-1.965,2.546,2.546,0,0,1,.974-1.039,1.985,1.985,0,0,1,1.353-.185,2.114,2.114,0,0,1,.955.407,1.935,1.935,0,0,1,.589.784,3.606,3.606,0,0,1,.25,1.126,7.129,7.129,0,0,1-.149,1.693,6.568,6.568,0,0,1-.611,1.953,2.539,2.539,0,0,1-.972,1.046,1.985,1.985,0,0,1-1.353.186,1.964,1.964,0,0,1-1.473-1.016A4.729,4.729,0,0,1-315.11,930.617Zm.886.159a4.489,4.489,0,0,0,0,2.382,1.215,1.215,0,0,0,.9.754,1.212,1.212,0,0,0,1.105-.4,4.493,4.493,0,0,0,.82-2.233,4.48,4.48,0,0,0,.005-2.385,1.221,1.221,0,0,0-.91-.753,1.124,1.124,0,0,0-1.042.335,4.539,4.539,0,0,0-.871,2.3Zm4.586.819a6.519,6.519,0,0,1,.616-1.965,2.539,2.539,0,0,1,.974-1.039,1.986,1.986,0,0,1,1.353-.185,2.124,2.124,0,0,1,.955.406,1.936,1.936,0,0,1,.589.785,3.591,3.591,0,0,1,.248,1.125,7.093,7.093,0,0,1-.136,1.7,6.6,6.6,0,0,1-.617,1.952,2.548,2.548,0,0,1-.968,1.046,1.988,1.988,0,0,1-1.354.186,1.962,1.962,0,0,1-1.475-1.017,4.715,4.715,0,0,1-.177-2.988Zm.886.158a4.479,4.479,0,0,0-.006,2.382,1.215,1.215,0,0,0,.906.756,1.217,1.217,0,0,0,1.1-.4,4.491,4.491,0,0,0,.818-2.235,4.49,4.49,0,0,0,.006-2.385,1.225,1.225,0,0,0-.908-.753,1.127,1.127,0,0,0-1.042.335,4.544,4.544,0,0,0-.872,2.3Z"/><path d="M-318.354,943.932a1.655,1.655,0,0,1-.693-.7,1.493,1.493,0,0,1-.1-.922,1.744,1.744,0,0,1,.784-1.194,2.092,2.092,0,0,1,1.565-.261,2.1,2.1,0,0,1,1.389.8,1.766,1.766,0,0,1,.326,1.4,1.463,1.463,0,0,1-.41.808,1.645,1.645,0,0,1-.881.421,1.921,1.921,0,0,1,.863.858,1.9,1.9,0,0,1,.141,1.185,2.06,2.06,0,0,1-.912,1.408,2.363,2.363,0,0,1-1.794.311,2.355,2.355,0,0,1-1.57-.918,2.085,2.085,0,0,1-.364-1.654,1.891,1.891,0,0,1,.557-1.089A1.774,1.774,0,0,1-318.354,943.932Zm.088-1.5a1.119,1.119,0,0,0,.176.874,1.159,1.159,0,0,0,.781.467,1.132,1.132,0,0,0,.876-.169,1.064,1.064,0,0,0,.458-.714,1.1,1.1,0,0,0-.186-.859,1.14,1.14,0,0,0-.762-.472,1.152,1.152,0,0,0-.879.17A1.041,1.041,0,0,0-318.266,942.436Zm-.86,3.2a1.592,1.592,0,0,0,.048.748,1.249,1.249,0,0,0,.426.629,1.54,1.54,0,0,0,.711.323,1.419,1.419,0,0,0,1.1-.215,1.394,1.394,0,0,0,.585-.942,1.411,1.411,0,0,0-.231-1.108,1.448,1.448,0,0,0-.968-.6,1.391,1.391,0,0,0-1.084.223A1.4,1.4,0,0,0-319.126,945.64Zm4.853-.621a6.565,6.565,0,0,1,.617-1.966,2.546,2.546,0,0,1,.974-1.039,1.985,1.985,0,0,1,1.353-.185,2.114,2.114,0,0,1,.955.407,1.935,1.935,0,0,1,.589.784,3.606,3.606,0,0,1,.25,1.126,7.086,7.086,0,0,1-.142,1.694,6.6,6.6,0,0,1-.612,1.953,2.546,2.546,0,0,1-.973,1.045,1.983,1.983,0,0,1-1.354.187,1.963,1.963,0,0,1-1.472-1.017A4.726,4.726,0,0,1-314.273,945.019Zm.886.159a4.5,4.5,0,0,0-.006,2.382,1.214,1.214,0,0,0,.9.754,1.215,1.215,0,0,0,1.1-.4,4.486,4.486,0,0,0,.819-2.235,4.49,4.49,0,0,0,.006-2.385,1.222,1.222,0,0,0-.91-.752,1.125,1.125,0,0,0-1.042.335,4.546,4.546,0,0,0-.872,2.3Z" fill="#1ab395"/><path d="M-370.308,930.97a1.65,1.65,0,0,1-.892-.424,1.5,1.5,0,0,1-.413-.831,1.74,1.74,0,0,1,.329-1.39,2.083,2.083,0,0,1,1.381-.78,2.1,2.1,0,0,1,1.579.278,1.76,1.76,0,0,1,.786,1.209,1.461,1.461,0,0,1-.108.9,1.648,1.648,0,0,1-.684.7,1.928,1.928,0,0,1,1.1.511,1.9,1.9,0,0,1,.538,1.066,2.054,2.054,0,0,1-.376,1.634,2.361,2.361,0,0,1-1.579.907,2.356,2.356,0,0,1-1.789-.326,2.083,2.083,0,0,1-.907-1.43,1.891,1.891,0,0,1,.15-1.214A1.776,1.776,0,0,1-370.308,930.97Zm-.429-1.437a1.115,1.115,0,0,0,.465.762,1.162,1.162,0,0,0,.892.172,1.14,1.14,0,0,0,.766-.458,1.06,1.06,0,0,0,.186-.829,1.1,1.1,0,0,0-.469-.743,1.141,1.141,0,0,0-.877-.183,1.151,1.151,0,0,0-.767.461A1.038,1.038,0,0,0-370.737,929.533Zm.288,3.306a1.6,1.6,0,0,0,.3.687,1.268,1.268,0,0,0,.616.445,1.547,1.547,0,0,0,.778.06,1.419,1.419,0,0,0,.956-.577,1.389,1.389,0,0,0,.227-1.085,1.4,1.4,0,0,0-.6-.962,1.442,1.442,0,0,0-1.112-.228,1.4,1.4,0,0,0-.943.58A1.4,1.4,0,0,0-370.449,932.839Zm4.348-2.243a6.53,6.53,0,0,1-.093-2.059,2.543,2.543,0,0,1,.559-1.309,1.988,1.988,0,0,1,1.209-.637,2.115,2.115,0,0,1,1.036.055,1.932,1.932,0,0,1,.822.536,3.6,3.6,0,0,1,.62.972,7.085,7.085,0,0,1,.446,1.641,6.592,6.592,0,0,1,.093,2.045,2.555,2.555,0,0,1-.557,1.315,1.987,1.987,0,0,1-1.209.638,1.963,1.963,0,0,1-1.73-.452A4.721,4.721,0,0,1-366.1,930.6Zm.887-.155a4.479,4.479,0,0,0,.809,2.241,1.216,1.216,0,0,0,1.106.4,1.215,1.215,0,0,0,.9-.752,4.482,4.482,0,0,0,.005-2.38,4.483,4.483,0,0,0-.809-2.243,1.224,1.224,0,0,0-1.113-.4,1.124,1.124,0,0,0-.865.671,4.544,4.544,0,0,0-.033,2.459Z"/><path d="M-397.826,936.852l-.287-.795,4.36-1.575.232.644a9.79,9.79,0,0,0-.617,2.28,11.783,11.783,0,0,0-.134,2.686,9.249,9.249,0,0,0,.352,1.966l-.847.306a8.75,8.75,0,0,1-.381-2.033,10.718,10.718,0,0,1,.073-2.48,9.83,9.83,0,0,1,.548-2.19Zm6.089.662a6.561,6.561,0,0,1-.446-2.012,2.545,2.545,0,0,1,.324-1.387,1.987,1.987,0,0,1,1.08-.837,2.1,2.1,0,0,1,1.03-.125,1.919,1.919,0,0,1,.9.385,3.624,3.624,0,0,1,.78.85,7.116,7.116,0,0,1,.724,1.539,6.6,6.6,0,0,1,.446,2,2.552,2.552,0,0,1-.32,1.392,1.987,1.987,0,0,1-1.08.839,1.966,1.966,0,0,1-1.783-.145,4.723,4.723,0,0,1-1.655-2.5Zm.847-.306a4.488,4.488,0,0,0,1.186,2.067,1.218,1.218,0,0,0,1.162.2,1.216,1.216,0,0,0,.758-.9,4.482,4.482,0,0,0-.408-2.346,4.491,4.491,0,0,0-1.187-2.069,1.224,1.224,0,0,0-1.164-.2,1.128,1.128,0,0,0-.736.812,4.54,4.54,0,0,0,.395,2.428Z"/><path d="M-344.627,930.28l.845-.076a1.472,1.472,0,0,0,.408.865,1.131,1.131,0,0,0,.777.27,1.341,1.341,0,0,0,.71-.184,1.522,1.522,0,0,0,.5-.5,2.927,2.927,0,0,0,.329-.836,4.37,4.37,0,0,0,.134-1.074v-.176a2,2,0,0,1-.722.679,1.95,1.95,0,0,1-.989.259,2,2,0,0,1-1.5-.648,2.364,2.364,0,0,1-.611-1.7,2.415,2.415,0,0,1,.642-1.745,2.146,2.146,0,0,1,1.6-.661,2.307,2.307,0,0,1,1.277.379,2.351,2.351,0,0,1,.88,1.073,5.273,5.273,0,0,1,.3,2.015,6.52,6.52,0,0,1-.3,2.184,2.56,2.56,0,0,1-.887,1.239,2.29,2.29,0,0,1-1.377.419,2,2,0,0,1-1.374-.469A2,2,0,0,1-344.627,930.28Zm3.607-3.151a1.72,1.72,0,0,0-.4-1.2,1.261,1.261,0,0,0-.968-.446,1.339,1.339,0,0,0-1.022.476,1.777,1.777,0,0,0-.438,1.239,1.534,1.534,0,0,0,.406,1.11,1.363,1.363,0,0,0,1.018.433,1.3,1.3,0,0,0,1-.425,1.677,1.677,0,0,0,.4-1.186Zm1.827,1.288a6.533,6.533,0,0,1,.266-2.043,2.543,2.543,0,0,1,.779-1.193,1.988,1.988,0,0,1,1.3-.417,2.111,2.111,0,0,1,1.01.235,1.927,1.927,0,0,1,.716.67,3.59,3.59,0,0,1,.442,1.065,7.086,7.086,0,0,1,.154,1.694,6.57,6.57,0,0,1-.263,2.029,2.551,2.551,0,0,1-.777,1.2,1.98,1.98,0,0,1-1.3.419,1.962,1.962,0,0,1-1.625-.745A4.723,4.723,0,0,1-339.193,928.417Zm.9,0a4.485,4.485,0,0,0,.408,2.347,1.214,1.214,0,0,0,1.02.586,1.215,1.215,0,0,0,1.019-.583,4.487,4.487,0,0,0,.418-2.343,4.486,4.486,0,0,0-.407-2.35,1.226,1.226,0,0,0-1.027-.584,1.127,1.127,0,0,0-.968.511,4.537,4.537,0,0,0-.46,2.416Z"/><path d="M-344.659,944.454l.845-.076a1.471,1.471,0,0,0,.408.865,1.128,1.128,0,0,0,.776.27,1.342,1.342,0,0,0,.711-.184,1.522,1.522,0,0,0,.5-.5,2.927,2.927,0,0,0,.329-.836,4.372,4.372,0,0,0,.134-1.074v-.176a2,2,0,0,1-.722.679,1.949,1.949,0,0,1-.989.259,2,2,0,0,1-1.5-.648,2.36,2.36,0,0,1-.611-1.7,2.41,2.41,0,0,1,.642-1.745,2.145,2.145,0,0,1,1.6-.661,2.3,2.3,0,0,1,1.276.379,2.353,2.353,0,0,1,.881,1.073,5.272,5.272,0,0,1,.3,2.015,6.493,6.493,0,0,1-.3,2.184,2.559,2.559,0,0,1-.887,1.239,2.29,2.29,0,0,1-1.377.419,2,2,0,0,1-1.374-.469A2,2,0,0,1-344.659,944.454Zm3.607-3.151a1.72,1.72,0,0,0-.4-1.2,1.263,1.263,0,0,0-.968-.446,1.335,1.335,0,0,0-1.022.476,1.772,1.772,0,0,0-.438,1.239,1.53,1.53,0,0,0,.406,1.11,1.363,1.363,0,0,0,1.018.433,1.3,1.3,0,0,0,1-.425,1.682,1.682,0,0,0,.4-1.186Zm1.827,1.288a6.534,6.534,0,0,1,.266-2.043,2.541,2.541,0,0,1,.778-1.193,1.991,1.991,0,0,1,1.3-.417,2.116,2.116,0,0,1,1.011.235,1.935,1.935,0,0,1,.716.67,3.59,3.59,0,0,1,.442,1.065,7.086,7.086,0,0,1,.154,1.694,6.539,6.539,0,0,1-.264,2.029,2.541,2.541,0,0,1-.776,1.2,1.981,1.981,0,0,1-1.3.419,1.965,1.965,0,0,1-1.626-.745A4.722,4.722,0,0,1-339.225,942.591Zm.9,0a4.486,4.486,0,0,0,.408,2.347,1.213,1.213,0,0,0,1.019.586,1.216,1.216,0,0,0,1.02-.583,4.5,4.5,0,0,0,.418-2.343,4.477,4.477,0,0,0-.408-2.35,1.223,1.223,0,0,0-1.026-.584,1.126,1.126,0,0,0-.968.511,4.537,4.537,0,0,0-.46,2.416Z" fill="#1ab395"/><path d="M-368.79,949.257l-.87.151-.96-5.517a4.537,4.537,0,0,1-.713.733,5.833,5.833,0,0,1-.833.606l-.146-.838a5.313,5.313,0,0,0,1.126-1.048,3.294,3.294,0,0,0,.605-1.077l.558-.1Zm1.613-3.864a6.558,6.558,0,0,1-.089-2.059,2.542,2.542,0,0,1,.56-1.31,1.984,1.984,0,0,1,1.209-.636,2.116,2.116,0,0,1,1.036.055,1.944,1.944,0,0,1,.822.536,3.593,3.593,0,0,1,.619.972,7.03,7.03,0,0,1,.439,1.642,6.525,6.525,0,0,1,.1,2.044,2.542,2.542,0,0,1-.556,1.315,1.983,1.983,0,0,1-1.208.639,1.964,1.964,0,0,1-1.731-.452A4.708,4.708,0,0,1-367.177,945.393Zm.886-.154a4.5,4.5,0,0,0,.812,2.24,1.217,1.217,0,0,0,1.1.4,1.218,1.218,0,0,0,.9-.753,4.488,4.488,0,0,0,.006-2.379,4.485,4.485,0,0,0-.811-2.244,1.224,1.224,0,0,0-1.112-.4,1.127,1.127,0,0,0-.865.671,4.535,4.535,0,0,0-.032,2.459Zm4.589-.8a6.577,6.577,0,0,1-.093-2.057,2.536,2.536,0,0,1,.56-1.309,1.98,1.98,0,0,1,1.209-.637,2.116,2.116,0,0,1,1.036.055,1.944,1.944,0,0,1,.822.536,3.6,3.6,0,0,1,.618.973,7.1,7.1,0,0,1,.451,1.639,6.56,6.56,0,0,1,.088,2.045,2.543,2.543,0,0,1-.552,1.314,1.985,1.985,0,0,1-1.208.638,1.96,1.96,0,0,1-1.734-.451,4.72,4.72,0,0,1-1.189-2.747Zm.887-.154a4.489,4.489,0,0,0,.809,2.241,1.218,1.218,0,0,0,1.11.4,1.214,1.214,0,0,0,.9-.752,4.482,4.482,0,0,0,0-2.38,4.483,4.483,0,0,0-.809-2.243,1.223,1.223,0,0,0-1.111-.4,1.126,1.126,0,0,0-.865.671,4.535,4.535,0,0,0-.032,2.459Z" fill="#1ab395"/><path d="M-390.2,955.809l-.827.3-1.9-5.268a4.524,4.524,0,0,1-.578.847,5.976,5.976,0,0,1-.716.742l-.289-.8a5.318,5.318,0,0,0,.927-1.228,3.281,3.281,0,0,0,.409-1.166l.533-.192Zm4.534-1.639-.827.3-1.9-5.268a4.534,4.534,0,0,1-.58.847,5.834,5.834,0,0,1-.716.742l-.289-.8a5.3,5.3,0,0,0,.93-1.222,3.319,3.319,0,0,0,.409-1.166l.533-.193Zm.918-4.086a6.551,6.551,0,0,1-.449-2.01,2.544,2.544,0,0,1,.324-1.387,1.986,1.986,0,0,1,1.081-.837,2.115,2.115,0,0,1,1.03-.126,1.94,1.94,0,0,1,.9.386,3.582,3.582,0,0,1,.779.85,7.108,7.108,0,0,1,.724,1.538,6.591,6.591,0,0,1,.446,2,2.552,2.552,0,0,1-.32,1.392,1.992,1.992,0,0,1-1.08.839,1.967,1.967,0,0,1-1.783-.146A4.719,4.719,0,0,1-384.75,950.084Zm.847-.3a4.48,4.48,0,0,0,1.186,2.066,1.217,1.217,0,0,0,1.159.2,1.216,1.216,0,0,0,.758-.9,4.491,4.491,0,0,0-.409-2.345,4.491,4.491,0,0,0-1.187-2.069,1.222,1.222,0,0,0-1.163-.2,1.128,1.128,0,0,0-.736.811,4.542,4.542,0,0,0,.4,2.429Z" fill="#1ab395"/><path d="M-418.575,947.764l-.724.494a1.652,1.652,0,0,0-.663-.486,1.163,1.163,0,0,0-.949.111,1.211,1.211,0,0,0-.523.57,2,2,0,0,0-.126,1.093,4.624,4.624,0,0,0,.608,1.559,2.028,2.028,0,0,1,.315-1.009,2.075,2.075,0,0,1,.718-.682,1.993,1.993,0,0,1,1.618-.187,2.319,2.319,0,0,1,1.37,1.146,2.74,2.74,0,0,1,.372,1.23,2.118,2.118,0,0,1-.253,1.167,2.177,2.177,0,0,1-.844.84,2.252,2.252,0,0,1-1.956.192,4.082,4.082,0,0,1-1.929-1.965,4.783,4.783,0,0,1-.838-3,2.206,2.206,0,0,1,1.153-1.608,2.024,2.024,0,0,1,1.436-.278A2.013,2.013,0,0,1-418.575,947.764Zm-1.575,4.464a2.04,2.04,0,0,0,.6.657,1.439,1.439,0,0,0,.783.279,1.354,1.354,0,0,0,.739-.173,1.241,1.241,0,0,0,.606-.866,1.766,1.766,0,0,0-.261-1.258,1.655,1.655,0,0,0-.929-.814,1.3,1.3,0,0,0-1.08.127,1.355,1.355,0,0,0-.657.869A1.539,1.539,0,0,0-420.15,952.228Zm3.377-3.336a6.554,6.554,0,0,1-.792-1.9,2.542,2.542,0,0,1,.078-1.422,1.986,1.986,0,0,1,.918-1.011,2.117,2.117,0,0,1,.993-.3,1.942,1.942,0,0,1,.956.223,3.607,3.607,0,0,1,.914.7,7.064,7.064,0,0,1,.981,1.39,6.579,6.579,0,0,1,.786,1.889,2.546,2.546,0,0,1-.073,1.426,1.987,1.987,0,0,1-.918,1.013,1.959,1.959,0,0,1-1.78.167A4.714,4.714,0,0,1-416.773,948.892Zm.78-.449a4.486,4.486,0,0,0,1.527,1.829,1.214,1.214,0,0,0,1.176,0,1.217,1.217,0,0,0,.591-1.015,4.5,4.5,0,0,0-.809-2.239,4.494,4.494,0,0,0-1.528-1.831,1.227,1.227,0,0,0-1.181.008,1.126,1.126,0,0,0-.583.927,4.533,4.533,0,0,0,.81,2.322Z"/><path d="M-413.369,967.753l-.766.44-2.789-4.856a4.492,4.492,0,0,1-.419.933,5.786,5.786,0,0,1-.576.854l-.423-.737a5.308,5.308,0,0,0,.7-1.37,3.311,3.311,0,0,0,.2-1.219l.491-.282Zm5.537-4.154.421.733-4.1,2.356a1.558,1.558,0,0,1-.217-.579A3.226,3.226,0,0,1-411.7,965a9.083,9.083,0,0,1,.46-1.514,9.788,9.788,0,0,0,.612-2.1,1.819,1.819,0,0,0-.171-1.121,1.174,1.174,0,0,0-.762-.577,1.343,1.343,0,0,0-1.024.173,1.373,1.373,0,0,0-.691.836,1.439,1.439,0,0,0,.191,1.107l-.827.368a2.225,2.225,0,0,1-.16-1.685,2.38,2.38,0,0,1,1.146-1.27,2.272,2.272,0,0,1,1.7-.317,1.88,1.88,0,0,1,1.226.929,2.153,2.153,0,0,1,.268.821,3.3,3.3,0,0,1-.07,1.048,14.224,14.224,0,0,1-.552,1.77q-.355.969-.433,1.286a2.873,2.873,0,0,0-.084.6Zm-.516-2.8a6.543,6.543,0,0,1-.792-1.9,2.551,2.551,0,0,1,.079-1.422,1.984,1.984,0,0,1,.918-1.012,2.12,2.12,0,0,1,.992-.3,1.926,1.926,0,0,1,.956.222,3.6,3.6,0,0,1,.906.707,7.051,7.051,0,0,1,.985,1.385,6.571,6.571,0,0,1,.782,1.892,2.548,2.548,0,0,1-.069,1.424,1.984,1.984,0,0,1-.917,1.013,1.965,1.965,0,0,1-1.784.169A4.715,4.715,0,0,1-408.348,960.8Zm.78-.448a4.486,4.486,0,0,0,1.527,1.829,1.214,1.214,0,0,0,1.172,0,1.214,1.214,0,0,0,.591-1.016,4.482,4.482,0,0,0-.81-2.237,4.491,4.491,0,0,0-1.528-1.832,1.227,1.227,0,0,0-1.18.008,1.127,1.127,0,0,0-.583.926A4.544,4.544,0,0,0-407.568,960.351Z" fill="#1ab395"/><path d="M-441.82,968.936l.659-.652a1.652,1.652,0,0,0,1.014.473,1.292,1.292,0,0,0,.908-.317,1.4,1.4,0,0,0,.517-1.056,1.8,1.8,0,0,0-.478-1.256,1.629,1.629,0,0,0-1.085-.641,1.475,1.475,0,0,0-1.125.376,1.533,1.533,0,0,0-.464.64,1.482,1.482,0,0,0-.092.728l-.7.447-1.828-3.265,2.732-2.282.539.644-2.191,1.83.937,1.722a2.333,2.333,0,0,1,.75-1.213,2.143,2.143,0,0,1,1.63-.515,2.267,2.267,0,0,1,1.568.87,2.614,2.614,0,0,1,.642,1.653,2.269,2.269,0,0,1-.886,1.872,2.312,2.312,0,0,1-1.574.6A2.137,2.137,0,0,1-441.82,968.936Zm3.207-4.836a6.576,6.576,0,0,1-1.111-1.736,2.547,2.547,0,0,1-.17-1.414,1.987,1.987,0,0,1,.729-1.156,2.108,2.108,0,0,1,.924-.47,1.929,1.929,0,0,1,.98.053,3.583,3.583,0,0,1,1.023.531,7.087,7.087,0,0,1,1.207,1.2,6.567,6.567,0,0,1,1.1,1.724,2.543,2.543,0,0,1,.176,1.418,1.99,1.99,0,0,1-.727,1.157,1.965,1.965,0,0,1-1.725.474A4.717,4.717,0,0,1-438.613,964.1Zm.691-.577a4.485,4.485,0,0,0,1.821,1.535,1.216,1.216,0,0,0,1.158-.206,1.213,1.213,0,0,0,.4-1.1,4.487,4.487,0,0,0-1.186-2.064,4.488,4.488,0,0,0-1.823-1.537,1.221,1.221,0,0,0-1.161.213,1.126,1.126,0,0,0-.414,1.014,4.549,4.549,0,0,0,1.2,2.146Z"/><path d="M-430.835,980.8l-.677.566-3.591-4.3a4.587,4.587,0,0,1-.251.991,5.912,5.912,0,0,1-.419.942l-.545-.653a5.3,5.3,0,0,0,.451-1.471,3.289,3.289,0,0,0-.015-1.235l.435-.363Zm.52-2.9.6-.654a1.938,1.938,0,0,0,1.086.5,1.278,1.278,0,0,0,.892-.315,1.419,1.419,0,0,0,.528-1,1.45,1.45,0,0,0-.354-1.091,1.355,1.355,0,0,0-.949-.511,1.365,1.365,0,0,0-1.019.342,2.485,2.485,0,0,0-.412.474l-.418-.656c.04-.026.079-.054.116-.083a1.808,1.808,0,0,0,.584-.874,1,1,0,0,0-.233-.979,1.069,1.069,0,0,0-.764-.4,1.163,1.163,0,0,0-.855.295,1.2,1.2,0,0,0-.449.795,1.618,1.618,0,0,0,.283,1.023l-.774.444a2.256,2.256,0,0,1-.317-1.518,2.117,2.117,0,0,1,.779-1.285,2.334,2.334,0,0,1,.989-.5,1.818,1.818,0,0,1,1.018.043,1.769,1.769,0,0,1,.793.541,1.516,1.516,0,0,1,.35.808,1.7,1.7,0,0,1-.177.937,1.661,1.661,0,0,1,1.146-.165,1.846,1.846,0,0,1,1.011.66,2.114,2.114,0,0,1,.495,1.658,2.4,2.4,0,0,1-.908,1.608,2.25,2.25,0,0,1-1.562.573A2.172,2.172,0,0,1-430.315,977.9Zm3.216-4.825a6.551,6.551,0,0,1-1.11-1.735,2.547,2.547,0,0,1-.17-1.414,1.984,1.984,0,0,1,.728-1.156,2.111,2.111,0,0,1,.925-.47,1.929,1.929,0,0,1,.98.053,3.56,3.56,0,0,1,1.015.538,7.047,7.047,0,0,1,1.211,1.193,6.534,6.534,0,0,1,1.1,1.728,2.539,2.539,0,0,1,.18,1.414,1.989,1.989,0,0,1-.727,1.157,1.966,1.966,0,0,1-1.728.477A4.724,4.724,0,0,1-427.1,973.079Zm.691-.577a4.487,4.487,0,0,0,1.821,1.536,1.219,1.219,0,0,0,1.155-.2,1.213,1.213,0,0,0,.4-1.1,4.48,4.48,0,0,0-1.187-2.063,4.477,4.477,0,0,0-1.823-1.538,1.226,1.226,0,0,0-1.161.213,1.128,1.128,0,0,0-.413,1.014A4.539,4.539,0,0,0-426.408,972.5Z" fill="#1ab395"/><rect width="0.5" height="17.714" transform="matrix(0.985, -0.171, 0.171, 0.985, -370.603, 908.159)"/><path d="M-353.776,923.8l-1.5-17.652.5-.043,1.5,17.652Z"/><rect width="0.5" height="17.718" transform="translate(-400.444 916.123) rotate(-19.868)"/><rect width="0.5" height="17.411" transform="translate(-385.703 911.49) rotate(-14.288)"/><path d="M-407.663,937.754l-7.457-16.067.453-.211,7.457,16.067Z"/><path d="M-431.729,951.641l-10.136-14.53.41-.285,10.136,14.53Z"/><path d="M-420,944.174l-8.829-15.357.434-.25,8.829,15.357Z"/><rect width="0.501" height="17.712" transform="translate(-465.528 956.955) rotate(-44.897)"/><rect width="0.5" height="17.713" transform="translate(-454.124 946.515) rotate(-39.901)"/><rect width="0.498" height="17.717" transform="matrix(0.645, -0.764, 0.764, 0.645, -475.378, 968.674)"/><rect width="0.499" height="17.718" transform="matrix(0.502, -0.865, 0.865, 0.502, -493.121, 993.953)"/><rect width="0.499" height="17.719" transform="translate(-484.801 980.921) rotate(-54.859)"/><rect width="0.499" height="17.72" transform="translate(-506.204 1021.928) rotate(-69.866)"/><rect width="0.498" height="17.716" transform="translate(-500.27 1007.651) rotate(-64.857)"/><path d="M-493.982,1041.28l-17.1-4.623.13-.482,17.1,4.623Z"/><rect width="0.498" height="17.719" transform="translate(-516.294 1066.954) rotate(-84.859)"/><rect width="0.5" height="17.718" transform="matrix(0.176, -0.984, 0.984, 0.176, -514.26, 1051.64)"/><rect width="0.498" height="17.716" transform="translate(-517.156 1082.505) rotate(-89.871)"/><path d="M-456.544,987.3l-1.31-1.1-2,2.375-.616-.52-1.44-5.489.463-.549,3.547,2.991.623-.739.616.52-.623.739,1.31,1.1Zm-1.926-1.625-2.467-2.08,1.022,3.794Zm1-2.749a6.557,6.557,0,0,1-1.4-1.517,2.549,2.549,0,0,1-.412-1.363,1.981,1.981,0,0,1,.517-1.265,2.107,2.107,0,0,1,.829-.623,1.928,1.928,0,0,1,.974-.118,3.6,3.6,0,0,1,1.1.347,7.054,7.054,0,0,1,1.4.97,6.573,6.573,0,0,1,1.385,1.507,2.535,2.535,0,0,1,.419,1.366,1.987,1.987,0,0,1-.516,1.266,1.966,1.966,0,0,1-1.616.765A4.714,4.714,0,0,1-457.473,982.929Zm.58-.688a4.488,4.488,0,0,0,2.06,1.2,1.217,1.217,0,0,0,1.105-.4,1.216,1.216,0,0,0,.208-1.156,4.485,4.485,0,0,0-1.526-1.827,4.475,4.475,0,0,0-2.062-1.2,1.225,1.225,0,0,0-1.107.411,1.127,1.127,0,0,0-.231,1.07,4.534,4.534,0,0,0,1.555,1.906Z"/><path d="M-447.492,998.692l-.569.675-4.281-3.61a4.588,4.588,0,0,1-.075,1.02,5.948,5.948,0,0,1-.25,1l-.65-.548a5.291,5.291,0,0,0,.189-1.527,3.3,3.3,0,0,0-.228-1.215l.365-.432Zm3.269-3.875-1.311-1.105-2,2.374-.617-.519-1.439-5.488.463-.549,3.546,2.99.624-.741.617.52-.625.741,1.31,1.105Zm-1.927-1.625-2.467-2.08,1.021,3.794Zm1-2.752a6.553,6.553,0,0,1-1.394-1.517,2.539,2.539,0,0,1-.413-1.363,2,2,0,0,1,.517-1.265,2.127,2.127,0,0,1,.83-.623,1.937,1.937,0,0,1,.974-.118,3.6,3.6,0,0,1,1.093.355,7.043,7.043,0,0,1,1.4.965,6.553,6.553,0,0,1,1.381,1.511,2.539,2.539,0,0,1,.422,1.361,1.981,1.981,0,0,1-.515,1.266,1.965,1.965,0,0,1-1.619.769A4.715,4.715,0,0,1-445.15,990.44Zm.58-.688a4.488,4.488,0,0,0,2.06,1.2,1.218,1.218,0,0,0,1.1-.4,1.216,1.216,0,0,0,.208-1.156,4.492,4.492,0,0,0-1.526-1.827,4.487,4.487,0,0,0-2.062-1.2,1.225,1.225,0,0,0-1.107.41,1.127,1.127,0,0,0-.231,1.07A4.547,4.547,0,0,0-444.57,989.752Z" fill="#1ab395"/><path d="M-474.7,1010.9l.34-.819a1.933,1.933,0,0,0,1.19.095,1.274,1.274,0,0,0,.73-.6,1.421,1.421,0,0,0,.153-1.122,1.448,1.448,0,0,0-.7-.9,1.35,1.35,0,0,0-1.066-.156,1.367,1.367,0,0,0-.845.673,2.51,2.51,0,0,0-.225.586l-.616-.473c.028-.038.055-.078.08-.118a1.816,1.816,0,0,0,.254-1.022,1,1,0,0,0-.553-.84,1.073,1.073,0,0,0-.856-.119,1.162,1.162,0,0,0-.7.572,1.2,1.2,0,0,0-.15.9,1.617,1.617,0,0,0,.616.866l-.576.681a2.254,2.254,0,0,1-.82-1.325,2.114,2.114,0,0,1,.292-1.474,2.334,2.334,0,0,1,.758-.807,1.824,1.824,0,0,1,.972-.308,1.758,1.758,0,0,1,.929.238,1.513,1.513,0,0,1,.606.639,1.706,1.706,0,0,1,.154.941,1.656,1.656,0,0,1,1.02-.547,1.843,1.843,0,0,1,1.176.275,2.115,2.115,0,0,1,1.031,1.389,2.4,2.4,0,0,1-.3,1.822,2.253,2.253,0,0,1-1.272,1.072A2.173,2.173,0,0,1-474.7,1010.9Zm1.371-5.629a6.551,6.551,0,0,1-1.637-1.252,2.542,2.542,0,0,1-.643-1.271,1.985,1.985,0,0,1,.289-1.335,2.118,2.118,0,0,1,.708-.758,1.939,1.939,0,0,1,.939-.285,3.589,3.589,0,0,1,1.143.15,7.069,7.069,0,0,1,1.544.713,6.584,6.584,0,0,1,1.625,1.243,2.548,2.548,0,0,1,.65,1.272,1.985,1.985,0,0,1-.288,1.336,1.965,1.965,0,0,1-1.458,1.035A4.715,4.715,0,0,1-473.327,1005.268Zm.451-.779a4.49,4.49,0,0,0,2.237.821,1.217,1.217,0,0,0,1.017-.59,1.215,1.215,0,0,0,0-1.175,4.487,4.487,0,0,0-1.82-1.534,4.484,4.484,0,0,0-2.238-.822,1.225,1.225,0,0,0-1.019.6,1.127,1.127,0,0,0-.042,1.094,4.549,4.549,0,0,0,1.863,1.606Z"/><path d="M-460.685,1019.2l-.443.764-4.844-2.811a4.515,4.515,0,0,1,.1,1.017,5.9,5.9,0,0,1-.072,1.028l-.735-.426a5.356,5.356,0,0,0-.079-1.537,3.317,3.317,0,0,0-.436-1.156l.284-.489Zm-.492-2.888.4-.837a1.655,1.655,0,0,0,1.115.1,1.3,1.3,0,0,0,.745-.609,1.4,1.4,0,0,0,.125-1.169,1.8,1.8,0,0,0-.878-1.017,1.628,1.628,0,0,0-1.238-.231,1.476,1.476,0,0,0-.93.738,1.533,1.533,0,0,0-.218.761,1.492,1.492,0,0,0,.163.715l-.506.66-2.833-2.445,1.787-3.079.727.421-1.434,2.471,1.467,1.3a2.33,2.33,0,0,1,.294-1.394,2.142,2.142,0,0,1,1.353-1.044,2.267,2.267,0,0,1,1.768.28,2.605,2.605,0,0,1,1.169,1.333,2.267,2.267,0,0,1-.19,2.064,2.315,2.315,0,0,1-1.273,1.1A2.135,2.135,0,0,1-461.177,1016.307Zm1.363-5.645a6.539,6.539,0,0,1-1.636-1.251,2.539,2.539,0,0,1-.643-1.27,1.982,1.982,0,0,1,.289-1.335,2.118,2.118,0,0,1,.708-.758,1.929,1.929,0,0,1,.939-.286,3.592,3.592,0,0,1,1.138.159,7.084,7.084,0,0,1,1.546.708,6.545,6.545,0,0,1,1.623,1.247,2.54,2.54,0,0,1,.652,1.267,1.989,1.989,0,0,1-.287,1.337,1.965,1.965,0,0,1-1.461,1.038A4.717,4.717,0,0,1-459.814,1010.662Zm.452-.778a4.484,4.484,0,0,0,2.236.82,1.214,1.214,0,0,0,1.016-.586,1.218,1.218,0,0,0,0-1.175,4.494,4.494,0,0,0-1.821-1.533,4.493,4.493,0,0,0-2.239-.821,1.223,1.223,0,0,0-1.018.6,1.124,1.124,0,0,0-.041,1.094A4.534,4.534,0,0,0-459.362,1009.884Z" fill="#1ab395"/><path d="M-482.315,1031.15l.793.291-1.628,4.444a1.549,1.549,0,0,1-.538-.3,3.208,3.208,0,0,1-.7-.872,9,9,0,0,1-.623-1.453,9.734,9.734,0,0,0-.881-2.005,1.821,1.821,0,0,0-.851-.75,1.176,1.176,0,0,0-.956.049,1.343,1.343,0,0,0-.672.791,1.371,1.371,0,0,0,.009,1.081,1.441,1.441,0,0,0,.858.726l-.4.813a2.224,2.224,0,0,1-1.207-1.188,2.377,2.377,0,0,1,.062-1.709,2.269,2.269,0,0,1,1.1-1.336,1.881,1.881,0,0,1,1.535-.068,2.148,2.148,0,0,1,.733.456,3.271,3.271,0,0,1,.62.848,14.262,14.262,0,0,1,.718,1.707q.351.97.5,1.264a2.893,2.893,0,0,0,.32.512Zm-2.2-1.809a6.526,6.526,0,0,1-1.83-.948,2.542,2.542,0,0,1-.854-1.14,1.979,1.979,0,0,1,.053-1.365,2.105,2.105,0,0,1,.566-.87,1.926,1.926,0,0,1,.875-.444,3.6,3.6,0,0,1,1.152-.051,7.087,7.087,0,0,1,1.645.434,6.567,6.567,0,0,1,1.817.942,2.539,2.539,0,0,1,.861,1.14,1.988,1.988,0,0,1-.051,1.366,1.966,1.966,0,0,1-1.257,1.273A4.718,4.718,0,0,1-484.513,1029.341Zm.31-.845a4.485,4.485,0,0,0,2.345.42,1.217,1.217,0,0,0,.9-.758,1.215,1.215,0,0,0-.2-1.158,4.494,4.494,0,0,0-2.059-1.195,4.5,4.5,0,0,0-2.349-.42,1.225,1.225,0,0,0-.9.765,1.127,1.127,0,0,0,.149,1.085,4.544,4.544,0,0,0,2.114,1.258Z"/><path d="M-469.7,1040.407l-.3.83-5.26-1.927a4.473,4.473,0,0,1,.278.984,5.883,5.883,0,0,1,.109,1.025l-.8-.293a5.29,5.29,0,0,0-.345-1.5,3.291,3.291,0,0,0-.63-1.063l.195-.532Zm-2.732-8.258-.237.845a1.642,1.642,0,0,0-.82.053,1.162,1.162,0,0,0-.656.7,1.211,1.211,0,0,0-.034.773,2,2,0,0,0,.605.918,4.65,4.65,0,0,0,1.469.8,2.039,2.039,0,0,1-.407-.976,2.084,2.084,0,0,1,.111-.984,1.991,1.991,0,0,1,1.118-1.18,2.32,2.32,0,0,1,1.783-.005,2.745,2.745,0,0,1,1.076.7,2.113,2.113,0,0,1,.557,1.056,2.182,2.182,0,0,1-.1,1.184,2.253,2.253,0,0,1-1.376,1.405,4.077,4.077,0,0,1-2.739-.27,4.778,4.778,0,0,1-2.571-1.759,2.2,2.2,0,0,1-.15-1.972,2.018,2.018,0,0,1,.921-1.137A2.012,2.012,0,0,1-472.436,1032.149Zm1.664,4.433a2.023,2.023,0,0,0,.882.117,1.436,1.436,0,0,0,.78-.29,1.346,1.346,0,0,0,.454-.606,1.243,1.243,0,0,0-.092-1.054,1.775,1.775,0,0,0-1.009-.8,1.657,1.657,0,0,0-1.236-.026,1.3,1.3,0,0,0-.745.792,1.361,1.361,0,0,0,.055,1.088A1.541,1.541,0,0,0-470.772,1036.582Zm.443-4.731a6.572,6.572,0,0,1-1.829-.948,2.54,2.54,0,0,1-.854-1.14,1.982,1.982,0,0,1,.053-1.366,2.105,2.105,0,0,1,.565-.869,1.946,1.946,0,0,1,.876-.445,3.6,3.6,0,0,1,1.148-.041,7.088,7.088,0,0,1,1.646.428,6.568,6.568,0,0,1,1.816.947,2.535,2.535,0,0,1,.862,1.135,1.982,1.982,0,0,1-.051,1.366,1.967,1.967,0,0,1-1.258,1.277A4.723,4.723,0,0,1-470.329,1031.851Zm.31-.846a4.485,4.485,0,0,0,2.345.42,1.22,1.22,0,0,0,.9-.754,1.218,1.218,0,0,0-.2-1.158,4.5,4.5,0,0,0-2.06-1.194,4.494,4.494,0,0,0-2.348-.42,1.223,1.223,0,0,0-.9.764,1.125,1.125,0,0,0,.149,1.085A4.529,4.529,0,0,0-470.019,1031.005Z" fill="#1ab395"/><path d="M-488.6,1058.536l-.154.865-5.513-.985a4.5,4.5,0,0,1,.444.925,5.863,5.863,0,0,1,.285.99l-.837-.149a5.318,5.318,0,0,0-.6-1.417,3.3,3.3,0,0,0-.8-.938l.1-.557Zm-3.079-2.837a6.561,6.561,0,0,1-1.966-.616,2.552,2.552,0,0,1-1.039-.974,1.989,1.989,0,0,1-.185-1.354,2.105,2.105,0,0,1,.407-.954,1.928,1.928,0,0,1,.784-.59,3.631,3.631,0,0,1,1.126-.25,7.087,7.087,0,0,1,1.694.143,6.543,6.543,0,0,1,1.953.612,2.54,2.54,0,0,1,1.045.973,1.982,1.982,0,0,1,.187,1.354,1.964,1.964,0,0,1-1.017,1.471A4.712,4.712,0,0,1-491.681,1055.7Zm.159-.886a4.478,4.478,0,0,0,2.382.006,1.214,1.214,0,0,0,.754-.9,1.216,1.216,0,0,0-.4-1.106,4.485,4.485,0,0,0-2.234-.818,4.483,4.483,0,0,0-2.386-.007,1.223,1.223,0,0,0-.752.91,1.124,1.124,0,0,0,.335,1.042,4.538,4.538,0,0,0,2.3.872Z"/><path d="M-475.168,1064.15l-.156.869-5.512-.985a4.571,4.571,0,0,1,.445.921,5.989,5.989,0,0,1,.284.99l-.837-.149a5.3,5.3,0,0,0-.6-1.417,3.3,3.3,0,0,0-.8-.937l.1-.557Zm-5.718-3.368-.832-.149.815-4.561.674.12a9.772,9.772,0,0,0,1.665,1.674,11.757,11.757,0,0,0,2.259,1.458,9.291,9.291,0,0,0,1.878.675l-.158.886a8.772,8.772,0,0,1-1.952-.68,10.676,10.676,0,0,1-2.11-1.3,9.888,9.888,0,0,1-1.622-1.572Zm3.618-4.948a6.533,6.533,0,0,1-1.966-.616,2.537,2.537,0,0,1-1.038-.974,1.982,1.982,0,0,1-.185-1.354,2.1,2.1,0,0,1,.406-.954,1.92,1.92,0,0,1,.785-.589,3.572,3.572,0,0,1,1.124-.24,7.026,7.026,0,0,1,1.694.136,6.534,6.534,0,0,1,1.952.617,2.537,2.537,0,0,1,1.046.968,1.983,1.983,0,0,1,.187,1.354,1.966,1.966,0,0,1-1.018,1.475A4.713,4.713,0,0,1-477.268,1055.834Zm.158-.886a4.478,4.478,0,0,0,2.382.006,1.214,1.214,0,0,0,.754-.9,1.213,1.213,0,0,0-.4-1.1,4.481,4.481,0,0,0-2.235-.818,4.48,4.48,0,0,0-2.385-.007,1.225,1.225,0,0,0-.753.909,1.127,1.127,0,0,0,.335,1.042A4.543,4.543,0,0,0-477.11,1054.948Z" fill="#1ab395"/><path d="M-494.24,1084.641a6.535,6.535,0,0,1-2.043-.271,2.534,2.534,0,0,1-1.193-.778,1.991,1.991,0,0,1-.417-1.3,2.114,2.114,0,0,1,.235-1.011,1.935,1.935,0,0,1,.67-.716,3.594,3.594,0,0,1,1.065-.442,7.092,7.092,0,0,1,1.694-.147,6.567,6.567,0,0,1,2.029.262,2.54,2.54,0,0,1,1.2.775,1.987,1.987,0,0,1,.419,1.3,1.965,1.965,0,0,1-.745,1.627A4.715,4.715,0,0,1-494.24,1084.641Zm0-.9a4.487,4.487,0,0,0,2.347-.411,1.214,1.214,0,0,0,.586-1.016,1.214,1.214,0,0,0-.584-1.02,4.505,4.505,0,0,0-2.343-.419,4.485,4.485,0,0,0-2.349.409,1.223,1.223,0,0,0-.584,1.026,1.129,1.129,0,0,0,.511.969,4.547,4.547,0,0,0,2.416.458Z"/><path d="M-476.542,1087.269l0,.883-5.6-.012a4.512,4.512,0,0,1,.6.829,5.833,5.833,0,0,1,.452.926l-.85,0a5.305,5.305,0,0,0-.837-1.291,3.3,3.3,0,0,0-.955-.783v-.566Zm-3.874-3.609a1.643,1.643,0,0,1-.573.81,1.49,1.49,0,0,1-.889.262,1.738,1.738,0,0,1-1.312-.565,2.088,2.088,0,0,1-.529-1.5,2.1,2.1,0,0,1,.548-1.508,1.762,1.762,0,0,1,1.327-.568,1.466,1.466,0,0,1,.867.263,1.652,1.652,0,0,1,.567.794,1.918,1.918,0,0,1,.7-1,1.9,1.9,0,0,1,1.144-.341,2.051,2.051,0,0,1,1.543.649,2.362,2.362,0,0,1,.619,1.711,2.362,2.362,0,0,1-.631,1.707,2.089,2.089,0,0,1-1.567.646,1.9,1.9,0,0,1-1.169-.357,1.77,1.77,0,0,1-.64-1.01Zm-1.489.173a1.117,1.117,0,0,0,.831-.325,1.16,1.16,0,0,0,.324-.849,1.135,1.135,0,0,0-.319-.834,1.056,1.056,0,0,0-.783-.327,1.1,1.1,0,0,0-.814.332,1.146,1.146,0,0,0-.332.833,1.149,1.149,0,0,0,.321.835,1.031,1.031,0,0,0,.772.331Zm3.3.291a1.6,1.6,0,0,0,.729-.177,1.26,1.26,0,0,0,.545-.529,1.552,1.552,0,0,0,.195-.76,1.42,1.42,0,0,0-.4-1.041,1.385,1.385,0,0,0-1.029-.412,1.41,1.41,0,0,0-1.051.419,1.45,1.45,0,0,0-.418,1.057,1.392,1.392,0,0,0,.408,1.029,1.4,1.4,0,0,0,1.024.41Zm-1.454-4.68a6.563,6.563,0,0,1-2.043-.265,2.545,2.545,0,0,1-1.192-.779,1.991,1.991,0,0,1-.417-1.3,2.128,2.128,0,0,1,.234-1.011,1.946,1.946,0,0,1,.671-.716,3.607,3.607,0,0,1,1.065-.432,7.078,7.078,0,0,1,1.692-.16,6.571,6.571,0,0,1,2.03.269,2.539,2.539,0,0,1,1.2.772,1.983,1.983,0,0,1,.419,1.3,1.963,1.963,0,0,1-.746,1.629A4.715,4.715,0,0,1-480.054,1079.444Zm0-.9a4.5,4.5,0,0,0,2.347-.407,1.216,1.216,0,0,0,.586-1.016,1.211,1.211,0,0,0-.584-1.019,4.484,4.484,0,0,0-2.343-.418,4.489,4.489,0,0,0-2.35.408,1.223,1.223,0,0,0-.583,1.026,1.126,1.126,0,0,0,.511.968A4.536,4.536,0,0,0-480.052,1078.544Z" fill="#1ab395"/><path d="M-331.035,1082.68l-.5,0a8.4,8.4,0,0,0-2.463-5.986,8.407,8.407,0,0,0-5.975-2.49h-.019a8.4,8.4,0,0,0-5.966,2.463,8.4,8.4,0,0,0-2.491,5.976l-.5,0a8.9,8.9,0,0,1,2.638-6.327,8.894,8.894,0,0,1,6.319-2.61h.02a8.9,8.9,0,0,1,6.328,2.638A8.9,8.9,0,0,1-331.035,1082.68Z"/><rect width="8.859" height="0.5" transform="translate(-171.706 1079.856) rotate(-0.895)"/><rect width="8.862" height="0.5" transform="translate(-171.782 1076.922) rotate(-1.902)"/><rect width="8.854" height="0.501" transform="translate(-171.907 1073.983) rotate(-2.907)"/><rect width="8.858" height="0.499" transform="translate(-172.085 1071.055) rotate(-3.926)"/><rect width="8.86" height="0.501" transform="matrix(0.995, -0.101, 0.101, 0.995, -172.593, 1065.196)"/><rect width="8.858" height="0.5" transform="translate(-172.924 1062.279) rotate(-6.847)"/><rect width="8.854" height="0.501" transform="translate(-173.303 1059.364) rotate(-7.846)"/><rect width="8.858" height="0.5" transform="translate(-173.738 1056.462) rotate(-8.874)"/><rect width="8.857" height="0.499" transform="translate(-174.388 1050.725) rotate(-10.936)"/><rect width="8.858" height="0.501" transform="translate(-174.974 1047.834) rotate(-11.923)"/><path d="M-175.495,1045.462l-.111-.488,8.633-1.979.111.488Z"/><rect width="8.861" height="0.501" transform="translate(-176.294 1042.112) rotate(-13.874)"/><rect width="8.859" height="0.5" transform="translate(-177.811 1036.441) rotate(-15.884)"/><rect width="8.862" height="0.5" transform="matrix(0.957, -0.291, 0.291, 0.957, -178.647, 1033.616)"/><rect width="8.86" height="0.501" transform="translate(-179.528 1030.814) rotate(-17.834)"/><rect width="8.861" height="0.5" transform="translate(-180.458 1028.036) rotate(-18.931)"/><rect width="8.862" height="0.499" transform="translate(-182.788 1022.791) rotate(-20.844)"/><rect width="8.861" height="0.501" transform="translate(-183.861 1020.057) rotate(-21.864)"/><rect width="8.86" height="0.5" transform="translate(-184.982 1017.339) rotate(-22.861)"/><rect width="8.861" height="0.5" transform="matrix(0.915, -0.405, 0.405, 0.915, -186.153, 1014.645)"/><rect width="8.86" height="0.499" transform="matrix(0.9, -0.436, 0.436, 0.9, -188.628, 1009.32)"/><rect width="8.862" height="0.499" transform="translate(-189.939 1006.691) rotate(-26.866)"/><rect width="8.861" height="0.499" transform="translate(-191.294 1004.08) rotate(-27.868)"/><rect width="8.862" height="0.5" transform="translate(-192.695 1001.498) rotate(-28.87)"/><rect width="8.862" height="0.501" transform="matrix(0.858, -0.513, 0.513, 0.858, -195.273, 996.324)"/><path d="M-196.544,994.234l-.265-.424,7.523-4.681.265.424Z"/><rect width="8.862" height="0.5" transform="matrix(0.84, -0.543, 0.543, 0.84, -198.382, 991.335)"/><rect width="8.863" height="0.501" transform="translate(-200.004 988.884) rotate(-33.876)"/><path d="M-203.079,984.474l-.293-.406,7.182-5.191.293.406Z"/><rect width="8.865" height="0.501" transform="matrix(0.8, -0.601, 0.601, 0.8, -205.116, 981.711)"/><path d="M-206.6,979.765l-.308-.395,6.994-5.44.308.395Z"/><rect width="8.862" height="0.499" transform="translate(-208.735 977.073) rotate(-38.887)"/><path d="M-212.337,972.637l-.327-.379,6.7-5.8.327.379Z"/><rect width="8.862" height="0.501" transform="matrix(0.745, -0.667, 0.667, 0.745, -214.612, 970.055)"/><path d="M-216.255,968.254l-.34-.367,6.489-6.026.34.367Z"/><path d="M-218.269,966.118l-.347-.359,6.384-6.143.347.359Z"/><rect width="8.861" height="0.5" transform="translate(-222.762 961.607) rotate(-45.95)"/><rect width="8.859" height="0.5" transform="matrix(0.683, -0.73, 0.73, 0.683, -224.896, 959.58)"/><rect width="8.856" height="0.501" transform="matrix(0.671, -0.741, 0.741, 0.671, -227.064, 957.589)"/><path d="M-228.886,955.974l-.377-.328,5.826-6.674.377.328Z"/><path d="M-233.062,951.982l-.389-.314,5.584-6.875.389.314Z"/><rect width="8.859" height="0.5" transform="translate(-235.758 949.831) rotate(-51.899)"/><path d="M-237.681,948.349l-.4-.3,5.34-7.068.4.3Z"/><rect width="8.862" height="0.5" transform="matrix(0.589, -0.808, 0.808, 0.589, -240.447, 946.297)"/><path d="M-244.841,943.209l-.414-.281,4.967-7.337.414.281Z"/><rect width="8.862" height="0.5" transform="matrix(0.547, -0.837, 0.837, 0.547, -247.716, 941.3)"/><rect width="8.86" height="0.5" transform="matrix(0.531, -0.847, 0.847, 0.531, -250.184, 939.725)"/><path d="M-252.262,938.449l-.429-.258,4.578-7.588.429.258Z"/><path d="M-257.407,935.917l-.437-.244,4.313-7.742.437.244Z"/><rect width="8.862" height="0.501" transform="translate(-260.427 934.266) rotate(-61.835)"/><rect width="8.861" height="0.501" transform="translate(-263.034 932.907) rotate(-62.835)"/><rect width="8.861" height="0.501" transform="translate(-265.663 931.595) rotate(-63.835)"/><path d="M-270.524,929.314l-.457-.205,3.621-8.088.456.205Z"/><path d="M-273.215,928.136l-.46-.2,3.48-8.151.46.2Z"/><path d="M-275.929,927l-.463-.187,3.337-8.21.463.188Z"/><path d="M-278.66,925.911l-.467-.18,3.2-8.267.467.18Z"/><rect width="8.863" height="0.5" transform="translate(-284.428 923.427) rotate(-70.858)"/><path d="M-286.744,922.645l-.476-.156,2.753-8.423.476.156Z"/><path d="M-289.537,921.752l-.479-.146,2.606-8.471.479.146Z"/><rect width="8.865" height="0.5" transform="translate(-292.834 920.771) rotate(-73.901)"/><path d="M-298.026,919.369l-.485-.123,2.163-8.595.485.123Z"/><rect width="8.866" height="0.5" transform="matrix(0.226, -0.974, 0.974, 0.226, -301.364, 918.562)"/><rect width="8.862" height="0.5" transform="translate(-304.242 917.919) rotate(-77.835)"/><path d="M-306.628,917.433l-.491-.1,1.709-8.7.491.1Z"/><path d="M-312.881,916.867l-.494-.08,1.408-8.746.494.08Z"/><path d="M-315.786,916.417l-.5-.07,1.257-8.768.5.07Z"/><rect width="8.858" height="0.5" transform="translate(-319.2 915.961) rotate(-82.819)"/><path d="M-321.619,915.683l-.5-.053.948-8.809.5.053Z"/><path d="M-327.469,915.145l-.5-.037.643-8.836.5.037Z"/><rect width="8.857" height="0.5" transform="translate(-330.897 914.925) rotate(-86.864)"/><path d="M-333.338,914.81l-.5-.02.331-8.855.5.02Z"/><rect width="8.858" height="0.5" transform="translate(-336.764 914.714) rotate(-88.881)"/><rect width="0.5" height="8.859" transform="translate(-342.934 905.515) rotate(-0.881)"/><path d="M-345.733,914.448l-.291-8.856.5-.016.291,8.856Z"/><rect width="0.5" height="8.855" transform="translate(-349.116 905.73) rotate(-2.873)"/><path d="M-351.6,914.753l-.6-8.839.5-.033.6,8.839Z"/><rect width="0.5" height="8.86" transform="translate(-358.359 906.446) rotate(-5.88)"/><path d="M-360.373,915.592l-1.058-8.795.5-.061,1.058,8.795Z"/><rect width="0.5" height="8.855" transform="translate(-364.5 907.199) rotate(-7.873)"/><path d="M-366.191,916.4l-1.366-8.752.494-.076,1.366,8.752Z"/><path d="M-371.93,917.055l-1.675-8.7.491-.094,1.675,8.7Z"/><rect width="0.5" height="8.857" transform="translate(-376.646 908.974) rotate(-11.895)"/><rect width="0.5" height="8.858" transform="matrix(0.975, -0.224, 0.224, 0.975, -379.659, 909.64)"/><path d="M-380.54,918.961l-2.125-8.6.485-.119,2.125,8.6Z"/><rect width="0.5" height="8.858" transform="translate(-388.638 911.958) rotate(-15.89)"/><path d="M-389.039,921.314l-2.574-8.479.479-.145,2.574,8.479Z"/><path d="M-391.834,922.194l-2.722-8.432.476-.154,2.722,8.432Z"/><rect width="0.501" height="8.861" transform="translate(-397.488 914.743) rotate(-18.886)"/><path d="M-399.861,925.454l-3.156-8.28.468-.178,3.156,8.28Z"/><rect width="0.5" height="8.862" transform="translate(-405.894 918.304) rotate(-21.855)"/><path d="M-405.312,927.649l-3.444-8.163.461-.2,3.444,8.163Z"/><path d="M-408.007,928.82l-3.585-8.1.457-.2,3.585,8.1Z"/><rect width="0.501" height="8.861" transform="translate(-417.199 923.323) rotate(-25.87)"/><rect width="0.501" height="8.862" transform="matrix(0.892, -0.452, 0.452, 0.892, -419.967, 924.701)"/><rect width="0.501" height="8.861" transform="translate(-422.714 926.129) rotate(-27.867)"/><path d="M-421.157,935.363l-4.276-7.762.438-.242,4.276,7.762Z"/><path d="M-426.327,937.939l-4.55-7.6.43-.258,4.55,7.6Z"/><path d="M-428.843,939.476l-4.681-7.522.425-.264,4.681,7.522Z"/><rect width="0.5" height="8.862" transform="translate(-436.129 933.607) rotate(-32.889)"/><path d="M-433.769,942.672l-4.94-7.358.415-.279,4.94,7.358Z"/><rect width="0.5" height="8.862" transform="matrix(0.81, -0.586, 0.586, 0.81, -443.777, 938.857)"/><rect width="0.501" height="8.864" transform="translate(-446.265 940.694) rotate(-36.885)"/><rect width="0.5" height="8.861" transform="matrix(0.789, -0.614, 0.614, 0.789, -448.723, 942.578)"/><rect width="0.501" height="8.862" transform="matrix(0.779, -0.627, 0.627, 0.779, -451.143, 944.504)"/><path d="M-450.395,955.332l-5.8-6.7.378-.328,5.8,6.7Z"/><rect width="0.5" height="8.862" transform="matrix(0.744, -0.668, 0.668, 0.744, -458.512, 950.68)"/><rect width="0.5" height="8.855" transform="matrix(0.733, -0.681, 0.681, 0.733, -460.791, 952.774)"/><path d="M-456.895,961.283l-6.142-6.384.36-.348,6.142,6.384Z"/><path d="M-461.049,965.433l-6.362-6.167.348-.359,6.362,6.167Z"/><rect width="0.5" height="8.86" transform="translate(-469.54 961.508) rotate(-46.865)"/><rect width="0.5" height="8.855" transform="matrix(0.671, -0.742, 0.742, 0.671, -471.631, 963.79)"/><rect width="0.5" height="8.859" transform="translate(-473.682 966.104) rotate(-48.879)"/><rect width="0.501" height="8.858" transform="translate(-477.861 970.533) rotate(-50.913)"/><path d="M-472.822,978.426l-6.972-5.466.309-.395,6.972,5.466Z"/><path d="M-474.605,980.747l-7.068-5.34.3-.4,7.068,5.34Z"/><rect width="0.5" height="8.862" transform="translate(-483.515 977.892) rotate(-53.889)"/><rect width="0.5" height="8.86" transform="matrix(0.561, -0.828, 0.828, 0.561, -487.061, 982.956)"/><rect width="0.501" height="8.863" transform="translate(-488.776 985.541) rotate(-56.895)"/><rect width="0.5" height="8.861" transform="translate(-490.434 988.144) rotate(-57.904)"/><path d="M-484.462,995.357l-7.587-4.577.259-.428,7.587,4.577Z"/><path d="M-486.979,1000.511l-7.742-4.313.243-.437,7.742,4.313Z"/><rect width="0.501" height="8.862" transform="translate(-496.2 998.914) rotate(-61.866)"/><rect width="0.5" height="8.861" transform="translate(-497.631 1001.659) rotate(-62.881)"/><rect width="0.5" height="8.862" transform="translate(-499.012 1004.426) rotate(-63.88)"/><rect width="0.501" height="8.861" transform="matrix(0.409, -0.913, 0.913, 0.409, -501.631, 1010.027)"/><rect width="0.501" height="8.863" transform="matrix(0.393, -0.92, 0.92, 0.393, -502.865, 1012.862)"/><rect width="0.5" height="8.861" transform="translate(-504.052 1015.722) rotate(-67.878)"/><rect width="0.501" height="8.863" transform="translate(-505.188 1018.599) rotate(-68.867)"/><rect width="0.5" height="8.863" transform="translate(-507.6 1024.191) rotate(-70.898)"/><rect width="0.499" height="8.861" transform="matrix(0.311, -0.951, 0.951, 0.311, -508.586, 1027.134)"/><rect width="0.501" height="8.863" transform="translate(-509.519 1030.077) rotate(-72.904)"/><rect width="0.5" height="8.864" transform="translate(-510.398 1033.042) rotate(-73.888)"/><rect width="0.5" height="8.863" transform="translate(-512.001 1039.015) rotate(-75.874)"/><rect width="0.499" height="8.865" transform="translate(-512.726 1042.021) rotate(-76.897)"/><rect width="0.499" height="8.862" transform="translate(-513.398 1045.046) rotate(-77.889)"/><rect width="0.5" height="8.863" transform="translate(-514.013 1048.077) rotate(-78.882)"/><rect width="0.5" height="8.858" transform="translate(-514.612 1054.635) rotate(-80.853)"/><path d="M-506.306,1058.947l-8.768-1.256.071-.494,8.768,1.256Z"/><rect width="0.5" height="8.857" transform="translate(-515.481 1060.764) rotate(-82.862)"/><rect width="0.501" height="8.858" transform="translate(-515.831 1063.836) rotate(-83.861)"/><rect width="0.499" height="8.86" transform="translate(-516.381 1069.992) rotate(-85.841)"/><rect width="0.501" height="8.858" transform="matrix(0.055, -0.998, 0.998, 0.055, -516.572, 1073.079)"/><rect width="0.5" height="8.862" transform="translate(-516.717 1076.175) rotate(-87.859)"/><rect width="0.5" height="8.858" transform="matrix(0.02, -1, 1, 0.02, -516.796, 1079.256)"/><path d="M-207.118,1083.208l-124.017-.281v-.5l124.017.281Zm-141.733-.321-124.229-.282v-.5l124.229.282Z"/><rect width="124.013" height="0.5" transform="translate(-331.3 1080.929) rotate(-9.904)"/><rect width="124.013" height="0.5" transform="translate(-331.754 1079.392) rotate(-19.849)"/><rect width="124.014" height="0.5" transform="translate(-332.435 1078.028) rotate(-29.87)"/><rect width="124.017" height="0.499" transform="matrix(0.767, -0.642, 0.642, 0.767, -333.32, 1076.831)"/><rect width="124.02" height="0.5" transform="translate(-334.502 1075.704) rotate(-49.836)"/><path d="M-335.329,1075.123l-.433-.252,62.252-107.26.433.252Z"/><rect width="124.019" height="0.5" transform="translate(-337.146 1074.27) rotate(-69.902)"/><rect width="124.016" height="0.5" transform="translate(-338.674 1073.898) rotate(-79.875)"/><path d="M-339.722,1073.8l-.5,0,.281-124.012.5,0Z"/><rect width="0.5" height="124.014" transform="translate(-470.839 1059.536) rotate(-79.872)"/><rect width="0.499" height="124.013" transform="translate(-464.835 1037.168) rotate(-69.872)"/><rect width="0.499" height="124.014" transform="translate(-455.039 1016.177) rotate(-59.871)"/><rect width="0.5" height="124.016" transform="matrix(0.645, -0.765, 0.765, 0.645, -441.746, 997.209)"/><rect width="0.5" height="124.021" transform="translate(-425.37 980.837) rotate(-39.869)"/><path d="M-344.622,1075.1l-61.764-107.54.434-.248,61.764,107.54Z"/><rect width="0.5" height="124.019" transform="translate(-385.392 957.779) rotate(-19.87)"/><rect width="0.5" height="124.017" transform="matrix(0.985, -0.171, 0.171, 0.985, -363.017, 951.796)"/><rect width="66.435" height="0.5" transform="matrix(0.996, -0.084, 0.084, 0.996, -273.817, 1076.739)"/><rect width="66.438" height="0.499" transform="matrix(0.967, -0.256, 0.256, 0.967, -275.847, 1065.359)"/><rect width="66.442" height="0.499" transform="translate(-279.825 1054.491) rotate(-24.861)"/><rect width="66.432" height="0.5" transform="translate(-285.615 1044.482) rotate(-34.9)"/><rect width="66.448" height="0.499" transform="matrix(0.708, -0.706, 0.706, 0.708, -293.066, 1035.636)"/><path d="M-301.556,1028.468l-.409-.287,38.224-54.335.409.287Z"/><rect width="66.44" height="0.501" transform="translate(-312.024 1022.396) rotate(-64.835)"/><rect width="66.439" height="0.5" transform="translate(-322.911 1018.453) rotate(-74.823)"/><rect width="66.435" height="0.5" transform="translate(-334.315 1016.464) rotate(-84.846)"/><rect width="0.5" height="66.435" transform="matrix(0.089, -0.996, 0.996, 0.089, -472.357, 1071.025)"/><rect width="0.5" height="66.438" transform="matrix(0.261, -0.965, 0.965, 0.261, -468.327, 1048.217)"/><path d="M-400.247,1054.677l-60.151-28.219.212-.453,60.151,28.219Z"/><path d="M-394.473,1044.628l-54.335-38.224.288-.408,54.335,38.224Z"/><rect width="0.501" height="66.448" transform="matrix(0.709, -0.705, 0.705, 0.709, -433.916, 988.66)"/><rect width="0.5" height="66.433" transform="translate(-416.16 973.785) rotate(-34.865)"/><rect width="0.501" height="66.44" transform="translate(-396.102 962.211) rotate(-24.868)"/><path d="M-357.29,1018.512-374.344,954.3l.483-.129,17.054,64.212Z"/><path d="M-345.883,1016.482l-5.64-66.2.5-.043,5.64,66.2Z"/></g></g></svg>