<svg xmlns="http://www.w3.org/2000/svg"
    xmlns:xlink="http://www.w3.org/1999/xlink" width="23.438" height="30" viewBox="0 0 23.438 30">
    <defs>
        <linearGradient id="a" x1="0.5" y1="-0.5" x2="0.5" y2="-0.46" gradientUnits="objectBoundingBox">
            <stop offset="0" stop-color="#f3f7ff"/>
            <stop offset="0.99" stop-color="#b5d1ff"/>
        </linearGradient>
        <linearGradient id="b" x1="0.5" y1="-0.17" x2="0.5" y2="20.658" gradientUnits="objectBoundingBox">
            <stop offset="0" stop-color="#048ac4"/>
            <stop offset="1" stop-color="#35489b"/>
        </linearGradient>
        <linearGradient id="c" y1="-0.085" y2="2.406" xlink:href="#a"/>
        <linearGradient id="d" y1="-2.145" y2="-0.366" xlink:href="#a"/>
        <linearGradient id="e" y1="-0.123" y2="2.825" xlink:href="#b"/>
        <linearGradient id="f" y1="-4.203" y2="3.531" xlink:href="#b"/>
    </defs>
    <g transform="translate(-7)">
        <path d="M32.625,30H12.469A.469.469,0,0,1,12,29.531V.469A.469.469,0,0,1,12.469,0h15.31a.469.469,0,0,1,.331.137l4.846,4.846a.469.469,0,0,1,.137.331V29.531A.469.469,0,0,1,32.625,30Z" transform="translate(-2.656)" fill="url(#a)"/>
        <path d="M7,32.007l1.875-.828,1.309,2.009H7Z" transform="translate(0 -16.564)" fill="url(#b)"/>
        <path d="M31.625,30H11.469A.469.469,0,0,1,11,29.531V.469A.469.469,0,0,1,11.469,0h15.5l5.121,5.121V29.531A.469.469,0,0,1,31.625,30Z" transform="translate(-2.125)" fill="url(#c)"/>
        <path d="M45.076,0V4.652a.469.469,0,0,0,.469.469H50.2L47.9,2.355Z" transform="translate(-20.228)" fill="url(#d)"/>
        <path d="M25.292,43.051H7.83a.829.829,0,0,1-.83-.83V34.714H25.292a.83.83,0,0,1,.83.83v6.678A.83.83,0,0,1,25.292,43.051Z" transform="translate(0 -18.442)" fill="url(#e)"/>
        <path d="M8.875,31.179H7.829a.829.829,0,1,0,0,1.657H8.875Z" transform="translate(0 -16.564)" fill="url(#f)"/>
        <g transform="translate(10.472 18.355)">
            <path d="M14.408,39.7a.407.407,0,0,1,.407-.407,9.134,9.134,0,0,1,1.845.077,1.519,1.519,0,0,1,.991,1.023,2.964,2.964,0,0,1,.132.952,2.655,2.655,0,0,1-.123.857,1.468,1.468,0,0,1-1,1.031,9.8,9.8,0,0,1-1.843.085.407.407,0,0,1-.407-.407Zm.813.529v2.156c0,.363.48.23.607.254a2.233,2.233,0,0,0,.491-.038.7.7,0,0,0,.541-.556,2.632,2.632,0,0,0,.082-.737,2.408,2.408,0,0,0-.082-.717.78.78,0,0,0-.607-.58,5.414,5.414,0,0,0-.779-.038.254.254,0,0,0-.254.257Z" transform="translate(-14.408 -39.221)" fill="#fff"/>
            <path d="M22.723,41.268a2.116,2.116,0,0,1,.559-1.585,1.8,1.8,0,0,1,1.388-.522,1.891,1.891,0,0,1,1.424.552,2.467,2.467,0,0,1,0,3.061,1.875,1.875,0,0,1-1.417.551,1.9,1.9,0,0,1-1.428-.548,2.08,2.08,0,0,1-.53-1.509Zm.838-.028a1.509,1.509,0,0,0,.315,1.037,1.087,1.087,0,0,0,1.6,0,1.539,1.539,0,0,0,.312-1.05,1.512,1.512,0,0,0-.3-1.031,1.125,1.125,0,0,0-1.616,0,1.519,1.519,0,0,0-.308,1.037Z" transform="translate(-18.823 -39.158)" fill="#fff"/>
            <path d="M35.2,41.9a.408.408,0,0,1,.243.57,1.526,1.526,0,0,1-.436.539,1.9,1.9,0,0,1-2.388-.228,2.1,2.1,0,0,1-.516-1.5,2.2,2.2,0,0,1,.519-1.561,1.781,1.781,0,0,1,1.365-.556,1.674,1.674,0,0,1,1.2.436,1.228,1.228,0,0,1,.2.243.407.407,0,0,1-.252.609.4.4,0,0,1-.441-.187.8.8,0,0,0-.195-.227.854.854,0,0,0-.551-.181.917.917,0,0,0-.727.322,1.576,1.576,0,0,0-.279,1.041,1.692,1.692,0,0,0,.275,1.088.891.891,0,0,0,.714.324.813.813,0,0,0,.557-.206.925.925,0,0,0,.221-.307A.409.409,0,0,1,35.2,41.9Z" transform="translate(-23.808 -39.159)" fill="#fff"/>
        </g>
    </g>
</svg>