<svg xmlns="http://www.w3.org/2000/svg"
    xmlns:xlink="http://www.w3.org/1999/xlink" width="23.438" height="30" viewBox="0 0 23.438 30">
    <defs>
        <linearGradient id="a" x1="0.5" y1="-0.5" x2="0.5" y2="-0.46" gradientUnits="objectBoundingBox">
            <stop offset="0" stop-color="#f3f7ff"/>
            <stop offset="0.99" stop-color="#b5d1ff"/>
        </linearGradient>
        <linearGradient id="b" x1="0.5" y1="-0.17" x2="0.5" y2="20.658" gradientUnits="objectBoundingBox">
            <stop offset="0" stop-color="#9f04c4"/>
            <stop offset="1" stop-color="#35489b"/>
        </linearGradient>
        <linearGradient id="c" y1="-0.085" y2="2.406" xlink:href="#a"/>
        <linearGradient id="d" y1="-2.145" y2="-0.366" xlink:href="#a"/>
        <linearGradient id="e" y1="-0.123" y2="2.825" xlink:href="#b"/>
        <linearGradient id="f" y1="-4.203" y2="3.531" xlink:href="#b"/>
    </defs>
    <g transform="translate(-7)">
        <path d="M32.625,30H12.469A.469.469,0,0,1,12,29.531V.469A.469.469,0,0,1,12.469,0h15.31a.469.469,0,0,1,.331.137l4.846,4.846a.469.469,0,0,1,.137.331V29.531A.469.469,0,0,1,32.625,30Z" transform="translate(-2.656)" fill="url(#a)"/>
        <path d="M7,32.007l1.875-.828,1.309,2.009H7Z" transform="translate(0 -16.564)" fill="url(#b)"/>
        <path d="M31.625,30H11.469A.469.469,0,0,1,11,29.531V.469A.469.469,0,0,1,11.469,0h15.5l5.121,5.121V29.531A.469.469,0,0,1,31.625,30Z" transform="translate(-2.125)" fill="url(#c)"/>
        <path d="M45.076,0V4.652a.469.469,0,0,0,.469.469H50.2L47.9,2.355Z" transform="translate(-20.228)" fill="url(#d)"/>
        <path d="M25.292,43.051H7.83a.829.829,0,0,1-.83-.83V34.714H25.292a.83.83,0,0,1,.83.83v6.678A.83.83,0,0,1,25.292,43.051Z" transform="translate(0 -18.442)" fill="url(#e)"/>
        <path d="M8.875,31.179H7.829a.829.829,0,1,0,0,1.657H8.875Z" transform="translate(0 -16.564)" fill="url(#f)"/>
        <path d="M3.372-2.1a.281.281,0,0,1,.2.074.259.259,0,0,1,.077.2V-.644a.707.707,0,0,1-.066.358.483.483,0,0,1-.269.171,2.84,2.84,0,0,1-.511.121A3.76,3.76,0,0,1,2.244.05,2.165,2.165,0,0,1,1.2-.187,1.6,1.6,0,0,1,.531-.872,2.286,2.286,0,0,1,.3-1.942,2.261,2.261,0,0,1,.531-3a1.632,1.632,0,0,1,.663-.687,2.045,2.045,0,0,1,1.012-.239,1.9,1.9,0,0,1,1.27.418.429.429,0,0,1,.1.121.316.316,0,0,1,.03.143.315.315,0,0,1-.066.2.2.2,0,0,1-.159.082.3.3,0,0,1-.11-.019.624.624,0,0,1-.116-.063A1.751,1.751,0,0,0,2.7-3.281a1.51,1.51,0,0,0-.473-.069,1.128,1.128,0,0,0-.9.355,1.577,1.577,0,0,0-.305,1.053q0,1.43,1.254,1.43a2.768,2.768,0,0,0,.748-.1V-1.59H2.4a.3.3,0,0,1-.206-.066.237.237,0,0,1-.074-.187.237.237,0,0,1,.074-.187A.3.3,0,0,1,2.4-2.1ZM4.9.033a.34.34,0,0,1-.256-.1.355.355,0,0,1-.1-.259V-3.553a.346.346,0,0,1,.1-.256.346.346,0,0,1,.256-.1.353.353,0,0,1,.261.1.346.346,0,0,1,.1.256V-.325a.355.355,0,0,1-.1.259A.348.348,0,0,1,4.9.033Zm1.648,0a.34.34,0,0,1-.256-.1.355.355,0,0,1-.1-.259V-3.542a.329.329,0,0,1,.091-.247.344.344,0,0,1,.25-.088H8.471q.335,0,.336.286t-.336.28H6.9v1.056H8.361q.335,0,.335.286t-.335.281H6.9V-.325A.361.361,0,0,1,6.8-.066.331.331,0,0,1,6.551.033Z" transform="translate(10.173 22.287)" fill="#fff"/>
    </g>
</svg>