<svg xmlns="http://www.w3.org/2000/svg" xmlns:xlink="http://www.w3.org/1999/xlink" width="23.438" height="30" viewBox="0 0 23.438 30"><defs><linearGradient id="a" x1="0.5" y1="-0.5" x2="0.5" y2="-0.46" gradientUnits="objectBoundingBox"><stop offset="0" stop-color="#f3f7ff"/><stop offset="0.99" stop-color="#b5d1ff"/></linearGradient><linearGradient id="b" x1="0.5" y1="-0.17" x2="0.5" y2="20.658" gradientUnits="objectBoundingBox"><stop offset="0" stop-color="#ffe88e"/><stop offset="1" stop-color="#eb5a5a"/></linearGradient><linearGradient id="c" y1="-0.085" y2="2.406" xlink:href="#a"/><linearGradient id="d" y1="-2.145" y2="-0.366" xlink:href="#a"/><linearGradient id="e" y1="-0.123" y2="2.825" xlink:href="#b"/><linearGradient id="f" y1="-4.203" y2="3.531" xlink:href="#b"/></defs><g transform="translate(-7)"><path d="M32.646,30H12.469A.469.469,0,0,1,12,29.531V.469A.469.469,0,0,1,12.469,0H27.8a.469.469,0,0,1,.332.137l4.851,4.846a.469.469,0,0,1,.137.331V29.531A.469.469,0,0,1,32.646,30Z" transform="translate(-2.678)" fill="url(#a)"/><path d="M7,32l1.857-.821,1.3,1.99H7Z" transform="translate(0 -16.554)" fill="url(#b)"/><path d="M31.646,30H11.469A.469.469,0,0,1,11,29.531V.469A.469.469,0,0,1,11.469,0H26.99l5.126,5.121V29.531A.469.469,0,0,1,31.646,30Z" transform="translate(-2.143)" fill="url(#c)"/><path d="M45.076,0V4.608a.464.464,0,0,0,.464.464h4.608l-2.275-2.74Z" transform="translate(-20.175)" fill="url(#d)"/><path d="M25.12,42.973H7.822A.821.821,0,0,1,7,42.151V34.714H25.12a.822.822,0,0,1,.822.822v6.615a.822.822,0,0,1-.822.822Z" transform="translate(0 -18.383)" fill="url(#e)"/><path d="M8.857,31.179H7.821a.821.821,0,1,0,0,1.641H8.857Z" transform="translate(0 -16.556)" fill="url(#f)"/><path d="M.77.033a.346.346,0,0,1-.256-.1.353.353,0,0,1-.1-.261V-3.542a.329.329,0,0,1,.091-.247.344.344,0,0,1,.25-.088H2.112a1.4,1.4,0,0,1,.968.311,1.111,1.111,0,0,1,.347.872,1.119,1.119,0,0,1-.347.875,1.391,1.391,0,0,1-.968.314H1.128V-.325a.353.353,0,0,1-.1.261A.353.353,0,0,1,.77.033ZM2.024-2.052q.732,0,.732-.638t-.732-.638h-.9v1.276ZM4.4.033a.346.346,0,0,1-.256-.1.353.353,0,0,1-.1-.261V-3.542a.329.329,0,0,1,.091-.247.344.344,0,0,1,.25-.088H5.742a1.4,1.4,0,0,1,.968.311,1.111,1.111,0,0,1,.346.872,1.119,1.119,0,0,1-.346.875,1.391,1.391,0,0,1-.968.314H4.757V-.325a.353.353,0,0,1-.1.261A.353.353,0,0,1,4.4.033ZM5.654-2.052q.731,0,.731-.638t-.731-.638h-.9v1.276ZM8.855.028a.353.353,0,0,1-.261-.1.346.346,0,0,1-.1-.256v-2.97h-1q-.33,0-.33-.291t.33-.292h2.712q.33,0,.33.292t-.33.291h-1v2.97a.346.346,0,0,1-.1.256A.346.346,0,0,1,8.855.028Z" transform="translate(10.582 22.318)" fill="#fff"/></g></svg>