<svg xmlns="http://www.w3.org/2000/svg" xmlns:xlink="http://www.w3.org/1999/xlink" width="23.438" height="30" viewBox="0 0 23.438 30"><defs><linearGradient id="a" x1="0.5" y1="-0.5" x2="0.5" y2="-0.46" gradientUnits="objectBoundingBox"><stop offset="0" stop-color="#f3f7ff"/><stop offset="0.99" stop-color="#b5d1ff"/></linearGradient><linearGradient id="b" x1="0.5" y1="-0.17" x2="0.5" y2="20.658" gradientUnits="objectBoundingBox"><stop offset="0" stop-color="#f0b"/><stop offset="1" stop-color="red"/></linearGradient><linearGradient id="c" y1="-0.085" y2="2.406" xlink:href="#a"/><linearGradient id="d" y1="-2.145" y2="-0.366" xlink:href="#a"/><linearGradient id="e" y1="-0.123" y2="1.558" xlink:href="#b"/></defs><g transform="translate(-7)"><path d="M32.646,30H12.469A.469.469,0,0,1,12,29.531V.469A.469.469,0,0,1,12.469,0H27.8a.469.469,0,0,1,.332.137l4.851,4.846a.469.469,0,0,1,.137.331V29.531A.469.469,0,0,1,32.646,30Z" transform="translate(-2.678)" fill="url(#a)"/><path d="M7,32l1.857-.821,1.3,1.99H7Z" transform="translate(0 -16.554)" fill="url(#b)"/><path d="M31.646,30H11.469A.469.469,0,0,1,11,29.531V.469A.469.469,0,0,1,11.469,0H26.99l5.126,5.121V29.531A.469.469,0,0,1,31.646,30Z" transform="translate(-2.143)" fill="url(#c)"/><path d="M45.076,0V4.608a.464.464,0,0,0,.464.464h4.608l-2.275-2.74Z" transform="translate(-20.175)" fill="url(#d)"/><path d="M25.12,42.973H7.822A.821.821,0,0,1,7,42.151V34.714H25.12a.822.822,0,0,1,.822.822v6.615a.822.822,0,0,1-.822.822Z" transform="translate(0 -18.383)" fill="url(#e)"/><path d="M8.857,31.179H7.821a.821.821,0,1,0,0,1.641H8.857Z" transform="translate(0 -16.556)" fill="#d10c0c"/><path d="M1.76.05a2.777,2.777,0,0,1-.8-.113A1.762,1.762,0,0,1,.347-.368.309.309,0,0,1,.22-.632a.31.31,0,0,1,.069-.2A.2.2,0,0,1,.451-.919a.447.447,0,0,1,.226.077,1.649,1.649,0,0,0,.5.248,2,2,0,0,0,.572.077,1.126,1.126,0,0,0,.616-.14.459.459,0,0,0,.214-.41.352.352,0,0,0-.2-.322,2.658,2.658,0,0,0-.668-.217,3.958,3.958,0,0,1-.786-.242A1.111,1.111,0,0,1,.462-2.2a.911.911,0,0,1-.154-.545A1.025,1.025,0,0,1,.5-3.355a1.268,1.268,0,0,1,.536-.421,1.9,1.9,0,0,1,.773-.151,1.918,1.918,0,0,1,1.281.418.413.413,0,0,1,.1.118.312.312,0,0,1,.03.146.31.31,0,0,1-.069.2.2.2,0,0,1-.162.085.3.3,0,0,1-.1-.016.815.815,0,0,1-.124-.061,1.858,1.858,0,0,0-.437-.245,1.482,1.482,0,0,0-.52-.08,1.019,1.019,0,0,0-.591.151A.484.484,0,0,0,1-2.789a.386.386,0,0,0,.192.346,2.256,2.256,0,0,0,.655.226,4.4,4.4,0,0,1,.795.245,1.179,1.179,0,0,1,.467.344.826.826,0,0,1,.162.523,1,1,0,0,1-.19.6A1.237,1.237,0,0,1,2.549-.1,2.007,2.007,0,0,1,1.76.05Zm6.958-3.74a.31.31,0,0,1,.124-.165.343.343,0,0,1,.19-.055.339.339,0,0,1,.228.082.275.275,0,0,1,.1.22.554.554,0,0,1-.028.143L8.146-.192A.34.34,0,0,1,8-.022a.428.428,0,0,1-.223.061.442.442,0,0,1-.226-.061.311.311,0,0,1-.143-.17L6.5-2.783,5.566-.192a.34.34,0,0,1-.146.17A.428.428,0,0,1,5.2.038a.428.428,0,0,1-.223-.061.314.314,0,0,1-.14-.17L3.652-3.465a.463.463,0,0,1-.027-.143.269.269,0,0,1,.1-.22.368.368,0,0,1,.239-.082.366.366,0,0,1,.2.055.306.306,0,0,1,.127.165L5.225-1l.962-2.673a.349.349,0,0,1,.127-.173.323.323,0,0,1,.193-.063.335.335,0,0,1,.2.063.342.342,0,0,1,.129.179l.935,2.7ZM10.313.033a.34.34,0,0,1-.256-.1.355.355,0,0,1-.1-.259V-3.542a.329.329,0,0,1,.091-.247.344.344,0,0,1,.25-.088h1.931q.335,0,.335.286t-.335.28H10.659v1.056h1.463q.335,0,.335.286t-.335.281H10.659V-.325a.361.361,0,0,1-.094.259A.331.331,0,0,1,10.313.033Z" transform="translate(10.56 22.367)" fill="#fff"/></g></svg>