<svg xmlns="http://www.w3.org/2000/svg"
    xmlns:xlink="http://www.w3.org/1999/xlink" width="23.438" height="30" viewBox="0 0 23.438 30">
    <defs>
        <linearGradient id="a" x1="0.5" y1="-0.5" x2="0.5" y2="-0.46" gradientUnits="objectBoundingBox">
            <stop offset="0" stop-color="#f3f7ff"/>
            <stop offset="0.99" stop-color="#b5d1ff"/>
        </linearGradient>
        <linearGradient id="b" x1="0.5" y1="-0.17" x2="0.5" y2="20.658" gradientUnits="objectBoundingBox">
            <stop offset="0" stop-color="#3dd29f"/>
            <stop offset="1" stop-color="#d50000"/>
        </linearGradient>
        <linearGradient id="c" y1="-0.085" y2="2.406" xlink:href="#a"/>
        <linearGradient id="d" y1="-2.145" y2="-0.366" xlink:href="#a"/>
        <linearGradient id="e" x1="0.5" y1="-0.123" x2="0.5" y2="2.825" gradientUnits="objectBoundingBox">
            <stop offset="0" stop-color="#3dd29f"/>
            <stop offset="1" stop-color="#1ab395"/>
        </linearGradient>
    </defs>
    <g transform="translate(-7)">
        <path d="M32.646,30H12.469A.469.469,0,0,1,12,29.531V.469A.469.469,0,0,1,12.469,0H27.8a.469.469,0,0,1,.332.137l4.851,4.846a.469.469,0,0,1,.137.331V29.531A.469.469,0,0,1,32.646,30Z" transform="translate(-2.678)" fill="url(#a)"/>
        <path d="M7,32l1.857-.821,1.3,1.99H7Z" transform="translate(0 -16.554)" fill="url(#b)"/>
        <path d="M31.646,30H11.469A.469.469,0,0,1,11,29.531V.469A.469.469,0,0,1,11.469,0H26.99l5.126,5.121V29.531A.469.469,0,0,1,31.646,30Z" transform="translate(-2.143)" fill="url(#c)"/>
        <path d="M45.076,0V4.608a.464.464,0,0,0,.464.464h4.608l-2.275-2.74Z" transform="translate(-20.175)" fill="url(#d)"/>
        <path d="M25.12,42.973H7.822A.821.821,0,0,1,7,42.151V34.714H25.12a.822.822,0,0,1,.822.822v6.615a.822.822,0,0,1-.822.822Z" transform="translate(0 -18.383)" fill="url(#e)"/>
        <path d="M8.857,31.179H7.821a.821.821,0,1,0,0,1.641H8.857Z" transform="translate(0 -16.556)" fill="#30c69b"/>
        <path d="M3.432-.506A.325.325,0,0,1,3.52-.3a.313.313,0,0,1-.1.231.326.326,0,0,1-.234.1.312.312,0,0,1-.242-.121L1.826-1.474.7-.088A.3.3,0,0,1,.468.028a.33.33,0,0,1-.234-.1A.3.3,0,0,1,.132-.3.322.322,0,0,1,.215-.506l1.2-1.463L.264-3.372a.3.3,0,0,1-.082-.209.308.308,0,0,1,.1-.228.321.321,0,0,1,.231-.1.312.312,0,0,1,.242.121L1.826-2.459,2.9-3.784a.3.3,0,0,1,.237-.121.33.33,0,0,1,.234.1.3.3,0,0,1,.1.228.3.3,0,0,1-.082.209l-1.15,1.4ZM4.508,0A.335.335,0,0,1,4.26-.088.327.327,0,0,1,4.172-.33V-3.553a.346.346,0,0,1,.1-.256.346.346,0,0,1,.256-.1.353.353,0,0,1,.261.1.346.346,0,0,1,.1.256v2.97H6.427q.33,0,.33.292T6.427,0ZM8.6.05a2.777,2.777,0,0,1-.8-.113,1.762,1.762,0,0,1-.613-.305.309.309,0,0,1-.127-.264.31.31,0,0,1,.069-.2.2.2,0,0,1,.162-.085.447.447,0,0,1,.225.077,1.649,1.649,0,0,0,.495.248,2,2,0,0,0,.572.077A1.126,1.126,0,0,0,9.2-.657a.459.459,0,0,0,.214-.41.352.352,0,0,0-.2-.322,2.658,2.658,0,0,0-.668-.217,3.958,3.958,0,0,1-.787-.242A1.111,1.111,0,0,1,7.3-2.2a.911.911,0,0,1-.154-.545,1.025,1.025,0,0,1,.193-.61,1.268,1.268,0,0,1,.536-.421,1.9,1.9,0,0,1,.773-.151,1.918,1.918,0,0,1,1.281.418.413.413,0,0,1,.1.118.312.312,0,0,1,.03.146.31.31,0,0,1-.069.2.2.2,0,0,1-.162.085.3.3,0,0,1-.1-.016A.815.815,0,0,1,9.6-3.036a1.858,1.858,0,0,0-.437-.245,1.482,1.482,0,0,0-.52-.08,1.019,1.019,0,0,0-.591.151.484.484,0,0,0-.217.421.386.386,0,0,0,.193.346,2.256,2.256,0,0,0,.655.226,4.4,4.4,0,0,1,.795.245,1.179,1.179,0,0,1,.467.344.826.826,0,0,1,.162.523,1,1,0,0,1-.19.6A1.237,1.237,0,0,1,9.387-.1,2.007,2.007,0,0,1,8.6.05Z" transform="translate(10.648 22.367)" fill="#fff"/>
    </g>
</svg>