<svg xmlns="http://www.w3.org/2000/svg" xmlns:xlink="http://www.w3.org/1999/xlink" width="31.338" height="31.338" viewBox="0 0 31.338 31.338"><defs><linearGradient id="a" x1="0.5" y1="-0.5" x2="0.5" y2="-0.46" gradientUnits="objectBoundingBox"><stop offset="0" stop-color="#f3f7ff"/><stop offset="0.99" stop-color="#b5d1ff"/></linearGradient><linearGradient id="b" x1="0.5" y1="-0.17" x2="0.5" y2="20.658" gradientUnits="objectBoundingBox"><stop offset="0" stop-color="#52ffb4"/><stop offset="1" stop-color="#3800d5"/></linearGradient><linearGradient id="c" y1="-0.085" y2="2.406" xlink:href="#a"/><linearGradient id="d" y1="-2.145" y2="-0.366" xlink:href="#a"/><linearGradient id="e" y1="-0.123" y2="2.825" xlink:href="#b"/><linearGradient id="f" y1="-4.203" y2="3.531" xlink:href="#b"/></defs><g transform="translate(-3.327 0.001)"><path d="M32.646,30H12.469A.469.469,0,0,1,12,29.531V.469A.469.469,0,0,1,12.469,0H27.8a.469.469,0,0,1,.332.137l4.851,4.846a.469.469,0,0,1,.137.331V29.531A.469.469,0,0,1,32.646,30Z" transform="translate(-2.678)" fill="url(#a)"/><path d="M7,32l1.857-.821,1.3,1.99H7Z" transform="translate(0 -16.554)" fill="url(#b)"/><path d="M31.646,30H11.469A.469.469,0,0,1,11,29.531V.469A.469.469,0,0,1,11.469,0H26.99l5.126,5.121V29.531A.469.469,0,0,1,31.646,30Z" transform="translate(-2.143)" fill="url(#c)"/><g transform="translate(9.559 21.898) rotate(-45)"><path d="M-1200.95-15310.951a2.043,2.043,0,0,1-1.439-.593,2.042,2.042,0,0,1-.589-1.543,2.031,2.031,0,0,1,.75-1.475l2-1.616a2.738,2.738,0,0,1,.789-2.186,2.728,2.728,0,0,1,1.224-.708,2.883,2.883,0,0,0,1.32-.73l.777-.774a.4.4,0,0,1,.277-.115.4.4,0,0,1,.277.115l.827.828.974-.974-.462-.458a.4.4,0,0,1,0-.555.391.391,0,0,1,.554,0l.462.462.554-.554-.462-.462a.39.39,0,0,1,0-.554.4.4,0,0,1,.554,0l.462.461.55-.554-.462-.458a.4.4,0,0,1,0-.554.356.356,0,0,1,.039-.035.384.384,0,0,1,.535.016l.462.458.3-.3.25-.254-.458-.458a.4.4,0,0,1,0-.554.389.389,0,0,1,.554,0l.462.462.537-.537,0,0-.458-.462a.381.381,0,0,1-.036-.5.437.437,0,0,1,.052-.064.4.4,0,0,1,.554,0l.458.462.535-.535-.458-.454a.39.39,0,0,1,0-.554.383.383,0,0,1,.554,0l.462.462.531-.539-.462-.462a.39.39,0,0,1,0-.554c.008-.016.023-.023.046-.039a.382.382,0,0,1,.523.023l.462.462.539-.539-.462-.454a.39.39,0,0,1,0-.554.389.389,0,0,1,.554,0l.462.462.527-.535,0,0-.462-.462a.38.38,0,0,1,0-.546.29.29,0,0,1,.054-.043.378.378,0,0,1,.523.02l.462.462.531-.531-.462-.462a.39.39,0,0,1,0-.554.389.389,0,0,1,.554,0l.462.462.554-.555-.462-.462a.39.39,0,0,1,0-.554.389.389,0,0,1,.554,0l.462.462.689-.7a.389.389,0,0,1,.554,0,.39.39,0,0,1,0,.554l-.7.7.462.462a.391.391,0,0,1,0,.555.36.36,0,0,1-.273.107.346.346,0,0,1-.269-.107l-.462-.462-.554.554.462.462a.4.4,0,0,1,0,.546.391.391,0,0,1-.277.116.391.391,0,0,1-.277-.116l-.462-.453-.531.53.462.454a.4.4,0,0,1,0,.563l-.042.03a.4.4,0,0,1-.258.1.391.391,0,0,1-.277-.116l-.458-.458-.535.527.462.462a.391.391,0,0,1,0,.555.394.394,0,0,1-.277.115.394.394,0,0,1-.277-.115l-.454-.462-.539.538.462.458a.4.4,0,0,1,0,.559c-.008.008-.008.008-.015.008v.007a.408.408,0,0,1-.277.116.408.408,0,0,1-.277-.116l-.462-.465-.539.538.462.462a.382.382,0,0,1,0,.547.394.394,0,0,1-.277.115.364.364,0,0,1-.269-.115l-.462-.458-.541.537.46.459a.39.39,0,0,1,.018.535l-.029.035a.394.394,0,0,1-.277.115.394.394,0,0,1-.277-.115l-.462-.462-.535.538.458.462a.393.393,0,0,1,0,.551.379.379,0,0,1-.273.115.387.387,0,0,1-.277-.115l-.462-.462-.554.554.462.462a.391.391,0,0,1,0,.555s-.008.007-.012.007-.008.008-.008.012a.389.389,0,0,1-.277.115.389.389,0,0,1-.277-.115l-.462-.462-.554.555.462.462a.39.39,0,0,1,0,.554.4.4,0,0,1-.277.111.4.4,0,0,1-.277-.111l-.458-.462-.554.551.462.462a.4.4,0,0,1,0,.554.39.39,0,0,1-.277.115.39.39,0,0,1-.277-.115l-.462-.462-.974.974.831.831a.388.388,0,0,1,.115.277.4.4,0,0,1-.115.277l-.777.773a2.854,2.854,0,0,0-.731,1.319,2.727,2.727,0,0,1-.7,1.22,2.734,2.734,0,0,1-1.939.8q-.127,0-.254-.012l-1.612,2a2.035,2.035,0,0,1-1.474.755Zm-.785-3a1.232,1.232,0,0,0-.462.9,1.235,1.235,0,0,0,.362.95,1.241,1.241,0,0,0,.951.366,1.242,1.242,0,0,0,.908-.466l1.747-2.167a0,0,0,0,1,0,0l1.058-1.312a.771.771,0,0,0,.146-.674l-.389.385a.356.356,0,0,1-.273.111.37.37,0,0,1-.277-.111.385.385,0,0,1,0-.55l.385-.385a.792.792,0,0,0-.192-.031.773.773,0,0,0-.485.173l-1.308,1.059h0Zm5.8-4.04a.38.38,0,0,1,0,.546l-.5.5a1.553,1.553,0,0,1-.131,1.763l-.542.67a1.953,1.953,0,0,0,.985-.531,1.93,1.93,0,0,0,.5-.87,3.69,3.69,0,0,1,.931-1.674l.5-.492-.831-.831-.827-.831-.5.5a3.688,3.688,0,0,1-1.674.935,1.914,1.914,0,0,0-.87.5,1.924,1.924,0,0,0-.531.978l.673-.535a1.533,1.533,0,0,1,1.759-.131l.5-.5a.391.391,0,0,1,.277-.116A.391.391,0,0,1-1195.932-15317.993Z" transform="translate(1202.98 15324.3)" fill="#869ec5"/><path d="M61.517,400.051l-.553.553a.391.391,0,1,0,.553.553l.553-.553a.391.391,0,1,0-.553-.553Z" transform="translate(-59.263 -389.507)" fill="#869ec5"/></g><path d="M45.076,0V4.608a.464.464,0,0,0,.464.464h4.608l-2.275-2.74Z" transform="translate(-20.175)" fill="url(#d)"/><path d="M25.12,42.973H7.822A.821.821,0,0,1,7,42.151V34.714H25.12a.822.822,0,0,1,.822.822v6.615a.822.822,0,0,1-.822.822Z" transform="translate(0 -18.383)" fill="url(#e)"/><path d="M8.857,31.179H7.821a.821.821,0,1,0,0,1.641H8.857Z" transform="translate(0 -16.556)" fill="url(#f)"/><path d="M2.855-.567q.33,0,.33.281T2.855,0H.512A.308.308,0,0,1,.283-.085.294.294,0,0,1,.2-.3.424.424,0,0,1,.286-.556L2.255-3.311H.534q-.33,0-.33-.28t.33-.286H2.805a.308.308,0,0,1,.228.085.287.287,0,0,1,.085.212.424.424,0,0,1-.094.253L1.056-.567Zm1.226.6a.34.34,0,0,1-.256-.1.355.355,0,0,1-.1-.259V-3.553a.346.346,0,0,1,.1-.256.346.346,0,0,1,.256-.1.353.353,0,0,1,.261.1.346.346,0,0,1,.1.256V-.325a.355.355,0,0,1-.1.259A.348.348,0,0,1,4.081.033Zm1.545,0a.346.346,0,0,1-.256-.1.353.353,0,0,1-.1-.261V-3.542a.329.329,0,0,1,.091-.247.344.344,0,0,1,.25-.088H6.968a1.4,1.4,0,0,1,.968.311,1.111,1.111,0,0,1,.347.872,1.119,1.119,0,0,1-.347.875,1.391,1.391,0,0,1-.968.314H5.984V-.325a.353.353,0,0,1-.1.261A.353.353,0,0,1,5.626.033ZM6.88-2.052q.731,0,.732-.638T6.88-3.328h-.9v1.276Z" transform="translate(10.582 22.345)" fill="#fff"/></g></svg>