<svg xmlns="http://www.w3.org/2000/svg" width="21.364" height="15.76" viewBox="0 0 21.364 15.76">
  <g id="delete" transform="translate(1.362 -62.491)">
    <path id="Subtraction_6" data-name="Subtraction 6" d="M17.863,15.762H8.395a4.107,4.107,0,0,1-3.031-1.338L.484,9.111a1.8,1.8,0,0,1,0-2.459L5.363,1.34A4.088,4.088,0,0,1,8.395,0h9.469a3.506,3.506,0,0,1,3.5,3.5v8.764A3.5,3.5,0,0,1,17.863,15.762ZM12.686,8.629v0l2.086,2.09a.533.533,0,0,0,.381.156.545.545,0,0,0,.381-.156.537.537,0,0,0,.156-.379.553.553,0,0,0-.156-.383L13.439,7.877l2.086-2.086a.514.514,0,0,0,.156-.371.537.537,0,0,0-.156-.383.522.522,0,0,0-.375-.16.534.534,0,0,0-.379.16L12.686,7.121,10.6,5.037a.522.522,0,0,0-.375-.16.534.534,0,0,0-.379.16.546.546,0,0,0-.156.383.522.522,0,0,0,.156.371l2.086,2.086L9.846,9.959a.548.548,0,0,0-.006.762.526.526,0,0,0,.381.156.54.54,0,0,0,.379-.156l2.086-2.09Z" transform="translate(-1.361 62.489)" fill="#aaafb5"/>
  </g>
</svg>
