<svg xmlns="http://www.w3.org/2000/svg" width="18.951" height="16.918" viewBox="0 0 18.951 16.918"><defs><style>.a{fill:#aaafb5;}</style></defs><path class="a" d="M.56,36.062C1.7,33.221,4.787,31.5,9.814,31.5h2.369v-3.41a.673.673,0,0,1,1.153-.476l5.415,5.414a.664.664,0,0,1,0,.952L13.336,39.4a.677.677,0,0,1-1.153-.476V35.589H9.814q-1.036,0-1.856.063a13.379,13.379,0,0,0-1.629.228,6.046,6.046,0,0,0-1.407.449,4.979,4.979,0,0,0-1.116.735,3.684,3.684,0,0,0-.846,1.068A5.754,5.754,0,0,0,2.448,39.6a16.169,16.169,0,0,0-.185,2.539q0,.581.053,1.3a2.166,2.166,0,0,0,.026.248,2.176,2.176,0,0,1,.026.28.4.4,0,0,1-.09.264.309.309,0,0,1-.249.106.361.361,0,0,1-.3-.18,1.208,1.208,0,0,1-.137-.233q-.064-.137-.143-.317c-.053-.12-.09-.2-.111-.254A12.694,12.694,0,0,1,0,38.583,4.825,4.825,0,0,1,.56,36.062Z" transform="translate(0 -27.417)"/></svg>