<svg xmlns="http://www.w3.org/2000/svg" width="18.95" height="16.919" viewBox="0 0 18.95 16.919"><defs><style>.a{fill:#aaafb5;}</style></defs><g transform="translate(0 -27.417)"><path class="a" d="M18.39,36.063C17.248,33.222,14.163,31.5,9.137,31.5H6.768v-3.41a.673.673,0,0,0-1.153-.476L.2,33.032a.664.664,0,0,0,0,.952L5.615,39.4a.677.677,0,0,0,1.153-.476V35.59H9.137q1.036,0,1.856.063a13.377,13.377,0,0,1,1.629.228,6.045,6.045,0,0,1,1.407.449,4.979,4.979,0,0,1,1.116.735,3.684,3.684,0,0,1,.846,1.068A5.755,5.755,0,0,1,16.5,39.6a16.173,16.173,0,0,1,.185,2.539q0,.581-.053,1.3a2.167,2.167,0,0,1-.026.248,2.177,2.177,0,0,0-.026.28.4.4,0,0,0,.09.264.309.309,0,0,0,.249.106.361.361,0,0,0,.3-.18,1.209,1.209,0,0,0,.137-.233q.064-.137.143-.317c.053-.12.09-.2.111-.254a12.7,12.7,0,0,0,1.343-4.769A4.826,4.826,0,0,0,18.39,36.063Z" transform="translate(0)"/></g></svg>