<svg xmlns="http://www.w3.org/2000/svg" width="7.969" height="12.492" viewBox="0 0 7.969 12.492">
    <defs>
        <style>.a{fill:#707070;}</style>
    </defs>
    <path class="a" d="M-.926.156A2.565,2.565,0,0,1-3.031-.715a3.939,3.939,0,0,1-.715-2.551,14.879,14.879,0,0,1,.383-3.227,10.914,10.914,0,0,1,1.879-4.48,3.681,3.681,0,0,1,2.941-1.363,2.47,2.47,0,0,1,2.07.887,4.22,4.22,0,0,1,.7,2.637A15.809,15.809,0,0,1,3.8-5.418,12.422,12.422,0,0,1,2.719-2.289,4.994,4.994,0,0,1,1.16-.457,3.633,3.633,0,0,1-.926.156Zm.172-1.422A1.8,1.8,0,0,0,.785-2.316,11.572,11.572,0,0,0,1.9-5.469H-1.7a13.192,13.192,0,0,0-.234,2.32,2.776,2.776,0,0,0,.285,1.414A.971.971,0,0,0-.754-1.266Zm2.031-9.648A1.843,1.843,0,0,0-.23-9.941,9.6,9.6,0,0,0-1.379-6.93h3.57A11.621,11.621,0,0,0,2.418-9.07Q2.418-10.914,1.277-10.914Z" transform="translate(3.746 12.336)"/>
</svg>