<svg xmlns="http://www.w3.org/2000/svg" width="13.6" height="13.396" viewBox="0 0 13.6 13.396">
    <defs>
        <style>.a{fill:#707070;}</style>
    </defs>
    <path class="a" d="M6.58-6.445a6.479,6.479,0,0,1-.537,2.632A6.7,6.7,0,0,1,4.582-1.687,6.887,6.887,0,0,1,2.422-.263,6.73,6.73,0,0,1-.22.258,6.73,6.73,0,0,1-2.863-.263,6.887,6.887,0,0,1-5.022-1.687,6.7,6.7,0,0,1-6.483-3.813,6.479,6.479,0,0,1-7.02-6.445a6.442,6.442,0,0,1,.537-2.626,6.721,6.721,0,0,1,1.461-2.122,6.887,6.887,0,0,1,2.159-1.423A6.73,6.73,0,0,1-.22-13.138a6.73,6.73,0,0,1,2.643.521,6.887,6.887,0,0,1,2.159,1.423A6.721,6.721,0,0,1,6.042-9.072,6.442,6.442,0,0,1,6.58-6.445Zm-1.611,0a5.423,5.423,0,0,0-.392-2.068,5.094,5.094,0,0,0-1.09-1.67A5.126,5.126,0,0,0,1.837-11.3,5.158,5.158,0,0,0-.22-11.709a5.147,5.147,0,0,0-2.062.408,5.142,5.142,0,0,0-1.644,1.117,5.094,5.094,0,0,0-1.09,1.67,5.423,5.423,0,0,0-.392,2.068,5.452,5.452,0,0,0,.392,2.079A5.094,5.094,0,0,0-3.926-2.7,5.142,5.142,0,0,0-2.283-1.579,5.147,5.147,0,0,0-.22-1.171a5.158,5.158,0,0,0,2.057-.408A5.126,5.126,0,0,0,3.486-2.7a5.094,5.094,0,0,0,1.09-1.67A5.452,5.452,0,0,0,4.968-6.445ZM-.22-5.242a1.112,1.112,0,0,1-.462-.1A1.254,1.254,0,0,1-1.058-5.6a1.236,1.236,0,0,1-.258-.381,1.15,1.15,0,0,1-.1-.467,1.15,1.15,0,0,1,.1-.467A1.305,1.305,0,0,1-1.058-7.3a1.208,1.208,0,0,1,.376-.263,1.112,1.112,0,0,1,.462-.1,1.15,1.15,0,0,1,.467.1A1.255,1.255,0,0,1,.634-7.3,1.255,1.255,0,0,1,.9-6.913a1.15,1.15,0,0,1,.1.467,1.15,1.15,0,0,1-.1.467A1.191,1.191,0,0,1,.634-5.6a1.305,1.305,0,0,1-.387.258A1.15,1.15,0,0,1-.22-5.242Z" transform="translate(7.02 13.138)"/>
</svg>