<svg xmlns="http://www.w3.org/2000/svg" width="27.165" height="8.797" viewBox="0 0 27.165 8.797">
    <defs>
        <style>.a{fill:#707070;}</style>
    </defs>
    <g transform="translate(-384.664 -321.203)">
        <path class="a" d="M.945,0H-.9V-5.328a2.416,2.416,0,0,0-.375-1.48A1.384,1.384,0,0,0-2.445-7.3,1.787,1.787,0,0,0-4-6.605a4.057,4.057,0,0,0-.5,2.3V0H-6.336V-8.641H-4.9l.258,1.133h.094A2.394,2.394,0,0,1-3.5-8.461,3.363,3.363,0,0,1-2-8.8,2.628,2.628,0,0,1,.641-7.437H.766a2.634,2.634,0,0,1,1.078-1A3.422,3.422,0,0,1,3.438-8.8a2.9,2.9,0,0,1,2.254.781A3.46,3.46,0,0,1,6.4-5.633V0H4.563V-5.328a2.4,2.4,0,0,0-.379-1.48A1.4,1.4,0,0,0,3.008-7.3a1.822,1.822,0,0,0-1.566.668,3.443,3.443,0,0,0-.5,2.051Z" transform="translate(391 330)"/>
        <path class="a" d="M4.829,0h-10.1V-.881L2.465-8.615l1.063.967-6.2,6.2.011.043H4.829Z" transform="translate(407 330)"/>
    </g>
</svg>