<svg xmlns="http://www.w3.org/2000/svg" xmlns:xlink="http://www.w3.org/1999/xlink" width="216.742" height="117.678" viewBox="0 0 216.742 117.678"><defs><radialGradient id="a" cx="108.32" cy="58.838" r="160.471" gradientTransform="translate(49.483 26.878) scale(0.543 0.543)" gradientUnits="userSpaceOnUse"><stop offset="0" stop-color="#fdfdfd"/><stop offset="1" stop-color="#e4e5e5"/></radialGradient><radialGradient id="b" cx="55.016" cy="100.016" r="238.899" gradientTransform="translate(25.132 45.689) scale(0.543 0.543)" xlink:href="#a"/><linearGradient id="c" x1="1" x2="-0.008" y2="1.024" gradientUnits="objectBoundingBox"><stop offset="0" stop-color="#e5e5e5"/><stop offset="1" stop-color="#dbdbdb"/></linearGradient></defs><g transform="translate(0.1)"><path d="M216.25,117.677H.394v-.492C.1,114.23,0,111.276,0,108.322a108.322,108.322,0,0,1,216.644,0c0,2.954-.1,5.908-.394,8.863v.492Zm-168-34.466H169.376l-.2-.591a62.606,62.606,0,0,0-120.828,0l-.1.591Z" transform="translate(-0.002)" fill="url(#a)"/><path d="M216.25,117.677H.394v-.492C.1,114.23,0,111.276,0,108.322a108.322,108.322,0,0,1,216.644,0c0,2.954-.1,5.908-.394,8.863v.492Zm-168-34.466H169.376l-.2-.591a62.606,62.606,0,0,0-120.828,0l-.1.591Z" transform="translate(-0.002)" fill="url(#b)"/><path d="M216.25,117.677H.394v-.492C.1,114.23,0,111.276,0,108.322a108.322,108.322,0,0,1,216.644,0c0,2.954-.1,5.908-.394,8.863v.492Zm-168-34.466H169.376l-.2-.591a62.606,62.606,0,0,0-120.828,0l-.1.591Z" transform="translate(-0.002)" fill="url(#c)"/><path d="M109.45,36.9A63.544,63.544,0,0,0,48.1,83.872H170.8A63.544,63.544,0,0,0,109.45,36.9Zm0,1.182a62.276,62.276,0,0,1,59.675,44.707H49.774A62.365,62.365,0,0,1,109.45,38.082Z" transform="translate(-0.735 -0.563)" fill="#cfcfcf"/><path d="M167.214,23.935l1.083.788,3.053-4.431c-.394-.3-.689-.492-1.083-.788Zm-15.756-8.961,1.182.591L155,10.543l-1.182-.591ZM116.5,5.915l1.28.1L118.272.5c-.394,0-.886-.1-1.28-.1Zm17.922,3.053,1.28.3,1.477-5.318c-.394-.1-.886-.2-1.28-.3ZM202.074,65l.591,1.182,4.53-2.166-.591-1.182Zm-9.158-15.657.788,1.083,4.234-2.954c-.3-.394-.492-.689-.788-1.083ZM98.282.5l.492,5.515,1.28-.1L99.562.4A6.057,6.057,0,0,0,98.282.5ZM213.1,80.755l-4.727,1.28.3,1.28,4.727-1.28C213.3,81.543,213.2,81.149,213.1,80.755ZM79.572,3.847l1.477,5.318,1.28-.3L80.852,3.453A9.146,9.146,0,0,1,79.572,3.847ZM181.2,35.555l.886.886,3.742-3.742a8.877,8.877,0,0,1-.886-.985ZM.3,100.745l4.628.394.1-1.28L.4,99.465A5.2,5.2,0,0,0,.3,100.745Zm61.35-90.2,2.363,5.022,1.182-.591L62.831,9.952A6.618,6.618,0,0,1,61.65,10.543Zm154.6,88.824-4.628.394.1,1.28,4.628-.394A6.058,6.058,0,0,0,216.254,99.367ZM30.827,32.7l3.742,3.742.886-.886-3.742-3.742ZM45.3,20.292l3.053,4.431,1.083-.788L46.288,19.5A6.9,6.9,0,0,1,45.3,20.292ZM3.254,82.035l4.628,1.182.3-1.28L3.55,80.755C3.451,81.149,3.353,81.543,3.254,82.035ZM18.813,47.471l4.234,2.954.788-1.083L19.6,46.388A7.515,7.515,0,0,0,18.813,47.471ZM9.458,64.014l4.53,2.166L14.579,65l-4.53-2.166Z" transform="translate(-0.006 -0.006)" fill="#b1afae"/><path d="M124.767,12.211l1.28.2,1.871-10.635a5.763,5.763,0,0,0-1.28-.2Zm46.185,21.074.985.886,6.795-8.075c-.3-.3-.689-.591-.985-.886Zm-14.082-9.65,1.182.689,5.318-9.257a10.381,10.381,0,0,1-1.083-.689Zm-15.559-7.189,1.28.492,3.644-10.044c-.394-.2-.788-.3-1.28-.492ZM202.07,54.062l-8.961,5.219.689,1.182,8.961-5.219A7.345,7.345,0,0,1,202.07,54.062Zm14.574,54.259H206.5v1.28h10.143v-1.28ZM214.97,89.513l-10.044,1.773.2,1.28,10.044-1.773A4.99,4.99,0,0,0,214.97,89.513ZM0,108.322v1.28H10.044v-1.28ZM210.144,71.2l-9.65,3.545.492,1.28,9.65-3.545A3.441,3.441,0,0,1,210.144,71.2ZM183.162,45.4l.886.985,7.976-6.7c-.3-.3-.591-.689-.886-.985ZM6.105,72.477l9.65,3.545.492-1.28L6.6,71.2A6.838,6.838,0,0,0,6.105,72.477ZM1.477,90.793l9.946,1.773.2-1.28L1.674,89.513A4.989,4.989,0,0,0,1.477,90.793ZM107.534,0V10.832h1.28V0h-1.28ZM24.619,39.685l7.976,6.7.886-.985-3-2.516L25.5,38.7A8.878,8.878,0,0,0,24.619,39.685ZM13.885,55.244l8.961,5.219.689-1.182-8.961-5.219A7.345,7.345,0,0,1,13.885,55.244ZM37.913,26.1l6.795,8.075.985-.886L38.9,25.209A8.878,8.878,0,0,0,37.913,26.1Zm32.5-19.2,3.644,10.044,1.28-.492L71.591,6.4C71.2,6.6,70.8,6.7,70.409,6.893ZM88.725,1.773,90.6,12.408l1.28-.2L90.006,1.576C89.513,1.674,89.119,1.674,88.725,1.773ZM53.275,15.067l5.318,9.257,1.182-.689-5.318-9.257C54.062,14.574,53.669,14.87,53.275,15.067Z" transform="translate(-0.002)" fill="#b1b1b1"/><path d="M158.936,16.642l1.182.591,1.773-3.151a7.344,7.344,0,0,1-1.182-.689Zm5.022-1.182-1.871,3.053,1.083.689,1.871-3.053A4.067,4.067,0,0,0,163.958,15.46ZM159.035,12.6l-1.674,3.25,1.182.591,1.674-3.25A6.557,6.557,0,0,1,159.035,12.6Zm6.6,3.841L163.761,19.5l1.083.689,1.871-3.053C166.322,16.839,165.928,16.642,165.632,16.445Zm-8.37-4.727-1.674,3.25,1.182.591,1.674-3.25Zm-6.893-3.25-1.477,3.447,1.182.492,1.477-3.348Zm16.839,8.961-1.969,2.954,1.083.689,1.969-2.954A6.624,6.624,0,0,1,167.208,17.43ZM150.664,12.6l1.182.492,1.477-3.348a6.024,6.024,0,0,0-1.182-.492Zm4.924-1.773-1.576,3.25,1.182.591,1.576-3.25Zm27.967,19.6-2.363,2.462.985.886,2.363-2.462A4.233,4.233,0,0,1,183.555,30.429ZM168.784,18.513l-1.969,2.954,1.083.689,1.969-2.954C169.473,19.006,169.178,18.71,168.784,18.513Zm10.537,8.075-2.265,2.659.985.886,2.265-2.659A8.879,8.879,0,0,0,179.32,26.588Zm2.856,2.56-2.363,2.56.985.886,2.363-2.56A8.879,8.879,0,0,1,182.176,29.148Zm-1.379-1.28-2.363,2.56.985.886,2.265-2.56Zm-8.863-7.189-2.068,2.856,1.083.788,2.068-2.856A10.315,10.315,0,0,1,171.935,20.68Zm1.477,1.083-2.068,2.856,1.083.788,2.166-2.856A4.948,4.948,0,0,1,173.412,21.763Zm1.576,1.182L172.821,25.7l1.083.788,2.166-2.757A3.086,3.086,0,0,1,174.988,22.945Zm1.477,1.182L174.3,26.884l.985.788,2.166-2.757A6.9,6.9,0,0,1,176.465,24.126Zm-52.29-19.2,1.28.2.591-3.742a5.763,5.763,0,0,0-1.28-.2Zm-3.644-.394,1.28.2L122.3.985c-.394-.1-.886-.1-1.28-.2Zm-1.871-.2,1.28.1.394-3.742c-.394,0-.886-.1-1.28-.1Zm9.847-2.462-.689,3.644,1.28.3.689-3.742A6.777,6.777,0,0,1,128.508,1.871Zm57.9,31.512-2.462,2.462.689.689,2.462-2.363A2.654,2.654,0,0,0,186.411,33.383ZM122.895.985,122.4,4.727l1.28.2.492-3.742C123.781,1.083,123.288,1.083,122.895.985ZM111.373,3.841h1.28l.1-3.742a5.615,5.615,0,0,1-1.28-.1Zm1.773,0,1.28.1.2-3.742c-.394,0-.886-.1-1.28-.1Zm1.871.1,1.28.1.3-3.742c-.394,0-.886-.1-1.28-.1ZM148.6,7.779l-1.379,3.447,1.182.492,1.379-3.447C149.483,8.075,148.99,7.976,148.6,7.779ZM109.5,3.742h1.28l.1-3.742H109.6Zm32.6,5.613,1.28.394L144.559,6.2c-.394-.1-.788-.3-1.28-.394Zm-2.462-4.727-1.083,3.545,1.28.394,1.083-3.545C140.521,4.924,140.029,4.727,139.635,4.628Zm7.189,2.462-1.28,3.447,1.182.492,1.28-3.447C147.71,7.386,147.218,7.287,146.824,7.09Zm-5.318-1.871-1.182,3.545,1.28.394,1.182-3.545A9.145,9.145,0,0,0,141.506,5.219Zm-9.257-2.56L131.363,6.3l1.28.3.886-3.644C133.136,2.856,132.644,2.757,132.25,2.659Zm.985,4.136,1.28.3.886-3.644c-.394-.1-.886-.2-1.28-.3Zm4.53-2.757-.985,3.644,1.28.394.985-3.545C138.65,4.333,138.257,4.234,137.764,4.037Zm-7.386-1.773-.788,3.644,1.28.3.788-3.644C131.265,2.462,130.871,2.363,130.379,2.265Zm83.112,80.158-2.954.689.3,1.28,2.954-.689C213.688,83.211,213.59,82.817,213.491,82.423Zm.492,1.871-2.954.689.3,1.28,2.954-.689A7.77,7.77,0,0,1,213.983,84.294Zm.394,1.773-2.954.591.3,1.28,2.954-.591A4.886,4.886,0,0,1,214.377,86.067Zm-26.884-51.5-2.462,2.363.886.985,2.462-2.363A2.793,2.793,0,0,0,187.494,34.565ZM212.506,78.78l-2.954.886.394,1.28,2.954-.886C212.8,79.567,212.6,79.173,212.506,78.78Zm-.492-1.871-2.954.886.394,1.28,2.954-.886A6.37,6.37,0,0,1,212.014,76.909Zm-1.182-3.545-2.954.985.394,1.28,2.954-.985C211.128,74.151,210.931,73.757,210.832,73.363Zm.591,1.773-2.954.985.394,1.28,2.954-.985C211.719,75.924,211.522,75.53,211.423,75.136ZM105.76,0l.1,3.742h1.28L107.04,0ZM216.347,101.133l-2.856.2.1,1.28,2.856-.2A5.2,5.2,0,0,0,216.347,101.133Zm.2,3.742-2.856.1v1.28l2.757-.1A1.92,1.92,0,0,0,216.544,104.875Zm0-1.871-2.856.2.1,1.28,2.856-.2A5.615,5.615,0,0,1,216.544,103ZM209.552,69.72,206.6,70.8l.394.985,2.954-1.182A1.856,1.856,0,0,1,209.552,69.72Zm6.105,23.831-2.856.394.2,1.28,2.856-.394A4.99,4.99,0,0,1,215.657,93.551Zm-.3-1.871-2.954.492.2,1.28,2.856-.492A5.616,5.616,0,0,0,215.362,91.68Zm.492,3.742L213,95.816l.2,1.28,2.856-.394C215.953,96.308,215.953,95.914,215.854,95.422Zm.2,1.871-2.856.3.1,1.28,2.856-.3A6.059,6.059,0,0,0,216.051,97.293Zm-1.379-9.355-2.954.591.3,1.28,2.954-.591C214.87,88.824,214.771,88.43,214.673,87.938Zm-5.81-19.99-2.954,1.182.492,1.182,2.954-1.182A4.261,4.261,0,0,1,208.863,67.947Zm-12.9-23.141L193.3,46.775l.788,1.083,2.659-1.969A4.372,4.372,0,0,0,195.963,44.806Zm2.462,3.545-2.757,1.871.492.689,2.757-1.871A4.17,4.17,0,0,0,198.424,48.351Zm-4.727-6.6-2.659,2.068.788,1.083,2.659-2.068A7.515,7.515,0,0,0,193.7,41.753Zm5.515,7.779-2.757,1.773.689,1.083,2.757-1.773A4.066,4.066,0,0,0,199.212,49.533Zm-10.34-13.589-2.56,2.265.886.985,2.56-2.265A8,8,0,0,1,188.872,35.943Zm3.644,4.333-2.56,2.068.788.985,2.56-2.068A6.9,6.9,0,0,0,192.516,40.276Zm-2.462-2.954-2.56,2.265.689.788,2.659-2.166C190.645,38.011,190.35,37.617,190.054,37.322Zm4.825,5.908L192.221,45.2l.788,1.083,2.659-1.969C195.372,43.92,195.175,43.624,194.879,43.23Zm5.318,7.878-2.757,1.773.689,1.083,2.757-1.773A6.622,6.622,0,0,0,200.2,51.108Zm5.613,9.946-2.856,1.379.591,1.182,2.856-1.379A3.328,3.328,0,0,1,205.81,61.054Zm1.576,3.545-2.954,1.182.492,1.182,2.856-1.28A2.423,2.423,0,0,0,207.386,64.6Zm.788,1.674-2.954,1.28.492,1.182,2.954-1.28A6.023,6.023,0,0,1,208.173,66.273Zm-3.25-6.893-2.856,1.477.591,1.182,2.856-1.477Zm-3.644-6.7-2.757,1.674.492.788,2.856-1.576C201.576,53.373,201.477,52.979,201.28,52.684Zm1.871,3.348L200.3,57.608l.591,1.182,2.856-1.576A13.191,13.191,0,0,0,203.151,56.032Zm.886,1.674-2.856,1.477.591,1.182,2.856-1.477A13.2,13.2,0,0,0,204.038,57.706ZM4.824,76.318l2.954.985.394-1.28-2.954-.985C5.119,75.53,4.922,75.924,4.824,76.318Zm8.075-19.2,2.856,1.576.591-1.182-2.856-1.576A13.188,13.188,0,0,1,12.9,57.115Zm-.886,1.674,2.856,1.477.591-1.182L12.6,57.608A13.187,13.187,0,0,1,12.012,58.789Zm2.856-5.121,2.856,1.576.492-.788-2.757-1.674C15.164,52.979,15.065,53.373,14.868,53.669Zm.788-1.477,2.757,1.773.689-1.083-2.757-1.773A6.624,6.624,0,0,1,15.656,52.191Zm-4.53,8.37,2.856,1.477.591-1.182L11.717,59.38ZM7.286,69.228l2.954,1.182.492-1.182L7.778,68.046A10.254,10.254,0,0,1,7.286,69.228Zm3.053-6.992,2.856,1.379.591-1.182-2.954-1.379C10.634,61.448,10.535,61.842,10.338,62.236ZM8.763,65.682l2.856,1.28.492-1.182L9.157,64.6C9.058,64.993,8.861,65.289,8.763,65.682Zm-.788,1.773,2.856,1.28.492-1.182-2.954-1.28A2.8,2.8,0,0,1,7.975,67.455ZM23.238,41.261l2.56,2.068.788-.985-2.56-2.068A6.9,6.9,0,0,1,23.238,41.261Zm2.56-2.954,2.659,2.166.689-.788-2.56-2.363A6.9,6.9,0,0,0,25.8,38.307Zm1.182-1.379,2.56,2.265.886-.985-2.56-2.265A8,8,0,0,0,26.98,36.928Zm-4.825,5.908L24.814,44.9l.788-1.083-2.659-2.068A7.516,7.516,0,0,0,22.155,42.836Zm-4.431,6.2,2.757,1.871.492-.689-2.757-1.871A4.169,4.169,0,0,0,17.724,49.04Zm3.25-4.727,2.659,1.969L24.42,45.2,21.761,43.23C21.466,43.624,21.269,43.92,20.974,44.313Zm-4.234,6.3L19.5,52.388l.689-1.083-2.757-1.773A4.066,4.066,0,0,0,16.739,50.616Zm3.151-4.727,2.659,1.969.788-1.083-2.659-1.969A4.372,4.372,0,0,0,19.89,45.889Zm196.752,60.857-2.757.1v1.28l2.757-.1ZM.392,98.671l2.856.3.1-1.28-2.856-.3A6.057,6.057,0,0,1,.392,98.671Zm-.3,5.613,2.856.2.1-1.28L.2,103A5.615,5.615,0,0,0,.1,104.284Zm.1-1.871,2.856.2.1-1.28-2.856-.2A5.2,5.2,0,0,0,.2,102.413Zm.591-7.583,2.856.394.3-1.28L.983,93.551A4.989,4.989,0,0,1,.786,94.831ZM.589,96.7l2.856.394.2-1.28L.786,95.422C.688,95.914.688,96.308.589,96.7Zm28.951-62.63L32,36.436l.689-.689L30.23,33.284C29.935,33.58,29.738,33.875,29.541,34.072ZM0,108.026l2.757.1v-1.28L0,106.746Zm0-1.871,2.757.1v-1.28l-2.856-.1A5.615,5.615,0,0,1,0,106.155ZM1.673,89.218l2.954.591.3-1.28-2.954-.591C1.869,88.43,1.771,88.824,1.673,89.218ZM1.082,92.96l2.856.492.2-1.28L1.18,91.68A5.615,5.615,0,0,1,1.082,92.96Zm2.659-13,2.954.886.394-1.28-2.954-.886A9.147,9.147,0,0,0,3.741,79.961ZM2.854,83.7l2.954.689.3-1.28L3.15,82.423C3.051,82.817,2.953,83.211,2.854,83.7Zm2.56-9.158,2.954.985.394-1.28-2.954-.985C5.71,73.757,5.513,74.151,5.415,74.545ZM4.233,78.189l2.954.886.394-1.28-2.954-.886A6.369,6.369,0,0,1,4.233,78.189ZM6.695,70.7l2.954,1.182.394-.985L7.089,69.818A3.5,3.5,0,0,1,6.695,70.7ZM103.889.1l.1,3.742h1.28L105.169,0A6.057,6.057,0,0,1,103.889.1ZM2.46,85.574l2.954.689.3-1.28-2.954-.689A4.885,4.885,0,0,0,2.46,85.574Zm-.394,1.773,2.954.591.3-1.28-2.954-.591A7.774,7.774,0,0,0,2.066,87.347ZM73.953,5.613l1.182,3.545,1.28-.394L75.233,5.219A4.875,4.875,0,0,0,73.953,5.613Zm1.773-.591,1.083,3.545,1.28-.394L77.005,4.628C76.612,4.727,76.119,4.924,75.725,5.022ZM77.6,4.431l.985,3.545,1.28-.394-.985-3.644A4.219,4.219,0,0,1,77.6,4.431Zm3.644-.985.886,3.644,1.28-.3L82.52,3.151C82.126,3.25,81.634,3.348,81.24,3.447Zm1.871-.492L84,6.6l1.28-.3-.886-3.644C83.9,2.757,83.5,2.856,83.111,2.954ZM66.764,8.272l1.379,3.447,1.182-.492L67.946,7.779C67.65,7.976,67.158,8.075,66.764,8.272Zm-38.6,27.179,2.462,2.363.886-.985-2.462-2.363A8.879,8.879,0,0,1,28.162,35.451ZM68.537,7.583l1.28,3.447L71,10.537,69.718,7.09C69.423,7.287,68.931,7.386,68.537,7.583ZM86.853,2.166l.689,3.742,1.28-.3-.689-3.644A4.989,4.989,0,0,0,86.853,2.166ZM94.337.886l.492,3.742,1.28-.2L95.617.689A5.764,5.764,0,0,1,94.337.886Zm1.871-.2L96.6,4.431l1.28-.1L97.488.591A6.057,6.057,0,0,0,96.208.689ZM100.049.3l.3,3.742,1.28-.1L101.329.2A5.615,5.615,0,0,1,100.049.3ZM101.92.2l.2,3.742,1.28-.1L103.2.1C102.806.1,102.412.2,101.92.2Zm-9.454.985.492,3.742,1.28-.2L93.746.985C93.352,1.083,92.86,1.083,92.466,1.182ZM64.992,9.06l1.477,3.348,1.182-.492L66.173,8.469A6.556,6.556,0,0,1,64.992,9.06Zm25.6-7.583.591,3.742,1.28-.3-.591-3.742C91.481,1.28,90.989,1.379,90.595,1.477ZM84.982,2.56,85.77,6.2l1.28-.3-.788-3.644C85.77,2.363,85.376,2.462,84.982,2.56ZM72.082,6.2l1.182,3.545,1.28-.394L73.362,5.81C72.968,5.908,72.574,6.105,72.082,6.2ZM40.668,23.831l2.166,2.757,1.083-.788-2.166-2.757A4.372,4.372,0,0,0,40.668,23.831Zm-1.477,1.182,2.166,2.757.985-.788-2.166-2.757A6.9,6.9,0,0,0,39.191,25.013Zm-2.856,2.462L38.6,30.133l.985-.886L37.32,26.588A8.878,8.878,0,0,0,36.336,27.474Zm5.81-4.825L44.312,25.5l.985-.886L43.13,21.763A8.879,8.879,0,0,1,42.146,22.649Zm-7.287,6.105,2.265,2.56.985-.886-2.363-2.56A3.76,3.76,0,0,1,34.858,28.755ZM32.2,31.413l2.363,2.462.985-.886-2.363-2.462A4.233,4.233,0,0,0,32.2,31.413Zm1.28-1.379,2.363,2.56.985-.886-2.363-2.56A8.878,8.878,0,0,1,33.48,30.035Zm10.241-8.567,2.068,2.856,1.083-.788L44.706,20.68C44.41,20.975,44.017,21.172,43.721,21.467Zm6.2-4.333L51.8,20.187l1.083-.689-1.871-3.053C50.713,16.642,50.319,16.839,49.925,17.135Zm6.6-3.939,1.674,3.25,1.182-.591L57.7,12.6A13.187,13.187,0,0,0,56.523,13.2Zm1.674-.886,1.674,3.25,1.182-.591-1.674-3.25Zm1.674-.886,1.576,3.25,1.182-.591-1.576-3.25ZM54.849,14.18l1.773,3.151,1.182-.591L56.03,13.589A6.618,6.618,0,0,0,54.849,14.18ZM51.6,16.15,53.47,19.2l1.083-.689L52.682,15.46A4.066,4.066,0,0,0,51.6,16.15ZM46.774,19.2l1.969,2.954,1.083-.689-1.969-2.954C47.463,18.71,47.168,19.006,46.774,19.2Zm1.576-1.083,1.969,2.954,1.083-.689L49.433,17.43A6.623,6.623,0,0,1,48.349,18.119ZM63.318,9.847,64.795,13.2l1.182-.492L64.5,9.355A6.023,6.023,0,0,0,63.318,9.847Z" fill="#d2d3d4"/><path d="M167.214,23.935l1.083.788,3.053-4.431c-.394-.3-.689-.492-1.083-.788Zm-15.756-8.961,1.182.591L155,10.543l-1.182-.591ZM116.5,5.915l1.28.1L118.272.5c-.394,0-.886-.1-1.28-.1Zm17.922,3.053,1.28.3,1.477-5.318c-.394-.1-.886-.2-1.28-.3ZM202.074,65l.591,1.182,4.53-2.166-.591-1.182Zm-9.158-15.657.788,1.083,4.234-2.954c-.3-.394-.492-.689-.788-1.083ZM98.282.5l.492,5.515,1.28-.1L99.562.4A6.057,6.057,0,0,0,98.282.5ZM213.1,80.755l-4.727,1.28.3,1.28,4.727-1.28C213.3,81.543,213.2,81.149,213.1,80.755ZM79.572,3.847l1.477,5.318,1.28-.3L80.852,3.453A9.146,9.146,0,0,1,79.572,3.847ZM181.2,35.555l.886.886,3.742-3.742a8.877,8.877,0,0,1-.886-.985ZM.3,100.745l4.628.394.1-1.28L.4,99.465A5.2,5.2,0,0,0,.3,100.745Zm61.35-90.2,2.363,5.022,1.182-.591L62.831,9.952A6.618,6.618,0,0,1,61.65,10.543Zm154.6,88.824-4.628.394.1,1.28,4.628-.394A6.058,6.058,0,0,0,216.254,99.367ZM30.827,32.7l3.742,3.742.886-.886-3.742-3.742ZM45.3,20.292l3.053,4.431,1.083-.788L46.288,19.5A6.9,6.9,0,0,1,45.3,20.292ZM3.254,82.035l4.628,1.182.3-1.28L3.55,80.755C3.451,81.149,3.353,81.543,3.254,82.035ZM18.813,47.471l4.234,2.954.788-1.083L19.6,46.388A7.515,7.515,0,0,0,18.813,47.471ZM9.458,64.014l4.53,2.166L14.579,65l-4.53-2.166Z" transform="translate(-0.006 -0.006)" fill="#fff"/><path d="M158.936,16.642l1.182.591,1.773-3.151a7.344,7.344,0,0,1-1.182-.689Zm5.022-1.182-1.871,3.053,1.083.689,1.871-3.053A4.067,4.067,0,0,0,163.958,15.46ZM159.035,12.6l-1.674,3.25,1.182.591,1.674-3.25A6.557,6.557,0,0,1,159.035,12.6Zm6.6,3.841L163.761,19.5l1.083.689,1.871-3.053C166.322,16.839,165.928,16.642,165.632,16.445Zm-8.37-4.727-1.674,3.25,1.182.591,1.674-3.25Zm-6.893-3.25-1.477,3.447,1.182.492,1.477-3.348Zm16.839,8.961-1.969,2.954,1.083.689,1.969-2.954A6.624,6.624,0,0,1,167.208,17.43ZM150.664,12.6l1.182.492,1.477-3.348a6.024,6.024,0,0,0-1.182-.492Zm4.924-1.773-1.576,3.25,1.182.591,1.576-3.25Zm27.967,19.6-2.363,2.462.985.886,2.363-2.462A4.233,4.233,0,0,1,183.555,30.429ZM168.784,18.513l-1.969,2.954,1.083.689,1.969-2.954C169.473,19.006,169.178,18.71,168.784,18.513Zm10.537,8.075-2.265,2.659.985.886,2.265-2.659A8.879,8.879,0,0,0,179.32,26.588Zm2.856,2.56-2.363,2.56.985.886,2.363-2.56A8.879,8.879,0,0,1,182.176,29.148Zm-1.379-1.28-2.363,2.56.985.886,2.265-2.56Zm-8.863-7.189-2.068,2.856,1.083.788,2.068-2.856A10.315,10.315,0,0,1,171.935,20.68Zm1.477,1.083-2.068,2.856,1.083.788,2.166-2.856A4.948,4.948,0,0,1,173.412,21.763Zm1.576,1.182L172.821,25.7l1.083.788,2.166-2.757A3.086,3.086,0,0,1,174.988,22.945Zm1.477,1.182L174.3,26.884l.985.788,2.166-2.757A6.9,6.9,0,0,1,176.465,24.126Zm-52.29-19.2,1.28.2.591-3.742a5.763,5.763,0,0,0-1.28-.2Zm-3.644-.394,1.28.2L122.3.985c-.394-.1-.886-.1-1.28-.2Zm-1.871-.2,1.28.1.394-3.742c-.394,0-.886-.1-1.28-.1Zm9.847-2.462-.689,3.644,1.28.3.689-3.742A6.777,6.777,0,0,1,128.508,1.871Zm57.9,31.512-2.462,2.462.689.689,2.462-2.363A2.654,2.654,0,0,0,186.411,33.383ZM122.895.985,122.4,4.727l1.28.2.492-3.742C123.781,1.083,123.288,1.083,122.895.985ZM111.373,3.841h1.28l.1-3.742a5.615,5.615,0,0,1-1.28-.1Zm1.773,0,1.28.1.2-3.742c-.394,0-.886-.1-1.28-.1Zm1.871.1,1.28.1.3-3.742c-.394,0-.886-.1-1.28-.1ZM148.6,7.779l-1.379,3.447,1.182.492,1.379-3.447C149.483,8.075,148.99,7.976,148.6,7.779ZM109.5,3.742h1.28l.1-3.742H109.6Zm32.6,5.613,1.28.394L144.559,6.2c-.394-.1-.788-.3-1.28-.394Zm-2.462-4.727-1.083,3.545,1.28.394,1.083-3.545C140.521,4.924,140.029,4.727,139.635,4.628Zm7.189,2.462-1.28,3.447,1.182.492,1.28-3.447C147.71,7.386,147.218,7.287,146.824,7.09Zm-5.318-1.871-1.182,3.545,1.28.394,1.182-3.545A9.145,9.145,0,0,0,141.506,5.219Zm-9.257-2.56L131.363,6.3l1.28.3.886-3.644C133.136,2.856,132.644,2.757,132.25,2.659Zm.985,4.136,1.28.3.886-3.644c-.394-.1-.886-.2-1.28-.3Zm4.53-2.757-.985,3.644,1.28.394.985-3.545C138.65,4.333,138.257,4.234,137.764,4.037Zm-7.386-1.773-.788,3.644,1.28.3.788-3.644C131.265,2.462,130.871,2.363,130.379,2.265Zm83.112,80.158-2.954.689.3,1.28,2.954-.689C213.688,83.211,213.59,82.817,213.491,82.423Zm.492,1.871-2.954.689.3,1.28,2.954-.689A7.77,7.77,0,0,1,213.983,84.294Zm.394,1.773-2.954.591.3,1.28,2.954-.591A4.886,4.886,0,0,1,214.377,86.067Zm-26.884-51.5-2.462,2.363.886.985,2.462-2.363A2.793,2.793,0,0,0,187.494,34.565ZM212.506,78.78l-2.954.886.394,1.28,2.954-.886C212.8,79.567,212.6,79.173,212.506,78.78Zm-.492-1.871-2.954.886.394,1.28,2.954-.886A6.37,6.37,0,0,1,212.014,76.909Zm-1.182-3.545-2.954.985.394,1.28,2.954-.985C211.128,74.151,210.931,73.757,210.832,73.363Zm.591,1.773-2.954.985.394,1.28,2.954-.985C211.719,75.924,211.522,75.53,211.423,75.136ZM105.76,0l.1,3.742h1.28L107.04,0ZM216.347,101.133l-2.856.2.1,1.28,2.856-.2A5.2,5.2,0,0,0,216.347,101.133Zm.2,3.742-2.856.1v1.28l2.757-.1A1.92,1.92,0,0,0,216.544,104.875Zm0-1.871-2.856.2.1,1.28,2.856-.2A5.615,5.615,0,0,1,216.544,103ZM209.552,69.72,206.6,70.8l.394.985,2.954-1.182A1.856,1.856,0,0,1,209.552,69.72Zm6.105,23.831-2.856.394.2,1.28,2.856-.394A4.99,4.99,0,0,1,215.657,93.551Zm-.3-1.871-2.954.492.2,1.28,2.856-.492A5.616,5.616,0,0,0,215.362,91.68Zm.492,3.742L213,95.816l.2,1.28,2.856-.394C215.953,96.308,215.953,95.914,215.854,95.422Zm.2,1.871-2.856.3.1,1.28,2.856-.3A6.059,6.059,0,0,0,216.051,97.293Zm-1.379-9.355-2.954.591.3,1.28,2.954-.591C214.87,88.824,214.771,88.43,214.673,87.938Zm-5.81-19.99-2.954,1.182.492,1.182,2.954-1.182A4.261,4.261,0,0,1,208.863,67.947Zm-12.9-23.141L193.3,46.775l.788,1.083,2.659-1.969A4.372,4.372,0,0,0,195.963,44.806Zm2.462,3.545-2.757,1.871.492.689,2.757-1.871A4.17,4.17,0,0,0,198.424,48.351Zm-4.727-6.6-2.659,2.068.788,1.083,2.659-2.068A7.515,7.515,0,0,0,193.7,41.753Zm5.515,7.779-2.757,1.773.689,1.083,2.757-1.773A4.066,4.066,0,0,0,199.212,49.533Zm-10.34-13.589-2.56,2.265.886.985,2.56-2.265A8,8,0,0,1,188.872,35.943Zm3.644,4.333-2.56,2.068.788.985,2.56-2.068A6.9,6.9,0,0,0,192.516,40.276Zm-2.462-2.954-2.56,2.265.689.788,2.659-2.166C190.645,38.011,190.35,37.617,190.054,37.322Zm4.825,5.908L192.221,45.2l.788,1.083,2.659-1.969C195.372,43.92,195.175,43.624,194.879,43.23Zm5.318,7.878-2.757,1.773.689,1.083,2.757-1.773A6.622,6.622,0,0,0,200.2,51.108Zm5.613,9.946-2.856,1.379.591,1.182,2.856-1.379A3.328,3.328,0,0,1,205.81,61.054Zm1.576,3.545-2.954,1.182.492,1.182,2.856-1.28A2.423,2.423,0,0,0,207.386,64.6Zm.788,1.674-2.954,1.28.492,1.182,2.954-1.28A6.023,6.023,0,0,1,208.173,66.273Zm-3.25-6.893-2.856,1.477.591,1.182,2.856-1.477Zm-3.644-6.7-2.757,1.674.492.788,2.856-1.576C201.576,53.373,201.477,52.979,201.28,52.684Zm1.871,3.348L200.3,57.608l.591,1.182,2.856-1.576A13.191,13.191,0,0,0,203.151,56.032Zm.886,1.674-2.856,1.477.591,1.182,2.856-1.477A13.2,13.2,0,0,0,204.038,57.706ZM4.824,76.318l2.954.985.394-1.28-2.954-.985C5.119,75.53,4.922,75.924,4.824,76.318Zm8.075-19.2,2.856,1.576.591-1.182-2.856-1.576A13.188,13.188,0,0,1,12.9,57.115Zm-.886,1.674,2.856,1.477.591-1.182L12.6,57.608A13.187,13.187,0,0,1,12.012,58.789Zm2.856-5.121,2.856,1.576.492-.788-2.757-1.674C15.164,52.979,15.065,53.373,14.868,53.669Zm.788-1.477,2.757,1.773.689-1.083-2.757-1.773A6.624,6.624,0,0,1,15.656,52.191Zm-4.53,8.37,2.856,1.477.591-1.182L11.717,59.38ZM7.286,69.228l2.954,1.182.492-1.182L7.778,68.046A10.254,10.254,0,0,1,7.286,69.228Zm3.053-6.992,2.856,1.379.591-1.182-2.954-1.379C10.634,61.448,10.535,61.842,10.338,62.236ZM8.763,65.682l2.856,1.28.492-1.182L9.157,64.6C9.058,64.993,8.861,65.289,8.763,65.682Zm-.788,1.773,2.856,1.28.492-1.182-2.954-1.28A2.8,2.8,0,0,1,7.975,67.455ZM23.238,41.261l2.56,2.068.788-.985-2.56-2.068A6.9,6.9,0,0,1,23.238,41.261Zm2.56-2.954,2.659,2.166.689-.788-2.56-2.363A6.9,6.9,0,0,0,25.8,38.307Zm1.182-1.379,2.56,2.265.886-.985-2.56-2.265A8,8,0,0,0,26.98,36.928Zm-4.825,5.908L24.814,44.9l.788-1.083-2.659-2.068A7.516,7.516,0,0,0,22.155,42.836Zm-4.431,6.2,2.757,1.871.492-.689-2.757-1.871A4.169,4.169,0,0,0,17.724,49.04Zm3.25-4.727,2.659,1.969L24.42,45.2,21.761,43.23C21.466,43.624,21.269,43.92,20.974,44.313Zm-4.234,6.3L19.5,52.388l.689-1.083-2.757-1.773A4.066,4.066,0,0,0,16.739,50.616Zm3.151-4.727,2.659,1.969.788-1.083-2.659-1.969A4.372,4.372,0,0,0,19.89,45.889Zm196.752,60.857-2.757.1v1.28l2.757-.1ZM.392,98.671l2.856.3.1-1.28-2.856-.3A6.057,6.057,0,0,1,.392,98.671Zm-.3,5.613,2.856.2.1-1.28L.2,103A5.615,5.615,0,0,0,.1,104.284Zm.1-1.871,2.856.2.1-1.28-2.856-.2A5.2,5.2,0,0,0,.2,102.413Zm.591-7.583,2.856.394.3-1.28L.983,93.551A4.989,4.989,0,0,1,.786,94.831ZM.589,96.7l2.856.394.2-1.28L.786,95.422C.688,95.914.688,96.308.589,96.7Zm28.951-62.63L32,36.436l.689-.689L30.23,33.284C29.935,33.58,29.738,33.875,29.541,34.072ZM0,108.026l2.757.1v-1.28L0,106.746Zm0-1.871,2.757.1v-1.28l-2.856-.1A5.615,5.615,0,0,1,0,106.155ZM1.673,89.218l2.954.591.3-1.28-2.954-.591C1.869,88.43,1.771,88.824,1.673,89.218ZM1.082,92.96l2.856.492.2-1.28L1.18,91.68A5.615,5.615,0,0,1,1.082,92.96Zm2.659-13,2.954.886.394-1.28-2.954-.886A9.147,9.147,0,0,0,3.741,79.961ZM2.854,83.7l2.954.689.3-1.28L3.15,82.423C3.051,82.817,2.953,83.211,2.854,83.7Zm2.56-9.158,2.954.985.394-1.28-2.954-.985C5.71,73.757,5.513,74.151,5.415,74.545ZM4.233,78.189l2.954.886.394-1.28-2.954-.886A6.369,6.369,0,0,1,4.233,78.189ZM6.695,70.7l2.954,1.182.394-.985L7.089,69.818A3.5,3.5,0,0,1,6.695,70.7ZM103.889.1l.1,3.742h1.28L105.169,0A6.057,6.057,0,0,1,103.889.1ZM2.46,85.574l2.954.689.3-1.28-2.954-.689A4.885,4.885,0,0,0,2.46,85.574Zm-.394,1.773,2.954.591.3-1.28-2.954-.591A7.774,7.774,0,0,0,2.066,87.347ZM73.953,5.613l1.182,3.545,1.28-.394L75.233,5.219A4.875,4.875,0,0,0,73.953,5.613Zm1.773-.591,1.083,3.545,1.28-.394L77.005,4.628C76.612,4.727,76.119,4.924,75.725,5.022ZM77.6,4.431l.985,3.545,1.28-.394-.985-3.644A4.219,4.219,0,0,1,77.6,4.431Zm3.644-.985.886,3.644,1.28-.3L82.52,3.151C82.126,3.25,81.634,3.348,81.24,3.447Zm1.871-.492L84,6.6l1.28-.3-.886-3.644C83.9,2.757,83.5,2.856,83.111,2.954ZM66.764,8.272l1.379,3.447,1.182-.492L67.946,7.779C67.65,7.976,67.158,8.075,66.764,8.272Zm-38.6,27.179,2.462,2.363.886-.985-2.462-2.363A8.879,8.879,0,0,1,28.162,35.451ZM68.537,7.583l1.28,3.447L71,10.537,69.718,7.09C69.423,7.287,68.931,7.386,68.537,7.583ZM86.853,2.166l.689,3.742,1.28-.3-.689-3.644A4.989,4.989,0,0,0,86.853,2.166ZM94.337.886l.492,3.742,1.28-.2L95.617.689A5.764,5.764,0,0,1,94.337.886Zm1.871-.2L96.6,4.431l1.28-.1L97.488.591A6.057,6.057,0,0,0,96.208.689ZM100.049.3l.3,3.742,1.28-.1L101.329.2A5.615,5.615,0,0,1,100.049.3ZM101.92.2l.2,3.742,1.28-.1L103.2.1C102.806.1,102.412.2,101.92.2Zm-9.454.985.492,3.742,1.28-.2L93.746.985C93.352,1.083,92.86,1.083,92.466,1.182ZM64.992,9.06l1.477,3.348,1.182-.492L66.173,8.469A6.556,6.556,0,0,1,64.992,9.06Zm25.6-7.583.591,3.742,1.28-.3-.591-3.742C91.481,1.28,90.989,1.379,90.595,1.477ZM84.982,2.56,85.77,6.2l1.28-.3-.788-3.644C85.77,2.363,85.376,2.462,84.982,2.56ZM72.082,6.2l1.182,3.545,1.28-.394L73.362,5.81C72.968,5.908,72.574,6.105,72.082,6.2ZM40.668,23.831l2.166,2.757,1.083-.788-2.166-2.757A4.372,4.372,0,0,0,40.668,23.831Zm-1.477,1.182,2.166,2.757.985-.788-2.166-2.757A6.9,6.9,0,0,0,39.191,25.013Zm-2.856,2.462L38.6,30.133l.985-.886L37.32,26.588A8.878,8.878,0,0,0,36.336,27.474Zm5.81-4.825L44.312,25.5l.985-.886L43.13,21.763A8.879,8.879,0,0,1,42.146,22.649Zm-7.287,6.105,2.265,2.56.985-.886-2.363-2.56A3.76,3.76,0,0,1,34.858,28.755ZM32.2,31.413l2.363,2.462.985-.886-2.363-2.462A4.233,4.233,0,0,0,32.2,31.413Zm1.28-1.379,2.363,2.56.985-.886-2.363-2.56A8.878,8.878,0,0,1,33.48,30.035Zm10.241-8.567,2.068,2.856,1.083-.788L44.706,20.68C44.41,20.975,44.017,21.172,43.721,21.467Zm6.2-4.333L51.8,20.187l1.083-.689-1.871-3.053C50.713,16.642,50.319,16.839,49.925,17.135Zm6.6-3.939,1.674,3.25,1.182-.591L57.7,12.6A13.187,13.187,0,0,0,56.523,13.2Zm1.674-.886,1.674,3.25,1.182-.591-1.674-3.25Zm1.674-.886,1.576,3.25,1.182-.591-1.576-3.25ZM54.849,14.18l1.773,3.151,1.182-.591L56.03,13.589A6.618,6.618,0,0,0,54.849,14.18ZM51.6,16.15,53.47,19.2l1.083-.689L52.682,15.46A4.066,4.066,0,0,0,51.6,16.15ZM46.774,19.2l1.969,2.954,1.083-.689-1.969-2.954C47.463,18.71,47.168,19.006,46.774,19.2Zm1.576-1.083,1.969,2.954,1.083-.689L49.433,17.43A6.623,6.623,0,0,1,48.349,18.119ZM63.318,9.847,64.795,13.2l1.182-.492L64.5,9.355A6.023,6.023,0,0,0,63.318,9.847Z" fill="#b1b1b1"/><g transform="translate(13.391 13.786)"><path d="M13.6,109.783a.9.9,0,0,1,.394-.788,2.767,2.767,0,0,1,1.477-.3,2.044,2.044,0,0,1,1.477.394,1.216,1.216,0,0,1,.394.788.9.9,0,0,1-.394.788,2.383,2.383,0,0,1-1.379.3,2.044,2.044,0,0,1-1.477-.394A.738.738,0,0,1,13.6,109.783Zm.591,0c0,.1,0,.2.1.2a.757.757,0,0,0,.3.2c.2,0,.492.1.886.1a2.186,2.186,0,0,0,.886-.1c.2,0,.3-.1.3-.2.1-.1.1-.1.1-.2s0-.2-.1-.2a.757.757,0,0,0-.3-.2c-.2,0-.492-.1-.886-.1a2.186,2.186,0,0,0-.886.1c-.2,0-.3.1-.3.2C14.191,109.685,14.191,109.685,14.191,109.783Z" transform="translate(-13.6 -15.445)" fill="#878282"/><path d="M18.344,95.391l-.2.591-2.56-.394a2.949,2.949,0,0,1,.394.985l-.591-.1a1.4,1.4,0,0,0-.2-.591,1.187,1.187,0,0,0-.492-.492l.1-.591Z" transform="translate(-13.617 -15.233)" fill="#878282"/><path d="M15.2,92.487c.1-.3.2-.591.492-.689a2.259,2.259,0,0,1,1.477-.1,2.251,2.251,0,0,1,1.379.591.884.884,0,0,1,.2.886,1.144,1.144,0,0,1-.591.788,2.259,2.259,0,0,1-1.477.1,2.251,2.251,0,0,1-1.379-.591A1.62,1.62,0,0,1,15.2,92.487Zm.492.1v.2c0,.1.1.1.3.2a1.966,1.966,0,0,0,.886.2,3.392,3.392,0,0,0,.886.1c.2,0,.3,0,.3-.1.1-.1.1-.1.1-.2v-.2c0-.1-.1-.1-.3-.2a1.966,1.966,0,0,0-.886-.2,3.392,3.392,0,0,0-.886-.1c-.2,0-.3,0-.3.1S15.79,92.585,15.692,92.585Z" transform="translate(-13.624 -15.184)" fill="#878282"/><path d="M21.55,79.692l.591.2-.788,2.265a2.06,2.06,0,0,1-.591-.394,2.843,2.843,0,0,1-.591-.985,3.167,3.167,0,0,0-.394-.689,1.359,1.359,0,0,0-.394-.3H18.99c.1.1,0,.2,0,.3v.394a1.36,1.36,0,0,0,.394.3l-.3.591a2.136,2.136,0,0,1-.689-.591,1.087,1.087,0,0,1,0-.788,1.256,1.256,0,0,1,.492-.689,1.046,1.046,0,0,1,.788-.1c.2.1.3.1.394.2a1.359,1.359,0,0,1,.3.394,1.6,1.6,0,0,1,.3.591c.1.3.2.394.2.492s.1.1.1.2Z" transform="translate(-13.672 -14.994)" fill="#878282"/><path d="M19.4,77.19a.888.888,0,0,1,.591-.591,2.07,2.07,0,0,1,1.477.2,2.6,2.6,0,0,1,1.28.788.957.957,0,0,1,.1.886,1.178,1.178,0,0,1-.689.689,2.98,2.98,0,0,1-1.477-.2,2.6,2.6,0,0,1-1.28-.788C19.3,77.781,19.2,77.485,19.4,77.19Zm.492.2v.2a.212.212,0,0,0,.2.2l.788.394c.394.1.689.2.788.2h.394c.1,0,.1-.1.1-.2v-.2a.212.212,0,0,0-.2-.2l-.788-.394c-.394-.1-.689-.2-.788-.2h-.394A.344.344,0,0,0,19.891,77.387Z" transform="translate(-13.687 -14.954)" fill="#878282"/><path d="M26.369,67.557l.2-.591c.2.1.3.1.394,0,.1,0,.2-.1.3-.2a.3.3,0,0,0,0-.394l-.3-.3a.744.744,0,0,0-.394-.1c-.1,0-.2.1-.3.2,0,.1-.1.2-.1.3l-.492-.3a.744.744,0,0,0,.1-.394c0-.1-.1-.2-.2-.3a.185.185,0,0,0-.3,0,.212.212,0,0,0-.2.2.185.185,0,0,0,0,.3c0,.1.1.2.2.3l-.394.492c-.2-.1-.3-.3-.394-.394a.738.738,0,0,1-.1-.492.752.752,0,0,1,.2-.492,1.324,1.324,0,0,1,.689-.591.651.651,0,0,1,.591.1c.3.1.394.394.394.788a.542.542,0,0,1,.492-.3,1.249,1.249,0,0,1,.591.1,1.041,1.041,0,0,1,.591.689.957.957,0,0,1-.1.886,1.672,1.672,0,0,1-.591.591A2.726,2.726,0,0,1,26.369,67.557Z" transform="translate(-13.765 -14.774)" fill="#878282"/><path d="M26,62.692c.2-.3.394-.492.689-.492a1.994,1.994,0,0,1,1.379.394,2.148,2.148,0,0,1,1.083.985.957.957,0,0,1-.1.886.877.877,0,0,1-.788.492,2.266,2.266,0,0,1-1.379-.394,2.148,2.148,0,0,1-1.083-.985A2.875,2.875,0,0,1,26,62.692Zm.492.3c0,.1-.1.1,0,.2,0,.1.1.2.2.3a6.712,6.712,0,0,0,.689.492l.788.394h.394c.1,0,.1-.1.2-.2,0-.1.1-.2,0-.2,0-.1-.1-.2-.2-.3a6.713,6.713,0,0,0-.689-.492l-.788-.394h-.394Z" transform="translate(-13.786 -14.735)" fill="#878282"/><path d="M36.957,52.759l-.591-.394-.886,1.182-.492-.394-.788-2.56.394-.492,1.773,1.379.3-.394.492.394-.3.3.591.394Zm-.985-.788-.985-.788.492,1.379Z" transform="translate(-13.914 -14.551)" fill="#878282"/><path d="M35.9,48.394A.9.9,0,0,1,36.683,48a1.848,1.848,0,0,1,1.28.689,2.336,2.336,0,0,1,.886,1.182,1,1,0,0,1-.2.886.96.96,0,0,1-.886.394,2.05,2.05,0,0,1-1.28-.689A2.336,2.336,0,0,1,35.6,49.28,1.588,1.588,0,0,1,35.9,48.394Zm.492.394c-.1.1-.1.1-.1.2a.362.362,0,0,0,.1.3,1.672,1.672,0,0,0,.591.591,4.925,4.925,0,0,0,.689.492.486.486,0,0,0,.3.1c.1,0,.1-.1.2-.1.1-.1.1-.1.1-.2a.362.362,0,0,0-.1-.3,3.239,3.239,0,0,0-.591-.591,4.924,4.924,0,0,0-.689-.492.486.486,0,0,0-.3-.1C36.486,48.689,36.388,48.689,36.388,48.788Z" transform="translate(-13.936 -14.519)" fill="#878282"/><path d="M46.879,40.847l.492-.492a.512.512,0,0,0,.394.2.362.362,0,0,0,.3-.1.512.512,0,0,0,.2-.394c0-.2-.1-.3-.2-.492a.528.528,0,0,0-.394-.3.592.592,0,0,0-.394.1c-.3.1-.3.3-.3.492l-.492.3L45.5,38.582,46.879,37.4l.394.492-.985.886.3.492a1.359,1.359,0,0,1,.3-.394,1.118,1.118,0,0,1,.788-.3,1.216,1.216,0,0,1,.788.394,1.118,1.118,0,0,1,.3.788,1.264,1.264,0,0,1-.394.985,1.118,1.118,0,0,1-.788.3A1.062,1.062,0,0,1,46.879,40.847Z" transform="translate(-14.087 -14.357)" fill="#878282"/><path d="M48.194,36.2a1,1,0,0,1,.886-.2,2.336,2.336,0,0,1,1.182.886,2.586,2.586,0,0,1,.689,1.379.9.9,0,0,1-.394.788,1,1,0,0,1-.886.2,3.585,3.585,0,0,1-1.182-.886,2.735,2.735,0,0,1-.689-1.28A1.248,1.248,0,0,1,48.194,36.2Zm.394.394c-.1.1-.1.1-.1.2a.362.362,0,0,0,.1.3c.1.2.3.394.492.689l.591.591a.362.362,0,0,0,.3.1c.1,0,.2,0,.2-.1.1-.1.1-.1.1-.2a.362.362,0,0,0-.1-.3,2.273,2.273,0,0,0-.492-.689l-.591-.591a.362.362,0,0,0-.3-.1A.344.344,0,0,0,48.588,36.59Z" transform="translate(-14.122 -14.335)" fill="#878282"/><path d="M60.174,28.692l-.492.394c-.1-.1-.2-.2-.3-.2a.362.362,0,0,0-.3.1c-.1,0-.1.2-.1.3a1.967,1.967,0,0,0,.3.788.665.665,0,0,1,.394-.591.743.743,0,0,1,.788-.1,1.324,1.324,0,0,1,.689.591,1,1,0,0,1,.2.886,1.113,1.113,0,0,1-1.477.788,1.861,1.861,0,0,1-.985-.985c-.3-.591-.492-.985-.394-1.379a1.132,1.132,0,0,1,.591-.886,1.826,1.826,0,0,1,.689-.2C59.78,28.3,60.075,28.5,60.174,28.692Zm-.492,2.068c.1.2.3.3.394.394h.394c.1-.1.2-.2.2-.3a.636.636,0,0,0-.2-.492c-.1-.2-.3-.3-.394-.394h-.394c-.1.1-.2.2-.2.3C59.583,30.465,59.583,30.563,59.681,30.76Z" transform="translate(-14.285 -14.217)" fill="#878282"/><path d="M61.292,27a.957.957,0,0,1,.886-.1,2.148,2.148,0,0,1,.985,1.083,2.266,2.266,0,0,1,.394,1.379.741.741,0,0,1-.492.689.957.957,0,0,1-.886.1,2.148,2.148,0,0,1-.985-1.083,2.266,2.266,0,0,1-.394-1.379A1.019,1.019,0,0,1,61.292,27Zm.3.492c-.1,0-.1.1-.2.2v.3c0,.2.2.394.394.788a2.45,2.45,0,0,0,.492.689c.1.1.2.2.3.2h.2c.1,0,.1-.1.2-.2v-.3c0-.2-.2-.394-.394-.788a2.45,2.45,0,0,0-.492-.689c-.1-.1-.2-.2-.3-.2Z" transform="translate(-14.32 -14.196)" fill="#878282"/><path d="M73.5,21.777l-.2-.591,2.166-.886.2.492a2.471,2.471,0,0,0-.2.985,2.4,2.4,0,0,0,0,1.182,3.491,3.491,0,0,0,.3,1.083l-.788.2a3.952,3.952,0,0,1-.3-1.477,7.654,7.654,0,0,1,.2-1.576Z" transform="translate(-14.511 -14.096)" fill="#878282"/><path d="M76.99,19.7a.957.957,0,0,1,.886.1,2.2,2.2,0,0,1,.788,1.28,2.787,2.787,0,0,1,.2,1.477.888.888,0,0,1-.591.591.957.957,0,0,1-.886-.1,2.25,2.25,0,0,1-.788-1.182,2.787,2.787,0,0,1-.2-1.477A.737.737,0,0,1,76.99,19.7Zm.2.492c-.1,0-.1.1-.2.1,0,.1-.1.2,0,.3a5,5,0,0,0,.2.886,1.885,1.885,0,0,0,.394.788c.1.1.2.2.3.2h.2c.1,0,.1-.1.2-.2,0-.1.1-.2,0-.3a5,5,0,0,0-.2-.886,1.886,1.886,0,0,0-.394-.788c-.1-.1-.2-.2-.3-.2C77.286,20.191,77.286,20.191,77.187,20.191Z" transform="translate(-14.557 -14.086)" fill="#878282"/><path d="M90.69,17.573a.7.7,0,0,1-.591-.591.809.809,0,0,1,.1-.689,1.587,1.587,0,0,1,.689-.394,1.046,1.046,0,0,1,.788.1.665.665,0,0,1,.394.591v.492c-.1.1-.2.3-.3.394a.542.542,0,0,1,.492.3,2.153,2.153,0,0,1,.3.492,1,1,0,0,1-.2.886,1.554,1.554,0,0,1-.788.492,1.046,1.046,0,0,1-.788-.1.741.741,0,0,1-.492-.689v-.591C90.395,17.77,90.493,17.672,90.69,17.573Zm0-.689c0,.1.1.2.2.3a.362.362,0,0,0,.3.1c.1,0,.2-.1.3-.2a.362.362,0,0,0,.1-.3c0-.1-.1-.2-.2-.3a.362.362,0,0,0-.3-.1c-.1,0-.2.1-.3.2C90.69,16.589,90.69,16.687,90.69,16.884Zm.2,1.477a.512.512,0,0,0,.2.394c.1.1.2.1.394.1.1,0,.2-.1.3-.2a.738.738,0,0,0,.1-.492.512.512,0,0,0-.2-.394c-.1-.1-.2-.1-.394-.1s-.3.1-.3.2A1.071,1.071,0,0,0,90.887,18.361Z" transform="translate(-14.766 -14.028)" fill="#878282"/><path d="M93.787,15.3a1,1,0,0,1,.886.2,2.251,2.251,0,0,1,.591,1.379,2.259,2.259,0,0,1-.1,1.477,1.14,1.14,0,0,1-.689.492.842.842,0,0,1-.886-.3c-.3-.2-.394-.689-.591-1.379a2.259,2.259,0,0,1,.1-1.477C93.2,15.5,93.393,15.4,93.787,15.3Zm.1.591a.344.344,0,0,0-.2.1.362.362,0,0,0-.1.3,3.392,3.392,0,0,0,.1.886c.1.394.1.689.2.788s.1.2.2.3c.1,0,.2.1.2,0a.344.344,0,0,0,.2-.1.362.362,0,0,0,.1-.3,3.392,3.392,0,0,0-.1-.886c-.1-.394-.1-.689-.2-.788s-.1-.2-.2-.3Z" transform="translate(-14.81 -14.019)" fill="#878282"/><path d="M107.1,16.757l.689-.1c0,.1.1.2.1.3a.362.362,0,0,0,.3.1.747.747,0,0,0,.394-.2,1.273,1.273,0,0,0,.2-.788.851.851,0,0,1-.591.3.894.894,0,0,1-.689-.3,1.118,1.118,0,0,1-.3-.788,1.2,1.2,0,0,1,.3-.886,1.98,1.98,0,0,1,.788-.394.96.96,0,0,1,.886.394,2.3,2.3,0,0,1,.394,1.379,2.383,2.383,0,0,1-.3,1.379,1.034,1.034,0,0,1-.886.492,1.423,1.423,0,0,1-.689-.2C107.3,17.25,107.1,17.053,107.1,16.757Zm1.477-1.477a.752.752,0,0,0-.2-.492.512.512,0,0,0-.394-.2c-.1,0-.2.1-.3.2a.738.738,0,0,0-.1.492.752.752,0,0,0,.2.492c.1.1.2.2.3.2s.2-.1.3-.2A.542.542,0,0,0,108.577,15.28Z" transform="translate(-15.026 -14)" fill="#878282"/><path d="M111.082,14a.9.9,0,0,1,.788.394,2.768,2.768,0,0,1,.3,1.477,2.044,2.044,0,0,1-.394,1.477,1.216,1.216,0,0,1-.788.394.9.9,0,0,1-.788-.394,2.608,2.608,0,0,1-.3-1.379,2.044,2.044,0,0,1,.394-1.477A.811.811,0,0,1,111.082,14Zm0,.591c-.1,0-.2,0-.2.1a.757.757,0,0,0-.2.3,2.186,2.186,0,0,0-.1.886,2.186,2.186,0,0,0,.1.886c0,.2.1.3.2.3.1.1.1.1.2.1s.2,0,.2-.1a.757.757,0,0,0,.2-.3,2.186,2.186,0,0,0,.1-.886,2.186,2.186,0,0,0-.1-.886c0-.2-.1-.3-.2-.3C111.279,14.591,111.18,14.591,111.082,14.591Z" transform="translate(-15.069 -14)" fill="#878282"/><path d="M122.779,18.444l-.689-.1.3-2.56a2.949,2.949,0,0,1-.985.394l.1-.591a.851.851,0,0,0,.591-.3,1.187,1.187,0,0,0,.492-.492l.591.1Z" transform="translate(-15.245 -14.012)" fill="#878282"/><path d="M125.475,15.3c.3.1.591.2.689.492a2.259,2.259,0,0,1,.1,1.477,2.251,2.251,0,0,1-.591,1.379.884.884,0,0,1-.886.2,1.353,1.353,0,0,1-.788-.492,2.259,2.259,0,0,1-.1-1.477,2.251,2.251,0,0,1,.591-1.379A1.948,1.948,0,0,1,125.475,15.3Zm-.1.591h-.2c-.1,0-.1.1-.2.3a1.966,1.966,0,0,0-.2.886,3.392,3.392,0,0,0-.1.886.431.431,0,0,0,.1.3c.1.1.1.1.2.1h.2c.1,0,.1-.1.2-.3a6.277,6.277,0,0,0,.2-.886,3.392,3.392,0,0,0,.1-.886.431.431,0,0,0-.1-.3C125.573,15.891,125.475,15.891,125.376,15.891Z" transform="translate(-15.282 -14.02)" fill="#878282"/><path d="M128.375,15.8c.3.1.591.2.689.492a2.259,2.259,0,0,1,.1,1.477,2.251,2.251,0,0,1-.591,1.379.884.884,0,0,1-.886.2,1.531,1.531,0,0,1-.788-.591,1.852,1.852,0,0,1,0-1.477,2.251,2.251,0,0,1,.591-1.379A2.186,2.186,0,0,1,128.375,15.8Zm-.1.591h-.2c-.1,0-.1.1-.2.3a1.966,1.966,0,0,0-.2.886,3.392,3.392,0,0,0-.1.886c0,.2,0,.3.1.3.1.1.1.1.2.1h.2c.1,0,.1-.1.2-.3a1.966,1.966,0,0,0,.2-.886,3.392,3.392,0,0,0,.1-.886c0-.2,0-.3-.1-.3A.344.344,0,0,1,128.276,16.391Z" transform="translate(-15.326 -14.027)" fill="#878282"/><path d="M137.686,21.945l-.689-.2.788-2.462a1.619,1.619,0,0,1-.985.2l.2-.591c.2,0,.394-.1.689-.1a1.256,1.256,0,0,0,.591-.394l.492.2Z" transform="translate(-15.479 -14.067)" fill="#878282"/><path d="M140.086,22.645l-.689-.2.788-2.462a3.5,3.5,0,0,1-.985.2l.2-.591a1.922,1.922,0,0,0,.689-.1.9.9,0,0,0,.591-.394l.492.2Z" transform="translate(-15.516 -14.078)" fill="#878282"/><path d="M143.37,20.1a.888.888,0,0,1,.591.591,2.07,2.07,0,0,1-.2,1.477c-.2.591-.492,1.083-.788,1.182a.957.957,0,0,1-.886.1.864.864,0,0,1-.591-.689,2.98,2.98,0,0,1,.2-1.477,2.25,2.25,0,0,1,.788-1.182A1.366,1.366,0,0,1,143.37,20.1Zm-.2.591h-.2a.212.212,0,0,0-.2.2,5.478,5.478,0,0,0-.394.788c-.1.394-.2.689-.2.788v.394c0,.1.1.1.2.2h.2a.212.212,0,0,0,.2-.2,5.477,5.477,0,0,0,.394-.788c.1-.394.2-.689.2-.788v-.394C143.272,20.69,143.272,20.69,143.173,20.69Z" transform="translate(-15.551 -14.092)" fill="#878282"/><path d="M152.791,28.248l-.591-.3,1.182-2.265a3.35,3.35,0,0,1-.985.1l.3-.591h.689a1.471,1.471,0,0,0,.689-.3l.492.3Z" transform="translate(-15.714 -14.166)" fill="#878282"/><path d="M156.063,29.348l-.3.591L153.7,28.757a1.187,1.187,0,0,1,.492-.492c.2-.1.591-.2,1.083-.394.394-.1.689-.2.788-.2q.3-.148.3-.3a.592.592,0,0,0,.1-.394c0-.1-.1-.2-.2-.3s-.2-.1-.394-.1q-.148,0-.3.3l-.591-.394a1.019,1.019,0,0,1,.689-.492,1.184,1.184,0,0,1,.788.2,1.324,1.324,0,0,1,.591.689.771.771,0,0,1-.1.788c-.1.1-.2.3-.3.394a2.153,2.153,0,0,1-.492.3c-.1.1-.3.1-.591.2a1.733,1.733,0,0,1-.591.1.344.344,0,0,0-.2.1Z" transform="translate(-15.737 -14.183)" fill="#878282"/><path d="M158.962,27.7c.3.2.492.394.492.689a2.151,2.151,0,0,1-.492,1.379,2.29,2.29,0,0,1-1.083,1.083.957.957,0,0,1-.886-.1.877.877,0,0,1-.492-.788,2.569,2.569,0,0,1,.492-1.379,2.29,2.29,0,0,1,1.083-1.083A1.324,1.324,0,0,1,158.962,27.7Zm-.2.492c-.1,0-.2-.1-.2,0-.1,0-.2.1-.3.2a6.712,6.712,0,0,0-.492.689l-.394.788c0,.2-.1.3,0,.394,0,.1.1.1.2.2.1,0,.1.1.2,0,.1,0,.2-.1.3-.2a6.713,6.713,0,0,0,.492-.689l.394-.788c0-.2.1-.3,0-.394Z" transform="translate(-15.78 -14.206)" fill="#878282"/><path d="M166.792,37.453l-.492-.394,1.576-1.969a3.35,3.35,0,0,1-.985-.1l.394-.492a1.46,1.46,0,0,0,.689.1,1.423,1.423,0,0,0,.689-.2l.394.3Z" transform="translate(-15.93 -14.311)" fill="#878282"/><path d="M168.2,37.276l.591.394a.592.592,0,0,0-.1.394c0,.1.1.2.2.3s.2.1.394.1a.7.7,0,0,0,.591-.591c0-.1-.1-.2-.2-.3s-.2-.1-.3-.2l.394-.394a.747.747,0,0,0,.394.2c.1,0,.2-.1.3-.2a.362.362,0,0,0,.1-.3c0-.1-.1-.2-.2-.3a.362.362,0,0,0-.3-.1c-.1,0-.2.1-.3.2L169.38,36c.2-.1.3-.2.492-.3h.492c.2,0,.3.1.492.3a.9.9,0,0,1,.394.788.724.724,0,0,1-.2.591,1.2,1.2,0,0,1-.886.3c.1.2.2.3.2.492a.752.752,0,0,1-.2.492,1.216,1.216,0,0,1-.788.394,1.588,1.588,0,0,1-.886-.3.853.853,0,0,1-.394-.689A1.167,1.167,0,0,1,168.2,37.276Z" transform="translate(-15.956 -14.331)" fill="#878282"/><path d="M173.057,37.894a.9.9,0,0,1,.394.788,2.36,2.36,0,0,1-.689,1.28,2.818,2.818,0,0,1-1.182.886.842.842,0,0,1-.886-.3.96.96,0,0,1-.394-.886,2.735,2.735,0,0,1,.689-1.28,2.818,2.818,0,0,1,1.182-.886A3.5,3.5,0,0,1,173.057,37.894Zm-.394.492c-.1-.1-.1-.1-.2-.1a.362.362,0,0,0-.3.1,1.672,1.672,0,0,0-.591.591c-.3.3-.492.492-.492.689a.486.486,0,0,0-.1.3.344.344,0,0,0,.1.2c.1.1.1.1.2.1a.362.362,0,0,0,.3-.1,1.672,1.672,0,0,0,.591-.591c.3-.3.492-.492.492-.689a.486.486,0,0,0,.1-.3A.344.344,0,0,0,172.663,38.386Z" transform="translate(-15.991 -14.359)" fill="#878282"/><path d="M178.992,48.956l-.492-.492,1.871-1.674a1.9,1.9,0,0,1-.985-.3l.492-.394a1.4,1.4,0,0,0,.591.2,1.46,1.46,0,0,0,.689-.1l.394.394Z" transform="translate(-16.116 -14.49)" fill="#878282"/><path d="M180.5,50.765l.591-.492-.886-1.083.492-.394,2.757-.3.394.394-1.674,1.477.3.3-.492.394-.3-.3-.591.492Zm.985-.886.886-.788-1.477.2Z" transform="translate(-16.142 -14.526)" fill="#878282"/><path d="M184.952,50.5a1,1,0,0,1,.2.886,2.882,2.882,0,0,1-2.265,1.773.9.9,0,0,1-.788-.394,1,1,0,0,1-.2-.886,2.659,2.659,0,0,1,.886-1.083,2.347,2.347,0,0,1,1.379-.591A.817.817,0,0,1,184.952,50.5Zm-.394.394c-.1-.1-.1-.1-.2-.1a.362.362,0,0,0-.3.1,4.386,4.386,0,0,0-.788.492l-.591.591a.362.362,0,0,0-.1.3c0,.1,0,.2.1.2.1.1.1.1.2.1a.362.362,0,0,0,.3-.1,2.273,2.273,0,0,0,.689-.492l.591-.591a.362.362,0,0,0,.1-.3Z" transform="translate(-16.167 -14.552)" fill="#878282"/><path d="M188.094,61.257l-.394-.591,2.166-1.379a2.013,2.013,0,0,1-.886-.492l.492-.3a1.6,1.6,0,0,0,.591.3,1.923,1.923,0,0,0,.689.1l.3.492Z" transform="translate(-16.256 -14.679)" fill="#878282"/><path d="M189.491,61.688l.394.591c-.1.1-.2.2-.2.3a.744.744,0,0,0,.1.394c.1.1.2.2.3.2a.888.888,0,0,0,.492-.1.769.769,0,0,0,.394-.394.592.592,0,0,0-.1-.394.542.542,0,0,0-.492-.3l-.2-.492,1.773-.591.886,1.576-.591.3-.689-1.083-.591.2c.1.1.3.2.3.3a.771.771,0,0,1,.1.788,1.324,1.324,0,0,1-.591.689,2.317,2.317,0,0,1-.788.2.946.946,0,0,1-.886-.591,1.324,1.324,0,0,1-.2-.788A1.669,1.669,0,0,1,189.491,61.688Z" transform="translate(-16.274 -14.715)" fill="#878282"/><path d="M193.749,63.792a.957.957,0,0,1,.1.886,2.148,2.148,0,0,1-1.083.985,2.378,2.378,0,0,1-1.477.394,1.14,1.14,0,0,1-.689-.492.957.957,0,0,1-.1-.886c.1-.3.492-.591,1.083-.985a2.266,2.266,0,0,1,1.379-.394A.877.877,0,0,1,193.749,63.792Zm-.492.3c0-.1-.1-.1-.2-.2h-.3a1.939,1.939,0,0,0-.788.394,2.45,2.45,0,0,0-.689.492c-.1.1-.2.2-.2.3v.2c0,.1.1.1.2.2h.3c.2,0,.394-.2.788-.394a2.45,2.45,0,0,0,.689-.492c.1-.1.2-.2.2-.3C193.355,64.186,193.256,64.186,193.256,64.087Z" transform="translate(-16.298 -14.752)" fill="#878282"/><path d="M195.6,76.163l-.3-.591,2.363-.985a2.37,2.37,0,0,1-.788-.591l.591-.2a2.148,2.148,0,0,0,.492.394,1.826,1.826,0,0,0,.689.2l.2.492Z" transform="translate(-16.372 -14.912)" fill="#878282"/><path d="M199.353,78.368l-.3-.591c.1-.1.2-.1.2-.2v-.3l-.3-.3a2.772,2.772,0,0,0-.788.1,1.187,1.187,0,0,1,.492.492.771.771,0,0,1-.1.788,1.041,1.041,0,0,1-.689.591,1.358,1.358,0,0,1-.886,0,.864.864,0,0,1-.591-.689,1.165,1.165,0,0,1,.1-.985,2.25,2.25,0,0,1,1.182-.788,1.971,1.971,0,0,1,1.477-.1.973.973,0,0,1,.689.689.833.833,0,0,1,0,.689A1.008,1.008,0,0,1,199.353,78.368Zm-1.97-.886c-.2.1-.394.2-.394.3a.592.592,0,0,0-.1.394c0,.1.1.2.3.2h.492c.2-.1.394-.2.394-.3.1-.1.1-.2,0-.394q0-.148-.3-.3A.982.982,0,0,0,197.384,77.482Z" transform="translate(-16.388 -14.95)" fill="#878282"/><path d="M200.746,79.688a.957.957,0,0,1-.1.886,2.2,2.2,0,0,1-1.28.788,1.971,1.971,0,0,1-1.477.1.864.864,0,0,1-.591-.689.957.957,0,0,1,.1-.886,2.843,2.843,0,0,1,1.28-.788,1.971,1.971,0,0,1,1.477-.1A4.282,4.282,0,0,1,200.746,79.688Zm-.591.2c0-.1-.1-.1-.1-.2-.1,0-.2-.1-.3-.1a5,5,0,0,0-.886.2,2.158,2.158,0,0,0-.788.3c-.1.1-.2.2-.2.3v.2c0,.1.1.1.1.2.1,0,.2.1.3.1a5,5,0,0,0,.886-.2,2.158,2.158,0,0,0,.788-.3c.1-.1.2-.2.2-.3Z" transform="translate(-16.401 -14.99)" fill="#878282"/><path d="M200.3,92.168l-.1-.689,2.462-.492a2.654,2.654,0,0,1-.689-.788l.591-.1a1.729,1.729,0,0,0,.394.492.894.894,0,0,0,.689.3l.1.492Z" transform="translate(-16.447 -15.161)" fill="#878282"/><path d="M203.357,92.8l.591-.1.394,2.265-.492.1a1.856,1.856,0,0,0-.886-.394l-1.182-.3H200.7l-.1-.689a3.73,3.73,0,0,1,1.477,0,8.667,8.667,0,0,1,1.477.492Z" transform="translate(-16.453 -15.201)" fill="#878282"/><path d="M204.644,96.686a1.085,1.085,0,0,1-.3.886,1.786,1.786,0,0,1-1.379.492,3.2,3.2,0,0,1-1.477-.1,1.108,1.108,0,0,1-.492-.788,1.085,1.085,0,0,1,.3-.886,2.684,2.684,0,0,1,1.379-.492,3.2,3.2,0,0,1,1.477.1A.877.877,0,0,1,204.644,96.686Zm-.591,0c0-.1,0-.2-.1-.2a.362.362,0,0,0-.3-.1,3.392,3.392,0,0,0-.886.1,6.279,6.279,0,0,0-.886.2.757.757,0,0,0-.3.2c0,.1-.1.1,0,.2,0,.1,0,.2.1.2a.362.362,0,0,0,.3.1,3.392,3.392,0,0,0,.886-.1,6.277,6.277,0,0,0,.886-.2.757.757,0,0,0,.3-.2A.136.136,0,0,0,204.053,96.686Z" transform="translate(-16.459 -15.247)" fill="#878282"/><path d="M201.9,106.074v-.689l2.56-.1a3.437,3.437,0,0,1-.591-.886h.591a1.81,1.81,0,0,0,.985.985v.591Z" transform="translate(-16.473 -15.379)" fill="#878282"/><path d="M203.872,107.592a1.359,1.359,0,0,1,.3-.394.592.592,0,0,1,.394-.1.894.894,0,0,1,.689.3.969.969,0,0,1,.3.788,1.855,1.855,0,0,1-.2.788.894.894,0,0,1-.689.3c-.2,0-.3,0-.394-.1a1.36,1.36,0,0,1-.3-.394,2.152,2.152,0,0,1-.3.492c-.2.1-.3.2-.492.2a1.017,1.017,0,0,1-1.083-1.083,1.855,1.855,0,0,1,.2-.788.9.9,0,0,1,.788-.394.738.738,0,0,1,.492.1Q203.725,107.3,203.872,107.592Zm-.788.1a.512.512,0,0,0-.394.2c-.1.1-.2.2-.1.394,0,.1.1.3.2.3a.592.592,0,0,0,.394.1.512.512,0,0,0,.394-.2c.1-.1.1-.2.1-.394a.512.512,0,0,0-.2-.394C203.282,107.789,203.183,107.691,203.085,107.691Zm1.477,0a.348.348,0,1,0,.3.1A.431.431,0,0,0,204.562,107.691Z" transform="translate(-16.476 -15.42)" fill="#878282"/><path d="M205.542,111.082a.9.9,0,0,1-.394.788,2.768,2.768,0,0,1-1.477.3,2.044,2.044,0,0,1-1.477-.394,1.216,1.216,0,0,1-.394-.788.9.9,0,0,1,.394-.788,2.608,2.608,0,0,1,1.379-.3,2.044,2.044,0,0,1,1.477.394A.811.811,0,0,1,205.542,111.082Zm-.492,0c0-.1,0-.2-.1-.2a.757.757,0,0,0-.3-.2c-.2,0-.492-.1-.886-.1a2.186,2.186,0,0,0-.886.1c-.2,0-.3.1-.3.2-.1.1-.1.1-.1.2s0,.2.1.2a.758.758,0,0,0,.3.2,4.037,4.037,0,0,0,1.773,0c.2,0,.3-.1.3-.2A.344.344,0,0,0,205.05,111.082Z" transform="translate(-16.471 -15.463)" fill="#878282"/></g><path d="M3.254,82.748l4.628,1.182.3-1.28L3.55,81.468C3.451,81.861,3.353,82.255,3.254,82.748Zm6.2-18.021,4.53,2.166.591-1.182-4.53-2.166ZM.3,101.458l4.628.394.1-1.28L.4,100.178A5.2,5.2,0,0,0,.3,101.458ZM19.5,47.1c-.3.394-.492.689-.788,1.083l4.234,2.954.788-1.083Z" transform="translate(-0.006 -0.719)" fill="#fff"/><path d="M0,106.717l2.757.1v-1.28l-2.856-.1A5.615,5.615,0,0,1,0,106.717Zm.1-1.871,2.856.2.1-1.28-2.856-.2A5.615,5.615,0,0,0,.1,104.846ZM14.868,54.23l2.856,1.576.492-.788-2.757-1.674C15.164,53.541,15.065,53.935,14.868,54.23ZM.2,102.975l2.856.2.1-1.28-2.856-.2A5.2,5.2,0,0,0,.2,102.975Zm.2-3.742,2.856.3.1-1.28-2.856-.3A6.057,6.057,0,0,1,.392,99.233Zm.394-3.84,2.856.394.3-1.28L.983,94.112A4.989,4.989,0,0,1,.786,95.392Zm.3-1.871,2.856.492.2-1.28L1.18,92.241A5.615,5.615,0,0,1,1.082,93.521ZM.589,97.263l2.856.394.2-1.28L.786,95.983C.688,96.476.688,96.869.589,97.263ZM22.155,43.4l2.659,2.068.788-1.083-2.659-2.068A7.516,7.516,0,0,0,22.155,43.4Zm-6.5,9.355,2.757,1.773.689-1.083L16.345,51.67A6.623,6.623,0,0,1,15.656,52.753ZM17.724,49.6l2.757,1.871.492-.689-2.757-1.871A4.169,4.169,0,0,0,17.724,49.6ZM19.89,46.45l2.659,1.969.788-1.083-2.659-1.969A4.372,4.372,0,0,0,19.89,46.45Zm-3.151,4.727L19.5,52.95l.689-1.083-2.757-1.773A4.066,4.066,0,0,0,16.739,51.177ZM25.8,38.868l2.659,2.166.689-.788-2.56-2.363A6.9,6.9,0,0,0,25.8,38.868Zm-4.825,6.007,2.659,1.969.788-1.083-2.659-1.969C21.466,44.186,21.269,44.481,20.974,44.875Zm2.265-3.053L25.8,43.89l.788-.985-2.56-2.068A6.9,6.9,0,0,1,23.238,41.822ZM1.673,89.779l2.954.591.3-1.28L1.968,88.5C1.869,88.991,1.771,89.385,1.673,89.779ZM5.415,75.107l2.954.985.394-1.28-2.954-.985C5.71,74.319,5.513,74.713,5.415,75.107Zm2.56-7.09,2.856,1.28.492-1.182-2.954-1.28A2.8,2.8,0,0,1,7.975,68.016ZM10.338,62.8l2.856,1.379.591-1.182-2.954-1.379C10.634,62.009,10.535,62.4,10.338,62.8Zm1.674-3.447,2.856,1.477.591-1.182L12.6,58.169A13.187,13.187,0,0,1,12.012,59.351Zm-3.25,6.893,2.856,1.28.492-1.182L9.157,65.161C9.058,65.555,8.861,65.85,8.763,66.244Zm2.363-5.121L13.982,62.6l.591-1.182-2.856-1.477ZM27.571,36.8c-.2.2-.394.492-.591.689l2.56,2.265.591-.689ZM0,108.588l2.757.1v-1.28L0,107.308Zm2.068-20.68,2.954.591.3-1.28-2.954-.591A7.774,7.774,0,0,0,2.066,87.908ZM12.9,57.677l2.856,1.576.591-1.182-2.856-1.576A13.188,13.188,0,0,1,12.9,57.677ZM2.854,84.265l2.954.689.3-1.28L3.15,82.985C3.051,83.378,2.953,83.772,2.854,84.265ZM2.46,86.136l2.954.689.3-1.28-2.954-.689A4.886,4.886,0,0,0,2.46,86.136Zm1.28-5.613,2.954.886.394-1.28-2.954-.886A9.147,9.147,0,0,0,3.741,80.523Zm2.954-9.257,2.954,1.182.394-.985L7.089,70.38A3.5,3.5,0,0,1,6.695,71.266Zm.591-1.477,2.954,1.182.492-1.182L7.778,68.607A10.254,10.254,0,0,1,7.286,69.789Zm-2.462,7.09,2.954.985.394-1.28L5.218,75.6C5.119,76.091,4.922,76.485,4.824,76.879ZM4.233,78.75l2.954.886.394-1.28L4.627,77.47A6.369,6.369,0,0,1,4.233,78.75Z" transform="translate(0 -0.561)" fill="#b1b1b1"/></g></svg>