<svg xmlns="http://www.w3.org/2000/svg" width="288.489" height="138.971" viewBox="0 0 288.489 138.971"><g transform="translate(-309 -187)"><g transform="translate(309 187)" fill="#fff" stroke="#dbdbdb" stroke-width="1"><rect width="288.489" height="138.97" rx="5" stroke="none"/><rect x="0.5" y="0.5" width="287.489" height="137.97" rx="4.5" fill="none"/></g><g transform="translate(0 -2)"><path d="M0,0H55V45H0Z" transform="translate(344 261)" fill="#00ad50"/><path d="M-24.251-7.139h2.222a4.281,4.281,0,0,1,2.2.432,1.5,1.5,0,0,1,.686,1.375,1.732,1.732,0,0,1-.3,1.05,1.2,1.2,0,0,1-.8.493v.049a1.573,1.573,0,0,1,.979.566,1.843,1.843,0,0,1,.3,1.1,1.818,1.818,0,0,1-.706,1.523A3.052,3.052,0,0,1-21.58,0h-2.671Zm1.514,2.827h.879a1.607,1.607,0,0,0,.891-.19.71.71,0,0,0,.276-.63.63.63,0,0,0-.3-.588,1.93,1.93,0,0,0-.95-.178h-.8Zm0,1.2v1.86h.986a1.463,1.463,0,0,0,.923-.239.883.883,0,0,0,.3-.732q0-.889-1.27-.889ZM-12.976,0l-.518-1.7h-2.6L-16.614,0h-1.631l2.52-7.168h1.851L-11.346,0Zm-.879-2.969q-.718-2.31-.808-2.612t-.129-.479q-.161.625-.923,3.091ZM-3.928,0H-5.852L-8.958-5.4H-9q.093,1.431.093,2.041V0h-1.353V-7.139h1.909l3.1,5.347h.034q-.073-1.392-.073-1.968V-7.139h1.362ZM2.424,0,1.907-1.7H-.7L-1.213,0H-2.844l2.52-7.168H1.526L4.055,0ZM1.545-2.969Q.828-5.278.737-5.581T.608-6.06q-.161.625-.923,3.091ZM11.472,0H9.549L6.443-5.4H6.4q.093,1.431.093,2.041V0H5.139V-7.139H7.049l3.1,5.347h.034Q10.11-3.184,10.11-3.76V-7.139h1.362Zm6.353,0-.518-1.7H14.7L14.187,0H12.556l2.52-7.168h1.851L19.456,0Zm-.879-2.969q-.718-2.31-.808-2.612t-.129-.479q-.161.625-.923,3.091Zm7.808.986a1.845,1.845,0,0,1-.7,1.523A3.023,3.023,0,0,1,22.122.1,4.547,4.547,0,0,1,20.1-.332V-1.738a8.33,8.33,0,0,0,1.223.454,3.619,3.619,0,0,0,.916.132A1.3,1.3,0,0,0,23-1.343a.651.651,0,0,0,.266-.566.625.625,0,0,0-.117-.374,1.311,1.311,0,0,0-.344-.315,8.854,8.854,0,0,0-.925-.483,4.386,4.386,0,0,1-.981-.591,2.218,2.218,0,0,1-.522-.659,1.881,1.881,0,0,1-.2-.879A1.845,1.845,0,0,1,20.826-6.7,2.668,2.668,0,0,1,22.6-7.241a4.191,4.191,0,0,1,1.062.132,7.3,7.3,0,0,1,1.057.371l-.488,1.177a7.144,7.144,0,0,0-.945-.327,3.041,3.041,0,0,0-.735-.093.973.973,0,0,0-.659.2.66.66,0,0,0-.229.522.647.647,0,0,0,.093.349,1.02,1.02,0,0,0,.3.288,9.134,9.134,0,0,0,.959.5,3.818,3.818,0,0,1,1.372.959A1.873,1.873,0,0,1,24.754-1.982Z" transform="translate(372 320)" fill="#6a737f"/><path d="M0,0H55V37H0Z" transform="translate(426 269)" fill="#00ad50"/><path d="M-13.3,0l-.518-1.7h-2.6L-16.941,0h-1.631l2.52-7.168H-14.2L-11.673,0Zm-.879-2.969q-.718-2.31-.808-2.612t-.129-.479q-.161.625-.923,3.091Zm5.108-.811h.5a1.659,1.659,0,0,0,1.045-.276.966.966,0,0,0,.347-.8.99.99,0,0,0-.291-.786A1.361,1.361,0,0,0-8.386-5.9h-.688Zm3.418-1.133a2.182,2.182,0,0,1-.72,1.763,3.08,3.08,0,0,1-2.048.61h-.649V0h-1.514V-7.139h2.28a3.033,3.033,0,0,1,1.975.559A2.039,2.039,0,0,1-5.657-4.912ZM-2.61-3.779h.5a1.659,1.659,0,0,0,1.045-.276.966.966,0,0,0,.347-.8.99.99,0,0,0-.291-.786A1.361,1.361,0,0,0-1.921-5.9H-2.61ZM.808-4.912a2.182,2.182,0,0,1-.72,1.763,3.08,3.08,0,0,1-2.048.61H-2.61V0H-4.124V-7.139h2.28A3.033,3.033,0,0,1,.132-6.58,2.039,2.039,0,0,1,.808-4.912ZM2.341,0V-7.139H3.855V-1.25h2.9V0Zm9.946,0H8.177V-7.139h4.111V-5.9H9.69v1.567h2.417v1.24H9.69V-1.25h2.6Zm5.889-1.982a1.845,1.845,0,0,1-.7,1.523A3.023,3.023,0,0,1,15.545.1a4.547,4.547,0,0,1-2.021-.43V-1.738a8.33,8.33,0,0,0,1.223.454,3.619,3.619,0,0,0,.916.132,1.3,1.3,0,0,0,.764-.19.651.651,0,0,0,.266-.566.625.625,0,0,0-.117-.374,1.311,1.311,0,0,0-.344-.315,8.853,8.853,0,0,0-.925-.483,4.386,4.386,0,0,1-.981-.591,2.218,2.218,0,0,1-.522-.659,1.881,1.881,0,0,1-.2-.879A1.845,1.845,0,0,1,14.248-6.7a2.668,2.668,0,0,1,1.775-.542,4.191,4.191,0,0,1,1.062.132,7.3,7.3,0,0,1,1.057.371l-.488,1.177a7.144,7.144,0,0,0-.945-.327,3.041,3.041,0,0,0-.735-.093.973.973,0,0,0-.659.2.66.66,0,0,0-.229.522.647.647,0,0,0,.093.349,1.02,1.02,0,0,0,.3.288,9.134,9.134,0,0,0,.959.5,3.818,3.818,0,0,1,1.372.959A1.873,1.873,0,0,1,18.177-1.982Z" transform="translate(454 320)" fill="#6a737f"/><path d="M0,0H55V45H0Z" transform="translate(508 261)" fill="#00ad50"/><path d="M-13.4-3.779h.5a1.659,1.659,0,0,0,1.045-.276.966.966,0,0,0,.347-.8.99.99,0,0,0-.291-.786,1.361,1.361,0,0,0-.911-.254H-13.4Zm3.418-1.133a2.182,2.182,0,0,1-.72,1.763,3.08,3.08,0,0,1-2.048.61H-13.4V0h-1.514V-7.139h2.28a3.033,3.033,0,0,1,1.975.559A2.039,2.039,0,0,1-9.986-4.912ZM-4.341,0H-8.452V-7.139h4.111V-5.9h-2.6v1.567h2.417v1.24H-6.939V-1.25h2.6ZM1.7,0,1.187-1.7h-2.6L-1.934,0H-3.564l2.52-7.168H.806L3.335,0ZM.825-2.969Q.107-5.278.017-5.581T-.112-6.06q-.161.625-.923,3.091Zm5.108-1h.488a1.868,1.868,0,0,0,1.06-.239.854.854,0,0,0,.342-.752.781.781,0,0,0-.349-.723A2.119,2.119,0,0,0,6.392-5.9H5.933Zm0,1.23V0H4.419V-7.139H6.5a3.56,3.56,0,0,1,2.153.53A1.891,1.891,0,0,1,9.351-5,1.894,1.894,0,0,1,9-3.879a2.294,2.294,0,0,1-.981.769Q9.634-.7,10.122,0H8.443l-1.7-2.739Zm9.487.757a1.845,1.845,0,0,1-.7,1.523A3.023,3.023,0,0,1,12.788.1a4.547,4.547,0,0,1-2.021-.43V-1.738a8.33,8.33,0,0,0,1.223.454,3.619,3.619,0,0,0,.916.132,1.3,1.3,0,0,0,.764-.19.651.651,0,0,0,.266-.566.625.625,0,0,0-.117-.374,1.311,1.311,0,0,0-.344-.315,8.853,8.853,0,0,0-.925-.483,4.386,4.386,0,0,1-.981-.591,2.218,2.218,0,0,1-.522-.659,1.881,1.881,0,0,1-.2-.879A1.845,1.845,0,0,1,11.492-6.7a2.668,2.668,0,0,1,1.775-.542,4.191,4.191,0,0,1,1.062.132,7.3,7.3,0,0,1,1.057.371L14.9-5.562a7.144,7.144,0,0,0-.945-.327,3.041,3.041,0,0,0-.735-.093.973.973,0,0,0-.659.2.66.66,0,0,0-.229.522.647.647,0,0,0,.093.349,1.02,1.02,0,0,0,.3.288,9.134,9.134,0,0,0,.959.5,3.818,3.818,0,0,1,1.372.959A1.873,1.873,0,0,1,15.42-1.982Z" transform="translate(536 320)" fill="#6a737f"/></g></g></svg>