<svg xmlns="http://www.w3.org/2000/svg" width="288.489" height="138.971" viewBox="0 0 288.489 138.971"><g transform="translate(-309 -187)"><g transform="translate(309 187)" fill="#fff" stroke="#dbdbdb" stroke-width="1"><rect width="288.489" height="138.97" rx="5" stroke="none"/><rect x="0.5" y="0.5" width="287.489" height="137.97" rx="4.5" fill="none"/></g><g transform="translate(-0.682)"><g transform="translate(-20)"><path d="M-3.469-.991-8.318-3.13v-.7L-3.469-6.25v1.172L-6.809-3.53l3.34,1.372ZM1.277,0H-.232V-4.131l.015-.679.024-.742q-.376.376-.522.493l-.82.659-.728-.908,2.3-1.831h1.24ZM8.391-3.569A4.976,4.976,0,0,1,7.778-.8,2.126,2.126,0,0,1,5.891.1,2.1,2.1,0,0,1,4.028-.83,4.905,4.905,0,0,1,3.4-3.569a5.023,5.023,0,0,1,.61-2.786,2.117,2.117,0,0,1,1.88-.9,2.107,2.107,0,0,1,1.868.938A4.915,4.915,0,0,1,8.391-3.569Zm-3.491,0a5.554,5.554,0,0,0,.227,1.882.786.786,0,0,0,.764.569.794.794,0,0,0,.762-.576,5.4,5.4,0,0,0,.234-1.875,5.384,5.384,0,0,0-.237-1.887.8.8,0,0,0-.759-.574.788.788,0,0,0-.762.574A5.544,5.544,0,0,0,4.9-3.569Z" transform="translate(370 318)" fill="#6a737f"/><path d="M8,0A8,8,0,1,1,0,8,8,8,0,0,1,8,0Z" transform="translate(362 288)" fill="#00ad50"/><path d="M8,0A8,8,0,1,1,0,8,8,8,0,0,1,8,0Z" transform="translate(362 268)" fill="#00ad50"/></g><g transform="translate(-11)"><path d="M-3.469-.991-8.318-3.13v-.7L-3.469-6.25v1.172L-6.809-3.53l3.34,1.372ZM2.537,0h-4.99V-1.05L-.662-2.861q.8-.815,1.04-1.13A2.486,2.486,0,0,0,.73-4.575a1.486,1.486,0,0,0,.107-.557A.811.811,0,0,0,.6-5.771a.918.918,0,0,0-.632-.21,1.818,1.818,0,0,0-.806.19,4.158,4.158,0,0,0-.815.542l-.82-.972A5.352,5.352,0,0,1-1.6-6.855a3.208,3.208,0,0,1,.757-.286,3.878,3.878,0,0,1,.918-.1A2.718,2.718,0,0,1,1.257-7a1.885,1.885,0,0,1,.8.684,1.816,1.816,0,0,1,.283,1.006,2.462,2.462,0,0,1-.173.925,3.553,3.553,0,0,1-.537.886A13.131,13.131,0,0,1,.344-2.2l-.918.864v.068h3.11ZM8.391-3.569A4.976,4.976,0,0,1,7.778-.8,2.126,2.126,0,0,1,5.891.1,2.1,2.1,0,0,1,4.028-.83,4.905,4.905,0,0,1,3.4-3.569a5.023,5.023,0,0,1,.61-2.786,2.117,2.117,0,0,1,1.88-.9,2.107,2.107,0,0,1,1.868.938A4.915,4.915,0,0,1,8.391-3.569Zm-3.491,0a5.554,5.554,0,0,0,.227,1.882.786.786,0,0,0,.764.569.794.794,0,0,0,.762-.576,5.4,5.4,0,0,0,.234-1.875,5.384,5.384,0,0,0-.237-1.887.8.8,0,0,0-.759-.574.788.788,0,0,0-.762.574A5.544,5.544,0,0,0,4.9-3.569Z" transform="translate(412 318)" fill="#6a737f"/><path d="M8,0A8,8,0,1,1,0,8,8,8,0,0,1,8,0Z" transform="translate(404 288)" fill="#00ad50"/><path d="M8,0A8,8,0,1,1,0,8,8,8,0,0,1,8,0Z" transform="translate(404 268)" fill="#00ad50"/></g><g transform="translate(20)"><path d="M-3.469-.991-8.318-3.13v-.7L-3.469-6.25v1.172L-6.809-3.53l3.34,1.372ZM.144-4.561a2.3,2.3,0,0,1,1.648.581A2.089,2.089,0,0,1,2.4-2.388,2.314,2.314,0,0,1,1.667-.547,3.108,3.108,0,0,1-.442.1,4.131,4.131,0,0,1-2.366-.288v-1.3a3.993,3.993,0,0,0,.9.334A3.975,3.975,0,0,0-.5-1.128q1.382,0,1.382-1.133Q.886-3.34-.544-3.34a3.552,3.552,0,0,0-.571.051,4.18,4.18,0,0,0-.508.11l-.6-.322.269-3.638H1.917v1.279H-.632l-.132,1.4.171-.034A3.361,3.361,0,0,1,.144-4.561Zm8.247.991A4.976,4.976,0,0,1,7.778-.8,2.126,2.126,0,0,1,5.891.1,2.1,2.1,0,0,1,4.028-.83,4.905,4.905,0,0,1,3.4-3.569a5.023,5.023,0,0,1,.61-2.786,2.117,2.117,0,0,1,1.88-.9,2.107,2.107,0,0,1,1.868.938A4.915,4.915,0,0,1,8.391-3.569Zm-3.491,0a5.554,5.554,0,0,0,.227,1.882.786.786,0,0,0,.764.569.794.794,0,0,0,.762-.576,5.4,5.4,0,0,0,.234-1.875,5.384,5.384,0,0,0-.237-1.887.8.8,0,0,0-.759-.574.788.788,0,0,0-.762.574A5.544,5.544,0,0,0,4.9-3.569Z" transform="translate(536 318)" fill="#6a737f"/><path d="M8,0A8,8,0,1,1,0,8,8,8,0,0,1,8,0Z" transform="translate(530 288)" fill="#00ad50"/><path d="M8,0A8,8,0,1,1,0,8,8,8,0,0,1,8,0Z" transform="translate(530 268)" fill="#00ad50"/></g><g transform="translate(-1)"><path d="M-3.469-.991-8.318-3.13v-.7L-3.469-6.25v1.172L-6.809-3.53l3.34,1.372ZM2.258-5.542A1.68,1.68,0,0,1,1.853-4.4,2.1,2.1,0,0,1,.715-3.76v.029a2.274,2.274,0,0,1,1.309.525A1.47,1.47,0,0,1,2.468-2.08a1.907,1.907,0,0,1-.747,1.6A3.444,3.444,0,0,1-.413.1,5.181,5.181,0,0,1-2.473-.288V-1.572a4.657,4.657,0,0,0,.913.342A3.842,3.842,0,0,0-.574-1.1a1.918,1.918,0,0,0,1.1-.254.932.932,0,0,0,.356-.815.736.736,0,0,0-.41-.713,3.034,3.034,0,0,0-1.309-.21h-.542V-4.248h.552A2.566,2.566,0,0,0,.391-4.465.785.785,0,0,0,.774-5.21q0-.811-1.016-.811A2.324,2.324,0,0,0-.957-5.9a3.494,3.494,0,0,0-.808.405l-.7-1.04a3.88,3.88,0,0,1,2.329-.7,3.007,3.007,0,0,1,1.75.449A1.441,1.441,0,0,1,2.258-5.542ZM8.391-3.569A4.976,4.976,0,0,1,7.778-.8,2.126,2.126,0,0,1,5.891.1,2.1,2.1,0,0,1,4.028-.83,4.905,4.905,0,0,1,3.4-3.569a5.023,5.023,0,0,1,.61-2.786,2.117,2.117,0,0,1,1.88-.9,2.107,2.107,0,0,1,1.868.938A4.915,4.915,0,0,1,8.391-3.569Zm-3.491,0a5.554,5.554,0,0,0,.227,1.882.786.786,0,0,0,.764.569.794.794,0,0,0,.762-.576,5.4,5.4,0,0,0,.234-1.875,5.384,5.384,0,0,0-.237-1.887.8.8,0,0,0-.759-.574.788.788,0,0,0-.762.574A5.544,5.544,0,0,0,4.9-3.569Z" transform="translate(453 318)" fill="#6a737f"/><path d="M8,0A8,8,0,1,1,0,8,8,8,0,0,1,8,0Z" transform="translate(446 288)" fill="#00ad50"/><path d="M8,0A8,8,0,1,1,0,8,8,8,0,0,1,8,0Z" transform="translate(446 248)" fill="#00ad50"/><path d="M8,0A8,8,0,1,1,0,8,8,8,0,0,1,8,0Z" transform="translate(446 268)" fill="#00ad50"/><path d="M8,0A8,8,0,1,1,0,8,8,8,0,0,1,8,0Z" transform="translate(446 228)" fill="#00ad50"/></g><g transform="translate(9)"><path d="M-3.469-.991-8.318-3.13v-.7L-3.469-6.25v1.172L-6.809-3.53l3.34,1.372ZM2.7-1.479H1.838V0H.364V-1.479H-2.683v-1.05L.447-7.139H1.838v4.487H2.7ZM.364-2.651V-3.862q0-.3.024-.879T.427-5.41H.388a5.445,5.445,0,0,1-.435.781L-1.355-2.651Zm8.028-.918A4.976,4.976,0,0,1,7.778-.8,2.126,2.126,0,0,1,5.891.1,2.1,2.1,0,0,1,4.028-.83,4.905,4.905,0,0,1,3.4-3.569a5.023,5.023,0,0,1,.61-2.786,2.117,2.117,0,0,1,1.88-.9,2.107,2.107,0,0,1,1.868.938A4.915,4.915,0,0,1,8.391-3.569Zm-3.491,0a5.554,5.554,0,0,0,.227,1.882.786.786,0,0,0,.764.569.794.794,0,0,0,.762-.576,5.4,5.4,0,0,0,.234-1.875,5.384,5.384,0,0,0-.237-1.887.8.8,0,0,0-.759-.574.788.788,0,0,0-.762.574A5.544,5.544,0,0,0,4.9-3.569Z" transform="translate(495 318)" fill="#6a737f"/><path d="M8,0A8,8,0,1,1,0,8,8,8,0,0,1,8,0Z" transform="translate(488 288)" fill="#00ad50"/><path d="M8,0A8,8,0,1,1,0,8,8,8,0,0,1,8,0Z" transform="translate(488 248)" fill="#00ad50"/><path d="M8,0A8,8,0,1,1,0,8,8,8,0,0,1,8,0Z" transform="translate(488 268)" fill="#00ad50"/><path d="M8,0A8,8,0,1,1,0,8,8,8,0,0,1,8,0Z" transform="translate(488 228)" fill="#00ad50"/></g></g></g></svg>