<svg xmlns="http://www.w3.org/2000/svg" width="247.207" height="145.945" viewBox="0 0 247.207 145.945"><g transform="translate(-17.461 -51.6)"><rect width="247.207" height="145.945" rx="5" transform="translate(17.461 51.6)" fill="#fff"/><g transform="translate(-0.295)"><g transform="translate(0 -6)"><g transform="translate(-323.244 -135.4)"><path d="M8,0A8,8,0,1,1,0,8,8,8,0,0,1,8,0Z" transform="translate(362 288)" fill="#1ab395"/><path d="M8,0A8,8,0,1,1,0,8,8,8,0,0,1,8,0Z" transform="translate(362 268)" fill="#1ab395"/></g><g transform="translate(-270.926 -113.473)"><g transform="translate(305.682 291.91)"><path d="M3.5,0,7,6H0Z" transform="translate(0 9.162) rotate(-90)" fill="#212e3a"/><path d="M3.5,0,7,6H0Z" transform="translate(211 2.162) rotate(90)" fill="#212e3a"/><line y2="5.724" transform="translate(23.414 2.29)" fill="none" stroke="#6a737f" stroke-linecap="round" stroke-width="2"/><line y2="5.724" transform="translate(66.347 2.29)" fill="none" stroke="#6a737f" stroke-linecap="round" stroke-width="2"/><line y2="5.724" transform="translate(109.851 2.29)" fill="none" stroke="#6a737f" stroke-linecap="round" stroke-width="2"/><line y2="5.724" transform="translate(153.356 2.29)" fill="none" stroke="#6a737f" stroke-linecap="round" stroke-width="2"/><line y2="5.724" transform="translate(196.86 2.29)" fill="none" stroke="#6a737f" stroke-linecap="round" stroke-width="2"/><line y2="5.724" transform="translate(32 2.29)" fill="none" stroke="#6a737f" stroke-linecap="round" stroke-width="2"/><line y2="5.724" transform="translate(74.932 2.29)" fill="none" stroke="#6a737f" stroke-linecap="round" stroke-width="2"/><line y2="5.724" transform="translate(118.437 2.29)" fill="none" stroke="#6a737f" stroke-linecap="round" stroke-width="2"/><line y2="5.724" transform="translate(161.942 2.29)" fill="none" stroke="#6a737f" stroke-linecap="round" stroke-width="2"/><line y2="5.724" transform="translate(41.16 2.29)" fill="none" stroke="#6a737f" stroke-linecap="round" stroke-width="2"/><line y2="5.724" transform="translate(84.092 2.29)" fill="none" stroke="#6a737f" stroke-linecap="round" stroke-width="2"/><line y2="5.724" transform="translate(127.596 2.29)" fill="none" stroke="#6a737f" stroke-linecap="round" stroke-width="2"/><line y2="5.724" transform="translate(171.101 2.29)" fill="none" stroke="#6a737f" stroke-linecap="round" stroke-width="2"/><line y2="5.724" transform="translate(49.745 2.29)" fill="none" stroke="#6a737f" stroke-linecap="round" stroke-width="2"/><line y2="5.724" transform="translate(92.677 2.29)" fill="none" stroke="#6a737f" stroke-linecap="round" stroke-width="2"/><line y2="5.724" transform="translate(136.182 2.29)" fill="none" stroke="#6a737f" stroke-linecap="round" stroke-width="2"/><line y2="5.724" transform="translate(179.687 2.29)" fill="none" stroke="#6a737f" stroke-linecap="round" stroke-width="2"/><line y2="10.304" transform="translate(14.828)" fill="none" stroke="#6a737f" stroke-linecap="round" stroke-width="2"/><line y2="10.304" transform="translate(188.274)" fill="none" stroke="#6a737f" stroke-linecap="round" stroke-width="2"/><line y2="10.304" transform="translate(144.769)" fill="none" stroke="#6a737f" stroke-linecap="round" stroke-width="2"/><line y2="10.304" transform="translate(101.264)" fill="none" stroke="#6a737f" stroke-linecap="round" stroke-width="2"/><line y2="10.304" transform="translate(57.759)" fill="none" stroke="#6a737f" stroke-linecap="round" stroke-width="2"/></g></g></g><g transform="translate(4 -6)"><g transform="translate(-306.244 -135.4)"><path d="M8,0A8,8,0,1,1,0,8,8,8,0,0,1,8,0Z" transform="translate(404 288)" fill="#1ab395"/><path d="M8,0A8,8,0,1,1,0,8,8,8,0,0,1,8,0Z" transform="translate(404 268)" fill="#1ab395"/></g></g><g transform="translate(17 -6)"><g transform="translate(-297.244 -135.4)"><path d="M8,0A8,8,0,1,1,0,8,8,8,0,0,1,8,0Z" transform="translate(446 288)" fill="#1ab395"/><path d="M8,0A8,8,0,1,1,0,8,8,8,0,0,1,8,0Z" transform="translate(446 248)" fill="#1ab395"/><path d="M8,0A8,8,0,1,1,0,8,8,8,0,0,1,8,0Z" transform="translate(446 268)" fill="#1ab395"/><path d="M8,0A8,8,0,1,1,0,8,8,8,0,0,1,8,0Z" transform="translate(446 228)" fill="#1ab395"/></g></g><g transform="translate(0 -6)"><g transform="translate(-261.244 -135.4)"><path d="M8,0A8,8,0,1,1,0,8,8,8,0,0,1,8,0Z" transform="translate(488 288)" fill="#1ab395"/><path d="M8,0A8,8,0,1,1,0,8,8,8,0,0,1,8,0Z" transform="translate(488 248)" fill="#1ab395"/><path d="M8,0A8,8,0,1,1,0,8,8,8,0,0,1,8,0Z" transform="translate(488 268)" fill="#1ab395"/><path d="M8,0A8,8,0,1,1,0,8,8,8,0,0,1,8,0Z" transform="translate(488 228)" fill="#1ab395"/></g></g></g></g></svg>