<svg xmlns="http://www.w3.org/2000/svg" width="288.489" height="138.971" viewBox="0 0 288.489 138.971"><g transform="translate(4612 19829)"><g transform="translate(-4612 -19829)" fill="#fff"><path d="M 283.4887084960938 138.4700012207031 L 4.999997138977051 138.4700012207031 C 2.518675565719604 138.4700012207031 0.4999971091747284 136.4513244628906 0.4999971091747284 133.9700012207031 L 0.4999971091747284 5.000000476837158 C 0.4999971091747284 2.518679141998291 2.518675565719604 0.5000005960464478 4.999997138977051 0.5000005960464478 L 283.4887084960938 0.5000005960464478 C 285.9700317382813 0.5000005960464478 287.9887084960938 2.518679141998291 287.9887084960938 5.000000476837158 L 287.9887084960938 133.9700012207031 C 287.9887084960938 136.4513244628906 285.9700317382813 138.4700012207031 283.4887084960938 138.4700012207031 Z" stroke="none"/><path d="M 5 1 C 2.794403076171875 1 1 2.794387817382813 1 5 L 1 133.9700012207031 C 1 136.1756134033203 2.794403076171875 137.9700012207031 5 137.9700012207031 L 283.4887084960938 137.9700012207031 C 285.6943054199219 137.9700012207031 287.4887084960938 136.1756134033203 287.4887084960938 133.9700012207031 L 287.4887084960938 5 C 287.4887084960938 2.794387817382813 285.6943054199219 1 283.4887084960938 1 L 5 1 M 5 0 L 283.4887084960938 0 C 286.2500915527344 0 288.4887084960938 2.238571166992188 288.4887084960938 5 L 288.4887084960938 133.9700012207031 C 288.4887084960938 136.7314300537109 286.2500915527344 138.9700012207031 283.4887084960938 138.9700012207031 L 5 138.9700012207031 C 2.238555908203125 138.9700012207031 0 136.7314300537109 0 133.9700012207031 L 0 5 C 0 2.238571166992188 2.238555908203125 0 5 0 Z" stroke="none" fill="#dbdbdb"/></g><path d="M8,0A8,8,0,1,1,0,8,8,8,0,0,1,8,0Z" transform="translate(-4579.682 -19728)" fill="#00ad50"/><path d="M8,0A8,8,0,1,1,0,8,8,8,0,0,1,8,0Z" transform="translate(-4579.682 -19748)" fill="#00ad50"/><path d="M8,0A8,8,0,1,1,0,8,8,8,0,0,1,8,0Z" transform="translate(-4528.682 -19728)" fill="#00ad50"/><path d="M8,0A8,8,0,1,1,0,8,8,8,0,0,1,8,0Z" transform="translate(-4528.682 -19748)" fill="#00ad50"/><path d="M8,0A8,8,0,1,1,0,8,8,8,0,0,1,8,0Z" transform="translate(-4371.682 -19728)" fill="#00ad50"/><path d="M8,0A8,8,0,1,1,0,8,8,8,0,0,1,8,0Z" transform="translate(-4371.682 -19748)" fill="#00ad50"/><path d="M8,0A8,8,0,1,1,0,8,8,8,0,0,1,8,0Z" transform="translate(-4476.682 -19728)" fill="#00ad50"/><path d="M8,0A8,8,0,1,1,0,8,8,8,0,0,1,8,0Z" transform="translate(-4476.682 -19768)" fill="#00ad50"/><path d="M8,0A8,8,0,1,1,0,8,8,8,0,0,1,8,0Z" transform="translate(-4476.682 -19748)" fill="#00ad50"/><path d="M8,0A8,8,0,1,1,0,8,8,8,0,0,1,8,0Z" transform="translate(-4476.682 -19788)" fill="#00ad50"/><path d="M8,0A8,8,0,1,1,0,8,8,8,0,0,1,8,0Z" transform="translate(-4424.682 -19728)" fill="#00ad50"/><path d="M8,0A8,8,0,1,1,0,8,8,8,0,0,1,8,0Z" transform="translate(-4424.682 -19768)" fill="#00ad50"/><path d="M8,0A8,8,0,1,1,0,8,8,8,0,0,1,8,0Z" transform="translate(-4424.682 -19748)" fill="#00ad50"/><path d="M8,0A8,8,0,1,1,0,8,8,8,0,0,1,8,0Z" transform="translate(-4424.682 -19788)" fill="#00ad50"/><path d="M-7.937,0H-9.451V-5.879h-1.938v-1.26H-6v1.26H-7.937ZM1.58-3.579A3.874,3.874,0,0,1,.7-.854,3.258,3.258,0,0,1-1.819.1a3.258,3.258,0,0,1-2.52-.952,3.889,3.889,0,0,1-.879-2.734,3.836,3.836,0,0,1,.881-2.722,3.3,3.3,0,0,1,2.527-.94A3.25,3.25,0,0,1,.708-6.3,3.884,3.884,0,0,1,1.58-3.579Zm-5.21,0a2.982,2.982,0,0,0,.454,1.8,1.589,1.589,0,0,0,1.357.605q1.812,0,1.812-2.407t-1.8-2.412a1.6,1.6,0,0,0-1.362.608A2.969,2.969,0,0,0-3.63-3.579ZM6.082,0,4.363-5.6H4.319q.093,1.709.093,2.28V0H3.059V-7.139H5.12L6.809-1.68h.029L8.63-7.139h2.061V0H9.28V-3.379q0-.239.007-.552t.066-1.66H9.309L7.468,0Z" transform="translate(-4575 -19698)" fill="#6a737f"/><path d="M-12.107-7.139h2.222a4.281,4.281,0,0,1,2.2.432,1.5,1.5,0,0,1,.686,1.375,1.732,1.732,0,0,1-.3,1.05,1.2,1.2,0,0,1-.8.493v.049a1.573,1.573,0,0,1,.979.566,1.843,1.843,0,0,1,.3,1.1A1.818,1.818,0,0,1-7.52-.547,3.052,3.052,0,0,1-9.436,0h-2.671Zm1.514,2.827h.879a1.607,1.607,0,0,0,.891-.19.71.71,0,0,0,.276-.63.63.63,0,0,0-.3-.588A1.93,1.93,0,0,0-9.8-5.9h-.8Zm0,1.2v1.86h.986a1.463,1.463,0,0,0,.923-.239.883.883,0,0,0,.3-.732q0-.889-1.27-.889ZM-1.018,0l-.518-1.7h-2.6L-4.656,0H-6.287l2.52-7.168h1.851L.613,0ZM-1.9-2.969q-.718-2.31-.808-2.612t-.129-.479Q-3-5.435-3.757-2.969Zm4.922-1h.488a1.868,1.868,0,0,0,1.06-.239.854.854,0,0,0,.342-.752.781.781,0,0,0-.349-.723A2.119,2.119,0,0,0,3.484-5.9H3.025Zm0,1.23V0H1.511V-7.139h2.08a3.56,3.56,0,0,1,2.153.53A1.891,1.891,0,0,1,6.443-5,1.894,1.894,0,0,1,6.1-3.879a2.294,2.294,0,0,1-.981.769Q6.726-.7,7.214,0H5.535l-1.7-2.739ZM10.867,0H9.353V-5.879H7.415v-1.26h5.391v1.26H10.867Z" transform="translate(-4523 -19698)" fill="#6a737f"/><path d="M-7.141,0l-.518-1.7h-2.6L-10.779,0H-12.41l2.52-7.168H-8.04L-5.51,0ZM-8.02-2.969q-.718-2.31-.808-2.612t-.129-.479q-.161.625-.923,3.091ZM-4.612,0V-7.139H-3.1V-1.25H-.2V0ZM5.149,0H1.038V-7.139H5.149V-5.9h-2.6v1.567H4.968v1.24H2.551V-1.25h2.6ZM12.41,0H10.681L9.021-2.7,7.361,0H5.74L8.108-3.682,5.891-7.139h1.67L9.1-4.57l1.509-2.568h1.631L10-3.6Z" transform="translate(-4472 -19698)" fill="#6a737f"/><path d="M-9.8-7.139h2.222a4.281,4.281,0,0,1,2.2.432,1.5,1.5,0,0,1,.686,1.375,1.732,1.732,0,0,1-.3,1.05,1.2,1.2,0,0,1-.8.493v.049a1.573,1.573,0,0,1,.979.566,1.843,1.843,0,0,1,.3,1.1A1.818,1.818,0,0,1-5.212-.547,3.052,3.052,0,0,1-7.129,0H-9.8Zm1.514,2.827h.879a1.607,1.607,0,0,0,.891-.19.71.71,0,0,0,.276-.63.63.63,0,0,0-.3-.588A1.93,1.93,0,0,0-7.49-5.9h-.8Zm0,1.2v1.86H-7.3a1.463,1.463,0,0,0,.923-.239.883.883,0,0,0,.3-.732q0-.889-1.27-.889ZM3.4-3.579A3.874,3.874,0,0,1,2.52-.854,3.258,3.258,0,0,1,0,.1,3.258,3.258,0,0,1-2.52-.854,3.889,3.889,0,0,1-3.4-3.589a3.836,3.836,0,0,1,.881-2.722A3.3,3.3,0,0,1,.01-7.251,3.25,3.25,0,0,1,2.527-6.3,3.884,3.884,0,0,1,3.4-3.579Zm-5.21,0a2.982,2.982,0,0,0,.454,1.8A1.589,1.589,0,0,0,0-1.172q1.812,0,1.812-2.407T.01-5.991a1.6,1.6,0,0,0-1.362.608A2.969,2.969,0,0,0-1.812-3.579Zm6.689-3.56H7.1a4.281,4.281,0,0,1,2.2.432A1.5,1.5,0,0,1,9.99-5.332a1.732,1.732,0,0,1-.3,1.05,1.2,1.2,0,0,1-.8.493v.049a1.573,1.573,0,0,1,.979.566,1.843,1.843,0,0,1,.3,1.1A1.818,1.818,0,0,1,9.465-.547,3.052,3.052,0,0,1,7.549,0H4.878ZM6.392-4.312h.879a1.607,1.607,0,0,0,.891-.19.71.71,0,0,0,.276-.63.63.63,0,0,0-.3-.588,1.93,1.93,0,0,0-.95-.178h-.8Zm0,1.2v1.86h.986A1.463,1.463,0,0,0,8.3-1.489a.883.883,0,0,0,.3-.732q0-.889-1.27-.889Z" transform="translate(-4419 -19698)" fill="#6a737f"/><path d="M-10.6-1.982a1.845,1.845,0,0,1-.7,1.523A3.023,3.023,0,0,1-13.23.1a4.547,4.547,0,0,1-2.021-.43V-1.738a8.33,8.33,0,0,0,1.223.454,3.619,3.619,0,0,0,.916.132,1.3,1.3,0,0,0,.764-.19.651.651,0,0,0,.266-.566.625.625,0,0,0-.117-.374,1.311,1.311,0,0,0-.344-.315,8.853,8.853,0,0,0-.925-.483,4.386,4.386,0,0,1-.981-.591,2.218,2.218,0,0,1-.522-.659,1.881,1.881,0,0,1-.2-.879A1.845,1.845,0,0,1-14.526-6.7a2.668,2.668,0,0,1,1.775-.542,4.191,4.191,0,0,1,1.062.132,7.3,7.3,0,0,1,1.057.371l-.488,1.177a7.144,7.144,0,0,0-.945-.327,3.041,3.041,0,0,0-.735-.093.973.973,0,0,0-.659.2.66.66,0,0,0-.229.522.647.647,0,0,0,.093.349,1.02,1.02,0,0,0,.3.288,9.134,9.134,0,0,0,.959.5,3.818,3.818,0,0,1,1.372.959A1.873,1.873,0,0,1-10.6-1.982Zm4.326-4A1.542,1.542,0,0,0-7.6-5.339a2.987,2.987,0,0,0-.469,1.79q0,2.388,1.792,2.388a5.665,5.665,0,0,0,1.821-.376v1.27A5.058,5.058,0,0,1-6.414.1,2.994,2.994,0,0,1-8.8-.847,4,4,0,0,1-9.622-3.56,4.429,4.429,0,0,1-9.216-5.51,2.929,2.929,0,0,1-8.052-6.794a3.445,3.445,0,0,1,1.78-.447,4.8,4.8,0,0,1,2.09.5l-.488,1.23a8.083,8.083,0,0,0-.806-.332A2.4,2.4,0,0,0-6.272-5.981Zm9.819,2.4A3.874,3.874,0,0,1,2.668-.854,3.258,3.258,0,0,1,.149.1a3.258,3.258,0,0,1-2.52-.952A3.889,3.889,0,0,1-3.25-3.589a3.836,3.836,0,0,1,.881-2.722,3.3,3.3,0,0,1,2.527-.94A3.25,3.25,0,0,1,2.676-6.3,3.884,3.884,0,0,1,3.547-3.579Zm-5.21,0a2.982,2.982,0,0,0,.454,1.8,1.589,1.589,0,0,0,1.357.605q1.812,0,1.812-2.407T.159-5.991A1.6,1.6,0,0,0-1.2-5.383,2.969,2.969,0,0,0-1.663-3.579ZM7.781,0H6.267V-5.879H4.329v-1.26H9.719v1.26H7.781Zm5.791,0H12.058V-5.879H10.12v-1.26H15.51v1.26H13.572Z" transform="translate(-4367 -19698)" fill="#6a737f"/></g></svg>