<svg xmlns="http://www.w3.org/2000/svg" width="247.207" height="145.945" viewBox="0 0 247.207 145.945"><g transform="translate(-16.756 -51.6)"><rect width="247.207" height="145.945" rx="5" transform="translate(16.756 51.6)" fill="#fff"/><g transform="translate(0 -6)"><g transform="translate(-323.244 -135.4)"><path d="M8,0A8,8,0,1,1,0,8,8,8,0,0,1,8,0Z" transform="translate(362 288)" fill="#1ab395"/><path d="M8,0A8,8,0,1,1,0,8,8,8,0,0,1,8,0Z" transform="translate(362 268)" fill="#1ab395"/></g><text transform="translate(46.756 185.599)" fill="#212e3a" font-size="10" font-family="OpenSans-Bold, Open Sans" font-weight="700"><tspan x="-11.589" y="0">TOM</tspan></text></g><g transform="translate(4 -6)"><g transform="translate(-306.244 -135.4)"><path d="M8,0A8,8,0,1,1,0,8,8,8,0,0,1,8,0Z" transform="translate(404 288)" fill="#1ab395"/><path d="M8,0A8,8,0,1,1,0,8,8,8,0,0,1,8,0Z" transform="translate(404 268)" fill="#1ab395"/></g><text transform="translate(105.756 185.599)" fill="#212e3a" font-size="10" font-family="OpenSans-Bold, Open Sans" font-weight="700"><tspan x="-13.005" y="0">BART</tspan></text></g><g transform="translate(17 -6)"><g transform="translate(-297.244 -135.4)"><path d="M8,0A8,8,0,1,1,0,8,8,8,0,0,1,8,0Z" transform="translate(446 288)" fill="#1ab395"/><path d="M8,0A8,8,0,1,1,0,8,8,8,0,0,1,8,0Z" transform="translate(446 248)" fill="#1ab395"/><path d="M8,0A8,8,0,1,1,0,8,8,8,0,0,1,8,0Z" transform="translate(446 268)" fill="#1ab395"/><path d="M8,0A8,8,0,1,1,0,8,8,8,0,0,1,8,0Z" transform="translate(446 228)" fill="#1ab395"/></g><text transform="translate(156.756 185.599)" fill="#212e3a" font-size="10" font-family="OpenSans-Bold, Open Sans" font-weight="700"><tspan x="-12.41" y="0">ALEX</tspan></text></g><g transform="translate(0 -6)"><g transform="translate(-261.244 -135.4)"><path d="M8,0A8,8,0,1,1,0,8,8,8,0,0,1,8,0Z" transform="translate(488 288)" fill="#1ab395"/><path d="M8,0A8,8,0,1,1,0,8,8,8,0,0,1,8,0Z" transform="translate(488 248)" fill="#1ab395"/><path d="M8,0A8,8,0,1,1,0,8,8,8,0,0,1,8,0Z" transform="translate(488 268)" fill="#1ab395"/><path d="M8,0A8,8,0,1,1,0,8,8,8,0,0,1,8,0Z" transform="translate(488 228)" fill="#1ab395"/></g><text transform="translate(234.756 185.599)" fill="#212e3a" font-size="10" font-family="OpenSans-Bold, Open Sans" font-weight="700"><tspan x="-10.698" y="0">BOB</tspan></text></g></g></svg>