<svg xmlns="http://www.w3.org/2000/svg" width="288.489" height="138.971" viewBox="0 0 288.489 138.971"><g transform="translate(4265 19829)"><g transform="translate(-4265 -19829)" fill="#fff"><path d="M 283.4887084960938 138.4700012207031 L 4.999997138977051 138.4700012207031 C 2.518675565719604 138.4700012207031 0.4999971091747284 136.4513244628906 0.4999971091747284 133.9700012207031 L 0.4999971091747284 5.000000476837158 C 0.4999971091747284 2.518679141998291 2.518675565719604 0.5000005960464478 4.999997138977051 0.5000005960464478 L 283.4887084960938 0.5000005960464478 C 285.9700317382813 0.5000005960464478 287.9887084960938 2.518679141998291 287.9887084960938 5.000000476837158 L 287.9887084960938 133.9700012207031 C 287.9887084960938 136.4513244628906 285.9700317382813 138.4700012207031 283.4887084960938 138.4700012207031 Z" stroke="none"/><path d="M 5 1 C 2.794403076171875 1 1 2.794387817382813 1 5 L 1 133.9700012207031 C 1 136.1756134033203 2.794403076171875 137.9700012207031 5 137.9700012207031 L 283.4887084960938 137.9700012207031 C 285.6943054199219 137.9700012207031 287.4887084960938 136.1756134033203 287.4887084960938 133.9700012207031 L 287.4887084960938 5 C 287.4887084960938 2.794387817382813 285.6943054199219 1 283.4887084960938 1 L 5 1 M 5 0 L 283.4887084960938 0 C 286.2500915527344 0 288.4887084960938 2.238571166992188 288.4887084960938 5 L 288.4887084960938 133.9700012207031 C 288.4887084960938 136.7314300537109 286.2500915527344 138.9700012207031 283.4887084960938 138.9700012207031 L 5 138.9700012207031 C 2.238555908203125 138.9700012207031 0 136.7314300537109 0 133.9700012207031 L 0 5 C 0 2.238571166992188 2.238555908203125 0 5 0 Z" stroke="none" fill="#dbdbdb"/></g><path d="M8,0A8,8,0,1,1,0,8,8,8,0,0,1,8,0Z" transform="translate(-4237.682 -19748)" fill="#00ad50"/><path d="M8,0A8,8,0,1,1,0,8,8,8,0,0,1,8,0Z" transform="translate(-4237.682 -19768)" fill="#00ad50"/><path d="M8,0A8,8,0,1,1,0,8,8,8,0,0,1,8,0Z" transform="translate(-4184.682 -19748)" fill="#00ad50"/><path d="M8,0A8,8,0,1,1,0,8,8,8,0,0,1,8,0Z" transform="translate(-4184.682 -19768)" fill="#00ad50"/><path d="M5,0l5,8H0Z" transform="translate(-4249 -19712) rotate(-90)" fill="#00ad50"/><path d="M5,0l5,8H0Z" transform="translate(-3984 -19722) rotate(90)" fill="#00ad50"/><path d="M0,0V7.189" transform="translate(-4219.593 -19721.215)" fill="none" stroke="#6a737f" stroke-linecap="round" stroke-width="2"/><path d="M0,0V7.189" transform="translate(-4165.673 -19721.215)" fill="none" stroke="#6a737f" stroke-linecap="round" stroke-width="2"/><path d="M0,0V7.189" transform="translate(-4111.034 -19721.215)" fill="none" stroke="#6a737f" stroke-linecap="round" stroke-width="2"/><path d="M0,0V7.189" transform="translate(-4056.396 -19721.215)" fill="none" stroke="#6a737f" stroke-linecap="round" stroke-width="2"/><path d="M0,0V7.189" transform="translate(-4001.757 -19721.215)" fill="none" stroke="#6a737f" stroke-linecap="round" stroke-width="2"/><path d="M0,0V7.189" transform="translate(-4208.81 -19721.215)" fill="none" stroke="#6a737f" stroke-linecap="round" stroke-width="2"/><path d="M0,0V7.189" transform="translate(-4154.89 -19721.215)" fill="none" stroke="#6a737f" stroke-linecap="round" stroke-width="2"/><path d="M0,0V7.189" transform="translate(-4100.251 -19721.215)" fill="none" stroke="#6a737f" stroke-linecap="round" stroke-width="2"/><path d="M0,0V7.189" transform="translate(-4045.613 -19721.215)" fill="none" stroke="#6a737f" stroke-linecap="round" stroke-width="2"/><path d="M0,0V7.189" transform="translate(-4197.306 -19721.215)" fill="none" stroke="#6a737f" stroke-linecap="round" stroke-width="2"/><path d="M0,0V7.189" transform="translate(-4143.386 -19721.215)" fill="none" stroke="#6a737f" stroke-linecap="round" stroke-width="2"/><path d="M0,0V7.189" transform="translate(-4088.748 -19721.215)" fill="none" stroke="#6a737f" stroke-linecap="round" stroke-width="2"/><path d="M0,0V7.189" transform="translate(-4034.109 -19721.215)" fill="none" stroke="#6a737f" stroke-linecap="round" stroke-width="2"/><path d="M0,0V7.189" transform="translate(-4186.523 -19721.215)" fill="none" stroke="#6a737f" stroke-linecap="round" stroke-width="2"/><path d="M0,0V7.189" transform="translate(-4132.603 -19721.215)" fill="none" stroke="#6a737f" stroke-linecap="round" stroke-width="2"/><path d="M0,0V7.189" transform="translate(-4077.965 -19721.215)" fill="none" stroke="#6a737f" stroke-linecap="round" stroke-width="2"/><path d="M0,0V7.189" transform="translate(-4023.326 -19721.215)" fill="none" stroke="#6a737f" stroke-linecap="round" stroke-width="2"/><path d="M0,0V12.941" transform="translate(-4230.376 -19724.09)" fill="none" stroke="#6a737f" stroke-linecap="round" stroke-width="2"/><path d="M0,0V12.941" transform="translate(-4012.541 -19724.09)" fill="none" stroke="#6a737f" stroke-linecap="round" stroke-width="2"/><path d="M0,0V12.941" transform="translate(-4067.18 -19724.09)" fill="none" stroke="#6a737f" stroke-linecap="round" stroke-width="2"/><path d="M0,0V12.941" transform="translate(-4121.819 -19724.09)" fill="none" stroke="#6a737f" stroke-linecap="round" stroke-width="2"/><path d="M0,0V12.941" transform="translate(-4176.458 -19724.09)" fill="none" stroke="#6a737f" stroke-linecap="round" stroke-width="2"/><path d="M1.277,0H-.232V-4.131l.015-.679.024-.742q-.376.376-.522.493l-.82.659-.728-.908,2.3-1.831h1.24Z" transform="translate(-4230 -19698)" fill="#6a737f"/><path d="M2.537,0h-4.99V-1.05L-.662-2.861q.8-.815,1.04-1.13A2.486,2.486,0,0,0,.73-4.575a1.486,1.486,0,0,0,.107-.557A.811.811,0,0,0,.6-5.771a.918.918,0,0,0-.632-.21,1.818,1.818,0,0,0-.806.19,4.158,4.158,0,0,0-.815.542l-.82-.972A5.352,5.352,0,0,1-1.6-6.855a3.208,3.208,0,0,1,.757-.286,3.878,3.878,0,0,1,.918-.1A2.718,2.718,0,0,1,1.257-7a1.885,1.885,0,0,1,.8.684,1.816,1.816,0,0,1,.283,1.006,2.462,2.462,0,0,1-.173.925,3.553,3.553,0,0,1-.537.886A13.131,13.131,0,0,1,.344-2.2l-.918.864v.068h3.11Z" transform="translate(-4176 -19698)" fill="#6a737f"/><path d="M2.258-5.542A1.68,1.68,0,0,1,1.853-4.4,2.1,2.1,0,0,1,.715-3.76v.029a2.274,2.274,0,0,1,1.309.525A1.47,1.47,0,0,1,2.468-2.08a1.907,1.907,0,0,1-.747,1.6A3.444,3.444,0,0,1-.413.1,5.181,5.181,0,0,1-2.473-.288V-1.572a4.657,4.657,0,0,0,.913.342A3.842,3.842,0,0,0-.574-1.1a1.918,1.918,0,0,0,1.1-.254.932.932,0,0,0,.356-.815.736.736,0,0,0-.41-.713,3.034,3.034,0,0,0-1.309-.21h-.542V-4.248h.552A2.566,2.566,0,0,0,.391-4.465.785.785,0,0,0,.774-5.21q0-.811-1.016-.811A2.324,2.324,0,0,0-.957-5.9a3.494,3.494,0,0,0-.808.405l-.7-1.04a3.88,3.88,0,0,1,2.329-.7,3.007,3.007,0,0,1,1.75.449A1.441,1.441,0,0,1,2.258-5.542Z" transform="translate(-4122 -19698)" fill="#6a737f"/><path d="M2.7-1.479H1.838V0H.364V-1.479H-2.683v-1.05L.447-7.139H1.838v4.487H2.7ZM.364-2.651V-3.862q0-.3.024-.879T.427-5.41H.388a5.445,5.445,0,0,1-.435.781L-1.355-2.651Z" transform="translate(-4067 -19698)" fill="#6a737f"/><path d="M.144-4.561a2.3,2.3,0,0,1,1.648.581A2.089,2.089,0,0,1,2.4-2.388,2.314,2.314,0,0,1,1.667-.547,3.108,3.108,0,0,1-.442.1,4.131,4.131,0,0,1-2.366-.288v-1.3a3.993,3.993,0,0,0,.9.334A3.975,3.975,0,0,0-.5-1.128q1.382,0,1.382-1.133Q.886-3.34-.544-3.34a3.552,3.552,0,0,0-.571.051,4.18,4.18,0,0,0-.508.11l-.6-.322.269-3.638H1.917v1.279H-.632l-.132,1.4.171-.034A3.361,3.361,0,0,1,.144-4.561Z" transform="translate(-4013 -19698)" fill="#6a737f"/><path d="M8,0A8,8,0,1,1,0,8,8,8,0,0,1,8,0Z" transform="translate(-4129.682 -19748)" fill="#00ad50"/><path d="M8,0A8,8,0,1,1,0,8,8,8,0,0,1,8,0Z" transform="translate(-4129.682 -19788)" fill="#00ad50"/><path d="M8,0A8,8,0,1,1,0,8,8,8,0,0,1,8,0Z" transform="translate(-4129.682 -19768)" fill="#00ad50"/><path d="M8,0A8,8,0,1,1,0,8,8,8,0,0,1,8,0Z" transform="translate(-4129.682 -19808)" fill="#00ad50"/><path d="M8,0A8,8,0,1,1,0,8,8,8,0,0,1,8,0Z" transform="translate(-4074.682 -19748)" fill="#00ad50"/><path d="M8,0A8,8,0,1,1,0,8,8,8,0,0,1,8,0Z" transform="translate(-4074.682 -19788)" fill="#00ad50"/><path d="M8,0A8,8,0,1,1,0,8,8,8,0,0,1,8,0Z" transform="translate(-4074.682 -19768)" fill="#00ad50"/><path d="M8,0A8,8,0,1,1,0,8,8,8,0,0,1,8,0Z" transform="translate(-4074.682 -19808)" fill="#00ad50"/><path d="M8,0A8,8,0,1,1,0,8,8,8,0,0,1,8,0Z" transform="translate(-4020.682 -19748)" fill="#00ad50"/><path d="M8,0A8,8,0,1,1,0,8,8,8,0,0,1,8,0Z" transform="translate(-4020.682 -19768)" fill="#00ad50"/></g></svg>