
<svg width="200px" height="119px" viewBox="0 0 200 119" version="1.1" xmlns="http://www.w3.org/2000/svg" xmlns:xlink="http://www.w3.org/1999/xlink">
    <g id="Page-1" stroke="none" stroke-width="1" fill="none" fill-rule="evenodd">
        <g id="histogram" transform="translate(0.486994, 0.447000)" fill-rule="nonzero">
            <path d="M4.02400622,0 L194.949006,0 C197.175429,0.00441415111 198.976876,1.81257629 198.973012,4.039 L198.973012,113.869 C198.976876,116.095424 197.175429,117.903586 194.949006,117.908 L4.02400622,117.908 C1.79758353,117.903586 -0.00386347783,116.095424 0,113.869 L0,4.039 C-0.00386347783,1.81257629 1.79758353,0.00441415111 4.02400622,0 Z" id="Path" fill="#FFFFFF"></path>
            <g id="Group" transform="translate(14.488006, 22.669000)">
                <polygon id="Path" fill="#81F6A4" points="0 34.74 42.5 34.74 42.5 71.095 0 71.095"></polygon>
                <path d="M16.07,82.405 L14.855,82.405 L14.855,79.068 L14.867,78.52 L14.887,77.92 C14.687,78.12 14.5466667,78.2533333 14.466,78.32 L13.806,78.853 L13.22,78.119 L15.071,76.638 L16.071,76.638 L16.07,82.405 Z M17.729,80.732 L17.729,79.746 L19.839,79.746 L19.839,80.732 L17.729,80.732 Z M23.553,82.405 L22.338,82.405 L22.338,79.068 L22.35,78.52 L22.37,77.92 C22.17,78.12 22.0296667,78.2533333 21.949,78.32 L21.289,78.853 L20.703,78.119 L22.555,76.638 L23.555,76.638 L23.553,82.405 Z M29.279,79.521 C29.3343932,80.2986477 29.1631479,81.0756776 28.786,81.758 C28.442254,82.2499141 27.8656818,82.5254845 27.267,82.484 C26.6694757,82.5172165 26.0989414,82.2319494 25.767,81.734 C25.3871488,81.0610975 25.2116593,80.292071 25.262,79.521 C25.2055024,78.7390413 25.3759978,77.9574015 25.753,77.27 C26.0948854,76.779347 26.6694291,76.5044166 27.266,76.546 C27.8647277,76.5151229 28.4351821,76.8030122 28.766,77.303 C29.1491475,77.976678 29.327431,78.7475025 29.279,79.521 L29.279,79.521 Z M26.469,79.521 C26.4426163,80.034733 26.5045131,80.5491864 26.652,81.042 C26.7299434,81.3163844 26.981773,81.5047447 27.267,81.5020296 C27.5520045,81.5002649 27.8015182,81.3102757 27.879,81.036 C28.0305859,80.5460278 28.0948971,80.0332308 28.069,79.521 C28.0961163,79.006096 28.0317887,78.4904601 27.879,77.998 C27.8008843,77.7248705 27.5520741,77.5359213 27.268,77.5339983 C26.9826154,77.5333451 26.7318511,77.7231569 26.655,77.998 C26.5062722,78.4912758 26.4433579,79.0064289 26.469,79.521 L26.469,79.521 Z" id="Shape" fill="#212E3A"></path>
                <polygon id="Path" fill="#81F6C7" points="42.659 0 85.159 0 85.159 71.095 42.659 71.095"></polygon>
                <path d="M55.972,82.405 L54.758,82.405 L54.758,79.068 L54.77,78.52 L54.79,77.92 C54.59,78.12 54.4496667,78.2533333 54.369,78.32 L53.709,78.853 L53.123,78.119 L54.974,76.64 L55.974,76.64 L55.972,82.405 Z M60.716,82.405 L59.501,82.405 L59.501,79.068 L59.513,78.52 L59.533,77.92 C59.333,78.12 59.1926667,78.2533333 59.112,78.32 L58.452,78.853 L57.866,78.119 L59.717,76.638 L60.717,76.638 L60.716,82.405 Z M62.375,80.732 L62.375,79.746 L64.485,79.746 L64.485,80.732 L62.375,80.732 Z M69.213,82.405 L65.196,82.405 L65.196,81.557 L66.639,80.098 C67.0663333,79.6586667 67.3453333,79.3543333 67.476,79.185 C67.5914496,79.0416952 67.6866725,78.8832147 67.759,78.714 C67.8163004,78.570915 67.8454991,78.4181311 67.845,78.264 C67.8601898,78.0720014 67.790368,77.8830072 67.654,77.747 C67.5117259,77.6283815 67.3300015,77.5676877 67.145,77.577 C66.9200154,77.5776842 66.698237,77.6303907 66.497,77.731 C66.261829,77.850625 66.0416327,77.9976463 65.841,78.169 L65.181,77.384 C65.3964705,77.1898733 65.6309935,77.0180015 65.881,76.871 C66.0734084,76.7685426 66.2780438,76.6909223 66.49,76.64 C66.7317203,76.5822822 66.9794875,76.5537453 67.228,76.555 C67.5560073,76.5492955 67.8810759,76.6176591 68.179,76.755 C68.4406242,76.8745931 68.6629115,77.0660168 68.82,77.307 C68.9738163,77.549896 69.0530823,77.8325421 69.048,78.12 C69.0496355,78.3759955 69.0021087,78.6299246 68.908,78.868 C68.7997031,79.1264647 68.6541607,79.3676878 68.476,79.584 C68.1577763,79.9546276 67.8142894,80.3027923 67.448,80.626 L66.709,81.326 L66.709,81.381 L69.209,81.381 L69.213,82.405 Z M73.928,79.521 C73.9812631,80.2993362 73.8075767,81.0764094 73.428,81.758 C73.084254,82.2499141 72.5076818,82.5254845 71.909,82.484 C71.3114757,82.5172165 70.7409414,82.2319494 70.409,81.734 C70.0291488,81.0610975 69.8536593,80.292071 69.904,79.521 C69.8475024,78.7390413 70.0179978,77.9574015 70.395,77.27 C70.7368854,76.779347 71.3114291,76.5044166 71.908,76.546 C72.5067277,76.5151229 73.0771821,76.8030122 73.408,77.303 C73.7935828,77.9759372 73.9743098,78.7468076 73.928,79.521 Z M71.118,79.521 C71.0906444,80.0345608 71.151526,80.5490107 71.298,81.042 C71.3759434,81.3163844 71.627773,81.5047447 71.913,81.5020296 C72.1991184,81.5016008 72.4502118,81.3113414 72.528,81.036 C72.6792479,80.5459677 72.7432205,80.0331719 72.717,79.521 C72.7444396,79.0061554 72.6804508,78.4905207 72.528,77.998 C72.4498843,77.7248705 72.2010741,77.5359213 71.917,77.5339983 C71.6316154,77.5333451 71.3808511,77.7231569 71.304,77.998 C71.1542587,78.4910996 71.0903292,79.0062563 71.115,79.521 L71.118,79.521 Z" id="Shape" fill="#212E3A"></path>
                <polygon id="Path" fill="#81CEF6" points="84.997 27.468 127.497 27.468 127.497 71.094 84.997 71.094"></polygon>
                <path d="M99.794,82.405 L95.777,82.405 L95.777,81.557 L97.22,80.098 C97.6473333,79.6586667 97.9263333,79.3543333 98.057,79.185 C98.1724496,79.0416952 98.2676725,78.8832147 98.34,78.714 C98.3973004,78.570915 98.4264991,78.4181311 98.426,78.264 C98.4411898,78.0720014 98.371368,77.8830072 98.235,77.747 C98.0927259,77.6283815 97.9110015,77.5676877 97.726,77.577 C97.5010154,77.5776842 97.279237,77.6303907 97.078,77.731 C96.8428243,77.8506169 96.622627,77.9976389 96.422,78.169 L95.762,77.384 C95.9774705,77.1898733 96.2119935,77.0180015 96.462,76.871 C96.6544084,76.7685426 96.8590438,76.6909223 97.071,76.64 C97.3132085,76.583549 97.5613141,76.5563548 97.81,76.559 C98.1380073,76.5532955 98.4630759,76.6216591 98.761,76.759 C99.0226242,76.8785931 99.2449115,77.0700168 99.402,77.311 C99.5558163,77.553896 99.6350823,77.8365421 99.63,78.124 C99.6316355,78.3799955 99.5841087,78.6339246 99.49,78.872 C99.3817031,79.1304647 99.2361607,79.3716878 99.058,79.588 C98.7385982,79.9597964 98.3937691,80.3089692 98.026,80.633 L97.287,81.333 L97.287,81.388 L99.787,81.388 L99.794,82.405 Z M103.524,82.405 L102.309,82.405 L102.309,79.068 L102.321,78.52 L102.341,77.92 C102.141,78.12 102.000667,78.2533333 101.92,78.32 L101.26,78.853 L100.677,78.117 L102.525,76.638 L103.525,76.638 L103.524,82.405 Z M105.183,80.732 L105.183,79.746 L107.293,79.746 L107.293,80.732 L105.183,80.732 Z M111.797,77.928 C111.805663,78.2640983 111.689526,78.5914932 111.471,78.847 C111.229044,79.1139118 110.908083,79.296467 110.555,79.368 L110.555,79.392 C110.942132,79.4178711 111.310961,79.5663832 111.608,79.816 C111.851943,80.0537895 111.982279,80.3847249 111.966,80.725 C111.991324,81.2305137 111.767113,81.7163033 111.366,82.025 C110.859252,82.3632829 110.254928,82.5246469 109.647,82.484 C109.078817,82.4944208 108.514531,82.3882343 107.989,82.172 L107.989,81.135 C108.223638,81.252532 108.469995,81.3450416 108.724,81.411 C108.982884,81.4810618 109.249805,81.5170323 109.518,81.518 C109.827908,81.5408855 110.137485,81.4694179 110.406,81.313 C110.606952,81.1560004 110.714929,80.908066 110.693,80.654 C110.708906,80.4130931 110.578869,80.1861196 110.363,80.078 C110.028577,79.9440297 109.668585,79.8859665 109.309,79.908 L108.877,79.908 L108.877,78.973 L109.317,78.973 C109.652065,78.9952083 109.987476,78.9351294 110.294,78.798 C110.503554,78.67382 110.623605,78.4407118 110.603,78.198 C110.603,77.7613333 110.330667,77.543 109.786,77.543 C109.590202,77.5442175 109.395819,77.5762773 109.21,77.638 C108.980068,77.7183482 108.761568,77.8282708 108.56,77.965 L107.998,77.125 C108.545644,76.7389356 109.203177,76.5397469 109.873,76.557 C110.366932,76.5306499 110.857037,76.656667 111.277,76.918 C111.613854,77.1416213 111.810675,77.5239083 111.797,77.928 Z M116.733,79.521 C116.788393,80.2986477 116.617148,81.0756776 116.24,81.758 C115.896254,82.2499141 115.319682,82.5254845 114.721,82.484 C114.123476,82.5172165 113.552941,82.2319494 113.221,81.734 C112.841496,81.0609921 112.666356,80.291972 112.717,79.521 C112.660502,78.7390413 112.830998,77.9574015 113.208,77.27 C113.549885,76.779347 114.124429,76.5044166 114.721,76.546 C115.319728,76.5151229 115.890182,76.8030122 116.221,77.303 C116.6038,77.9767836 116.781734,78.7476017 116.733,79.521 Z M113.923,79.521 C113.896616,80.034733 113.958513,80.5491864 114.106,81.042 C114.183943,81.3163844 114.435773,81.5047447 114.721,81.5020296 C115.006096,81.5008369 115.256046,81.3112339 115.334,81.037 C115.485248,80.5469677 115.54922,80.0341719 115.523,79.522 C115.549912,79.0067038 115.485244,78.4907175 115.332,77.998 C115.253884,77.7248705 115.005074,77.5359213 114.721,77.5339983 C114.435615,77.5333451 114.184851,77.7231569 114.108,77.998 C113.95961,78.4913345 113.897034,79.0064864 113.923,79.521 L113.923,79.521 Z" id="Shape" fill="#212E3A"></path>
                <polygon id="Path" fill="#F6EE81" points="127.497 34.74 169.997 34.74 169.997 71.095 127.497 71.095"></polygon>
                <path d="M142.068,77.928 C142.076663,78.2640983 141.960526,78.5914932 141.742,78.847 C141.500044,79.1139118 141.179083,79.296467 140.826,79.368 L140.826,79.392 C141.211624,79.41842 141.578917,79.5665277 141.875,79.815 C142.118943,80.0527895 142.249279,80.3837249 142.233,80.724 C142.258324,81.2295137 142.034113,81.7153033 141.633,82.024 C141.12742,82.3636155 140.523823,82.5267309 139.916,82.488 C139.347482,82.498558 138.782841,82.3923689 138.257,82.176 L138.257,81.135 C138.491638,81.252532 138.737995,81.3450416 138.992,81.411 C139.250884,81.4810618 139.517805,81.5170323 139.786,81.518 C140.095908,81.5408855 140.405485,81.4694179 140.674,81.313 C140.874952,81.1560004 140.982929,80.908066 140.961,80.654 C140.976906,80.4130931 140.846869,80.1861196 140.631,80.078 C140.296886,79.9441763 139.937252,79.8861157 139.578,79.908 L139.142,79.908 L139.142,78.973 L139.586,78.973 C139.92173,78.9955381 140.257868,78.9354521 140.565,78.798 C140.774554,78.67382 140.894605,78.4407118 140.874,78.198 C140.874,77.7613333 140.601667,77.543 140.057,77.543 C139.861202,77.5442175 139.666819,77.5762773 139.481,77.638 C139.251068,77.7183482 139.032568,77.8282708 138.831,77.965 L138.269,77.125 C138.816644,76.7389356 139.474177,76.5397469 140.144,76.557 C140.639822,76.5302087 141.131845,76.6569682 141.553,76.92 C141.887333,77.144419 142.082071,77.5255772 142.068,77.928 Z M146.022,82.405 L144.807,82.405 L144.807,79.068 L144.819,78.52 L144.839,77.92 C144.639,78.12 144.498667,78.2533333 144.418,78.32 L143.758,78.853 L143.175,78.117 L145.023,76.638 L146.023,76.638 L146.022,82.405 Z M147.681,80.732 L147.681,79.746 L149.791,79.746 L149.791,80.732 L147.681,80.732 Z M154.649,81.209 L153.957,81.209 L153.957,82.409 L152.77,82.409 L152.77,81.209 L150.318,81.209 L150.318,80.361 L152.837,76.638 L153.957,76.638 L153.957,80.263 L154.649,80.263 L154.649,81.209 Z M152.77,80.263 L152.77,79.285 C152.77,79.1216667 152.776667,78.885 152.79,78.575 C152.803333,78.265 152.813667,78.085 152.821,78.035 L152.79,78.035 C152.690806,78.254561 152.573746,78.4656038 152.44,78.666 L151.387,80.263 L152.77,80.263 Z M159.231,79.521 C159.286393,80.2986477 159.115148,81.0756776 158.738,81.758 C158.394254,82.2499141 157.817682,82.5254845 157.219,82.484 C156.621476,82.5172165 156.050941,82.2319494 155.719,81.734 C155.339496,81.0609921 155.164356,80.291972 155.215,79.521 C155.158502,78.7390413 155.328998,77.9574015 155.706,77.27 C156.047885,76.779347 156.622429,76.5044166 157.219,76.546 C157.817728,76.5151229 158.388182,76.8030122 158.719,77.303 C159.1018,77.9767836 159.279734,78.7476017 159.231,79.521 Z M156.421,79.521 C156.394616,80.034733 156.456513,80.5491864 156.604,81.042 C156.681943,81.3163844 156.933773,81.5047447 157.219,81.5020296 C157.504096,81.5008369 157.754046,81.3112339 157.832,81.037 C157.983248,80.5469677 158.04722,80.0341719 158.021,79.522 C158.047912,79.0067038 157.983244,78.4907175 157.83,77.998 C157.751884,77.7248705 157.503074,77.5359213 157.219,77.5339983 C156.933615,77.5333451 156.682851,77.7231569 156.606,77.998 C156.45761,78.4913345 156.395034,79.0064864 156.421,79.521 L156.421,79.521 Z" id="Shape" fill="#212E3A"></path>
            </g>
        </g>
    </g>
</svg>