<svg xmlns="http://www.w3.org/2000/svg" width="247.207" height="145.945" viewBox="0 0 247.207 145.945"><g transform="translate(-16.756 -52.54)"><rect width="247.207" height="145.945" rx="5" transform="translate(16.756 52.54)" fill="#fff"/><g transform="translate(-304.244 -135.4)"><path d="M0,0H40V45H0Z" transform="translate(339 259)" fill="#81f6a4"/><path d="M-6.319,0H-7.827V-4.131l.015-.679.024-.742q-.376.376-.522.493l-.82.659-.728-.908,2.3-1.831h1.24Zm2.061-2.07V-3.291h2.622V-2.07ZM2.979,0H1.47V-4.131l.015-.679.024-.742q-.376.376-.522.493L.166-4.4l-.728-.908,2.3-1.831h1.24Zm7.114-3.569A4.976,4.976,0,0,1,9.48-.8,2.126,2.126,0,0,1,7.593.1,2.1,2.1,0,0,1,5.73-.83,4.905,4.905,0,0,1,5.1-3.569a5.023,5.023,0,0,1,.61-2.786,2.117,2.117,0,0,1,1.88-.9,2.107,2.107,0,0,1,1.868.938A4.915,4.915,0,0,1,10.093-3.569Zm-3.491,0a5.554,5.554,0,0,0,.227,1.882.786.786,0,0,0,.764.569.794.794,0,0,0,.762-.576,5.4,5.4,0,0,0,.234-1.875,5.384,5.384,0,0,0-.237-1.887.8.8,0,0,0-.759-.574.788.788,0,0,0-.762.574A5.544,5.544,0,0,0,6.6-3.569Z" transform="translate(359 318)" fill="#212e3a"/><g transform="translate(-1)"><path d="M0,0H40V88H0Z" transform="translate(397 216)" fill="#81f6c7"/><path d="M-9.265,0h-1.509V-4.131l.015-.679.024-.742q-.376.376-.522.493l-.82.659-.728-.908,2.3-1.831h1.24Zm5.894,0H-4.881V-4.131l.015-.679.024-.742q-.376.376-.522.493l-.82.659-.728-.908,2.3-1.831h1.24Zm2.061-2.07V-3.291H1.311V-2.07ZM7.185,0H2.195V-1.05L3.987-2.861q.8-.815,1.04-1.13a2.486,2.486,0,0,0,.352-.583,1.486,1.486,0,0,0,.107-.557.811.811,0,0,0-.237-.64.918.918,0,0,0-.632-.21,1.818,1.818,0,0,0-.806.19A4.158,4.158,0,0,0,3-5.249l-.82-.972a5.352,5.352,0,0,1,.874-.635,3.208,3.208,0,0,1,.757-.286,3.878,3.878,0,0,1,.918-.1A2.718,2.718,0,0,1,5.906-7a1.885,1.885,0,0,1,.8.684,1.816,1.816,0,0,1,.283,1.006,2.462,2.462,0,0,1-.173.925,3.553,3.553,0,0,1-.537.886A13.131,13.131,0,0,1,4.993-2.2l-.918.864v.068h3.11ZM13.04-3.569A4.976,4.976,0,0,1,12.427-.8,2.126,2.126,0,0,1,10.54.1,2.1,2.1,0,0,1,8.677-.83,4.905,4.905,0,0,1,8.05-3.569a5.023,5.023,0,0,1,.61-2.786,2.117,2.117,0,0,1,1.88-.9,2.107,2.107,0,0,1,1.868.938A4.915,4.915,0,0,1,13.04-3.569Zm-3.491,0a5.554,5.554,0,0,0,.227,1.882.786.786,0,0,0,.764.569.794.794,0,0,0,.762-.576,5.4,5.4,0,0,0,.234-1.875A5.384,5.384,0,0,0,11.3-5.457a.8.8,0,0,0-.759-.574.788.788,0,0,0-.762.574A5.544,5.544,0,0,0,9.549-3.569Z" transform="translate(416.806 318)" fill="#212e3a"/></g><g transform="translate(-2)"><path d="M0,0H40V54H0Z" transform="translate(455 250)" fill="#81cef6"/><path d="M-8.006,0H-13V-1.05L-11.2-2.861q.8-.815,1.04-1.13a2.486,2.486,0,0,0,.352-.583A1.486,1.486,0,0,0-9.7-5.132a.811.811,0,0,0-.237-.64.918.918,0,0,0-.632-.21,1.818,1.818,0,0,0-.806.19,4.158,4.158,0,0,0-.815.542l-.82-.972a5.352,5.352,0,0,1,.874-.635,3.208,3.208,0,0,1,.757-.286,3.878,3.878,0,0,1,.918-.1A2.718,2.718,0,0,1-9.285-7a1.885,1.885,0,0,1,.8.684,1.816,1.816,0,0,1,.283,1.006,2.462,2.462,0,0,1-.173.925,3.553,3.553,0,0,1-.537.886A13.131,13.131,0,0,1-10.2-2.2l-.918.864v.068h3.11Zm4.634,0H-4.881V-4.131l.015-.679.024-.742q-.376.376-.522.493l-.82.659-.728-.908,2.3-1.831h1.24Zm2.061-2.07V-3.291H1.311V-2.07ZM6.907-5.542A1.68,1.68,0,0,1,6.5-4.4a2.1,2.1,0,0,1-1.138.645v.029a2.274,2.274,0,0,1,1.309.525A1.47,1.47,0,0,1,7.117-2.08a1.907,1.907,0,0,1-.747,1.6A3.444,3.444,0,0,1,4.236.1,5.181,5.181,0,0,1,2.175-.288V-1.572a4.657,4.657,0,0,0,.913.342,3.842,3.842,0,0,0,.986.132,1.918,1.918,0,0,0,1.1-.254.932.932,0,0,0,.356-.815.736.736,0,0,0-.41-.713,3.034,3.034,0,0,0-1.309-.21H3.274V-4.248h.552a2.566,2.566,0,0,0,1.213-.217.785.785,0,0,0,.383-.745q0-.811-1.016-.811a2.324,2.324,0,0,0-.715.117,3.494,3.494,0,0,0-.808.405l-.7-1.04a3.88,3.88,0,0,1,2.329-.7,3.007,3.007,0,0,1,1.75.449A1.441,1.441,0,0,1,6.907-5.542ZM13.04-3.569A4.976,4.976,0,0,1,12.427-.8,2.126,2.126,0,0,1,10.54.1,2.1,2.1,0,0,1,8.677-.83,4.905,4.905,0,0,1,8.05-3.569a5.023,5.023,0,0,1,.61-2.786,2.117,2.117,0,0,1,1.88-.9,2.107,2.107,0,0,1,1.868.938A4.915,4.915,0,0,1,13.04-3.569Zm-3.491,0a5.554,5.554,0,0,0,.227,1.882.786.786,0,0,0,.764.569.794.794,0,0,0,.762-.576,5.4,5.4,0,0,0,.234-1.875A5.384,5.384,0,0,0,11.3-5.457a.8.8,0,0,0-.759-.574.788.788,0,0,0-.762.574A5.544,5.544,0,0,0,9.549-3.569Z" transform="translate(475.016 318)" fill="#212e3a"/></g><g transform="translate(-6)"><path d="M0,0H40V45H0Z" transform="translate(516 259)" fill="#f6ee81"/><path d="M-8.284-5.542A1.68,1.68,0,0,1-8.689-4.4a2.1,2.1,0,0,1-1.138.645v.029a2.274,2.274,0,0,1,1.309.525A1.47,1.47,0,0,1-8.074-2.08a1.907,1.907,0,0,1-.747,1.6A3.444,3.444,0,0,1-10.955.1a5.181,5.181,0,0,1-2.061-.386V-1.572a4.657,4.657,0,0,0,.913.342,3.842,3.842,0,0,0,.986.132,1.918,1.918,0,0,0,1.1-.254.932.932,0,0,0,.356-.815.736.736,0,0,0-.41-.713,3.034,3.034,0,0,0-1.309-.21h-.542V-4.248h.552a2.566,2.566,0,0,0,1.213-.217.785.785,0,0,0,.383-.745q0-.811-1.016-.811A2.324,2.324,0,0,0-11.5-5.9a3.494,3.494,0,0,0-.808.405l-.7-1.04a3.88,3.88,0,0,1,2.329-.7,3.007,3.007,0,0,1,1.75.449A1.441,1.441,0,0,1-8.284-5.542ZM-3.372,0H-4.881V-4.131l.015-.679.024-.742q-.376.376-.522.493l-.82.659-.728-.908,2.3-1.831h1.24Zm2.061-2.07V-3.291H1.311V-2.07Zm8.657.591H6.487V0H5.012V-1.479H1.965v-1.05L5.1-7.139H6.487v4.487h.859ZM5.012-2.651V-3.862q0-.3.024-.879t.039-.669H5.037a5.445,5.445,0,0,1-.435.781L3.294-2.651Zm8.028-.918A4.976,4.976,0,0,1,12.427-.8,2.126,2.126,0,0,1,10.54.1,2.1,2.1,0,0,1,8.677-.83,4.905,4.905,0,0,1,8.05-3.569a5.023,5.023,0,0,1,.61-2.786,2.117,2.117,0,0,1,1.88-.9,2.107,2.107,0,0,1,1.868.938A4.915,4.915,0,0,1,13.04-3.569Zm-3.491,0a5.554,5.554,0,0,0,.227,1.882.786.786,0,0,0,.764.569.794.794,0,0,0,.762-.576,5.4,5.4,0,0,0,.234-1.875A5.384,5.384,0,0,0,11.3-5.457a.8.8,0,0,0-.759-.574.788.788,0,0,0-.762.574A5.544,5.544,0,0,0,9.549-3.569Z" transform="translate(536.016 318)" fill="#212e3a"/></g></g></g></svg>