<svg xmlns="http://www.w3.org/2000/svg" width="247.207" height="145.945" viewBox="0 0 247.207 145.945"><g transform="translate(-16.166 -51.6)"><rect width="247.207" height="145.945" rx="5" transform="translate(16.166 51.6)" fill="#fff"/><g transform="translate(0.41)"><g transform="translate(0 -6)"><text transform="translate(46.756 185.599)" fill="#212e3a" font-size="10" font-family="OpenSans-Bold, Open Sans" font-weight="700"><tspan x="-11.589" y="0">TOM</tspan></text></g><g transform="translate(4 -6)"><text transform="translate(105.756 185.599)" fill="#212e3a" font-size="10" font-family="OpenSans-Bold, Open Sans" font-weight="700"><tspan x="-13.005" y="0">BART</tspan></text></g><g transform="translate(17 -6)"><text transform="translate(156.756 185.599)" fill="#212e3a" font-size="10" font-family="OpenSans-Bold, Open Sans" font-weight="700"><tspan x="-12.41" y="0">ALEX</tspan></text></g><g transform="translate(0 -6)"><text transform="translate(234.756 185.599)" fill="#212e3a" font-size="10" font-family="OpenSans-Bold, Open Sans" font-weight="700"><tspan x="-10.698" y="0">BOB</tspan></text></g><g transform="translate(-302.244 -141.4)"><path d="M7.67.767,6.9,0,3.835,3.068.767,0,0,.767,3.068,3.835,0,6.9l.767.767L3.835,4.6,6.9,7.67,7.67,6.9,4.6,3.835Z" transform="translate(345 292)" fill="#3f85e5" stroke="#3f85e5" stroke-width="1"/><path d="M7.67.767,6.9,0,3.835,3.068.767,0,0,.767,3.068,3.835,0,6.9l.767.767L3.835,4.6,6.9,7.67,7.67,6.9,4.6,3.835Z" transform="translate(345 272)" fill="#3f85e5" stroke="#3f85e5" stroke-width="1"/><path d="M7.67.767,6.9,0,3.835,3.068.767,0,0,.767,3.068,3.835,0,6.9l.767.767L3.835,4.6,6.9,7.67,7.67,6.9,4.6,3.835Z" transform="translate(408 292)" fill="#3f85e5" stroke="#3f85e5" stroke-width="1"/><path d="M7.67.767,6.9,0,3.835,3.068.767,0,0,.767,3.068,3.835,0,6.9l.767.767L3.835,4.6,6.9,7.67,7.67,6.9,4.6,3.835Z" transform="translate(408 272)" fill="#3f85e5" stroke="#3f85e5" stroke-width="1"/><path d="M7.67.767,6.9,0,3.835,3.068.767,0,0,.767,3.068,3.835,0,6.9l.767.767L3.835,4.6,6.9,7.67,7.67,6.9,4.6,3.835Z" transform="translate(472 292)" fill="#3f85e5" stroke="#3f85e5" stroke-width="1"/><path d="M7.67.767,6.9,0,3.835,3.068.767,0,0,.767,3.068,3.835,0,6.9l.767.767L3.835,4.6,6.9,7.67,7.67,6.9,4.6,3.835Z" transform="translate(472 272)" fill="#3f85e5" stroke="#3f85e5" stroke-width="1"/><path d="M7.67.767,6.9,0,3.835,3.068.767,0,0,.767,3.068,3.835,0,6.9l.767.767L3.835,4.6,6.9,7.67,7.67,6.9,4.6,3.835Z" transform="translate(472 252)" fill="#3f85e5" stroke="#3f85e5" stroke-width="1"/><path d="M7.67.767,6.9,0,3.835,3.068.767,0,0,.767,3.068,3.835,0,6.9l.767.767L3.835,4.6,6.9,7.67,7.67,6.9,4.6,3.835Z" transform="translate(472 232)" fill="#3f85e5" stroke="#3f85e5" stroke-width="1"/><path d="M7.67.767,6.9,0,3.835,3.068.767,0,0,.767,3.068,3.835,0,6.9l.767.767L3.835,4.6,6.9,7.67,7.67,6.9,4.6,3.835Z" transform="translate(533 292)" fill="#3f85e5" stroke="#3f85e5" stroke-width="1"/><path d="M7.67.767,6.9,0,3.835,3.068.767,0,0,.767,3.068,3.835,0,6.9l.767.767L3.835,4.6,6.9,7.67,7.67,6.9,4.6,3.835Z" transform="translate(533 272)" fill="#3f85e5" stroke="#3f85e5" stroke-width="1"/><path d="M7.67.767,6.9,0,3.835,3.068.767,0,0,.767,3.068,3.835,0,6.9l.767.767L3.835,4.6,6.9,7.67,7.67,6.9,4.6,3.835Z" transform="translate(533 252)" fill="#3f85e5" stroke="#3f85e5" stroke-width="1"/><path d="M7.67.767,6.9,0,3.835,3.068.767,0,0,.767,3.068,3.835,0,6.9l.767.767L3.835,4.6,6.9,7.67,7.67,6.9,4.6,3.835Z" transform="translate(533 232)" fill="#3f85e5" stroke="#3f85e5" stroke-width="1"/></g></g></g></svg>