<svg xmlns="http://www.w3.org/2000/svg" width="247.207" height="145.945" viewBox="0 0 247.207 145.945"><g transform="translate(-16.756 -51.6)"><rect width="247.207" height="145.945" rx="5" transform="translate(16.756 51.6)" fill="#fff"/><g transform="translate(0 -6)"><g transform="translate(-302.244 -141.4)"><path d="M7.67.767,6.9,0,3.835,3.068.767,0,0,.767,3.068,3.835,0,6.9l.767.767L3.835,4.6,6.9,7.67,7.67,6.9,4.6,3.835Z" transform="translate(345 292)" fill="#3f85e5" stroke="#3f85e5" stroke-width="1"/><path d="M7.67.767,6.9,0,3.835,3.068.767,0,0,.767,3.068,3.835,0,6.9l.767.767L3.835,4.6,6.9,7.67,7.67,6.9,4.6,3.835Z" transform="translate(345 272)" fill="#3f85e5" stroke="#3f85e5" stroke-width="1"/><path d="M7.67.767,6.9,0,3.835,3.068.767,0,0,.767,3.068,3.835,0,6.9l.767.767L3.835,4.6,6.9,7.67,7.67,6.9,4.6,3.835Z" transform="translate(408 292)" fill="#3f85e5" stroke="#3f85e5" stroke-width="1"/><path d="M7.67.767,6.9,0,3.835,3.068.767,0,0,.767,3.068,3.835,0,6.9l.767.767L3.835,4.6,6.9,7.67,7.67,6.9,4.6,3.835Z" transform="translate(408 272)" fill="#3f85e5" stroke="#3f85e5" stroke-width="1"/><path d="M7.67.767,6.9,0,3.835,3.068.767,0,0,.767,3.068,3.835,0,6.9l.767.767L3.835,4.6,6.9,7.67,7.67,6.9,4.6,3.835Z" transform="translate(472 292)" fill="#3f85e5" stroke="#3f85e5" stroke-width="1"/><path d="M7.67.767,6.9,0,3.835,3.068.767,0,0,.767,3.068,3.835,0,6.9l.767.767L3.835,4.6,6.9,7.67,7.67,6.9,4.6,3.835Z" transform="translate(472 272)" fill="#3f85e5" stroke="#3f85e5" stroke-width="1"/><path d="M7.67.767,6.9,0,3.835,3.068.767,0,0,.767,3.068,3.835,0,6.9l.767.767L3.835,4.6,6.9,7.67,7.67,6.9,4.6,3.835Z" transform="translate(472 252)" fill="#3f85e5" stroke="#3f85e5" stroke-width="1"/><path d="M7.67.767,6.9,0,3.835,3.068.767,0,0,.767,3.068,3.835,0,6.9l.767.767L3.835,4.6,6.9,7.67,7.67,6.9,4.6,3.835Z" transform="translate(472 232)" fill="#3f85e5" stroke="#3f85e5" stroke-width="1"/><path d="M7.67.767,6.9,0,3.835,3.068.767,0,0,.767,3.068,3.835,0,6.9l.767.767L3.835,4.6,6.9,7.67,7.67,6.9,4.6,3.835Z" transform="translate(533 292)" fill="#3f85e5" stroke="#3f85e5" stroke-width="1"/><path d="M7.67.767,6.9,0,3.835,3.068.767,0,0,.767,3.068,3.835,0,6.9l.767.767L3.835,4.6,6.9,7.67,7.67,6.9,4.6,3.835Z" transform="translate(533 272)" fill="#3f85e5" stroke="#3f85e5" stroke-width="1"/><path d="M7.67.767,6.9,0,3.835,3.068.767,0,0,.767,3.068,3.835,0,6.9l.767.767L3.835,4.6,6.9,7.67,7.67,6.9,4.6,3.835Z" transform="translate(533 252)" fill="#3f85e5" stroke="#3f85e5" stroke-width="1"/><path d="M7.67.767,6.9,0,3.835,3.068.767,0,0,.767,3.068,3.835,0,6.9l.767.767L3.835,4.6,6.9,7.67,7.67,6.9,4.6,3.835Z" transform="translate(533 232)" fill="#3f85e5" stroke="#3f85e5" stroke-width="1"/></g><g transform="translate(-270.926 -121.473)"><g transform="translate(305.682 291.91)"><path d="M3.5,0,7,6H0Z" transform="translate(0 9.162) rotate(-90)" fill="#212e3a"/><path d="M3.5,0,7,6H0Z" transform="translate(211 2.162) rotate(90)" fill="#212e3a"/><line y2="5.724" transform="translate(23.414 2.29)" fill="none" stroke="#6a737f" stroke-linecap="round" stroke-width="2"/><line y2="5.724" transform="translate(66.347 2.29)" fill="none" stroke="#6a737f" stroke-linecap="round" stroke-width="2"/><line y2="5.724" transform="translate(109.851 2.29)" fill="none" stroke="#6a737f" stroke-linecap="round" stroke-width="2"/><line y2="5.724" transform="translate(153.356 2.29)" fill="none" stroke="#6a737f" stroke-linecap="round" stroke-width="2"/><line y2="5.724" transform="translate(196.86 2.29)" fill="none" stroke="#6a737f" stroke-linecap="round" stroke-width="2"/><line y2="5.724" transform="translate(32 2.29)" fill="none" stroke="#6a737f" stroke-linecap="round" stroke-width="2"/><line y2="5.724" transform="translate(74.932 2.29)" fill="none" stroke="#6a737f" stroke-linecap="round" stroke-width="2"/><line y2="5.724" transform="translate(118.437 2.29)" fill="none" stroke="#6a737f" stroke-linecap="round" stroke-width="2"/><line y2="5.724" transform="translate(161.942 2.29)" fill="none" stroke="#6a737f" stroke-linecap="round" stroke-width="2"/><line y2="5.724" transform="translate(41.16 2.29)" fill="none" stroke="#6a737f" stroke-linecap="round" stroke-width="2"/><line y2="5.724" transform="translate(84.092 2.29)" fill="none" stroke="#6a737f" stroke-linecap="round" stroke-width="2"/><line y2="5.724" transform="translate(127.596 2.29)" fill="none" stroke="#6a737f" stroke-linecap="round" stroke-width="2"/><line y2="5.724" transform="translate(171.101 2.29)" fill="none" stroke="#6a737f" stroke-linecap="round" stroke-width="2"/><line y2="5.724" transform="translate(49.745 2.29)" fill="none" stroke="#6a737f" stroke-linecap="round" stroke-width="2"/><line y2="5.724" transform="translate(92.677 2.29)" fill="none" stroke="#6a737f" stroke-linecap="round" stroke-width="2"/><line y2="5.724" transform="translate(136.182 2.29)" fill="none" stroke="#6a737f" stroke-linecap="round" stroke-width="2"/><line y2="5.724" transform="translate(179.687 2.29)" fill="none" stroke="#6a737f" stroke-linecap="round" stroke-width="2"/><line y2="10.304" transform="translate(14.828)" fill="none" stroke="#6a737f" stroke-linecap="round" stroke-width="2"/><line y2="10.304" transform="translate(188.274)" fill="none" stroke="#6a737f" stroke-linecap="round" stroke-width="2"/><line y2="10.304" transform="translate(144.769)" fill="none" stroke="#6a737f" stroke-linecap="round" stroke-width="2"/><line y2="10.304" transform="translate(101.264)" fill="none" stroke="#6a737f" stroke-linecap="round" stroke-width="2"/><line y2="10.304" transform="translate(57.759)" fill="none" stroke="#6a737f" stroke-linecap="round" stroke-width="2"/></g></g></g></g></svg>