<svg xmlns="http://www.w3.org/2000/svg" width="7.406" height="11.578" viewBox="0 0 7.406 11.578"><defs><style>.a{fill:#22242b;}</style></defs><path class="a" d="M.012-7.133a3.917,3.917,0,0,1,2.734.914A3.2,3.2,0,0,1,3.754-3.727,3.64,3.64,0,0,1,2.609-.871,4.708,4.708,0,0,1-.645.156,6.15,6.15,0,0,1-3.652-.461V-2.125A5.515,5.515,0,0,0-2.2-1.57a6.6,6.6,0,0,0,1.523.2A2.834,2.834,0,0,0,1.215-1.93a2.02,2.02,0,0,0,.648-1.625Q1.863-5.6-.746-5.6a6.839,6.839,0,0,0-.906.074q-.539.074-.945.168l-.82-.484.438-5.578H2.957v1.633h-4.32l-.258,2.828q.273-.047.668-.109A6.3,6.3,0,0,1,.012-7.133Z" transform="translate(3.652 11.422)"/></svg>