<svg xmlns="http://www.w3.org/2000/svg" width="7.758" height="11.727" viewBox="0 0 7.758 11.727"><defs><style>.a{fill:#22242b;}</style></defs><path class="a" d="M3.863-6.547A7.854,7.854,0,0,1,2.5-1.508,4.976,4.976,0,0,1-1.59.156,6.249,6.249,0,0,1-3.082.031V-1.508a5.149,5.149,0,0,0,1.4.2,3.576,3.576,0,0,0,2.773-1,4.855,4.855,0,0,0,1-3.141H2A2.767,2.767,0,0,1,.883-4.437a3.5,3.5,0,0,1-1.527.313A3.073,3.073,0,0,1-3.027-5.07a3.691,3.691,0,0,1-.867-2.594,3.968,3.968,0,0,1,1-2.848A3.594,3.594,0,0,1-.152-11.57a3.789,3.789,0,0,1,2.125.594,3.815,3.815,0,0,1,1.4,1.723A6.747,6.747,0,0,1,3.863-6.547Zm-3.984-3.5a1.779,1.779,0,0,0-1.461.621A2.688,2.688,0,0,0-2.09-7.68a2.3,2.3,0,0,0,.473,1.535,1.773,1.773,0,0,0,1.434.559,2.286,2.286,0,0,0,1.563-.555,1.679,1.679,0,0,0,.633-1.3,3.162,3.162,0,0,0-.27-1.3A2.316,2.316,0,0,0,.988-9.7,1.84,1.84,0,0,0-.121-10.047Z" transform="translate(3.895 11.57)"/></svg>