<svg xmlns="http://www.w3.org/2000/svg" width="7.758" height="11.758" viewBox="0 0 7.758 11.758"><defs><style>.a{fill:#22242b;}</style></defs><path class="a" d="M3.879-5.711a8.125,8.125,0,0,1-.957,4.422A3.267,3.267,0,0,1,0,.156,3.243,3.243,0,0,1-2.895-1.336a7.979,7.979,0,0,1-.984-4.375,8.17,8.17,0,0,1,.957-4.457A3.268,3.268,0,0,1,0-11.6a3.246,3.246,0,0,1,2.9,1.5A8.039,8.039,0,0,1,3.879-5.711Zm-5.9,0a8.322,8.322,0,0,0,.48,3.336A1.6,1.6,0,0,0,0-1.375,1.615,1.615,0,0,0,1.539-2.391a8.216,8.216,0,0,0,.488-3.32,8.281,8.281,0,0,0-.488-3.324A1.615,1.615,0,0,0,0-10.062,1.6,1.6,0,0,0-1.539-9.055,8.383,8.383,0,0,0-2.02-5.711Z" transform="translate(3.879 11.602)"/></svg>