<svg xmlns="http://www.w3.org/2000/svg" width="7.758" height="11.727" viewBox="0 0 7.758 11.727"><defs><style>.a{fill:#22242b;}</style></defs><path class="a" d="M-3.832-4.867q0-6.7,5.461-6.7a6.774,6.774,0,0,1,1.453.133v1.531a4.961,4.961,0,0,0-1.375-.172,3.6,3.6,0,0,0-2.758.984,4.78,4.78,0,0,0-1,3.156h.094a2.513,2.513,0,0,1,1.031-.98A3.324,3.324,0,0,1,.637-7.266a3.108,3.108,0,0,1,2.422.953,3.7,3.7,0,0,1,.867,2.586,3.923,3.923,0,0,1-1,2.84A3.622,3.622,0,0,1,.184.156a3.822,3.822,0,0,1-2.133-.59A3.766,3.766,0,0,1-3.344-2.152,6.817,6.817,0,0,1-3.832-4.867ZM.152-1.359a1.8,1.8,0,0,0,1.457-.609,2.638,2.638,0,0,0,.512-1.742,2.306,2.306,0,0,0-.48-1.547A1.791,1.791,0,0,0,.2-5.82a2.381,2.381,0,0,0-1.094.254,2.009,2.009,0,0,0-.789.7,1.629,1.629,0,0,0-.289.9,2.893,2.893,0,0,0,.6,1.855A1.865,1.865,0,0,0,.152-1.359Z" transform="translate(3.832 11.57)"/></svg>