<svg xmlns="http://www.w3.org/2000/svg" width="7.742" height="11.586" viewBox="0 0 7.742 11.586"><defs><style>.a{fill:#22242b;}</style></defs><path class="a" d="M3.879,0H-3.863V-1.391L-.918-4.352A25.053,25.053,0,0,0,.813-6.246,4.523,4.523,0,0,0,1.434-7.3a2.833,2.833,0,0,0,.2-1.055A1.608,1.608,0,0,0,1.164-9.57a1.781,1.781,0,0,0-1.285-.445,3.426,3.426,0,0,0-1.27.242A5.942,5.942,0,0,0-2.809-8.9L-3.8-10.109A6.4,6.4,0,0,1-1.949-11.25a5.42,5.42,0,0,1,1.914-.336,3.766,3.766,0,0,1,2.555.832A2.81,2.81,0,0,1,3.48-8.516,3.928,3.928,0,0,1,3.2-7.047a5.969,5.969,0,0,1-.852,1.434,19.461,19.461,0,0,1-1.91,2L-1.543-1.7v.078H3.879Z" transform="translate(3.863 11.586)"/></svg>