<svg xmlns="http://www.w3.org/2000/svg" width="7.68" height="11.742" viewBox="0 0 7.68 11.742"><defs><style>.a{fill:#22242b;}</style></defs><path class="a" d="M3.449-8.8a2.646,2.646,0,0,1-.633,1.809,3.185,3.185,0,0,1-1.781.973v.063A3.448,3.448,0,0,1,3.1-5.1a2.447,2.447,0,0,1,.688,1.816A3.018,3.018,0,0,1,2.621-.738,5.34,5.34,0,0,1-.691.156a7.459,7.459,0,0,1-3.2-.617V-2.094a7.316,7.316,0,0,0,1.539.555,6.682,6.682,0,0,0,1.563.2,3.3,3.3,0,0,0,1.984-.492,1.781,1.781,0,0,0,.656-1.523A1.45,1.45,0,0,0,1.121-4.7a4.64,4.64,0,0,0-2.281-.43h-.992V-6.625h1.008q2.734,0,2.734-1.891a1.394,1.394,0,0,0-.477-1.133,2.146,2.146,0,0,0-1.406-.4,4.258,4.258,0,0,0-1.25.184,5.918,5.918,0,0,0-1.422.715l-.9-1.281A5.988,5.988,0,0,1-.215-11.586a4.341,4.341,0,0,1,2.7.742A2.436,2.436,0,0,1,3.449-8.8Z" transform="translate(3.895 11.586)"/></svg>