<svg xmlns="http://www.w3.org/2000/svg" width="7.758" height="11.727" viewBox="0 0 7.758 11.727"><defs><style>.a{fill:#22242b;}</style></defs><path class="a" d="M0-11.57a4.041,4.041,0,0,1,2.57.746,2.413,2.413,0,0,1,.945,2A3.139,3.139,0,0,1,1.4-6.031a5.426,5.426,0,0,1,1.91,1.414,2.664,2.664,0,0,1,.566,1.656A2.782,2.782,0,0,1,2.84-.7,4.305,4.305,0,0,1,.027.156a4.6,4.6,0,0,1-2.883-.8A2.7,2.7,0,0,1-3.879-2.9a2.912,2.912,0,0,1,.535-1.715A4.486,4.486,0,0,1-1.59-5.969a4.411,4.411,0,0,1-1.492-1.32,2.835,2.835,0,0,1-.445-1.562,2.356,2.356,0,0,1,.977-1.98A4.112,4.112,0,0,1,0-11.57ZM-2.121-2.961A1.514,1.514,0,0,0-1.551-1.7,2.435,2.435,0,0,0,0-1.25a2.381,2.381,0,0,0,1.566-.465,1.555,1.555,0,0,0,.559-1.262,1.616,1.616,0,0,0-.516-1.156A4.863,4.863,0,0,0,.043-5.1l-.227-.1a4.02,4.02,0,0,0-1.484,1A1.889,1.889,0,0,0-2.121-2.961Zm2.1-7.2a1.935,1.935,0,0,0-1.258.387,1.281,1.281,0,0,0-.477,1.051,1.512,1.512,0,0,0,.172.727,1.9,1.9,0,0,0,.5.582,6,6,0,0,0,1.109.629,3.684,3.684,0,0,0,1.324-.871,1.6,1.6,0,0,0,.387-1.066,1.277,1.277,0,0,0-.48-1.051A1.977,1.977,0,0,0-.02-10.156Z" transform="translate(3.879 11.57)"/></svg>