<svg width="24.999999999999996" height="24.999999999999996" xmlns="http://www.w3.org/2000/svg">
  <rect id="svg_6" height="25.20663" width="25.24921" y="-0.05995" x="-0.12507" stroke-opacity="0" stroke-width="null" stroke="#000000" fill="#ff0000"/>
  <g stroke="null" id="svg_7">
   <g stroke="null" id="svg_2">
    <path stroke="null" id="svg_3" fill="#ffffff" d="m18.80868,6.76499l-12.61736,0a1.72059,1.72059 0 0 0 -1.72059,1.72059l0,8.02884a1.72059,1.72059 0 0 0 1.72059,1.72059l12.61736,0a1.72059,1.72059 0 0 0 1.72059,-1.72059l0,-8.02884a1.72059,1.72059 0 0 0 -1.72059,-1.72059zm0.57324,6.645l-3.60912,-3.60912a0.57324,0.57324 0 0 0 -0.8106,0l-4.75647,4.75561l-1.88511,-1.88511a0.57324,0.57324 0 0 0 -0.8106,0l-1.88511,1.88511l0,-6.0709a0.57324,0.57324 0 0 1 0.57324,-0.57324l12.61051,0a0.57324,0.57324 0 0 1 0.57324,0.57324l0,4.92441z"/>
   </g>
   <g stroke="null" id="svg_4">
    <circle stroke="null" id="svg_5" fill="#ffffff" r="1.72059" cy="10.77941" cx="9.6325"/>
   </g>
  </g>
</svg>