<svg xmlns="http://www.w3.org/2000/svg" width="11" height="13.21" viewBox="0 0 11 13.21"><g transform="translate(-452.5 -66.966)"><path d="M9.105-3.489A3.234,3.234,0,0,1,7.866-.8,5.393,5.393,0,0,1,4.447.176,8.158,8.158,0,0,1,.879-.5V-2.487a9.7,9.7,0,0,0,1.868.65A7.919,7.919,0,0,0,4.588-1.6a2.929,2.929,0,0,0,1.841-.475,1.548,1.548,0,0,0,.593-1.274A1.6,1.6,0,0,0,6.478-4.57a8.2,8.2,0,0,0-2.25-1.187A5.952,5.952,0,0,1,1.749-7.383a3.44,3.44,0,0,1-.721-2.2,3.077,3.077,0,0,1,1.143-2.531,4.74,4.74,0,0,1,3.067-.923,9.012,9.012,0,0,1,3.674.809l-.668,1.714a8.027,8.027,0,0,0-3.059-.721,2.347,2.347,0,0,0-1.547.444,1.458,1.458,0,0,0-.527,1.173,1.652,1.652,0,0,0,.211.857,2.155,2.155,0,0,0,.694.672,11.745,11.745,0,0,0,1.74.835,9.522,9.522,0,0,1,2.074,1.1A3.231,3.231,0,0,1,8.8-5,3.463,3.463,0,0,1,9.105-3.489Z" transform="translate(453.121 80)" fill="#87929b"/><path d="M0,0H11" transform="translate(452.5 73.5)" fill="none" stroke="#87929b" stroke-width="1.5"/></g></svg>