<svg xmlns="http://www.w3.org/2000/svg" width="19.192" height="12.904" viewBox="0 0 19.192 12.904"><g transform="translate(0 0)"><path d="M134.908,110.545H146.9a1.2,1.2,0,0,1,1.09,1.29v10.323a1.2,1.2,0,0,1-1.09,1.29H134.908a1.2,1.2,0,0,1-1.09-1.29V111.835A1.2,1.2,0,0,1,134.908,110.545Zm.218,11.356h11.559v-9.807H135.127Z" transform="translate(-133.818 -110.545)" fill="#87929b"/></g><g transform="translate(13.227 0.175)"><path d="M.589,123.276l4.067,2.44v-8.49L.581,119.586l-.573-1.4,5.016-2.905a.565.565,0,0,1,.633.04.82.82,0,0,1,.308.66v11a.82.82,0,0,1-.311.663.579.579,0,0,1-.343.115.57.57,0,0,1-.295-.083L0,124.665Z" transform="translate(0 -115.203)" fill="#87929b"/></g></svg>