<svg width="25" height="25" xmlns="http://www.w3.org/2000/svg">
 <g>
  <rect stroke="#000000" id="svg_7" height="25.34268" width="25.18643" y="-0.21763" x="-0.10918" stroke-opacity="0" stroke-width="null" fill="#008000"/>
  <g stroke="null" id="svg_5">
   <g stroke="null" id="svg_6">
    <g stroke="null" id="svg_1">
     <path stroke="null" d="m5.50557,7.04802l10.04806,0a1.00547,1.00547 0 0 1 0.9133,1.08089l0,8.64959a1.00547,1.00547 0 0 1 -0.9133,1.08089l-10.04806,0a1.00547,1.00547 0 0 1 -0.9133,-1.08089l0,-8.64959a1.00547,1.00547 0 0 1 0.9133,-1.08089z" fill="#ffffff" id="svg_2"/>
    </g>
    <g stroke="null" id="svg_3">
     <path stroke="null" d="m15.38739,9.69493l4.20289,-2.43409a0.47342,0.47342 0 0 1 0.53039,0.03351a0.68708,0.68708 0 0 1 0.25807,0.55301l0,9.21685a0.68708,0.68708 0 0 1 -0.26058,0.55553a0.48515,0.48515 0 0 1 -0.2874,0.09636a0.4776,0.4776 0 0 1 -0.24718,-0.06954l-4.20289,-2.52375l0.0067,-5.42789z" fill="#ffffff" id="svg_4"/>
    </g>
   </g>
  </g>
 </g>
</svg>