<svg xmlns="http://www.w3.org/2000/svg" width="23.792" height="39.319" viewBox="0 0 23.792 39.319"><g transform="translate(-995.324 -324)"><g transform="translate(995.324 346.358)" fill="none" stroke-dasharray="2 1"><path d="M0,0H10.793V16.961H0Z" stroke="none"/><path d="M 3.000001907348633 -1.9073486328125e-06 L 5.000001907348633 -1.9073486328125e-06 L 5.000001907348633 0.9999990463256836 L 3.000001907348633 0.9999990463256836 L 3.000001907348633 -1.9073486328125e-06 Z M 6.000001907348633 -1.9073486328125e-06 L 8.000001907348633 -1.9073486328125e-06 L 8.000001907348633 0.9999990463256836 L 6.000001907348633 0.9999990463256836 L 6.000001907348633 -1.9073486328125e-06 Z M 9.000001907348633 -1.9073486328125e-06 L 10.79332160949707 -1.9073486328125e-06 L 10.79332160949707 0.9999990463256836 L 9.000001907348633 0.9999990463256836 L 9.000001907348633 -1.9073486328125e-06 Z M 9.79332160949707 1.20667839050293 L 10.79332160949707 1.20667839050293 C 10.79332160949707 1.20667839050293 10.79332160949707 3.20667839050293 10.79332160949707 3.20667839050293 L 9.79332160949707 3.20667839050293 L 9.79332160949707 1.20667839050293 Z M 9.79332160949707 4.20667839050293 L 10.79332160949707 4.20667839050293 C 10.79332160949707 4.20667839050293 10.79332160949707 6.20667839050293 10.79332160949707 6.20667839050293 L 9.79332160949707 6.20667839050293 L 9.79332160949707 4.20667839050293 Z M 9.79332160949707 7.20667839050293 L 10.79332160949707 7.20667839050293 C 10.79332160949707 7.20667839050293 10.79332160949707 9.20667839050293 10.79332160949707 9.20667839050293 L 9.79332160949707 9.20667839050293 L 9.79332160949707 7.20667839050293 Z M 9.79332160949707 10.20667839050293 L 10.79332160949707 10.20667839050293 C 10.79332160949707 10.20667839050293 10.79332160949707 12.20667839050293 10.79332160949707 12.20667839050293 L 9.79332160949707 12.20667839050293 L 9.79332160949707 10.20667839050293 Z M 9.79332160949707 13.20667839050293 L 10.79332160949707 13.20667839050293 C 10.79332160949707 13.20667839050293 10.79332160949707 15.20667839050293 10.79332160949707 15.20667839050293 L 9.79332160949707 15.20667839050293 L 9.79332160949707 13.20667839050293 Z M 9.547581672668457 15.96093845367432 L 10.79332160949707 15.96093845367432 L 10.79332160949707 16.20667839050293 L 10.79332160949707 16.20667839050293 L 10.79332160949707 15.96093845367432 L 10.79332160949707 16.20667839050293 L 10.79332160949707 16.20667839050293 C 10.79332160949707 16.20667839050293 10.79332160949707 16.96093940734863 10.79332160949707 16.96093940734863 L 9.79332160949707 16.96093940734863 L 9.79332160949707 16.96093940734863 L 9.79332160949707 16.96093940734863 L 9.79332160949707 16.96093940734863 L 9.79332160949707 16.96093940734863 C 9.648698806762695 16.96093940734863 9.547581672668457 16.96093940734863 9.547581672668457 16.96093940734863 L 9.547581672668457 15.96093845367432 Z M 6.547581672668457 15.96093845367432 L 8.547581672668457 15.96093845367432 L 8.547581672668457 16.96093940734863 C 8.547581672668457 16.96093940734863 6.547581672668457 16.96093940734863 6.547581672668457 16.96093940734863 L 6.547581672668457 15.96093845367432 Z M 3.547581672668457 15.96093845367432 L 5.547581672668457 15.96093845367432 L 5.547581672668457 16.96093940734863 C 5.547581672668457 16.96093940734863 3.547581672668457 16.96093940734863 3.547581672668457 16.96093940734863 L 3.547581672668457 15.96093845367432 Z M 1.9073486328125e-06 14.50851821899414 L 1.000001907348633 14.50851821899414 L 1.000001907348633 15.96093845367432 L 2.547581672668457 15.96093845367432 L 2.547581672668457 16.96093940734863 C 2.547581672668457 16.96093940734863 0.547581672668457 16.96093940734863 0.547581672668457 16.96093940734863 L 0.547581672668457 16.50851821899414 L 1.9073486328125e-06 16.50851821899414 L 1.9073486328125e-06 14.50851821899414 Z M 1.9073486328125e-06 11.50851821899414 L 1.000001907348633 11.50851821899414 L 1.000001907348633 13.50851821899414 L 1.9073486328125e-06 13.50851821899414 L 1.9073486328125e-06 11.50851821899414 Z M 1.9073486328125e-06 8.508519172668457 L 1.000001907348633 8.508519172668457 L 1.000001907348633 10.50851821899414 L 1.9073486328125e-06 10.50851821899414 L 1.9073486328125e-06 8.508519172668457 Z M 1.9073486328125e-06 5.508519172668457 L 1.000001907348633 5.508519172668457 L 1.000001907348633 7.508519172668457 L 1.9073486328125e-06 7.508519172668457 L 1.9073486328125e-06 5.508519172668457 Z M 1.9073486328125e-06 2.508519172668457 L 1.000001907348633 2.508519172668457 L 1.000001907348633 4.508519172668457 L 1.9073486328125e-06 4.508519172668457 L 1.9073486328125e-06 2.508519172668457 Z M 1.9073486328125e-06 -1.9073486328125e-06 L 2.000001907348633 -1.9073486328125e-06 L 2.000001907348633 0.9999990463256836 L 1.000001907348633 0.9999990463256836 L 1.000001907348633 1.508519172668457 L 1.9073486328125e-06 1.508519172668457 L 1.9073486328125e-06 -1.9073486328125e-06 Z" stroke="none" fill="#1ab395"/></g><g transform="translate(995.324 324)" fill="none" stroke-dasharray="2 1"><path d="M0,0H10.793V16.961H0Z" stroke="none"/><path d="M 3.000001907348633 -1.9073486328125e-06 L 5.000001907348633 -1.9073486328125e-06 L 5.000001907348633 0.9999990463256836 L 3.000001907348633 0.9999990463256836 L 3.000001907348633 -1.9073486328125e-06 Z M 6.000001907348633 -1.9073486328125e-06 L 8.000001907348633 -1.9073486328125e-06 L 8.000001907348633 0.9999990463256836 L 6.000001907348633 0.9999990463256836 L 6.000001907348633 -1.9073486328125e-06 Z M 9.000001907348633 -1.9073486328125e-06 L 10.79332160949707 -1.9073486328125e-06 L 10.79332160949707 0.9999990463256836 L 9.000001907348633 0.9999990463256836 L 9.000001907348633 -1.9073486328125e-06 Z M 9.79332160949707 1.20667839050293 L 10.79332160949707 1.20667839050293 C 10.79332160949707 1.20667839050293 10.79332160949707 3.20667839050293 10.79332160949707 3.20667839050293 L 9.79332160949707 3.20667839050293 L 9.79332160949707 1.20667839050293 Z M 9.79332160949707 4.20667839050293 L 10.79332160949707 4.20667839050293 C 10.79332160949707 4.20667839050293 10.79332160949707 6.20667839050293 10.79332160949707 6.20667839050293 L 9.79332160949707 6.20667839050293 L 9.79332160949707 4.20667839050293 Z M 9.79332160949707 7.20667839050293 L 10.79332160949707 7.20667839050293 C 10.79332160949707 7.20667839050293 10.79332160949707 9.20667839050293 10.79332160949707 9.20667839050293 L 9.79332160949707 9.20667839050293 L 9.79332160949707 7.20667839050293 Z M 9.79332160949707 10.20667839050293 L 10.79332160949707 10.20667839050293 C 10.79332160949707 10.20667839050293 10.79332160949707 12.20667839050293 10.79332160949707 12.20667839050293 L 9.79332160949707 12.20667839050293 L 9.79332160949707 10.20667839050293 Z M 9.79332160949707 13.20667839050293 L 10.79332160949707 13.20667839050293 C 10.79332160949707 13.20667839050293 10.79332160949707 15.20667839050293 10.79332160949707 15.20667839050293 L 9.79332160949707 15.20667839050293 L 9.79332160949707 13.20667839050293 Z M 9.547581672668457 15.96093845367432 L 10.79332160949707 15.96093845367432 L 10.79332160949707 16.20667839050293 L 10.79332160949707 16.20667839050293 L 10.79332160949707 15.96093845367432 L 10.79332160949707 16.20667839050293 L 10.79332160949707 16.20667839050293 C 10.79332160949707 16.20667839050293 10.79332160949707 16.96093940734863 10.79332160949707 16.96093940734863 L 9.79332160949707 16.96093940734863 L 9.79332160949707 16.96093940734863 L 9.79332160949707 16.96093940734863 L 9.79332160949707 16.96093940734863 L 9.79332160949707 16.96093940734863 C 9.648698806762695 16.96093940734863 9.547581672668457 16.96093940734863 9.547581672668457 16.96093940734863 L 9.547581672668457 15.96093845367432 Z M 6.547581672668457 15.96093845367432 L 8.547581672668457 15.96093845367432 L 8.547581672668457 16.96093940734863 C 8.547581672668457 16.96093940734863 6.547581672668457 16.96093940734863 6.547581672668457 16.96093940734863 L 6.547581672668457 15.96093845367432 Z M 3.547581672668457 15.96093845367432 L 5.547581672668457 15.96093845367432 L 5.547581672668457 16.96093940734863 C 5.547581672668457 16.96093940734863 3.547581672668457 16.96093940734863 3.547581672668457 16.96093940734863 L 3.547581672668457 15.96093845367432 Z M 1.9073486328125e-06 14.50851821899414 L 1.000001907348633 14.50851821899414 L 1.000001907348633 15.96093845367432 L 2.547581672668457 15.96093845367432 L 2.547581672668457 16.96093940734863 C 2.547581672668457 16.96093940734863 0.547581672668457 16.96093940734863 0.547581672668457 16.96093940734863 L 0.547581672668457 16.50851821899414 L 1.9073486328125e-06 16.50851821899414 L 1.9073486328125e-06 14.50851821899414 Z M 1.9073486328125e-06 11.50851821899414 L 1.000001907348633 11.50851821899414 L 1.000001907348633 13.50851821899414 L 1.9073486328125e-06 13.50851821899414 L 1.9073486328125e-06 11.50851821899414 Z M 1.9073486328125e-06 8.508519172668457 L 1.000001907348633 8.508519172668457 L 1.000001907348633 10.50851821899414 L 1.9073486328125e-06 10.50851821899414 L 1.9073486328125e-06 8.508519172668457 Z M 1.9073486328125e-06 5.508519172668457 L 1.000001907348633 5.508519172668457 L 1.000001907348633 7.508519172668457 L 1.9073486328125e-06 7.508519172668457 L 1.9073486328125e-06 5.508519172668457 Z M 1.9073486328125e-06 2.508519172668457 L 1.000001907348633 2.508519172668457 L 1.000001907348633 4.508519172668457 L 1.9073486328125e-06 4.508519172668457 L 1.9073486328125e-06 2.508519172668457 Z M 1.9073486328125e-06 -1.9073486328125e-06 L 2.000001907348633 -1.9073486328125e-06 L 2.000001907348633 0.9999990463256836 L 1.000001907348633 0.9999990463256836 L 1.000001907348633 1.508519172668457 L 1.9073486328125e-06 1.508519172668457 L 1.9073486328125e-06 -1.9073486328125e-06 Z" stroke="none" fill="#1ab395"/></g><path d="M8.4,0H6.6l1.06-4.988H3.375L2.323,0H.53L2.868-11.065H4.662L3.7-6.539H7.985l.961-4.526H10.74Z" transform="translate(1008.377 349)" fill="#22242b"/></g></svg>