<svg xmlns="http://www.w3.org/2000/svg" width="14.261" height="31" viewBox="0 0 14.261 31"><g transform="translate(-986.908 -324)"><g transform="translate(986.908 324)" fill="none" stroke-dasharray="2 1"><path d="M0,0H14.209V16.961H0Z" stroke="none"/><path d="M 0 -1.9073486328125e-06 L 2 -1.9073486328125e-06 L 2 0.9999990463256836 L 1 0.9999990463256836 L 1 2.340559005737305 L 0 2.340559005737305 L 0 -1.9073486328125e-06 Z M 3 -1.9073486328125e-06 L 5 -1.9073486328125e-06 L 5 0.9999990463256836 L 3 0.9999990463256836 L 3 -1.9073486328125e-06 Z M 6 -1.9073486328125e-06 L 7.999999523162842 -1.9073486328125e-06 L 7.999999523162842 0.9999990463256836 L 6 0.9999990463256836 L 6 -1.9073486328125e-06 Z M 9 -1.9073486328125e-06 L 11 -1.9073486328125e-06 L 11 0.9999990463256836 L 9 0.9999990463256836 L 9 -1.9073486328125e-06 Z M 12 -1.9073486328125e-06 L 14 -1.9073486328125e-06 L 14 0.7906589508056641 L 14.2093391418457 0.7906589508056641 C 14.2093391418457 0.7906589508056641 14.2093391418457 2.790658950805664 14.2093391418457 2.790658950805664 L 13.2093391418457 2.790658950805664 L 13.2093391418457 0.9999990463256836 L 12 0.9999990463256836 L 12 -1.9073486328125e-06 Z M 13.2093391418457 3.790658950805664 L 14.2093391418457 3.790658950805664 C 14.2093391418457 3.790658950805664 14.2093391418457 5.790658950805664 14.2093391418457 5.790658950805664 L 13.2093391418457 5.790658950805664 L 13.2093391418457 3.790658950805664 Z M 13.2093391418457 6.790658950805664 L 14.2093391418457 6.790658950805664 C 14.2093391418457 6.790658950805664 14.2093391418457 8.790658950805664 14.2093391418457 8.790658950805664 L 13.2093391418457 8.790658950805664 L 13.2093391418457 6.790658950805664 Z M 13.2093391418457 9.790658950805664 L 14.2093391418457 9.790658950805664 C 14.2093391418457 9.790658950805664 14.2093391418457 11.79065895080566 14.2093391418457 11.79065895080566 L 13.2093391418457 11.79065895080566 L 13.2093391418457 9.790658950805664 Z M 13.2093391418457 12.79065895080566 L 14.2093391418457 12.79065895080566 C 14.2093391418457 12.79065895080566 14.2093391418457 14.79065895080566 14.2093391418457 14.79065895080566 L 13.2093391418457 14.79065895080566 L 13.2093391418457 12.79065895080566 Z M 13.2093391418457 15.79065895080566 L 14.2093391418457 15.79065895080566 C 14.2093391418457 15.79065895080566 14.2093391418457 16.96093940734863 14.2093391418457 16.96093940734863 L 13.2093391418457 16.96093940734863 L 13.2093391418457 16.96093940734863 L 13.2093391418457 16.96093940734863 L 13.2093391418457 16.96093940734863 L 13.2093391418457 15.79065895080566 Z M 10.37961959838867 15.96093845367432 L 12.37961959838867 15.96093845367432 L 12.37961959838867 16.96093940734863 C 12.37961959838867 16.96093940734863 10.37961959838867 16.96093940734863 10.37961959838867 16.96093940734863 L 10.37961959838867 15.96093845367432 Z M 7.379619598388672 15.96093845367432 L 9.379619598388672 15.96093845367432 L 9.379619598388672 16.96093940734863 C 9.379619598388672 16.96093940734863 7.379619598388672 16.96093940734863 7.379619598388672 16.96093940734863 L 7.379619598388672 15.96093845367432 Z M 4.379619598388672 15.96093845367432 L 6.379619598388672 15.96093845367432 L 6.379619598388672 16.96093940734863 C 6.379619598388672 16.96093940734863 4.379619598388672 16.96093940734863 4.379619598388672 16.96093940734863 L 4.379619598388672 15.96093845367432 Z M 1.379619598388672 15.96093845367432 L 3.379619598388672 15.96093845367432 L 3.379619598388672 16.96093940734863 C 3.379619598388672 16.96093940734863 1.379619598388672 16.96093940734863 1.379619598388672 16.96093940734863 L 1.379619598388672 15.96093845367432 Z M 0 15.3405590057373 L 1 15.3405590057373 L 1 16.96093940734863 L 0.3796195983886719 16.96093940734863 L 0.3796195983886719 16.96093940734863 L 1 16.96093940734863 L 0.3796195983886719 16.96093940734863 L 0.3796195983886719 16.96093940734863 C 0.3796195983886719 16.96093940734863 0 16.96093940734863 0 16.96093940734863 L 0 15.3405590057373 Z M 0 12.3405590057373 L 1 12.3405590057373 L 1 14.3405590057373 L 0 14.3405590057373 L 0 12.3405590057373 Z M 0 9.340559005737305 L 1 9.340559005737305 L 1 11.3405590057373 L 0 11.3405590057373 L 0 9.340559005737305 Z M 0 6.340559005737305 L 1 6.340559005737305 L 1 8.340559005737305 L 0 8.340559005737305 L 0 6.340559005737305 Z M 0 3.340559005737305 L 1 3.340559005737305 L 1 5.340559005737305 L 0 5.340559005737305 L 0 3.340559005737305 Z" stroke="none" fill="#1ab395"/></g><path d="M8.4,0H6.6l1.06-4.988H3.375L2.323,0H.53L2.868-11.065H4.662L3.7-6.539H7.985l.961-4.526H10.74Z" transform="translate(990.43 355)" fill="#22242b"/></g></svg>