<svg xmlns="http://www.w3.org/2000/svg" width="33.677" height="25.749" viewBox="0 0 33.677 25.749"><g transform="translate(-652.137 -697.704)"><path d="M0,0H19.521" transform="translate(663 718.173)" fill="none" stroke="#22242b" stroke-width="2"/><path d="M5.226,0l5.226,5.226H0Z" transform="translate(685.813 713) rotate(90)" fill="#22242b"/><path d="M-1.359-5.148l-2.4,3.042H-5.879l3.734-4.473L-3.961-10.8h1.926L-.9-7.868,1.354-10.8H3.508L-.116-6.485l1.95,4.379H-.1Z" transform="translate(658.016 724.854)" fill="#22242b"/><path d="M2.4,0H.4l2.82-13.3H5.229ZM7.631-11.775a1.326,1.326,0,0,1,.333-.94,1.219,1.219,0,0,1,.94-.359,1.138,1.138,0,0,1,.735.226.829.829,0,0,1,.282.688,1.312,1.312,0,0,1-.342.957,1.2,1.2,0,0,1-.9.35,1.227,1.227,0,0,1-.752-.222A.815.815,0,0,1,7.631-11.775ZM7.229,0H5.212L7.229-9.451H9.237Zm9.288-9.622a2.03,2.03,0,0,1,2.17,2.008h.068a4.775,4.775,0,0,1,1.457-1.5,3.163,3.163,0,0,1,1.7-.508,2.219,2.219,0,0,1,1.73.654,2.641,2.641,0,0,1,.594,1.841,9,9,0,0,1-.188,1.547L22.849,0H20.841l1.222-5.742a6.84,6.84,0,0,0,.162-1.136q0-1.1-1.034-1.1a2.21,2.21,0,0,0-1.722,1.06A7.019,7.019,0,0,0,18.3-4.11L17.44,0H15.432l1.222-5.742A5.752,5.752,0,0,0,16.8-6.827q0-1.154-1-1.154A2.212,2.212,0,0,0,14.061-6.9a7.464,7.464,0,0,0-1.183,2.888L12.04,0H10.023L12.04-9.451h1.572L13.433-7.7h.077A3.6,3.6,0,0,1,16.517-9.622Z" transform="translate(656 711)" fill="#22242b"/></g></svg>