<svg xmlns="http://www.w3.org/2000/svg" width="38.001" height="12.312" viewBox="0 0 38.001 12.312"><g transform="translate(-298 -305.531)"><path d="M4.933-.53A3.841,3.841,0,0,1,1.907-1.693,4.856,4.856,0,0,1,.872-5.028a4.883,4.883,0,0,1,1.083-3.4,4.017,4.017,0,0,1,3.13-1.19,5.865,5.865,0,0,1,2.5.516l-.563,1.5a5.646,5.646,0,0,0-1.952-.46q-2.277,0-2.277,3.022a3.62,3.62,0,0,0,.567,2.217,1.964,1.964,0,0,0,1.662.742A4.768,4.768,0,0,0,7.377-2.7v1.626a3.682,3.682,0,0,1-1.067.42A6.4,6.4,0,0,1,4.933-.53Zm10.4-2.658A2.3,2.3,0,0,1,14.4-1.217a4.482,4.482,0,0,1-2.681.686A6.334,6.334,0,0,1,8.9-1.062v-1.61a6.914,6.914,0,0,0,2.88.714Q13.5-1.958,13.5-3a.823.823,0,0,0-.19-.555,2.253,2.253,0,0,0-.627-.46,10.785,10.785,0,0,0-1.214-.539A5.615,5.615,0,0,1,9.419-5.726,2.172,2.172,0,0,1,8.884-7.25,2,2,0,0,1,9.792-9a4.31,4.31,0,0,1,2.471-.623,7,7,0,0,1,2.927.627l-.6,1.4A6.511,6.511,0,0,0,12.2-8.178q-1.476,0-1.476.841a.846.846,0,0,0,.385.7,8.461,8.461,0,0,0,1.678.785,7.67,7.67,0,0,1,1.579.77,2.3,2.3,0,0,1,.73.805A2.33,2.33,0,0,1,15.333-3.188ZM20.887-.53A3.841,3.841,0,0,1,17.86-1.693a4.856,4.856,0,0,1-1.035-3.336,4.883,4.883,0,0,1,1.083-3.4,4.017,4.017,0,0,1,3.13-1.19,5.865,5.865,0,0,1,2.5.516l-.563,1.5a5.646,5.646,0,0,0-1.952-.46q-2.277,0-2.277,3.022a3.62,3.62,0,0,0,.567,2.217,1.963,1.963,0,0,0,1.662.742A4.768,4.768,0,0,0,23.33-2.7v1.626a3.682,3.682,0,0,1-1.067.42A6.4,6.4,0,0,1,20.887-.53Z" transform="translate(297.129 318.373)" fill="#22242b"/><path d="M21.576-11.422h1.175L21.4-5.068H20.017l.718-3.344q.123-.573.413-1.574-.152.145-.359.312t-1.113.747l-.558-.936Z" transform="translate(313.25 316.953)" fill="#22242b"/><path d="M0,0H6.5" transform="translate(323.438 309.172)" fill="#22242b" stroke="#22242b" stroke-width="1"/></g></svg>