<svg xmlns="http://www.w3.org/2000/svg" width="41" height="12.542" viewBox="0 0 41 12.542"><g transform="translate(-175 -365.531)"><path d="M5.009-.36A3.913,3.913,0,0,1,1.926-1.544a4.946,4.946,0,0,1-1.055-3.4,4.974,4.974,0,0,1,1.1-3.467A4.092,4.092,0,0,1,5.163-9.622,5.975,5.975,0,0,1,7.708-9.1L7.135-7.569a5.752,5.752,0,0,0-1.988-.469q-2.319,0-2.319,3.079A3.687,3.687,0,0,0,3.405-2.7,2,2,0,0,0,5.1-1.944a4.857,4.857,0,0,0,2.4-.63V-.918A3.751,3.751,0,0,1,6.411-.49,6.522,6.522,0,0,1,5.009-.36ZM17.527-5.007A4.878,4.878,0,0,1,16.4-1.589,4.025,4.025,0,0,1,13.276-.36a4.285,4.285,0,0,1-2.214-.566A3.735,3.735,0,0,1,9.583-2.55a5.532,5.532,0,0,1-.517-2.457A4.845,4.845,0,0,1,10.181-8.4a4.044,4.044,0,0,1,3.144-1.22A3.938,3.938,0,0,1,16.4-8.373,4.823,4.823,0,0,1,17.527-5.007Zm-6.505,0q0,3.1,2.287,3.1,2.263,0,2.263-3.1,0-3.063-2.279-3.063a1.943,1.943,0,0,0-1.733.792A4.03,4.03,0,0,0,11.022-5.007Zm14.692,1.94a2.339,2.339,0,0,1-.954,2.008,4.566,4.566,0,0,1-2.731.7A6.452,6.452,0,0,1,19.16-.9V-2.542a7.043,7.043,0,0,0,2.934.727q1.754,0,1.754-1.059a.839.839,0,0,0-.194-.566,2.3,2.3,0,0,0-.638-.469,10.987,10.987,0,0,0-1.236-.55,5.72,5.72,0,0,1-2.089-1.2,2.213,2.213,0,0,1-.545-1.552,2.038,2.038,0,0,1,.925-1.782,4.391,4.391,0,0,1,2.517-.634,7.13,7.13,0,0,1,2.982.638l-.614,1.43a6.632,6.632,0,0,0-2.432-.6q-1.5,0-1.5.857a.862.862,0,0,0,.392.711,8.619,8.619,0,0,0,1.709.8A7.813,7.813,0,0,1,24.728-5a2.343,2.343,0,0,1,.743.82A2.374,2.374,0,0,1,25.714-3.068Z" transform="translate(174.128 378.433)" fill="#22242b"/><path d="M21.622-11.422h1.2L21.445-4.949H20.033l.731-3.406q.126-.584.421-1.6-.155.148-.366.318t-1.134.761l-.569-.953Z" transform="translate(193.181 376.953)" fill="#22242b"/><path d="M0,0H6.62" transform="translate(203.202 369.24)" fill="#22242b" stroke="#22242b" stroke-width="1"/></g></svg>