<svg xmlns="http://www.w3.org/2000/svg" width="40" height="12.525" viewBox="0 0 40 12.525"><g transform="translate(-297 -305.531)"><path d="M7.4-3.076a2.336,2.336,0,0,1-.952,2.006,4.56,4.56,0,0,1-2.728.7A6.444,6.444,0,0,1,.854-.913V-2.552a7.034,7.034,0,0,0,2.93.726q1.751,0,1.751-1.057a.838.838,0,0,0-.194-.565A2.292,2.292,0,0,0,4.7-3.916a10.972,10.972,0,0,0-1.235-.549A5.712,5.712,0,0,1,1.382-5.659a2.21,2.21,0,0,1-.545-1.55,2.035,2.035,0,0,1,.924-1.78,4.385,4.385,0,0,1,2.514-.634,7.12,7.12,0,0,1,2.978.638L6.64-7.556a6.624,6.624,0,0,0-2.429-.6q-1.5,0-1.5.855a.861.861,0,0,0,.391.71,8.608,8.608,0,0,0,1.707.8,7.8,7.8,0,0,1,1.606.783,2.34,2.34,0,0,1,.742.819A2.371,2.371,0,0,1,7.4-3.076Zm5.948,2.7A4.318,4.318,0,0,1,10.09-1.587,4.611,4.611,0,0,1,8.916-4.933a5.059,5.059,0,0,1,1.09-3.438A3.763,3.763,0,0,1,13-9.622a3.678,3.678,0,0,1,2.792,1.073,4.1,4.1,0,0,1,1.025,2.954v1.025H10.869a2.932,2.932,0,0,0,.7,2,2.446,2.446,0,0,0,1.864.7,6.882,6.882,0,0,0,1.473-.149,7.72,7.72,0,0,0,1.465-.5V-.978a5.823,5.823,0,0,1-1.4.468A8.611,8.611,0,0,1,13.347-.373ZM13-8.185a1.905,1.905,0,0,0-1.449.573,2.731,2.731,0,0,0-.65,1.671h4.051a2.471,2.471,0,0,0-.533-1.675A1.822,1.822,0,0,0,13-8.185ZM22.571-.373a3.908,3.908,0,0,1-3.079-1.182,4.94,4.94,0,0,1-1.053-3.394,4.968,4.968,0,0,1,1.1-3.462,4.086,4.086,0,0,1,3.184-1.211,5.967,5.967,0,0,1,2.542.525l-.573,1.525a5.744,5.744,0,0,0-1.985-.468q-2.316,0-2.316,3.075a3.682,3.682,0,0,0,.577,2.256,2,2,0,0,0,1.691.755,4.851,4.851,0,0,0,2.4-.63V-.93A3.746,3.746,0,0,1,23.972-.5,6.514,6.514,0,0,1,22.571-.373Z" transform="translate(296.163 318.429)" fill="#22242b"/><path d="M21.619-11.422h1.2L21.442-4.958H20.032l.731-3.4q.125-.583.421-1.6-.155.148-.365.317t-1.133.76l-.568-.952Z" transform="translate(314.187 316.953)" fill="#22242b"/><path d="M0,0H6.611" transform="translate(324.22 309.235)" fill="#22242b" stroke="#22242b" stroke-width="1"/></g></svg>