<svg xmlns="http://www.w3.org/2000/svg" width="37" height="14.705" viewBox="0 0 37 14.705"><g transform="translate(-367 -305.531)"><path d="M7.369-3.312a2.325,2.325,0,0,1-.948,2A4.54,4.54,0,0,1,3.706-.62,6.415,6.415,0,0,1,.853-1.159V-2.79a7,7,0,0,0,2.916.723q1.743,0,1.743-1.053a.834.834,0,0,0-.193-.562,2.282,2.282,0,0,0-.635-.466,10.923,10.923,0,0,0-1.229-.546A5.686,5.686,0,0,1,1.38-5.883,2.2,2.2,0,0,1,.837-7.426,2.026,2.026,0,0,1,1.757-9.2a4.366,4.366,0,0,1,2.5-.631,7.088,7.088,0,0,1,2.965.635L6.614-7.771A6.594,6.594,0,0,0,4.2-8.366q-1.494,0-1.494.852a.857.857,0,0,0,.39.707,8.569,8.569,0,0,0,1.7.8,7.768,7.768,0,0,1,1.6.779,2.329,2.329,0,0,1,.739.815A2.36,2.36,0,0,1,7.369-3.312ZM11.3-.781H9.41V-9.667H11.3Zm-2-11.24a1.045,1.045,0,0,1,.277-.779,1.08,1.08,0,0,1,.791-.273,1.057,1.057,0,0,1,.775.273,1.045,1.045,0,0,1,.277.779,1.026,1.026,0,0,1-.277.759,1.048,1.048,0,0,1-.775.277,1.071,1.071,0,0,1-.791-.277A1.026,1.026,0,0,1,9.3-12.021ZM21.815-.781h-1.9V-6.244a2.391,2.391,0,0,0-.414-1.535,1.6,1.6,0,0,0-1.314-.506,2.089,2.089,0,0,0-1.751.707,3.9,3.9,0,0,0-.554,2.37V-.781H14V-9.667h1.478L15.741-8.5h.1a2.629,2.629,0,0,1,1.141-.98,3.823,3.823,0,0,1,1.639-.345q3.2,0,3.2,3.254Z" transform="translate(366.163 320.857)" fill="#22242b"/><path d="M21.607-11.422H22.8L21.431-4.987h-1.4l.727-3.386q.125-.58.419-1.594-.154.147-.364.316t-1.128.757l-.566-.948Z" transform="translate(381.203 316.953)" fill="#22242b"/><path d="M0,0H6.582" transform="translate(391.278 309.219)" fill="#22242b" stroke="#22242b" stroke-width="1"/></g></svg>