<svg xmlns="http://www.w3.org/2000/svg" width="24.77" height="9.738" viewBox="0 0 24.77 9.738"><path d="M-7.679.941a3.532,3.532,0,0,1-2.583-.9,3.446,3.446,0,0,1-.918-2.575,7.959,7.959,0,0,1,.625-3.2A5.282,5.282,0,0,1-8.8-7.985,4.291,4.291,0,0,1-6.234-8.8a5.984,5.984,0,0,1,2.524.518l-.595,1.564a4.774,4.774,0,0,0-1.878-.45,2.488,2.488,0,0,0-2.124,1.3,5.787,5.787,0,0,0-.85,3.225,2.051,2.051,0,0,0,.476,1.453,1.713,1.713,0,0,0,1.317.51A3.622,3.622,0,0,0-6.187-.86a9.263,9.263,0,0,0,1.1-.459V.338A5.647,5.647,0,0,1-7.679.941ZM3.283-5.194a2.2,2.2,0,0,0-.416-1.423,1.443,1.443,0,0,0-1.19-.514,1.977,1.977,0,0,0-1.415.608A4.006,4.006,0,0,0-.707-4.875a7.035,7.035,0,0,0-.344,2.222A2.191,2.191,0,0,0-.63-1.209a1.533,1.533,0,0,0,1.245.5,1.955,1.955,0,0,0,1.377-.578A3.8,3.8,0,0,0,2.943-2.9,7.344,7.344,0,0,0,3.283-5.194ZM5.3-5.109a7.655,7.655,0,0,1-.62,3.123A5,5,0,0,1,2.973.172,4.266,4.266,0,0,1,.479.924,3.476,3.476,0,0,1-2.113-.049,3.6,3.6,0,0,1-3.073-2.7a7.759,7.759,0,0,1,.608-3.1,5.116,5.116,0,0,1,1.7-2.2A4.234,4.234,0,0,1,1.77-8.78a3.4,3.4,0,0,1,2.592.986A3.743,3.743,0,0,1,5.3-5.109Zm7.452,2.991a2.721,2.721,0,0,1-1,2.265A4.38,4.38,0,0,1,8.959.941,6,6,0,0,1,6.223.372V-1.353a5.172,5.172,0,0,0,2.651.765,2.365,2.365,0,0,0,1.334-.34,1.059,1.059,0,0,0,.51-.926,1.044,1.044,0,0,0-.293-.744,5.735,5.735,0,0,0-1.2-.828,4.485,4.485,0,0,1-1.5-1.16,2.283,2.283,0,0,1-.438-1.4,2.528,2.528,0,0,1,.909-2.065A3.75,3.75,0,0,1,10.65-8.8a5.915,5.915,0,0,1,2.94.714l-.646,1.5a4.753,4.753,0,0,0-2.26-.646,1.675,1.675,0,0,0-1.007.28.911.911,0,0,0-.387.782.963.963,0,0,0,.28.68,4.965,4.965,0,0,0,1.147.765,6.663,6.663,0,0,1,1.266.858,2.577,2.577,0,0,1,.569.778A2.286,2.286,0,0,1,12.749-2.118Z" transform="translate(11.18 8.797)" fill="#22242b"/></svg>