<svg xmlns="http://www.w3.org/2000/svg" width="25" height="11.651" viewBox="0 0 25 11.651"><path d="M-8.488-.525A3.7,3.7,0,0,0-7.206-.788V.723a3.68,3.68,0,0,1-.807.255,4.8,4.8,0,0,1-1.019.11q-2.327,0-2.327-2.1a5.338,5.338,0,0,1,.136-1.112l1.028-4.84H-11.57l.178-.934,1.613-.7,1.1-1.97h1.24l-.442,2.089h2.369l-.331,1.512H-8.2L-9.235-2.1a3.512,3.512,0,0,0-.11.781.8.8,0,0,0,.212.582A.867.867,0,0,0-8.488-.525Zm5.91,1.613A2.3,2.3,0,0,1-4.471.226a3.764,3.764,0,0,1-.7-2.424,8.66,8.66,0,0,1,.59-3.21A5.791,5.791,0,0,1-2.951-7.773a3.46,3.46,0,0,1,2.276-.87,2.545,2.545,0,0,1,1.418.386,2.535,2.535,0,0,1,.926,1.125h.085L2.28-8.474H3.808L1.8.918H.259L.437-.576H.386A3.812,3.812,0,0,1-2.577,1.088Zm.73-1.613A1.968,1.968,0,0,0-.48-1.183a4.971,4.971,0,0,0,1.1-1.762,6.547,6.547,0,0,0,.433-2.412,1.755,1.755,0,0,0-.4-1.2A1.324,1.324,0,0,0-.387-7.013a1.886,1.886,0,0,0-1.359.654A4.652,4.652,0,0,0-2.764-4.58a7.2,7.2,0,0,0-.382,2.331A2.045,2.045,0,0,0-2.8-.954,1.156,1.156,0,0,0-1.847-.525ZM10.067.918l1.206-5.707A6.416,6.416,0,0,0,11.426-5.9a.976.976,0,0,0-1.1-1.112,1.9,1.9,0,0,0-1.206.484,4.379,4.379,0,0,0-1.07,1.4,7.906,7.906,0,0,0-.713,2.068L6.509.918h-2l2-9.392H8.071L7.893-6.733h.076A5.088,5.088,0,0,1,9.422-8.189a3.065,3.065,0,0,1,1.622-.454A2.337,2.337,0,0,1,12.806-8a2.531,2.531,0,0,1,.624,1.834,8.018,8.018,0,0,1-.2,1.537L12.071.918Z" transform="translate(11.57 10.563)" fill="#22242b"/></svg>