<svg xmlns="http://www.w3.org/2000/svg" width="24.18" height="11.685" viewBox="0 0 24.18 11.685"><path d="M-7.007,1.123A3.54,3.54,0,0,1-9.6.22a3.454,3.454,0,0,1-.92-2.581A7.978,7.978,0,0,1-9.89-5.567,5.294,5.294,0,0,1-8.131-7.824a4.3,4.3,0,0,1,2.572-.813,6,6,0,0,1,2.53.52l-.6,1.567A4.785,4.785,0,0,0-5.508-7,2.494,2.494,0,0,0-7.637-5.695a5.8,5.8,0,0,0-.852,3.232,2.055,2.055,0,0,0,.477,1.456A1.717,1.717,0,0,0-6.691-.5a3.63,3.63,0,0,0,1.18-.187,9.284,9.284,0,0,0,1.1-.46V.518A5.66,5.66,0,0,1-7.007,1.123ZM3.98-5.026a2.207,2.207,0,0,0-.417-1.427,1.446,1.446,0,0,0-1.192-.515,1.982,1.982,0,0,0-1.418.609A4.015,4.015,0,0,0-.018-4.707,7.051,7.051,0,0,0-.363-2.48,2.2,2.2,0,0,0,.058-1.032a1.536,1.536,0,0,0,1.248.5,1.96,1.96,0,0,0,1.38-.579A3.808,3.808,0,0,0,3.64-2.731,7.361,7.361,0,0,0,3.98-5.026ZM6-4.941a7.673,7.673,0,0,1-.622,3.13A5.016,5.016,0,0,1,3.67.352a4.276,4.276,0,0,1-2.5.754,3.484,3.484,0,0,1-2.6-.975A3.612,3.612,0,0,1-2.39-2.522a7.777,7.777,0,0,1,.609-3.109,5.127,5.127,0,0,1,1.708-2.2,4.243,4.243,0,0,1,2.538-.788,3.408,3.408,0,0,1,2.6.988A3.752,3.752,0,0,1,6-4.941ZM10.683-.5a3.712,3.712,0,0,0,1.286-.264V.757a3.691,3.691,0,0,1-.809.256,4.814,4.814,0,0,1-1.022.111Q7.8,1.123,7.8-.981A5.354,5.354,0,0,1,7.941-2.1L8.971-6.951H7.592l.179-.937,1.618-.7,1.1-1.976h1.243l-.443,2.1h2.376l-.332,1.516H10.973L9.934-2.079a3.522,3.522,0,0,0-.111.784.8.8,0,0,0,.213.583A.87.87,0,0,0,10.683-.5Z" transform="translate(10.516 10.563)" fill="#22242b"/></svg>