<svg xmlns="http://www.w3.org/2000/svg" width="25.866" height="9.792" viewBox="0 0 25.866 9.792"><path d="M7.784-2.692A2.473,2.473,0,0,1,6.776-.568,4.828,4.828,0,0,1,3.888.171,6.822,6.822,0,0,1,.854-.4V-2.136a7.447,7.447,0,0,0,3.1.769q1.854,0,1.854-1.119a.887.887,0,0,0-.205-.6,2.427,2.427,0,0,0-.675-.5,11.617,11.617,0,0,0-1.307-.581A6.048,6.048,0,0,1,1.414-5.426,2.34,2.34,0,0,1,.837-7.067a2.155,2.155,0,0,1,.978-1.884,4.643,4.643,0,0,1,2.662-.671,7.539,7.539,0,0,1,3.153.675L6.981-7.434a7.013,7.013,0,0,0-2.572-.632q-1.589,0-1.589.906a.911.911,0,0,0,.414.752,9.114,9.114,0,0,0,1.807.846,8.261,8.261,0,0,1,1.7.829,2.477,2.477,0,0,1,.786.867A2.51,2.51,0,0,1,7.784-2.692Zm6.3,2.863a4.572,4.572,0,0,1-3.448-1.286A4.882,4.882,0,0,1,9.391-4.657,5.356,5.356,0,0,1,10.544-8.3a3.984,3.984,0,0,1,3.17-1.324,3.894,3.894,0,0,1,2.957,1.136,4.343,4.343,0,0,1,1.085,3.127v1.085h-6.3A3.1,3.1,0,0,0,12.2-2.158a2.589,2.589,0,0,0,1.974.739,7.287,7.287,0,0,0,1.559-.158A8.174,8.174,0,0,0,17.286-2.1V-.47a6.165,6.165,0,0,1-1.487.5A9.117,9.117,0,0,1,14.082.171ZM13.715-8.1a2.017,2.017,0,0,0-1.534.607,2.891,2.891,0,0,0-.688,1.769h4.29A2.616,2.616,0,0,0,15.219-7.5,1.929,1.929,0,0,0,13.715-8.1ZM23.849.171a4.138,4.138,0,0,1-3.26-1.252,5.23,5.23,0,0,1-1.115-3.593A5.26,5.26,0,0,1,20.64-8.34a4.327,4.327,0,0,1,3.371-1.282,6.318,6.318,0,0,1,2.692.555L26.1-7.451a6.082,6.082,0,0,0-2.1-.5q-2.452,0-2.452,3.256A3.9,3.9,0,0,0,22.153-2.3a2.115,2.115,0,0,0,1.79.8,5.136,5.136,0,0,0,2.538-.667V-.419a3.966,3.966,0,0,1-1.149.453A6.9,6.9,0,0,1,23.849.171Z" transform="translate(-0.837 9.622)" fill="#22242b"/></svg>