<svg xmlns="http://www.w3.org/2000/svg" width="24.413" height="9.792" viewBox="0 0 24.413 9.792"><path d="M5.247.171a4.138,4.138,0,0,1-3.26-1.252A5.23,5.23,0,0,1,.872-4.674,5.26,5.26,0,0,1,2.038-8.34,4.327,4.327,0,0,1,5.409-9.622,6.318,6.318,0,0,1,8.1-9.066L7.494-7.451a6.082,6.082,0,0,0-2.1-.5q-2.452,0-2.452,3.256A3.9,3.9,0,0,0,3.55-2.3a2.115,2.115,0,0,0,1.79.8A5.136,5.136,0,0,0,7.878-2.17V-.419A3.966,3.966,0,0,1,6.729.034,6.9,6.9,0,0,1,5.247.171Zm11.2-2.863A2.473,2.473,0,0,1,15.441-.568a4.828,4.828,0,0,1-2.888.739A6.822,6.822,0,0,1,9.519-.4V-2.136a7.447,7.447,0,0,0,3.1.769q1.854,0,1.854-1.119a.887.887,0,0,0-.205-.6,2.427,2.427,0,0,0-.675-.5,11.617,11.617,0,0,0-1.307-.581,6.048,6.048,0,0,1-2.209-1.265A2.34,2.34,0,0,1,9.5-7.067a2.155,2.155,0,0,1,.978-1.884,4.643,4.643,0,0,1,2.662-.671,7.539,7.539,0,0,1,3.153.675l-.649,1.512a7.013,7.013,0,0,0-2.572-.632q-1.589,0-1.589.906a.911.911,0,0,0,.414.752,9.114,9.114,0,0,0,1.807.846,8.261,8.261,0,0,1,1.7.829,2.477,2.477,0,0,1,.786.867A2.51,2.51,0,0,1,16.449-2.692ZM22.43.171a4.138,4.138,0,0,1-3.26-1.252,5.23,5.23,0,0,1-1.115-3.593A5.26,5.26,0,0,1,19.222-8.34a4.327,4.327,0,0,1,3.371-1.282,6.318,6.318,0,0,1,2.692.555l-.607,1.615a6.082,6.082,0,0,0-2.1-.5q-2.452,0-2.452,3.256A3.9,3.9,0,0,0,20.734-2.3a2.115,2.115,0,0,0,1.79.8,5.136,5.136,0,0,0,2.538-.667V-.419a3.966,3.966,0,0,1-1.149.453A6.9,6.9,0,0,1,22.43.171Z" transform="translate(-0.871 9.622)" fill="#22242b"/></svg>