<svg xmlns="http://www.w3.org/2000/svg" width="35.063" height="39.319" viewBox="0 0 35.063 39.319"><g transform="translate(-978.378 -324)"><g transform="translate(995.324 346.358)" fill="none" stroke-dasharray="2 1"><path d="M0,0H10.793V16.961H0Z" stroke="none"/><path d="M 3.000001907348633 -1.9073486328125e-06 L 5.000001907348633 -1.9073486328125e-06 L 5.000001907348633 0.9999990463256836 L 3.000001907348633 0.9999990463256836 L 3.000001907348633 -1.9073486328125e-06 Z M 6.000001907348633 -1.9073486328125e-06 L 8.000001907348633 -1.9073486328125e-06 L 8.000001907348633 0.9999990463256836 L 6.000001907348633 0.9999990463256836 L 6.000001907348633 -1.9073486328125e-06 Z M 9.000001907348633 -1.9073486328125e-06 L 10.79332160949707 -1.9073486328125e-06 L 10.79332160949707 0.9999990463256836 L 9.000001907348633 0.9999990463256836 L 9.000001907348633 -1.9073486328125e-06 Z M 9.79332160949707 1.20667839050293 L 10.79332160949707 1.20667839050293 C 10.79332160949707 1.20667839050293 10.79332160949707 3.20667839050293 10.79332160949707 3.20667839050293 L 9.79332160949707 3.20667839050293 L 9.79332160949707 1.20667839050293 Z M 9.79332160949707 4.20667839050293 L 10.79332160949707 4.20667839050293 C 10.79332160949707 4.20667839050293 10.79332160949707 6.20667839050293 10.79332160949707 6.20667839050293 L 9.79332160949707 6.20667839050293 L 9.79332160949707 4.20667839050293 Z M 9.79332160949707 7.20667839050293 L 10.79332160949707 7.20667839050293 C 10.79332160949707 7.20667839050293 10.79332160949707 9.20667839050293 10.79332160949707 9.20667839050293 L 9.79332160949707 9.20667839050293 L 9.79332160949707 7.20667839050293 Z M 9.79332160949707 10.20667839050293 L 10.79332160949707 10.20667839050293 C 10.79332160949707 10.20667839050293 10.79332160949707 12.20667839050293 10.79332160949707 12.20667839050293 L 9.79332160949707 12.20667839050293 L 9.79332160949707 10.20667839050293 Z M 9.79332160949707 13.20667839050293 L 10.79332160949707 13.20667839050293 C 10.79332160949707 13.20667839050293 10.79332160949707 15.20667839050293 10.79332160949707 15.20667839050293 L 9.79332160949707 15.20667839050293 L 9.79332160949707 13.20667839050293 Z M 9.547581672668457 15.96093845367432 L 10.79332160949707 15.96093845367432 L 10.79332160949707 16.20667839050293 L 10.79332160949707 16.20667839050293 L 10.79332160949707 15.96093845367432 L 10.79332160949707 16.20667839050293 L 10.79332160949707 16.20667839050293 C 10.79332160949707 16.20667839050293 10.79332160949707 16.96093940734863 10.79332160949707 16.96093940734863 L 9.79332160949707 16.96093940734863 L 9.79332160949707 16.96093940734863 L 9.79332160949707 16.96093940734863 L 9.79332160949707 16.96093940734863 L 9.79332160949707 16.96093940734863 C 9.648698806762695 16.96093940734863 9.547581672668457 16.96093940734863 9.547581672668457 16.96093940734863 L 9.547581672668457 15.96093845367432 Z M 6.547581672668457 15.96093845367432 L 8.547581672668457 15.96093845367432 L 8.547581672668457 16.96093940734863 C 8.547581672668457 16.96093940734863 6.547581672668457 16.96093940734863 6.547581672668457 16.96093940734863 L 6.547581672668457 15.96093845367432 Z M 3.547581672668457 15.96093845367432 L 5.547581672668457 15.96093845367432 L 5.547581672668457 16.96093940734863 C 5.547581672668457 16.96093940734863 3.547581672668457 16.96093940734863 3.547581672668457 16.96093940734863 L 3.547581672668457 15.96093845367432 Z M 1.9073486328125e-06 14.50851821899414 L 1.000001907348633 14.50851821899414 L 1.000001907348633 15.96093845367432 L 2.547581672668457 15.96093845367432 L 2.547581672668457 16.96093940734863 C 2.547581672668457 16.96093940734863 0.547581672668457 16.96093940734863 0.547581672668457 16.96093940734863 L 0.547581672668457 16.50851821899414 L 1.9073486328125e-06 16.50851821899414 L 1.9073486328125e-06 14.50851821899414 Z M 1.9073486328125e-06 11.50851821899414 L 1.000001907348633 11.50851821899414 L 1.000001907348633 13.50851821899414 L 1.9073486328125e-06 13.50851821899414 L 1.9073486328125e-06 11.50851821899414 Z M 1.9073486328125e-06 8.508519172668457 L 1.000001907348633 8.508519172668457 L 1.000001907348633 10.50851821899414 L 1.9073486328125e-06 10.50851821899414 L 1.9073486328125e-06 8.508519172668457 Z M 1.9073486328125e-06 5.508519172668457 L 1.000001907348633 5.508519172668457 L 1.000001907348633 7.508519172668457 L 1.9073486328125e-06 7.508519172668457 L 1.9073486328125e-06 5.508519172668457 Z M 1.9073486328125e-06 2.508519172668457 L 1.000001907348633 2.508519172668457 L 1.000001907348633 4.508519172668457 L 1.9073486328125e-06 4.508519172668457 L 1.9073486328125e-06 2.508519172668457 Z M 1.9073486328125e-06 -1.9073486328125e-06 L 2.000001907348633 -1.9073486328125e-06 L 2.000001907348633 0.9999990463256836 L 1.000001907348633 0.9999990463256836 L 1.000001907348633 1.508519172668457 L 1.9073486328125e-06 1.508519172668457 L 1.9073486328125e-06 -1.9073486328125e-06 Z" stroke="none" fill="#1ab395"/></g><g transform="translate(995.324 324)" fill="none" stroke-dasharray="2 1"><path d="M0,0H10.793V16.961H0Z" stroke="none"/><path d="M 3.000001907348633 -1.9073486328125e-06 L 5.000001907348633 -1.9073486328125e-06 L 5.000001907348633 0.9999990463256836 L 3.000001907348633 0.9999990463256836 L 3.000001907348633 -1.9073486328125e-06 Z M 6.000001907348633 -1.9073486328125e-06 L 8.000001907348633 -1.9073486328125e-06 L 8.000001907348633 0.9999990463256836 L 6.000001907348633 0.9999990463256836 L 6.000001907348633 -1.9073486328125e-06 Z M 9.000001907348633 -1.9073486328125e-06 L 10.79332160949707 -1.9073486328125e-06 L 10.79332160949707 0.9999990463256836 L 9.000001907348633 0.9999990463256836 L 9.000001907348633 -1.9073486328125e-06 Z M 9.79332160949707 1.20667839050293 L 10.79332160949707 1.20667839050293 C 10.79332160949707 1.20667839050293 10.79332160949707 3.20667839050293 10.79332160949707 3.20667839050293 L 9.79332160949707 3.20667839050293 L 9.79332160949707 1.20667839050293 Z M 9.79332160949707 4.20667839050293 L 10.79332160949707 4.20667839050293 C 10.79332160949707 4.20667839050293 10.79332160949707 6.20667839050293 10.79332160949707 6.20667839050293 L 9.79332160949707 6.20667839050293 L 9.79332160949707 4.20667839050293 Z M 9.79332160949707 7.20667839050293 L 10.79332160949707 7.20667839050293 C 10.79332160949707 7.20667839050293 10.79332160949707 9.20667839050293 10.79332160949707 9.20667839050293 L 9.79332160949707 9.20667839050293 L 9.79332160949707 7.20667839050293 Z M 9.79332160949707 10.20667839050293 L 10.79332160949707 10.20667839050293 C 10.79332160949707 10.20667839050293 10.79332160949707 12.20667839050293 10.79332160949707 12.20667839050293 L 9.79332160949707 12.20667839050293 L 9.79332160949707 10.20667839050293 Z M 9.79332160949707 13.20667839050293 L 10.79332160949707 13.20667839050293 C 10.79332160949707 13.20667839050293 10.79332160949707 15.20667839050293 10.79332160949707 15.20667839050293 L 9.79332160949707 15.20667839050293 L 9.79332160949707 13.20667839050293 Z M 9.547581672668457 15.96093845367432 L 10.79332160949707 15.96093845367432 L 10.79332160949707 16.20667839050293 L 10.79332160949707 16.20667839050293 L 10.79332160949707 15.96093845367432 L 10.79332160949707 16.20667839050293 L 10.79332160949707 16.20667839050293 C 10.79332160949707 16.20667839050293 10.79332160949707 16.96093940734863 10.79332160949707 16.96093940734863 L 9.79332160949707 16.96093940734863 L 9.79332160949707 16.96093940734863 L 9.79332160949707 16.96093940734863 L 9.79332160949707 16.96093940734863 L 9.79332160949707 16.96093940734863 C 9.648698806762695 16.96093940734863 9.547581672668457 16.96093940734863 9.547581672668457 16.96093940734863 L 9.547581672668457 15.96093845367432 Z M 6.547581672668457 15.96093845367432 L 8.547581672668457 15.96093845367432 L 8.547581672668457 16.96093940734863 C 8.547581672668457 16.96093940734863 6.547581672668457 16.96093940734863 6.547581672668457 16.96093940734863 L 6.547581672668457 15.96093845367432 Z M 3.547581672668457 15.96093845367432 L 5.547581672668457 15.96093845367432 L 5.547581672668457 16.96093940734863 C 5.547581672668457 16.96093940734863 3.547581672668457 16.96093940734863 3.547581672668457 16.96093940734863 L 3.547581672668457 15.96093845367432 Z M 1.9073486328125e-06 14.50851821899414 L 1.000001907348633 14.50851821899414 L 1.000001907348633 15.96093845367432 L 2.547581672668457 15.96093845367432 L 2.547581672668457 16.96093940734863 C 2.547581672668457 16.96093940734863 0.547581672668457 16.96093940734863 0.547581672668457 16.96093940734863 L 0.547581672668457 16.50851821899414 L 1.9073486328125e-06 16.50851821899414 L 1.9073486328125e-06 14.50851821899414 Z M 1.9073486328125e-06 11.50851821899414 L 1.000001907348633 11.50851821899414 L 1.000001907348633 13.50851821899414 L 1.9073486328125e-06 13.50851821899414 L 1.9073486328125e-06 11.50851821899414 Z M 1.9073486328125e-06 8.508519172668457 L 1.000001907348633 8.508519172668457 L 1.000001907348633 10.50851821899414 L 1.9073486328125e-06 10.50851821899414 L 1.9073486328125e-06 8.508519172668457 Z M 1.9073486328125e-06 5.508519172668457 L 1.000001907348633 5.508519172668457 L 1.000001907348633 7.508519172668457 L 1.9073486328125e-06 7.508519172668457 L 1.9073486328125e-06 5.508519172668457 Z M 1.9073486328125e-06 2.508519172668457 L 1.000001907348633 2.508519172668457 L 1.000001907348633 4.508519172668457 L 1.9073486328125e-06 4.508519172668457 L 1.9073486328125e-06 2.508519172668457 Z M 1.9073486328125e-06 -1.9073486328125e-06 L 2.000001907348633 -1.9073486328125e-06 L 2.000001907348633 0.9999990463256836 L 1.000001907348633 0.9999990463256836 L 1.000001907348633 1.508519172668457 L 1.9073486328125e-06 1.508519172668457 L 1.9073486328125e-06 -1.9073486328125e-06 Z" stroke="none" fill="#1ab395"/></g><path d="M0,0H35.063" transform="translate(978.378 343.659)" fill="none" stroke="#22242b" stroke-width="1"/><path d="M9.536-7.93a11.857,11.857,0,0,1-.722,4.208A6.668,6.668,0,0,1,6.879-.816,4.29,4.29,0,0,1,4.093.171,3.239,3.239,0,0,1,1.671-.7,3.565,3.565,0,0,1,.82-3.29a6.593,6.593,0,0,1,.611-2.794,4.688,4.688,0,0,1,1.611-2,4.029,4.029,0,0,1,2.3-.671,2.547,2.547,0,0,1,2.153,1,4.208,4.208,0,0,0-.568-2.405,1.839,1.839,0,0,0-1.6-.816,4.08,4.08,0,0,0-1.107.171,4.278,4.278,0,0,0-1.158.53v-1.735A5.572,5.572,0,0,1,4.3-12.467a5.6,5.6,0,0,1,1.354-.171,3.568,3.568,0,0,1,2.875,1.179A5.329,5.329,0,0,1,9.536-7.93ZM4.221-1.47a2.339,2.339,0,0,0,1.9-1.2A7.84,7.84,0,0,0,7.28-5.913a2,2,0,0,0-.662-.927,1.6,1.6,0,0,0-1-.355,2.049,2.049,0,0,0-1.342.487A3.391,3.391,0,0,0,3.32-5.294a5.26,5.26,0,0,0-.363,1.935Q2.957-1.47,4.221-1.47Z" transform="translate(981.377 340)" fill="#22242b"/><path d="M9.536-7.93a11.857,11.857,0,0,1-.722,4.208A6.668,6.668,0,0,1,6.879-.816,4.29,4.29,0,0,1,4.093.171,3.239,3.239,0,0,1,1.671-.7,3.565,3.565,0,0,1,.82-3.29a6.593,6.593,0,0,1,.611-2.794,4.688,4.688,0,0,1,1.611-2,4.029,4.029,0,0,1,2.3-.671,2.547,2.547,0,0,1,2.153,1,4.208,4.208,0,0,0-.568-2.405,1.839,1.839,0,0,0-1.6-.816,4.08,4.08,0,0,0-1.107.171,4.278,4.278,0,0,0-1.158.53v-1.735A5.572,5.572,0,0,1,4.3-12.467a5.6,5.6,0,0,1,1.354-.171,3.568,3.568,0,0,1,2.875,1.179A5.329,5.329,0,0,1,9.536-7.93ZM4.221-1.47a2.339,2.339,0,0,0,1.9-1.2A7.84,7.84,0,0,0,7.28-5.913a2,2,0,0,0-.662-.927,1.6,1.6,0,0,0-1-.355,2.049,2.049,0,0,0-1.342.487A3.391,3.391,0,0,0,3.32-5.294a5.26,5.26,0,0,0-.363,1.935Q2.957-1.47,4.221-1.47Z" transform="translate(981.377 361)" fill="#22242b"/></g></svg>