<svg xmlns="http://www.w3.org/2000/svg" width="34.569" height="21.477" viewBox="0 0 34.569 21.477"><g transform="translate(-426.091 -486.324)"><path d="M-9.853,0h-2.057l2.9-13.676h2.065ZM.026-6.17A2.277,2.277,0,0,0-.4-7.642a1.492,1.492,0,0,0-1.23-.532A2.045,2.045,0,0,0-3.1-7.545a4.144,4.144,0,0,0-1,1.705,7.276,7.276,0,0,0-.356,2.3,2.266,2.266,0,0,0,.435,1.494,1.585,1.585,0,0,0,1.288.519,2.022,2.022,0,0,0,1.424-.6A3.93,3.93,0,0,0-.325-3.8,7.6,7.6,0,0,0,.026-6.17Zm2.083.088a7.918,7.918,0,0,1-.642,3.23A5.177,5.177,0,0,1-.294-.62a4.413,4.413,0,0,1-2.58.778A3.6,3.6,0,0,1-5.555-.848a3.727,3.727,0,0,1-.993-2.738,8.025,8.025,0,0,1,.628-3.208A5.291,5.291,0,0,1-4.157-9.066a4.379,4.379,0,0,1,2.619-.813,3.517,3.517,0,0,1,2.681,1.02A3.871,3.871,0,0,1,2.109-6.082ZM12.99-9.721l-.272,1.2-1.687.29a2.743,2.743,0,0,1,.246,1.2A3.547,3.547,0,0,1,10.23-4.329a3.894,3.894,0,0,1-2.8,1,4.154,4.154,0,0,1-.809-.07q-.976.352-.976.914a.455.455,0,0,0,.277.457,3.068,3.068,0,0,0,.8.193L7.84-1.7a4.221,4.221,0,0,1,2.215.769A2.057,2.057,0,0,1,10.723.721,3.072,3.072,0,0,1,9.4,3.384a6.459,6.459,0,0,1-3.771.94,4.924,4.924,0,0,1-2.764-.659,2.07,2.07,0,0,1-.98-1.811A2.224,2.224,0,0,1,2.492.29,4.7,4.7,0,0,1,4.456-.826a1.235,1.235,0,0,1-.668-1.116A1.5,1.5,0,0,1,4.2-2.993,4.156,4.156,0,0,1,5.484-3.85,2.4,2.4,0,0,1,4.3-6.064,3.713,3.713,0,0,1,5.375-8.842,3.888,3.888,0,0,1,8.218-9.9a5.779,5.779,0,0,1,1.406.176ZM5.792-.158A2.948,2.948,0,0,0,4.28.466a1.476,1.476,0,0,0-.527,1.151,1.054,1.054,0,0,0,.488.91,2.635,2.635,0,0,0,1.49.338,4.442,4.442,0,0,0,2.241-.475A1.5,1.5,0,0,0,8.78,1.028a.8.8,0,0,0-.4-.7A3.407,3.407,0,0,0,7-.035ZM8.165-8.517a1.575,1.575,0,0,0-1,.338,2.191,2.191,0,0,0-.668.923,3.368,3.368,0,0,0-.237,1.279,1.368,1.368,0,0,0,.312.962,1.153,1.153,0,0,0,.892.338,1.51,1.51,0,0,0,.989-.343,2.235,2.235,0,0,0,.65-.94,3.577,3.577,0,0,0,.233-1.31Q9.334-8.517,8.165-8.517Z" transform="translate(438 500)" fill="#22242b"/><path d="M-.264-3.779-3.242,0H-5.879L-1.24-5.557-3.5-10.8H-1.1L.3-7.158l2.8-3.643H5.781l-4.5,5.361L3.7,0H1.3Z" transform="translate(454.879 507.801)" fill="#22242b"/></g></svg>