<svg xmlns="http://www.w3.org/2000/svg" width="27.302" height="13" viewBox="0 0 27.302 13"><g transform="translate(-425.8 -368)"><path d="M.551-15.94,4.457-4.531H6.682l3.9-11.426v-1.2H.551ZM5.57-6.454Q5.2-7.946,4.914-8.765L2.707-15.388h5.7L6.225-8.8q-.2.552-.4,1.276T5.57-6.454Z" transform="translate(425.249 385.156)" fill="#22242b"/><g transform="translate(429 367.813)"><g transform="translate(11.102 0.188)" fill="none" stroke-dasharray="2 1"><path d="M0,0H13V13H0Z" stroke="none"/><path d="M 3 0 L 5 0 L 5 1 L 3 1 L 3 0 Z M 6 0 L 8 0 L 8 1 L 6 1 L 6 0 Z M 9 0 L 11 0 L 11 1 L 9 1 L 9 0 Z M 12 0 L 13 0 L 13 1 L 12 1 L 12 1 L 12 1 L 12 0 Z M 12 2 L 13 2 C 13 2 13 4 13 4 L 12 4 L 12 2 Z M 12 5 L 13 5 C 13 5 13 7 13 7 L 12 7 L 12 5 Z M 12 8 L 13 8 C 13 8 13 10 13 10 L 12 10 L 12 8 Z M 12 11 L 13 11 C 13 11 13 13 13 13 L 12 13 L 12 11 Z M 10 12 L 12 12 L 12 13 C 12 13 10 13 10 13 L 10 12 Z M 7 12 L 9 12 L 9 13 C 9 13 7 13 7 13 L 7 12 Z M 4 12 L 6 12 L 6 13 C 6 13 4 13 4 13 L 4 12 Z M 1 12 L 3 12 L 3 13 C 3 13 1 13 1 13 L 1 12 Z M 0 11 L 1 11 L 1 13 L 0 13 L 0 11 Z M 0 8 L 1 8 L 1 10 L 0 10 L 0 8 Z M 0 5 L 1 5 L 1 7 L 0 7 L 0 5 Z M 0 2 L 1 2 L 1 4 L 0 4 L 0 2 Z M 0 0 L 2 0 L 2 1 L 0 1 L 0 0 Z" stroke="none" fill="#1ab395"/></g></g></g></svg>