<svg xmlns="http://www.w3.org/2000/svg" width="27.302" height="13" viewBox="0 0 27.302 13"><path d="M.551-5.747,4.457-17.156H6.682L10.58-5.73v1.2H.551ZM5.57-15.233q-.371,1.492-.655,2.311L2.707-6.3h5.7L6.225-12.888q-.2-.552-.4-1.276T5.57-15.233Z" transform="translate(-0.551 17.531)" fill="#22242b"/><g transform="translate(14.302)"><g fill="none" stroke-dasharray="2 1"><path d="M0,13H13V0H0Z" stroke="none"/><path d="M 10 13 L 8 13 L 8 12 L 10 12 L 10 13 Z M 7 13 L 5 13 L 5 12 L 7 12 L 7 13 Z M 4 13 L 2 13 L 2 12 L 4 12 L 4 13 Z M 1 13 L -8.881784197001252e-16 13 L -8.881784197001252e-16 12 L 1 12 L 1 12 L 1 12 L 1 13 Z M 1 11 L -8.881784197001252e-16 11 C -8.881784197001252e-16 11 -8.881784197001252e-16 9 -8.881784197001252e-16 9 L 1 9 L 1 11 Z M 1 8 L -8.881784197001252e-16 8 C -8.881784197001252e-16 8 -8.881784197001252e-16 6 -8.881784197001252e-16 6 L 1 6 L 1 8 Z M 1 5 L -8.881784197001252e-16 5 C -8.881784197001252e-16 5 -8.881784197001252e-16 3 -8.881784197001252e-16 3 L 1 3 L 1 5 Z M 1 2 L -8.881784197001252e-16 2 C -8.881784197001252e-16 2 -8.881784197001252e-16 -8.881784197001252e-16 -8.881784197001252e-16 -8.881784197001252e-16 L 1 -8.881784197001252e-16 L 1 2 Z M 3 1 L 1 1 L 1 -8.881784197001252e-16 C 1 -8.881784197001252e-16 3 -8.881784197001252e-16 3 -8.881784197001252e-16 L 3 1 Z M 6 1 L 4 1 L 4 -8.881784197001252e-16 C 4 -8.881784197001252e-16 6 -8.881784197001252e-16 6 -8.881784197001252e-16 L 6 1 Z M 9 1 L 7 1 L 7 -8.881784197001252e-16 C 7 -8.881784197001252e-16 9 -8.881784197001252e-16 9 -8.881784197001252e-16 L 9 1 Z M 12 1 L 10 1 L 10 -8.881784197001252e-16 C 10 -8.881784197001252e-16 12 -8.881784197001252e-16 12 -8.881784197001252e-16 L 12 1 Z M 13 2 L 12 2 L 12 -8.881784197001252e-16 L 13 -8.881784197001252e-16 L 13 2 Z M 13 5 L 12 5 L 12 3 L 13 3 L 13 5 Z M 13 8 L 12 8 L 12 6 L 13 6 L 13 8 Z M 13 11 L 12 11 L 12 9 L 13 9 L 13 11 Z M 13 13 L 11 13 L 11 12 L 13 12 L 13 13 Z" stroke="none" fill="#1ab395"/></g></g></svg>