<svg xmlns="http://www.w3.org/2000/svg" width="16.68" height="27.672" viewBox="0 0 16.68 27.672"><path d="M11.553-19.127q-2.324,0-2.324,2.967V1.914a5.3,5.3,0,0,1-.342,1.941,4.437,4.437,0,0,1-.937,1.49A4.179,4.179,0,0,1,6.535,6.3a4.539,4.539,0,0,1-1.764.342,4.061,4.061,0,0,1-1.627-.26V4.375a3.129,3.129,0,0,0,1.49.355q2.352,0,2.352-2.967V-16.27a5.373,5.373,0,0,1,.349-1.989,4.453,4.453,0,0,1,.95-1.5A4.117,4.117,0,0,1,9.693-20.7a4.564,4.564,0,0,1,1.736-.328,4.44,4.44,0,0,1,1.641.246v2.023A3.043,3.043,0,0,0,11.553-19.127Zm6.754,0q-2.324,0-2.324,2.967V1.914a5.3,5.3,0,0,1-.342,1.941,4.437,4.437,0,0,1-.937,1.49,4.179,4.179,0,0,1-1.415.957,4.539,4.539,0,0,1-1.764.342A4.061,4.061,0,0,1,9.9,6.385V4.375a3.129,3.129,0,0,0,1.49.355q2.352,0,2.352-2.967V-16.27a5.373,5.373,0,0,1,.349-1.989,4.453,4.453,0,0,1,.95-1.5,4.117,4.117,0,0,1,1.408-.943,4.564,4.564,0,0,1,1.736-.328,4.44,4.44,0,0,1,1.641.246v2.023A3.043,3.043,0,0,0,18.307-19.127Z" transform="translate(-3.145 21.027)" fill="#22242b"/></svg>