<svg xmlns="http://www.w3.org/2000/svg" width="13.699" height="27.672" viewBox="0 0 13.699 27.672"><path d="M6.569-7.67a5.556,5.556,0,0,1-.431,2.235,5.1,5.1,0,0,1-1.2,1.709A5.967,5.967,0,0,1,3.117-2.57,8.414,8.414,0,0,1,.813-2v3.91A5.3,5.3,0,0,1,.472,3.855a4.437,4.437,0,0,1-.937,1.49A4.179,4.179,0,0,1-1.88,6.3a4.539,4.539,0,0,1-1.764.342,4.061,4.061,0,0,1-1.627-.26V4.375a3.129,3.129,0,0,0,1.49.355q2.352,0,2.352-2.967V-2a7.954,7.954,0,0,1-2.3-.588A5.966,5.966,0,0,1-5.53-3.76,5.2,5.2,0,0,1-6.706-5.469a5.512,5.512,0,0,1-.424-2.2,5.229,5.229,0,0,1,.417-2.1,5.384,5.384,0,0,1,1.162-1.7,6.022,6.022,0,0,1,1.8-1.21,8.229,8.229,0,0,1,2.324-.636V-16.27a5.373,5.373,0,0,1,.349-1.989,4.453,4.453,0,0,1,.95-1.5A4.117,4.117,0,0,1,1.278-20.7a4.564,4.564,0,0,1,1.736-.328,4.44,4.44,0,0,1,1.641.246v2.023a3.043,3.043,0,0,0-1.518-.369q-2.324,0-2.324,2.967v2.816a7.914,7.914,0,0,1,2.372.6A5.988,5.988,0,0,1,5-11.539,5.181,5.181,0,0,1,6.159-9.816,5.526,5.526,0,0,1,6.569-7.67Zm-2.3.027A3.485,3.485,0,0,0,3.356-10.2,4,4,0,0,0,.813-11.293V-4.02A3.87,3.87,0,0,0,3.391-5.072,3.555,3.555,0,0,0,4.272-7.643Zm-9.105-.082a3.6,3.6,0,0,0,.875,2.536A3.912,3.912,0,0,0-1.429-4.047v-7.26A3.854,3.854,0,0,0-3.951-10.24,3.476,3.476,0,0,0-4.833-7.725Z" transform="translate(7.13 21.027)" fill="#22242b"/></svg>