<svg xmlns="http://www.w3.org/2000/svg" width="20.139" height="27.672" viewBox="0 0 20.139 27.672"><path d="M6.59-19.127q-2.324,0-2.324,2.967v3.2a11.541,11.541,0,0,1,2.311.786A6.665,6.665,0,0,1,8.313-11.02,4.8,4.8,0,0,1,9.406-9.509,4.385,4.385,0,0,1,9.789-7.67a4.752,4.752,0,0,1-.4,2.01A4.517,4.517,0,0,1,8.251-4.143a6.565,6.565,0,0,1-1.743,1.08,11.764,11.764,0,0,1-2.242.7V1.914a5.3,5.3,0,0,1-.342,1.941,4.437,4.437,0,0,1-.937,1.49A4.179,4.179,0,0,1,1.572,6.3a4.539,4.539,0,0,1-1.764.342,4.061,4.061,0,0,1-1.627-.26V4.375a3.129,3.129,0,0,0,1.49.355q2.352,0,2.352-2.967v-3.8q-.574.055-1.176.075t-1.217.021q-.561,0-1.08-.014T-2.488-2.01V1.914A5.3,5.3,0,0,1-2.83,3.855a4.437,4.437,0,0,1-.937,1.49A4.179,4.179,0,0,1-5.182,6.3a4.539,4.539,0,0,1-1.764.342,4.061,4.061,0,0,1-1.627-.26V4.375a3.129,3.129,0,0,0,1.49.355q2.352,0,2.352-2.967V-2.311a11.536,11.536,0,0,1-2.29-.684A6.488,6.488,0,0,1-8.791-4.081,4.588,4.588,0,0,1-9.939-5.619a4.845,4.845,0,0,1-.41-2.051,4.446,4.446,0,0,1,.424-1.976A4.659,4.659,0,0,1-8.75-11.156a6.85,6.85,0,0,1,1.777-1.08,12.188,12.188,0,0,1,2.242-.7V-16.27a5.373,5.373,0,0,1,.349-1.989,4.453,4.453,0,0,1,.95-1.5A4.117,4.117,0,0,1-2.023-20.7a4.564,4.564,0,0,1,1.736-.328,4.44,4.44,0,0,1,1.641.246v2.023a3.043,3.043,0,0,0-1.518-.369q-2.324,0-2.324,2.967v2.885A24.316,24.316,0,0,1-.014-13.4q.533,0,1.039.021t1,.075V-16.27a5.373,5.373,0,0,1,.349-1.989,4.453,4.453,0,0,1,.95-1.5A4.117,4.117,0,0,1,4.73-20.7a4.564,4.564,0,0,1,1.736-.328,4.44,4.44,0,0,1,1.641.246v2.023A3.043,3.043,0,0,0,6.59-19.127ZM-.287-3.678Q.355-3.678.93-3.7t1.094-.075v-7.766a21.49,21.49,0,0,0-2.393-.123q-.588,0-1.114.021t-1,.075v7.793q.506.055,1.046.075T-.287-3.678ZM-8.053-7.725a3.211,3.211,0,0,0,.786,2.16A4.99,4.99,0,0,0-4.73-4.17V-11.2A5.1,5.1,0,0,0-7.26-9.851,3.069,3.069,0,0,0-8.053-7.725Zm15.545.082a3.066,3.066,0,0,0-.786-2.112,5.084,5.084,0,0,0-2.44-1.36v6.959A4.891,4.891,0,0,0,6.727-5.5,3.151,3.151,0,0,0,7.492-7.643Z" transform="translate(10.35 21.027)" fill="#22242b"/></svg>