<svg xmlns="http://www.w3.org/2000/svg" width="10.861" height="42.086" viewBox="0 0 10.861 42.086"><defs><style>.a{fill:#22242b;}.b{fill:#1ab395;}</style></defs><g transform="translate(-433 -289)"><path class="a" d="M9.554,4.192V-11.03H3.744V4.192H1.6V-12.85H11.7V4.192Z" transform="translate(432 314)"/><path class="b" d="M0,0H2V1H1V2.894H0ZM3,0H5V1H3ZM6,0H8V1H6ZM9,0h1.861V1H9Zm.861,1.139h1v2h-1Zm0,3h1v2h-1Zm0,3h1v2h-.053v.947h-2v-1H9.861ZM5.808,9.086h2v1h-2Zm-3,0h2v1h-2ZM0,9.086H1.808v1H0ZM0,6.894H1v2H0Zm0-3H1v2H0Z" transform="translate(433 321)"/><path class="b" d="M0,0H2V1H1V2.894H0ZM3,0H5V1H3ZM6,0H8V1H6ZM9,0h1.861V1H9Zm.861,1.139h1v2h-1Zm0,3h1v2h-1Zm0,3h1v2h-.053v.947h-2v-1H9.861ZM5.808,9.086h2v1h-2Zm-3,0h2v1h-2ZM0,9.086H1.808v1H0ZM0,6.894H1v2H0Zm0-3H1v2H0Z" transform="translate(433 289)"/></g></svg>