<svg xmlns="http://www.w3.org/2000/svg" width="11.221" height="31.363" viewBox="0 0 11.221 31.363"><defs><style>.a{fill:#22242b;}.b{fill:#1ab395;}</style></defs><g transform="translate(-432.777 -299.723)"><path class="a" d="M10.615,4.658V-12.256H4.16V4.658H1.777V-14.277H13V4.658Z" transform="translate(431 314)"/><path class="b" d="M0,0H2V1H1V2.894H0ZM3,0H5V1H3ZM6,0H8V1H6ZM9,0h1.861V1H9Zm.861,1.139h1v2h-1Zm0,3h1v2h-1Zm0,3h1v2h-.053v.947h-2v-1H9.861ZM5.808,9.086h2v1h-2Zm-3,0h2v1h-2ZM0,9.086H1.808v1H0ZM0,6.894H1v2H0Zm0-3H1v2H0Z" transform="translate(433 321)"/></g></svg>