<svg xmlns="http://www.w3.org/2000/svg" width="13.5" height="33.133" viewBox="0 0 13.5 33.133"><g transform="translate(-431 -473)"><path d="M15.434,0H12.621V-14.73H5.063V0h-2.8V-17.133H15.434Z" transform="translate(428.738 506.133)" fill="#22242b"/><path d="M3,0H5V1H3ZM6,0H8V1H6ZM9,0h2V1H9Zm3,0h1V1H12Zm0,2h1V4H12Zm0,3h1V7H12Zm0,3h1v2H12Zm0,3h1v2H12Zm-2,1h2v1H10ZM7,12H9v1H7ZM4,12H6v1H4ZM1,12H3v1H1ZM0,11H1v2H0ZM0,8H1v2H0ZM0,5H1V7H0ZM0,2H1V4H0ZM0,0H2V1H0Z" transform="translate(431.5 473)" fill="#1ab395"/></g></svg>