<svg xmlns="http://www.w3.org/2000/svg" width="34.271" height="22" viewBox="0 0 34.271 22"><g transform="translate(-864.364 -393)"><g transform="translate(874.469 393)" fill="none" stroke-dasharray="2 1"><path d="M0,0H14V22H0Z" stroke="none"/><path d="M 0 0 L 2 0 L 2 1 L 1 1 L 1 3 L 0 3 L 0 0 Z M 3 0 L 5 0 L 5 1 L 3 1 L 3 0 Z M 6 0 L 8 0 L 8 1 L 6 1 L 6 0 Z M 9 0 L 11 0 L 11 1 L 9 1 L 9 0 Z M 12 0 L 14 0 L 14 1 L 14 1 C 14 1 14 3 14 3 L 13 3 L 13 1 L 12 1 L 12 0 Z M 13 4 L 14 4 C 14 4 14 6 14 6 L 13 6 L 13 4 Z M 13 7 L 14 7 C 14 7 14 9 14 9 L 13 9 L 13 7 Z M 13 10 L 14 10 C 14 10 14 12 14 12 L 13 12 L 13 10 Z M 13 13 L 14 13 C 14 13 14 15 14 15 L 13 15 L 13 13 Z M 13 16 L 14 16 C 14 16 14 18 14 18 L 13 18 L 13 16 Z M 13 19 L 14 19 C 14 19 14 21 14 21 L 14 21 L 14 22 C 14 22 12 22 12 22 L 12 21 L 13 21 L 13 19 Z M 9 21 L 11 21 L 11 22 C 11 22 9 22 9 22 L 9 21 Z M 6 21 L 8 21 L 8 22 C 8 22 6 22 6 22 L 6 21 Z M 3 21 L 5 21 L 5 22 C 5 22 3 22 3 22 L 3 21 Z M 0 21 L 2 21 L 2 22 C 2 22 0 22 0 22 L 0 21 Z M 0 19 L 1 19 L 1 21 L 0 21 L 0 19 Z M 0 16 L 1 16 L 1 18 L 0 18 L 0 16 Z M 0 13 L 1 13 L 1 15 L 0 15 L 0 13 Z M 0 10 L 1 10 L 1 12 L 0 12 L 0 10 Z M 0 7 L 1 7 L 1 9 L 0 9 L 0 7 Z M 0 4 L 1 4 L 1 6 L 0 6 L 0 4 Z" stroke="none" fill="#1ab395"/></g><path d="M-.155-5.429q0-1.4,2-1.4V-8.268A2.67,2.67,0,0,1,.339-8.61,1.184,1.184,0,0,1-.155-9.653V-12a1.94,1.94,0,0,0-.817-1.728,4.4,4.4,0,0,0-2.451-.554v1.371a2.143,2.143,0,0,1,1.246.35,1.123,1.123,0,0,1,.388.93V-9.39q0,1.5,1.725,1.792v.09q-1.725.271-1.725,1.785v2.252a1.14,1.14,0,0,1-.384.934,2.025,2.025,0,0,1-1.25.331V-.828a4.29,4.29,0,0,0,2.5-.591A2.183,2.183,0,0,0-.155-3.283Z" transform="translate(896.787 413.277)" fill="#22242b"/><path d="M-1.42-5.429q0-1.4-2-1.4V-8.268a2.67,2.67,0,0,0,1.51-.343A1.184,1.184,0,0,0-1.42-9.653V-12A1.94,1.94,0,0,1-.6-13.724a4.4,4.4,0,0,1,2.451-.554v1.371a2.143,2.143,0,0,0-1.246.35,1.123,1.123,0,0,0-.388.93V-9.39q0,1.5-1.725,1.792v.09Q.214-7.236.214-5.722v2.252A1.14,1.14,0,0,0,.6-2.537a2.025,2.025,0,0,0,1.25.331V-.828a4.29,4.29,0,0,1-2.5-.591A2.183,2.183,0,0,1-1.42-3.283Z" transform="translate(867.787 413.277)" fill="#22242b"/></g></svg>