
<svg width="14px" height="30px" viewBox="0 0 14 30" version="1.1" xmlns="http://www.w3.org/2000/svg" xmlns:xlink="http://www.w3.org/1999/xlink">
    <g id="Page-1" stroke="none" stroke-width="1" fill="none" fill-rule="evenodd">
        <g id="Group" transform="translate(0.000000, 2.046767)">
            <polygon id="Path" points="0 5.21223259 14 5.21223259 14 27.2122326 0 27.2122326"></polygon>
            <path d="M0,5.21223259 L2,5.21223259 L2,6.21223259 L1,6.21223259 L1,8.21223259 L0,8.21223259 L0,5.21223259 Z M3,5.21223259 L5,5.21223259 L5,6.21223259 L3,6.21223259 L3,5.21223259 Z M6,5.21223259 L8,5.21223259 L8,6.21223259 L6,6.21223259 L6,5.21223259 Z M9,5.21223259 L11,5.21223259 L11,6.21223259 L9,6.21223259 L9,5.21223259 Z M12,5.21223259 L14,5.21223259 L14,6.21223259 L14,6.21223259 C14,6.21223259 14,8.21223259 14,8.21223259 L13,8.21223259 L13,6.21223259 L12,6.21223259 L12,5.21223259 Z M13,9.21223259 L14,9.21223259 C14,9.21223259 14,11.2122326 14,11.2122326 L13,11.2122326 L13,9.21223259 Z M13,12.2122326 L14,12.2122326 C14,12.2122326 14,14.2122326 14,14.2122326 L13,14.2122326 L13,12.2122326 Z M13,15.2122326 L14,15.2122326 C14,15.2122326 14,17.2122326 14,17.2122326 L13,17.2122326 L13,15.2122326 Z M13,18.2122326 L14,18.2122326 C14,18.2122326 14,20.2122326 14,20.2122326 L13,20.2122326 L13,18.2122326 Z M13,21.2122326 L14,21.2122326 C14,21.2122326 14,23.2122326 14,23.2122326 L13,23.2122326 L13,21.2122326 Z M13,24.2122326 L14,24.2122326 C14,24.2122326 14,26.2122326 14,26.2122326 L14,26.2122326 L14,27.2122326 C14,27.2122326 12,27.2122326 12,27.2122326 L12,26.2122326 L13,26.2122326 L13,24.2122326 Z M9,26.2122326 L11,26.2122326 L11,27.2122326 C11,27.2122326 9,27.2122326 9,27.2122326 L9,26.2122326 Z M6,26.2122326 L8,26.2122326 L8,27.2122326 C8,27.2122326 6,27.2122326 6,27.2122326 L6,26.2122326 Z M3,26.2122326 L5,26.2122326 L5,27.2122326 C5,27.2122326 3,27.2122326 3,27.2122326 L3,26.2122326 Z M0,26.2122326 L2,26.2122326 L2,27.2122326 C2,27.2122326 0,27.2122326 0,27.2122326 L0,26.2122326 Z M0,24.2122326 L1,24.2122326 L1,26.2122326 L0,26.2122326 L0,24.2122326 Z M0,21.2122326 L1,21.2122326 L1,23.2122326 L0,23.2122326 L0,21.2122326 Z M0,18.2122326 L1,18.2122326 L1,20.2122326 L0,20.2122326 L0,18.2122326 Z M0,15.2122326 L1,15.2122326 L1,17.2122326 L0,17.2122326 L0,15.2122326 Z M0,12.2122326 L1,12.2122326 L1,14.2122326 L0,14.2122326 L0,12.2122326 Z M0,9.21223259 L1,9.21223259 L1,11.2122326 L0,11.2122326 L0,9.21223259 Z" id="Shape" fill="#1AB395" fill-rule="nonzero"></path>
            <polyline id="Line-2" stroke="#22242B" stroke-width="2" stroke-linecap="round" points="3.5 3.45323259 7 -8.8817842e-16 10.5 3.45323259"></polyline>
        </g>
    </g>
</svg>