<svg xmlns="http://www.w3.org/2000/svg" width="43.659" height="17.915" viewBox="0 0 43.659 17.915"><g transform="translate(-763.998 -531.993)"><rect width="18.058" height="2" transform="translate(763.998 539.382)" fill="#22242b"/><path d="M492.3,441.341l-5.076,4.442V436.9Z" transform="translate(293.152 99.1)" fill="#22242b"/><path d="M496.734,448.17a2.633,2.633,0,0,1,.649-1.914,2.507,2.507,0,0,1,1.88-.667,2.479,2.479,0,0,1,1.9.692,2.648,2.648,0,0,1,.647,1.889,2.715,2.715,0,0,1-.658,1.923,2.871,2.871,0,0,1-3.768.009A2.729,2.729,0,0,1,496.734,448.17Z" transform="translate(293.152 99.1)" fill="#22242b"/><path d="M503.079,441.825a2.633,2.633,0,0,1,.649-1.914,2.507,2.507,0,0,1,1.88-.667,2.479,2.479,0,0,1,1.9.692,2.648,2.648,0,0,1,.647,1.889,2.715,2.715,0,0,1-.658,1.923,2.871,2.871,0,0,1-3.768.009A2.729,2.729,0,0,1,503.079,441.825Z" transform="translate(293.152 99.1)" fill="#22242b"/><path d="M509.424,435.48a2.633,2.633,0,0,1,.649-1.914,2.507,2.507,0,0,1,1.88-.667,2.479,2.479,0,0,1,1.9.692,2.648,2.648,0,0,1,.647,1.889,2.715,2.715,0,0,1-.658,1.923,2.871,2.871,0,0,1-3.768.009A2.729,2.729,0,0,1,509.424,435.48Z" transform="translate(293.152 99.1)" fill="#22242b"/></g></svg>