<svg xmlns="http://www.w3.org/2000/svg" width="37.865" height="22.949" viewBox="0 0 37.865 22.949"><g transform="translate(-1179.998 -528.997)"><path d="M924.711,444.54a6.309,6.309,0,0,1-.758,2.793,8.64,8.64,0,0,1-1.927,2.569,8.412,8.412,0,0,1-11.839-.594,7.434,7.434,0,0,1-2.109-4.987l-.044-13.623,2.241-.022.088,12.986a6.228,6.228,0,0,0,10.437,4.427,5.948,5.948,0,0,0,1.626-4.384l.022-13.03,2.241.022Z" transform="translate(293.152 99.1)" fill="#22242b"/><path d="M886.846,452.846v-1.254l7.4-10.829-7.207-9.6V429.9h12.75v1.77h-9.938l6.785,9.05-7.078,10.347h10.993v1.782Z" transform="translate(293.152 99.1)" fill="#22242b"/></g></svg>