<svg xmlns="http://www.w3.org/2000/svg" width="35.471" height="17.654" viewBox="0 0 35.471 17.654"><g transform="translate(-841.981 -531.988)"><path d="M575.826,434.681a5.67,5.67,0,0,0-4.254,1.506,6.172,6.172,0,0,0-1.465,4.47,9.827,9.827,0,0,0,1.014,4.588,10.23,10.23,0,0,0,3.123,3.5V450.3h-6.867v-1.781h4.266a9.087,9.087,0,0,1-2.708-3.434,10.522,10.522,0,0,1-.937-4.43,7.673,7.673,0,0,1,2.074-5.7,7.8,7.8,0,0,1,5.754-2.055,7.885,7.885,0,0,1,5.766,2.033,7.622,7.622,0,0,1,2.074,5.7,10.607,10.607,0,0,1-.926,4.453,9.226,9.226,0,0,1-2.7,3.434H584.3v1.78h-6.868v-1.559a9.251,9.251,0,0,0,4.125-8.086,6.192,6.192,0,0,0-1.459-4.465A5.67,5.67,0,0,0,575.826,434.681Z" transform="translate(293.152 99.1)" fill="#22242b"/><path d="M554.433,448.907a3.381,3.381,0,0,0,2.86-1.142,6.127,6.127,0,0,0,.879-3.7v-.173a6.439,6.439,0,0,0-.891-3.85,3.383,3.383,0,0,0-2.871-1.166q-3.55,0-3.551,5.063a6.572,6.572,0,0,0,.861,3.727A3.07,3.07,0,0,0,554.433,448.907Zm-.293,1.629a4.718,4.718,0,0,1-3.9-1.74,9.259,9.259,0,0,1,.034-9.832,4.965,4.965,0,0,1,4.066-1.74,5.08,5.08,0,0,1,2.361.492,4.149,4.149,0,0,1,1.576,1.477h.141a5.12,5.12,0,0,1,.762-1.734h1.511a12.344,12.344,0,0,0-.41,2.215,24.958,24.958,0,0,0-.164,2.8v5.145q0,1.337.984,1.336a2.483,2.483,0,0,0,.725-.118v1.395a2.6,2.6,0,0,1-1.3.3,2.106,2.106,0,0,1-1.47-.47,2.693,2.693,0,0,1-.73-1.483h-.154a4.289,4.289,0,0,1-1.67,1.483A5.367,5.367,0,0,1,554.14,450.536Z" transform="translate(293.152 99.1)" fill="#22242b"/></g></svg>