<svg xmlns="http://www.w3.org/2000/svg" width="49.983" height="35.004" viewBox="0 0 49.983 35.004"><g transform="translate(-1012.997 -523)"><path d="M752.845,444.9h14v14h-14Z" transform="translate(293.152 99.1)" fill="none"/><path d="M755.845,444.9h2v1h-2Zm3,0h2v1h-2Zm3,0h2v1h-2Zm3,0h2v1h0v2h-1v-2h-1Zm1,4h1v2h-1Zm0,3h1v2h-1Zm0,3h1v2h-1Zm0,3h1v1h-1Zm-3,0h2v1h-2Zm-3,0h2v1h-2Zm-3,0h2v1h-2Zm-3,0h2v1h-2Zm-1-1h1v2h-1Zm0-3h1v2h-1Zm0-3h1v2h-1Zm0-3h1v2h-1Zm0-3h2v1h-1v1h-1Z" transform="translate(293.152 99.1)" fill="#22242b"/><path d="M752.845,423.9h14v14h-14Z" transform="translate(293.152 99.1)" fill="none"/><path d="M752.845,423.9h2v1h-1v1.007h-1Zm3,0h2v1h-2Zm3,0h2v1h-2Zm3,0h2v1h-2Zm3,0h2v1h0v2h-1v-2h-1Zm1,4h1v2h-1Zm0,3h1v2h-1Zm0,3h1v2h-1Zm0,3h1v1h-1Zm-3,0h2v1h-2Zm-3,0h2v1h-2Zm-3,0h2v1h-2Zm-3,0h2v1h-2Zm-1-1h1v2h-1Zm0-3h1v2h-1Zm0-3h1v2h-1Zm0-3h1v2h-1Z" transform="translate(293.152 99.1)" fill="#22242b"/><path d="M735.845,423.9h10.323v14H735.845Z" transform="translate(293.152 99.1)" fill="none"/><path d="M738.845,423.9h2v1h-2Zm3,0h2v1h-2Zm3,0h1.323v1h-1.323Zm.323,1.677h1v2h-1Zm0,3h1v2h-1Zm0,3h1v2h-1Zm0,3h1v2h-1Zm-.673,2.327h1.673v.673h0v0h0v.327h-1.673Zm-3,0h2v1h-2Zm-3,0h2v1h-2Zm-2.65,0h1.65v1h-1.65Zm0-2.35h1v2h-1Zm0-3h1v2h-1Zm0-3h1v2h-1Zm0-3h1v2h-1Zm0-1.654h2v1h-2Z" transform="translate(293.152 99.1)" fill="#22242b"/><path d="M719.845,430.9h14v28h-14Z" transform="translate(293.152 99.1)" fill="none"/><path d="M719.845,430.9h2v1h-1v2h-1Zm3,0h2v1h-2Zm3,0h2v1h-2Zm3,0h2v1h-2Zm3,0h2v1h0v2h-1v-2h-1Zm1,4h1v2h-1Zm0,3h1v2h-1Zm0,3h1v2h-1Zm0,3h1v2h-1Zm0,3h1v2h-1Zm0,3h1v2h-1Zm0,3h1v2h-1Zm0,3h1v2h0v1h-2v-1h1Zm-4,2h2v1h-2Zm-3,0h2v1h-2Zm-3,0h2v1h-2Zm-3,0h2v1h-2Zm0-2h1v2h-1Zm0-3h1v2h-1Zm0-3h1v2h-1Zm0-3h1v2h-1Zm0-3h1v2h-1Zm0-3h1v2h-1Zm0-3h1v2h-1Zm0-3h1v2h-1Z" transform="translate(293.152 99.1)" fill="#22242b"/><g transform="translate(293.152 99.1)"><path d="M749.863,441.4h19.965" fill="#22242b"/><rect width="19.965" height="1" transform="translate(749.863 440.904)" fill="#22242b"/></g></g></svg>