<svg xmlns="http://www.w3.org/2000/svg" width="48.821" height="28.26" viewBox="0 0 48.821 28.26"><g transform="translate(-1096.997 -526.499)"><path d="M803.845,446.276a12.113,12.113,0,0,1,.605-3.875,9.64,9.64,0,0,1,1.746-3.164h1.6a11.176,11.176,0,0,0-1.664,3.293,12.259,12.259,0,0,0-.578,3.73,11.945,11.945,0,0,0,.578,3.7,11.155,11.155,0,0,0,1.648,3.234h-1.586a9.22,9.22,0,0,1-1.75-3.1A11.792,11.792,0,0,1,803.845,446.276Zm29.641,0a11.77,11.77,0,0,1-.605,3.828,9.137,9.137,0,0,1-1.746,3.086h-1.587a11.175,11.175,0,0,0,1.652-3.242,11.938,11.938,0,0,0,.574-3.689,12.2,12.2,0,0,0-.578-3.73,11.3,11.3,0,0,0-1.664-3.293h1.6a9.6,9.6,0,0,1,1.75,3.176,12.159,12.159,0,0,1,.6,3.864Z" transform="translate(293.152 99.1)" fill="#22242b"/><path d="M811.665,433.659h14v22h-14Z" transform="translate(293.152 99.1)" fill="none"/><path d="M811.665,433.659h2v1h-1v2h-1Zm3,0h2v1h-2Zm3,0h2v1h-2Zm3,0h2v1h-2Zm3,0h2v1h0v2h-1v-2h-1Zm1,4h1v2h-1Zm0,3h1v2h-1Zm0,3h1v2h-1Zm0,3h1v2h-1Zm0,3h1v2h-1Zm0,3h1v2h0v1h-2v-1h1Zm-4,2h2v1h-2Zm-3,0h2v1h-2Zm-3,0h2v1h-2Zm-3,0h2v1h-2Zm0-2h1v2h-1Zm0-3h1v2h-1Zm0-3h1v2h-1Zm0-3h1v2h-1Zm0-3h1v2h-1Zm0-3h1v2h-1Z" transform="translate(293.152 99.1)" fill="#22242b"/><g transform="translate(293.152 99.1)"><path d="M846.1,427.9a6.89,6.89,0,0,1,2.206.345,5.487,5.487,0,0,1,1.8.994v.912a6.374,6.374,0,0,0-1.874-.947,7.014,7.014,0,0,0-2.123-.329,6.8,6.8,0,0,0-2.1.329,6.343,6.343,0,0,0-1.841.938v-.9a5.241,5.241,0,0,1,1.765-1A6.733,6.733,0,0,1,846.1,427.9Z" fill="#22242b"/><path d="M850.606,431.14l-.8-.586a5.846,5.846,0,0,0-1.728-.872,6.476,6.476,0,0,0-1.974-.307,6.749,6.749,0,0,0-1.947.3,5.847,5.847,0,0,0-1.7.865l-.8.587v-2.119l.174-.15a5.7,5.7,0,0,1,1.933-1.1,7.5,7.5,0,0,1,2.325-.368,7.222,7.222,0,0,1,2.362.371,5.952,5.952,0,0,1,1.964,1.083l.18.151Z" fill="#22242b"/></g><path d="M838.665,433.659h14v22h-14Z" transform="translate(293.152 99.1)" fill="none"/><path d="M838.665,433.659h2v1h-1v2h-1Zm3,0h2v1h-2Zm3,0h2v1h-2Zm3,0h2v1h-2Zm3,0h2v1h0v2h-1v-2h-1Zm1,4h1v2h-1Zm0,3h1v2h-1Zm0,3h1v2h-1Zm0,3h1v2h-1Zm0,3h1v2h-1Zm0,3h1v2h0v1h-2v-1h1Zm-4,2h2v1h-2Zm-3,0h2v1h-2Zm-3,0h2v1h-2Zm-3,0h2v1h-2Zm0-2h1v2h-1Zm0-3h1v2h-1Zm0-3h1v2h-1Zm0-3h1v2h-1Zm0-3h1v2h-1Zm0-3h1v2h-1Z" transform="translate(293.152 99.1)" fill="#22242b"/></g></svg>