<svg xmlns="http://www.w3.org/2000/svg" width="34.163" height="19.775" viewBox="0 0 34.163 19.775"><defs><style>.a{fill:#22242b;}.b{fill:none;}</style></defs><g transform="translate(0 0)"><path class="a" d="M803.845,444.162a8.477,8.477,0,0,1,.423-2.712,6.747,6.747,0,0,1,1.222-2.214h1.12a7.822,7.822,0,0,0-1.164,2.3,8.58,8.58,0,0,0-.4,2.61,8.359,8.359,0,0,0,.4,2.589A7.811,7.811,0,0,0,806.6,449h-1.11a6.451,6.451,0,0,1-1.225-2.169A8.252,8.252,0,0,1,803.845,444.162Zm20.742,0a8.236,8.236,0,0,1-.423,2.679A6.394,6.394,0,0,1,822.941,449h-1.11a7.82,7.82,0,0,0,1.156-2.269,8.354,8.354,0,0,0,.4-2.581,8.535,8.535,0,0,0-.4-2.61,7.908,7.908,0,0,0-1.164-2.3h1.12a6.716,6.716,0,0,1,1.225,2.222,8.509,8.509,0,0,1,.422,2.7Z" transform="translate(-803.845 -430.953)"/><path class="b" d="M811.665,433.659h9.8v15.395h-9.8Z" transform="translate(-806.192 -429.278)"/><path class="a" d="M811.665,433.659h1.4v.7h-.7v1.4h-.7Zm2.1,0h1.4v.7h-1.4Zm2.1,0h1.4v.7h-1.4Zm2.1,0h1.4v.7h-1.4Zm2.1,0h1.4v.7h0v1.4h-.7v-1.4h-.7Zm.7,2.8h.7v1.4h-.7Zm0,2.1h.7v1.4h-.7Zm0,2.1h.7v1.4h-.7Zm0,2.1h.7v1.4h-.7Zm0,2.1h.7v1.4h-.7Zm0,2.1h.7v1.4h0v.7h-1.4v-.7h.7Zm-2.8,1.4h1.4v.7h-1.4Zm-2.1,0h1.4v.7h-1.4Zm-2.1,0h1.4v.7h-1.4Zm-2.1,0h1.4v.7h-1.4Zm0-1.4h.7v1.4h-.7Zm0-2.1h.7v1.4h-.7Zm0-2.1h.7v1.4h-.7Zm0-2.1h.7v1.4h-.7Zm0-2.1h.7v1.4h-.7Zm0-2.1h.7v1.4h-.7Z" transform="translate(-806.192 -429.278)"/><path class="a" d="M844.919,427.9a4.822,4.822,0,0,1,1.544.241,3.84,3.84,0,0,1,1.26.7v.638a4.461,4.461,0,0,0-1.311-.663,4.908,4.908,0,0,0-1.486-.23,4.759,4.759,0,0,0-1.47.23,4.438,4.438,0,0,0-1.288.656v-.63a3.668,3.668,0,0,1,1.235-.7A4.712,4.712,0,0,1,844.919,427.9Z" transform="translate(-815.351 -427.55)"/><path class="a" d="M847.922,430.017l-.556-.41a4.09,4.09,0,0,0-1.209-.61,4.531,4.531,0,0,0-1.381-.215,4.721,4.721,0,0,0-1.362.213,4.092,4.092,0,0,0-1.188.605l-.557.411v-1.483l.122-.1a3.988,3.988,0,0,1,1.353-.766,5.25,5.25,0,0,1,1.627-.258,5.053,5.053,0,0,1,1.653.26,4.166,4.166,0,0,1,1.374.758l.126.106Z" transform="translate(-815.2 -427.399)"/><path class="b" d="M838.665,433.659h9.8v15.395h-9.8Z" transform="translate(-814.299 -429.278)"/><path class="a" d="M838.665,433.659h1.4v.7h-.7v1.4h-.7Zm2.1,0h1.4v.7h-1.4Zm2.1,0h1.4v.7h-1.4Zm2.1,0h1.4v.7h-1.4Zm2.1,0h1.4v.7h0v1.4h-.7v-1.4h-.7Zm.7,2.8h.7v1.4h-.7Zm0,2.1h.7v1.4h-.7Zm0,2.1h.7v1.4h-.7Zm0,2.1h.7v1.4h-.7Zm0,2.1h.7v1.4h-.7Zm0,2.1h.7v1.4h0v.7h-1.4v-.7h.7Zm-2.8,1.4h1.4v.7h-1.4Zm-2.1,0h1.4v.7h-1.4Zm-2.1,0h1.4v.7h-1.4Zm-2.1,0h1.4v.7h-1.4Zm0-1.4h.7v1.4h-.7Zm0-2.1h.7v1.4h-.7Zm0-2.1h.7v1.4h-.7Zm0-2.1h.7v1.4h-.7Zm0-2.1h.7v1.4h-.7Zm0-2.1h.7v1.4h-.7Z" transform="translate(-814.299 -429.278)"/></g></svg>