<svg xmlns="http://www.w3.org/2000/svg" width="24.821" height="12.354" viewBox="0 0 24.821 12.354"><defs><style>.a{fill:#22242b;}</style></defs><g transform="translate(0 0)"><path class="a" d="M573.289,434.143a3.968,3.968,0,0,0-2.977,1.054,4.319,4.319,0,0,0-1.025,3.128,6.876,6.876,0,0,0,.71,3.21,7.159,7.159,0,0,0,2.185,2.449v1.09h-4.805v-1.246h2.985a6.358,6.358,0,0,1-1.895-2.4,7.364,7.364,0,0,1-.656-3.1,5.37,5.37,0,0,1,1.451-3.989,5.458,5.458,0,0,1,4.026-1.438,5.517,5.517,0,0,1,4.035,1.423,5.334,5.334,0,0,1,1.451,3.989,7.423,7.423,0,0,1-.648,3.116,6.457,6.457,0,0,1-1.889,2.4h2.98v1.246h-4.806v-1.091a6.474,6.474,0,0,0,2.886-5.658,4.333,4.333,0,0,0-1.021-3.124A3.967,3.967,0,0,0,573.289,434.143Z" transform="translate(-554.397 -432.889)"/><path class="a" d="M552.75,445.4a2.366,2.366,0,0,0,2-.8,4.287,4.287,0,0,0,.615-2.589v-.121a4.506,4.506,0,0,0-.624-2.694,2.367,2.367,0,0,0-2.009-.816q-2.484,0-2.485,3.543a4.6,4.6,0,0,0,.6,2.608A2.148,2.148,0,0,0,552.75,445.4Zm-.205,1.14a3.3,3.3,0,0,1-2.729-1.218,6.479,6.479,0,0,1,.024-6.88,3.474,3.474,0,0,1,2.845-1.218,3.555,3.555,0,0,1,1.652.344,2.9,2.9,0,0,1,1.1,1.034h.1a3.582,3.582,0,0,1,.533-1.213h1.057a8.642,8.642,0,0,0-.287,1.55,17.458,17.458,0,0,0-.115,1.959v3.6q0,.935.689.935a1.739,1.739,0,0,0,.507-.083v.976a1.821,1.821,0,0,1-.91.21,1.474,1.474,0,0,1-1.029-.329,1.884,1.884,0,0,1-.511-1.038h-.108a3,3,0,0,1-1.169,1.038A3.755,3.755,0,0,1,552.545,446.537Z" transform="translate(-548.828 -434.188)"/></g></svg>