<svg xmlns="http://www.w3.org/2000/svg" width="16.445" height="16" viewBox="0 0 16.445 16"><path d="M-5.937-4.562l1.039-1.3,2.609-2.781H-.172L-3.648-4.93.047,0H-2.109L-4.883-3.789l-1.008.828V0h-1.82V-12.156h1.82v5.93l-.094,1.664ZM8.734-8.641v1.008l-1.477.273a2.383,2.383,0,0,1,.336.672,2.651,2.651,0,0,1,.133.844,2.585,2.585,0,0,1-.922,2.1,3.858,3.858,0,0,1-2.539.766,4.117,4.117,0,0,1-.75-.062,1.034,1.034,0,0,0-.594.859.477.477,0,0,0,.277.445,2.4,2.4,0,0,0,1.02.148H5.727A3.353,3.353,0,0,1,7.9-.977,2.144,2.144,0,0,1,8.641.781,2.556,2.556,0,0,1,7.43,3.047a6.376,6.376,0,0,1-3.5.8,4.83,4.83,0,0,1-2.7-.625A2.02,2.02,0,0,1,.3,1.438,1.9,1.9,0,0,1,.809.1a2.7,2.7,0,0,1,1.41-.754,1.38,1.38,0,0,1-.605-.5,1.272,1.272,0,0,1-.238-.73,1.257,1.257,0,0,1,.273-.82,3.155,3.155,0,0,1,.813-.664,2.407,2.407,0,0,1-1.09-.941A2.769,2.769,0,0,1,.953-5.844a2.738,2.738,0,0,1,.887-2.18A3.728,3.728,0,0,1,4.367-8.8a6.152,6.152,0,0,1,.77.051,4.845,4.845,0,0,1,.605.105ZM1.945,1.344a1.01,1.01,0,0,0,.535.914,2.941,2.941,0,0,0,1.5.32,4.544,4.544,0,0,0,2.234-.43,1.288,1.288,0,0,0,.734-1.141.856.856,0,0,0-.4-.8,3.231,3.231,0,0,0-1.5-.238H3.664A1.954,1.954,0,0,0,2.41.34,1.217,1.217,0,0,0,1.945,1.344Zm.789-7.187a1.739,1.739,0,0,0,.418,1.25,1.581,1.581,0,0,0,1.2.438q1.594,0,1.594-1.7a1.932,1.932,0,0,0-.395-1.3,1.5,1.5,0,0,0-1.2-.457,1.545,1.545,0,0,0-1.207.453A1.9,1.9,0,0,0,2.734-5.844Z" transform="translate(7.711 12.156)" fill="#22242b"/></svg>