<svg xmlns="http://www.w3.org/2000/svg" width="34.516" height="17.475" viewBox="0 0 34.516 17.475"><g transform="translate(-694.995 -532)"><path d="M436.356,441.162a3.259,3.259,0,0,1-.86,2.283,2.8,2.8,0,0,1-2.155.935,3.507,3.507,0,0,1-3.015-1.962,3.556,3.556,0,0,1-2.9,1.928,2.917,2.917,0,0,1-2.224-.9,3.272,3.272,0,0,1-.85-2.343,3.167,3.167,0,0,1,.875-2.3,2.942,2.942,0,0,1,2.2-.9,3.431,3.431,0,0,1,2.939,1.945,3.526,3.526,0,0,1,2.975-1.9,2.839,2.839,0,0,1,2.189.895A3.281,3.281,0,0,1,436.356,441.162Zm-8.85,1.562a1.566,1.566,0,0,0,1.023-.39,1.26,1.26,0,0,0,.038-2.431,1.6,1.6,0,0,0-1.077-.4,1.344,1.344,0,0,0-1.077.465,1.719,1.719,0,0,0-.4,1.157,1.652,1.652,0,0,0,.409,1.155A1.4,1.4,0,0,0,427.506,442.724Zm5.7-3.183a1.546,1.546,0,0,0-1,.39,4.772,4.772,0,0,0-.97,1.211,4.242,4.242,0,0,0,.924,1.216,1.608,1.608,0,0,0,1.063.4,1.39,1.39,0,0,0,1.077-.455,1.663,1.663,0,0,0,.415-1.166,1.6,1.6,0,0,0-.425-1.157A1.441,1.441,0,0,0,433.206,439.541Z" transform="translate(293.152 99.1)" fill="#22242b"/><path d="M418.143,432.9l-.018,1.861-7.8-.036a6.385,6.385,0,0,0-3.993,1.445,5.871,5.871,0,0,0-1.554,1.716,11.377,11.377,0,0,0-.98,2.656l14.327.054v1.879H403.762a12.037,12.037,0,0,0,1.084,2.864,5.716,5.716,0,0,0,1.68,1.761,7.252,7.252,0,0,0,4.336,1.373l7.281.018v1.879H410.79a8.758,8.758,0,0,1-6.414-2.493,8.526,8.526,0,0,1-2.529-6.341,8.279,8.279,0,0,1,2.529-6.07,8.047,8.047,0,0,1,5.8-2.565Z" transform="translate(293.152 99.1)" fill="#22242b"/></g></svg>