<svg xmlns="http://www.w3.org/2000/svg" width="46.883" height="23.762" viewBox="0 0 46.883 23.762"><defs><style>.a{fill:#22242b;}.b{fill:none;}</style></defs><g transform="translate(0 0)"><path class="a" d="M621.42,448.657h-2.575V424.9h2.575v.962h-1.4v21.833h1.4Zm22.1-.968h1.4V425.857h-1.4V424.9h2.564v23.762h-2.564Z" transform="translate(-618.845 -424.895)"/><path class="b" d="M624.845,428.9h8.4v8.4h-8.4Z" transform="translate(-620.646 -426.097)"/><path class="a" d="M626.944,428.9h1.4v.7h-1.4Zm2.1,0h1.4v.7h-1.4Zm2.1,0h2.1v1.4h-.7v-.7h-1.4Zm1.4,2.1h.7v1.4h-.7Zm0,2.1h.7v1.4h-.7Zm0,2.1h.7v1.4h-.7Zm-.7,1.4h1.4v.7h0v0h0v0h-1.4Zm1.4.7v0h0v0h0Zm-3.5-.7h1.4v.7h-1.4Zm-2.1,0h1.4v.7h-1.4Zm-2.1,0h1.4v.7h-1.4Zm-.7-.7h.7v1.4h-.7Zm0-2.1h.7v1.4h-.7Zm0-2.1h.7v1.4h-.7Zm0-2.1h.7V431h-.7Zm0-.7h1.4v.7h-1.4Z" transform="translate(-620.646 -426.097)"/><path class="b" d="M624.845,443.9h8.4v8.4h-8.4Z" transform="translate(-620.646 -430.601)"/><path class="a" d="M626.944,443.9h1.4v.7h-1.4Zm2.1,0h1.4v.7h-1.4Zm2.1,0h2.1v1.4h-.7v-.7h-1.4Zm1.4,2.1h.7v1.4h-.7Zm0,2.1h.7v1.4h-.7Zm0,2.1h.7v1.4h-.7Zm-.7,1.4h1.4v.7h0v0h0v0h-1.4Zm1.4.7v0h0v0h0Zm-3.5-.7h1.4v.7h-1.4Zm-2.1,0h1.4v.7h-1.4Zm-2.1,0h1.4v.7h-1.4Zm-.7-.7h.7v1.4h-.7Zm0-2.1h.7v1.4h-.7Zm0-2.1h.7v1.4h-.7Zm0-2.1h.7V446h-.7Zm0-.7h1.4v.7h-1.4Z" transform="translate(-620.646 -430.601)"/><path class="b" d="M639.845,428.9h8.4v8.4h-8.4Z" transform="translate(-625.15 -426.097)"/><path class="a" d="M641.944,428.9h1.4v.7h-1.4Zm2.1,0h1.4v.7h-1.4Zm2.1,0h2.1v1.4h-.7v-.7h-1.4Zm1.4,2.1h.7v1.4h-.7Zm0,2.1h.7v1.4h-.7Zm0,2.1h.7v1.4h-.7Zm-.7,1.4h1.4v.7h0v0h0v0h-1.4Zm1.4.7v0h0v0h0Zm-3.5-.7h1.4v.7h-1.4Zm-2.1,0h1.4v.7h-1.4Zm-2.1,0h1.4v.7h-1.4Zm-.7-.7h.7v1.4h-.7Zm0-2.1h.7v1.4h-.7Zm0-2.1h.7v1.4h-.7Zm0-2.1h.7V431h-.7Zm0-.7h1.4v.7h-1.4Z" transform="translate(-625.15 -426.097)"/><path class="b" d="M639.845,443.9h8.4v8.4h-8.4Z" transform="translate(-625.15 -430.601)"/><path class="a" d="M641.944,443.9h1.4v.7h-1.4Zm2.1,0h1.4v.7h-1.4Zm2.1,0h2.1v1.4h-.7v-.7h-1.4Zm1.4,2.1h.7v1.4h-.7Zm0,2.1h.7v1.4h-.7Zm0,2.1h.7v1.4h-.7Zm-.7,1.4h1.4v.7h0v0h0v0h-1.4Zm1.4.7v0h0v0h0Zm-3.5-.7h1.4v.7h-1.4Zm-2.1,0h1.4v.7h-1.4Zm-2.1,0h1.4v.7h-1.4Zm-.7-.7h.7v1.4h-.7Zm0-2.1h.7v1.4h-.7Zm0-2.1h.7v1.4h-.7Zm0-2.1h.7V446h-.7Zm0-.7h1.4v.7h-1.4Z" transform="translate(-625.15 -430.601)"/><path class="a" d="M665.3,444.344a1.813,1.813,0,0,0,.6,1.517,2.884,2.884,0,0,0,1.758.49v1.437a4.727,4.727,0,0,1-3.013-.891,2.988,2.988,0,0,1-1.066-2.449v-3.107a1.734,1.734,0,0,0-.646-1.522,3.234,3.234,0,0,0-1.876-.456v-1.445a3.2,3.2,0,0,0,1.927-.49,1.745,1.745,0,0,0,.595-1.455v-3.136a2.979,2.979,0,0,1,1.11-2.473,4.637,4.637,0,0,1,2.973-.882v1.425q-2.357.062-2.357,2.04v3.024a2.427,2.427,0,0,1-2.286,2.6v.123a2.427,2.427,0,0,1,2.286,2.6Z" transform="translate(-631.519 -426.27)"/><path class="b" d="M673.845,428.9h8.4v8.4h-8.4Z" transform="translate(-635.358 -426.097)"/><path class="a" d="M675.944,428.9h1.4v.7h-1.4Zm2.1,0h1.4v.7h-1.4Zm2.1,0h2.1v1.4h-.7v-.7h-1.4Zm1.4,2.1h.7v1.4h-.7Zm0,2.1h.7v1.4h-.7Zm0,2.1h.7v1.4h-.7Zm-.7,1.4h1.4v.7h0v0h0v0h-1.4Zm1.4.7v0h0v0h0Zm-3.5-.7h1.4v.7h-1.4Zm-2.1,0h1.4v.7h-1.4Zm-2.1,0h1.4v.7h-1.4Zm-.7-.7h.7v1.4h-.7Zm0-2.1h.7v1.4h-.7Zm0-2.1h.7v1.4h-.7Zm0-2.1h.7V431h-.7Zm0-.7h1.4v.7h-1.4Z" transform="translate(-635.358 -426.097)"/><path class="b" d="M673.845,443.9h8.4v8.4h-8.4Z" transform="translate(-635.358 -430.601)"/><path class="a" d="M675.944,443.9h1.4v.7h-1.4Zm2.1,0h1.4v.7h-1.4Zm2.1,0h2.1v1.4h-.7v-.7h-1.4Zm1.4,2.1h.7v1.4h-.7Zm0,2.1h.7v1.4h-.7Zm0,2.1h.7v1.4h-.7Zm-.7,1.4h1.4v.7h0v0h0v0h-1.4Zm1.4.7v0h0v0h0Zm-3.5-.7h1.4v.7h-1.4Zm-2.1,0h1.4v.7h-1.4Zm-2.1,0h1.4v.7h-1.4Zm-.7-.7h.7v1.4h-.7Zm0-2.1h.7v1.4h-.7Zm0-2.1h.7v1.4h-.7Zm0-2.1h.7V446h-.7Zm0-.7h1.4v.7h-1.4Z" transform="translate(-635.358 -430.601)"/></g></svg>