<svg xmlns="http://www.w3.org/2000/svg" width="32.947" height="24.494" viewBox="0 0 32.947 24.494"><g transform="translate(-1740.039 610.412)"><path d="M350.948,444.9h9.8v9.8h-9.8Z" transform="translate(1410.154 -1040.618)" fill="none"/><path d="M353.047,444.9h1.4v.7h-1.4Zm2.1,0h1.4v.7h-1.4Zm2.1,0h1.4v.7h-1.4Zm2.1,0h1.4v.7h0V447h-.7v-1.4h-.7Zm.7,2.8h.7v1.4h-.7Zm0,2.1h.7v1.4h-.7Zm0,2.1h.7v1.4h-.7Zm0,2.1h.7v.7h-.7Zm-2.1,0h1.4v.7h-1.4Zm-2.1,0h1.4v.7h-1.4Zm-2.1,0h1.4v.7h-1.4Zm-2.1,0h1.4v.7h-1.4Zm-.7-.7h.7v1.4h-.7Zm0-2.1h.7v1.4h-.7Zm0-2.1h.7v1.4h-.7Zm0-2.1h.7v1.4h-.7Zm0-2.1h1.4v.7h-.7v.7h-.7Z" transform="translate(1410.154 -1040.618)" fill="#22242b"/><path d="M350.948,423.9h9.8v9.8h-9.8Z" transform="translate(1410.154 -1034.312)" fill="none"/><path d="M350.948,423.9h1.4v.7h-.7v.7h-.7Zm2.1,0h1.4v.7h-1.4Zm2.1,0h1.4v.7h-1.4Zm2.1,0h1.4v.7h-1.4Zm2.1,0h1.4v.7h0V426h-.7v-1.4h-.7Zm.7,2.8h.7v1.4h-.7Zm0,2.1h.7v1.4h-.7Zm0,2.1h.7v1.4h-.7Zm0,2.1h.7v.7h-.7Zm-2.1,0h1.4v.7h-1.4Zm-2.1,0h1.4v.7h-1.4Zm-2.1,0h1.4v.7h-1.4Zm-2.1,0h1.4v.7h-1.4Zm-.7-.7h.7v1.4h-.7Zm0-2.1h.7v1.4h-.7Zm0-2.1h.7v1.4h-.7Zm0-2.1h.7v1.4h-.7Z" transform="translate(1410.154 -1034.312)" fill="#22242b"/><path d="M331.948,430.9h9.8V446.3h-9.8Z" transform="translate(1415.858 -1036.415)" fill="none"/><path d="M331.948,430.9h1.4v.7h-.7V433h-.7Zm2.1,0h1.4v.7h-1.4Zm2.1,0h1.4v.7h-1.4Zm2.1,0h1.4v.7h-1.4Zm2.1,0h1.4v.7h0V433h-.7v-1.4h-.7Zm.7,2.8h.7v1.4h-.7Zm0,2.1h.7v1.4h-.7Zm0,2.1h.7v1.4h-.7Zm0,2.1h.7v1.4h-.7Zm0,2.1h.7v1.4h-.7Zm0,2.1h.7v1.4h0v.7h-1.4v-.7h.7Zm-2.8,1.4h1.4v.7h-1.4Zm-2.1,0h1.4v.7h-1.4Zm-2.1,0h1.4v.7h-1.4Zm-2.1,0h1.4v.7h-1.4Zm0-1.4h.7v1.4h-.7Zm0-2.1h.7v1.4h-.7Zm0-2.1h.7v1.4h-.7Zm0-2.1h.7v1.4h-.7Zm0-2.1h.7v1.4h-.7Zm0-2.1h.7v1.4h-.7Z" transform="translate(1415.858 -1036.415)" fill="#22242b"/><g transform="translate(1759.015 -598.513)"><path d="M347.966,441.4h13.971" transform="translate(-347.966 -441.054)" fill="#22242b"/><rect width="13.971" height="0.7" transform="translate(0)" fill="#22242b"/></g><path d="M324.051,449.021h-.695l-1.528-4.275h-.98v-.738h1.58l1.283,3.74,2.81-8.03h.749Z" transform="translate(1419.191 -1039.061)" fill="#22242b"/></g></svg>