<svg xmlns="http://www.w3.org/2000/svg" width="24.154" height="12.228" viewBox="0 0 24.154 12.228"><defs><style>.a{fill:#22242b;}</style></defs><g transform="translate(0 0)"><path class="a" d="M432.751,440.183a2.281,2.281,0,0,1-.6,1.6,1.958,1.958,0,0,1-1.508.654,2.454,2.454,0,0,1-2.11-1.373,2.488,2.488,0,0,1-2.029,1.349,2.041,2.041,0,0,1-1.556-.63,2.29,2.29,0,0,1-.595-1.64,2.216,2.216,0,0,1,.612-1.609,2.059,2.059,0,0,1,1.539-.63,2.4,2.4,0,0,1,2.057,1.361,2.468,2.468,0,0,1,2.082-1.33,1.986,1.986,0,0,1,1.532.626A2.3,2.3,0,0,1,432.751,440.183Zm-6.193,1.093a1.1,1.1,0,0,0,.716-.273.882.882,0,0,0,.027-1.7,1.122,1.122,0,0,0-.754-.28.941.941,0,0,0-.754.325,1.2,1.2,0,0,0-.28.81,1.156,1.156,0,0,0,.286.808A.979.979,0,0,0,426.558,441.276Zm3.989-2.227a1.081,1.081,0,0,0-.7.273,3.339,3.339,0,0,0-.679.847,2.967,2.967,0,0,0,.647.851,1.125,1.125,0,0,0,.744.283.973.973,0,0,0,.754-.318,1.163,1.163,0,0,0,.29-.816,1.118,1.118,0,0,0-.3-.81A1.008,1.008,0,0,0,430.547,439.049Z" transform="translate(-408.6 -434.401)"/><path class="a" d="M413.249,432.9l-.013,1.3-5.458-.025a4.468,4.468,0,0,0-2.794,1.011,4.109,4.109,0,0,0-1.087,1.2,7.961,7.961,0,0,0-.686,1.859l10.025.038V439.6H403.186a8.423,8.423,0,0,0,.759,2,4,4,0,0,0,1.176,1.232,5.075,5.075,0,0,0,3.034.961l5.095.013v1.315H408.1a6.128,6.128,0,0,1-4.488-1.744,5.966,5.966,0,0,1-1.77-4.437,5.794,5.794,0,0,1,1.77-4.248,5.631,5.631,0,0,1,4.059-1.795Z" transform="translate(-401.843 -432.9)"/></g></svg>