<svg xmlns="http://www.w3.org/2000/svg" width="54.041" height="27.78" viewBox="0 0 54.041 27.78"><g transform="translate(-1252.997 -527)"><path d="M994.292,448.9h-1.459V435.224h1.459Zm3.653,0h-1.46v-9.633h1.459Zm-1.583-12.243a.969.969,0,0,1,.246-.734.91.91,0,0,1,1.221,0,.952.952,0,0,1,.255.729.963.963,0,0,1-.255.734.852.852,0,0,1-.606.242.842.842,0,0,1-.615-.242A.989.989,0,0,1,996.362,436.657Zm16.054,12.243v-6.267a2.6,2.6,0,0,0-.492-1.727,1.9,1.9,0,0,0-1.529-.576,2.469,2.469,0,0,0-2.013.782,3.722,3.722,0,0,0-.65,2.408v5.38h-1.459v-6.267a2.6,2.6,0,0,0-.492-1.727,1.914,1.914,0,0,0-1.538-.575,2.382,2.382,0,0,0-2.008.822,4.441,4.441,0,0,0-.637,2.694V448.9h-1.46v-9.633h1.187l.237,1.318h.07a2.871,2.871,0,0,1,1.165-1.1,3.56,3.56,0,0,1,1.683-.4,2.863,2.863,0,0,1,2.953,1.641h.07a3.075,3.075,0,0,1,1.248-1.2,3.878,3.878,0,0,1,1.859-.435,3.261,3.261,0,0,1,2.448.839,3.754,3.754,0,0,1,.813,2.685V448.9Z" transform="translate(293.152 99.1)" fill="#22242b"/><path d="M967.169,431.666a4.393,4.393,0,0,1,1.441.188v1.605a3.139,3.139,0,0,0-1.3-.259q-2.062,0-2.062,2.848v15.364a4.627,4.627,0,0,1-.967,3.158,3.634,3.634,0,0,1-2.877,1.1,5.084,5.084,0,0,1-1.559-.223v-1.586a4.083,4.083,0,0,0,1.4.258q2.133,0,2.133-2.848V435.908Q963.373,431.666,967.169,431.666Z" transform="translate(293.152 99.1)" fill="#22242b"/><path d="M972.31,427.9h12v12h-12Z" transform="translate(293.152 99.1)" fill="none"/><path d="M975.31,427.9h2v1h-2Zm3,0h2v1h-2Zm3,0h3v2h-1v-1h-2Zm2,3h1v2h-1Zm0,3h1v2h-1Zm0,3h1v2h-1Zm-1,2h2v1h0v0h0v0h-2Zm2,1v0h0v0h0Zm-5-1h2v1h-2Zm-3,0h2v1h-2Zm-3,0h2v1h-2Zm-1-1h1v2h-1Zm0-3h1v2h-1Zm0-3h1v2h-1Zm0-3h1v2h-1Zm0-1.006h2v1h-2Z" transform="translate(293.152 99.1)" fill="#22242b"/><path d="M972.31,442.9h12v12h-12Z" transform="translate(293.152 99.1)" fill="none"/><path d="M975.31,442.9h2v1h-2Zm3,0h2v1h-2Zm3,0h3v2h-1v-1h-2Zm2,3h1v2h-1Zm0,3h1v2h-1Zm0,3h1v2h-1Zm-1,2h2v1h0v0h0v0h-2Zm2,1v0h0v0h0Zm-5-1h2v1h-2Zm-3,0h2v1h-2Zm-3,0h2v1h-2Zm-1-1h1v2h-1Zm0-3h1v2h-1Zm0-3h1v2h-1Zm0-3h1v2h-1Zm0-1.006h2v1h-2Z" transform="translate(293.152 99.1)" fill="#22242b"/></g></svg>