<svg xmlns="http://www.w3.org/2000/svg" width="30.55" height="12.536" viewBox="0 0 30.55 12.536"><defs><style>.a{fill:#22242b;}</style></defs><g transform="translate(0 0)"><path class="a" d="M0,0H12.636V1.4H0Z" transform="translate(0 5.171)"/><path class="a" d="M490.779,440.008l-3.552,3.108V436.9Z" transform="translate(-475.764 -434.096)"/><path class="a" d="M496.732,447.393a1.843,1.843,0,0,1,.454-1.339,1.754,1.754,0,0,1,1.316-.467,1.735,1.735,0,0,1,1.33.484,1.853,1.853,0,0,1,.453,1.322,1.9,1.9,0,0,1-.46,1.346,2.009,2.009,0,0,1-2.637.006A1.91,1.91,0,0,1,496.732,447.393Z" transform="translate(-478.616 -436.703)"/><path class="a" d="M503.077,441.048a1.843,1.843,0,0,1,.454-1.339,1.754,1.754,0,0,1,1.316-.467,1.735,1.735,0,0,1,1.33.484,1.853,1.853,0,0,1,.453,1.322,1.9,1.9,0,0,1-.46,1.346,2.009,2.009,0,0,1-2.637.006A1.91,1.91,0,0,1,503.077,441.048Z" transform="translate(-480.521 -434.798)"/><path class="a" d="M509.422,434.7a1.843,1.843,0,0,1,.454-1.339,1.754,1.754,0,0,1,1.316-.467,1.735,1.735,0,0,1,1.33.484,1.853,1.853,0,0,1,.453,1.322,1.9,1.9,0,0,1-.46,1.346,2.009,2.009,0,0,1-2.637.006A1.91,1.91,0,0,1,509.422,434.7Z" transform="translate(-482.427 -432.893)"/></g></svg>