<svg xmlns="http://www.w3.org/2000/svg" width="67" height="33.958" viewBox="0 0 67 33.958"><g transform="translate(-911.997 -523.995)"><path d="M622.525,458.853h-3.68V424.9h3.68v1.375h-2v31.2h2ZM654.1,457.47h2v-31.2h-2v-1.375h3.664v33.958H654.1Z" transform="translate(293.152 99.1)" fill="#22242b"/><path d="M624.845,428.9h12v12h-12Z" transform="translate(293.152 99.1)" fill="none"/><path d="M627.845,428.9h2v1h-2Zm3,0h2v1h-2Zm3,0h3v2h-1v-1h-2Zm2,3h1v2h-1Zm0,3h1v2h-1Zm0,3h1v2h-1Zm-1,2h2v1h0v0h0v0h-2Zm2,1v0h0v0h0Zm-5-1h2v1h-2Zm-3,0h2v1h-2Zm-3,0h2v1h-2Zm-1-1h1v2h-1Zm0-3h1v2h-1Zm0-3h1v2h-1Zm0-3h1v2h-1Zm0-1.006h2v1h-2Z" transform="translate(293.152 99.1)" fill="#22242b"/><path d="M624.845,443.9h12v12h-12Z" transform="translate(293.152 99.1)" fill="none"/><path d="M627.845,443.9h2v1h-2Zm3,0h2v1h-2Zm3,0h3v2h-1v-1h-2Zm2,3h1v2h-1Zm0,3h1v2h-1Zm0,3h1v2h-1Zm-1,2h2v1h0v0h0v0h-2Zm2,1v0h0v0h0Zm-5-1h2v1h-2Zm-3,0h2v1h-2Zm-3,0h2v1h-2Zm-1-1h1v2h-1Zm0-3h1v2h-1Zm0-3h1v2h-1Zm0-3h1v2h-1Zm0-1.006h2v1h-2Z" transform="translate(293.152 99.1)" fill="#22242b"/><path d="M639.845,428.9h12v12h-12Z" transform="translate(293.152 99.1)" fill="none"/><path d="M642.845,428.9h2v1h-2Zm3,0h2v1h-2Zm3,0h3v2h-1v-1h-2Zm2,3h1v2h-1Zm0,3h1v2h-1Zm0,3h1v2h-1Zm-1,2h2v1h0v0h0v0h-2Zm2,1v0h0v0h0Zm-5-1h2v1h-2Zm-3,0h2v1h-2Zm-3,0h2v1h-2Zm-1-1h1v2h-1Zm0-3h1v2h-1Zm0-3h1v2h-1Zm0-3h1v2h-1Zm0-1.006h2v1h-2Z" transform="translate(293.152 99.1)" fill="#22242b"/><path d="M639.845,443.9h12v12h-12Z" transform="translate(293.152 99.1)" fill="none"/><path d="M642.845,443.9h2v1h-2Zm3,0h2v1h-2Zm3,0h3v2h-1v-1h-2Zm2,3h1v2h-1Zm0,3h1v2h-1Zm0,3h1v2h-1Zm-1,2h2v1h0v0h0v0h-2Zm2,1v0h0v0h0Zm-5-1h2v1h-2Zm-3,0h2v1h-2Zm-3,0h2v1h-2Zm-1-1h1v2h-1Zm0-3h1v2h-1Zm0-3h1v2h-1Zm0-3h1v2h-1Zm0-1.006h2v1h-2Z" transform="translate(293.152 99.1)" fill="#22242b"/><path d="M667.119,450.724a2.59,2.59,0,0,0,.857,2.168,4.121,4.121,0,0,0,2.512.7v2.054a6.755,6.755,0,0,1-4.306-1.274,4.27,4.27,0,0,1-1.523-3.5v-4.44a2.478,2.478,0,0,0-.923-2.175,4.621,4.621,0,0,0-2.681-.652V441.54a4.572,4.572,0,0,0,2.754-.7,2.494,2.494,0,0,0,.85-2.08v-4.482a4.257,4.257,0,0,1,1.586-3.534,6.626,6.626,0,0,1,4.248-1.26v2.036q-3.369.089-3.369,2.915v4.321q0,3.148-3.267,3.721v.176q3.267.571,3.267,3.721Z" transform="translate(293.152 99.1)" fill="#22242b"/><path d="M673.845,428.9h12v12h-12Z" transform="translate(293.152 99.1)" fill="none"/><path d="M676.845,428.9h2v1h-2Zm3,0h2v1h-2Zm3,0h3v2h-1v-1h-2Zm2,3h1v2h-1Zm0,3h1v2h-1Zm0,3h1v2h-1Zm-1,2h2v1h0v0h0v0h-2Zm2,1v0h0v0h0Zm-5-1h2v1h-2Zm-3,0h2v1h-2Zm-3,0h2v1h-2Zm-1-1h1v2h-1Zm0-3h1v2h-1Zm0-3h1v2h-1Zm0-3h1v2h-1Zm0-1.006h2v1h-2Z" transform="translate(293.152 99.1)" fill="#22242b"/><path d="M673.845,443.9h12v12h-12Z" transform="translate(293.152 99.1)" fill="none"/><path d="M676.845,443.9h2v1h-2Zm3,0h2v1h-2Zm3,0h3v2h-1v-1h-2Zm2,3h1v2h-1Zm0,3h1v2h-1Zm0,3h1v2h-1Zm-1,2h2v1h0v0h0v0h-2Zm2,1v0h0v0h0Zm-5-1h2v1h-2Zm-3,0h2v1h-2Zm-3,0h2v1h-2Zm-1-1h1v2h-1Zm0-3h1v2h-1Zm0-3h1v2h-1Zm0-3h1v2h-1Zm0-1.006h2v1h-2Z" transform="translate(293.152 99.1)" fill="#22242b"/></g></svg>