<svg xmlns="http://www.w3.org/2000/svg" width="47.083" height="35.004" viewBox="0 0 47.083 35.004"><g transform="translate(-614 -523)"><path d="M350.948,444.9h14v14h-14Z" transform="translate(293.152 99.1)" fill="none"/><path d="M353.948,444.9h2v1h-2Zm3,0h2v1h-2Zm3,0h2v1h-2Zm3,0h2v1h0v2h-1v-2h-1Zm1,4h1v2h-1Zm0,3h1v2h-1Zm0,3h1v2h-1Zm0,3h1v1h-1Zm-3,0h2v1h-2Zm-3,0h2v1h-2Zm-3,0h2v1h-2Zm-3,0h2v1h-2Zm-1-1h1v2h-1Zm0-3h1v2h-1Zm0-3h1v2h-1Zm0-3h1v2h-1Zm0-3h2v1h-1v1h-1Z" transform="translate(293.152 99.1)" fill="#22242b"/><path d="M350.948,423.9h14v14h-14Z" transform="translate(293.152 99.1)" fill="none"/><path d="M350.948,423.9h2v1h-1v1.007h-1Zm3,0h2v1h-2Zm3,0h2v1h-2Zm3,0h2v1h-2Zm3,0h2v1h0v2h-1v-2h-1Zm1,4h1v2h-1Zm0,3h1v2h-1Zm0,3h1v2h-1Zm0,3h1v1h-1Zm-3,0h2v1h-2Zm-3,0h2v1h-2Zm-3,0h2v1h-2Zm-3,0h2v1h-2Zm-1-1h1v2h-1Zm0-3h1v2h-1Zm0-3h1v2h-1Zm0-3h1v2h-1Z" transform="translate(293.152 99.1)" fill="#22242b"/><path d="M331.948,430.9h14v22h-14Z" transform="translate(293.152 99.1)" fill="none"/><path d="M331.948,430.9h2v1h-1v2h-1Zm3,0h2v1h-2Zm3,0h2v1h-2Zm3,0h2v1h-2Zm3,0h2v1h0v2h-1v-2h-1Zm1,4h1v2h-1Zm0,3h1v2h-1Zm0,3h1v2h-1Zm0,3h1v2h-1Zm0,3h1v2h-1Zm0,3h1v2h0v1h-2v-1h1Zm-4,2h2v1h-2Zm-3,0h2v1h-2Zm-3,0h2v1h-2Zm-3,0h2v1h-2Zm0-2h1v2h-1Zm0-3h1v2h-1Zm0-3h1v2h-1Zm0-3h1v2h-1Zm0-3h1v2h-1Zm0-3h1v2h-1Z" transform="translate(293.152 99.1)" fill="#22242b"/><g transform="translate(293.152 99.1)"><path d="M347.966,441.4h19.965" fill="#22242b"/><rect width="19.965" height="1" transform="translate(347.966 440.904)" fill="#22242b"/></g><path d="M325.425,453.013h-.993l-2.184-6.109h-1.4v-1.055h2.258l1.834,5.344,4.016-11.476h1.07Z" transform="translate(293.152 99.1)" fill="#22242b"/></g></svg>