<svg xmlns="http://www.w3.org/2000/svg" width="288.489" height="138.971" viewBox="0 0 288.489 138.971"><g transform="translate(-309 -187)"><g transform="translate(309 187)" fill="#fff" stroke="#dbdbdb" stroke-width="1"><rect width="288.489" height="138.97" rx="5" stroke="none"/><rect x="0.5" y="0.5" width="287.489" height="137.97" rx="4.5" fill="none"/></g><g transform="translate(137.907 -262.045)"><g transform="translate(279.548 517.804)"><path d="M288.6,591.661a40.714,40.714,0,0,0,35.306,20.379V571.282Z" transform="translate(-287.633 -570.316)" fill="#ceefdd"/><path d="M322.689,611.794a41.869,41.869,0,0,1-36.145-20.865.971.971,0,0,1,.355-1.323l35.3-20.378a.984.984,0,0,1,.969,0,.972.972,0,0,1,.485.839v40.758A.969.969,0,0,1,322.689,611.794Zm-33.973-21a39.943,39.943,0,0,0,33,19.05v-38.1Z" transform="translate(-286.414 -569.1)" fill="#00ad50"/></g><g transform="translate(279.548 477.044)"><path d="M323.908,479.227A40.71,40.71,0,0,0,288.6,499.608l35.306,20.378Z" transform="translate(-287.633 -478.26)" fill="#fff"/><path d="M322.689,519.74a1,1,0,0,1-.486-.127L286.9,499.23a.966.966,0,0,1-.355-1.322,41.869,41.869,0,0,1,36.145-20.864.967.967,0,0,1,.968.967V518.77a.979.979,0,0,1-.485.843A1,1,0,0,1,322.689,519.74Zm-33.973-21.7,33,19.053v-38.1A39.935,39.935,0,0,0,288.716,498.043Z" transform="translate(-286.414 -477.044)" fill="#00ad50"/></g><g transform="translate(314.854 477.044)"><path d="M403.642,499.608a40.709,40.709,0,0,0-35.3-20.381v40.759Z" transform="translate(-367.371 -478.26)" fill="#fff"/><path d="M367.121,519.74a1,1,0,0,1-.486-.127.976.976,0,0,1-.483-.843V478.011a.968.968,0,0,1,.969-.967,41.864,41.864,0,0,1,36.139,20.864.966.966,0,0,1-.355,1.322l-35.3,20.383A1,1,0,0,1,367.121,519.74Zm.968-40.747v38.1l33-19.049A39.932,39.932,0,0,0,368.089,478.993Z" transform="translate(-366.152 -477.044)" fill="#00ad50"/></g><g transform="translate(314.853 497.423)"><path d="M403.642,525.26h0l-35.3,20.378Z" transform="translate(-367.37 -524.289)" fill="#1bbbb4"/><path d="M367.119,545.386a.969.969,0,0,1-.486-1.808l35.3-20.376a.968.968,0,1,1,.968,1.677l-35.3,20.38a.724.724,0,0,1-.182.076.871.871,0,0,1-.221.047A.564.564,0,0,1,367.119,545.386Z" transform="translate(-366.149 -523.069)" fill="#005c88"/></g><g transform="translate(279.548 497.423)"><path d="M288.6,525.258h0l35.306,20.378Z" transform="translate(-287.633 -524.289)" fill="#1bbbb4"/><path d="M322.685,545.386a.968.968,0,0,1-.482-.127l-35.3-20.383a.967.967,0,1,1,.968-1.675l35.3,20.376a.972.972,0,0,1,.485.839.984.984,0,0,1-.131.486A.973.973,0,0,1,322.685,545.386Z" transform="translate(-286.414 -523.069)" fill="#005c88"/></g><g transform="translate(314.854 497.424)"><path d="M403.642,566.017a40.81,40.81,0,0,0,0-40.756l-35.3,20.377Z" transform="translate(-367.371 -524.292)" fill="#fff"/><path d="M402.42,565.764a.942.942,0,0,1-.483-.132l-35.3-20.372a.973.973,0,0,1,0-1.681l35.3-20.376a.965.965,0,0,1,1.323.355,41.756,41.756,0,0,1,0,41.72A.967.967,0,0,1,402.42,565.764Zm-33.364-21.346,33,19.048a39.848,39.848,0,0,0,0-38.1Z" transform="translate(-366.152 -523.071)" fill="#00ad50"/></g><g transform="translate(274.093 497.423)"><path d="M281.734,525.258a40.776,40.776,0,0,0,0,40.757l35.306-20.379Z" transform="translate(-275.309 -524.289)" fill="#fff"/><path d="M280.517,565.763a.968.968,0,0,1-.839-.484,41.757,41.757,0,0,1,0-41.725A.964.964,0,0,1,281,523.2l35.3,20.376a.971.971,0,0,1,0,1.681L281,565.636A.991.991,0,0,1,280.517,565.763Zm.363-40.395a39.825,39.825,0,0,0,0,38.1l33.007-19.052Z" transform="translate(-274.093 -523.069)" fill="#00ad50"/></g><g transform="translate(314.853 517.803)"><path d="M368.34,571.282l35.3,20.379h0Z" transform="translate(-367.37 -570.315)" fill="#1bbbb4"/><path d="M402.419,591.412a.986.986,0,0,1-.483-.127l-35.3-20.377c-.009-.011-.019-.012-.027-.019a.971.971,0,0,1-.328-1.307,1.279,1.279,0,0,1,.146-.192.988.988,0,0,1,.577-.283.934.934,0,0,1,.488.067h0s0-.006.007,0h0a1.178,1.178,0,0,1,.106.051L402.9,589.6h0a.968.968,0,0,1-.485,1.807Z" transform="translate(-366.15 -569.099)" fill="#005c88"/></g><g transform="translate(314.854 517.804)"><path d="M367.121,611.794a.969.969,0,0,1-.969-.97V570.066a.969.969,0,0,1,.483-.839.984.984,0,0,1,.969,0l35.3,20.378a.97.97,0,0,1,.355,1.323A41.862,41.862,0,0,1,367.121,611.794Zm.968-40.053v38.1a39.938,39.938,0,0,0,33-19.05Z" transform="translate(-366.152 -569.1)" fill="#00ad50"/></g><g transform="translate(279.548 517.801)"><path d="M288.6,591.661h0l35.306-20.379Z" transform="translate(-287.633 -570.314)" fill="#1bbbb4"/><path d="M287.383,591.409a.968.968,0,0,1-.484-1.807l35.3-20.378a.971.971,0,0,1,1.323.355.97.97,0,0,1-.355,1.326l-35.3,20.377A.991.991,0,0,1,287.383,591.409Z" transform="translate(-286.414 -569.094)" fill="#00ad50"/></g></g></g></svg>