<svg xmlns="http://www.w3.org/2000/svg" xmlns:xlink="http://www.w3.org/1999/xlink" width="288.489" height="138.971" viewBox="0 0 288.489 138.971"><defs><clipPath id="a"><rect width="288.489" height="138.97" rx="5" transform="translate(519 259)" fill="#fff" stroke="#dbdbdb" stroke-width="1"/></clipPath></defs><g transform="translate(-519 -259)" clip-path="url(#a)"><g transform="translate(518.309 259.33)" fill="#fff"><path d="M 36.3425178527832 36.3425178527832 L 0.4999970197677612 36.3425178527832 L 0.4999970197677612 0.4999970197677612 L 36.3425178527832 0.4999970197677612 L 36.3425178527832 36.3425178527832 Z" stroke="none"/><path d="M 0.9999961853027344 0.9999961853027344 L 0.9999961853027344 35.8425178527832 L 35.8425178527832 35.8425178527832 L 35.8425178527832 0.9999961853027344 L 0.9999961853027344 0.9999961853027344 M -3.814697265625e-06 -3.814697265625e-06 L 36.8425178527832 -3.814697265625e-06 L 36.8425178527832 36.8425178527832 L -3.814697265625e-06 36.8425178527832 L -3.814697265625e-06 -3.814697265625e-06 Z" stroke="none" fill="#e4e4e4"/></g><g transform="translate(554.332 259.33)" fill="#fff"><path d="M 36.3425178527832 36.3425178527832 L 0.4999970197677612 36.3425178527832 L 0.4999970197677612 0.4999970197677612 L 36.3425178527832 0.4999970197677612 L 36.3425178527832 36.3425178527832 Z" stroke="none"/><path d="M 0.9999961853027344 0.9999961853027344 L 0.9999961853027344 35.8425178527832 L 35.8425178527832 35.8425178527832 L 35.8425178527832 0.9999961853027344 L 0.9999961853027344 0.9999961853027344 M -3.814697265625e-06 -3.814697265625e-06 L 36.8425178527832 -3.814697265625e-06 L 36.8425178527832 36.8425178527832 L -3.814697265625e-06 36.8425178527832 L -3.814697265625e-06 -3.814697265625e-06 Z" stroke="none" fill="#e4e4e4"/></g><g transform="translate(590.356 259.33)" fill="#fff"><path d="M 36.3425178527832 36.3425178527832 L 0.4999970197677612 36.3425178527832 L 0.4999970197677612 0.4999970197677612 L 36.3425178527832 0.4999970197677612 L 36.3425178527832 36.3425178527832 Z" stroke="none"/><path d="M 0.9999961853027344 0.9999961853027344 L 0.9999961853027344 35.8425178527832 L 35.8425178527832 35.8425178527832 L 35.8425178527832 0.9999961853027344 L 0.9999961853027344 0.9999961853027344 M -3.814697265625e-06 -3.814697265625e-06 L 36.8425178527832 -3.814697265625e-06 L 36.8425178527832 36.8425178527832 L -3.814697265625e-06 36.8425178527832 L -3.814697265625e-06 -3.814697265625e-06 Z" stroke="none" fill="#e4e4e4"/></g><g transform="translate(626.38 259.33)" fill="#fff"><path d="M 36.3425178527832 36.3425178527832 L 0.4999970197677612 36.3425178527832 L 0.4999970197677612 0.4999970197677612 L 36.3425178527832 0.4999970197677612 L 36.3425178527832 36.3425178527832 Z" stroke="none"/><path d="M 0.9999961853027344 0.9999961853027344 L 0.9999961853027344 35.8425178527832 L 35.8425178527832 35.8425178527832 L 35.8425178527832 0.9999961853027344 L 0.9999961853027344 0.9999961853027344 M -3.814697265625e-06 -3.814697265625e-06 L 36.8425178527832 -3.814697265625e-06 L 36.8425178527832 36.8425178527832 L -3.814697265625e-06 36.8425178527832 L -3.814697265625e-06 -3.814697265625e-06 Z" stroke="none" fill="#e4e4e4"/></g><g transform="translate(662.404 259.33)" fill="#fff"><path d="M 36.3425178527832 36.3425178527832 L 0.4999970197677612 36.3425178527832 L 0.4999970197677612 0.4999970197677612 L 36.3425178527832 0.4999970197677612 L 36.3425178527832 36.3425178527832 Z" stroke="none"/><path d="M 0.9999961853027344 0.9999961853027344 L 0.9999961853027344 35.8425178527832 L 35.8425178527832 35.8425178527832 L 35.8425178527832 0.9999961853027344 L 0.9999961853027344 0.9999961853027344 M -3.814697265625e-06 -3.814697265625e-06 L 36.8425178527832 -3.814697265625e-06 L 36.8425178527832 36.8425178527832 L -3.814697265625e-06 36.8425178527832 L -3.814697265625e-06 -3.814697265625e-06 Z" stroke="none" fill="#e4e4e4"/></g><g transform="translate(698.428 259.33)" fill="#fff"><path d="M 36.3425178527832 36.3425178527832 L 0.4999970197677612 36.3425178527832 L 0.4999970197677612 0.4999970197677612 L 36.3425178527832 0.4999970197677612 L 36.3425178527832 36.3425178527832 Z" stroke="none"/><path d="M 0.9999961853027344 0.9999961853027344 L 0.9999961853027344 35.8425178527832 L 35.8425178527832 35.8425178527832 L 35.8425178527832 0.9999961853027344 L 0.9999961853027344 0.9999961853027344 M -3.814697265625e-06 -3.814697265625e-06 L 36.8425178527832 -3.814697265625e-06 L 36.8425178527832 36.8425178527832 L -3.814697265625e-06 36.8425178527832 L -3.814697265625e-06 -3.814697265625e-06 Z" stroke="none" fill="#e4e4e4"/></g><g transform="translate(734.451 259.33)" fill="#fff"><path d="M 36.3425178527832 36.3425178527832 L 0.4999970197677612 36.3425178527832 L 0.4999970197677612 0.4999970197677612 L 36.3425178527832 0.4999970197677612 L 36.3425178527832 36.3425178527832 Z" stroke="none"/><path d="M 0.9999961853027344 0.9999961853027344 L 0.9999961853027344 35.8425178527832 L 35.8425178527832 35.8425178527832 L 35.8425178527832 0.9999961853027344 L 0.9999961853027344 0.9999961853027344 M -3.814697265625e-06 -3.814697265625e-06 L 36.8425178527832 -3.814697265625e-06 L 36.8425178527832 36.8425178527832 L -3.814697265625e-06 36.8425178527832 L -3.814697265625e-06 -3.814697265625e-06 Z" stroke="none" fill="#e4e4e4"/></g><g transform="translate(770.475 259.33)" fill="#fff"><path d="M 36.3425178527832 36.3425178527832 L 0.4999970197677612 36.3425178527832 L 0.4999970197677612 0.4999970197677612 L 36.3425178527832 0.4999970197677612 L 36.3425178527832 36.3425178527832 Z" stroke="none"/><path d="M 0.9999961853027344 0.9999961853027344 L 0.9999961853027344 35.8425178527832 L 35.8425178527832 35.8425178527832 L 35.8425178527832 0.9999961853027344 L 0.9999961853027344 0.9999961853027344 M -3.814697265625e-06 -3.814697265625e-06 L 36.8425178527832 -3.814697265625e-06 L 36.8425178527832 36.8425178527832 L -3.814697265625e-06 36.8425178527832 L -3.814697265625e-06 -3.814697265625e-06 Z" stroke="none" fill="#e4e4e4"/></g><g transform="translate(518.309 295.354)" fill="#fff"><path d="M 36.3425178527832 36.3425178527832 L 0.4999970197677612 36.3425178527832 L 0.4999970197677612 0.4999970197677612 L 36.3425178527832 0.4999970197677612 L 36.3425178527832 36.3425178527832 Z" stroke="none"/><path d="M 0.9999961853027344 0.9999961853027344 L 0.9999961853027344 35.8425178527832 L 35.8425178527832 35.8425178527832 L 35.8425178527832 0.9999961853027344 L 0.9999961853027344 0.9999961853027344 M -3.814697265625e-06 -3.814697265625e-06 L 36.8425178527832 -3.814697265625e-06 L 36.8425178527832 36.8425178527832 L -3.814697265625e-06 36.8425178527832 L -3.814697265625e-06 -3.814697265625e-06 Z" stroke="none" fill="#e4e4e4"/></g><g transform="translate(554.332 295.354)" fill="#fff"><path d="M 36.3425178527832 36.3425178527832 L 0.4999970197677612 36.3425178527832 L 0.4999970197677612 0.4999970197677612 L 36.3425178527832 0.4999970197677612 L 36.3425178527832 36.3425178527832 Z" stroke="none"/><path d="M 0.9999961853027344 0.9999961853027344 L 0.9999961853027344 35.8425178527832 L 35.8425178527832 35.8425178527832 L 35.8425178527832 0.9999961853027344 L 0.9999961853027344 0.9999961853027344 M -3.814697265625e-06 -3.814697265625e-06 L 36.8425178527832 -3.814697265625e-06 L 36.8425178527832 36.8425178527832 L -3.814697265625e-06 36.8425178527832 L -3.814697265625e-06 -3.814697265625e-06 Z" stroke="none" fill="#e4e4e4"/></g><g transform="translate(590.356 295.354)" fill="#fff"><path d="M 36.3425178527832 36.3425178527832 L 0.4999970197677612 36.3425178527832 L 0.4999970197677612 0.4999970197677612 L 36.3425178527832 0.4999970197677612 L 36.3425178527832 36.3425178527832 Z" stroke="none"/><path d="M 0.9999961853027344 0.9999961853027344 L 0.9999961853027344 35.8425178527832 L 35.8425178527832 35.8425178527832 L 35.8425178527832 0.9999961853027344 L 0.9999961853027344 0.9999961853027344 M -3.814697265625e-06 -3.814697265625e-06 L 36.8425178527832 -3.814697265625e-06 L 36.8425178527832 36.8425178527832 L -3.814697265625e-06 36.8425178527832 L -3.814697265625e-06 -3.814697265625e-06 Z" stroke="none" fill="#e4e4e4"/></g><g transform="translate(626.38 295.354)" fill="#fff"><path d="M 36.3425178527832 36.3425178527832 L 0.4999970197677612 36.3425178527832 L 0.4999970197677612 0.4999970197677612 L 36.3425178527832 0.4999970197677612 L 36.3425178527832 36.3425178527832 Z" stroke="none"/><path d="M 0.9999961853027344 0.9999961853027344 L 0.9999961853027344 35.8425178527832 L 35.8425178527832 35.8425178527832 L 35.8425178527832 0.9999961853027344 L 0.9999961853027344 0.9999961853027344 M -3.814697265625e-06 -3.814697265625e-06 L 36.8425178527832 -3.814697265625e-06 L 36.8425178527832 36.8425178527832 L -3.814697265625e-06 36.8425178527832 L -3.814697265625e-06 -3.814697265625e-06 Z" stroke="none" fill="#e4e4e4"/></g><g transform="translate(662.404 295.354)" fill="#fff"><path d="M 36.3425178527832 36.3425178527832 L 0.4999970197677612 36.3425178527832 L 0.4999970197677612 0.4999970197677612 L 36.3425178527832 0.4999970197677612 L 36.3425178527832 36.3425178527832 Z" stroke="none"/><path d="M 0.9999961853027344 0.9999961853027344 L 0.9999961853027344 35.8425178527832 L 35.8425178527832 35.8425178527832 L 35.8425178527832 0.9999961853027344 L 0.9999961853027344 0.9999961853027344 M -3.814697265625e-06 -3.814697265625e-06 L 36.8425178527832 -3.814697265625e-06 L 36.8425178527832 36.8425178527832 L -3.814697265625e-06 36.8425178527832 L -3.814697265625e-06 -3.814697265625e-06 Z" stroke="none" fill="#e4e4e4"/></g><g transform="translate(698.428 295.354)" fill="#fff"><path d="M 36.3425178527832 36.3425178527832 L 0.4999970197677612 36.3425178527832 L 0.4999970197677612 0.4999970197677612 L 36.3425178527832 0.4999970197677612 L 36.3425178527832 36.3425178527832 Z" stroke="none"/><path d="M 0.9999961853027344 0.9999961853027344 L 0.9999961853027344 35.8425178527832 L 35.8425178527832 35.8425178527832 L 35.8425178527832 0.9999961853027344 L 0.9999961853027344 0.9999961853027344 M -3.814697265625e-06 -3.814697265625e-06 L 36.8425178527832 -3.814697265625e-06 L 36.8425178527832 36.8425178527832 L -3.814697265625e-06 36.8425178527832 L -3.814697265625e-06 -3.814697265625e-06 Z" stroke="none" fill="#e4e4e4"/></g><g transform="translate(734.451 295.354)" fill="#fff"><path d="M 36.3425178527832 36.3425178527832 L 0.4999970197677612 36.3425178527832 L 0.4999970197677612 0.4999970197677612 L 36.3425178527832 0.4999970197677612 L 36.3425178527832 36.3425178527832 Z" stroke="none"/><path d="M 0.9999961853027344 0.9999961853027344 L 0.9999961853027344 35.8425178527832 L 35.8425178527832 35.8425178527832 L 35.8425178527832 0.9999961853027344 L 0.9999961853027344 0.9999961853027344 M -3.814697265625e-06 -3.814697265625e-06 L 36.8425178527832 -3.814697265625e-06 L 36.8425178527832 36.8425178527832 L -3.814697265625e-06 36.8425178527832 L -3.814697265625e-06 -3.814697265625e-06 Z" stroke="none" fill="#e4e4e4"/></g><g transform="translate(770.475 295.354)" fill="#fff"><path d="M 36.3425178527832 36.3425178527832 L 0.4999970197677612 36.3425178527832 L 0.4999970197677612 0.4999970197677612 L 36.3425178527832 0.4999970197677612 L 36.3425178527832 36.3425178527832 Z" stroke="none"/><path d="M 0.9999961853027344 0.9999961853027344 L 0.9999961853027344 35.8425178527832 L 35.8425178527832 35.8425178527832 L 35.8425178527832 0.9999961853027344 L 0.9999961853027344 0.9999961853027344 M -3.814697265625e-06 -3.814697265625e-06 L 36.8425178527832 -3.814697265625e-06 L 36.8425178527832 36.8425178527832 L -3.814697265625e-06 36.8425178527832 L -3.814697265625e-06 -3.814697265625e-06 Z" stroke="none" fill="#e4e4e4"/></g><g transform="translate(518.309 331.378)" fill="#fff"><path d="M 36.3425178527832 36.3425178527832 L 0.4999970197677612 36.3425178527832 L 0.4999970197677612 0.4999970197677612 L 36.3425178527832 0.4999970197677612 L 36.3425178527832 36.3425178527832 Z" stroke="none"/><path d="M 0.9999961853027344 0.9999961853027344 L 0.9999961853027344 35.8425178527832 L 35.8425178527832 35.8425178527832 L 35.8425178527832 0.9999961853027344 L 0.9999961853027344 0.9999961853027344 M -3.814697265625e-06 -3.814697265625e-06 L 36.8425178527832 -3.814697265625e-06 L 36.8425178527832 36.8425178527832 L -3.814697265625e-06 36.8425178527832 L -3.814697265625e-06 -3.814697265625e-06 Z" stroke="none" fill="#e4e4e4"/></g><g transform="translate(554.332 331.378)" fill="#fff"><path d="M 36.3425178527832 36.3425178527832 L 0.4999970197677612 36.3425178527832 L 0.4999970197677612 0.4999970197677612 L 36.3425178527832 0.4999970197677612 L 36.3425178527832 36.3425178527832 Z" stroke="none"/><path d="M 0.9999961853027344 0.9999961853027344 L 0.9999961853027344 35.8425178527832 L 35.8425178527832 35.8425178527832 L 35.8425178527832 0.9999961853027344 L 0.9999961853027344 0.9999961853027344 M -3.814697265625e-06 -3.814697265625e-06 L 36.8425178527832 -3.814697265625e-06 L 36.8425178527832 36.8425178527832 L -3.814697265625e-06 36.8425178527832 L -3.814697265625e-06 -3.814697265625e-06 Z" stroke="none" fill="#e4e4e4"/></g><g transform="translate(590.356 331.378)" fill="#fff"><path d="M 36.3425178527832 36.3425178527832 L 0.4999970197677612 36.3425178527832 L 0.4999970197677612 0.4999970197677612 L 36.3425178527832 0.4999970197677612 L 36.3425178527832 36.3425178527832 Z" stroke="none"/><path d="M 0.9999961853027344 0.9999961853027344 L 0.9999961853027344 35.8425178527832 L 35.8425178527832 35.8425178527832 L 35.8425178527832 0.9999961853027344 L 0.9999961853027344 0.9999961853027344 M -3.814697265625e-06 -3.814697265625e-06 L 36.8425178527832 -3.814697265625e-06 L 36.8425178527832 36.8425178527832 L -3.814697265625e-06 36.8425178527832 L -3.814697265625e-06 -3.814697265625e-06 Z" stroke="none" fill="#e4e4e4"/></g><g transform="translate(626.38 331.378)" fill="#fff"><path d="M 36.3425178527832 36.3425178527832 L 0.4999970197677612 36.3425178527832 L 0.4999970197677612 0.4999970197677612 L 36.3425178527832 0.4999970197677612 L 36.3425178527832 36.3425178527832 Z" stroke="none"/><path d="M 0.9999961853027344 0.9999961853027344 L 0.9999961853027344 35.8425178527832 L 35.8425178527832 35.8425178527832 L 35.8425178527832 0.9999961853027344 L 0.9999961853027344 0.9999961853027344 M -3.814697265625e-06 -3.814697265625e-06 L 36.8425178527832 -3.814697265625e-06 L 36.8425178527832 36.8425178527832 L -3.814697265625e-06 36.8425178527832 L -3.814697265625e-06 -3.814697265625e-06 Z" stroke="none" fill="#e4e4e4"/></g><g transform="translate(662.404 331.378)" fill="#fff"><path d="M 36.3425178527832 36.3425178527832 L 0.4999970197677612 36.3425178527832 L 0.4999970197677612 0.4999970197677612 L 36.3425178527832 0.4999970197677612 L 36.3425178527832 36.3425178527832 Z" stroke="none"/><path d="M 0.9999961853027344 0.9999961853027344 L 0.9999961853027344 35.8425178527832 L 35.8425178527832 35.8425178527832 L 35.8425178527832 0.9999961853027344 L 0.9999961853027344 0.9999961853027344 M -3.814697265625e-06 -3.814697265625e-06 L 36.8425178527832 -3.814697265625e-06 L 36.8425178527832 36.8425178527832 L -3.814697265625e-06 36.8425178527832 L -3.814697265625e-06 -3.814697265625e-06 Z" stroke="none" fill="#e4e4e4"/></g><g transform="translate(698.428 331.378)" fill="#fff"><path d="M 36.3425178527832 36.3425178527832 L 0.4999970197677612 36.3425178527832 L 0.4999970197677612 0.4999970197677612 L 36.3425178527832 0.4999970197677612 L 36.3425178527832 36.3425178527832 Z" stroke="none"/><path d="M 0.9999961853027344 0.9999961853027344 L 0.9999961853027344 35.8425178527832 L 35.8425178527832 35.8425178527832 L 35.8425178527832 0.9999961853027344 L 0.9999961853027344 0.9999961853027344 M -3.814697265625e-06 -3.814697265625e-06 L 36.8425178527832 -3.814697265625e-06 L 36.8425178527832 36.8425178527832 L -3.814697265625e-06 36.8425178527832 L -3.814697265625e-06 -3.814697265625e-06 Z" stroke="none" fill="#e4e4e4"/></g><g transform="translate(734.451 331.378)" fill="#fff"><path d="M 36.3425178527832 36.3425178527832 L 0.4999970197677612 36.3425178527832 L 0.4999970197677612 0.4999970197677612 L 36.3425178527832 0.4999970197677612 L 36.3425178527832 36.3425178527832 Z" stroke="none"/><path d="M 0.9999961853027344 0.9999961853027344 L 0.9999961853027344 35.8425178527832 L 35.8425178527832 35.8425178527832 L 35.8425178527832 0.9999961853027344 L 0.9999961853027344 0.9999961853027344 M -3.814697265625e-06 -3.814697265625e-06 L 36.8425178527832 -3.814697265625e-06 L 36.8425178527832 36.8425178527832 L -3.814697265625e-06 36.8425178527832 L -3.814697265625e-06 -3.814697265625e-06 Z" stroke="none" fill="#e4e4e4"/></g><g transform="translate(770.475 331.378)" fill="#fff"><path d="M 36.3425178527832 36.3425178527832 L 0.4999970197677612 36.3425178527832 L 0.4999970197677612 0.4999970197677612 L 36.3425178527832 0.4999970197677612 L 36.3425178527832 36.3425178527832 Z" stroke="none"/><path d="M 0.9999961853027344 0.9999961853027344 L 0.9999961853027344 35.8425178527832 L 35.8425178527832 35.8425178527832 L 35.8425178527832 0.9999961853027344 L 0.9999961853027344 0.9999961853027344 M -3.814697265625e-06 -3.814697265625e-06 L 36.8425178527832 -3.814697265625e-06 L 36.8425178527832 36.8425178527832 L -3.814697265625e-06 36.8425178527832 L -3.814697265625e-06 -3.814697265625e-06 Z" stroke="none" fill="#e4e4e4"/></g><g transform="translate(518.309 367.402)" fill="#fff"><path d="M 36.3425178527832 36.3425178527832 L 0.4999970197677612 36.3425178527832 L 0.4999970197677612 0.4999970197677612 L 36.3425178527832 0.4999970197677612 L 36.3425178527832 36.3425178527832 Z" stroke="none"/><path d="M 0.9999961853027344 0.9999961853027344 L 0.9999961853027344 35.8425178527832 L 35.8425178527832 35.8425178527832 L 35.8425178527832 0.9999961853027344 L 0.9999961853027344 0.9999961853027344 M -3.814697265625e-06 -3.814697265625e-06 L 36.8425178527832 -3.814697265625e-06 L 36.8425178527832 36.8425178527832 L -3.814697265625e-06 36.8425178527832 L -3.814697265625e-06 -3.814697265625e-06 Z" stroke="none" fill="#e4e4e4"/></g><g transform="translate(554.332 367.402)" fill="#fff"><path d="M 36.3425178527832 36.3425178527832 L 0.4999970197677612 36.3425178527832 L 0.4999970197677612 0.4999970197677612 L 36.3425178527832 0.4999970197677612 L 36.3425178527832 36.3425178527832 Z" stroke="none"/><path d="M 0.9999961853027344 0.9999961853027344 L 0.9999961853027344 35.8425178527832 L 35.8425178527832 35.8425178527832 L 35.8425178527832 0.9999961853027344 L 0.9999961853027344 0.9999961853027344 M -3.814697265625e-06 -3.814697265625e-06 L 36.8425178527832 -3.814697265625e-06 L 36.8425178527832 36.8425178527832 L -3.814697265625e-06 36.8425178527832 L -3.814697265625e-06 -3.814697265625e-06 Z" stroke="none" fill="#e4e4e4"/></g><g transform="translate(590.356 367.402)" fill="#fff"><path d="M 36.3425178527832 36.3425178527832 L 0.4999970197677612 36.3425178527832 L 0.4999970197677612 0.4999970197677612 L 36.3425178527832 0.4999970197677612 L 36.3425178527832 36.3425178527832 Z" stroke="none"/><path d="M 0.9999961853027344 0.9999961853027344 L 0.9999961853027344 35.8425178527832 L 35.8425178527832 35.8425178527832 L 35.8425178527832 0.9999961853027344 L 0.9999961853027344 0.9999961853027344 M -3.814697265625e-06 -3.814697265625e-06 L 36.8425178527832 -3.814697265625e-06 L 36.8425178527832 36.8425178527832 L -3.814697265625e-06 36.8425178527832 L -3.814697265625e-06 -3.814697265625e-06 Z" stroke="none" fill="#e4e4e4"/></g><g transform="translate(626.38 367.402)" fill="#fff"><path d="M 36.3425178527832 36.3425178527832 L 0.4999970197677612 36.3425178527832 L 0.4999970197677612 0.4999970197677612 L 36.3425178527832 0.4999970197677612 L 36.3425178527832 36.3425178527832 Z" stroke="none"/><path d="M 0.9999961853027344 0.9999961853027344 L 0.9999961853027344 35.8425178527832 L 35.8425178527832 35.8425178527832 L 35.8425178527832 0.9999961853027344 L 0.9999961853027344 0.9999961853027344 M -3.814697265625e-06 -3.814697265625e-06 L 36.8425178527832 -3.814697265625e-06 L 36.8425178527832 36.8425178527832 L -3.814697265625e-06 36.8425178527832 L -3.814697265625e-06 -3.814697265625e-06 Z" stroke="none" fill="#e4e4e4"/></g><g transform="translate(662.404 367.402)" fill="#fff"><path d="M 36.3425178527832 36.3425178527832 L 0.4999970197677612 36.3425178527832 L 0.4999970197677612 0.4999970197677612 L 36.3425178527832 0.4999970197677612 L 36.3425178527832 36.3425178527832 Z" stroke="none"/><path d="M 0.9999961853027344 0.9999961853027344 L 0.9999961853027344 35.8425178527832 L 35.8425178527832 35.8425178527832 L 35.8425178527832 0.9999961853027344 L 0.9999961853027344 0.9999961853027344 M -3.814697265625e-06 -3.814697265625e-06 L 36.8425178527832 -3.814697265625e-06 L 36.8425178527832 36.8425178527832 L -3.814697265625e-06 36.8425178527832 L -3.814697265625e-06 -3.814697265625e-06 Z" stroke="none" fill="#e4e4e4"/></g><g transform="translate(698.428 367.402)" fill="#fff"><path d="M 36.3425178527832 36.3425178527832 L 0.4999970197677612 36.3425178527832 L 0.4999970197677612 0.4999970197677612 L 36.3425178527832 0.4999970197677612 L 36.3425178527832 36.3425178527832 Z" stroke="none"/><path d="M 0.9999961853027344 0.9999961853027344 L 0.9999961853027344 35.8425178527832 L 35.8425178527832 35.8425178527832 L 35.8425178527832 0.9999961853027344 L 0.9999961853027344 0.9999961853027344 M -3.814697265625e-06 -3.814697265625e-06 L 36.8425178527832 -3.814697265625e-06 L 36.8425178527832 36.8425178527832 L -3.814697265625e-06 36.8425178527832 L -3.814697265625e-06 -3.814697265625e-06 Z" stroke="none" fill="#e4e4e4"/></g><g transform="translate(734.451 367.402)" fill="#fff"><path d="M 36.3425178527832 36.3425178527832 L 0.4999970197677612 36.3425178527832 L 0.4999970197677612 0.4999970197677612 L 36.3425178527832 0.4999970197677612 L 36.3425178527832 36.3425178527832 Z" stroke="none"/><path d="M 0.9999961853027344 0.9999961853027344 L 0.9999961853027344 35.8425178527832 L 35.8425178527832 35.8425178527832 L 35.8425178527832 0.9999961853027344 L 0.9999961853027344 0.9999961853027344 M -3.814697265625e-06 -3.814697265625e-06 L 36.8425178527832 -3.814697265625e-06 L 36.8425178527832 36.8425178527832 L -3.814697265625e-06 36.8425178527832 L -3.814697265625e-06 -3.814697265625e-06 Z" stroke="none" fill="#e4e4e4"/></g><g transform="translate(770.475 367.402)" fill="#fff"><path d="M 36.3425178527832 36.3425178527832 L 0.4999970197677612 36.3425178527832 L 0.4999970197677612 0.4999970197677612 L 36.3425178527832 0.4999970197677612 L 36.3425178527832 36.3425178527832 Z" stroke="none"/><path d="M 0.9999961853027344 0.9999961853027344 L 0.9999961853027344 35.8425178527832 L 35.8425178527832 35.8425178527832 L 35.8425178527832 0.9999961853027344 L 0.9999961853027344 0.9999961853027344 M -3.814697265625e-06 -3.814697265625e-06 L 36.8425178527832 -3.814697265625e-06 L 36.8425178527832 36.8425178527832 L -3.814697265625e-06 36.8425178527832 L -3.814697265625e-06 -3.814697265625e-06 Z" stroke="none" fill="#e4e4e4"/></g><path d="M0,0V136.781" transform="translate(661.828 261.028)" fill="none" stroke="#00ad50" stroke-width="2"/><path d="M0,0H284.792" transform="translate(519.185 331.453)" fill="none" stroke="#00ad50" stroke-width="2"/><path d="M2.984,0A2.984,2.984,0,1,1,0,2.984,2.984,2.984,0,0,1,2.984,0Z" transform="translate(551.337 292.628)" fill="#00ad50"/><path d="M2.984,0A2.984,2.984,0,1,1,0,2.984,2.984,2.984,0,0,1,2.984,0Z" transform="translate(551.337 328.651)" fill="#00ad50"/><path d="M2.984,0A2.984,2.984,0,1,1,0,2.984,2.984,2.984,0,0,1,2.984,0Z" transform="translate(588.18 292.628)" fill="#00ad50"/><path d="M2.984,0A2.984,2.984,0,1,1,0,2.984,2.984,2.984,0,0,1,2.984,0Z" transform="translate(588.18 328.651)" fill="#00ad50"/><g transform="translate(696.462 293.628)" fill="none"><path d="M0,0H38.387V38.387H0Z" stroke="none"/><path d="M 2 2 L 2 36.38676071166992 L 36.38676071166992 36.38676071166992 L 36.38676071166992 2 L 2 2 M 0 0 L 38.38676071166992 0 L 38.38676071166992 38.38676071166992 L 0 38.38676071166992 L 0 0 Z" stroke="none" fill="#00ad50"/></g><g transform="translate(696.462 293.628)" fill="#00ad50" opacity="0.19"><path d="M 37.88676071166992 37.88676071166992 L 0.5000003576278687 37.88676071166992 L 0.5000003576278687 0.5000003576278687 L 37.88676071166992 0.5000003576278687 L 37.88676071166992 37.88676071166992 Z" stroke="none"/><path d="M 1 1 L 1 37.38676071166992 L 37.38676071166992 37.38676071166992 L 37.38676071166992 1 L 1 1 M 0 0 L 38.38676071166992 0 L 38.38676071166992 38.38676071166992 L 0 38.38676071166992 L 0 0 Z" stroke="none" fill="#707070"/></g><path d="M2.986,0A2.986,2.986,0,1,1,0,2.986,2.986,2.986,0,0,1,2.986,0Z" transform="translate(693.903 290.643)" fill="#00ad50"/><path d="M2.986,0A2.986,2.986,0,1,1,0,2.986,2.986,2.986,0,0,1,2.986,0Z" transform="translate(693.903 329.029)" fill="#00ad50"/><path d="M2.986,0A2.986,2.986,0,1,1,0,2.986,2.986,2.986,0,0,1,2.986,0Z" transform="translate(731.863 290.643)" fill="#00ad50"/><path d="M2.986,0A2.986,2.986,0,1,1,0,2.986,2.986,2.986,0,0,1,2.986,0Z" transform="translate(731.863 329.029)" fill="#00ad50"/><path d="M589,696h35.258v33.813" transform="translate(2.205 -328.372)" fill="none" stroke="#00ad50" stroke-width="2"/><path d="M2.984,0A2.984,2.984,0,1,1,0,2.984,2.984,2.984,0,0,1,2.984,0Z" transform="translate(587.673 364.915)" fill="#fdcc3b"/><path d="M2.984,0A2.984,2.984,0,1,1,0,2.984,2.984,2.984,0,0,1,2.984,0Z" transform="translate(623.507 364.915)" fill="#00ad50"/></g></svg>