<svg xmlns="http://www.w3.org/2000/svg" xmlns:xlink="http://www.w3.org/1999/xlink" width="247.207" height="145.945" viewBox="0 0 247.207 145.945"><defs><clipPath id="a"><rect width="212" height="107.124" rx="5" transform="translate(519 259)" fill="#fff" stroke="#dbdbdb" stroke-width="1"/></clipPath></defs><g transform="translate(-16.756 -52.54)"><rect width="247.207" height="145.945" rx="5" transform="translate(16.756 52.54)" fill="#fff"/><g transform="translate(-484.244 -184.4)" clip-path="url(#a)"><g transform="translate(518.492 259.243)"><g transform="translate(0 0)"><g transform="translate(0 0)"><g transform="translate(0 0)"><g fill="#fff" stroke="#e4e4e4" stroke-width="1"><rect width="27.074" height="27.074" stroke="none"/><rect x="0.5" y="0.5" width="26.074" height="26.074" fill="none"/></g><g transform="translate(26.473)" fill="#fff" stroke="#e4e4e4" stroke-width="1"><rect width="27.074" height="27.074" stroke="none"/><rect x="0.5" y="0.5" width="26.074" height="26.074" fill="none"/></g><g transform="translate(52.945)" fill="#fff" stroke="#e4e4e4" stroke-width="1"><rect width="27.074" height="27.074" stroke="none"/><rect x="0.5" y="0.5" width="26.074" height="26.074" fill="none"/></g><g transform="translate(79.418)" fill="#fff" stroke="#e4e4e4" stroke-width="1"><rect width="27.074" height="27.074" stroke="none"/><rect x="0.5" y="0.5" width="26.074" height="26.074" fill="none"/></g><g transform="translate(105.89)" fill="#fff" stroke="#e4e4e4" stroke-width="1"><rect width="27.074" height="27.074" stroke="none"/><rect x="0.5" y="0.5" width="26.074" height="26.074" fill="none"/></g><g transform="translate(132.363)" fill="#fff" stroke="#e4e4e4" stroke-width="1"><rect width="27.074" height="27.074" stroke="none"/><rect x="0.5" y="0.5" width="26.074" height="26.074" fill="none"/></g><g transform="translate(158.836)" fill="#fff" stroke="#e4e4e4" stroke-width="1"><rect width="27.074" height="27.074" stroke="none"/><rect x="0.5" y="0.5" width="26.074" height="26.074" fill="none"/></g><g transform="translate(185.308)" fill="#fff" stroke="#e4e4e4" stroke-width="1"><rect width="27.074" height="27.074" stroke="none"/><rect x="0.5" y="0.5" width="26.074" height="26.074" fill="none"/></g><g transform="translate(0 26.473)" fill="#fff" stroke="#e4e4e4" stroke-width="1"><rect width="27.074" height="27.074" stroke="none"/><rect x="0.5" y="0.5" width="26.074" height="26.074" fill="none"/></g><g transform="translate(26.473 26.473)" fill="#fff" stroke="#e4e4e4" stroke-width="1"><rect width="27.074" height="27.074" stroke="none"/><rect x="0.5" y="0.5" width="26.074" height="26.074" fill="none"/></g><g transform="translate(52.945 26.473)" fill="#fff" stroke="#e4e4e4" stroke-width="1"><rect width="27.074" height="27.074" stroke="none"/><rect x="0.5" y="0.5" width="26.074" height="26.074" fill="none"/></g><g transform="translate(79.418 26.473)" fill="#fff" stroke="#e4e4e4" stroke-width="1"><rect width="27.074" height="27.074" stroke="none"/><rect x="0.5" y="0.5" width="26.074" height="26.074" fill="none"/></g><g transform="translate(105.89 26.473)" fill="#fff" stroke="#e4e4e4" stroke-width="1"><rect width="27.074" height="27.074" stroke="none"/><rect x="0.5" y="0.5" width="26.074" height="26.074" fill="none"/></g><g transform="translate(132.363 26.473)" fill="#fff" stroke="#e4e4e4" stroke-width="1"><rect width="27.074" height="27.074" stroke="none"/><rect x="0.5" y="0.5" width="26.074" height="26.074" fill="none"/></g><g transform="translate(158.836 26.473)" fill="#fff" stroke="#e4e4e4" stroke-width="1"><rect width="27.074" height="27.074" stroke="none"/><rect x="0.5" y="0.5" width="26.074" height="26.074" fill="none"/></g><g transform="translate(185.308 26.473)" fill="#fff" stroke="#e4e4e4" stroke-width="1"><rect width="27.074" height="27.074" stroke="none"/><rect x="0.5" y="0.5" width="26.074" height="26.074" fill="none"/></g><g transform="translate(0 52.945)" fill="#fff" stroke="#e4e4e4" stroke-width="1"><rect width="27.074" height="27.074" stroke="none"/><rect x="0.5" y="0.5" width="26.074" height="26.074" fill="none"/></g><g transform="translate(26.473 52.945)" fill="#fff" stroke="#e4e4e4" stroke-width="1"><rect width="27.074" height="27.074" stroke="none"/><rect x="0.5" y="0.5" width="26.074" height="26.074" fill="none"/></g><g transform="translate(52.945 52.945)" fill="#fff" stroke="#e4e4e4" stroke-width="1"><rect width="27.074" height="27.074" stroke="none"/><rect x="0.5" y="0.5" width="26.074" height="26.074" fill="none"/></g><g transform="translate(79.418 52.945)" fill="#fff" stroke="#e4e4e4" stroke-width="1"><rect width="27.074" height="27.074" stroke="none"/><rect x="0.5" y="0.5" width="26.074" height="26.074" fill="none"/></g><g transform="translate(105.89 52.945)" fill="#fff" stroke="#e4e4e4" stroke-width="1"><rect width="27.074" height="27.074" stroke="none"/><rect x="0.5" y="0.5" width="26.074" height="26.074" fill="none"/></g><g transform="translate(132.363 52.945)" fill="#fff" stroke="#e4e4e4" stroke-width="1"><rect width="27.074" height="27.074" stroke="none"/><rect x="0.5" y="0.5" width="26.074" height="26.074" fill="none"/></g><g transform="translate(158.836 52.945)" fill="#fff" stroke="#e4e4e4" stroke-width="1"><rect width="27.074" height="27.074" stroke="none"/><rect x="0.5" y="0.5" width="26.074" height="26.074" fill="none"/></g><g transform="translate(185.308 52.945)" fill="#fff" stroke="#e4e4e4" stroke-width="1"><rect width="27.074" height="27.074" stroke="none"/><rect x="0.5" y="0.5" width="26.074" height="26.074" fill="none"/></g><g transform="translate(0 79.418)" fill="#fff" stroke="#e4e4e4" stroke-width="1"><rect width="27.074" height="27.074" stroke="none"/><rect x="0.5" y="0.5" width="26.074" height="26.074" fill="none"/></g><g transform="translate(26.473 79.418)" fill="#fff" stroke="#e4e4e4" stroke-width="1"><rect width="27.074" height="27.074" stroke="none"/><rect x="0.5" y="0.5" width="26.074" height="26.074" fill="none"/></g><g transform="translate(52.945 79.418)" fill="#fff" stroke="#e4e4e4" stroke-width="1"><rect width="27.074" height="27.074" stroke="none"/><rect x="0.5" y="0.5" width="26.074" height="26.074" fill="none"/></g><g transform="translate(79.418 79.418)" fill="#fff" stroke="#e4e4e4" stroke-width="1"><rect width="27.074" height="27.074" stroke="none"/><rect x="0.5" y="0.5" width="26.074" height="26.074" fill="none"/></g><g transform="translate(105.89 79.418)" fill="#fff" stroke="#e4e4e4" stroke-width="1"><rect width="27.074" height="27.074" stroke="none"/><rect x="0.5" y="0.5" width="26.074" height="26.074" fill="none"/></g><g transform="translate(132.363 79.418)" fill="#fff" stroke="#e4e4e4" stroke-width="1"><rect width="27.074" height="27.074" stroke="none"/><rect x="0.5" y="0.5" width="26.074" height="26.074" fill="none"/></g><g transform="translate(158.836 79.418)" fill="#fff" stroke="#e4e4e4" stroke-width="1"><rect width="27.074" height="27.074" stroke="none"/><rect x="0.5" y="0.5" width="26.074" height="26.074" fill="none"/></g><g transform="translate(185.308 79.418)" fill="#fff" stroke="#e4e4e4" stroke-width="1"><rect width="27.074" height="27.074" stroke="none"/><rect x="0.5" y="0.5" width="26.074" height="26.074" fill="none"/></g><g transform="translate(0.644 1.248)"><line y2="104.01" transform="translate(104.823)" fill="none" stroke="#1ab395" stroke-width="2"/><line x2="209.283" transform="translate(0 51.753)" fill="none" stroke="#1ab395" stroke-width="2"/></g></g><g transform="translate(24.272 23.01)"><g transform="translate(0 1.459)"><circle cx="2.193" cy="2.193" r="2.193" transform="translate(0 0)" fill="#1ab395"/><circle cx="2.193" cy="2.193" r="2.193" transform="translate(0 26.473)" fill="#1ab395"/><circle cx="2.193" cy="2.193" r="2.193" transform="translate(27.074 0)" fill="#1ab395"/><circle cx="2.193" cy="2.193" r="2.193" transform="translate(27.074 26.473)" fill="#1ab395"/></g><g transform="translate(104.767)"><g transform="translate(1.881 2.194)" fill="none" stroke="#1ab395" stroke-width="2"><rect width="28.209" height="28.209" stroke="none"/><rect x="1" y="1" width="26.209" height="26.209" fill="none"/></g><g transform="translate(1.881 2.194)" fill="#1ab395" stroke="#1ab395" stroke-width="1" opacity="0.19"><rect width="28.209" height="28.209" stroke="none"/><rect x="0.5" y="0.5" width="27.209" height="27.209" fill="none"/></g><circle cx="2.194" cy="2.194" r="2.194" fill="#1ab395"/><circle cx="2.194" cy="2.194" r="2.194" transform="translate(0 28.209)" fill="#1ab395"/><circle cx="2.194" cy="2.194" r="2.194" transform="translate(27.896)" fill="#1ab395"/><circle cx="2.194" cy="2.194" r="2.194" transform="translate(27.896 28.209)" fill="#1ab395"/></g><g transform="translate(26.702 54.58)"><path d="M589,696h25.91v24.848" transform="translate(-586.405 -694.006)" fill="none" stroke="#1ab395" stroke-width="2"/><circle cx="2.193" cy="2.193" r="2.193" transform="translate(0)" fill="#fdcc3b"/><circle cx="2.193" cy="2.193" r="2.193" transform="translate(26.333)" fill="#1ab395"/></g></g></g></g></g></g></g></svg>