<svg xmlns="http://www.w3.org/2000/svg" xmlns:xlink="http://www.w3.org/1999/xlink" width="247.207" height="145.945" viewBox="0 0 247.207 145.945"><defs><filter id="a" x="4.023" y="-25.598" width="241.72" height="170.112" filterUnits="userSpaceOnUse"><feOffset dy="3" input="SourceAlpha"/><feGaussianBlur stdDeviation="5" result="b"/><feFlood flood-opacity="0.102"/><feComposite operator="in" in2="b"/><feComposite in="SourceGraphic"/></filter></defs><g transform="translate(-16.756 -51.6)"><rect width="247.207" height="145.945" rx="5" transform="translate(16.756 51.6)" fill="#fff"/><g transform="translate(-302.244 -140.4)"><g transform="translate(337 210.001)"><g transform="translate(0 45.672)"><line x2="212" transform="translate(0 5.148)" fill="none" stroke="#444" stroke-width="2" opacity="0.22"/><line y2="10.296" transform="translate(0.5)" fill="none" stroke="#e5e3e3" stroke-width="2"/><line y2="10.296" transform="translate(23.5)" fill="none" stroke="#e5e3e3" stroke-width="2"/><line y2="10.296" transform="translate(47.5)" fill="none" stroke="#e5e3e3" stroke-width="2"/><line y2="10.296" transform="translate(70.5)" fill="none" stroke="#e5e3e3" stroke-width="2"/><line y2="10.296" transform="translate(94.5)" fill="none" stroke="#e5e3e3" stroke-width="2"/><line y2="10.296" transform="translate(117.5)" fill="none" stroke="#e5e3e3" stroke-width="2"/><line y2="10.296" transform="translate(141.5)" fill="none" stroke="#e5e3e3" stroke-width="2"/><line y2="10.296" transform="translate(164.5)" fill="none" stroke="#e5e3e3" stroke-width="2"/><line y2="10.296" transform="translate(188.5)" fill="none" stroke="#e5e3e3" stroke-width="2"/><line y2="10.296" transform="translate(211.5)" fill="none" stroke="#e5e3e3" stroke-width="2"/></g><g transform="translate(0 22.277)"><path d="M0,0H40.877" transform="translate(0.613 4.068)" fill="#1ab395" stroke="#1ab395" stroke-width="2"/><circle cx="4" cy="4" r="4" fill="#1ab395"/><circle cx="4" cy="4" r="4" transform="translate(37.223)" fill="#1ab395"/></g><g transform="translate(167 22.277)"><path d="M0,0H40.877" transform="translate(0.613 4.068)" fill="#1ab395" stroke="#1ab395" stroke-width="2"/><circle cx="4" cy="4" r="4" fill="#1ab395"/><circle cx="4" cy="4" r="4" transform="translate(37.223)" fill="#1ab395"/></g></g><g transform="translate(351 294.15)"><g transform="translate(-14 0)" fill="#878a91" stroke="#878a91" stroke-width="1"><circle cx="3.934" cy="3.934" r="3.934" stroke="none"/><circle cx="3.934" cy="3.934" r="3.434" fill="none"/></g><g transform="translate(11 0)"><circle cx="3.934" cy="3.934" r="3.934" fill="#878a91"/><circle cx="3.934" cy="3.934" r="3.934" transform="translate(25.849)" fill="#878a91"/><line x2="18.544" transform="translate(7.586 4.214)" fill="none" stroke="#878a91" stroke-width="2"/></g><g transform="translate(63 0)"><g fill="none" stroke="#878a91" stroke-width="2"><circle cx="3.934" cy="3.934" r="3.934" stroke="none"/><circle cx="3.934" cy="3.934" r="2.934" fill="none"/></g><circle cx="3.934" cy="3.934" r="3.934" transform="translate(25.849)" fill="#878a91"/><line x2="18.544" transform="translate(7.586 4.214)" fill="none" stroke="#878a91" stroke-width="2"/></g><g transform="translate(165 0)"><g fill="none" stroke="#878a91" stroke-width="2"><circle cx="3.934" cy="3.934" r="3.934" stroke="none"/><circle cx="3.934" cy="3.934" r="2.934" fill="none"/></g><g transform="translate(25.849)" fill="none" stroke="#878a91" stroke-width="2"><circle cx="3.934" cy="3.934" r="3.934" stroke="none"/><circle cx="3.934" cy="3.934" r="2.934" fill="none"/></g><line x2="18.544" transform="translate(7.586 4.214)" fill="none" stroke="#878a91" stroke-width="2"/></g><g transform="translate(147.715 7.867) rotate(180)"><g transform="translate(0)" fill="none" stroke="#878a91" stroke-width="2"><circle cx="3.934" cy="3.934" r="3.934" stroke="none"/><circle cx="3.934" cy="3.934" r="2.934" fill="none"/></g><circle cx="3.934" cy="3.934" r="3.934" transform="translate(25.849)" fill="#878a91"/><line x2="18.544" transform="translate(7.586 4.214)" fill="none" stroke="#878a91" stroke-width="2"/></g></g></g></g></svg>