<svg xmlns="http://www.w3.org/2000/svg" xmlns:xlink="http://www.w3.org/1999/xlink" width="289.765" height="138.971" viewBox="0 0 289.765 138.971"><defs><filter id="a" x="-13.345" y="-55" width="318.489" height="220.672" filterUnits="userSpaceOnUse"><feOffset dy="3" input="SourceAlpha"/><feGaussianBlur stdDeviation="5" result="b"/><feFlood flood-opacity="0.102"/><feComposite operator="in" in2="b"/><feComposite in="SourceGraphic"/></filter></defs><g transform="translate(-336.368 -210)"><g transform="translate(337 210.001)"><g fill="#fff" stroke="#dbdbdb" stroke-width="1"><rect width="288.489" height="138.97" rx="5" stroke="none"/><rect x="0.5" y="0.5" width="287.489" height="137.97" rx="4.5" fill="none"/></g><g transform="translate(229.5 -338.5)"><path d="M0,0H288.5" transform="translate(-229.5 407.648)" fill="none" stroke="#444" stroke-width="2" opacity="0.22"/><path d="M0,0V10.3" transform="translate(-229.132 402.5)" fill="none" stroke="#e5e3e3" stroke-width="2"/><path d="M0,0V10.3" transform="translate(-194.567 402.5)" fill="none" stroke="#e5e3e3" stroke-width="2"/><path d="M0,0V10.3" transform="translate(-165.2 402.5)" fill="none" stroke="#e5e3e3" stroke-width="2"/><path d="M0,0V10.3" transform="translate(-133.22 402.5)" fill="none" stroke="#e5e3e3" stroke-width="2"/><path d="M0,0V10.3" transform="translate(-101.24 402.5)" fill="none" stroke="#e5e3e3" stroke-width="2"/><path d="M0,0V10.3" transform="translate(-69.26 402.5)" fill="none" stroke="#e5e3e3" stroke-width="2"/><path d="M0,0V10.3" transform="translate(-37.28 402.5)" fill="none" stroke="#e5e3e3" stroke-width="2"/><path d="M0,0V10.3" transform="translate(-5.3 402.5)" fill="none" stroke="#e5e3e3" stroke-width="2"/><path d="M0,0V10.3" transform="translate(24.067 402.5)" fill="none" stroke="#e5e3e3" stroke-width="2"/><path d="M0,0V10.3" transform="translate(58.632 402.5)" fill="none" stroke="#e5e3e3" stroke-width="2"/></g><g transform="translate(-17 19.999)"><g transform="translate(32)" fill="#fff"><path d="M 91.95852661132813 29.5 L 5.000000953674316 29.5 C 2.518688201904297 29.5 0.5000008344650269 27.4813117980957 0.5000008344650269 25 L 0.5000008344650269 5 C 0.5000008344650269 2.51868748664856 2.518688201904297 0.5 5.000000953674316 0.5 L 91.95852661132813 0.5 C 94.43983459472656 0.5 96.45852661132813 2.51868748664856 96.45852661132813 5 L 96.45852661132813 25 C 96.45852661132813 27.4813117980957 94.43983459472656 29.5 91.95852661132813 29.5 Z" stroke="none"/><path d="M 5 1 C 2.794380187988281 1 1 2.79438591003418 1 5 L 1 25 C 1 27.20561408996582 2.794380187988281 29 5 29 L 91.95852661132813 29 C 94.16414642333984 29 95.95852661132813 27.20561408996582 95.95852661132813 25 L 95.95852661132813 5 C 95.95852661132813 2.79438591003418 94.16414642333984 1 91.95852661132813 1 L 5 1 M 5 0 L 91.95852661132813 0 C 94.71994018554688 0 96.95852661132813 2.23857307434082 96.95852661132813 5 L 96.95852661132813 25 C 96.95852661132813 27.76142692565918 94.71994018554688 30 91.95852661132813 30 L 5 30 C 2.23858642578125 30 0 27.76142692565918 0 25 L 0 5 C 0 2.23857307434082 2.23858642578125 0 5 0 Z" stroke="none" fill="#e6e6e6"/></g><path d="M-17.735-3.579a3.874,3.874,0,0,1-.879,2.725A3.258,3.258,0,0,1-21.133.1a3.258,3.258,0,0,1-2.52-.952,3.889,3.889,0,0,1-.879-2.734,3.836,3.836,0,0,1,.881-2.722,3.3,3.3,0,0,1,2.527-.94,3.25,3.25,0,0,1,2.517.947A3.884,3.884,0,0,1-17.735-3.579Zm-5.21,0a2.982,2.982,0,0,0,.454,1.8,1.589,1.589,0,0,0,1.357.605q1.812,0,1.812-2.407t-1.8-2.412a1.6,1.6,0,0,0-1.362.608A2.969,2.969,0,0,0-22.945-3.579Zm8.389-.2h.5a1.659,1.659,0,0,0,1.045-.276.966.966,0,0,0,.347-.8.99.99,0,0,0-.291-.786,1.361,1.361,0,0,0-.911-.254h-.688Zm3.418-1.133a2.182,2.182,0,0,1-.72,1.763,3.08,3.08,0,0,1-2.048.61h-.649V0H-16.07V-7.139h2.28a3.033,3.033,0,0,1,1.975.559A2.039,2.039,0,0,1-11.138-4.912ZM-6.851,0H-8.365V-5.879H-10.3v-1.26h5.391v1.26H-6.851Zm3.223,0V-7.139h1.514V0ZM6.348-3.579A3.874,3.874,0,0,1,5.469-.854,3.258,3.258,0,0,1,2.949.1,3.258,3.258,0,0,1,.43-.854,3.889,3.889,0,0,1-.449-3.589,3.836,3.836,0,0,1,.432-6.311a3.3,3.3,0,0,1,2.527-.94A3.25,3.25,0,0,1,5.476-6.3,3.884,3.884,0,0,1,6.348-3.579Zm-5.21,0a2.982,2.982,0,0,0,.454,1.8,1.589,1.589,0,0,0,1.357.605q1.812,0,1.812-2.407t-1.8-2.412A1.6,1.6,0,0,0,1.6-5.383,2.969,2.969,0,0,0,1.138-3.579ZM14.346,0H12.422L9.317-5.4H9.273q.093,1.431.093,2.041V0H8.013V-7.139H9.922l3.1,5.347h.034q-.073-1.392-.073-1.968V-7.139h1.362Zm9.136,0-.518-1.7h-2.6L19.844,0H18.213l2.52-7.168h1.851L25.113,0ZM22.6-2.969q-.718-2.31-.808-2.612t-.129-.479q-.161.625-.923,3.091Z" transform="translate(80 20)" fill="#444"/></g><g transform="translate(144 19.999)"><g transform="translate(32)" fill="#fff"><path d="M 91.95852661132813 29.5 L 5.000000953674316 29.5 C 2.518688201904297 29.5 0.5000008344650269 27.4813117980957 0.5000008344650269 25 L 0.5000008344650269 5 C 0.5000008344650269 2.51868748664856 2.518688201904297 0.5 5.000000953674316 0.5 L 91.95852661132813 0.5 C 94.43983459472656 0.5 96.45852661132813 2.51868748664856 96.45852661132813 5 L 96.45852661132813 25 C 96.45852661132813 27.4813117980957 94.43983459472656 29.5 91.95852661132813 29.5 Z" stroke="none"/><path d="M 5 1 C 2.794380187988281 1 1 2.79438591003418 1 5 L 1 25 C 1 27.20561408996582 2.794380187988281 29 5 29 L 91.95852661132813 29 C 94.16414642333984 29 95.95852661132813 27.20561408996582 95.95852661132813 25 L 95.95852661132813 5 C 95.95852661132813 2.79438591003418 94.16414642333984 1 91.95852661132813 1 L 5 1 M 5 0 L 91.95852661132813 0 C 94.71994018554688 0 96.95852661132813 2.23857307434082 96.95852661132813 5 L 96.95852661132813 25 C 96.95852661132813 27.76142692565918 94.71994018554688 30 91.95852661132813 30 L 5 30 C 2.23858642578125 30 0 27.76142692565918 0 25 L 0 5 C 0 2.23857307434082 2.23858642578125 0 5 0 Z" stroke="none" fill="#e6e6e6"/></g><path d="M-17.471-3.579A3.874,3.874,0,0,1-18.35-.854,3.258,3.258,0,0,1-20.87.1a3.258,3.258,0,0,1-2.52-.952,3.889,3.889,0,0,1-.879-2.734,3.836,3.836,0,0,1,.881-2.722,3.3,3.3,0,0,1,2.527-.94,3.25,3.25,0,0,1,2.517.947A3.884,3.884,0,0,1-17.471-3.579Zm-5.21,0a2.982,2.982,0,0,0,.454,1.8,1.589,1.589,0,0,0,1.357.605q1.812,0,1.812-2.407t-1.8-2.412a1.6,1.6,0,0,0-1.362.608A2.969,2.969,0,0,0-22.681-3.579Zm8.389-.2h.5a1.659,1.659,0,0,0,1.045-.276.966.966,0,0,0,.347-.8.99.99,0,0,0-.291-.786A1.361,1.361,0,0,0-13.6-5.9h-.688Zm3.418-1.133a2.182,2.182,0,0,1-.72,1.763,3.08,3.08,0,0,1-2.048.61h-.649V0h-1.514V-7.139h2.28a3.033,3.033,0,0,1,1.975.559A2.039,2.039,0,0,1-10.874-4.912ZM-6.587,0H-8.1V-5.879h-1.938v-1.26h5.391v1.26H-6.587Zm3.223,0V-7.139h1.514V0ZM6.611-3.579A3.874,3.874,0,0,1,5.733-.854,3.258,3.258,0,0,1,3.213.1,3.258,3.258,0,0,1,.693-.854,3.889,3.889,0,0,1-.185-3.589,3.836,3.836,0,0,1,.7-6.311a3.3,3.3,0,0,1,2.527-.94A3.25,3.25,0,0,1,5.74-6.3,3.884,3.884,0,0,1,6.611-3.579Zm-5.21,0a2.982,2.982,0,0,0,.454,1.8,1.589,1.589,0,0,0,1.357.605q1.812,0,1.812-2.407t-1.8-2.412a1.6,1.6,0,0,0-1.362.608A2.969,2.969,0,0,0,1.4-3.579ZM14.61,0H12.686L9.58-5.4H9.536q.093,1.431.093,2.041V0H8.277V-7.139h1.909l3.1,5.347h.034q-.073-1.392-.073-1.968V-7.139H14.61Zm7.8-5.981a1.542,1.542,0,0,0-1.323.642,2.987,2.987,0,0,0-.469,1.79q0,2.388,1.792,2.388a5.665,5.665,0,0,0,1.821-.376v1.27A5.058,5.058,0,0,1,22.266.1a2.994,2.994,0,0,1-2.383-.945,4,4,0,0,1-.825-2.712,4.429,4.429,0,0,1,.405-1.951,2.929,2.929,0,0,1,1.165-1.284,3.445,3.445,0,0,1,1.78-.447,4.8,4.8,0,0,1,2.09.5l-.488,1.23A8.083,8.083,0,0,0,23.2-5.84,2.4,2.4,0,0,0,22.408-5.981Z" transform="translate(80 20)" fill="#444"/></g></g><g transform="translate(431 309)"><path d="M5,0H95a5,5,0,0,1,5,5V25a5,5,0,0,1-5,5H5a5,5,0,0,1-5-5V5A5,5,0,0,1,5,0Z" fill="#00ad50"/><path d="M-17.139-3.579a3.874,3.874,0,0,1-.879,2.725A3.258,3.258,0,0,1-20.538.1a3.258,3.258,0,0,1-2.52-.952,3.889,3.889,0,0,1-.879-2.734,3.836,3.836,0,0,1,.881-2.722,3.3,3.3,0,0,1,2.527-.94,3.25,3.25,0,0,1,2.517.947A3.884,3.884,0,0,1-17.139-3.579Zm-5.21,0a2.982,2.982,0,0,0,.454,1.8,1.589,1.589,0,0,0,1.357.605q1.812,0,1.812-2.407t-1.8-2.412a1.6,1.6,0,0,0-1.362.608A2.969,2.969,0,0,0-22.349-3.579Zm8.389-.2h.5a1.659,1.659,0,0,0,1.045-.276.966.966,0,0,0,.347-.8.99.99,0,0,0-.291-.786,1.361,1.361,0,0,0-.911-.254h-.688Zm3.418-1.133a2.182,2.182,0,0,1-.72,1.763,3.08,3.08,0,0,1-2.048.61h-.649V0h-1.514V-7.139h2.28a3.033,3.033,0,0,1,1.975.559A2.039,2.039,0,0,1-10.542-4.912ZM-6.255,0H-7.769V-5.879H-9.707v-1.26h5.391v1.26H-6.255Zm3.223,0V-7.139h1.514V0ZM6.943-3.579A3.874,3.874,0,0,1,6.065-.854,3.258,3.258,0,0,1,3.545.1a3.258,3.258,0,0,1-2.52-.952A3.889,3.889,0,0,1,.147-3.589a3.836,3.836,0,0,1,.881-2.722,3.3,3.3,0,0,1,2.527-.94A3.25,3.25,0,0,1,6.072-6.3,3.884,3.884,0,0,1,6.943-3.579Zm-5.21,0a2.982,2.982,0,0,0,.454,1.8,1.589,1.589,0,0,0,1.357.605q1.812,0,1.812-2.407t-1.8-2.412a1.6,1.6,0,0,0-1.362.608A2.969,2.969,0,0,0,1.733-3.579ZM14.942,0H13.018L9.912-5.4H9.868q.093,1.431.093,2.041V0H8.609V-7.139h1.909l3.1,5.347h.034q-.073-1.392-.073-1.968V-7.139h1.362Zm8,0H21.431V-4.131l.015-.679.024-.742q-.376.376-.522.493l-.82.659L19.4-5.308l2.3-1.831h1.24Z" transform="translate(51 19)" fill="#fff"/></g></g></svg>