<svg xmlns="http://www.w3.org/2000/svg" width="289.765" height="138.971" viewBox="0 0 289.765 138.971"><g transform="translate(-336.368 -210)"><g transform="translate(337 210.001)" fill="#fff"><path d="M 283.4887084960938 138.4700012207031 L 4.999997138977051 138.4700012207031 C 2.518675565719604 138.4700012207031 0.4999971091747284 136.4513244628906 0.4999971091747284 133.9700012207031 L 0.4999971091747284 5.000000476837158 C 0.4999971091747284 2.518679141998291 2.518675565719604 0.5000005960464478 4.999997138977051 0.5000005960464478 L 283.4887084960938 0.5000005960464478 C 285.9700317382813 0.5000005960464478 287.9887084960938 2.518679141998291 287.9887084960938 5.000000476837158 L 287.9887084960938 133.9700012207031 C 287.9887084960938 136.4513244628906 285.9700317382813 138.4700012207031 283.4887084960938 138.4700012207031 Z" stroke="none"/><path d="M 5 1 C 2.794403076171875 1 1 2.794387817382813 1 5 L 1 133.9700012207031 C 1 136.1756134033203 2.794403076171875 137.9700012207031 5 137.9700012207031 L 283.4887084960938 137.9700012207031 C 285.6943054199219 137.9700012207031 287.4887084960938 136.1756134033203 287.4887084960938 133.9700012207031 L 287.4887084960938 5 C 287.4887084960938 2.794387817382813 285.6943054199219 1 283.4887084960938 1 L 5 1 M 5 0 L 283.4887084960938 0 C 286.2500915527344 0 288.4887084960938 2.238571166992188 288.4887084960938 5 L 288.4887084960938 133.9700012207031 C 288.4887084960938 136.7314300537109 286.2500915527344 138.9700012207031 283.4887084960938 138.9700012207031 L 5 138.9700012207031 C 2.238555908203125 138.9700012207031 0 136.7314300537109 0 133.9700012207031 L 0 5 C 0 2.238571166992188 2.238555908203125 0 5 0 Z" stroke="none" fill="#dbdbdb"/></g><path d="M0,0H288.5" transform="translate(337 279.149)" fill="none" stroke="#444" stroke-width="2" opacity="0.22"/><path d="M0,0V10.3" transform="translate(337.368 274.001)" fill="none" stroke="#e5e3e3" stroke-width="2"/><path d="M0,0V10.3" transform="translate(371.933 274.001)" fill="none" stroke="#e5e3e3" stroke-width="2"/><path d="M0,0V10.3" transform="translate(401.3 274.001)" fill="none" stroke="#e5e3e3" stroke-width="2"/><path d="M0,0V10.3" transform="translate(433.28 274.001)" fill="none" stroke="#e5e3e3" stroke-width="2"/><path d="M0,0V10.3" transform="translate(465.26 274.001)" fill="none" stroke="#e5e3e3" stroke-width="2"/><path d="M0,0V10.3" transform="translate(497.24 274.001)" fill="none" stroke="#e5e3e3" stroke-width="2"/><path d="M0,0V10.3" transform="translate(529.22 274.001)" fill="none" stroke="#e5e3e3" stroke-width="2"/><path d="M0,0V10.3" transform="translate(561.2 274.001)" fill="none" stroke="#e5e3e3" stroke-width="2"/><path d="M0,0V10.3" transform="translate(590.567 274.001)" fill="none" stroke="#e5e3e3" stroke-width="2"/><path d="M0,0V10.3" transform="translate(625.132 274.001)" fill="none" stroke="#e5e3e3" stroke-width="2"/><path d="M0,0H69.655" transform="translate(363.613 245.068)" fill="#00ad50" stroke="#00ad50" stroke-width="1"/><path d="M4,0A4,4,0,1,1,0,4,4,4,0,0,1,4,0Z" transform="translate(363 241)" fill="#00ad50"/><path d="M4,0A4,4,0,1,1,0,4,4,4,0,0,1,4,0Z" transform="translate(429 241)" fill="#00ad50"/><path d="M0,0H69.655" transform="translate(524.613 245.068)" fill="#00ad50" stroke="#00ad50" stroke-width="1"/><path d="M4,0A4,4,0,1,1,0,4,4,4,0,0,1,4,0Z" transform="translate(524 241)" fill="#00ad50"/><path d="M4,0A4,4,0,1,1,0,4,4,4,0,0,1,4,0Z" transform="translate(590 241)" fill="#00ad50"/><path d="M3.934,0A3.934,3.934,0,1,1,0,3.934,3.934,3.934,0,0,1,3.934,0Z" transform="translate(351 331)" fill="#7c848e"/><path d="M3.934,0A3.934,3.934,0,1,1,0,3.934,3.934,3.934,0,0,1,3.934,0Z" transform="translate(392.583 331)" fill="#7c848e"/><path d="M3.934,0A3.934,3.934,0,1,1,0,3.934,3.934,3.934,0,0,1,3.934,0Z" transform="translate(418.432 331)" fill="#7c848e"/><path d="M0,0H18.544" transform="translate(400.169 335.214)" fill="none" stroke="#7c848e" stroke-width="2"/><g transform="translate(451.96 331)" fill="none"><path d="M3.934,0A3.934,3.934,0,1,1,0,3.934,3.934,3.934,0,0,1,3.934,0Z" stroke="none"/><path d="M 3.933508157730103 1.999998092651367 C 2.867368221282959 1.999998092651367 1.999998092651367 2.867368221282959 1.999998092651367 3.933508157730103 C 1.999998092651367 4.999648094177246 2.867368221282959 5.867018222808838 3.933508157730103 5.867018222808838 C 4.999648094177246 5.867018222808838 5.867018222808838 4.999648094177246 5.867018222808838 3.933508157730103 C 5.867018222808838 2.867368221282959 4.999648094177246 1.999998092651367 3.933508157730103 1.999998092651367 M 3.933508157730103 -1.9073486328125e-06 C 6.105928421020508 -1.9073486328125e-06 7.867018222808838 1.761088371276855 7.867018222808838 3.933508157730103 C 7.867018222808838 6.105928421020508 6.105928421020508 7.867018222808838 3.933508157730103 7.867018222808838 C 1.761088371276855 7.867018222808838 -1.9073486328125e-06 6.105928421020508 -1.9073486328125e-06 3.933508157730103 C -1.9073486328125e-06 1.761088371276855 1.761088371276855 -1.9073486328125e-06 3.933508157730103 -1.9073486328125e-06 Z" stroke="none" fill="#7c848e"/></g><path d="M3.934,0A3.934,3.934,0,1,1,0,3.934,3.934,3.934,0,0,1,3.934,0Z" transform="translate(477.809 331)" fill="#7c848e"/><path d="M0,0H18.544" transform="translate(459.546 335.214)" fill="none" stroke="#7c848e" stroke-width="2"/><g transform="translate(576.86 331)" fill="none"><path d="M3.934,0A3.934,3.934,0,1,1,0,3.934,3.934,3.934,0,0,1,3.934,0Z" stroke="none"/><path d="M 3.933508157730103 1.999998092651367 C 2.867368221282959 1.999998092651367 1.999998092651367 2.867368221282959 1.999998092651367 3.933508157730103 C 1.999998092651367 4.999648094177246 2.867368221282959 5.867018222808838 3.933508157730103 5.867018222808838 C 4.999648094177246 5.867018222808838 5.867018222808838 4.999648094177246 5.867018222808838 3.933508157730103 C 5.867018222808838 2.867368221282959 4.999648094177246 1.999998092651367 3.933508157730103 1.999998092651367 M 3.933508157730103 -1.9073486328125e-06 C 6.105928421020508 -1.9073486328125e-06 7.867018222808838 1.761088371276855 7.867018222808838 3.933508157730103 C 7.867018222808838 6.105928421020508 6.105928421020508 7.867018222808838 3.933508157730103 7.867018222808838 C 1.761088371276855 7.867018222808838 -1.9073486328125e-06 6.105928421020508 -1.9073486328125e-06 3.933508157730103 C -1.9073486328125e-06 1.761088371276855 1.761088371276855 -1.9073486328125e-06 3.933508157730103 -1.9073486328125e-06 Z" stroke="none" fill="#7c848e"/></g><g transform="translate(602.709 331)" fill="none"><path d="M3.934,0A3.934,3.934,0,1,1,0,3.934,3.934,3.934,0,0,1,3.934,0Z" stroke="none"/><path d="M 3.933508157730103 1.999998092651367 C 2.867368221282959 1.999998092651367 1.999998092651367 2.867368221282959 1.999998092651367 3.933508157730103 C 1.999998092651367 4.999648094177246 2.867368221282959 5.867018222808838 3.933508157730103 5.867018222808838 C 4.999648094177246 5.867018222808838 5.867018222808838 4.999648094177246 5.867018222808838 3.933508157730103 C 5.867018222808838 2.867368221282959 4.999648094177246 1.999998092651367 3.933508157730103 1.999998092651367 M 3.933508157730103 -1.9073486328125e-06 C 6.105928421020508 -1.9073486328125e-06 7.867018222808838 1.761088371276855 7.867018222808838 3.933508157730103 C 7.867018222808838 6.105928421020508 6.105928421020508 7.867018222808838 3.933508157730103 7.867018222808838 C 1.761088371276855 7.867018222808838 -1.9073486328125e-06 6.105928421020508 -1.9073486328125e-06 3.933508157730103 C -1.9073486328125e-06 1.761088371276855 1.761088371276855 -1.9073486328125e-06 3.933508157730103 -1.9073486328125e-06 Z" stroke="none" fill="#7c848e"/></g><path d="M0,0H18.544" transform="translate(584.446 335.214)" fill="none" stroke="#7c848e" stroke-width="2"/><g transform="translate(548.126 338.867) rotate(180)" fill="none"><path d="M3.934,0A3.934,3.934,0,1,1,0,3.934,3.934,3.934,0,0,1,3.934,0Z" stroke="none"/><path d="M 3.933508157730103 1.999998092651367 C 2.867368221282959 1.999998092651367 1.999998092651367 2.867368221282959 1.999998092651367 3.933508157730103 C 1.999998092651367 4.999648094177246 2.867368221282959 5.867018222808838 3.933508157730103 5.867018222808838 C 4.999648094177246 5.867018222808838 5.867018222808838 4.999648094177246 5.867018222808838 3.933508157730103 C 5.867018222808838 2.867368221282959 4.999648094177246 1.999998092651367 3.933508157730103 1.999998092651367 M 3.933508157730103 -1.9073486328125e-06 C 6.105928421020508 -1.9073486328125e-06 7.867018222808838 1.761088371276855 7.867018222808838 3.933508157730103 C 7.867018222808838 6.105928421020508 6.105928421020508 7.867018222808838 3.933508157730103 7.867018222808838 C 1.761088371276855 7.867018222808838 -1.9073486328125e-06 6.105928421020508 -1.9073486328125e-06 3.933508157730103 C -1.9073486328125e-06 1.761088371276855 1.761088371276855 -1.9073486328125e-06 3.933508157730103 -1.9073486328125e-06 Z" stroke="none" fill="#7c848e"/></g><path d="M3.934,0A3.934,3.934,0,1,1,0,3.934,3.934,3.934,0,0,1,3.934,0Z" transform="translate(522.277 338.867) rotate(180)" fill="#7c848e"/><path d="M0,0H18.544" transform="translate(540.54 334.653) rotate(180)" fill="none" stroke="#7c848e" stroke-width="2"/></g></svg>