<svg xmlns="http://www.w3.org/2000/svg" xmlns:xlink="http://www.w3.org/1999/xlink" width="247.207" height="145.945" viewBox="0 0 247.207 145.945"><defs><filter id="a" x="3.023" y="-25.598" width="241.72" height="170.112" filterUnits="userSpaceOnUse"><feOffset dy="3" input="SourceAlpha"/><feGaussianBlur stdDeviation="5" result="b"/><feFlood flood-opacity="0.102"/><feComposite operator="in" in2="b"/><feComposite in="SourceGraphic"/></filter></defs><g transform="translate(-17.461 -51.6)"><rect width="247.207" height="145.945" rx="5" transform="translate(17.461 51.6)" fill="#fff"/><g transform="translate(-302.539 -140.4)"><g transform="translate(337 210.001)"><g transform="translate(0 45.672)"><line x2="212" transform="translate(0 5.148)" fill="none" stroke="#444" stroke-width="2" opacity="0.22"/><line y2="10.296" transform="translate(0.5)" fill="none" stroke="#e5e3e3" stroke-width="2"/><line y2="10.296" transform="translate(23.5)" fill="none" stroke="#e5e3e3" stroke-width="2"/><line y2="10.296" transform="translate(47.5)" fill="none" stroke="#e5e3e3" stroke-width="2"/><line y2="10.296" transform="translate(70.5)" fill="none" stroke="#e5e3e3" stroke-width="2"/><line y2="10.296" transform="translate(94.5)" fill="none" stroke="#e5e3e3" stroke-width="2"/><line y2="10.296" transform="translate(117.5)" fill="none" stroke="#e5e3e3" stroke-width="2"/><line y2="10.296" transform="translate(141.5)" fill="none" stroke="#e5e3e3" stroke-width="2"/><line y2="10.296" transform="translate(164.5)" fill="none" stroke="#e5e3e3" stroke-width="2"/><line y2="10.296" transform="translate(188.5)" fill="none" stroke="#e5e3e3" stroke-width="2"/><line y2="10.296" transform="translate(211.5)" fill="none" stroke="#e5e3e3" stroke-width="2"/></g></g></g><g transform="translate(106.461 146.6)"><rect width="68" height="22" rx="4" fill="#3f85e5"/><text transform="translate(11.809 5)" fill="#fff" font-size="9" font-family="OpenSans-Semibold, Open Sans" font-weight="600"><tspan x="15.219" y="10">4/7</tspan></text></g><g transform="translate(34.563 78.6)"><g transform="translate(-0.103)" fill="none" stroke="#b6b6cc" stroke-width="1"><rect width="68" height="22" rx="4" stroke="none"/><rect x="0.5" y="0.5" width="67" height="21" rx="3.5" fill="none"/></g><text transform="translate(10.809 5)" fill="#2f4151" font-size="9" font-family="OpenSans-Semibold, Open Sans" font-weight="600"><tspan x="16.219" y="10">3/2</tspan></text></g><g transform="translate(178.664 78.6)"><g transform="translate(-0.203)" fill="none" stroke="#b6b6cc" stroke-width="1"><rect width="68" height="22" rx="4" stroke="none"/><rect x="0.5" y="0.5" width="67" height="21" rx="3.5" fill="none"/></g><text transform="translate(10.809 5)" fill="#2f4151" font-size="9" font-family="OpenSans-Semibold, Open Sans" font-weight="600"><tspan x="16.219" y="10">1/5</tspan></text></g></g></svg>