<svg xmlns="http://www.w3.org/2000/svg" width="247.207" height="145.945" viewBox="0 0 247.207 145.945"><g transform="translate(-17.078 -52.54)"><rect width="247.207" height="145.945" rx="5" transform="translate(17.078 52.54)" fill="#fff"/><g transform="translate(34.623 66.807)"><text transform="translate(0.133 21.104)" fill="#212e3a" font-size="12" font-family="OpenSans-Semibold, Open Sans" font-weight="600"><tspan x="0" y="0">What is the capital city of England?</tspan></text><g transform="translate(0.133 47.793)" fill="#f8f8f8" stroke="#858585" stroke-width="1"><rect width="212" height="68" rx="2" stroke="none"/><rect x="0.5" y="0.5" width="211" height="67" rx="1.5" fill="none"/></g><g transform="translate(0.133 47.793)" fill="#dedede" stroke="#858585" stroke-width="1"><path d="M2,0H26a0,0,0,0,1,0,0V68a0,0,0,0,1,0,0H2a2,2,0,0,1-2-2V2A2,2,0,0,1,2,0Z" stroke="none"/><path d="M2,.5H25a.5.5,0,0,1,.5.5V67a.5.5,0,0,1-.5.5H2A1.5,1.5,0,0,1,.5,66V2A1.5,1.5,0,0,1,2,.5Z" fill="none"/></g><text transform="translate(36.133 68.792)" fill="#878a91" font-size="12" font-family="OpenSans-Semibold, Open Sans" font-weight="600"><tspan x="0" y="0">class</tspan><tspan y="0" fill="#212e3a"> </tspan><tspan y="0" fill="#3f85e5">Edulastic</tspan></text><text transform="translate(10.133 68.792)" fill="#878a91" font-size="12" font-family="OpenSans-Semibold, Open Sans" font-weight="600"><tspan x="0" y="0">1</tspan><tspan x="0" y="18">2</tspan><tspan x="0" y="36">3</tspan></text><text transform="translate(68.133 88.104)" fill="#878a91" font-size="12" font-family="OpenSans-Semibold, Open Sans" font-weight="600"><tspan x="0" y="0">get </tspan><tspan y="0" fill="#3dd29f">_value ()</tspan><tspan y="0" xml:space="preserve"> {</tspan></text></g></g></svg>