<svg xmlns="http://www.w3.org/2000/svg" width="288.789" height="138.967" viewBox="0 0 288.789 138.967"><g transform="translate(-308.699 -178)"><g transform="translate(308.699 178)"><g fill="#fff" stroke="#e6e6e6" stroke-width="1"><rect width="288.789" height="138.967" rx="4" stroke="none"/><rect x="0.5" y="0.5" width="287.789" height="137.967" rx="3.5" fill="none"/></g><path d="M10.992,15H8.579L7.226,9.75q-.075-.28-.256-1.159T6.761,7.412Q6.72,7.781,6.556,8.6T6.3,9.764L4.956,15H2.55L0,5.006H2.085l1.278,5.455q.335,1.511.485,2.618.041-.39.188-1.207T4.313,10.6l1.456-5.6h2l1.456,5.6q.1.376.239,1.148t.219,1.326q.068-.533.219-1.33t.273-1.289L11.45,5.006h2.085ZM14.54,5.382q0-1.019,1.135-1.019T16.81,5.382a.993.993,0,0,1-.284.755,1.192,1.192,0,0,1-.851.27Q14.54,6.407,14.54,5.382ZM16.714,15H14.629V7.357h2.085Zm4.272,0H18.9V4.363h2.085Zm4.272,0H23.174V4.363h2.085Zm2.1-9.618q0-1.019,1.135-1.019t1.135,1.019a.993.993,0,0,1-.284.755,1.192,1.192,0,0,1-.851.27Q27.357,6.407,27.357,5.382ZM29.531,15H27.446V7.357h2.085Zm7.041,0-.4-1.039h-.055a3.079,3.079,0,0,1-1.083.919,3.5,3.5,0,0,1-1.453.256,2.349,2.349,0,0,1-1.733-.629,2.415,2.415,0,0,1-.632-1.791,2.017,2.017,0,0,1,.851-1.794,4.932,4.932,0,0,1,2.567-.639l1.326-.041V9.907a1.039,1.039,0,0,0-1.189-1.162,5.42,5.42,0,0,0-2.153.554l-.69-1.408A6.213,6.213,0,0,1,34.85,7.2a3.644,3.644,0,0,1,2.358.67,2.476,2.476,0,0,1,.82,2.037V15Zm-.615-3.541-.807.027a2.583,2.583,0,0,0-1.354.328,1.031,1.031,0,0,0-.444.916q0,.882,1.012.882a1.6,1.6,0,0,0,1.159-.417,1.465,1.465,0,0,0,.434-1.107ZM47.018,15H44.933V10.536A2.249,2.249,0,0,0,44.656,9.3a.974.974,0,0,0-.872-.414,1.262,1.262,0,0,0-1.162.588A3.856,3.856,0,0,0,42.26,11.4V15H40.175V7.357h1.593l.28.978h.116a2.118,2.118,0,0,1,.889-.824,2.885,2.885,0,0,1,1.333-.3A2.4,2.4,0,0,1,46.71,8.335h.185a2.065,2.065,0,0,1,.906-.827,3.021,3.021,0,0,1,1.35-.294,2.665,2.665,0,0,1,1.965.667,2.927,2.927,0,0,1,.667,2.136V15H49.69V10.536A2.249,2.249,0,0,0,49.414,9.3a.974.974,0,0,0-.872-.414,1.3,1.3,0,0,0-1.145.547,3.1,3.1,0,0,0-.379,1.736Zm16.6-2.775a2.583,2.583,0,0,1-.974,2.133,4.232,4.232,0,0,1-2.71.779,6.366,6.366,0,0,1-2.83-.6V12.566a11.663,11.663,0,0,0,1.712.636,5.067,5.067,0,0,0,1.282.185,1.822,1.822,0,0,0,1.07-.267.912.912,0,0,0,.373-.793.875.875,0,0,0-.164-.523,1.836,1.836,0,0,0-.482-.441,12.4,12.4,0,0,0-1.3-.677,6.14,6.14,0,0,1-1.374-.827,3.105,3.105,0,0,1-.731-.923,2.634,2.634,0,0,1-.273-1.23,2.583,2.583,0,0,1,.9-2.085,3.735,3.735,0,0,1,2.485-.759,5.868,5.868,0,0,1,1.487.185,10.22,10.22,0,0,1,1.48.52l-.684,1.647a10,10,0,0,0-1.323-.458,4.258,4.258,0,0,0-1.029-.13,1.362,1.362,0,0,0-.923.28.925.925,0,0,0-.321.731.905.905,0,0,0,.13.489,1.428,1.428,0,0,0,.414.4,12.788,12.788,0,0,0,1.343.7A5.345,5.345,0,0,1,63.1,10.574,2.622,2.622,0,0,1,63.622,12.225ZM72.324,15H70.239V10.536q0-1.654-1.23-1.654a1.4,1.4,0,0,0-1.265.595,3.632,3.632,0,0,0-.39,1.928V15H65.27V4.363h2.085V6.53q0,.253-.048,1.189l-.048.615h.109a2.415,2.415,0,0,1,2.215-1.121,2.708,2.708,0,0,1,2.044.725,2.879,2.879,0,0,1,.7,2.078Zm7,0-.4-1.039h-.055a3.079,3.079,0,0,1-1.083.919,3.5,3.5,0,0,1-1.453.256,2.349,2.349,0,0,1-1.733-.629,2.415,2.415,0,0,1-.632-1.791,2.017,2.017,0,0,1,.851-1.794,4.932,4.932,0,0,1,2.567-.639l1.326-.041V9.907A1.039,1.039,0,0,0,77.52,8.745a5.42,5.42,0,0,0-2.153.554l-.69-1.408A6.213,6.213,0,0,1,77.6,7.2a3.644,3.644,0,0,1,2.358.67,2.476,2.476,0,0,1,.82,2.037V15Zm-.615-3.541-.807.027a2.583,2.583,0,0,0-1.354.328,1.031,1.031,0,0,0-.444.916q0,.882,1.012.882a1.6,1.6,0,0,0,1.159-.417,1.465,1.465,0,0,0,.434-1.107Zm6.221-.615.909-1.162,2.14-2.324H90.33l-3.035,3.315L90.515,15H88.108l-2.2-3.1-.9.718V15H82.927V4.363h2.085V9.107L84.9,10.844ZM94.773,8.7a1.322,1.322,0,0,0-1.039.42,1.946,1.946,0,0,0-.431,1.193h2.926a1.738,1.738,0,0,0-.4-1.193A1.366,1.366,0,0,0,94.773,8.7Zm.294,6.439a3.945,3.945,0,0,1-2.885-1.019,3.857,3.857,0,0,1-1.039-2.885,4.242,4.242,0,0,1,.96-2.97A3.42,3.42,0,0,1,94.76,7.214a3.366,3.366,0,0,1,2.522.923,3.491,3.491,0,0,1,.9,2.55V11.7H93.256a2.007,2.007,0,0,0,.526,1.388,1.852,1.852,0,0,0,1.381.5,5.732,5.732,0,0,0,1.306-.144,6.533,6.533,0,0,0,1.285-.458V14.6A4.9,4.9,0,0,1,96.585,15,7.37,7.37,0,0,1,95.067,15.137Zm10.145-2.406a2.1,2.1,0,0,1-.817,1.791,4.036,4.036,0,0,1-2.444.615,7.676,7.676,0,0,1-1.422-.113,5.378,5.378,0,0,1-1.1-.332V12.97a7.268,7.268,0,0,0,1.309.458,5.3,5.3,0,0,0,1.282.185q1.135,0,1.135-.656a.548.548,0,0,0-.15-.4,2.18,2.18,0,0,0-.52-.349q-.369-.195-.984-.455a6.184,6.184,0,0,1-1.3-.684,1.924,1.924,0,0,1-.6-.721,2.381,2.381,0,0,1-.188-1,1.815,1.815,0,0,1,.79-1.576,3.846,3.846,0,0,1,2.239-.557,6.355,6.355,0,0,1,2.687.6l-.629,1.5q-.574-.246-1.073-.4a3.37,3.37,0,0,0-1.019-.157q-.923,0-.923.5a.587.587,0,0,0,.3.485,8.087,8.087,0,0,0,1.3.608,6.05,6.05,0,0,1,1.313.677,2,2,0,0,1,.615.725A2.227,2.227,0,0,1,105.212,12.73Zm5.824,2.406a2.535,2.535,0,0,1-2.112-.978h-.109q.109.957.109,1.107v3.1h-2.085V7.357h1.7l.294.991h.1a2.412,2.412,0,0,1,2.167-1.135A2.48,2.48,0,0,1,113.21,8.26a4.837,4.837,0,0,1,.766,2.905,5.737,5.737,0,0,1-.359,2.126,2.982,2.982,0,0,1-1.022,1.374A2.619,2.619,0,0,1,111.036,15.137Zm-.615-6.255a1.316,1.316,0,0,0-1.128.475,2.728,2.728,0,0,0-.369,1.569v.226a3.22,3.22,0,0,0,.366,1.764,1.305,1.305,0,0,0,1.159.533q1.4,0,1.4-2.311a3.3,3.3,0,0,0-.345-1.692A1.178,1.178,0,0,0,110.421,8.882Zm8.442-.185a1.322,1.322,0,0,0-1.039.42,1.946,1.946,0,0,0-.431,1.193h2.926a1.738,1.738,0,0,0-.4-1.193A1.366,1.366,0,0,0,118.863,8.7Zm.294,6.439a3.945,3.945,0,0,1-2.885-1.019,3.857,3.857,0,0,1-1.039-2.885,4.242,4.242,0,0,1,.96-2.97,3.42,3.42,0,0,1,2.656-1.049,3.366,3.366,0,0,1,2.522.923,3.491,3.491,0,0,1,.9,2.55V11.7h-4.929a2.007,2.007,0,0,0,.526,1.388,1.852,1.852,0,0,0,1.381.5,5.732,5.732,0,0,0,1.306-.144,6.533,6.533,0,0,0,1.285-.458V14.6a4.9,4.9,0,0,1-1.169.407A7.37,7.37,0,0,1,119.157,15.137ZM128.823,15l-.4-1.039h-.055a3.079,3.079,0,0,1-1.083.919,3.5,3.5,0,0,1-1.453.256,2.349,2.349,0,0,1-1.733-.629,2.415,2.415,0,0,1-.632-1.791,2.017,2.017,0,0,1,.851-1.794,4.932,4.932,0,0,1,2.567-.639l1.326-.041V9.907a1.039,1.039,0,0,0-1.189-1.162,5.42,5.42,0,0,0-2.153.554l-.69-1.408A6.213,6.213,0,0,1,127.1,7.2a3.644,3.644,0,0,1,2.358.67,2.476,2.476,0,0,1,.82,2.037V15Zm-.615-3.541-.807.027a2.583,2.583,0,0,0-1.354.328,1.031,1.031,0,0,0-.444.916q0,.882,1.012.882a1.6,1.6,0,0,0,1.159-.417,1.465,1.465,0,0,0,.434-1.107Zm8.483-4.245a3.362,3.362,0,0,1,.7.062l-.157,1.955a2.389,2.389,0,0,0-.615-.068,2.211,2.211,0,0,0-1.555.513,1.853,1.853,0,0,0-.557,1.436V15h-2.085V7.357H134l.308,1.285h.1a2.873,2.873,0,0,1,.96-1.036A2.368,2.368,0,0,1,136.691,7.214ZM141.948,8.7a1.322,1.322,0,0,0-1.039.42,1.946,1.946,0,0,0-.431,1.193H143.4a1.738,1.738,0,0,0-.4-1.193A1.366,1.366,0,0,0,141.948,8.7Zm.294,6.439a3.945,3.945,0,0,1-2.885-1.019,3.857,3.857,0,0,1-1.039-2.885,4.242,4.242,0,0,1,.96-2.97,3.42,3.42,0,0,1,2.656-1.049,3.366,3.366,0,0,1,2.522.923,3.491,3.491,0,0,1,.9,2.55V11.7h-4.929a2.007,2.007,0,0,0,.526,1.388,1.852,1.852,0,0,0,1.381.5,5.732,5.732,0,0,0,1.306-.144,6.533,6.533,0,0,0,1.285-.458V14.6A4.9,4.9,0,0,1,143.76,15,7.37,7.37,0,0,1,142.242,15.137ZM156.919,15l-1.374-4.4q-.13-.4-.485-1.832H155q-.273,1.2-.479,1.846L153.111,15H151.8l-2.044-7.492h1.189l1.1,4.3a17.42,17.42,0,0,1,.434,1.989h.055q.075-.39.243-1.008t.291-.981l1.374-4.3h1.23l1.34,4.3a14.513,14.513,0,0,1,.52,1.976h.055a7.246,7.246,0,0,1,.147-.759q.12-.513,1.425-5.517h1.176L158.266,15Zm9.379,0-.226-1.066h-.055a3.153,3.153,0,0,1-1.118.954,3.407,3.407,0,0,1-1.391.25,2.5,2.5,0,0,1-1.747-.574,2.094,2.094,0,0,1-.632-1.634q0-2.27,3.63-2.379l1.271-.041v-.465a1.9,1.9,0,0,0-.379-1.3,1.56,1.56,0,0,0-1.213-.42,4.944,4.944,0,0,0-2.119.574l-.349-.868a5.333,5.333,0,0,1,1.213-.472,5.255,5.255,0,0,1,1.323-.171,2.854,2.854,0,0,1,1.986.595,2.482,2.482,0,0,1,.646,1.907V15Zm-2.563-.8a2.3,2.3,0,0,0,1.665-.581,2.15,2.15,0,0,0,.6-1.627v-.677l-1.135.048a4.128,4.128,0,0,0-1.952.42,1.268,1.268,0,0,0-.6,1.159,1.169,1.169,0,0,0,.373.937A1.546,1.546,0,0,0,163.734,14.2Zm10.575-1.244a1.877,1.877,0,0,1-.779,1.613,3.663,3.663,0,0,1-2.187.567,4.757,4.757,0,0,1-2.324-.472V13.612a5.621,5.621,0,0,0,1.159.431,4.839,4.839,0,0,0,1.193.157,2.705,2.705,0,0,0,1.367-.284.977.977,0,0,0,.1-1.613,5.968,5.968,0,0,0-1.48-.735,8.025,8.025,0,0,1-1.487-.68,2.031,2.031,0,0,1-.656-.66A1.72,1.72,0,0,1,169,9.347a1.681,1.681,0,0,1,.745-1.446,3.472,3.472,0,0,1,2.044-.53,5.98,5.98,0,0,1,2.365.492l-.4.923a5.429,5.429,0,0,0-2.044-.465,2.352,2.352,0,0,0-1.217.253.782.782,0,0,0-.41.7.849.849,0,0,0,.154.513,1.518,1.518,0,0,0,.5.4,11.075,11.075,0,0,0,1.313.554,4.9,4.9,0,0,1,1.8.978A1.724,1.724,0,0,1,174.31,12.956ZM184.4,15l-.226-1.066h-.055a3.153,3.153,0,0,1-1.118.954,3.407,3.407,0,0,1-1.391.25,2.5,2.5,0,0,1-1.747-.574,2.094,2.094,0,0,1-.632-1.634q0-2.27,3.63-2.379l1.271-.041v-.465a1.9,1.9,0,0,0-.379-1.3,1.56,1.56,0,0,0-1.213-.42,4.944,4.944,0,0,0-2.119.574l-.349-.868a5.333,5.333,0,0,1,1.213-.472,5.255,5.255,0,0,1,1.323-.171,2.854,2.854,0,0,1,1.986.595,2.482,2.482,0,0,1,.646,1.907V15Zm-2.563-.8a2.3,2.3,0,0,0,1.665-.581,2.15,2.15,0,0,0,.6-1.627v-.677l-1.135.048a4.128,4.128,0,0,0-1.952.42,1.268,1.268,0,0,0-.6,1.159,1.169,1.169,0,0,0,.373.937A1.546,1.546,0,0,0,181.836,14.2Zm10.869.8V10.153a1.955,1.955,0,0,0-.417-1.367,1.7,1.7,0,0,0-1.306-.451,2.153,2.153,0,0,0-1.723.636,3.21,3.21,0,0,0-.547,2.1V15h-1.135V7.508h.923l.185,1.025h.055a2.317,2.317,0,0,1,.978-.858,3.176,3.176,0,0,1,1.4-.3,2.846,2.846,0,0,1,2.037.653,2.778,2.778,0,0,1,.684,2.088V15Zm12.845,0h-5.571V5.006h5.571V6.038h-4.409v3.22h4.143v1.025h-4.143v3.678h4.409Zm7.171,0V10.153a1.955,1.955,0,0,0-.417-1.367A1.7,1.7,0,0,0,211,8.335a2.153,2.153,0,0,0-1.723.636,3.21,3.21,0,0,0-.547,2.1V15h-1.135V7.508h.923l.185,1.025h.055a2.317,2.317,0,0,1,.978-.858,3.176,3.176,0,0,1,1.4-.3,2.846,2.846,0,0,1,2.037.653,2.778,2.778,0,0,1,.684,2.088V15Zm9.6-7.492v.718l-1.388.164a2.437,2.437,0,0,1,.492,1.5,2.215,2.215,0,0,1-.752,1.757,3.033,3.033,0,0,1-2.064.656,3.438,3.438,0,0,1-.629-.055,1.117,1.117,0,0,0-.725.964.49.49,0,0,0,.253.455,1.848,1.848,0,0,0,.868.147H219.7a2.97,2.97,0,0,1,1.87.513,1.781,1.781,0,0,1,.653,1.49,2.127,2.127,0,0,1-1,1.9,5.342,5.342,0,0,1-2.912.653,3.979,3.979,0,0,1-2.266-.547,1.766,1.766,0,0,1-.8-1.545,1.735,1.735,0,0,1,.438-1.183,2.228,2.228,0,0,1,1.23-.677,1.187,1.187,0,0,1-.482-.4,1.067,1.067,0,0,1-.195-.636,1.207,1.207,0,0,1,.219-.718,2.3,2.3,0,0,1,.69-.595,2.024,2.024,0,0,1-.947-.813,2.39,2.39,0,0,1-.366-1.312,2.424,2.424,0,0,1,.738-1.9,3.014,3.014,0,0,1,2.092-.667,3.8,3.8,0,0,1,1.06.137Zm-5.975,8.75a1.017,1.017,0,0,0,.513.923,2.83,2.83,0,0,0,1.47.314,4.1,4.1,0,0,0,2.116-.427,1.308,1.308,0,0,0,.687-1.159.917.917,0,0,0-.376-.844,2.92,2.92,0,0,0-1.415-.236h-1.36a1.792,1.792,0,0,0-1.2.369A1.319,1.319,0,0,0,216.344,16.258Zm.615-6.351A1.525,1.525,0,0,0,217.4,11.1a1.774,1.774,0,0,0,1.237.4A1.447,1.447,0,0,0,220.3,9.887,1.489,1.489,0,0,0,218.62,8.2a1.665,1.665,0,0,0-1.23.431A1.734,1.734,0,0,0,216.959,9.907ZM224.991,15h-1.135V4.363h1.135Zm3.541,0H227.4V7.508h1.135ZM227.3,5.478a.754.754,0,0,1,.191-.571.709.709,0,0,1,.95,0,.74.74,0,0,1,.2.567.752.752,0,0,1-.2.571.694.694,0,0,1-.95,0A.768.768,0,0,1,227.3,5.478Zm8.47,7.479a1.877,1.877,0,0,1-.779,1.613,3.663,3.663,0,0,1-2.187.567,4.757,4.757,0,0,1-2.324-.472V13.612a5.621,5.621,0,0,0,1.159.431,4.839,4.839,0,0,0,1.193.157,2.705,2.705,0,0,0,1.367-.284.977.977,0,0,0,.1-1.613,5.968,5.968,0,0,0-1.48-.735,8.025,8.025,0,0,1-1.487-.68,2.031,2.031,0,0,1-.656-.66,1.72,1.72,0,0,1-.215-.882,1.681,1.681,0,0,1,.745-1.446,3.472,3.472,0,0,1,2.044-.53,5.98,5.98,0,0,1,2.365.492l-.4.923a5.429,5.429,0,0,0-2.044-.465,2.352,2.352,0,0,0-1.217.253.782.782,0,0,0-.41.7.849.849,0,0,0,.154.513,1.518,1.518,0,0,0,.5.4,11.075,11.075,0,0,0,1.313.554,4.9,4.9,0,0,1,1.8.978A1.724,1.724,0,0,1,235.771,12.956ZM242.744,15V10.153a1.955,1.955,0,0,0-.417-1.367,1.7,1.7,0,0,0-1.306-.451,2.139,2.139,0,0,0-1.726.643,3.255,3.255,0,0,0-.543,2.105V15h-1.135V4.363h1.135v3.22a7.016,7.016,0,0,1-.055.964h.068a2.314,2.314,0,0,1,.954-.851,3.1,3.1,0,0,1,1.412-.311,2.891,2.891,0,0,1,2.061.653,2.749,2.749,0,0,1,.687,2.075V15ZM4.689,34.137a3.242,3.242,0,0,1-1.336-.27,2.513,2.513,0,0,1-1.015-.831H2.256a10.049,10.049,0,0,1,.082,1.244v3.083H1.2V26.508h.923l.157,1.025h.055a2.635,2.635,0,0,1,1.019-.889,3.1,3.1,0,0,1,1.333-.273,2.769,2.769,0,0,1,2.3,1.019,4.484,4.484,0,0,1,.81,2.857,4.458,4.458,0,0,1-.824,2.868A2.774,2.774,0,0,1,4.689,34.137Zm-.164-6.8a2.011,2.011,0,0,0-1.661.636,3.271,3.271,0,0,0-.526,2.023v.253a3.749,3.749,0,0,0,.526,2.259,2,2,0,0,0,1.688.68A1.756,1.756,0,0,0,6.074,32.4a3.728,3.728,0,0,0,.55-2.167,3.588,3.588,0,0,0-.55-2.15A1.81,1.81,0,0,0,4.525,27.335Zm11.724,2.912a4.133,4.133,0,0,1-.923,2.861,3.25,3.25,0,0,1-2.55,1.029,3.377,3.377,0,0,1-1.784-.472,3.113,3.113,0,0,1-1.2-1.354,4.717,4.717,0,0,1-.424-2.064,4.127,4.127,0,0,1,.916-2.854,3.24,3.24,0,0,1,2.543-1.022,3.169,3.169,0,0,1,2.5,1.046A4.115,4.115,0,0,1,16.249,30.247Zm-5.708,0a3.556,3.556,0,0,0,.574,2.188,1.993,1.993,0,0,0,1.688.752,2.006,2.006,0,0,0,1.692-.749,3.538,3.538,0,0,0,.578-2.191,3.481,3.481,0,0,0-.578-2.17,2.03,2.03,0,0,0-1.706-.742,2,2,0,0,0-1.682.731A3.52,3.52,0,0,0,10.541,30.247ZM21.4,34.137a3.442,3.442,0,0,1-2.622-1.012,3.917,3.917,0,0,1-.96-2.81,4.344,4.344,0,0,1,.892-2.878,2.963,2.963,0,0,1,2.4-1.066,2.825,2.825,0,0,1,2.229.926,3.55,3.55,0,0,1,.82,2.444v.718H19a2.97,2.97,0,0,0,.667,2,2.305,2.305,0,0,0,1.781.684,6.035,6.035,0,0,0,2.393-.506v1.012a6.005,6.005,0,0,1-1.138.373A6.4,6.4,0,0,1,21.4,34.137ZM21.1,27.321a1.853,1.853,0,0,0-1.439.588,2.71,2.71,0,0,0-.632,1.627h3.917a2.5,2.5,0,0,0-.479-1.644A1.684,1.684,0,0,0,21.1,27.321ZM28.513,33.2a3.707,3.707,0,0,0,.581-.044,3.761,3.761,0,0,0,.444-.092v.868a2.074,2.074,0,0,1-.543.147,4.081,4.081,0,0,1-.646.058q-2.174,0-2.174-2.29V27.39H25.1v-.547l1.073-.472.479-1.6h.656v1.736h2.174v.882H27.31V31.8a1.517,1.517,0,0,0,.321,1.039A1.118,1.118,0,0,0,28.513,33.2Zm3.712-.827.1.157q-.178.684-.513,1.589t-.7,1.685h-.854q.185-.711.407-1.757t.311-1.675Zm9.365,1.764a3.242,3.242,0,0,1-1.336-.27,2.513,2.513,0,0,1-1.015-.831h-.082a10.049,10.049,0,0,1,.082,1.244v3.083H38.1V26.508h.923l.157,1.025h.055a2.635,2.635,0,0,1,1.019-.889,3.1,3.1,0,0,1,1.333-.273,2.769,2.769,0,0,1,2.3,1.019,4.484,4.484,0,0,1,.81,2.857,4.458,4.458,0,0,1-.824,2.868A2.774,2.774,0,0,1,41.59,34.137Zm-.164-6.8a2.011,2.011,0,0,0-1.661.636,3.271,3.271,0,0,0-.526,2.023v.253a3.749,3.749,0,0,0,.526,2.259,2,2,0,0,0,1.688.68,1.756,1.756,0,0,0,1.521-.786,3.728,3.728,0,0,0,.55-2.167,3.588,3.588,0,0,0-.55-2.15A1.81,1.81,0,0,0,41.426,27.335ZM47.817,34H46.683V23.363h1.135Zm7.014,0-.226-1.066h-.055a3.153,3.153,0,0,1-1.118.954,3.407,3.407,0,0,1-1.391.25,2.5,2.5,0,0,1-1.747-.574,2.094,2.094,0,0,1-.632-1.634q0-2.27,3.63-2.379l1.271-.041v-.465a1.9,1.9,0,0,0-.379-1.3,1.56,1.56,0,0,0-1.213-.42,4.944,4.944,0,0,0-2.119.574l-.349-.868a5.332,5.332,0,0,1,1.213-.472,5.255,5.255,0,0,1,1.323-.171,2.854,2.854,0,0,1,1.986.595,2.482,2.482,0,0,1,.646,1.907V34Zm-2.563-.8a2.3,2.3,0,0,0,1.665-.581,2.15,2.15,0,0,0,.6-1.627v-.677l-1.135.048a4.128,4.128,0,0,0-1.952.42,1.268,1.268,0,0,0-.6,1.159,1.169,1.169,0,0,0,.373.937A1.546,1.546,0,0,0,52.268,33.2Zm4.553-6.692h1.217l1.641,4.272a16.251,16.251,0,0,1,.67,2.112H60.4q.089-.349.373-1.193t1.856-5.192h1.217l-3.22,8.531a4.256,4.256,0,0,1-1.118,1.794,2.377,2.377,0,0,1-1.569.53,4.565,4.565,0,0,1-1.025-.116v-.909a3.955,3.955,0,0,0,.841.082,1.733,1.733,0,0,0,1.668-1.312l.417-1.066ZM71.183,34l-1.374-4.4q-.13-.4-.485-1.832h-.055q-.273,1.2-.479,1.846L67.375,34H66.063l-2.044-7.492h1.189l1.1,4.3a17.422,17.422,0,0,1,.434,1.989H66.8q.075-.39.243-1.008t.291-.981l1.374-4.3h1.23l1.34,4.3a14.513,14.513,0,0,1,.52,1.976h.055A7.246,7.246,0,0,1,72,32.024q.12-.513,1.425-5.517H74.6L72.529,34Zm8.189-7.629a4.44,4.44,0,0,1,.9.082l-.157,1.053a3.865,3.865,0,0,0-.82-.1,2,2,0,0,0-1.555.738,2.692,2.692,0,0,0-.646,1.839V34H75.954V26.508h.937l.13,1.388h.055a3.293,3.293,0,0,1,1-1.128A2.262,2.262,0,0,1,79.372,26.371ZM82.8,34H81.669V26.508H82.8Zm-1.23-9.522a.754.754,0,0,1,.191-.571.709.709,0,0,1,.95,0,.74.74,0,0,1,.2.567.752.752,0,0,1-.2.571.694.694,0,0,1-.95,0A.768.768,0,0,1,81.573,24.478Zm9.769,2.03v.718l-1.388.164a2.437,2.437,0,0,1,.492,1.5,2.215,2.215,0,0,1-.752,1.757,3.033,3.033,0,0,1-2.064.656A3.438,3.438,0,0,1,87,31.245a1.117,1.117,0,0,0-.725.964.49.49,0,0,0,.253.455,1.848,1.848,0,0,0,.868.147h1.326a2.97,2.97,0,0,1,1.87.513,1.781,1.781,0,0,1,.653,1.49,2.127,2.127,0,0,1-1,1.9,5.342,5.342,0,0,1-2.912.653,3.979,3.979,0,0,1-2.266-.547,1.766,1.766,0,0,1-.8-1.545,1.735,1.735,0,0,1,.438-1.183,2.228,2.228,0,0,1,1.23-.677,1.187,1.187,0,0,1-.482-.4,1.067,1.067,0,0,1-.195-.636,1.207,1.207,0,0,1,.219-.718,2.3,2.3,0,0,1,.69-.595,2.024,2.024,0,0,1-.947-.813,2.39,2.39,0,0,1-.366-1.312,2.424,2.424,0,0,1,.738-1.9,3.014,3.014,0,0,1,2.092-.667,3.8,3.8,0,0,1,1.06.137Zm-5.975,8.75a1.017,1.017,0,0,0,.513.923,2.83,2.83,0,0,0,1.47.314,4.1,4.1,0,0,0,2.116-.427,1.308,1.308,0,0,0,.687-1.159.917.917,0,0,0-.376-.844,2.92,2.92,0,0,0-1.415-.236H87a1.792,1.792,0,0,0-1.2.369A1.319,1.319,0,0,0,85.367,35.258Zm.615-6.351a1.525,1.525,0,0,0,.444,1.189,1.774,1.774,0,0,0,1.237.4,1.447,1.447,0,0,0,1.661-1.613A1.489,1.489,0,0,0,87.644,27.2a1.665,1.665,0,0,0-1.23.431A1.734,1.734,0,0,0,85.982,28.907ZM98.007,34V29.153a1.955,1.955,0,0,0-.417-1.367,1.7,1.7,0,0,0-1.306-.451,2.139,2.139,0,0,0-1.726.643,3.255,3.255,0,0,0-.543,2.105V34H92.88V23.363h1.135v3.22a7.015,7.015,0,0,1-.055.964h.068a2.314,2.314,0,0,1,.954-.851,3.1,3.1,0,0,1,1.412-.311,2.891,2.891,0,0,1,2.061.653,2.749,2.749,0,0,1,.687,2.075V34Zm5.886-.8a3.707,3.707,0,0,0,.581-.044,3.761,3.761,0,0,0,.444-.092v.868a2.074,2.074,0,0,1-.543.147,4.081,4.081,0,0,1-.646.058q-2.174,0-2.174-2.29V27.39h-1.073v-.547l1.073-.472.479-1.6h.656v1.736h2.174v.882h-2.174V31.8a1.517,1.517,0,0,0,.321,1.039A1.118,1.118,0,0,0,103.893,33.2Zm3.712-.827.1.157q-.178.684-.513,1.589t-.7,1.685h-.854q.185-.711.407-1.757t.311-1.675ZM118.091,34l-.226-1.066h-.055a3.153,3.153,0,0,1-1.118.954,3.407,3.407,0,0,1-1.391.25,2.5,2.5,0,0,1-1.747-.574,2.094,2.094,0,0,1-.632-1.634q0-2.27,3.63-2.379l1.271-.041v-.465a1.9,1.9,0,0,0-.379-1.3,1.56,1.56,0,0,0-1.213-.42,4.944,4.944,0,0,0-2.119.574l-.349-.868a5.332,5.332,0,0,1,1.213-.472,5.255,5.255,0,0,1,1.323-.171,2.854,2.854,0,0,1,1.986.595,2.482,2.482,0,0,1,.646,1.907V34Zm-2.563-.8a2.3,2.3,0,0,0,1.665-.581,2.15,2.15,0,0,0,.6-1.627v-.677l-1.135.048a4.128,4.128,0,0,0-1.952.42,1.268,1.268,0,0,0-.6,1.159,1.169,1.169,0,0,0,.373.937A1.546,1.546,0,0,0,115.527,33.2ZM126.4,34V29.153a1.955,1.955,0,0,0-.417-1.367,1.7,1.7,0,0,0-1.306-.451,2.153,2.153,0,0,0-1.723.636,3.21,3.21,0,0,0-.547,2.1V34H121.27V26.508h.923l.185,1.025h.055a2.317,2.317,0,0,1,.978-.858,3.176,3.176,0,0,1,1.4-.3,2.846,2.846,0,0,1,2.037.653,2.778,2.778,0,0,1,.684,2.088V34Zm8.565-1H134.9a2.666,2.666,0,0,1-2.352,1.142,2.782,2.782,0,0,1-2.287-1,4.423,4.423,0,0,1-.817-2.857,4.5,4.5,0,0,1,.82-2.878,2.76,2.76,0,0,1,2.283-1.025,2.724,2.724,0,0,1,2.338,1.107h.089l-.048-.54-.027-.526V23.363h1.135V34h-.923Zm-2.27.191a2.066,2.066,0,0,0,1.685-.632,3.2,3.2,0,0,0,.523-2.041v-.239a3.76,3.76,0,0,0-.53-2.273,2.012,2.012,0,0,0-1.692-.68,1.737,1.737,0,0,0-1.528.776,3.858,3.858,0,0,0-.53,2.191,3.7,3.7,0,0,0,.526,2.167A1.783,1.783,0,0,0,132.692,33.187ZM146.686,34l-.226-1.066h-.055a3.153,3.153,0,0,1-1.118.954,3.407,3.407,0,0,1-1.391.25,2.5,2.5,0,0,1-1.747-.574,2.094,2.094,0,0,1-.632-1.634q0-2.27,3.63-2.379l1.271-.041v-.465a1.9,1.9,0,0,0-.379-1.3,1.56,1.56,0,0,0-1.213-.42,4.944,4.944,0,0,0-2.119.574l-.349-.868a5.332,5.332,0,0,1,1.213-.472,5.255,5.255,0,0,1,1.323-.171,2.854,2.854,0,0,1,1.986.595,2.482,2.482,0,0,1,.646,1.907V34Zm-2.563-.8a2.3,2.3,0,0,0,1.665-.581,2.15,2.15,0,0,0,.6-1.627v-.677l-1.135.048a4.128,4.128,0,0,0-1.952.42,1.268,1.268,0,0,0-.6,1.159,1.169,1.169,0,0,0,.373.937A1.546,1.546,0,0,0,144.122,33.2Zm8.736.937a3.2,3.2,0,0,1-2.519-1,4.118,4.118,0,0,1-.892-2.833,4.247,4.247,0,0,1,.906-2.905,3.261,3.261,0,0,1,2.581-1.025,5.121,5.121,0,0,1,1.08.116,3.558,3.558,0,0,1,.848.273l-.349.964a5.336,5.336,0,0,0-.82-.25,3.663,3.663,0,0,0-.786-.1q-2.283,0-2.283,2.912a3.468,3.468,0,0,0,.557,2.119,1.938,1.938,0,0,0,1.651.738,5.048,5.048,0,0,0,1.921-.4v1A4.094,4.094,0,0,1,152.858,34.137Zm6.091-.937a3.707,3.707,0,0,0,.581-.044,3.761,3.761,0,0,0,.444-.092v.868a2.074,2.074,0,0,1-.543.147,4.081,4.081,0,0,1-.646.058q-2.174,0-2.174-2.29V27.39h-1.073v-.547l1.073-.472.479-1.6h.656v1.736h2.174v.882h-2.174V31.8a1.517,1.517,0,0,0,.321,1.039A1.118,1.118,0,0,0,158.949,33.2Zm8.989-2.953a4.133,4.133,0,0,1-.923,2.861,3.25,3.25,0,0,1-2.55,1.029,3.377,3.377,0,0,1-1.784-.472,3.113,3.113,0,0,1-1.2-1.354,4.717,4.717,0,0,1-.424-2.064,4.127,4.127,0,0,1,.916-2.854,3.24,3.24,0,0,1,2.543-1.022,3.169,3.169,0,0,1,2.5,1.046A4.115,4.115,0,0,1,167.938,30.247Zm-5.708,0a3.556,3.556,0,0,0,.574,2.188,2.279,2.279,0,0,0,3.38,0,3.538,3.538,0,0,0,.578-2.191,3.481,3.481,0,0,0-.578-2.17,2.03,2.03,0,0,0-1.706-.742,2,2,0,0,0-1.682.731A3.52,3.52,0,0,0,162.23,30.247Zm11.115-3.876a4.44,4.44,0,0,1,.9.082l-.157,1.053a3.865,3.865,0,0,0-.82-.1,2,2,0,0,0-1.555.738,2.692,2.692,0,0,0-.646,1.839V34h-1.135V26.508h.937l.13,1.388h.055a3.294,3.294,0,0,1,1-1.128A2.262,2.262,0,0,1,173.346,26.371Zm3.486,6,.1.157q-.178.684-.513,1.589t-.7,1.685h-.854q.185-.711.407-1.757t.311-1.675Zm12,1.627-1.374-4.4q-.13-.4-.485-1.832h-.055q-.273,1.2-.479,1.846L185.021,34h-1.312l-2.044-7.492h1.189l1.1,4.3a17.42,17.42,0,0,1,.434,1.989h.055q.075-.39.243-1.008t.291-.981l1.374-4.3h1.23l1.34,4.3a14.513,14.513,0,0,1,.52,1.976h.055a7.246,7.246,0,0,1,.147-.759q.12-.513,1.425-5.517h1.176L190.176,34Zm5.906,0H193.6V26.508h1.135Zm-1.23-9.522a.754.754,0,0,1,.191-.571.709.709,0,0,1,.95,0,.74.74,0,0,1,.2.567.752.752,0,0,1-.2.571.694.694,0,0,1-.95,0A.768.768,0,0,1,193.5,24.478ZM202.241,33h-.062a2.666,2.666,0,0,1-2.352,1.142,2.782,2.782,0,0,1-2.287-1,4.423,4.423,0,0,1-.817-2.857,4.5,4.5,0,0,1,.82-2.878,2.76,2.76,0,0,1,2.283-1.025,2.724,2.724,0,0,1,2.338,1.107h.089l-.048-.54-.027-.526V23.363h1.135V34h-.923Zm-2.27.191a2.066,2.066,0,0,0,1.685-.632,3.2,3.2,0,0,0,.523-2.041v-.239A3.76,3.76,0,0,0,201.65,28a2.012,2.012,0,0,0-1.692-.68,1.737,1.737,0,0,0-1.528.776,3.858,3.858,0,0,0-.53,2.191,3.7,3.7,0,0,0,.526,2.167A1.783,1.783,0,0,0,199.972,33.187Zm8.914.95a3.442,3.442,0,0,1-2.622-1.012,3.917,3.917,0,0,1-.96-2.81,4.344,4.344,0,0,1,.892-2.878,2.963,2.963,0,0,1,2.4-1.066,2.825,2.825,0,0,1,2.229.926,3.55,3.55,0,0,1,.82,2.444v.718h-5.161a2.97,2.97,0,0,0,.667,2,2.305,2.305,0,0,0,1.781.684,6.035,6.035,0,0,0,2.393-.506v1.012a6.005,6.005,0,0,1-1.138.373A6.4,6.4,0,0,1,208.886,34.137Zm-.308-6.815a1.853,1.853,0,0,0-1.439.588,2.71,2.71,0,0,0-.632,1.627h3.917a2.5,2.5,0,0,0-.479-1.644A1.684,1.684,0,0,0,208.578,27.321ZM214.71,34h-1.135V23.363h1.135Zm1.217-7.492h1.217l1.641,4.272a16.251,16.251,0,0,1,.67,2.112h.055q.089-.349.373-1.193t1.856-5.192h1.217l-3.22,8.531a4.256,4.256,0,0,1-1.118,1.794,2.377,2.377,0,0,1-1.569.53,4.565,4.565,0,0,1-1.025-.116v-.909a3.956,3.956,0,0,0,.841.082,1.733,1.733,0,0,0,1.668-1.312l.417-1.066ZM4.621,45.371a4.44,4.44,0,0,1,.9.082l-.157,1.053a3.865,3.865,0,0,0-.82-.1,2,2,0,0,0-1.555.738,2.692,2.692,0,0,0-.646,1.839V53H1.2V45.508H2.14L2.27,46.9h.055a3.293,3.293,0,0,1,1-1.128A2.262,2.262,0,0,1,4.621,45.371Zm5.462,7.766a3.442,3.442,0,0,1-2.622-1.012,3.917,3.917,0,0,1-.96-2.81,4.344,4.344,0,0,1,.892-2.878,2.963,2.963,0,0,1,2.4-1.066,2.825,2.825,0,0,1,2.229.926,3.55,3.55,0,0,1,.82,2.444v.718H7.677a2.97,2.97,0,0,0,.667,2,2.305,2.305,0,0,0,1.781.684,6.035,6.035,0,0,0,2.393-.506v1.012a6.005,6.005,0,0,1-1.138.373A6.4,6.4,0,0,1,10.083,53.137Zm-.308-6.815a1.853,1.853,0,0,0-1.439.588A2.71,2.71,0,0,0,7.7,48.536h3.917a2.5,2.5,0,0,0-.479-1.644A1.684,1.684,0,0,0,9.775,46.321ZM20.9,45.508v.718l-1.388.164a2.437,2.437,0,0,1,.492,1.5,2.215,2.215,0,0,1-.752,1.757,3.033,3.033,0,0,1-2.064.656,3.438,3.438,0,0,1-.629-.055,1.117,1.117,0,0,0-.725.964.49.49,0,0,0,.253.455,1.848,1.848,0,0,0,.868.147h1.326a2.97,2.97,0,0,1,1.87.513,1.781,1.781,0,0,1,.653,1.49,2.127,2.127,0,0,1-1,1.9,5.342,5.342,0,0,1-2.912.653,3.979,3.979,0,0,1-2.266-.547,1.766,1.766,0,0,1-.8-1.545,1.735,1.735,0,0,1,.438-1.183,2.228,2.228,0,0,1,1.23-.677,1.187,1.187,0,0,1-.482-.4,1.067,1.067,0,0,1-.195-.636,1.207,1.207,0,0,1,.219-.718,2.3,2.3,0,0,1,.69-.595,2.024,2.024,0,0,1-.947-.813,2.39,2.39,0,0,1-.366-1.312,2.424,2.424,0,0,1,.738-1.9,3.014,3.014,0,0,1,2.092-.667,3.8,3.8,0,0,1,1.06.137Zm-5.975,8.75a1.017,1.017,0,0,0,.513.923,2.83,2.83,0,0,0,1.47.314,4.1,4.1,0,0,0,2.116-.427,1.308,1.308,0,0,0,.687-1.159.917.917,0,0,0-.376-.844,2.92,2.92,0,0,0-1.415-.236h-1.36a1.792,1.792,0,0,0-1.2.369A1.319,1.319,0,0,0,14.93,54.258Zm.615-6.351a1.525,1.525,0,0,0,.444,1.189,1.774,1.774,0,0,0,1.237.4,1.447,1.447,0,0,0,1.661-1.613A1.489,1.489,0,0,0,17.206,46.2a1.665,1.665,0,0,0-1.23.431A1.734,1.734,0,0,0,15.545,47.907ZM27.05,53l-.226-1.066H26.77a3.153,3.153,0,0,1-1.118.954,3.407,3.407,0,0,1-1.391.25,2.5,2.5,0,0,1-1.747-.574,2.094,2.094,0,0,1-.632-1.634q0-2.27,3.63-2.379l1.271-.041v-.465a1.9,1.9,0,0,0-.379-1.3,1.56,1.56,0,0,0-1.213-.42,4.944,4.944,0,0,0-2.119.574l-.349-.868a5.332,5.332,0,0,1,1.213-.472,5.255,5.255,0,0,1,1.323-.171,2.854,2.854,0,0,1,1.986.595,2.482,2.482,0,0,1,.646,1.907V53Zm-2.563-.8a2.3,2.3,0,0,0,1.665-.581,2.15,2.15,0,0,0,.6-1.627v-.677l-1.135.048a4.128,4.128,0,0,0-1.952.42,1.268,1.268,0,0,0-.6,1.159,1.169,1.169,0,0,0,.373.937A1.546,1.546,0,0,0,24.486,52.2Zm9.16-6.829a4.44,4.44,0,0,1,.9.082l-.157,1.053a3.865,3.865,0,0,0-.82-.1,2,2,0,0,0-1.555.738,2.692,2.692,0,0,0-.646,1.839V53H30.229V45.508h.937l.13,1.388h.055a3.293,3.293,0,0,1,1-1.128A2.262,2.262,0,0,1,33.646,45.371ZM41.043,52h-.062a2.666,2.666,0,0,1-2.352,1.142,2.782,2.782,0,0,1-2.287-1,4.423,4.423,0,0,1-.817-2.857,4.5,4.5,0,0,1,.82-2.878,2.76,2.76,0,0,1,2.283-1.025,2.724,2.724,0,0,1,2.338,1.107h.089l-.048-.54-.027-.526V42.363h1.135V53h-.923Zm-2.27.191a2.066,2.066,0,0,0,1.685-.632,3.2,3.2,0,0,0,.523-2.041v-.239A3.76,3.76,0,0,0,40.452,47a2.012,2.012,0,0,0-1.692-.68,1.737,1.737,0,0,0-1.528.776,3.858,3.858,0,0,0-.53,2.191,3.7,3.7,0,0,0,.526,2.167A1.783,1.783,0,0,0,38.773,52.187Zm8.914.95a3.442,3.442,0,0,1-2.622-1.012,3.917,3.917,0,0,1-.96-2.81A4.344,4.344,0,0,1,45,46.438a2.963,2.963,0,0,1,2.4-1.066,2.825,2.825,0,0,1,2.229.926,3.55,3.55,0,0,1,.82,2.444v.718H45.281a2.97,2.97,0,0,0,.667,2,2.305,2.305,0,0,0,1.781.684,6.035,6.035,0,0,0,2.393-.506v1.012a6.005,6.005,0,0,1-1.138.373A6.4,6.4,0,0,1,47.688,53.137Zm-.308-6.815a1.853,1.853,0,0,0-1.439.588,2.71,2.71,0,0,0-.632,1.627h3.917a2.5,2.5,0,0,0-.479-1.644A1.684,1.684,0,0,0,47.38,46.321ZM57.477,52h-.062a2.666,2.666,0,0,1-2.352,1.142,2.782,2.782,0,0,1-2.287-1,4.423,4.423,0,0,1-.817-2.857,4.5,4.5,0,0,1,.82-2.878,2.76,2.76,0,0,1,2.283-1.025A2.724,2.724,0,0,1,57.4,46.479h.089l-.048-.54-.027-.526V42.363H58.55V53h-.923Zm-2.27.191a2.066,2.066,0,0,0,1.685-.632,3.2,3.2,0,0,0,.523-2.041v-.239A3.76,3.76,0,0,0,56.885,47a2.012,2.012,0,0,0-1.692-.68,1.737,1.737,0,0,0-1.528.776,3.858,3.858,0,0,0-.53,2.191,3.7,3.7,0,0,0,.526,2.167A1.783,1.783,0,0,0,55.207,52.187ZM69.2,53l-.226-1.066H68.92a3.153,3.153,0,0,1-1.118.954,3.407,3.407,0,0,1-1.391.25,2.5,2.5,0,0,1-1.747-.574,2.094,2.094,0,0,1-.632-1.634q0-2.27,3.63-2.379l1.271-.041v-.465a1.9,1.9,0,0,0-.379-1.3,1.56,1.56,0,0,0-1.213-.42,4.944,4.944,0,0,0-2.119.574l-.349-.868a5.332,5.332,0,0,1,1.213-.472,5.255,5.255,0,0,1,1.323-.171,2.854,2.854,0,0,1,1.986.595,2.482,2.482,0,0,1,.646,1.907V53Zm-2.563-.8a2.3,2.3,0,0,0,1.665-.581,2.15,2.15,0,0,0,.6-1.627v-.677l-1.135.048a4.128,4.128,0,0,0-1.952.42,1.268,1.268,0,0,0-.6,1.159,1.169,1.169,0,0,0,.373.937A1.546,1.546,0,0,0,66.637,52.2Zm10.575-1.244a1.877,1.877,0,0,1-.779,1.613,3.663,3.663,0,0,1-2.187.567,4.757,4.757,0,0,1-2.324-.472V51.612a5.62,5.62,0,0,0,1.159.431,4.839,4.839,0,0,0,1.193.157,2.705,2.705,0,0,0,1.367-.284.977.977,0,0,0,.1-1.613,5.968,5.968,0,0,0-1.48-.735,8.025,8.025,0,0,1-1.487-.68,2.031,2.031,0,0,1-.656-.66,1.72,1.72,0,0,1-.215-.882,1.681,1.681,0,0,1,.745-1.446,3.472,3.472,0,0,1,2.044-.53,5.98,5.98,0,0,1,2.365.492l-.4.923a5.429,5.429,0,0,0-2.044-.465,2.352,2.352,0,0,0-1.217.253.782.782,0,0,0-.41.7.849.849,0,0,0,.154.513,1.518,1.518,0,0,0,.5.4,11.075,11.075,0,0,0,1.313.554,4.9,4.9,0,0,1,1.8.978A1.724,1.724,0,0,1,77.212,50.956Zm7.9,1.244a3.707,3.707,0,0,0,.581-.044,3.761,3.761,0,0,0,.444-.092v.868a2.074,2.074,0,0,1-.543.147,4.081,4.081,0,0,1-.646.058q-2.174,0-2.174-2.29V46.39H81.7v-.547l1.073-.472.479-1.6h.656v1.736h2.174v.882H83.911V50.8a1.517,1.517,0,0,0,.321,1.039A1.118,1.118,0,0,0,85.114,52.2Zm7.649.8V48.153a1.955,1.955,0,0,0-.417-1.367,1.7,1.7,0,0,0-1.306-.451,2.139,2.139,0,0,0-1.726.643,3.255,3.255,0,0,0-.543,2.105V53H87.637V42.363h1.135v3.22a7.015,7.015,0,0,1-.055.964h.068a2.314,2.314,0,0,1,.954-.851,3.1,3.1,0,0,1,1.412-.311,2.891,2.891,0,0,1,2.061.653,2.749,2.749,0,0,1,.687,2.075V53Zm6.631.137a3.442,3.442,0,0,1-2.622-1.012,3.917,3.917,0,0,1-.96-2.81,4.344,4.344,0,0,1,.892-2.878,2.963,2.963,0,0,1,2.4-1.066,2.825,2.825,0,0,1,2.229.926,3.55,3.55,0,0,1,.82,2.444v.718H96.988a2.97,2.97,0,0,0,.667,2,2.305,2.305,0,0,0,1.781.684,6.035,6.035,0,0,0,2.393-.506v1.012a6.005,6.005,0,0,1-1.138.373A6.4,6.4,0,0,1,99.395,53.137Zm-.308-6.815a1.853,1.853,0,0,0-1.439.588,2.71,2.71,0,0,0-.632,1.627h3.917a2.5,2.5,0,0,0-.479-1.644A1.684,1.684,0,0,0,99.087,46.321Zm14.766-.813v.718l-1.388.164a2.437,2.437,0,0,1,.492,1.5,2.215,2.215,0,0,1-.752,1.757,3.033,3.033,0,0,1-2.064.656,3.438,3.438,0,0,1-.629-.055,1.117,1.117,0,0,0-.725.964.49.49,0,0,0,.253.455,1.848,1.848,0,0,0,.868.147h1.326a2.97,2.97,0,0,1,1.87.513,1.781,1.781,0,0,1,.653,1.49,2.127,2.127,0,0,1-1,1.9,5.342,5.342,0,0,1-2.912.653,3.979,3.979,0,0,1-2.266-.547,1.766,1.766,0,0,1-.8-1.545,1.735,1.735,0,0,1,.438-1.183,2.228,2.228,0,0,1,1.23-.677,1.187,1.187,0,0,1-.482-.4,1.067,1.067,0,0,1-.195-.636,1.207,1.207,0,0,1,.219-.718,2.3,2.3,0,0,1,.69-.595,2.024,2.024,0,0,1-.947-.813,2.39,2.39,0,0,1-.366-1.312,2.424,2.424,0,0,1,.738-1.9,3.014,3.014,0,0,1,2.092-.667,3.8,3.8,0,0,1,1.06.137Zm-5.975,8.75a1.017,1.017,0,0,0,.513.923,2.83,2.83,0,0,0,1.47.314,4.1,4.1,0,0,0,2.116-.427,1.308,1.308,0,0,0,.687-1.159.917.917,0,0,0-.376-.844,2.92,2.92,0,0,0-1.415-.236h-1.36a1.792,1.792,0,0,0-1.2.369A1.319,1.319,0,0,0,107.878,54.258Zm.615-6.351a1.525,1.525,0,0,0,.444,1.189,1.774,1.774,0,0,0,1.237.4,1.447,1.447,0,0,0,1.661-1.613,1.489,1.489,0,0,0-1.682-1.688,1.665,1.665,0,0,0-1.23.431A1.734,1.734,0,0,0,108.493,47.907Zm10.315-2.536a4.44,4.44,0,0,1,.9.082l-.157,1.053a3.865,3.865,0,0,0-.82-.1,2,2,0,0,0-1.555.738,2.692,2.692,0,0,0-.646,1.839V53h-1.135V45.508h.937l.13,1.388h.055a3.293,3.293,0,0,1,1-1.128A2.262,2.262,0,0,1,118.809,45.371Zm5.462,7.766a3.442,3.442,0,0,1-2.622-1.012,3.917,3.917,0,0,1-.96-2.81,4.344,4.344,0,0,1,.892-2.878,2.963,2.963,0,0,1,2.4-1.066,2.825,2.825,0,0,1,2.229.926,3.55,3.55,0,0,1,.82,2.444v.718h-5.161a2.97,2.97,0,0,0,.667,2,2.305,2.305,0,0,0,1.781.684,6.035,6.035,0,0,0,2.393-.506v1.012a6.005,6.005,0,0,1-1.138.373A6.4,6.4,0,0,1,124.271,53.137Zm-.308-6.815a1.853,1.853,0,0,0-1.439.588,2.71,2.71,0,0,0-.632,1.627h3.917a2.5,2.5,0,0,0-.479-1.644A1.684,1.684,0,0,0,123.963,46.321Zm9.6,6.679-.226-1.066h-.055a3.153,3.153,0,0,1-1.118.954,3.407,3.407,0,0,1-1.391.25,2.5,2.5,0,0,1-1.747-.574,2.094,2.094,0,0,1-.632-1.634q0-2.27,3.63-2.379l1.271-.041v-.465a1.9,1.9,0,0,0-.379-1.3,1.56,1.56,0,0,0-1.213-.42,4.944,4.944,0,0,0-2.119.574l-.349-.868a5.333,5.333,0,0,1,1.213-.472,5.255,5.255,0,0,1,1.323-.171,2.854,2.854,0,0,1,1.986.595,2.482,2.482,0,0,1,.646,1.907V53ZM131,52.2a2.3,2.3,0,0,0,1.665-.581,2.15,2.15,0,0,0,.6-1.627v-.677l-1.135.048a4.128,4.128,0,0,0-1.952.42,1.268,1.268,0,0,0-.6,1.159,1.169,1.169,0,0,0,.373.937A1.546,1.546,0,0,0,131,52.2Zm8.162,0a3.707,3.707,0,0,0,.581-.044,3.761,3.761,0,0,0,.444-.092v.868a2.074,2.074,0,0,1-.543.147,4.081,4.081,0,0,1-.646.058q-2.174,0-2.174-2.29V46.39h-1.073v-.547l1.073-.472.479-1.6h.656v1.736h2.174v.882h-2.174V50.8a1.517,1.517,0,0,0,.321,1.039A1.118,1.118,0,0,0,139.166,52.2Zm5.688.937a3.442,3.442,0,0,1-2.622-1.012,3.917,3.917,0,0,1-.96-2.81,4.344,4.344,0,0,1,.892-2.878,2.963,2.963,0,0,1,2.4-1.066,2.825,2.825,0,0,1,2.229.926,3.55,3.55,0,0,1,.82,2.444v.718h-5.161a2.97,2.97,0,0,0,.667,2,2.305,2.305,0,0,0,1.781.684,6.035,6.035,0,0,0,2.393-.506v1.012a6.005,6.005,0,0,1-1.138.373A6.4,6.4,0,0,1,144.854,53.137Zm-.308-6.815a1.853,1.853,0,0,0-1.439.588,2.71,2.71,0,0,0-.632,1.627h3.917a2.5,2.5,0,0,0-.479-1.644A1.684,1.684,0,0,0,144.546,46.321Zm9.83,4.635a1.877,1.877,0,0,1-.779,1.613,3.663,3.663,0,0,1-2.187.567,4.757,4.757,0,0,1-2.324-.472V51.612a5.621,5.621,0,0,0,1.159.431,4.839,4.839,0,0,0,1.193.157,2.705,2.705,0,0,0,1.367-.284.977.977,0,0,0,.1-1.613,5.968,5.968,0,0,0-1.48-.735,8.025,8.025,0,0,1-1.487-.68,2.031,2.031,0,0,1-.656-.66,1.72,1.72,0,0,1-.215-.882,1.681,1.681,0,0,1,.745-1.446,3.472,3.472,0,0,1,2.044-.53,5.98,5.98,0,0,1,2.365.492l-.4.923a5.429,5.429,0,0,0-2.044-.465,2.352,2.352,0,0,0-1.217.253.782.782,0,0,0-.41.7.849.849,0,0,0,.154.513,1.518,1.518,0,0,0,.5.4,11.074,11.074,0,0,0,1.313.554,4.9,4.9,0,0,1,1.8.978A1.724,1.724,0,0,1,154.376,50.956Zm4.266,1.244a3.707,3.707,0,0,0,.581-.044,3.761,3.761,0,0,0,.444-.092v.868a2.074,2.074,0,0,1-.543.147,4.081,4.081,0,0,1-.646.058q-2.174,0-2.174-2.29V46.39H155.23v-.547l1.073-.472.479-1.6h.656v1.736h2.174v.882h-2.174V50.8a1.517,1.517,0,0,0,.321,1.039A1.118,1.118,0,0,0,158.642,52.2Zm12.277.8-1.374-4.4q-.13-.4-.485-1.832H169q-.273,1.2-.479,1.846L167.111,53H165.8l-2.044-7.492h1.189l1.1,4.3a17.42,17.42,0,0,1,.434,1.989h.055q.075-.39.243-1.008t.291-.981l1.374-4.3h1.23l1.34,4.3a14.513,14.513,0,0,1,.52,1.976h.055a7.246,7.246,0,0,1,.147-.759q.12-.513,1.425-5.517h1.176L172.266,53Zm8.189-7.629a4.44,4.44,0,0,1,.9.082l-.157,1.053a3.865,3.865,0,0,0-.82-.1,2,2,0,0,0-1.555.738,2.692,2.692,0,0,0-.646,1.839V53H175.69V45.508h.937l.13,1.388h.055a3.294,3.294,0,0,1,1-1.128A2.262,2.262,0,0,1,179.108,45.371ZM182.54,53h-1.135V45.508h1.135Zm-1.23-9.522a.754.754,0,0,1,.191-.571.709.709,0,0,1,.95,0,.74.74,0,0,1,.2.567.752.752,0,0,1-.2.571.694.694,0,0,1-.95,0A.768.768,0,0,1,181.31,43.478Zm6.057,8.723a3.707,3.707,0,0,0,.581-.044,3.761,3.761,0,0,0,.444-.092v.868a2.074,2.074,0,0,1-.543.147,4.081,4.081,0,0,1-.646.058q-2.174,0-2.174-2.29V46.39h-1.073v-.547l1.073-.472.479-1.6h.656v1.736h2.174v.882h-2.174V50.8a1.517,1.517,0,0,0,.321,1.039A1.118,1.118,0,0,0,187.366,52.2Zm5.688.937a3.442,3.442,0,0,1-2.622-1.012,3.917,3.917,0,0,1-.96-2.81,4.344,4.344,0,0,1,.892-2.878,2.963,2.963,0,0,1,2.4-1.066,2.825,2.825,0,0,1,2.229.926,3.55,3.55,0,0,1,.82,2.444v.718h-5.161a2.97,2.97,0,0,0,.667,2,2.305,2.305,0,0,0,1.781.684,6.035,6.035,0,0,0,2.393-.506v1.012a6.005,6.005,0,0,1-1.138.373A6.4,6.4,0,0,1,193.054,53.137Zm-.308-6.815a1.853,1.853,0,0,0-1.439.588,2.71,2.71,0,0,0-.632,1.627h3.917a2.5,2.5,0,0,0-.479-1.644A1.684,1.684,0,0,0,192.746,46.321Zm8.415-.95a4.44,4.44,0,0,1,.9.082l-.157,1.053a3.865,3.865,0,0,0-.82-.1,2,2,0,0,0-1.555.738,2.692,2.692,0,0,0-.646,1.839V53h-1.135V45.508h.937l.13,1.388h.055a3.294,3.294,0,0,1,1-1.128A2.262,2.262,0,0,1,201.161,45.371ZM208.229,53h-1.135V45.508h1.135ZM207,43.478a.754.754,0,0,1,.191-.571.709.709,0,0,1,.95,0,.74.74,0,0,1,.2.567.752.752,0,0,1-.2.571.694.694,0,0,1-.95,0A.768.768,0,0,1,207,43.478ZM215.763,53V48.153a1.955,1.955,0,0,0-.417-1.367,1.7,1.7,0,0,0-1.306-.451,2.153,2.153,0,0,0-1.723.636,3.21,3.21,0,0,0-.547,2.1V53h-1.135V45.508h.923l.185,1.025h.055a2.317,2.317,0,0,1,.978-.858,3.176,3.176,0,0,1,1.4-.3,2.846,2.846,0,0,1,2.037.653,2.778,2.778,0,0,1,.684,2.088V53Zm9.522-.8a3.707,3.707,0,0,0,.581-.044,3.761,3.761,0,0,0,.444-.092v.868a2.074,2.074,0,0,1-.543.147,4.081,4.081,0,0,1-.646.058q-2.174,0-2.174-2.29V46.39h-1.073v-.547l1.073-.472.479-1.6h.656v1.736h2.174v.882h-2.174V50.8a1.517,1.517,0,0,0,.321,1.039A1.118,1.118,0,0,0,225.285,52.2Zm7.649.8V48.153a1.955,1.955,0,0,0-.417-1.367,1.7,1.7,0,0,0-1.306-.451,2.139,2.139,0,0,0-1.726.643,3.255,3.255,0,0,0-.543,2.105V53h-1.135V42.363h1.135v3.22a7.016,7.016,0,0,1-.055.964h.068a2.314,2.314,0,0,1,.954-.851,3.1,3.1,0,0,1,1.412-.311,2.891,2.891,0,0,1,2.061.653,2.749,2.749,0,0,1,.687,2.075V53Zm6.631.137a3.442,3.442,0,0,1-2.622-1.012,3.917,3.917,0,0,1-.96-2.81,4.344,4.344,0,0,1,.892-2.878,2.963,2.963,0,0,1,2.4-1.066,2.825,2.825,0,0,1,2.229.926,3.55,3.55,0,0,1,.82,2.444v.718h-5.161a2.97,2.97,0,0,0,.667,2,2.305,2.305,0,0,0,1.781.684A6.035,6.035,0,0,0,242,51.64v1.012a6.005,6.005,0,0,1-1.138.373A6.4,6.4,0,0,1,239.565,53.137Zm-.308-6.815a1.853,1.853,0,0,0-1.439.588,2.71,2.71,0,0,0-.632,1.627H241.1a2.5,2.5,0,0,0-.479-1.644A1.684,1.684,0,0,0,239.258,46.321ZM6.945,72H1.374V62.006H6.945v1.032H2.536v3.22H6.679v1.025H2.536v3.678H6.945Zm7.171,0V67.153a1.955,1.955,0,0,0-.417-1.367,1.7,1.7,0,0,0-1.306-.451,2.153,2.153,0,0,0-1.723.636,3.21,3.21,0,0,0-.547,2.1V72H8.989V64.508h.923l.185,1.025h.055a2.317,2.317,0,0,1,.978-.858,3.176,3.176,0,0,1,1.4-.3,2.846,2.846,0,0,1,2.037.653,2.778,2.778,0,0,1,.684,2.088V72Zm9.6-7.492v.718l-1.388.164a2.437,2.437,0,0,1,.492,1.5,2.215,2.215,0,0,1-.752,1.757A3.033,3.033,0,0,1,20,69.3a3.438,3.438,0,0,1-.629-.055,1.117,1.117,0,0,0-.725.964.49.49,0,0,0,.253.455,1.848,1.848,0,0,0,.868.147H21.1a2.97,2.97,0,0,1,1.87.513,1.781,1.781,0,0,1,.653,1.49,2.127,2.127,0,0,1-1,1.9,5.342,5.342,0,0,1-2.912.653,3.979,3.979,0,0,1-2.266-.547,1.766,1.766,0,0,1-.8-1.545,1.735,1.735,0,0,1,.438-1.183,2.228,2.228,0,0,1,1.23-.677,1.187,1.187,0,0,1-.482-.4,1.067,1.067,0,0,1-.195-.636,1.207,1.207,0,0,1,.219-.718,2.3,2.3,0,0,1,.69-.595,2.024,2.024,0,0,1-.947-.813,2.39,2.39,0,0,1-.366-1.312,2.424,2.424,0,0,1,.738-1.9,3.014,3.014,0,0,1,2.092-.667,3.8,3.8,0,0,1,1.06.137Zm-5.975,8.75a1.017,1.017,0,0,0,.513.923,2.83,2.83,0,0,0,1.47.314,4.1,4.1,0,0,0,2.116-.427,1.308,1.308,0,0,0,.687-1.159.917.917,0,0,0-.376-.844,2.92,2.92,0,0,0-1.415-.236h-1.36a1.792,1.792,0,0,0-1.2.369A1.319,1.319,0,0,0,17.739,73.258Zm.615-6.351A1.525,1.525,0,0,0,18.8,68.1a1.774,1.774,0,0,0,1.237.4A1.447,1.447,0,0,0,21.7,66.887,1.489,1.489,0,0,0,20.016,65.2a1.665,1.665,0,0,0-1.23.431A1.734,1.734,0,0,0,18.354,66.907ZM26.387,72H25.252V61.363h1.135Zm3.541,0H28.793V64.508h1.135ZM28.7,62.478a.754.754,0,0,1,.191-.571.709.709,0,0,1,.95,0,.74.74,0,0,1,.2.567.752.752,0,0,1-.2.571.694.694,0,0,1-.95,0A.768.768,0,0,1,28.7,62.478Zm8.47,7.479a1.877,1.877,0,0,1-.779,1.613,3.663,3.663,0,0,1-2.187.567,4.757,4.757,0,0,1-2.324-.472V70.612a5.621,5.621,0,0,0,1.159.431,4.838,4.838,0,0,0,1.193.157,2.705,2.705,0,0,0,1.367-.284.977.977,0,0,0,.1-1.613,5.968,5.968,0,0,0-1.48-.735,8.025,8.025,0,0,1-1.487-.68,2.031,2.031,0,0,1-.656-.66,1.72,1.72,0,0,1-.215-.882A1.681,1.681,0,0,1,32.6,64.9a3.472,3.472,0,0,1,2.044-.53,5.98,5.98,0,0,1,2.365.492l-.4.923a5.429,5.429,0,0,0-2.044-.465,2.352,2.352,0,0,0-1.217.253.782.782,0,0,0-.41.7.849.849,0,0,0,.154.513,1.518,1.518,0,0,0,.5.4,11.076,11.076,0,0,0,1.313.554,4.9,4.9,0,0,1,1.8.978A1.724,1.724,0,0,1,37.167,69.956ZM44.14,72V67.153a1.955,1.955,0,0,0-.417-1.367,1.7,1.7,0,0,0-1.306-.451,2.139,2.139,0,0,0-1.726.643,3.255,3.255,0,0,0-.543,2.105V72H39.013V61.363h1.135v3.22a7.016,7.016,0,0,1-.055.964h.068a2.314,2.314,0,0,1,.954-.851,3.1,3.1,0,0,1,1.412-.311,2.891,2.891,0,0,1,2.061.653,2.749,2.749,0,0,1,.687,2.075V72Zm8.237,0H51.242V61.363h1.135Zm7.014,0-.226-1.066H59.11a3.153,3.153,0,0,1-1.118.954,3.407,3.407,0,0,1-1.391.25,2.5,2.5,0,0,1-1.747-.574,2.094,2.094,0,0,1-.632-1.634q0-2.27,3.63-2.379l1.271-.041v-.465a1.9,1.9,0,0,0-.379-1.3,1.56,1.56,0,0,0-1.213-.42,4.944,4.944,0,0,0-2.119.574l-.349-.868a5.332,5.332,0,0,1,1.213-.472,5.255,5.255,0,0,1,1.323-.171,2.854,2.854,0,0,1,1.986.595,2.482,2.482,0,0,1,.646,1.907V72Zm-2.563-.8a2.3,2.3,0,0,0,1.665-.581,2.15,2.15,0,0,0,.6-1.627v-.677l-1.135.048a4.127,4.127,0,0,0-1.952.42,1.268,1.268,0,0,0-.6,1.159,1.169,1.169,0,0,0,.373.937A1.546,1.546,0,0,0,56.827,71.2ZM67.7,72V67.153a1.955,1.955,0,0,0-.417-1.367,1.7,1.7,0,0,0-1.306-.451,2.153,2.153,0,0,0-1.723.636,3.21,3.21,0,0,0-.547,2.1V72H62.569V64.508h.923l.185,1.025h.055a2.317,2.317,0,0,1,.978-.858,3.176,3.176,0,0,1,1.4-.3,2.846,2.846,0,0,1,2.037.653,2.778,2.778,0,0,1,.684,2.088V72Zm9.6-7.492v.718l-1.388.164a2.437,2.437,0,0,1,.492,1.5,2.215,2.215,0,0,1-.752,1.757,3.033,3.033,0,0,1-2.064.656,3.438,3.438,0,0,1-.629-.055,1.117,1.117,0,0,0-.725.964.49.49,0,0,0,.253.455,1.848,1.848,0,0,0,.868.147h1.326a2.97,2.97,0,0,1,1.87.513,1.781,1.781,0,0,1,.653,1.49,2.127,2.127,0,0,1-1,1.9,5.342,5.342,0,0,1-2.912.653,3.978,3.978,0,0,1-2.266-.547,1.766,1.766,0,0,1-.8-1.545,1.735,1.735,0,0,1,.438-1.183,2.228,2.228,0,0,1,1.23-.677,1.187,1.187,0,0,1-.482-.4,1.067,1.067,0,0,1-.195-.636,1.207,1.207,0,0,1,.219-.718,2.3,2.3,0,0,1,.69-.595,2.024,2.024,0,0,1-.947-.813,2.39,2.39,0,0,1-.366-1.312,2.424,2.424,0,0,1,.738-1.9,3.014,3.014,0,0,1,2.092-.667,3.8,3.8,0,0,1,1.06.137Zm-5.975,8.75a1.017,1.017,0,0,0,.513.923,2.83,2.83,0,0,0,1.47.314,4.1,4.1,0,0,0,2.116-.427,1.308,1.308,0,0,0,.687-1.159.917.917,0,0,0-.376-.844,2.92,2.92,0,0,0-1.415-.236h-1.36a1.792,1.792,0,0,0-1.2.369A1.319,1.319,0,0,0,71.319,73.258Zm.615-6.351a1.525,1.525,0,0,0,.444,1.189,1.774,1.774,0,0,0,1.237.4,1.447,1.447,0,0,0,1.661-1.613A1.489,1.489,0,0,0,73.6,65.2a1.665,1.665,0,0,0-1.23.431A1.734,1.734,0,0,0,71.935,66.907Zm7.964-2.4v4.86a1.955,1.955,0,0,0,.417,1.367,1.7,1.7,0,0,0,1.306.451,2.13,2.13,0,0,0,1.719-.643,3.241,3.241,0,0,0,.543-2.1V64.508h1.135V72h-.937l-.164-1h-.062a2.262,2.262,0,0,1-.967.848,3.251,3.251,0,0,1-1.412.294,2.864,2.864,0,0,1-2.047-.649,2.764,2.764,0,0,1-.68-2.078v-4.9ZM92.032,72l-.226-1.066h-.055a3.153,3.153,0,0,1-1.118.954,3.407,3.407,0,0,1-1.391.25,2.5,2.5,0,0,1-1.747-.574,2.094,2.094,0,0,1-.632-1.634q0-2.27,3.63-2.379l1.271-.041v-.465a1.9,1.9,0,0,0-.379-1.3,1.56,1.56,0,0,0-1.213-.42,4.944,4.944,0,0,0-2.119.574l-.349-.868a5.332,5.332,0,0,1,1.213-.472,5.255,5.255,0,0,1,1.323-.171,2.854,2.854,0,0,1,1.986.595,2.482,2.482,0,0,1,.646,1.907V72Zm-2.563-.8a2.3,2.3,0,0,0,1.665-.581,2.15,2.15,0,0,0,.6-1.627v-.677l-1.135.048a4.127,4.127,0,0,0-1.952.42,1.268,1.268,0,0,0-.6,1.159,1.169,1.169,0,0,0,.373.937A1.546,1.546,0,0,0,89.469,71.2Zm11.874-6.692v.718l-1.388.164a2.437,2.437,0,0,1,.492,1.5,2.215,2.215,0,0,1-.752,1.757,3.033,3.033,0,0,1-2.064.656A3.438,3.438,0,0,1,97,69.245a1.117,1.117,0,0,0-.725.964.49.49,0,0,0,.253.455,1.848,1.848,0,0,0,.868.147h1.326a2.97,2.97,0,0,1,1.87.513,1.781,1.781,0,0,1,.653,1.49,2.127,2.127,0,0,1-1,1.9,5.342,5.342,0,0,1-2.912.653,3.978,3.978,0,0,1-2.266-.547,1.766,1.766,0,0,1-.8-1.545,1.735,1.735,0,0,1,.438-1.183,2.228,2.228,0,0,1,1.23-.677,1.187,1.187,0,0,1-.482-.4,1.067,1.067,0,0,1-.195-.636,1.207,1.207,0,0,1,.219-.718,2.3,2.3,0,0,1,.69-.595,2.024,2.024,0,0,1-.947-.813,2.39,2.39,0,0,1-.366-1.312,2.424,2.424,0,0,1,.738-1.9,3.014,3.014,0,0,1,2.092-.667,3.8,3.8,0,0,1,1.06.137Zm-5.975,8.75a1.017,1.017,0,0,0,.513.923,2.83,2.83,0,0,0,1.47.314,4.1,4.1,0,0,0,2.116-.427,1.308,1.308,0,0,0,.687-1.159.917.917,0,0,0-.376-.844,2.92,2.92,0,0,0-1.415-.236H97a1.792,1.792,0,0,0-1.2.369A1.319,1.319,0,0,0,95.368,73.258Zm.615-6.351a1.525,1.525,0,0,0,.444,1.189,1.774,1.774,0,0,0,1.237.4,1.447,1.447,0,0,0,1.661-1.613A1.489,1.489,0,0,0,97.645,65.2a1.665,1.665,0,0,0-1.23.431A1.734,1.734,0,0,0,95.983,66.907Zm10.063,5.229a3.442,3.442,0,0,1-2.622-1.012,3.917,3.917,0,0,1-.96-2.81,4.344,4.344,0,0,1,.892-2.878,2.963,2.963,0,0,1,2.4-1.066,2.825,2.825,0,0,1,2.229.926,3.55,3.55,0,0,1,.82,2.444v.718H103.64a2.97,2.97,0,0,0,.667,2,2.305,2.305,0,0,0,1.781.684,6.035,6.035,0,0,0,2.393-.506v1.012a6,6,0,0,1-1.138.373A6.4,6.4,0,0,1,106.046,72.137Zm-.308-6.815a1.853,1.853,0,0,0-1.439.588,2.71,2.71,0,0,0-.632,1.627h3.917a2.5,2.5,0,0,0-.479-1.644A1.684,1.684,0,0,0,105.738,65.321ZM118.979,72l-.226-1.066H118.7a3.153,3.153,0,0,1-1.118.954,3.407,3.407,0,0,1-1.391.25,2.5,2.5,0,0,1-1.747-.574,2.094,2.094,0,0,1-.632-1.634q0-2.27,3.63-2.379l1.271-.041v-.465a1.9,1.9,0,0,0-.379-1.3,1.56,1.56,0,0,0-1.213-.42A4.944,4.944,0,0,0,115,65.9l-.349-.868a5.332,5.332,0,0,1,1.213-.472,5.255,5.255,0,0,1,1.323-.171,2.854,2.854,0,0,1,1.986.595,2.482,2.482,0,0,1,.646,1.907V72Zm-2.563-.8a2.3,2.3,0,0,0,1.665-.581,2.15,2.15,0,0,0,.6-1.627v-.677l-1.135.048a4.127,4.127,0,0,0-1.952.42,1.268,1.268,0,0,0-.6,1.159,1.169,1.169,0,0,0,.373.937A1.546,1.546,0,0,0,116.416,71.2Zm10.869.8V67.153a1.955,1.955,0,0,0-.417-1.367,1.7,1.7,0,0,0-1.306-.451,2.153,2.153,0,0,0-1.723.636,3.21,3.21,0,0,0-.547,2.1V72h-1.135V64.508h.923l.185,1.025h.055a2.317,2.317,0,0,1,.978-.858,3.176,3.176,0,0,1,1.4-.3,2.846,2.846,0,0,1,2.037.653,2.778,2.778,0,0,1,.684,2.088V72Zm8.565-1h-.062a2.666,2.666,0,0,1-2.352,1.142,2.782,2.782,0,0,1-2.287-1,4.423,4.423,0,0,1-.817-2.857,4.5,4.5,0,0,1,.82-2.878,2.76,2.76,0,0,1,2.283-1.025,2.724,2.724,0,0,1,2.338,1.107h.089l-.048-.54-.027-.526V61.363h1.135V72H136Zm-2.27.191a2.066,2.066,0,0,0,1.685-.632,3.2,3.2,0,0,0,.523-2.041v-.239a3.76,3.76,0,0,0-.53-2.273,2.012,2.012,0,0,0-1.692-.68,1.737,1.737,0,0,0-1.528.776,3.858,3.858,0,0,0-.53,2.191,3.7,3.7,0,0,0,.526,2.167A1.783,1.783,0,0,0,133.581,71.187Zm11.806.014a3.707,3.707,0,0,0,.581-.044,3.762,3.762,0,0,0,.444-.092v.868a2.074,2.074,0,0,1-.543.147,4.081,4.081,0,0,1-.646.058q-2.174,0-2.174-2.29V65.39h-1.073v-.547l1.073-.472.479-1.6h.656v1.736h2.174v.882h-2.174V69.8a1.517,1.517,0,0,0,.321,1.039A1.118,1.118,0,0,0,145.387,71.2Zm7.649.8V67.153a1.955,1.955,0,0,0-.417-1.367,1.7,1.7,0,0,0-1.306-.451,2.139,2.139,0,0,0-1.726.643,3.255,3.255,0,0,0-.543,2.105V72h-1.135V61.363h1.135v3.22a7.016,7.016,0,0,1-.055.964h.068a2.314,2.314,0,0,1,.954-.851,3.1,3.1,0,0,1,1.412-.311,2.891,2.891,0,0,1,2.061.653,2.749,2.749,0,0,1,.687,2.075V72Zm6.631.137a3.442,3.442,0,0,1-2.622-1.012,3.917,3.917,0,0,1-.96-2.81,4.344,4.344,0,0,1,.892-2.878,2.963,2.963,0,0,1,2.4-1.066,2.825,2.825,0,0,1,2.229.926,3.55,3.55,0,0,1,.82,2.444v.718h-5.161a2.97,2.97,0,0,0,.667,2,2.305,2.305,0,0,0,1.781.684,6.034,6.034,0,0,0,2.393-.506v1.012a6.005,6.005,0,0,1-1.138.373A6.4,6.4,0,0,1,159.667,72.137Zm-.308-6.815a1.853,1.853,0,0,0-1.439.588,2.71,2.71,0,0,0-.632,1.627h3.917a2.5,2.5,0,0,0-.479-1.644A1.684,1.684,0,0,0,159.359,65.321ZM174.111,72l-1.374-4.4q-.13-.4-.485-1.832H172.2q-.273,1.2-.479,1.846L170.3,72h-1.312l-2.044-7.492h1.189l1.1,4.3a17.42,17.42,0,0,1,.434,1.989h.055q.075-.39.243-1.008t.291-.981l1.374-4.3h1.23l1.34,4.3a14.513,14.513,0,0,1,.52,1.976h.055a7.246,7.246,0,0,1,.147-.759q.12-.513,1.425-5.517h1.176L175.458,72Zm11.238-3.753a4.133,4.133,0,0,1-.923,2.861,3.25,3.25,0,0,1-2.55,1.029,3.377,3.377,0,0,1-1.784-.472,3.113,3.113,0,0,1-1.2-1.354,4.717,4.717,0,0,1-.424-2.064,4.127,4.127,0,0,1,.916-2.854,3.24,3.24,0,0,1,2.543-1.022,3.169,3.169,0,0,1,2.5,1.046A4.115,4.115,0,0,1,185.35,68.247Zm-5.708,0a3.556,3.556,0,0,0,.574,2.188,2.279,2.279,0,0,0,3.38,0,3.538,3.538,0,0,0,.578-2.191,3.481,3.481,0,0,0-.578-2.17,2.03,2.03,0,0,0-1.706-.742,2,2,0,0,0-1.682.731A3.52,3.52,0,0,0,179.642,68.247Zm11.115-3.876a4.44,4.44,0,0,1,.9.082l-.157,1.053a3.865,3.865,0,0,0-.82-.1,2,2,0,0,0-1.555.738,2.692,2.692,0,0,0-.646,1.839V72h-1.135V64.508h.937l.13,1.388h.055a3.294,3.294,0,0,1,1-1.128A2.262,2.262,0,0,1,190.757,64.371ZM194.188,72h-1.135V61.363h1.135Zm7.506-1h-.062a2.666,2.666,0,0,1-2.352,1.142,2.782,2.782,0,0,1-2.287-1,4.423,4.423,0,0,1-.817-2.857A4.5,4.5,0,0,1,197,65.4a2.76,2.76,0,0,1,2.283-1.025,2.724,2.724,0,0,1,2.338,1.107h.089l-.048-.54-.027-.526V61.363h1.135V72h-.923Zm-2.27.191a2.066,2.066,0,0,0,1.685-.632,3.2,3.2,0,0,0,.523-2.041v-.239A3.76,3.76,0,0,0,201.1,66a2.012,2.012,0,0,0-1.692-.68,1.737,1.737,0,0,0-1.528.776,3.858,3.858,0,0,0-.53,2.191,3.7,3.7,0,0,0,.526,2.167A1.783,1.783,0,0,0,199.425,71.187Zm6.727-9.181-.273,3.609h-.718l-.28-3.609Zm6.952,7.95a1.877,1.877,0,0,1-.779,1.613,3.663,3.663,0,0,1-2.187.567,4.757,4.757,0,0,1-2.324-.472V70.612a5.621,5.621,0,0,0,1.159.431,4.838,4.838,0,0,0,1.193.157,2.705,2.705,0,0,0,1.367-.284.977.977,0,0,0,.1-1.613,5.968,5.968,0,0,0-1.48-.735,8.025,8.025,0,0,1-1.487-.68,2.031,2.031,0,0,1-.656-.66,1.72,1.72,0,0,1-.215-.882,1.681,1.681,0,0,1,.745-1.446,3.472,3.472,0,0,1,2.044-.53,5.98,5.98,0,0,1,2.365.492l-.4.923a5.429,5.429,0,0,0-2.044-.465,2.352,2.352,0,0,0-1.217.253.782.782,0,0,0-.41.7.849.849,0,0,0,.154.513,1.518,1.518,0,0,0,.5.4,11.076,11.076,0,0,0,1.313.554,4.9,4.9,0,0,1,1.8.978A1.724,1.724,0,0,1,213.1,69.956Zm1.682,1.319a1.018,1.018,0,0,1,.208-.694.756.756,0,0,1,.6-.236.809.809,0,0,1,.619.236.976.976,0,0,1,.222.694.959.959,0,0,1-.226.684.9.9,0,0,1-1.193.024A.936.936,0,0,1,214.785,71.275Zm3.726,0a1.018,1.018,0,0,1,.208-.694.756.756,0,0,1,.6-.236.809.809,0,0,1,.619.236.976.976,0,0,1,.222.694.959.959,0,0,1-.226.684.9.9,0,0,1-1.193.024A.936.936,0,0,1,218.511,71.275Zm3.726,0a1.018,1.018,0,0,1,.208-.694.756.756,0,0,1,.6-.236.809.809,0,0,1,.619.236.976.976,0,0,1,.222.694.959.959,0,0,1-.226.684.9.9,0,0,1-1.193.024A.936.936,0,0,1,222.236,71.275Z" transform="translate(21.428 49.23)" fill="#7c848e"/></g><g transform="translate(309 178)"><rect width="288.488" height="40" transform="translate(0)" fill="#e6e6e6" opacity="0.23"/><g transform="translate(20.632 10)"><path d="M28.3,6.285a3.677,3.677,0,0,0-2.034-1.112,8.29,8.29,0,0,0,1.143-.587,2.536,2.536,0,0,0,.723-.8,1.985,1.985,0,0,0,.244-.975,2.665,2.665,0,0,0-.16-.929,2.332,2.332,0,0,0-.5-.792A2.875,2.875,0,0,0,26.946.51a4.928,4.928,0,0,0-.731-.3A5.762,5.762,0,0,0,24.76.008H24.2q-.152,0-.309,0l-.164,0-.107,0-.107,0-.343.008-2.895.1L18.292.16l.03.632q.64.084.868.1a1.164,1.164,0,0,1,.526.114q.084.061.091.091a2.725,2.725,0,0,1,.084.83q.03,1.128.069,3.078l.015,3.786a11.82,11.82,0,0,1-.069,1.478,1.071,1.071,0,0,1-.16.389,4.23,4.23,0,0,1-.937.236q-.175.023-.518.092l-.015.716q1.821-.061,2.072-.084,1.63-.1,2.27-.084l1.5.03a7.162,7.162,0,0,0,1.508-.084,6.109,6.109,0,0,0,1.546-.457,3.591,3.591,0,0,0,1.066-.823,2.529,2.529,0,0,0,.541-.891A3.8,3.8,0,0,0,29,8.083,2.676,2.676,0,0,0,28.3,6.285ZM22.337.884a6.226,6.226,0,0,1,.99-.1,2.845,2.845,0,0,1,1.943.571,1.823,1.823,0,0,1,.647,1.424,1.975,1.975,0,0,1-.678,1.706,3.4,3.4,0,0,1-2.011.5,5.324,5.324,0,0,1-.83-.053q-.008-.259-.008-.587L22.4,3.6q.008-1.2-.046-2.125Q22.337,1.219,22.337.884Zm3.809,8.8a1.954,1.954,0,0,1-.929.861,3.788,3.788,0,0,1-1.646.312,2.769,2.769,0,0,1-1.067-.244.982.982,0,0,1-.092-.335L22.391,8.22,22.4,6.9V5.8a2.57,2.57,0,0,1,.769-.076,5.4,5.4,0,0,1,1.882.244,2.219,2.219,0,0,1,1.074.96A2.587,2.587,0,0,1,26.436,8.3,2.881,2.881,0,0,1,26.147,9.682Z" transform="translate(-18.277 3.421)" fill="#434b5d"/><path d="M80.912.02q-.277.02-.538.036Q79.2.127,78.679.127q-.269,0-.578-.016L75.591,0l-.15.816a2.922,2.922,0,0,0,.3.032,3,3,0,0,1,1.14.222v.3l-.063.4-.174,1.069-.127.5-.23,1.243a.807.807,0,0,1-.028.091q-.028.083-.071.241t-.1.368q-.056.21-.127.531t-.135.669l-.1.507L75.29,9.105l-.214,1.1a1.827,1.827,0,0,1-.325.8,4.7,4.7,0,0,1-.918.309l-.61.158-.135.673q.19-.016.776-.071,1.053-.095,1.378-.087L76.81,12q1,.1,1.148.135a1.6,1.6,0,0,0,.222.024q.143,0,.333-.016a1.25,1.25,0,0,1,.182-.008q.016-.079.071-.325a2.754,2.754,0,0,0,.055-.459q-.238-.039-.523-.079a7.949,7.949,0,0,1-.942-.166.612.612,0,0,1-.008-.214l.1-.356.34-1.861.3-1.251.483-2.462q.174-.847.523-2.423.032-.3.1-.649a4.742,4.742,0,0,1,.19-.7,6.274,6.274,0,0,1,.8-.245A7.841,7.841,0,0,0,81.046.7q.048-.174.1-.4A2.894,2.894,0,0,0,81.2,0Z" transform="translate(-41.93 3.194)" fill="#434b5d"/><g transform="translate(150.403 3)"><path d="M12.175,2.988a.619.619,0,0,1-.041.222c-.021.04-.084.069-.187.087a.343.343,0,0,1-.445-.254,3.228,3.228,0,0,0-.926-1.607A4.538,4.538,0,0,0,7.97.884q-.753,0-.826.163a.366.366,0,0,0-.027.154v9.05a1.025,1.025,0,0,0,.272.814,2.521,2.521,0,0,0,1.048.476c.23.049.462.1.493.114.219,0,.24.5-.179.5-.012.008-4.942,0-4.942,0a.283.283,0,0,1-.035-.487l.365-.163a4.565,4.565,0,0,0,1.053-.481A1.431,1.431,0,0,0,5.5,10V1.2q0-.264-.327-.308c-.023-.007-.2-.01-.534-.01a4.32,4.32,0,0,0-2.543.6A3.661,3.661,0,0,0,1,3.118c-.1.248-.246.328-.427.244C.366,3.314.291,3.2.345,3.026A9.4,9.4,0,0,0,.663.257c0-.139.184-.279.554-.254L11.395.03c.338-.05.522.006.553.163A12.663,12.663,0,0,1,12.175,2.988Z" transform="translate(-0.328 0)" fill="#434b5d" stroke="#434b5d" stroke-width="0.75"/><path d="M4.473-.5A1.465,1.465,0,0,0,4.7-.224a.369.369,0,0,0,.224.077V0q-.728-.028-.959-.028t-.98.021A1.235,1.235,0,0,1,2.835,0V-.147a1.784,1.784,0,0,0,.357-.024Q3.3-.2,3.3-.266a.222.222,0,0,0-.049-.119L2.072-2.114l-.56.763a1.332,1.332,0,0,0-.322.735.406.406,0,0,0,.158.34.761.761,0,0,0,.438.137V0Q1.386-.021.679-.021.259-.021.035,0V-.14A2.279,2.279,0,0,0,1.05-.994l.931-1.253L.469-4.466a1.3,1.3,0,0,0-.224-.277.383.383,0,0,0-.224-.073v-.147a1.161,1.161,0,0,1,.14.007q.672.021.861.021.609,0,1.071-.028v.147a1.32,1.32,0,0,0-.343.031q-.1.031-.1.1A.24.24,0,0,0,1.7-4.55L2.744-3.024l.518-.7a1.307,1.307,0,0,0,.329-.707A.32.32,0,0,0,3.458-4.7a.7.7,0,0,0-.378-.112v-.14q.4.021.882.021.42,0,.644-.021v.14a1.2,1.2,0,0,0-.452.259,2.77,2.77,0,0,0-.431.476l-.889,1.19Z" transform="translate(9.965 15)" fill="#434b5d"/></g><g transform="translate(59.805 2.776)"><path d="M.418.825q1.059.026,1.275.338a5.726,5.726,0,0,1,.148,1.848V5.9A11.306,11.306,0,0,0,1.98,7.956,3.742,3.742,0,0,0,2.7,9.648a3.65,3.65,0,0,0,1.553,1.059,6.748,6.748,0,0,0,2.464.4A7.666,7.666,0,0,0,8.93,10.82a4.907,4.907,0,0,0,1.579-.772,3.845,3.845,0,0,0,.972-1.067,3.586,3.586,0,0,0,.356-1.058,12.663,12.663,0,0,0,.13-2.638q-.121-3.271-.191-3.436,0-.1-.013-.269t-.013-.234a.481.481,0,0,1,.13-.356,2.572,2.572,0,0,1,.685-.148,3.159,3.159,0,0,0,.729-.113A2.143,2.143,0,0,0,13.329.46a3.512,3.512,0,0,0-.052-.442L13.121,0a12.023,12.023,0,0,1-1.7.087L9.642,0H8.913L8.9.746l.122.026L9.885.755a.879.879,0,0,1,.668.3,1.369,1.369,0,0,1,.208.763l.035.512q.052.746.117,1.384t.1,1.063q.03.425.03,1.111a7.835,7.835,0,0,1-.182,1.987,3.812,3.812,0,0,1-.46.989,2.222,2.222,0,0,1-.564.555,2.808,2.808,0,0,1-.859.442,5.384,5.384,0,0,1-1.657.243,3.229,3.229,0,0,1-1.536-.408,2.124,2.124,0,0,1-.833-.8,3.865,3.865,0,0,1-.443-1.753L4.384,4.711,4.375,2.725q0-.052,0-.221t0-.282a2.845,2.845,0,0,1,.113-1.145A.835.835,0,0,1,5.164.859,7.245,7.245,0,0,0,6.24.781V.7L6.223.148,6.232.026q-.26.017-.746.017L4.219.087Q3.507.113,2.761.113q-.3,0-1.44-.061Q.87.018.349.018.115.018,0,.026L.028.79A3.126,3.126,0,0,0,.418.825Z" transform="translate(-0.002)" fill="#434b5d"/><path d="M13.054,402H.283a.267.267,0,0,0-.278.278v.555a.267.267,0,0,0,.278.278H13.054a.267.267,0,0,0,.278-.278v-.555a.267.267,0,0,0-.278-.278Z" transform="translate(-0.005 -389.784)" fill="#434b5d"/></g><line y2="14" transform="translate(93.868 2.5)" fill="none" stroke="#434b5d" stroke-width="1.5"/><g transform="translate(114.368 3)"><circle cx="1.72" cy="1.72" r="1.72" fill="#434b5d"/><circle cx="1.72" cy="1.72" r="1.72" transform="translate(0 4.731)" fill="#434b5d"/><circle cx="1.72" cy="1.72" r="1.72" transform="translate(0 9.606)" fill="#434b5d"/><path d="M32.573,12.41h9.342a.316.316,0,0,0,.315-.315v-1.62a.316.316,0,0,0-.315-.315H32.573a.316.316,0,0,0-.315.315v1.62A.315.315,0,0,0,32.573,12.41Z" transform="translate(-27.171 -9.564)" fill="#434b5d"/><path d="M41.915,40.158H32.573a.316.316,0,0,0-.315.315v1.62a.316.316,0,0,0,.315.315h9.342a.316.316,0,0,0,.315-.315v-1.62A.315.315,0,0,0,41.915,40.158Z" transform="translate(-27.171 -34.832)" fill="#434b5d"/><path d="M41.915,71.064H32.573a.316.316,0,0,0-.315.315V73a.316.316,0,0,0,.315.315h9.342A.316.316,0,0,0,42.231,73v-1.62A.315.315,0,0,0,41.915,71.064Z" transform="translate(-27.171 -60.864)" fill="#434b5d"/></g><g transform="translate(185.368)"><path d="M32.573,12.41h9.342a.316.316,0,0,0,.315-.315v-1.62a.316.316,0,0,0-.315-.315H32.573a.316.316,0,0,0-.315.315v1.62A.315.315,0,0,0,32.573,12.41Z" transform="translate(-27.171 -6.564)" fill="#434b5d"/><path d="M41.915,40.158H32.573a.316.316,0,0,0-.315.315v1.62a.316.316,0,0,0,.315.315h9.342a.316.316,0,0,0,.315-.315v-1.62A.315.315,0,0,0,41.915,40.158Z" transform="translate(-27.171 -31.832)" fill="#434b5d"/><path d="M41.915,71.064H32.573a.316.316,0,0,0-.315.315V73a.316.316,0,0,0,.315.315h9.342A.316.316,0,0,0,42.231,73v-1.62A.315.315,0,0,0,41.915,71.064Z" transform="translate(-27.171 -57.864)" fill="#434b5d"/><path d="M2.479,0H1.573V-2.479l.009-.407L1.6-3.331q-.226.226-.313.3l-.492.4L.354-3.185l1.38-1.1h.744Z" transform="translate(0 6)" fill="#434b5d"/><path d="M3.234,0H.24V-.63L1.315-1.717q.478-.489.624-.678a1.492,1.492,0,0,0,.211-.35.891.891,0,0,0,.064-.334.487.487,0,0,0-.142-.384.551.551,0,0,0-.379-.126,1.091,1.091,0,0,0-.483.114,2.5,2.5,0,0,0-.489.325L.229-3.732a3.211,3.211,0,0,1,.524-.381,1.925,1.925,0,0,1,.454-.171,2.327,2.327,0,0,1,.551-.06,1.631,1.631,0,0,1,.709.146,1.131,1.131,0,0,1,.478.41,1.09,1.09,0,0,1,.17.6,1.477,1.477,0,0,1-.1.555,2.132,2.132,0,0,1-.322.532,7.879,7.879,0,0,1-.769.776L1.368-.8v.041H3.234Z" transform="translate(0 11.5)" fill="#434b5d"/><path d="M3.067-3.325a1.008,1.008,0,0,1-.243.683,1.26,1.26,0,0,1-.683.387v.018a1.364,1.364,0,0,1,.785.315.882.882,0,0,1,.267.675,1.144,1.144,0,0,1-.448.962,2.066,2.066,0,0,1-1.28.344A3.109,3.109,0,0,1,.229-.173V-.943a2.794,2.794,0,0,0,.548.205,2.305,2.305,0,0,0,.592.079A1.151,1.151,0,0,0,2.03-.812.559.559,0,0,0,2.244-1.3.442.442,0,0,0,2-1.729a1.821,1.821,0,0,0-.785-.126H.888v-.694h.331a1.54,1.54,0,0,0,.728-.13.471.471,0,0,0,.23-.447q0-.486-.609-.486a1.4,1.4,0,0,0-.429.07A2.1,2.1,0,0,0,.653-3.3L.234-3.923a2.328,2.328,0,0,1,1.4-.422,1.8,1.8,0,0,1,1.05.27A.864.864,0,0,1,3.067-3.325Z" transform="translate(0 17)" fill="#434b5d"/></g></g></g></g></svg>