<svg xmlns="http://www.w3.org/2000/svg" width="247.207" height="145.945" viewBox="0 0 247.207 145.945"><g transform="translate(-16.756 -52.54)"><rect width="247.207" height="145.945" rx="5" transform="translate(16.756 52.54)" fill="#fff"/><g transform="translate(34.623 66.807)"><text transform="translate(0.133 11.104)" fill="#212e3a" font-size="12" font-family="OpenSans-Semibold, Open Sans" font-weight="600"><tspan x="0" y="0">Can you</tspan></text><text transform="translate(89.133 38.104)" fill="#212e3a" font-size="12" font-family="OpenSans-Semibold, Open Sans" font-weight="600"><tspan x="0" y="0">the right options into</tspan></text><text transform="translate(0.133 65.104)" fill="#212e3a" font-size="12" font-family="OpenSans-Semibold, Open Sans" font-weight="600"><tspan x="0" y="0">the right boxes?</tspan></text><text transform="translate(147.133 11.104)" fill="#212e3a" font-size="12" font-family="OpenSans-Semibold, Open Sans" font-weight="600"><tspan x="0" y="0">and</tspan></text><g transform="translate(0.133 -4.208)"><g fill="#f8f8f8" stroke="#858585" stroke-width="1"><rect width="212" height="120" rx="2" stroke="none"/><rect x="0.5" y="0.5" width="211" height="119" rx="1.5" fill="none"/></g></g></g><rect width="209.971" height="29" transform="translate(35.756 63.6)" fill="#e6e6e6" opacity="0.81"/><text transform="translate(50.756 99.911)" fill="#212e3a" font-size="12" font-family="OpenSans-Semibold, Open Sans" font-weight="600"><tspan x="0" y="13">The United States of America, </tspan><tspan x="0" y="31">is a federal republic composed </tspan><tspan x="0" y="49">of 50 states, a federal district, </tspan><tspan x="0" y="67">five major territories...</tspan></text><text transform="translate(51.756 82.911)" fill="#434b5d" font-size="12" font-family="OpenSans-Semibold, Open Sans" font-weight="600"><tspan x="0" y="0">Copy</tspan></text><text transform="translate(104.756 82.911)" fill="#434b5d" font-size="12" font-family="OpenSans-Semibold, Open Sans" font-weight="600"><tspan x="0" y="0">Cut</tspan></text><text transform="translate(148.756 82.911)" fill="#434b5d" font-size="12" font-family="OpenSans-Semibold, Open Sans" font-weight="600"><tspan x="0" y="0">Paste</tspan></text></g></svg>