<svg xmlns="http://www.w3.org/2000/svg" width="247.207" height="145.945" viewBox="0 0 247.207 145.945"><g transform="translate(-17.078 -52.54)"><rect width="247.207" height="145.945" rx="5" transform="translate(17.078 52.54)" fill="#fff"/><g transform="translate(34.623 66.807)"><text transform="translate(0.133 11.104)" fill="#212e3a" font-size="12" font-family="OpenSans-Semibold, Open Sans" font-weight="600"><tspan x="0" y="0">Can you</tspan></text><text transform="translate(89.133 38.104)" fill="#212e3a" font-size="12" font-family="OpenSans-Semibold, Open Sans" font-weight="600"><tspan x="0" y="0">the right options into</tspan></text><text transform="translate(0.133 65.104)" fill="#212e3a" font-size="12" font-family="OpenSans-Semibold, Open Sans" font-weight="600"><tspan x="0" y="0">the right boxes?</tspan></text><text transform="translate(147.133 11.104)" fill="#212e3a" font-size="12" font-family="OpenSans-Semibold, Open Sans" font-weight="600"><tspan x="0" y="0">and</tspan></text><g transform="translate(0.133 -4.208)"><g fill="#f8f8f8" stroke="#858585" stroke-width="1"><rect width="212" height="120" rx="2" stroke="none"/><rect x="0.5" y="0.5" width="211" height="119" rx="1.5" fill="none"/></g></g></g><rect width="209.971" height="29" transform="translate(35.756 63.6)" fill="#e6e6e6" opacity="0.81"/><g transform="translate(51.632 70.779)"><path d="M26.477,5.141a3.008,3.008,0,0,0-1.664-.91,6.781,6.781,0,0,0,.935-.48A2.074,2.074,0,0,0,26.34,3.1a1.623,1.623,0,0,0,.2-.8,2.18,2.18,0,0,0-.131-.76A1.908,1.908,0,0,0,26,.891a2.352,2.352,0,0,0-.636-.474,4.031,4.031,0,0,0-.6-.243A4.713,4.713,0,0,0,23.58.006h-.461q-.125,0-.252,0l-.134,0-.087,0-.087,0-.28.006L19.909.093l-1.62.037.025.517q.523.069.71.081a.952.952,0,0,1,.43.093q.069.05.075.075a2.229,2.229,0,0,1,.069.679q.025.922.056,2.517l.012,3.1A9.668,9.668,0,0,1,19.61,8.4a.876.876,0,0,1-.131.318,3.46,3.46,0,0,1-.766.193q-.143.019-.424.075l-.012.586q1.489-.05,1.695-.069,1.333-.081,1.857-.069l1.227.025A5.858,5.858,0,0,0,24.29,9.39a5,5,0,0,0,1.265-.374,2.937,2.937,0,0,0,.872-.673,2.069,2.069,0,0,0,.442-.729,3.108,3.108,0,0,0,.181-1A2.189,2.189,0,0,0,26.477,5.141ZM21.6.723a5.092,5.092,0,0,1,.81-.081A2.327,2.327,0,0,1,24,1.109a1.491,1.491,0,0,1,.53,1.165,1.615,1.615,0,0,1-.554,1.4,2.777,2.777,0,0,1-1.645.405,4.354,4.354,0,0,1-.679-.044q-.006-.212-.006-.48l.006-.611q.006-.978-.037-1.738Q21.6,1,21.6.723Zm3.116,7.2a1.6,1.6,0,0,1-.76.7,3.1,3.1,0,0,1-1.346.255,2.265,2.265,0,0,1-.872-.2.8.8,0,0,1-.075-.274l-.019-1.682.006-1.078v-.9a2.1,2.1,0,0,1,.629-.062,4.417,4.417,0,0,1,1.539.2,1.815,1.815,0,0,1,.879.785,2.116,2.116,0,0,1,.255,1.122A2.357,2.357,0,0,1,24.714,7.92Z" transform="translate(-18.277 2.799)" fill="#434b5d"/><path d="M79.488.016l-.44.029Q78.089.1,77.661.1q-.22,0-.473-.013L75.136,0l-.123.667a2.39,2.39,0,0,0,.246.026,2.455,2.455,0,0,1,.933.181V1.12l-.052.324L76,2.318l-.1.408-.188,1.017a.66.66,0,0,1-.023.075q-.023.068-.058.2t-.081.3q-.045.172-.1.434t-.11.547l-.078.415-.363,1.736-.175.9A1.494,1.494,0,0,1,74.449,9a3.842,3.842,0,0,1-.751.253l-.5.129-.11.551.635-.058q.861-.078,1.127-.071l1.282.013q.816.084.939.11a1.307,1.307,0,0,0,.181.019q.117,0,.272-.013a1.022,1.022,0,0,1,.149-.006q.013-.065.058-.266a2.253,2.253,0,0,0,.045-.376q-.194-.032-.428-.065a6.5,6.5,0,0,1-.771-.136.5.5,0,0,1-.006-.175l.078-.291L76.929,7.1l.246-1.023.4-2.014q.142-.693.428-1.982.026-.246.084-.531a3.879,3.879,0,0,1,.155-.57,5.132,5.132,0,0,1,.654-.2,6.413,6.413,0,0,0,.706-.2q.039-.142.084-.33A2.365,2.365,0,0,0,79.721,0Z" transform="translate(-47.603 2.613)" fill="#434b5d"/><g transform="translate(123.023 2.454)"><path d="M10.018,2.444a.506.506,0,0,1-.034.182c-.018.033-.069.056-.153.071a.28.28,0,0,1-.364-.208A2.64,2.64,0,0,0,8.71,1.175,3.712,3.712,0,0,0,6.579.723q-.616,0-.676.134a.3.3,0,0,0-.022.126v7.4a.838.838,0,0,0,.222.666,2.062,2.062,0,0,0,.858.389c.188.04.378.078.4.093.179,0,.2.412-.147.412-.01.006-4.042,0-4.042,0a.232.232,0,0,1-.029-.4l.3-.134a3.734,3.734,0,0,0,.861-.393,1.171,1.171,0,0,0,.252-.839V.982q0-.216-.268-.252C4.272.724,4.126.722,3.854.722a3.534,3.534,0,0,0-2.08.491,2.994,2.994,0,0,0-.9,1.337c-.085.2-.2.268-.35.2C.359,2.711.3,2.618.342,2.475A7.685,7.685,0,0,0,.6.21C.6.1.753-.018,1.055,0L9.38.025c.276-.041.427,0,.452.134A10.358,10.358,0,0,1,10.018,2.444Z" transform="translate(-0.328 0)" fill="#434b5d" stroke="#434b5d" stroke-width="0.75"/><text transform="translate(8.101 11.367)" fill="#434b5d" font-size="6" font-family="PlayfairDisplay-Bold, Playfair Display" font-weight="700" letter-spacing="-0.05em"><tspan x="0" y="0">X</tspan></text></g><g transform="translate(48.918 2.271)"><path d="M.343.674Q1.209.7,1.386.951a4.683,4.683,0,0,1,.121,1.512V4.826A9.248,9.248,0,0,0,1.62,6.508a3.061,3.061,0,0,0,.589,1.384,2.986,2.986,0,0,0,1.27.866,5.519,5.519,0,0,0,2.016.326A6.27,6.27,0,0,0,7.3,8.85,4.014,4.014,0,0,0,8.6,8.218a3.145,3.145,0,0,0,.795-.873,2.933,2.933,0,0,0,.291-.866,10.358,10.358,0,0,0,.106-2.158q-.1-2.676-.156-2.81,0-.078-.011-.22T9.611,1.1A.393.393,0,0,1,9.718.809a2.1,2.1,0,0,1,.561-.121,2.584,2.584,0,0,0,.6-.092A1.753,1.753,0,0,0,10.9.376a2.872,2.872,0,0,0-.042-.362L10.733,0A9.834,9.834,0,0,1,9.342.071L7.887,0h-.6L7.276.61l.1.021.71-.014a.719.719,0,0,1,.546.241,1.12,1.12,0,0,1,.17.624l.028.419q.043.61.1,1.132T9,3.9q.025.348.025.908A6.408,6.408,0,0,1,8.88,6.437a3.118,3.118,0,0,1-.376.809,1.817,1.817,0,0,1-.462.454,2.3,2.3,0,0,1-.7.362,4.4,4.4,0,0,1-1.355.2,2.641,2.641,0,0,1-1.256-.334,1.738,1.738,0,0,1-.681-.653,3.162,3.162,0,0,1-.362-1.434l-.1-1.987L3.579,2.229q0-.042,0-.181t0-.231A2.327,2.327,0,0,1,3.664.88.683.683,0,0,1,4.225.7,5.926,5.926,0,0,0,5.1.639V.575L5.091.121,5.1.022q-.213.014-.61.014L3.451.071Q2.869.093,2.259.092q-.241,0-1.178-.05Q.712.015.286.015.094.015,0,.022L.023.646A2.557,2.557,0,0,0,.343.674Z" transform="translate(-0.002)" fill="#434b5d"/><path d="M10.679,402H.232a.219.219,0,0,0-.227.227v.454a.218.218,0,0,0,.227.227H10.679a.218.218,0,0,0,.227-.227v-.454a.218.218,0,0,0-.227-.227Z" transform="translate(-0.005 -392.008)" fill="#434b5d"/></g><line y2="11.451" transform="translate(76.78 2.045)" fill="none" stroke="#434b5d" stroke-width="1.5"/><g transform="translate(93.548 2.454)"><circle cx="1.407" cy="1.407" r="1.407" fill="#434b5d"/><circle cx="1.407" cy="1.407" r="1.407" transform="translate(0 3.87)" fill="#434b5d"/><circle cx="1.407" cy="1.407" r="1.407" transform="translate(0 7.857)" fill="#434b5d"/><path d="M32.516,12h7.642a.258.258,0,0,0,.258-.258V10.417a.258.258,0,0,0-.258-.258H32.516a.258.258,0,0,0-.258.258v1.325A.258.258,0,0,0,32.516,12Z" transform="translate(-28.097 -9.673)" fill="#434b5d"/><path d="M40.157,40.158H32.516a.258.258,0,0,0-.258.258v1.325a.258.258,0,0,0,.258.258h7.642a.258.258,0,0,0,.258-.258V40.416A.258.258,0,0,0,40.157,40.158Z" transform="translate(-28.097 -35.802)" fill="#434b5d"/><path d="M40.157,71.064H32.516a.258.258,0,0,0-.258.258v1.325a.258.258,0,0,0,.258.258h7.642a.258.258,0,0,0,.258-.258V71.322A.258.258,0,0,0,40.157,71.064Z" transform="translate(-28.097 -62.721)" fill="#434b5d"/></g><g transform="translate(151.623)"><path d="M32.516,12h7.642a.258.258,0,0,0,.258-.258V10.417a.258.258,0,0,0-.258-.258H32.516a.258.258,0,0,0-.258.258v1.325A.258.258,0,0,0,32.516,12Z" transform="translate(-28.097 -7.219)" fill="#434b5d"/><path d="M40.157,40.158H32.516a.258.258,0,0,0-.258.258v1.325a.258.258,0,0,0,.258.258h7.642a.258.258,0,0,0,.258-.258V40.416A.258.258,0,0,0,40.157,40.158Z" transform="translate(-28.097 -33.348)" fill="#434b5d"/><path d="M40.157,71.064H32.516a.258.258,0,0,0-.258.258v1.325a.258.258,0,0,0,.258.258h7.642a.258.258,0,0,0,.258-.258V71.322A.258.258,0,0,0,40.157,71.064Z" transform="translate(-28.097 -60.267)" fill="#434b5d"/><text transform="translate(-0.499 3.821)" fill="#434b5d" font-size="4" font-family="OpenSans-Bold, Open Sans" font-weight="700" letter-spacing="-0.05em"><tspan x="0" y="0">1</tspan></text><text transform="translate(0 8.499)" fill="#434b5d" font-size="4" font-family="OpenSans-Bold, Open Sans" font-weight="700" letter-spacing="-0.05em"><tspan x="0" y="0">2</tspan></text><text transform="translate(-0.499 12.821)" fill="#434b5d" font-size="4" font-family="OpenSans-Bold, Open Sans" font-weight="700" letter-spacing="-0.05em"><tspan x="0" y="0">3</tspan></text></g></g><text transform="translate(50.756 99.911)" fill="#212e3a" font-size="12" font-family="OpenSans-Bold, Open Sans" font-weight="700"><tspan x="0" y="13">William Shakespeare</tspan><tspan y="13" xml:space="preserve" font-family="OpenSans-Semibold, Open Sans" font-weight="600"> was an </tspan><tspan x="0" y="31" font-family="OpenSans-Semibold, Open Sans" font-weight="600">English poet, playwright, and </tspan><tspan x="0" y="49" font-family="OpenSans-Semibold, Open Sans" font-weight="600">actor, widely regarded as the </tspan><tspan x="0" y="67" font-family="OpenSans-Semibold, Open Sans" font-weight="600">greatest writer in the...</tspan></text></g></svg>