<svg xmlns="http://www.w3.org/2000/svg" width="289.09" height="138.971" viewBox="0 0 289.09 138.971"><g transform="translate(16048 -66)"><g transform="translate(-16048 66)" fill="#fff" stroke="#dbdbdb" stroke-width="1"><rect width="289.09" height="138.97" rx="5" stroke="none"/><rect x="0.5" y="0.5" width="288.09" height="137.97" rx="4.5" fill="none"/></g><g transform="translate(-16023 90)"><path d="M16.015,13H14.608V9.139H10.659V13h-1.4V4.434h1.4v3.5h3.949v-3.5h1.406Zm7.857-3.252a3.537,3.537,0,0,1-.814,2.479,2.918,2.918,0,0,1-2.268.891,3.107,3.107,0,0,1-1.605-.41,2.708,2.708,0,0,1-1.072-1.178,4.011,4.011,0,0,1-.375-1.781,3.513,3.513,0,0,1,.809-2.461A2.932,2.932,0,0,1,20.825,6.4a2.855,2.855,0,0,1,2.227.905A3.5,3.5,0,0,1,23.872,9.748Zm-4.717,0q0,2.244,1.658,2.244,1.641,0,1.641-2.244,0-2.221-1.652-2.221a1.409,1.409,0,0,0-1.257.574A2.922,2.922,0,0,0,19.155,9.748ZM30.768,13l-.838-3.023q-.152-.48-.551-2.232h-.053q-.34,1.582-.539,2.244L27.927,13H26.4L24.587,6.52h1.406l.826,3.193q.281,1.184.4,2.027h.035q.059-.428.179-.981t.208-.829l.984-3.41h1.512l.955,3.41q.088.287.22.879a6.762,6.762,0,0,1,.155.92h.047a17.981,17.981,0,0,1,.41-2.016l.838-3.193h1.383L32.315,13Zm13.066,0H42.452V9a1.812,1.812,0,0,0-.281-1.11,1.038,1.038,0,0,0-.879-.366,1.341,1.341,0,0,0-1.169.519,3.042,3.042,0,0,0-.372,1.726V13H38.374V6.52h1.078l.193.85h.07a1.8,1.8,0,0,1,.782-.715A2.522,2.522,0,0,1,41.626,6.4a1.971,1.971,0,0,1,1.98,1.02H43.7a1.976,1.976,0,0,1,.809-.75,2.566,2.566,0,0,1,1.2-.27,2.177,2.177,0,0,1,1.69.586,2.6,2.6,0,0,1,.53,1.787V13H46.548V9a1.8,1.8,0,0,0-.284-1.11,1.046,1.046,0,0,0-.882-.366,1.367,1.367,0,0,0-1.175.5,2.582,2.582,0,0,0-.372,1.538ZM53.9,13l-.275-.9h-.047a2.655,2.655,0,0,1-.943.806,2.983,2.983,0,0,1-1.219.214,2.063,2.063,0,0,1-1.491-.516,1.929,1.929,0,0,1-.536-1.459,1.713,1.713,0,0,1,.744-1.512A4.291,4.291,0,0,1,52.4,9.074l1.119-.035V8.693a1.31,1.31,0,0,0-.29-.929,1.183,1.183,0,0,0-.9-.308,3.11,3.11,0,0,0-.955.146,7.207,7.207,0,0,0-.879.346l-.445-.984a4.793,4.793,0,0,1,1.154-.419A5.312,5.312,0,0,1,52.39,6.4a2.8,2.8,0,0,1,1.866.539,2.111,2.111,0,0,1,.63,1.693V13Zm-2.051-.937a1.706,1.706,0,0,0,1.2-.419,1.519,1.519,0,0,0,.454-1.175V9.906l-.832.035a2.847,2.847,0,0,0-1.415.325.988.988,0,0,0-.442.888.866.866,0,0,0,.258.671A1.108,1.108,0,0,0,51.85,12.063ZM62.509,13H61.126V9.016a1.744,1.744,0,0,0-.3-1.119,1.166,1.166,0,0,0-.958-.369,1.523,1.523,0,0,0-1.277.516,2.847,2.847,0,0,0-.4,1.729V13H56.807V6.52h1.078l.193.85h.07a1.917,1.917,0,0,1,.832-.715,2.788,2.788,0,0,1,1.2-.252,2.08,2.08,0,0,1,2.332,2.373Zm.932-6.48h1.5l1.318,3.674a6.971,6.971,0,0,1,.4,1.477H66.7a6.159,6.159,0,0,1,.193-.782q.141-.46,1.488-4.368h1.488L67.1,13.861a2.629,2.629,0,0,1-2.52,2.021,3.965,3.965,0,0,1-.891-.1v-1.09a3.227,3.227,0,0,0,.709.07,1.452,1.452,0,0,0,1.4-1.154l.24-.609Zm14.889,4.635a1.7,1.7,0,0,1-.691,1.456,3.311,3.311,0,0,1-1.98.507,4.678,4.678,0,0,1-2.08-.393V11.535a5.107,5.107,0,0,0,2.127.527q1.271,0,1.271-.768a.608.608,0,0,0-.141-.41,1.664,1.664,0,0,0-.463-.34,7.966,7.966,0,0,0-.9-.4,4.147,4.147,0,0,1-1.515-.867,1.6,1.6,0,0,1-.4-1.125,1.478,1.478,0,0,1,.671-1.292,3.184,3.184,0,0,1,1.825-.46,5.169,5.169,0,0,1,2.162.463L77.778,7.9a4.809,4.809,0,0,0-1.764-.434q-1.09,0-1.09.621a.625.625,0,0,0,.284.516,6.249,6.249,0,0,0,1.239.58,5.665,5.665,0,0,1,1.166.568,1.7,1.7,0,0,1,.539.595A1.721,1.721,0,0,1,78.329,11.154Zm3.9.85a3.349,3.349,0,0,0,1.008-.158v1.037a2.78,2.78,0,0,1-.589.167,4.057,4.057,0,0,1-.747.067q-1.957,0-1.957-2.062V7.563h-.885V6.953l.949-.5.469-1.371h.85V6.52h1.846V7.563H81.329v3.469a.973.973,0,0,0,.249.735A.908.908,0,0,0,82.231,12Zm6.357,1-.275-.9h-.047a2.655,2.655,0,0,1-.943.806,2.983,2.983,0,0,1-1.219.214,2.063,2.063,0,0,1-1.491-.516,1.929,1.929,0,0,1-.536-1.459,1.713,1.713,0,0,1,.744-1.512,4.291,4.291,0,0,1,2.268-.557l1.119-.035V8.693a1.31,1.31,0,0,0-.29-.929,1.183,1.183,0,0,0-.9-.308,3.11,3.11,0,0,0-.955.146,7.207,7.207,0,0,0-.879.346l-.445-.984a4.793,4.793,0,0,1,1.154-.419A5.312,5.312,0,0,1,87.077,6.4a2.8,2.8,0,0,1,1.866.539,2.111,2.111,0,0,1,.63,1.693V13Zm-2.051-.937a1.706,1.706,0,0,0,1.2-.419,1.519,1.519,0,0,0,.454-1.175V9.906l-.832.035a2.847,2.847,0,0,0-1.415.325.988.988,0,0,0-.442.888.866.866,0,0,0,.258.671A1.108,1.108,0,0,0,86.538,12.063ZM93.909,12a3.349,3.349,0,0,0,1.008-.158v1.037a2.78,2.78,0,0,1-.589.167,4.057,4.057,0,0,1-.747.067q-1.957,0-1.957-2.062V7.563h-.885V6.953l.949-.5.469-1.371h.85V6.52h1.846V7.563H93.007v3.469a.973.973,0,0,0,.249.735A.908.908,0,0,0,93.909,12Zm5.133,1.113a3.135,3.135,0,0,1-2.364-.882,3.348,3.348,0,0,1-.853-2.429,3.673,3.673,0,0,1,.791-2.5A2.732,2.732,0,0,1,98.79,6.4a2.67,2.67,0,0,1,2.027.779,2.978,2.978,0,0,1,.744,2.145v.744H97.243a2.129,2.129,0,0,0,.51,1.45,1.776,1.776,0,0,0,1.354.507,5,5,0,0,0,1.069-.108,5.605,5.605,0,0,0,1.063-.36v1.119a4.228,4.228,0,0,1-1.02.34A6.252,6.252,0,0,1,99.042,13.117ZM98.79,7.445a1.383,1.383,0,0,0-1.052.416,1.983,1.983,0,0,0-.472,1.213h2.941a1.794,1.794,0,0,0-.387-1.216A1.323,1.323,0,0,0,98.79,7.445Zm8.689,3.709a1.7,1.7,0,0,1-.691,1.456,3.311,3.311,0,0,1-1.98.507,4.678,4.678,0,0,1-2.08-.393V11.535a5.107,5.107,0,0,0,2.127.527q1.271,0,1.271-.768a.608.608,0,0,0-.141-.41,1.664,1.664,0,0,0-.463-.34,7.966,7.966,0,0,0-.9-.4,4.147,4.147,0,0,1-1.515-.867,1.6,1.6,0,0,1-.4-1.125,1.478,1.478,0,0,1,.671-1.292,3.184,3.184,0,0,1,1.825-.46,5.169,5.169,0,0,1,2.162.463L106.929,7.9a4.809,4.809,0,0,0-1.764-.434q-1.09,0-1.09.621a.625.625,0,0,0,.284.516,6.249,6.249,0,0,0,1.239.58,5.665,5.665,0,0,1,1.166.568,1.7,1.7,0,0,1,.539.595A1.721,1.721,0,0,1,107.479,11.154ZM116.14,13l-.275-.9h-.047a2.655,2.655,0,0,1-.943.806,2.983,2.983,0,0,1-1.219.214,2.063,2.063,0,0,1-1.491-.516,1.929,1.929,0,0,1-.536-1.459,1.713,1.713,0,0,1,.744-1.512,4.291,4.291,0,0,1,2.268-.557l1.119-.035V8.693a1.31,1.31,0,0,0-.29-.929,1.183,1.183,0,0,0-.9-.308,3.11,3.11,0,0,0-.955.146,7.207,7.207,0,0,0-.879.346l-.445-.984a4.793,4.793,0,0,1,1.154-.419,5.312,5.312,0,0,1,1.184-.144,2.8,2.8,0,0,1,1.866.539,2.111,2.111,0,0,1,.63,1.693V13Zm-2.051-.937a1.706,1.706,0,0,0,1.2-.419,1.519,1.519,0,0,0,.454-1.175V9.906l-.832.035a2.847,2.847,0,0,0-1.415.325.988.988,0,0,0-.442.888.866.866,0,0,0,.258.671A1.108,1.108,0,0,0,114.089,12.063Zm8.244-5.66a3.315,3.315,0,0,1,.686.059l-.135,1.283a2.6,2.6,0,0,0-.609-.07,1.763,1.763,0,0,0-1.339.539,1.949,1.949,0,0,0-.513,1.4V13h-1.377V6.52h1.078l.182,1.143h.07a2.568,2.568,0,0,1,.841-.92A2,2,0,0,1,122.333,6.4Zm4.717,6.715a3.135,3.135,0,0,1-2.364-.882,3.348,3.348,0,0,1-.853-2.429,3.673,3.673,0,0,1,.791-2.5A2.732,2.732,0,0,1,126.8,6.4a2.67,2.67,0,0,1,2.027.779,2.978,2.978,0,0,1,.744,2.145v.744h-4.318a2.129,2.129,0,0,0,.51,1.45,1.776,1.776,0,0,0,1.354.507,5,5,0,0,0,1.069-.108,5.605,5.605,0,0,0,1.063-.36v1.119a4.228,4.228,0,0,1-1.02.34A6.252,6.252,0,0,1,127.05,13.117ZM126.8,7.445a1.383,1.383,0,0,0-1.052.416,1.983,1.983,0,0,0-.472,1.213h2.941a1.794,1.794,0,0,0-.387-1.216A1.323,1.323,0,0,0,126.8,7.445ZM136.665,12a3.349,3.349,0,0,0,1.008-.158v1.037a2.78,2.78,0,0,1-.589.167,4.057,4.057,0,0,1-.747.067q-1.957,0-1.957-2.062V7.563h-.885V6.953l.949-.5.469-1.371h.85V6.52h1.846V7.563h-1.846v3.469a.973.973,0,0,0,.249.735A.908.908,0,0,0,136.665,12Zm8,1h-1.383V9.016a1.744,1.744,0,0,0-.3-1.119,1.166,1.166,0,0,0-.958-.369,1.521,1.521,0,0,0-1.274.519,2.857,2.857,0,0,0-.407,1.737V13h-1.377V3.883h1.377V6.2a10.8,10.8,0,0,1-.07,1.189h.088a1.912,1.912,0,0,1,.782-.727,2.521,2.521,0,0,1,1.169-.258,2.09,2.09,0,0,1,2.355,2.373Zm4.746.117a3.135,3.135,0,0,1-2.364-.882,3.348,3.348,0,0,1-.853-2.429,3.673,3.673,0,0,1,.791-2.5,2.732,2.732,0,0,1,2.174-.908,2.67,2.67,0,0,1,2.027.779,2.978,2.978,0,0,1,.744,2.145v.744h-4.318a2.129,2.129,0,0,0,.51,1.45,1.776,1.776,0,0,0,1.354.507,5,5,0,0,0,1.069-.108,5.605,5.605,0,0,0,1.063-.36v1.119a4.228,4.228,0,0,1-1.02.34A6.252,6.252,0,0,1,149.415,13.117Zm-.252-5.672a1.383,1.383,0,0,0-1.052.416,1.983,1.983,0,0,0-.472,1.213h2.941a1.794,1.794,0,0,0-.387-1.216A1.323,1.323,0,0,0,149.163,7.445ZM156.786,6.4a3.315,3.315,0,0,1,.686.059l-.135,1.283a2.6,2.6,0,0,0-.609-.07,1.763,1.763,0,0,0-1.339.539,1.949,1.949,0,0,0-.513,1.4V13H153.5V6.52h1.078l.182,1.143h.07a2.568,2.568,0,0,1,.841-.92A2,2,0,0,1,156.786,6.4Zm4.717,6.715a3.135,3.135,0,0,1-2.364-.882,3.348,3.348,0,0,1-.853-2.429,3.673,3.673,0,0,1,.791-2.5,2.732,2.732,0,0,1,2.174-.908,2.67,2.67,0,0,1,2.027.779,2.978,2.978,0,0,1,.744,2.145v.744H159.7a2.129,2.129,0,0,0,.51,1.45,1.776,1.776,0,0,0,1.354.507,5,5,0,0,0,1.069-.108,5.605,5.605,0,0,0,1.063-.36v1.119a4.228,4.228,0,0,1-1.02.34A6.252,6.252,0,0,1,161.5,13.117Zm-.252-5.672a1.383,1.383,0,0,0-1.052.416,1.983,1.983,0,0,0-.472,1.213h2.941a1.794,1.794,0,0,0-.387-1.216A1.323,1.323,0,0,0,161.251,7.445ZM170.081,13H168.7V6.52h1.377Zm-1.459-8.2a.762.762,0,0,1,.2-.568.788.788,0,0,1,.577-.2.771.771,0,0,1,.565.2.762.762,0,0,1,.2.568.748.748,0,0,1-.2.554.764.764,0,0,1-.565.2.781.781,0,0,1-.577-.2A.748.748,0,0,1,168.622,4.8Zm9.129,8.2h-1.383V9.016a1.744,1.744,0,0,0-.3-1.119,1.166,1.166,0,0,0-.958-.369,1.523,1.523,0,0,0-1.277.516,2.847,2.847,0,0,0-.4,1.729V13H172.05V6.52h1.078l.193.85h.07a1.917,1.917,0,0,1,.832-.715,2.788,2.788,0,0,1,1.2-.252,2.08,2.08,0,0,1,2.332,2.373Zm10.494,0-.855-2.379h-3.275L183.276,13H181.8L185,4.4h1.523l3.205,8.6ZM187.02,9.414l-.8-2.332q-.088-.234-.243-.738t-.214-.738a13.132,13.132,0,0,1-.463,1.576l-.773,2.232ZM196.179,13H194.8V9a1.812,1.812,0,0,0-.281-1.11,1.038,1.038,0,0,0-.879-.366,1.341,1.341,0,0,0-1.169.519,3.042,3.042,0,0,0-.372,1.726V13h-1.377V6.52H191.8l.193.85h.07a1.8,1.8,0,0,1,.782-.715A2.522,2.522,0,0,1,193.97,6.4a1.971,1.971,0,0,1,1.98,1.02h.094a1.976,1.976,0,0,1,.809-.75,2.566,2.566,0,0,1,1.2-.27,2.177,2.177,0,0,1,1.69.586,2.6,2.6,0,0,1,.53,1.787V13h-1.377V9a1.8,1.8,0,0,0-.284-1.11,1.046,1.046,0,0,0-.882-.366,1.367,1.367,0,0,0-1.175.5,2.582,2.582,0,0,0-.372,1.538Zm8.842.117a3.135,3.135,0,0,1-2.364-.882,3.348,3.348,0,0,1-.853-2.429,3.673,3.673,0,0,1,.791-2.5,2.732,2.732,0,0,1,2.174-.908,2.67,2.67,0,0,1,2.027.779,2.978,2.978,0,0,1,.744,2.145v.744h-4.318a2.129,2.129,0,0,0,.51,1.45,1.776,1.776,0,0,0,1.354.507,5,5,0,0,0,1.069-.108,5.605,5.605,0,0,0,1.063-.36v1.119a4.228,4.228,0,0,1-1.02.34A6.252,6.252,0,0,1,205.02,13.117Zm-.252-5.672a1.383,1.383,0,0,0-1.052.416,1.983,1.983,0,0,0-.472,1.213h2.941a1.794,1.794,0,0,0-.387-1.216A1.323,1.323,0,0,0,204.768,7.445ZM212.391,6.4a3.315,3.315,0,0,1,.686.059l-.135,1.283a2.6,2.6,0,0,0-.609-.07,1.763,1.763,0,0,0-1.339.539,1.949,1.949,0,0,0-.513,1.4V13H209.1V6.52h1.078l.182,1.143h.07a2.568,2.568,0,0,1,.841-.92A2,2,0,0,1,212.391,6.4Zm3.264,6.6h-1.377V6.52h1.377ZM214.2,4.8a.762.762,0,0,1,.2-.568.788.788,0,0,1,.577-.2.771.771,0,0,1,.565.2.762.762,0,0,1,.2.568.748.748,0,0,1-.2.554.764.764,0,0,1-.565.2.781.781,0,0,1-.577-.2A.748.748,0,0,1,214.2,4.8Zm6.041,8.314A2.837,2.837,0,0,1,218,12.259a3.586,3.586,0,0,1-.765-2.464,3.607,3.607,0,0,1,.8-2.514,2.967,2.967,0,0,1,2.312-.879,4.332,4.332,0,0,1,1.846.381l-.416,1.107a4.17,4.17,0,0,0-1.441-.34q-1.682,0-1.682,2.232a2.673,2.673,0,0,0,.419,1.638,1.45,1.45,0,0,0,1.228.548,3.522,3.522,0,0,0,1.74-.457v1.2a2.719,2.719,0,0,1-.788.311A4.729,4.729,0,0,1,220.237,13.117ZM227.62,13l-.275-.9H227.3a2.655,2.655,0,0,1-.943.806,2.983,2.983,0,0,1-1.219.214,2.063,2.063,0,0,1-1.491-.516,1.929,1.929,0,0,1-.536-1.459,1.713,1.713,0,0,1,.744-1.512,4.291,4.291,0,0,1,2.268-.557l1.119-.035V8.693a1.31,1.31,0,0,0-.29-.929,1.183,1.183,0,0,0-.9-.308,3.11,3.11,0,0,0-.955.146,7.207,7.207,0,0,0-.879.346l-.445-.984a4.793,4.793,0,0,1,1.154-.419,5.312,5.312,0,0,1,1.184-.144,2.8,2.8,0,0,1,1.866.539,2.111,2.111,0,0,1,.63,1.693V13Zm-2.051-.937a1.706,1.706,0,0,0,1.2-.419,1.519,1.519,0,0,0,.454-1.175V9.906l-.832.035a2.847,2.847,0,0,0-1.415.325.988.988,0,0,0-.442.888.866.866,0,0,0,.258.671A1.108,1.108,0,0,0,225.569,12.063ZM231.2,10.4v-.375a2.211,2.211,0,0,1,.234-1.072,3.054,3.054,0,0,1,.82-.885,4.537,4.537,0,0,0,.9-.855,1.284,1.284,0,0,0,.2-.727.913.913,0,0,0-.328-.756,1.475,1.475,0,0,0-.943-.264,3.243,3.243,0,0,0-1.031.158,7.321,7.321,0,0,0-.926.381l-.492-1.031a5.158,5.158,0,0,1,2.549-.662,2.755,2.755,0,0,1,1.822.563,1.913,1.913,0,0,1,.674,1.553,2.212,2.212,0,0,1-.129.782,2.245,2.245,0,0,1-.39.653,6.292,6.292,0,0,1-.9.809,3.45,3.45,0,0,0-.729.709,1.361,1.361,0,0,0-.185.756V10.4Zm-.24,1.869a.772.772,0,0,1,.861-.885.853.853,0,0,1,.645.231.9.9,0,0,1,.223.653.931.931,0,0,1-.226.659.973.973,0,0,1-1.28.006A.934.934,0,0,1,230.96,12.268ZM15.475,30h-.984l-1.729-5.736q-.123-.381-.275-.961a5.6,5.6,0,0,1-.158-.7,13.343,13.343,0,0,1-.41,1.693L10.243,30H9.259L6.979,21.434H8.034l1.354,5.291A19.678,19.678,0,0,1,9.8,28.74a14.557,14.557,0,0,1,.469-2.1L11.8,21.434h1.055l1.611,5.256a15.978,15.978,0,0,1,.475,2.051,17.568,17.568,0,0,1,.422-2.027l1.348-5.279h1.055Zm6.416-6.539a3.806,3.806,0,0,1,.768.07l-.135.9a3.313,3.313,0,0,0-.7-.088,1.712,1.712,0,0,0-1.333.633,2.307,2.307,0,0,0-.554,1.576V30h-.973V23.578h.8l.111,1.189h.047a2.823,2.823,0,0,1,.861-.967A1.939,1.939,0,0,1,21.891,23.461ZM24.833,30H23.86V23.578h.973Zm-1.055-8.162a.646.646,0,0,1,.164-.489.607.607,0,0,1,.814,0,.634.634,0,0,1,.17.486.644.644,0,0,1-.17.489.6.6,0,0,1-.814,0A.658.658,0,0,1,23.778,21.838Zm5.191,7.477a3.177,3.177,0,0,0,.5-.038,3.224,3.224,0,0,0,.381-.079v.744a1.778,1.778,0,0,1-.466.126,3.5,3.5,0,0,1-.554.05q-1.863,0-1.863-1.963v-3.82h-.92v-.469l.92-.4.41-1.371h.563v1.488H29.8v.756H27.938v3.779a1.3,1.3,0,0,0,.275.891A.958.958,0,0,0,28.97,29.314Zm4.875.8A2.95,2.95,0,0,1,31.6,29.25a3.357,3.357,0,0,1-.823-2.408,3.723,3.723,0,0,1,.765-2.467,2.54,2.54,0,0,1,2.054-.914,2.422,2.422,0,0,1,1.91.794,3.043,3.043,0,0,1,.7,2.095v.615H31.782a2.546,2.546,0,0,0,.571,1.717,1.976,1.976,0,0,0,1.526.586,5.172,5.172,0,0,0,2.051-.434V29.7a5.147,5.147,0,0,1-.976.319A5.483,5.483,0,0,1,33.845,30.117Zm-.264-5.842a1.588,1.588,0,0,0-1.233.5,2.323,2.323,0,0,0-.542,1.395h3.357a2.139,2.139,0,0,0-.41-1.409A1.444,1.444,0,0,0,33.581,24.275Zm6.381-.7H41l1.406,3.662a13.929,13.929,0,0,1,.574,1.811h.047q.076-.3.319-1.022t1.591-4.45h1.043l-2.76,7.313a3.648,3.648,0,0,1-.958,1.538,2.037,2.037,0,0,1-1.345.454,3.913,3.913,0,0,1-.879-.1V32a3.39,3.39,0,0,0,.721.07,1.486,1.486,0,0,0,1.43-1.125l.357-.914Zm12.609,3.205a3.543,3.543,0,0,1-.791,2.452,2.786,2.786,0,0,1-2.186.882,2.9,2.9,0,0,1-1.529-.4,2.668,2.668,0,0,1-1.031-1.16,4.043,4.043,0,0,1-.363-1.77,3.537,3.537,0,0,1,.785-2.446,2.777,2.777,0,0,1,2.18-.876,2.717,2.717,0,0,1,2.142.9A3.527,3.527,0,0,1,52.571,26.783Zm-4.893,0a3.048,3.048,0,0,0,.492,1.875,1.953,1.953,0,0,0,2.9,0,3.033,3.033,0,0,0,.5-1.878,2.984,2.984,0,0,0-.5-1.86,1.74,1.74,0,0,0-1.462-.636,1.712,1.712,0,0,0-1.441.627A3.017,3.017,0,0,0,47.679,26.783Zm7.512-3.205v4.166a1.676,1.676,0,0,0,.357,1.172,1.456,1.456,0,0,0,1.119.387,1.826,1.826,0,0,0,1.474-.551,2.778,2.778,0,0,0,.466-1.8V23.578h.973V30h-.8l-.141-.861h-.053a1.939,1.939,0,0,1-.829.727,2.787,2.787,0,0,1-1.21.252,2.455,2.455,0,0,1-1.755-.557,2.37,2.37,0,0,1-.583-1.781v-4.2Zm9.381-.117a3.806,3.806,0,0,1,.768.07l-.135.9a3.313,3.313,0,0,0-.7-.088,1.712,1.712,0,0,0-1.333.633,2.307,2.307,0,0,0-.554,1.576V30h-.973V23.578h.8l.111,1.189H62.6a2.823,2.823,0,0,1,.861-.967A1.939,1.939,0,0,1,64.571,23.461ZM73.606,30l-.193-.914h-.047a2.7,2.7,0,0,1-.958.817,2.92,2.92,0,0,1-1.192.214,2.145,2.145,0,0,1-1.5-.492,1.8,1.8,0,0,1-.542-1.4q0-1.945,3.111-2.039l1.09-.035v-.4a1.628,1.628,0,0,0-.325-1.116,1.337,1.337,0,0,0-1.04-.36,4.238,4.238,0,0,0-1.816.492l-.3-.744a4.571,4.571,0,0,1,1.04-.4,4.5,4.5,0,0,1,1.134-.146,2.446,2.446,0,0,1,1.7.51,2.128,2.128,0,0,1,.554,1.635V30Zm-2.2-.686a1.974,1.974,0,0,0,1.427-.5,1.842,1.842,0,0,0,.519-1.395v-.58l-.973.041a3.538,3.538,0,0,0-1.673.36,1.087,1.087,0,0,0-.513.993,1,1,0,0,0,.319.8A1.326,1.326,0,0,0,71.409,29.314ZM80.725,30V25.846a1.676,1.676,0,0,0-.357-1.172,1.456,1.456,0,0,0-1.119-.387,1.846,1.846,0,0,0-1.477.545,2.751,2.751,0,0,0-.469,1.8V30h-.973V23.578h.791l.158.879h.047a1.986,1.986,0,0,1,.838-.735,2.722,2.722,0,0,1,1.2-.261,2.439,2.439,0,0,1,1.746.56,2.381,2.381,0,0,1,.586,1.79V30Zm7.113-1.752a1.609,1.609,0,0,1-.668,1.383,3.14,3.14,0,0,1-1.875.486,4.077,4.077,0,0,1-1.992-.4v-.9a4.818,4.818,0,0,0,.993.369,4.147,4.147,0,0,0,1.022.135,2.319,2.319,0,0,0,1.172-.243.837.837,0,0,0,.085-1.383,5.115,5.115,0,0,0-1.269-.63,6.879,6.879,0,0,1-1.274-.583,1.741,1.741,0,0,1-.562-.565,1.475,1.475,0,0,1-.185-.756,1.441,1.441,0,0,1,.639-1.239,2.976,2.976,0,0,1,1.752-.454,5.126,5.126,0,0,1,2.027.422l-.346.791a4.654,4.654,0,0,0-1.752-.4,2.016,2.016,0,0,0-1.043.217.67.67,0,0,0-.352.6.728.728,0,0,0,.132.439,1.3,1.3,0,0,0,.425.346,9.493,9.493,0,0,0,1.125.475,4.2,4.2,0,0,1,1.544.838A1.478,1.478,0,0,1,87.839,28.248ZM94.665,30l-1.178-3.768q-.111-.346-.416-1.57h-.047q-.234,1.025-.41,1.582L91.4,30H90.276l-1.752-6.422h1.02l.946,3.686a14.932,14.932,0,0,1,.372,1.705h.047q.064-.334.208-.864t.249-.841l1.178-3.686H93.6l1.148,3.686a12.439,12.439,0,0,1,.445,1.693h.047a6.211,6.211,0,0,1,.126-.65q.1-.439,1.222-4.729h1.008L95.819,30Zm6.8.117a2.95,2.95,0,0,1-2.247-.867,3.357,3.357,0,0,1-.823-2.408,3.723,3.723,0,0,1,.765-2.467,2.54,2.54,0,0,1,2.054-.914,2.422,2.422,0,0,1,1.91.794,3.043,3.043,0,0,1,.7,2.095v.615H99.405a2.546,2.546,0,0,0,.571,1.717,1.976,1.976,0,0,0,1.526.586,5.172,5.172,0,0,0,2.051-.434V29.7a5.147,5.147,0,0,1-.976.319A5.483,5.483,0,0,1,101.468,30.117Zm-.264-5.842a1.588,1.588,0,0,0-1.233.5,2.323,2.323,0,0,0-.542,1.395h3.357a2.139,2.139,0,0,0-.41-1.409A1.444,1.444,0,0,0,101.2,24.275Zm7.213-.814a3.806,3.806,0,0,1,.768.07l-.135.9a3.313,3.313,0,0,0-.7-.088,1.712,1.712,0,0,0-1.333.633,2.307,2.307,0,0,0-.554,1.576V30h-.973V23.578h.8l.111,1.189h.047a2.823,2.823,0,0,1,.861-.967A1.939,1.939,0,0,1,108.417,23.461ZM114.475,30H113.5V23.578h.973Zm-1.055-8.162a.646.646,0,0,1,.164-.489.607.607,0,0,1,.814,0,.634.634,0,0,1,.17.486.644.644,0,0,1-.17.489.6.6,0,0,1-.814,0A.658.658,0,0,1,113.421,21.838ZM120.932,30V25.846a1.676,1.676,0,0,0-.357-1.172,1.456,1.456,0,0,0-1.119-.387,1.846,1.846,0,0,0-1.477.545,2.751,2.751,0,0,0-.469,1.8V30h-.973V23.578h.791l.158.879h.047a1.986,1.986,0,0,1,.838-.735,2.722,2.722,0,0,1,1.2-.261,2.439,2.439,0,0,1,1.746.56,2.381,2.381,0,0,1,.586,1.79V30Zm8.162-.686a3.177,3.177,0,0,0,.5-.038,3.224,3.224,0,0,0,.381-.079v.744a1.778,1.778,0,0,1-.466.126,3.5,3.5,0,0,1-.554.05q-1.863,0-1.863-1.963v-3.82h-.92v-.469l.92-.4.41-1.371h.563v1.488h1.863v.756h-1.863v3.779a1.3,1.3,0,0,0,.275.891A.958.958,0,0,0,129.095,29.314Zm6.557.686V25.846a1.676,1.676,0,0,0-.357-1.172,1.456,1.456,0,0,0-1.119-.387,1.834,1.834,0,0,0-1.479.551,2.79,2.79,0,0,0-.466,1.8V30h-.973V20.883h.973v2.76a6.013,6.013,0,0,1-.047.826h.059a1.984,1.984,0,0,1,.817-.729,2.657,2.657,0,0,1,1.21-.267,2.478,2.478,0,0,1,1.767.56,2.357,2.357,0,0,1,.589,1.778V30Zm5.684.117a2.95,2.95,0,0,1-2.247-.867,3.357,3.357,0,0,1-.823-2.408,3.723,3.723,0,0,1,.765-2.467,2.54,2.54,0,0,1,2.054-.914,2.422,2.422,0,0,1,1.91.794,3.043,3.043,0,0,1,.7,2.095v.615h-4.424a2.546,2.546,0,0,0,.571,1.717,1.976,1.976,0,0,0,1.526.586,5.172,5.172,0,0,0,2.051-.434V29.7a5.147,5.147,0,0,1-.976.319A5.483,5.483,0,0,1,141.335,30.117Zm-.264-5.842a1.588,1.588,0,0,0-1.233.5,2.323,2.323,0,0,0-.542,1.395h3.357a2.139,2.139,0,0,0-.41-1.409A1.444,1.444,0,0,0,141.071,24.275Zm9.475,5.039a3.177,3.177,0,0,0,.5-.038,3.224,3.224,0,0,0,.381-.079v.744a1.778,1.778,0,0,1-.466.126,3.5,3.5,0,0,1-.554.05q-1.863,0-1.863-1.963v-3.82h-.92v-.469l.92-.4.41-1.371h.563v1.488h1.863v.756h-1.863v3.779a1.3,1.3,0,0,0,.275.891A.958.958,0,0,0,150.546,29.314Zm4.875.8a2.95,2.95,0,0,1-2.247-.867,3.357,3.357,0,0,1-.823-2.408,3.723,3.723,0,0,1,.765-2.467,2.54,2.54,0,0,1,2.054-.914,2.422,2.422,0,0,1,1.91.794,3.043,3.043,0,0,1,.7,2.095v.615h-4.424a2.546,2.546,0,0,0,.571,1.717,1.976,1.976,0,0,0,1.526.586,5.172,5.172,0,0,0,2.051-.434V29.7a5.147,5.147,0,0,1-.976.319A5.483,5.483,0,0,1,155.421,30.117Zm-.264-5.842a1.588,1.588,0,0,0-1.233.5,2.323,2.323,0,0,0-.542,1.395h3.357a2.139,2.139,0,0,0-.41-1.409A1.444,1.444,0,0,0,155.157,24.275Zm5.83,2.438-2.232-3.135h1.107l1.693,2.461,1.688-2.461h1.1l-2.232,3.135L164.456,30h-1.1l-1.8-2.6L159.739,30h-1.1Zm6.814,2.6a3.177,3.177,0,0,0,.5-.038,3.224,3.224,0,0,0,.381-.079v.744a1.778,1.778,0,0,1-.466.126,3.5,3.5,0,0,1-.554.05q-1.863,0-1.863-1.963v-3.82h-.92v-.469l.92-.4.41-1.371h.563v1.488h1.863v.756H166.77v3.779a1.3,1.3,0,0,0,.275.891A.958.958,0,0,0,167.8,29.314Zm8.174-4.98h-1.635V30h-.973V24.334H172.22v-.439l1.148-.352v-.357q0-2.367,2.068-2.367a4.256,4.256,0,0,1,1.2.205l-.252.779a3.218,3.218,0,0,0-.961-.182.936.936,0,0,0-.814.366,2.044,2.044,0,0,0-.264,1.175v.416h1.635ZM178.12,30h-.973V23.578h.973Zm-1.055-8.162a.646.646,0,0,1,.164-.489.607.607,0,0,1,.814,0,.634.634,0,0,1,.17.486.644.644,0,0,1-.17.489.6.6,0,0,1-.814,0A.658.658,0,0,1,177.065,21.838Zm5.83,8.279a2.95,2.95,0,0,1-2.247-.867,3.357,3.357,0,0,1-.823-2.408,3.723,3.723,0,0,1,.765-2.467,2.54,2.54,0,0,1,2.054-.914,2.422,2.422,0,0,1,1.91.794,3.043,3.043,0,0,1,.7,2.095v.615h-4.424a2.546,2.546,0,0,0,.571,1.717,1.976,1.976,0,0,0,1.526.586,5.172,5.172,0,0,0,2.051-.434V29.7a5.147,5.147,0,0,1-.976.319A5.483,5.483,0,0,1,182.9,30.117Zm-.264-5.842a1.588,1.588,0,0,0-1.233.5,2.323,2.323,0,0,0-.542,1.395h3.357a2.139,2.139,0,0,0-.41-1.409A1.444,1.444,0,0,0,182.632,24.275ZM187.888,30h-.973V20.883h.973Zm6.434-.861h-.053a2.285,2.285,0,0,1-2.016.979,2.384,2.384,0,0,1-1.96-.861,3.791,3.791,0,0,1-.7-2.449,3.855,3.855,0,0,1,.7-2.467,2.366,2.366,0,0,1,1.957-.879,2.335,2.335,0,0,1,2,.949h.076l-.041-.463-.023-.451V20.883h.973V30h-.791Zm-1.945.164a1.771,1.771,0,0,0,1.444-.542,2.739,2.739,0,0,0,.448-1.749v-.205a3.222,3.222,0,0,0-.454-1.948,1.724,1.724,0,0,0-1.45-.583,1.489,1.489,0,0,0-1.31.665,3.307,3.307,0,0,0-.454,1.878,3.17,3.17,0,0,0,.451,1.857A1.528,1.528,0,0,0,192.376,29.3Zm11.033-5.83a2.387,2.387,0,0,1,1.966.864,3.793,3.793,0,0,1,.7,2.446,3.821,3.821,0,0,1-.706,2.458,2.378,2.378,0,0,1-1.96.876,2.779,2.779,0,0,1-1.146-.231,2.154,2.154,0,0,1-.87-.712h-.07l-.205.826h-.7V20.883h.973V23.1q0,.744-.047,1.336h.047A2.309,2.309,0,0,1,203.409,23.473Zm-.141.814a1.7,1.7,0,0,0-1.436.571,3.223,3.223,0,0,0-.439,1.925,3.214,3.214,0,0,0,.451,1.937,1.716,1.716,0,0,0,1.447.583,1.5,1.5,0,0,0,1.336-.653,3.358,3.358,0,0,0,.439-1.878,3.227,3.227,0,0,0-.439-1.869A1.557,1.557,0,0,0,203.268,24.287Zm7.219,5.83a2.95,2.95,0,0,1-2.247-.867,3.357,3.357,0,0,1-.823-2.408,3.723,3.723,0,0,1,.765-2.467,2.54,2.54,0,0,1,2.054-.914,2.422,2.422,0,0,1,1.91.794,3.043,3.043,0,0,1,.7,2.095v.615h-4.424A2.546,2.546,0,0,0,209,28.682a1.976,1.976,0,0,0,1.526.586,5.172,5.172,0,0,0,2.051-.434V29.7a5.147,5.147,0,0,1-.976.319A5.483,5.483,0,0,1,210.487,30.117Zm-.264-5.842a1.588,1.588,0,0,0-1.233.5,2.323,2.323,0,0,0-.542,1.395h3.357a2.139,2.139,0,0,0-.41-1.409A1.444,1.444,0,0,0,210.223,24.275ZM215.479,30h-.973V20.883h.973Zm7.605-3.217a3.543,3.543,0,0,1-.791,2.452,2.786,2.786,0,0,1-2.186.882,2.9,2.9,0,0,1-1.529-.4,2.668,2.668,0,0,1-1.031-1.16,4.043,4.043,0,0,1-.363-1.77,3.537,3.537,0,0,1,.785-2.446,2.777,2.777,0,0,1,2.18-.876,2.717,2.717,0,0,1,2.142.9A3.527,3.527,0,0,1,223.085,26.783Zm-4.893,0a3.048,3.048,0,0,0,.492,1.875,1.953,1.953,0,0,0,2.9,0,3.033,3.033,0,0,0,.5-1.878,2.984,2.984,0,0,0-.5-1.86,1.74,1.74,0,0,0-1.462-.636,1.712,1.712,0,0,0-1.441.627A3.017,3.017,0,0,0,218.192,26.783ZM230.034,30l-1.178-3.768q-.111-.346-.416-1.57h-.047q-.234,1.025-.41,1.582L226.77,30h-1.125l-1.752-6.422h1.02l.946,3.686a14.932,14.932,0,0,1,.372,1.705h.047q.064-.334.208-.864t.249-.841l1.178-3.686h1.055l1.148,3.686a12.439,12.439,0,0,1,.445,1.693h.047a6.211,6.211,0,0,1,.126-.65q.1-.439,1.222-4.729h1.008L231.188,30Zm3.949-.621a.873.873,0,0,1,.179-.595.648.648,0,0,1,.513-.2.693.693,0,0,1,.53.2.837.837,0,0,1,.19.595.822.822,0,0,1-.193.586.769.769,0,0,1-1.022.021A.8.8,0,0,1,233.983,29.379Z" transform="translate(-2)" fill="#7c848e"/></g><g transform="translate(-16023 143.432)" fill="none" stroke="#e2e2e2" stroke-width="1"><rect width="239.414" height="34" stroke="none"/><rect x="0.5" y="0.5" width="238.414" height="33" fill="none"/></g></g></svg>