<svg xmlns="http://www.w3.org/2000/svg" width="247.207" height="145.945" viewBox="0 0 247.207 145.945"><g transform="translate(-17.078 -52.54)"><rect width="247.207" height="145.945" rx="5" transform="translate(17.078 52.54)" fill="#fff"/><g transform="translate(34.623 66.807)"><text transform="translate(0.133 11.104)" fill="#212e3a" font-size="12" font-family="OpenSans-Semibold, Open Sans" font-weight="600"><tspan x="0" y="0">Can you</tspan></text><text transform="translate(89.133 38.104)" fill="#212e3a" font-size="12" font-family="OpenSans-Semibold, Open Sans" font-weight="600"><tspan x="0" y="0">the right options into</tspan></text><text transform="translate(0.133 65.104)" fill="#212e3a" font-size="12" font-family="OpenSans-Semibold, Open Sans" font-weight="600"><tspan x="0" y="0">the right boxes?</tspan></text><text transform="translate(147.133 11.104)" fill="#212e3a" font-size="12" font-family="OpenSans-Semibold, Open Sans" font-weight="600"><tspan x="0" y="0">and</tspan></text><g transform="translate(0.133 -4.208)"><g fill="#f8f8f8" stroke="#858585" stroke-width="1" stroke-dasharray="5 5"><rect width="212" height="120" rx="2" stroke="none"/><rect x="0.5" y="0.5" width="211" height="119" rx="1.5" fill="none"/></g></g></g><g transform="translate(122.756 106.6)"><g transform="translate(0 21.308)"><path d="M34.414,339.95a.9.9,0,0,0-.9.9v3.435a3.6,3.6,0,0,1-3.6,3.6H5.394a3.6,3.6,0,0,1-3.6-3.6v-3.435a.9.9,0,0,0-1.8,0v3.435a5.4,5.4,0,0,0,5.394,5.394H29.919a5.4,5.4,0,0,0,5.394-5.394v-3.435A.9.9,0,0,0,34.414,339.95Z" transform="translate(0 -339.95)" fill="#b2b2b2"/></g><g transform="translate(5.458 24.85)"><path d="M102.631,391.3h-22.6a.9.9,0,0,0,0,1.8h22.6a.9.9,0,0,0,0-1.8Z" transform="translate(-79.133 -391.305)" fill="#b2b2b2"/></g><g transform="translate(8.329 0)"><path d="M139.12,38.308l-7.53-6.727a2.246,2.246,0,0,0-2.994,0l-7.53,6.727a.9.9,0,1,0,1.2,1.341l6.93-6.191V50.88a.9.9,0,0,0,1.8,0V33.457l6.93,6.191a.9.9,0,1,0,1.2-1.341Z" transform="translate(-120.766 -31.009)" fill="#b2b2b2"/></g></g></g></svg>