<svg xmlns="http://www.w3.org/2000/svg" xmlns:xlink="http://www.w3.org/1999/xlink" width="531.566" height="545.669" viewBox="0 0 531.566 545.669"><defs><clipPath id="a"><path d="M255,0C395.833,0,510,114.391,510,255.5S395.833,511,255,511,0,396.609,0,255.5,114.167,0,255,0Z" transform="translate(0.427 0.282)" fill="none" stroke="#cdcdce" stroke-width="1"/></clipPath><linearGradient id="b" x1="0.979" y1="0.961" x2="0.019" gradientUnits="objectBoundingBox"><stop offset="0" stop-color="red" stop-opacity="0.78"/><stop offset="0.97" stop-color="#be5252" stop-opacity="0.18"/><stop offset="1" stop-color="#bc5454" stop-opacity="0.322"/></linearGradient><clipPath id="c"><path d="M255,0C395.833,0,510,114.391,510,255.5S395.833,511,255,511,0,396.609,0,255.5,114.167,0,255,0Z" transform="translate(0.427 0.282)" fill="none" stroke="#cdcdce" stroke-width="1" opacity="0.5"/></clipPath><linearGradient id="d" x1="0.293" y1="0.281" x2="1" y2="1" gradientUnits="objectBoundingBox"><stop offset="0" stop-color="#00ad50"/><stop offset="1" stop-color="#4cd43b" stop-opacity="0.412"/></linearGradient></defs><g transform="translate(-417.623 -98.949)"><g transform="translate(417.623 98.949)"><path d="M0,0H26.372V2.578H0Z" transform="translate(254.923 51.927)" fill="#cdcdce" stroke="#fff" stroke-width="2"/><path d="M0,0H10.5V2.578H0Z" transform="translate(262.734 13.202)" fill="#cdcdce" stroke="#fff" stroke-width="2"/><path d="M0,0H10.5V2.578H0Z" transform="translate(262.734 22.883)" fill="#cdcdce" stroke="#fff" stroke-width="2"/><path d="M0,0H10.5V2.578H0Z" transform="translate(262.734 32.564)" fill="#cdcdce" stroke="#fff" stroke-width="2"/><path d="M0,0H10.5V2.578H0Z" transform="translate(262.734 42.245)" fill="#cdcdce" stroke="#fff" stroke-width="2"/><path d="M0,0H26.372V2.578H0Z" transform="translate(254.923 101.213)" fill="#cdcdce" stroke="#fff" stroke-width="2"/><path d="M0,0H10.5V2.578H0Z" transform="translate(262.734 61.608)" fill="#cdcdce" stroke="#fff" stroke-width="2"/><path d="M0,0H10.5V2.578H0Z" transform="translate(262.734 72.169)" fill="#cdcdce" stroke="#fff" stroke-width="2"/><path d="M0,0H10.5V2.578H0Z" transform="translate(262.734 81.85)" fill="#cdcdce" stroke="#fff" stroke-width="2"/><path d="M0,0H10.5V2.578H0Z" transform="translate(262.734 91.532)" fill="#cdcdce" stroke="#fff" stroke-width="2"/><path d="M0,0H26.372V2.578H0Z" transform="translate(254.923 149.619)" fill="#cdcdce" stroke="#fff" stroke-width="2"/><path d="M0,0H10.5V2.578H0Z" transform="translate(262.734 110.894)" fill="#cdcdce" stroke="#fff" stroke-width="2"/><path d="M0,0H10.5V2.578H0Z" transform="translate(262.734 120.575)" fill="#cdcdce" stroke="#fff" stroke-width="2"/><path d="M0,0H10.5V2.578H0Z" transform="translate(262.734 130.256)" fill="#cdcdce" stroke="#fff" stroke-width="2"/><path d="M0,0H10.5V2.578H0Z" transform="translate(262.734 139.938)" fill="#cdcdce" stroke="#fff" stroke-width="2"/><path d="M0,0H26.372V2.578H0Z" transform="translate(254.923 198.905)" fill="#cdcdce" stroke="#fff" stroke-width="2"/><path d="M0,0H10.5V2.578H0Z" transform="translate(262.734 159.3)" fill="#cdcdce" stroke="#fff" stroke-width="2"/><path d="M0,0H10.5V2.578H0Z" transform="translate(262.734 168.981)" fill="#cdcdce" stroke="#fff" stroke-width="2"/><path d="M0,0H10.5V2.578H0Z" transform="translate(262.734 178.663)" fill="#cdcdce" stroke="#fff" stroke-width="2"/><path d="M0,0H10.5V2.578H0Z" transform="translate(262.734 189.224)" fill="#cdcdce" stroke="#fff" stroke-width="2"/><path d="M0,0H26.372V2.578H0Z" transform="translate(254.923 247.311)" fill="#cdcdce" stroke="#fff" stroke-width="2"/><path d="M0,0H10.5V2.578H0Z" transform="translate(262.734 208.586)" fill="#cdcdce" stroke="#fff" stroke-width="2"/><path d="M0,0H10.5V2.578H0Z" transform="translate(262.734 218.267)" fill="#cdcdce" stroke="#fff" stroke-width="2"/><path d="M0,0H10.5V2.578H0Z" transform="translate(262.734 227.949)" fill="#cdcdce" stroke="#fff" stroke-width="2"/><path d="M0,0H10.5V2.578H0Z" transform="translate(262.734 237.63)" fill="#cdcdce" stroke="#fff" stroke-width="2"/><path d="M0,0H26.372V2.578H0Z" transform="translate(254.923 295.717)" fill="#cdcdce" stroke="#fff" stroke-width="2"/><path d="M0,0H10.5V2.578H0Z" transform="translate(262.734 256.992)" fill="#cdcdce" stroke="#fff" stroke-width="2"/><path d="M4.105,10.65V6.3H0V3.722H4.105V0H6.649V3.722H10.5V6.3H6.649V10.65Z" transform="translate(262.733 267.351)" fill="#cdcdce" stroke="#fff" stroke-width="2"/><path d="M0,0H10.5V2.578H0Z" transform="translate(262.734 286.036)" fill="#cdcdce" stroke="#fff" stroke-width="2"/><path d="M0,0H26.372V2.578H0Z" transform="translate(254.923 345.003)" fill="#cdcdce" stroke="#fff" stroke-width="2"/><path d="M0,0H10.5V2.578H0Z" transform="translate(262.734 305.398)" fill="#cdcdce" stroke="#fff" stroke-width="2"/><path d="M0,0H10.5V2.578H0Z" transform="translate(262.734 315.96)" fill="#cdcdce" stroke="#fff" stroke-width="2"/><path d="M0,0H10.5V2.578H0Z" transform="translate(262.734 325.641)" fill="#cdcdce" stroke="#fff" stroke-width="2"/><path d="M0,0H10.5V2.578H0Z" transform="translate(262.734 335.322)" fill="#cdcdce" stroke="#fff" stroke-width="2"/><path d="M0,0H26.375V2.578H0Z" transform="translate(254.923 393.41)" fill="#cdcdce" stroke="#fff" stroke-width="2"/><path d="M0,0H10.5V2.578H0Z" transform="translate(262.734 354.685)" fill="#cdcdce" stroke="#fff" stroke-width="2"/><path d="M0,0H10.5V2.578H0Z" transform="translate(262.734 364.366)" fill="#cdcdce" stroke="#fff" stroke-width="2"/><path d="M0,0H10.5V2.578H0Z" transform="translate(262.734 374.047)" fill="#cdcdce" stroke="#fff" stroke-width="2"/><path d="M0,0H10.5V2.578H0Z" transform="translate(262.734 383.728)" fill="#cdcdce" stroke="#fff" stroke-width="2"/><path d="M0,0H26.375V2.578H0Z" transform="translate(254.923 442.696)" fill="#cdcdce" stroke="#fff" stroke-width="2"/><path d="M0,0H10.5V2.578H0Z" transform="translate(262.734 403.091)" fill="#cdcdce" stroke="#fff" stroke-width="2"/><path d="M0,0H10.5V2.578H0Z" transform="translate(262.734 412.772)" fill="#cdcdce" stroke="#fff" stroke-width="2"/><path d="M0,0H10.5V2.578H0Z" transform="translate(262.734 422.453)" fill="#cdcdce" stroke="#fff" stroke-width="2"/><path d="M0,0H10.5V2.578H0Z" transform="translate(262.734 433.014)" fill="#cdcdce" stroke="#fff" stroke-width="2"/><path d="M0,0H26.375V2.578H0Z" transform="translate(254.923 491.102)" fill="#cdcdce" stroke="#fff" stroke-width="2"/><path d="M0,0H10.5V2.578H0Z" transform="translate(262.734 452.377)" fill="#cdcdce" stroke="#fff" stroke-width="2"/><path d="M0,0H10.5V2.578H0Z" transform="translate(262.734 462.058)" fill="#cdcdce" stroke="#fff" stroke-width="2"/><path d="M0,0H10.5V2.578H0Z" transform="translate(262.734 471.739)" fill="#cdcdce" stroke="#fff" stroke-width="2"/><path d="M0,0H10.5V2.578H0Z" transform="translate(262.734 481.421)" fill="#cdcdce" stroke="#fff" stroke-width="2"/><path d="M0,0H10.5V2.578H0Z" transform="translate(262.734 500.783)" fill="#cdcdce" stroke="#fff" stroke-width="2"/><path d="M0,0H10.5V2.578H0Z" transform="translate(262.734 510.464)" fill="#cdcdce" stroke="#fff" stroke-width="2"/><path d="M0,0H10.5V2.578H0Z" transform="translate(262.734 520.146)" fill="#cdcdce" stroke="#fff" stroke-width="2"/><path d="M0,0H10.5V2.578H0Z" transform="translate(262.734 529.827)" fill="#cdcdce" stroke="#fff" stroke-width="2"/><path d="M3.905,0,7.811,7.041H0Z" transform="translate(271.907 545.669) rotate(180)" fill="#cdcdce"/><path d="M3.905,0,7.811,7.041H0Z" transform="translate(264.097)" fill="#cdcdce"/><path d="M0,0H23.53V2.349H0Z" transform="translate(232.759 261.51) rotate(90)" fill="#cdcdce" stroke="#fff" stroke-width="2"/><path d="M0,0H9.37V2.349H0Z" transform="translate(259.22 268.479) rotate(90)" fill="#cdcdce" stroke="#fff" stroke-width="2"/><path d="M0,0H9.37V2.349H0Z" transform="translate(250.4 268.479) rotate(90)" fill="#cdcdce" stroke="#fff" stroke-width="2"/><path d="M0,0H9.37V2.349H0Z" transform="translate(241.579 268.479) rotate(90)" fill="#cdcdce" stroke="#fff" stroke-width="2"/><path d="M0,0H23.53V2.349H0Z" transform="translate(188.656 261.51) rotate(90)" fill="#cdcdce" stroke="#fff" stroke-width="2"/><path d="M0,0H9.37V2.349H0Z" transform="translate(223.938 268.479) rotate(90)" fill="#cdcdce" stroke="#fff" stroke-width="2"/><path d="M0,0H9.37V2.349H0Z" transform="translate(215.118 268.479) rotate(90)" fill="#cdcdce" stroke="#fff" stroke-width="2"/><path d="M0,0H9.37V2.349H0Z" transform="translate(206.297 268.479) rotate(90)" fill="#cdcdce" stroke="#fff" stroke-width="2"/><path d="M0,0H9.37V2.349H0Z" transform="translate(197.476 268.479) rotate(90)" fill="#cdcdce" stroke="#fff" stroke-width="2"/><path d="M0,0H23.53V2.349H0Z" transform="translate(143.751 261.51) rotate(90)" fill="#cdcdce" stroke="#fff" stroke-width="2"/><path d="M0,0H9.37V2.349H0Z" transform="translate(179.835 268.479) rotate(90)" fill="#cdcdce" stroke="#fff" stroke-width="2"/><path d="M0,0H9.37V2.349H0Z" transform="translate(171.015 268.479) rotate(90)" fill="#cdcdce" stroke="#fff" stroke-width="2"/><path d="M0,0H9.37V2.349H0Z" transform="translate(162.194 268.479) rotate(90)" fill="#cdcdce" stroke="#fff" stroke-width="2"/><path d="M0,0H9.37V2.349H0Z" transform="translate(152.572 268.479) rotate(90)" fill="#cdcdce" stroke="#fff" stroke-width="2"/><path d="M0,0H23.53V2.349H0Z" transform="translate(99.648 261.51) rotate(90)" fill="#cdcdce" stroke="#fff" stroke-width="2"/><path d="M0,0H9.37V2.349H0Z" transform="translate(134.931 268.479) rotate(90)" fill="#cdcdce" stroke="#fff" stroke-width="2"/><path d="M0,0H9.37V2.349H0Z" transform="translate(126.11 268.479) rotate(90)" fill="#cdcdce" stroke="#fff" stroke-width="2"/><path d="M0,0H9.37V2.349H0Z" transform="translate(117.289 268.479) rotate(90)" fill="#cdcdce" stroke="#fff" stroke-width="2"/><path d="M0,0H9.37V2.349H0Z" transform="translate(108.469 268.479) rotate(90)" fill="#cdcdce" stroke="#fff" stroke-width="2"/><path d="M0,0H23.53V2.349H0Z" transform="translate(55.546 261.51) rotate(90)" fill="#cdcdce" stroke="#fff" stroke-width="2"/><path d="M0,0H9.37V2.349H0Z" transform="translate(90.828 268.479) rotate(90)" fill="#cdcdce" stroke="#fff" stroke-width="2"/><path d="M0,0H9.37V2.349H0Z" transform="translate(82.007 268.479) rotate(90)" fill="#cdcdce" stroke="#fff" stroke-width="2"/><path d="M0,0H9.37V2.349H0Z" transform="translate(73.187 268.479) rotate(90)" fill="#cdcdce" stroke="#fff" stroke-width="2"/><path d="M0,0H9.37V2.349H0Z" transform="translate(64.366 268.479) rotate(90)" fill="#cdcdce" stroke="#fff" stroke-width="2"/><path d="M0,0H9.37V2.349H0Z" transform="translate(46.725 268.479) rotate(90)" fill="#cdcdce" stroke="#fff" stroke-width="2"/><path d="M0,0H9.37V2.349H0Z" transform="translate(37.103 268.479) rotate(90)" fill="#cdcdce" stroke="#fff" stroke-width="2"/><path d="M0,0H9.37V2.349H0Z" transform="translate(28.282 268.479) rotate(90)" fill="#cdcdce" stroke="#fff" stroke-width="2"/><path d="M0,0H9.37V2.349H0Z" transform="translate(19.461 268.479) rotate(90)" fill="#cdcdce" stroke="#fff" stroke-width="2"/><path d="M3.485,0,6.969,6.415H0Z" transform="translate(0 276.788) rotate(-90)" fill="#cdcdce"/><path d="M0,0H23.53V2.349H0Z" transform="translate(304.927 261.51) rotate(90)" fill="#cdcdce" stroke="#fff" stroke-width="2"/><path d="M0,0H9.37V2.349H0Z" transform="translate(278.465 268.479) rotate(90)" fill="#cdcdce" stroke="#fff" stroke-width="2"/><path d="M0,0H9.37V2.349H0Z" transform="translate(287.286 268.479) rotate(90)" fill="#cdcdce" stroke="#fff" stroke-width="2"/><path d="M0,0H9.37V2.349H0Z" transform="translate(296.106 268.479) rotate(90)" fill="#cdcdce" stroke="#fff" stroke-width="2"/><path d="M0,0H23.53V2.349H0Z" transform="translate(349.03 261.51) rotate(90)" fill="#cdcdce" stroke="#fff" stroke-width="2"/><path d="M0,0H9.37V2.349H0Z" transform="translate(313.747 268.479) rotate(90)" fill="#cdcdce" stroke="#fff" stroke-width="2"/><path d="M0,0H9.37V2.349H0Z" transform="translate(322.568 268.479) rotate(90)" fill="#cdcdce" stroke="#fff" stroke-width="2"/><path d="M0,0H9.37V2.349H0Z" transform="translate(331.388 268.479) rotate(90)" fill="#cdcdce" stroke="#fff" stroke-width="2"/><path d="M0,0H9.37V2.349H0Z" transform="translate(340.209 268.479) rotate(90)" fill="#cdcdce" stroke="#fff" stroke-width="2"/><path d="M0,0H23.53V2.349H0Z" transform="translate(393.934 261.51) rotate(90)" fill="#cdcdce" stroke="#fff" stroke-width="2"/><path d="M0,0H9.37V2.349H0Z" transform="translate(357.85 268.479) rotate(90)" fill="#cdcdce" stroke="#fff" stroke-width="2"/><path d="M0,0H9.37V2.349H0Z" transform="translate(366.671 268.479) rotate(90)" fill="#cdcdce" stroke="#fff" stroke-width="2"/><path d="M0,0H9.37V2.349H0Z" transform="translate(375.491 268.479) rotate(90)" fill="#cdcdce" stroke="#fff" stroke-width="2"/><path d="M0,0H9.37V2.349H0Z" transform="translate(385.114 268.479) rotate(90)" fill="#cdcdce" stroke="#fff" stroke-width="2"/><path d="M0,0H23.53V2.349H0Z" transform="translate(438.037 261.51) rotate(90)" fill="#cdcdce" stroke="#fff" stroke-width="2"/><path d="M0,0H9.37V2.349H0Z" transform="translate(402.755 268.479) rotate(90)" fill="#cdcdce" stroke="#fff" stroke-width="2"/><path d="M0,0H9.37V2.349H0Z" transform="translate(411.575 268.479) rotate(90)" fill="#cdcdce" stroke="#fff" stroke-width="2"/><path d="M0,0H9.37V2.349H0Z" transform="translate(420.396 268.479) rotate(90)" fill="#cdcdce" stroke="#fff" stroke-width="2"/><path d="M0,0H9.37V2.349H0Z" transform="translate(429.217 268.479) rotate(90)" fill="#cdcdce" stroke="#fff" stroke-width="2"/><path d="M0,0H23.53V2.349H0Z" transform="translate(482.14 261.51) rotate(90)" fill="#cdcdce" stroke="#fff" stroke-width="2"/><path d="M0,0H9.37V2.349H0Z" transform="translate(446.858 268.479) rotate(90)" fill="#cdcdce" stroke="#fff" stroke-width="2"/><path d="M0,0H9.37V2.349H0Z" transform="translate(455.678 268.479) rotate(90)" fill="#cdcdce" stroke="#fff" stroke-width="2"/><path d="M0,0H9.37V2.349H0Z" transform="translate(464.499 268.479) rotate(90)" fill="#cdcdce" stroke="#fff" stroke-width="2"/><path d="M0,0H9.37V2.349H0Z" transform="translate(473.319 268.479) rotate(90)" fill="#cdcdce" stroke="#fff" stroke-width="2"/><path d="M0,0H9.37V2.349H0Z" transform="translate(490.96 268.479) rotate(90)" fill="#cdcdce" stroke="#fff" stroke-width="2"/><path d="M0,0H9.37V2.349H0Z" transform="translate(500.583 268.479) rotate(90)" fill="#cdcdce" stroke="#fff" stroke-width="2"/><path d="M0,0H9.37V2.349H0Z" transform="translate(509.403 268.479) rotate(90)" fill="#cdcdce" stroke="#fff" stroke-width="2"/><path d="M0,0H9.37V2.349H0Z" transform="translate(518.224 268.479) rotate(90)" fill="#cdcdce" stroke="#fff" stroke-width="2"/><path d="M3.485,0,6.969,6.415H0Z" transform="translate(531.566 269.819) rotate(90)" fill="#cdcdce"/><g transform="translate(13.378 17.364)" fill="none" opacity="0.25"><path d="M255,0C395.833,0,510,114.391,510,255.5S395.833,511,255,511,0,396.609,0,255.5,114.167,0,255,0Z" stroke="none"/><path d="M 255 1 C 237.7659301757812 1 220.5429382324219 2.7396240234375 203.8095092773438 6.170501708984375 C 187.5018005371094 9.514068603515625 171.4609985351562 14.50311279296875 156.1326904296875 20.99917602539062 C 141.0824279785156 27.37738037109375 126.5663146972656 35.27194213867188 112.9877014160156 44.4635009765625 C 99.53768920898438 53.56793212890625 86.88986206054688 64.0238037109375 75.39556884765625 75.54061889648438 C 63.9012451171875 87.0574951171875 53.4658203125 99.73013305664062 44.37911987304688 113.2065734863281 C 35.2054443359375 126.8120727539062 27.32626342773438 141.3567504882812 20.96044921875 156.4367370605469 C 14.47698974609375 171.7953796386719 9.49755859375 187.8679504394531 6.160491943359375 204.2079467773438 C 2.736236572265625 220.9745483398438 1 238.2317504882812 1 255.5 C 1 272.7682495117188 2.736236572265625 290.0254516601562 6.160491943359375 306.7920532226562 C 9.49755859375 323.132080078125 14.47698974609375 339.2046203613281 20.96044921875 354.563232421875 C 27.32626342773438 369.6432495117188 35.2054443359375 384.1879272460938 44.37911987304688 397.7934265136719 C 53.4658203125 411.2698669433594 63.9012451171875 423.9425048828125 75.39556884765625 435.4593811035156 C 86.88986206054688 446.9761962890625 99.53768920898438 457.4320678710938 112.9877014160156 466.5364990234375 C 126.5663146972656 475.7280578613281 141.0824279785156 483.6226196289062 156.1326904296875 490.0008239746094 C 171.4609985351562 496.4968872070312 187.5018005371094 501.4859313964844 203.8095092773438 504.8294982910156 C 220.5429382324219 508.2603759765625 237.7659301757812 510 255 510 C 272.2340698242188 510 289.4570617675781 508.2603759765625 306.1904907226562 504.8294982910156 C 322.4981689453125 501.4859313964844 338.5390014648438 496.4968872070312 353.8673095703125 490.0008239746094 C 368.9175415039062 483.6226196289062 383.4336853027344 475.7280578613281 397.0123291015625 466.5364990234375 C 410.4623107910156 457.4320678710938 423.110107421875 446.9761962890625 434.6044311523438 435.4593811035156 C 446.0987548828125 423.9425048828125 456.5341796875 411.2698669433594 465.6208801269531 397.7934265136719 C 474.7945556640625 384.1879272460938 482.6737365722656 369.6432495117188 489.03955078125 354.563232421875 C 495.5230102539062 339.2046203613281 500.50244140625 323.132080078125 503.8395080566406 306.7920532226562 C 507.2637634277344 290.0254516601562 509 272.7682495117188 509 255.5 C 509 238.2317504882812 507.2637634277344 220.9745483398438 503.8395080566406 204.2079467773438 C 500.50244140625 187.8679504394531 495.5230102539062 171.7953796386719 489.03955078125 156.4367370605469 C 482.6737365722656 141.3567504882812 474.7945556640625 126.8120727539062 465.6208801269531 113.2065734863281 C 456.5341796875 99.73013305664062 446.0987548828125 87.0574951171875 434.6044311523438 75.54061889648438 C 423.110107421875 64.0238037109375 410.4623107910156 53.56793212890625 397.0123291015625 44.4635009765625 C 383.4336853027344 35.27194213867188 368.9175415039062 27.37738037109375 353.8673095703125 20.99917602539062 C 338.5390014648438 14.50311279296875 322.4981689453125 9.514068603515625 306.1904907226562 6.170501708984375 C 289.4570617675781 2.7396240234375 272.2340698242188 1 255 1 M 255 0 C 395.8325805664062 0 510 114.3912353515625 510 255.5 C 510 396.6087646484375 395.8325805664062 511 255 511 C 114.1674499511719 511 0 396.6087646484375 0 255.5 C 0 114.3912353515625 114.1674499511719 0 255 0 Z" stroke="none" fill="#cdcdce"/></g></g><g transform="translate(430.574 116.031)" clip-path="url(#a)"><path d="M0,0H259.484V256.218H0Z" transform="translate(255.559 255.074)" opacity="0.15" fill="url(#b)"/></g><g transform="translate(430.574 116.031)" clip-path="url(#c)"><path d="M0,0H254.723V257.121H0Z" transform="translate(0.427 0.773)" opacity="0.1" fill="url(#d)"/></g></g></svg>