<svg xmlns="http://www.w3.org/2000/svg" xmlns:xlink="http://www.w3.org/1999/xlink" width="481.752" height="494.533" viewBox="0 0 481.752 494.533"><defs><clipPath id="a"><path d="M231.1,0C103.469,0,0,103.671,0,231.557S103.469,463.113,231.1,463.113s231.1-103.671,231.1-231.557S358.738,0,231.1,0Z" transform="translate(0 0)" fill="none" stroke="#cdcdce" stroke-width="1"/></clipPath><linearGradient id="b" x1="0.021" y1="0.961" x2="0.981" gradientUnits="objectBoundingBox"><stop offset="0" stop-color="red" stop-opacity="0.78"/><stop offset="0.97" stop-color="#be5252" stop-opacity="0.18"/><stop offset="1" stop-color="#bc5454" stop-opacity="0.322"/></linearGradient><clipPath id="c"><path d="M231.1,0C103.469,0,0,103.671,0,231.557S103.469,463.113,231.1,463.113s231.1-103.671,231.1-231.557S358.738,0,231.1,0Z" transform="translate(0 0)" fill="none" stroke="#cdcdce" stroke-width="1" opacity="0.5"/></clipPath><linearGradient id="d" x1="0.707" y1="0.281" x2="0" y2="1" gradientUnits="objectBoundingBox"><stop offset="0" stop-color="#00ad50"/><stop offset="1" stop-color="#4cd43b" stop-opacity="0.412"/></linearGradient></defs><g transform="translate(0 0)"><path d="M0,0H23.9V2.337H0Z" transform="translate(231.034 47.06)" fill="#cdcdce" stroke="#fff" stroke-width="2"/><path d="M0,0H9.517V2.337H0Z" transform="translate(238.113 11.965)" fill="#cdcdce" stroke="#fff" stroke-width="2"/><path d="M0,0H9.517V2.337H0Z" transform="translate(238.113 20.738)" fill="#cdcdce" stroke="#fff" stroke-width="2"/><path d="M0,0H9.517V2.337H0Z" transform="translate(238.113 29.512)" fill="#cdcdce" stroke="#fff" stroke-width="2"/><path d="M0,0H9.517V2.337H0Z" transform="translate(238.113 38.286)" fill="#cdcdce" stroke="#fff" stroke-width="2"/><path d="M0,0H23.9V2.337H0Z" transform="translate(231.034 91.728)" fill="#cdcdce" stroke="#fff" stroke-width="2"/><path d="M0,0H9.517V2.337H0Z" transform="translate(238.113 55.834)" fill="#cdcdce" stroke="#fff" stroke-width="2"/><path d="M0,0H9.517V2.337H0Z" transform="translate(238.113 65.406)" fill="#cdcdce" stroke="#fff" stroke-width="2"/><path d="M0,0H9.517V2.337H0Z" transform="translate(238.113 74.18)" fill="#cdcdce" stroke="#fff" stroke-width="2"/><path d="M0,0H9.517V2.337H0Z" transform="translate(238.113 82.954)" fill="#cdcdce" stroke="#fff" stroke-width="2"/><path d="M0,0H23.9V2.337H0Z" transform="translate(231.034 135.598)" fill="#cdcdce" stroke="#fff" stroke-width="2"/><path d="M0,0H9.517V2.337H0Z" transform="translate(238.113 100.502)" fill="#cdcdce" stroke="#fff" stroke-width="2"/><path d="M0,0H9.517V2.337H0Z" transform="translate(238.113 109.276)" fill="#cdcdce" stroke="#fff" stroke-width="2"/><path d="M0,0H9.517V2.337H0Z" transform="translate(238.113 118.05)" fill="#cdcdce" stroke="#fff" stroke-width="2"/><path d="M0,0H9.517V2.337H0Z" transform="translate(238.113 126.824)" fill="#cdcdce" stroke="#fff" stroke-width="2"/><path d="M0,0H23.9V2.337H0Z" transform="translate(231.034 180.265)" fill="#cdcdce" stroke="#fff" stroke-width="2"/><path d="M0,0H9.517V2.337H0Z" transform="translate(238.113 144.372)" fill="#cdcdce" stroke="#fff" stroke-width="2"/><path d="M0,0H9.517V2.337H0Z" transform="translate(238.113 153.146)" fill="#cdcdce" stroke="#fff" stroke-width="2"/><path d="M0,0H9.517V2.337H0Z" transform="translate(238.113 161.92)" fill="#cdcdce" stroke="#fff" stroke-width="2"/><path d="M0,0H9.517V2.337H0Z" transform="translate(238.113 171.491)" fill="#cdcdce" stroke="#fff" stroke-width="2"/><path d="M0,0H23.9V2.337H0Z" transform="translate(231.034 224.135)" fill="#cdcdce" stroke="#fff" stroke-width="2"/><path d="M0,0H9.517V2.337H0Z" transform="translate(238.113 189.039)" fill="#cdcdce" stroke="#fff" stroke-width="2"/><path d="M0,0H9.517V2.337H0Z" transform="translate(238.113 197.813)" fill="#cdcdce" stroke="#fff" stroke-width="2"/><path d="M0,0H9.517V2.337H0Z" transform="translate(238.113 206.587)" fill="#cdcdce" stroke="#fff" stroke-width="2"/><path d="M0,0H9.517V2.337H0Z" transform="translate(238.113 215.361)" fill="#cdcdce" stroke="#fff" stroke-width="2"/><path d="M0,0H23.9V2.337H0Z" transform="translate(231.034 268.005)" fill="#cdcdce" stroke="#fff" stroke-width="2"/><path d="M0,0H9.517V2.337H0Z" transform="translate(238.113 232.909)" fill="#cdcdce" stroke="#fff" stroke-width="2"/><path d="M3.721,9.652V5.711H0V3.374H3.721V0h2.3V3.374H9.518V5.711H6.025V9.652Z" transform="translate(238.112 242.297)" fill="#cdcdce" stroke="#fff" stroke-width="2"/><path d="M0,0H9.517V2.337H0Z" transform="translate(238.113 259.231)" fill="#cdcdce" stroke="#fff" stroke-width="2"/><path d="M0,0H23.9V2.337H0Z" transform="translate(231.034 312.673)" fill="#cdcdce" stroke="#fff" stroke-width="2"/><path d="M0,0H9.517V2.337H0Z" transform="translate(238.113 276.779)" fill="#cdcdce" stroke="#fff" stroke-width="2"/><path d="M0,0H9.517V2.337H0Z" transform="translate(238.113 286.351)" fill="#cdcdce" stroke="#fff" stroke-width="2"/><path d="M0,0H9.517V2.337H0Z" transform="translate(238.113 295.125)" fill="#cdcdce" stroke="#fff" stroke-width="2"/><path d="M0,0H9.517V2.337H0Z" transform="translate(238.113 303.899)" fill="#cdcdce" stroke="#fff" stroke-width="2"/><path d="M0,0H23.9V2.337H0Z" transform="translate(231.034 356.543)" fill="#cdcdce" stroke="#fff" stroke-width="2"/><path d="M0,0H9.517V2.337H0Z" transform="translate(238.113 321.447)" fill="#cdcdce" stroke="#fff" stroke-width="2"/><path d="M0,0H9.517V2.337H0Z" transform="translate(238.113 330.22)" fill="#cdcdce" stroke="#fff" stroke-width="2"/><path d="M0,0H9.517V2.337H0Z" transform="translate(238.113 338.995)" fill="#cdcdce" stroke="#fff" stroke-width="2"/><path d="M0,0H9.517V2.337H0Z" transform="translate(238.113 347.768)" fill="#cdcdce" stroke="#fff" stroke-width="2"/><path d="M0,0H23.9V2.337H0Z" transform="translate(231.034 401.21)" fill="#cdcdce" stroke="#fff" stroke-width="2"/><path d="M0,0H9.517V2.337H0Z" transform="translate(238.113 365.316)" fill="#cdcdce" stroke="#fff" stroke-width="2"/><path d="M0,0H9.517V2.337H0Z" transform="translate(238.113 374.09)" fill="#cdcdce" stroke="#fff" stroke-width="2"/><path d="M0,0H9.517V2.337H0Z" transform="translate(238.113 382.864)" fill="#cdcdce" stroke="#fff" stroke-width="2"/><path d="M0,0H9.517V2.337H0Z" transform="translate(238.113 392.436)" fill="#cdcdce" stroke="#fff" stroke-width="2"/><path d="M0,0H23.9V2.337H0Z" transform="translate(231.034 445.08)" fill="#cdcdce" stroke="#fff" stroke-width="2"/><path d="M0,0H9.517V2.337H0Z" transform="translate(238.113 409.984)" fill="#cdcdce" stroke="#fff" stroke-width="2"/><path d="M0,0H9.517V2.337H0Z" transform="translate(238.113 418.758)" fill="#cdcdce" stroke="#fff" stroke-width="2"/><path d="M0,0H9.517V2.337H0Z" transform="translate(238.113 427.532)" fill="#cdcdce" stroke="#fff" stroke-width="2"/><path d="M0,0H9.517V2.337H0Z" transform="translate(238.113 436.306)" fill="#cdcdce" stroke="#fff" stroke-width="2"/><path d="M0,0H9.517V2.337H0Z" transform="translate(238.113 453.854)" fill="#cdcdce" stroke="#fff" stroke-width="2"/><path d="M0,0H9.517V2.337H0Z" transform="translate(238.113 462.628)" fill="#cdcdce" stroke="#fff" stroke-width="2"/><path d="M0,0H9.517V2.337H0Z" transform="translate(238.113 471.402)" fill="#cdcdce" stroke="#fff" stroke-width="2"/><path d="M0,0H9.517V2.337H0Z" transform="translate(238.113 480.176)" fill="#cdcdce" stroke="#fff" stroke-width="2"/><path d="M3.539,0,7.079,6.381H0Z" transform="translate(246.426 494.533) rotate(180)" fill="#cdcdce"/><path d="M3.539,0,7.079,6.381H0Z" transform="translate(239.348)" fill="#cdcdce"/><path d="M0,0H21.325V2.129H0Z" transform="translate(210.946 237.003) rotate(90)" fill="#cdcdce" stroke="#fff" stroke-width="2"/><path d="M0,0H8.491V2.129H0Z" transform="translate(234.928 243.319) rotate(90)" fill="#cdcdce" stroke="#fff" stroke-width="2"/><path d="M0,0H8.491V2.129H0Z" transform="translate(226.934 243.319) rotate(90)" fill="#cdcdce" stroke="#fff" stroke-width="2"/><path d="M0,0H8.491V2.129H0Z" transform="translate(218.94 243.319) rotate(90)" fill="#cdcdce" stroke="#fff" stroke-width="2"/><path d="M0,0H21.325V2.129H0Z" transform="translate(170.977 237.003) rotate(90)" fill="#cdcdce" stroke="#fff" stroke-width="2"/><path d="M0,0H8.491V2.129H0Z" transform="translate(202.952 243.319) rotate(90)" fill="#cdcdce" stroke="#fff" stroke-width="2"/><path d="M0,0H8.491V2.129H0Z" transform="translate(194.958 243.319) rotate(90)" fill="#cdcdce" stroke="#fff" stroke-width="2"/><path d="M0,0H8.491V2.129H0Z" transform="translate(186.965 243.319) rotate(90)" fill="#cdcdce" stroke="#fff" stroke-width="2"/><path d="M0,0H8.491V2.129H0Z" transform="translate(178.971 243.319) rotate(90)" fill="#cdcdce" stroke="#fff" stroke-width="2"/><path d="M0,0H21.325V2.129H0Z" transform="translate(130.28 237.003) rotate(90)" fill="#cdcdce" stroke="#fff" stroke-width="2"/><path d="M0,0H8.491V2.129H0Z" transform="translate(162.983 243.319) rotate(90)" fill="#cdcdce" stroke="#fff" stroke-width="2"/><path d="M0,0H8.491V2.129H0Z" transform="translate(154.989 243.319) rotate(90)" fill="#cdcdce" stroke="#fff" stroke-width="2"/><path d="M0,0H8.491V2.129H0Z" transform="translate(146.995 243.319) rotate(90)" fill="#cdcdce" stroke="#fff" stroke-width="2"/><path d="M0,0H8.491V2.129H0Z" transform="translate(138.274 243.319) rotate(90)" fill="#cdcdce" stroke="#fff" stroke-width="2"/><path d="M0,0H21.325V2.129H0Z" transform="translate(90.31 237.003) rotate(90)" fill="#cdcdce" stroke="#fff" stroke-width="2"/><path d="M0,0H8.491V2.129H0Z" transform="translate(122.286 243.319) rotate(90)" fill="#cdcdce" stroke="#fff" stroke-width="2"/><path d="M0,0H8.491V2.129H0Z" transform="translate(114.292 243.319) rotate(90)" fill="#cdcdce" stroke="#fff" stroke-width="2"/><path d="M0,0H8.491V2.129H0Z" transform="translate(106.298 243.319) rotate(90)" fill="#cdcdce" stroke="#fff" stroke-width="2"/><path d="M0,0H8.491V2.129H0Z" transform="translate(98.304 243.319) rotate(90)" fill="#cdcdce" stroke="#fff" stroke-width="2"/><path d="M0,0H21.325V2.129H0Z" transform="translate(50.34 237.003) rotate(90)" fill="#cdcdce" stroke="#fff" stroke-width="2"/><path d="M0,0H8.491V2.129H0Z" transform="translate(82.316 243.319) rotate(90)" fill="#cdcdce" stroke="#fff" stroke-width="2"/><path d="M0,0H8.491V2.129H0Z" transform="translate(74.322 243.319) rotate(90)" fill="#cdcdce" stroke="#fff" stroke-width="2"/><path d="M0,0H8.491V2.129H0Z" transform="translate(66.328 243.319) rotate(90)" fill="#cdcdce" stroke="#fff" stroke-width="2"/><path d="M0,0H8.491V2.129H0Z" transform="translate(58.334 243.319) rotate(90)" fill="#cdcdce" stroke="#fff" stroke-width="2"/><path d="M0,0H8.491V2.129H0Z" transform="translate(42.346 243.319) rotate(90)" fill="#cdcdce" stroke="#fff" stroke-width="2"/><path d="M0,0H8.491V2.129H0Z" transform="translate(33.626 243.319) rotate(90)" fill="#cdcdce" stroke="#fff" stroke-width="2"/><path d="M0,0H8.491V2.129H0Z" transform="translate(25.632 243.319) rotate(90)" fill="#cdcdce" stroke="#fff" stroke-width="2"/><path d="M0,0H8.491V2.129H0Z" transform="translate(17.638 243.319) rotate(90)" fill="#cdcdce" stroke="#fff" stroke-width="2"/><path d="M3.158,0,6.316,5.814H0Z" transform="translate(0 250.85) rotate(-90)" fill="#cdcdce"/><path d="M0,0H21.325V2.129H0Z" transform="translate(276.352 237.003) rotate(90)" fill="#cdcdce" stroke="#fff" stroke-width="2"/><path d="M0,0H8.491V2.129H0Z" transform="translate(252.37 243.319) rotate(90)" fill="#cdcdce" stroke="#fff" stroke-width="2"/><path d="M0,0H8.491V2.129H0Z" transform="translate(260.364 243.319) rotate(90)" fill="#cdcdce" stroke="#fff" stroke-width="2"/><path d="M0,0H8.491V2.129H0Z" transform="translate(268.358 243.319) rotate(90)" fill="#cdcdce" stroke="#fff" stroke-width="2"/><path d="M0,0H21.325V2.129H0Z" transform="translate(316.321 237.003) rotate(90)" fill="#cdcdce" stroke="#fff" stroke-width="2"/><path d="M0,0H8.491V2.129H0Z" transform="translate(284.346 243.319) rotate(90)" fill="#cdcdce" stroke="#fff" stroke-width="2"/><path d="M0,0H8.491V2.129H0Z" transform="translate(292.339 243.319) rotate(90)" fill="#cdcdce" stroke="#fff" stroke-width="2"/><path d="M0,0H8.491V2.129H0Z" transform="translate(300.333 243.319) rotate(90)" fill="#cdcdce" stroke="#fff" stroke-width="2"/><path d="M0,0H8.491V2.129H0Z" transform="translate(308.327 243.319) rotate(90)" fill="#cdcdce" stroke="#fff" stroke-width="2"/><path d="M0,0H21.325V2.129H0Z" transform="translate(357.018 237.003) rotate(90)" fill="#cdcdce" stroke="#fff" stroke-width="2"/><path d="M0,0H8.491V2.129H0Z" transform="translate(324.315 243.319) rotate(90)" fill="#cdcdce" stroke="#fff" stroke-width="2"/><path d="M0,0H8.491V2.129H0Z" transform="translate(332.309 243.319) rotate(90)" fill="#cdcdce" stroke="#fff" stroke-width="2"/><path d="M0,0H8.491V2.129H0Z" transform="translate(340.303 243.319) rotate(90)" fill="#cdcdce" stroke="#fff" stroke-width="2"/><path d="M0,0H8.491V2.129H0Z" transform="translate(349.024 243.319) rotate(90)" fill="#cdcdce" stroke="#fff" stroke-width="2"/><path d="M0,0H21.325V2.129H0Z" transform="translate(396.988 237.003) rotate(90)" fill="#cdcdce" stroke="#fff" stroke-width="2"/><path d="M0,0H8.491V2.129H0Z" transform="translate(365.012 243.319) rotate(90)" fill="#cdcdce" stroke="#fff" stroke-width="2"/><path d="M0,0H8.491V2.129H0Z" transform="translate(373.006 243.319) rotate(90)" fill="#cdcdce" stroke="#fff" stroke-width="2"/><path d="M0,0H8.491V2.129H0Z" transform="translate(381 243.319) rotate(90)" fill="#cdcdce" stroke="#fff" stroke-width="2"/><path d="M0,0H8.491V2.129H0Z" transform="translate(388.994 243.319) rotate(90)" fill="#cdcdce" stroke="#fff" stroke-width="2"/><path d="M0,0H21.325V2.129H0Z" transform="translate(436.958 237.003) rotate(90)" fill="#cdcdce" stroke="#fff" stroke-width="2"/><path d="M0,0H8.491V2.129H0Z" transform="translate(404.982 243.319) rotate(90)" fill="#cdcdce" stroke="#fff" stroke-width="2"/><path d="M0,0H8.491V2.129H0Z" transform="translate(412.976 243.319) rotate(90)" fill="#cdcdce" stroke="#fff" stroke-width="2"/><path d="M0,0H8.491V2.129H0Z" transform="translate(420.97 243.319) rotate(90)" fill="#cdcdce" stroke="#fff" stroke-width="2"/><path d="M0,0H8.491V2.129H0Z" transform="translate(428.964 243.319) rotate(90)" fill="#cdcdce" stroke="#fff" stroke-width="2"/><path d="M0,0H8.491V2.129H0Z" transform="translate(444.952 243.319) rotate(90)" fill="#cdcdce" stroke="#fff" stroke-width="2"/><path d="M0,0H8.491V2.129H0Z" transform="translate(453.672 243.319) rotate(90)" fill="#cdcdce" stroke="#fff" stroke-width="2"/><path d="M0,0H8.491V2.129H0Z" transform="translate(461.666 243.319) rotate(90)" fill="#cdcdce" stroke="#fff" stroke-width="2"/><path d="M0,0H8.491V2.129H0Z" transform="translate(469.66 243.319) rotate(90)" fill="#cdcdce" stroke="#fff" stroke-width="2"/><path d="M3.158,0,6.316,5.814H0Z" transform="translate(481.752 244.534) rotate(90)" fill="#cdcdce"/><g transform="translate(12.125 15.737)" fill="#e5e5e5" opacity="0.25"><path d="M231.1,0c127.635,0,231.1,103.671,231.1,231.557S358.738,463.113,231.1,463.113,0,359.442,0,231.557,103.469,0,231.1,0Z" stroke="none"/><path d="M 231.1034851074219 0.999969482421875 C 215.49072265625 0.999969482421875 199.8880615234375 2.575927734375 184.7288818359375 5.684051513671875 C 169.9555358886719 8.713043212890625 155.4238891601563 13.23275756835938 141.5377807617188 19.1175537109375 C 127.9034729003906 24.895751953125 114.7530822753906 32.04751586914063 102.451904296875 40.37432861328125 C 90.26730346679688 48.62222290039063 78.80935668945313 58.09445190429688 68.39642333984375 68.52780151367188 C 57.98348999023438 78.96115112304688 48.52978515625 90.44155883789063 40.29794311523438 102.650146484375 C 31.98736572265625 114.9756164550781 24.8494873046875 128.1519775390625 19.08255004882813 141.8132629394531 C 13.20907592773438 155.7269287109375 8.6981201171875 170.2872619628906 5.675018310546875 185.0899658203125 C 2.572906494140625 200.2792053222656 1 215.9128570556641 1 231.5566253662109 C 1 247.2003936767578 2.572906494140625 262.8340454101563 5.675018310546875 278.0232543945313 C 8.6981201171875 292.8259887695313 13.20907592773438 307.3863525390625 19.08255004882813 321.2999877929688 C 24.8494873046875 334.9612731933594 31.98736572265625 348.1376342773438 40.29794311523438 360.4631042480469 C 48.52978515625 372.6716918945313 57.98348999023438 384.152099609375 68.39642333984375 394.58544921875 C 78.80935668945313 405.018798828125 90.26730346679688 414.4910278320313 102.451904296875 422.7389221191406 C 114.7530822753906 431.0657348632813 127.9034729003906 438.2174987792969 141.5377807617188 443.9956970214844 C 155.4238891601563 449.8804931640625 169.9555358886719 454.4002075195313 184.7288818359375 457.42919921875 C 199.8880615234375 460.5373229980469 215.49072265625 462.11328125 231.1034851074219 462.11328125 C 246.7162475585938 462.11328125 262.3189086914063 460.5373229980469 277.47802734375 457.42919921875 C 292.2514038085938 454.4002075195313 306.7830200195313 449.8804931640625 320.669189453125 443.9956970214844 C 334.303466796875 438.2174987792969 347.4538879394531 431.0657348632813 359.7550659179688 422.7389221191406 C 371.9396667480469 414.4910278320313 383.3975524902344 405.018798828125 393.8104858398438 394.58544921875 C 404.2234802246094 384.152099609375 413.6771240234375 372.6716918945313 421.9089660644531 360.4631042480469 C 430.2196044921875 348.1376342773438 437.3574829101563 334.9612731933594 443.1244201660156 321.2999877929688 C 448.9978942871094 307.3863525390625 453.5088500976563 292.8259887695313 456.5319519042969 278.0232543945313 C 459.6340637207031 262.8340454101563 461.2069702148438 247.2003936767578 461.2069702148438 231.5566253662109 C 461.2069702148438 215.9128570556641 459.6340637207031 200.2792053222656 456.5319519042969 185.0899658203125 C 453.5088500976563 170.2872619628906 448.9978942871094 155.7269287109375 443.1244201660156 141.8132629394531 C 437.3574829101563 128.1519775390625 430.2196044921875 114.9756164550781 421.9089660644531 102.650146484375 C 413.6771240234375 90.44155883789063 404.2234802246094 78.96115112304688 393.8104858398438 68.52780151367188 C 383.3975524902344 58.09445190429688 371.9396667480469 48.62222290039063 359.7550659179688 40.37432861328125 C 347.4538879394531 32.04751586914063 334.303466796875 24.895751953125 320.669189453125 19.1175537109375 C 306.7830200195313 13.23275756835938 292.2514038085938 8.713043212890625 277.47802734375 5.684051513671875 C 262.3189086914063 2.575927734375 246.7162475585938 0.999969482421875 231.1034851074219 0.999969482421875 M 231.1034851074219 -3.0517578125e-05 C 358.7383728027344 -3.0517578125e-05 462.2069702148438 103.6714477539063 462.2069702148438 231.5566253662109 C 462.2069702148438 359.4418029785156 358.7383728027344 463.11328125 231.1034851074219 463.11328125 C 103.4685363769531 463.11328125 0 359.4418029785156 0 231.5566253662109 C 0 103.6714477539063 103.4685363769531 -3.0517578125e-05 231.1034851074219 -3.0517578125e-05 Z" stroke="none" fill="#cdcdce"/></g><g transform="translate(12.125 15.737)" clip-path="url(#a)"><path d="M235.167,0H0V232.208H235.167Z" transform="translate(-4.183 230.916)" opacity="0.15" fill="url(#b)"/></g><g transform="translate(12.125 15.737)" clip-path="url(#c)"><path d="M230.853,0H0V233.025H230.853Z" transform="translate(231.355 0.445)" opacity="0.1" fill="url(#d)"/></g></g></svg>