<svg xmlns="http://www.w3.org/2000/svg" width="17.566" height="17.613" viewBox="0 0 17.566 17.613"><path d="M11.262-4.629H11.5a4.594,4.594,0,0,0,3.3-1.131,4.134,4.134,0,0,0,1.189-3.146,4.01,4.01,0,0,0-1.107-2.977,4.122,4.122,0,0,0-3.041-1.1h-.574ZM8.613.234V-2.4H8.227A8.374,8.374,0,0,1,4.541-3.17a5.718,5.718,0,0,1-2.49-2.3,6.6,6.6,0,0,1-.9-3.41,6.566,6.566,0,0,1,.82-3.275,5.775,5.775,0,0,1,2.355-2.285,7.48,7.48,0,0,1,3.6-.826h.691v-2.109h2.648v2.109h.715a7.516,7.516,0,0,1,3.6.82,5.652,5.652,0,0,1,2.332,2.268,6.686,6.686,0,0,1,.8,3.3,6.609,6.609,0,0,1-.9,3.434,5.716,5.716,0,0,1-2.479,2.285,8.41,8.41,0,0,1-3.7.762h-.375V.234Zm0-13.219H8.039a4.105,4.105,0,0,0-3.047,1.107,4.027,4.027,0,0,0-1.1,2.971A4.153,4.153,0,0,0,5.074-5.771,4.6,4.6,0,0,0,8.4-4.629h.211Z" transform="translate(-1.148 17.379)" fill="#22242b"/></svg>