<svg xmlns="http://www.w3.org/2000/svg" width="12.504" height="24.129" viewBox="0 0 12.504 24.129"><path d="M7.922-18.363A6.526,6.526,0,0,1,12.1-17.145a4.089,4.089,0,0,1,1.529,3.387q0,3.434-3.551,4.043v.07q4.395.516,4.395,4.7a4.81,4.81,0,0,1-1.547,3.832A6.277,6.277,0,0,1,8.66.234,8.907,8.907,0,0,1,4.723-.527V5.766H1.969V-12.844a5.268,5.268,0,0,1,1.564-4.078A6.237,6.237,0,0,1,7.922-18.363Zm-.047,2.215q-3.152,0-3.152,3.527v9.715a6.871,6.871,0,0,0,3.434.914q3.5,0,3.5-3.164a3.022,3.022,0,0,0-.943-2.385,3.976,3.976,0,0,0-2.725-.838H6.914v-2.227h.844a3.212,3.212,0,0,0,2.3-.756,2.822,2.822,0,0,0,.8-2.15,2.439,2.439,0,0,0-.791-1.957A3.246,3.246,0,0,0,7.875-16.148Z" transform="translate(-1.969 18.363)" fill="#22242b"/></svg>