<svg xmlns="http://www.w3.org/2000/svg" width="11.953" height="13.195" viewBox="0 0 11.953 13.195"><path d="M7.512.234A5.669,5.669,0,0,1,3.234-1.254,6.479,6.479,0,0,1,1.8-5.883v-7.078H4.559v7.078a4.807,4.807,0,0,0,.738,2.9,2.745,2.745,0,0,0,2.355.99A2.8,2.8,0,0,0,10.189-3.24a7.4,7.4,0,0,0,.8-3.908,20.171,20.171,0,0,0-.164-2.561,32.265,32.265,0,0,0-.633-3.252h2.789A24.091,24.091,0,0,1,13.6-9.826a23.858,23.858,0,0,1,.158,2.771q0,3.668-1.541,5.479A5.839,5.839,0,0,1,7.512.234Z" transform="translate(-1.805 12.961)" fill="#22242b"/></svg>