<svg xmlns="http://www.w3.org/2000/svg" width="13.465" height="13.195" viewBox="0 0 13.465 13.195"><path d="M13.535-5.766a6.462,6.462,0,0,1-.75,3.152A5.122,5.122,0,0,1,10.641-.5,6.943,6.943,0,0,1,7.348.234,5.963,5.963,0,0,1,2.83-1.471,6.6,6.6,0,0,1,1.2-6.234q0-6.727,7.184-6.727H14.66v2.133H11.449A7.02,7.02,0,0,1,13.535-5.766Zm-9.48-.469a4.949,4.949,0,0,0,.861,3.129,2.973,2.973,0,0,0,2.479,1.09A3.03,3.03,0,0,0,9.838-3.029,4.437,4.437,0,0,0,10.7-5.977a7.075,7.075,0,0,0-1.77-4.852H8.262a4.15,4.15,0,0,0-3.24,1.09A5.21,5.21,0,0,0,4.055-6.234Z" transform="translate(-1.195 12.961)" fill="#22242b"/></svg>