<svg xmlns="http://www.w3.org/2000/svg" width="10.16" height="17.777" viewBox="0 0 10.16 17.777"><path d="M4.031-6a4.5,4.5,0,0,0,.316,1.857A2.427,2.427,0,0,0,5.4-3.041a8.862,8.862,0,0,0,2.426.756,6.473,6.473,0,0,1,2.713,1.131,2.259,2.259,0,0,1,.814,1.8A7.347,7.347,0,0,1,9.844,4.582H7.125A12.476,12.476,0,0,0,8.273,2.625a3.764,3.764,0,0,0,.41-1.453A.913.913,0,0,0,8.121.346a8.027,8.027,0,0,0-2-.58A6.267,6.267,0,0,1,2.4-2.15,5.648,5.648,0,0,1,1.2-5.93a8.008,8.008,0,0,1,1.611-5.437A6,6,0,0,1,7.559-13.2a9.047,9.047,0,0,1,3.8.785l-.844,2.191a8.393,8.393,0,0,0-3.047-.68A2.893,2.893,0,0,0,4.84-9.65,6.752,6.752,0,0,0,4.031-6Z" transform="translate(-1.195 13.195)" fill="#22242b"/></svg>