<svg xmlns="http://www.w3.org/2000/svg" width="10.512" height="13.43" viewBox="0 0 10.512 13.43"><path d="M9.094-7.781v2.074H7.242a5.607,5.607,0,0,0-2.678.486,1.569,1.569,0,0,0-.85,1.447q0,1.828,3.293,1.828a10.639,10.639,0,0,0,4.465-1.008V-.645A10.554,10.554,0,0,1,6.82.234a7.879,7.879,0,0,1-4.336-.99,3.161,3.161,0,0,1-1.5-2.795,2.8,2.8,0,0,1,.721-2A4.511,4.511,0,0,1,3.984-6.691V-6.82A2.865,2.865,0,0,1,1.535-9.8a2.811,2.811,0,0,1,1.424-2.5,7.16,7.16,0,0,1,3.861-.9,11.458,11.458,0,0,1,4.676.926l-.914,2.1a11.388,11.388,0,0,0-2.1-.727,8.143,8.143,0,0,0-1.635-.164q-2.766,0-2.766,1.559A1.372,1.372,0,0,0,4.928-8.2a6.284,6.284,0,0,0,2.631.416Z" transform="translate(-0.984 13.195)" fill="#22242b"/></svg>