<svg xmlns="http://www.w3.org/2000/svg" width="12.246" height="18.527" viewBox="0 0 12.246 18.527"><path d="M6.023-10.852q-2.883-1.687-2.883-3.984a2.959,2.959,0,0,1,1.277-2.531,5.822,5.822,0,0,1,3.48-.926,10.444,10.444,0,0,1,2.367.264,14.707,14.707,0,0,1,2.789,1.037L11.93-14.953a16.132,16.132,0,0,0-1.992-.85A6.46,6.46,0,0,0,7.8-16.148a2.307,2.307,0,0,0-1.436.393,1.257,1.257,0,0,0-.51,1.049,1.812,1.812,0,0,0,.68,1.313,12.606,12.606,0,0,0,2.555,1.605,9.723,9.723,0,0,1,3.34,2.678,5.531,5.531,0,0,1,1.008,3.3A5.97,5.97,0,0,1,11.83-1.342,6.238,6.238,0,0,1,7.277.234,6.489,6.489,0,0,1,2.854-1.213,4.937,4.937,0,0,1,1.2-5.133,5.379,5.379,0,0,1,2.4-8.678,7.2,7.2,0,0,1,6.023-10.852Zm4.582,5.168a4.029,4.029,0,0,0-.656-2.309A5.421,5.421,0,0,0,7.9-9.691,5.314,5.314,0,0,0,5.021-8.027,4.328,4.328,0,0,0,4.055-5.18a3.121,3.121,0,0,0,.861,2.291,3.166,3.166,0,0,0,2.361.873,3.171,3.171,0,0,0,2.467-.943A3.9,3.9,0,0,0,10.605-5.684Z" transform="translate(-1.195 18.293)" fill="#22242b"/></svg>