<svg xmlns="http://www.w3.org/2000/svg" width="17.227" height="17.402" viewBox="0 0 17.227 17.402"><path d="M9.41-15a4.875,4.875,0,0,0-3.773,1.4A5.773,5.773,0,0,0,4.348-9.551a9.287,9.287,0,0,0,.861,4.178A7.659,7.659,0,0,0,7.969-2.4V0H.8V-2.4H5.086A8.223,8.223,0,0,1,2.361-5.625a9.849,9.849,0,0,1-.943-4.312,7.144,7.144,0,0,1,2.133-5.443A8.172,8.172,0,0,1,9.41-17.4a8.216,8.216,0,0,1,5.859,2A7.132,7.132,0,0,1,17.4-9.937,9.7,9.7,0,0,1,16.441-5.6,8.3,8.3,0,0,1,13.7-2.4h4.324V0h-7.2V-2.4a7.519,7.519,0,0,0,2.748-2.912,9.164,9.164,0,0,0,.9-4.236,5.752,5.752,0,0,0-1.295-4.055A4.89,4.89,0,0,0,9.41-15Z" transform="translate(-0.797 17.402)" fill="#22242b"/></svg>