<svg xmlns="http://www.w3.org/2000/svg" width="15.703" height="18.938" viewBox="0 0 15.703 18.938"><path d="M7.559,5.766V.188A6.993,6.993,0,0,1,2.8-1.775,6.65,6.65,0,0,1,1.2-6.5a10.258,10.258,0,0,1,2.578-6.645l2.063,1.359a10.2,10.2,0,0,0-1.523,2.7,7.956,7.956,0,0,0-.445,2.66q0,3.949,3.691,4.465V-8.637a4.655,4.655,0,0,1,1.131-3.357,4.064,4.064,0,0,1,3.076-1.178A4.585,4.585,0,0,1,15.5-11.467,7.107,7.107,0,0,1,16.9-6.82a7.36,7.36,0,0,1-.826,3.563,6.147,6.147,0,0,1-2.35,2.414A8.038,8.038,0,0,1,10.172.188V5.766ZM14.18-6.8a6.422,6.422,0,0,0-.639-3.129,1.947,1.947,0,0,0-1.752-1.137q-1.617,0-1.617,2.4v6.691A4.172,4.172,0,0,0,13.1-3.428,5.062,5.062,0,0,0,14.18-6.8Z" transform="translate(-1.195 13.172)" fill="#22242b"/></svg>