<svg xmlns="http://www.w3.org/2000/svg" width="16.055" height="17.637" viewBox="0 0 16.055 17.637"><path d="M17.473-8.59a9.372,9.372,0,0,1-2.092,6.5A7.565,7.565,0,0,1,9.457.234,7.618,7.618,0,0,1,3.5-2.068a9.43,9.43,0,0,1-2.08-6.545q0-4.242,2.092-6.516A7.708,7.708,0,0,1,9.48-17.4a7.552,7.552,0,0,1,5.906,2.309A9.362,9.362,0,0,1,17.473-8.59Zm-13.078,0a7.682,7.682,0,0,0,1.277,4.8A4.51,4.51,0,0,0,9.457-2.156a4.5,4.5,0,0,0,3.768-1.617A7.7,7.7,0,0,0,14.5-8.59a7.713,7.713,0,0,0-1.26-4.781A4.454,4.454,0,0,0,9.48-15a4.547,4.547,0,0,0-3.8,1.629A7.608,7.608,0,0,0,4.395-8.59Z" transform="translate(-1.418 17.402)" fill="#22242b"/></svg>