<svg xmlns="http://www.w3.org/2000/svg" width="13.77" height="18.621" viewBox="0 0 13.77 18.621"><path d="M-.047,0,5.5-12.5l-.527-1.488a3.923,3.923,0,0,0-.979-1.623A2.235,2.235,0,0,0,2.5-16.078a5.766,5.766,0,0,0-1.277.141v-2.25a7.246,7.246,0,0,1,1.758-.2,4.844,4.844,0,0,1,2.033.381,3.638,3.638,0,0,1,1.418,1.189,10.749,10.749,0,0,1,1.225,2.531L11.426-3.82a4.926,4.926,0,0,0,.691,1.348,1.055,1.055,0,0,0,.844.434,4.395,4.395,0,0,0,.762-.117V-.07a3.177,3.177,0,0,1-.785.223,5.316,5.316,0,0,1-.891.082,2.66,2.66,0,0,1-1.7-.51A3.765,3.765,0,0,1,9.27-2.016Q7.594-6.68,7.207-7.852T6.715-9.527h-.07A23.09,23.09,0,0,1,5.52-6.27L2.813,0Z" transform="translate(0.047 18.387)" fill="#22242b"/></svg>