<svg xmlns="http://www.w3.org/2000/svg" width="15.422" height="18.715" viewBox="0 0 15.422 18.715"><path d="M14.156-9.41A11.383,11.383,0,0,1,14.2-8.262a9.781,9.781,0,0,1-1.781,6.3A6.157,6.157,0,0,1,7.348.234q-4.875,0-4.875-3.949,0-.516.223-2.437L2.73-6.8a.972.972,0,0,0-.187-.7.741.741,0,0,0-.527-.176,2.048,2.048,0,0,0-1.078.3L.293-9.141a5.782,5.782,0,0,1,2.8-.727,2.116,2.116,0,0,1,1.652.6A2.255,2.255,0,0,1,5.285-7.7q0,.551-.129,1.723a17.005,17.005,0,0,0-.141,1.922,1.936,1.936,0,0,0,.639,1.576,2.79,2.79,0,0,0,1.834.533Q11.4-1.945,11.4-8.4v-.492l-.023-.492a13.734,13.734,0,0,1-4.453-.674,6.079,6.079,0,0,1-2.771-1.816,4.219,4.219,0,0,1-.943-2.736,3.541,3.541,0,0,1,1.2-2.848,4.952,4.952,0,0,1,3.316-1.02q5.273,0,6.316,6.961h1.676V-9.41ZM11.285-11.52a7.588,7.588,0,0,0-1.248-3.521,2.758,2.758,0,0,0-2.256-1.307A1.988,1.988,0,0,0,6.4-15.9a1.561,1.561,0,0,0-.492,1.219,2.575,2.575,0,0,0,1.43,2.314A7.906,7.906,0,0,0,11.285-11.52Z" transform="translate(-0.293 18.48)" fill="#22242b"/></svg>