<svg xmlns="http://www.w3.org/2000/svg" width="12.281" height="17.133" viewBox="0 0 12.281 17.133"><path d="M2.262-17.133H7.348A9.653,9.653,0,0,1,12.463-16.1a3.611,3.611,0,0,1,1.576,3.258,3.948,3.948,0,0,1-.773,2.5,3.458,3.458,0,0,1-2.227,1.254v.117a4.421,4.421,0,0,1,2.654,1.342,4.059,4.059,0,0,1,.85,2.713,4.4,4.4,0,0,1-1.611,3.615A6.931,6.931,0,0,1,8.449,0H2.262Zm2.8,7.078h2.7a4.615,4.615,0,0,0,2.566-.557,2.132,2.132,0,0,0,.809-1.893,1.9,1.9,0,0,0-.873-1.746,5.453,5.453,0,0,0-2.771-.539H5.063Zm0,2.273v5.426H8.039a4.381,4.381,0,0,0,2.654-.674,2.488,2.488,0,0,0,.9-2.127,2.259,2.259,0,0,0-.914-1.98A4.844,4.844,0,0,0,7.9-7.781Z" transform="translate(-2.262 17.133)" fill="#22242b"/></svg>