<svg xmlns="http://www.w3.org/2000/svg" width="12.27" height="13.43" viewBox="0 0 12.27 13.43"><path d="M13.465-6.5a7.074,7.074,0,0,1-1.629,4.957A5.836,5.836,0,0,1,7.3.234,6.214,6.214,0,0,1,4.09-.586,5.416,5.416,0,0,1,1.945-2.941,8.022,8.022,0,0,1,1.2-6.5a7.026,7.026,0,0,1,1.617-4.922A5.864,5.864,0,0,1,7.371-13.2a5.71,5.71,0,0,1,4.453,1.811A6.994,6.994,0,0,1,13.465-6.5Zm-9.434,0q0,4.488,3.316,4.488,3.281,0,3.281-4.488,0-4.441-3.3-4.441A2.818,2.818,0,0,0,4.811-9.8,5.844,5.844,0,0,0,4.031-6.5Z" transform="translate(-1.195 13.195)" fill="#22242b"/></svg>