<svg xmlns="http://www.w3.org/2000/svg" width="10.16" height="22.793" viewBox="0 0 10.16 22.793"><path d="M11.355.715A6.8,6.8,0,0,1,9.8,4.559H7.031a10.939,10.939,0,0,0,1.137-1.8,3.556,3.556,0,0,0,.445-1.477.781.781,0,0,0-.234-.6,2.313,2.313,0,0,0-.8-.41A10.139,10.139,0,0,0,6.07-.094,6.308,6.308,0,0,1,2.385-1.852,5.123,5.123,0,0,1,1.2-5.426a8.712,8.712,0,0,1,.68-3.41A13.189,13.189,0,0,1,3.85-12.041a38.7,38.7,0,0,1,4.283-4.2,18.5,18.5,0,0,1-3.117.141H1.9v-2.133h9.41v1.816a38.261,38.261,0,0,0-4.09,3.908A15.174,15.174,0,0,0,4.834-9.035a8.036,8.036,0,0,0-.779,3.469,3.779,3.779,0,0,0,.322,1.693,2.391,2.391,0,0,0,1.008,1.02,9.052,9.052,0,0,0,2.4.721,6.545,6.545,0,0,1,2.713,1.055A2.172,2.172,0,0,1,11.355.715Z" transform="translate(-1.195 18.234)" fill="#22242b"/></svg>