<svg xmlns="http://www.w3.org/2000/svg" width="13.465" height="13.43" viewBox="0 0 13.465 13.43"><path d="M7.1-1.992a2.873,2.873,0,0,0,2.455-.99,5.784,5.784,0,0,0,.768-3.334v-.141a5.83,5.83,0,0,0-.785-3.451,2.887,2.887,0,0,0-2.461-1.037q-3.047,0-3.047,4.535A6.01,6.01,0,0,0,4.77-3.094,2.606,2.606,0,0,0,7.1-1.992ZM6.434.234a4.632,4.632,0,0,1-3.85-1.758A7.738,7.738,0,0,1,1.2-6.434a7.722,7.722,0,0,1,1.436-5A4.893,4.893,0,0,1,6.645-13.2a4.851,4.851,0,0,1,2.326.5,4.194,4.194,0,0,1,1.541,1.471h.141a4.857,4.857,0,0,1,.8-1.734h2.227a13.924,13.924,0,0,0-.516,2.467,20.737,20.737,0,0,0-.2,2.689V-3.41a1.708,1.708,0,0,0,.258,1.02.848.848,0,0,0,.727.352,2.247,2.247,0,0,0,.715-.117V-.07a2.118,2.118,0,0,1-.65.211A4.167,4.167,0,0,1,13.2.234a2.825,2.825,0,0,1-1.723-.457,2.776,2.776,0,0,1-.914-1.5h-.187A4.479,4.479,0,0,1,6.434.234Z" transform="translate(-1.195 13.195)" fill="#22242b"/></svg>