<svg xmlns="http://www.w3.org/2000/svg" width="17.016" height="13.195" viewBox="0 0 17.016 13.195"><path d="M6.188.234A4.221,4.221,0,0,1,2.6-1.512,7.868,7.868,0,0,1,1.3-6.293a16.59,16.59,0,0,1,.328-3.4,17.437,17.437,0,0,1,1.055-3.264H5.4A16.553,16.553,0,0,0,4.283-9.7,15.518,15.518,0,0,0,3.938-6.34a6.649,6.649,0,0,0,.645,3.223A2.006,2.006,0,0,0,6.41-1.969q2.109,0,2.109-3.023V-8.543h2.59v3.551q0,3.023,2.086,3.023a2.007,2.007,0,0,0,1.834-1.125,6.617,6.617,0,0,0,.639-3.223,15.537,15.537,0,0,0-.357-3.416A16.477,16.477,0,0,0,14.2-12.961h2.742A16.453,16.453,0,0,1,18-9.656a17.247,17.247,0,0,1,.316,3.363,7.873,7.873,0,0,1-1.295,4.775,4.227,4.227,0,0,1-3.6,1.752,3.417,3.417,0,0,1-3.551-2.3H9.738A3.417,3.417,0,0,1,6.188.234Z" transform="translate(-1.301 12.961)" fill="#22242b"/></svg>