<svg xmlns="http://www.w3.org/2000/svg" width="11.766" height="18.961" viewBox="0 0 11.766 18.961"><path d="M13.441-6.48a7.533,7.533,0,0,1-1.465,4.957A5.045,5.045,0,0,1,7.875.234,5.834,5.834,0,0,1,4.465-.773H4.324Q4.465.633,4.465,2.4V5.766H1.676V-6.574a7.072,7.072,0,0,1,1.553-4.893,5.609,5.609,0,0,1,4.4-1.729,5.328,5.328,0,0,1,4.242,1.811A7.229,7.229,0,0,1,13.441-6.48ZM7.559-10.945A2.685,2.685,0,0,0,5.227-9.891a5.573,5.573,0,0,0-.762,3.246v3.527a4.406,4.406,0,0,0,3.07,1.1,2.608,2.608,0,0,0,2.35-1.09,6.228,6.228,0,0,0,.721-3.375,6.265,6.265,0,0,0-.715-3.381A2.585,2.585,0,0,0,7.559-10.945Z" transform="translate(-1.676 13.195)" fill="#22242b"/></svg>