<svg xmlns="http://www.w3.org/2000/svg" width="14.039" height="18.844" viewBox="0 0 14.039 18.844"><path d="M2.449-13.078a3.177,3.177,0,0,1,1.389.27,2.581,2.581,0,0,1,.967.838,8.8,8.8,0,0,1,.926,2.01L7.031-6.5l3.48-6.457h2.859L8.2-3.984l2.262,5.613a3.938,3.938,0,0,0,.861,1.441,1.717,1.717,0,0,0,1.2.41,5.63,5.63,0,0,0,1.1-.117V5.5a5.459,5.459,0,0,1-1.816.27,3.446,3.446,0,0,1-2.3-.738,5.914,5.914,0,0,1-1.518-2.6L6.5-1.758,2.543,5.766H-.41L5.262-4.324l-1.8-4.652A4.007,4.007,0,0,0,2.7-10.359a1.353,1.353,0,0,0-1.02-.445,3.11,3.11,0,0,0-1.031.176V-12.82A6.46,6.46,0,0,1,2.449-13.078Z" transform="translate(0.41 13.078)" fill="#22242b"/></svg>