<svg xmlns="http://www.w3.org/2000/svg" width="15.879" height="24" viewBox="0 0 15.879 24"><path d="M10.922-18.234V-1.992a4.488,4.488,0,0,0,3.129-1.33,5.02,5.02,0,0,0,1.02-3.416,22.155,22.155,0,0,0-.176-2.736,33.529,33.529,0,0,0-.668-3.486h2.648a25.125,25.125,0,0,1,.809,6.188,6.974,6.974,0,0,1-1.705,5A7.235,7.235,0,0,1,10.922.211V5.766H8.309V.211A6.831,6.831,0,0,1,3.445-1.576,6.745,6.745,0,0,1,1.8-6.48v-6.48h2.66V-6.41a4.871,4.871,0,0,0,.92,3.246,4.026,4.026,0,0,0,2.924,1.2V-18.234Z" transform="translate(-1.805 18.234)" fill="#22242b"/></svg>