<svg xmlns="http://www.w3.org/2000/svg" width="12.105" height="18.738" viewBox="0 0 12.105 18.738"><path d="M13.3-9.141q0,4.746-1.5,7.061A5.083,5.083,0,0,1,7.219.234,5.01,5.01,0,0,1,2.73-2.145Q1.2-4.523,1.2-9.141,1.2-13.9,2.7-16.2a5.038,5.038,0,0,1,4.518-2.3,5.069,5.069,0,0,1,4.535,2.379Q13.3-13.746,13.3-9.141ZM7.219-1.875A2.545,2.545,0,0,0,9.65-3.445,11.912,11.912,0,0,0,10.488-8.2H4.008a11.48,11.48,0,0,0,.826,4.8A2.531,2.531,0,0,0,7.219-1.875Zm.023-14.52a2.471,2.471,0,0,0-2.361,1.518,11.552,11.552,0,0,0-.85,4.506h6.434A11.381,11.381,0,0,0,9.6-14.877,2.486,2.486,0,0,0,7.242-16.395Z" transform="translate(-1.195 18.504)" fill="#22242b"/></svg>