<svg xmlns="http://www.w3.org/2000/svg" width="16.055" height="17.637" viewBox="0 0 16.055 17.637"><path d="M12.82-9.891v2.355H6.07V-9.891Zm4.652,1.3a9.372,9.372,0,0,1-2.092,6.5A7.565,7.565,0,0,1,9.457.234,7.618,7.618,0,0,1,3.5-2.068a9.43,9.43,0,0,1-2.08-6.545q0-4.242,2.092-6.516A7.708,7.708,0,0,1,9.48-17.4a7.552,7.552,0,0,1,5.906,2.309A9.362,9.362,0,0,1,17.473-8.59Zm-13.125,0A7.635,7.635,0,0,0,5.637-3.8a4.563,4.563,0,0,0,3.82,1.641,4.569,4.569,0,0,0,3.8-1.611A7.64,7.64,0,0,0,14.543-8.59a7.6,7.6,0,0,0-1.283-4.793A4.535,4.535,0,0,0,9.48-15a4.6,4.6,0,0,0-3.838,1.635A7.562,7.562,0,0,0,4.348-8.59Z" transform="translate(-1.418 17.402)" fill="#22242b"/></svg>