<svg xmlns="http://www.w3.org/2000/svg" width="247.207" height="145.945" viewBox="0 0 247.207 145.945"><g transform="translate(-16.756 -51.6)"><rect width="247.207" height="145.945" rx="5" transform="translate(16.756 51.6)" fill="#fff"/><g transform="translate(34.623 66.807)"><text transform="translate(-4.867 11.104)" fill="#212e3a" font-size="12" font-family="OpenSans-Semibold, Open Sans" font-weight="600"><tspan x="0" y="0">What is the capital city of England?</tspan></text><g transform="translate(1.971 27.596)"><g transform="translate(8.61)"><text transform="translate(23.41 17.508)" fill="#212e3a" font-size="12" font-family="OpenSans-Semibold, Open Sans" font-weight="600"><tspan x="0" y="0">Dublin</tspan></text><g transform="translate(-5 6.508)"><text transform="translate(0 11)" fill="#212e3a" font-size="12" font-family="OpenSans-Bold, Open Sans" font-weight="700"><tspan x="0" y="0">A</tspan></text></g><g transform="translate(-15.448 -0.492)" fill="none" stroke="#707070" stroke-width="1"><rect width="203" height="26" rx="6" stroke="none"/><rect x="0.5" y="0.5" width="202" height="25" rx="5.5" fill="none"/></g><line y2="25" transform="translate(12.551 0.197)" fill="none" stroke="#707070" stroke-width="1"/></g><g transform="translate(8.611 33)"><text transform="translate(23.41 17.508)" fill="#212e3a" font-size="12" font-family="OpenSans-Semibold, Open Sans" font-weight="600"><tspan x="0" y="0">London</tspan></text><g transform="translate(-15.448 -0.492)" fill="none" stroke="#707070" stroke-width="1"><rect width="203" height="26" rx="6" stroke="none"/><rect x="0.5" y="0.5" width="202" height="25" rx="5.5" fill="none"/></g><path d="M6,0H28a0,0,0,0,1,0,0V26a0,0,0,0,1,0,0H6a6,6,0,0,1-6-6V6A6,6,0,0,1,6,0Z" transform="translate(-15.448 -0.492)" fill="#3f85e5"/><text transform="translate(-5 17.508)" fill="#fff" font-size="12" font-family="OpenSans-Bold, Open Sans" font-weight="700"><tspan x="0" y="0">B</tspan></text></g><g transform="translate(8.611 66)"><text transform="translate(23.41 17.508)" fill="#212e3a" font-size="12" font-family="OpenSans-Semibold, Open Sans" font-weight="600"><tspan x="0" y="0">Liverpool</tspan></text><g transform="translate(-5 6.508)"><text transform="translate(0 11)" fill="#212e3a" font-size="12" font-family="OpenSans-Bold, Open Sans" font-weight="700"><tspan x="0" y="0">C</tspan></text></g><g transform="translate(-15.448 -0.492)" fill="none" stroke="#707070" stroke-width="1"><rect width="203" height="26" rx="6" stroke="none"/><rect x="0.5" y="0.5" width="202" height="25" rx="5.5" fill="none"/></g><line y2="25" transform="translate(12.551 0.197)" fill="none" stroke="#707070" stroke-width="1"/></g></g></g></g></svg>