<svg xmlns="http://www.w3.org/2000/svg" width="289.512" height="170.92" viewBox="0 0 289.512 170.92"><g transform="translate(16048 -66)"><g transform="translate(-16048 66)" fill="#fff"><path d="M 284.5115966796875 170.4205017089844 L 5.000012397766113 170.4205017089844 C 2.518691301345825 170.4205017089844 0.5000126361846924 168.4018249511719 0.5000126361846924 165.9205017089844 L 0.5000126361846924 5.000000953674316 C 0.5000126361846924 2.51867938041687 2.518691301345825 0.5000008344650269 5.000012397766113 0.5000008344650269 L 284.5115966796875 0.5000008344650269 C 286.992919921875 0.5000008344650269 289.0115966796875 2.51867938041687 289.0115966796875 5.000000953674316 L 289.0115966796875 165.9205017089844 C 289.0115966796875 168.4018249511719 286.992919921875 170.4205017089844 284.5115966796875 170.4205017089844 Z" stroke="none"/><path d="M 5 0.9999847412109375 C 2.79437255859375 0.9999847412109375 1 2.79437255859375 1 4.999984741210938 L 1 165.9204864501953 C 1 168.1260986328125 2.79437255859375 169.9204864501953 5 169.9204864501953 L 284.5115966796875 169.9204864501953 C 286.7172241210938 169.9204864501953 288.5115966796875 168.1260986328125 288.5115966796875 165.9204864501953 L 288.5115966796875 4.999984741210938 C 288.5115966796875 2.79437255859375 286.7172241210938 0.9999847412109375 284.5115966796875 0.9999847412109375 L 5 0.9999847412109375 M 5 -1.52587890625e-05 L 284.5115966796875 -1.52587890625e-05 C 287.2729797363281 -1.52587890625e-05 289.5115966796875 2.238555908203125 289.5115966796875 4.999984741210938 L 289.5115966796875 165.9204864501953 C 289.5115966796875 168.6819458007813 287.2729797363281 170.9204864501953 284.5115966796875 170.9204864501953 L 5 170.9204864501953 C 2.238555908203125 170.9204864501953 0 168.6819458007813 0 165.9204864501953 L 0 4.999984741210938 C 0 2.238555908203125 2.238555908203125 -1.52587890625e-05 5 -1.52587890625e-05 Z" stroke="none" fill="#dbdbdb"/></g><path d="M10.1,0H8.948L6.932-6.692q-.144-.444-.321-1.121a6.539,6.539,0,0,1-.185-.813,15.567,15.567,0,0,1-.479,1.976L3.992,0H2.844L.185-9.994h1.23L2.994-3.821A22.958,22.958,0,0,1,3.473-1.47,16.983,16.983,0,0,1,4.02-3.917L5.811-9.994h1.23l1.88,6.132A18.641,18.641,0,0,1,9.475-1.47a20.5,20.5,0,0,1,.492-2.365l1.572-6.159h1.23Zm9.454,0V-4.847a1.955,1.955,0,0,0-.417-1.367,1.7,1.7,0,0,0-1.306-.451,2.139,2.139,0,0,0-1.726.643,3.255,3.255,0,0,0-.543,2.105V0H14.424V-10.637h1.135v3.22a7.015,7.015,0,0,1-.055.964h.068a2.314,2.314,0,0,1,.954-.851,3.1,3.1,0,0,1,1.412-.311A2.891,2.891,0,0,1,20-6.962a2.749,2.749,0,0,1,.687,2.075V0Zm8.333,0-.226-1.066H27.6a3.153,3.153,0,0,1-1.118.954A3.407,3.407,0,0,1,25.1.137a2.5,2.5,0,0,1-1.747-.574,2.094,2.094,0,0,1-.632-1.634q0-2.27,3.63-2.379l1.271-.041v-.465a1.9,1.9,0,0,0-.379-1.3,1.56,1.56,0,0,0-1.213-.42,4.944,4.944,0,0,0-2.119.574l-.349-.868a5.332,5.332,0,0,1,1.213-.472,5.255,5.255,0,0,1,1.323-.171,2.854,2.854,0,0,1,1.986.595,2.482,2.482,0,0,1,.646,1.907V0ZM25.321-.8a2.3,2.3,0,0,0,1.665-.581,2.15,2.15,0,0,0,.6-1.627v-.677l-1.135.048a4.128,4.128,0,0,0-1.952.42,1.268,1.268,0,0,0-.6,1.159,1.169,1.169,0,0,0,.373.937A1.546,1.546,0,0,0,25.321-.8Zm8.422,0a3.707,3.707,0,0,0,.581-.044,3.761,3.761,0,0,0,.444-.092v.868a2.074,2.074,0,0,1-.543.147,4.081,4.081,0,0,1-.646.058q-2.174,0-2.174-2.29V-6.61H30.332v-.547l1.073-.472.479-1.6h.656v1.736h2.174v.882H32.54V-2.2a1.517,1.517,0,0,0,.321,1.039A1.118,1.118,0,0,0,33.743-.8Zm7.814.8H40.422V-7.492h1.135Zm-1.23-9.522a.754.754,0,0,1,.191-.571A.669.669,0,0,1,41-10.274a.669.669,0,0,1,.472.185.74.74,0,0,1,.2.567.752.752,0,0,1-.2.571A.662.662,0,0,1,41-8.764a.655.655,0,0,1-.479-.188A.768.768,0,0,1,40.326-9.522Zm8.73,7.479a1.877,1.877,0,0,1-.779,1.613,3.663,3.663,0,0,1-2.187.567,4.757,4.757,0,0,1-2.324-.472V-1.388a5.621,5.621,0,0,0,1.159.431A4.839,4.839,0,0,0,46.117-.8a2.705,2.705,0,0,0,1.367-.284.938.938,0,0,0,.479-.865.939.939,0,0,0-.379-.749,5.968,5.968,0,0,0-1.48-.735,8.025,8.025,0,0,1-1.487-.68,2.031,2.031,0,0,1-.656-.66,1.72,1.72,0,0,1-.215-.882A1.681,1.681,0,0,1,44.49-7.1a3.472,3.472,0,0,1,2.044-.53,5.98,5.98,0,0,1,2.365.492l-.4.923a5.429,5.429,0,0,0-2.044-.465,2.352,2.352,0,0,0-1.217.253.782.782,0,0,0-.41.7.849.849,0,0,0,.154.513,1.518,1.518,0,0,0,.5.4,11.075,11.075,0,0,0,1.313.554,4.9,4.9,0,0,1,1.8.978A1.724,1.724,0,0,1,49.056-2.044ZM57.478-.8a3.707,3.707,0,0,0,.581-.044A3.761,3.761,0,0,0,58.5-.937v.868a2.074,2.074,0,0,1-.543.147,4.081,4.081,0,0,1-.646.058q-2.174,0-2.174-2.29V-6.61H54.067v-.547l1.073-.472.479-1.6h.656v1.736h2.174v.882H56.275V-2.2A1.517,1.517,0,0,0,56.6-1.162,1.118,1.118,0,0,0,57.478-.8Zm7.909.8V-4.847a1.955,1.955,0,0,0-.417-1.367,1.7,1.7,0,0,0-1.306-.451,2.139,2.139,0,0,0-1.726.643A3.255,3.255,0,0,0,61.4-3.917V0H60.261V-10.637H61.4v3.22a7.016,7.016,0,0,1-.055.964h.068a2.314,2.314,0,0,1,.954-.851,3.1,3.1,0,0,1,1.412-.311,2.891,2.891,0,0,1,2.061.653,2.749,2.749,0,0,1,.687,2.075V0Zm6.891.137A3.442,3.442,0,0,1,69.657-.875a3.917,3.917,0,0,1-.96-2.81,4.344,4.344,0,0,1,.892-2.878,2.963,2.963,0,0,1,2.4-1.066,2.825,2.825,0,0,1,2.229.926,3.55,3.55,0,0,1,.82,2.444v.718H69.872a2.97,2.97,0,0,0,.667,2,2.305,2.305,0,0,0,1.781.684,6.035,6.035,0,0,0,2.393-.506V-.349a6.005,6.005,0,0,1-1.138.373A6.4,6.4,0,0,1,72.279.137Zm-.308-6.815a1.853,1.853,0,0,0-1.439.588A2.71,2.71,0,0,0,69.9-4.464h3.917a2.5,2.5,0,0,0-.479-1.644A1.684,1.684,0,0,0,71.971-6.679ZM84.119.137a3.2,3.2,0,0,1-2.519-1A4.118,4.118,0,0,1,80.708-3.7,4.247,4.247,0,0,1,81.614-6.6a3.261,3.261,0,0,1,2.581-1.025,5.121,5.121,0,0,1,1.08.116,3.558,3.558,0,0,1,.848.273l-.349.964a5.336,5.336,0,0,0-.82-.25,3.663,3.663,0,0,0-.786-.1q-2.283,0-2.283,2.912a3.467,3.467,0,0,0,.557,2.119,1.938,1.938,0,0,0,1.651.738,5.048,5.048,0,0,0,1.921-.4v1A4.094,4.094,0,0,1,84.119.137ZM92.657,0l-.226-1.066h-.055a3.153,3.153,0,0,1-1.118.954,3.407,3.407,0,0,1-1.391.25,2.5,2.5,0,0,1-1.747-.574,2.094,2.094,0,0,1-.632-1.634q0-2.27,3.63-2.379l1.271-.041v-.465a1.9,1.9,0,0,0-.379-1.3,1.56,1.56,0,0,0-1.213-.42,4.944,4.944,0,0,0-2.119.574l-.349-.868a5.332,5.332,0,0,1,1.213-.472,5.255,5.255,0,0,1,1.323-.171,2.854,2.854,0,0,1,1.986.595A2.482,2.482,0,0,1,93.5-5.113V0ZM90.094-.8a2.3,2.3,0,0,0,1.665-.581,2.15,2.15,0,0,0,.6-1.627v-.677l-1.135.048a4.128,4.128,0,0,0-1.952.42,1.268,1.268,0,0,0-.6,1.159,1.169,1.169,0,0,0,.373.937A1.546,1.546,0,0,0,90.094-.8Zm9.489.937a3.242,3.242,0,0,1-1.336-.27,2.513,2.513,0,0,1-1.015-.831h-.082A10.049,10.049,0,0,1,97.231.28V3.363H96.1V-7.492h.923l.157,1.025h.055a2.635,2.635,0,0,1,1.019-.889,3.1,3.1,0,0,1,1.333-.273,2.769,2.769,0,0,1,2.3,1.019,4.484,4.484,0,0,1,.81,2.857,4.458,4.458,0,0,1-.824,2.868A2.774,2.774,0,0,1,99.582.137Zm-.164-6.8a2.011,2.011,0,0,0-1.661.636,3.271,3.271,0,0,0-.526,2.023v.253a3.749,3.749,0,0,0,.526,2.259,2,2,0,0,0,1.688.68,1.756,1.756,0,0,0,1.521-.786,3.728,3.728,0,0,0,.55-2.167,3.588,3.588,0,0,0-.55-2.15A1.81,1.81,0,0,0,99.418-6.665ZM106.07,0h-1.135V-7.492h1.135Zm-1.23-9.522a.754.754,0,0,1,.191-.571.669.669,0,0,1,.479-.181.669.669,0,0,1,.472.185.74.74,0,0,1,.2.567.752.752,0,0,1-.2.571.662.662,0,0,1-.472.188.655.655,0,0,1-.479-.188A.768.768,0,0,1,104.839-9.522ZM111.156-.8a3.707,3.707,0,0,0,.581-.044,3.761,3.761,0,0,0,.444-.092v.868a2.074,2.074,0,0,1-.543.147,4.081,4.081,0,0,1-.646.058q-2.174,0-2.174-2.29V-6.61h-1.073v-.547l1.073-.472.479-1.6h.656v1.736h2.174v.882h-2.174V-2.2a1.517,1.517,0,0,0,.321,1.039A1.118,1.118,0,0,0,111.156-.8Zm7.39.8-.226-1.066h-.055a3.153,3.153,0,0,1-1.118.954,3.407,3.407,0,0,1-1.391.25,2.5,2.5,0,0,1-1.747-.574,2.094,2.094,0,0,1-.632-1.634q0-2.27,3.63-2.379l1.271-.041v-.465a1.9,1.9,0,0,0-.379-1.3,1.56,1.56,0,0,0-1.213-.42,4.944,4.944,0,0,0-2.119.574l-.349-.868a5.332,5.332,0,0,1,1.213-.472,5.255,5.255,0,0,1,1.323-.171,2.854,2.854,0,0,1,1.986.595,2.482,2.482,0,0,1,.646,1.907V0Zm-2.563-.8a2.3,2.3,0,0,0,1.665-.581,2.15,2.15,0,0,0,.6-1.627v-.677l-1.135.048a4.128,4.128,0,0,0-1.952.42,1.268,1.268,0,0,0-.6,1.159,1.169,1.169,0,0,0,.373.937A1.546,1.546,0,0,0,115.983-.8Zm7.137.8h-1.135V-10.637h1.135Zm9.557.137a3.2,3.2,0,0,1-2.519-1,4.118,4.118,0,0,1-.892-2.833,4.247,4.247,0,0,1,.906-2.905,3.261,3.261,0,0,1,2.581-1.025,5.121,5.121,0,0,1,1.08.116,3.558,3.558,0,0,1,.848.273l-.349.964a5.336,5.336,0,0,0-.82-.25,3.663,3.663,0,0,0-.786-.1q-2.283,0-2.283,2.912A3.468,3.468,0,0,0,131-1.593a1.938,1.938,0,0,0,1.651.738,5.048,5.048,0,0,0,1.921-.4v1A4.094,4.094,0,0,1,132.677.137ZM137.742,0h-1.135V-7.492h1.135Zm-1.23-9.522a.754.754,0,0,1,.191-.571.669.669,0,0,1,.479-.181.669.669,0,0,1,.472.185.74.74,0,0,1,.2.567.752.752,0,0,1-.2.571.662.662,0,0,1-.472.188.655.655,0,0,1-.479-.188A.768.768,0,0,1,136.512-9.522ZM142.828-.8a3.707,3.707,0,0,0,.581-.044,3.761,3.761,0,0,0,.444-.092v.868a2.074,2.074,0,0,1-.543.147,4.081,4.081,0,0,1-.646.058q-2.174,0-2.174-2.29V-6.61h-1.073v-.547l1.073-.472.479-1.6h.656v1.736H143.8v.882h-2.174V-2.2a1.517,1.517,0,0,0,.321,1.039A1.118,1.118,0,0,0,142.828-.8Zm1.593-6.692h1.217l1.641,4.272a16.251,16.251,0,0,1,.67,2.112H148q.089-.349.373-1.193t1.856-5.192h1.217l-3.22,8.531a4.256,4.256,0,0,1-1.118,1.794,2.377,2.377,0,0,1-1.569.53,4.565,4.565,0,0,1-1.025-.116V2.338a3.956,3.956,0,0,0,.841.082,1.733,1.733,0,0,0,1.668-1.312l.417-1.066Zm18.868,3.739a4.133,4.133,0,0,1-.923,2.861,3.25,3.25,0,0,1-2.55,1.029,3.377,3.377,0,0,1-1.784-.472,3.113,3.113,0,0,1-1.2-1.354,4.717,4.717,0,0,1-.424-2.064,4.127,4.127,0,0,1,.916-2.854,3.24,3.24,0,0,1,2.543-1.022,3.169,3.169,0,0,1,2.5,1.046A4.115,4.115,0,0,1,163.289-3.753Zm-5.708,0a3.556,3.556,0,0,0,.574,2.188,1.993,1.993,0,0,0,1.688.752,2.006,2.006,0,0,0,1.692-.749,3.538,3.538,0,0,0,.578-2.191,3.481,3.481,0,0,0-.578-2.17,2.03,2.03,0,0,0-1.706-.742,2,2,0,0,0-1.682.731A3.52,3.52,0,0,0,157.581-3.753ZM168.915-6.61h-1.907V0h-1.135V-6.61h-1.34v-.513l1.34-.41V-7.95q0-2.762,2.413-2.762a4.966,4.966,0,0,1,1.395.239l-.294.909a3.754,3.754,0,0,0-1.121-.212,1.092,1.092,0,0,0-.95.427,2.384,2.384,0,0,0-.308,1.371v.485h1.907ZM180.181,0H174.61V-9.994h5.571v1.032h-4.409v3.22h4.143v1.025h-4.143v3.678h4.409Zm7.431,0V-4.847a1.955,1.955,0,0,0-.417-1.367,1.7,1.7,0,0,0-1.306-.451,2.153,2.153,0,0,0-1.723.636,3.21,3.21,0,0,0-.547,2.1V0h-1.135V-7.492h.923l.185,1.025h.055a2.317,2.317,0,0,1,.978-.858,3.176,3.176,0,0,1,1.4-.3,2.846,2.846,0,0,1,2.037.653,2.778,2.778,0,0,1,.684,2.088V0Zm9.858-7.492v.718l-1.388.164a2.385,2.385,0,0,1,.342.625,2.386,2.386,0,0,1,.15.872,2.215,2.215,0,0,1-.752,1.757,3.033,3.033,0,0,1-2.064.656,3.438,3.438,0,0,1-.629-.055,1.117,1.117,0,0,0-.725.964.49.49,0,0,0,.253.455,1.848,1.848,0,0,0,.868.147h1.326a2.97,2.97,0,0,1,1.87.513,1.781,1.781,0,0,1,.653,1.49,2.127,2.127,0,0,1-1,1.9,5.342,5.342,0,0,1-2.912.653,3.979,3.979,0,0,1-2.266-.547,1.766,1.766,0,0,1-.8-1.545,1.735,1.735,0,0,1,.438-1.183,2.228,2.228,0,0,1,1.23-.677,1.187,1.187,0,0,1-.482-.4,1.067,1.067,0,0,1-.195-.636,1.207,1.207,0,0,1,.219-.718,2.3,2.3,0,0,1,.69-.595,2.024,2.024,0,0,1-.947-.813,2.39,2.39,0,0,1-.366-1.312,2.424,2.424,0,0,1,.738-1.9,3.014,3.014,0,0,1,2.092-.667,3.8,3.8,0,0,1,1.06.137ZM191.5,1.258a1.017,1.017,0,0,0,.513.923,2.83,2.83,0,0,0,1.47.314,4.1,4.1,0,0,0,2.116-.427A1.308,1.308,0,0,0,196.28.909.917.917,0,0,0,195.9.065a2.92,2.92,0,0,0-1.415-.236h-1.36a1.792,1.792,0,0,0-1.2.369A1.319,1.319,0,0,0,191.5,1.258Zm.615-6.351a1.525,1.525,0,0,0,.444,1.189,1.774,1.774,0,0,0,1.237.4,1.447,1.447,0,0,0,1.661-1.613A1.489,1.489,0,0,0,193.772-6.8a1.665,1.665,0,0,0-1.23.431A1.734,1.734,0,0,0,192.111-5.093ZM200.4,0h-1.135V-10.637H200.4Zm7.274,0-.226-1.066H207.4a3.153,3.153,0,0,1-1.118.954,3.407,3.407,0,0,1-1.391.25,2.5,2.5,0,0,1-1.747-.574,2.094,2.094,0,0,1-.632-1.634q0-2.27,3.63-2.379l1.271-.041v-.465a1.9,1.9,0,0,0-.379-1.3,1.56,1.56,0,0,0-1.213-.42A4.944,4.944,0,0,0,203.7-6.1l-.349-.868a5.333,5.333,0,0,1,1.213-.472,5.255,5.255,0,0,1,1.323-.171,2.854,2.854,0,0,1,1.986.595,2.482,2.482,0,0,1,.646,1.907V0Zm-2.563-.8a2.3,2.3,0,0,0,1.665-.581,2.15,2.15,0,0,0,.6-1.627v-.677l-1.135.048a4.128,4.128,0,0,0-1.952.42,1.268,1.268,0,0,0-.6,1.159,1.169,1.169,0,0,0,.373.937A1.546,1.546,0,0,0,205.113-.8Zm11.129.8V-4.847a1.955,1.955,0,0,0-.417-1.367,1.7,1.7,0,0,0-1.306-.451,2.153,2.153,0,0,0-1.723.636,3.21,3.21,0,0,0-.547,2.1V0h-1.135V-7.492h.923l.185,1.025h.055a2.317,2.317,0,0,1,.978-.858,3.176,3.176,0,0,1,1.4-.3,2.846,2.846,0,0,1,2.037.653,2.778,2.778,0,0,1,.684,2.088V0Zm8.825-1h-.062A2.666,2.666,0,0,1,222.654.137a2.782,2.782,0,0,1-2.287-1,4.423,4.423,0,0,1-.817-2.857,4.5,4.5,0,0,1,.82-2.878,2.76,2.76,0,0,1,2.283-1.025,2.724,2.724,0,0,1,2.338,1.107h.089l-.048-.54-.027-.526v-3.049h1.135V0h-.923Zm-2.27.191a2.066,2.066,0,0,0,1.685-.632,3.2,3.2,0,0,0,.523-2.041v-.239A3.76,3.76,0,0,0,224.476-6a2.012,2.012,0,0,0-1.692-.68,1.737,1.737,0,0,0-1.528.776,3.858,3.858,0,0,0-.53,2.191,3.7,3.7,0,0,0,.526,2.167A1.783,1.783,0,0,0,222.8-.813Zm6.781-1.941v-.369a3.062,3.062,0,0,1,.246-1.316,3.524,3.524,0,0,1,.916-1.09,6.183,6.183,0,0,0,1.172-1.183,1.8,1.8,0,0,0,.243-.957,1.333,1.333,0,0,0-.448-1.077,1.941,1.941,0,0,0-1.289-.379A4.379,4.379,0,0,0,229.368-9a5.709,5.709,0,0,0-1.176.461l-.4-.923a5.744,5.744,0,0,1,2.7-.677,2.957,2.957,0,0,1,2.03.643,2.294,2.294,0,0,1,.725,1.812,2.647,2.647,0,0,1-.133.878,2.579,2.579,0,0,1-.393.718A9.438,9.438,0,0,1,231.6-5a4.217,4.217,0,0,0-.913.978,2.093,2.093,0,0,0-.222,1.039v.226Zm-.335,2.03q0-.93.82-.93a.781.781,0,0,1,.612.239,1,1,0,0,1,.215.69.98.98,0,0,1-.219.68.777.777,0,0,1-.608.243.831.831,0,0,1-.588-.215A.927.927,0,0,1,229.244-.725Z" transform="translate(-16028 97)" fill="#6a737f"/><path d="M8.772-4.729A4.625,4.625,0,0,1,7.5-1.216,5.125,5.125,0,0,1,3.821,0h-2.6V-9.28H4.094A4.747,4.747,0,0,1,7.541-8.087,4.459,4.459,0,0,1,8.772-4.729Zm-1.6.051q0-3.333-3.117-3.333H2.742v6.735H3.821Q7.173-1.276,7.173-4.678ZM15.558,0l-.209-.92h-.076a2.116,2.116,0,0,1-.885.768,2.961,2.961,0,0,1-1.311.279,2.573,2.573,0,0,1-1.9-.635,2.631,2.631,0,0,1-.628-1.923V-7.021h1.5v4.329a1.878,1.878,0,0,0,.33,1.209,1.26,1.26,0,0,0,1.035.4,1.647,1.647,0,0,0,1.381-.562,3.1,3.1,0,0,0,.441-1.882v-3.5h1.5V0Zm6.887-7.147a2.437,2.437,0,0,1,2.047.952,4.293,4.293,0,0,1,.733,2.672,4.307,4.307,0,0,1-.743,2.688A2.46,2.46,0,0,1,22.42.127a2.459,2.459,0,0,1-2.069-.958h-.1L19.976,0H18.859V-9.877h1.492v2.349q0,.26-.025.774t-.038.654h.063A2.369,2.369,0,0,1,22.445-7.147Zm-.387,1.219a1.516,1.516,0,0,0-1.3.53,3.084,3.084,0,0,0-.409,1.774v.1a3.284,3.284,0,0,0,.406,1.857,1.511,1.511,0,0,0,1.327.574,1.345,1.345,0,0,0,1.2-.628A3.333,3.333,0,0,0,23.7-3.536Q23.7-5.929,22.058-5.929ZM28.45,0H26.958V-9.877H28.45Zm3.625,0H30.583V-7.021h1.492ZM30.494-8.88a.826.826,0,0,1,.219-.616.853.853,0,0,1,.625-.216.835.835,0,0,1,.613.216.826.826,0,0,1,.219.616.811.811,0,0,1-.219.6.828.828,0,0,1-.613.219.846.846,0,0,1-.625-.219A.811.811,0,0,1,30.494-8.88ZM40.384,0h-1.5V-4.316a1.889,1.889,0,0,0-.327-1.212,1.264,1.264,0,0,0-1.038-.4,1.65,1.65,0,0,0-1.384.559A3.084,3.084,0,0,0,35.7-3.5V0H34.208V-7.021h1.168l.209.92h.076a2.077,2.077,0,0,1,.9-.774,3.021,3.021,0,0,1,1.295-.273,2.253,2.253,0,0,1,2.526,2.571Z" transform="translate(-15975.932 134.455)" fill="#6a737f"/><path d="M7.9,0,7.126-2.549h-3.9L2.446,0H0L3.779-10.752H6.555L10.349,0ZM6.584-4.453Q5.508-7.917,5.372-8.372t-.194-.718q-.242.938-1.384,4.636Z" transform="translate(-16015.06 136.142)" fill="#6a737f"/><g transform="translate(-15985 115)" fill="none"><path d="M6,0H184a6,6,0,0,1,6,6V24a6,6,0,0,1-6,6H6a6,6,0,0,1-6-6V6A6,6,0,0,1,6,0Z" stroke="none"/><path d="M 6 1 C 3.242996215820313 1 1 3.243000030517578 1 6 L 1 24 C 1 26.75699996948242 3.242996215820313 29 6 29 L 184 29 C 186.7570037841797 29 189 26.75699996948242 189 24 L 189 6 C 189 3.243000030517578 186.7570037841797 1 184 1 L 6 1 M 6 0 L 184 0 C 187.3137054443359 0 190 2.686300277709961 190 6 L 190 24 C 190 27.31369972229004 187.3137054443359 30 184 30 L 6 30 C 2.686294555664063 30 0 27.31369972229004 0 24 L 0 6 C 0 2.686300277709961 2.686294555664063 0 6 0 Z" stroke="none" fill="#e1e1e1"/></g><path d="M6,0H184a6,6,0,0,1,6,6V24a6,6,0,0,1-6,6H6a6,6,0,0,1-6-6V6A6,6,0,0,1,6,0Z" transform="translate(-15985 153)" fill="#00ad50"/><path d="M1.225,0V-9.28H2.742V-1.3H6.671V0ZM14.339-3.523a3.832,3.832,0,0,1-.882,2.685A3.161,3.161,0,0,1,11,.127,3.366,3.366,0,0,1,9.261-.317,2.933,2.933,0,0,1,8.1-1.593a4.345,4.345,0,0,1-.406-1.93,3.806,3.806,0,0,1,.876-2.666,3.176,3.176,0,0,1,2.469-.958,3.093,3.093,0,0,1,2.412.981A3.788,3.788,0,0,1,14.339-3.523Zm-5.11,0q0,2.431,1.8,2.431,1.777,0,1.777-2.431,0-2.406-1.79-2.406a1.526,1.526,0,0,0-1.362.622A3.166,3.166,0,0,0,9.229-3.523ZM22.229,0h-1.5V-4.316A1.889,1.889,0,0,0,20.4-5.529a1.264,1.264,0,0,0-1.038-.4,1.65,1.65,0,0,0-1.384.559A3.084,3.084,0,0,0,17.545-3.5V0H16.053V-7.021h1.168l.209.92h.076a2.077,2.077,0,0,1,.9-.774A3.021,3.021,0,0,1,19.7-7.147a2.253,2.253,0,0,1,2.526,2.571Zm4.443.127a2.445,2.445,0,0,1-2.05-.952A4.28,4.28,0,0,1,23.886-3.5a4.294,4.294,0,0,1,.746-2.688A2.469,2.469,0,0,1,26.7-7.147a2.42,2.42,0,0,1,2.107,1.022h.076a8.942,8.942,0,0,1-.108-1.193V-9.877h1.5V0H29.1l-.26-.92h-.07A2.385,2.385,0,0,1,26.673.127Zm.4-1.206A1.624,1.624,0,0,0,28.412-1.6a2.724,2.724,0,0,0,.432-1.679v-.209a3.147,3.147,0,0,0-.432-1.885,1.6,1.6,0,0,0-1.352-.559,1.372,1.372,0,0,0-1.212.638,3.269,3.269,0,0,0-.425,1.819,3.188,3.188,0,0,0,.413,1.781A1.393,1.393,0,0,0,27.073-1.079ZM38.632-3.523A3.832,3.832,0,0,1,37.75-.838a3.161,3.161,0,0,1-2.457.965,3.366,3.366,0,0,1-1.739-.444,2.933,2.933,0,0,1-1.162-1.276,4.345,4.345,0,0,1-.406-1.93,3.806,3.806,0,0,1,.876-2.666,3.176,3.176,0,0,1,2.469-.958,3.093,3.093,0,0,1,2.412.981A3.788,3.788,0,0,1,38.632-3.523Zm-5.11,0q0,2.431,1.8,2.431,1.777,0,1.777-2.431,0-2.406-1.79-2.406a1.526,1.526,0,0,0-1.362.622A3.166,3.166,0,0,0,33.522-3.523ZM46.522,0h-1.5V-4.316A1.889,1.889,0,0,0,44.7-5.529a1.264,1.264,0,0,0-1.038-.4,1.65,1.65,0,0,0-1.384.559A3.084,3.084,0,0,0,41.837-3.5V0H40.346V-7.021h1.168l.209.92H41.8a2.077,2.077,0,0,1,.9-.774A3.021,3.021,0,0,1,44-7.147a2.253,2.253,0,0,1,2.526,2.571Z" transform="translate(-15975.932 172.455)" fill="#fff"/><path d="M6,0H24a6,6,0,0,1,6,6V24a6,6,0,0,1-6,6H6a6,6,0,0,1-6-6V6A6,6,0,0,1,6,0Z" transform="translate(-16025 153)" fill="#00ad50"/><path d="M1.348-10.708H4.68a6.422,6.422,0,0,1,3.307.648A2.256,2.256,0,0,1,9.016-8a2.6,2.6,0,0,1-.45,1.575,1.8,1.8,0,0,1-1.2.74v.073a2.359,2.359,0,0,1,1.469.85,2.764,2.764,0,0,1,.45,1.655A2.728,2.728,0,0,1,8.229-.82,4.577,4.577,0,0,1,5.354,0H1.348ZM3.618-6.467H4.937a2.41,2.41,0,0,0,1.337-.286A1.065,1.065,0,0,0,6.687-7.7a.945.945,0,0,0-.45-.883,2.9,2.9,0,0,0-1.425-.267H3.618Zm0,1.8v2.791H5.1a2.195,2.195,0,0,0,1.384-.359,1.325,1.325,0,0,0,.447-1.1q0-1.333-1.9-1.333Z" transform="translate(-16015.06 174.142)" fill="#fff"/><path d="M1.225,0V-9.28H2.742V-1.3H6.671V0ZM9.6,0H8.112V-7.021H9.6ZM8.023-8.88A.826.826,0,0,1,8.242-9.5a.853.853,0,0,1,.625-.216A.835.835,0,0,1,9.48-9.5.826.826,0,0,1,9.7-8.88a.811.811,0,0,1-.219.6.828.828,0,0,1-.613.219.846.846,0,0,1-.625-.219A.811.811,0,0,1,8.023-8.88ZM13.336,0,10.67-7.021h1.574l1.428,4.082a8.088,8.088,0,0,1,.444,1.663h.051a11.167,11.167,0,0,1,.444-1.663l1.428-4.082h1.587L14.949,0ZM21.76.127A3.4,3.4,0,0,1,19.2-.828a3.627,3.627,0,0,1-.924-2.631,3.979,3.979,0,0,1,.857-2.7,2.96,2.96,0,0,1,2.355-.984,2.893,2.893,0,0,1,2.2.844,3.226,3.226,0,0,1,.806,2.323v.806H19.811A2.306,2.306,0,0,0,20.363-1.6a1.923,1.923,0,0,0,1.466.549,5.413,5.413,0,0,0,1.158-.117,6.072,6.072,0,0,0,1.152-.39V-.349a4.58,4.58,0,0,1-1.1.368A6.773,6.773,0,0,1,21.76.127Zm-.273-6.145a1.5,1.5,0,0,0-1.139.451,2.148,2.148,0,0,0-.511,1.314h3.187A1.943,1.943,0,0,0,22.6-5.57,1.433,1.433,0,0,0,21.487-6.018Zm8.258-1.13a3.591,3.591,0,0,1,.743.063l-.146,1.39a2.819,2.819,0,0,0-.66-.076,1.91,1.91,0,0,0-1.45.584,2.111,2.111,0,0,0-.555,1.517V0H26.184V-7.021h1.168l.2,1.238h.076a2.782,2.782,0,0,1,.911-1A2.165,2.165,0,0,1,29.745-7.147ZM35.35.127a2.459,2.459,0,0,1-2.069-.958h-.089q.089.889.089,1.079V3.123H31.789V-7.021H33q.051.2.209.939h.076a2.337,2.337,0,0,1,2.095-1.066,2.437,2.437,0,0,1,2.047.952,4.293,4.293,0,0,1,.733,2.672A4.3,4.3,0,0,1,37.41-.838,2.459,2.459,0,0,1,35.35.127Zm-.362-6.056a1.551,1.551,0,0,0-1.3.521,2.7,2.7,0,0,0-.409,1.663v.222a3.284,3.284,0,0,0,.406,1.857,1.511,1.511,0,0,0,1.327.574,1.347,1.347,0,0,0,1.193-.635,3.278,3.278,0,0,0,.419-1.809,3.163,3.163,0,0,0-.416-1.787A1.387,1.387,0,0,0,34.988-5.929ZM46.116-3.523a3.832,3.832,0,0,1-.882,2.685,3.161,3.161,0,0,1-2.457.965,3.366,3.366,0,0,1-1.739-.444,2.933,2.933,0,0,1-1.162-1.276,4.345,4.345,0,0,1-.406-1.93,3.806,3.806,0,0,1,.876-2.666,3.176,3.176,0,0,1,2.469-.958,3.093,3.093,0,0,1,2.412.981A3.788,3.788,0,0,1,46.116-3.523Zm-5.11,0q0,2.431,1.8,2.431,1.777,0,1.777-2.431,0-2.406-1.79-2.406a1.526,1.526,0,0,0-1.362.622A3.166,3.166,0,0,0,41.006-3.523Zm13.051,0a3.832,3.832,0,0,1-.882,2.685,3.161,3.161,0,0,1-2.457.965,3.366,3.366,0,0,1-1.739-.444,2.933,2.933,0,0,1-1.162-1.276,4.345,4.345,0,0,1-.406-1.93,3.806,3.806,0,0,1,.876-2.666,3.176,3.176,0,0,1,2.469-.958,3.093,3.093,0,0,1,2.412.981A3.788,3.788,0,0,1,54.057-3.523Zm-5.11,0q0,2.431,1.8,2.431,1.777,0,1.777-2.431,0-2.406-1.79-2.406a1.526,1.526,0,0,0-1.362.622A3.166,3.166,0,0,0,48.947-3.523ZM57.262,0H55.771V-9.877h1.492Z" transform="translate(-15975.932 210.455)" fill="#6a737f"/><path d="M5.9-8.972a2.314,2.314,0,0,0-1.985.963,4.481,4.481,0,0,0-.7,2.684q0,3.582,2.688,3.582a8.5,8.5,0,0,0,2.732-.564V-.4A7.587,7.587,0,0,1,5.684.146,4.491,4.491,0,0,1,2.109-1.271,6,6,0,0,1,.872-5.339a6.644,6.644,0,0,1,.608-2.926,4.394,4.394,0,0,1,1.747-1.926,5.168,5.168,0,0,1,2.67-.67,7.205,7.205,0,0,1,3.135.754L8.3-8.262a12.124,12.124,0,0,0-1.208-.5A3.605,3.605,0,0,0,5.9-8.972Z" transform="translate(-16015.06 212.142)" fill="#6a737f"/><g transform="translate(-15985 191)" fill="none"><path d="M6,0H184a6,6,0,0,1,6,6V24a6,6,0,0,1-6,6H6a6,6,0,0,1-6-6V6A6,6,0,0,1,6,0Z" stroke="none"/><path d="M 6 1 C 3.242996215820313 1 1 3.243000030517578 1 6 L 1 24 C 1 26.75699996948242 3.242996215820313 29 6 29 L 184 29 C 186.7570037841797 29 189 26.75699996948242 189 24 L 189 6 C 189 3.243000030517578 186.7570037841797 1 184 1 L 6 1 M 6 0 L 184 0 C 187.3137054443359 0 190 2.686300277709961 190 6 L 190 24 C 190 27.31369972229004 187.3137054443359 30 184 30 L 6 30 C 2.686294555664063 30 0 27.31369972229004 0 24 L 0 6 C 0 2.686300277709961 2.686294555664063 0 6 0 Z" stroke="none" fill="#e1e1e1"/></g></g></svg>