<svg xmlns="http://www.w3.org/2000/svg" width="248.725" height="191" viewBox="0 0 248.725 191">
  <g id="Group_10969" data-name="Group 10969" transform="translate(10583.928 -9417)">
    <rect id="Rectangle_3754" data-name="Rectangle 3754" width="248.724" height="191" rx="6" transform="translate(-10583.928 9417)" fill="#fff"/>
    <g id="Ellipse_541" data-name="Ellipse 541" transform="translate(-10539 9436)" fill="#fff" stroke="#707070" stroke-width="1">
      <circle cx="4" cy="4" r="4" stroke="none"/>
      <circle cx="4" cy="4" r="3.5" fill="none"/>
    </g>
    <line id="Line_499" data-name="Line 499" x2="145" transform="translate(-10531 9440)" fill="none" stroke="#707070" stroke-width="1"/>
    <g id="Ellipse_542" data-name="Ellipse 542" transform="translate(-10386 9436)" fill="#fff" stroke="#707070" stroke-width="1">
      <circle cx="4" cy="4" r="4" stroke="none"/>
      <circle cx="4" cy="4" r="3.5" fill="none"/>
    </g>
    <g id="Ellipse_543" data-name="Ellipse 543" transform="translate(-10501 9436)" fill="#fff" stroke="#707070" stroke-width="1">
      <circle cx="4" cy="4" r="4" stroke="none"/>
      <circle cx="4" cy="4" r="3.5" fill="none"/>
    </g>
    <g id="Ellipse_544" data-name="Ellipse 544" transform="translate(-10461 9436)" fill="#fff" stroke="#707070" stroke-width="1">
      <circle cx="4" cy="4" r="4" stroke="none"/>
      <circle cx="4" cy="4" r="3.5" fill="none"/>
    </g>
    <g id="Ellipse_545" data-name="Ellipse 545" transform="translate(-10424 9436)" fill="#fff" stroke="#707070" stroke-width="1">
      <circle cx="4" cy="4" r="4" stroke="none"/>
      <circle cx="4" cy="4" r="3.5" fill="none"/>
    </g>
    <g id="Ellipse_541-2" data-name="Ellipse 541" transform="translate(-10539 9501)" fill="#fff" stroke="#707070" stroke-width="1">
      <circle cx="4" cy="4" r="4" stroke="none"/>
      <circle cx="4" cy="4" r="3.5" fill="none"/>
    </g>
    <line id="Line_499-2" data-name="Line 499" x2="145" transform="translate(-10531 9505)" fill="none" stroke="#707070" stroke-width="1"/>
    <g id="Ellipse_542-2" data-name="Ellipse 542" transform="translate(-10386 9501)" fill="#fff" stroke="#707070" stroke-width="1">
      <circle cx="4" cy="4" r="4" stroke="none"/>
      <circle cx="4" cy="4" r="3.5" fill="none"/>
    </g>
    <g id="Ellipse_543-2" data-name="Ellipse 543" transform="translate(-10501 9501)" fill="#fff" stroke="#707070" stroke-width="1">
      <circle cx="4" cy="4" r="4" stroke="none"/>
      <circle cx="4" cy="4" r="3.5" fill="none"/>
    </g>
    <g id="Ellipse_544-2" data-name="Ellipse 544" transform="translate(-10461 9501)" fill="#fff" stroke="#707070" stroke-width="1">
      <circle cx="4" cy="4" r="4" stroke="none"/>
      <circle cx="4" cy="4" r="3.5" fill="none"/>
    </g>
    <g id="Ellipse_545-2" data-name="Ellipse 545" transform="translate(-10424 9501)" fill="#fff" stroke="#707070" stroke-width="1">
      <circle cx="4" cy="4" r="4" stroke="none"/>
      <circle cx="4" cy="4" r="3.5" fill="none"/>
    </g>
    <g id="Ellipse_541-3" data-name="Ellipse 541" transform="translate(-10539 9564)" fill="#fff" stroke="#707070" stroke-width="1">
      <circle cx="4" cy="4" r="4" stroke="none"/>
      <circle cx="4" cy="4" r="3.5" fill="none"/>
    </g>
    <line id="Line_499-3" data-name="Line 499" x2="145" transform="translate(-10531 9568)" fill="none" stroke="#707070" stroke-width="1"/>
    <g id="Ellipse_542-3" data-name="Ellipse 542" transform="translate(-10386 9564)" fill="#fff" stroke="#707070" stroke-width="1">
      <circle cx="4" cy="4" r="4" stroke="none"/>
      <circle cx="4" cy="4" r="3.5" fill="none"/>
    </g>
    <g id="Ellipse_543-3" data-name="Ellipse 543" transform="translate(-10500 9564)" fill="#fff" stroke="#707070" stroke-width="1">
      <circle cx="4" cy="4" r="4" stroke="none"/>
      <circle cx="4" cy="4" r="3.5" fill="none"/>
    </g>
    <g id="Ellipse_544-3" data-name="Ellipse 544" transform="translate(-10461 9564)" fill="#fff" stroke="#707070" stroke-width="1">
      <circle cx="4" cy="4" r="4" stroke="none"/>
      <circle cx="4" cy="4" r="3.5" fill="none"/>
    </g>
    <g id="Ellipse_545-3" data-name="Ellipse 545" transform="translate(-10424 9564)" fill="#fff" stroke="#707070" stroke-width="1">
      <circle cx="4" cy="4" r="4" stroke="none"/>
      <circle cx="4" cy="4" r="3.5" fill="none"/>
    </g>
    <text id="Stongly_agree" data-name="Stongly agree" transform="translate(-10549 9451)" fill="#454b5b" font-size="4" font-family="OpenSans-Bold, Open Sans" font-weight="700"><tspan x="0" y="4">Stongly agree</tspan></text>
    <text id="Stongly_agree-2" data-name="Stongly agree" transform="translate(-10549 9518)" fill="#454b5b" font-size="4" font-family="OpenSans-Bold, Open Sans" font-weight="700"><tspan x="0" y="4">Stongly agree</tspan></text>
    <text id="Stongly_agree-3" data-name="Stongly agree" transform="translate(-10549 9581)" fill="#454b5b" font-size="4" font-family="OpenSans-Bold, Open Sans" font-weight="700"><tspan x="0" y="4">Stongly agree</tspan></text>
    <text id="Stongly_disagree" data-name="Stongly disagree" transform="translate(-10393 9451)" fill="#454b5b" font-size="4" font-family="OpenSans-Bold, Open Sans" font-weight="700"><tspan x="0" y="4">Stongly </tspan><tspan x="0" y="9">disagree</tspan></text>
    <text id="Stongly_disagree-2" data-name="Stongly disagree" transform="translate(-10393 9518)" fill="#454b5b" font-size="4" font-family="OpenSans-Bold, Open Sans" font-weight="700"><tspan x="0" y="4">Stongly </tspan><tspan x="0" y="9">disagree</tspan></text>
    <text id="Stongly_disagree-3" data-name="Stongly disagree" transform="translate(-10393 9581)" fill="#454b5b" font-size="4" font-family="OpenSans-Bold, Open Sans" font-weight="700"><tspan x="0" y="4">Stongly </tspan><tspan x="0" y="9">disagree</tspan></text>
    <text id="Agree" transform="translate(-10504 9451)" fill="#454b5b" font-size="4" font-family="OpenSans-Bold, Open Sans" font-weight="700"><tspan x="0" y="4">Agree</tspan></text>
    <text id="Agree-2" data-name="Agree" transform="translate(-10504 9518)" fill="#454b5b" font-size="4" font-family="OpenSans-Bold, Open Sans" font-weight="700"><tspan x="0" y="4">Agree</tspan></text>
    <text id="Agree-3" data-name="Agree" transform="translate(-10504 9581)" fill="#454b5b" font-size="4" font-family="OpenSans-Bold, Open Sans" font-weight="700"><tspan x="0" y="4">Agree</tspan></text>
    <text id="Disagree" transform="translate(-10434 9451)" fill="#454b5b" font-size="4" font-family="OpenSans-Bold, Open Sans" font-weight="700"><tspan x="0" y="4">Disagree</tspan></text>
    <text id="Disagree-2" data-name="Disagree" transform="translate(-10434 9518)" fill="#454b5b" font-size="4" font-family="OpenSans-Bold, Open Sans" font-weight="700"><tspan x="0" y="4">Disagree</tspan></text>
    <text id="Disagree-3" data-name="Disagree" transform="translate(-10434 9581)" fill="#454b5b" font-size="4" font-family="OpenSans-Bold, Open Sans" font-weight="700"><tspan x="0" y="4">Disagree</tspan></text>
    <text id="Neutral" transform="translate(-10469 9451)" fill="#454b5b" font-size="4" font-family="OpenSans-Bold, Open Sans" font-weight="700"><tspan x="0" y="4">Neutral</tspan></text>
    <text id="Neutral-2" data-name="Neutral" transform="translate(-10469 9518)" fill="#454b5b" font-size="4" font-family="OpenSans-Bold, Open Sans" font-weight="700"><tspan x="0" y="4">Neutral</tspan></text>
    <text id="Neutral-3" data-name="Neutral" transform="translate(-10469 9581)" fill="#454b5b" font-size="4" font-family="OpenSans-Bold, Open Sans" font-weight="700"><tspan x="0" y="4">Neutral</tspan></text>
    <path id="Icon_ionic-ios-checkmark-circle" data-name="Icon ionic-ios-checkmark-circle" d="M7.72,3.375A4.345,4.345,0,1,0,12.065,7.72,4.344,4.344,0,0,0,7.72,3.375ZM9.945,6.519,7.152,9.324h0a.377.377,0,0,1-.242.115.366.366,0,0,1-.244-.119L5.493,8.15a.083.083,0,0,1,0-.119l.372-.372a.081.081,0,0,1,.117,0l.927.927L9.458,6.02a.082.082,0,0,1,.058-.025h0a.076.076,0,0,1,.058.025l.366.378A.082.082,0,0,1,9.945,6.519Z" transform="translate(-10543.136 9431.999)" fill="#1ab395"/>
    <path id="Icon_ionic-ios-checkmark-circle-2" data-name="Icon ionic-ios-checkmark-circle" d="M7.72,3.375A4.345,4.345,0,1,0,12.065,7.72,4.344,4.344,0,0,0,7.72,3.375ZM9.945,6.519,7.152,9.324h0a.377.377,0,0,1-.242.115.366.366,0,0,1-.244-.119L5.493,8.15a.083.083,0,0,1,0-.119l.372-.372a.081.081,0,0,1,.117,0l.927.927L9.458,6.02a.082.082,0,0,1,.058-.025h0a.076.076,0,0,1,.058.025l.366.378A.082.082,0,0,1,9.945,6.519Z" transform="translate(-10464.568 9497.439)" fill="#1ab395"/>
    <path id="Icon_ionic-ios-checkmark-circle-3" data-name="Icon ionic-ios-checkmark-circle" d="M7.72,3.375A4.345,4.345,0,1,0,12.065,7.72,4.344,4.344,0,0,0,7.72,3.375ZM9.945,6.519,7.152,9.324h0a.377.377,0,0,1-.242.115.366.366,0,0,1-.244-.119L5.493,8.15a.083.083,0,0,1,0-.119l.372-.372a.081.081,0,0,1,.117,0l.927.927L9.458,6.02a.082.082,0,0,1,.058-.025h0a.076.076,0,0,1,.058.025l.366.378A.082.082,0,0,1,9.945,6.519Z" transform="translate(-10503.721 9560.279)" fill="#1ab395"/>
  </g>
</svg>
