<svg xmlns="http://www.w3.org/2000/svg" width="262.87" height="211.89" viewBox="0 0 262.87 211.89">
  <g id="Group_10969" data-name="Group 10969" transform="translate(10591 -9403)">
    <rect id="Rectangle_3754" data-name="Rectangle 3754" width="248.724" height="168" rx="6" transform="translate(-10583.928 9440)" fill="#fff"/>
    <g id="Ellipse_541" data-name="Ellipse 541" transform="translate(-10526 9462)" fill="#fff" stroke="#707070" stroke-width="1">
      <circle cx="3.5" cy="3.5" r="3.5" stroke="none"/>
      <circle cx="3.5" cy="3.5" r="3" fill="none"/>
    </g>
    <line id="Line_499" data-name="Line 499" x2="125" transform="translate(-10519 9466)" fill="none" stroke="#707070" stroke-width="1"/>
    <g id="Ellipse_542" data-name="Ellipse 542" transform="translate(-10394 9462)" fill="#fff" stroke="#707070" stroke-width="1">
      <circle cx="3.5" cy="3.5" r="3.5" stroke="none"/>
      <circle cx="3.5" cy="3.5" r="3" fill="none"/>
    </g>
    <g id="Ellipse_543" data-name="Ellipse 543" transform="translate(-10493 9462)" fill="#fff" stroke="#707070" stroke-width="1">
      <circle cx="3.5" cy="3.5" r="3.5" stroke="none"/>
      <circle cx="3.5" cy="3.5" r="3" fill="none"/>
    </g>
    <g id="Ellipse_544" data-name="Ellipse 544" transform="translate(-10459 9462)" fill="#fff" stroke="#707070" stroke-width="1">
      <circle cx="3.5" cy="3.5" r="3.5" stroke="none"/>
      <circle cx="3.5" cy="3.5" r="3" fill="none"/>
    </g>
    <g id="Ellipse_545" data-name="Ellipse 545" transform="translate(-10427 9462)" fill="#fff" stroke="#707070" stroke-width="1">
      <circle cx="3.5" cy="3.5" r="3.5" stroke="none"/>
      <circle cx="3.5" cy="3.5" r="3" fill="none"/>
    </g>
    <g id="Ellipse_541-2" data-name="Ellipse 541" transform="translate(-10526 9518)" fill="#fff" stroke="#707070" stroke-width="1">
      <circle cx="3.5" cy="3.5" r="3.5" stroke="none"/>
      <circle cx="3.5" cy="3.5" r="3" fill="none"/>
    </g>
    <line id="Line_499-2" data-name="Line 499" x2="125" transform="translate(-10519 9522)" fill="none" stroke="#707070" stroke-width="1"/>
    <g id="Ellipse_542-2" data-name="Ellipse 542" transform="translate(-10394 9518)" fill="#fff" stroke="#707070" stroke-width="1">
      <circle cx="3.5" cy="3.5" r="3.5" stroke="none"/>
      <circle cx="3.5" cy="3.5" r="3" fill="none"/>
    </g>
    <g id="Ellipse_543-2" data-name="Ellipse 543" transform="translate(-10493 9518)" fill="#fff" stroke="#707070" stroke-width="1">
      <circle cx="3.5" cy="3.5" r="3.5" stroke="none"/>
      <circle cx="3.5" cy="3.5" r="3" fill="none"/>
    </g>
    <g id="Ellipse_544-2" data-name="Ellipse 544" transform="translate(-10459 9518)" fill="#fff" stroke="#707070" stroke-width="1">
      <circle cx="3.5" cy="3.5" r="3.5" stroke="none"/>
      <circle cx="3.5" cy="3.5" r="3" fill="none"/>
    </g>
    <g id="Ellipse_545-2" data-name="Ellipse 545" transform="translate(-10427 9518)" fill="#fff" stroke="#707070" stroke-width="1">
      <circle cx="3.5" cy="3.5" r="3.5" stroke="none"/>
      <circle cx="3.5" cy="3.5" r="3" fill="none"/>
    </g>
    <g id="Ellipse_541-3" data-name="Ellipse 541" transform="translate(-10526 9572)" fill="#fff" stroke="#707070" stroke-width="1">
      <circle cx="3.5" cy="3.5" r="3.5" stroke="none"/>
      <circle cx="3.5" cy="3.5" r="3" fill="none"/>
    </g>
    <line id="Line_499-3" data-name="Line 499" x2="125" transform="translate(-10519 9576)" fill="none" stroke="#707070" stroke-width="1"/>
    <g id="Ellipse_542-3" data-name="Ellipse 542" transform="translate(-10394 9572)" fill="#fff" stroke="#707070" stroke-width="1">
      <circle cx="3.5" cy="3.5" r="3.5" stroke="none"/>
      <circle cx="3.5" cy="3.5" r="3" fill="none"/>
    </g>
    <g id="Ellipse_543-3" data-name="Ellipse 543" transform="translate(-10493 9572)" fill="#fff" stroke="#707070" stroke-width="1">
      <circle cx="3.5" cy="3.5" r="3.5" stroke="none"/>
      <circle cx="3.5" cy="3.5" r="3" fill="none"/>
    </g>
    <g id="Ellipse_544-3" data-name="Ellipse 544" transform="translate(-10459 9572)" fill="#fff" stroke="#707070" stroke-width="1">
      <circle cx="3.5" cy="3.5" r="3.5" stroke="none"/>
      <circle cx="3.5" cy="3.5" r="3" fill="none"/>
    </g>
    <g id="Ellipse_545-3" data-name="Ellipse 545" transform="translate(-10427 9572)" fill="#fff" stroke="#707070" stroke-width="1">
      <circle cx="3.5" cy="3.5" r="3.5" stroke="none"/>
      <circle cx="3.5" cy="3.5" r="3" fill="none"/>
    </g>
    <text id="Stongly_agree" data-name="Stongly agree" transform="translate(-10534 9475)" fill="#454b5b" font-size="4" font-family="OpenSans-Bold, Open Sans" font-weight="700"><tspan x="0" y="4">Stongly </tspan><tspan x="0" y="9">agree</tspan></text>
    <text id="Stongly_agree-2" data-name="Stongly agree" transform="translate(-10534 9533)" fill="#454b5b" font-size="4" font-family="OpenSans-Bold, Open Sans" font-weight="700"><tspan x="0" y="4">Stongly </tspan><tspan x="0" y="9">agree</tspan></text>
    <text id="Stongly_agree-3" data-name="Stongly agree" transform="translate(-10534 9587)" fill="#454b5b" font-size="4" font-family="OpenSans-Bold, Open Sans" font-weight="700"><tspan x="0" y="4">Stongly </tspan><tspan x="0" y="9">agree</tspan></text>
    <text id="Stongly_disagree" data-name="Stongly disagree" transform="translate(-10401 9475)" fill="#454b5b" font-size="4" font-family="OpenSans-Bold, Open Sans" font-weight="700"><tspan x="0" y="4">Stongly </tspan><tspan x="0" y="9">disagree</tspan></text>
    <text id="Stongly_disagree-2" data-name="Stongly disagree" transform="translate(-10401 9533)" fill="#454b5b" font-size="4" font-family="OpenSans-Bold, Open Sans" font-weight="700"><tspan x="0" y="4">Stongly </tspan><tspan x="0" y="9">disagree</tspan></text>
    <text id="Stongly_disagree-3" data-name="Stongly disagree" transform="translate(-10401 9587)" fill="#454b5b" font-size="4" font-family="OpenSans-Bold, Open Sans" font-weight="700"><tspan x="0" y="4">Stongly </tspan><tspan x="0" y="9">disagree</tspan></text>
    <text id="Agree" transform="translate(-10496 9475)" fill="#454b5b" font-size="4" font-family="OpenSans-Bold, Open Sans" font-weight="700"><tspan x="0" y="4">Agree</tspan></text>
    <text id="Agree-2" data-name="Agree" transform="translate(-10496 9533)" fill="#454b5b" font-size="4" font-family="OpenSans-Bold, Open Sans" font-weight="700"><tspan x="0" y="4">Agree</tspan></text>
    <text id="Agree-3" data-name="Agree" transform="translate(-10496 9587)" fill="#454b5b" font-size="4" font-family="OpenSans-Bold, Open Sans" font-weight="700"><tspan x="0" y="4">Agree</tspan></text>
    <text id="Disagree" transform="translate(-10435 9475)" fill="#454b5b" font-size="4" font-family="OpenSans-Bold, Open Sans" font-weight="700"><tspan x="0" y="4">Disagree</tspan></text>
    <text id="Disagree-2" data-name="Disagree" transform="translate(-10435 9533)" fill="#454b5b" font-size="4" font-family="OpenSans-Bold, Open Sans" font-weight="700"><tspan x="0" y="4">Disagree</tspan></text>
    <text id="Disagree-3" data-name="Disagree" transform="translate(-10435 9587)" fill="#454b5b" font-size="4" font-family="OpenSans-Bold, Open Sans" font-weight="700"><tspan x="0" y="4">Disagree</tspan></text>
    <text id="Neutral" transform="translate(-10466 9475)" fill="#454b5b" font-size="4" font-family="OpenSans-Bold, Open Sans" font-weight="700"><tspan x="0" y="4">Neutral</tspan></text>
    <text id="Neutral-2" data-name="Neutral" transform="translate(-10466 9533)" fill="#454b5b" font-size="4" font-family="OpenSans-Bold, Open Sans" font-weight="700"><tspan x="0" y="4">Neutral</tspan></text>
    <text id="Neutral-3" data-name="Neutral" transform="translate(-10466 9587)" fill="#454b5b" font-size="4" font-family="OpenSans-Bold, Open Sans" font-weight="700"><tspan x="0" y="4">Neutral</tspan></text>
    <path id="Icon_ionic-ios-checkmark-circle" data-name="Icon ionic-ios-checkmark-circle" d="M7.1,3.375A3.729,3.729,0,1,0,10.833,7.1,3.728,3.728,0,0,0,7.1,3.375Zm1.909,2.7-2.4,2.408h0a.324.324,0,0,1-.208.1.314.314,0,0,1-.21-.1l-1-1a.071.071,0,0,1,0-.1l.319-.319a.069.069,0,0,1,.1,0l.8.8L8.6,5.645a.071.071,0,0,1,.05-.022h0a.065.065,0,0,1,.05.022l.314.324A.071.071,0,0,1,9.013,6.073Z" transform="translate(-10529.833 9458.396)" fill="#1ab395"/>
    <path id="Icon_ionic-ios-checkmark-circle-2" data-name="Icon ionic-ios-checkmark-circle" d="M7.1,3.375A3.729,3.729,0,1,0,10.833,7.1,3.728,3.728,0,0,0,7.1,3.375Zm1.909,2.7-2.4,2.408h0a.324.324,0,0,1-.208.1.314.314,0,0,1-.21-.1l-1-1a.071.071,0,0,1,0-.1l.319-.319a.069.069,0,0,1,.1,0l.8.8L8.6,5.645a.071.071,0,0,1,.05-.022h0a.065.065,0,0,1,.05.022l.314.324A.071.071,0,0,1,9.013,6.073Z" transform="translate(-10462.408 9514.557)" fill="#1ab395"/>
    <path id="Icon_ionic-ios-checkmark-circle-3" data-name="Icon ionic-ios-checkmark-circle" d="M7.1,3.375A3.729,3.729,0,1,0,10.833,7.1,3.728,3.728,0,0,0,7.1,3.375Zm1.909,2.7-2.4,2.408h0a.324.324,0,0,1-.208.1.314.314,0,0,1-.21-.1l-1-1a.071.071,0,0,1,0-.1l.319-.319a.069.069,0,0,1,.1,0l.8.8L8.6,5.645a.071.071,0,0,1,.05-.022h0a.065.065,0,0,1,.05.022l.314.324A.071.071,0,0,1,9.013,6.073Z" transform="translate(-10496.375 9568.396)" fill="#1ab395"/>
  </g>
</svg>
