<svg xmlns="http://www.w3.org/2000/svg" width="289.512" height="170.92" viewBox="0 0 289.512 170.92"><g transform="translate(16048 -66)"><g transform="translate(-16048 66)" fill="#fff"><path d="M 284.5115966796875 170.4205017089844 L 5.000012397766113 170.4205017089844 C 2.518691301345825 170.4205017089844 0.5000126361846924 168.4018249511719 0.5000126361846924 165.9205017089844 L 0.5000126361846924 5.000000953674316 C 0.5000126361846924 2.51867938041687 2.518691301345825 0.5000008344650269 5.000012397766113 0.5000008344650269 L 284.5115966796875 0.5000008344650269 C 286.992919921875 0.5000008344650269 289.0115966796875 2.51867938041687 289.0115966796875 5.000000953674316 L 289.0115966796875 165.9205017089844 C 289.0115966796875 168.4018249511719 286.992919921875 170.4205017089844 284.5115966796875 170.4205017089844 Z" stroke="none"/><path d="M 5 0.9999847412109375 C 2.79437255859375 0.9999847412109375 1 2.79437255859375 1 4.999984741210938 L 1 165.9204864501953 C 1 168.1260986328125 2.79437255859375 169.9204864501953 5 169.9204864501953 L 284.5115966796875 169.9204864501953 C 286.7172241210938 169.9204864501953 288.5115966796875 168.1260986328125 288.5115966796875 165.9204864501953 L 288.5115966796875 4.999984741210938 C 288.5115966796875 2.79437255859375 286.7172241210938 0.9999847412109375 284.5115966796875 0.9999847412109375 L 5 0.9999847412109375 M 5 -1.52587890625e-05 L 284.5115966796875 -1.52587890625e-05 C 287.2729797363281 -1.52587890625e-05 289.5115966796875 2.238555908203125 289.5115966796875 4.999984741210938 L 289.5115966796875 165.9204864501953 C 289.5115966796875 168.6819458007813 287.2729797363281 170.9204864501953 284.5115966796875 170.9204864501953 L 5 170.9204864501953 C 2.238555908203125 170.9204864501953 0 168.6819458007813 0 165.9204864501953 L 0 4.999984741210938 C 0 2.238555908203125 2.238555908203125 -1.52587890625e-05 5 -1.52587890625e-05 Z" stroke="none" fill="#dbdbdb"/></g><g transform="translate(-15802 195)" fill="#fff"><path d="M 10 19.125 C 4.968460083007813 19.125 0.875 15.03153991699219 0.875 10 C 0.875 4.968460083007813 4.968460083007813 0.875 10 0.875 C 15.03153991699219 0.875 19.125 4.968460083007813 19.125 10 C 19.125 15.03153991699219 15.03153991699219 19.125 10 19.125 Z" stroke="none"/><path d="M 10 1.75 C 5.450929641723633 1.75 1.75 5.450929641723633 1.75 10 C 1.75 14.54907035827637 5.450929641723633 18.25 10 18.25 C 14.54907035827637 18.25 18.25 14.54907035827637 18.25 10 C 18.25 5.450929641723633 14.54907035827637 1.75 10 1.75 M 10 0 C 15.52285003662109 0 20 4.477149963378906 20 10 C 20 15.52285003662109 15.52285003662109 20 10 20 C 4.477149963378906 20 0 15.52285003662109 0 10 C 0 4.477149963378906 4.477149963378906 0 10 0 Z" stroke="none" fill="#e1e1e1"/></g><path d="M6.982,0,6.056-2.577H2.507L1.6,0H0L3.472-9.318h1.65L8.595,0ZM5.656-3.885l-.87-2.526q-.1-.254-.263-.8t-.232-.8A14.226,14.226,0,0,1,3.79-6.3L2.952-3.885ZM14.287,0l-.209-.92H14a2.116,2.116,0,0,1-.885.768,2.961,2.961,0,0,1-1.311.279A2.573,2.573,0,0,1,9.9-.508a2.631,2.631,0,0,1-.628-1.923V-7.021h1.5v4.329a1.878,1.878,0,0,0,.33,1.209,1.26,1.26,0,0,0,1.035.4,1.647,1.647,0,0,0,1.381-.562,3.1,3.1,0,0,0,.441-1.882v-3.5h1.5V0Zm7.692-2A1.837,1.837,0,0,1,21.23-.422a3.587,3.587,0,0,1-2.146.549A5.068,5.068,0,0,1,16.831-.3V-1.587a5.532,5.532,0,0,0,2.3.571q1.377,0,1.377-.832a.659.659,0,0,0-.152-.444,1.8,1.8,0,0,0-.5-.368,8.63,8.63,0,0,0-.971-.432,4.493,4.493,0,0,1-1.641-.939,1.738,1.738,0,0,1-.428-1.219,1.6,1.6,0,0,1,.727-1.4,3.449,3.449,0,0,1,1.977-.5,5.6,5.6,0,0,1,2.342.5l-.482,1.124a5.21,5.21,0,0,0-1.911-.47q-1.181,0-1.181.673a.677.677,0,0,0,.308.559,6.77,6.77,0,0,0,1.343.628,6.137,6.137,0,0,1,1.263.616,1.84,1.84,0,0,1,.584.644A1.865,1.865,0,0,1,21.979-2Zm3.9.92a3.628,3.628,0,0,0,1.092-.171V-.127a3.011,3.011,0,0,1-.638.181,4.4,4.4,0,0,1-.809.073q-2.12,0-2.12-2.234V-5.891h-.958v-.66L23.476-7.1l.508-1.485h.92v1.562h2v1.13h-2v3.758a1.054,1.054,0,0,0,.27.8A.983.983,0,0,0,25.882-1.079Zm5.731-6.068a3.591,3.591,0,0,1,.743.063l-.146,1.39a2.819,2.819,0,0,0-.66-.076,1.91,1.91,0,0,0-1.45.584,2.111,2.111,0,0,0-.555,1.517V0H28.052V-7.021H29.22l.2,1.238h.076a2.782,2.782,0,0,1,.911-1A2.165,2.165,0,0,1,31.613-7.147ZM37.724,0l-.3-.978h-.051A2.876,2.876,0,0,1,36.353-.1a3.232,3.232,0,0,1-1.32.232,2.234,2.234,0,0,1-1.615-.559,2.09,2.09,0,0,1-.581-1.581,1.856,1.856,0,0,1,.806-1.638,4.648,4.648,0,0,1,2.457-.6l1.212-.038v-.375A1.419,1.419,0,0,0,37-5.672,1.281,1.281,0,0,0,36.023-6a3.369,3.369,0,0,0-1.035.159,7.808,7.808,0,0,0-.952.375l-.482-1.066a5.192,5.192,0,0,1,1.25-.454,5.755,5.755,0,0,1,1.282-.156,3.037,3.037,0,0,1,2.022.584,2.286,2.286,0,0,1,.682,1.834V0ZM35.5-1.016a1.848,1.848,0,0,0,1.3-.454A1.645,1.645,0,0,0,37.3-2.742v-.609l-.9.038a3.084,3.084,0,0,0-1.533.352A1.07,1.07,0,0,0,34.385-2a.938.938,0,0,0,.279.727A1.2,1.2,0,0,0,35.5-1.016ZM42.039,0H40.548V-9.877h1.492Zm3.3,0H43.847V-7.021h1.492ZM43.758-8.88a.826.826,0,0,1,.219-.616.853.853,0,0,1,.625-.216.835.835,0,0,1,.613.216.826.826,0,0,1,.219.616.811.811,0,0,1-.219.6.828.828,0,0,1-.613.219.846.846,0,0,1-.625-.219A.811.811,0,0,1,43.758-8.88ZM51.539,0l-.3-.978H51.19A2.876,2.876,0,0,1,50.168-.1a3.232,3.232,0,0,1-1.32.232,2.234,2.234,0,0,1-1.615-.559,2.09,2.09,0,0,1-.581-1.581,1.856,1.856,0,0,1,.806-1.638,4.648,4.648,0,0,1,2.457-.6l1.212-.038v-.375a1.419,1.419,0,0,0-.314-1.006A1.281,1.281,0,0,0,49.838-6a3.369,3.369,0,0,0-1.035.159,7.808,7.808,0,0,0-.952.375l-.482-1.066a5.192,5.192,0,0,1,1.25-.454A5.755,5.755,0,0,1,49.9-7.147a3.037,3.037,0,0,1,2.022.584,2.286,2.286,0,0,1,.682,1.834V0ZM49.317-1.016a1.848,1.848,0,0,0,1.3-.454,1.645,1.645,0,0,0,.492-1.273v-.609l-.9.038a3.084,3.084,0,0,0-1.533.352A1.07,1.07,0,0,0,48.2-2a.938.938,0,0,0,.279.727A1.2,1.2,0,0,0,49.317-1.016ZM63.591,0h-1.5V-4.316a1.889,1.889,0,0,0-.327-1.212,1.264,1.264,0,0,0-1.038-.4,1.647,1.647,0,0,0-1.381.562,3.1,3.1,0,0,0-.441,1.882V0H57.415V-9.877h1.492V-7.37a11.7,11.7,0,0,1-.076,1.289h.1a2.071,2.071,0,0,1,.847-.787,2.731,2.731,0,0,1,1.266-.279,2.264,2.264,0,0,1,2.552,2.571Zm6.143,0-.3-.978h-.051A2.876,2.876,0,0,1,68.363-.1a3.232,3.232,0,0,1-1.32.232,2.234,2.234,0,0,1-1.615-.559,2.09,2.09,0,0,1-.581-1.581,1.856,1.856,0,0,1,.806-1.638,4.648,4.648,0,0,1,2.457-.6l1.212-.038v-.375a1.419,1.419,0,0,0-.314-1.006A1.281,1.281,0,0,0,68.033-6,3.369,3.369,0,0,0,67-5.846a7.808,7.808,0,0,0-.952.375l-.482-1.066a5.192,5.192,0,0,1,1.25-.454A5.755,5.755,0,0,1,68.1-7.147a3.037,3.037,0,0,1,2.022.584A2.286,2.286,0,0,1,70.8-4.729V0ZM67.512-1.016a1.848,1.848,0,0,0,1.3-.454,1.645,1.645,0,0,0,.492-1.273v-.609l-.9.038a3.084,3.084,0,0,0-1.533.352A1.07,1.07,0,0,0,66.4-2a.938.938,0,0,0,.279.727A1.2,1.2,0,0,0,67.512-1.016ZM77.274-2a1.837,1.837,0,0,1-.749,1.577,3.587,3.587,0,0,1-2.146.549A5.068,5.068,0,0,1,72.126-.3V-1.587a5.532,5.532,0,0,0,2.3.571q1.377,0,1.377-.832a.659.659,0,0,0-.152-.444,1.8,1.8,0,0,0-.5-.368,8.63,8.63,0,0,0-.971-.432,4.493,4.493,0,0,1-1.641-.939,1.738,1.738,0,0,1-.428-1.219,1.6,1.6,0,0,1,.727-1.4,3.449,3.449,0,0,1,1.977-.5,5.6,5.6,0,0,1,2.342.5l-.482,1.124a5.21,5.21,0,0,0-1.911-.47q-1.181,0-1.181.673a.677.677,0,0,0,.308.559,6.77,6.77,0,0,0,1.343.628,6.137,6.137,0,0,1,1.263.616,1.84,1.84,0,0,1,.584.644A1.865,1.865,0,0,1,77.274-2ZM87.84-3.523a3.832,3.832,0,0,1-.882,2.685A3.161,3.161,0,0,1,84.5.127a3.366,3.366,0,0,1-1.739-.444A2.933,2.933,0,0,1,81.6-1.593a4.345,4.345,0,0,1-.406-1.93,3.806,3.806,0,0,1,.876-2.666,3.176,3.176,0,0,1,2.469-.958,3.093,3.093,0,0,1,2.412.981A3.788,3.788,0,0,1,87.84-3.523Zm-5.11,0q0,2.431,1.8,2.431,1.777,0,1.777-2.431,0-2.406-1.79-2.406a1.526,1.526,0,0,0-1.362.622A3.166,3.166,0,0,0,82.73-3.523ZM90.829,0,88.163-7.021h1.574l1.428,4.082a8.087,8.087,0,0,1,.444,1.663h.051A11.167,11.167,0,0,1,92.1-2.939l1.428-4.082H95.12L92.441,0Zm8.1.127a3.4,3.4,0,0,1-2.561-.955,3.627,3.627,0,0,1-.924-2.631,3.979,3.979,0,0,1,.857-2.7,2.96,2.96,0,0,1,2.355-.984,2.893,2.893,0,0,1,2.2.844,3.226,3.226,0,0,1,.806,2.323v.806H96.978A2.306,2.306,0,0,0,97.53-1.6,1.923,1.923,0,0,0,99-1.054a5.413,5.413,0,0,0,1.158-.117,6.072,6.072,0,0,0,1.152-.39V-.349a4.58,4.58,0,0,1-1.1.368A6.773,6.773,0,0,1,98.927.127Zm-.273-6.145a1.5,1.5,0,0,0-1.139.451A2.148,2.148,0,0,0,97-4.253h3.187a1.943,1.943,0,0,0-.419-1.317A1.433,1.433,0,0,0,98.654-6.018Zm7.933-1.13a3.591,3.591,0,0,1,.743.063l-.146,1.39a2.819,2.819,0,0,0-.66-.076,1.91,1.91,0,0,0-1.45.584,2.111,2.111,0,0,0-.555,1.517V0h-1.492V-7.021h1.168l.2,1.238h.076a2.782,2.782,0,0,1,.911-1A2.165,2.165,0,0,1,106.587-7.147ZM117.154,0h-6.291V-1.13l2.393-2.406a20.355,20.355,0,0,0,1.406-1.539,3.675,3.675,0,0,0,.5-.854,2.3,2.3,0,0,0,.159-.857,1.307,1.307,0,0,0-.378-.99,1.447,1.447,0,0,0-1.044-.362,2.784,2.784,0,0,0-1.031.2,4.828,4.828,0,0,0-1.152.711l-.806-.984a5.2,5.2,0,0,1,1.5-.927,4.4,4.4,0,0,1,1.555-.273,3.06,3.06,0,0,1,2.076.676,2.283,2.283,0,0,1,.781,1.819,3.191,3.191,0,0,1-.225,1.193,4.85,4.85,0,0,1-.692,1.165,15.812,15.812,0,0,1-1.552,1.622l-1.612,1.562v.063h4.405ZM123.9-7.147a2.15,2.15,0,0,1-.514,1.469,2.588,2.588,0,0,1-1.447.79v.051a2.8,2.8,0,0,1,1.676.7,1.988,1.988,0,0,1,.559,1.476A2.452,2.452,0,0,1,123.227-.6a4.339,4.339,0,0,1-2.691.727,6.061,6.061,0,0,1-2.6-.5V-1.7a5.944,5.944,0,0,0,1.25.451,5.429,5.429,0,0,0,1.27.159,2.677,2.677,0,0,0,1.612-.4,1.447,1.447,0,0,0,.533-1.238,1.178,1.178,0,0,0-.59-1.092,3.77,3.77,0,0,0-1.854-.349h-.806V-5.383h.819q2.222,0,2.222-1.536a1.133,1.133,0,0,0-.387-.92,1.743,1.743,0,0,0-1.143-.324,3.46,3.46,0,0,0-1.016.149,4.808,4.808,0,0,0-1.155.581l-.73-1.041a4.865,4.865,0,0,1,2.964-.939,3.527,3.527,0,0,1,2.19.6A1.979,1.979,0,0,1,123.9-7.147ZM134.517,0h-1.5V-4.329a1.963,1.963,0,0,0-.3-1.2,1.124,1.124,0,0,0-.952-.4,1.452,1.452,0,0,0-1.266.562,3.3,3.3,0,0,0-.4,1.869V0H128.6V-7.021h1.168l.209.92h.076a1.945,1.945,0,0,1,.847-.774,2.733,2.733,0,0,1,1.222-.273,2.135,2.135,0,0,1,2.146,1.1h.1a2.14,2.14,0,0,1,.876-.812,2.78,2.78,0,0,1,1.295-.292,2.358,2.358,0,0,1,1.831.635,2.811,2.811,0,0,1,.574,1.936V0h-1.492V-4.329a1.948,1.948,0,0,0-.308-1.2,1.134,1.134,0,0,0-.955-.4,1.481,1.481,0,0,0-1.273.543,2.8,2.8,0,0,0-.4,1.666ZM142.2,0H140.7V-7.021H142.2Zm-1.581-8.88a.826.826,0,0,1,.219-.616.853.853,0,0,1,.625-.216.835.835,0,0,1,.613.216.826.826,0,0,1,.219.616.811.811,0,0,1-.219.6.828.828,0,0,1-.613.219.846.846,0,0,1-.625-.219A.811.811,0,0,1,140.616-8.88ZM145.5,0H144V-9.877H145.5Zm3.3,0H147.3V-9.877H148.8Zm3.3,0H150.6V-7.021h1.492Zm-1.581-8.88a.826.826,0,0,1,.219-.616.853.853,0,0,1,.625-.216.835.835,0,0,1,.613.216.826.826,0,0,1,.219.616.811.811,0,0,1-.219.6.828.828,0,0,1-.613.219.846.846,0,0,1-.625-.219A.811.811,0,0,1,150.514-8.88Zm9.615,5.357a3.832,3.832,0,0,1-.882,2.685,3.161,3.161,0,0,1-2.457.965,3.366,3.366,0,0,1-1.739-.444,2.933,2.933,0,0,1-1.162-1.276,4.346,4.346,0,0,1-.406-1.93,3.806,3.806,0,0,1,.876-2.666,3.176,3.176,0,0,1,2.469-.958,3.093,3.093,0,0,1,2.412.981A3.788,3.788,0,0,1,160.13-3.523Zm-5.11,0q0,2.431,1.8,2.431,1.777,0,1.777-2.431,0-2.406-1.79-2.406a1.526,1.526,0,0,0-1.362.622A3.166,3.166,0,0,0,155.02-3.523ZM167.695,0h-1.5V-4.316a1.889,1.889,0,0,0-.327-1.212,1.264,1.264,0,0,0-1.038-.4,1.65,1.65,0,0,0-1.384.559A3.084,3.084,0,0,0,163.01-3.5V0h-1.492V-7.021h1.168l.209.92h.076a2.077,2.077,0,0,1,.9-.774,3.021,3.021,0,0,1,1.295-.273,2.253,2.253,0,0,1,2.526,2.571Z" transform="translate(-16028 133.455)" fill="#6a737f"/><path d="M5.237,0,2.545-7.75H2.495Q2.6-6.024,2.6-4.513V0H1.225V-9.28H3.364L5.941-1.9h.038L8.633-9.28h2.146V0H9.318V-4.589q0-.692.035-1.8t.06-1.346H9.363L6.576,0ZM17.131,0l-.3-.978h-.051A2.876,2.876,0,0,1,15.76-.1a3.232,3.232,0,0,1-1.32.232,2.234,2.234,0,0,1-1.615-.559,2.09,2.09,0,0,1-.581-1.581A1.856,1.856,0,0,1,13.05-3.65a4.648,4.648,0,0,1,2.457-.6l1.212-.038v-.375A1.419,1.419,0,0,0,16.4-5.672,1.281,1.281,0,0,0,15.43-6a3.369,3.369,0,0,0-1.035.159,7.808,7.808,0,0,0-.952.375l-.482-1.066a5.192,5.192,0,0,1,1.25-.454,5.755,5.755,0,0,1,1.282-.156,3.037,3.037,0,0,1,2.022.584A2.286,2.286,0,0,1,18.2-4.729V0ZM14.909-1.016a1.848,1.848,0,0,0,1.3-.454,1.645,1.645,0,0,0,.492-1.273v-.609l-.9.038a3.084,3.084,0,0,0-1.533.352A1.07,1.07,0,0,0,13.792-2a.938.938,0,0,0,.279.727A1.2,1.2,0,0,0,14.909-1.016ZM22.322.127a2.445,2.445,0,0,1-2.05-.952A4.28,4.28,0,0,1,19.536-3.5a4.294,4.294,0,0,1,.746-2.688,2.469,2.469,0,0,1,2.066-.962,2.42,2.42,0,0,1,2.107,1.022h.076a8.942,8.942,0,0,1-.108-1.193V-9.877h1.5V0H24.753l-.26-.92h-.07A2.385,2.385,0,0,1,22.322.127Zm.4-1.206A1.624,1.624,0,0,0,24.061-1.6a2.724,2.724,0,0,0,.432-1.679v-.209a3.147,3.147,0,0,0-.432-1.885,1.6,1.6,0,0,0-1.352-.559,1.372,1.372,0,0,0-1.212.638,3.269,3.269,0,0,0-.425,1.819,3.188,3.188,0,0,0,.413,1.781A1.393,1.393,0,0,0,22.722-1.079ZM31.29-7.147a3.591,3.591,0,0,1,.743.063l-.146,1.39a2.819,2.819,0,0,0-.66-.076,1.91,1.91,0,0,0-1.45.584,2.111,2.111,0,0,0-.555,1.517V0H27.729V-7.021H28.9l.2,1.238h.076a2.782,2.782,0,0,1,.911-1A2.165,2.165,0,0,1,31.29-7.147ZM34.5,0H33.009V-7.021H34.5ZM32.92-8.88a.826.826,0,0,1,.219-.616.853.853,0,0,1,.625-.216.835.835,0,0,1,.613.216.826.826,0,0,1,.219.616.811.811,0,0,1-.219.6.828.828,0,0,1-.613.219.846.846,0,0,1-.625-.219A.811.811,0,0,1,32.92-8.88ZM40.852,0H39.361V-7.021h1.492ZM39.272-8.88a.826.826,0,0,1,.219-.616.853.853,0,0,1,.625-.216.835.835,0,0,1,.613.216.826.826,0,0,1,.219.616.811.811,0,0,1-.219.6.828.828,0,0,1-.613.219.846.846,0,0,1-.625-.219A.811.811,0,0,1,39.272-8.88ZM47.376-2a1.837,1.837,0,0,1-.749,1.577,3.587,3.587,0,0,1-2.146.549A5.068,5.068,0,0,1,42.228-.3V-1.587a5.532,5.532,0,0,0,2.3.571q1.377,0,1.377-.832a.659.659,0,0,0-.152-.444,1.8,1.8,0,0,0-.5-.368,8.629,8.629,0,0,0-.971-.432,4.493,4.493,0,0,1-1.641-.939,1.738,1.738,0,0,1-.428-1.219,1.6,1.6,0,0,1,.727-1.4,3.449,3.449,0,0,1,1.977-.5,5.6,5.6,0,0,1,2.342.5L46.78-5.522a5.21,5.21,0,0,0-1.911-.47q-1.181,0-1.181.673A.677.677,0,0,0,44-4.761a6.77,6.77,0,0,0,1.343.628,6.137,6.137,0,0,1,1.263.616,1.84,1.84,0,0,1,.584.644A1.865,1.865,0,0,1,47.376-2Zm5.831,2H51.716V-9.877h1.492Zm8.035-3.523A3.832,3.832,0,0,1,60.36-.838,3.161,3.161,0,0,1,57.9.127a3.366,3.366,0,0,1-1.739-.444A2.933,2.933,0,0,1,55-1.593a4.345,4.345,0,0,1-.406-1.93,3.806,3.806,0,0,1,.876-2.666,3.176,3.176,0,0,1,2.469-.958,3.093,3.093,0,0,1,2.412.981A3.788,3.788,0,0,1,61.242-3.523Zm-5.11,0q0,2.431,1.8,2.431,1.777,0,1.777-2.431,0-2.406-1.79-2.406a1.526,1.526,0,0,0-1.362.622A3.166,3.166,0,0,0,56.132-3.523Zm9.33,3.65A3.074,3.074,0,0,1,63.04-.8a3.885,3.885,0,0,1-.828-2.669A3.907,3.907,0,0,1,63.079-6.2a3.214,3.214,0,0,1,2.5-.952,4.693,4.693,0,0,1,2,.413l-.451,1.2A4.518,4.518,0,0,0,65.57-5.9q-1.822,0-1.822,2.418A2.9,2.9,0,0,0,64.2-1.711a1.571,1.571,0,0,0,1.33.594,3.815,3.815,0,0,0,1.885-.5v1.3a2.946,2.946,0,0,1-.854.336A5.123,5.123,0,0,1,65.462.127ZM73.135,0l-.3-.978h-.051A2.876,2.876,0,0,1,71.764-.1a3.232,3.232,0,0,1-1.32.232,2.234,2.234,0,0,1-1.615-.559,2.09,2.09,0,0,1-.581-1.581,1.856,1.856,0,0,1,.806-1.638,4.648,4.648,0,0,1,2.457-.6l1.212-.038v-.375a1.419,1.419,0,0,0-.314-1.006A1.281,1.281,0,0,0,71.434-6a3.369,3.369,0,0,0-1.035.159,7.808,7.808,0,0,0-.952.375l-.482-1.066a5.192,5.192,0,0,1,1.25-.454A5.755,5.755,0,0,1,71.5-7.147a3.037,3.037,0,0,1,2.022.584A2.286,2.286,0,0,1,74.2-4.729V0ZM70.913-1.016a1.848,1.848,0,0,0,1.3-.454,1.645,1.645,0,0,0,.492-1.273v-.609l-.9.038a3.084,3.084,0,0,0-1.533.352A1.07,1.07,0,0,0,69.8-2a.938.938,0,0,0,.279.727A1.2,1.2,0,0,0,70.913-1.016Zm7.66-.063a3.628,3.628,0,0,0,1.092-.171V-.127a3.011,3.011,0,0,1-.638.181,4.4,4.4,0,0,1-.809.073q-2.12,0-2.12-2.234V-5.891H75.14v-.66L76.168-7.1l.508-1.485h.92v1.562h2v1.13h-2v3.758a1.054,1.054,0,0,0,.27.8A.983.983,0,0,0,78.574-1.079ZM83.809.127a3.4,3.4,0,0,1-2.561-.955,3.627,3.627,0,0,1-.924-2.631,3.979,3.979,0,0,1,.857-2.7,2.96,2.96,0,0,1,2.355-.984,2.893,2.893,0,0,1,2.2.844,3.226,3.226,0,0,1,.806,2.323v.806H81.861A2.306,2.306,0,0,0,82.413-1.6a1.923,1.923,0,0,0,1.466.549,5.413,5.413,0,0,0,1.158-.117,6.072,6.072,0,0,0,1.152-.39V-.349a4.58,4.58,0,0,1-1.1.368A6.773,6.773,0,0,1,83.809.127Zm-.273-6.145a1.5,1.5,0,0,0-1.139.451,2.148,2.148,0,0,0-.511,1.314h3.187a1.943,1.943,0,0,0-.419-1.317A1.433,1.433,0,0,0,83.536-6.018ZM90.276.127a2.445,2.445,0,0,1-2.05-.952A4.28,4.28,0,0,1,87.49-3.5a4.294,4.294,0,0,1,.746-2.688A2.469,2.469,0,0,1,90.3-7.147a2.42,2.42,0,0,1,2.107,1.022h.076a8.942,8.942,0,0,1-.108-1.193V-9.877h1.5V0H92.708l-.26-.92h-.07A2.385,2.385,0,0,1,90.276.127Zm.4-1.206A1.624,1.624,0,0,0,92.016-1.6a2.724,2.724,0,0,0,.432-1.679v-.209a3.147,3.147,0,0,0-.432-1.885,1.6,1.6,0,0,0-1.352-.559,1.372,1.372,0,0,0-1.212.638,3.269,3.269,0,0,0-.425,1.819,3.188,3.188,0,0,0,.413,1.781A1.393,1.393,0,0,0,90.676-1.079ZM100.227,0H98.735V-7.021h1.492ZM98.646-8.88a.826.826,0,0,1,.219-.616.853.853,0,0,1,.625-.216.835.835,0,0,1,.613.216.826.826,0,0,1,.219.616.811.811,0,0,1-.219.6.828.828,0,0,1-.613.219.846.846,0,0,1-.625-.219A.811.811,0,0,1,98.646-8.88ZM108.211,0h-1.5V-4.316a1.889,1.889,0,0,0-.327-1.212,1.264,1.264,0,0,0-1.038-.4,1.65,1.65,0,0,0-1.384.559,3.084,3.084,0,0,0-.438,1.873V0h-1.492V-7.021H103.2l.209.92h.076a2.077,2.077,0,0,1,.9-.774,3.021,3.021,0,0,1,1.295-.273,2.253,2.253,0,0,1,2.526,2.571Zm10.312-2.52a2.336,2.336,0,0,1-.9,1.942,3.9,3.9,0,0,1-2.469.7,5.892,5.892,0,0,1-2.577-.489V-1.8a7,7,0,0,0,1.349.47,5.719,5.719,0,0,0,1.33.171,2.115,2.115,0,0,0,1.33-.343,1.118,1.118,0,0,0,.428-.92,1.153,1.153,0,0,0-.394-.882A5.925,5.925,0,0,0,115-4.158a4.3,4.3,0,0,1-1.79-1.174,2.485,2.485,0,0,1-.521-1.587,2.222,2.222,0,0,1,.825-1.828,3.423,3.423,0,0,1,2.215-.667,6.509,6.509,0,0,1,2.653.584L117.9-7.592a5.8,5.8,0,0,0-2.209-.521,1.7,1.7,0,0,0-1.117.321,1.053,1.053,0,0,0-.381.847,1.193,1.193,0,0,0,.152.619,1.556,1.556,0,0,0,.5.486,8.483,8.483,0,0,0,1.257.6,6.877,6.877,0,0,1,1.5.793,2.334,2.334,0,0,1,.7.832A2.5,2.5,0,0,1,118.523-2.52ZM123.4.127a2.459,2.459,0,0,1-2.069-.958h-.089q.089.889.089,1.079V3.123h-1.492V-7.021h1.206q.051.2.209.939h.076a2.337,2.337,0,0,1,2.095-1.066,2.437,2.437,0,0,1,2.047.952,4.293,4.293,0,0,1,.733,2.672,4.3,4.3,0,0,1-.746,2.685A2.459,2.459,0,0,1,123.4.127Zm-.362-6.056a1.551,1.551,0,0,0-1.3.521,2.7,2.7,0,0,0-.409,1.663v.222a3.284,3.284,0,0,0,.406,1.857,1.511,1.511,0,0,0,1.327.574,1.347,1.347,0,0,0,1.193-.635,3.278,3.278,0,0,0,.419-1.809,3.163,3.163,0,0,0-.416-1.787A1.387,1.387,0,0,0,123.035-5.929ZM132,0l-.3-.978h-.051a2.876,2.876,0,0,1-1.022.873,3.232,3.232,0,0,1-1.32.232A2.234,2.234,0,0,1,127.7-.432a2.09,2.09,0,0,1-.581-1.581,1.856,1.856,0,0,1,.806-1.638,4.648,4.648,0,0,1,2.457-.6l1.212-.038v-.375a1.42,1.42,0,0,0-.314-1.006A1.281,1.281,0,0,0,130.3-6a3.369,3.369,0,0,0-1.035.159,7.808,7.808,0,0,0-.952.375l-.482-1.066a5.192,5.192,0,0,1,1.25-.454,5.755,5.755,0,0,1,1.282-.156,3.037,3.037,0,0,1,2.022.584,2.286,2.286,0,0,1,.682,1.834V0Zm-2.222-1.016a1.848,1.848,0,0,0,1.3-.454,1.645,1.645,0,0,0,.492-1.273v-.609l-.9.038a3.084,3.084,0,0,0-1.533.352,1.07,1.07,0,0,0-.479.962.938.938,0,0,0,.279.727A1.2,1.2,0,0,0,129.782-1.016ZM136.318,0h-1.492V-7.021h1.492Zm-1.581-8.88a.826.826,0,0,1,.219-.616.853.853,0,0,1,.625-.216.835.835,0,0,1,.613.216.826.826,0,0,1,.219.616.811.811,0,0,1-.219.6.828.828,0,0,1-.613.219.846.846,0,0,1-.625-.219A.811.811,0,0,1,134.738-8.88ZM144.3,0h-1.5V-4.316a1.889,1.889,0,0,0-.327-1.212,1.264,1.264,0,0,0-1.038-.4,1.65,1.65,0,0,0-1.384.559,3.084,3.084,0,0,0-.438,1.873V0h-1.492V-7.021h1.168l.209.92h.076a2.077,2.077,0,0,1,.9-.774,3.021,3.021,0,0,1,1.295-.273A2.253,2.253,0,0,1,144.3-4.577Z" transform="translate(-16028 209.455)" fill="#6a737f"/><path d="M8.5-9.28v6a3.561,3.561,0,0,1-.441,1.8A2.94,2.94,0,0,1,6.782-.289a4.434,4.434,0,0,1-2,.416A3.734,3.734,0,0,1,2.1-.787,3.308,3.308,0,0,1,1.143-3.3V-9.28H2.666v5.872A2.346,2.346,0,0,0,3.2-1.714a2.2,2.2,0,0,0,1.638.546q2.146,0,2.146-2.253V-9.28Zm7.4,6.76A2.336,2.336,0,0,1,15-.578a3.9,3.9,0,0,1-2.469.7A5.892,5.892,0,0,1,9.958-.362V-1.8a7,7,0,0,0,1.349.47,5.719,5.719,0,0,0,1.33.171,2.115,2.115,0,0,0,1.33-.343,1.118,1.118,0,0,0,.428-.92A1.153,1.153,0,0,0,14-3.3a5.925,5.925,0,0,0-1.625-.857,4.3,4.3,0,0,1-1.79-1.174,2.485,2.485,0,0,1-.521-1.587,2.222,2.222,0,0,1,.825-1.828,3.423,3.423,0,0,1,2.215-.667,6.509,6.509,0,0,1,2.653.584l-.482,1.238a5.8,5.8,0,0,0-2.209-.521,1.7,1.7,0,0,0-1.117.321,1.053,1.053,0,0,0-.381.847,1.193,1.193,0,0,0,.152.619,1.556,1.556,0,0,0,.5.486,8.482,8.482,0,0,0,1.257.6,6.877,6.877,0,0,1,1.5.793,2.334,2.334,0,0,1,.7.832A2.5,2.5,0,0,1,15.9-2.52ZM23.128,0,22.2-2.577H18.653L17.746,0h-1.6l3.472-9.318h1.65L24.741,0ZM21.8-3.885l-.87-2.526q-.1-.254-.263-.8t-.232-.8a14.226,14.226,0,0,1-.5,1.708L19.1-3.885ZM34.71,0h-1.5V-4.316a1.889,1.889,0,0,0-.327-1.212,1.264,1.264,0,0,0-1.038-.4,1.647,1.647,0,0,0-1.381.562,3.1,3.1,0,0,0-.441,1.882V0H28.534V-9.877h1.492V-7.37a11.7,11.7,0,0,1-.076,1.289h.1a2.071,2.071,0,0,1,.847-.787,2.731,2.731,0,0,1,1.266-.279A2.264,2.264,0,0,1,34.71-4.577Zm6.143,0-.3-.978H40.5A2.876,2.876,0,0,1,39.482-.1a3.232,3.232,0,0,1-1.32.232,2.234,2.234,0,0,1-1.615-.559,2.09,2.09,0,0,1-.581-1.581,1.856,1.856,0,0,1,.806-1.638,4.648,4.648,0,0,1,2.457-.6l1.212-.038v-.375a1.419,1.419,0,0,0-.314-1.006A1.281,1.281,0,0,0,39.152-6a3.369,3.369,0,0,0-1.035.159,7.808,7.808,0,0,0-.952.375l-.482-1.066a5.192,5.192,0,0,1,1.25-.454,5.755,5.755,0,0,1,1.282-.156,3.037,3.037,0,0,1,2.022.584,2.286,2.286,0,0,1,.682,1.834V0ZM38.632-1.016a1.848,1.848,0,0,0,1.3-.454,1.645,1.645,0,0,0,.492-1.273v-.609l-.9.038a3.084,3.084,0,0,0-1.533.352A1.07,1.07,0,0,0,37.515-2a.938.938,0,0,0,.279.727A1.2,1.2,0,0,0,38.632-1.016ZM48.393-2a1.837,1.837,0,0,1-.749,1.577A3.587,3.587,0,0,1,45.5.127,5.068,5.068,0,0,1,43.245-.3V-1.587a5.532,5.532,0,0,0,2.3.571q1.377,0,1.377-.832a.659.659,0,0,0-.152-.444,1.8,1.8,0,0,0-.5-.368,8.629,8.629,0,0,0-.971-.432,4.493,4.493,0,0,1-1.641-.939,1.738,1.738,0,0,1-.428-1.219,1.6,1.6,0,0,1,.727-1.4,3.449,3.449,0,0,1,1.977-.5,5.6,5.6,0,0,1,2.342.5L47.8-5.522a5.21,5.21,0,0,0-1.911-.47q-1.181,0-1.181.673a.677.677,0,0,0,.308.559,6.77,6.77,0,0,0,1.343.628,6.137,6.137,0,0,1,1.263.616,1.84,1.84,0,0,1,.584.644A1.865,1.865,0,0,1,48.393-2Zm5.831,2H52.733V-9.877h1.492ZM59.1.127a3.4,3.4,0,0,1-2.561-.955,3.627,3.627,0,0,1-.924-2.631,3.979,3.979,0,0,1,.857-2.7,2.96,2.96,0,0,1,2.355-.984,2.893,2.893,0,0,1,2.2.844,3.226,3.226,0,0,1,.806,2.323v.806H57.149A2.306,2.306,0,0,0,57.7-1.6a1.923,1.923,0,0,0,1.466.549,5.413,5.413,0,0,0,1.158-.117,6.072,6.072,0,0,0,1.152-.39V-.349a4.58,4.58,0,0,1-1.1.368A6.773,6.773,0,0,1,59.1.127Zm-.273-6.145a1.5,1.5,0,0,0-1.139.451,2.148,2.148,0,0,0-.511,1.314h3.187a1.943,1.943,0,0,0-.419-1.317A1.433,1.433,0,0,0,58.825-6.018ZM67.914-2a1.837,1.837,0,0,1-.749,1.577,3.587,3.587,0,0,1-2.146.549A5.068,5.068,0,0,1,62.766-.3V-1.587a5.532,5.532,0,0,0,2.3.571q1.377,0,1.377-.832a.659.659,0,0,0-.152-.444,1.8,1.8,0,0,0-.5-.368,8.63,8.63,0,0,0-.971-.432,4.493,4.493,0,0,1-1.641-.939,1.738,1.738,0,0,1-.428-1.219,1.6,1.6,0,0,1,.727-1.4,3.449,3.449,0,0,1,1.977-.5,5.6,5.6,0,0,1,2.342.5l-.482,1.124a5.21,5.21,0,0,0-1.911-.47q-1.181,0-1.181.673a.677.677,0,0,0,.308.559,6.77,6.77,0,0,0,1.343.628,6.137,6.137,0,0,1,1.263.616,1.84,1.84,0,0,1,.584.644A1.865,1.865,0,0,1,67.914-2Zm6,0a1.837,1.837,0,0,1-.749,1.577,3.587,3.587,0,0,1-2.146.549A5.068,5.068,0,0,1,68.769-.3V-1.587a5.532,5.532,0,0,0,2.3.571q1.377,0,1.377-.832a.659.659,0,0,0-.152-.444,1.8,1.8,0,0,0-.5-.368,8.63,8.63,0,0,0-.971-.432,4.493,4.493,0,0,1-1.641-.939,1.738,1.738,0,0,1-.428-1.219,1.6,1.6,0,0,1,.727-1.4,3.449,3.449,0,0,1,1.977-.5,5.6,5.6,0,0,1,2.342.5l-.482,1.124a5.21,5.21,0,0,0-1.911-.47q-1.181,0-1.181.673a.677.677,0,0,0,.308.559,6.77,6.77,0,0,0,1.343.628,6.137,6.137,0,0,1,1.263.616,1.84,1.84,0,0,1,.584.644A1.865,1.865,0,0,1,73.917-2Zm6.954.92a3.628,3.628,0,0,0,1.092-.171V-.127a3.011,3.011,0,0,1-.638.181,4.4,4.4,0,0,1-.809.073q-2.12,0-2.12-2.234V-5.891h-.958v-.66L78.466-7.1l.508-1.485h.92v1.562h2v1.13h-2v3.758a1.054,1.054,0,0,0,.27.8A.983.983,0,0,0,80.872-1.079ZM89.218,0h-1.5V-4.316a1.889,1.889,0,0,0-.327-1.212,1.264,1.264,0,0,0-1.038-.4,1.647,1.647,0,0,0-1.381.562,3.1,3.1,0,0,0-.441,1.882V0H83.041V-9.877h1.492V-7.37a11.7,11.7,0,0,1-.076,1.289h.1a2.071,2.071,0,0,1,.847-.787,2.731,2.731,0,0,1,1.266-.279,2.264,2.264,0,0,1,2.552,2.571Zm6.143,0-.3-.978h-.051A2.876,2.876,0,0,1,93.99-.1a3.232,3.232,0,0,1-1.32.232,2.234,2.234,0,0,1-1.615-.559,2.09,2.09,0,0,1-.581-1.581,1.856,1.856,0,0,1,.806-1.638,4.648,4.648,0,0,1,2.457-.6l1.212-.038v-.375a1.419,1.419,0,0,0-.314-1.006A1.281,1.281,0,0,0,93.66-6a3.369,3.369,0,0,0-1.035.159,7.808,7.808,0,0,0-.952.375L91.19-6.538a5.192,5.192,0,0,1,1.25-.454,5.755,5.755,0,0,1,1.282-.156,3.037,3.037,0,0,1,2.022.584,2.286,2.286,0,0,1,.682,1.834V0ZM93.139-1.016a1.848,1.848,0,0,0,1.3-.454,1.645,1.645,0,0,0,.492-1.273v-.609l-.9.038a3.084,3.084,0,0,0-1.533.352A1.07,1.07,0,0,0,92.022-2a.938.938,0,0,0,.279.727A1.2,1.2,0,0,0,93.139-1.016ZM104.361,0h-1.5V-4.316a1.889,1.889,0,0,0-.327-1.212,1.264,1.264,0,0,0-1.038-.4,1.65,1.65,0,0,0-1.384.559A3.084,3.084,0,0,0,99.676-3.5V0H98.184V-7.021h1.168l.209.92h.076a2.077,2.077,0,0,1,.9-.774,3.021,3.021,0,0,1,1.295-.273,2.253,2.253,0,0,1,2.526,2.571Zm7.456-5.8a3.182,3.182,0,0,1,2.222.743,2.6,2.6,0,0,1,.819,2.025,2.958,2.958,0,0,1-.93,2.32,3.825,3.825,0,0,1-2.644.835,5,5,0,0,1-2.444-.5V-1.727a4.481,4.481,0,0,0,1.181.451,5.366,5.366,0,0,0,1.238.159,2.3,2.3,0,0,0,1.536-.451,1.641,1.641,0,0,0,.527-1.32q0-1.663-2.12-1.663a5.556,5.556,0,0,0-.736.06q-.438.06-.768.136l-.667-.394.355-4.532h4.824v1.327H110.7l-.209,2.3q.222-.038.543-.089A5.118,5.118,0,0,1,111.817-5.8ZM122.054-4.64a6.6,6.6,0,0,1-.778,3.593A2.654,2.654,0,0,1,118.9.127a2.635,2.635,0,0,1-2.349-1.212,6.483,6.483,0,0,1-.8-3.555,6.638,6.638,0,0,1,.778-3.621A2.655,2.655,0,0,1,118.9-9.426a2.637,2.637,0,0,1,2.355,1.219A6.531,6.531,0,0,1,122.054-4.64Zm-4.792,0a6.762,6.762,0,0,0,.39,2.71,1.3,1.3,0,0,0,1.247.813,1.313,1.313,0,0,0,1.254-.825,6.676,6.676,0,0,0,.4-2.7,6.728,6.728,0,0,0-.4-2.7,1.312,1.312,0,0,0-1.254-.835,1.3,1.3,0,0,0-1.247.819A6.812,6.812,0,0,0,117.262-4.64ZM131.122-2a1.837,1.837,0,0,1-.749,1.577,3.587,3.587,0,0,1-2.146.549A5.068,5.068,0,0,1,125.974-.3V-1.587a5.532,5.532,0,0,0,2.3.571q1.377,0,1.377-.832a.659.659,0,0,0-.152-.444,1.8,1.8,0,0,0-.5-.368,8.629,8.629,0,0,0-.971-.432,4.493,4.493,0,0,1-1.641-.939,1.738,1.738,0,0,1-.428-1.219,1.6,1.6,0,0,1,.727-1.4,3.449,3.449,0,0,1,1.977-.5,5.6,5.6,0,0,1,2.342.5l-.482,1.124a5.21,5.21,0,0,0-1.911-.47q-1.181,0-1.181.673a.677.677,0,0,0,.308.559,6.77,6.77,0,0,0,1.343.628,6.137,6.137,0,0,1,1.263.616,1.84,1.84,0,0,1,.584.644A1.865,1.865,0,0,1,131.122-2Zm3.9.92a3.628,3.628,0,0,0,1.092-.171V-.127a3.011,3.011,0,0,1-.638.181,4.4,4.4,0,0,1-.809.073q-2.12,0-2.12-2.234V-5.891h-.958v-.66l1.028-.546.508-1.485h.92v1.562h2v1.13h-2v3.758a1.054,1.054,0,0,0,.27.8A.983.983,0,0,0,135.025-1.079ZM141.587,0l-.3-.978h-.051a2.876,2.876,0,0,1-1.022.873,3.232,3.232,0,0,1-1.32.232,2.234,2.234,0,0,1-1.615-.559,2.09,2.09,0,0,1-.581-1.581,1.856,1.856,0,0,1,.806-1.638,4.648,4.648,0,0,1,2.457-.6l1.212-.038v-.375a1.419,1.419,0,0,0-.314-1.006A1.281,1.281,0,0,0,139.886-6a3.369,3.369,0,0,0-1.035.159,7.808,7.808,0,0,0-.952.375l-.482-1.066a5.192,5.192,0,0,1,1.25-.454,5.755,5.755,0,0,1,1.282-.156,3.037,3.037,0,0,1,2.022.584,2.286,2.286,0,0,1,.682,1.834V0Zm-2.222-1.016a1.848,1.848,0,0,0,1.3-.454,1.645,1.645,0,0,0,.492-1.273v-.609l-.9.038a3.084,3.084,0,0,0-1.533.352,1.07,1.07,0,0,0-.479.962.938.938,0,0,0,.279.727A1.2,1.2,0,0,0,139.365-1.016Zm7.66-.063a3.628,3.628,0,0,0,1.092-.171V-.127a3.011,3.011,0,0,1-.638.181,4.4,4.4,0,0,1-.809.073q-2.12,0-2.12-2.234V-5.891h-.958v-.66L144.62-7.1l.508-1.485h.92v1.562h2v1.13h-2v3.758a1.054,1.054,0,0,0,.27.8A.983.983,0,0,0,147.026-1.079ZM152.261.127A3.4,3.4,0,0,1,149.7-.828a3.627,3.627,0,0,1-.924-2.631,3.979,3.979,0,0,1,.857-2.7,2.96,2.96,0,0,1,2.355-.984,2.893,2.893,0,0,1,2.2.844,3.226,3.226,0,0,1,.806,2.323v.806h-4.678a2.306,2.306,0,0,0,.552,1.571,1.923,1.923,0,0,0,1.466.549,5.413,5.413,0,0,0,1.158-.117,6.072,6.072,0,0,0,1.152-.39V-.349a4.58,4.58,0,0,1-1.1.368A6.773,6.773,0,0,1,152.261.127Zm-.273-6.145a1.5,1.5,0,0,0-1.139.451,2.148,2.148,0,0,0-.511,1.314h3.187a1.943,1.943,0,0,0-.419-1.317A1.433,1.433,0,0,0,151.988-6.018ZM161.077-2a1.837,1.837,0,0,1-.749,1.577,3.587,3.587,0,0,1-2.146.549A5.068,5.068,0,0,1,155.929-.3V-1.587a5.532,5.532,0,0,0,2.3.571q1.377,0,1.377-.832a.659.659,0,0,0-.152-.444,1.8,1.8,0,0,0-.5-.368,8.629,8.629,0,0,0-.971-.432,4.492,4.492,0,0,1-1.641-.939,1.738,1.738,0,0,1-.428-1.219,1.6,1.6,0,0,1,.727-1.4,3.449,3.449,0,0,1,1.977-.5,5.6,5.6,0,0,1,2.342.5l-.482,1.124a5.21,5.21,0,0,0-1.911-.47q-1.181,0-1.181.673a.677.677,0,0,0,.308.559,6.771,6.771,0,0,0,1.343.628,6.137,6.137,0,0,1,1.263.616,1.84,1.84,0,0,1,.584.644A1.865,1.865,0,0,1,161.077-2Z" transform="translate(-16028 171.455)" fill="#6a737f"/><g transform="translate(-15846 156)" fill="#fff"><path d="M 10 19.125 C 4.968460083007813 19.125 0.875 15.03153991699219 0.875 10 C 0.875 4.968460083007813 4.968460083007813 0.875 10 0.875 C 15.03153991699219 0.875 19.125 4.968460083007813 19.125 10 C 19.125 15.03153991699219 15.03153991699219 19.125 10 19.125 Z" stroke="none"/><path d="M 10 1.75 C 5.450929641723633 1.75 1.75 5.450929641723633 1.75 10 C 1.75 14.54907035827637 5.450929641723633 18.25 10 18.25 C 14.54907035827637 18.25 18.25 14.54907035827637 18.25 10 C 18.25 5.450929641723633 14.54907035827637 1.75 10 1.75 M 10 0 C 15.52285003662109 0 20 4.477149963378906 20 10 C 20 15.52285003662109 15.52285003662109 20 10 20 C 4.477149963378906 20 0 15.52285003662109 0 10 C 0 4.477149963378906 4.477149963378906 0 10 0 Z" stroke="none" fill="#e1e1e1"/></g><g transform="translate(-15802 156)" fill="#fff"><path d="M 10 19.5 C 4.761680126190186 19.5 0.5 15.23832035064697 0.5 10 C 0.5 4.761680126190186 4.761680126190186 0.5 10 0.5 C 15.23832035064697 0.5 19.5 4.761680126190186 19.5 10 C 19.5 15.23832035064697 15.23832035064697 19.5 10 19.5 Z" stroke="none"/><path d="M 10 1 C 5.037380218505859 1 1 5.037380218505859 1 10 C 1 14.96261978149414 5.037380218505859 19 10 19 C 14.96261978149414 19 19 14.96261978149414 19 10 C 19 5.037380218505859 14.96261978149414 1 10 1 M 10 0 C 15.52285003662109 0 20 4.477149963378906 20 10 C 20 15.52285003662109 15.52285003662109 20 10 20 C 4.477149963378906 20 0 15.52285003662109 0 10 C 0 4.477149963378906 4.477149963378906 0 10 0 Z" stroke="none" fill="#00ad50"/></g><path d="M10,0A10,10,0,1,1,0,10,10,10,0,0,1,10,0Z" transform="translate(-15802 156)" fill="none"/><path d="M5,0A5,5,0,1,1,0,5,5,5,0,0,1,5,0Z" transform="translate(-15797 161)" fill="#00ad50"/><path d="M5,0A5,5,0,1,1,0,5,5,5,0,0,1,5,0Z" transform="translate(-15797 161)" fill="none"/><path d="M-9.921,0h-1.517V-7.979h-2.729v-1.3h6.976v1.3H-9.921Zm7.554-7.147a3.591,3.591,0,0,1,.743.063l-.146,1.39a2.819,2.819,0,0,0-.66-.076,1.91,1.91,0,0,0-1.45.584,2.111,2.111,0,0,0-.555,1.517V0H-5.929V-7.021h1.168l.2,1.238h.076a2.782,2.782,0,0,1,.911-1A2.165,2.165,0,0,1-2.368-7.147ZM4.627,0,4.418-.92H4.342a2.117,2.117,0,0,1-.885.768A2.961,2.961,0,0,1,2.146.127a2.573,2.573,0,0,1-1.9-.635A2.631,2.631,0,0,1-.387-2.431V-7.021h1.5v4.329a1.878,1.878,0,0,0,.33,1.209,1.26,1.26,0,0,0,1.035.4,1.647,1.647,0,0,0,1.381-.562A3.1,3.1,0,0,0,4.3-3.523v-3.5H5.8V0Zm6.367.127A3.4,3.4,0,0,1,8.433-.828a3.627,3.627,0,0,1-.924-2.631,3.979,3.979,0,0,1,.857-2.7,2.96,2.96,0,0,1,2.355-.984,2.893,2.893,0,0,1,2.2.844,3.226,3.226,0,0,1,.806,2.323v.806H9.045A2.306,2.306,0,0,0,9.6-1.6a1.923,1.923,0,0,0,1.466.549,5.413,5.413,0,0,0,1.158-.117,6.072,6.072,0,0,0,1.152-.39V-.349a4.58,4.58,0,0,1-1.1.368A6.773,6.773,0,0,1,10.994.127Zm-.273-6.145a1.5,1.5,0,0,0-1.139.451,2.148,2.148,0,0,0-.511,1.314h3.187a1.943,1.943,0,0,0-.419-1.317A1.433,1.433,0,0,0,10.721-6.018Z" transform="translate(-15836.932 104)" fill="#6a737f"/><path d="M2.729,0h-1.5V-9.28H6.462V-8H2.729v2.9h3.5v1.289h-3.5Zm9.648,0-.3-.978h-.051A2.876,2.876,0,0,1,11.007-.1a3.232,3.232,0,0,1-1.32.232A2.234,2.234,0,0,1,8.071-.432,2.09,2.09,0,0,1,7.49-2.012,1.856,1.856,0,0,1,8.3-3.65a4.648,4.648,0,0,1,2.457-.6l1.212-.038v-.375a1.419,1.419,0,0,0-.314-1.006A1.281,1.281,0,0,0,10.677-6a3.369,3.369,0,0,0-1.035.159,7.808,7.808,0,0,0-.952.375L8.208-6.538a5.192,5.192,0,0,1,1.25-.454,5.755,5.755,0,0,1,1.282-.156,3.037,3.037,0,0,1,2.022.584,2.286,2.286,0,0,1,.682,1.834V0ZM10.156-1.016a1.848,1.848,0,0,0,1.3-.454,1.645,1.645,0,0,0,.492-1.273v-.609l-.9.038a3.084,3.084,0,0,0-1.533.352A1.07,1.07,0,0,0,9.039-2a.938.938,0,0,0,.279.727A1.2,1.2,0,0,0,10.156-1.016ZM17.018,0H15.526V-9.877h1.492Zm6.849-2a1.837,1.837,0,0,1-.749,1.577,3.587,3.587,0,0,1-2.146.549A5.068,5.068,0,0,1,18.719-.3V-1.587a5.532,5.532,0,0,0,2.3.571q1.377,0,1.377-.832a.659.659,0,0,0-.152-.444,1.8,1.8,0,0,0-.5-.368,8.63,8.63,0,0,0-.971-.432,4.493,4.493,0,0,1-1.641-.939,1.738,1.738,0,0,1-.428-1.219,1.6,1.6,0,0,1,.727-1.4,3.449,3.449,0,0,1,1.977-.5,5.6,5.6,0,0,1,2.342.5l-.482,1.124a5.21,5.21,0,0,0-1.911-.47q-1.181,0-1.181.673a.677.677,0,0,0,.308.559,6.77,6.77,0,0,0,1.343.628,6.137,6.137,0,0,1,1.263.616,1.84,1.84,0,0,1,.584.644A1.865,1.865,0,0,1,23.867-2ZM28.545.127a3.4,3.4,0,0,1-2.561-.955,3.627,3.627,0,0,1-.924-2.631,3.979,3.979,0,0,1,.857-2.7,2.96,2.96,0,0,1,2.355-.984,2.893,2.893,0,0,1,2.2.844,3.226,3.226,0,0,1,.806,2.323v.806H26.6A2.306,2.306,0,0,0,27.149-1.6a1.923,1.923,0,0,0,1.466.549,5.413,5.413,0,0,0,1.158-.117,6.072,6.072,0,0,0,1.152-.39V-.349a4.58,4.58,0,0,1-1.1.368A6.773,6.773,0,0,1,28.545.127Zm-.273-6.145a1.5,1.5,0,0,0-1.139.451,2.148,2.148,0,0,0-.511,1.314h3.187A1.943,1.943,0,0,0,29.39-5.57,1.433,1.433,0,0,0,28.272-6.018Z" transform="translate(-15807.932 104)" fill="#6a737f"/><g transform="translate(-15802 118)" fill="#fff"><path d="M 10 19.125 C 4.968460083007813 19.125 0.875 15.03153991699219 0.875 10 C 0.875 4.968460083007813 4.968460083007813 0.875 10 0.875 C 15.03153991699219 0.875 19.125 4.968460083007813 19.125 10 C 19.125 15.03153991699219 15.03153991699219 19.125 10 19.125 Z" stroke="none"/><path d="M 10 1.75 C 5.450929641723633 1.75 1.75 5.450929641723633 1.75 10 C 1.75 14.54907035827637 5.450929641723633 18.25 10 18.25 C 14.54907035827637 18.25 18.25 14.54907035827637 18.25 10 C 18.25 5.450929641723633 14.54907035827637 1.75 10 1.75 M 10 0 C 15.52285003662109 0 20 4.477149963378906 20 10 C 20 15.52285003662109 15.52285003662109 20 10 20 C 4.477149963378906 20 0 15.52285003662109 0 10 C 0 4.477149963378906 4.477149963378906 0 10 0 Z" stroke="none" fill="#e1e1e1"/></g><g transform="translate(-15846 118)" fill="#fff"><path d="M 10 19.5 C 4.761680126190186 19.5 0.5 15.23832035064697 0.5 10 C 0.5 4.761680126190186 4.761680126190186 0.5 10 0.5 C 15.23832035064697 0.5 19.5 4.761680126190186 19.5 10 C 19.5 15.23832035064697 15.23832035064697 19.5 10 19.5 Z" stroke="none"/><path d="M 10 1 C 5.037380218505859 1 1 5.037380218505859 1 10 C 1 14.96261978149414 5.037380218505859 19 10 19 C 14.96261978149414 19 19 14.96261978149414 19 10 C 19 5.037380218505859 14.96261978149414 1 10 1 M 10 0 C 15.52285003662109 0 20 4.477149963378906 20 10 C 20 15.52285003662109 15.52285003662109 20 10 20 C 4.477149963378906 20 0 15.52285003662109 0 10 C 0 4.477149963378906 4.477149963378906 0 10 0 Z" stroke="none" fill="#00ad50"/></g><path d="M10,0A10,10,0,1,1,0,10,10,10,0,0,1,10,0Z" transform="translate(-15846 118)" fill="none"/><path d="M5,0A5,5,0,1,1,0,5,5,5,0,0,1,5,0Z" transform="translate(-15841 123)" fill="#00ad50"/><path d="M5,0A5,5,0,1,1,0,5,5,5,0,0,1,5,0Z" transform="translate(-15841 123)" fill="none"/><g transform="translate(-15846 195)" fill="#fff"><path d="M 10 19.5 C 4.761680126190186 19.5 0.5 15.23832035064697 0.5 10 C 0.5 4.761680126190186 4.761680126190186 0.5 10 0.5 C 15.23832035064697 0.5 19.5 4.761680126190186 19.5 10 C 19.5 15.23832035064697 15.23832035064697 19.5 10 19.5 Z" stroke="none"/><path d="M 10 1 C 5.037380218505859 1 1 5.037380218505859 1 10 C 1 14.96261978149414 5.037380218505859 19 10 19 C 14.96261978149414 19 19 14.96261978149414 19 10 C 19 5.037380218505859 14.96261978149414 1 10 1 M 10 0 C 15.52285003662109 0 20 4.477149963378906 20 10 C 20 15.52285003662109 15.52285003662109 20 10 20 C 4.477149963378906 20 0 15.52285003662109 0 10 C 0 4.477149963378906 4.477149963378906 0 10 0 Z" stroke="none" fill="#00ad50"/></g><path d="M10,0A10,10,0,1,1,0,10,10,10,0,0,1,10,0Z" transform="translate(-15846 195)" fill="none"/><path d="M5,0A5,5,0,1,1,0,5,5,5,0,0,1,5,0Z" transform="translate(-15841 200)" fill="#00ad50"/><path d="M5,0A5,5,0,1,1,0,5,5,5,0,0,1,5,0Z" transform="translate(-15841 200)" fill="none"/></g></svg>