<svg xmlns="http://www.w3.org/2000/svg" width="247.207" height="145.945" viewBox="0 0 247.207 145.945"><g transform="translate(-16.756 -51.2)"><rect width="247.207" height="145.945" rx="5" transform="translate(16.756 51.2)" fill="#fff"/><g transform="translate(30.656 70.018)"><g transform="translate(0 0)"><g transform="translate(7.346 -0.985)"><g transform="translate(161.195)"><g transform="translate(5)"><text transform="translate(10 11)" fill="#6a737f" font-size="9" font-family="OpenSans-Semibold, Open Sans" font-weight="600"><tspan x="-7.649" y="0">YES</tspan></text></g><g transform="translate(36.717)"><text transform="translate(0 11)" fill="#6a737f" font-size="9" font-family="OpenSans-Semibold, Open Sans" font-weight="600"><tspan x="0" y="0">NO</tspan></text></g></g></g><g transform="translate(-3.51 20.985)"><g transform="translate(8.61 -0.311)"><text transform="translate(23.41 17.508)" fill="#212e3a" font-size="12" font-family="OpenSans-Semibold, Open Sans" font-weight="600"><tspan x="0" y="0">Do you like apples?</tspan></text><g transform="translate(-5 6.508)"><text transform="translate(0 11)" fill="#212e3a" font-size="12" font-family="OpenSans-Bold, Open Sans" font-weight="700"><tspan x="0" y="0">A</tspan></text></g></g><g transform="translate(8.611 32.689)"><text transform="translate(23.41 17.508)" fill="#212e3a" font-size="12" font-family="OpenSans-Semibold, Open Sans" font-weight="600"><tspan x="0" y="0">Can you drive a car?</tspan></text><text transform="translate(-5 17.508)" fill="#212e3a" font-size="12" font-family="OpenSans-Bold, Open Sans" font-weight="700"><tspan x="0" y="0">B</tspan></text></g><g transform="translate(8.611 65.689)"><text transform="translate(23.41 17.508)" fill="#212e3a" font-size="12" font-family="OpenSans-Semibold, Open Sans" font-weight="600"><tspan x="0" y="0">Are you multi-lingual?</tspan></text><g transform="translate(-5 6.508)"><text transform="translate(0 11)" fill="#212e3a" font-size="12" font-family="OpenSans-Bold, Open Sans" font-weight="700"><tspan x="0" y="0">C</tspan></text></g></g><g transform="translate(6)"><g transform="translate(174.162 5.197)"><g fill="none" stroke="#3f85e5" stroke-miterlimit="10" stroke-width="1"><circle cx="7.483" cy="7.483" r="7.483" stroke="none"/><circle cx="7.483" cy="7.483" r="6.983" fill="none"/></g><circle cx="3.415" cy="3.415" r="3.415" transform="translate(4.068 4)" fill="#3f85e5"/></g><g transform="translate(202.162 5.197)"><g fill="#f8f8f8" stroke="#b9b9b9" stroke-miterlimit="10" stroke-width="1"><circle cx="7.483" cy="7.483" r="7.483" stroke="none"/><circle cx="7.483" cy="7.483" r="6.983" fill="none"/></g></g></g><g transform="translate(6 33)"><g transform="translate(174.162 5.197)"><g fill="none" stroke="#3f85e5" stroke-miterlimit="10" stroke-width="1"><circle cx="7.483" cy="7.483" r="7.483" stroke="none"/><circle cx="7.483" cy="7.483" r="6.983" fill="none"/></g><circle cx="3.415" cy="3.415" r="3.415" transform="translate(4.068 4)" fill="#3f85e5"/></g><g transform="translate(202.162 5.197)"><g fill="#f8f8f8" stroke="#b9b9b9" stroke-miterlimit="10" stroke-width="1"><circle cx="7.483" cy="7.483" r="7.483" stroke="none"/><circle cx="7.483" cy="7.483" r="6.983" fill="none"/></g></g></g><g transform="translate(6 66)"><g transform="translate(174.162 5.197)"><g fill="none" stroke="#3f85e5" stroke-miterlimit="10" stroke-width="1"><circle cx="7.483" cy="7.483" r="7.483" stroke="none"/><circle cx="7.483" cy="7.483" r="6.983" fill="none"/></g><circle cx="3.415" cy="3.415" r="3.415" transform="translate(4.068 4)" fill="#3f85e5"/></g><g transform="translate(202.162 5.197)"><g fill="#f8f8f8" stroke="#b9b9b9" stroke-miterlimit="10" stroke-width="1"><circle cx="7.483" cy="7.483" r="7.483" stroke="none"/><circle cx="7.483" cy="7.483" r="6.983" fill="none"/></g></g></g></g></g></g></g></svg>