<?xml version="1.0" encoding="UTF-8"?>
<svg width="290px" height="171px" viewBox="0 0 290 171" version="1.1" xmlns="http://www.w3.org/2000/svg" xmlns:xlink="http://www.w3.org/1999/xlink">
	<!-- Generator: Sketch 55.1 (78136) - https://sketchapp.com -->
	<title>choice-matrix-inline</title>
	<desc>Created with Sketch.</desc>
	<g id="Page-1" stroke="none" stroke-width="1" fill="none" fill-rule="evenodd">
		<g id="choice-matrix-inline" transform="translate(-10.000000, 0.000000)">
			<g id="Group" transform="translate(10.000000, 0.000000)" fill-rule="nonzero">
				<path d="M284.511597,170.420502 L5.00001264,170.420502 C2.5186913,170.420502 0.500012636,168.401825 0.500012636,165.920502 L0.500012636,5.00000083 C0.500012636,2.51867938 2.5186913,0.500000834 5.00001264,0.500000834 L284.511597,0.500000834 C286.99292,0.500000834 289.011597,2.51867938 289.011597,5.00000083 L289.011597,165.920502 C289.011597,168.401825 286.99292,170.420502 284.511597,170.420502 Z" id="Path" fill="#FFFFFF"></path>
				<path d="M5,0.999984741 C2.79437256,0.999984741 1,2.79437256 1,4.99998474 L1,165.920486 C1,168.126099 2.79437256,169.920486 5,169.920486 L284.511597,169.920486 C286.717224,169.920486 288.511597,168.126099 288.511597,165.920486 L288.511597,4.99998474 C288.511597,2.79437256 286.717224,0.999984741 284.511597,0.999984741 L5,0.999984741 L5,0.999984741 Z M5,-1.52587891e-05 L284.511597,-1.52587891e-05 C287.27298,-1.52587891e-05 289.511597,2.23855591 289.511597,4.99998474 L289.511597,165.920486 C289.511597,168.681946 287.27298,170.920486 284.511597,170.920486 L5,170.920486 C2.23855591,170.920486 0,168.681946 0,165.920486 L0,4.99998474 C0,2.23855591 2.23855591,-1.52587891e-05 5,-1.52587891e-05 Z" id="Shape" fill="#DBDBDB"></path>
			</g>
			<path d="M31.225,95.72 L33.98,95.72 C34.9374707,95.6483952 35.8961724,95.8417962 36.751,96.279 C37.3290614,96.6728905 37.6527789,97.3454908 37.6,98.043 C37.6204786,98.5292702 37.4744333,99.0079741 37.186,99.4 C36.8854318,99.7720037 36.4539453,100.014938 35.98,100.079 L35.98,100.142 C36.5287907,100.211375 37.0367702,100.468191 37.418,100.869 C37.7432295,101.287296 37.9065688,101.808916 37.878,102.338 C37.9112466,103.091615 37.5855593,103.816436 37,104.292 C36.2982369,104.800542 35.4421692,105.050685 34.577,105 L31.225,105 L31.225,95.72 Z M32.742,99.554 L34.2,99.554 C34.6826048,99.5906589 35.1654746,99.4864424 35.59,99.254 C35.9035024,99.0100986 36.0696832,98.6222175 36.03,98.227 C36.0593086,97.8484787 35.8774022,97.4846659 35.557,97.281 C35.091267,97.0537833 34.5739568,96.9530803 34.057,96.989 L32.742,96.989 L32.742,99.554 Z M32.742,100.785 L32.742,103.724 L34.354,103.724 C34.8600242,103.759151 35.3639968,103.63123 35.792,103.359 C36.1332018,103.078 36.3148269,102.647481 36.278,102.207 C36.3070654,101.787126 36.1181931,101.381806 35.778,101.134 C35.3241621,100.870254 34.8016526,100.748683 34.278,100.785 L32.742,100.785 Z M43.716,105 L43.416,104.022 L43.365,104.022 C43.0992265,104.39122 42.749656,104.692124 42.345,104.9 C41.9260435,105.068715 41.476377,105.147747 41.025,105.132 C40.4328193,105.165989 39.8514315,104.963079 39.409,104.568 C39.0021455,104.145824 38.7913324,103.572166 38.828,102.987 C38.7913745,102.337821 39.0971365,101.716813 39.634,101.35 C40.3817943,100.926733 41.2322839,100.719043 42.091,100.75 L43.3,100.709 L43.3,100.334 C43.328354,99.9707918 43.2159258,99.610592 42.986,99.328 C42.7220789,99.0883093 42.3702078,98.9694486 42.015,99 C41.6638216,98.9987325 41.3146044,99.0523803 40.98,99.159 C40.6548089,99.2630508 40.3367929,99.3883197 40.028,99.534 L39.546,98.462 C39.9414823,98.2577087 40.3615945,98.1051239 40.796,98.008 C41.2161268,97.9080648 41.6461671,97.8557353 42.078,97.852 C42.8000637,97.7994372 43.517153,98.006549 44.1,98.436 C44.5907021,98.9142294 44.8410124,99.5873511 44.782,100.27 L44.782,105 L43.716,105 Z M41.494,103.984 C41.9696389,104.00579 42.4353343,103.843155 42.794,103.53 C43.1345905,103.196925 43.3140636,102.732556 43.286,102.257 L43.286,101.648 L42.386,101.686 C41.8531652,101.668861 41.3249869,101.790139 40.853,102.038 C40.5333457,102.250144 40.3517318,102.617187 40.377,103 C40.3602663,103.271312 40.4620528,103.536541 40.656,103.727 C40.892934,103.915269 41.1922534,104.007065 41.494,103.984 Z M51.256,103 C51.2880351,103.618298 51.0064638,104.211139 50.507,104.577 C49.8675009,104.981821 49.1163388,105.173987 48.361,105.126 C47.5873174,105.157983 46.8165938,105.012254 46.108,104.7 L46.108,103.413 C46.8244192,103.76724 47.6090878,103.962043 48.408,103.984 C49.326,103.984 49.785,103.706667 49.785,103.152 C49.7905334,102.990362 49.7364335,102.832334 49.633,102.708 C49.488905,102.5573 49.3197225,102.432782 49.133,102.34 C48.8185157,102.176188 48.4942343,102.031915 48.162,101.908 C47.5545907,101.714935 46.9952076,101.394849 46.521,100.969 C46.2295247,100.631697 46.0788047,100.195289 46.1,99.75 C46.0794529,99.1879981 46.3554669,98.6564717 46.827,98.35 C47.4205379,97.9878704 48.1096666,97.813584 48.804,97.85 C49.6115874,97.8458424 50.4105196,98.0164086 51.146,98.35 L50.664,99.474 C50.0626411,99.197358 49.4140732,99.0378463 48.753,99.004 C47.9656667,99.004 47.572,99.2283333 47.572,99.677 C47.5748835,99.9030736 47.6904319,100.112787 47.88,100.236 C48.3033265,100.493868 48.753693,100.704463 49.223,100.864 C49.6661969,101.020298 50.0899742,101.226986 50.486,101.48 C50.7293129,101.644937 50.9295688,101.865767 51.07,102.124 C51.202226,102.39656 51.2660664,102.697227 51.256,103 Z M53.984,101.292 L54.828,100.238 L56.948,97.978 L58.668,97.978 L55.844,100.995 L58.844,105 L57.094,105 L54.841,101.921 L54.022,102.594 L54.022,105 L52.543,105 L52.543,95.123 L54.022,95.123 L54.022,99.941 L53.946,101.293 L53.984,101.292 Z M62.717,105.127 C61.7673291,105.18092 60.8384955,104.834557 60.156,104.172 C59.5097053,103.45317 59.1770933,102.50609 59.232,101.541 C59.1767814,100.566343 59.4817926,99.6053978 60.089,98.841 C60.6850028,98.1740241 61.5506464,97.8123285 62.444,97.857 C63.263873,97.8134085 64.0636535,98.1202333 64.644,98.701 C65.2088012,99.338566 65.4985381,100.173627 65.45,101.024 L65.45,101.83 L60.768,101.83 C60.7504377,102.403931 60.9476287,102.963768 61.321,103.4 C61.7096976,103.78262 62.2425895,103.982182 62.787,103.949 C63.1760832,103.951733 63.5643269,103.912506 63.945,103.832 C64.3410846,103.740882 64.7270201,103.610227 65.097,103.442 L65.097,104.651 C64.7474111,104.819789 64.3777809,104.943447 63.997,105.019 C63.5747184,105.09547 63.1461247,105.131633 62.717,105.127 Z M62.444,98.982 C62.0174501,98.9633812 61.6031784,99.1274168 61.305,99.433 C60.9916809,99.801033 60.8116449,100.263983 60.794,100.747 L63.98,100.747 C64.0064588,100.271485 63.8573522,99.8028134 63.561,99.43 C63.2724566,99.1239762 62.8640372,98.9601697 62.444,98.982 L62.444,98.982 Z M69.431,103.92 C69.8015973,103.919108 70.1698703,103.861439 70.523,103.749 L70.523,104.873 C70.3176466,104.956641 70.1036825,105.017342 69.885,105.054 C69.6181611,105.103226 69.3473407,105.127664 69.076,105.127026 C67.6626667,105.127026 66.956,104.382333 66.956,102.893 L66.956,99.109 L66,99.109 L66,98.449 L67.026,97.9 L67.534,96.415 L68.454,96.415 L68.454,97.977 L70.454,97.977 L70.454,99.107 L68.454,99.107 L68.454,102.865 C68.4285915,103.15764 68.5264555,103.447607 68.724,103.665 C68.9166764,103.840907 69.1713788,103.933003 69.432,103.921 L69.431,103.92 Z M75.187,97.852 C75.9840361,97.8150984 76.748655,98.1707003 77.234,98.804 C77.7669372,99.5891729 78.0247015,100.528799 77.967,101.476 C78.0242967,102.429605 77.7629221,103.375198 77.224,104.164 C76.7349733,104.802669 75.9645895,105.161908 75.161,105.126 C74.3560139,105.165016 73.583004,104.807093 73.092,104.168 L72.992,104.168 L72.718,105 L71.6,105 L71.6,95.123 L73.092,95.123 L73.092,97.472 C73.092,97.6453333 73.0836667,97.9033333 73.067,98.246 C73.0503333,98.5886667 73.0376667,98.8066667 73.029,98.9 L73.092,98.9 C73.5571067,98.2057532 74.3535727,97.8079001 75.188,97.853 L75.187,97.852 Z M74.8,99.071 C74.306046,99.0242898 73.8204952,99.2222452 73.5,99.601 C73.1882592,100.137704 73.0457136,100.755982 73.091,101.375 L73.091,101.475 C73.0408213,102.121455 73.1831337,102.768298 73.5,103.334 C73.816149,103.738277 74.3158903,103.954442 74.827,103.908 C75.3109031,103.930031 75.7692723,103.690151 76.027,103.28 C76.3328511,102.726088 76.474712,102.096558 76.436,101.465 C76.4373333,99.869 75.892,99.071 74.8,99.071 Z M83.768,105 L83.468,104.022 L83.417,104.022 C83.1520753,104.390857 82.803566,104.691733 82.4,104.9 C81.9810435,105.068715 81.531377,105.147747 81.08,105.132 C80.4888548,105.167082 79.9079663,104.966019 79.465,104.573 C79.0581455,104.150824 78.8473324,103.577166 78.884,102.992 C78.8470164,102.342474 79.1528203,101.721001 79.69,101.354 C80.4377943,100.930733 81.2882839,100.723043 82.147,100.754 L83.359,100.716 L83.359,100.341 C83.387354,99.9777918 83.2749258,99.617592 83.045,99.335 C82.7805329,99.0909077 82.4255847,98.9693252 82.067,99 C81.7158216,98.9987325 81.3666044,99.0523803 81.032,99.159 C80.7068089,99.2630508 80.3887929,99.3883197 80.08,99.534 L79.6,98.462 C79.9954823,98.2577087 80.4155945,98.1051239 80.85,98.008 C81.2701268,97.9080648 81.7001671,97.8557353 82.132,97.852 C82.8540637,97.7994372 83.571153,98.006549 84.154,98.436 C84.6447021,98.9142294 84.8950124,99.5873511 84.836,100.27 L84.836,105 L83.768,105 Z M81.547,103.984 C82.0226389,104.00579 82.4883343,103.843155 82.847,103.53 C83.1875905,103.196925 83.3670636,102.732556 83.339,102.257 L83.339,101.648 L82.439,101.686 C81.9061652,101.668861 81.3779869,101.790139 80.906,102.038 C80.5863457,102.250144 80.4047318,102.617187 80.43,103 C80.4132663,103.271312 80.5150528,103.536541 80.709,103.727 C80.945934,103.915269 81.2452534,104.007065 81.547,103.984 Z M88.084,105 L86.592,105 L86.592,95.123 L88.084,95.123 L88.084,105 Z M91.384,105 L89.891,105 L89.891,95.123 L91.383,95.123 L91.384,105 Z" id="Shape" fill="#6A737F" fill-rule="nonzero"></path>
			<path d="M241.797,105 L240.297,105 L240.297,95.72 L245.53,95.72 L245.53,97 L241.797,97 L241.797,99.9 L245.297,99.9 L245.297,101.189 L241.797,101.189 L241.797,105 Z M251.445,105 L251.145,104.022 L251.094,104.022 C250.828509,104.391099 250.479293,104.691994 250.075,104.9 C249.656044,105.068715 249.206377,105.147747 248.755,105.132 C248.162819,105.165989 247.581432,104.963079 247.139,104.568 C246.73241,104.146065 246.521618,103.572826 246.558,102.988 C246.521896,102.337699 246.829301,101.716058 247.368,101.35 C248.115794,100.926733 248.966284,100.719043 249.825,100.75 L251.037,100.712 L251.037,100.337 C251.065354,99.9737918 250.952926,99.613592 250.723,99.331 C250.457868,99.0883557 250.102999,98.9682517 249.745,99 C249.393822,98.9987325 249.044604,99.0523803 248.71,99.159 C248.384809,99.2630508 248.066793,99.3883197 247.758,99.534 L247.276,98.462 C247.671482,98.2577087 248.091594,98.1051239 248.526,98.008 C248.946127,97.9080648 249.376167,97.8557353 249.808,97.852 C250.530064,97.7994372 251.247153,98.006549 251.83,98.436 C252.320702,98.9142294 252.571012,99.5873511 252.512,100.27 L252.512,105 L251.445,105 Z M249.224,103.984 C249.699639,104.00579 250.165334,103.843155 250.524,103.53 C250.864591,103.196925 251.044064,102.732556 251.016,102.257 L251.016,101.648 L250.116,101.686 C249.583165,101.668861 249.054987,101.790139 248.583,102.038 C248.263346,102.250144 248.081732,102.617187 248.107,103 C248.090266,103.271312 248.192053,103.536541 248.386,103.727 C248.622934,103.915269 248.922253,104.007065 249.224,103.984 Z M256.086,105 L254.594,105 L254.594,95.123 L256.086,95.123 L256.086,105 Z M262.935,103 C262.967035,103.618298 262.685464,104.211139 262.186,104.577 C261.546501,104.981821 260.795339,105.173987 260.04,105.126 C259.266317,105.157983 258.495594,105.012254 257.787,104.7 L257.787,103.413 C258.503419,103.76724 259.288088,103.962043 260.087,103.984 C261.005,103.984 261.464,103.706667 261.464,103.152 C261.469533,102.990362 261.415434,102.832334 261.312,102.708 C261.167905,102.5573 260.998722,102.432782 260.812,102.34 C260.497516,102.176188 260.173234,102.031915 259.841,101.908 C259.233591,101.714935 258.674208,101.394849 258.2,100.969 C257.905998,100.632758 257.752731,100.196234 257.772,99.75 C257.751453,99.1879981 258.027467,98.6564717 258.499,98.35 C259.092538,97.9878704 259.781667,97.813584 260.476,97.85 C261.283587,97.8458424 262.08252,98.0164086 262.818,98.35 L262.336,99.474 C261.734641,99.197358 261.086073,99.0378463 260.425,99.004 C259.637667,99.004 259.244,99.2283333 259.244,99.677 C259.246884,99.9030736 259.362432,100.112787 259.552,100.236 C259.975326,100.493868 260.425693,100.704463 260.895,100.864 C261.338197,101.020298 261.761974,101.226986 262.158,101.48 C262.401313,101.644937 262.601569,101.865767 262.742,102.124 C262.876643,102.39595 262.942892,102.696647 262.935,103 L262.935,103 Z M267.613,105.127 C266.663329,105.18092 265.734495,104.834557 265.052,104.172 C264.405705,103.45317 264.073093,102.50609 264.128,101.541 C264.072781,100.566343 264.377793,99.6053978 264.985,98.841 C265.581003,98.1740241 266.446646,97.8123285 267.34,97.857 C268.159873,97.8134085 268.959653,98.1202333 269.54,98.701 C270.104801,99.338566 270.394538,100.173627 270.346,101.024 L270.346,101.83 L265.668,101.83 C265.649329,102.403405 265.845071,102.96318 266.217,103.4 C266.605698,103.78262 267.138589,103.982182 267.683,103.949 C268.072083,103.951733 268.460327,103.912506 268.841,103.832 C269.237085,103.740882 269.62302,103.610227 269.993,103.442 L269.993,104.651 C269.643411,104.819789 269.273781,104.943447 268.893,105.019 C268.470718,105.09547 268.042125,105.131633 267.613,105.127 L267.613,105.127 Z M267.34,98.982 C266.91345,98.9633812 266.499178,99.1274168 266.201,99.433 C265.887681,99.801033 265.707645,100.263983 265.69,100.747 L268.877,100.747 C268.903459,100.271485 268.754352,99.8028134 268.458,99.43 C268.169226,99.1237023 267.76038,98.9598712 267.34,98.982 L267.34,98.982 Z" id="Shape" fill="#6A737F" fill-rule="nonzero"></path>
			<g id="Group" transform="translate(216.000000, 90.000000)" fill-rule="nonzero">
				<path d="M10,19.125 C4.96846008,19.125 0.875,15.0315399 0.875,10 C0.875,4.96846008 4.96846008,0.875 10,0.875 C15.0315399,0.875 19.125,4.96846008 19.125,10 C19.125,15.0315399 15.0315399,19.125 10,19.125 Z" id="Path" fill="#FFFFFF"></path>
				<path d="M10,1.75 C5.45092964,1.75 1.75,5.45092964 1.75,10 C1.75,14.5490704 5.45092964,18.25 10,18.25 C14.5490704,18.25 18.25,14.5490704 18.25,10 C18.25,5.45092964 14.5490704,1.75 10,1.75 L10,1.75 Z M10,0 C15.52285,0 20,4.47714996 20,10 C20,15.52285 15.52285,20 10,20 C4.47714996,20 0,15.52285 0,10 C0,4.47714996 4.47714996,0 10,0 Z" id="Shape" fill="#E1E1E1"></path>
			</g>
			<g id="Group" transform="translate(153.000000, 90.000000)" fill-rule="nonzero">
				<path d="M10,19.5 C4.76168013,19.5 0.5,15.2383204 0.5,10 C0.5,4.76168013 4.76168013,0.5 10,0.5 C15.2383204,0.5 19.5,4.76168013 19.5,10 C19.5,15.2383204 15.2383204,19.5 10,19.5 Z" id="Path" fill="#FFFFFF"></path>
				<path d="M10,1 C5.03738022,1 1,5.03738022 1,10 C1,14.9626198 5.03738022,19 10,19 C14.9626198,19 19,14.9626198 19,10 C19,5.03738022 14.9626198,1 10,1 L10,1 Z M10,0 C15.52285,0 20,4.47714996 20,10 C20,15.52285 15.52285,20 10,20 C4.47714996,20 0,15.52285 0,10 C0,4.47714996 4.47714996,0 10,0 Z" id="Shape" fill="#00AD50"></path>
			</g>
			<path d="M163,90 C168.522847,90 173,94.4771525 173,100 C173,105.522847 168.522847,110 163,110 C157.477153,110 153,105.522847 153,100 C153,94.4771525 157.477153,90 163,90 Z" id="Path"></path>
			<path d="M163,95 C165.761424,95 168,97.2385763 168,100 C168,102.761424 165.761424,105 163,105 C160.238576,105 158,102.761424 158,100 C158,97.2385763 160.238576,95 163,95 Z" id="Path" fill="#00AD50" fill-rule="nonzero"></path>
			<path d="M163,95 C165.761424,95 168,97.2385763 168,100 C168,102.761424 165.761424,105 163,105 C160.238576,105 158,102.761424 158,100 C158,97.2385763 160.238576,95 163,95 Z" id="Path"></path>
			<path d="M180.147,105 L178.63,105 L178.63,97.021 L175.901,97.021 L175.901,95.721 L182.877,95.721 L182.877,97.021 L180.147,97.021 L180.147,105 Z M187.701,97.853 C187.950182,97.8481596 188.199191,97.8692734 188.444,97.916 L188.298,99.306 C188.081765,99.2547406 187.860227,99.2292302 187.638,99.23 C187.093489,99.2089128 186.565897,99.421405 186.188,99.814 C185.809197,100.226089 185.609564,100.771751 185.633,101.331 L185.633,105 L184.139,105 L184.139,97.979 L185.307,97.979 L185.507,99.217 L185.583,99.217 C185.799766,98.8137903 186.112683,98.470303 186.494,98.217 C186.851033,97.9788089 187.270807,97.8521111 187.7,97.853 L187.701,97.853 Z M194.695,105 L194.486,104.08 L194.41,104.08 C194.193136,104.414169 193.886384,104.680367 193.525,104.848 C193.115071,105.039986 192.666581,105.135431 192.214,105.127 C191.520889,105.180702 190.835543,104.951652 190.314,104.492 C189.854956,103.961088 189.627064,103.268772 189.681,102.569 L189.681,97.979 L191.181,97.979 L191.181,102.308 C191.149324,102.736897 191.265813,103.163673 191.511,103.517 C191.775559,103.803244 192.157701,103.950931 192.546,103.917 C193.069626,103.960683 193.58267,103.7519 193.927,103.355 C194.269991,102.791834 194.424473,102.13397 194.368,101.477 L194.368,97.977 L195.868,97.977 L195.868,105 L194.695,105 Z M201.062,105.127 C200.112329,105.18092 199.183495,104.834557 198.501,104.172 C197.854705,103.45317 197.522093,102.50609 197.577,101.541 C197.521781,100.566343 197.826793,99.6053978 198.434,98.841 C199.030003,98.1740241 199.895646,97.8123285 200.789,97.857 C201.608873,97.8134085 202.408653,98.1202333 202.989,98.701 C203.553801,99.338566 203.843538,100.173627 203.795,101.024 L203.795,101.83 L199.113,101.83 C199.095992,102.404194 199.293907,102.964062 199.668,103.4 C200.056698,103.78262 200.589589,103.982182 201.134,103.949 C201.523083,103.951733 201.911327,103.912506 202.292,103.832 C202.688085,103.740882 203.07402,103.610227 203.444,103.442 L203.444,104.651 C203.094411,104.819789 202.724781,104.943447 202.344,105.019 C201.921062,105.095597 201.491792,105.13176 201.062,105.127 Z M200.789,98.982 C200.36245,98.9633812 199.948178,99.1274168 199.65,99.433 C199.336681,99.801033 199.156645,100.263983 199.139,100.747 L202.326,100.747 C202.352459,100.271485 202.203352,99.8028134 201.907,99.43 C201.618226,99.1237023 201.20938,98.9598712 200.789,98.982 Z" id="Shape" fill="#6A737F" fill-rule="nonzero"></path>
			<path d="M38.544,144 L37.021,144 L37.021,139.817 L32.742,139.817 L32.742,144 L31.225,144 L31.225,134.72 L32.742,134.72 L32.742,138.52 L37.021,138.52 L37.021,134.72 L38.544,134.72 L38.544,144 Z M46.731,140.477 C46.78983,141.451685 46.4743539,142.412063 45.849,143.162 C45.2099327,143.826606 44.3125425,144.179061 43.392,144.127 C42.7828322,144.139118 42.1817983,143.985663 41.653,143.683 C41.1464647,143.383826 40.7416009,142.939243 40.491,142.407 C40.2095177,141.803292 40.0706061,141.142949 40.085,140.477 C40.0267673,139.509195 40.3400851,138.55565 40.961,137.811 C41.6052496,137.147397 42.5067684,136.797598 43.43,136.853 C44.3391813,136.809157 45.2215168,137.168017 45.842,137.834 C46.4636203,138.569911 46.7815137,139.51501 46.731,140.477 L46.731,140.477 Z M41.621,140.477 C41.621,142.097667 42.221,142.908 43.421,142.908 C44.6056667,142.908 45.198,142.097667 45.198,140.477 C45.198,138.873 44.6013333,138.071 43.408,138.071 C42.8764938,138.026045 42.3600899,138.261877 42.046,138.693 C41.7314318,139.232714 41.5835602,139.853427 41.621,140.477 Z M50.951,144.127 C50.0464591,144.190339 49.1600983,143.851092 48.529,143.2 C47.9304364,142.443186 47.6349263,141.49071 47.7,140.528 C47.6337677,139.541598 47.9439424,138.566764 48.568,137.8 C49.2234024,137.13446 50.1359208,136.786973 51.068,136.848 C51.7569006,136.837186 52.4397325,136.978191 53.068,137.261 L52.617,138.461 C52.1232659,138.248976 51.5956685,138.126728 51.059,138.1 C49.8443333,138.1 49.237,138.906 49.237,140.518 C49.1927664,141.142847 49.3520432,141.765219 49.691,142.292 C50.0102096,142.695982 50.5071145,142.917908 51.021,142.886 C51.6820403,142.885459 52.3315967,142.713163 52.906,142.386 L52.906,143.686 C52.640633,143.841923 52.3524708,143.955299 52.052,144.022 C51.6898645,144.096629 51.3207138,144.131834 50.951,144.127 L50.951,144.127 Z M55.672,140.293 L56.516,139.239 L58.636,136.979 L60.356,136.979 L57.532,139.995 L60.532,144 L58.783,144 L56.529,140.921 L55.71,141.594 L55.71,144 L54.232,144 L54.232,134.123 L55.711,134.123 L55.711,138.941 L55.635,140.293 L55.672,140.293 Z M64.406,144.127 C63.4563291,144.18092 62.5274955,143.834557 61.845,143.172 C61.1987053,142.45317 60.8660933,141.50609 60.921,140.541 C60.8657814,139.566343 61.1707926,138.605398 61.778,137.841 C62.3740028,137.174024 63.2396464,136.812328 64.133,136.857 C64.952873,136.813408 65.7526535,137.120233 66.333,137.701 C66.8978012,138.338566 67.1875381,139.173627 67.139,140.024 L67.139,140.83 L62.457,140.83 C62.4391605,141.403799 62.6359895,141.963621 63.009,142.4 C63.3976976,142.78262 63.9305895,142.982182 64.475,142.949 C64.8640832,142.951733 65.2523269,142.912506 65.633,142.832 C66.0290846,142.740882 66.4150201,142.610227 66.785,142.442 L66.785,143.651 C66.4354111,143.819789 66.0657809,143.943447 65.685,144.019 C65.2630468,144.095407 64.8347909,144.131569 64.406,144.127 Z M64.133,137.982 C63.7064501,137.963381 63.2921784,138.127417 62.994,138.433 C62.6806809,138.801033 62.5006449,139.263983 62.483,139.747 L65.67,139.747 C65.6961769,139.271357 65.54671,138.802672 65.25,138.43 C64.9614566,138.123976 64.5530372,137.96017 64.133,137.982 L64.133,137.982 Z M67.439,136.982 L69.064,136.982 L70.492,140.962 C70.6942614,141.47787 70.8391335,142.014433 70.924,142.562 L70.975,142.562 C71.0261139,142.275409 71.0959298,141.992471 71.184,141.715 C71.2853333,141.381667 71.8226667,139.804333 72.796,136.983 L74.408,136.983 L71.408,144.937 C71.1068961,146.205629 69.9827305,147.107763 68.679,147.127012 C68.3542873,147.127551 68.0305571,147.09132 67.714,147.019 L67.714,145.834 C67.9664158,145.887566 68.2239811,145.913054 68.482,145.91 C69.2181795,145.899932 69.8488875,145.380574 70,144.66 L70.26,144 L67.439,136.982 Z" id="Shape" fill="#6A737F" fill-rule="nonzero"></path>
			<path d="M241.797,144 L240.297,144 L240.297,134.72 L245.53,134.72 L245.53,136 L241.797,136 L241.797,138.9 L245.297,138.9 L245.297,140.189 L241.797,140.189 L241.797,144 Z M251.445,144 L251.145,143.022 L251.094,143.022 C250.828509,143.391099 250.479293,143.691994 250.075,143.9 C249.656044,144.068715 249.206377,144.147747 248.755,144.132 C248.162819,144.165989 247.581432,143.963079 247.139,143.568 C246.73241,143.146065 246.521618,142.572826 246.558,141.988 C246.521896,141.337699 246.829301,140.716058 247.368,140.35 C248.115794,139.926733 248.966284,139.719043 249.825,139.75 L251.037,139.712 L251.037,139.337 C251.065354,138.973792 250.952926,138.613592 250.723,138.331 C250.457868,138.088356 250.102999,137.968252 249.745,138 C249.393822,137.998732 249.044604,138.05238 248.71,138.159 C248.384809,138.263051 248.066793,138.38832 247.758,138.534 L247.276,137.462 C247.671482,137.257709 248.091594,137.105124 248.526,137.008 C248.946127,136.908065 249.376167,136.855735 249.808,136.852 C250.530064,136.799437 251.247153,137.006549 251.83,137.436 C252.320702,137.914229 252.571012,138.587351 252.512,139.27 L252.512,144 L251.445,144 Z M249.224,142.984 C249.699639,143.00579 250.165334,142.843155 250.524,142.53 C250.864591,142.196925 251.044064,141.732556 251.016,141.257 L251.016,140.648 L250.116,140.686 C249.583165,140.668861 249.054987,140.790139 248.583,141.038 C248.263346,141.250144 248.081732,141.617187 248.107,142 C248.090266,142.271312 248.192053,142.536541 248.386,142.727 C248.622934,142.915269 248.922253,143.007065 249.224,142.984 Z M256.086,144 L254.594,144 L254.594,134.123 L256.086,134.123 L256.086,144 Z M262.935,142 C262.967035,142.618298 262.685464,143.211139 262.186,143.577 C261.546501,143.981821 260.795339,144.173987 260.04,144.126 C259.266317,144.157983 258.495594,144.012254 257.787,143.7 L257.787,142.413 C258.503419,142.76724 259.288088,142.962043 260.087,142.984 C261.005,142.984 261.464,142.706667 261.464,142.152 C261.469533,141.990362 261.415434,141.832334 261.312,141.708 C261.167905,141.5573 260.998722,141.432782 260.812,141.34 C260.497516,141.176188 260.173234,141.031915 259.841,140.908 C259.233591,140.714935 258.674208,140.394849 258.2,139.969 C257.905998,139.632758 257.752731,139.196234 257.772,138.75 C257.751453,138.187998 258.027467,137.656472 258.499,137.35 C259.092538,136.98787 259.781667,136.813584 260.476,136.85 C261.283587,136.845842 262.08252,137.016409 262.818,137.35 L262.336,138.474 C261.734641,138.197358 261.086073,138.037846 260.425,138.004 C259.637667,138.004 259.244,138.228333 259.244,138.677 C259.246884,138.903074 259.362432,139.112787 259.552,139.236 C259.975326,139.493868 260.425693,139.704463 260.895,139.864 C261.338197,140.020298 261.761974,140.226986 262.158,140.48 C262.401313,140.644937 262.601569,140.865767 262.742,141.124 C262.876643,141.39595 262.942892,141.696647 262.935,142 L262.935,142 Z M267.613,144.127 C266.663329,144.18092 265.734495,143.834557 265.052,143.172 C264.405705,142.45317 264.073093,141.50609 264.128,140.541 C264.072781,139.566343 264.377793,138.605398 264.985,137.841 C265.581003,137.174024 266.446646,136.812328 267.34,136.857 C268.159873,136.813408 268.959653,137.120233 269.54,137.701 C270.104801,138.338566 270.394538,139.173627 270.346,140.024 L270.346,140.83 L265.668,140.83 C265.649329,141.403405 265.845071,141.96318 266.217,142.4 C266.605698,142.78262 267.138589,142.982182 267.683,142.949 C268.072083,142.951733 268.460327,142.912506 268.841,142.832 C269.237085,142.740882 269.62302,142.610227 269.993,142.442 L269.993,143.651 C269.643411,143.819789 269.273781,143.943447 268.893,144.019 C268.470718,144.09547 268.042125,144.131633 267.613,144.127 L267.613,144.127 Z M267.34,137.982 C266.91345,137.963381 266.499178,138.127417 266.201,138.433 C265.887681,138.801033 265.707645,139.263983 265.69,139.747 L268.877,139.747 C268.903459,139.271485 268.754352,138.802813 268.458,138.43 C268.169226,138.123702 267.76038,137.959871 267.34,137.982 L267.34,137.982 Z" id="Shape" fill="#6A737F" fill-rule="nonzero"></path>
			<g id="Group" transform="translate(216.000000, 129.000000)" fill-rule="nonzero">
				<path d="M10,19.125 C4.96846008,19.125 0.875,15.0315399 0.875,10 C0.875,4.96846008 4.96846008,0.875 10,0.875 C15.0315399,0.875 19.125,4.96846008 19.125,10 C19.125,15.0315399 15.0315399,19.125 10,19.125 Z" id="Path" fill="#FFFFFF"></path>
				<path d="M10,1.75 C5.45092964,1.75 1.75,5.45092964 1.75,10 C1.75,14.5490704 5.45092964,18.25 10,18.25 C14.5490704,18.25 18.25,14.5490704 18.25,10 C18.25,5.45092964 14.5490704,1.75 10,1.75 L10,1.75 Z M10,0 C15.52285,0 20,4.47714996 20,10 C20,15.52285 15.52285,20 10,20 C4.47714996,20 0,15.52285 0,10 C0,4.47714996 4.47714996,0 10,0 Z" id="Shape" fill="#E1E1E1"></path>
			</g>
			<g id="Group" transform="translate(153.000000, 129.000000)" fill-rule="nonzero">
				<path d="M10,19.5 C4.76168013,19.5 0.5,15.2383204 0.5,10 C0.5,4.76168013 4.76168013,0.5 10,0.5 C15.2383204,0.5 19.5,4.76168013 19.5,10 C19.5,15.2383204 15.2383204,19.5 10,19.5 Z" id="Path" fill="#FFFFFF"></path>
				<path d="M10,1 C5.03738022,1 1,5.03738022 1,10 C1,14.9626198 5.03738022,19 10,19 C14.9626198,19 19,14.9626198 19,10 C19,5.03738022 14.9626198,1 10,1 L10,1 Z M10,0 C15.52285,0 20,4.47714996 20,10 C20,15.52285 15.52285,20 10,20 C4.47714996,20 0,15.52285 0,10 C0,4.47714996 4.47714996,0 10,0 Z" id="Shape" fill="#00AD50"></path>
			</g>
			<path d="M163,129 C168.522847,129 173,133.477153 173,139 C173,144.522847 168.522847,149 163,149 C157.477153,149 153,144.522847 153,139 C153,133.477153 157.477153,129 163,129 Z" id="Path"></path>
			<path d="M163,134 C165.761424,134 168,136.238576 168,139 C168,141.761424 165.761424,144 163,144 C160.238576,144 158,141.761424 158,139 C158,136.238576 160.238576,134 163,134 Z" id="Path" fill="#00AD50" fill-rule="nonzero"></path>
			<path d="M163,134 C165.761424,134 168,136.238576 168,139 C168,141.761424 165.761424,144 163,144 C160.238576,144 158,141.761424 158,139 C158,136.238576 160.238576,134 163,134 Z" id="Path"></path>
			<path d="M180.147,144 L178.63,144 L178.63,136.021 L175.901,136.021 L175.901,134.721 L182.877,134.721 L182.877,136.021 L180.147,136.021 L180.147,144 Z M187.701,136.853 C187.950182,136.84816 188.199191,136.869273 188.444,136.916 L188.298,138.306 C188.081765,138.254741 187.860227,138.22923 187.638,138.23 C187.093489,138.208913 186.565897,138.421405 186.188,138.814 C185.809197,139.226089 185.609564,139.771751 185.633,140.331 L185.633,144 L184.139,144 L184.139,136.979 L185.307,136.979 L185.507,138.217 L185.583,138.217 C185.799766,137.81379 186.112683,137.470303 186.494,137.217 C186.851033,136.978809 187.270807,136.852111 187.7,136.853 L187.701,136.853 Z M194.695,144 L194.486,143.08 L194.41,143.08 C194.193136,143.414169 193.886384,143.680367 193.525,143.848 C193.115071,144.039986 192.666581,144.135431 192.214,144.127 C191.520889,144.180702 190.835543,143.951652 190.314,143.492 C189.854956,142.961088 189.627064,142.268772 189.681,141.569 L189.681,136.979 L191.181,136.979 L191.181,141.308 C191.149324,141.736897 191.265813,142.163673 191.511,142.517 C191.775559,142.803244 192.157701,142.950931 192.546,142.917 C193.069626,142.960683 193.58267,142.7519 193.927,142.355 C194.269991,141.791834 194.424473,141.13397 194.368,140.477 L194.368,136.977 L195.868,136.977 L195.868,144 L194.695,144 Z M201.062,144.127 C200.112329,144.18092 199.183495,143.834557 198.501,143.172 C197.854705,142.45317 197.522093,141.50609 197.577,140.541 C197.521781,139.566343 197.826793,138.605398 198.434,137.841 C199.030003,137.174024 199.895646,136.812328 200.789,136.857 C201.608873,136.813408 202.408653,137.120233 202.989,137.701 C203.553801,138.338566 203.843538,139.173627 203.795,140.024 L203.795,140.83 L199.113,140.83 C199.095992,141.404194 199.293907,141.964062 199.668,142.4 C200.056698,142.78262 200.589589,142.982182 201.134,142.949 C201.523083,142.951733 201.911327,142.912506 202.292,142.832 C202.688085,142.740882 203.07402,142.610227 203.444,142.442 L203.444,143.651 C203.094411,143.819789 202.724781,143.943447 202.344,144.019 C201.921062,144.095597 201.491792,144.13176 201.062,144.127 Z M200.789,137.982 C200.36245,137.963381 199.948178,138.127417 199.65,138.433 C199.336681,138.801033 199.156645,139.263983 199.139,139.747 L202.326,139.747 C202.352459,139.271485 202.203352,138.802813 201.907,138.43 C201.618226,138.123702 201.20938,137.959871 200.789,137.982 Z" id="Shape" fill="#6A737F" fill-rule="nonzero"></path>
			<path d="M36.576,64.48 C36.6076613,65.2347785 36.2723648,65.9582737 35.676,66.422 C34.9555347,66.9271845 34.085402,67.1738807 33.207,67.122 C32.3242237,67.1555222 31.4452081,66.9901087 30.635,66.638 L30.635,65.2 C31.0674623,65.4022599 31.5194821,65.5597464 31.984,65.67 C32.4190939,65.7789573 32.865495,65.8363518 33.314,65.841 C33.782585,65.8781762 34.2502021,65.7581932 34.643,65.5 C34.9246286,65.2794611 35.0837253,64.9374775 35.071,64.58 C35.0747573,64.2433584 34.9311925,63.9218902 34.678,63.7 C34.1841848,63.331584 33.6359292,63.0424424 33.053,62.843 C32.366908,62.608816 31.7511616,62.2049689 31.263,61.669 C30.9115598,61.2155595 30.7278336,60.654488 30.743,60.081 C30.7117332,59.3751573 31.018013,58.6965154 31.568,58.253 C32.2065599,57.780363 32.9896357,57.5445564 33.783,57.586 C34.6985648,57.5919089 35.6025832,57.7909088 36.436,58.17 L35.954,59.408 C35.2591623,59.0905542 34.5084587,58.9134983 33.745,58.887 C33.3465178,58.8594517 32.9510598,58.9730971 32.628,59.208 C32.3766255,59.416051 32.2359058,59.7288846 32.247,60.055 C32.2405896,60.2713002 32.2931316,60.4852707 32.399,60.674 C32.5267554,60.8717384 32.6977141,61.0379103 32.899,61.16 C33.3008423,61.3941226 33.7212595,61.5947991 34.156,61.76 C34.6868168,61.9614026 35.1906505,62.2277627 35.656,62.553 C35.9515787,62.7713586 36.1914195,63.0564266 36.356,63.385 C36.5109706,63.7287391 36.5861806,64.1030798 36.576,64.48 Z M44.116,63.48 C44.17483,64.4546853 43.8593539,65.4150634 43.234,66.165 C42.5949327,66.8296065 41.6975425,67.1820613 40.777,67.13 C40.1675524,67.1412067 39.5665001,66.9867097 39.038,66.683 C38.5314647,66.3838262 38.1266009,65.9392426 37.876,65.407 C37.5945177,64.8032921 37.4556061,64.1429492 37.47,63.477 C37.4117673,62.5091946 37.7250851,61.5556496 38.346,60.811 C38.9902496,60.1473973 39.8917684,59.7975978 40.815,59.853 C41.7241813,59.8091565 42.6065168,60.1680169 43.227,60.834 C43.8486203,61.5699113 44.1665137,62.5150095 44.116,63.477 L44.116,63.48 Z M39.006,63.48 C39.006,65.1006667 39.606,65.911 40.806,65.911 C41.9906667,65.911 42.583,65.1006667 42.583,63.48 C42.583,61.876 41.9863333,61.074 40.793,61.074 C40.2614938,61.0290446 39.7450899,61.2648766 39.431,61.696 C39.1170095,62.2348492 38.9691586,62.8544318 39.006,63.477 L39.006,63.48 Z M48.336,67.13 C47.4309901,67.1925653 46.544557,66.8521926 45.914,66.2 C45.3165089,65.4438283 45.0214017,64.4925708 45.086,63.531 C45.0184356,62.5438503 45.3279307,61.5678326 45.952,60.8 C46.6074024,60.1344598 47.5199208,59.7869728 48.452,59.848 C49.1409006,59.8371863 49.8237325,59.9781911 50.452,60.261 L50.001,61.461 C49.5075782,61.2490918 48.9803296,61.126846 48.444,61.1 C47.2293333,61.1 46.622,61.906 46.622,63.518 C46.5777664,64.1428467 46.7370432,64.7652189 47.076,65.292 C47.3952096,65.6959823 47.8921145,65.9179082 48.406,65.886 C49.0670403,65.8854589 49.7165967,65.7131627 50.291,65.386 L50.291,66.686 C50.025633,66.8419234 49.7374708,66.9552988 49.437,67.022 C49.0748645,67.096629 48.7057138,67.1318341 48.336,67.127 L48.336,67.13 Z M54.448,67.13 C53.5429901,67.1925653 52.656557,66.8521926 52.026,66.2 C51.428508,65.442758 51.1340803,64.4903236 51.2,63.528 C51.1326487,62.5421245 51.4413751,61.5673493 52.064,60.8 C52.7194024,60.1344598 53.6319208,59.7869728 54.564,59.848 C55.2529006,59.8371863 55.9357325,59.9781911 56.564,60.261 L56.113,61.461 C55.6192659,61.2489763 55.0916685,61.1267281 54.555,61.1 C53.3403333,61.1 52.733,61.906 52.733,63.518 C52.6887664,64.1428467 52.8480432,64.7652189 53.187,65.292 C53.5062096,65.6959823 54.0031145,65.9179082 54.517,65.886 C55.1780403,65.8854589 55.8275967,65.7131627 56.402,65.386 L56.402,66.686 C56.136633,66.8419234 55.8484708,66.9552988 55.548,67.022 C55.1858645,67.096629 54.8167138,67.1318341 54.447,67.127 L54.448,67.13 Z M60.794,67.13 C59.8443291,67.1839205 58.9154955,66.8375573 58.233,66.175 C57.5867053,65.4561702 57.2540933,64.5090899 57.309,63.544 C57.2537814,62.5693433 57.5587926,61.6083978 58.166,60.844 C58.7620028,60.1770241 59.6276464,59.8153285 60.521,59.86 C61.340873,59.8164085 62.1406535,60.1232333 62.721,60.704 C63.2858012,61.341566 63.5755381,62.1766266 63.527,63.027 L63.527,63.833 L58.845,63.833 C58.8287443,64.4061689 59.0266126,64.9648348 59.4,65.4 C59.7886976,65.78262 60.3215895,65.9821818 60.866,65.949 C61.2550832,65.9517325 61.6433269,65.9125058 62.024,65.832 C62.4200846,65.7408823 62.8060201,65.610227 63.176,65.442 L63.176,66.651 C62.8264111,66.8197893 62.4567809,66.9434474 62.076,67.019 C61.6530616,67.0955967 61.2237922,67.1317598 60.794,67.127 L60.794,67.13 Z M60.521,60.985 C60.0944501,60.9663812 59.6801784,61.1304168 59.382,61.436 C59.0686809,61.804033 58.8886449,62.2669826 58.871,62.75 L62.058,62.75 C62.0844588,62.2744851 61.9353522,61.8058134 61.639,61.433 C61.3507716,61.1255977 60.941851,60.9606396 60.521,60.982 L60.521,60.985 Z M68.454,59.855 C68.7031818,59.8501596 68.9521906,59.8712734 69.197,59.918 L69.051,61.308 C68.8347647,61.2567406 68.6132266,61.2312302 68.391,61.232 C67.8464889,61.2109128 67.318897,61.423405 66.941,61.816 C66.5621971,62.2280886 66.3625645,62.773751 66.386,63.333 L66.386,67 L64.893,67 L64.893,59.979 L66.061,59.979 L66.261,61.217 L66.337,61.217 C66.5537656,60.8137903 66.8666826,60.470303 67.248,60.217 C67.6050332,59.9788089 68.0248066,59.8521111 68.454,59.8529908 L68.454,59.855 Z" id="Shape" fill="#6A737F" fill-rule="nonzero"></path>
			<path d="M241.797,67 L240.297,67 L240.297,57.72 L245.53,57.72 L245.53,59 L241.797,59 L241.797,61.9 L245.297,61.9 L245.297,63.189 L241.797,63.189 L241.797,67 Z M251.445,67 L251.145,66.022 L251.094,66.022 C250.828509,66.3910986 250.479293,66.691994 250.075,66.9 C249.656044,67.0687147 249.206377,67.147747 248.755,67.132 C248.162819,67.1659893 247.581432,66.9630792 247.139,66.568 C246.73241,66.1460645 246.521618,65.5728257 246.558,64.988 C246.521896,64.3376988 246.829301,63.7160582 247.368,63.35 C248.115794,62.9267326 248.966284,62.7190428 249.825,62.75 L251.037,62.712 L251.037,62.337 C251.065354,61.9737918 250.952926,61.613592 250.723,61.331 C250.457868,61.0883557 250.102999,60.9682517 249.745,61 C249.393822,60.9987325 249.044604,61.0523803 248.71,61.159 C248.384809,61.2630508 248.066793,61.3883197 247.758,61.534 L247.276,60.462 C247.671482,60.2577087 248.091594,60.1051239 248.526,60.008 C248.946127,59.9080648 249.376167,59.8557353 249.808,59.852 C250.530064,59.7994372 251.247153,60.006549 251.83,60.436 C252.320702,60.9142294 252.571012,61.5873511 252.512,62.27 L252.512,67 L251.445,67 Z M249.224,65.984 C249.699639,66.0057903 250.165334,65.8431551 250.524,65.53 C250.864591,65.1969245 251.044064,64.7325561 251.016,64.257 L251.016,63.648 L250.116,63.686 C249.583165,63.6688614 249.054987,63.7901392 248.583,64.038 C248.263346,64.2501441 248.081732,64.6171874 248.107,65 C248.090266,65.271312 248.192053,65.5365407 248.386,65.727 C248.622934,65.9152692 248.922253,66.0070652 249.224,65.984 Z M256.086,67 L254.594,67 L254.594,57.123 L256.086,57.123 L256.086,67 Z M262.935,65 C262.967035,65.6182978 262.685464,66.2111389 262.186,66.577 C261.546501,66.9818214 260.795339,67.1739873 260.04,67.126 C259.266317,67.1579834 258.495594,67.0122541 257.787,66.7 L257.787,65.413 C258.503419,65.7672404 259.288088,65.962043 260.087,65.984 C261.005,65.984 261.464,65.7066667 261.464,65.152 C261.469533,64.9903623 261.415434,64.8323337 261.312,64.708 C261.167905,64.5573003 260.998722,64.432782 260.812,64.34 C260.497516,64.1761885 260.173234,64.031915 259.841,63.908 C259.233591,63.7149348 258.674208,63.3948491 258.2,62.969 C257.905998,62.6327579 257.752731,62.1962341 257.772,61.75 C257.751453,61.1879981 258.027467,60.6564717 258.499,60.35 C259.092538,59.9878704 259.781667,59.813584 260.476,59.85 C261.283587,59.8458424 262.08252,60.0164086 262.818,60.35 L262.336,61.474 C261.734641,61.197358 261.086073,61.0378463 260.425,61.004 C259.637667,61.004 259.244,61.2283333 259.244,61.677 C259.246884,61.9030736 259.362432,62.1127865 259.552,62.236 C259.975326,62.4938676 260.425693,62.7044634 260.895,62.864 C261.338197,63.020298 261.761974,63.2269859 262.158,63.48 C262.401313,63.6449367 262.601569,63.8657668 262.742,64.124 C262.876643,64.3959499 262.942892,64.6966469 262.935,65 L262.935,65 Z M267.613,67.127 C266.663329,67.1809205 265.734495,66.8345573 265.052,66.172 C264.405705,65.4531702 264.073093,64.5060899 264.128,63.541 C264.072781,62.5663433 264.377793,61.6053978 264.985,60.841 C265.581003,60.1740241 266.446646,59.8123285 267.34,59.857 C268.159873,59.8134085 268.959653,60.1202333 269.54,60.701 C270.104801,61.338566 270.394538,62.1736266 270.346,63.024 L270.346,63.83 L265.668,63.83 C265.649329,64.4034054 265.845071,64.9631802 266.217,65.4 C266.605698,65.78262 267.138589,65.9821818 267.683,65.949 C268.072083,65.9517325 268.460327,65.9125058 268.841,65.832 C269.237085,65.7408823 269.62302,65.610227 269.993,65.442 L269.993,66.651 C269.643411,66.8197893 269.273781,66.9434474 268.893,67.019 C268.470718,67.0954703 268.042125,67.1316329 267.613,67.127 L267.613,67.127 Z M267.34,60.982 C266.91345,60.9633812 266.499178,61.1274168 266.201,61.433 C265.887681,61.801033 265.707645,62.2639826 265.69,62.747 L268.877,62.747 C268.903459,62.2714851 268.754352,61.8028134 268.458,61.43 C268.169226,61.1237023 267.76038,60.9598712 267.34,60.982 L267.34,60.982 Z" id="Shape" fill="#6A737F" fill-rule="nonzero"></path>
			<g id="Group" transform="translate(216.000000, 52.000000)" fill-rule="nonzero">
				<path d="M10,19.125 C4.96846008,19.125 0.875,15.0315399 0.875,10 C0.875,4.96846008 4.96846008,0.875 10,0.875 C15.0315399,0.875 19.125,4.96846008 19.125,10 C19.125,15.0315399 15.0315399,19.125 10,19.125 Z" id="Path" fill="#FFFFFF"></path>
				<path d="M10,1.75 C5.45092964,1.75 1.75,5.45092964 1.75,10 C1.75,14.5490704 5.45092964,18.25 10,18.25 C14.5490704,18.25 18.25,14.5490704 18.25,10 C18.25,5.45092964 14.5490704,1.75 10,1.75 L10,1.75 Z M10,0 C15.52285,0 20,4.47714996 20,10 C20,15.52285 15.52285,20 10,20 C4.47714996,20 0,15.52285 0,10 C0,4.47714996 4.47714996,0 10,0 Z" id="Shape" fill="#E1E1E1"></path>
			</g>
			<g id="Group" transform="translate(153.000000, 52.000000)" fill-rule="nonzero">
				<path d="M10,19.5 C4.76168013,19.5 0.5,15.2383204 0.5,10 C0.5,4.76168013 4.76168013,0.5 10,0.5 C15.2383204,0.5 19.5,4.76168013 19.5,10 C19.5,15.2383204 15.2383204,19.5 10,19.5 Z" id="Path" fill="#FFFFFF"></path>
				<path d="M10,1 C5.03738022,1 1,5.03738022 1,10 C1,14.9626198 5.03738022,19 10,19 C14.9626198,19 19,14.9626198 19,10 C19,5.03738022 14.9626198,1 10,1 L10,1 Z M10,0 C15.52285,0 20,4.47714996 20,10 C20,15.52285 15.52285,20 10,20 C4.47714996,20 0,15.52285 0,10 C0,4.47714996 4.47714996,0 10,0 Z" id="Shape" fill="#00AD50"></path>
			</g>
			<path d="M163,52 C168.522847,52 173,56.4771525 173,62 C173,67.5228475 168.522847,72 163,72 C157.477153,72 153,67.5228475 153,62 C153,56.4771525 157.477153,52 163,52 Z" id="Path"></path>
			<path d="M163,57 C165.761424,57 168,59.2385763 168,62 C168,64.7614237 165.761424,67 163,67 C160.238576,67 158,64.7614237 158,62 C158,59.2385763 160.238576,57 163,57 Z" id="Path" fill="#00AD50" fill-rule="nonzero"></path>
			<path d="M163,57 C165.761424,57 168,59.2385763 168,62 C168,64.7614237 165.761424,67 163,67 C160.238576,67 158,64.7614237 158,62 C158,59.2385763 160.238576,57 163,57 Z" id="Path"></path>
			<path d="M180.147,67 L178.63,67 L178.63,59.021 L175.901,59.021 L175.901,57.721 L182.877,57.721 L182.877,59.021 L180.147,59.021 L180.147,67 Z M187.701,59.853 C187.950182,59.8481596 188.199191,59.8692734 188.444,59.916 L188.298,61.306 C188.081765,61.2547406 187.860227,61.2292302 187.638,61.23 C187.093489,61.2089128 186.565897,61.421405 186.188,61.814 C185.809197,62.2260886 185.609564,62.771751 185.633,63.331 L185.633,67 L184.139,67 L184.139,59.979 L185.307,59.979 L185.507,61.217 L185.583,61.217 C185.799766,60.8137903 186.112683,60.470303 186.494,60.217 C186.851033,59.9788089 187.270807,59.8521111 187.7,59.853 L187.701,59.853 Z M194.695,67 L194.486,66.08 L194.41,66.08 C194.193136,66.4141692 193.886384,66.6803674 193.525,66.848 C193.115071,67.0399863 192.666581,67.1354314 192.214,67.127 C191.520889,67.1807015 190.835543,66.9516516 190.314,66.492 C189.854956,65.9610878 189.627064,65.2687717 189.681,64.569 L189.681,59.979 L191.181,59.979 L191.181,64.308 C191.149324,64.7368974 191.265813,65.1636732 191.511,65.517 C191.775559,65.8032436 192.157701,65.9509314 192.546,65.917 C193.069626,65.9606833 193.58267,65.7518995 193.927,65.355 C194.269991,64.7918337 194.424473,64.1339703 194.368,63.477 L194.368,59.977 L195.868,59.977 L195.868,67 L194.695,67 Z M201.062,67.127 C200.112329,67.1809205 199.183495,66.8345573 198.501,66.172 C197.854705,65.4531702 197.522093,64.5060899 197.577,63.541 C197.521781,62.5663433 197.826793,61.6053978 198.434,60.841 C199.030003,60.1740241 199.895646,59.8123285 200.789,59.857 C201.608873,59.8134085 202.408653,60.1202333 202.989,60.701 C203.553801,61.338566 203.843538,62.1736266 203.795,63.024 L203.795,63.83 L199.113,63.83 C199.095992,64.4041936 199.293907,64.964062 199.668,65.4 C200.056698,65.78262 200.589589,65.9821818 201.134,65.949 C201.523083,65.9517325 201.911327,65.9125058 202.292,65.832 C202.688085,65.7408823 203.07402,65.610227 203.444,65.442 L203.444,66.651 C203.094411,66.8197893 202.724781,66.9434474 202.344,67.019 C201.921062,67.0955967 201.491792,67.1317598 201.062,67.127 Z M200.789,60.982 C200.36245,60.9633812 199.948178,61.1274168 199.65,61.433 C199.336681,61.801033 199.156645,62.2639826 199.139,62.747 L202.326,62.747 C202.352459,62.2714851 202.203352,61.8028134 201.907,61.43 C201.618226,61.1237023 201.20938,60.9598712 200.789,60.982 Z" id="Shape" fill="#6A737F" fill-rule="nonzero"></path>
		</g>
	</g>
</svg>