<svg xmlns="http://www.w3.org/2000/svg" width="289.512" height="170.92" viewBox="0 0 289.512 170.92"><g transform="translate(16048 -66)"><g transform="translate(-16048 66)" fill="#fff"><path d="M 284.5115966796875 170.4205017089844 L 5.000012397766113 170.4205017089844 C 2.518691301345825 170.4205017089844 0.5000126361846924 168.4018249511719 0.5000126361846924 165.9205017089844 L 0.5000126361846924 5.000000953674316 C 0.5000126361846924 2.51867938041687 2.518691301345825 0.5000008344650269 5.000012397766113 0.5000008344650269 L 284.5115966796875 0.5000008344650269 C 286.992919921875 0.5000008344650269 289.0115966796875 2.51867938041687 289.0115966796875 5.000000953674316 L 289.0115966796875 165.9205017089844 C 289.0115966796875 168.4018249511719 286.992919921875 170.4205017089844 284.5115966796875 170.4205017089844 Z" stroke="none"/><path d="M 5 0.9999847412109375 C 2.79437255859375 0.9999847412109375 1 2.79437255859375 1 4.999984741210938 L 1 165.9204864501953 C 1 168.1260986328125 2.79437255859375 169.9204864501953 5 169.9204864501953 L 284.5115966796875 169.9204864501953 C 286.7172241210938 169.9204864501953 288.5115966796875 168.1260986328125 288.5115966796875 165.9204864501953 L 288.5115966796875 4.999984741210938 C 288.5115966796875 2.79437255859375 286.7172241210938 0.9999847412109375 284.5115966796875 0.9999847412109375 L 5 0.9999847412109375 M 5 -1.52587890625e-05 L 284.5115966796875 -1.52587890625e-05 C 287.2729797363281 -1.52587890625e-05 289.5115966796875 2.238555908203125 289.5115966796875 4.999984741210938 L 289.5115966796875 165.9204864501953 C 289.5115966796875 168.6819458007813 287.2729797363281 170.9204864501953 284.5115966796875 170.9204864501953 L 5 170.9204864501953 C 2.238555908203125 170.9204864501953 0 168.6819458007813 0 165.9204864501953 L 0 4.999984741210938 C 0 2.238555908203125 2.238555908203125 -1.52587890625e-05 5 -1.52587890625e-05 Z" stroke="none" fill="#dbdbdb"/></g><path d="M8.772-4.729A4.625,4.625,0,0,1,7.5-1.216,5.125,5.125,0,0,1,3.821,0h-2.6V-9.28H4.094A4.747,4.747,0,0,1,7.541-8.087,4.459,4.459,0,0,1,8.772-4.729Zm-1.6.051q0-3.333-3.117-3.333H2.742v6.735H3.821Q7.173-1.276,7.173-4.678Zm9.661,1.155a3.832,3.832,0,0,1-.882,2.685A3.161,3.161,0,0,1,13.5.127a3.366,3.366,0,0,1-1.739-.444,2.933,2.933,0,0,1-1.162-1.276,4.345,4.345,0,0,1-.406-1.93,3.806,3.806,0,0,1,.876-2.666,3.176,3.176,0,0,1,2.469-.958,3.093,3.093,0,0,1,2.412.981A3.788,3.788,0,0,1,16.834-3.523Zm-5.11,0q0,2.431,1.8,2.431,1.777,0,1.777-2.431,0-2.406-1.79-2.406a1.526,1.526,0,0,0-1.362.622A3.166,3.166,0,0,0,11.724-3.523Zm9.134-3.5h1.625l1.428,3.98a7.552,7.552,0,0,1,.432,1.6h.051a6.672,6.672,0,0,1,.209-.847q.152-.5,1.612-4.732h1.612l-3,7.954A2.848,2.848,0,0,1,22.1,3.123a4.3,4.3,0,0,1-.965-.108V1.834a3.5,3.5,0,0,0,.768.076A1.573,1.573,0,0,0,23.417.66l.26-.66Zm14.263,3.5a3.832,3.832,0,0,1-.882,2.685,3.161,3.161,0,0,1-2.457.965,3.366,3.366,0,0,1-1.739-.444,2.933,2.933,0,0,1-1.162-1.276,4.345,4.345,0,0,1-.406-1.93,3.806,3.806,0,0,1,.876-2.666,3.176,3.176,0,0,1,2.469-.958,3.093,3.093,0,0,1,2.412.981A3.788,3.788,0,0,1,35.122-3.523Zm-5.11,0q0,2.431,1.8,2.431,1.777,0,1.777-2.431,0-2.406-1.79-2.406a1.526,1.526,0,0,0-1.362.622A3.166,3.166,0,0,0,30.012-3.523ZM41.787,0l-.209-.92H41.5a2.116,2.116,0,0,1-.885.768A2.961,2.961,0,0,1,39.3.127a2.573,2.573,0,0,1-1.9-.635,2.631,2.631,0,0,1-.628-1.923V-7.021h1.5v4.329a1.878,1.878,0,0,0,.33,1.209,1.26,1.26,0,0,0,1.035.4,1.647,1.647,0,0,0,1.381-.562,3.1,3.1,0,0,0,.441-1.882v-3.5h1.5V0Zm8.169,0H48.464V-9.877h1.492Zm3.625,0H52.089V-7.021h1.492ZM52-8.88a.826.826,0,0,1,.219-.616.853.853,0,0,1,.625-.216.835.835,0,0,1,.613.216.826.826,0,0,1,.219.616.811.811,0,0,1-.219.6.828.828,0,0,1-.613.219.846.846,0,0,1-.625-.219A.811.811,0,0,1,52-8.88Zm5.154,5.173L58-4.761l2.12-2.26h1.72L59.014-4.005l3,4.005H60.265L58.011-3.079l-.819.673V0H55.713V-9.877h1.479v4.818l-.076,1.352ZM66.212.127a3.4,3.4,0,0,1-2.561-.955,3.627,3.627,0,0,1-.924-2.631,3.979,3.979,0,0,1,.857-2.7,2.96,2.96,0,0,1,2.355-.984,2.893,2.893,0,0,1,2.2.844,3.226,3.226,0,0,1,.806,2.323v.806H64.264A2.306,2.306,0,0,0,64.816-1.6a1.923,1.923,0,0,0,1.466.549,5.413,5.413,0,0,0,1.158-.117,6.072,6.072,0,0,0,1.152-.39V-.349a4.58,4.58,0,0,1-1.1.368A6.773,6.773,0,0,1,66.212.127Zm-.273-6.145a1.5,1.5,0,0,0-1.139.451,2.148,2.148,0,0,0-.511,1.314h3.187a1.943,1.943,0,0,0-.419-1.317A1.433,1.433,0,0,0,65.939-6.018ZM78.406,0l-.3-.978h-.051A2.876,2.876,0,0,1,77.035-.1a3.232,3.232,0,0,1-1.32.232A2.234,2.234,0,0,1,74.1-.432a2.09,2.09,0,0,1-.581-1.581,1.856,1.856,0,0,1,.806-1.638,4.648,4.648,0,0,1,2.457-.6l1.212-.038v-.375a1.419,1.419,0,0,0-.314-1.006A1.281,1.281,0,0,0,76.705-6a3.369,3.369,0,0,0-1.035.159,7.808,7.808,0,0,0-.952.375l-.482-1.066a5.192,5.192,0,0,1,1.25-.454,5.755,5.755,0,0,1,1.282-.156,3.037,3.037,0,0,1,2.022.584,2.286,2.286,0,0,1,.682,1.834V0ZM76.185-1.016a1.848,1.848,0,0,0,1.3-.454,1.645,1.645,0,0,0,.492-1.273v-.609l-.9.038a3.084,3.084,0,0,0-1.533.352A1.07,1.07,0,0,0,75.067-2a.938.938,0,0,0,.279.727A1.2,1.2,0,0,0,76.185-1.016ZM85.116.127a2.459,2.459,0,0,1-2.069-.958h-.089q.089.889.089,1.079V3.123H81.555V-7.021h1.206q.051.2.209.939h.076a2.337,2.337,0,0,1,2.095-1.066,2.437,2.437,0,0,1,2.047.952,4.293,4.293,0,0,1,.733,2.672,4.3,4.3,0,0,1-.746,2.685A2.459,2.459,0,0,1,85.116.127Zm-.362-6.056a1.551,1.551,0,0,0-1.3.521,2.7,2.7,0,0,0-.409,1.663v.222a3.284,3.284,0,0,0,.406,1.857,1.511,1.511,0,0,0,1.327.574,1.347,1.347,0,0,0,1.193-.635,3.278,3.278,0,0,0,.419-1.809,3.163,3.163,0,0,0-.416-1.787A1.387,1.387,0,0,0,84.754-5.929ZM93.215.127a2.459,2.459,0,0,1-2.069-.958h-.089q.089.889.089,1.079V3.123H89.654V-7.021H90.86q.051.2.209.939h.076a2.337,2.337,0,0,1,2.095-1.066,2.437,2.437,0,0,1,2.047.952,4.293,4.293,0,0,1,.733,2.672,4.3,4.3,0,0,1-.746,2.685A2.459,2.459,0,0,1,93.215.127Zm-.362-6.056a1.551,1.551,0,0,0-1.3.521,2.7,2.7,0,0,0-.409,1.663v.222a3.284,3.284,0,0,0,.406,1.857,1.511,1.511,0,0,0,1.327.574,1.347,1.347,0,0,0,1.193-.635,3.278,3.278,0,0,0,.419-1.809,3.163,3.163,0,0,0-.416-1.787A1.387,1.387,0,0,0,92.854-5.929ZM99.246,0H97.754V-9.877h1.492Zm5.2.127a3.4,3.4,0,0,1-2.561-.955,3.627,3.627,0,0,1-.924-2.631,3.979,3.979,0,0,1,.857-2.7,2.96,2.96,0,0,1,2.355-.984,2.893,2.893,0,0,1,2.2.844,3.226,3.226,0,0,1,.806,2.323v.806H102.5a2.306,2.306,0,0,0,.552,1.571,1.923,1.923,0,0,0,1.466.549,5.413,5.413,0,0,0,1.158-.117,6.072,6.072,0,0,0,1.152-.39V-.349a4.58,4.58,0,0,1-1.1.368A6.773,6.773,0,0,1,104.444.127Zm-.273-6.145a1.5,1.5,0,0,0-1.139.451,2.148,2.148,0,0,0-.511,1.314h3.187a1.943,1.943,0,0,0-.419-1.317A1.433,1.433,0,0,0,104.171-6.018ZM113.585-2a1.837,1.837,0,0,1-.749,1.577,3.587,3.587,0,0,1-2.146.549A5.068,5.068,0,0,1,108.437-.3V-1.587a5.532,5.532,0,0,0,2.3.571q1.377,0,1.377-.832a.659.659,0,0,0-.152-.444,1.8,1.8,0,0,0-.5-.368,8.63,8.63,0,0,0-.971-.432,4.493,4.493,0,0,1-1.641-.939,1.738,1.738,0,0,1-.428-1.219,1.6,1.6,0,0,1,.727-1.4,3.449,3.449,0,0,1,1.977-.5,5.6,5.6,0,0,1,2.342.5l-.482,1.124a5.21,5.21,0,0,0-1.911-.47q-1.181,0-1.181.673a.677.677,0,0,0,.308.559,6.77,6.77,0,0,0,1.343.628,6.137,6.137,0,0,1,1.263.616,1.84,1.84,0,0,1,.584.644A1.865,1.865,0,0,1,113.585-2Zm2.342-.819v-.406a2.4,2.4,0,0,1,.254-1.162,3.309,3.309,0,0,1,.889-.958,4.915,4.915,0,0,0,.974-.927,1.391,1.391,0,0,0,.219-.787.989.989,0,0,0-.355-.819,1.6,1.6,0,0,0-1.022-.286,3.513,3.513,0,0,0-1.117.171,7.931,7.931,0,0,0-1,.413L114.232-8.7a5.588,5.588,0,0,1,2.761-.717,2.984,2.984,0,0,1,1.974.609,2.073,2.073,0,0,1,.73,1.682,2.4,2.4,0,0,1-.14.847,2.432,2.432,0,0,1-.422.708,6.816,6.816,0,0,1-.974.876,3.737,3.737,0,0,0-.79.768,1.475,1.475,0,0,0-.2.819v.286Zm-.26,2.025a.836.836,0,0,1,.933-.958.924.924,0,0,1,.7.251.98.98,0,0,1,.241.708,1.009,1.009,0,0,1-.244.714.9.9,0,0,1-.7.263.9.9,0,0,1-.692-.257A1.012,1.012,0,0,1,115.667-.793Z" transform="translate(-15988.932 129.455)" fill="#6a737f"/><path d="M7.9,0,7.126-2.549h-3.9L2.446,0H0L3.779-10.752H6.555L10.349,0ZM6.584-4.453Q5.508-7.917,5.372-8.372t-.194-.718q-.242.938-1.384,4.636Z" transform="translate(-16028.06 131.142)" fill="#6a737f"/><g transform="translate(-15998 110)" fill="none"><path d="M6,0H152a6,6,0,0,1,6,6V24a6,6,0,0,1-6,6H6a6,6,0,0,1-6-6V6A6,6,0,0,1,6,0Z" stroke="none"/><path d="M 6 1 C 3.242996215820313 1 1 3.243000030517578 1 6 L 1 24 C 1 26.75699996948242 3.242996215820313 29 6 29 L 152 29 C 154.7570037841797 29 157 26.75699996948242 157 24 L 157 6 C 157 3.243000030517578 154.7570037841797 1 152 1 L 6 1 M 6 0 L 152 0 C 155.3137054443359 0 158 2.686300277709961 158 6 L 158 24 C 158 27.31369972229004 155.3137054443359 30 152 30 L 6 30 C 2.686294555664063 30 0 27.31369972229004 0 24 L 0 6 C 0 2.686300277709961 2.686294555664063 0 6 0 Z" stroke="none" fill="#e1e1e1"/></g><path d="M5.173-8.112a2.5,2.5,0,0,0-2.057.927,3.961,3.961,0,0,0-.749,2.558,3.988,3.988,0,0,0,.72,2.583,2.545,2.545,0,0,0,2.085.876,5.479,5.479,0,0,0,1.143-.117q.552-.117,1.149-.3v1.3A6.966,6.966,0,0,1,4.989.127,3.957,3.957,0,0,1,1.86-1.108,5.165,5.165,0,0,1,.768-4.64,5.708,5.708,0,0,1,1.3-7.173,3.783,3.783,0,0,1,2.831-8.836a4.637,4.637,0,0,1,2.355-.578,5.844,5.844,0,0,1,2.628.6L7.268-7.554a8.151,8.151,0,0,0-.993-.39A3.579,3.579,0,0,0,5.173-8.112ZM13.7,0l-.3-.978h-.051A2.876,2.876,0,0,1,12.327-.1a3.232,3.232,0,0,1-1.32.232A2.234,2.234,0,0,1,9.391-.432a2.09,2.09,0,0,1-.581-1.581A1.856,1.856,0,0,1,9.617-3.65a4.648,4.648,0,0,1,2.457-.6l1.212-.038v-.375a1.419,1.419,0,0,0-.314-1.006A1.281,1.281,0,0,0,12-6a3.369,3.369,0,0,0-1.035.159,7.808,7.808,0,0,0-.952.375L9.528-6.538a5.192,5.192,0,0,1,1.25-.454,5.755,5.755,0,0,1,1.282-.156,3.037,3.037,0,0,1,2.022.584,2.286,2.286,0,0,1,.682,1.834V0ZM11.477-1.016a1.848,1.848,0,0,0,1.3-.454,1.645,1.645,0,0,0,.492-1.273v-.609l-.9.038a3.084,3.084,0,0,0-1.533.352A1.07,1.07,0,0,0,10.359-2a.938.938,0,0,0,.279.727A1.2,1.2,0,0,0,11.477-1.016ZM23.023,0h-1.5V-4.316A1.889,1.889,0,0,0,21.2-5.529a1.264,1.264,0,0,0-1.038-.4,1.65,1.65,0,0,0-1.384.559A3.084,3.084,0,0,0,18.338-3.5V0H16.847V-7.021h1.168l.209.92H18.3a2.077,2.077,0,0,1,.9-.774A3.021,3.021,0,0,1,20.5-7.147a2.253,2.253,0,0,1,2.526,2.571Zm4.386-7.021h1.625l1.428,3.98a7.552,7.552,0,0,1,.432,1.6h.051a6.672,6.672,0,0,1,.209-.847q.152-.5,1.612-4.732h1.612l-3,7.954a2.848,2.848,0,0,1-2.729,2.19,4.3,4.3,0,0,1-.965-.108V1.834a3.5,3.5,0,0,0,.768.076A1.573,1.573,0,0,0,29.967.66l.26-.66Zm14.263,3.5A3.832,3.832,0,0,1,40.79-.838a3.161,3.161,0,0,1-2.457.965,3.366,3.366,0,0,1-1.739-.444,2.933,2.933,0,0,1-1.162-1.276,4.345,4.345,0,0,1-.406-1.93A3.806,3.806,0,0,1,35.9-6.189a3.176,3.176,0,0,1,2.469-.958,3.093,3.093,0,0,1,2.412.981A3.788,3.788,0,0,1,41.672-3.523Zm-5.11,0q0,2.431,1.8,2.431,1.777,0,1.777-2.431,0-2.406-1.79-2.406a1.526,1.526,0,0,0-1.362.622A3.166,3.166,0,0,0,36.563-3.523ZM48.337,0l-.209-.92h-.076a2.116,2.116,0,0,1-.885.768,2.961,2.961,0,0,1-1.311.279,2.573,2.573,0,0,1-1.9-.635,2.631,2.631,0,0,1-.628-1.923V-7.021h1.5v4.329a1.878,1.878,0,0,0,.33,1.209,1.26,1.26,0,0,0,1.035.4,1.647,1.647,0,0,0,1.381-.562,3.1,3.1,0,0,0,.441-1.882v-3.5h1.5V0Zm9.045.127a2.445,2.445,0,0,1-2.05-.952A4.28,4.28,0,0,1,54.6-3.5a4.294,4.294,0,0,1,.746-2.688,2.469,2.469,0,0,1,2.066-.962,2.42,2.42,0,0,1,2.107,1.022h.076a8.942,8.942,0,0,1-.108-1.193V-9.877h1.5V0H59.814l-.26-.92h-.07A2.385,2.385,0,0,1,57.383.127Zm.4-1.206A1.624,1.624,0,0,0,59.122-1.6a2.724,2.724,0,0,0,.432-1.679v-.209a3.147,3.147,0,0,0-.432-1.885,1.6,1.6,0,0,0-1.352-.559,1.372,1.372,0,0,0-1.212.638,3.269,3.269,0,0,0-.425,1.819,3.188,3.188,0,0,0,.413,1.781A1.393,1.393,0,0,0,57.783-1.079Zm8.893-6.068a3.591,3.591,0,0,1,.743.063l-.146,1.39a2.819,2.819,0,0,0-.66-.076,1.91,1.91,0,0,0-1.45.584,2.111,2.111,0,0,0-.555,1.517V0H63.115V-7.021h1.168l.2,1.238h.076a2.782,2.782,0,0,1,.911-1A2.165,2.165,0,0,1,66.676-7.147ZM70.211,0H68.72V-7.021h1.492ZM68.631-8.88A.826.826,0,0,1,68.85-9.5a.853.853,0,0,1,.625-.216.835.835,0,0,1,.613.216.826.826,0,0,1,.219.616.811.811,0,0,1-.219.6.828.828,0,0,1-.613.219.846.846,0,0,1-.625-.219A.811.811,0,0,1,68.631-8.88ZM73.944,0,71.278-7.021h1.574L74.28-2.939a8.087,8.087,0,0,1,.444,1.663h.051a11.167,11.167,0,0,1,.444-1.663l1.428-4.082h1.587L75.556,0Zm8.423.127a3.4,3.4,0,0,1-2.561-.955,3.627,3.627,0,0,1-.924-2.631,3.979,3.979,0,0,1,.857-2.7,2.96,2.96,0,0,1,2.355-.984,2.893,2.893,0,0,1,2.2.844A3.226,3.226,0,0,1,85.1-3.98v.806H80.418A2.306,2.306,0,0,0,80.971-1.6a1.923,1.923,0,0,0,1.466.549A5.413,5.413,0,0,0,83.6-1.171a6.072,6.072,0,0,0,1.152-.39V-.349a4.58,4.58,0,0,1-1.1.368A6.773,6.773,0,0,1,82.367.127Zm-.273-6.145a1.5,1.5,0,0,0-1.139.451,2.148,2.148,0,0,0-.511,1.314H83.63a1.943,1.943,0,0,0-.419-1.317A1.433,1.433,0,0,0,82.094-6.018ZM94.561,0l-.3-.978h-.051A2.876,2.876,0,0,1,93.19-.1a3.232,3.232,0,0,1-1.32.232,2.234,2.234,0,0,1-1.615-.559,2.09,2.09,0,0,1-.581-1.581,1.856,1.856,0,0,1,.806-1.638,4.648,4.648,0,0,1,2.457-.6l1.212-.038v-.375a1.419,1.419,0,0,0-.314-1.006A1.281,1.281,0,0,0,92.86-6a3.369,3.369,0,0,0-1.035.159,7.808,7.808,0,0,0-.952.375l-.482-1.066a5.192,5.192,0,0,1,1.25-.454,5.755,5.755,0,0,1,1.282-.156,3.037,3.037,0,0,1,2.022.584,2.286,2.286,0,0,1,.682,1.834V0ZM92.339-1.016a1.848,1.848,0,0,0,1.3-.454,1.645,1.645,0,0,0,.492-1.273v-.609l-.9.038a3.084,3.084,0,0,0-1.533.352A1.07,1.07,0,0,0,91.222-2a.938.938,0,0,0,.279.727A1.2,1.2,0,0,0,92.339-1.016ZM103.917.127A3.074,3.074,0,0,1,101.5-.8a3.885,3.885,0,0,1-.828-2.669,3.907,3.907,0,0,1,.866-2.723,3.214,3.214,0,0,1,2.5-.952,4.693,4.693,0,0,1,2,.413l-.451,1.2a4.518,4.518,0,0,0-1.562-.368q-1.822,0-1.822,2.418a2.9,2.9,0,0,0,.454,1.774,1.571,1.571,0,0,0,1.33.594,3.815,3.815,0,0,0,1.885-.5v1.3a2.946,2.946,0,0,1-.854.336A5.123,5.123,0,0,1,103.917.127Zm8-.127-.3-.978h-.051a2.876,2.876,0,0,1-1.022.873,3.232,3.232,0,0,1-1.32.232,2.234,2.234,0,0,1-1.615-.559,2.09,2.09,0,0,1-.581-1.581,1.856,1.856,0,0,1,.806-1.638,4.648,4.648,0,0,1,2.457-.6l1.212-.038v-.375a1.419,1.419,0,0,0-.314-1.006A1.281,1.281,0,0,0,110.214-6a3.369,3.369,0,0,0-1.035.159,7.808,7.808,0,0,0-.952.375l-.482-1.066A5.192,5.192,0,0,1,109-6.992a5.755,5.755,0,0,1,1.282-.156,3.037,3.037,0,0,1,2.022.584,2.286,2.286,0,0,1,.682,1.834V0Zm-2.222-1.016a1.848,1.848,0,0,0,1.3-.454,1.645,1.645,0,0,0,.492-1.273v-.609l-.9.038a3.084,3.084,0,0,0-1.533.352,1.07,1.07,0,0,0-.479.962.938.938,0,0,0,.279.727A1.2,1.2,0,0,0,109.694-1.016Zm8.931-6.132a3.591,3.591,0,0,1,.743.063l-.146,1.39a2.819,2.819,0,0,0-.66-.076,1.91,1.91,0,0,0-1.45.584,2.111,2.111,0,0,0-.555,1.517V0h-1.492V-7.021h1.168l.2,1.238h.076a2.782,2.782,0,0,1,.911-1A2.165,2.165,0,0,1,118.625-7.147ZM121.4-2.818v-.406a2.4,2.4,0,0,1,.254-1.162,3.309,3.309,0,0,1,.889-.958,4.915,4.915,0,0,0,.974-.927,1.391,1.391,0,0,0,.219-.787.989.989,0,0,0-.355-.819,1.6,1.6,0,0,0-1.022-.286,3.513,3.513,0,0,0-1.117.171,7.931,7.931,0,0,0-1,.413L119.7-8.7a5.588,5.588,0,0,1,2.761-.717,2.984,2.984,0,0,1,1.974.609,2.073,2.073,0,0,1,.73,1.682,2.4,2.4,0,0,1-.14.847,2.432,2.432,0,0,1-.422.708,6.816,6.816,0,0,1-.974.876,3.737,3.737,0,0,0-.79.768,1.475,1.475,0,0,0-.2.819v.286Zm-.26,2.025a.836.836,0,0,1,.933-.958.924.924,0,0,1,.7.251.98.98,0,0,1,.241.708,1.009,1.009,0,0,1-.244.714.9.9,0,0,1-.7.263.9.9,0,0,1-.692-.257A1.012,1.012,0,0,1,121.139-.793Z" transform="translate(-15988.932 167.455)" fill="#6a737f"/><path d="M-3.691-10.708H-.359a6.422,6.422,0,0,1,3.307.648A2.256,2.256,0,0,1,3.977-8a2.6,2.6,0,0,1-.45,1.575,1.8,1.8,0,0,1-1.2.74v.073a2.359,2.359,0,0,1,1.469.85,2.764,2.764,0,0,1,.45,1.655A2.728,2.728,0,0,1,3.19-.82,4.577,4.577,0,0,1,.315,0H-3.691Zm2.271,4.241H-.1a2.41,2.41,0,0,0,1.337-.286A1.065,1.065,0,0,0,1.648-7.7.945.945,0,0,0,1.2-8.58,2.9,2.9,0,0,0-.227-8.848H-1.421Zm0,1.8v2.791H.059a2.195,2.195,0,0,0,1.384-.359,1.325,1.325,0,0,0,.447-1.1q0-1.333-1.9-1.333Z" transform="translate(-16023.06 169.142)" fill="#6a737f"/><g transform="translate(-15998 148)" fill="none"><path d="M6,0H152a6,6,0,0,1,6,6V24a6,6,0,0,1-6,6H6a6,6,0,0,1-6-6V6A6,6,0,0,1,6,0Z" stroke="none"/><path d="M 6 1 C 3.242996215820313 1 1 3.243000030517578 1 6 L 1 24 C 1 26.75699996948242 3.242996215820313 29 6 29 L 152 29 C 154.7570037841797 29 157 26.75699996948242 157 24 L 157 6 C 157 3.243000030517578 154.7570037841797 1 152 1 L 6 1 M 6 0 L 152 0 C 155.3137054443359 0 158 2.686300277709961 158 6 L 158 24 C 158 27.31369972229004 155.3137054443359 30 152 30 L 6 30 C 2.686294555664063 30 0 27.31369972229004 0 24 L 0 6 C 0 2.686300277709961 2.686294555664063 0 6 0 Z" stroke="none" fill="#e1e1e1"/></g><path d="M6.982,0,6.056-2.577H2.507L1.6,0H0L3.472-9.318h1.65L8.595,0ZM5.656-3.885l-.87-2.526q-.1-.254-.263-.8t-.232-.8A14.226,14.226,0,0,1,3.79-6.3L2.952-3.885Zm7.566-3.263a3.591,3.591,0,0,1,.743.063l-.146,1.39a2.819,2.819,0,0,0-.66-.076,1.91,1.91,0,0,0-1.45.584,2.111,2.111,0,0,0-.555,1.517V0H9.661V-7.021h1.168l.2,1.238H11.1a2.782,2.782,0,0,1,.911-1A2.165,2.165,0,0,1,13.222-7.147ZM18.332.127a3.4,3.4,0,0,1-2.561-.955,3.627,3.627,0,0,1-.924-2.631,3.979,3.979,0,0,1,.857-2.7,2.96,2.96,0,0,1,2.355-.984,2.893,2.893,0,0,1,2.2.844,3.226,3.226,0,0,1,.806,2.323v.806H16.383A2.306,2.306,0,0,0,16.936-1.6a1.923,1.923,0,0,0,1.466.549,5.413,5.413,0,0,0,1.158-.117,6.072,6.072,0,0,0,1.152-.39V-.349a4.58,4.58,0,0,1-1.1.368A6.773,6.773,0,0,1,18.332.127Zm-.273-6.145a1.5,1.5,0,0,0-1.139.451,2.148,2.148,0,0,0-.511,1.314H19.6a1.943,1.943,0,0,0-.419-1.317A1.433,1.433,0,0,0,18.059-6.018Zm7.008-1h1.625l1.428,3.98a7.552,7.552,0,0,1,.432,1.6H28.6a6.672,6.672,0,0,1,.209-.847q.152-.5,1.612-4.732h1.612l-3,7.954A2.848,2.848,0,0,1,26.3,3.123a4.3,4.3,0,0,1-.965-.108V1.834a3.5,3.5,0,0,0,.768.076A1.573,1.573,0,0,0,27.625.66l.26-.66Zm14.263,3.5a3.832,3.832,0,0,1-.882,2.685,3.161,3.161,0,0,1-2.457.965,3.366,3.366,0,0,1-1.739-.444A2.933,2.933,0,0,1,33.09-1.593a4.345,4.345,0,0,1-.406-1.93,3.806,3.806,0,0,1,.876-2.666,3.176,3.176,0,0,1,2.469-.958,3.093,3.093,0,0,1,2.412.981A3.788,3.788,0,0,1,39.33-3.523Zm-5.11,0q0,2.431,1.8,2.431,1.777,0,1.777-2.431,0-2.406-1.79-2.406a1.526,1.526,0,0,0-1.362.622A3.166,3.166,0,0,0,34.22-3.523ZM46,0l-.209-.92h-.076a2.116,2.116,0,0,1-.885.768,2.961,2.961,0,0,1-1.311.279,2.573,2.573,0,0,1-1.9-.635,2.631,2.631,0,0,1-.628-1.923V-7.021h1.5v4.329a1.878,1.878,0,0,0,.33,1.209,1.26,1.26,0,0,0,1.035.4,1.647,1.647,0,0,0,1.381-.562,3.1,3.1,0,0,0,.441-1.882v-3.5h1.5V0ZM58.589,0h-1.5V-4.329a1.963,1.963,0,0,0-.3-1.2,1.124,1.124,0,0,0-.952-.4,1.452,1.452,0,0,0-1.266.562,3.3,3.3,0,0,0-.4,1.869V0H52.673V-7.021h1.168l.209.92h.076a1.945,1.945,0,0,1,.847-.774A2.732,2.732,0,0,1,56.2-7.147a2.135,2.135,0,0,1,2.146,1.1h.1a2.14,2.14,0,0,1,.876-.812,2.78,2.78,0,0,1,1.295-.292,2.358,2.358,0,0,1,1.831.635,2.811,2.811,0,0,1,.574,1.936V0H61.528V-4.329a1.948,1.948,0,0,0-.308-1.2,1.134,1.134,0,0,0-.955-.4,1.481,1.481,0,0,0-1.273.543,2.8,2.8,0,0,0-.4,1.666ZM70.053,0l-.209-.92h-.076a2.117,2.117,0,0,1-.885.768,2.961,2.961,0,0,1-1.311.279,2.573,2.573,0,0,1-1.9-.635,2.631,2.631,0,0,1-.628-1.923V-7.021h1.5v4.329a1.878,1.878,0,0,0,.33,1.209,1.26,1.26,0,0,0,1.035.4,1.647,1.647,0,0,0,1.381-.562,3.1,3.1,0,0,0,.441-1.882v-3.5h1.5V0Zm4.792,0H73.354V-9.877h1.492Zm4.748-1.079a3.628,3.628,0,0,0,1.092-.171V-.127a3.011,3.011,0,0,1-.638.181,4.4,4.4,0,0,1-.809.073q-2.12,0-2.12-2.234V-5.891h-.958v-.66L77.188-7.1,77.7-8.582h.92v1.562h2v1.13h-2v3.758a1.054,1.054,0,0,0,.27.8A.983.983,0,0,0,79.593-1.079ZM83.58,0H82.088V-7.021H83.58ZM82-8.88a.826.826,0,0,1,.219-.616.853.853,0,0,1,.625-.216.835.835,0,0,1,.613.216.826.826,0,0,1,.219.616.811.811,0,0,1-.219.6.828.828,0,0,1-.613.219.846.846,0,0,1-.625-.219A.811.811,0,0,1,82-8.88Zm3.1,6.03V-4.12h3.263v1.27ZM91.387,0H89.9V-9.877h1.492Zm3.625,0H93.52V-7.021h1.492ZM93.431-8.88A.826.826,0,0,1,93.65-9.5a.853.853,0,0,1,.625-.216.835.835,0,0,1,.613.216.826.826,0,0,1,.219.616.811.811,0,0,1-.219.6.828.828,0,0,1-.613.219.846.846,0,0,1-.625-.219A.811.811,0,0,1,93.431-8.88ZM103.321,0h-1.5V-4.316a1.889,1.889,0,0,0-.327-1.212,1.264,1.264,0,0,0-1.038-.4,1.65,1.65,0,0,0-1.384.559A3.084,3.084,0,0,0,98.636-3.5V0H97.145V-7.021h1.168l.209.92H98.6a2.077,2.077,0,0,1,.9-.774,3.021,3.021,0,0,1,1.295-.273,2.253,2.253,0,0,1,2.526,2.571Zm8-7.021V-6.2l-1.2.222a1.936,1.936,0,0,1,.273.546,2.154,2.154,0,0,1,.108.686,2.1,2.1,0,0,1-.749,1.708,3.134,3.134,0,0,1-2.063.622,3.345,3.345,0,0,1-.609-.051.84.84,0,0,0-.482.7.388.388,0,0,0,.225.362,1.949,1.949,0,0,0,.828.121h1.225a2.724,2.724,0,0,1,1.765.5,1.742,1.742,0,0,1,.6,1.428,2.077,2.077,0,0,1-.984,1.841,5.18,5.18,0,0,1-2.844.647,3.924,3.924,0,0,1-2.19-.508,1.641,1.641,0,0,1-.755-1.447,1.54,1.54,0,0,1,.409-1.089,2.194,2.194,0,0,1,1.146-.613,1.121,1.121,0,0,1-.492-.409,1.034,1.034,0,0,1-.194-.594,1.022,1.022,0,0,1,.222-.667,2.563,2.563,0,0,1,.66-.54,1.955,1.955,0,0,1-.885-.765A2.25,2.25,0,0,1,105-4.748a2.225,2.225,0,0,1,.72-1.771,3.029,3.029,0,0,1,2.053-.628,5,5,0,0,1,.625.041,3.936,3.936,0,0,1,.492.086Zm-5.516,8.112a.82.82,0,0,0,.435.743,2.39,2.39,0,0,0,1.222.26,3.692,3.692,0,0,0,1.815-.349,1.047,1.047,0,0,0,.6-.927.7.7,0,0,0-.327-.651,2.625,2.625,0,0,0-1.216-.194h-1.13a1.588,1.588,0,0,0-1.019.3A.989.989,0,0,0,105.809,1.092Zm.641-5.84a1.413,1.413,0,0,0,.34,1.016,1.284,1.284,0,0,0,.974.355q1.295,0,1.295-1.384a1.57,1.57,0,0,0-.321-1.057,1.218,1.218,0,0,0-.974-.371,1.256,1.256,0,0,0-.981.368A1.548,1.548,0,0,0,106.45-4.748ZM117.578,0l-.209-.92h-.076a2.117,2.117,0,0,1-.885.768A2.961,2.961,0,0,1,115.1.127a2.573,2.573,0,0,1-1.9-.635,2.631,2.631,0,0,1-.628-1.923V-7.021h1.5v4.329a1.878,1.878,0,0,0,.33,1.209,1.26,1.26,0,0,0,1.035.4,1.647,1.647,0,0,0,1.381-.562,3.1,3.1,0,0,0,.441-1.882v-3.5h1.5V0Zm7.693,0-.3-.978h-.051A2.876,2.876,0,0,1,123.9-.1a3.232,3.232,0,0,1-1.32.232,2.234,2.234,0,0,1-1.615-.559,2.09,2.09,0,0,1-.581-1.581,1.856,1.856,0,0,1,.806-1.638,4.648,4.648,0,0,1,2.457-.6l1.212-.038v-.375a1.419,1.419,0,0,0-.314-1.006A1.281,1.281,0,0,0,123.57-6a3.369,3.369,0,0,0-1.035.159,7.808,7.808,0,0,0-.952.375L121.1-6.538a5.192,5.192,0,0,1,1.25-.454,5.755,5.755,0,0,1,1.282-.156,3.037,3.037,0,0,1,2.022.584,2.286,2.286,0,0,1,.682,1.834V0Zm-2.222-1.016a1.848,1.848,0,0,0,1.3-.454,1.645,1.645,0,0,0,.492-1.273v-.609l-.9.038a3.084,3.084,0,0,0-1.533.352,1.07,1.07,0,0,0-.479.962.938.938,0,0,0,.279.727A1.2,1.2,0,0,0,123.049-1.016ZM129.911,0h-1.492V-9.877h1.492Zm2.863-2.818v-.406a2.4,2.4,0,0,1,.254-1.162,3.309,3.309,0,0,1,.889-.958,4.915,4.915,0,0,0,.974-.927,1.391,1.391,0,0,0,.219-.787.989.989,0,0,0-.355-.819,1.6,1.6,0,0,0-1.022-.286,3.513,3.513,0,0,0-1.117.171,7.931,7.931,0,0,0-1,.413L131.079-8.7a5.588,5.588,0,0,1,2.761-.717,2.984,2.984,0,0,1,1.974.609,2.073,2.073,0,0,1,.73,1.682,2.4,2.4,0,0,1-.14.847,2.432,2.432,0,0,1-.422.708,6.816,6.816,0,0,1-.974.876,3.737,3.737,0,0,0-.79.768,1.475,1.475,0,0,0-.2.819v.286Zm-.26,2.025a.836.836,0,0,1,.933-.958.924.924,0,0,1,.7.251.98.98,0,0,1,.241.708,1.009,1.009,0,0,1-.244.714.9.9,0,0,1-.7.263.9.9,0,0,1-.692-.257A1.012,1.012,0,0,1,132.514-.793Z" transform="translate(-15988.932 205.455)" fill="#6a737f"/><path d="M5.9-8.972a2.314,2.314,0,0,0-1.985.963,4.481,4.481,0,0,0-.7,2.684q0,3.582,2.688,3.582a8.5,8.5,0,0,0,2.732-.564V-.4A7.587,7.587,0,0,1,5.684.146,4.491,4.491,0,0,1,2.109-1.271,6,6,0,0,1,.872-5.339a6.644,6.644,0,0,1,.608-2.926,4.394,4.394,0,0,1,1.747-1.926,5.168,5.168,0,0,1,2.67-.67,7.205,7.205,0,0,1,3.135.754L8.3-8.262a12.124,12.124,0,0,0-1.208-.5A3.605,3.605,0,0,0,5.9-8.972Z" transform="translate(-16028.06 207.142)" fill="#6a737f"/><g transform="translate(-15998 186)" fill="none"><path d="M6,0H152a6,6,0,0,1,6,6V24a6,6,0,0,1-6,6H6a6,6,0,0,1-6-6V6A6,6,0,0,1,6,0Z" stroke="none"/><path d="M 6 1 C 3.242996215820313 1 1 3.243000030517578 1 6 L 1 24 C 1 26.75699996948242 3.242996215820313 29 6 29 L 152 29 C 154.7570037841797 29 157 26.75699996948242 157 24 L 157 6 C 157 3.243000030517578 154.7570037841797 1 152 1 L 6 1 M 6 0 L 152 0 C 155.3137054443359 0 158 2.686300277709961 158 6 L 158 24 C 158 27.31369972229004 155.3137054443359 30 152 30 L 6 30 C 2.686294555664063 30 0 27.31369972229004 0 24 L 0 6 C 0 2.686300277709961 2.686294555664063 0 6 0 Z" stroke="none" fill="#e1e1e1"/></g><path d="M-6.909-5.046l2.2-4.234h1.65L-6.154-3.6V0H-7.677V-3.548L-10.756-9.28h1.65ZM1.07.127A3.4,3.4,0,0,1-1.492-.828a3.627,3.627,0,0,1-.924-2.631,3.979,3.979,0,0,1,.857-2.7A2.96,2.96,0,0,1,.8-7.147a2.893,2.893,0,0,1,2.2.844A3.226,3.226,0,0,1,3.8-3.98v.806H-.879A2.306,2.306,0,0,0-.327-1.6a1.923,1.923,0,0,0,1.466.549A5.413,5.413,0,0,0,2.3-1.171a6.072,6.072,0,0,0,1.152-.39V-.349a4.58,4.58,0,0,1-1.1.368A6.773,6.773,0,0,1,1.07.127ZM.8-6.018a1.5,1.5,0,0,0-1.139.451A2.148,2.148,0,0,0-.854-4.253H2.333A1.943,1.943,0,0,0,1.914-5.57,1.433,1.433,0,0,0,.8-6.018ZM10.21-2A1.837,1.837,0,0,1,9.461-.422,3.587,3.587,0,0,1,7.316.127,5.068,5.068,0,0,1,5.062-.3V-1.587a5.532,5.532,0,0,0,2.3.571q1.377,0,1.377-.832a.659.659,0,0,0-.152-.444,1.8,1.8,0,0,0-.5-.368,8.63,8.63,0,0,0-.971-.432,4.493,4.493,0,0,1-1.641-.939A1.738,1.738,0,0,1,5.05-5.25a1.6,1.6,0,0,1,.727-1.4,3.449,3.449,0,0,1,1.977-.5,5.6,5.6,0,0,1,2.342.5L9.614-5.522A5.21,5.21,0,0,0,7.7-5.992q-1.181,0-1.181.673a.677.677,0,0,0,.308.559,6.77,6.77,0,0,0,1.343.628,6.137,6.137,0,0,1,1.263.616,1.84,1.84,0,0,1,.584.644A1.865,1.865,0,0,1,10.21-2Z" transform="translate(-15820.932 100)" fill="#6a737f"/><path d="M-.1,0h-1.86L-6.529-7.4h-.051l.032.413q.089,1.181.089,2.158V0H-7.836V-9.28H-6l4.551,7.357h.038q-.013-.146-.051-1.063t-.038-1.431V-9.28H-.1ZM8.414-3.523A3.832,3.832,0,0,1,7.531-.838,3.161,3.161,0,0,1,5.075.127,3.366,3.366,0,0,1,3.336-.317,2.933,2.933,0,0,1,2.174-1.593a4.345,4.345,0,0,1-.406-1.93,3.806,3.806,0,0,1,.876-2.666,3.176,3.176,0,0,1,2.469-.958,3.093,3.093,0,0,1,2.412.981A3.788,3.788,0,0,1,8.414-3.523Zm-5.11,0q0,2.431,1.8,2.431,1.777,0,1.777-2.431,0-2.406-1.79-2.406a1.526,1.526,0,0,0-1.362.622A3.166,3.166,0,0,0,3.3-3.523Z" transform="translate(-15785.932 100)" fill="#6a737f"/><path d="M10,0A10,10,0,1,1,0,10,10,10,0,0,1,10,0Z" transform="translate(-15796 114)" fill="#00ad50"/><g transform="translate(-15796 114)" fill="#fff"><path d="M 10 19.125 C 4.968460083007813 19.125 0.875 15.03153991699219 0.875 10 C 0.875 4.968460083007813 4.968460083007813 0.875 10 0.875 C 15.03153991699219 0.875 19.125 4.968460083007813 19.125 10 C 19.125 15.03153991699219 15.03153991699219 19.125 10 19.125 Z" stroke="none"/><path d="M 10 1.75 C 5.450929641723633 1.75 1.75 5.450929641723633 1.75 10 C 1.75 14.54907035827637 5.450929641723633 18.25 10 18.25 C 14.54907035827637 18.25 18.25 14.54907035827637 18.25 10 C 18.25 5.450929641723633 14.54907035827637 1.75 10 1.75 M 10 0 C 15.52285003662109 0 20 4.477149963378906 20 10 C 20 15.52285003662109 15.52285003662109 20 10 20 C 4.477149963378906 20 0 15.52285003662109 0 10 C 0 4.477149963378906 4.477149963378906 0 10 0 Z" stroke="none" fill="#e1e1e1"/></g><g transform="translate(-15796 153)" fill="#fff"><path d="M 10 19.125 C 4.968460083007813 19.125 0.875 15.03153991699219 0.875 10 C 0.875 4.968460083007813 4.968460083007813 0.875 10 0.875 C 15.03153991699219 0.875 19.125 4.968460083007813 19.125 10 C 19.125 15.03153991699219 15.03153991699219 19.125 10 19.125 Z" stroke="none"/><path d="M 10 1.75 C 5.450929641723633 1.75 1.75 5.450929641723633 1.75 10 C 1.75 14.54907035827637 5.450929641723633 18.25 10 18.25 C 14.54907035827637 18.25 18.25 14.54907035827637 18.25 10 C 18.25 5.450929641723633 14.54907035827637 1.75 10 1.75 M 10 0 C 15.52285003662109 0 20 4.477149963378906 20 10 C 20 15.52285003662109 15.52285003662109 20 10 20 C 4.477149963378906 20 0 15.52285003662109 0 10 C 0 4.477149963378906 4.477149963378906 0 10 0 Z" stroke="none" fill="#e1e1e1"/></g><g transform="translate(-15810 212) rotate(180)" fill="#fff"><path d="M 10 19.125 C 4.968460083007813 19.125 0.875 15.03153991699219 0.875 10 C 0.875 4.968460083007813 4.968460083007813 0.875 10 0.875 C 15.03153991699219 0.875 19.125 4.968460083007813 19.125 10 C 19.125 15.03153991699219 15.03153991699219 19.125 10 19.125 Z" stroke="none"/><path d="M 10 1.75 C 5.450929641723633 1.75 1.75 5.450929641723633 1.75 10 C 1.75 14.54907035827637 5.450929641723633 18.25 10 18.25 C 14.54907035827637 18.25 18.25 14.54907035827637 18.25 10 C 18.25 5.450929641723633 14.54907035827637 1.75 10 1.75 M 10 0 C 15.52285003662109 0 20 4.477149963378906 20 10 C 20 15.52285003662109 15.52285003662109 20 10 20 C 4.477149963378906 20 0 15.52285003662109 0 10 C 0 4.477149963378906 4.477149963378906 0 10 0 Z" stroke="none" fill="#e1e1e1"/></g><g transform="translate(-15830 114)" fill="#fff"><path d="M 10 19.5 C 4.761680126190186 19.5 0.5 15.23832035064697 0.5 10 C 0.5 4.761680126190186 4.761680126190186 0.5 10 0.5 C 15.23832035064697 0.5 19.5 4.761680126190186 19.5 10 C 19.5 15.23832035064697 15.23832035064697 19.5 10 19.5 Z" stroke="none"/><path d="M 10 1 C 5.037380218505859 1 1 5.037380218505859 1 10 C 1 14.96261978149414 5.037380218505859 19 10 19 C 14.96261978149414 19 19 14.96261978149414 19 10 C 19 5.037380218505859 14.96261978149414 1 10 1 M 10 0 C 15.52285003662109 0 20 4.477149963378906 20 10 C 20 15.52285003662109 15.52285003662109 20 10 20 C 4.477149963378906 20 0 15.52285003662109 0 10 C 0 4.477149963378906 4.477149963378906 0 10 0 Z" stroke="none" fill="#00ad50"/></g><path d="M10,0A10,10,0,1,1,0,10,10,10,0,0,1,10,0Z" transform="translate(-15830 114)" fill="none"/><path d="M5,0A5,5,0,1,1,0,5,5,5,0,0,1,5,0Z" transform="translate(-15825 119)" fill="#00ad50"/><path d="M5,0A5,5,0,1,1,0,5,5,5,0,0,1,5,0Z" transform="translate(-15825 119)" fill="none"/><g transform="translate(-15830 153)" fill="#fff"><path d="M 10 19.5 C 4.761680126190186 19.5 0.5 15.23832035064697 0.5 10 C 0.5 4.761680126190186 4.761680126190186 0.5 10 0.5 C 15.23832035064697 0.5 19.5 4.761680126190186 19.5 10 C 19.5 15.23832035064697 15.23832035064697 19.5 10 19.5 Z" stroke="none"/><path d="M 10 1 C 5.037380218505859 1 1 5.037380218505859 1 10 C 1 14.96261978149414 5.037380218505859 19 10 19 C 14.96261978149414 19 19 14.96261978149414 19 10 C 19 5.037380218505859 14.96261978149414 1 10 1 M 10 0 C 15.52285003662109 0 20 4.477149963378906 20 10 C 20 15.52285003662109 15.52285003662109 20 10 20 C 4.477149963378906 20 0 15.52285003662109 0 10 C 0 4.477149963378906 4.477149963378906 0 10 0 Z" stroke="none" fill="#00ad50"/></g><path d="M10,0A10,10,0,1,1,0,10,10,10,0,0,1,10,0Z" transform="translate(-15830 153)" fill="none"/><path d="M5,0A5,5,0,1,1,0,5,5,5,0,0,1,5,0Z" transform="translate(-15825 158)" fill="#00ad50"/><path d="M5,0A5,5,0,1,1,0,5,5,5,0,0,1,5,0Z" transform="translate(-15825 158)" fill="none"/><g transform="translate(-15776 212) rotate(180)" fill="#fff"><path d="M 10 19.5 C 4.761680126190186 19.5 0.5 15.23832035064697 0.5 10 C 0.5 4.761680126190186 4.761680126190186 0.5 10 0.5 C 15.23832035064697 0.5 19.5 4.761680126190186 19.5 10 C 19.5 15.23832035064697 15.23832035064697 19.5 10 19.5 Z" stroke="none"/><path d="M 10 1 C 5.037380218505859 1 1 5.037380218505859 1 10 C 1 14.96261978149414 5.037380218505859 19 10 19 C 14.96261978149414 19 19 14.96261978149414 19 10 C 19 5.037380218505859 14.96261978149414 1 10 1 M 10 0 C 15.52285003662109 0 20 4.477149963378906 20 10 C 20 15.52285003662109 15.52285003662109 20 10 20 C 4.477149963378906 20 0 15.52285003662109 0 10 C 0 4.477149963378906 4.477149963378906 0 10 0 Z" stroke="none" fill="#00ad50"/></g><path d="M10,0A10,10,0,1,1,0,10,10,10,0,0,1,10,0Z" transform="translate(-15776 212) rotate(180)" fill="none"/><path d="M5,0A5,5,0,1,1,0,5,5,5,0,0,1,5,0Z" transform="translate(-15781 207) rotate(180)" fill="#00ad50"/><path d="M5,0A5,5,0,1,1,0,5,5,5,0,0,1,5,0Z" transform="translate(-15781 207) rotate(180)" fill="none"/></g></svg>