<svg xmlns="http://www.w3.org/2000/svg" width="247.207" height="145.945" viewBox="0 0 247.207 145.945"><g transform="translate(-16.166 -51.6)"><rect width="247.207" height="145.945" rx="5" transform="translate(16.166 51.6)" fill="#fff"/><g transform="translate(34.361 97.36)"><g transform="translate(0 0)"><g transform="translate(0 33.509)"><text transform="translate(-8.195 11.042)" fill="#212e3a" font-size="12" font-family="OpenSans-Semibold, Open Sans" font-weight="600" letter-spacing="-0.025em"><tspan x="0" y="0">Basketball</tspan></text></g><g transform="translate(0 67.019)"><text transform="translate(-8.195 10.532)" fill="#212e3a" font-size="12" font-family="OpenSans-Semibold, Open Sans" font-weight="600" letter-spacing="-0.025em"><tspan x="0" y="0">Hockey</tspan></text></g><g transform="translate(-8 0.986)"><text transform="translate(-0.195 11.566)" fill="#212e3a" font-size="12" font-family="OpenSans-Semibold, Open Sans" font-weight="600" letter-spacing="-0.025em"><tspan x="0" y="0">Soccer</tspan></text></g><g transform="translate(-10)"><g transform="translate(111.805 0.236)"><g fill="none" stroke="#3f85e5" stroke-miterlimit="10" stroke-width="1"><circle cx="7.483" cy="7.483" r="7.483" stroke="none"/><circle cx="7.483" cy="7.483" r="6.983" fill="none"/></g><circle cx="3.415" cy="3.415" r="3.415" transform="translate(4.068 4)" fill="#3f85e5"/></g><g transform="translate(127 0.985)"><text transform="translate(4.805 11.566)" fill="#212e3a" font-size="12" font-family="OpenSans-Semibold, Open Sans" font-weight="600"><tspan x="0" y="0">True</tspan></text></g></g><g transform="translate(-10)"><g transform="translate(176.805 0.24)"><g fill="#f8f8f8" stroke="#b9b9b9" stroke-miterlimit="10" stroke-width="1"><circle cx="7.483" cy="7.483" r="7.483" stroke="none"/><circle cx="7.483" cy="7.483" r="6.983" fill="none"/></g></g><g transform="translate(192 0.985)"><text transform="translate(4.805 11.566)" fill="#212e3a" font-size="12" font-family="OpenSans-Semibold, Open Sans" font-weight="600"><tspan x="0" y="0">False</tspan></text></g></g><g transform="translate(0 32)"><g transform="translate(-10)"><g transform="translate(111.805 0.236)"><g fill="none" stroke="#3f85e5" stroke-miterlimit="10" stroke-width="1"><circle cx="7.483" cy="7.483" r="7.483" stroke="none"/><circle cx="7.483" cy="7.483" r="6.983" fill="none"/></g><circle cx="3.415" cy="3.415" r="3.415" transform="translate(4.068 4)" fill="#3f85e5"/></g><g transform="translate(127 0.985)"><text transform="translate(4.805 11.566)" fill="#212e3a" font-size="12" font-family="OpenSans-Semibold, Open Sans" font-weight="600"><tspan x="0" y="0">True</tspan></text></g></g><g transform="translate(-10)"><g transform="translate(176.805 0.24)"><g fill="#f8f8f8" stroke="#b9b9b9" stroke-miterlimit="10" stroke-width="1"><circle cx="7.483" cy="7.483" r="7.483" stroke="none"/><circle cx="7.483" cy="7.483" r="6.983" fill="none"/></g></g><g transform="translate(192 0.985)"><text transform="translate(4.805 11.566)" fill="#212e3a" font-size="12" font-family="OpenSans-Semibold, Open Sans" font-weight="600"><tspan x="0" y="0">False</tspan></text></g></g></g><g transform="translate(0 64)"><g transform="translate(-10)"><g transform="translate(111.805 0.236)"><g fill="none" stroke="#3f85e5" stroke-miterlimit="10" stroke-width="1"><circle cx="7.483" cy="7.483" r="7.483" stroke="none"/><circle cx="7.483" cy="7.483" r="6.983" fill="none"/></g><circle cx="3.415" cy="3.415" r="3.415" transform="translate(4.068 4)" fill="#3f85e5"/></g><g transform="translate(127 0.985)"><text transform="translate(4.805 11.566)" fill="#212e3a" font-size="12" font-family="OpenSans-Semibold, Open Sans" font-weight="600"><tspan x="0" y="0">True</tspan></text></g></g><g transform="translate(-10)"><g transform="translate(176.805 0.24)"><g fill="#f8f8f8" stroke="#b9b9b9" stroke-miterlimit="10" stroke-width="1"><circle cx="7.483" cy="7.483" r="7.483" stroke="none"/><circle cx="7.483" cy="7.483" r="6.983" fill="none"/></g></g><g transform="translate(192 0.985)"><text transform="translate(4.805 11.566)" fill="#212e3a" font-size="12" font-family="OpenSans-Semibold, Open Sans" font-weight="600"><tspan x="0" y="0">False</tspan></text></g></g></g></g></g></g></svg>