<svg xmlns="http://www.w3.org/2000/svg" width="247.207" height="145.945" viewBox="0 0 247.207 145.945"><g transform="translate(-17.461 -51.6)"><rect width="247.207" height="145.945" rx="5" transform="translate(17.461 51.6)" fill="#fff"/><g transform="translate(34.154 73.433)"><g transform="translate(0 0)"><g transform="translate(0 23.927)"><text transform="translate(-8 12.224)" fill="#212e3a" font-size="12" font-family="OpenSans-Semibold, Open Sans" font-weight="600" letter-spacing="-0.025em"><tspan x="0" y="0">Australia has > 23 million people</tspan></text><text transform="translate(-8 77.119)" fill="#212e3a" font-size="12" font-family="OpenSans-Semibold, Open Sans" font-weight="600" letter-spacing="-0.025em"><tspan x="0" y="0">Madrid is located in Spain</tspan></text><text transform="translate(-8 44.671)" fill="#212e3a" font-size="12" font-family="OpenSans-Semibold, Open Sans" font-weight="600" letter-spacing="-0.025em"><tspan x="0" y="0">USA has less than 50 states</tspan></text><g transform="translate(194.307 33.236)"><g fill="none" stroke="#3f85e5" stroke-miterlimit="10" stroke-width="1"><circle cx="7.483" cy="7.483" r="7.483" stroke="none"/><circle cx="7.483" cy="7.483" r="6.983" fill="none"/></g><circle cx="3.415" cy="3.415" r="3.415" transform="translate(4.068 4)" fill="#3f85e5"/></g><g transform="translate(158.307 33.24)"><g fill="#f8f8f8" stroke="#b9b9b9" stroke-miterlimit="10" stroke-width="1"><circle cx="7.483" cy="7.483" r="7.483" stroke="none"/><circle cx="7.483" cy="7.483" r="6.983" fill="none"/></g></g></g><g transform="translate(158.307 24.163)"><g fill="none" stroke="#3f85e5" stroke-miterlimit="10" stroke-width="1"><circle cx="7.483" cy="7.483" r="7.483" stroke="none"/><circle cx="7.483" cy="7.483" r="6.983" fill="none"/></g><circle cx="3.415" cy="3.415" r="3.415" transform="translate(4.068 4)" fill="#3f85e5"/></g><g transform="translate(151.195)"><g transform="translate(5)"><text transform="translate(10 11)" fill="#6a737f" font-size="9" font-family="OpenSans-Semibold, Open Sans" font-weight="600"><tspan x="-11.274" y="0">TRUE</tspan></text></g><g transform="translate(36.717)"><text transform="translate(0 11)" fill="#6a737f" font-size="9" font-family="OpenSans-Semibold, Open Sans" font-weight="600"><tspan x="0" y="0">FALSE</tspan></text></g></g><g transform="translate(194.307 24.167)"><g fill="#f8f8f8" stroke="#b9b9b9" stroke-miterlimit="10" stroke-width="1"><circle cx="7.483" cy="7.483" r="7.483" stroke="none"/><circle cx="7.483" cy="7.483" r="6.983" fill="none"/></g></g></g><g transform="translate(158.307 90.163)"><g fill="none" stroke="#3f85e5" stroke-miterlimit="10" stroke-width="1"><circle cx="7.483" cy="7.483" r="7.483" stroke="none"/><circle cx="7.483" cy="7.483" r="6.983" fill="none"/></g><circle cx="3.415" cy="3.415" r="3.415" transform="translate(4.068 4)" fill="#3f85e5"/></g><g transform="translate(194.307 90.167)"><g fill="#f8f8f8" stroke="#b9b9b9" stroke-miterlimit="10" stroke-width="1"><circle cx="7.483" cy="7.483" r="7.483" stroke="none"/><circle cx="7.483" cy="7.483" r="6.983" fill="none"/></g></g></g></g></svg>