<svg xmlns="http://www.w3.org/2000/svg" width="226.402" height="174.189" viewBox="0 0 226.402 174.189"><g transform="translate(0)"><rect width="226.402" height="174.189" rx="10" transform="translate(0 0)" fill="#fff"/><path d="M10,1a9.01,9.01,0,0,0-9,9V164.189a9.01,9.01,0,0,0,9,9H216.4a9.01,9.01,0,0,0,9-9V10a9.01,9.01,0,0,0-9-9H10m0-1H216.4a10,10,0,0,1,10,10V164.189a10,10,0,0,1-10,10H10a10,10,0,0,1-10-10V10A10,10,0,0,1,10,0Z" transform="translate(0 0)" fill="#dadae4"/><g transform="translate(16.757 12.829)"><text transform="translate(0 12)" fill="#434b5d" font-size="11" font-family="OpenSans-Bold, Open Sans" font-weight="700"><tspan x="0" y="0">Match Table - Standard</tspan></text></g><g transform="translate(9.747 41.606)"><g transform="translate(7.01 18.411)"><g transform="translate(0 0)"><g transform="translate(0 17.86)"><text transform="translate(0 10)" fill="#212e3a" font-size="9" font-family="OpenSans-SemiBold, Open Sans" font-weight="600" letter-spacing="-0.025em"><tspan x="0" y="0">Australia has &gt; 23 million people</tspan></text><text transform="translate(0 62.326)" fill="#212e3a" font-size="9" font-family="OpenSans-SemiBold, Open Sans" font-weight="600" letter-spacing="-0.025em"><tspan x="0" y="0">Madrid is located in Spain</tspan></text><text transform="translate(0 36.163)" fill="#212e3a" font-size="9" font-family="OpenSans-SemiBold, Open Sans" font-weight="600" letter-spacing="-0.025em"><tspan x="0" y="0">USA has less than 50 states</tspan></text><g transform="translate(173.123 27.425)"><g fill="none" stroke="#3f85e5" stroke-miterlimit="10" stroke-width="1"><circle cx="6.034" cy="6.034" r="6.034" stroke="none"/><circle cx="6.034" cy="6.034" r="5.534" fill="none"/></g><circle cx="2.754" cy="2.754" r="2.754" transform="translate(3.28 3.225)" fill="#3f85e5"/></g><g transform="translate(144.096 27.427)"><g fill="#f8f8f8" stroke="#b9b9b9" stroke-miterlimit="10" stroke-width="1"><circle cx="6.034" cy="6.034" r="6.034" stroke="none"/><circle cx="6.034" cy="6.034" r="5.534" fill="none"/></g></g></g><g transform="translate(141.587)"><g transform="translate(2.509 18.677)"><g fill="none" stroke="#3f85e5" stroke-miterlimit="10" stroke-width="1"><circle cx="6.034" cy="6.034" r="6.034" stroke="none"/><circle cx="6.034" cy="6.034" r="5.534" fill="none"/></g><circle cx="2.754" cy="2.754" r="2.754" transform="translate(3.28 3.225)" fill="#3f85e5"/></g><g transform="translate(0)"><text transform="translate(8 6)" fill="#6a737f" font-size="6" font-family="OpenSans-SemiBold, Open Sans" font-weight="600"><tspan x="-7.516" y="0">TRUE</tspan></text></g><g transform="translate(26.38)"><text transform="translate(0 7)" fill="#6a737f" font-size="7" font-family="OpenSans-SemiBold, Open Sans" font-weight="600"><tspan x="0" y="0">FALSE</tspan></text></g><g transform="translate(31.536 18.68)"><g fill="#f8f8f8" stroke="#b9b9b9" stroke-miterlimit="10" stroke-width="1"><circle cx="6.034" cy="6.034" r="6.034" stroke="none"/><circle cx="6.034" cy="6.034" r="5.534" fill="none"/></g></g></g></g><g transform="translate(144.096 71.894)"><g fill="none" stroke="#3f85e5" stroke-miterlimit="10" stroke-width="1"><circle cx="6.034" cy="6.034" r="6.034" stroke="none"/><circle cx="6.034" cy="6.034" r="5.534" fill="none"/></g><circle cx="2.754" cy="2.754" r="2.754" transform="translate(3.28 3.225)" fill="#3f85e5"/></g><g transform="translate(173.123 71.897)"><g fill="#f8f8f8" stroke="#b9b9b9" stroke-miterlimit="10" stroke-width="1"><circle cx="6.034" cy="6.034" r="6.034" stroke="none"/><circle cx="6.034" cy="6.034" r="5.534" fill="none"/></g></g></g></g></g></svg>