<svg xmlns="http://www.w3.org/2000/svg" width="247.207" height="145.945" viewBox="0 0 247.207 145.945"><g transform="translate(0.615)"><rect width="247.207" height="145.945" rx="5" transform="translate(-0.615)" fill="#fff"/><text transform="translate(17.385 24.371)" fill="#212e3a" font-size="12" font-family="OpenSans-Semibold, Open Sans" font-weight="600"><tspan x="0" y="0">Which cities are located in Ireland?</tspan></text><g transform="translate(19.879 42.24)"><g transform="translate(0 0)"><text transform="translate(41.659 17.258)" fill="#212e3a" font-size="12" font-family="OpenSans-Semibold, Open Sans" font-weight="600"><tspan x="0" y="0">Dublin</tspan></text><g transform="translate(0 0)"><rect width="26" height="25" rx="6" transform="translate(-0.495 0.131)" fill="#3f85e5"/><text transform="translate(8.248 17.131)" fill="#fff" font-size="12" font-family="OpenSans-Bold, Open Sans" font-weight="700"><tspan x="0" y="0">A</tspan></text></g></g><g transform="translate(0 32.524)"><text transform="translate(41.659 17.182)" fill="#212e3a" font-size="12" font-family="OpenSans-Semibold, Open Sans" font-weight="600"><tspan x="0" y="0">Austin</tspan></text><g transform="translate(0 0)"><g transform="translate(-0.495 -0.393)" fill="none" stroke="#2f4151" stroke-width="1"><rect width="26" height="26" rx="6" stroke="none"/><rect x="0.5" y="0.5" width="25" height="25" rx="5.5" fill="none"/></g><text transform="translate(8.505 17.607)" fill="#212e3a" font-size="12" font-family="OpenSans-Bold, Open Sans" font-weight="700"><tspan x="0" y="0">B</tspan></text></g></g><g transform="translate(0 64.062)"><text transform="translate(41.659 17.945)" fill="#212e3a" font-size="12" font-family="OpenSans-Semibold, Open Sans" font-weight="600"><tspan x="0" y="0">Waterford</tspan></text><g transform="translate(0 0)"><rect width="26" height="26" rx="6" transform="translate(-0.495 0.069)" fill="#3f85e5"/><text transform="translate(8.248 18.069)" fill="#fff" font-size="12" font-family="OpenSans-Bold, Open Sans" font-weight="700"><tspan x="0" y="0">C</tspan></text></g></g></g></g></svg>