<?xml version="1.0" encoding="UTF-8"?>
<svg width="292px" height="173px" viewBox="0 0 292 173" version="1.1" xmlns="http://www.w3.org/2000/svg" xmlns:xlink="http://www.w3.org/1999/xlink">
	<!-- Generator: Sketch 55.1 (78136) - https://sketchapp.com -->
	<title>standard</title>
	<desc>Created with Sketch.</desc>
	<g id="Page-1" stroke="none" stroke-width="1" fill="none" fill-rule="evenodd">
		<g id="standard" transform="translate(1.000000, 1.000000)" fill-rule="nonzero">
			<path d="M5,0 L284.512,0 C287.273424,0 289.512,2.23857625 289.512,5 L289.512,165.921 C289.512,168.682424 287.273424,170.921 284.512,170.921 L5,170.921 C2.23857625,170.921 0,168.682424 0,165.921 L0,5 C0,2.23857625 2.23857625,0 5,0 Z" id="Path" stroke="#DBDBDB" fill="#FFFFFF"></path>
			<path d="M30.1,31 L28.948,31 L26.932,24.308 C26.836,24.012 26.729,23.6383333 26.611,23.187 C26.532101,22.9202115 26.4703088,22.6486596 26.426,22.374 C26.3095646,23.0424012 26.1495567,23.7024754 25.947,24.35 L23.992,31 L22.844,31 L20.185,21.006 L21.415,21.006 L22.994,27.179 C23.1945353,27.953782 23.3544203,28.7385201 23.473,29.53 C23.5947889,28.7019693 23.7776204,27.884074 24.02,27.083 L25.811,21.006 L27.041,21.006 L28.921,27.138 C29.1580338,27.9222919 29.3431018,28.7213581 29.475,29.53 C29.5923701,28.7326811 29.7566552,27.9429771 29.967,27.165 L31.539,21.006 L32.769,21.006 L30.1,31 Z M39.554,31 L39.554,26.153 C39.5925065,25.6610354 39.4435434,25.172708 39.137,24.786 C38.7851437,24.4575592 38.3105497,24.293668 37.831,24.335 C37.1881235,24.2779637 36.5538637,24.5142494 36.105,24.978 C35.6881146,25.5967045 35.4964176,26.3398394 35.562,27.083 L35.562,31 L34.424,31 L34.424,20.363 L35.559,20.363 L35.559,23.583 C35.5628294,23.9052152 35.5444525,24.2273113 35.504,24.547 L35.572,24.547 C35.8037781,24.1793767 36.1343967,23.8844538 36.526,23.696 C36.9655744,23.4824884 37.4493994,23.3759235 37.938,23.385 C38.6839339,23.3276648 39.4230497,23.56173 40,24.038 C40.5059535,24.6049831 40.7546395,25.3561092 40.687,26.113 L40.687,31 L39.554,31 Z M44.415,31 L43.277,31 L43.277,23.508 L44.412,23.508 L44.415,31 Z M43.185,21.478 C43.1666129,21.2694017 43.2358042,21.0625522 43.376,20.907 C43.5053452,20.7855312 43.677648,20.720423 43.855,20.726 C44.0305107,20.7233576 44.2000291,20.7898002 44.327,20.911 C44.4709023,21.0631804 44.543577,21.2692132 44.527,21.478 C44.5432155,21.6879399 44.4706685,21.8950615 44.327,22.049 C44.2009332,22.1719495 44.0310756,22.2396046 43.855,22.237 C43.6763724,22.242301 43.5033348,22.1743864 43.376,22.049 C43.2358233,21.89324 43.1653794,21.6869657 43.181,21.478 L43.185,21.478 Z M50.072,31.137 C49.1256597,31.1932539 48.203087,30.8270083 47.553,30.137 C46.9126564,29.3354604 46.594562,28.3237635 46.661,27.3 C46.5950705,26.2546863 46.9177344,25.2218769 47.567,24.4 C48.2315902,23.6907689 49.1779054,23.3149561 50.148,23.375 C50.5110944,23.3752697 50.8731304,23.414155 51.228,23.491 C51.5209877,23.5461135 51.805887,23.6378322 52.076,23.764 L51.727,24.728 C51.4608139,24.6228096 51.1865958,24.5392065 50.907,24.478 C50.6493864,24.416345 50.3858451,24.3828156 50.121,24.378 C48.599,24.378 47.838,25.3486667 47.838,27.29 C47.7898055,28.0379655 47.9852286,28.7814153 48.395,29.409 C48.7897856,29.9124309 49.407589,30.1885902 50.046,30.147 C50.7063328,30.1405998 51.358994,30.0046995 51.967,29.747 L51.967,30.747 C51.3755635,31.026531 50.7257533,31.160265 50.072,31.137 L50.072,31.137 Z M59.13,31 L59.13,26.153 C59.1685065,25.6610354 59.0195434,25.172708 58.713,24.786 C58.3611437,24.4575592 57.8865497,24.293668 57.407,24.335 C56.7641235,24.2779637 56.1298637,24.5142494 55.681,24.978 C55.2641146,25.5967045 55.0724176,26.3398394 55.138,27.083 L55.138,31 L54,31 L54,20.363 L55.135,20.363 L55.135,23.583 C55.1388262,23.9052151 55.1204494,24.227311 55.08,24.547 L55.148,24.547 C55.3798116,24.1811357 55.7096521,23.8876747 56.1,23.7 C56.5395744,23.4864884 57.0233994,23.3799235 57.512,23.389 C58.2575976,23.3319287 58.9963057,23.5659784 59.573,24.042 C60.0789535,24.6089831 60.3276395,25.3601092 60.26,26.117 L60.26,31 L59.13,31 Z M69.747,31.137 C68.8006597,31.1932539 67.878087,30.8270083 67.228,30.137 C66.5872987,29.3356041 66.2688432,28.323893 66.335,27.3 C66.2690705,26.2546863 66.5917344,25.2218769 67.241,24.4 C67.9055902,23.6907689 68.8519054,23.3149561 69.822,23.375 C70.1850944,23.3752697 70.5471304,23.414155 70.902,23.491 C71.1949877,23.5461135 71.479887,23.6378322 71.75,23.764 L71.401,24.728 C71.1348139,24.6228096 70.8605958,24.5392065 70.581,24.478 C70.3233864,24.416345 70.0598451,24.3828156 69.795,24.378 C68.273,24.378 67.512,25.3486667 67.512,27.29 C67.4638055,28.0379655 67.6592286,28.7814153 68.069,29.409 C68.4637856,29.9124309 69.081589,30.1885902 69.72,30.147 C70.3803328,30.1405998 71.032994,30.0046995 71.641,29.747 L71.641,30.747 C71.0498664,31.0263742 70.400418,31.1601043 69.747,31.137 L69.747,31.137 Z M74.812,31 L73.677,31 L73.677,23.508 L74.812,23.508 L74.812,31 Z M73.582,21.478 C73.5636129,21.2694017 73.6328042,21.0625522 73.773,20.907 C73.9023452,20.7855312 74.074648,20.720423 74.252,20.726 C74.4275107,20.7233576 74.5970291,20.7898002 74.724,20.911 C74.8679023,21.0631804 74.940577,21.2692132 74.924,21.478 C74.9402155,21.6879399 74.8676685,21.8950615 74.724,22.049 C74.5979332,22.1719495 74.4280756,22.2396046 74.252,22.237 C74.0733724,22.242301 73.9003348,22.1743864 73.773,22.049 C73.6342683,21.8925974 73.5652939,21.6863966 73.582,21.478 L73.582,21.478 Z M79.9,30.2 C80.0945211,30.2005998 80.2887877,30.1858877 80.481,30.156 C80.6307156,30.1342909 80.778985,30.1035684 80.925,30.064 L80.925,30.932 C80.7515162,31.0054335 80.5688362,31.0548883 80.382,31.079 C80.1685465,31.1154414 79.9525311,31.134836 79.736,31.137 C78.2866667,31.137 77.562,30.3736667 77.562,28.847 L77.562,24.39 L76.487,24.39 L76.487,23.843 L77.56,23.371 L78.039,21.771 L78.7,21.771 L78.7,23.507 L80.874,23.507 L80.874,24.389 L78.7,24.389 L78.7,28.8 C78.6749238,29.1741018 78.7892773,29.5442365 79.021,29.839 C79.2457386,30.0840591 79.5678954,30.2163669 79.9,30.2 Z M81.493,23.508 L82.71,23.508 L84.349,27.78 C84.6201222,28.4679373 84.8439757,29.173577 85.019,29.892 L85.074,29.892 C85.1333333,29.6593333 85.2576667,29.2616667 85.447,28.699 C85.6363333,28.1363333 86.254,26.406 87.3,23.508 L88.517,23.508 L85.3,32.039 C85.0841324,32.7215041 84.6996056,33.3385355 84.182,33.833 C83.7394429,34.192037 83.1826236,34.3801276 82.613,34.363 C82.268048,34.3631843 81.9241865,34.3242693 81.588,34.247 L81.588,33.338 C81.8646007,33.3952875 82.1465428,33.4227777 82.429,33.42 C83.2204819,33.4152761 83.9081916,32.8749033 84.1,32.107 L84.513,31.041 L81.493,23.508 Z M95.027,31 L93.892,31 L93.892,23.508 L95.027,23.508 L95.027,31 Z M93.8,21.478 C93.7816129,21.2694017 93.8508042,21.0625522 93.991,20.907 C94.1203452,20.7855312 94.292648,20.720423 94.47,20.726 C94.6455107,20.7233576 94.8150291,20.7898002 94.942,20.911 C95.0859023,21.0631804 95.158577,21.2692132 95.142,21.478 C95.1582155,21.6879399 95.0856685,21.8950615 94.942,22.049 C94.8159332,22.1719495 94.6460756,22.2396046 94.47,22.237 C94.2913724,22.242301 94.1183348,22.1743864 93.991,22.049 C93.8522683,21.8925974 93.7832939,21.6863966 93.8,21.478 Z M102.53,28.957 C102.560183,29.5918815 102.267019,30.1989071 101.751,30.57 C101.099953,30.984715 100.334533,31.1831573 99.564,31.137 C98.7619093,31.178378 97.9623997,31.0159991 97.24,30.665 L97.24,29.612 C97.6093072,29.7978529 97.9979919,29.9423939 98.399,30.043 C98.7869655,30.1443533 99.1860246,30.1970909 99.587,30.2 C100.059668,30.226587 100.531036,30.1286582 100.954,29.916 C101.265012,29.7420606 101.450603,29.4069119 101.433,29.051 C101.431507,28.7556188 101.291109,28.4781577 101.054,28.302 C100.597136,27.9895562 100.099029,27.7421855 99.574,27.567 C99.0564741,27.3915526 98.5582218,27.1637036 98.087,26.887 C97.8202015,26.7207339 97.5956412,26.4948043 97.431,26.227 C97.281639,25.9575596 97.2073858,25.652949 97.216,25.345 C97.1991966,24.7674824 97.480155,24.2218038 97.96,23.9 C98.5687669,23.5165641 99.2816152,23.3317127 100,23.371 C100.813594,23.3724101 101.618344,23.5398252 102.365,23.863 L101.965,24.786 C101.320345,24.4996858 100.626072,24.3417422 99.921,24.321 C99.4999854,24.2946714 99.0796384,24.3820566 98.704,24.574 C98.4475281,24.7126586 98.2894896,24.9824804 98.294,25.274 C98.2886354,25.4571372 98.3426582,25.6370962 98.448,25.787 C98.5843301,25.9543676 98.7547884,26.0907342 98.948,26.187 C99.3733205,26.3996605 99.8118947,26.5847101 100.261,26.741 C100.923205,26.9365377 101.536608,27.26982 102.061,27.719 C102.374155,28.0531998 102.541461,28.4982702 102.526,28.956 L102.53,28.957 Z M109.663,31 L108.529,31 L108.529,20.363 L109.664,20.363 L109.663,31 Z M118.8,27.247 C118.862369,28.2827168 118.532887,29.3040031 117.877,30.108 C117.220434,30.8122329 116.28541,31.1890994 115.324,31.137 C114.697045,31.148349 114.079312,30.9849129 113.54,30.665 C113.014774,30.3424201 112.597133,29.8711808 112.34,29.311 C112.044843,28.6637722 111.899894,27.9581695 111.916,27.247 C111.852863,26.2144881 112.179777,25.1959148 112.832,24.393 C113.486757,23.6929385 114.417889,23.3187282 115.375,23.371 C116.322908,23.3277957 117.240295,23.7116307 117.875,24.417 C118.525754,25.2118125 118.855703,26.2212785 118.8,27.247 Z M113.092,27.247 C113.040078,28.0193693 113.241612,28.7875859 113.666,29.435 C114.071437,29.9471375 114.702099,30.2280957 115.354,30.187 C116.006343,30.2278993 116.637707,29.9484127 117.046,29.438 C117.473657,28.790783 117.676744,28.0209498 117.624,27.247 C117.676349,26.4796759 117.473101,25.7166182 117.046,25.077 C116.630804,24.5683125 115.995203,24.2918671 115.34,24.335 C114.69407,24.2920951 114.067322,24.5644809 113.658,25.066 C113.234053,25.7108592 113.033778,26.4771724 113.088,27.247 L113.092,27.247 Z M124.04,31.137 C123.09366,31.1932539 122.171087,30.8270083 121.521,30.137 C120.881612,29.3365037 120.563574,28.3264145 120.629,27.304 C120.561816,26.2570003 120.88455,25.222187 121.535,24.399 C122.19959,23.6897689 123.145905,23.3139561 124.116,23.374 C124.479094,23.3742697 124.84113,23.413155 125.196,23.49 C125.488988,23.5451135 125.773887,23.6368322 126.044,23.763 L125.695,24.727 C125.428814,24.6218096 125.154596,24.5382065 124.875,24.477 C124.617386,24.415345 124.353845,24.3818156 124.089,24.377 C122.567,24.377 121.806,25.3476667 121.806,27.289 C121.757733,28.0369725 121.953162,28.7804449 122.363,29.408 C122.757786,29.9114309 123.375589,30.1875902 124.014,30.146 C124.674333,30.1395998 125.326994,30.0036995 125.935,29.746 L125.935,30.746 C125.343649,31.0258754 124.693835,31.1599531 124.04,31.137 L124.04,31.137 Z M132.578,31 L132.352,29.934 L132.3,29.934 C132.007686,30.3356284 131.624613,30.662508 131.182,30.888 C130.740904,31.0676432 130.267044,31.1528086 129.791,31.138 C129.156891,31.175561 128.532262,30.970331 128.044,30.564 C127.604657,30.1378709 127.373743,29.5408554 127.412,28.93 C127.412,27.4166667 128.622,26.6236667 131.042,26.551 L132.313,26.51 L132.313,26.045 C132.350612,25.5798264 132.215704,25.1170809 131.934,24.745 C131.608668,24.4374251 131.166869,24.2844526 130.721,24.325 C129.979816,24.3551227 129.254911,24.5516434 128.6,24.9 L128.251,24.032 C128.634541,23.8257209 129.041908,23.6672068 129.464,23.56 C129.895945,23.4470293 130.340526,23.3895664 130.787,23.389 C131.50018,23.3313742 132.208988,23.5437313 132.773,23.984 C133.248074,24.4998575 133.482748,25.1926156 133.419,25.891 L133.419,31 L132.578,31 Z M130.015,30.2 C130.62515,30.235241 131.224236,30.0261903 131.68,29.619 C132.099542,29.1849492 132.31728,28.5945165 132.28,27.992 L132.28,27.315 L131.145,27.363 C130.469768,27.3411594 129.799495,27.4853779 129.193,27.783 C128.794273,28.028849 128.563566,28.4744971 128.593,28.942 C128.569284,29.2946618 128.706405,29.6391183 128.966,29.879 C129.264672,30.1106323 129.63785,30.2248271 130.015,30.2 Z M138.437,30.2 C138.631521,30.2005998 138.825788,30.1858877 139.018,30.156 C139.167716,30.1342909 139.315985,30.1035684 139.462,30.064 L139.462,30.932 C139.288516,31.0054335 139.105836,31.0548883 138.919,31.079 C138.705546,31.1154414 138.489531,31.134836 138.273,31.137 C136.823667,31.137 136.099,30.3736667 136.099,28.847 L136.099,24.39 L135.026,24.39 L135.026,23.843 L136.099,23.371 L136.578,21.771 L137.234,21.771 L137.234,23.507 L139.408,23.507 L139.408,24.389 L137.234,24.389 L137.234,28.8 C137.208924,29.1741018 137.323277,29.5442365 137.555,29.839 C137.780421,30.0848899 138.103866,30.2172752 138.437,30.2 L138.437,30.2 Z M144.385,31.137 C143.406818,31.188115 142.45319,30.8200481 141.763,30.125 C141.0866,29.3506327 140.741795,28.3413602 140.803,27.315 C140.747452,26.2799701 141.06383,25.2591903 141.695,24.437 C142.285255,23.7271933 143.172619,23.3330556 144.095,23.371 C144.939102,23.3307422 145.756899,23.6704818 146.324,24.297 C146.893919,24.980138 147.186564,25.8523644 147.144,26.741 L147.144,27.459 L141.983,27.459 C141.953269,28.1848023 142.190565,28.8963345 142.65,29.459 C143.117021,29.9335167 143.766409,30.1829169 144.431,30.143 C145.254843,30.1394381 146.069232,29.9672353 146.824,29.637 L146.824,30.651 C146.458043,30.8129422 146.076814,30.9378968 145.686,31.024 C145.256993,31.105996 144.820719,31.14386 144.384,31.137 L144.385,31.137 Z M144.077,24.322 C143.534334,24.2976007 143.008292,24.5125504 142.638,24.91 C142.253668,25.3677933 142.031471,25.9398089 142.006,26.537 L145.923,26.537 C145.961838,25.9496997 145.792215,25.3675278 145.444,24.893 C145.101216,24.5013222 144.596578,24.2901642 144.077,24.321 L144.077,24.322 Z M154.433,30 L154.371,30 C153.839322,30.7631546 152.948349,31.1940503 152.02,31.137 C151.142519,31.1835557 150.294624,30.8128102 149.733,30.137 C149.139338,29.3073827 148.850707,28.2980549 148.916,27.28 C148.853007,26.2552122 149.142348,25.2396962 149.736,24.402 C150.289477,23.7151353 151.137928,23.3342056 152.019,23.377 C152.93501,23.3288165 153.81376,23.7448887 154.357,24.484 L154.446,24.484 L154.398,23.944 L154.371,23.418 L154.371,20.369 L155.506,20.369 L155.506,31 L154.583,31 L154.433,30 Z M152.163,30.191 C152.791732,30.2488772 153.412414,30.0160754 153.848,29.559 C154.247729,28.95721 154.432059,28.2378654 154.371,27.518 L154.371,27.279 C154.441512,26.4824073 154.256205,25.6840807 153.842,25 C153.418988,24.5160891 152.790238,24.2633999 152.15,24.32 C151.539633,24.2919159 150.959399,24.5865901 150.622,25.096 C150.231152,25.7572841 150.046606,26.5201894 150.092,27.287 C150.040313,28.0462379 150.223991,28.8029468 150.618,29.454 C150.974786,29.9457811 151.557438,30.222032 152.164,30.187 L152.163,30.191 Z M163.2,31 L162.07,31 L162.07,23.508 L163.2,23.508 L163.2,31 Z M161.97,21.478 C161.951613,21.2694017 162.020804,21.0625522 162.161,20.907 C162.290345,20.7855312 162.462648,20.720423 162.64,20.726 C162.815511,20.7233576 162.985029,20.7898002 163.112,20.911 C163.255902,21.0631804 163.328577,21.2692132 163.312,21.478 C163.328215,21.6879399 163.255668,21.8950615 163.112,22.049 C162.985933,22.1719495 162.816076,22.2396046 162.64,22.237 C162.461372,22.242301 162.288335,22.1743864 162.161,22.049 C162.023711,21.8919593 161.956204,21.6858304 161.974,21.478 L161.97,21.478 Z M171,31 L171,26.153 C171.038506,25.6610354 170.889543,25.172708 170.583,24.786 C170.231144,24.4575592 169.75655,24.293668 169.277,24.335 C168.636515,24.2791091 168.004566,24.5123764 167.554,24.971 C167.133409,25.5862736 166.940018,26.3287251 167.007,27.071 L167.007,31 L165.872,31 L165.872,23.508 L166.795,23.508 L166.98,24.533 L167.035,24.533 C167.272366,24.1594651 167.611747,23.861726 168.013,23.675 C168.450749,23.4697426 168.929582,23.3671356 169.413,23.375 C170.15108,23.3195024 170.881747,23.5537318 171.45,24.028 C171.955248,24.6004305 172.202624,25.3555771 172.134,26.116 L172.134,31 L171,31 Z M178.793,31 L178.793,21.006 L179.955,21.006 L179.955,31 L178.793,31 Z M186.203,23.371 C186.505008,23.3676514 186.80657,23.395127 187.103,23.453 L186.946,24.506 C186.677024,24.4434684 186.402121,24.4099437 186.126,24.406 C185.522908,24.4049651 184.951551,24.6761301 184.571,25.144 C184.133512,25.6547855 183.903059,26.310827 183.925,26.983 L183.925,31 L182.79,31 L182.79,23.508 L183.727,23.508 L183.857,24.896 L183.912,24.896 C184.153661,24.4477572 184.495956,24.0616477 184.912,23.768 C185.291018,23.507862 185.7403,23.3693798 186.2,23.371 L186.203,23.371 Z M191.923,31.137 C190.944476,31.1884042 189.990426,30.8203149 189.3,30.125 C188.6236,29.3506327 188.278795,28.3413602 188.34,27.315 C188.284452,26.2799701 188.60083,25.2591903 189.232,24.437 C189.822255,23.7271933 190.709619,23.3330556 191.632,23.371 C192.476102,23.3307422 193.293899,23.6704818 193.861,24.297 C194.430919,24.980138 194.723564,25.8523644 194.681,26.741 L194.681,27.459 L189.52,27.459 C189.490269,28.1848023 189.727565,28.8963345 190.187,29.459 C190.654021,29.9335167 191.303409,30.1829169 191.968,30.143 C192.791843,30.1394381 193.606232,29.9672353 194.361,29.637 L194.361,30.651 C193.995043,30.8129422 193.613814,30.9378968 193.223,31.024 C192.794648,31.10586 192.359052,31.1437235 191.923,31.137 Z M191.615,24.322 C191.072334,24.2976007 190.546292,24.5125504 190.176,24.91 C189.791668,25.3677933 189.569471,25.9398089 189.544,26.537 L193.461,26.537 C193.499838,25.9496997 193.330215,25.3675278 192.982,24.893 C192.639437,24.5016089 192.135235,24.2904792 191.616,24.321 L191.615,24.322 Z M198.008,31 L196.873,31 L196.873,20.363 L198.008,20.363 L198.008,31 Z M205.282,31 L205.056,29.934 L205,29.934 C204.707686,30.3356284 204.324613,30.662508 203.882,30.888 C203.440904,31.0676432 202.967044,31.1528086 202.491,31.138 C201.856891,31.175561 201.232262,30.970331 200.744,30.564 C200.304657,30.1378709 200.073743,29.5408554 200.112,28.93 C200.112,27.4166667 201.322,26.6236667 203.742,26.551 L205.013,26.51 L205.013,26.045 C205.050612,25.5798264 204.915704,25.1170809 204.634,24.745 C204.308668,24.4374251 203.866869,24.2844526 203.421,24.325 C202.679816,24.3551227 201.954911,24.5516434 201.3,24.9 L200.951,24.032 C201.334545,23.82573 201.741912,23.6672164 202.164,23.56 C202.595945,23.4470293 203.040526,23.3895664 203.487,23.389 C204.20018,23.3313742 204.908988,23.5437313 205.473,23.984 C205.948074,24.4998575 206.182748,25.1926156 206.119,25.891 L206.119,31 L205.282,31 Z M202.719,30.2 C203.32915,30.235241 203.928236,30.0261903 204.384,29.619 C204.803542,29.1849492 205.02128,28.5945165 204.984,27.992 L204.984,27.315 L203.849,27.363 C203.173768,27.3411594 202.503495,27.4853779 201.897,27.783 C201.498273,28.028849 201.267566,28.4744971 201.297,28.942 C201.273284,29.2946618 201.410405,29.6391183 201.67,29.879 C201.968408,30.1103973 202.341187,30.2245788 202.718,30.2 L202.719,30.2 Z M213.848,31 L213.848,26.153 C213.886506,25.6610354 213.737543,25.172708 213.431,24.786 C213.079144,24.4575592 212.60455,24.293668 212.125,24.335 C211.484515,24.2791091 210.852566,24.5123764 210.402,24.971 C209.981409,25.5862736 209.788018,26.3287251 209.855,27.071 L209.855,31 L208.72,31 L208.72,23.508 L209.643,23.508 L209.828,24.533 L209.883,24.533 C210.120366,24.1594651 210.459747,23.861726 210.861,23.675 C211.298749,23.4697426 211.777582,23.3671356 212.261,23.375 C212.99908,23.3195024 213.729747,23.5537318 214.298,24.028 C214.803248,24.6004305 215.050624,25.3555771 214.982,26.116 L214.982,31 L213.848,31 Z M222.673,30 L222.611,30 C222.079132,30.7634707 221.187696,31.1944075 220.259,31.137 C219.381519,31.1835557 218.533624,30.8128102 217.972,30.137 C217.378338,29.3073827 217.089707,28.2980549 217.155,27.28 C217.092007,26.2552122 217.381348,25.2396962 217.975,24.402 C218.528477,23.7151353 219.376928,23.3342056 220.258,23.377 C221.174472,23.3262952 222.054856,23.7405492 222.6,24.479 L222.689,24.479 L222.641,23.939 L222.614,23.413 L222.614,20.364 L223.749,20.364 L223.749,31 L222.826,31 L222.673,30 Z M220.403,30.191 C221.031732,30.2488772 221.652414,30.0160754 222.088,29.559 C222.487729,28.95721 222.672059,28.2378654 222.611,27.518 L222.611,27.279 C222.681212,26.4822992 222.495553,25.6839646 222.081,25 C221.657988,24.5160891 221.029238,24.2633999 220.389,24.32 C219.778633,24.2919159 219.198399,24.5865901 218.861,25.096 C218.470152,25.7572841 218.285606,26.5201894 218.331,27.287 C218.279313,28.0462379 218.462991,28.8029468 218.857,29.454 C219.213198,29.9448531 219.794477,30.2209888 220.4,30.187 L220.403,30.191 Z M227.184,28.25 L227.184,27.881 C227.167923,27.4295578 227.251931,26.9801505 227.43,26.565 C227.657991,26.1431276 227.969685,25.7722254 228.346,25.475 C228.788225,25.1353202 229.182466,24.7373786 229.518,24.292 C229.686619,24.001886 229.770786,23.6704142 229.761,23.335 C229.785003,22.9262475 229.619818,22.5291407 229.313,22.258 C228.942152,21.9822453 228.485084,21.8478552 228.024,21.879 C227.66973,21.8766294 227.316481,21.9172597 226.972,22 C226.564155,22.1096947 226.169741,22.2643074 225.796,22.461 L225.396,21.538 C226.226881,21.0943751 227.154106,20.861882 228.096,20.861 C228.829038,20.8158006 229.552664,21.0450084 230.126,21.504 C230.625359,21.969957 230.891126,22.6341896 230.851,23.316 C230.856425,23.6140681 230.811459,23.910911 230.718,24.194 C230.626057,24.4527282 230.493387,24.6951135 230.325,24.912 C229.980768,25.3051868 229.604475,25.6691044 229.2,26 C228.845561,26.2753373 228.53735,26.6054916 228.287,26.978 C228.124865,27.2994738 228.048402,27.657337 228.065,28.017 L228.065,28.243 L227.184,28.25 Z M226.849,30.28 C226.849,29.66 227.122333,29.35 227.669,29.35 C227.898217,29.3358114 228.122062,29.4232277 228.281,29.589 C228.43618,29.7841542 228.512859,30.0302396 228.496,30.279 C228.51116,30.5251479 228.43296,30.7679628 228.277,30.959 C228.11989,31.1245953 227.897911,31.2127285 227.67,31.2 C227.453466,31.2077304 227.242476,31.1305826 227.082,30.985 C226.90816,30.7915051 226.823614,30.5338748 226.849,30.275 L226.849,30.28 Z" id="Shape" fill="#6A737F"></path>
			<path d="M77.241,60.343 C76.4469566,60.3074335 75.6833169,60.6515725 75.184,61.27 C74.6463313,62.0105409 74.3816719,62.9144112 74.435,63.828 C74.3696672,64.7462957 74.6240556,65.658914 75.155,66.411 C75.6749633,67.0127194 76.446307,67.3367947 77.24,67.287 C77.6240476,67.288167 78.0071535,67.2489514 78.383,67.17 C78.751,67.092 79.134,66.992 79.532,66.87 L79.532,68.17 C78.7387368,68.4560028 77.9001365,68.5956001 77.057,68.582 C75.8822254,68.656228 74.7353903,68.2035782 73.928,67.347 C73.1406852,66.3447244 72.7517501,65.0867401 72.836,63.815 C72.8170392,62.9410693 72.9990513,62.074459 73.368,61.282 C73.6969234,60.5845904 74.2311094,60.0043478 74.899,59.619 C75.6188348,59.2208548 76.4316276,59.0213668 77.254,59.041 C78.1647873,59.0334734 79.0647259,59.2389389 79.882,59.641 L79.336,60.901 C79.0138718,60.7494548 78.6821615,60.6191759 78.343,60.511 C77.9866958,60.3977869 77.6148533,60.3410995 77.241,60.343 Z M85.768,68.455 L85.468,67.477 L85.417,67.477 C85.1506608,67.8464619 84.8003826,68.1473859 84.395,68.355 C83.9760435,68.5237147 83.526377,68.602747 83.075,68.587 C82.4828193,68.6209893 81.9014315,68.4180792 81.459,68.023 C81.0521455,67.6008239 80.8413324,67.0271655 80.878,66.442 C80.8415947,65.7926277 81.1477568,65.1715779 81.685,64.805 C82.4327943,64.3817326 83.2832839,64.1740428 84.142,64.205 L85.354,64.167 L85.354,63.792 C85.382354,63.4287918 85.2699258,63.068592 85.04,62.786 C84.7763288,62.5449581 84.4239803,62.4249711 84.068,62.455 C83.7168216,62.4537325 83.3676044,62.5073803 83.033,62.614 C82.7078089,62.7180508 82.3897929,62.8433197 82.081,62.989 L81.596,61.917 C81.9914823,61.7127087 82.4115945,61.5601239 82.846,61.463 C83.2661268,61.3630648 83.6961671,61.3107353 84.128,61.307 C84.8500637,61.2544372 85.567153,61.461549 86.15,61.891 C86.6407021,62.3692294 86.8910124,63.0423511 86.832,63.725 L86.832,68.455 L85.768,68.455 Z M83.545,67.439 C84.0206389,67.4607903 84.4863343,67.2981551 84.845,66.985 C85.1855905,66.6519245 85.3650636,66.1875561 85.337,65.712 L85.337,65.103 L84.437,65.141 C83.9041652,65.1238614 83.3759869,65.2451392 82.904,65.493 C82.583965,65.7049018 82.4019476,66.0719894 82.427,66.455 C82.4102663,66.726312 82.5120528,66.9915407 82.706,67.182 C82.943194,67.3705121 83.2429175,67.4623225 83.545,67.439 Z M90.406,68.455 L88.915,68.455 L88.915,58.578 L90.407,58.578 L90.406,68.455 Z M94.031,68.455 L92.539,68.455 L92.539,61.434 L94.031,61.434 L94.031,68.455 Z M92.45,59.575 C92.433782,59.3470764 92.5127047,59.1226173 92.668,58.955 C92.8388148,58.8018907 93.064098,58.7240328 93.293,58.739 C93.5181192,58.7252578 93.7392236,58.8031674 93.906,58.955 C94.0606112,59.1214761 94.1398246,59.3442862 94.125,59.571 C94.1371457,59.7925366 94.0579992,60.0093763 93.906,60.171 C93.7401341,60.3246269 93.5186628,60.4037496 93.293,60.39 C93.0635628,60.4049638 92.8379177,60.3258978 92.668,60.171 C92.5173935,60.0101924 92.4386935,59.7950308 92.45,59.575 Z M99.686,62.565 L97.968,62.565 L97.968,68.455 L96.468,68.455 L96.468,62.564 L95.319,62.564 L95.319,61.864 L96.474,61.407 L96.474,60.955 C96.4193776,60.2875394 96.6291017,59.6253282 97.058,59.111 C97.5454459,58.6751965 98.1902685,58.4583279 98.842,58.511 C99.3691684,58.5112931 99.8926265,58.5991556 100.391,58.771 L99.997,59.901 C99.6570916,59.7870941 99.3014634,59.7270355 98.943,59.723 C98.6595276,59.6984927 98.3823438,59.8161086 98.203,60.037 C98.0287787,60.3192635 97.9476254,60.6491233 97.971,60.98 L97.971,61.437 L99.685,61.437 L99.686,62.565 Z M107.106,64.933 C107.16483,65.9076853 106.849354,66.8680634 106.224,67.618 C105.584986,68.2819663 104.688046,68.6340227 103.768,68.582 C103.158832,68.5941182 102.557798,68.4406627 102.029,68.138 C101.522836,67.8386706 101.118334,67.3941026 100.868,66.862 C100.586518,66.2582921 100.447606,65.5979492 100.462,64.932 C100.403767,63.9641946 100.717085,63.0106496 101.338,62.266 C101.98225,61.6023973 102.883768,61.2525978 103.807,61.308 C104.716181,61.2641565 105.598517,61.6230169 106.219,62.289 C106.84026,63.0250602 107.157791,63.9701427 107.107,64.932 L107.106,64.933 Z M101.996,64.933 C101.996,66.5536667 102.596,67.364 103.796,67.364 C104.980667,67.364 105.573,66.5536667 105.573,64.933 C105.573,63.329 104.976333,62.527 103.783,62.527 C103.251494,62.4820446 102.73509,62.7178766 102.421,63.149 C102.106973,63.6885336 101.959458,64.3088627 101.997,64.932 L101.996,64.933 Z M112.382,61.308 C112.631182,61.3031596 112.880191,61.3242734 113.125,61.371 L112.979,62.761 C112.762765,62.7097406 112.541227,62.6842302 112.319,62.685 C111.774489,62.6639128 111.246897,62.876405 110.869,63.269 C110.490197,63.6810886 110.290564,64.226751 110.314,64.786 L110.314,68.455 L108.821,68.455 L108.821,61.434 L109.989,61.434 L110.189,62.672 L110.265,62.672 C110.481766,62.2687903 110.794683,61.925303 111.176,61.672 C111.533033,61.4338089 111.952807,61.3071111 112.382,61.308 Z M120.602,68.455 L119.102,68.455 L119.102,64.139 C119.134352,63.7095357 119.018977,63.2819102 118.775,62.927 C118.509423,62.6403982 118.126227,62.4927312 117.737,62.527 C117.212939,62.4820886 116.698865,62.6897238 116.353,63.086 C116.012933,63.6468882 115.860554,64.3015929 115.918,64.955 L115.918,68.455 L114.426,68.455 L114.426,61.434 L115.594,61.434 L115.803,62.354 L115.879,62.354 C116.097316,62.0139404 116.410092,61.7449531 116.779,61.58 C117.185183,61.3944024 117.627461,61.3011653 118.074,61.307 C118.776742,61.2130731 119.482704,61.4554178 119.979591,61.9611565 C120.476477,62.4668953 120.70632,63.1770262 120.6,63.878 L120.602,68.455 Z M124.168,68.455 L122.678,68.455 L122.678,61.434 L124.168,61.434 L124.168,68.455 Z M122.589,59.575 C122.57305,59.3469312 122.652342,59.1224525 122.808,58.955 C122.978815,58.8018907 123.204098,58.7240328 123.433,58.739 C123.658119,58.7252578 123.879224,58.8031674 124.046,58.955 C124.200611,59.1214761 124.279825,59.3442862 124.265,59.571 C124.277146,59.7925366 124.197999,60.0093763 124.046,60.171 C123.880134,60.3246269 123.658663,60.4037496 123.433,60.39 C123.203563,60.4049638 122.977918,60.3258978 122.808,60.171 C122.65703,60.0103554 122.577962,59.7951745 122.589,59.575 L122.589,59.575 Z M130.695,68.455 L130.395,67.477 L130.344,67.477 C130.078227,67.8462196 129.728656,68.1471245 129.324,68.355 C128.905044,68.5237147 128.455377,68.602747 128.004,68.587 C127.411819,68.6209893 126.830432,68.4180792 126.388,68.023 C125.981146,67.6008239 125.770332,67.0271655 125.807,66.442 C125.770016,65.7924738 126.07582,65.1710014 126.613,64.804 C127.360008,64.3803958 128.209767,64.172023 129.068,64.202 L130.28,64.164 L130.28,63.789 C130.308913,63.4260578 130.19721,63.0658882 129.968,62.783 C129.703346,62.5425104 129.350217,62.4235919 128.994,62.455 C128.642822,62.4537325 128.293604,62.5073803 127.959,62.614 C127.633809,62.7180508 127.315793,62.8433197 127.007,62.989 L126.525,61.923 C126.920482,61.7187087 127.340594,61.5661239 127.775,61.469 C128.195127,61.3690648 128.625167,61.3167353 129.057,61.313 C129.779064,61.2604372 130.496153,61.467549 131.079,61.897 C131.569702,62.3752294 131.820012,63.0483511 131.761,63.731 L131.761,68.455 L130.695,68.455 Z M128.473,67.439 C128.948639,67.4607903 129.414334,67.2981551 129.773,66.985 C130.114419,66.6526903 130.294991,66.1886768 130.268,65.713 L130.268,65.104 L129.368,65.142 C128.835165,65.1248614 128.306987,65.2461392 127.835,65.494 C127.514527,65.7052346 127.331746,66.0719401 127.356,66.455 C127.339266,66.726312 127.441053,66.9915407 127.635,67.182 C127.871934,67.3702692 128.171253,67.4620652 128.473,67.439 Z" id="Shape" fill="#6A737F"></path>
			<g id="Group" transform="translate(23.000000, 49.000000)">
				<path d="M15.1906738,29.8813438 C11.266654,29.8813438 7.57750368,28.3532448 4.80280399,25.5785446 C2.02810383,22.8038445 0.500003815,19.1146946 0.500003815,15.1906738 C0.500003815,11.266654 2.02810383,7.57750368 4.80280399,4.80280399 C7.57750368,2.02810383 11.266654,0.500003815 15.1906738,0.500003815 C19.1146946,0.500003815 22.8038445,2.02810383 25.5785446,4.80280399 C28.3532448,7.57750368 29.8813438,11.266654 29.8813438,15.1906738 C29.8813438,19.1146946 28.3532448,22.8038445 25.5785446,25.5785446 C22.8038445,28.3532448 19.1146946,29.8813438 15.1906738,29.8813438 Z" id="Path" fill="#FFFFFF"></path>
				<path d="M15.1906738,1.00000381 C11.4002037,1.00000381 7.83661461,2.47609329 5.156353,5.156353 C2.47609329,7.83661461 1.00000381,11.4002037 1.00000381,15.1906738 C1.00000381,18.981144 2.47609329,22.544735 5.156353,25.2249947 C7.83661461,27.9052544 11.4002037,29.3813438 15.1906738,29.3813438 C18.981144,29.3813438 22.544735,27.9052544 25.2249947,25.2249947 C27.9052544,22.544735 29.3813438,18.981144 29.3813438,15.1906738 C29.3813438,11.4002037 27.9052544,7.83661461 25.2249947,5.156353 C22.544735,2.47609329 18.981144,1.00000381 15.1906738,1.00000381 L15.1906738,1.00000381 Z M15.1906738,3.81469727e-06 C23.5802536,3.81469727e-06 30.3813438,6.80109406 30.3813438,15.1906738 C30.3813438,23.5802536 23.5802536,30.3813438 15.1906738,30.3813438 C6.80109406,30.3813438 3.81469727e-06,23.5802536 3.81469727e-06,15.1906738 C3.81469727e-06,6.80109406 6.80109406,3.81469727e-06 15.1906738,3.81469727e-06 Z" id="Shape" fill="#B7B7B7"></path>
			</g>
			<path d="M40.84,70.142 L40.066,67.593 L36.166,67.593 L35.386,70.142 L32.94,70.142 L36.719,59.39 L39.495,59.39 L43.289,70.142 L40.84,70.142 Z M39.524,65.689 C38.8066667,63.3796667 38.4026667,62.0733333 38.312,61.77 C38.2213333,61.4666667 38.1566667,61.2273333 38.118,61.052 C37.9566667,61.6773333 37.4953333,63.2226667 36.734,65.688 L39.524,65.689 Z" id="Shape" fill="#00AD50"></path>
			<path d="M79.05,106.455 L78.124,103.878 L74.575,103.878 L73.668,106.455 L72.068,106.455 L75.54,97.137 L77.19,97.137 L80.663,106.455 L79.05,106.455 Z M77.724,102.57 L76.854,100.044 C76.7873333,99.8746667 76.6996667,99.608 76.591,99.244 C76.4823333,98.88 76.405,98.6133333 76.359,98.444 C76.2279373,99.0242471 76.0606088,99.5957024 75.858,100.155 L75.02,102.57 L77.724,102.57 Z M86.68,106.455 L86.468,105.535 L86.392,105.535 C86.1751772,105.869205 85.8684138,106.135413 85.507,106.303 C85.0976794,106.494687 84.6499085,106.590125 84.198,106.582 C83.504889,106.635702 82.8195429,106.406652 82.298,105.947 C81.8400356,105.41562 81.6132406,104.723355 81.668,104.024 L81.668,99.434 L83.168,99.434 L83.168,103.763 C83.1363235,104.191897 83.2528132,104.618673 83.498,104.972 C83.7625594,105.258244 84.1447015,105.405931 84.533,105.372 C85.0566263,105.415683 85.5696696,105.2069 85.914,104.81 C86.2578259,104.245702 86.41234,103.586301 86.355,102.928 L86.355,99.428 L87.855,99.428 L87.855,106.455 L86.68,106.455 Z M94.697,104.455 C94.7293788,105.073644 94.4477699,105.666941 93.948,106.033 C93.3085009,106.437821 92.5573388,106.629987 91.802,106.582 C91.0282399,106.613669 90.257513,106.467597 89.549,106.155 L89.549,104.868 C90.2654192,105.22224 91.0500878,105.417043 91.849,105.439 C92.767,105.439 93.226,105.161667 93.226,104.607 C93.2315334,104.445362 93.1774335,104.287334 93.074,104.163 C92.929905,104.0123 92.7607225,103.887782 92.574,103.795 C92.2595157,103.631188 91.9352343,103.486915 91.603,103.363 C90.9977209,103.169163 90.4404525,102.849117 89.968,102.424 C89.6739975,102.087758 89.5207307,101.651234 89.54,101.205 C89.5194529,100.642998 89.7954669,100.111472 90.267,99.805 C90.8605379,99.4428704 91.5496666,99.268584 92.244,99.305 C93.0515874,99.3008424 93.8505196,99.4714086 94.586,99.805 L94.104,100.929 C93.5026411,100.652358 92.8540732,100.492846 92.193,100.459 C91.4056667,100.459 91.012,100.683333 91.012,101.132 C91.0148835,101.358074 91.1304319,101.567787 91.32,101.691 C91.7433265,101.948868 92.193693,102.159463 92.663,102.319 C93.1061969,102.475298 93.5299742,102.681986 93.926,102.935 C94.1693129,103.099937 94.3695688,103.320767 94.51,103.579 C94.642571,103.851473 94.7067555,104.152145 94.697,104.455 L94.697,104.455 Z M98.925,105.375 C99.2955973,105.374108 99.6638703,105.316439 100.017,105.204 L100.017,106.328 C99.8116466,106.411641 99.5976825,106.472342 99.379,106.509 C99.1115043,106.558349 98.8400086,106.582787 98.568,106.582018 C97.1546667,106.582018 96.448,105.837333 96.448,104.348 L96.448,100.564 L95.49,100.564 L95.49,99.904 L96.519,99.355 L97.027,97.87 L97.947,97.87 L97.947,99.432 L99.947,99.432 L99.947,100.562 L97.947,100.562 L97.947,104.32 C97.9215915,104.61264 98.0194555,104.902607 98.217,105.12 C98.4096764,105.295907 98.6643788,105.388003 98.925,105.376 L98.925,105.375 Z M102.911,106.455 L101.42,106.455 L101.42,99.434 L102.912,99.434 L102.911,106.455 Z M101.331,97.575 C101.316175,97.3482862 101.395389,97.1254761 101.55,96.959 C101.720815,96.8058907 101.946098,96.7280328 102.175,96.743 C102.400119,96.7292578 102.621224,96.8071674 102.788,96.959 C102.942611,97.1254761 103.021825,97.3482862 103.007,97.575 C103.019146,97.7965366 102.939999,98.0133763 102.788,98.175 C102.622134,98.3286269 102.400663,98.4077496 102.175,98.394 C101.945563,98.4089638 101.719918,98.3298978 101.55,98.175 C101.398001,98.0133763 101.318854,97.7965366 101.331,97.575 L101.331,97.575 Z M111.22,106.455 L109.72,106.455 L109.72,102.139 C109.752352,101.709536 109.636977,101.28191 109.393,100.927 C109.127423,100.640398 108.744227,100.492731 108.355,100.527 C107.830939,100.482089 107.316865,100.689724 106.971,101.086 C106.630933,101.646888 106.478554,102.301593 106.536,102.955 L106.536,106.455 L105.044,106.455 L105.044,99.434 L106.212,99.434 L106.421,100.354 L106.497,100.354 C106.715316,100.01394 107.028092,99.7449531 107.397,99.58 C107.803183,99.3944024 108.245461,99.3011653 108.692,99.307 C109.394742,99.2130731 110.100704,99.4554178 110.597591,99.9611565 C111.094477,100.466895 111.32432,101.177026 111.218,101.878 L111.22,106.455 Z" id="Shape" fill="#6A737F"></path>
			<g id="Group" transform="translate(23.000000, 87.000000)">
				<path d="M15.1906738,29.8813438 C11.266654,29.8813438 7.57750368,28.3532448 4.80280399,25.5785446 C2.02810383,22.8038445 0.500003815,19.1146946 0.500003815,15.1906738 C0.500003815,11.266654 2.02810383,7.57750368 4.80280399,4.80280399 C7.57750368,2.02810383 11.266654,0.500003815 15.1906738,0.500003815 C19.1146946,0.500003815 22.8038445,2.02810383 25.5785446,4.80280399 C28.3532448,7.57750368 29.8813438,11.266654 29.8813438,15.1906738 C29.8813438,19.1146946 28.3532448,22.8038445 25.5785446,25.5785446 C22.8038445,28.3532448 19.1146946,29.8813438 15.1906738,29.8813438 Z" id="Path" fill="#FFFFFF"></path>
				<path d="M15.1906738,1.00000381 C11.4002037,1.00000381 7.83661461,2.47609329 5.156353,5.156353 C2.47609329,7.83661461 1.00000381,11.4002037 1.00000381,15.1906738 C1.00000381,18.981144 2.47609329,22.544735 5.156353,25.2249947 C7.83661461,27.9052544 11.4002037,29.3813438 15.1906738,29.3813438 C18.981144,29.3813438 22.544735,27.9052544 25.2249947,25.2249947 C27.9052544,22.544735 29.3813438,18.981144 29.3813438,15.1906738 C29.3813438,11.4002037 27.9052544,7.83661461 25.2249947,5.156353 C22.544735,2.47609329 18.981144,1.00000381 15.1906738,1.00000381 L15.1906738,1.00000381 Z M15.1906738,3.81469727e-06 C23.5802536,3.81469727e-06 30.3813438,6.80109406 30.3813438,15.1906738 C30.3813438,23.5802536 23.5802536,30.3813438 15.1906738,30.3813438 C6.80109406,30.3813438 3.81469727e-06,23.5802536 3.81469727e-06,15.1906738 C3.81469727e-06,6.80109406 6.80109406,3.81469727e-06 15.1906738,3.81469727e-06 Z" id="Shape" fill="#B7B7B7"></path>
			</g>
			<path d="M34.288,97.434 L37.62,97.434 C38.7603626,97.3517726 39.9020023,97.5754746 40.927,98.082 C41.6210011,98.5287391 42.0156489,99.3188017 41.956,100.142 C41.9796151,100.701772 41.8217792,101.254198 41.506,101.717 C41.2232561,102.116569 40.7899783,102.383757 40.306,102.457 L40.306,102.53 C40.8841616,102.621275 41.4077429,102.924232 41.775,103.38 C42.0966923,103.869995 42.2542816,104.449574 42.225,105.035 C42.2671099,105.923945 41.8729665,106.777549 41.169,107.322 C40.3294688,107.909438 39.3171031,108.198183 38.294,108.142 L34.288,108.142 L34.288,97.434 Z M36.558,101.675 L37.877,101.675 C38.3409312,101.710735 38.8052876,101.611404 39.214,101.389 C39.5058125,101.165714 39.6619145,100.807776 39.627,100.442 C39.6557498,100.086311 39.4816868,99.7447609 39.177,99.559 C38.7322668,99.350787 38.2419446,99.2589161 37.752,99.292 L36.558,99.292 L36.558,101.675 Z M36.558,103.475 L36.558,106.266 L38.04,106.266 C38.5284709,106.304153 39.0156636,106.177778 39.424,105.907 C39.7381435,105.63135 39.9038207,105.223643 39.871,104.807 C39.871,103.918333 39.2376667,103.474 37.971,103.474 L36.558,103.475 Z" id="Shape" fill="#00AD50"></path>
			<path d="M81.856,145.455 L80.206,145.455 L78.631,139.92 C78.5643333,139.678667 78.4796667,139.330667 78.377,138.876 C78.2743333,138.421333 78.213,138.105 78.193,137.927 C78.151,138.197667 78.0823333,138.549 77.987,138.981 C77.8916667,139.413 77.8123333,139.734667 77.749,139.946 L76.213,145.455 L74.563,145.455 L73.363,140.809 L72.144,136.175 L73.693,136.175 L75.02,141.583 C75.2063491,142.341764 75.3545352,143.109394 75.464,143.883 C75.5106667,143.523 75.5803333,143.121 75.673,142.677 C75.7656667,142.233 75.8503333,141.873333 75.927,141.598 L77.438,136.175 L78.938,136.175 L80.491,141.621 C80.6902782,142.364839 80.847197,143.119385 80.961,143.881 C81.058302,143.100798 81.2110213,142.328513 81.418,141.57 L82.738,136.17 L84.274,136.17 L81.856,145.455 Z M89.822,145.455 L89.522,144.477 L89.471,144.477 C89.2052265,144.84622 88.855656,145.147124 88.451,145.355 C88.0320435,145.523715 87.582377,145.602747 87.131,145.587 C86.5398548,145.622082 85.9589663,145.421019 85.516,145.028 C85.1091455,144.605824 84.8983324,144.032166 84.935,143.447 C84.8980164,142.797474 85.2038203,142.176001 85.741,141.809 C86.4887943,141.385733 87.3392839,141.178043 88.198,141.209 L89.41,141.171 L89.41,140.796 C89.438354,140.432792 89.3259258,140.072592 89.096,139.79 C88.832261,139.54671 88.4785744,139.425187 88.121,139.455 C87.7698216,139.453732 87.4206044,139.50738 87.086,139.614 C86.7608089,139.718051 86.4427929,139.84332 86.134,139.989 L85.652,138.923 C86.0474823,138.718709 86.4675945,138.566124 86.902,138.469 C87.3221268,138.369065 87.7521671,138.316735 88.184,138.313 C88.9060637,138.260437 89.623153,138.467549 90.206,138.897 C90.6967021,139.375229 90.9470124,140.048351 90.888,140.731 L90.888,145.455 L89.822,145.455 Z M87.601,144.439 C88.0766389,144.46079 88.5423343,144.298155 88.901,143.985 C89.2415905,143.651925 89.4210636,143.187556 89.393,142.712 L89.393,142.103 L88.493,142.141 C87.9601652,142.123861 87.4319869,142.245139 86.96,142.493 C86.6403457,142.705144 86.4587318,143.072187 86.484,143.455 C86.4672663,143.726312 86.5690528,143.991541 86.763,144.182 C86.999934,144.370269 87.2992534,144.462065 87.601,144.439 L87.601,144.439 Z M95.586,144.376 C95.9565973,144.375108 96.3248703,144.317439 96.678,144.205 L96.678,145.328 C96.4726466,145.411641 96.2586825,145.472342 96.04,145.509 C95.7731611,145.558226 95.5023407,145.582664 95.231,145.582013 C93.8176667,145.582013 93.111,144.837333 93.111,143.348 L93.111,139.564 L92.153,139.564 L92.153,138.904 L93.18,138.355 L93.688,136.87 L94.608,136.87 L94.608,138.432 L96.608,138.432 L96.608,139.562 L94.608,139.562 L94.608,143.32 C94.5825915,143.61264 94.6804555,143.902607 94.878,144.12 C95.0706764,144.295907 95.3253788,144.388003 95.586,144.376 L95.586,144.376 Z M101.147,145.582 C100.197329,145.63592 99.2684955,145.289557 98.586,144.627 C97.9397053,143.90817 97.6070933,142.96109 97.662,141.996 C97.6067814,141.021343 97.9117926,140.060398 98.519,139.296 C99.1150028,138.629024 99.9806464,138.267328 100.874,138.312 C101.691674,138.269874 102.488907,138.576194 103.068,139.155 C103.632801,139.792566 103.922538,140.627627 103.874,141.478 L103.874,142.284 L99.198,142.284 C99.1799094,142.85814 99.376754,143.418363 99.75,143.855 C100.138698,144.23762 100.671589,144.437182 101.216,144.404 C101.605083,144.406733 101.993327,144.367506 102.374,144.287 C102.770085,144.195882 103.15602,144.065227 103.526,143.897 L103.526,145.106 C103.176411,145.274789 102.806781,145.398447 102.426,145.474 C102.004047,145.550407 101.575791,145.586569 101.147,145.582 L101.147,145.582 Z M100.874,139.437 C100.44745,139.418381 100.033178,139.582417 99.735,139.888 C99.4216809,140.256033 99.2416449,140.718983 99.224,141.202 L102.411,141.202 C102.437459,140.726485 102.288352,140.257813 101.992,139.885 C101.703226,139.578702 101.29438,139.414871 100.874,139.437 L100.874,139.437 Z M109.132,138.307 C109.381182,138.30216 109.630191,138.323273 109.875,138.37 L109.729,139.76 C109.512399,139.708999 109.290521,139.683824 109.068,139.685 C108.523489,139.663913 107.995897,139.876405 107.618,140.269 C107.239197,140.681089 107.039564,141.226751 107.063,141.786 L107.063,145.455 L105.568,145.455 L105.568,138.434 L106.736,138.434 L106.936,139.672 L107.012,139.672 C107.228766,139.26879 107.541683,138.925303 107.923,138.672 C108.280883,138.433239 108.701785,138.306515 109.132,138.308 L109.132,138.307 Z M114.699,139.564 L112.985,139.564 L112.985,145.455 L111.485,145.455 L111.485,139.564 L110.332,139.564 L110.332,138.864 L111.487,138.407 L111.487,137.955 C111.430742,137.28694 111.639421,136.623547 112.068,136.108 C112.555446,135.672196 113.200269,135.455328 113.852,135.508 C114.379168,135.508293 114.902626,135.596156 115.401,135.768 L115.007,136.898 C114.667092,136.784094 114.311463,136.724035 113.953,136.72 C113.669528,136.695493 113.392344,136.813109 113.213,137.034 C113.038779,137.316263 112.957625,137.646123 112.981,137.977 L112.981,138.434 L114.695,138.434 L114.699,139.564 Z M122.119,141.932 C122.17783,142.906685 121.862354,143.867063 121.237,144.617 C120.597933,145.281606 119.700542,145.634061 118.78,145.582 C118.170832,145.594118 117.569798,145.440663 117.041,145.138 C116.534465,144.838826 116.129601,144.394243 115.879,143.862 C115.597518,143.258292 115.458606,142.597949 115.473,141.932 C115.414767,140.964195 115.728085,140.01065 116.349,139.266 C116.99325,138.602397 117.894768,138.252598 118.818,138.308 C119.727181,138.264157 120.609517,138.623017 121.23,139.289 C121.85162,140.024911 122.169514,140.97001 122.119,141.932 L122.119,141.932 Z M117.009,141.932 C117.009,143.552667 117.609,144.363 118.809,144.363 C119.993667,144.363 120.586,143.552667 120.586,141.932 C120.586,140.328 119.989333,139.526 118.796,139.526 C118.264494,139.481045 117.74809,139.716877 117.434,140.148 C117.119432,140.687714 116.97156,141.308427 117.009,141.932 L117.009,141.932 Z M127.394,138.308 C127.643182,138.30316 127.892191,138.324273 128.137,138.371 L127.991,139.761 C127.774765,139.709741 127.553227,139.68423 127.331,139.685 C126.786489,139.663913 126.258897,139.876405 125.881,140.269 C125.502197,140.681089 125.302564,141.226751 125.326,141.786 L125.326,145.455 L123.833,145.455 L123.833,138.434 L125.001,138.434 L125.201,139.672 L125.277,139.672 C125.493766,139.26879 125.806683,138.925303 126.188,138.672 C126.545033,138.433809 126.964807,138.307111 127.394,138.308 L127.394,138.308 Z M131.806,145.582 C131.008196,145.61852 130.242841,145.263096 129.756,144.63 C129.220102,143.844913 128.960803,142.903768 129.019,141.955 C128.96291,141.001274 129.226481,140.05608 129.768,139.269 C130.258631,138.630669 131.029677,138.271643 131.834,138.307 C132.665375,138.262546 133.461228,138.648574 133.941,139.329 L134.017,139.329 C133.954375,138.934194 133.918294,138.535634 133.909,138.136 L133.909,135.578 L135.409,135.578 L135.409,145.455 L134.237,145.455 L133.977,144.535 L133.907,144.535 C133.438782,145.228349 132.641497,145.625663 131.806,145.582 Z M132.206,144.376 C132.70906,144.419957 133.203943,144.2274 133.545,143.855 C133.868009,143.357316 134.019695,142.767779 133.977,142.176 L133.977,141.967 C134.034414,141.308899 133.883275,140.649418 133.545,140.082 C133.2109,139.688473 132.707456,139.480318 132.193,139.523 C131.704148,139.50438 131.242364,139.747464 130.981,140.161 C130.665424,140.713089 130.517726,141.345236 130.556,141.98 C130.516137,142.601825 130.659372,143.221701 130.968,143.763 C131.243146,144.171977 131.713942,144.405093 132.206,144.376 Z" id="Shape" fill="#6A737F"></path>
			<path d="M38.191,125 C46.5807576,125 53.382,131.801242 53.382,140.191 C53.382,148.580758 46.5807576,155.382 38.191,155.382 C29.8012424,155.382 23,148.580758 23,140.191 C23,131.801242 29.8012424,125 38.191,125 Z" id="Path" fill="#00AD50"></path>
			<path d="M38.84,137.17 C38.0580445,137.134606 37.3112017,137.496928 36.855,138.133 C36.3436666,138.931113 36.0985878,139.870816 36.155,140.817 C36.155,143.205 37.051,144.399 38.843,144.399 C39.7785126,144.362738 40.701608,144.172172 41.575,143.835 L41.575,145.742 C40.6375002,146.118673 39.6342092,146.304304 38.624,146.288 C37.2801526,146.375567 35.9679376,145.855453 35.049,144.871 C34.1539158,143.711461 33.7139342,142.264537 33.812,140.803 C33.789836,139.794151 33.9977621,138.793506 34.42,137.877 C34.7946847,137.07345 35.403691,136.402044 36.167,135.951 C36.9800578,135.490382 37.9027939,135.258834 38.837,135.281 C39.9255422,135.292273 40.9973794,135.550061 41.972,136.035 L41.24,137.88 C40.8466192,137.691728 40.4433664,137.524819 40.032,137.38 C39.6493411,137.243322 39.2463289,137.172322 38.84,137.17 L38.84,137.17 Z" id="Path" fill="#FFFFFF"></path>
		</g>
	</g>
</svg>