<svg xmlns="http://www.w3.org/2000/svg" width="247.207" height="145.945" viewBox="0 0 247.207 145.945"><rect width="247.207" height="145.945" rx="5" fill="#fff"/><text transform="translate(17.679 24.371)" fill="#212e3a" font-size="12" font-family="OpenSans-Semibold, Open Sans" font-weight="600"><tspan x="0" y="0">Which city is located in Ireland?</tspan></text><g transform="translate(19.639 41.84)"><g transform="translate(0 0)"><text transform="translate(41.898 15.658)" fill="#212e3a" font-size="12" font-family="OpenSans-Semibold, Open Sans" font-weight="600"><tspan x="0" y="0">California</tspan></text><g transform="translate(0 0)"><g transform="translate(0 -0.469)" fill="#fff" stroke="#2f4151" stroke-width="1"><circle cx="12.971" cy="12.971" r="12.971" stroke="none"/><circle cx="12.971" cy="12.971" r="12.471" fill="none"/></g><text transform="translate(9.039 16.531)" fill="#212e3a" font-size="12" font-family="OpenSans-Bold, Open Sans" font-weight="700"><tspan x="0" y="0">A</tspan></text></g></g><g transform="translate(0 32.447)"><text transform="translate(41.898 15.658)" fill="#212e3a" font-size="12" font-family="OpenSans-Semibold, Open Sans" font-weight="600"><tspan x="0" y="0">Austin</tspan></text><g transform="translate(0 0)"><g transform="translate(0.039 0.084)" fill="#fff" stroke="#2f4151" stroke-width="1"><circle cx="12.971" cy="12.971" r="12.971" stroke="none"/><circle cx="12.971" cy="12.971" r="12.471" fill="none"/></g><text transform="translate(9.039 17.084)" fill="#212e3a" font-size="12" font-family="OpenSans-Bold, Open Sans" font-weight="700"><tspan x="0" y="0">B</tspan></text></g></g><g transform="translate(0 64.895)"><text transform="translate(41.898 16.512)" fill="#212e3a" font-size="12" font-family="OpenSans-Semibold, Open Sans" font-weight="600"><tspan x="0" y="0">Waterford</tspan></text><g transform="translate(0 0)"><circle cx="12.971" cy="12.971" r="12.971" transform="translate(0.039 -0.363)" fill="#3f85e5"/><text transform="translate(9.039 16.637)" fill="#fff" font-size="12" font-family="OpenSans-Bold, Open Sans" font-weight="700"><tspan x="0" y="0">C</tspan></text></g></g></g></svg>