<svg xmlns="http://www.w3.org/2000/svg" width="289.512" height="170.92" viewBox="0 0 289.512 170.92"><g transform="translate(16048 -66)"><g transform="translate(-16048 66)" fill="#fff"><path d="M 284.5115966796875 170.4205017089844 L 5.000012397766113 170.4205017089844 C 2.518691301345825 170.4205017089844 0.5000126361846924 168.4018249511719 0.5000126361846924 165.9205017089844 L 0.5000126361846924 5.000000953674316 C 0.5000126361846924 2.51867938041687 2.518691301345825 0.5000008344650269 5.000012397766113 0.5000008344650269 L 284.5115966796875 0.5000008344650269 C 286.992919921875 0.5000008344650269 289.0115966796875 2.51867938041687 289.0115966796875 5.000000953674316 L 289.0115966796875 165.9205017089844 C 289.0115966796875 168.4018249511719 286.992919921875 170.4205017089844 284.5115966796875 170.4205017089844 Z" stroke="none"/><path d="M 5 0.9999847412109375 C 2.79437255859375 0.9999847412109375 1 2.79437255859375 1 4.999984741210938 L 1 165.9204864501953 C 1 168.1260986328125 2.79437255859375 169.9204864501953 5 169.9204864501953 L 284.5115966796875 169.9204864501953 C 286.7172241210938 169.9204864501953 288.5115966796875 168.1260986328125 288.5115966796875 165.9204864501953 L 288.5115966796875 4.999984741210938 C 288.5115966796875 2.79437255859375 286.7172241210938 0.9999847412109375 284.5115966796875 0.9999847412109375 L 5 0.9999847412109375 M 5 -1.52587890625e-05 L 284.5115966796875 -1.52587890625e-05 C 287.2729797363281 -1.52587890625e-05 289.5115966796875 2.238555908203125 289.5115966796875 4.999984741210938 L 289.5115966796875 165.9204864501953 C 289.5115966796875 168.6819458007813 287.2729797363281 170.9204864501953 284.5115966796875 170.9204864501953 L 5 170.9204864501953 C 2.238555908203125 170.9204864501953 0 168.6819458007813 0 165.9204864501953 L 0 4.999984741210938 C 0 2.238555908203125 2.238555908203125 -1.52587890625e-05 5 -1.52587890625e-05 Z" stroke="none" fill="#dbdbdb"/></g><path d="M4.45,0H3.288V-8.962H.123V-9.994H7.615v1.032H4.45Zm9.885,0V-4.847a1.955,1.955,0,0,0-.417-1.367,1.7,1.7,0,0,0-1.306-.451,2.139,2.139,0,0,0-1.726.643,3.255,3.255,0,0,0-.543,2.105V0H9.208V-10.637h1.135v3.22a7.015,7.015,0,0,1-.055.964h.068A2.314,2.314,0,0,1,11.31-7.3a3.1,3.1,0,0,1,1.412-.311,2.891,2.891,0,0,1,2.061.653,2.749,2.749,0,0,1,.687,2.075V0Zm6.891.137A3.442,3.442,0,0,1,18.6-.875a3.917,3.917,0,0,1-.96-2.81,4.344,4.344,0,0,1,.892-2.878,2.963,2.963,0,0,1,2.4-1.066,2.825,2.825,0,0,1,2.229.926,3.55,3.55,0,0,1,.82,2.444v.718H18.82a2.97,2.97,0,0,0,.667,2,2.305,2.305,0,0,0,1.781.684A6.035,6.035,0,0,0,23.66-1.36V-.349a6.005,6.005,0,0,1-1.138.373A6.4,6.4,0,0,1,21.226.137Zm-.308-6.815a1.853,1.853,0,0,0-1.439.588,2.71,2.71,0,0,0-.632,1.627h3.917a2.5,2.5,0,0,0-.479-1.644A1.684,1.684,0,0,0,20.918-6.679ZM34.905-2.044a1.877,1.877,0,0,1-.779,1.613,3.663,3.663,0,0,1-2.187.567,4.757,4.757,0,0,1-2.324-.472V-1.388a5.621,5.621,0,0,0,1.159.431A4.839,4.839,0,0,0,31.966-.8a2.705,2.705,0,0,0,1.367-.284.938.938,0,0,0,.479-.865.939.939,0,0,0-.379-.749,5.968,5.968,0,0,0-1.48-.735,8.025,8.025,0,0,1-1.487-.68,2.031,2.031,0,0,1-.656-.66,1.72,1.72,0,0,1-.215-.882A1.681,1.681,0,0,1,30.339-7.1a3.472,3.472,0,0,1,2.044-.53,5.98,5.98,0,0,1,2.365.492l-.4.923A5.429,5.429,0,0,0,32.3-6.679a2.352,2.352,0,0,0-1.217.253.782.782,0,0,0-.41.7.849.849,0,0,0,.154.513,1.518,1.518,0,0,0,.5.4,11.076,11.076,0,0,0,1.312.554,4.9,4.9,0,0,1,1.8.978A1.724,1.724,0,0,1,34.905-2.044Zm3.227-1.791a13.345,13.345,0,0,1,.9-1.094l2.42-2.563h1.347L39.759-4.3,43.006,0H41.632L38.987-3.541l-.854.738V0H37.011V-10.637h1.121V-5q0,.376-.055,1.162Zm5.3-3.657h1.217L46.288-3.22a16.251,16.251,0,0,1,.67,2.112h.055q.089-.349.373-1.193t1.856-5.192h1.217l-3.22,8.531A4.256,4.256,0,0,1,46.12,2.833a2.377,2.377,0,0,1-1.569.53,4.565,4.565,0,0,1-1.025-.116V2.338a3.955,3.955,0,0,0,.841.082,1.733,1.733,0,0,0,1.668-1.312L46.452.041ZM56.966,0H55.831V-7.492h1.135Zm-1.23-9.522a.754.754,0,0,1,.191-.571.669.669,0,0,1,.479-.181.669.669,0,0,1,.472.185.74.74,0,0,1,.2.567.752.752,0,0,1-.2.571.662.662,0,0,1-.472.188.655.655,0,0,1-.479-.188A.768.768,0,0,1,55.735-9.522Zm8.73,7.479a1.877,1.877,0,0,1-.779,1.613A3.663,3.663,0,0,1,61.5.137a4.757,4.757,0,0,1-2.324-.472V-1.388a5.621,5.621,0,0,0,1.159.431A4.839,4.839,0,0,0,61.526-.8a2.705,2.705,0,0,0,1.367-.284.938.938,0,0,0,.479-.865.939.939,0,0,0-.379-.749,5.968,5.968,0,0,0-1.48-.735,8.025,8.025,0,0,1-1.487-.68,2.031,2.031,0,0,1-.656-.66,1.72,1.72,0,0,1-.215-.882A1.681,1.681,0,0,1,59.9-7.1a3.472,3.472,0,0,1,2.044-.53,5.98,5.98,0,0,1,2.365.492l-.4.923a5.429,5.429,0,0,0-2.044-.465,2.352,2.352,0,0,0-1.217.253.782.782,0,0,0-.41.7.849.849,0,0,0,.154.513,1.518,1.518,0,0,0,.5.4,11.075,11.075,0,0,0,1.313.554,4.9,4.9,0,0,1,1.8.978A1.724,1.724,0,0,1,64.465-2.044Zm9.489-5.571a2.785,2.785,0,0,1,2.293,1.008,4.426,4.426,0,0,1,.817,2.854A4.458,4.458,0,0,1,76.24-.885,2.774,2.774,0,0,1,73.954.137a3.242,3.242,0,0,1-1.336-.27A2.513,2.513,0,0,1,71.6-.964H71.52L71.281,0h-.813V-10.637H71.6v2.584q0,.868-.055,1.559H71.6A2.694,2.694,0,0,1,73.954-7.615Zm-.164.95A1.981,1.981,0,0,0,72.115-6,3.76,3.76,0,0,0,71.6-3.753a3.749,3.749,0,0,0,.526,2.259,2,2,0,0,0,1.688.68,1.75,1.75,0,0,0,1.559-.762,3.917,3.917,0,0,0,.513-2.191,3.765,3.765,0,0,0-.513-2.181A1.817,1.817,0,0,0,73.79-6.665ZM80.441,0H79.307V-10.637h1.135Zm3.733-7.492v4.86a1.955,1.955,0,0,0,.417,1.367A1.7,1.7,0,0,0,85.9-.813a2.13,2.13,0,0,0,1.719-.643,3.241,3.241,0,0,0,.543-2.1V-7.492h1.135V0h-.937l-.164-1h-.062a2.262,2.262,0,0,1-.967.848,3.251,3.251,0,0,1-1.412.294,2.864,2.864,0,0,1-2.047-.649,2.764,2.764,0,0,1-.68-2.078v-4.9ZM95.125.137A3.442,3.442,0,0,1,92.5-.875a3.917,3.917,0,0,1-.96-2.81,4.344,4.344,0,0,1,.892-2.878,2.963,2.963,0,0,1,2.4-1.066A2.825,2.825,0,0,1,97.06-6.7a3.55,3.55,0,0,1,.82,2.444v.718H92.719a2.97,2.97,0,0,0,.667,2,2.305,2.305,0,0,0,1.781.684,6.035,6.035,0,0,0,2.393-.506V-.349a6.005,6.005,0,0,1-1.138.373A6.4,6.4,0,0,1,95.125.137Zm-.308-6.815a1.853,1.853,0,0,0-1.439.588,2.71,2.71,0,0,0-.632,1.627h3.917a2.5,2.5,0,0,0-.479-1.644A1.684,1.684,0,0,0,94.818-6.679ZM109.071-1h-.062A2.666,2.666,0,0,1,106.658.137a2.782,2.782,0,0,1-2.287-1,4.423,4.423,0,0,1-.817-2.857,4.5,4.5,0,0,1,.82-2.878,2.76,2.76,0,0,1,2.283-1.025A2.724,2.724,0,0,1,109-6.521h.089l-.048-.54-.027-.526v-3.049h1.135V0h-.923Zm-2.27.191a2.066,2.066,0,0,0,1.685-.632,3.2,3.2,0,0,0,.523-2.041v-.239A3.76,3.76,0,0,0,108.48-6a2.012,2.012,0,0,0-1.692-.68,1.737,1.737,0,0,0-1.528.776,3.858,3.858,0,0,0-.53,2.191,3.7,3.7,0,0,0,.526,2.167A1.783,1.783,0,0,0,106.8-.813Zm7.075-6.679v4.86a1.955,1.955,0,0,0,.417,1.367,1.7,1.7,0,0,0,1.306.451,2.13,2.13,0,0,0,1.719-.643,3.241,3.241,0,0,0,.543-2.1V-7.492H119V0h-.937L117.9-1h-.062a2.262,2.262,0,0,1-.967.848,3.251,3.251,0,0,1-1.412.294,2.864,2.864,0,0,1-2.047-.649,2.764,2.764,0,0,1-.68-2.078v-4.9ZM124.828.137a3.442,3.442,0,0,1-2.622-1.012,3.917,3.917,0,0,1-.96-2.81,4.344,4.344,0,0,1,.892-2.878,2.963,2.963,0,0,1,2.4-1.066,2.825,2.825,0,0,1,2.229.926,3.55,3.55,0,0,1,.82,2.444v.718h-5.161a2.97,2.97,0,0,0,.667,2,2.305,2.305,0,0,0,1.781.684,6.035,6.035,0,0,0,2.393-.506V-.349a6.005,6.005,0,0,1-1.138.373A6.4,6.4,0,0,1,124.828.137Zm-.308-6.815a1.853,1.853,0,0,0-1.439.588,2.71,2.71,0,0,0-.632,1.627h3.917a2.5,2.5,0,0,0-.479-1.644A1.684,1.684,0,0,0,124.521-6.679ZM136.095-.8a3.707,3.707,0,0,0,.581-.044,3.761,3.761,0,0,0,.444-.092v.868a2.074,2.074,0,0,1-.543.147,4.081,4.081,0,0,1-.646.058q-2.174,0-2.174-2.29V-6.61h-1.073v-.547l1.073-.472.479-1.6h.656v1.736h2.174v.882h-2.174V-2.2a1.517,1.517,0,0,0,.321,1.039A1.118,1.118,0,0,0,136.095-.8Zm9.249-2.953a4.133,4.133,0,0,1-.923,2.861,3.25,3.25,0,0,1-2.55,1.029,3.377,3.377,0,0,1-1.784-.472,3.113,3.113,0,0,1-1.2-1.354,4.717,4.717,0,0,1-.424-2.064,4.127,4.127,0,0,1,.916-2.854,3.24,3.24,0,0,1,2.543-1.022,3.169,3.169,0,0,1,2.5,1.046A4.115,4.115,0,0,1,145.344-3.753Zm-5.708,0a3.556,3.556,0,0,0,.574,2.188,1.993,1.993,0,0,0,1.688.752,2.006,2.006,0,0,0,1.692-.749,3.538,3.538,0,0,0,.578-2.191,3.481,3.481,0,0,0-.578-2.17,2.03,2.03,0,0,0-1.706-.742,2,2,0,0,0-1.682.731A3.52,3.52,0,0,0,139.636-3.753Zm17.986-3.739v.718l-1.388.164a2.385,2.385,0,0,1,.342.625,2.386,2.386,0,0,1,.15.872,2.215,2.215,0,0,1-.752,1.757,3.033,3.033,0,0,1-2.064.656,3.438,3.438,0,0,1-.629-.055,1.117,1.117,0,0,0-.725.964.49.49,0,0,0,.253.455,1.848,1.848,0,0,0,.868.147H155a2.97,2.97,0,0,1,1.87.513,1.781,1.781,0,0,1,.653,1.49,2.127,2.127,0,0,1-1,1.9,5.342,5.342,0,0,1-2.912.653,3.979,3.979,0,0,1-2.266-.547,1.766,1.766,0,0,1-.8-1.545,1.735,1.735,0,0,1,.438-1.183,2.228,2.228,0,0,1,1.23-.677,1.187,1.187,0,0,1-.482-.4,1.067,1.067,0,0,1-.195-.636,1.207,1.207,0,0,1,.219-.718,2.3,2.3,0,0,1,.69-.595,2.024,2.024,0,0,1-.947-.813,2.39,2.39,0,0,1-.366-1.312,2.424,2.424,0,0,1,.738-1.9,3.014,3.014,0,0,1,2.092-.667,3.8,3.8,0,0,1,1.06.137Zm-5.975,8.75a1.017,1.017,0,0,0,.513.923,2.83,2.83,0,0,0,1.47.314,4.1,4.1,0,0,0,2.116-.427,1.308,1.308,0,0,0,.687-1.159.917.917,0,0,0-.376-.844,2.92,2.92,0,0,0-1.415-.236h-1.36a1.792,1.792,0,0,0-1.2.369A1.319,1.319,0,0,0,151.647,1.258Zm.615-6.351a1.525,1.525,0,0,0,.444,1.189,1.774,1.774,0,0,0,1.237.4A1.447,1.447,0,0,0,155.6-5.113,1.489,1.489,0,0,0,153.923-6.8a1.665,1.665,0,0,0-1.23.431A1.734,1.734,0,0,0,152.262-5.093ZM164.027,0,163.8-1.066h-.055a3.153,3.153,0,0,1-1.118.954,3.407,3.407,0,0,1-1.391.25,2.5,2.5,0,0,1-1.747-.574,2.094,2.094,0,0,1-.632-1.634q0-2.27,3.63-2.379l1.271-.041v-.465a1.9,1.9,0,0,0-.379-1.3,1.56,1.56,0,0,0-1.213-.42,4.944,4.944,0,0,0-2.119.574l-.349-.868a5.333,5.333,0,0,1,1.213-.472,5.255,5.255,0,0,1,1.323-.171,2.854,2.854,0,0,1,1.986.595,2.482,2.482,0,0,1,.646,1.907V0Zm-2.563-.8a2.3,2.3,0,0,0,1.665-.581,2.15,2.15,0,0,0,.6-1.627v-.677l-1.135.048a4.128,4.128,0,0,0-1.952.42,1.268,1.268,0,0,0-.6,1.159,1.169,1.169,0,0,0,.373.937A1.546,1.546,0,0,0,161.464-.8ZM172.3-2.044a1.877,1.877,0,0,1-.779,1.613,3.663,3.663,0,0,1-2.187.567,4.757,4.757,0,0,1-2.324-.472V-1.388a5.621,5.621,0,0,0,1.159.431,4.838,4.838,0,0,0,1.193.157,2.705,2.705,0,0,0,1.367-.284.938.938,0,0,0,.479-.865.939.939,0,0,0-.379-.749,5.968,5.968,0,0,0-1.48-.735,8.025,8.025,0,0,1-1.487-.68,2.031,2.031,0,0,1-.656-.66,1.72,1.72,0,0,1-.215-.882,1.681,1.681,0,0,1,.745-1.446,3.472,3.472,0,0,1,2.044-.53,5.98,5.98,0,0,1,2.365.492l-.4.923a5.429,5.429,0,0,0-2.044-.465,2.352,2.352,0,0,0-1.217.253.782.782,0,0,0-.41.7.849.849,0,0,0,.154.513,1.518,1.518,0,0,0,.5.4,11.075,11.075,0,0,0,1.313.554,4.9,4.9,0,0,1,1.8.978A1.724,1.724,0,0,1,172.3-2.044ZM177.57.137a3.442,3.442,0,0,1-2.622-1.012,3.917,3.917,0,0,1-.96-2.81,4.344,4.344,0,0,1,.892-2.878,2.963,2.963,0,0,1,2.4-1.066A2.825,2.825,0,0,1,179.5-6.7a3.55,3.55,0,0,1,.82,2.444v.718h-5.161a2.97,2.97,0,0,0,.667,2,2.305,2.305,0,0,0,1.781.684A6.035,6.035,0,0,0,180-1.36V-.349a6.005,6.005,0,0,1-1.138.373A6.4,6.4,0,0,1,177.57.137Zm-.308-6.815a1.853,1.853,0,0,0-1.439.588,2.71,2.71,0,0,0-.632,1.627h3.917a2.5,2.5,0,0,0-.479-1.644A1.684,1.684,0,0,0,177.262-6.679Zm10.09,4.635a1.877,1.877,0,0,1-.779,1.613,3.663,3.663,0,0,1-2.187.567,4.757,4.757,0,0,1-2.324-.472V-1.388a5.621,5.621,0,0,0,1.159.431,4.838,4.838,0,0,0,1.193.157,2.705,2.705,0,0,0,1.367-.284.938.938,0,0,0,.479-.865.939.939,0,0,0-.379-.749,5.968,5.968,0,0,0-1.48-.735,8.025,8.025,0,0,1-1.487-.68,2.031,2.031,0,0,1-.656-.66,1.72,1.72,0,0,1-.215-.882,1.681,1.681,0,0,1,.745-1.446,3.472,3.472,0,0,1,2.044-.53,5.98,5.98,0,0,1,2.365.492l-.4.923a5.429,5.429,0,0,0-2.044-.465,2.352,2.352,0,0,0-1.217.253.782.782,0,0,0-.41.7.849.849,0,0,0,.154.513,1.518,1.518,0,0,0,.5.4,11.075,11.075,0,0,0,1.313.554,4.9,4.9,0,0,1,1.8.978A1.724,1.724,0,0,1,187.352-2.044Z" transform="translate(-16028 97)" fill="#6a737f"/><path d="M4.431,0H2.914V-7.979H.184v-1.3H7.16v1.3H4.431Zm7.554-7.147a3.591,3.591,0,0,1,.743.063l-.146,1.39a2.819,2.819,0,0,0-.66-.076,1.91,1.91,0,0,0-1.45.584,2.111,2.111,0,0,0-.555,1.517V0H8.423V-7.021H9.591l.2,1.238h.076a2.782,2.782,0,0,1,.911-1A2.165,2.165,0,0,1,11.984-7.147Zm7,7.147L18.77-.92h-.076a2.117,2.117,0,0,1-.885.768A2.961,2.961,0,0,1,16.5.127a2.573,2.573,0,0,1-1.9-.635,2.631,2.631,0,0,1-.628-1.923V-7.021h1.5v4.329a1.878,1.878,0,0,0,.33,1.209,1.26,1.26,0,0,0,1.035.4,1.647,1.647,0,0,0,1.381-.562,3.1,3.1,0,0,0,.441-1.882v-3.5h1.5V0Zm6.367.127a3.4,3.4,0,0,1-2.561-.955,3.627,3.627,0,0,1-.924-2.631,3.979,3.979,0,0,1,.857-2.7,2.96,2.96,0,0,1,2.355-.984,2.893,2.893,0,0,1,2.2.844,3.226,3.226,0,0,1,.806,2.323v.806H23.4A2.306,2.306,0,0,0,23.95-1.6a1.923,1.923,0,0,0,1.466.549,5.413,5.413,0,0,0,1.158-.117,6.072,6.072,0,0,0,1.152-.39V-.349a4.58,4.58,0,0,1-1.1.368A6.773,6.773,0,0,1,25.346.127Zm-.273-6.145a1.5,1.5,0,0,0-1.139.451,2.148,2.148,0,0,0-.511,1.314h3.187A1.943,1.943,0,0,0,26.19-5.57,1.433,1.433,0,0,0,25.073-6.018Z" transform="translate(-15975.932 134.455)" fill="#6a737f"/><g transform="translate(-16020 119)" fill="#fff"><path d="M 10 19.125 C 4.968460083007813 19.125 0.875 15.03153991699219 0.875 10 C 0.875 4.968460083007813 4.968460083007813 0.875 10 0.875 C 15.03153991699219 0.875 19.125 4.968460083007813 19.125 10 C 19.125 15.03153991699219 15.03153991699219 19.125 10 19.125 Z" stroke="none"/><path d="M 10 1.75 C 5.450929641723633 1.75 1.75 5.450929641723633 1.75 10 C 1.75 14.54907035827637 5.450929641723633 18.25 10 18.25 C 14.54907035827637 18.25 18.25 14.54907035827637 18.25 10 C 18.25 5.450929641723633 14.54907035827637 1.75 10 1.75 M 10 0 C 15.52285003662109 0 20 4.477149963378906 20 10 C 20 15.52285003662109 15.52285003662109 20 10 20 C 4.477149963378906 20 0 15.52285003662109 0 10 C 0 4.477149963378906 4.477149963378906 0 10 0 Z" stroke="none" fill="#e1e1e1"/></g><path d="M2.729,0h-1.5V-9.28H6.462V-8H2.729v2.9h3.5v1.289h-3.5Zm9.648,0-.3-.978h-.051A2.876,2.876,0,0,1,11.007-.1a3.232,3.232,0,0,1-1.32.232A2.234,2.234,0,0,1,8.071-.432,2.09,2.09,0,0,1,7.49-2.012,1.856,1.856,0,0,1,8.3-3.65a4.648,4.648,0,0,1,2.457-.6l1.212-.038v-.375a1.419,1.419,0,0,0-.314-1.006A1.281,1.281,0,0,0,10.677-6a3.369,3.369,0,0,0-1.035.159,7.808,7.808,0,0,0-.952.375L8.208-6.538a5.192,5.192,0,0,1,1.25-.454,5.755,5.755,0,0,1,1.282-.156,3.037,3.037,0,0,1,2.022.584,2.286,2.286,0,0,1,.682,1.834V0ZM10.156-1.016a1.848,1.848,0,0,0,1.3-.454,1.645,1.645,0,0,0,.492-1.273v-.609l-.9.038a3.084,3.084,0,0,0-1.533.352A1.07,1.07,0,0,0,9.039-2a.938.938,0,0,0,.279.727A1.2,1.2,0,0,0,10.156-1.016ZM17.018,0H15.526V-9.877h1.492Zm6.849-2a1.837,1.837,0,0,1-.749,1.577,3.587,3.587,0,0,1-2.146.549A5.068,5.068,0,0,1,18.719-.3V-1.587a5.532,5.532,0,0,0,2.3.571q1.377,0,1.377-.832a.659.659,0,0,0-.152-.444,1.8,1.8,0,0,0-.5-.368,8.63,8.63,0,0,0-.971-.432,4.493,4.493,0,0,1-1.641-.939,1.738,1.738,0,0,1-.428-1.219,1.6,1.6,0,0,1,.727-1.4,3.449,3.449,0,0,1,1.977-.5,5.6,5.6,0,0,1,2.342.5l-.482,1.124a5.21,5.21,0,0,0-1.911-.47q-1.181,0-1.181.673a.677.677,0,0,0,.308.559,6.77,6.77,0,0,0,1.343.628,6.137,6.137,0,0,1,1.263.616,1.84,1.84,0,0,1,.584.644A1.865,1.865,0,0,1,23.867-2ZM28.545.127a3.4,3.4,0,0,1-2.561-.955,3.627,3.627,0,0,1-.924-2.631,3.979,3.979,0,0,1,.857-2.7,2.96,2.96,0,0,1,2.355-.984,2.893,2.893,0,0,1,2.2.844,3.226,3.226,0,0,1,.806,2.323v.806H26.6A2.306,2.306,0,0,0,27.149-1.6a1.923,1.923,0,0,0,1.466.549,5.413,5.413,0,0,0,1.158-.117,6.072,6.072,0,0,0,1.152-.39V-.349a4.58,4.58,0,0,1-1.1.368A6.773,6.773,0,0,1,28.545.127Zm-.273-6.145a1.5,1.5,0,0,0-1.139.451,2.148,2.148,0,0,0-.511,1.314h3.187A1.943,1.943,0,0,0,29.39-5.57,1.433,1.433,0,0,0,28.272-6.018Z" transform="translate(-15975.932 172.455)" fill="#6a737f"/><path d="M10,0A10,10,0,1,1,0,10,10,10,0,0,1,10,0Z" transform="translate(-16020 158)" fill="#00ad50"/><g transform="translate(-16020 158)" fill="#fff"><path d="M 10 19.5 C 4.761680126190186 19.5 0.5 15.23832035064697 0.5 10 C 0.5 4.761680126190186 4.761680126190186 0.5 10 0.5 C 15.23832035064697 0.5 19.5 4.761680126190186 19.5 10 C 19.5 15.23832035064697 15.23832035064697 19.5 10 19.5 Z" stroke="none"/><path d="M 10 1 C 5.037380218505859 1 1 5.037380218505859 1 10 C 1 14.96261978149414 5.037380218505859 19 10 19 C 14.96261978149414 19 19 14.96261978149414 19 10 C 19 5.037380218505859 14.96261978149414 1 10 1 M 10 0 C 15.52285003662109 0 20 4.477149963378906 20 10 C 20 15.52285003662109 15.52285003662109 20 10 20 C 4.477149963378906 20 0 15.52285003662109 0 10 C 0 4.477149963378906 4.477149963378906 0 10 0 Z" stroke="none" fill="#00ad50"/></g><path d="M10,0A10,10,0,1,1,0,10,10,10,0,0,1,10,0Z" transform="translate(-16020 158)" fill="none"/><path d="M5,0A5,5,0,1,1,0,5,5,5,0,0,1,5,0Z" transform="translate(-16015 163)" fill="#00ad50"/><path d="M5,0A5,5,0,1,1,0,5,5,5,0,0,1,5,0Z" transform="translate(-16015 163)" fill="none"/></g></svg>