<svg width="99" height="120" viewBox="0 0 99 120" fill="none" xmlns="http://www.w3.org/2000/svg">
<g clip-path="url(#clip0_262_1392)">
<path d="M37.8051 41.4939C40.1541 41.4939 42.0584 39.5938 42.0584 37.2499C42.0584 34.9061 40.1541 33.006 37.8051 33.006C35.456 33.006 33.5518 34.9061 33.5518 37.2499C33.5518 39.5938 35.456 41.4939 37.8051 41.4939Z" fill="#434B5D"/>
<path d="M59.0702 41.4939C61.4193 41.4939 63.3235 39.5938 63.3235 37.2499C63.3235 34.9061 61.4193 33.006 59.0702 33.006C56.7212 33.006 54.8169 34.9061 54.8169 37.2499C54.8169 39.5938 56.7212 41.4939 59.0702 41.4939Z" fill="#434B5D"/>
<path d="M98.9999 55.8689C99.0205 46.7208 96.4823 37.7484 91.6708 29.9613C86.8593 22.1742 79.9654 15.8813 71.7647 11.7906C63.5641 7.69996 54.3821 5.97385 45.2518 6.8065C36.1216 7.63915 27.4053 10.9975 20.0837 16.5038V8.96297C20.8598 8.55464 21.511 7.94477 21.9684 7.19778C22.4259 6.45078 22.6727 5.59438 22.6827 4.71902C22.6827 3.46846 22.1849 2.26913 21.2986 1.38485C20.4124 0.500567 19.2104 0.00378418 17.9571 0.00378418C16.7038 0.00378418 15.5018 0.500567 14.6155 1.38485C13.7293 2.26913 13.2314 3.46846 13.2314 4.71902C13.2291 5.53702 13.4471 6.34062 13.8627 7.04571C14.2783 7.7508 14.8762 8.33147 15.5939 8.72694V20.0426H15.8304C10.8315 24.5808 6.84033 30.1131 4.11384 36.2835C1.38735 42.4538 -0.0140387 49.1255 -0.000112721 55.8689C-0.0616764 60.9177 0.737183 65.9402 2.36234 70.7219C12.5233 112.933 65.4494 120 65.4494 120V102.79C75.2473 99.4367 83.7492 93.1107 89.7651 84.6973C95.7811 76.2839 99.01 66.2042 98.9999 55.8689ZM12.9949 49.7442C14.1606 40.8756 18.5189 32.7327 25.2572 26.8335C31.9954 20.9343 40.6538 17.6815 49.6182 17.6815C58.5825 17.6815 67.2409 20.9343 73.9792 26.8335C80.7174 32.7327 85.0757 40.8756 86.2414 49.7442H12.9949Z" fill="#434B5D"/>
<path d="M49.6009 97.0983C71.9255 97.0983 90.0231 79.0405 90.0231 56.7651C90.0231 34.4898 71.9255 16.432 49.6009 16.432C27.2764 16.432 9.17871 34.4898 9.17871 56.7651C9.17871 79.0405 27.2764 97.0983 49.6009 97.0983Z" fill="#434B5D"/>
<path fill-rule="evenodd" clip-rule="evenodd" d="M45.7144 33.041C43.5464 33.041 42.022 34.1427 40.9122 34.9448C40.7547 35.0586 40.6057 35.1664 40.4643 35.2641C39.8501 35.6886 39.3988 35.9309 38.9575 36.0041C38.568 36.0687 38.0594 36.0202 37.3045 35.5614L35.6526 36.4904C35.6526 38.1669 36.6046 39.8958 37.9926 41.1705C39.4041 42.4667 41.3861 43.4108 43.6489 43.4108C45.3288 43.4108 47.1688 42.8191 48.7205 41.747C48.7508 42.1669 48.8124 42.5917 48.9074 43.0188C47.1517 43.1473 45.581 43.6995 44.2487 44.7134C42.7229 45.8747 41.6049 47.5688 40.8464 49.6891C40.1313 51.688 39.1348 53.2263 38.0644 54.8787C37.6508 55.5172 37.2262 56.1726 36.8026 56.8782C35.3074 59.3685 34.0444 62.2035 34.0444 66.4102C34.0444 74.6205 40.7919 81.0411 49.7246 81.0411C58.6574 81.0411 65.4049 74.6206 65.4049 66.4102C65.4049 62.2035 64.142 59.3685 62.6468 56.8782C62.2233 56.1729 61.7989 55.5176 61.3855 54.8794L61.3852 54.8791L61.385 54.8788C60.3146 53.2263 59.3181 51.688 58.603 49.6891C57.8444 47.5687 56.7264 45.8746 55.2006 44.7134C53.8632 43.6956 52.2856 43.1431 50.5219 43.0173C50.2011 38.9861 52.1782 36.8795 56.3923 36.8795L56.5334 33.0428C54.0151 33.0428 51.8284 34.2391 50.4099 36.0773C50.2025 35.5729 49.9218 35.1046 49.5634 34.6908C48.6546 33.6417 47.3281 33.041 45.7144 33.041ZM50.4519 66.0581C51.3967 66.0581 52.1627 65.2922 52.1627 64.3474C52.1627 63.4026 51.3967 62.6367 50.4519 62.6367C49.507 62.6367 48.741 63.4026 48.741 64.3474C48.741 65.2922 49.507 66.0581 50.4519 66.0581ZM55.3763 66.0581C56.3212 66.0581 57.0871 65.2922 57.0871 64.3474C57.0871 63.4026 56.3212 62.6367 55.3763 62.6367C54.4314 62.6367 53.6655 63.4026 53.6655 64.3474C53.6655 65.2922 54.4314 66.0581 55.3763 66.0581ZM49.291 68.2255C49.291 70.0686 50.7285 71.6237 52.9143 71.6237C55.1001 71.6237 56.5376 70.0686 56.5376 68.2255H59.0471C59.0471 71.5113 56.4286 74.1332 52.9143 74.1332C49.4 74.1332 46.7815 71.5113 46.7815 68.2255H49.291Z" fill="white"/>
</g>
<defs>
<clipPath id="clip0_262_1392">
<rect width="99" height="120" fill="white"/>
</clipPath>
</defs>
</svg>
