<svg xmlns="http://www.w3.org/2000/svg" width="18.739" height="26.296" viewBox="0 0 18.739 26.296"><path d="M2.961-9.451H5.285L1.158-5.306,3.644,0H1.406L-.38-4.025l-1.162.82L-2.2,0H-4.217L-1.4-13.3H.611Q-.543-7.938-.752-7.062T-1.26-5.127h.034ZM10.685.507a4.786,4.786,0,0,1,2.867.718,2.47,2.47,0,0,1,.97,2.119,3,3,0,0,1-.739,2.076,3.563,3.563,0,0,1-2.047,1.085v.068a2.58,2.58,0,0,1,1.431.884,2.455,2.455,0,0,1,.508,1.568,3.576,3.576,0,0,1-1.282,2.914A5.436,5.436,0,0,1,8.831,13h-4.2L7.276.507ZM8.215,5.668h1.7a2.885,2.885,0,0,0,1.837-.517A1.765,1.765,0,0,0,12.4,3.686q0-1.47-1.906-1.47H8.95Zm-1.2,5.614H8.916a3.034,3.034,0,0,0,1.97-.581A2.015,2.015,0,0,0,11.6,9.044a1.591,1.591,0,0,0-.513-1.277,2.251,2.251,0,0,0-1.5-.44H7.874Z" transform="translate(4.217 13.296)" fill="#22242b"/></svg>