<svg xmlns="http://www.w3.org/2000/svg" width="30.001" height="35" viewBox="0 0 30.001 35"><g transform="translate(16)"><path d="M1589.452,344.033h14v13h-14Z" transform="translate(-1589.452 -344.033)" fill="none"/><path d="M1589.452,344.033h2v1h-1v2h-1Zm3,0h2v1h-2Zm3,0h2v1h-2Zm3,0h2v1h-2Zm3,0h2v1h0v2h-1v-2h-1Zm1,4h1v2h-1Zm0,3h1v2h-1Zm0,3h1v2h0v1h-2v-1h1Zm-4,2h2v1h-2Zm-3,0h2v1h-2Zm-3,0h2v1h-2Zm-3,0h2v1h-2Zm0-2h1v2h-1Zm0-3h1v2h-1Zm0-3h1v2h-1Z" transform="translate(-1589.452 -344.033)" fill="#2fa381"/></g><g transform="translate(16 22)"><path d="M1589.452,346.233h14v13h-14Z" transform="translate(-1589.452 -346.233)" fill="none"/><path d="M1589.452,346.233h2v1h-1v2h-1Zm3,0h2v1h-2Zm3,0h2v1h-2Zm3,0h2v1h-2Zm3,0h2v1h0v2h-1v-2h-1Zm1,4h1v2h-1Zm0,3h1v2h-1Zm0,3h1v2h0v1h-2v-1h1Zm-4,2h2v1h-2Zm-3,0h2v1h-2Zm-3,0h2v1h-2Zm-3,0h2v1h-2Zm0-2h1v2h-1Zm0-3h1v2h-1Zm0-3h1v2h-1Z" transform="translate(-1589.452 -346.233)" fill="#2fa381"/></g><g transform="translate(0 6)"><path d="M1587.852,344.633h14v22h-14Z" transform="translate(-1587.852 -344.633)" fill="none"/><path d="M1587.852,344.633h2v1h-1v2h-1Zm3,0h2v1h-2Zm3,0h2v1h-2Zm3,0h2v1h-2Zm3,0h2v1h0v2h-1v-2h-1Zm1,4h1v2h-1Zm0,3h1v2h-1Zm0,3h1v2h-1Zm0,3h1v2h-1Zm0,3h1v2h-1Zm0,3h1v2h0v1h-2v-1h1Zm-4,2h2v1h-2Zm-3,0h2v1h-2Zm-3,0h2v1h-2Zm-3,0h2v1h-2Zm0-2h1v2h-1Zm0-3h1v2h-1Zm0-3h1v2h-1Zm0-3h1v2h-1Zm0-3h1v2h-1Zm0-3h1v2h-1Z" transform="translate(-1587.852 -344.633)" fill="#2fa381"/></g></svg>