<svg xmlns="http://www.w3.org/2000/svg" width="30" height="35" viewBox="0 0 30 35"><path d="M1607.852,344.033h-14v13h14Z" transform="translate(-1593.852 -344.033)" fill="none"/><path d="M1593.852,344.033h2v1h-1v2h-1Zm3,0h2v1h-2Zm3,0h2v1h-2Zm3,0h2v1h-2Zm3,0h2v1h0v2h-1v-2h-1Zm1,4h1v2h-1Zm0,3h1v2h-1Zm0,3h1v2h0v1h-2v-1h1Zm-4,2h2v1h-2Zm-3,0h2v1h-2Zm-3,0h2v1h-2Zm-3,0h2v1h-2Zm0-2h1v2h-1Zm0-3h1v2h-1Zm0-3h1v2h-1Z" transform="translate(-1593.852 -344.033)" fill="#2fa381"/><g transform="translate(0 22)"><path d="M1607.852,346.233h-14v13h14Z" transform="translate(-1593.852 -346.233)" fill="none"/><path d="M1593.852,346.233h2v1h-1v2h-1Zm3,0h2v1h-2Zm3,0h2v1h-2Zm3,0h2v1h-2Zm3,0h2v1h0v2h-1v-2h-1Zm1,4h1v2h-1Zm0,3h1v2h-1Zm0,3h1v2h0v1h-2v-1h1Zm-4,2h2v1h-2Zm-3,0h2v1h-2Zm-3,0h2v1h-2Zm-3,0h2v1h-2Zm0-2h1v2h-1Zm0-3h1v2h-1Zm0-3h1v2h-1Z" transform="translate(-1593.852 -346.233)" fill="#2fa381"/></g><g transform="translate(16 6)"><path d="M1609.452,344.633h-14v22h14Z" transform="translate(-1595.452 -344.633)" fill="none"/><path d="M1595.452,344.633h2v1h-1v2h-1Zm3,0h2v1h-2Zm3,0h2v1h-2Zm3,0h2v1h-2Zm3,0h2v1h0v2h-1v-2h-1Zm1,4h1v2h-1Zm0,3h1v2h-1Zm0,3h1v2h-1Zm0,3h1v2h-1Zm0,3h1v2h-1Zm0,3h1v2h0v1h-2v-1h1Zm-4,2h2v1h-2Zm-3,0h2v1h-2Zm-3,0h2v1h-2Zm-3,0h2v1h-2Zm0-2h1v2h-1Zm0-3h1v2h-1Zm0-3h1v2h-1Zm0-3h1v2h-1Zm0-3h1v2h-1Zm0-3h1v2h-1Z" transform="translate(-1595.452 -344.633)" fill="#2fa381"/></g></svg>