<svg xmlns="http://www.w3.org/2000/svg" width="29.429" height="13.467" viewBox="0 0 29.429 13.467"><path d="M-6.75,0H-8.767V-5.828a2.643,2.643,0,0,0-.41-1.619,1.514,1.514,0,0,0-1.282-.534,1.955,1.955,0,0,0-1.7.756,4.437,4.437,0,0,0-.543,2.516V0h-2.008V-9.451h1.572l.282,1.239h.1a2.618,2.618,0,0,1,1.141-1.042,3.678,3.678,0,0,1,1.645-.367A2.874,2.874,0,0,1-7.084-8.135h.137A2.881,2.881,0,0,1-5.768-9.229a3.742,3.742,0,0,1,1.743-.393,3.174,3.174,0,0,1,2.465.854A3.784,3.784,0,0,1-.786-6.161V0H-2.794V-5.828a2.622,2.622,0,0,0-.414-1.619,1.526,1.526,0,0,0-1.286-.534,1.993,1.993,0,0,0-1.713.731A3.766,3.766,0,0,0-6.75-5.007ZM10.4-4.742A5.158,5.158,0,0,1,9.211-1.128,4.256,4.256,0,0,1,5.9.171a4.531,4.531,0,0,1-2.341-.6A3.949,3.949,0,0,1,2-2.145a5.85,5.85,0,0,1-.547-2.6A5.123,5.123,0,0,1,2.632-8.331a4.276,4.276,0,0,1,3.324-1.29A4.163,4.163,0,0,1,9.2-8.3,5.1,5.1,0,0,1,10.4-4.742Zm-6.879,0q0,3.273,2.418,3.273,2.393,0,2.393-3.273,0-3.239-2.41-3.239a2.055,2.055,0,0,0-1.833.837A4.262,4.262,0,0,0,3.521-4.742ZM14.714,0H12.706V-13.3h2.008Z" transform="translate(14.714 13.296)" fill="#22242b"/></svg>