<svg xmlns="http://www.w3.org/2000/svg" xmlns:xlink="http://www.w3.org/1999/xlink" width="349.957" height="87.246" viewBox="0 0 349.957 87.246"><defs><filter id="a" x="0" y="0" width="349.957" height="87.246" filterUnits="userSpaceOnUse"><feOffset dy="3" input="SourceAlpha"/><feGaussianBlur stdDeviation="5" result="b"/><feFlood flood-opacity="0.071"/><feComposite operator="in" in2="b"/><feComposite in="SourceGraphic"/></filter><linearGradient id="c" x1="1" x2="-0.007" y2="1" gradientUnits="objectBoundingBox"><stop offset="0" stop-color="#e5e5e5"/><stop offset="1" stop-color="#dbdbdb"/></linearGradient><linearGradient id="d" x1="1.019" x2="0" y2="1.017" gradientUnits="objectBoundingBox"><stop offset="0" stop-color="#fe9328"/><stop offset="1" stop-color="#fe5928"/></linearGradient><linearGradient id="e" x1="0.5" x2="0.5" y2="1" xlink:href="#d"/></defs><g transform="translate(-542 -681)"><g transform="matrix(1, 0, 0, 1, 542, 681)" filter="url(#a)"><rect width="319.957" height="57.246" transform="translate(15 12)" fill="#fff"/></g><rect width="319.957" height="26.626" transform="translate(557 723.62)" fill="url(#c)"/><g transform="translate(557 698.103)" opacity="0.38"><path d="M319.115,6.324v.3h-.842V5.119h-.842v-1.2h-.842V5.721h-.842v.6h-.842V1.506h-.842V3.915h-.842v1.2h-.842V2.71h-.842V4.216H310.7V0h-.842V1.506h-.842V.6h-.842V2.409h-.842V0h-.842V1.506h-.842V.6H304.8V2.409h-.842V.9h-1.684V.3h-.842V.9h-.842v.3h-.842V.6h-.842V2.108h-.842V.6h-.842v.6h-.842V0h-.842V1.807H294.7V.9h-2.526v.6h-.842V.9h-.842v.3h-.842V.9h-3.368V2.409h-.842V.9h-1.684V.3h-.842V.9h-.842v.3h-.842V.6h-.842V2.108h-.842V.9h-1.684V.3h-.842V.9h-.842v.3h-.842V.6h-.842V2.108h-.842V.6h-.842v.6h-.842V0h-.842V1.807h-.842V.9h-.842V2.71h-1.684v-1.2h-.842V.9h-.842v.3h-.842V2.71H262.7v.9h-.842v-1.2h-.842V.9h-1.684V.3h-.842V.9h-.842v.3h-.842V.6h-.842V2.108h-.842V5.119h-.842v-1.2h-.842V5.721H252.6v.6h-.842V3.312h-.842v.6h-.842v1.2h-.842V3.614h-.842v.6h-.842V1.2H246.7v.3h-.842V.6h-.842V2.409h-.842V0h-.842V1.506h-.842V.6h-.842V2.409h-.842V.9h-.842V0h-.842V1.506h-.842V.6h-.842V2.409H236.6V.9h-1.684V.3h-.842V.9h-.842v.3h-.842V.6h-.842V2.108h-.842V.6h-.842v.6h-.842V0h-.842V1.807h-.842V.9h-2.526v.6h-.842V.9h-.842v.3h-.842V.9h-3.368V2.409h-.842V.9h-1.684V.3h-.842V.9h-.842v.3h-.842V.6h-.842V2.108h-.842V.9H210.5V.3h-.842V.9h-.842v.3h-.842V.6h-.842V2.108h-.842V.6h-.842v.6H204.6V0h-.842V1.807h-.842V.9h-.842V2.71h-1.684v-1.2h-.842V.9h-.842v.3h-.842V2.71h-2.526v.9H194.5v-1.2h-.842V.9h-1.684V.3h-.842V.9h-.842v.3h-.842V.6h-.842V2.108h-.842V5.119h-.842v-1.2h-.842V5.721h-.842v.6H184.4V3.312h-.842v.6h-.842v1.2h-.842V3.614h-.842v.6h-.842V1.2h-.842v.3H178.5V.6h-.842V2.409h-.842V0h-.842V1.506h-.842V.6h-.842V2.409h-.842V.9h-2.526v.6h-.842V.9h-.842v.3H168.4V.9H165.03V2.409h-.842V.9H162.5V.3h-.842V.9h-.842v.3h-.842V.6h-.842V2.108h-.842V.9h-1.684V.3h-.842V.9h-.842v.3h-.842V.6h-.842V2.108H152.4V.6h-.842v.6h-.842V0h-.842V1.807h-.842V.9h-.842V2.71h-.842V5.721h-.842v.6h-.842V3.312h-.842v.6h-.842v1.2h-.842V3.614H142.3v.6h-.842V1.2h-.842V4.818h-.842v-.9h-.842V5.721h-.842V3.312h-.842V4.818H136.4v-.9h-.842V5.721h-.842V4.216h-2.526v.6h-.842v-.6h-.842v.3h-.842v-.3H126.3V5.721h-.842V4.216h-1.684v-.6h-.842v.6h-.842v.3h-.842v-.6H120.4V5.42h-.842v-1.2h-1.684v-.6h-.842v.6h-.842v.3h-.842v-.6h-.842V5.42h-.842V3.915h-.842v.6h-.842v-1.2h-.842V5.119H110.3v-.9h-.842V6.023h-.842V4.216h-2.526v.6h-.842v-.6h-.842v.3h-.842v-.3h-.842V6.324H100.2v-.6h-.842V4.216H97.671v-.6h-.842v.6h-.842v.3h-.842v-.6H94.3V5.42h-.842v-1.2H91.777v-.6h-.842v.6h-.842v.3h-.842v-.6h-.842V5.42h-.842V3.915h-.842v.6h-.842v-1.2h-.842V5.119H84.2v-.9h-.842V6.023h-.842V2.71h-.842V5.721h-.842v.6h-.842V3.312h-.842v.6h-.842v1.2h-.842V3.614h-.842v.6h-.842V1.2h-.842V4.818H74.1v-.9h-.842V5.721h-.842V3.312h-.842V4.818h-.842v-.9h-.842V5.721h-.842V4.216H68.2v.3H66.517v.572h-.842V6.324H63.149v.9H60.623V5.962h-.842V4.216H58.1v-.6h-.842v.6h-.842v.3h-.842v-.6h-.842V5.42h-.842v-1.2H52.2v-.6h-.842v.6H50.52v.3h-.842v-.6h-.842V5.42h-.842V3.915h-.842v.6H46.31v-1.2h-.842V5.119h-.842v-.9h-.842V6.023h-.842V4.216H40.416v.6h-.842v-.6h-.842v.3H37.89v-.3h-.842V6.324h-.842v-.6h-.842v1.2h-.842V4.517H32.838V6.926H32v-.6h-.842v-.9h-.842v.9H29.47v.6h-.842v-.6h-.842v1.2h-.842v-1.2H25.26v1.2h-.842v-1.2H22.734v-.6h-.842v.6H21.05v.6h-.842v-.6H18.524V8.13h-.842V6.324H16v-.9h-.842v.9h-.842v1.2H12.63v-1.2h-.842v-.9h-.842V6.926H10.1v-.6H9.262v1.2H8.42v-1.2H6.736v1.2H5.894v-.3H5.052v-.3H4.21v1.2H1.684v.6H.842v-.6H0v2.409H319.957V6.324Z" transform="translate(0 0)" fill="#6685cc" fill-rule="evenodd" opacity="0.27"/><path d="M134.719,35H0v2.409H.842v-.6h.842v.6H4.21v1.2h.842v-.3h.842v-.3h.842v1.2H8.42v-1.2h.842v1.2H10.1v-.6h.842v1.506h.842v-.9h.842v-1.2h1.684v1.2h.842v.9H16v-.9h1.684V37.409h.842v1.807h1.684v-.6h.842v.6h.842v.6h.842v-.6h1.684v-1.2h.842v1.2h1.684v-1.2h.842v1.2h.842v-.6h.842v.6h.842v.9h.842v-.9H32v-.6h.842v2.409h1.684V38.614h.842v1.2h.842v-.6h.842v2.108h.842v-.3h.842v.3h.842v-.6h.842v.6h2.526V39.517h.842v1.807h.842v-.9h.842v1.807h.842v-1.2h.842v.6h.842V40.119h.842v1.506h.842v-.6h.842v.3h.842v.6H52.2v-.6h1.684v-1.2h.842v1.506h.842v-.6h.842v.3h.842v.6H58.1v-.6h1.684V39.577h.842V38.312h2.526v.9h2.526V40.45h.842v.572H68.2v.3h.842V39.818h.842v1.807h.842v-.9h.842v1.506h.842V39.818h.842v1.807H74.1v-.9h.842v3.614h.842V41.324h.842v.6h.842V40.42h.842v1.2h.842v.6h.842V39.216h.842v.6h.842v3.011h.842V39.517h.842v1.807H84.2v-.9h.842v1.807h.842v-1.2h.842v.6h.842V40.119h.842v1.506h.842v-.6h.842v.3h.842v.6h.842v-.6h1.684v-1.2H94.3v1.506h.842v-.6h.842v.3h.842v.6h.842v-.6h1.684V39.818h.842v-.6h2.526v2.108h.842v-.3h.842v.3h.842v-.6h.842v.6h2.526V39.517h.842v1.807h.842v-.9h.842v1.807h.842v-1.2h.842v.6h.842V40.119h.842v1.506h.842v-.6h.842v.3h.842v.6h.842v-.6h1.684v-1.2h.842v1.506h.842v-.6h.842v.3h.842v.6h.842v-.6h1.684V39.818h.842v1.506h3.368v-.3h.842v.3h.842v-.6h.842v.6h2.526V39.818h.842v1.807h.842v-.9h.842v1.506h.842V39.818h.842v1.807h.842v-.9h.842v3.614h.842V41.324h.842v.6h.842V40.42h.842v1.2h.842v.6h.842V39.216h.842v.6h.842v3.011h.842v1.807h.842v-.9h.842V45.54h.842v-1.2h.842v.6h.842V43.432h.842v1.506h.842v-.6h.842v.3h.842v.6h.842v-.6h1.684v-1.2h.842v1.506h.842v-.6h.842v.3h.842v.6h.842v-.6h1.684V43.13h.842v1.506H168.4v-.3h.842v.3h.842v-.6h.842v.6h2.526V43.13h.842v1.807h.842v-.9h.842V45.54h.842V43.13h.842v1.807h.842v-.9h.842v.3h.842V41.324h.842v.6h.842V40.42h.842v1.2h.842v.6h.842V39.216h.842v.6h.842v1.807h.842v-1.2h.842v3.011h.842v1.506h.842v-.6h.842v.3h.842v.6h.842v-.6h1.684V43.13h.842v-1.2h.842v.9h2.526v1.506h.842v.3h.842v-.6h.842v-1.2h1.684v1.807h.842v-.9h.842V45.54h.842v-1.2h.842v.6h.842V43.432h.842v1.506h.842v-.6h.842v.3h.842v.6h.842v-.6h1.684v-1.2h.842v1.506h.842v-.6h.842v.3h.842v.6h.842v-.6h1.684V43.13h.842v1.506h3.368v-.3h.842v.3h.842v-.6h.842v.6h2.526v-.9h.842V45.54h.842v-1.2h.842v.6h.842V43.432h.842v1.506h.842v-.6h.842v.3h.842v.6h.842v-.6H236.6V43.13h.842v1.807h.842v-.9h.842V45.54h.842v-.9h.842V43.13h.842v1.807h.842v-.9h.842V45.54h.842V43.13h.842v1.807h.842v-.9h.842v.3h.842V41.324h.842v.6h.842V40.42h.842v1.2h.842v.6h.842V39.216h.842v.6h.842v1.807h.842v-1.2h.842v3.011h.842v1.506h.842v-.6h.842v.3h.842v.6h.842v-.6h1.684V43.13h.842v-1.2h.842v.9h2.526v1.506h.842v.3h.842v-.6h.842v-1.2h1.684v1.807h.842v-.9h.842V45.54h.842v-1.2h.842v.6h.842V43.432h.842v1.506h.842v-.6h.842v.3h.842v.6h.842v-.6h1.684v-1.2h.842v1.506h.842v-.6h.842v.3h.842v.6h.842v-.6h1.684V43.13h.842v1.506h3.368v-.3h.842v.3h.842v-.6h.842v.6H294.7v-.9h.842V45.54h.842v-1.2h.842v.6h.842V43.432h.842v1.506h.842v-.6h.842v.3h.842v.6h.842v-.6h1.684V43.13h.842v1.807h.842v-.9h.842V45.54h.842V43.13h.842v1.807h.842v-.9h.842V45.54h.842V41.324h.842v1.506h.842V40.42h.842v1.2h.842v2.409h.842V39.216h.842v.6h.842v1.807h.842v-1.2h.842V38.915h.842v.3h.842V35Z" transform="translate(0 -24.461)" fill="#6685cc" fill-rule="evenodd"/></g><rect width="122.924" height="30.62" transform="translate(557 693)" fill="#4357ae" opacity="0.08"/><rect width="26.626" height="26.626" transform="translate(557 723.62)" fill="url(#d)"/><rect width="26.626" height="26.626" transform="translate(850.331 723.62)" fill="#b4b4b4" opacity="0.21"/><g transform="translate(858.763 733.383)"><path d="M4.44,15.857a.4.4,0,0,1-.66.31l-2.2-1.826H.4a.4.4,0,0,1-.4-.4V12.332a.4.4,0,0,1,.4-.4H1.577L3.78,10.1a.4.4,0,0,1,.66.31v5.443Zm1.549-.63H5.96a.4.4,0,0,1-.285-.118l-.054-.054a.4.4,0,0,1-.039-.525,2.344,2.344,0,0,0-.062-2.872.4.4,0,0,1,.028-.539l.054-.054a.394.394,0,0,1,.305-.117A.4.4,0,0,1,6.2,11.1a3.228,3.228,0,0,1,.084,3.97A.4.4,0,0,1,5.989,15.227Zm1.666,1.246a.4.4,0,0,1-.291.143H7.348a.4.4,0,0,1-.285-.118l-.053-.053a.4.4,0,0,1-.023-.544,4.3,4.3,0,0,0-.071-5.612.4.4,0,0,1,.016-.552l.053-.053a.392.392,0,0,1,.3-.118.4.4,0,0,1,.29.135,5.175,5.175,0,0,1,.085,6.772Z" transform="translate(0 -9.565)" fill="#fff"/></g><path d="M10.751,3.466,5.769.03A.172.172,0,0,0,5.5.172V7.043a.172.172,0,0,0,.269.141l4.982-3.436a.172.172,0,0,0,0-.283Z" transform="translate(563.038 733.383)" fill="#fff"/><rect width="203.246" height="1.775" transform="translate(630.666 736.046)" fill="#b1b1b1"/><circle cx="4.438" cy="4.438" r="4.438" transform="translate(697.231 732.495)" fill="url(#e)"/><text transform="translate(600.011 737.939)" fill="#fff" font-size="5" font-family="OpenSans-SemiBold, Open Sans" font-weight="600" letter-spacing="0.019em"><tspan x="0" y="0">0:00:00</tspan></text></g></svg>