<svg xmlns="http://www.w3.org/2000/svg" xmlns:xlink="http://www.w3.org/1999/xlink" width="288.489" height="138.971" viewBox="0 0 288.489 138.971"><defs><filter id="a" x="-13.977" y="-55" width="318.489" height="220.672" filterUnits="userSpaceOnUse"><feOffset dy="3" input="SourceAlpha"/><feGaussianBlur stdDeviation="5" result="b"/><feFlood flood-opacity="0.102"/><feComposite operator="in" in2="b"/><feComposite in="SourceGraphic"/></filter></defs><g transform="translate(-337 -210)"><g transform="translate(337 210.001)"><g fill="#fff"><path d="M 283.4887084960938 138.4700012207031 L 4.999997138977051 138.4700012207031 C 2.518675565719604 138.4700012207031 0.4999971091747284 136.4513244628906 0.4999971091747284 133.9700012207031 L 0.4999971091747284 5.000000476837158 C 0.4999971091747284 2.518679141998291 2.518675565719604 0.5000005960464478 4.999997138977051 0.5000005960464478 L 283.4887084960938 0.5000005960464478 C 285.9700317382813 0.5000005960464478 287.9887084960938 2.518679141998291 287.9887084960938 5.000000476837158 L 287.9887084960938 133.9700012207031 C 287.9887084960938 136.4513244628906 285.9700317382813 138.4700012207031 283.4887084960938 138.4700012207031 Z" stroke="none"/><path d="M 5 1 C 2.794403076171875 1 1 2.794387817382813 1 5 L 1 133.9700012207031 C 1 136.1756134033203 2.794403076171875 137.9700012207031 5 137.9700012207031 L 283.4887084960938 137.9700012207031 C 285.6943054199219 137.9700012207031 287.4887084960938 136.1756134033203 287.4887084960938 133.9700012207031 L 287.4887084960938 5 C 287.4887084960938 2.794387817382813 285.6943054199219 1 283.4887084960938 1 L 5 1 M 5 0 L 283.4887084960938 0 C 286.2500915527344 0 288.4887084960938 2.238571166992188 288.4887084960938 5 L 288.4887084960938 133.9700012207031 C 288.4887084960938 136.7314300537109 286.2500915527344 138.9700012207031 283.4887084960938 138.9700012207031 L 5 138.9700012207031 C 2.238555908203125 138.9700012207031 0 136.7314300537109 0 133.9700012207031 L 0 5 C 0 2.238571166992188 2.238555908203125 0 5 0 Z" stroke="none" fill="#dbdbdb"/></g><path d="M1.374,15V5.006H2.536v8.941H6.945V15Zm13.563-3.753a4.133,4.133,0,0,1-.923,2.861,3.25,3.25,0,0,1-2.55,1.029,3.377,3.377,0,0,1-1.784-.472,3.113,3.113,0,0,1-1.2-1.354,4.717,4.717,0,0,1-.424-2.064,4.127,4.127,0,0,1,.916-2.854,3.24,3.24,0,0,1,2.543-1.022,3.169,3.169,0,0,1,2.5,1.046A4.115,4.115,0,0,1,14.937,11.247Zm-5.708,0A3.556,3.556,0,0,0,9.8,13.435a1.993,1.993,0,0,0,1.688.752,2.006,2.006,0,0,0,1.692-.749,3.538,3.538,0,0,0,.578-2.191,3.481,3.481,0,0,0-.578-2.17,2.03,2.03,0,0,0-1.706-.742A2,2,0,0,0,9.8,9.066,3.52,3.52,0,0,0,9.229,11.247ZM20.344,7.371a4.44,4.44,0,0,1,.9.082l-.157,1.053a3.865,3.865,0,0,0-.82-.1,2,2,0,0,0-1.555.738,2.692,2.692,0,0,0-.646,1.839V15H16.926V7.508h.937l.13,1.388h.055a3.293,3.293,0,0,1,1-1.128A2.262,2.262,0,0,1,20.344,7.371Zm5.462,7.766a3.442,3.442,0,0,1-2.622-1.012,3.917,3.917,0,0,1-.96-2.81,4.344,4.344,0,0,1,.892-2.878,2.963,2.963,0,0,1,2.4-1.066A2.825,2.825,0,0,1,27.74,8.3a3.55,3.55,0,0,1,.82,2.444v.718H23.4a2.97,2.97,0,0,0,.667,2,2.305,2.305,0,0,0,1.781.684,6.035,6.035,0,0,0,2.393-.506v1.012a6.005,6.005,0,0,1-1.138.373A6.4,6.4,0,0,1,25.806,15.137ZM25.5,8.321a1.853,1.853,0,0,0-1.439.588,2.71,2.71,0,0,0-.632,1.627h3.917a2.5,2.5,0,0,0-.479-1.644A1.684,1.684,0,0,0,25.5,8.321ZM40.045,15V10.126a2.023,2.023,0,0,0-.383-1.343,1.481,1.481,0,0,0-1.189-.448,1.92,1.92,0,0,0-1.565.608,2.891,2.891,0,0,0-.506,1.873V15H35.267V10.126a2.023,2.023,0,0,0-.383-1.343,1.49,1.49,0,0,0-1.2-.448,1.853,1.853,0,0,0-1.562.639,3.459,3.459,0,0,0-.5,2.1V15H30.5V7.508h.923L31.6,8.533h.055a2.23,2.23,0,0,1,.906-.854,2.767,2.767,0,0,1,1.309-.308,2.226,2.226,0,0,1,2.3,1.271h.055a2.389,2.389,0,0,1,.971-.93,3.012,3.012,0,0,1,1.449-.342,2.537,2.537,0,0,1,1.9.653,2.921,2.921,0,0,1,.632,2.088V15Zm8.244,0H47.154V7.508h1.135Zm-1.23-9.522a.754.754,0,0,1,.191-.571.709.709,0,0,1,.95,0,.74.74,0,0,1,.2.567.752.752,0,0,1-.2.571.694.694,0,0,1-.95,0A.768.768,0,0,1,47.059,5.478Zm7.123,9.659a3.242,3.242,0,0,1-1.336-.27,2.513,2.513,0,0,1-1.015-.831h-.082a10.049,10.049,0,0,1,.082,1.244v3.083H50.7V7.508h.923l.157,1.025h.055a2.635,2.635,0,0,1,1.019-.889,3.1,3.1,0,0,1,1.333-.273,2.769,2.769,0,0,1,2.3,1.019,4.484,4.484,0,0,1,.81,2.857,4.458,4.458,0,0,1-.824,2.868A2.774,2.774,0,0,1,54.182,15.137Zm-.164-6.8a2.011,2.011,0,0,0-1.661.636,3.271,3.271,0,0,0-.526,2.023v.253a3.749,3.749,0,0,0,.526,2.259,2,2,0,0,0,1.688.68,1.756,1.756,0,0,0,1.521-.786,3.728,3.728,0,0,0,.55-2.167,3.588,3.588,0,0,0-.55-2.15A1.81,1.81,0,0,0,54.018,8.335Zm10.09,4.621a1.877,1.877,0,0,1-.779,1.613,3.663,3.663,0,0,1-2.187.567,4.757,4.757,0,0,1-2.324-.472V13.612a5.621,5.621,0,0,0,1.159.431,4.839,4.839,0,0,0,1.193.157,2.705,2.705,0,0,0,1.367-.284.977.977,0,0,0,.1-1.613,5.968,5.968,0,0,0-1.48-.735,8.025,8.025,0,0,1-1.487-.68,2.031,2.031,0,0,1-.656-.66,1.72,1.72,0,0,1-.215-.882A1.681,1.681,0,0,1,59.541,7.9a3.472,3.472,0,0,1,2.044-.53,5.98,5.98,0,0,1,2.365.492l-.4.923A5.429,5.429,0,0,0,61.5,8.321a2.352,2.352,0,0,0-1.217.253.782.782,0,0,0-.41.7.849.849,0,0,0,.154.513,1.518,1.518,0,0,0,.5.4,11.075,11.075,0,0,0,1.313.554,4.9,4.9,0,0,1,1.8.978A1.724,1.724,0,0,1,64.107,12.956ZM67.02,7.508v4.86a1.955,1.955,0,0,0,.417,1.367,1.7,1.7,0,0,0,1.306.451,2.13,2.13,0,0,0,1.719-.643,3.241,3.241,0,0,0,.543-2.1V7.508H72.14V15H71.2l-.164-1h-.062a2.262,2.262,0,0,1-.967.848,3.251,3.251,0,0,1-1.412.294,2.864,2.864,0,0,1-2.047-.649,2.764,2.764,0,0,1-.68-2.078v-4.9ZM84.1,15V10.126a2.023,2.023,0,0,0-.383-1.343,1.481,1.481,0,0,0-1.189-.448,1.92,1.92,0,0,0-1.565.608,2.891,2.891,0,0,0-.506,1.873V15H79.317V10.126a2.023,2.023,0,0,0-.383-1.343,1.49,1.49,0,0,0-1.2-.448,1.853,1.853,0,0,0-1.562.639,3.459,3.459,0,0,0-.5,2.1V15H74.546V7.508h.923l.185,1.025h.055a2.23,2.23,0,0,1,.906-.854,2.767,2.767,0,0,1,1.309-.308,2.226,2.226,0,0,1,2.3,1.271h.055a2.389,2.389,0,0,1,.971-.93,3.012,3.012,0,0,1,1.449-.342,2.537,2.537,0,0,1,1.9.653,2.921,2.921,0,0,1,.632,2.088V15ZM96.3,14h-.062a2.666,2.666,0,0,1-2.352,1.142,2.782,2.782,0,0,1-2.287-1,4.423,4.423,0,0,1-.817-2.857,4.5,4.5,0,0,1,.82-2.878,2.76,2.76,0,0,1,2.283-1.025,2.724,2.724,0,0,1,2.338,1.107h.089l-.048-.54-.027-.526V4.363h1.135V15h-.923Zm-2.27.191a2.066,2.066,0,0,0,1.685-.632,3.2,3.2,0,0,0,.523-2.041v-.239A3.76,3.76,0,0,0,95.713,9a2.012,2.012,0,0,0-1.692-.68,1.737,1.737,0,0,0-1.528.776,3.858,3.858,0,0,0-.53,2.191,3.7,3.7,0,0,0,.526,2.167A1.783,1.783,0,0,0,94.035,14.187Zm12.216-2.939a4.133,4.133,0,0,1-.923,2.861,3.25,3.25,0,0,1-2.55,1.029,3.377,3.377,0,0,1-1.784-.472,3.113,3.113,0,0,1-1.2-1.354,4.717,4.717,0,0,1-.424-2.064,4.127,4.127,0,0,1,.916-2.854,3.24,3.24,0,0,1,2.543-1.022,3.169,3.169,0,0,1,2.5,1.046A4.115,4.115,0,0,1,106.251,11.247Zm-5.708,0a3.556,3.556,0,0,0,.574,2.188,2.279,2.279,0,0,0,3.38,0,3.538,3.538,0,0,0,.578-2.191,3.481,3.481,0,0,0-.578-2.17,2.03,2.03,0,0,0-1.706-.742,2,2,0,0,0-1.682.731A3.52,3.52,0,0,0,100.543,11.247ZM109.375,15H108.24V4.363h1.135Zm8.873-3.753a4.133,4.133,0,0,1-.923,2.861,3.25,3.25,0,0,1-2.55,1.029,3.377,3.377,0,0,1-1.784-.472,3.113,3.113,0,0,1-1.2-1.354,4.717,4.717,0,0,1-.424-2.064,4.127,4.127,0,0,1,.916-2.854,3.24,3.24,0,0,1,2.543-1.022,3.169,3.169,0,0,1,2.5,1.046A4.115,4.115,0,0,1,118.248,11.247Zm-5.708,0a3.556,3.556,0,0,0,.574,2.188,2.279,2.279,0,0,0,3.38,0,3.538,3.538,0,0,0,.578-2.191,3.481,3.481,0,0,0-.578-2.17,2.03,2.03,0,0,0-1.706-.742,2,2,0,0,0-1.682.731A3.52,3.52,0,0,0,112.54,11.247Zm11.115-3.876a4.44,4.44,0,0,1,.9.082l-.157,1.053a3.865,3.865,0,0,0-.82-.1,2,2,0,0,0-1.555.738,2.692,2.692,0,0,0-.646,1.839V15h-1.135V7.508h.937L121.3,8.9h.055a3.293,3.293,0,0,1,1-1.128A2.262,2.262,0,0,1,123.655,7.371Zm10.767,5.585a1.877,1.877,0,0,1-.779,1.613,3.663,3.663,0,0,1-2.187.567,4.757,4.757,0,0,1-2.324-.472V13.612a5.621,5.621,0,0,0,1.159.431,4.839,4.839,0,0,0,1.193.157,2.705,2.705,0,0,0,1.367-.284.977.977,0,0,0,.1-1.613,5.968,5.968,0,0,0-1.48-.735,8.025,8.025,0,0,1-1.487-.68,2.031,2.031,0,0,1-.656-.66,1.72,1.72,0,0,1-.215-.882,1.681,1.681,0,0,1,.745-1.446,3.472,3.472,0,0,1,2.044-.53,5.98,5.98,0,0,1,2.365.492l-.4.923a5.429,5.429,0,0,0-2.044-.465,2.352,2.352,0,0,0-1.217.253.782.782,0,0,0-.41.7.849.849,0,0,0,.154.513,1.518,1.518,0,0,0,.5.4,11.075,11.075,0,0,0,1.313.554,4.9,4.9,0,0,1,1.8.978A1.724,1.724,0,0,1,134.422,12.956ZM137.4,15h-1.135V7.508H137.4Zm-1.23-9.522a.754.754,0,0,1,.191-.571.709.709,0,0,1,.95,0,.74.74,0,0,1,.2.567.752.752,0,0,1-.2.571.694.694,0,0,1-.95,0A.768.768,0,0,1,136.172,5.478Zm6.057,8.723a3.707,3.707,0,0,0,.581-.044,3.761,3.761,0,0,0,.444-.092v.868a2.074,2.074,0,0,1-.543.147,4.081,4.081,0,0,1-.646.058q-2.174,0-2.174-2.29V8.39h-1.073V7.843l1.073-.472.479-1.6h.656V7.508H143.2V8.39h-2.174V12.8a1.517,1.517,0,0,0,.321,1.039A1.118,1.118,0,0,0,142.229,14.2ZM153,15l-.226-1.066h-.055a3.153,3.153,0,0,1-1.118.954,3.407,3.407,0,0,1-1.391.25,2.5,2.5,0,0,1-1.747-.574,2.094,2.094,0,0,1-.632-1.634q0-2.27,3.63-2.379l1.271-.041v-.465a1.9,1.9,0,0,0-.379-1.3,1.56,1.56,0,0,0-1.213-.42,4.944,4.944,0,0,0-2.119.574l-.349-.868a5.333,5.333,0,0,1,1.213-.472,5.255,5.255,0,0,1,1.323-.171,2.854,2.854,0,0,1,1.986.595,2.482,2.482,0,0,1,.646,1.907V15Zm-2.563-.8a2.3,2.3,0,0,0,1.665-.581,2.15,2.15,0,0,0,.6-1.627v-.677l-1.135.048a4.128,4.128,0,0,0-1.952.42,1.268,1.268,0,0,0-.6,1.159,1.169,1.169,0,0,0,.373.937A1.546,1.546,0,0,0,150.432,14.2Zm15.292.8V10.126a2.023,2.023,0,0,0-.383-1.343,1.481,1.481,0,0,0-1.189-.448,1.92,1.92,0,0,0-1.565.608,2.891,2.891,0,0,0-.506,1.873V15h-1.135V10.126a2.023,2.023,0,0,0-.383-1.343,1.49,1.49,0,0,0-1.2-.448,1.853,1.853,0,0,0-1.562.639,3.459,3.459,0,0,0-.5,2.1V15h-1.135V7.508h.923l.185,1.025h.055a2.23,2.23,0,0,1,.906-.854,2.767,2.767,0,0,1,1.309-.308,2.226,2.226,0,0,1,2.3,1.271h.055a2.389,2.389,0,0,1,.971-.93,3.012,3.012,0,0,1,1.449-.342,2.537,2.537,0,0,1,1.9.653,2.921,2.921,0,0,1,.632,2.088V15Zm6.638.137a3.442,3.442,0,0,1-2.622-1.012,3.917,3.917,0,0,1-.96-2.81,4.344,4.344,0,0,1,.892-2.878,2.963,2.963,0,0,1,2.4-1.066A2.825,2.825,0,0,1,174.3,8.3a3.55,3.55,0,0,1,.82,2.444v.718h-5.161a2.97,2.97,0,0,0,.667,2,2.305,2.305,0,0,0,1.781.684,6.035,6.035,0,0,0,2.393-.506v1.012a6.005,6.005,0,0,1-1.138.373A6.4,6.4,0,0,1,172.361,15.137Zm-.308-6.815a1.853,1.853,0,0,0-1.439.588,2.71,2.71,0,0,0-.632,1.627H173.9a2.5,2.5,0,0,0-.479-1.644A1.684,1.684,0,0,0,172.054,8.321Zm7.417,5.879a3.707,3.707,0,0,0,.581-.044,3.761,3.761,0,0,0,.444-.092v.868a2.074,2.074,0,0,1-.543.147,4.081,4.081,0,0,1-.646.058q-2.174,0-2.174-2.29V8.39H176.06V7.843l1.073-.472.479-1.6h.656V7.508h2.174V8.39h-2.174V12.8a1.517,1.517,0,0,0,.321,1.039A1.118,1.118,0,0,0,179.471,14.2Zm3.712-.827.1.157q-.178.684-.513,1.589t-.7,1.685h-.854q.185-.711.407-1.757t.311-1.675ZM4.2,39.137a3.2,3.2,0,0,1-2.519-1A4.118,4.118,0,0,1,.786,35.3,4.247,4.247,0,0,1,1.692,32.4a3.261,3.261,0,0,1,2.581-1.025,5.121,5.121,0,0,1,1.08.116,3.558,3.558,0,0,1,.848.273l-.349.964a5.336,5.336,0,0,0-.82-.25,3.663,3.663,0,0,0-.786-.1q-2.283,0-2.283,2.912a3.468,3.468,0,0,0,.557,2.119,1.938,1.938,0,0,0,1.651.738,5.048,5.048,0,0,0,1.921-.4v1A4.094,4.094,0,0,1,4.2,39.137Zm10.138-3.89a4.133,4.133,0,0,1-.923,2.861,3.25,3.25,0,0,1-2.55,1.029,3.377,3.377,0,0,1-1.784-.472,3.113,3.113,0,0,1-1.2-1.354,4.717,4.717,0,0,1-.424-2.064,4.127,4.127,0,0,1,.916-2.854,3.24,3.24,0,0,1,2.543-1.022,3.169,3.169,0,0,1,2.5,1.046A4.115,4.115,0,0,1,14.335,35.247Zm-5.708,0A3.556,3.556,0,0,0,9.2,37.435a1.993,1.993,0,0,0,1.688.752,2.006,2.006,0,0,0,1.692-.749,3.538,3.538,0,0,0,.578-2.191,3.481,3.481,0,0,0-.578-2.17,2.03,2.03,0,0,0-1.706-.742,2,2,0,0,0-1.682.731A3.52,3.52,0,0,0,8.627,35.247ZM21.451,39V34.153a1.955,1.955,0,0,0-.417-1.367,1.7,1.7,0,0,0-1.306-.451,2.153,2.153,0,0,0-1.723.636,3.21,3.21,0,0,0-.547,2.1V39H16.324V31.508h.923l.185,1.025h.055a2.317,2.317,0,0,1,.978-.858,3.176,3.176,0,0,1,1.4-.3,2.846,2.846,0,0,1,2.037.653,2.778,2.778,0,0,1,.684,2.088V39Zm8.3-2.044a1.877,1.877,0,0,1-.779,1.613,3.663,3.663,0,0,1-2.187.567,4.757,4.757,0,0,1-2.324-.472V37.612a5.621,5.621,0,0,0,1.159.431,4.839,4.839,0,0,0,1.193.157,2.705,2.705,0,0,0,1.367-.284.977.977,0,0,0,.1-1.613,5.968,5.968,0,0,0-1.48-.735,8.025,8.025,0,0,1-1.487-.68,2.031,2.031,0,0,1-.656-.66,1.72,1.72,0,0,1-.215-.882,1.681,1.681,0,0,1,.745-1.446,3.472,3.472,0,0,1,2.044-.53,5.98,5.98,0,0,1,2.365.492l-.4.923a5.429,5.429,0,0,0-2.044-.465,2.352,2.352,0,0,0-1.217.253.782.782,0,0,0-.41.7.849.849,0,0,0,.154.513,1.518,1.518,0,0,0,.5.4,11.075,11.075,0,0,0,1.313.554,4.9,4.9,0,0,1,1.8.978A1.724,1.724,0,0,1,29.75,36.956Zm5.011,2.181a3.442,3.442,0,0,1-2.622-1.012,3.917,3.917,0,0,1-.96-2.81,4.344,4.344,0,0,1,.892-2.878,2.963,2.963,0,0,1,2.4-1.066A2.825,2.825,0,0,1,36.7,32.3a3.55,3.55,0,0,1,.82,2.444v.718H32.354a2.97,2.97,0,0,0,.667,2,2.305,2.305,0,0,0,1.781.684,6.035,6.035,0,0,0,2.393-.506v1.012a6.005,6.005,0,0,1-1.138.373A6.4,6.4,0,0,1,34.761,39.137Zm-.308-6.815a1.853,1.853,0,0,0-1.439.588,2.71,2.71,0,0,0-.632,1.627H36.3a2.5,2.5,0,0,0-.479-1.644A1.684,1.684,0,0,0,34.453,32.321Zm7.991,6.815a3.2,3.2,0,0,1-2.519-1,4.118,4.118,0,0,1-.892-2.833,4.247,4.247,0,0,1,.906-2.905,3.261,3.261,0,0,1,2.581-1.025,5.121,5.121,0,0,1,1.08.116,3.558,3.558,0,0,1,.848.273l-.349.964a5.336,5.336,0,0,0-.82-.25,3.663,3.663,0,0,0-.786-.1q-2.283,0-2.283,2.912a3.468,3.468,0,0,0,.557,2.119,1.938,1.938,0,0,0,1.651.738,5.048,5.048,0,0,0,1.921-.4v1A4.094,4.094,0,0,1,42.444,39.137Zm6.091-.937a3.707,3.707,0,0,0,.581-.044,3.761,3.761,0,0,0,.444-.092v.868a2.074,2.074,0,0,1-.543.147,4.081,4.081,0,0,1-.646.058q-2.174,0-2.174-2.29V32.39H45.124v-.547l1.073-.472.479-1.6h.656v1.736h2.174v.882H47.332V36.8a1.517,1.517,0,0,0,.321,1.039A1.118,1.118,0,0,0,48.535,38.2Zm5.688.937A3.442,3.442,0,0,1,51.6,38.125a3.917,3.917,0,0,1-.96-2.81,4.344,4.344,0,0,1,.892-2.878,2.963,2.963,0,0,1,2.4-1.066,2.825,2.825,0,0,1,2.229.926,3.55,3.55,0,0,1,.82,2.444v.718H51.816a2.97,2.97,0,0,0,.667,2,2.305,2.305,0,0,0,1.781.684,6.035,6.035,0,0,0,2.393-.506v1.012a6.005,6.005,0,0,1-1.138.373A6.4,6.4,0,0,1,54.223,39.137Zm-.308-6.815a1.853,1.853,0,0,0-1.439.588,2.71,2.71,0,0,0-.632,1.627h3.917a2.5,2.5,0,0,0-.479-1.644A1.684,1.684,0,0,0,53.915,32.321ZM61.332,38.2a3.707,3.707,0,0,0,.581-.044,3.761,3.761,0,0,0,.444-.092v.868a2.074,2.074,0,0,1-.543.147,4.081,4.081,0,0,1-.646.058q-2.174,0-2.174-2.29V32.39H57.921v-.547l1.073-.472.479-1.6h.656v1.736H62.3v.882H60.129V36.8a1.517,1.517,0,0,0,.321,1.039A1.118,1.118,0,0,0,61.332,38.2Zm3.589-6.692v4.86a1.955,1.955,0,0,0,.417,1.367,1.7,1.7,0,0,0,1.306.451,2.13,2.13,0,0,0,1.719-.643,3.241,3.241,0,0,0,.543-2.1V31.508h1.135V39H69.1l-.164-1h-.062a2.262,2.262,0,0,1-.967.848,3.251,3.251,0,0,1-1.412.294,2.864,2.864,0,0,1-2.047-.649,2.765,2.765,0,0,1-.68-2.078v-4.9Zm10.944-.137a4.44,4.44,0,0,1,.9.082L76.6,32.506a3.865,3.865,0,0,0-.82-.1,2,2,0,0,0-1.555.738,2.692,2.692,0,0,0-.646,1.839V39H72.447V31.508h.937l.13,1.388h.055a3.293,3.293,0,0,1,1-1.128A2.262,2.262,0,0,1,75.865,31.371ZM86.406,39l-.226-1.066h-.055a3.153,3.153,0,0,1-1.118.954,3.407,3.407,0,0,1-1.391.25,2.5,2.5,0,0,1-1.747-.574,2.094,2.094,0,0,1-.632-1.634q0-2.27,3.63-2.379l1.271-.041v-.465a1.9,1.9,0,0,0-.379-1.3,1.56,1.56,0,0,0-1.213-.42,4.944,4.944,0,0,0-2.119.574l-.349-.868a5.332,5.332,0,0,1,1.213-.472,5.255,5.255,0,0,1,1.323-.171,2.854,2.854,0,0,1,1.986.595,2.482,2.482,0,0,1,.646,1.907V39Zm-2.563-.8a2.3,2.3,0,0,0,1.665-.581,2.15,2.15,0,0,0,.6-1.627v-.677l-1.135.048a4.128,4.128,0,0,0-1.952.42,1.268,1.268,0,0,0-.6,1.159,1.169,1.169,0,0,0,.373.937A1.546,1.546,0,0,0,83.843,38.2ZM94.685,38h-.062a2.666,2.666,0,0,1-2.352,1.142,2.782,2.782,0,0,1-2.287-1,4.423,4.423,0,0,1-.817-2.857,4.5,4.5,0,0,1,.82-2.878,2.76,2.76,0,0,1,2.283-1.025,2.724,2.724,0,0,1,2.338,1.107H94.7l-.048-.54-.027-.526V28.363h1.135V39h-.923Zm-2.27.191a2.066,2.066,0,0,0,1.685-.632,3.2,3.2,0,0,0,.523-2.041v-.239A3.76,3.76,0,0,0,94.093,33a2.012,2.012,0,0,0-1.692-.68,1.737,1.737,0,0,0-1.528.776,3.858,3.858,0,0,0-.53,2.191,3.7,3.7,0,0,0,.526,2.167A1.783,1.783,0,0,0,92.415,38.187ZM99.3,39H98.164V31.508H99.3Zm-1.23-9.522a.754.754,0,0,1,.191-.571.709.709,0,0,1,.95,0,.74.74,0,0,1,.2.567.752.752,0,0,1-.2.571.694.694,0,0,1-.95,0A.768.768,0,0,1,98.068,29.478Zm7.123,9.659a3.242,3.242,0,0,1-1.336-.27,2.513,2.513,0,0,1-1.015-.831h-.082a10.049,10.049,0,0,1,.082,1.244v3.083h-1.135V31.508h.923l.157,1.025h.055a2.635,2.635,0,0,1,1.019-.889,3.1,3.1,0,0,1,1.333-.273,2.769,2.769,0,0,1,2.3,1.019,4.484,4.484,0,0,1,.81,2.857,4.458,4.458,0,0,1-.824,2.868A2.774,2.774,0,0,1,105.191,39.137Zm-.164-6.8a2.011,2.011,0,0,0-1.661.636,3.271,3.271,0,0,0-.526,2.023v.253a3.749,3.749,0,0,0,.526,2.259,2,2,0,0,0,1.688.68,1.756,1.756,0,0,0,1.521-.786,3.728,3.728,0,0,0,.55-2.167,3.588,3.588,0,0,0-.55-2.15A1.81,1.81,0,0,0,105.027,32.335ZM111.419,39h-1.135V31.508h1.135Zm-1.23-9.522a.754.754,0,0,1,.191-.571.709.709,0,0,1,.95,0,.74.74,0,0,1,.2.567.752.752,0,0,1-.2.571.694.694,0,0,1-.95,0A.768.768,0,0,1,110.188,29.478Zm8.47,7.479a1.877,1.877,0,0,1-.779,1.613,3.663,3.663,0,0,1-2.187.567,4.757,4.757,0,0,1-2.324-.472V37.612a5.62,5.62,0,0,0,1.159.431,4.839,4.839,0,0,0,1.193.157,2.705,2.705,0,0,0,1.367-.284.977.977,0,0,0,.1-1.613,5.968,5.968,0,0,0-1.48-.735,8.025,8.025,0,0,1-1.487-.68,2.031,2.031,0,0,1-.656-.66,1.72,1.72,0,0,1-.215-.882,1.681,1.681,0,0,1,.745-1.446,3.472,3.472,0,0,1,2.044-.53,5.98,5.98,0,0,1,2.365.492l-.4.923a5.429,5.429,0,0,0-2.044-.465,2.352,2.352,0,0,0-1.217.253.782.782,0,0,0-.41.7.849.849,0,0,0,.154.513,1.518,1.518,0,0,0,.5.4,11.075,11.075,0,0,0,1.313.554,4.9,4.9,0,0,1,1.8.978A1.724,1.724,0,0,1,118.658,36.956Zm4.84,2.181a3.2,3.2,0,0,1-2.519-1,4.118,4.118,0,0,1-.892-2.833,4.247,4.247,0,0,1,.906-2.905,3.261,3.261,0,0,1,2.581-1.025,5.121,5.121,0,0,1,1.08.116,3.558,3.558,0,0,1,.848.273l-.349.964a5.336,5.336,0,0,0-.82-.25,3.663,3.663,0,0,0-.786-.1q-2.283,0-2.283,2.912a3.467,3.467,0,0,0,.557,2.119,1.938,1.938,0,0,0,1.651.738,5.048,5.048,0,0,0,1.921-.4v1A4.094,4.094,0,0,1,123.5,39.137ZM128.3,39h-1.135V31.508H128.3Zm-1.23-9.522a.754.754,0,0,1,.191-.571.709.709,0,0,1,.95,0,.74.74,0,0,1,.2.567.752.752,0,0,1-.2.571.694.694,0,0,1-.95,0A.768.768,0,0,1,127.073,29.478ZM135.837,39V34.153a1.955,1.955,0,0,0-.417-1.367,1.7,1.7,0,0,0-1.306-.451,2.153,2.153,0,0,0-1.723.636,3.21,3.21,0,0,0-.547,2.1V39H130.71V31.508h.923l.185,1.025h.055a2.317,2.317,0,0,1,.978-.858,3.176,3.176,0,0,1,1.4-.3,2.846,2.846,0,0,1,2.037.653,2.778,2.778,0,0,1,.684,2.088V39Zm9.6-7.492v.718l-1.388.164a2.437,2.437,0,0,1,.492,1.5,2.215,2.215,0,0,1-.752,1.757,3.033,3.033,0,0,1-2.064.656,3.438,3.438,0,0,1-.629-.055,1.117,1.117,0,0,0-.725.964.49.49,0,0,0,.253.455,1.848,1.848,0,0,0,.868.147h1.326a2.97,2.97,0,0,1,1.87.513,1.781,1.781,0,0,1,.653,1.49,2.127,2.127,0,0,1-1,1.9,5.342,5.342,0,0,1-2.912.653,3.979,3.979,0,0,1-2.266-.547,1.766,1.766,0,0,1-.8-1.545,1.735,1.735,0,0,1,.438-1.183,2.228,2.228,0,0,1,1.23-.677,1.187,1.187,0,0,1-.482-.4,1.067,1.067,0,0,1-.195-.636,1.207,1.207,0,0,1,.219-.718,2.3,2.3,0,0,1,.69-.595,2.024,2.024,0,0,1-.947-.813,2.39,2.39,0,0,1-.366-1.312,2.424,2.424,0,0,1,.738-1.9,3.014,3.014,0,0,1,2.092-.667,3.8,3.8,0,0,1,1.06.137Zm-5.975,8.75a1.017,1.017,0,0,0,.513.923,2.83,2.83,0,0,0,1.47.314,4.1,4.1,0,0,0,2.116-.427,1.308,1.308,0,0,0,.687-1.159.917.917,0,0,0-.376-.844,2.92,2.92,0,0,0-1.415-.236h-1.36a1.792,1.792,0,0,0-1.2.369A1.319,1.319,0,0,0,139.46,40.258Zm.615-6.351a1.525,1.525,0,0,0,.444,1.189,1.774,1.774,0,0,0,1.237.4,1.447,1.447,0,0,0,1.661-1.613,1.489,1.489,0,0,0-1.682-1.688,1.665,1.665,0,0,0-1.23.431A1.734,1.734,0,0,0,140.075,33.907Zm13.7,5.229a3.442,3.442,0,0,1-2.622-1.012,3.917,3.917,0,0,1-.96-2.81,4.344,4.344,0,0,1,.892-2.878,2.963,2.963,0,0,1,2.4-1.066,2.825,2.825,0,0,1,2.229.926,3.55,3.55,0,0,1,.82,2.444v.718h-5.161a2.97,2.97,0,0,0,.667,2,2.305,2.305,0,0,0,1.781.684,6.035,6.035,0,0,0,2.393-.506v1.012a6.005,6.005,0,0,1-1.138.373A6.4,6.4,0,0,1,153.774,39.137Zm-.308-6.815a1.853,1.853,0,0,0-1.439.588,2.71,2.71,0,0,0-.632,1.627h3.917a2.5,2.5,0,0,0-.479-1.644A1.684,1.684,0,0,0,153.467,32.321ZM159.6,39h-1.135V28.363H159.6Zm3.541,0H162V31.508h1.135Zm-1.23-9.522a.754.754,0,0,1,.191-.571.709.709,0,0,1,.95,0,.74.74,0,0,1,.2.567.752.752,0,0,1-.2.571.694.694,0,0,1-.95,0A.768.768,0,0,1,161.909,29.478Zm6.057,8.723a3.707,3.707,0,0,0,.581-.044,3.761,3.761,0,0,0,.444-.092v.868a2.074,2.074,0,0,1-.543.147,4.081,4.081,0,0,1-.646.058q-2.174,0-2.174-2.29V32.39h-1.073v-.547l1.073-.472.479-1.6h.656v1.736h2.174v.882h-2.174V36.8a1.517,1.517,0,0,0,.321,1.039A1.118,1.118,0,0,0,167.966,38.2Zm2.358.075a1.018,1.018,0,0,1,.208-.694.756.756,0,0,1,.6-.236.809.809,0,0,1,.619.236.976.976,0,0,1,.222.694.959.959,0,0,1-.226.684.9.9,0,0,1-1.193.024A.936.936,0,0,1,170.324,38.275Zm15.5.725H184.5l-5.462-8.388h-.055q.109,1.477.109,2.707V39h-1.073V29.006h1.313l5.448,8.354h.055q-.014-.185-.062-1.186t-.034-1.432V29.006h1.087Zm3.644-7.492v4.86a1.955,1.955,0,0,0,.417,1.367,1.7,1.7,0,0,0,1.306.451,2.13,2.13,0,0,0,1.719-.643,3.241,3.241,0,0,0,.543-2.1V31.508h1.135V39h-.937l-.164-1h-.062a2.262,2.262,0,0,1-.967.848,3.251,3.251,0,0,1-1.412.294A2.864,2.864,0,0,1,189,38.487a2.765,2.765,0,0,1-.68-2.078v-4.9ZM202.125,39V34.153a1.955,1.955,0,0,0-.417-1.367,1.7,1.7,0,0,0-1.306-.451,2.153,2.153,0,0,0-1.723.636,3.21,3.21,0,0,0-.547,2.1V39H197V31.508h.923l.185,1.025h.055a2.317,2.317,0,0,1,.978-.858,3.176,3.176,0,0,1,1.4-.3,2.846,2.846,0,0,1,2.037.653,2.778,2.778,0,0,1,.684,2.088V39Zm6.46.137a3.2,3.2,0,0,1-2.519-1,4.118,4.118,0,0,1-.892-2.833,4.247,4.247,0,0,1,.906-2.905,3.261,3.261,0,0,1,2.581-1.025,5.121,5.121,0,0,1,1.08.116,3.558,3.558,0,0,1,.848.273l-.349.964a5.336,5.336,0,0,0-.82-.25,3.663,3.663,0,0,0-.786-.1q-2.283,0-2.283,2.912a3.468,3.468,0,0,0,.557,2.119,1.938,1.938,0,0,0,1.651.738,5.048,5.048,0,0,0,1.921-.4v1A4.094,4.094,0,0,1,208.585,39.137ZM6.33,63V58.153a1.955,1.955,0,0,0-.417-1.367,1.7,1.7,0,0,0-1.306-.451,2.153,2.153,0,0,0-1.723.636,3.21,3.21,0,0,0-.547,2.1V63H1.2V55.508h.923l.185,1.025h.055a2.317,2.317,0,0,1,.978-.858,3.176,3.176,0,0,1,1.4-.3,2.846,2.846,0,0,1,2.037.653,2.778,2.778,0,0,1,.684,2.088V63Zm9.933-3.753a4.133,4.133,0,0,1-.923,2.861,3.25,3.25,0,0,1-2.55,1.029,3.377,3.377,0,0,1-1.784-.472,3.113,3.113,0,0,1-1.2-1.354,4.717,4.717,0,0,1-.424-2.064,4.127,4.127,0,0,1,.916-2.854,3.24,3.24,0,0,1,2.543-1.022,3.169,3.169,0,0,1,2.5,1.046A4.115,4.115,0,0,1,16.263,59.247Zm-5.708,0a3.556,3.556,0,0,0,.574,2.188,1.993,1.993,0,0,0,1.688.752,2.006,2.006,0,0,0,1.692-.749,3.538,3.538,0,0,0,.578-2.191,3.481,3.481,0,0,0-.578-2.17,2.03,2.03,0,0,0-1.706-.742,2,2,0,0,0-1.682.731A3.52,3.52,0,0,0,10.555,59.247ZM23.379,63V58.153a1.955,1.955,0,0,0-.417-1.367,1.7,1.7,0,0,0-1.306-.451,2.153,2.153,0,0,0-1.723.636,3.21,3.21,0,0,0-.547,2.1V63H18.252V55.508h.923l.185,1.025h.055a2.317,2.317,0,0,1,.978-.858,3.176,3.176,0,0,1,1.4-.3,2.846,2.846,0,0,1,2.037.653,2.778,2.778,0,0,1,.684,2.088V63Zm16.652,0V58.126a2.023,2.023,0,0,0-.383-1.343,1.481,1.481,0,0,0-1.189-.448,1.92,1.92,0,0,0-1.565.608,2.891,2.891,0,0,0-.506,1.873V63H35.253V58.126a2.023,2.023,0,0,0-.383-1.343,1.49,1.49,0,0,0-1.2-.448,1.853,1.853,0,0,0-1.562.639,3.459,3.459,0,0,0-.5,2.1V63H30.481V55.508H31.4l.185,1.025h.055a2.23,2.23,0,0,1,.906-.854,2.767,2.767,0,0,1,1.309-.308,2.226,2.226,0,0,1,2.3,1.271h.055a2.389,2.389,0,0,1,.971-.93,3.012,3.012,0,0,1,1.449-.342,2.537,2.537,0,0,1,1.9.653,2.921,2.921,0,0,1,.632,2.088V63Zm9.939-3.753a4.133,4.133,0,0,1-.923,2.861,3.25,3.25,0,0,1-2.55,1.029,3.377,3.377,0,0,1-1.784-.472,3.113,3.113,0,0,1-1.2-1.354,4.717,4.717,0,0,1-.424-2.064A4.127,4.127,0,0,1,44,56.393a3.24,3.24,0,0,1,2.543-1.022,3.169,3.169,0,0,1,2.5,1.046A4.115,4.115,0,0,1,49.971,59.247Zm-5.708,0a3.556,3.556,0,0,0,.574,2.188,2.279,2.279,0,0,0,3.38,0,3.538,3.538,0,0,0,.578-2.191,3.481,3.481,0,0,0-.578-2.17,2.03,2.03,0,0,0-1.706-.742,2,2,0,0,0-1.682.731A3.52,3.52,0,0,0,44.263,59.247ZM53.095,63H51.96V52.363h1.135Zm3.541,0H55.5V52.363h1.135Zm3.541,0H59.042V55.508h1.135Zm-1.23-9.522a.754.754,0,0,1,.191-.571.709.709,0,0,1,.95,0,.74.74,0,0,1,.2.567.752.752,0,0,1-.2.571.694.694,0,0,1-.95,0A.768.768,0,0,1,58.946,53.478Zm8.47,7.479a1.877,1.877,0,0,1-.779,1.613,3.663,3.663,0,0,1-2.187.567,4.757,4.757,0,0,1-2.324-.472V61.612a5.621,5.621,0,0,0,1.159.431,4.839,4.839,0,0,0,1.193.157,2.705,2.705,0,0,0,1.367-.284.977.977,0,0,0,.1-1.613,5.968,5.968,0,0,0-1.48-.735,8.025,8.025,0,0,1-1.487-.68,2.031,2.031,0,0,1-.656-.66,1.72,1.72,0,0,1-.215-.882A1.681,1.681,0,0,1,62.85,55.9a3.472,3.472,0,0,1,2.044-.53,5.98,5.98,0,0,1,2.365.492l-.4.923a5.429,5.429,0,0,0-2.044-.465,2.352,2.352,0,0,0-1.217.253.782.782,0,0,0-.41.7.849.849,0,0,0,.154.513,1.518,1.518,0,0,0,.5.4,11.075,11.075,0,0,0,1.313.554,4.9,4.9,0,0,1,1.8.978A1.724,1.724,0,0,1,67.416,60.956Zm8.647,2.181a3.442,3.442,0,0,1-2.622-1.012,3.917,3.917,0,0,1-.96-2.81,4.344,4.344,0,0,1,.892-2.878,2.963,2.963,0,0,1,2.4-1.066A2.825,2.825,0,0,1,78,56.3a3.55,3.55,0,0,1,.82,2.444v.718H73.657a2.97,2.97,0,0,0,.667,2,2.305,2.305,0,0,0,1.781.684A6.035,6.035,0,0,0,78.5,61.64v1.012a6.005,6.005,0,0,1-1.138.373A6.4,6.4,0,0,1,76.063,63.137Zm-.308-6.815a1.853,1.853,0,0,0-1.439.588,2.71,2.71,0,0,0-.632,1.627H77.6a2.5,2.5,0,0,0-.479-1.644A1.684,1.684,0,0,0,75.756,56.321Zm6.8,2.844-2.6-3.657h1.292l1.976,2.871,1.969-2.871h1.278l-2.6,3.657L86.6,63H85.319l-2.1-3.035L81.1,63H79.816Zm6.72,2.208.1.157q-.178.684-.513,1.589t-.7,1.685h-.854q.185-.711.407-1.757t.311-1.675Zm8.709.813a2.061,2.061,0,0,0,1.654-.608,3.3,3.3,0,0,0,.554-2.051v-.253a3.747,3.747,0,0,0-.533-2.263,2,2,0,0,0-1.688-.69,1.737,1.737,0,0,0-1.528.776,3.858,3.858,0,0,0-.53,2.191,3.725,3.725,0,0,0,.523,2.157A1.772,1.772,0,0,0,97.986,62.187Zm-.171.95a2.734,2.734,0,0,1-2.263-1.019,4.447,4.447,0,0,1-.813-2.844,4.5,4.5,0,0,1,.82-2.871,3.014,3.014,0,0,1,4.648.13h.062l.164-1.025h.9V66.363h-1.135V63.157A7.635,7.635,0,0,1,100.27,62h-.089A2.68,2.68,0,0,1,97.815,63.137Zm6.986-7.629v4.86a1.955,1.955,0,0,0,.417,1.367,1.7,1.7,0,0,0,1.306.451,2.13,2.13,0,0,0,1.719-.643,3.241,3.241,0,0,0,.543-2.1V55.508h1.135V63h-.937l-.164-1h-.062a2.262,2.262,0,0,1-.967.848,3.251,3.251,0,0,1-1.412.294,2.864,2.864,0,0,1-2.047-.649,2.764,2.764,0,0,1-.68-2.078v-4.9ZM113.463,63h-1.135V55.508h1.135Zm-1.23-9.522a.754.754,0,0,1,.191-.571.709.709,0,0,1,.95,0,.74.74,0,0,1,.2.567.752.752,0,0,1-.2.571.694.694,0,0,1-.95,0A.768.768,0,0,1,112.232,53.478Zm8.47,7.479a1.877,1.877,0,0,1-.779,1.613,3.663,3.663,0,0,1-2.187.567,4.757,4.757,0,0,1-2.324-.472V61.612a5.62,5.62,0,0,0,1.159.431,4.839,4.839,0,0,0,1.193.157,2.705,2.705,0,0,0,1.367-.284.977.977,0,0,0,.1-1.613,5.968,5.968,0,0,0-1.48-.735,8.025,8.025,0,0,1-1.487-.68,2.031,2.031,0,0,1-.656-.66,1.72,1.72,0,0,1-.215-.882,1.681,1.681,0,0,1,.745-1.446,3.472,3.472,0,0,1,2.044-.53,5.98,5.98,0,0,1,2.365.492l-.4.923a5.429,5.429,0,0,0-2.044-.465,2.352,2.352,0,0,0-1.217.253.782.782,0,0,0-.41.7.849.849,0,0,0,.154.513,1.518,1.518,0,0,0,.5.4,11.075,11.075,0,0,0,1.313.554,4.9,4.9,0,0,1,1.8.978A1.724,1.724,0,0,1,120.7,60.956Zm6.549-5.448v4.86a1.955,1.955,0,0,0,.417,1.367,1.7,1.7,0,0,0,1.306.451,2.13,2.13,0,0,0,1.719-.643,3.241,3.241,0,0,0,.543-2.1V55.508h1.135V63h-.937l-.164-1h-.062a2.262,2.262,0,0,1-.967.848,3.251,3.251,0,0,1-1.412.294,2.864,2.864,0,0,1-2.047-.649,2.764,2.764,0,0,1-.68-2.078v-4.9ZM135.912,63h-1.135V52.363h1.135Zm3.541,0h-1.135V52.363h1.135Zm7.014,0-.226-1.066h-.055a3.153,3.153,0,0,1-1.118.954,3.407,3.407,0,0,1-1.391.25,2.5,2.5,0,0,1-1.747-.574,2.094,2.094,0,0,1-.632-1.634q0-2.27,3.63-2.379l1.271-.041v-.465a1.9,1.9,0,0,0-.379-1.3,1.56,1.56,0,0,0-1.213-.42,4.944,4.944,0,0,0-2.119.574l-.349-.868a5.333,5.333,0,0,1,1.213-.472,5.255,5.255,0,0,1,1.323-.171,2.854,2.854,0,0,1,1.986.595,2.482,2.482,0,0,1,.646,1.907V63Zm-2.563-.8a2.3,2.3,0,0,0,1.665-.581,2.15,2.15,0,0,0,.6-1.627v-.677l-1.135.048a4.128,4.128,0,0,0-1.952.42,1.268,1.268,0,0,0-.6,1.159,1.169,1.169,0,0,0,.373.937A1.546,1.546,0,0,0,143.9,62.2ZM159.2,63V58.126a2.023,2.023,0,0,0-.383-1.343,1.481,1.481,0,0,0-1.189-.448,1.92,1.92,0,0,0-1.565.608,2.891,2.891,0,0,0-.506,1.873V63h-1.135V58.126a2.023,2.023,0,0,0-.383-1.343,1.49,1.49,0,0,0-1.2-.448,1.853,1.853,0,0,0-1.562.639,3.459,3.459,0,0,0-.5,2.1V63h-1.135V55.508h.923l.185,1.025h.055a2.23,2.23,0,0,1,.906-.854,2.767,2.767,0,0,1,1.309-.308,2.226,2.226,0,0,1,2.3,1.271h.055a2.389,2.389,0,0,1,.971-.93,3.012,3.012,0,0,1,1.449-.342,2.537,2.537,0,0,1,1.9.653,2.921,2.921,0,0,1,.632,2.088V63Zm6.467.137a3.2,3.2,0,0,1-2.519-1,4.118,4.118,0,0,1-.892-2.833,4.247,4.247,0,0,1,.906-2.905,3.261,3.261,0,0,1,2.581-1.025,5.121,5.121,0,0,1,1.08.116,3.558,3.558,0,0,1,.848.273l-.349.964a5.336,5.336,0,0,0-.82-.25,3.663,3.663,0,0,0-.786-.1q-2.283,0-2.283,2.912a3.468,3.468,0,0,0,.557,2.119,1.938,1.938,0,0,0,1.651.738,5.048,5.048,0,0,0,1.921-.4v1A4.094,4.094,0,0,1,165.662,63.137Zm10.138-3.89a4.133,4.133,0,0,1-.923,2.861,3.25,3.25,0,0,1-2.55,1.029,3.377,3.377,0,0,1-1.784-.472,3.113,3.113,0,0,1-1.2-1.354,4.717,4.717,0,0,1-.424-2.064,4.127,4.127,0,0,1,.916-2.854,3.24,3.24,0,0,1,2.543-1.022,3.169,3.169,0,0,1,2.5,1.046A4.115,4.115,0,0,1,175.8,59.247Zm-5.708,0a3.556,3.556,0,0,0,.574,2.188,2.279,2.279,0,0,0,3.38,0,3.538,3.538,0,0,0,.578-2.191,3.481,3.481,0,0,0-.578-2.17,2.03,2.03,0,0,0-1.706-.742,2,2,0,0,0-1.682.731A3.52,3.52,0,0,0,170.092,59.247Zm11.115-3.876a4.44,4.44,0,0,1,.9.082l-.157,1.053a3.865,3.865,0,0,0-.82-.1,2,2,0,0,0-1.555.738,2.692,2.692,0,0,0-.646,1.839V63h-1.135V55.508h.937l.13,1.388h.055a3.294,3.294,0,0,1,1-1.128A2.262,2.262,0,0,1,181.207,55.371Zm5.783,7.766a3.242,3.242,0,0,1-1.336-.27,2.513,2.513,0,0,1-1.015-.831h-.082a10.049,10.049,0,0,1,.082,1.244v3.083H183.5V55.508h.923l.157,1.025h.055a2.635,2.635,0,0,1,1.019-.889,3.1,3.1,0,0,1,1.333-.273,2.769,2.769,0,0,1,2.3,1.019,5.424,5.424,0,0,1-.014,5.725A2.774,2.774,0,0,1,186.99,63.137Zm-.164-6.8a2.011,2.011,0,0,0-1.661.636,3.271,3.271,0,0,0-.526,2.023v.253a3.749,3.749,0,0,0,.526,2.259,2,2,0,0,0,1.688.68,1.756,1.756,0,0,0,1.521-.786,3.728,3.728,0,0,0,.55-2.167,3.588,3.588,0,0,0-.55-2.15A1.81,1.81,0,0,0,186.826,56.335Zm8.422,6.8a3.442,3.442,0,0,1-2.622-1.012,3.917,3.917,0,0,1-.96-2.81,4.344,4.344,0,0,1,.892-2.878,2.963,2.963,0,0,1,2.4-1.066,2.825,2.825,0,0,1,2.229.926,3.55,3.55,0,0,1,.82,2.444v.718h-5.161a2.97,2.97,0,0,0,.667,2,2.305,2.305,0,0,0,1.781.684,6.035,6.035,0,0,0,2.393-.506v1.012a6.005,6.005,0,0,1-1.138.373A6.4,6.4,0,0,1,195.248,63.137Zm-.308-6.815a1.853,1.853,0,0,0-1.439.588,2.71,2.71,0,0,0-.632,1.627h3.917a2.5,2.5,0,0,0-.479-1.644A1.684,1.684,0,0,0,194.94,56.321Zm8.415-.95a4.44,4.44,0,0,1,.9.082l-.157,1.053a3.865,3.865,0,0,0-.82-.1,2,2,0,0,0-1.555.738,2.692,2.692,0,0,0-.646,1.839V63h-1.135V55.508h.937L201,56.9h.055a3.294,3.294,0,0,1,1-1.128A2.262,2.262,0,0,1,203.355,55.371Zm9.311,1.019h-1.907V63h-1.135V56.39h-1.34v-.513l1.34-.41V55.05q0-2.762,2.413-2.762a4.966,4.966,0,0,1,1.395.239l-.294.909a3.754,3.754,0,0,0-1.121-.212,1.092,1.092,0,0,0-.95.427,2.384,2.384,0,0,0-.308,1.371v.485h1.907Zm4.532,6.747a3.442,3.442,0,0,1-2.622-1.012,3.917,3.917,0,0,1-.96-2.81,4.344,4.344,0,0,1,.892-2.878,2.963,2.963,0,0,1,2.4-1.066,2.825,2.825,0,0,1,2.229.926,3.55,3.55,0,0,1,.82,2.444v.718h-5.161a2.97,2.97,0,0,0,.667,2,2.305,2.305,0,0,0,1.781.684,6.035,6.035,0,0,0,2.393-.506v1.012a6.005,6.005,0,0,1-1.138.373A6.4,6.4,0,0,1,217.2,63.137Zm-.308-6.815a1.853,1.853,0,0,0-1.439.588,2.71,2.71,0,0,0-.632,1.627h3.917a2.5,2.5,0,0,0-.479-1.644A1.684,1.684,0,0,0,216.891,56.321ZM223.022,63h-1.135V52.363h1.135Zm3.541,0h-1.135V55.508h1.135Zm-1.23-9.522a.754.754,0,0,1,.191-.571.709.709,0,0,1,.95,0,.74.74,0,0,1,.2.567.752.752,0,0,1-.2.571.694.694,0,0,1-.95,0A.768.768,0,0,1,225.333,53.478Zm8.47,7.479a1.877,1.877,0,0,1-.779,1.613,3.663,3.663,0,0,1-2.187.567,4.757,4.757,0,0,1-2.324-.472V61.612a5.621,5.621,0,0,0,1.159.431,4.839,4.839,0,0,0,1.193.157,2.705,2.705,0,0,0,1.367-.284.977.977,0,0,0,.1-1.613,5.968,5.968,0,0,0-1.48-.735,8.025,8.025,0,0,1-1.487-.68,2.031,2.031,0,0,1-.656-.66,1.72,1.72,0,0,1-.215-.882,1.681,1.681,0,0,1,.745-1.446,3.472,3.472,0,0,1,2.044-.53,5.98,5.98,0,0,1,2.365.492l-.4.923a5.429,5.429,0,0,0-2.044-.465,2.352,2.352,0,0,0-1.217.253.782.782,0,0,0-.41.7.849.849,0,0,0,.154.513,1.518,1.518,0,0,0,.5.4,11.074,11.074,0,0,0,1.313.554,4.9,4.9,0,0,1,1.8.978A1.724,1.724,0,0,1,233.8,60.956Zm1.682,1.319a1.018,1.018,0,0,1,.208-.694.756.756,0,0,1,.6-.236.809.809,0,0,1,.619.236.976.976,0,0,1,.222.694.959.959,0,0,1-.226.684.9.9,0,0,1-1.193.024A.936.936,0,0,1,235.484,62.275Z" transform="translate(25 45.001)" fill="#7c848e"/><path d="M8.094-3.1a2.875,2.875,0,0,1-1.1,2.391A4.794,4.794,0,0,1,3.953.156a7.251,7.251,0,0,1-3.172-.6V-2.211a8.621,8.621,0,0,0,1.66.578,7.039,7.039,0,0,0,1.637.211,2.6,2.6,0,0,0,1.637-.422,1.376,1.376,0,0,0,.527-1.133,1.42,1.42,0,0,0-.484-1.086,7.292,7.292,0,0,0-2-1.055,5.291,5.291,0,0,1-2.2-1.445A3.058,3.058,0,0,1,.914-8.516a2.735,2.735,0,0,1,1.016-2.25,4.213,4.213,0,0,1,2.727-.82,8.011,8.011,0,0,1,3.266.719L7.328-9.344a7.135,7.135,0,0,0-2.719-.641,2.086,2.086,0,0,0-1.375.395,1.3,1.3,0,0,0-.469,1.043,1.468,1.468,0,0,0,.188.762,1.915,1.915,0,0,0,.617.6,10.44,10.44,0,0,0,1.547.742,8.464,8.464,0,0,1,1.844.977A2.872,2.872,0,0,1,7.82-4.445,3.079,3.079,0,0,1,8.094-3.1ZM13.883.156A4.18,4.18,0,0,1,10.73-1.02,4.463,4.463,0,0,1,9.594-4.258a4.9,4.9,0,0,1,1.055-3.328,3.643,3.643,0,0,1,2.9-1.211,3.561,3.561,0,0,1,2.7,1.039A3.97,3.97,0,0,1,17.242-4.9v.992H11.484a2.838,2.838,0,0,0,.68,1.934,2.367,2.367,0,0,0,1.8.676,6.662,6.662,0,0,0,1.426-.145,7.474,7.474,0,0,0,1.418-.48V-.43a5.637,5.637,0,0,1-1.359.453A8.336,8.336,0,0,1,13.883.156Zm-.336-7.562a1.845,1.845,0,0,0-1.4.555,2.644,2.644,0,0,0-.629,1.617h3.922a2.392,2.392,0,0,0-.516-1.621A1.764,1.764,0,0,0,13.547-7.406ZM22.813.156a3.783,3.783,0,0,1-2.98-1.145,4.782,4.782,0,0,1-1.02-3.285,4.809,4.809,0,0,1,1.066-3.352A3.956,3.956,0,0,1,22.961-8.8a5.776,5.776,0,0,1,2.461.508l-.555,1.477a5.56,5.56,0,0,0-1.922-.453q-2.242,0-2.242,2.977a3.565,3.565,0,0,0,.559,2.184,1.934,1.934,0,0,0,1.637.73,4.7,4.7,0,0,0,2.32-.609v1.6a3.626,3.626,0,0,1-1.051.414A6.305,6.305,0,0,1,22.813.156Zm7.656-1.484a4.465,4.465,0,0,0,1.344-.211V-.156a3.706,3.706,0,0,1-.785.223,5.409,5.409,0,0,1-1,.09q-2.609,0-2.609-2.75V-7.25h-1.18v-.812l1.266-.672.625-1.828h1.133v1.922h2.461V-7.25H29.266v4.625a1.3,1.3,0,0,0,.332.98A1.21,1.21,0,0,0,30.469-1.328ZM35.375,0H33.539V-8.641h1.836ZM33.43-10.93a1.017,1.017,0,0,1,.27-.758,1.05,1.05,0,0,1,.77-.266,1.028,1.028,0,0,1,.754.266,1.017,1.017,0,0,1,.27.758,1,1,0,0,1-.27.738,1.019,1.019,0,0,1-.754.27,1.041,1.041,0,0,1-.77-.27A1,1,0,0,1,33.43-10.93ZM45.664-4.336a4.716,4.716,0,0,1-1.086,3.3A3.891,3.891,0,0,1,41.555.156a4.143,4.143,0,0,1-2.141-.547,3.61,3.61,0,0,1-1.43-1.57,5.348,5.348,0,0,1-.5-2.375,4.684,4.684,0,0,1,1.078-3.281A3.909,3.909,0,0,1,41.6-8.8,3.807,3.807,0,0,1,44.57-7.59,4.662,4.662,0,0,1,45.664-4.336Zm-6.289,0q0,2.992,2.211,2.992,2.187,0,2.188-2.992,0-2.961-2.2-2.961a1.879,1.879,0,0,0-1.676.766A3.9,3.9,0,0,0,39.375-4.336ZM55.375,0H53.531V-5.312a2.325,2.325,0,0,0-.4-1.492A1.555,1.555,0,0,0,51.852-7.3a2.031,2.031,0,0,0-1.7.688,3.8,3.8,0,0,0-.539,2.3V0H47.773V-8.641h1.438l.258,1.133h.094a2.556,2.556,0,0,1,1.109-.953A3.718,3.718,0,0,1,52.266-8.8q3.109,0,3.109,3.164ZM68.789-8.8a2.646,2.646,0,0,1-.633,1.809,3.185,3.185,0,0,1-1.781.973v.063a3.448,3.448,0,0,1,2.063.855,2.447,2.447,0,0,1,.688,1.816A3.018,3.018,0,0,1,67.961-.738a5.34,5.34,0,0,1-3.312.895,7.459,7.459,0,0,1-3.2-.617V-2.094a7.316,7.316,0,0,0,1.539.555,6.682,6.682,0,0,0,1.563.2,3.3,3.3,0,0,0,1.984-.492,1.781,1.781,0,0,0,.656-1.523A1.45,1.45,0,0,0,66.461-4.7a4.64,4.64,0,0,0-2.281-.43h-.992V-6.625H64.2q2.734,0,2.734-1.891a1.394,1.394,0,0,0-.477-1.133,2.146,2.146,0,0,0-1.406-.4,4.258,4.258,0,0,0-1.25.184,5.918,5.918,0,0,0-1.422.715l-.9-1.281a5.988,5.988,0,0,1,3.648-1.156,4.341,4.341,0,0,1,2.7.742A2.436,2.436,0,0,1,68.789-8.8Z" transform="translate(25 30.05)" fill="#434b5d"/></g></g></svg>