<svg xmlns="http://www.w3.org/2000/svg" width="247.207" height="145.945" viewBox="0 0 247.207 145.945"><g transform="translate(-16.756 -52.54)"><rect width="247.207" height="145.945" rx="5" transform="translate(16.756 52.54)" fill="#fff"/><text transform="translate(34.756 64.911)" fill="#212e3a" font-size="12" font-family="OpenSans-Bold, Open Sans" font-weight="700"><tspan x="0" y="13">William Shakespeare</tspan><tspan y="13" font-family="OpenSans-Semibold, Open Sans" font-weight="600"> </tspan><tspan x="0" y="31" font-family="OpenSans-Semibold, Open Sans" font-weight="600">was an English poet, </tspan><tspan x="0" y="49" font-family="OpenSans-Semibold, Open Sans" font-weight="600">playwright, and actor, </tspan><tspan x="0" y="67" font-family="OpenSans-Semibold, Open Sans" font-weight="600">widely regarded as </tspan><tspan x="0" y="85" font-family="OpenSans-Semibold, Open Sans" font-weight="600">the greatest writer in </tspan><tspan x="0" y="103" font-family="OpenSans-Semibold, Open Sans" font-weight="600">the...</tspan></text><g transform="translate(185.623 56.807)"><text transform="translate(0.133 38.104)" fill="#919191" font-size="12" font-family="OpenSans-Semibold, Open Sans" font-weight="600"><tspan x="0" y="0">A</tspan><tspan x="0" y="17">B</tspan><tspan x="0" y="34">C</tspan></text><line x2="38" transform="translate(14.633 34.292)" fill="none" stroke="#b7b7b7" stroke-linecap="round" stroke-width="4"/><line x2="38" transform="translate(14.633 51.292)" fill="none" stroke="#b7b7b7" stroke-linecap="round" stroke-width="4"/><line x2="38" transform="translate(14.633 67.292)" fill="none" stroke="#b7b7b7" stroke-linecap="round" stroke-width="4"/></g><g transform="translate(177.756 149.6)"><rect width="68" height="22" rx="4" fill="#3f85e5"/><text transform="translate(33.921 15)" fill="#fff" font-size="9" font-family="OpenSans-Semibold, Open Sans" font-weight="600"><tspan x="-11.382" y="0">NEXT</tspan></text><g transform="translate(194.324 -2.375) rotate(90)"><g transform="translate(9.755 134.287)"><path d="M17.171,134.69h0l-2.559-2.547a.49.49,0,0,0-.691.694l1.718,1.71H10.49a.49.49,0,1,0,0,.98h5.149l-1.718,1.71a.49.49,0,0,0,.691.694l2.559-2.547h0A.49.49,0,0,0,17.171,134.69Z" transform="translate(-10 -132)" fill="#fff"/></g></g></g></g></svg>