<svg xmlns="http://www.w3.org/2000/svg" xmlns:xlink="http://www.w3.org/1999/xlink" width="273.794" height="153.984" viewBox="0 0 273.794 153.984"><defs><linearGradient id="a" x1="0.5" y1="1" x2="0.5" gradientUnits="objectBoundingBox"><stop offset="0" stop-color="#b1b1b1"/><stop offset="1" stop-color="#e5e5e5"/></linearGradient></defs><g transform="translate(-331 -170.001)"><g transform="translate(331 170)"><rect width="273.794" height="153.985" transform="translate(0 0)" fill="#e5e5e5"/><g transform="translate(0 121.729)"><path d="M0,0H273.794V32.256H0Z" transform="translate(0 0)" opacity="0.6" fill="url(#a)"/><path d="M2.539-1.355a1.593,1.593,0,0,1-.3,1.044,1.017,1.017,0,0,1-.826.363,1.026,1.026,0,0,1-.83-.364A1.58,1.58,0,0,1,.276-1.355V-2.2a1.59,1.59,0,0,1,.3-1.044,1.019,1.019,0,0,1,.826-.365,1.021,1.021,0,0,1,.829.365,1.59,1.59,0,0,1,.3,1.044ZM2.058-2.3a1.188,1.188,0,0,0-.167-.694.56.56,0,0,0-.485-.233.556.556,0,0,0-.483.233A1.2,1.2,0,0,0,.757-2.3v1.042a1.193,1.193,0,0,0,.168.7.561.561,0,0,0,.486.235.552.552,0,0,0,.482-.234,1.213,1.213,0,0,0,.165-.7ZM3.691,0H3.21V-.5h.481Zm0-2.139H3.21v-.5h.481Zm2.6.942H6.78v.378H6.289V0H5.811V-.818h-1.6v-.271L5.781-3.555h.508Zm-1.562,0H5.811V-2.864l-.015,0-.046.122Zm3.816-2.41a1.6,1.6,0,0,1,.363.042,1.191,1.191,0,0,1,.3.1l-.1.369a1.417,1.417,0,0,0-.25-.1,1.107,1.107,0,0,0-.306-.038.736.736,0,0,0-.614.305,1.275,1.275,0,0,0-.233.8v.056a1.174,1.174,0,0,1,.358-.214,1.2,1.2,0,0,1,.433-.077.95.95,0,0,1,.759.33,1.236,1.236,0,0,1,.283.835,1.324,1.324,0,0,1-.3.9,1.011,1.011,0,0,1-.8.348,1.114,1.114,0,0,1-.864-.378,1.536,1.536,0,0,1-.342-1.067v-.679A1.6,1.6,0,0,1,7.6-3.181,1.218,1.218,0,0,1,8.542-3.606ZM8.379-2a.828.828,0,0,0-.42.1.678.678,0,0,0-.264.266v.288A1.2,1.2,0,0,0,7.9-.593a.635.635,0,0,0,.52.266.522.522,0,0,0,.46-.25,1.1,1.1,0,0,0,.165-.62.911.911,0,0,0-.177-.578A.589.589,0,0,0,8.379-2ZM11.4.305h-.41l1.484-3.86h.408ZM15.933,0h-.481V-3.086l-.728.01v-.347l1.208-.132Zm2.026,0h-.481V-.5h.481Zm0-2.139h-.481v-.5h.481ZM20.94,0h-2.3V-.332L19.8-1.624a3.266,3.266,0,0,0,.424-.554.872.872,0,0,0,.111-.42.667.667,0,0,0-.155-.448.514.514,0,0,0-.411-.182.706.706,0,0,0-.543.189.754.754,0,0,0-.175.531h-.461l0-.015a1,1,0,0,1,.305-.771,1.2,1.2,0,0,1,.879-.312,1.041,1.041,0,0,1,.763.28.955.955,0,0,1,.284.712,1.138,1.138,0,0,1-.172.582,3.742,3.742,0,0,1-.482.626L19.226-.391l0,.012H20.94Zm.649-1.6.205-1.951h1.78v.427H22.2l-.117,1a1.109,1.109,0,0,1,.25-.138.925.925,0,0,1,.319-.06.957.957,0,0,1,.773.32,1.287,1.287,0,0,1,.282.874,1.25,1.25,0,0,1-.287.859,1.057,1.057,0,0,1-.836.325A1.146,1.146,0,0,1,21.833-.2a.853.853,0,0,1-.288-.725l0-.015h.435a.59.59,0,0,0,.167.449.6.6,0,0,0,.433.159.568.568,0,0,0,.474-.215.928.928,0,0,0,.168-.587.885.885,0,0,0-.171-.561.564.564,0,0,0-.471-.219.755.755,0,0,0-.41.085.487.487,0,0,0-.186.261Z" transform="translate(53.346 23.91)" fill="#fff"/><path d="M75,407.76h1.536V402H75ZM78.072,402v5.76h1.536V402Z" transform="translate(-63.096 -382.8)" fill="#fff" fill-rule="evenodd"/><path d="M122.76,407.608V405.56l-3.072,2.048v-1.791L117,407.608V403l2.688,1.792V403l3.072,2.047V403h.768v4.608Z" transform="translate(-88.968 -383.416)" fill="#fff" fill-rule="evenodd"/><path d="M158.466,404.072a1.724,1.724,0,0,0-.991-1.548v3.091a1.714,1.714,0,0,0,.991-1.544Zm-4.583-1.152v2.3h.818l1.982,1.92V401l-1.982,1.92Z" transform="translate(-111.688 -382.184)" fill="#fff" fill-rule="evenodd"/><path d="M64,387.536V386H322.05v1.536Z" transform="translate(-56.32 -372.944)" fill="#fff" fill-rule="evenodd" opacity="0.2"/><path d="M64,387.536V386H203.65v1.536Z" transform="translate(-56.32 -372.944)" fill="#00ad50" fill-rule="evenodd"/><path d="M636.723,403.757a2.434,2.434,0,0,0,0-.667l.7-.567a.174.174,0,0,0,.04-.219l-.667-1.186a.162.162,0,0,0-.2-.072l-.829.344a2.523,2.523,0,0,0-.563-.337l-.125-.907a.173.173,0,0,0-.167-.144h-1.333a.17.17,0,0,0-.165.144l-.125.907a2.446,2.446,0,0,0-.563.337l-.829-.344a.164.164,0,0,0-.2.072l-.667,1.186a.174.174,0,0,0,.04.219l.7.566a2.386,2.386,0,0,0,0,.667l-.705.568a.174.174,0,0,0-.04.219l.666,1.186a.163.163,0,0,0,.2.072l.829-.344a2.526,2.526,0,0,0,.563.337l.128.907a.17.17,0,0,0,.165.144h1.333a.17.17,0,0,0,.165-.144l.125-.907a2.461,2.461,0,0,0,.563-.337l.829.344a.164.164,0,0,0,.2-.072l.667-1.186a.175.175,0,0,0-.04-.219Zm-2.476.865a1.2,1.2,0,1,1,1.166-1.2,1.182,1.182,0,0,1-1.167,1.2Z" transform="translate(-405.167 -381.699)" fill="#fff" fill-rule="evenodd"/><path d="M0,0H7.68V5.76H0Z" transform="translate(238.85 18.803)" fill="none" stroke="#fff" stroke-width="1"/><path d="M709.127,407.844h-1.283v-1.283h1.283v-1.283h1.283v2.566Zm0-5.561h-1.283V401h2.567v2.566h-1.283ZM701,407.844v-2.566h1.283v1.283h1.283v1.283Zm1.283-4.277H701V401h2.566v1.283h-1.283Z" transform="translate(-449.235 -382.697)" fill="#fff" fill-rule="evenodd"/></g></g><g transform="translate(447.936 222.9)"><path d="M19.954,0A19.953,19.953,0,1,0,39.907,19.954,19.975,19.975,0,0,0,19.954,0Zm0,36.279A16.326,16.326,0,1,1,36.279,19.954,16.344,16.344,0,0,1,19.954,36.279ZM17.232,25.4l8.163-5.443L17.232,14.51Z" fill="#fff"/></g></g></svg>