<svg xmlns="http://www.w3.org/2000/svg" xmlns:xlink="http://www.w3.org/1999/xlink" width="295.016" height="165.921" viewBox="0 0 295.016 165.921"><defs><linearGradient id="a" x1="0.5" y1="1" x2="0.5" gradientUnits="objectBoundingBox"><stop offset="0" stop-color="#b1b1b1"/><stop offset="1" stop-color="#e5e5e5"/></linearGradient></defs><g transform="translate(-44 -49.361)"><rect width="295.016" height="165.921" transform="translate(44 49.361)" fill="#e5e5e5"/><g transform="translate(44 180.525)"><rect width="295.016" height="34.756" transform="translate(0 0)" opacity="0.6" fill="url(#a)"/><text transform="translate(57.481 23.298)" fill="#fff" font-size="4" font-family="Roboto-Regular, Roboto"><tspan x="0" y="0">0:46 / 1:25</tspan></text><path d="M75,408.207h1.655V402H75ZM78.31,402v6.207h1.655V402Z" transform="translate(-62.173 -381.312)" fill="#fff" fill-rule="evenodd"/><path d="M123.207,407.965v-2.207l-3.31,2.207v-1.93l-2.9,1.93V403l2.9,1.931V403l3.31,2.206V403h.828v4.965Z" transform="translate(-86.795 -381.898)" fill="#fff" fill-rule="evenodd"/><path d="M158.822,404.31a1.857,1.857,0,0,0-1.068-1.667v3.331a1.847,1.847,0,0,0,1.068-1.663Zm-4.939-1.241v2.483h.881l2.136,2.069V401l-2.136,2.069Z" transform="translate(-108.417 -380.725)" fill="#fff" fill-rule="evenodd"/><path d="M64,387.655V386H342.052v1.655Z" transform="translate(-55.725 -371.932)" fill="#fff" fill-rule="evenodd" opacity="0.2"/><path d="M64,387.655V386H214.475v1.655Z" transform="translate(-55.725 -371.932)" fill="#f91a12" fill-rule="evenodd"/><path d="M637.572,404.315a2.787,2.787,0,0,0,0-.766l.809-.651a.2.2,0,0,0,.046-.252l-.765-1.362a.187.187,0,0,0-.233-.083l-.952.395a2.9,2.9,0,0,0-.647-.387l-.144-1.042a.2.2,0,0,0-.192-.165h-1.531a.2.2,0,0,0-.19.165l-.144,1.042a2.809,2.809,0,0,0-.647.387l-.952-.395a.189.189,0,0,0-.233.083l-.765,1.362a.2.2,0,0,0,.046.252l.808.65a2.74,2.74,0,0,0,0,.766l-.81.652a.2.2,0,0,0-.046.252l.765,1.362a.187.187,0,0,0,.233.083l.952-.395a2.9,2.9,0,0,0,.647.387l.147,1.042a.2.2,0,0,0,.19.166H635.5a.2.2,0,0,0,.19-.166l.144-1.041a2.827,2.827,0,0,0,.647-.387l.952.395a.189.189,0,0,0,.233-.083l.765-1.362a.2.2,0,0,0-.046-.252Zm-2.843.993a1.376,1.376,0,1,1,1.339-1.376,1.357,1.357,0,0,1-1.341,1.375Z" transform="translate(-388.122 -380.14)" fill="#fff" fill-rule="evenodd"/><rect width="8.275" height="6.207" transform="translate(257.363 20.275)" fill="none" stroke="#fff" stroke-width="3"/><path d="M708.862,407.62H707.62v-1.241h1.241v-1.241H710.1v2.483Zm0-5.379H707.62V401H710.1v2.483h-1.241ZM701,407.62v-2.483h1.241v1.241h1.241v1.241Zm1.241-4.138H701V401h2.483v1.241h-1.241Z" transform="translate(-429.155 -380.725)" fill="#fff" fill-rule="evenodd"/><rect width="5.379" height="3.724" transform="translate(247.019 18.62)" fill="#ec261f"/><text transform="translate(247.762 20.658)" fill="#fff" font-size="2" font-family="Roboto-Regular, Roboto"><tspan x="0" y="0">HD</tspan></text></g><g transform="translate(170 106.361)"><path d="M21.5,0A21.5,21.5,0,1,0,43,21.5,21.524,21.524,0,0,0,21.5,0Zm0,39.091A17.591,17.591,0,1,1,39.091,21.5,17.611,17.611,0,0,1,21.5,39.091ZM18.568,27.365l8.8-5.865-8.8-5.865Z" fill="#fff"/></g></g></svg>