<svg xmlns="http://www.w3.org/2000/svg" width="288.489" height="138.97" viewBox="0 0 288.489 138.97"><g transform="translate(-337 -210.001)"><g transform="translate(337 210.001)" fill="#fff"><path d="M 283.4887084960938 138.4700012207031 L 4.999997138977051 138.4700012207031 C 2.518675565719604 138.4700012207031 0.4999971091747284 136.4513244628906 0.4999971091747284 133.9700012207031 L 0.4999971091747284 5.000000476837158 C 0.4999971091747284 2.518679141998291 2.518675565719604 0.5000005960464478 4.999997138977051 0.5000005960464478 L 283.4887084960938 0.5000005960464478 C 285.9700317382813 0.5000005960464478 287.9887084960938 2.518679141998291 287.9887084960938 5.000000476837158 L 287.9887084960938 133.9700012207031 C 287.9887084960938 136.4513244628906 285.9700317382813 138.4700012207031 283.4887084960938 138.4700012207031 Z" stroke="none"/><path d="M 5 1 C 2.794403076171875 1 1 2.794387817382813 1 5 L 1 133.9700012207031 C 1 136.1756134033203 2.794403076171875 137.9700012207031 5 137.9700012207031 L 283.4887084960938 137.9700012207031 C 285.6943054199219 137.9700012207031 287.4887084960938 136.1756134033203 287.4887084960938 133.9700012207031 L 287.4887084960938 5 C 287.4887084960938 2.794387817382813 285.6943054199219 1 283.4887084960938 1 L 5 1 M 5 0 L 283.4887084960938 0 C 286.2500915527344 0 288.4887084960938 2.238571166992188 288.4887084960938 5 L 288.4887084960938 133.9700012207031 C 288.4887084960938 136.7314300537109 286.2500915527344 138.9700012207031 283.4887084960938 138.9700012207031 L 5 138.9700012207031 C 2.238555908203125 138.9700012207031 0 136.7314300537109 0 133.9700012207031 L 0 5 C 0 2.238571166992188 2.238555908203125 0 5 0 Z" stroke="none" fill="#dbdbdb"/></g><path d="M5.8,15,2.406,6.141H2.352q.1,1.053.1,2.5V15H1.374V5.006h1.75L6.289,13.25h.055L9.536,5.006h1.736V15H10.11V8.561q0-1.107.1-2.406h-.055L6.733,15ZM20.31,11.247a4.133,4.133,0,0,1-.923,2.861,3.25,3.25,0,0,1-2.55,1.029,3.377,3.377,0,0,1-1.784-.472,3.113,3.113,0,0,1-1.2-1.354,4.717,4.717,0,0,1-.424-2.064,4.127,4.127,0,0,1,.916-2.854,3.24,3.24,0,0,1,2.543-1.022,3.169,3.169,0,0,1,2.5,1.046A4.115,4.115,0,0,1,20.31,11.247Zm-5.708,0a3.556,3.556,0,0,0,.574,2.188,1.993,1.993,0,0,0,1.688.752,2.006,2.006,0,0,0,1.692-.749,3.538,3.538,0,0,0,.578-2.191,3.481,3.481,0,0,0-.578-2.17,2.03,2.03,0,0,0-1.706-.742,2,2,0,0,0-1.682.731A3.52,3.52,0,0,0,14.6,11.247ZM25.717,7.371a4.44,4.44,0,0,1,.9.082l-.157,1.053a3.865,3.865,0,0,0-.82-.1,2,2,0,0,0-1.555.738,2.692,2.692,0,0,0-.646,1.839V15H22.3V7.508h.937l.13,1.388h.055a3.293,3.293,0,0,1,1-1.128A2.262,2.262,0,0,1,25.717,7.371Zm5.462,7.766a3.442,3.442,0,0,1-2.622-1.012,3.917,3.917,0,0,1-.96-2.81,4.344,4.344,0,0,1,.892-2.878,2.963,2.963,0,0,1,2.4-1.066,2.825,2.825,0,0,1,2.229.926,3.55,3.55,0,0,1,.82,2.444v.718H28.772a2.97,2.97,0,0,0,.667,2,2.305,2.305,0,0,0,1.781.684,6.035,6.035,0,0,0,2.393-.506v1.012a6.005,6.005,0,0,1-1.138.373A6.4,6.4,0,0,1,31.179,15.137Zm-.308-6.815a1.853,1.853,0,0,0-1.439.588,2.71,2.71,0,0,0-.632,1.627h3.917a2.5,2.5,0,0,0-.479-1.644A1.684,1.684,0,0,0,30.871,8.321ZM41.925,14.2a3.707,3.707,0,0,0,.581-.044,3.761,3.761,0,0,0,.444-.092v.868a2.074,2.074,0,0,1-.543.147,4.081,4.081,0,0,1-.646.058q-2.174,0-2.174-2.29V8.39H38.514V7.843l1.073-.472.479-1.6h.656V7.508H42.9V8.39H40.722V12.8a1.517,1.517,0,0,0,.321,1.039A1.118,1.118,0,0,0,41.925,14.2Zm7.649.8V10.153a1.955,1.955,0,0,0-.417-1.367,1.7,1.7,0,0,0-1.306-.451,2.139,2.139,0,0,0-1.726.643,3.255,3.255,0,0,0-.543,2.105V15H44.447V4.363h1.135v3.22a7.016,7.016,0,0,1-.055.964H45.6a2.314,2.314,0,0,1,.954-.851,3.1,3.1,0,0,1,1.412-.311,2.891,2.891,0,0,1,2.061.653,2.749,2.749,0,0,1,.687,2.075V15Zm8.073,0-.226-1.066h-.055a3.153,3.153,0,0,1-1.118.954,3.407,3.407,0,0,1-1.391.25,2.5,2.5,0,0,1-1.747-.574,2.094,2.094,0,0,1-.632-1.634q0-2.27,3.63-2.379l1.271-.041v-.465A1.9,1.9,0,0,0,57,8.742a1.56,1.56,0,0,0-1.213-.42,4.944,4.944,0,0,0-2.119.574l-.349-.868a5.332,5.332,0,0,1,1.213-.472,5.255,5.255,0,0,1,1.323-.171,2.854,2.854,0,0,1,1.986.595,2.482,2.482,0,0,1,.646,1.907V15Zm-2.563-.8a2.3,2.3,0,0,0,1.665-.581,2.15,2.15,0,0,0,.6-1.627v-.677l-1.135.048a4.128,4.128,0,0,0-1.952.42,1.268,1.268,0,0,0-.6,1.159,1.169,1.169,0,0,0,.373.937A1.546,1.546,0,0,0,55.084,14.2Zm10.869.8V10.153a1.955,1.955,0,0,0-.417-1.367,1.7,1.7,0,0,0-1.306-.451,2.153,2.153,0,0,0-1.723.636,3.21,3.21,0,0,0-.547,2.1V15H60.826V7.508h.923l.185,1.025h.055a2.317,2.317,0,0,1,.978-.858,3.176,3.176,0,0,1,1.4-.3,2.846,2.846,0,0,1,2.037.653,2.778,2.778,0,0,1,.684,2.088V15Zm13.152,0H72.536v-.978l2.632-2.646a19.38,19.38,0,0,0,1.586-1.736,4.431,4.431,0,0,0,.574-1.012,2.9,2.9,0,0,0,.191-1.06A1.68,1.68,0,0,0,77.034,6.3a1.859,1.859,0,0,0-1.347-.468,3.386,3.386,0,0,0-1.179.205,4.7,4.7,0,0,0-1.241.745l-.6-.772a4.607,4.607,0,0,1,3.008-1.148,3.178,3.178,0,0,1,2.208.721,2.48,2.48,0,0,1,.8,1.938,3.743,3.743,0,0,1-.533,1.88,11.935,11.935,0,0,1-2,2.352l-2.187,2.14v.055h5.141Zm8.06-5.011a7.3,7.3,0,0,1-.817,3.869,3.017,3.017,0,0,1-4.953-.031,7.154,7.154,0,0,1-.841-3.838,7.3,7.3,0,0,1,.813-3.876,3.019,3.019,0,0,1,4.953.055A7.123,7.123,0,0,1,87.165,9.989Zm-5.462,0a7.319,7.319,0,0,0,.513,3.175,1.842,1.842,0,0,0,3.278-.014A7.376,7.376,0,0,0,86,9.989a7.327,7.327,0,0,0-.509-3.155,1.848,1.848,0,0,0-3.278-.014A7.271,7.271,0,0,0,81.7,9.989Zm13.467,0a7.3,7.3,0,0,1-.817,3.869,3.017,3.017,0,0,1-4.953-.031,7.154,7.154,0,0,1-.841-3.838,7.3,7.3,0,0,1,.813-3.876,3.019,3.019,0,0,1,4.953.055A7.123,7.123,0,0,1,95.17,9.989Zm-5.462,0a7.319,7.319,0,0,0,.513,3.175,1.842,1.842,0,0,0,3.278-.014,7.376,7.376,0,0,0,.509-3.162A7.327,7.327,0,0,0,93.5,6.834a1.848,1.848,0,0,0-3.278-.014A7.271,7.271,0,0,0,89.708,9.989Zm9.81-2.481h1.217l1.641,4.272a16.251,16.251,0,0,1,.67,2.112h.055q.089-.349.373-1.193t1.856-5.192h1.217l-3.22,8.531a4.256,4.256,0,0,1-1.118,1.794,2.377,2.377,0,0,1-1.569.53,4.565,4.565,0,0,1-1.025-.116v-.909a3.955,3.955,0,0,0,.841.082,1.733,1.733,0,0,0,1.668-1.312l.417-1.066Zm11.409,7.629a3.442,3.442,0,0,1-2.622-1.012,3.917,3.917,0,0,1-.96-2.81,4.344,4.344,0,0,1,.892-2.878,2.963,2.963,0,0,1,2.4-1.066,2.825,2.825,0,0,1,2.229.926,3.55,3.55,0,0,1,.82,2.444v.718h-5.161a2.97,2.97,0,0,0,.667,2,2.305,2.305,0,0,0,1.781.684,6.035,6.035,0,0,0,2.393-.506v1.012a6.005,6.005,0,0,1-1.138.373A6.4,6.4,0,0,1,110.927,15.137Zm-.308-6.815a1.853,1.853,0,0,0-1.439.588,2.71,2.71,0,0,0-.632,1.627h3.917a2.5,2.5,0,0,0-.479-1.644A1.684,1.684,0,0,0,110.619,8.321Zm9.6,6.679L120,13.934h-.055a3.153,3.153,0,0,1-1.118.954,3.407,3.407,0,0,1-1.391.25,2.5,2.5,0,0,1-1.747-.574,2.094,2.094,0,0,1-.632-1.634q0-2.27,3.63-2.379l1.271-.041v-.465a1.9,1.9,0,0,0-.379-1.3,1.56,1.56,0,0,0-1.213-.42,4.944,4.944,0,0,0-2.119.574l-.349-.868a5.332,5.332,0,0,1,1.213-.472,5.255,5.255,0,0,1,1.323-.171,2.854,2.854,0,0,1,1.986.595,2.482,2.482,0,0,1,.646,1.907V15Zm-2.563-.8a2.3,2.3,0,0,0,1.665-.581,2.15,2.15,0,0,0,.6-1.627v-.677l-1.135.048a4.128,4.128,0,0,0-1.952.42,1.268,1.268,0,0,0-.6,1.159,1.169,1.169,0,0,0,.373.937A1.546,1.546,0,0,0,117.66,14.2Zm9.16-6.829a4.44,4.44,0,0,1,.9.082l-.157,1.053a3.865,3.865,0,0,0-.82-.1,2,2,0,0,0-1.555.738,2.692,2.692,0,0,0-.646,1.839V15H123.4V7.508h.937l.13,1.388h.055a3.293,3.293,0,0,1,1-1.128A2.262,2.262,0,0,1,126.82,7.371Zm7.13,5.585a1.877,1.877,0,0,1-.779,1.613,3.663,3.663,0,0,1-2.187.567,4.757,4.757,0,0,1-2.324-.472V13.612a5.621,5.621,0,0,0,1.159.431,4.839,4.839,0,0,0,1.193.157,2.705,2.705,0,0,0,1.367-.284.977.977,0,0,0,.1-1.613,5.968,5.968,0,0,0-1.48-.735,8.025,8.025,0,0,1-1.487-.68,2.031,2.031,0,0,1-.656-.66,1.72,1.72,0,0,1-.215-.882,1.681,1.681,0,0,1,.745-1.446,3.472,3.472,0,0,1,2.044-.53,5.98,5.98,0,0,1,2.365.492l-.4.923a5.429,5.429,0,0,0-2.044-.465,2.352,2.352,0,0,0-1.217.253.782.782,0,0,0-.41.7.849.849,0,0,0,.154.513,1.518,1.518,0,0,0,.5.4,11.075,11.075,0,0,0,1.313.554,4.9,4.9,0,0,1,1.8.978A1.724,1.724,0,0,1,133.95,12.956ZM144.04,15l-.226-1.066h-.055a3.153,3.153,0,0,1-1.118.954,3.407,3.407,0,0,1-1.391.25,2.5,2.5,0,0,1-1.747-.574,2.094,2.094,0,0,1-.632-1.634q0-2.27,3.63-2.379l1.271-.041v-.465a1.9,1.9,0,0,0-.379-1.3,1.56,1.56,0,0,0-1.213-.42,4.944,4.944,0,0,0-2.119.574l-.349-.868a5.333,5.333,0,0,1,1.213-.472,5.255,5.255,0,0,1,1.323-.171,2.854,2.854,0,0,1,1.986.595,2.482,2.482,0,0,1,.646,1.907V15Zm-2.563-.8a2.3,2.3,0,0,0,1.665-.581,2.15,2.15,0,0,0,.6-1.627v-.677l-1.135.048a4.128,4.128,0,0,0-1.952.42,1.268,1.268,0,0,0-.6,1.159,1.169,1.169,0,0,0,.373.937A1.546,1.546,0,0,0,141.477,14.2Zm11.874-6.692v.718l-1.388.164a2.437,2.437,0,0,1,.492,1.5,2.215,2.215,0,0,1-.752,1.757,3.033,3.033,0,0,1-2.064.656,3.438,3.438,0,0,1-.629-.055,1.117,1.117,0,0,0-.725.964.49.49,0,0,0,.253.455,1.848,1.848,0,0,0,.868.147h1.326a2.97,2.97,0,0,1,1.87.513,1.781,1.781,0,0,1,.653,1.49,2.127,2.127,0,0,1-1,1.9,5.342,5.342,0,0,1-2.912.653,3.979,3.979,0,0,1-2.266-.547,1.766,1.766,0,0,1-.8-1.545,1.735,1.735,0,0,1,.438-1.183,2.228,2.228,0,0,1,1.23-.677,1.187,1.187,0,0,1-.482-.4,1.067,1.067,0,0,1-.195-.636,1.207,1.207,0,0,1,.219-.718,2.3,2.3,0,0,1,.69-.595,2.024,2.024,0,0,1-.947-.813,2.39,2.39,0,0,1-.366-1.312,2.424,2.424,0,0,1,.738-1.9,3.014,3.014,0,0,1,2.092-.667,3.8,3.8,0,0,1,1.06.137Zm-5.975,8.75a1.017,1.017,0,0,0,.513.923,2.83,2.83,0,0,0,1.47.314,4.1,4.1,0,0,0,2.116-.427,1.308,1.308,0,0,0,.687-1.159.917.917,0,0,0-.376-.844,2.92,2.92,0,0,0-1.415-.236h-1.36a1.792,1.792,0,0,0-1.2.369A1.319,1.319,0,0,0,147.376,16.258Zm.615-6.351a1.525,1.525,0,0,0,.444,1.189,1.774,1.774,0,0,0,1.237.4,1.447,1.447,0,0,0,1.661-1.613A1.489,1.489,0,0,0,149.652,8.2a1.665,1.665,0,0,0-1.23.431A1.734,1.734,0,0,0,147.991,9.907Zm13.364,1.34a4.133,4.133,0,0,1-.923,2.861,3.25,3.25,0,0,1-2.55,1.029,3.377,3.377,0,0,1-1.784-.472,3.113,3.113,0,0,1-1.2-1.354,4.717,4.717,0,0,1-.424-2.064,4.127,4.127,0,0,1,.916-2.854,3.24,3.24,0,0,1,2.543-1.022,3.169,3.169,0,0,1,2.5,1.046A4.115,4.115,0,0,1,161.355,11.247Zm-5.708,0a3.556,3.556,0,0,0,.574,2.188,2.279,2.279,0,0,0,3.38,0,3.538,3.538,0,0,0,.578-2.191,3.481,3.481,0,0,0-.578-2.17,2.03,2.03,0,0,0-1.706-.742,2,2,0,0,0-1.682.731A3.52,3.52,0,0,0,155.647,11.247Zm8.887,2.126.1.157q-.178.684-.513,1.589t-.7,1.685h-.854q.185-.711.407-1.757t.311-1.675ZM171.548,15h-1.135V7.508h1.135Zm-1.23-9.522a.754.754,0,0,1,.191-.571.709.709,0,0,1,.95,0,.74.74,0,0,1,.2.567.752.752,0,0,1-.2.571.694.694,0,0,1-.95,0A.768.768,0,0,1,170.317,5.478ZM179.081,15V10.153a1.955,1.955,0,0,0-.417-1.367,1.7,1.7,0,0,0-1.306-.451,2.153,2.153,0,0,0-1.723.636,3.21,3.21,0,0,0-.547,2.1V15h-1.135V7.508h.923l.185,1.025h.055a2.317,2.317,0,0,1,.978-.858,3.176,3.176,0,0,1,1.4-.3,2.846,2.846,0,0,1,2.037.653,2.778,2.778,0,0,1,.684,2.088V15Zm10.787,0h-1.107V7.877q0-.889.055-1.682-.144.144-.321.3t-1.627,1.333l-.6-.779,2.646-2.044h.957Zm7.109-10.138a3.389,3.389,0,0,1,2.167.636,2.12,2.12,0,0,1,.8,1.757,2.187,2.187,0,0,1-.458,1.347,4.046,4.046,0,0,1-1.463,1.107,4.918,4.918,0,0,1,1.729,1.22,2.3,2.3,0,0,1,.513,1.48A2.479,2.479,0,0,1,199.4,14.4a3.544,3.544,0,0,1-2.379.742,3.81,3.81,0,0,1-2.461-.7,2.414,2.414,0,0,1-.861-1.986q0-1.716,2.092-2.673a3.861,3.861,0,0,1-1.354-1.152,2.45,2.45,0,0,1-.41-1.384,2.109,2.109,0,0,1,.8-1.733A3.331,3.331,0,0,1,196.978,4.862Zm-2.16,7.615a1.547,1.547,0,0,0,.571,1.278,2.5,2.5,0,0,0,1.6.458,2.388,2.388,0,0,0,1.586-.479,1.626,1.626,0,0,0,.567-1.312,1.6,1.6,0,0,0-.533-1.179,5.441,5.441,0,0,0-1.859-1,4.046,4.046,0,0,0-1.477.967A1.874,1.874,0,0,0,194.817,12.478Zm2.146-6.692a2.012,2.012,0,0,0-1.34.41,1.36,1.36,0,0,0-.485,1.094,1.565,1.565,0,0,0,.4,1.08,4.212,4.212,0,0,0,1.49.9,3.733,3.733,0,0,0,1.384-.882,1.633,1.633,0,0,0,.407-1.1,1.345,1.345,0,0,0-.5-1.1A2.089,2.089,0,0,0,196.964,5.785Zm11.334,4.2a7.3,7.3,0,0,1-.817,3.869,3.017,3.017,0,0,1-4.953-.031,7.154,7.154,0,0,1-.841-3.838,7.3,7.3,0,0,1,.813-3.876,3.019,3.019,0,0,1,4.953.055A7.123,7.123,0,0,1,208.3,9.989Zm-5.462,0a7.319,7.319,0,0,0,.513,3.175,1.842,1.842,0,0,0,3.278-.014,7.376,7.376,0,0,0,.509-3.162,7.327,7.327,0,0,0-.509-3.155,1.848,1.848,0,0,0-3.278-.014A7.271,7.271,0,0,0,202.836,9.989ZM216.72,12.7h-1.483V15h-1.087V12.7h-4.86v-.991l4.744-6.761h1.2v6.72h1.483Zm-2.57-1.032V8.349q0-.978.068-2.208h-.055a10.272,10.272,0,0,1-.615,1.087l-3.124,4.443Zm5.243,1.7.1.157q-.178.684-.513,1.589t-.7,1.685h-.854q.185-.711.407-1.757t.311-1.675ZM3.623,38.2a3.707,3.707,0,0,0,.581-.044,3.761,3.761,0,0,0,.444-.092v.868a2.074,2.074,0,0,1-.543.147,4.081,4.081,0,0,1-.646.058q-2.174,0-2.174-2.29V32.39H.212v-.547l1.073-.472.479-1.6H2.42v1.736H4.594v.882H2.42V36.8a1.517,1.517,0,0,0,.321,1.039A1.118,1.118,0,0,0,3.623,38.2Zm8.641.8L10.89,34.6q-.13-.4-.485-1.832H10.35q-.273,1.2-.479,1.846L8.456,39H7.144L5.1,31.508H6.289l1.1,4.3A17.421,17.421,0,0,1,7.827,37.8h.055q.075-.39.243-1.008t.291-.981l1.374-4.3h1.23l1.34,4.3a14.513,14.513,0,0,1,.52,1.976h.055a7.246,7.246,0,0,1,.147-.759q.12-.513,1.425-5.517h1.176L13.61,39ZM23.5,35.247a4.133,4.133,0,0,1-.923,2.861,3.25,3.25,0,0,1-2.55,1.029,3.377,3.377,0,0,1-1.784-.472,3.113,3.113,0,0,1-1.2-1.354,4.717,4.717,0,0,1-.424-2.064,4.127,4.127,0,0,1,.916-2.854,3.24,3.24,0,0,1,2.543-1.022,3.169,3.169,0,0,1,2.5,1.046A4.115,4.115,0,0,1,23.5,35.247Zm-5.708,0a3.556,3.556,0,0,0,.574,2.188,1.993,1.993,0,0,0,1.688.752,2.006,2.006,0,0,0,1.692-.749,3.538,3.538,0,0,0,.578-2.191,3.481,3.481,0,0,0-.578-2.17,2.03,2.03,0,0,0-1.706-.742,2,2,0,0,0-1.682.731A3.52,3.52,0,0,0,17.794,35.247Zm14.5,3.89a3.442,3.442,0,0,1-2.622-1.012,3.917,3.917,0,0,1-.96-2.81,4.344,4.344,0,0,1,.892-2.878A2.963,2.963,0,0,1,32,31.371a2.825,2.825,0,0,1,2.229.926,3.55,3.55,0,0,1,.82,2.444v.718H29.887a2.97,2.97,0,0,0,.667,2,2.305,2.305,0,0,0,1.781.684,6.035,6.035,0,0,0,2.393-.506v1.012a6.005,6.005,0,0,1-1.138.373A6.4,6.4,0,0,1,32.293,39.137Zm-.308-6.815a1.853,1.853,0,0,0-1.439.588,2.71,2.71,0,0,0-.632,1.627h3.917a2.5,2.5,0,0,0-.479-1.644A1.684,1.684,0,0,0,31.985,32.321Zm6.8,2.844-2.6-3.657h1.292l1.976,2.871,1.969-2.871H42.7l-2.6,3.657L42.834,39H41.549l-2.1-3.035L37.331,39H36.046ZM47.8,39.137a3.242,3.242,0,0,1-1.336-.27,2.513,2.513,0,0,1-1.015-.831H45.37a10.049,10.049,0,0,1,.082,1.244v3.083H44.317V31.508h.923l.157,1.025h.055a2.635,2.635,0,0,1,1.019-.889,3.1,3.1,0,0,1,1.333-.273,2.769,2.769,0,0,1,2.3,1.019,4.484,4.484,0,0,1,.81,2.857,4.458,4.458,0,0,1-.824,2.868A2.774,2.774,0,0,1,47.8,39.137Zm-.164-6.8a2.011,2.011,0,0,0-1.661.636,3.271,3.271,0,0,0-.526,2.023v.253a3.749,3.749,0,0,0,.526,2.259,2,2,0,0,0,1.688.68,1.756,1.756,0,0,0,1.521-.786,3.728,3.728,0,0,0,.55-2.167,3.588,3.588,0,0,0-.55-2.15A1.81,1.81,0,0,0,47.64,32.335ZM54.031,39H52.9V28.363h1.135ZM62.9,35.247a4.133,4.133,0,0,1-.923,2.861,3.25,3.25,0,0,1-2.55,1.029,3.377,3.377,0,0,1-1.784-.472,3.113,3.113,0,0,1-1.2-1.354,4.717,4.717,0,0,1-.424-2.064,4.127,4.127,0,0,1,.916-2.854,3.24,3.24,0,0,1,2.543-1.022,3.169,3.169,0,0,1,2.5,1.046A4.115,4.115,0,0,1,62.9,35.247Zm-5.708,0a3.556,3.556,0,0,0,.574,2.188,2.279,2.279,0,0,0,3.38,0,3.538,3.538,0,0,0,.578-2.191,3.481,3.481,0,0,0-.578-2.17,2.03,2.03,0,0,0-1.706-.742,2,2,0,0,0-1.682.731A3.52,3.52,0,0,0,57.2,35.247Zm11.115-3.876a4.44,4.44,0,0,1,.9.082l-.157,1.053a3.865,3.865,0,0,0-.82-.1,2,2,0,0,0-1.555.738,2.692,2.692,0,0,0-.646,1.839V39H64.894V31.508h.937l.13,1.388h.055a3.293,3.293,0,0,1,1-1.128A2.262,2.262,0,0,1,68.312,31.371Zm5.462,7.766a3.442,3.442,0,0,1-2.622-1.012,3.917,3.917,0,0,1-.96-2.81,4.344,4.344,0,0,1,.892-2.878,2.963,2.963,0,0,1,2.4-1.066,2.825,2.825,0,0,1,2.229.926,3.55,3.55,0,0,1,.82,2.444v.718H71.367a2.97,2.97,0,0,0,.667,2,2.305,2.305,0,0,0,1.781.684,6.035,6.035,0,0,0,2.393-.506v1.012a6.005,6.005,0,0,1-1.138.373A6.4,6.4,0,0,1,73.773,39.137Zm-.308-6.815a1.853,1.853,0,0,0-1.439.588,2.71,2.71,0,0,0-.632,1.627h3.917a2.5,2.5,0,0,0-.479-1.644A1.684,1.684,0,0,0,73.466,32.321Zm8.415-.95a4.44,4.44,0,0,1,.9.082l-.157,1.053a3.865,3.865,0,0,0-.82-.1,2,2,0,0,0-1.555.738A2.692,2.692,0,0,0,79.6,34.98V39H78.463V31.508H79.4l.13,1.388h.055a3.293,3.293,0,0,1,1-1.128A2.262,2.262,0,0,1,81.881,31.371Zm7.13,5.585a1.877,1.877,0,0,1-.779,1.613,3.663,3.663,0,0,1-2.187.567,4.757,4.757,0,0,1-2.324-.472V37.612a5.62,5.62,0,0,0,1.159.431,4.839,4.839,0,0,0,1.193.157,2.705,2.705,0,0,0,1.367-.284.977.977,0,0,0,.1-1.613,5.968,5.968,0,0,0-1.48-.735,8.025,8.025,0,0,1-1.487-.68,2.031,2.031,0,0,1-.656-.66,1.72,1.72,0,0,1-.215-.882,1.681,1.681,0,0,1,.745-1.446,3.472,3.472,0,0,1,2.044-.53,5.98,5.98,0,0,1,2.365.492l-.4.923a5.429,5.429,0,0,0-2.044-.465,2.352,2.352,0,0,0-1.217.253.782.782,0,0,0-.41.7.849.849,0,0,0,.154.513,1.518,1.518,0,0,0,.5.4,11.075,11.075,0,0,0,1.313.554,4.9,4.9,0,0,1,1.8.978A1.724,1.724,0,0,1,89.011,36.956ZM104.043,39V34.126a2.023,2.023,0,0,0-.383-1.343,1.481,1.481,0,0,0-1.189-.448,1.92,1.92,0,0,0-1.565.608,2.891,2.891,0,0,0-.506,1.873V39H99.265V34.126a2.023,2.023,0,0,0-.383-1.343,1.49,1.49,0,0,0-1.2-.448,1.853,1.853,0,0,0-1.562.639,3.459,3.459,0,0,0-.5,2.1V39H94.493V31.508h.923l.185,1.025h.055a2.23,2.23,0,0,1,.906-.854,2.767,2.767,0,0,1,1.309-.308,2.226,2.226,0,0,1,2.3,1.271h.055a2.389,2.389,0,0,1,.971-.93,3.012,3.012,0,0,1,1.449-.342,2.537,2.537,0,0,1,1.9.653,2.921,2.921,0,0,1,.632,2.088V39Zm8.08,0-.226-1.066h-.055a3.153,3.153,0,0,1-1.118.954,3.407,3.407,0,0,1-1.391.25,2.5,2.5,0,0,1-1.747-.574,2.094,2.094,0,0,1-.632-1.634q0-2.27,3.63-2.379l1.271-.041v-.465a1.9,1.9,0,0,0-.379-1.3,1.56,1.56,0,0,0-1.213-.42,4.944,4.944,0,0,0-2.119.574l-.349-.868a5.332,5.332,0,0,1,1.213-.472,5.255,5.255,0,0,1,1.323-.171,2.854,2.854,0,0,1,1.986.595,2.482,2.482,0,0,1,.646,1.907V39Zm-2.563-.8a2.3,2.3,0,0,0,1.665-.581,2.15,2.15,0,0,0,.6-1.627v-.677l-1.135.048a4.128,4.128,0,0,0-1.952.42,1.268,1.268,0,0,0-.6,1.159,1.169,1.169,0,0,0,.373.937A1.546,1.546,0,0,0,109.56,38.2ZM120.4,38h-.062a2.666,2.666,0,0,1-2.352,1.142,2.782,2.782,0,0,1-2.287-1,4.423,4.423,0,0,1-.817-2.857,4.5,4.5,0,0,1,.82-2.878,2.76,2.76,0,0,1,2.283-1.025,2.724,2.724,0,0,1,2.338,1.107h.089l-.048-.54-.027-.526V28.363h1.135V39h-.923Zm-2.27.191a2.066,2.066,0,0,0,1.685-.632,3.2,3.2,0,0,0,.523-2.041v-.239A3.76,3.76,0,0,0,119.81,33a2.012,2.012,0,0,0-1.692-.68,1.737,1.737,0,0,0-1.528.776,3.858,3.858,0,0,0-.53,2.191,3.7,3.7,0,0,0,.526,2.167A1.783,1.783,0,0,0,118.132,38.187Zm8.914.95a3.442,3.442,0,0,1-2.622-1.012,3.917,3.917,0,0,1-.96-2.81,4.344,4.344,0,0,1,.892-2.878,2.963,2.963,0,0,1,2.4-1.066,2.825,2.825,0,0,1,2.229.926,3.55,3.55,0,0,1,.82,2.444v.718H124.64a2.97,2.97,0,0,0,.667,2,2.305,2.305,0,0,0,1.781.684,6.035,6.035,0,0,0,2.393-.506v1.012a6.005,6.005,0,0,1-1.138.373A6.4,6.4,0,0,1,127.046,39.137Zm-.308-6.815a1.853,1.853,0,0,0-1.439.588,2.71,2.71,0,0,0-.632,1.627h3.917a2.5,2.5,0,0,0-.479-1.644A1.684,1.684,0,0,0,126.738,32.321ZM139.979,39l-.226-1.066H139.7a3.153,3.153,0,0,1-1.118.954,3.407,3.407,0,0,1-1.391.25,2.5,2.5,0,0,1-1.747-.574,2.094,2.094,0,0,1-.632-1.634q0-2.27,3.63-2.379l1.271-.041v-.465a1.9,1.9,0,0,0-.379-1.3,1.56,1.56,0,0,0-1.213-.42A4.944,4.944,0,0,0,136,32.9l-.349-.868a5.332,5.332,0,0,1,1.213-.472,5.255,5.255,0,0,1,1.323-.171,2.854,2.854,0,0,1,1.986.595,2.482,2.482,0,0,1,.646,1.907V39Zm-2.563-.8a2.3,2.3,0,0,0,1.665-.581,2.15,2.15,0,0,0,.6-1.627v-.677l-1.135.048a4.128,4.128,0,0,0-1.952.42,1.268,1.268,0,0,0-.6,1.159,1.169,1.169,0,0,0,.373.937A1.546,1.546,0,0,0,137.416,38.2Zm10.869.8V34.153a1.955,1.955,0,0,0-.417-1.367,1.7,1.7,0,0,0-1.306-.451,2.153,2.153,0,0,0-1.723.636,3.21,3.21,0,0,0-.547,2.1V39h-1.135V31.508h.923l.185,1.025h.055a2.317,2.317,0,0,1,.978-.858,3.176,3.176,0,0,1,1.4-.3,2.846,2.846,0,0,1,2.037.653,2.778,2.778,0,0,1,.684,2.088V39Zm8.237,0h-1.135V31.508h1.135Zm-1.23-9.522a.754.754,0,0,1,.191-.571.709.709,0,0,1,.95,0,.74.74,0,0,1,.2.567.752.752,0,0,1-.2.571.694.694,0,0,1-.95,0A.768.768,0,0,1,155.292,29.478ZM168.479,39V34.126a2.023,2.023,0,0,0-.383-1.343,1.481,1.481,0,0,0-1.189-.448,1.92,1.92,0,0,0-1.565.608,2.891,2.891,0,0,0-.506,1.873V39H163.7V34.126a2.023,2.023,0,0,0-.383-1.343,1.49,1.49,0,0,0-1.2-.448,1.853,1.853,0,0,0-1.562.639,3.459,3.459,0,0,0-.5,2.1V39h-1.135V31.508h.923l.185,1.025h.055a2.23,2.23,0,0,1,.906-.854,2.767,2.767,0,0,1,1.309-.308,2.226,2.226,0,0,1,2.3,1.271h.055a2.389,2.389,0,0,1,.971-.93,3.012,3.012,0,0,1,1.449-.342,2.537,2.537,0,0,1,1.9.653,2.921,2.921,0,0,1,.632,2.088V39Zm6.959.137a3.242,3.242,0,0,1-1.336-.27,2.513,2.513,0,0,1-1.015-.831H173a10.049,10.049,0,0,1,.082,1.244v3.083h-1.135V31.508h.923l.157,1.025h.055a2.635,2.635,0,0,1,1.019-.889,3.1,3.1,0,0,1,1.333-.273,2.769,2.769,0,0,1,2.3,1.019,4.484,4.484,0,0,1,.81,2.857,4.458,4.458,0,0,1-.824,2.868A2.774,2.774,0,0,1,175.438,39.137Zm-.164-6.8a2.011,2.011,0,0,0-1.661.636,3.271,3.271,0,0,0-.526,2.023v.253a3.749,3.749,0,0,0,.526,2.259,2,2,0,0,0,1.688.68,1.756,1.756,0,0,0,1.521-.786,3.728,3.728,0,0,0,.55-2.167,3.588,3.588,0,0,0-.55-2.15A1.81,1.81,0,0,0,175.273,32.335ZM187,35.247a4.133,4.133,0,0,1-.923,2.861,3.25,3.25,0,0,1-2.55,1.029,3.377,3.377,0,0,1-1.784-.472,3.113,3.113,0,0,1-1.2-1.354,4.717,4.717,0,0,1-.424-2.064,4.127,4.127,0,0,1,.916-2.854,3.24,3.24,0,0,1,2.543-1.022,3.169,3.169,0,0,1,2.5,1.046A4.115,4.115,0,0,1,187,35.247Zm-5.708,0a3.556,3.556,0,0,0,.574,2.188,2.279,2.279,0,0,0,3.38,0,3.538,3.538,0,0,0,.578-2.191,3.481,3.481,0,0,0-.578-2.17,2.03,2.03,0,0,0-1.706-.742,2,2,0,0,0-1.682.731A3.52,3.52,0,0,0,181.289,35.247ZM192.4,31.371a4.44,4.44,0,0,1,.9.082l-.157,1.053a3.865,3.865,0,0,0-.82-.1,2,2,0,0,0-1.555.738,2.692,2.692,0,0,0-.646,1.839V39h-1.135V31.508h.937l.13,1.388h.055a3.294,3.294,0,0,1,1-1.128A2.262,2.262,0,0,1,192.4,31.371Zm4.717,6.829a3.707,3.707,0,0,0,.581-.044,3.761,3.761,0,0,0,.444-.092v.868a2.074,2.074,0,0,1-.543.147,4.081,4.081,0,0,1-.646.058q-2.174,0-2.174-2.29V32.39H193.71v-.547l1.073-.472.479-1.6h.656v1.736h2.174v.882h-2.174V36.8a1.517,1.517,0,0,0,.321,1.039A1.118,1.118,0,0,0,197.121,38.2Zm7.13.8-.226-1.066h-.055a3.153,3.153,0,0,1-1.118.954,3.407,3.407,0,0,1-1.391.25,2.5,2.5,0,0,1-1.747-.574,2.094,2.094,0,0,1-.632-1.634q0-2.27,3.63-2.379l1.271-.041v-.465a1.9,1.9,0,0,0-.379-1.3,1.56,1.56,0,0,0-1.213-.42,4.944,4.944,0,0,0-2.119.574l-.349-.868a5.332,5.332,0,0,1,1.213-.472,5.255,5.255,0,0,1,1.323-.171,2.854,2.854,0,0,1,1.986.595,2.482,2.482,0,0,1,.646,1.907V39Zm-2.563-.8a2.3,2.3,0,0,0,1.665-.581,2.15,2.15,0,0,0,.6-1.627v-.677l-1.135.048a4.128,4.128,0,0,0-1.952.42,1.268,1.268,0,0,0-.6,1.159,1.169,1.169,0,0,0,.373.937A1.546,1.546,0,0,0,201.688,38.2Zm10.869.8V34.153a1.955,1.955,0,0,0-.417-1.367,1.7,1.7,0,0,0-1.306-.451,2.153,2.153,0,0,0-1.723.636,3.21,3.21,0,0,0-.547,2.1V39H207.43V31.508h.923l.185,1.025h.055a2.317,2.317,0,0,1,.978-.858,3.176,3.176,0,0,1,1.4-.3,2.846,2.846,0,0,1,2.037.653,2.778,2.778,0,0,1,.684,2.088V39Zm5.886-.8a3.707,3.707,0,0,0,.581-.044,3.761,3.761,0,0,0,.444-.092v.868a2.074,2.074,0,0,1-.543.147,4.081,4.081,0,0,1-.646.058q-2.174,0-2.174-2.29V32.39h-1.073v-.547l1.073-.472.479-1.6h.656v1.736h2.174v.882h-2.174V36.8a1.517,1.517,0,0,0,.321,1.039A1.118,1.118,0,0,0,218.442,38.2ZM.294,66.363a2.731,2.731,0,0,1-1.053-.171V65.27a3.328,3.328,0,0,0,.93.137.977.977,0,0,0,.783-.291,1.333,1.333,0,0,0,.25-.885V55.508H2.338v8.641Q2.338,66.363.294,66.363Zm.813-12.886a.754.754,0,0,1,.191-.571.669.669,0,0,1,.479-.181.669.669,0,0,1,.472.185.74.74,0,0,1,.2.567.752.752,0,0,1-.2.571.662.662,0,0,1-.472.188.655.655,0,0,1-.479-.188A.768.768,0,0,1,1.107,53.478Zm10.1,5.77a4.133,4.133,0,0,1-.923,2.861,3.25,3.25,0,0,1-2.55,1.029,3.377,3.377,0,0,1-1.784-.472,3.113,3.113,0,0,1-1.2-1.354,4.717,4.717,0,0,1-.424-2.064,4.127,4.127,0,0,1,.916-2.854,3.24,3.24,0,0,1,2.543-1.022,3.169,3.169,0,0,1,2.5,1.046A4.115,4.115,0,0,1,11.211,59.247Zm-5.708,0a3.556,3.556,0,0,0,.574,2.188,1.993,1.993,0,0,0,1.688.752,2.006,2.006,0,0,0,1.692-.749,3.538,3.538,0,0,0,.578-2.191,3.481,3.481,0,0,0-.578-2.17,2.03,2.03,0,0,0-1.706-.742,2,2,0,0,0-1.682.731A3.52,3.52,0,0,0,5.5,59.247Zm8.764-3.739v4.86a1.955,1.955,0,0,0,.417,1.367,1.7,1.7,0,0,0,1.306.451,2.13,2.13,0,0,0,1.719-.643,3.241,3.241,0,0,0,.543-2.1V55.508h1.135V63H18.45l-.164-1h-.062a2.262,2.262,0,0,1-.967.848,3.251,3.251,0,0,1-1.412.294,2.864,2.864,0,0,1-2.047-.649,2.764,2.764,0,0,1-.68-2.078v-4.9Zm10.944-.137a4.44,4.44,0,0,1,.9.082l-.157,1.053a3.865,3.865,0,0,0-.82-.1,2,2,0,0,0-1.555.738,2.692,2.692,0,0,0-.646,1.839V63H21.793V55.508h.937l.13,1.388h.055a3.293,3.293,0,0,1,1-1.128A2.262,2.262,0,0,1,25.211,55.371ZM32.635,63V58.153a1.955,1.955,0,0,0-.417-1.367,1.7,1.7,0,0,0-1.306-.451,2.153,2.153,0,0,0-1.723.636,3.21,3.21,0,0,0-.547,2.1V63H27.508V55.508h.923l.185,1.025h.055a2.317,2.317,0,0,1,.978-.858,3.176,3.176,0,0,1,1.4-.3,2.846,2.846,0,0,1,2.037.653,2.778,2.778,0,0,1,.684,2.088V63Zm6.631.137a3.442,3.442,0,0,1-2.622-1.012,3.917,3.917,0,0,1-.96-2.81,4.344,4.344,0,0,1,.892-2.878,2.963,2.963,0,0,1,2.4-1.066A2.825,2.825,0,0,1,41.2,56.3a3.55,3.55,0,0,1,.82,2.444v.718H36.859a2.97,2.97,0,0,0,.667,2,2.305,2.305,0,0,0,1.781.684A6.035,6.035,0,0,0,41.7,61.64v1.012a6.005,6.005,0,0,1-1.138.373A6.4,6.4,0,0,1,39.266,63.137Zm-.308-6.815a1.853,1.853,0,0,0-1.439.588,2.71,2.71,0,0,0-.632,1.627H40.8a2.5,2.5,0,0,0-.479-1.644A1.684,1.684,0,0,0,38.958,56.321Zm3.808-.813h1.217l1.641,4.272a16.251,16.251,0,0,1,.67,2.112h.055q.089-.349.373-1.193t1.856-5.192h1.217l-3.22,8.531a4.256,4.256,0,0,1-1.118,1.794,2.377,2.377,0,0,1-1.569.53,4.565,4.565,0,0,1-1.025-.116v-.909a3.955,3.955,0,0,0,.841.082,1.733,1.733,0,0,0,1.668-1.312l.417-1.066Zm8.08,6.768a1.018,1.018,0,0,1,.208-.694.756.756,0,0,1,.6-.236.809.809,0,0,1,.619.236.976.976,0,0,1,.222.694.959.959,0,0,1-.226.684.9.9,0,0,1-1.193.024A.936.936,0,0,1,50.846,62.275Zm3.726,0a1.018,1.018,0,0,1,.208-.694.756.756,0,0,1,.6-.236.809.809,0,0,1,.619.236.976.976,0,0,1,.222.694.959.959,0,0,1-.226.684.9.9,0,0,1-1.193.024A.936.936,0,0,1,54.571,62.275Zm3.726,0a1.018,1.018,0,0,1,.208-.694.756.756,0,0,1,.6-.236.809.809,0,0,1,.619.236.976.976,0,0,1,.222.694.959.959,0,0,1-.226.684.9.9,0,0,1-1.193.024A.936.936,0,0,1,58.3,62.275Z" transform="translate(362 255.002)" fill="#7c848e"/><path d="M8.594,0,7.453-3.172H3.086L1.969,0H0L4.273-11.469H6.3L10.578,0ZM6.961-4.781,5.891-7.891q-.117-.312-.324-.984t-.285-.984a17.509,17.509,0,0,1-.617,2.1L3.633-4.781ZM19.172,0H17.328V-5.328a2.416,2.416,0,0,0-.375-1.48A1.384,1.384,0,0,0,15.781-7.3a1.787,1.787,0,0,0-1.559.691,4.057,4.057,0,0,0-.5,2.3V0H11.891V-8.641h1.438l.258,1.133h.094a2.394,2.394,0,0,1,1.043-.953,3.363,3.363,0,0,1,1.5-.336,2.628,2.628,0,0,1,2.641,1.359h.125a2.634,2.634,0,0,1,1.078-1A3.422,3.422,0,0,1,21.664-8.8a2.9,2.9,0,0,1,2.254.781,3.46,3.46,0,0,1,.707,2.383V0H22.789V-5.328a2.4,2.4,0,0,0-.379-1.48A1.4,1.4,0,0,0,21.234-7.3a1.822,1.822,0,0,0-1.566.668,3.443,3.443,0,0,0-.5,2.051ZM30.961.156A4.18,4.18,0,0,1,27.809-1.02a4.463,4.463,0,0,1-1.137-3.238,4.9,4.9,0,0,1,1.055-3.328,3.643,3.643,0,0,1,2.9-1.211,3.561,3.561,0,0,1,2.7,1.039A3.97,3.97,0,0,1,34.32-4.9v.992H28.563a2.838,2.838,0,0,0,.68,1.934,2.367,2.367,0,0,0,1.8.676,6.662,6.662,0,0,0,1.426-.145,7.474,7.474,0,0,0,1.418-.48V-.43a5.637,5.637,0,0,1-1.359.453A8.336,8.336,0,0,1,30.961.156Zm-.336-7.562a1.845,1.845,0,0,0-1.4.555,2.644,2.644,0,0,0-.629,1.617h3.922A2.392,2.392,0,0,0,32-6.855,1.764,1.764,0,0,0,30.625-7.406ZM40.789-8.8a4.42,4.42,0,0,1,.914.078l-.18,1.711a3.47,3.47,0,0,0-.812-.094,2.351,2.351,0,0,0-1.785.719,2.6,2.6,0,0,0-.684,1.867V0H36.406V-8.641h1.438l.242,1.523h.094A3.423,3.423,0,0,1,39.3-8.344,2.665,2.665,0,0,1,40.789-8.8ZM45.141,0H43.3V-8.641h1.836ZM43.2-10.93a1.017,1.017,0,0,1,.27-.758,1.05,1.05,0,0,1,.77-.266,1.028,1.028,0,0,1,.754.266,1.017,1.017,0,0,1,.27.758,1,1,0,0,1-.27.738,1.019,1.019,0,0,1-.754.27,1.041,1.041,0,0,1-.77-.27A1,1,0,0,1,43.2-10.93ZM51.25.156A3.783,3.783,0,0,1,48.27-.988a4.782,4.782,0,0,1-1.02-3.285,4.809,4.809,0,0,1,1.066-3.352A3.956,3.956,0,0,1,51.4-8.8a5.776,5.776,0,0,1,2.461.508L53.3-6.812a5.56,5.56,0,0,0-1.922-.453q-2.242,0-2.242,2.977A3.565,3.565,0,0,0,49.7-2.105a1.934,1.934,0,0,0,1.637.73,4.7,4.7,0,0,0,2.32-.609v1.6a3.626,3.626,0,0,1-1.051.414A6.305,6.305,0,0,1,51.25.156ZM61.094,0l-.367-1.2h-.062A3.54,3.54,0,0,1,59.406-.129a3.978,3.978,0,0,1-1.625.285,2.75,2.75,0,0,1-1.988-.687,2.573,2.573,0,0,1-.715-1.945,2.284,2.284,0,0,1,.992-2.016,5.721,5.721,0,0,1,3.023-.742l1.492-.047v-.461A1.747,1.747,0,0,0,60.2-6.98a1.577,1.577,0,0,0-1.2-.41,4.147,4.147,0,0,0-1.273.2,9.61,9.61,0,0,0-1.172.461l-.594-1.312A6.39,6.39,0,0,1,57.5-8.605,7.083,7.083,0,0,1,59.078-8.8a3.738,3.738,0,0,1,2.488.719,2.814,2.814,0,0,1,.84,2.258V0ZM58.359-1.25a2.274,2.274,0,0,0,1.605-.559,2.025,2.025,0,0,0,.605-1.566v-.75l-1.109.047a3.8,3.8,0,0,0-1.887.434,1.317,1.317,0,0,0-.59,1.184,1.155,1.155,0,0,0,.344.895A1.477,1.477,0,0,0,58.359-1.25ZM72.57,0H70.727V-5.312a2.325,2.325,0,0,0-.4-1.492A1.555,1.555,0,0,0,69.047-7.3a2.031,2.031,0,0,0-1.7.688A3.8,3.8,0,0,0,66.8-4.3V0H64.969V-8.641h1.438l.258,1.133h.094a2.556,2.556,0,0,1,1.109-.953A3.718,3.718,0,0,1,69.461-8.8q3.109,0,3.109,3.164ZM85.938,0H79.477V-11.422h6.461v1.578H81.344v3.109h4.3v1.563h-4.3v3.586h4.594Zm4.2-4.414-2.9-4.227h2.094L91.3-5.617l1.984-3.023h2.078L92.453-4.414,95.508,0H93.43L91.3-3.234,89.172,0H87.094ZM101.406.156a3.026,3.026,0,0,1-2.547-1.18H98.75Q98.859.07,98.859.3V3.844H97.023V-8.641h1.484q.062.242.258,1.156h.094A2.876,2.876,0,0,1,101.438-8.8a3,3,0,0,1,2.52,1.172,5.284,5.284,0,0,1,.9,3.289,5.288,5.288,0,0,1-.918,3.3A3.026,3.026,0,0,1,101.406.156ZM100.961-7.3a1.908,1.908,0,0,0-1.6.641,3.32,3.32,0,0,0-.5,2.047v.273a4.041,4.041,0,0,0,.5,2.285,1.86,1.86,0,0,0,1.633.707,1.658,1.658,0,0,0,1.469-.781,4.035,4.035,0,0,0,.516-2.227,3.893,3.893,0,0,0-.512-2.2A1.707,1.707,0,0,0,100.961-7.3ZM108.828,0h-1.836V-12.156h1.836Zm10.289-4.336a4.716,4.716,0,0,1-1.086,3.3A3.891,3.891,0,0,1,115.008.156a4.143,4.143,0,0,1-2.141-.547,3.61,3.61,0,0,1-1.43-1.57,5.348,5.348,0,0,1-.5-2.375,4.684,4.684,0,0,1,1.078-3.281,3.909,3.909,0,0,1,3.039-1.18,3.807,3.807,0,0,1,2.969,1.207A4.663,4.663,0,0,1,119.117-4.336Zm-6.289,0q0,2.992,2.211,2.992,2.188,0,2.188-2.992,0-2.961-2.2-2.961a1.879,1.879,0,0,0-1.676.766A3.9,3.9,0,0,0,112.828-4.336ZM125.609-8.8a4.42,4.42,0,0,1,.914.078l-.18,1.711a3.47,3.47,0,0,0-.812-.094,2.351,2.351,0,0,0-1.785.719,2.6,2.6,0,0,0-.684,1.867V0h-1.836V-8.641h1.438l.242,1.523H123a3.423,3.423,0,0,1,1.121-1.227A2.665,2.665,0,0,1,125.609-8.8ZM131.9.156a4.18,4.18,0,0,1-3.152-1.176,4.463,4.463,0,0,1-1.137-3.238,4.9,4.9,0,0,1,1.055-3.328,3.643,3.643,0,0,1,2.9-1.211,3.561,3.561,0,0,1,2.7,1.039,3.97,3.97,0,0,1,.992,2.859v.992H129.5a2.838,2.838,0,0,0,.68,1.934,2.367,2.367,0,0,0,1.8.676,6.662,6.662,0,0,0,1.426-.145,7.473,7.473,0,0,0,1.418-.48V-.43a5.637,5.637,0,0,1-1.359.453A8.336,8.336,0,0,1,131.9.156Zm-.336-7.562a1.845,1.845,0,0,0-1.4.555,2.643,2.643,0,0,0-.629,1.617h3.922a2.392,2.392,0,0,0-.516-1.621A1.764,1.764,0,0,0,131.563-7.406ZM141.727-8.8a4.419,4.419,0,0,1,.914.078l-.18,1.711a3.47,3.47,0,0,0-.812-.094,2.351,2.351,0,0,0-1.785.719,2.6,2.6,0,0,0-.684,1.867V0h-1.836V-8.641h1.438l.242,1.523h.094a3.423,3.423,0,0,1,1.121-1.227A2.665,2.665,0,0,1,141.727-8.8Zm8.32,6.336a2.261,2.261,0,0,1-.922,1.941,4.414,4.414,0,0,1-2.641.676,6.237,6.237,0,0,1-2.773-.523V-1.953a6.809,6.809,0,0,0,2.836.7q1.7,0,1.7-1.023a.811.811,0,0,0-.187-.547,2.219,2.219,0,0,0-.617-.453,10.62,10.62,0,0,0-1.2-.531,5.529,5.529,0,0,1-2.02-1.156,2.139,2.139,0,0,1-.527-1.5,1.97,1.97,0,0,1,.895-1.723,4.245,4.245,0,0,1,2.434-.613,6.893,6.893,0,0,1,2.883.617L149.313-6.8a6.412,6.412,0,0,0-2.352-.578q-1.453,0-1.453.828a.833.833,0,0,0,.379.688,8.333,8.333,0,0,0,1.652.773,7.553,7.553,0,0,1,1.555.758,2.265,2.265,0,0,1,.719.793A2.3,2.3,0,0,1,150.047-2.461Z" transform="translate(362 240.051)" fill="#434b5d"/></g></svg>