<svg xmlns="http://www.w3.org/2000/svg" xmlns:xlink="http://www.w3.org/1999/xlink" width="247.207" height="145.945" viewBox="0 0 247.207 145.945"><defs><linearGradient id="a" x1="0.5" y1="1" x2="0.5" gradientUnits="objectBoundingBox"><stop offset="0" stop-color="#b1b1b1"/><stop offset="1" stop-color="#e5e5e5"/></linearGradient></defs><g transform="translate(-17.078 -52.54)"><rect width="247.207" height="145.945" rx="5" transform="translate(17.078 52.54)" fill="#fff"/><g transform="translate(-301.244 -107.432)"><g transform="translate(331 170)"><rect width="221.887" height="124.792" transform="translate(0 0)" fill="#e5e5e5"/><g transform="translate(0 98.651)"><rect width="221.887" height="26.141" transform="translate(0 0)" opacity="0.6" fill="url(#a)"/><path d="M75,406.668h1.245V402H75ZM77.49,402v4.668h1.245V402Z" transform="translate(-65.353 -386.44)" fill="#fff" fill-rule="evenodd"/><path d="M121.668,406.734v-1.66l-2.49,1.66v-1.452L117,406.734V403l2.178,1.452V403l2.49,1.659V403h.622v3.734Z" transform="translate(-94.282 -387.129)" fill="#fff" fill-rule="evenodd"/><path d="M157.6,403.49a1.4,1.4,0,0,0-.8-1.254v2.505A1.389,1.389,0,0,0,157.6,403.49Zm-3.715-.934v1.867h.663l1.606,1.556V401l-1.606,1.556Z" transform="translate(-119.687 -385.751)" fill="#fff" fill-rule="evenodd"/><path d="M64,387.245V386H273.127v1.245Z" transform="translate(-57.776 -375.419)" fill="#fff" fill-rule="evenodd" opacity="0.2"/><path d="M64,387.245V386H177.175v1.245Z" transform="translate(-57.776 -375.419)" fill="#3f85e5" fill-rule="evenodd"/><path d="M635.639,403.045a1.971,1.971,0,0,0,0-.541l.571-.46a.141.141,0,0,0,.032-.178l-.54-.961a.132.132,0,0,0-.165-.058l-.672.279a2.045,2.045,0,0,0-.456-.273l-.1-.735a.14.14,0,0,0-.135-.117h-1.08a.138.138,0,0,0-.134.117l-.1.735a1.981,1.981,0,0,0-.456.273l-.672-.279a.133.133,0,0,0-.165.058l-.54.961a.141.141,0,0,0,.032.178l.57.459a1.934,1.934,0,0,0,0,.541l-.571.46a.141.141,0,0,0-.032.178l.54.961a.132.132,0,0,0,.165.058l.672-.279a2.048,2.048,0,0,0,.456.273l.1.735a.138.138,0,0,0,.134.117h1.08a.138.138,0,0,0,.134-.117l.1-.735a2,2,0,0,0,.456-.273l.672.279a.133.133,0,0,0,.165-.058l.54-.961a.142.142,0,0,0-.032-.178Zm-2.007.7a.971.971,0,1,1,.945-.971.958.958,0,0,1-.946.971Z" transform="translate(-447.983 -385.169)" fill="#fff" fill-rule="evenodd"/><rect width="6.224" height="4.668" transform="translate(193.567 15.239)" fill="none" stroke="#fff" stroke-width="1"/><path d="M707.586,406.546h-1.04v-1.04h1.04v-1.04h1.04v2.08Zm0-4.506h-1.04V401h2.08v2.08h-1.04ZM701,406.546v-2.08h1.04v1.04h1.04v1.04Zm1.04-3.466H701V401h2.08v1.04h-1.04Z" transform="translate(-496.966 -386.167)" fill="#fff" fill-rule="evenodd"/></g></g><g transform="translate(425.767 212.871)"><path d="M16.171,0a16.171,16.171,0,1,0,16.17,16.171A16.188,16.188,0,0,0,16.171,0Zm0,29.4A13.23,13.23,0,1,1,29.4,16.171,13.245,13.245,0,0,1,16.171,29.4Zm-2.206-8.82,6.615-4.411-6.615-4.411Z" fill="#fff"/></g></g></g></svg>