<svg xmlns="http://www.w3.org/2000/svg" xmlns:xlink="http://www.w3.org/1999/xlink" width="23.438" height="30" viewBox="0 0 23.438 30"><defs><linearGradient id="a" x1="0.5" y1="-0.5" x2="0.5" y2="-0.46" gradientUnits="objectBoundingBox"><stop offset="0" stop-color="#f3f7ff"/><stop offset="0.99" stop-color="#b5d1ff"/></linearGradient><linearGradient id="b" x1="0.5" y1="-0.17" x2="0.5" y2="20.658" gradientUnits="objectBoundingBox"><stop offset="0" stop-color="#c4045e"/><stop offset="1" stop-color="#35489b"/></linearGradient><linearGradient id="c" y1="-0.085" y2="2.406" xlink:href="#a"/><linearGradient id="d" y1="-2.145" y2="-0.366" xlink:href="#a"/><linearGradient id="e" y1="-0.123" y2="2.825" xlink:href="#b"/><linearGradient id="f" y1="-4.203" y2="3.531" xlink:href="#b"/></defs><g transform="translate(-7)"><path d="M32.625,30H12.469A.469.469,0,0,1,12,29.531V.469A.469.469,0,0,1,12.469,0h15.31a.469.469,0,0,1,.331.137l4.846,4.846a.469.469,0,0,1,.137.331V29.531A.469.469,0,0,1,32.625,30Z" transform="translate(-2.656)" fill="url(#a)"/><path d="M7,32.007l1.875-.828,1.309,2.009H7Z" transform="translate(0 -16.564)" fill="url(#b)"/><path d="M31.625,30H11.469A.469.469,0,0,1,11,29.531V.469A.469.469,0,0,1,11.469,0h15.5l5.121,5.121V29.531A.469.469,0,0,1,31.625,30Z" transform="translate(-2.125)" fill="url(#c)"/><path d="M45.076,0V4.652a.469.469,0,0,0,.469.469H50.2L47.9,2.355Z" transform="translate(-20.228)" fill="url(#d)"/><path d="M25.292,43.051H7.83a.829.829,0,0,1-.83-.83V34.714H25.292a.83.83,0,0,1,.83.83v6.678A.83.83,0,0,1,25.292,43.051Z" transform="translate(0 -18.442)" fill="url(#e)"/><path d="M8.875,31.179H7.829a.829.829,0,1,0,0,1.657H8.875Z" transform="translate(0 -16.564)" fill="url(#f)"/><path d="M3.449-3.905a.336.336,0,0,1,.253.1.351.351,0,0,1,.094.256V-.325a.355.355,0,0,1-.1.259.333.333,0,0,1-.25.1.331.331,0,0,1-.253-.1A.361.361,0,0,1,3.1-.325V-1.683H1.117V-.325a.355.355,0,0,1-.1.259.34.34,0,0,1-.256.1.333.333,0,0,1-.25-.1.355.355,0,0,1-.1-.259V-3.553a.351.351,0,0,1,.093-.256.336.336,0,0,1,.253-.1.346.346,0,0,1,.256.1.346.346,0,0,1,.1.256v1.3H3.1v-1.3A.351.351,0,0,1,3.2-3.809.336.336,0,0,1,3.449-3.905ZM5.9.028a.353.353,0,0,1-.261-.1.346.346,0,0,1-.1-.256v-2.97h-1q-.33,0-.33-.291t.33-.292H7.254q.33,0,.33.292t-.33.291h-1v2.97a.346.346,0,0,1-.1.256A.346.346,0,0,1,5.9.028Zm5.544-3.933a.329.329,0,0,1,.248.1.351.351,0,0,1,.094.256V-.3a.327.327,0,0,1-.088.242.312.312,0,0,1-.231.088.294.294,0,0,1-.226-.088A.34.34,0,0,1,11.16-.3V-2.563L10.224-.792a.546.546,0,0,1-.143.179A.294.294,0,0,1,9.9-.556a.3.3,0,0,1-.181-.055.506.506,0,0,1-.143-.182l-.94-1.743V-.3a.335.335,0,0,1-.085.239.3.3,0,0,1-.228.091A.294.294,0,0,1,8.1-.055.34.34,0,0,1,8.014-.3V-3.553A.358.358,0,0,1,8.1-3.809a.32.32,0,0,1,.245-.1.37.37,0,0,1,.335.236L9.906-1.342l1.215-2.327A.364.364,0,0,1,11.445-3.905ZM12.964,0a.335.335,0,0,1-.248-.088.327.327,0,0,1-.088-.242V-3.553a.346.346,0,0,1,.1-.256.346.346,0,0,1,.256-.1.353.353,0,0,1,.261.1.346.346,0,0,1,.1.256v2.97h1.546q.33,0,.33.292T14.883,0Z" transform="translate(9 22.266)" fill="#fff"/></g></svg>