<svg xmlns="http://www.w3.org/2000/svg"
    xmlns:xlink="http://www.w3.org/1999/xlink" width="23.438" height="30" viewBox="0 0 23.438 30">
    <defs>
        <linearGradient id="a" x1="0.5" y1="-0.5" x2="0.5" y2="-0.46" gradientUnits="objectBoundingBox">
            <stop offset="0" stop-color="#f3f7ff"/>
            <stop offset="0.99" stop-color="#b5d1ff"/>
        </linearGradient>
        <linearGradient id="b" x1="0.5" y1="-0.17" x2="0.5" y2="20.658" gradientUnits="objectBoundingBox">
            <stop offset="0" stop-color="#8ecdff"/>
            <stop offset="1" stop-color="#5aabeb"/>
        </linearGradient>
        <linearGradient id="c" y1="-0.085" y2="2.406" xlink:href="#a"/>
        <linearGradient id="d" y1="-2.145" y2="-0.366" xlink:href="#a"/>
        <linearGradient id="e" y1="-0.123" y2="2.825" xlink:href="#b"/>
        <linearGradient id="f" y1="-4.203" y2="3.531" xlink:href="#b"/>
    </defs>
    <g transform="translate(-7)">
        <path d="M32.646,30H12.469A.469.469,0,0,1,12,29.531V.469A.469.469,0,0,1,12.469,0H27.8a.469.469,0,0,1,.332.137l4.851,4.846a.469.469,0,0,1,.137.331V29.531A.469.469,0,0,1,32.646,30Z" transform="translate(-2.678)" fill="url(#a)"/>
        <path d="M7,32l1.857-.821,1.3,1.99H7Z" transform="translate(0 -16.554)" fill="url(#b)"/>
        <path d="M31.646,30H11.469A.469.469,0,0,1,11,29.531V.469A.469.469,0,0,1,11.469,0H26.99l5.126,5.121V29.531A.469.469,0,0,1,31.646,30Z" transform="translate(-2.143)" fill="url(#c)"/>
        <path d="M45.076,0V4.608a.464.464,0,0,0,.464.464h4.608l-2.275-2.74Z" transform="translate(-20.175)" fill="url(#d)"/>
        <path d="M25.12,42.973H7.822A.821.821,0,0,1,7,42.151V34.714H25.12a.822.822,0,0,1,.822.822v6.615a.822.822,0,0,1-.822.822Z" transform="translate(0 -18.383)" fill="url(#e)"/>
        <path d="M8.857,31.179H7.821a.821.821,0,1,0,0,1.641H8.857Z" transform="translate(0 -16.556)" fill="url(#f)"/>
        <path d="M.347.033Q-.077.05-.077-.259a.272.272,0,0,1,.069-.2.334.334,0,0,1,.217-.08L.385-.55A.461.461,0,0,0,.726-.693a.6.6,0,0,0,.116-.4V-3.553a.346.346,0,0,1,.1-.256.346.346,0,0,1,.256-.1.353.353,0,0,1,.261.1.346.346,0,0,1,.1.256v2.459A.994.994,0,0,1,.523.022Zm2.495,0a.346.346,0,0,1-.256-.1.353.353,0,0,1-.1-.261V-3.542a.329.329,0,0,1,.091-.247.344.344,0,0,1,.25-.088H4.183a1.4,1.4,0,0,1,.968.311A1.111,1.111,0,0,1,5.5-2.7a1.119,1.119,0,0,1-.346.875,1.391,1.391,0,0,1-.968.314H3.2V-.325a.353.353,0,0,1-.1.261A.353.353,0,0,1,2.841.033ZM4.1-2.052q.731,0,.731-.638T4.1-3.328H3.2v1.276ZM9.158-2.1a.281.281,0,0,1,.2.074.259.259,0,0,1,.077.2V-.644a.707.707,0,0,1-.066.358A.483.483,0,0,1,9.1-.116a2.84,2.84,0,0,1-.512.121A3.76,3.76,0,0,1,8.031.05,2.165,2.165,0,0,1,6.991-.187a1.6,1.6,0,0,1-.674-.685,2.286,2.286,0,0,1-.234-1.07A2.261,2.261,0,0,1,6.318-3a1.632,1.632,0,0,1,.663-.687,2.045,2.045,0,0,1,1.012-.239,1.9,1.9,0,0,1,1.271.418.429.429,0,0,1,.1.121.316.316,0,0,1,.03.143.315.315,0,0,1-.066.2.2.2,0,0,1-.16.082.3.3,0,0,1-.11-.019.624.624,0,0,1-.115-.063,1.751,1.751,0,0,0-.451-.239,1.51,1.51,0,0,0-.473-.069,1.128,1.128,0,0,0-.9.355A1.577,1.577,0,0,0,6.8-1.942q0,1.43,1.254,1.43a2.768,2.768,0,0,0,.748-.1V-1.59H8.185a.3.3,0,0,1-.206-.066A.237.237,0,0,1,7.9-1.843a.237.237,0,0,1,.074-.187A.3.3,0,0,1,8.185-2.1Z" transform="translate(10.857 22.367)" fill="#fff"/>
    </g>
</svg>