<svg xmlns="http://www.w3.org/2000/svg" xmlns:xlink="http://www.w3.org/1999/xlink" width="23.438" height="30" viewBox="0 0 23.438 30"><defs><linearGradient id="a" x1="0.5" y1="-0.5" x2="0.5" y2="-0.46" gradientUnits="objectBoundingBox"><stop offset="0" stop-color="#f3f7ff"/><stop offset="0.99" stop-color="#b5d1ff"/></linearGradient><linearGradient id="b" x1="0.5" y1="-0.17" x2="0.5" y2="20.658" gradientUnits="objectBoundingBox"><stop offset="0" stop-color="#ffc552"/><stop offset="1" stop-color="#d50000"/></linearGradient><linearGradient id="c" y1="-0.085" y2="2.406" xlink:href="#a"/><linearGradient id="d" y1="-2.145" y2="-0.366" xlink:href="#a"/><linearGradient id="e" y1="-0.123" y2="2.825" xlink:href="#b"/><linearGradient id="f" y1="-4.203" y2="3.531" xlink:href="#b"/></defs><g transform="translate(-7)"><path d="M32.625,30H12.469A.469.469,0,0,1,12,29.531V.469A.469.469,0,0,1,12.469,0h15.31a.469.469,0,0,1,.331.137l4.846,4.846a.469.469,0,0,1,.137.331V29.531A.469.469,0,0,1,32.625,30Z" transform="translate(-2.656)" fill="url(#a)"/><path d="M7,32.007l1.875-.828,1.309,2.009H7Z" transform="translate(0 -16.564)" fill="url(#b)"/><path d="M31.625,30H11.469A.469.469,0,0,1,11,29.531V.469A.469.469,0,0,1,11.469,0h15.5l5.121,5.121V29.531A.469.469,0,0,1,31.625,30Z" transform="translate(-2.125)" fill="url(#c)"/><path d="M45.076,0V4.652a.469.469,0,0,0,.469.469H50.2L47.9,2.355Z" transform="translate(-20.228)" fill="url(#d)"/><path d="M25.292,43.051H7.83a.829.829,0,0,1-.83-.83V34.714H25.292a.83.83,0,0,1,.83.83v6.678A.83.83,0,0,1,25.292,43.051Z" transform="translate(0 -18.442)" fill="url(#e)"/><path d="M8.875,31.179H7.829a.829.829,0,1,0,0,1.657H8.875Z" transform="translate(0 -16.564)" fill="url(#f)"/><path d="M3.861-3.905a.329.329,0,0,1,.247.1.351.351,0,0,1,.094.256V-.3a.327.327,0,0,1-.088.242.312.312,0,0,1-.231.088.294.294,0,0,1-.226-.088A.34.34,0,0,1,3.575-.3V-2.563L2.64-.792A.546.546,0,0,1,2.5-.613a.294.294,0,0,1-.181.058.3.3,0,0,1-.182-.055.506.506,0,0,1-.143-.182L1.051-2.536V-.3a.335.335,0,0,1-.085.239A.3.3,0,0,1,.737.033.294.294,0,0,1,.512-.055.34.34,0,0,1,.429-.3V-3.553A.358.358,0,0,1,.52-3.809a.32.32,0,0,1,.245-.1.37.37,0,0,1,.335.236L2.321-1.342,3.536-3.669A.364.364,0,0,1,3.861-3.905ZM5.4.033a.346.346,0,0,1-.256-.1.353.353,0,0,1-.1-.261V-3.542a.329.329,0,0,1,.091-.247.344.344,0,0,1,.25-.088H6.738a1.4,1.4,0,0,1,.968.311,1.111,1.111,0,0,1,.346.872,1.119,1.119,0,0,1-.346.875,1.391,1.391,0,0,1-.968.314H5.753V-.325a.353.353,0,0,1-.1.261A.353.353,0,0,1,5.4.033ZM6.65-2.052q.731,0,.732-.638T6.65-3.328h-.9v1.276Zm3.85.061a.922.922,0,0,1,.531.333.982.982,0,0,1,.184.608.971.971,0,0,1-.369.8,1.541,1.541,0,0,1-1,.3,2.16,2.16,0,0,1-.687-.11A1.655,1.655,0,0,1,8.6-.374a.333.333,0,0,1-.127-.258.318.318,0,0,1,.069-.206.2.2,0,0,1,.162-.085.245.245,0,0,1,.1.019q.044.019.121.063a2.374,2.374,0,0,0,.44.237,1.233,1.233,0,0,0,.457.082.834.834,0,0,0,.539-.146.542.542,0,0,0,.176-.443.508.508,0,0,0-.184-.432.939.939,0,0,0-.569-.14H9.471a.236.236,0,0,1-.2-.085.3.3,0,0,1-.069-.2.3.3,0,0,1,.069-.2.24.24,0,0,1,.2-.083h.22q.754,0,.753-.566a.518.518,0,0,0-.16-.407.636.636,0,0,0-.44-.143,1.521,1.521,0,0,0-.858.319Q8.91-3,8.866-2.978a.245.245,0,0,1-.1.019A.2.2,0,0,1,8.6-3.044a.318.318,0,0,1-.069-.206.3.3,0,0,1,.03-.14.448.448,0,0,1,.1-.118,1.766,1.766,0,0,1,.553-.305,1.974,1.974,0,0,1,.657-.113,1.382,1.382,0,0,1,.91.28.923.923,0,0,1,.338.748,1,1,0,0,1-.168.558A.927.927,0,0,1,10.5-1.991Z" transform="translate(10.041 22.287)" fill="#fff"/></g></svg>