<svg xmlns="http://www.w3.org/2000/svg" width="32.91" height="15.366" viewBox="0 0 32.91 15.366"><g transform="translate(-306.09 -303)"><path d="M-8.975-3.869l1.134-1.415L-4.993-8.32h2.31L-6.477-4.27l4.033,5.38H-4.8L-7.824-3.025l-1.1.9V1.109H-10.91V-12.156h1.986v6.471l-.1,1.816ZM7.019,1.109H5.007V-4.7A2.637,2.637,0,0,0,4.6-6.321a1.51,1.51,0,0,0-1.279-.533,1.951,1.951,0,0,0-1.7.755,4.427,4.427,0,0,0-.541,2.511v4.7h-2V-8.32H.642L.923-7.084h.1a2.612,2.612,0,0,1,1.138-1.04A3.67,3.67,0,0,1,3.8-8.49,2.868,2.868,0,0,1,6.687-7.007h.136A2.874,2.874,0,0,1,8-8.1,3.734,3.734,0,0,1,9.739-8.49a3.167,3.167,0,0,1,2.46.853,3.776,3.776,0,0,1,.772,2.6V1.109h-2V-4.7a2.616,2.616,0,0,0-.413-1.616A1.522,1.522,0,0,0,9.27-6.853a1.989,1.989,0,0,0-1.709.729,3.757,3.757,0,0,0-.541,2.238Z" transform="translate(317 317.256)" fill="#22242b"/><path d="M2.137-2.607h-6V-3.685l2.283-2.295A19.415,19.415,0,0,0-.24-7.448a3.505,3.505,0,0,0,.481-.814,2.2,2.2,0,0,0,.151-.817,1.246,1.246,0,0,0-.36-.945,1.381,1.381,0,0,0-1-.345,2.655,2.655,0,0,0-.984.188,4.605,4.605,0,0,0-1.1.678l-.769-.938a4.961,4.961,0,0,1,1.435-.884A4.2,4.2,0,0,1-.9-11.586a2.918,2.918,0,0,1,1.98.645,2.178,2.178,0,0,1,.745,1.735,3.044,3.044,0,0,1-.215,1.138,4.626,4.626,0,0,1-.66,1.111A15.081,15.081,0,0,1-.527-5.41L-2.065-3.921v.061h4.2Z" transform="translate(336.863 314.586)" fill="#22242b"/></g></svg>