<svg xmlns="http://www.w3.org/2000/svg" width="22.629" height="15.415" viewBox="0 0 22.629 15.415"><g transform="translate(-139.371 -303)"><path d="M10.18.618H8.206v-5.7a2.586,2.586,0,0,0-.4-1.584,1.481,1.481,0,0,0-1.254-.523,1.913,1.913,0,0,0-1.668.74,4.341,4.341,0,0,0-.531,2.462V.618H2.387V-8.63H3.925L4.2-7.417h.1a2.562,2.562,0,0,1,1.116-1.02,3.6,3.6,0,0,1,1.61-.36A2.812,2.812,0,0,1,9.853-7.342h.134a2.819,2.819,0,0,1,1.154-1.07A3.662,3.662,0,0,1,12.847-8.8a3.106,3.106,0,0,1,2.412.836,3.7,3.7,0,0,1,.757,2.55V.618H14.051v-5.7a2.566,2.566,0,0,0-.406-1.584,1.493,1.493,0,0,0-1.258-.523,1.95,1.95,0,0,0-1.676.715,3.685,3.685,0,0,0-.531,2.195Z" transform="translate(136.984 317.797)" fill="#22242b"/><path d="M2.137-2.607h-6V-3.685l2.283-2.295A19.415,19.415,0,0,0-.24-7.448a3.505,3.505,0,0,0,.481-.814,2.2,2.2,0,0,0,.151-.817,1.246,1.246,0,0,0-.36-.945,1.381,1.381,0,0,0-1-.345,2.655,2.655,0,0,0-.984.188,4.605,4.605,0,0,0-1.1.678l-.769-.938a4.961,4.961,0,0,1,1.435-.884A4.2,4.2,0,0,1-.9-11.586a2.918,2.918,0,0,1,1.98.645,2.178,2.178,0,0,1,.745,1.735,3.044,3.044,0,0,1-.215,1.138,4.626,4.626,0,0,1-.66,1.111A15.081,15.081,0,0,1-.527-5.41L-2.065-3.921v.061h4.2Z" transform="translate(159.863 314.586)" fill="#22242b"/></g></svg>