<svg xmlns="http://www.w3.org/2000/svg" width="29.907" height="12.664" viewBox="0 0 29.907 12.664"><g transform="translate(-5186.358 560.093)"><path d="M-22.678,0h-2.017V-5.828a2.643,2.643,0,0,0-.41-1.619,1.514,1.514,0,0,0-1.282-.534,1.955,1.955,0,0,0-1.7.756,4.437,4.437,0,0,0-.543,2.516V0h-2.008V-9.451h1.572l.282,1.239h.1a2.618,2.618,0,0,1,1.141-1.042A3.678,3.678,0,0,1-25.9-9.622a2.874,2.874,0,0,1,2.888,1.487h.137A2.881,2.881,0,0,1-21.7-9.229a3.742,3.742,0,0,1,1.743-.393,3.174,3.174,0,0,1,2.465.854,3.784,3.784,0,0,1,.773,2.606V0h-2.008V-5.828a2.622,2.622,0,0,0-.414-1.619,1.526,1.526,0,0,0-1.286-.534,1.993,1.993,0,0,0-1.713.731,3.766,3.766,0,0,0-.543,2.243ZM-8.665-12.493-13.313,0h-1.9l4.657-12.493Zm7.93,9.8A2.473,2.473,0,0,1-1.743-.568,4.828,4.828,0,0,1-4.631.171,6.822,6.822,0,0,1-7.665-.4V-2.136a7.447,7.447,0,0,0,3.1.769q1.854,0,1.854-1.119a.887.887,0,0,0-.205-.6,2.427,2.427,0,0,0-.675-.5A11.617,11.617,0,0,0-4.9-4.161,6.048,6.048,0,0,1-7.105-5.426a2.34,2.34,0,0,1-.577-1.641A2.155,2.155,0,0,1-6.7-8.951a4.643,4.643,0,0,1,2.662-.671,7.539,7.539,0,0,1,3.153.675l-.649,1.512A7.013,7.013,0,0,0-4.11-8.066q-1.589,0-1.589.906a.911.911,0,0,0,.414.752,9.114,9.114,0,0,0,1.807.846,8.261,8.261,0,0,1,1.7.829,2.477,2.477,0,0,1,.786.867A2.51,2.51,0,0,1-.735-2.692Z" transform="translate(5217 -547.6)" fill="#22242b"/></g></svg>