<svg xmlns="http://www.w3.org/2000/svg" width="19.576" height="14.082" viewBox="0 0 19.576 14.082"><g transform="translate(-5010.954 617.5)"><path d="M11.237-8.623V-7.5l-1.645.3a2.655,2.655,0,0,1,.374.748,2.953,2.953,0,0,1,.148.94A2.88,2.88,0,0,1,9.087-3.166a4.3,4.3,0,0,1-2.829.853,4.586,4.586,0,0,1-.836-.07,1.152,1.152,0,0,0-.661.957.532.532,0,0,0,.309.5,2.672,2.672,0,0,0,1.136.165h1.68a3.735,3.735,0,0,1,2.419.679,2.388,2.388,0,0,1,.827,1.958A2.847,2.847,0,0,1,9.784,4.4a7.1,7.1,0,0,1-3.9.888,5.381,5.381,0,0,1-3-.7A2.25,2.25,0,0,1,1.846,2.6a2.112,2.112,0,0,1,.561-1.493A3.008,3.008,0,0,1,3.979.272,1.537,1.537,0,0,1,3.3-.289,1.417,1.417,0,0,1,3.039-1.1a1.4,1.4,0,0,1,.3-.914,3.514,3.514,0,0,1,.905-.74A2.681,2.681,0,0,1,3.034-3.806a3.085,3.085,0,0,1-.466-1.7,3.05,3.05,0,0,1,.988-2.428A4.153,4.153,0,0,1,6.372-8.8a6.853,6.853,0,0,1,.857.057,5.4,5.4,0,0,1,.674.117ZM3.674,2.5a1.125,1.125,0,0,0,.6,1.018,3.277,3.277,0,0,0,1.675.357A5.062,5.062,0,0,0,8.435,3.4a1.435,1.435,0,0,0,.818-1.271A.953.953,0,0,0,8.8,1.234,3.6,3.6,0,0,0,7.138.968H5.589a2.177,2.177,0,0,0-1.4.413A1.356,1.356,0,0,0,3.674,2.5Zm.879-8.007a1.937,1.937,0,0,0,.466,1.393,1.761,1.761,0,0,0,1.336.487q1.775,0,1.775-1.9a2.152,2.152,0,0,0-.44-1.449,1.67,1.67,0,0,0-1.336-.509,1.722,1.722,0,0,0-1.345.5A2.122,2.122,0,0,0,4.553-5.507Z" transform="translate(5019.293 -608.703)" fill="#22242b"/><path d="M-4.742,5.281V-.259h.1A2.9,2.9,0,0,0-3.424.794a4.059,4.059,0,0,0,1.8.383A3.528,3.528,0,0,0,.985.307,3.608,3.608,0,0,0,1.846-2.33V-8.623H-.216v5.936A2.575,2.575,0,0,1-.669-1.029a1.728,1.728,0,0,1-1.419.553,2.259,2.259,0,0,1-1.893-.77,4.244,4.244,0,0,1-.6-2.58v-4.8H-6.639v13.9Z" transform="translate(5017.593 -608.703)" fill="#22242b"/></g></svg>