<svg xmlns="http://www.w3.org/2000/svg" width="25.41" height="13.904" viewBox="0 0 25.41 13.904"><g transform="translate(-4767.954 339.326)"><path d="M-4.742,5.281V-.259h.1A2.9,2.9,0,0,0-3.424.794a4.059,4.059,0,0,0,1.8.383A3.528,3.528,0,0,0,.985.307,3.608,3.608,0,0,0,1.846-2.33V-8.623H-.216v5.936A2.575,2.575,0,0,1-.669-1.029a1.728,1.728,0,0,1-1.419.553,2.259,2.259,0,0,1-1.893-.77,4.244,4.244,0,0,1-.6-2.58v-4.8H-6.639v13.9Z" transform="translate(4774.593 -330.703)" fill="#22242b"/><path d="M9.4,0H7.383V-5.828a2.643,2.643,0,0,0-.41-1.619,1.514,1.514,0,0,0-1.282-.534,1.955,1.955,0,0,0-1.7.756,4.437,4.437,0,0,0-.543,2.516V0H1.436V-9.451H3.008L3.29-8.212h.1A2.618,2.618,0,0,1,4.533-9.254a3.678,3.678,0,0,1,1.645-.367A2.874,2.874,0,0,1,9.066-8.135H9.2a2.881,2.881,0,0,1,1.179-1.094,3.742,3.742,0,0,1,1.743-.393,3.174,3.174,0,0,1,2.465.854,3.784,3.784,0,0,1,.773,2.606V0H13.356V-5.828a2.622,2.622,0,0,0-.414-1.619,1.526,1.526,0,0,0-1.286-.534,1.993,1.993,0,0,0-1.713.731A3.766,3.766,0,0,0,9.4-5.007Z" transform="translate(4778 -329.6)" fill="#22242b"/></g></svg>