<svg xmlns="http://www.w3.org/2000/svg" width="40" height="17.823" viewBox="0 0 40 17.823"><g transform="translate(-416 -302.644)"><path d="M-5.942-4.583l1.036-1.293L-2.3-8.65H-.193L-3.66-4.95.025-.033h-2.15L-4.891-3.812-5.9-2.986V-.033H-7.711V-12.156H-5.9v5.913l-.093,1.659ZM8.689-8.65v1.005l-1.472.273a2.377,2.377,0,0,1,.335.67,2.643,2.643,0,0,1,.132.841,2.578,2.578,0,0,1-.919,2.1A3.847,3.847,0,0,1,4.233-3a4.106,4.106,0,0,1-.748-.062,1.031,1.031,0,0,0-.592.857.476.476,0,0,0,.277.444,2.392,2.392,0,0,0,1.017.148h1.5a3.343,3.343,0,0,1,2.166.608A2.138,2.138,0,0,1,8.6.746,2.549,2.549,0,0,1,7.388,3,6.358,6.358,0,0,1,3.9,3.8,4.817,4.817,0,0,1,1.21,3.176,2.015,2.015,0,0,1,.283,1.4,1.89,1.89,0,0,1,.785.064,2.693,2.693,0,0,1,2.191-.688a1.376,1.376,0,0,1-.6-.5,1.269,1.269,0,0,1-.238-.728,1.254,1.254,0,0,1,.273-.818,3.146,3.146,0,0,1,.81-.662,2.4,2.4,0,0,1-1.087-.939A2.761,2.761,0,0,1,.929-5.861a2.731,2.731,0,0,1,.884-2.174,3.718,3.718,0,0,1,2.52-.771,6.135,6.135,0,0,1,.767.051,4.831,4.831,0,0,1,.6.105ZM1.919,1.307a1.007,1.007,0,0,0,.534.912,2.933,2.933,0,0,0,1.5.319A4.531,4.531,0,0,0,6.18,2.109,1.285,1.285,0,0,0,6.913.972a.853.853,0,0,0-.4-.8A3.222,3.222,0,0,0,5.02-.065H3.633a1.949,1.949,0,0,0-1.25.37A1.213,1.213,0,0,0,1.919,1.307Zm.787-7.168a1.734,1.734,0,0,0,.417,1.247,1.576,1.576,0,0,0,1.2.436q1.589,0,1.589-1.7a1.926,1.926,0,0,0-.393-1.3,1.5,1.5,0,0,0-1.2-.456,1.541,1.541,0,0,0-1.2.452A1.9,1.9,0,0,0,2.706-5.861Z" transform="translate(423.711 316.667)" fill="#22242b"/><path d="M-12.965-10.708-16.95,0h-1.626l3.992-10.708ZM-6.284,0H-8.013V-5a2.265,2.265,0,0,0-.352-1.388,1.3,1.3,0,0,0-1.1-.458,1.676,1.676,0,0,0-1.461.648,3.8,3.8,0,0,0-.465,2.157V0H-13.11V-8.1h1.348l.242,1.062h.088a2.244,2.244,0,0,1,.978-.894,3.153,3.153,0,0,1,1.41-.315A2.464,2.464,0,0,1-6.57-6.973h.117A2.469,2.469,0,0,1-5.442-7.91a3.208,3.208,0,0,1,1.494-.337,2.721,2.721,0,0,1,2.113.732,3.244,3.244,0,0,1,.663,2.234V0H-2.893V-5a2.247,2.247,0,0,0-.355-1.388,1.308,1.308,0,0,0-1.1-.458,1.708,1.708,0,0,0-1.469.626,3.228,3.228,0,0,0-.465,1.923Z" transform="translate(451 315.8)" fill="#22242b"/><path d="M1.206-9.649A1.838,1.838,0,0,1,.766-8.393a2.212,2.212,0,0,1-1.237.675v.043A2.394,2.394,0,0,1,.961-7.08a1.7,1.7,0,0,1,.477,1.261A2.1,2.1,0,0,1,.63-4.053a3.709,3.709,0,0,1-2.3.621A5.18,5.18,0,0,1-3.895-3.86V-4.994a5.081,5.081,0,0,0,1.069.385,4.64,4.64,0,0,0,1.085.136A2.289,2.289,0,0,0-.362-4.815,1.237,1.237,0,0,0,.093-5.873a1.007,1.007,0,0,0-.5-.933A3.222,3.222,0,0,0-2-7.1h-.689V-8.141h.7q1.9,0,1.9-1.313a.968.968,0,0,0-.331-.787,1.49,1.49,0,0,0-.977-.277,2.957,2.957,0,0,0-.868.127,4.11,4.11,0,0,0-.987.5l-.624-.89a4.159,4.159,0,0,1,2.534-.8,3.014,3.014,0,0,1,1.872.515A1.692,1.692,0,0,1,1.206-9.649Z" transform="translate(454.561 314.23)" fill="#22242b"/></g></svg>