<svg xmlns="http://www.w3.org/2000/svg" width="40" height="17.82" viewBox="0 0 40 17.82"><g transform="translate(-424.993 -302.644)"><path d="M9.687-8.232v1l-1.472.273a2.376,2.376,0,0,1,.335.67,2.643,2.643,0,0,1,.132.841,2.578,2.578,0,0,1-.919,2.1,3.847,3.847,0,0,1-2.532.763,4.105,4.105,0,0,1-.748-.062,1.031,1.031,0,0,0-.592.857.476.476,0,0,0,.277.444A2.392,2.392,0,0,0,5.184-1.2h1.5A3.343,3.343,0,0,1,8.853-.59a2.138,2.138,0,0,1,.74,1.753A2.549,2.549,0,0,1,8.386,3.422a6.357,6.357,0,0,1-3.49.795,4.816,4.816,0,0,1-2.687-.623,2.014,2.014,0,0,1-.927-1.776,1.89,1.89,0,0,1,.5-1.336A2.692,2.692,0,0,1,3.19-.27a1.376,1.376,0,0,1-.6-.5A1.268,1.268,0,0,1,2.349-1.5a1.254,1.254,0,0,1,.273-.818,3.146,3.146,0,0,1,.81-.662A2.4,2.4,0,0,1,2.345-3.92a2.761,2.761,0,0,1-.417-1.523,2.73,2.73,0,0,1,.884-2.173,3.717,3.717,0,0,1,2.52-.771,6.134,6.134,0,0,1,.767.051,4.831,4.831,0,0,1,.6.105ZM2.918,1.724a1.007,1.007,0,0,0,.534.911,2.933,2.933,0,0,0,1.5.319,4.53,4.53,0,0,0,2.228-.428,1.284,1.284,0,0,0,.732-1.137.853.853,0,0,0-.4-.8A3.222,3.222,0,0,0,6.018.353H4.631a1.948,1.948,0,0,0-1.25.37A1.213,1.213,0,0,0,2.918,1.724ZM3.7-5.443A1.734,1.734,0,0,0,4.121-4.2a1.576,1.576,0,0,0,1.2.436q1.589,0,1.589-1.7a1.926,1.926,0,0,0-.393-1.3,1.5,1.5,0,0,0-1.2-.456,1.541,1.541,0,0,0-1.2.452A1.9,1.9,0,0,0,3.7-5.443Z" transform="translate(423.711 316.247)" fill="#22242b"/><path d="M5.728-10.708,1.743,0H.117L4.109-10.708ZM9.6.146A3.547,3.547,0,0,1,6.8-.927a4.483,4.483,0,0,1-.956-3.08,4.508,4.508,0,0,1,1-3.142,3.709,3.709,0,0,1,2.889-1.1,5.415,5.415,0,0,1,2.307.476l-.52,1.384a5.213,5.213,0,0,0-1.8-.425q-2.1,0-2.1,2.791a3.342,3.342,0,0,0,.524,2.047,1.813,1.813,0,0,0,1.534.685,4.4,4.4,0,0,0,2.175-.571v1.5a3.4,3.4,0,0,1-.985.388A5.911,5.911,0,0,1,9.6.146ZM19.835,0H18.107V-5a2.265,2.265,0,0,0-.352-1.388,1.3,1.3,0,0,0-1.1-.458,1.676,1.676,0,0,0-1.461.648,3.8,3.8,0,0,0-.465,2.157V0H13.009V-8.1h1.348L14.6-7.039h.088a2.244,2.244,0,0,1,.978-.894,3.153,3.153,0,0,1,1.41-.315A2.464,2.464,0,0,1,19.55-6.973h.117a2.469,2.469,0,0,1,1.011-.937,3.208,3.208,0,0,1,1.494-.337,2.721,2.721,0,0,1,2.113.732,3.244,3.244,0,0,1,.663,2.234V0H23.227V-5a2.247,2.247,0,0,0-.355-1.388,1.308,1.308,0,0,0-1.1-.458,1.708,1.708,0,0,0-1.469.626,3.228,3.228,0,0,0-.465,1.923Z" transform="translate(432.998 315.8)" fill="#22242b"/><path d="M1.2-9.649A1.837,1.837,0,0,1,.765-8.394a2.211,2.211,0,0,1-1.237.675v.043a2.394,2.394,0,0,1,1.432.594,1.7,1.7,0,0,1,.477,1.261A2.1,2.1,0,0,1,.63-4.054a3.708,3.708,0,0,1-2.3.621,5.179,5.179,0,0,1-2.224-.429V-4.995a5.08,5.08,0,0,0,1.069.385,4.64,4.64,0,0,0,1.085.136A2.288,2.288,0,0,0-.363-4.816,1.236,1.236,0,0,0,.093-5.874a1.007,1.007,0,0,0-.5-.933A3.222,3.222,0,0,0-2-7.105h-.689V-8.141h.7q1.9,0,1.9-1.313a.968.968,0,0,0-.331-.787,1.49,1.49,0,0,0-.976-.277,2.957,2.957,0,0,0-.868.127,4.109,4.109,0,0,0-.987.5l-.624-.89a4.158,4.158,0,0,1,2.533-.8,3.014,3.014,0,0,1,1.872.515A1.691,1.691,0,0,1,1.2-9.649Z" transform="translate(463.555 314.23)" fill="#22242b"/></g></svg>