<svg xmlns="http://www.w3.org/2000/svg" width="31.813" height="15.798" viewBox="0 0 31.813 15.798"><g transform="translate(-186.188 -303)"><path d="M-6.435,1A4.14,4.14,0,0,1-9.7-.251a5.233,5.233,0,0,1-1.116-3.6A5.263,5.263,0,0,1-9.645-7.514,4.329,4.329,0,0,1-6.273-8.8a6.321,6.321,0,0,1,2.693.556l-.607,1.616a6.085,6.085,0,0,0-2.1-.5q-2.454,0-2.454,3.257a3.9,3.9,0,0,0,.611,2.39,2.116,2.116,0,0,0,1.791.8A5.139,5.139,0,0,0-3.8-1.341V.411a3.968,3.968,0,0,1-1.15.453A6.9,6.9,0,0,1-6.435,1ZM6.39.83H4.372V-5a2.644,2.644,0,0,0-.41-1.62,1.515,1.515,0,0,0-1.282-.534A1.956,1.956,0,0,0,.973-6.4,4.439,4.439,0,0,0,.431-3.881V.83H-1.579V-8.626H-.006l.282,1.24h.1A2.62,2.62,0,0,1,1.521-8.429,3.68,3.68,0,0,1,3.166-8.8a2.876,2.876,0,0,1,2.89,1.488h.137A2.883,2.883,0,0,1,7.373-8.4,3.745,3.745,0,0,1,9.117-8.8a3.176,3.176,0,0,1,2.467.855,3.787,3.787,0,0,1,.774,2.608V.83H10.348V-5a2.624,2.624,0,0,0-.415-1.62,1.527,1.527,0,0,0-1.287-.534,1.994,1.994,0,0,0-1.714.731A3.768,3.768,0,0,0,6.39-4.18Z" transform="translate(197 317.797)" fill="#22242b"/><path d="M2.137-2.607h-6V-3.685l2.283-2.295A19.415,19.415,0,0,0-.24-7.448a3.505,3.505,0,0,0,.481-.814,2.2,2.2,0,0,0,.151-.817,1.246,1.246,0,0,0-.36-.945,1.381,1.381,0,0,0-1-.345,2.655,2.655,0,0,0-.984.188,4.605,4.605,0,0,0-1.1.678l-.769-.938a4.961,4.961,0,0,1,1.435-.884A4.2,4.2,0,0,1-.9-11.586a2.918,2.918,0,0,1,1.98.645,2.178,2.178,0,0,1,.745,1.735,3.044,3.044,0,0,1-.215,1.138,4.626,4.626,0,0,1-.66,1.111A15.081,15.081,0,0,1-.527-5.41L-2.065-3.921v.061h4.2Z" transform="translate(215.863 314.586)" fill="#22242b"/></g></svg>