<svg xmlns="http://www.w3.org/2000/svg" width="30" height="13.969" viewBox="0 0 30 13.969"><g transform="translate(-306.09 -303)"><path d="M-9.151-4.623-8.12-5.909l2.589-2.759h2.1L-6.88-4.987-3.214-.1H-5.353L-8.1-3.855l-1,.822V-.1H-10.91v-12.06H-9.1v5.883L-9.2-4.623ZM5.389-.1H3.56V-5.382a2.4,2.4,0,0,0-.372-1.469,1.373,1.373,0,0,0-1.163-.484A1.773,1.773,0,0,0,.479-6.65,4.024,4.024,0,0,0-.013-4.367V-.1H-1.834V-8.669H-.408l.256,1.124h.093A2.375,2.375,0,0,1,.975-8.49a3.336,3.336,0,0,1,1.492-.333,2.607,2.607,0,0,1,2.62,1.349h.124a2.613,2.613,0,0,1,1.07-.992,3.394,3.394,0,0,1,1.581-.357,2.879,2.879,0,0,1,2.236.775,3.433,3.433,0,0,1,.7,2.364V-.1H8.978V-5.382A2.378,2.378,0,0,0,8.6-6.851a1.384,1.384,0,0,0-1.166-.484,1.808,1.808,0,0,0-1.554.663,3.416,3.416,0,0,0-.492,2.035Z" transform="translate(317 317.065)" fill="#22242b"/><path d="M1.321-9.6A1.879,1.879,0,0,1,.872-8.32,2.262,2.262,0,0,1-.393-7.63v.044a2.449,2.449,0,0,1,1.465.608,1.738,1.738,0,0,1,.488,1.29A2.144,2.144,0,0,1,.733-3.881a3.793,3.793,0,0,1-2.353.635,5.3,5.3,0,0,1-2.275-.438v-1.16A5.2,5.2,0,0,0-2.8-4.45a4.746,4.746,0,0,0,1.11.139,2.341,2.341,0,0,0,1.409-.35A1.265,1.265,0,0,0,.184-5.743,1.03,1.03,0,0,0-.332-6.7,3.3,3.3,0,0,0-1.952-7h-.7v-1.06h.716Q0-8.062,0-9.405a.99.99,0,0,0-.338-.8,1.524,1.524,0,0,0-1-.283,3.024,3.024,0,0,0-.888.13,4.2,4.2,0,0,0-1.01.508l-.638-.91a4.253,4.253,0,0,1,2.591-.821,3.083,3.083,0,0,1,1.914.527A1.73,1.73,0,0,1,1.321-9.6Z" transform="translate(334.53 314.586)" fill="#22242b"/></g></svg>