<svg xmlns="http://www.w3.org/2000/svg" width="32" height="15.798" viewBox="0 0 32 15.798"><g transform="translate(-4885 503)"><g transform="translate(4698.813 -806)"><path d="M-6.435,1A4.14,4.14,0,0,1-9.7-.251a5.233,5.233,0,0,1-1.116-3.6A5.263,5.263,0,0,1-9.645-7.514,4.329,4.329,0,0,1-6.273-8.8a6.321,6.321,0,0,1,2.693.556l-.607,1.616a6.085,6.085,0,0,0-2.1-.5q-2.454,0-2.454,3.257a3.9,3.9,0,0,0,.611,2.39,2.116,2.116,0,0,0,1.791.8A5.139,5.139,0,0,0-3.8-1.341V.411a3.968,3.968,0,0,1-1.15.453A6.9,6.9,0,0,1-6.435,1ZM6.39.83H4.372V-5a2.644,2.644,0,0,0-.41-1.62,1.515,1.515,0,0,0-1.282-.534A1.956,1.956,0,0,0,.973-6.4,4.439,4.439,0,0,0,.431-3.881V.83H-1.579V-8.626H-.006l.282,1.24h.1A2.62,2.62,0,0,1,1.521-8.429,3.68,3.68,0,0,1,3.166-8.8a2.876,2.876,0,0,1,2.89,1.488h.137A2.883,2.883,0,0,1,7.373-8.4,3.745,3.745,0,0,1,9.117-8.8a3.176,3.176,0,0,1,2.467.855,3.787,3.787,0,0,1,.774,2.608V.83H10.348V-5a2.624,2.624,0,0,0-.415-1.62,1.527,1.527,0,0,0-1.287-.534,1.994,1.994,0,0,0-1.714.731A3.768,3.768,0,0,0,6.39-4.18Z" transform="translate(197 317.797)" fill="#22242b"/><path d="M1.843-9.407a2.067,2.067,0,0,1-.494,1.413,2.488,2.488,0,0,1-1.392.76v.049a2.694,2.694,0,0,1,1.611.668A1.912,1.912,0,0,1,2.105-5.1,2.358,2.358,0,0,1,1.2-3.111a4.172,4.172,0,0,1-2.588.7,5.828,5.828,0,0,1-2.5-.482V-4.17a5.716,5.716,0,0,0,1.2.433,5.22,5.22,0,0,0,1.221.153,2.575,2.575,0,0,0,1.55-.385,1.391,1.391,0,0,0,.513-1.19,1.133,1.133,0,0,0-.568-1.05,3.625,3.625,0,0,0-1.782-.336h-.775V-7.71h.787Q.39-7.71.39-9.187a1.089,1.089,0,0,0-.372-.885,1.676,1.676,0,0,0-1.1-.311,3.327,3.327,0,0,0-.977.143,4.624,4.624,0,0,0-1.111.558l-.7-1a4.678,4.678,0,0,1,2.85-.9,3.391,3.391,0,0,1,2.106.58A1.9,1.9,0,0,1,1.843-9.407Z" transform="translate(216.082 314.586)" fill="#22242b"/></g></g></svg>