<svg xmlns="http://www.w3.org/2000/svg" width="27.38" height="15.7" viewBox="0 0 27.38 15.7"><g transform="translate(-5127.825 344.9)"><path d="M-12.211,0h-2.017V-5.828a2.643,2.643,0,0,0-.41-1.619,1.514,1.514,0,0,0-1.282-.534,1.955,1.955,0,0,0-1.7.756,4.437,4.437,0,0,0-.543,2.516V0h-2.008V-9.451H-18.6l.282,1.239h.1a2.618,2.618,0,0,1,1.141-1.042,3.678,3.678,0,0,1,1.645-.367,2.874,2.874,0,0,1,2.888,1.487h.137a2.881,2.881,0,0,1,1.179-1.094,3.742,3.742,0,0,1,1.743-.393,3.174,3.174,0,0,1,2.465.854,3.784,3.784,0,0,1,.773,2.606V0H-8.254V-5.828a2.622,2.622,0,0,0-.414-1.619,1.526,1.526,0,0,0-1.286-.534,1.993,1.993,0,0,0-1.713.731,3.766,3.766,0,0,0-.543,2.243ZM-1.436,0H-3.444V-9.451h2.008ZM-3.563-11.954a1.112,1.112,0,0,1,.295-.829,1.149,1.149,0,0,1,.842-.291,1.124,1.124,0,0,1,.825.291,1.112,1.112,0,0,1,.295.829,1.091,1.091,0,0,1-.295.807,1.115,1.115,0,0,1-.825.295,1.139,1.139,0,0,1-.842-.295A1.091,1.091,0,0,1-3.563-11.954Z" transform="translate(5148 -329.2)" fill="#22242b"/><path d="M2.137-2.607h-6V-3.685l2.283-2.295A19.415,19.415,0,0,0-.24-7.448a3.505,3.505,0,0,0,.481-.814,2.2,2.2,0,0,0,.151-.817,1.246,1.246,0,0,0-.36-.945,1.381,1.381,0,0,0-1-.345,2.655,2.655,0,0,0-.984.188,4.605,4.605,0,0,0-1.1.678l-.769-.938a4.961,4.961,0,0,1,1.435-.884A4.2,4.2,0,0,1-.9-11.586a2.918,2.918,0,0,1,1.98.645,2.178,2.178,0,0,1,.745,1.735,3.044,3.044,0,0,1-.215,1.138,4.626,4.626,0,0,1-.66,1.111A15.081,15.081,0,0,1-.527-5.41L-2.065-3.921v.061h4.2Z" transform="translate(5153.068 -333.314)" fill="#22242b"/></g></svg>