<svg xmlns="http://www.w3.org/2000/svg" width="23.08" height="9.792" viewBox="0 0 23.08 9.792"><g transform="translate(-4950.436 557.222)"><path d="M9.4,0H7.383V-5.828a2.643,2.643,0,0,0-.41-1.619,1.514,1.514,0,0,0-1.282-.534,1.955,1.955,0,0,0-1.7.756,4.437,4.437,0,0,0-.543,2.516V0H1.436V-9.451H3.008L3.29-8.212h.1A2.618,2.618,0,0,1,4.533-9.254a3.678,3.678,0,0,1,1.645-.367A2.874,2.874,0,0,1,9.066-8.135H9.2a2.881,2.881,0,0,1,1.179-1.094,3.742,3.742,0,0,1,1.743-.393,3.174,3.174,0,0,1,2.465.854,3.784,3.784,0,0,1,.773,2.606V0H13.356V-5.828a2.622,2.622,0,0,0-.414-1.619,1.526,1.526,0,0,0-1.286-.534,1.993,1.993,0,0,0-1.713.731A3.766,3.766,0,0,0,9.4-5.007ZM24.515-2.692A2.473,2.473,0,0,1,23.507-.568a4.828,4.828,0,0,1-2.888.739A6.822,6.822,0,0,1,17.585-.4V-2.136a7.447,7.447,0,0,0,3.1.769q1.854,0,1.854-1.119a.887.887,0,0,0-.205-.6,2.427,2.427,0,0,0-.675-.5,11.617,11.617,0,0,0-1.307-.581,6.048,6.048,0,0,1-2.209-1.265,2.34,2.34,0,0,1-.577-1.641,2.155,2.155,0,0,1,.978-1.884,4.643,4.643,0,0,1,2.662-.671,7.539,7.539,0,0,1,3.153.675l-.649,1.512a7.013,7.013,0,0,0-2.572-.632q-1.589,0-1.589.906a.911.911,0,0,0,.414.752,9.114,9.114,0,0,0,1.807.846,8.261,8.261,0,0,1,1.7.829,2.477,2.477,0,0,1,.786.867A2.51,2.51,0,0,1,24.515-2.692Z" transform="translate(4949 -547.6)" fill="#22242b"/></g></svg>