<svg xmlns="http://www.w3.org/2000/svg" width="9.174" height="13.757" viewBox="0 0 9.174 13.757"><path d="M13.8-8.627v1.1l-1.607.3a2.594,2.594,0,0,1,.366.731,2.885,2.885,0,0,1,.145.918,2.813,2.813,0,0,1-1,2.287,4.2,4.2,0,0,1-2.763.833,4.481,4.481,0,0,1-.816-.068,1.126,1.126,0,0,0-.646.935.52.52,0,0,0,.3.485,2.61,2.61,0,0,0,1.11.162h1.641A3.649,3.649,0,0,1,12.9-.286,2.333,2.333,0,0,1,13.7,1.628a2.782,2.782,0,0,1-1.318,2.466,6.939,6.939,0,0,1-3.809.867,5.257,5.257,0,0,1-2.933-.68A2.2,2.2,0,0,1,4.63,2.342,2.063,2.063,0,0,1,5.179.884,2.939,2.939,0,0,1,6.714.063a1.5,1.5,0,0,1-.659-.548,1.384,1.384,0,0,1-.259-.8,1.369,1.369,0,0,1,.3-.893A3.434,3.434,0,0,1,6.977-2.9,2.619,2.619,0,0,1,5.791-3.921a3.014,3.014,0,0,1-.455-1.662A2.98,2.98,0,0,1,6.3-7.955,4.057,4.057,0,0,1,9.052-8.8a6.7,6.7,0,0,1,.838.055,5.273,5.273,0,0,1,.659.115ZM6.416,2.24A1.1,1.1,0,0,0,7,3.235a3.2,3.2,0,0,0,1.637.349,4.945,4.945,0,0,0,2.432-.468,1.4,1.4,0,0,0,.8-1.241A.931.931,0,0,0,11.428,1,3.516,3.516,0,0,0,9.8.743H8.287a2.127,2.127,0,0,0-1.365.4A1.324,1.324,0,0,0,6.416,2.24Zm.859-7.823a1.892,1.892,0,0,0,.455,1.36,1.72,1.72,0,0,0,1.305.476q1.735,0,1.735-1.854a2.1,2.1,0,0,0-.429-1.416,1.631,1.631,0,0,0-1.305-.5,1.682,1.682,0,0,0-1.314.493A2.073,2.073,0,0,0,7.275-5.583Z" transform="translate(-4.63 8.797)" fill="#22242b"/></svg>