<svg xmlns="http://www.w3.org/2000/svg" width="17.83" height="13.904" viewBox="0 0 17.83 13.904"><g transform="translate(-4890.954 557.326)"><path d="M-4.742,5.281V-.259h.1A2.9,2.9,0,0,0-3.424.794a4.059,4.059,0,0,0,1.8.383A3.528,3.528,0,0,0,.985.307,3.608,3.608,0,0,0,1.846-2.33V-8.623H-.216v5.936A2.575,2.575,0,0,1-.669-1.029a1.728,1.728,0,0,1-1.419.553,2.259,2.259,0,0,1-1.893-.77,4.244,4.244,0,0,1-.6-2.58v-4.8H-6.639v13.9Z" transform="translate(4897.593 -548.703)" fill="#22242b"/><path d="M7.784-2.692A2.473,2.473,0,0,1,6.776-.568,4.828,4.828,0,0,1,3.888.171,6.822,6.822,0,0,1,.854-.4V-2.136a7.447,7.447,0,0,0,3.1.769q1.854,0,1.854-1.119a.887.887,0,0,0-.205-.6,2.427,2.427,0,0,0-.675-.5,11.617,11.617,0,0,0-1.307-.581A6.048,6.048,0,0,1,1.414-5.426,2.34,2.34,0,0,1,.837-7.067a2.155,2.155,0,0,1,.978-1.884,4.643,4.643,0,0,1,2.662-.671,7.539,7.539,0,0,1,3.153.675L6.981-7.434a7.013,7.013,0,0,0-2.572-.632q-1.589,0-1.589.906a.911.911,0,0,0,.414.752,9.114,9.114,0,0,0,1.807.846,8.261,8.261,0,0,1,1.7.829,2.477,2.477,0,0,1,.786.867A2.51,2.51,0,0,1,7.784-2.692Z" transform="translate(4901 -547.6)" fill="#22242b"/></g></svg>