<svg xmlns="http://www.w3.org/2000/svg" width="21.889" height="15.7" viewBox="0 0 21.889 15.7"><g transform="translate(-435.316 -303.1)"><path d="M3.444,0H1.436V-9.451H3.444ZM1.316-11.954a1.112,1.112,0,0,1,.295-.829,1.149,1.149,0,0,1,.842-.291,1.124,1.124,0,0,1,.825.291,1.112,1.112,0,0,1,.295.829,1.091,1.091,0,0,1-.295.807,1.115,1.115,0,0,1-.825.295,1.139,1.139,0,0,1-.842-.295A1.091,1.091,0,0,1,1.316-11.954ZM14.629,0H12.612V-5.811a2.543,2.543,0,0,0-.44-1.632,1.7,1.7,0,0,0-1.4-.538,2.221,2.221,0,0,0-1.863.752,4.152,4.152,0,0,0-.59,2.521V0H6.315V-9.451H7.887l.282,1.239h.1A2.8,2.8,0,0,1,9.485-9.254a4.066,4.066,0,0,1,1.743-.367q3.4,0,3.4,3.461Z" transform="translate(434 318.8)" fill="#22242b"/><path d="M2.137-2.607h-6V-3.685l2.283-2.295A19.415,19.415,0,0,0-.24-7.448a3.505,3.505,0,0,0,.481-.814,2.2,2.2,0,0,0,.151-.817,1.246,1.246,0,0,0-.36-.945,1.381,1.381,0,0,0-1-.345,2.655,2.655,0,0,0-.984.188,4.605,4.605,0,0,0-1.1.678l-.769-.938a4.961,4.961,0,0,1,1.435-.884A4.2,4.2,0,0,1-.9-11.586a2.918,2.918,0,0,1,1.98.645,2.178,2.178,0,0,1,.745,1.735,3.044,3.044,0,0,1-.215,1.138,4.626,4.626,0,0,1-.66,1.111A15.081,15.081,0,0,1-.527-5.41L-2.065-3.921v.061h4.2Z" transform="translate(455.068 314.686)" fill="#22242b"/></g></svg>