<svg xmlns="http://www.w3.org/2000/svg" width="20.134" height="15.871" viewBox="0 0 20.134 15.871"><g transform="translate(-5191.071 344.9)"><path d="M-7.05-7.93H-9.357V0h-2.017V-7.93h-1.555v-.94l1.555-.615V-10.1a3.439,3.439,0,0,1,.786-2.482,3.214,3.214,0,0,1,2.4-.807,6.408,6.408,0,0,1,2.085.35l-.53,1.521a4.629,4.629,0,0,0-1.418-.239,1.154,1.154,0,0,0-1,.423,2.131,2.131,0,0,0-.312,1.269v.615H-7.05Zm5.127,6.477a4.883,4.883,0,0,0,1.47-.231V-.171a4.054,4.054,0,0,1-.859.244A5.917,5.917,0,0,1-2.4.171q-2.854,0-2.854-3.008V-7.93h-1.29v-.889l1.384-.735.684-2h1.239v2.1H-.547V-7.93H-3.239v5.059A1.419,1.419,0,0,0-2.875-1.8,1.324,1.324,0,0,0-1.923-1.453Z" transform="translate(5204 -329.2)" fill="#22242b"/><path d="M2.137-2.607h-6V-3.685l2.283-2.295A19.415,19.415,0,0,0-.24-7.448a3.505,3.505,0,0,0,.481-.814,2.2,2.2,0,0,0,.151-.817,1.246,1.246,0,0,0-.36-.945,1.381,1.381,0,0,0-1-.345,2.655,2.655,0,0,0-.984.188,4.605,4.605,0,0,0-1.1.678l-.769-.938a4.961,4.961,0,0,1,1.435-.884A4.2,4.2,0,0,1-.9-11.586a2.918,2.918,0,0,1,1.98.645,2.178,2.178,0,0,1,.745,1.735,3.044,3.044,0,0,1-.215,1.138,4.626,4.626,0,0,1-.66,1.111A15.081,15.081,0,0,1-.527-5.41L-2.065-3.921v.061h4.2Z" transform="translate(5209.068 -333.314)" fill="#22242b"/></g></svg>