<svg xmlns="http://www.w3.org/2000/svg" width="39.564" height="15.571" viewBox="0 0 39.564 15.571"><g transform="translate(-4762.436 503)"><path d="M9.4,0H7.383V-5.828a2.643,2.643,0,0,0-.41-1.619,1.514,1.514,0,0,0-1.282-.534,1.955,1.955,0,0,0-1.7.756,4.437,4.437,0,0,0-.543,2.516V0H1.436V-9.451H3.008L3.29-8.212h.1A2.618,2.618,0,0,1,4.533-9.254a3.678,3.678,0,0,1,1.645-.367A2.874,2.874,0,0,1,9.066-8.135H9.2a2.881,2.881,0,0,1,1.179-1.094,3.742,3.742,0,0,1,1.743-.393,3.174,3.174,0,0,1,2.465.854,3.784,3.784,0,0,1,.773,2.606V0H13.356V-5.828a2.622,2.622,0,0,0-.414-1.619,1.526,1.526,0,0,0-1.286-.534,1.993,1.993,0,0,0-1.713.731A3.766,3.766,0,0,0,9.4-5.007ZM23.413-12.493,18.765,0h-1.9l4.657-12.493Zm7.93,9.8A2.473,2.473,0,0,1,30.334-.568a4.828,4.828,0,0,1-2.888.739A6.822,6.822,0,0,1,24.413-.4V-2.136a7.447,7.447,0,0,0,3.1.769q1.854,0,1.854-1.119a.887.887,0,0,0-.205-.6,2.427,2.427,0,0,0-.675-.5,11.617,11.617,0,0,0-1.307-.581,6.048,6.048,0,0,1-2.209-1.265A2.34,2.34,0,0,1,24.4-7.067a2.155,2.155,0,0,1,.978-1.884,4.643,4.643,0,0,1,2.662-.671,7.539,7.539,0,0,1,3.153.675L30.54-7.434a7.013,7.013,0,0,0-2.572-.632q-1.589,0-1.589.906a.911.911,0,0,0,.414.752,9.114,9.114,0,0,0,1.807.846,8.261,8.261,0,0,1,1.7.829,2.477,2.477,0,0,1,.786.867A2.51,2.51,0,0,1,31.343-2.692Z" transform="translate(4761 -487.6)" fill="#22242b"/><path d="M2.137-2.607h-6V-3.685l2.283-2.295A19.415,19.415,0,0,0-.24-7.448a3.505,3.505,0,0,0,.481-.814,2.2,2.2,0,0,0,.151-.817,1.246,1.246,0,0,0-.36-.945,1.381,1.381,0,0,0-1-.345,2.655,2.655,0,0,0-.984.188,4.605,4.605,0,0,0-1.1.678l-.769-.938a4.961,4.961,0,0,1,1.435-.884A4.2,4.2,0,0,1-.9-11.586a2.918,2.918,0,0,1,1.98.645,2.178,2.178,0,0,1,.745,1.735,3.044,3.044,0,0,1-.215,1.138,4.626,4.626,0,0,1-.66,1.111A15.081,15.081,0,0,1-.527-5.41L-2.065-3.921v.061h4.2Z" transform="translate(4799.863 -491.414)" fill="#22242b"/></g></svg>