<svg xmlns="http://www.w3.org/2000/svg" width="39" height="15.415" viewBox="0 0 39 15.415"><g transform="translate(-4822 503)"><g transform="translate(4699 -806)"><path d="M-6.192.618H-8.165v-5.7a2.586,2.586,0,0,0-.4-1.584A1.481,1.481,0,0,0-9.82-7.192a1.913,1.913,0,0,0-1.668.74,4.341,4.341,0,0,0-.531,2.462V.618h-1.965V-8.63h1.538l.276,1.212h.1a2.562,2.562,0,0,1,1.116-1.02,3.6,3.6,0,0,1,1.61-.36A2.812,2.812,0,0,1-6.518-7.342h.134A2.819,2.819,0,0,1-5.23-8.412,3.662,3.662,0,0,1-3.525-8.8a3.106,3.106,0,0,1,2.412.836,3.7,3.7,0,0,1,.757,2.55V.618H-2.32v-5.7a2.566,2.566,0,0,0-.406-1.584,1.493,1.493,0,0,0-1.258-.523,1.95,1.95,0,0,0-1.676.715,3.685,3.685,0,0,0-.531,2.195Zm16.371,0H8.206v-5.7a2.586,2.586,0,0,0-.4-1.584,1.481,1.481,0,0,0-1.254-.523,1.913,1.913,0,0,0-1.668.74,4.341,4.341,0,0,0-.531,2.462V.618H2.387V-8.63H3.925L4.2-7.417h.1a2.562,2.562,0,0,1,1.116-1.02,3.6,3.6,0,0,1,1.61-.36A2.812,2.812,0,0,1,9.853-7.342h.134a2.819,2.819,0,0,1,1.154-1.07A3.662,3.662,0,0,1,12.847-8.8a3.106,3.106,0,0,1,2.412.836,3.7,3.7,0,0,1,.757,2.55V.618H14.051v-5.7a2.566,2.566,0,0,0-.406-1.584,1.493,1.493,0,0,0-1.258-.523,1.95,1.95,0,0,0-1.676.715,3.685,3.685,0,0,0-.531,2.195Z" transform="translate(136.984 317.797)" fill="#22242b"/><path d="M1.843-9.407a2.067,2.067,0,0,1-.494,1.413,2.488,2.488,0,0,1-1.392.76v.049a2.694,2.694,0,0,1,1.611.668A1.912,1.912,0,0,1,2.105-5.1,2.358,2.358,0,0,1,1.2-3.111a4.172,4.172,0,0,1-2.588.7,5.828,5.828,0,0,1-2.5-.482V-4.17a5.716,5.716,0,0,0,1.2.433,5.22,5.22,0,0,0,1.221.153,2.575,2.575,0,0,0,1.55-.385,1.391,1.391,0,0,0,.513-1.19,1.133,1.133,0,0,0-.568-1.05,3.625,3.625,0,0,0-1.782-.336h-.775V-7.71h.787Q.39-7.71.39-9.187a1.089,1.089,0,0,0-.372-.885,1.676,1.676,0,0,0-1.1-.311,3.327,3.327,0,0,0-.977.143,4.624,4.624,0,0,0-1.111.558l-.7-1a4.678,4.678,0,0,1,2.85-.9,3.391,3.391,0,0,1,2.106.58A1.9,1.9,0,0,1,1.843-9.407Z" transform="translate(159.895 314.586)" fill="#22242b"/></g></g></svg>