<svg xmlns="http://www.w3.org/2000/svg" width="29.924" height="13.074" viewBox="0 0 29.924 13.074"><path d="M-6.96,0H-8.976V-5.828a2.643,2.643,0,0,0-.41-1.619,1.514,1.514,0,0,0-1.282-.534,1.955,1.955,0,0,0-1.7.756,4.437,4.437,0,0,0-.543,2.516V0h-2.008V-9.451h1.572l.282,1.239h.1a2.618,2.618,0,0,1,1.141-1.042,3.678,3.678,0,0,1,1.645-.367A2.874,2.874,0,0,1-7.293-8.135h.137A2.881,2.881,0,0,1-5.977-9.229a3.742,3.742,0,0,1,1.743-.393,3.174,3.174,0,0,1,2.465.854A3.784,3.784,0,0,1-1-6.161V0H-3V-5.828a2.622,2.622,0,0,0-.414-1.619A1.526,1.526,0,0,0-4.7-7.981a1.993,1.993,0,0,0-1.713.731A3.766,3.766,0,0,0-6.96-5.007ZM3.815,0H1.807V-9.451H3.815ZM1.688-11.954a1.112,1.112,0,0,1,.295-.829,1.149,1.149,0,0,1,.842-.291,1.124,1.124,0,0,1,.825.291,1.112,1.112,0,0,1,.295.829,1.091,1.091,0,0,1-.295.807,1.115,1.115,0,0,1-.825.295,1.139,1.139,0,0,1-.842-.295A1.091,1.091,0,0,1,1.688-11.954ZM15,0H12.984V-5.811a2.543,2.543,0,0,0-.44-1.632,1.7,1.7,0,0,0-1.4-.538,2.221,2.221,0,0,0-1.863.752,4.152,4.152,0,0,0-.59,2.521V0H6.686V-9.451H8.259l.282,1.239h.1A2.8,2.8,0,0,1,9.857-9.254,4.066,4.066,0,0,1,11.6-9.622q3.4,0,3.4,3.461Z" transform="translate(14.924 13.074)" fill="#22242b"/></svg>