<svg xmlns="http://www.w3.org/2000/svg" width="13.45" height="13.467" viewBox="0 0 13.45 13.467"><path d="M-4.448,0H-6.456V-13.3h2.008Zm7.7-9.622A3.28,3.28,0,0,1,6.007-8.34a5.779,5.779,0,0,1,.987,3.6,5.8,5.8,0,0,1-1,3.619A3.311,3.311,0,0,1,3.217.171,3.31,3.31,0,0,1,.432-1.119H.295L-.073,0h-1.5V-13.3H.432v3.162q0,.35-.034,1.042t-.051.88H.432A3.189,3.189,0,0,1,3.251-9.622ZM2.73-7.981a2.041,2.041,0,0,0-1.747.714A4.151,4.151,0,0,0,.432-4.879v.137a4.42,4.42,0,0,0,.547,2.5,2.034,2.034,0,0,0,1.786.773,1.81,1.81,0,0,0,1.619-.846A4.487,4.487,0,0,0,4.935-4.76Q4.935-7.981,2.73-7.981Z" transform="translate(6.456 13.296)" fill="#22242b"/></svg>