<svg xmlns="http://www.w3.org/2000/svg" width="38.7" height="13.467" viewBox="0 0 38.7 13.467"><path d="M-10.476,0h-2.017V-5.811a2.543,2.543,0,0,0-.44-1.632,1.7,1.7,0,0,0-1.4-.538,2.218,2.218,0,0,0-1.859.756,4.167,4.167,0,0,0-.594,2.534V0H-18.79V-13.3h2.008v3.375a15.752,15.752,0,0,1-.1,1.735h.128a2.788,2.788,0,0,1,1.141-1.06,3.677,3.677,0,0,1,1.7-.376q3.435,0,3.435,3.461ZM.7-4.742A5.158,5.158,0,0,1-.487-1.128,4.256,4.256,0,0,1-3.794.171a4.531,4.531,0,0,1-2.341-.6A3.949,3.949,0,0,1-7.7-2.145a5.85,5.85,0,0,1-.547-2.6A5.123,5.123,0,0,1-7.067-8.331a4.276,4.276,0,0,1,3.324-1.29A4.163,4.163,0,0,1-.5-8.3,5.1,5.1,0,0,1,.7-4.742Zm-6.879,0q0,3.273,2.418,3.273,2.393,0,2.393-3.273,0-3.239-2.41-3.239a2.055,2.055,0,0,0-1.833.837A4.262,4.262,0,0,0-6.178-4.742ZM9.673,0,9.391-1.239h-.1A2.849,2.849,0,0,1,8.1-.205,3.986,3.986,0,0,1,6.332.171,3.464,3.464,0,0,1,3.768-.684a3.542,3.542,0,0,1-.846-2.589V-9.451H4.948v5.828A2.528,2.528,0,0,0,5.392-2a1.7,1.7,0,0,0,1.393.543,2.218,2.218,0,0,0,1.859-.756,4.167,4.167,0,0,0,.594-2.534V-9.451h2.017V0ZM18.91-9.622a4.834,4.834,0,0,1,1,.085l-.2,1.871a3.8,3.8,0,0,0-.889-.1,2.572,2.572,0,0,0-1.953.786,2.842,2.842,0,0,0-.748,2.042V0H14.116V-9.451h1.572l.265,1.666h.1a3.744,3.744,0,0,1,1.226-1.342A2.915,2.915,0,0,1,18.91-9.622Z" transform="translate(18.79 13.296)" fill="#22242b"/></svg>