<svg xmlns="http://www.w3.org/2000/svg" width="17.568" height="9.792" viewBox="0 0 17.568 9.792"><path d="M-9.237-4.742a5.158,5.158,0,0,1-1.188,3.615,4.256,4.256,0,0,1-3.307,1.3,4.531,4.531,0,0,1-2.341-.6,3.949,3.949,0,0,1-1.564-1.718,5.85,5.85,0,0,1-.547-2.6A5.123,5.123,0,0,1-17-8.331a4.276,4.276,0,0,1,3.324-1.29A4.163,4.163,0,0,1-10.433-8.3,5.1,5.1,0,0,1-9.237-4.742Zm-6.879,0q0,3.273,2.418,3.273,2.393,0,2.393-3.273,0-3.239-2.41-3.239a2.055,2.055,0,0,0-1.833.837A4.262,4.262,0,0,0-16.116-4.742ZM-.615,0H-7.784V-1.239l4.777-6.674H-7.494V-9.451H-.752v1.4L-5.426-1.538H-.615Z" transform="translate(18.184 9.622)" fill="#22242b"/></svg>