<svg xmlns="http://www.w3.org/2000/svg" width="39.563" height="9.234" viewBox="0 0 39.563 9.234"><path d="M-15.223-1.846A1.7,1.7,0,0,1-15.914-.39a3.311,3.311,0,0,1-1.98.507,4.678,4.678,0,0,1-2.08-.393V-1.465a5.107,5.107,0,0,0,2.127.527q1.271,0,1.271-.768a.608.608,0,0,0-.141-.41,1.664,1.664,0,0,0-.463-.34,7.966,7.966,0,0,0-.9-.4,4.147,4.147,0,0,1-1.515-.867,1.6,1.6,0,0,1-.4-1.125,1.478,1.478,0,0,1,.671-1.292A3.184,3.184,0,0,1-17.49-6.6a5.169,5.169,0,0,1,2.162.463L-15.773-5.1a4.809,4.809,0,0,0-1.764-.434q-1.09,0-1.09.621a.625.625,0,0,0,.284.516,6.249,6.249,0,0,0,1.239.58,5.665,5.665,0,0,1,1.166.568,1.7,1.7,0,0,1,.539.595A1.721,1.721,0,0,1-15.223-1.846ZM-10.9.117a3.135,3.135,0,0,1-2.364-.882,3.348,3.348,0,0,1-.853-2.429,3.673,3.673,0,0,1,.791-2.5A2.732,2.732,0,0,1-11.156-6.6a2.67,2.67,0,0,1,2.027.779,2.978,2.978,0,0,1,.744,2.145v.744H-12.7a2.129,2.129,0,0,0,.51,1.45,1.776,1.776,0,0,0,1.354.507,5,5,0,0,0,1.069-.108,5.605,5.605,0,0,0,1.063-.36V-.322a4.228,4.228,0,0,1-1.02.34A6.252,6.252,0,0,1-10.9.117Zm-.252-5.672a1.383,1.383,0,0,0-1.052.416,1.983,1.983,0,0,0-.472,1.213h2.941a1.794,1.794,0,0,0-.387-1.216A1.323,1.323,0,0,0-11.156-5.555ZM-4.207.117A2.837,2.837,0,0,1-6.442-.741a3.586,3.586,0,0,1-.765-2.464,3.607,3.607,0,0,1,.8-2.514A2.967,2.967,0,0,1-4.1-6.6a4.332,4.332,0,0,1,1.846.381l-.416,1.107a4.17,4.17,0,0,0-1.441-.34q-1.682,0-1.682,2.232A2.673,2.673,0,0,0-5.37-1.579a1.45,1.45,0,0,0,1.228.548A3.522,3.522,0,0,0-2.4-1.488v1.2A2.719,2.719,0,0,1-3.19.023,4.729,4.729,0,0,1-4.207.117ZM4.869-3.252A3.537,3.537,0,0,1,4.055-.773,2.918,2.918,0,0,1,1.787.117,3.107,3.107,0,0,1,.182-.293,2.708,2.708,0,0,1-.891-1.471a4.011,4.011,0,0,1-.375-1.781A3.513,3.513,0,0,1-.457-5.713,2.932,2.932,0,0,1,1.822-6.6a2.855,2.855,0,0,1,2.227.905A3.5,3.5,0,0,1,4.869-3.252Zm-4.717,0q0,2.244,1.658,2.244,1.641,0,1.641-2.244,0-2.221-1.652-2.221A1.409,1.409,0,0,0,.542-4.9,2.922,2.922,0,0,0,.152-3.252ZM12.152,0H10.77V-3.984a1.744,1.744,0,0,0-.3-1.119,1.166,1.166,0,0,0-.958-.369,1.523,1.523,0,0,0-1.277.516,2.847,2.847,0,0,0-.4,1.729V0H6.451V-6.48H7.529l.193.85h.07a1.917,1.917,0,0,1,.832-.715A2.788,2.788,0,0,1,9.82-6.6a2.08,2.08,0,0,1,2.332,2.373Zm4.1.117a2.257,2.257,0,0,1-1.893-.879,3.95,3.95,0,0,1-.68-2.467A3.963,3.963,0,0,1,14.37-5.71,2.279,2.279,0,0,1,16.277-6.6a2.234,2.234,0,0,1,1.945.943h.07a8.254,8.254,0,0,1-.1-1.1V-9.117h1.383V0H18.5l-.24-.85h-.064A2.2,2.2,0,0,1,16.254.117ZM16.623-1a1.5,1.5,0,0,0,1.236-.478,2.514,2.514,0,0,0,.4-1.55v-.193a2.9,2.9,0,0,0-.4-1.74,1.478,1.478,0,0,0-1.248-.516,1.266,1.266,0,0,0-1.119.589A3.018,3.018,0,0,0,15.1-3.205a2.942,2.942,0,0,0,.381,1.644A1.286,1.286,0,0,0,16.623-1Z" transform="translate(19.986 9.117)" fill="#22242b"/></svg>