<svg xmlns="http://www.w3.org/2000/svg" width="13.313" height="13.074" viewBox="0 0 13.313 13.074"><path d="M-4.55,0H-6.558V-9.451H-4.55ZM-6.678-11.954a1.112,1.112,0,0,1,.295-.829,1.149,1.149,0,0,1,.842-.291,1.124,1.124,0,0,1,.825.291,1.112,1.112,0,0,1,.295.829,1.091,1.091,0,0,1-.295.807,1.115,1.115,0,0,1-.825.295,1.139,1.139,0,0,1-.842-.295A1.091,1.091,0,0,1-6.678-11.954ZM6.635,0H4.619V-5.811a2.543,2.543,0,0,0-.44-1.632,1.7,1.7,0,0,0-1.4-.538,2.221,2.221,0,0,0-1.863.752,4.152,4.152,0,0,0-.59,2.521V0H-1.679V-9.451H-.107L.175-8.212h.1A2.8,2.8,0,0,1,1.491-9.254a4.066,4.066,0,0,1,1.743-.367q3.4,0,3.4,3.461Z" transform="translate(6.678 13.074)" fill="#22242b"/></svg>