<svg xmlns="http://www.w3.org/2000/svg" width="23.131" height="17.5" viewBox="0 0 23.131 17.5"><path d="M-2.965-9.451v1.1l-1.615.3a2.607,2.607,0,0,1,.367.735,2.9,2.9,0,0,1,.145.923,2.827,2.827,0,0,1-1.008,2.3,4.219,4.219,0,0,1-2.777.837,4.5,4.5,0,0,1-.82-.068,1.131,1.131,0,0,0-.649.94.522.522,0,0,0,.3.487A2.623,2.623,0,0,0-7.9-1.735h1.649a3.667,3.667,0,0,1,2.375.667A2.345,2.345,0,0,1-3.068.854,2.8,2.8,0,0,1-4.392,3.333,6.973,6.973,0,0,1-8.22,4.2a5.283,5.283,0,0,1-2.948-.684,2.21,2.21,0,0,1-1.017-1.948A2.073,2.073,0,0,1-11.634.107a2.953,2.953,0,0,1,1.542-.825,1.509,1.509,0,0,1-.662-.551,1.391,1.391,0,0,1-.261-.8,1.375,1.375,0,0,1,.3-.9,3.451,3.451,0,0,1,.889-.726,2.632,2.632,0,0,1-1.192-1.03,3.029,3.029,0,0,1-.457-1.671,3,3,0,0,1,.97-2.384,4.077,4.077,0,0,1,2.764-.846,6.729,6.729,0,0,1,.842.056,5.3,5.3,0,0,1,.662.115ZM-10.391,1.47a1.1,1.1,0,0,0,.585,1,3.217,3.217,0,0,0,1.645.35,4.97,4.97,0,0,0,2.444-.47,1.409,1.409,0,0,0,.8-1.248.936.936,0,0,0-.44-.876A3.534,3.534,0,0,0-6.99-.034H-8.511A2.137,2.137,0,0,0-9.882.372,1.331,1.331,0,0,0-10.391,1.47Zm.863-7.861A1.9,1.9,0,0,0-9.07-5.024a1.729,1.729,0,0,0,1.312.479q1.743,0,1.743-1.863a2.113,2.113,0,0,0-.432-1.423,1.639,1.639,0,0,0-1.312-.5,1.69,1.69,0,0,0-1.32.5A2.083,2.083,0,0,0-9.528-6.392ZM4.7,0,4.3-1.316H4.23A3.872,3.872,0,0,1,2.854-.141,4.351,4.351,0,0,1,1.077.171,3.008,3.008,0,0,1-1.1-.581,2.814,2.814,0,0,1-1.88-2.709a2.5,2.5,0,0,1,1.085-2.2,6.257,6.257,0,0,1,3.307-.812l1.632-.051v-.5a1.911,1.911,0,0,0-.423-1.354A1.725,1.725,0,0,0,2.41-8.083a4.535,4.535,0,0,0-1.393.214,10.511,10.511,0,0,0-1.282.5L-.914-8.8A6.989,6.989,0,0,1,.769-9.412,7.747,7.747,0,0,1,2.5-9.622a4.088,4.088,0,0,1,2.722.786,3.078,3.078,0,0,1,.919,2.469V0ZM1.709-1.367a2.487,2.487,0,0,0,1.756-.611,2.215,2.215,0,0,0,.662-1.713v-.82L2.914-4.46A4.152,4.152,0,0,0,.85-3.986,1.441,1.441,0,0,0,.205-2.692a1.263,1.263,0,0,0,.376.978A1.615,1.615,0,0,0,1.709-1.367ZM10.946,0H8.938V-13.3h2.008Z" transform="translate(12.185 13.296)" fill="#22242b"/></svg>