<svg xmlns="http://www.w3.org/2000/svg" width="6.947" height="9.792" viewBox="0 0 6.947 9.792"><path d="M7.784-2.692A2.473,2.473,0,0,1,6.776-.568,4.828,4.828,0,0,1,3.888.171,6.822,6.822,0,0,1,.854-.4V-2.136a7.447,7.447,0,0,0,3.1.769q1.854,0,1.854-1.119a.887.887,0,0,0-.205-.6,2.427,2.427,0,0,0-.675-.5,11.617,11.617,0,0,0-1.307-.581A6.048,6.048,0,0,1,1.414-5.426,2.34,2.34,0,0,1,.837-7.067a2.155,2.155,0,0,1,.978-1.884,4.643,4.643,0,0,1,2.662-.671,7.539,7.539,0,0,1,3.153.675L6.981-7.434a7.013,7.013,0,0,0-2.572-.632q-1.589,0-1.589.906a.911.911,0,0,0,.414.752,9.114,9.114,0,0,0,1.807.846,8.261,8.261,0,0,1,1.7.829,2.477,2.477,0,0,1,.786.867A2.51,2.51,0,0,1,7.784-2.692Z" transform="translate(-0.837 9.622)" fill="#22242b"/></svg>