<svg xmlns="http://www.w3.org/2000/svg" width="15.894" height="15.757" viewBox="0 0 15.894 15.757"><path d="M-2.662.171a3.31,3.31,0,0,1-2.786-1.29h-.12q.12,1.2.12,1.453V4.2H-7.455V-9.451h1.624q.068.265.282,1.265h.1a3.146,3.146,0,0,1,2.82-1.436A3.28,3.28,0,0,1,.128-8.34a5.779,5.779,0,0,1,.987,3.6,5.783,5.783,0,0,1-1,3.615A3.31,3.31,0,0,1-2.662.171Zm-.487-8.152a2.087,2.087,0,0,0-1.747.7,3.632,3.632,0,0,0-.551,2.239v.3a4.42,4.42,0,0,0,.547,2.5,2.034,2.034,0,0,0,1.786.773,1.813,1.813,0,0,0,1.606-.854A4.413,4.413,0,0,0-.944-4.76,4.258,4.258,0,0,0-1.5-7.165,1.867,1.867,0,0,0-3.149-7.981ZM6.968-1.453a4.883,4.883,0,0,0,1.47-.231V-.171a4.054,4.054,0,0,1-.859.244,5.917,5.917,0,0,1-1.089.1q-2.854,0-2.854-3.008V-7.93H2.346v-.889L3.73-9.553l.684-2H5.652v2.1H8.344V-7.93H5.652v5.059A1.419,1.419,0,0,0,6.016-1.8,1.324,1.324,0,0,0,6.968-1.453Z" transform="translate(7.456 11.553)" fill="#22242b"/></svg>