<svg xmlns="http://www.w3.org/2000/svg" width="39.934" height="17.278" viewBox="0 0 39.934 17.278"><path d="M-34.294-2.692A2.473,2.473,0,0,1-35.3-.568a4.828,4.828,0,0,1-2.888.739A6.822,6.822,0,0,1-41.224-.4V-2.136a7.447,7.447,0,0,0,3.1.769q1.854,0,1.854-1.119a.887.887,0,0,0-.205-.6,2.427,2.427,0,0,0-.675-.5,11.617,11.617,0,0,0-1.307-.581,6.048,6.048,0,0,1-2.209-1.265,2.34,2.34,0,0,1-.577-1.641,2.155,2.155,0,0,1,.978-1.884A4.643,4.643,0,0,1-37.6-9.622a7.539,7.539,0,0,1,3.153.675L-35.1-7.434a7.013,7.013,0,0,0-2.572-.632q-1.589,0-1.589.906a.911.911,0,0,0,.414.752,9.114,9.114,0,0,0,1.807.846,8.261,8.261,0,0,1,1.7.829,2.477,2.477,0,0,1,.786.867A2.51,2.51,0,0,1-34.294-2.692Zm5.038,1.256a2.129,2.129,0,0,0,1.816-.731,3.652,3.652,0,0,0,.551-2.209v-.316a4.322,4.322,0,0,0-.568-2.521,2.128,2.128,0,0,0-1.833-.769,1.844,1.844,0,0,0-1.641.854,4.45,4.45,0,0,0-.564,2.452Q-31.495-1.436-29.256-1.436ZM-29.829.171a3.27,3.27,0,0,1-2.743-1.286,5.764,5.764,0,0,1-.991-3.593,5.769,5.769,0,0,1,1.008-3.61,3.318,3.318,0,0,1,2.777-1.3,3.725,3.725,0,0,1,1.594.329,3.339,3.339,0,0,1,1.26,1.081h.068l.222-1.239h1.666V4.2h-2.017V.2q0-.376.034-.795t.06-.641H-27A3.1,3.1,0,0,1-29.829.171ZM-11.336,0h-2.017V-5.828a2.643,2.643,0,0,0-.41-1.619,1.514,1.514,0,0,0-1.282-.534,1.955,1.955,0,0,0-1.7.756,4.437,4.437,0,0,0-.543,2.516V0H-19.3V-9.451h1.572l.282,1.239h.1A2.618,2.618,0,0,1-16.2-9.254a3.678,3.678,0,0,1,1.645-.367,2.874,2.874,0,0,1,2.888,1.487h.137a2.881,2.881,0,0,1,1.179-1.094A3.742,3.742,0,0,1-8.61-9.622a3.174,3.174,0,0,1,2.465.854,3.784,3.784,0,0,1,.773,2.606V0H-7.379V-5.828a2.622,2.622,0,0,0-.414-1.619A1.526,1.526,0,0,0-9.08-7.981a1.993,1.993,0,0,0-1.713.731,3.766,3.766,0,0,0-.543,2.243Zm9.9,0H-3.444V-9.451h2.008ZM-3.563-11.954a1.112,1.112,0,0,1,.295-.829,1.149,1.149,0,0,1,.842-.291,1.124,1.124,0,0,1,.825.291,1.112,1.112,0,0,1,.295.829,1.091,1.091,0,0,1-.295.807,1.115,1.115,0,0,1-.825.295,1.139,1.139,0,0,1-.842-.295A1.091,1.091,0,0,1-3.563-11.954Z" transform="translate(41.241 13.074)" fill="#22242b"/></svg>