<svg xmlns="http://www.w3.org/2000/svg" width="35.083" height="13.5" viewBox="0 0 35.083 13.5"><path d="M-10.907-7.291v.85l-1.246.231a2.011,2.011,0,0,1,.283.567,2.237,2.237,0,0,1,.112.712,2.181,2.181,0,0,1-.778,1.773,3.255,3.255,0,0,1-2.142.646,3.474,3.474,0,0,1-.633-.053.873.873,0,0,0-.5.725.4.4,0,0,0,.234.376,2.024,2.024,0,0,0,.86.125h1.272a2.829,2.829,0,0,1,1.833.514A1.809,1.809,0,0,1-10.986.659a2.157,2.157,0,0,1-1.022,1.912,5.38,5.38,0,0,1-2.953.672,4.075,4.075,0,0,1-2.274-.527,1.7,1.7,0,0,1-.784-1.5,1.6,1.6,0,0,1,.425-1.13A2.278,2.278,0,0,1-16.4-.554a1.164,1.164,0,0,1-.511-.425,1.073,1.073,0,0,1-.2-.616,1.061,1.061,0,0,1,.231-.692,2.662,2.662,0,0,1,.686-.56,2.031,2.031,0,0,1-.92-.794,2.336,2.336,0,0,1-.353-1.289,2.31,2.31,0,0,1,.748-1.839,3.145,3.145,0,0,1,2.132-.653,5.191,5.191,0,0,1,.649.043,4.088,4.088,0,0,1,.511.089Zm-5.728,8.424a.852.852,0,0,0,.452.771,2.482,2.482,0,0,0,1.269.27,3.834,3.834,0,0,0,1.885-.363A1.087,1.087,0,0,0-12.41.85a.722.722,0,0,0-.339-.676,2.726,2.726,0,0,0-1.262-.2h-1.173a1.649,1.649,0,0,0-1.058.313A1.027,1.027,0,0,0-16.635,1.134Zm.666-6.064a1.467,1.467,0,0,0,.353,1.055,1.334,1.334,0,0,0,1.012.369q1.345,0,1.345-1.437a1.63,1.63,0,0,0-.333-1.1A1.265,1.265,0,0,0-14.6-6.427a1.3,1.3,0,0,0-1.018.382A1.607,1.607,0,0,0-15.969-4.931ZM-5.846-9.637-9.432,0h-1.463L-7.3-9.637ZM1.18,0H-.376V-4.5A2.039,2.039,0,0,0-.692-5.745a1.168,1.168,0,0,0-.989-.412A1.508,1.508,0,0,0-3-5.573a3.423,3.423,0,0,0-.419,1.941V0H-4.964V-7.291h1.213l.218.956h.079a2.02,2.02,0,0,1,.88-.8,2.838,2.838,0,0,1,1.269-.283A2.217,2.217,0,0,1,.923-6.275h.105a2.222,2.222,0,0,1,.91-.844,2.887,2.887,0,0,1,1.345-.3,2.449,2.449,0,0,1,1.9.659,2.919,2.919,0,0,1,.6,2.01V0H4.232V-4.5a2.023,2.023,0,0,0-.32-1.249,1.177,1.177,0,0,0-.992-.412A1.538,1.538,0,0,0,1.6-5.593a2.905,2.905,0,0,0-.419,1.73ZM14.072-3.658A3.979,3.979,0,0,1,13.156-.87a3.283,3.283,0,0,1-2.551,1A3.5,3.5,0,0,1,8.8-.33,3.046,3.046,0,0,1,7.592-1.655a4.513,4.513,0,0,1-.422-2,3.952,3.952,0,0,1,.91-2.769,3.3,3.3,0,0,1,2.564-1,3.212,3.212,0,0,1,2.5,1.018A3.934,3.934,0,0,1,14.072-3.658Zm-5.306,0q0,2.525,1.865,2.525,1.846,0,1.846-2.525,0-2.5-1.859-2.5A1.585,1.585,0,0,0,9.2-5.511,3.287,3.287,0,0,0,8.766-3.658ZM17.064,0H15.514V-10.257h1.549Z" transform="translate(18.019 10.257)" fill="#22242b"/></svg>