
<svg width="30px" height="40px" viewBox="0 0 30 40" version="1.1" xmlns="http://www.w3.org/2000/svg" xmlns:xlink="http://www.w3.org/1999/xlink">
    <g id="Page-1" stroke="none" stroke-width="1" fill="none" fill-rule="evenodd">
        <g id="1021" transform="translate(-0.002000, -0.000002)">
            <g id="Group" transform="translate(10.564997, 28.912000)">
                <polygon id="Path" points="2.86102295e-06 1.90734863e-06 11.7470029 1.90734863e-06 11.7470029 10.7080019 2.86102295e-06 10.7080019"></polygon>
                <path d="M0,0 L2,0 L2,1 L1,1 L1,2.91035986 L0,2.91035986 L0,0 Z M3,0 L5,0 L5,1 L3,1 L3,0 Z M6.00000048,0 L8.00000048,0 L8.00000048,1 L6.00000048,1 L6.00000048,0 Z M9,0 L11,0 L11,0.253059387 L11.7469406,0.253059387 C11.7469406,0.253059387 11.7469406,2.25305939 11.7469406,2.25305939 L10.7469406,2.25305939 L10.7469406,1 L9,1 L9,0 Z M10.7469406,3.25305986 L11.7469406,3.25305986 C11.7469406,3.25305986 11.7469406,5.25305986 11.7469406,5.25305986 L10.7469406,5.25305986 L10.7469406,3.25305986 Z M10.7469406,6.25305986 L11.7469406,6.25305986 C11.7469406,6.25305986 11.7469406,8.25305986 11.7469406,8.25305986 L10.7469406,8.25305986 L10.7469406,6.25305986 Z M10.7469406,9.25305939 L11.7469406,9.25305939 C11.7469406,9.25305939 11.7469406,10.7082396 11.7469406,10.7082396 L10.7469406,10.7082396 L10.7469406,10.7082396 L10.7469406,10.7082396 L10.7469406,10.7082396 L10.7469406,9.25305939 Z M8.20212078,9.70823956 L10.2021208,9.70823956 L10.2021208,10.7082396 C10.2021208,10.7082396 8.20212078,10.7082396 8.20212078,10.7082396 L8.20212078,9.70823956 Z M5.2021203,9.70823956 L7.2021203,9.70823956 L7.2021203,10.7082396 C7.2021203,10.7082396 5.2021203,10.7082396 5.2021203,10.7082396 L5.2021203,9.70823956 Z M2.20212078,9.70823956 L4.20212078,9.70823956 L4.20212078,10.7082396 C4.20212078,10.7082396 2.20212078,10.7082396 2.20212078,10.7082396 L2.20212078,9.70823956 Z M0,9.70823956 L1.20212078,9.70823956 L1.20212078,10.7082396 C1.20212078,10.7082396 0,10.7082396 0,10.7082396 L0,9.70823956 Z M0,6.91035986 L1,6.91035986 L1,8.91035986 L0,8.91035986 L0,6.91035986 Z M0,3.91035986 L1,3.91035986 L1,5.91035986 L0,5.91035986 L0,3.91035986 Z" id="Shape" fill="#1AB395" fill-rule="nonzero"></path>
            </g>
            <g id="Group" transform="translate(10.564997, 12.850000)">
                <polygon id="Path" points="2.86102295e-06 1.90734863e-06 11.7470029 1.90734863e-06 11.7470029 10.7080019 2.86102295e-06 10.7080019"></polygon>
                <path d="M0,0 L2,0 L2,1 L1,1 L1,2.91035986 L0,2.91035986 L0,0 Z M3,0 L5,0 L5,1 L3,1 L3,0 Z M6.00000048,0 L8.00000048,0 L8.00000048,1 L6.00000048,1 L6.00000048,0 Z M9,0 L11,0 L11,0.253059387 L11.7469406,0.253059387 C11.7469406,0.253059387 11.7469406,2.25305939 11.7469406,2.25305939 L10.7469406,2.25305939 L10.7469406,1 L9,1 L9,0 Z M10.7469406,3.25305986 L11.7469406,3.25305986 C11.7469406,3.25305986 11.7469406,5.25305986 11.7469406,5.25305986 L10.7469406,5.25305986 L10.7469406,3.25305986 Z M10.7469406,6.25305986 L11.7469406,6.25305986 C11.7469406,6.25305986 11.7469406,8.25305986 11.7469406,8.25305986 L10.7469406,8.25305986 L10.7469406,6.25305986 Z M10.7469406,9.25305939 L11.7469406,9.25305939 C11.7469406,9.25305939 11.7469406,10.7082396 11.7469406,10.7082396 L10.7469406,10.7082396 L10.7469406,10.7082396 L10.7469406,10.7082396 L10.7469406,10.7082396 L10.7469406,9.25305939 Z M8.20212078,9.70823956 L10.2021208,9.70823956 L10.2021208,10.7082396 C10.2021208,10.7082396 8.20212078,10.7082396 8.20212078,10.7082396 L8.20212078,9.70823956 Z M5.2021203,9.70823956 L7.2021203,9.70823956 L7.2021203,10.7082396 C7.2021203,10.7082396 5.2021203,10.7082396 5.2021203,10.7082396 L5.2021203,9.70823956 Z M2.20212078,9.70823956 L4.20212078,9.70823956 L4.20212078,10.7082396 C4.20212078,10.7082396 2.20212078,10.7082396 2.20212078,10.7082396 L2.20212078,9.70823956 Z M0,9.70823956 L1.20212078,9.70823956 L1.20212078,10.7082396 C1.20212078,10.7082396 0,10.7082396 0,10.7082396 L0,9.70823956 Z M0,6.91035986 L1,6.91035986 L1,8.91035986 L0,8.91035986 L0,6.91035986 Z M0,3.91035986 L1,3.91035986 L1,5.91035986 L0,5.91035986 L0,3.91035986 Z" id="Shape" fill="#1AB395" fill-rule="nonzero"></path>
            </g>
            <g id="Group" transform="translate(10.564997, 0.000000)">
                <polygon id="Path" points="2.86102295e-06 1.90734863e-06 11.7470029 1.90734863e-06 11.7470029 10.7080019 2.86102295e-06 10.7080019"></polygon>
                <path d="M0,0 L2,0 L2,1 L1,1 L1,2.91035986 L0,2.91035986 L0,0 Z M3,0 L5,0 L5,1 L3,1 L3,0 Z M6.00000048,0 L8.00000048,0 L8.00000048,1 L6.00000048,1 L6.00000048,0 Z M9,0 L11,0 L11,0.253059387 L11.7469406,0.253059387 C11.7469406,0.253059387 11.7469406,2.25305939 11.7469406,2.25305939 L10.7469406,2.25305939 L10.7469406,1 L9,1 L9,0 Z M10.7469406,3.25305986 L11.7469406,3.25305986 C11.7469406,3.25305986 11.7469406,5.25305986 11.7469406,5.25305986 L10.7469406,5.25305986 L10.7469406,3.25305986 Z M10.7469406,6.25305986 L11.7469406,6.25305986 C11.7469406,6.25305986 11.7469406,8.25305986 11.7469406,8.25305986 L10.7469406,8.25305986 L10.7469406,6.25305986 Z M10.7469406,9.25305939 L11.7469406,9.25305939 C11.7469406,9.25305939 11.7469406,10.7082396 11.7469406,10.7082396 L10.7469406,10.7082396 L10.7469406,10.7082396 L10.7469406,10.7082396 L10.7469406,10.7082396 L10.7469406,9.25305939 Z M8.20212078,9.70823956 L10.2021208,9.70823956 L10.2021208,10.7082396 C10.2021208,10.7082396 8.20212078,10.7082396 8.20212078,10.7082396 L8.20212078,9.70823956 Z M5.2021203,9.70823956 L7.2021203,9.70823956 L7.2021203,10.7082396 C7.2021203,10.7082396 5.2021203,10.7082396 5.2021203,10.7082396 L5.2021203,9.70823956 Z M2.20212078,9.70823956 L4.20212078,9.70823956 L4.20212078,10.7082396 C4.20212078,10.7082396 2.20212078,10.7082396 2.20212078,10.7082396 L2.20212078,9.70823956 Z M0,9.70823956 L1.20212078,9.70823956 L1.20212078,10.7082396 C1.20212078,10.7082396 0,10.7082396 0,10.7082396 L0,9.70823956 Z M0,6.91035986 L1,6.91035986 L1,8.91035986 L0,8.91035986 L0,6.91035986 Z M0,3.91035986 L1,3.91035986 L1,5.91035986 L0,5.91035986 L0,3.91035986 Z" id="Shape" fill="#1AB395" fill-rule="nonzero"></path>
            </g>
            <line x1="2.069" y1="26.4060019" x2="29.312" y2="26.4060019" id="Path" stroke="#22242B"></line>
            <polygon id="Path" fill="#22242B" fill-rule="nonzero" points="-4.4408921e-16 18.6700019 -4.4408921e-16 17.5530019 6.13 17.5530019 6.13 18.6700019"></polygon>
        </g>
    </g>
</svg>