<svg xmlns="http://www.w3.org/2000/svg" width="38.922" height="27.531" viewBox="0 0 38.922 27.531"><g transform="translate(-857 -390)"><path d="M-20.789,2.531h-3.68V-11.422h3.68v1.375h-2v11.2h2ZM10.789,1.148h2v-11.2h-2v-1.375h3.664V2.531H10.789Z" transform="translate(881.469 410)" fill="#22242b"/><g transform="translate(862.47 409.525)" fill="none" stroke-dasharray="2 1"><path d="M0,0H8.622V8.006H0Z" stroke="none"/><path d="M 2.999995231628418 -9.5367431640625e-07 L 4.999995231628418 -9.5367431640625e-07 L 4.999995231628418 0.9999985694885254 L 2.999995231628418 0.9999985694885254 L 2.999995231628418 -9.5367431640625e-07 Z M 5.999995231628418 -9.5367431640625e-07 L 7.999995231628418 -9.5367431640625e-07 L 7.999995231628418 0.3783788681030273 L 8.621615409851074 0.3783788681030273 C 8.621615409851074 0.3783788681030273 8.621615409851074 2.378378868103027 8.621615409851074 2.378378868103027 L 7.621615409851074 2.378378868103027 L 7.621615409851074 0.9999985694885254 L 5.999995231628418 0.9999985694885254 L 5.999995231628418 -9.5367431640625e-07 Z M 7.621615409851074 3.378378868103027 L 8.621615409851074 3.378378868103027 C 8.621615409851074 3.378378868103027 8.621615409851074 5.378378868103027 8.621615409851074 5.378378868103027 L 7.621615409851074 5.378378868103027 L 7.621615409851074 3.378378868103027 Z M 7.621615409851074 6.378378868103027 L 8.621615409851074 6.378378868103027 C 8.621615409851074 6.378378868103027 8.621615409851074 8.005778312683105 8.621615409851074 8.005778312683105 L 7.621615409851074 8.005778312683105 L 7.621615409851074 8.005778312683105 L 7.621615409851074 8.005778312683105 L 7.621615409851074 8.005778312683105 L 7.621615409851074 6.378378868103027 Z M 5.249015331268311 7.005778789520264 L 7.249015331268311 7.005778789520264 L 7.249015331268311 8.005778312683105 C 7.249015331268311 8.005778312683105 5.249015331268311 8.005778312683105 5.249015331268311 8.005778312683105 L 5.249015331268311 7.005778789520264 Z M 2.249015331268311 7.005778789520264 L 4.249015331268311 7.005778789520264 L 4.249015331268311 8.005778312683105 C 4.249015331268311 8.005778312683105 2.249015331268311 8.005778312683105 2.249015331268311 8.005778312683105 L 2.249015331268311 7.005778789520264 Z M -4.76837158203125e-06 7.005778789520264 L 1.249015331268311 7.005778789520264 L 1.249015331268311 8.005778312683105 C 1.249015331268311 8.005778312683105 -4.76837158203125e-06 8.005778312683105 -4.76837158203125e-06 8.005778312683105 L -4.76837158203125e-06 7.005778789520264 Z M -4.76837158203125e-06 4.254798889160156 L 0.999995231628418 4.254798889160156 L 0.999995231628418 6.254798889160156 L -4.76837158203125e-06 6.254798889160156 L -4.76837158203125e-06 4.254798889160156 Z M -4.76837158203125e-06 1.254798889160156 L 0.999995231628418 1.254798889160156 L 0.999995231628418 3.254798889160156 L -4.76837158203125e-06 3.254798889160156 L -4.76837158203125e-06 1.254798889160156 Z M -4.76837158203125e-06 -9.5367431640625e-07 L 1.999995231628418 -9.5367431640625e-07 L 1.999995231628418 0.9999985694885254 L -4.76837158203125e-06 0.9999985694885254 L -4.76837158203125e-06 -9.5367431640625e-07 Z" stroke="none" fill="#1ab395"/></g><g transform="translate(862.47 400)" fill="none" stroke-dasharray="2 1"><path d="M0,0H8.622V8.006H0Z" stroke="none"/><path d="M 2.999995231628418 -9.5367431640625e-07 L 4.999995231628418 -9.5367431640625e-07 L 4.999995231628418 0.9999985694885254 L 2.999995231628418 0.9999985694885254 L 2.999995231628418 -9.5367431640625e-07 Z M 5.999995231628418 -9.5367431640625e-07 L 7.999995231628418 -9.5367431640625e-07 L 7.999995231628418 0.3783788681030273 L 8.621615409851074 0.3783788681030273 C 8.621615409851074 0.3783788681030273 8.621615409851074 2.378378868103027 8.621615409851074 2.378378868103027 L 7.621615409851074 2.378378868103027 L 7.621615409851074 0.9999985694885254 L 5.999995231628418 0.9999985694885254 L 5.999995231628418 -9.5367431640625e-07 Z M 7.621615409851074 3.378378868103027 L 8.621615409851074 3.378378868103027 C 8.621615409851074 3.378378868103027 8.621615409851074 5.378378868103027 8.621615409851074 5.378378868103027 L 7.621615409851074 5.378378868103027 L 7.621615409851074 3.378378868103027 Z M 7.621615409851074 6.378378868103027 L 8.621615409851074 6.378378868103027 C 8.621615409851074 6.378378868103027 8.621615409851074 8.005778312683105 8.621615409851074 8.005778312683105 L 7.621615409851074 8.005778312683105 L 7.621615409851074 8.005778312683105 L 7.621615409851074 8.005778312683105 L 7.621615409851074 8.005778312683105 L 7.621615409851074 6.378378868103027 Z M 5.249015331268311 7.005778789520264 L 7.249015331268311 7.005778789520264 L 7.249015331268311 8.005778312683105 C 7.249015331268311 8.005778312683105 5.249015331268311 8.005778312683105 5.249015331268311 8.005778312683105 L 5.249015331268311 7.005778789520264 Z M 2.249015331268311 7.005778789520264 L 4.249015331268311 7.005778789520264 L 4.249015331268311 8.005778312683105 C 4.249015331268311 8.005778312683105 2.249015331268311 8.005778312683105 2.249015331268311 8.005778312683105 L 2.249015331268311 7.005778789520264 Z M -4.76837158203125e-06 7.005778789520264 L 1.249015331268311 7.005778789520264 L 1.249015331268311 8.005778312683105 C 1.249015331268311 8.005778312683105 -4.76837158203125e-06 8.005778312683105 -4.76837158203125e-06 8.005778312683105 L -4.76837158203125e-06 7.005778789520264 Z M -4.76837158203125e-06 4.254798889160156 L 0.999995231628418 4.254798889160156 L 0.999995231628418 6.254798889160156 L -4.76837158203125e-06 6.254798889160156 L -4.76837158203125e-06 4.254798889160156 Z M -4.76837158203125e-06 1.254798889160156 L 0.999995231628418 1.254798889160156 L 0.999995231628418 3.254798889160156 L -4.76837158203125e-06 3.254798889160156 L -4.76837158203125e-06 1.254798889160156 Z M -4.76837158203125e-06 -9.5367431640625e-07 L 1.999995231628418 -9.5367431640625e-07 L 1.999995231628418 0.9999985694885254 L -4.76837158203125e-06 0.9999985694885254 L -4.76837158203125e-06 -9.5367431640625e-07 Z" stroke="none" fill="#1ab395"/></g><g transform="translate(862.47 390)" fill="none" stroke-dasharray="2 1"><path d="M0,0H8.622V8.006H0Z" stroke="none"/><path d="M 2.999995231628418 -9.5367431640625e-07 L 4.999995231628418 -9.5367431640625e-07 L 4.999995231628418 0.9999985694885254 L 2.999995231628418 0.9999985694885254 L 2.999995231628418 -9.5367431640625e-07 Z M 5.999995231628418 -9.5367431640625e-07 L 7.999995231628418 -9.5367431640625e-07 L 7.999995231628418 0.3783788681030273 L 8.621615409851074 0.3783788681030273 C 8.621615409851074 0.3783788681030273 8.621615409851074 2.378378868103027 8.621615409851074 2.378378868103027 L 7.621615409851074 2.378378868103027 L 7.621615409851074 0.9999985694885254 L 5.999995231628418 0.9999985694885254 L 5.999995231628418 -9.5367431640625e-07 Z M 7.621615409851074 3.378378868103027 L 8.621615409851074 3.378378868103027 C 8.621615409851074 3.378378868103027 8.621615409851074 5.378378868103027 8.621615409851074 5.378378868103027 L 7.621615409851074 5.378378868103027 L 7.621615409851074 3.378378868103027 Z M 7.621615409851074 6.378378868103027 L 8.621615409851074 6.378378868103027 C 8.621615409851074 6.378378868103027 8.621615409851074 8.005778312683105 8.621615409851074 8.005778312683105 L 7.621615409851074 8.005778312683105 L 7.621615409851074 8.005778312683105 L 7.621615409851074 8.005778312683105 L 7.621615409851074 8.005778312683105 L 7.621615409851074 6.378378868103027 Z M 5.249015331268311 7.005778789520264 L 7.249015331268311 7.005778789520264 L 7.249015331268311 8.005778312683105 C 7.249015331268311 8.005778312683105 5.249015331268311 8.005778312683105 5.249015331268311 8.005778312683105 L 5.249015331268311 7.005778789520264 Z M 2.249015331268311 7.005778789520264 L 4.249015331268311 7.005778789520264 L 4.249015331268311 8.005778312683105 C 4.249015331268311 8.005778312683105 2.249015331268311 8.005778312683105 2.249015331268311 8.005778312683105 L 2.249015331268311 7.005778789520264 Z M -4.76837158203125e-06 7.005778789520264 L 1.249015331268311 7.005778789520264 L 1.249015331268311 8.005778312683105 C 1.249015331268311 8.005778312683105 -4.76837158203125e-06 8.005778312683105 -4.76837158203125e-06 8.005778312683105 L -4.76837158203125e-06 7.005778789520264 Z M -4.76837158203125e-06 4.254798889160156 L 0.999995231628418 4.254798889160156 L 0.999995231628418 6.254798889160156 L -4.76837158203125e-06 6.254798889160156 L -4.76837158203125e-06 4.254798889160156 Z M -4.76837158203125e-06 1.254798889160156 L 0.999995231628418 1.254798889160156 L 0.999995231628418 3.254798889160156 L -4.76837158203125e-06 3.254798889160156 L -4.76837158203125e-06 1.254798889160156 Z M -4.76837158203125e-06 -9.5367431640625e-07 L 1.999995231628418 -9.5367431640625e-07 L 1.999995231628418 0.9999985694885254 L -4.76837158203125e-06 0.9999985694885254 L -4.76837158203125e-06 -9.5367431640625e-07 Z" stroke="none" fill="#1ab395"/></g><g transform="translate(872.789 409.525)" fill="none" stroke-dasharray="2 1"><path d="M0,0H8.622V8.006H0Z" stroke="none"/><path d="M 2.999995231628418 -9.5367431640625e-07 L 4.999995231628418 -9.5367431640625e-07 L 4.999995231628418 0.9999985694885254 L 2.999995231628418 0.9999985694885254 L 2.999995231628418 -9.5367431640625e-07 Z M 5.999995231628418 -9.5367431640625e-07 L 7.999995231628418 -9.5367431640625e-07 L 7.999995231628418 0.3783788681030273 L 8.621615409851074 0.3783788681030273 C 8.621615409851074 0.3783788681030273 8.621615409851074 2.378378868103027 8.621615409851074 2.378378868103027 L 7.621615409851074 2.378378868103027 L 7.621615409851074 0.9999985694885254 L 5.999995231628418 0.9999985694885254 L 5.999995231628418 -9.5367431640625e-07 Z M 7.621615409851074 3.378378868103027 L 8.621615409851074 3.378378868103027 C 8.621615409851074 3.378378868103027 8.621615409851074 5.378378868103027 8.621615409851074 5.378378868103027 L 7.621615409851074 5.378378868103027 L 7.621615409851074 3.378378868103027 Z M 7.621615409851074 6.378378868103027 L 8.621615409851074 6.378378868103027 C 8.621615409851074 6.378378868103027 8.621615409851074 8.005778312683105 8.621615409851074 8.005778312683105 L 7.621615409851074 8.005778312683105 L 7.621615409851074 8.005778312683105 L 7.621615409851074 8.005778312683105 L 7.621615409851074 8.005778312683105 L 7.621615409851074 6.378378868103027 Z M 5.249015331268311 7.005778789520264 L 7.249015331268311 7.005778789520264 L 7.249015331268311 8.005778312683105 C 7.249015331268311 8.005778312683105 5.249015331268311 8.005778312683105 5.249015331268311 8.005778312683105 L 5.249015331268311 7.005778789520264 Z M 2.249015331268311 7.005778789520264 L 4.249015331268311 7.005778789520264 L 4.249015331268311 8.005778312683105 C 4.249015331268311 8.005778312683105 2.249015331268311 8.005778312683105 2.249015331268311 8.005778312683105 L 2.249015331268311 7.005778789520264 Z M -4.76837158203125e-06 7.005778789520264 L 1.249015331268311 7.005778789520264 L 1.249015331268311 8.005778312683105 C 1.249015331268311 8.005778312683105 -4.76837158203125e-06 8.005778312683105 -4.76837158203125e-06 8.005778312683105 L -4.76837158203125e-06 7.005778789520264 Z M -4.76837158203125e-06 4.254798889160156 L 0.999995231628418 4.254798889160156 L 0.999995231628418 6.254798889160156 L -4.76837158203125e-06 6.254798889160156 L -4.76837158203125e-06 4.254798889160156 Z M -4.76837158203125e-06 1.254798889160156 L 0.999995231628418 1.254798889160156 L 0.999995231628418 3.254798889160156 L -4.76837158203125e-06 3.254798889160156 L -4.76837158203125e-06 1.254798889160156 Z M -4.76837158203125e-06 -9.5367431640625e-07 L 1.999995231628418 -9.5367431640625e-07 L 1.999995231628418 0.9999985694885254 L -4.76837158203125e-06 0.9999985694885254 L -4.76837158203125e-06 -9.5367431640625e-07 Z" stroke="none" fill="#1ab395"/></g><g transform="translate(882.789 409.525)" fill="none" stroke-dasharray="2 1"><path d="M0,0H8.622V8.006H0Z" stroke="none"/><path d="M 2.999995231628418 -9.5367431640625e-07 L 4.999995231628418 -9.5367431640625e-07 L 4.999995231628418 0.9999985694885254 L 2.999995231628418 0.9999985694885254 L 2.999995231628418 -9.5367431640625e-07 Z M 5.999995231628418 -9.5367431640625e-07 L 7.999995231628418 -9.5367431640625e-07 L 7.999995231628418 0.3783788681030273 L 8.621615409851074 0.3783788681030273 C 8.621615409851074 0.3783788681030273 8.621615409851074 2.378378868103027 8.621615409851074 2.378378868103027 L 7.621615409851074 2.378378868103027 L 7.621615409851074 0.9999985694885254 L 5.999995231628418 0.9999985694885254 L 5.999995231628418 -9.5367431640625e-07 Z M 7.621615409851074 3.378378868103027 L 8.621615409851074 3.378378868103027 C 8.621615409851074 3.378378868103027 8.621615409851074 5.378378868103027 8.621615409851074 5.378378868103027 L 7.621615409851074 5.378378868103027 L 7.621615409851074 3.378378868103027 Z M 7.621615409851074 6.378378868103027 L 8.621615409851074 6.378378868103027 C 8.621615409851074 6.378378868103027 8.621615409851074 8.005778312683105 8.621615409851074 8.005778312683105 L 7.621615409851074 8.005778312683105 L 7.621615409851074 8.005778312683105 L 7.621615409851074 8.005778312683105 L 7.621615409851074 8.005778312683105 L 7.621615409851074 6.378378868103027 Z M 5.249015331268311 7.005778789520264 L 7.249015331268311 7.005778789520264 L 7.249015331268311 8.005778312683105 C 7.249015331268311 8.005778312683105 5.249015331268311 8.005778312683105 5.249015331268311 8.005778312683105 L 5.249015331268311 7.005778789520264 Z M 2.249015331268311 7.005778789520264 L 4.249015331268311 7.005778789520264 L 4.249015331268311 8.005778312683105 C 4.249015331268311 8.005778312683105 2.249015331268311 8.005778312683105 2.249015331268311 8.005778312683105 L 2.249015331268311 7.005778789520264 Z M -4.76837158203125e-06 7.005778789520264 L 1.249015331268311 7.005778789520264 L 1.249015331268311 8.005778312683105 C 1.249015331268311 8.005778312683105 -4.76837158203125e-06 8.005778312683105 -4.76837158203125e-06 8.005778312683105 L -4.76837158203125e-06 7.005778789520264 Z M -4.76837158203125e-06 4.254798889160156 L 0.999995231628418 4.254798889160156 L 0.999995231628418 6.254798889160156 L -4.76837158203125e-06 6.254798889160156 L -4.76837158203125e-06 4.254798889160156 Z M -4.76837158203125e-06 1.254798889160156 L 0.999995231628418 1.254798889160156 L 0.999995231628418 3.254798889160156 L -4.76837158203125e-06 3.254798889160156 L -4.76837158203125e-06 1.254798889160156 Z M -4.76837158203125e-06 -9.5367431640625e-07 L 1.999995231628418 -9.5367431640625e-07 L 1.999995231628418 0.9999985694885254 L -4.76837158203125e-06 0.9999985694885254 L -4.76837158203125e-06 -9.5367431640625e-07 Z" stroke="none" fill="#1ab395"/></g><g transform="translate(872.789 400)" fill="none" stroke-dasharray="2 1"><path d="M0,0H8.622V8.006H0Z" stroke="none"/><path d="M 2.999995231628418 -9.5367431640625e-07 L 4.999995231628418 -9.5367431640625e-07 L 4.999995231628418 0.9999985694885254 L 2.999995231628418 0.9999985694885254 L 2.999995231628418 -9.5367431640625e-07 Z M 5.999995231628418 -9.5367431640625e-07 L 7.999995231628418 -9.5367431640625e-07 L 7.999995231628418 0.3783788681030273 L 8.621615409851074 0.3783788681030273 C 8.621615409851074 0.3783788681030273 8.621615409851074 2.378378868103027 8.621615409851074 2.378378868103027 L 7.621615409851074 2.378378868103027 L 7.621615409851074 0.9999985694885254 L 5.999995231628418 0.9999985694885254 L 5.999995231628418 -9.5367431640625e-07 Z M 7.621615409851074 3.378378868103027 L 8.621615409851074 3.378378868103027 C 8.621615409851074 3.378378868103027 8.621615409851074 5.378378868103027 8.621615409851074 5.378378868103027 L 7.621615409851074 5.378378868103027 L 7.621615409851074 3.378378868103027 Z M 7.621615409851074 6.378378868103027 L 8.621615409851074 6.378378868103027 C 8.621615409851074 6.378378868103027 8.621615409851074 8.005778312683105 8.621615409851074 8.005778312683105 L 7.621615409851074 8.005778312683105 L 7.621615409851074 8.005778312683105 L 7.621615409851074 8.005778312683105 L 7.621615409851074 8.005778312683105 L 7.621615409851074 6.378378868103027 Z M 5.249015331268311 7.005778789520264 L 7.249015331268311 7.005778789520264 L 7.249015331268311 8.005778312683105 C 7.249015331268311 8.005778312683105 5.249015331268311 8.005778312683105 5.249015331268311 8.005778312683105 L 5.249015331268311 7.005778789520264 Z M 2.249015331268311 7.005778789520264 L 4.249015331268311 7.005778789520264 L 4.249015331268311 8.005778312683105 C 4.249015331268311 8.005778312683105 2.249015331268311 8.005778312683105 2.249015331268311 8.005778312683105 L 2.249015331268311 7.005778789520264 Z M -4.76837158203125e-06 7.005778789520264 L 1.249015331268311 7.005778789520264 L 1.249015331268311 8.005778312683105 C 1.249015331268311 8.005778312683105 -4.76837158203125e-06 8.005778312683105 -4.76837158203125e-06 8.005778312683105 L -4.76837158203125e-06 7.005778789520264 Z M -4.76837158203125e-06 4.254798889160156 L 0.999995231628418 4.254798889160156 L 0.999995231628418 6.254798889160156 L -4.76837158203125e-06 6.254798889160156 L -4.76837158203125e-06 4.254798889160156 Z M -4.76837158203125e-06 1.254798889160156 L 0.999995231628418 1.254798889160156 L 0.999995231628418 3.254798889160156 L -4.76837158203125e-06 3.254798889160156 L -4.76837158203125e-06 1.254798889160156 Z M -4.76837158203125e-06 -9.5367431640625e-07 L 1.999995231628418 -9.5367431640625e-07 L 1.999995231628418 0.9999985694885254 L -4.76837158203125e-06 0.9999985694885254 L -4.76837158203125e-06 -9.5367431640625e-07 Z" stroke="none" fill="#1ab395"/></g><g transform="translate(872.789 390)" fill="none" stroke-dasharray="2 1"><path d="M0,0H8.622V8.006H0Z" stroke="none"/><path d="M 2.999995231628418 -9.5367431640625e-07 L 4.999995231628418 -9.5367431640625e-07 L 4.999995231628418 0.9999985694885254 L 2.999995231628418 0.9999985694885254 L 2.999995231628418 -9.5367431640625e-07 Z M 5.999995231628418 -9.5367431640625e-07 L 7.999995231628418 -9.5367431640625e-07 L 7.999995231628418 0.3783788681030273 L 8.621615409851074 0.3783788681030273 C 8.621615409851074 0.3783788681030273 8.621615409851074 2.378378868103027 8.621615409851074 2.378378868103027 L 7.621615409851074 2.378378868103027 L 7.621615409851074 0.9999985694885254 L 5.999995231628418 0.9999985694885254 L 5.999995231628418 -9.5367431640625e-07 Z M 7.621615409851074 3.378378868103027 L 8.621615409851074 3.378378868103027 C 8.621615409851074 3.378378868103027 8.621615409851074 5.378378868103027 8.621615409851074 5.378378868103027 L 7.621615409851074 5.378378868103027 L 7.621615409851074 3.378378868103027 Z M 7.621615409851074 6.378378868103027 L 8.621615409851074 6.378378868103027 C 8.621615409851074 6.378378868103027 8.621615409851074 8.005778312683105 8.621615409851074 8.005778312683105 L 7.621615409851074 8.005778312683105 L 7.621615409851074 8.005778312683105 L 7.621615409851074 8.005778312683105 L 7.621615409851074 8.005778312683105 L 7.621615409851074 6.378378868103027 Z M 5.249015331268311 7.005778789520264 L 7.249015331268311 7.005778789520264 L 7.249015331268311 8.005778312683105 C 7.249015331268311 8.005778312683105 5.249015331268311 8.005778312683105 5.249015331268311 8.005778312683105 L 5.249015331268311 7.005778789520264 Z M 2.249015331268311 7.005778789520264 L 4.249015331268311 7.005778789520264 L 4.249015331268311 8.005778312683105 C 4.249015331268311 8.005778312683105 2.249015331268311 8.005778312683105 2.249015331268311 8.005778312683105 L 2.249015331268311 7.005778789520264 Z M -4.76837158203125e-06 7.005778789520264 L 1.249015331268311 7.005778789520264 L 1.249015331268311 8.005778312683105 C 1.249015331268311 8.005778312683105 -4.76837158203125e-06 8.005778312683105 -4.76837158203125e-06 8.005778312683105 L -4.76837158203125e-06 7.005778789520264 Z M -4.76837158203125e-06 4.254798889160156 L 0.999995231628418 4.254798889160156 L 0.999995231628418 6.254798889160156 L -4.76837158203125e-06 6.254798889160156 L -4.76837158203125e-06 4.254798889160156 Z M -4.76837158203125e-06 1.254798889160156 L 0.999995231628418 1.254798889160156 L 0.999995231628418 3.254798889160156 L -4.76837158203125e-06 3.254798889160156 L -4.76837158203125e-06 1.254798889160156 Z M -4.76837158203125e-06 -9.5367431640625e-07 L 1.999995231628418 -9.5367431640625e-07 L 1.999995231628418 0.9999985694885254 L -4.76837158203125e-06 0.9999985694885254 L -4.76837158203125e-06 -9.5367431640625e-07 Z" stroke="none" fill="#1ab395"/></g><g transform="translate(882.789 400)" fill="none" stroke-dasharray="2 1"><path d="M0,0H8.622V8.006H0Z" stroke="none"/><path d="M 2.999995231628418 -9.5367431640625e-07 L 4.999995231628418 -9.5367431640625e-07 L 4.999995231628418 0.9999985694885254 L 2.999995231628418 0.9999985694885254 L 2.999995231628418 -9.5367431640625e-07 Z M 5.999995231628418 -9.5367431640625e-07 L 7.999995231628418 -9.5367431640625e-07 L 7.999995231628418 0.3783788681030273 L 8.621615409851074 0.3783788681030273 C 8.621615409851074 0.3783788681030273 8.621615409851074 2.378378868103027 8.621615409851074 2.378378868103027 L 7.621615409851074 2.378378868103027 L 7.621615409851074 0.9999985694885254 L 5.999995231628418 0.9999985694885254 L 5.999995231628418 -9.5367431640625e-07 Z M 7.621615409851074 3.378378868103027 L 8.621615409851074 3.378378868103027 C 8.621615409851074 3.378378868103027 8.621615409851074 5.378378868103027 8.621615409851074 5.378378868103027 L 7.621615409851074 5.378378868103027 L 7.621615409851074 3.378378868103027 Z M 7.621615409851074 6.378378868103027 L 8.621615409851074 6.378378868103027 C 8.621615409851074 6.378378868103027 8.621615409851074 8.005778312683105 8.621615409851074 8.005778312683105 L 7.621615409851074 8.005778312683105 L 7.621615409851074 8.005778312683105 L 7.621615409851074 8.005778312683105 L 7.621615409851074 8.005778312683105 L 7.621615409851074 6.378378868103027 Z M 5.249015331268311 7.005778789520264 L 7.249015331268311 7.005778789520264 L 7.249015331268311 8.005778312683105 C 7.249015331268311 8.005778312683105 5.249015331268311 8.005778312683105 5.249015331268311 8.005778312683105 L 5.249015331268311 7.005778789520264 Z M 2.249015331268311 7.005778789520264 L 4.249015331268311 7.005778789520264 L 4.249015331268311 8.005778312683105 C 4.249015331268311 8.005778312683105 2.249015331268311 8.005778312683105 2.249015331268311 8.005778312683105 L 2.249015331268311 7.005778789520264 Z M -4.76837158203125e-06 7.005778789520264 L 1.249015331268311 7.005778789520264 L 1.249015331268311 8.005778312683105 C 1.249015331268311 8.005778312683105 -4.76837158203125e-06 8.005778312683105 -4.76837158203125e-06 8.005778312683105 L -4.76837158203125e-06 7.005778789520264 Z M -4.76837158203125e-06 4.254798889160156 L 0.999995231628418 4.254798889160156 L 0.999995231628418 6.254798889160156 L -4.76837158203125e-06 6.254798889160156 L -4.76837158203125e-06 4.254798889160156 Z M -4.76837158203125e-06 1.254798889160156 L 0.999995231628418 1.254798889160156 L 0.999995231628418 3.254798889160156 L -4.76837158203125e-06 3.254798889160156 L -4.76837158203125e-06 1.254798889160156 Z M -4.76837158203125e-06 -9.5367431640625e-07 L 1.999995231628418 -9.5367431640625e-07 L 1.999995231628418 0.9999985694885254 L -4.76837158203125e-06 0.9999985694885254 L -4.76837158203125e-06 -9.5367431640625e-07 Z" stroke="none" fill="#1ab395"/></g><g transform="translate(882.789 390)" fill="none" stroke-dasharray="2 1"><path d="M0,0H8.622V8.006H0Z" stroke="none"/><path d="M 2.999995231628418 -9.5367431640625e-07 L 4.999995231628418 -9.5367431640625e-07 L 4.999995231628418 0.9999985694885254 L 2.999995231628418 0.9999985694885254 L 2.999995231628418 -9.5367431640625e-07 Z M 5.999995231628418 -9.5367431640625e-07 L 7.999995231628418 -9.5367431640625e-07 L 7.999995231628418 0.3783788681030273 L 8.621615409851074 0.3783788681030273 C 8.621615409851074 0.3783788681030273 8.621615409851074 2.378378868103027 8.621615409851074 2.378378868103027 L 7.621615409851074 2.378378868103027 L 7.621615409851074 0.9999985694885254 L 5.999995231628418 0.9999985694885254 L 5.999995231628418 -9.5367431640625e-07 Z M 7.621615409851074 3.378378868103027 L 8.621615409851074 3.378378868103027 C 8.621615409851074 3.378378868103027 8.621615409851074 5.378378868103027 8.621615409851074 5.378378868103027 L 7.621615409851074 5.378378868103027 L 7.621615409851074 3.378378868103027 Z M 7.621615409851074 6.378378868103027 L 8.621615409851074 6.378378868103027 C 8.621615409851074 6.378378868103027 8.621615409851074 8.005778312683105 8.621615409851074 8.005778312683105 L 7.621615409851074 8.005778312683105 L 7.621615409851074 8.005778312683105 L 7.621615409851074 8.005778312683105 L 7.621615409851074 8.005778312683105 L 7.621615409851074 6.378378868103027 Z M 5.249015331268311 7.005778789520264 L 7.249015331268311 7.005778789520264 L 7.249015331268311 8.005778312683105 C 7.249015331268311 8.005778312683105 5.249015331268311 8.005778312683105 5.249015331268311 8.005778312683105 L 5.249015331268311 7.005778789520264 Z M 2.249015331268311 7.005778789520264 L 4.249015331268311 7.005778789520264 L 4.249015331268311 8.005778312683105 C 4.249015331268311 8.005778312683105 2.249015331268311 8.005778312683105 2.249015331268311 8.005778312683105 L 2.249015331268311 7.005778789520264 Z M -4.76837158203125e-06 7.005778789520264 L 1.249015331268311 7.005778789520264 L 1.249015331268311 8.005778312683105 C 1.249015331268311 8.005778312683105 -4.76837158203125e-06 8.005778312683105 -4.76837158203125e-06 8.005778312683105 L -4.76837158203125e-06 7.005778789520264 Z M -4.76837158203125e-06 4.254798889160156 L 0.999995231628418 4.254798889160156 L 0.999995231628418 6.254798889160156 L -4.76837158203125e-06 6.254798889160156 L -4.76837158203125e-06 4.254798889160156 Z M -4.76837158203125e-06 1.254798889160156 L 0.999995231628418 1.254798889160156 L 0.999995231628418 3.254798889160156 L -4.76837158203125e-06 3.254798889160156 L -4.76837158203125e-06 1.254798889160156 Z M -4.76837158203125e-06 -9.5367431640625e-07 L 1.999995231628418 -9.5367431640625e-07 L 1.999995231628418 0.9999985694885254 L -4.76837158203125e-06 0.9999985694885254 L -4.76837158203125e-06 -9.5367431640625e-07 Z" stroke="none" fill="#1ab395"/></g></g></svg>