
<svg width="26px" height="35px" viewBox="0 0 26 35" version="1.1" xmlns="http://www.w3.org/2000/svg" xmlns:xlink="http://www.w3.org/1999/xlink">
    <g id="Page-1" stroke="none" stroke-width="1" fill="none" fill-rule="evenodd">
        <g id="1006" transform="translate(0.012000, -0.000001)">
            <g id="Group" transform="translate(14.458000, 24.000000)">
                <polygon id="Path" points="0 9.53674316e-07 10.861 9.53674316e-07 10.861 10.086001 0 10.086001"></polygon>
                <path d="M3.81469727e-06,0 L2.00000381,0 L2.00000381,1 L1.00000381,1 L1.00000381,2.89368057 L3.81469727e-06,2.89368057 L3.81469727e-06,0 Z M3.00000429,0 L5.00000429,0 L5.00000429,1 L3.00000429,1 L3.00000429,0 Z M6.00000429,0 L8.00000429,0 L8.00000429,1 L6.00000429,1 L6.00000429,0 Z M9.00000381,0 L10.8613243,0 L10.8613243,1 L9.00000381,1 L9.00000381,0 Z M9.86132431,1.13868046 L10.8613243,1.13868046 C10.8613243,1.13868046 10.8613243,3.13868046 10.8613243,3.13868046 L9.86132431,3.13868046 L9.86132431,1.13868046 Z M9.86132431,4.13868046 L10.8613243,4.13868046 C10.8613243,4.13868046 10.8613243,6.13868046 10.8613243,6.13868046 L9.86132431,6.13868046 L9.86132431,4.13868046 Z M9.86132431,7.13868046 L10.8613243,7.13868046 C10.8613243,7.13868046 10.8613243,9.13868046 10.8613243,9.13868046 L10.8081646,9.13868046 L10.8081646,10.0855207 C10.8081646,10.0855207 8.8081646,10.0855207 8.8081646,10.0855207 L8.8081646,9.08552074 L9.86132431,9.08552074 L9.86132431,7.13868046 Z M5.80816412,9.08552074 L7.80816412,9.08552074 L7.80816412,10.0855207 C7.80816412,10.0855207 5.80816412,10.0855207 5.80816412,10.0855207 L5.80816412,9.08552074 Z M2.80816364,9.08552074 L4.80816364,9.08552074 L4.80816364,10.0855207 C4.80816364,10.0855207 2.80816364,10.0855207 2.80816364,10.0855207 L2.80816364,9.08552074 Z M3.81469727e-06,9.08552074 L1.80816364,9.08552074 L1.80816364,10.0855207 C1.80816364,10.0855207 3.81469727e-06,10.0855207 3.81469727e-06,10.0855207 L3.81469727e-06,9.08552074 Z M3.81469727e-06,6.89368057 L1.00000381,6.89368057 L1.00000381,8.89368057 L3.81469727e-06,8.89368057 L3.81469727e-06,6.89368057 Z M3.81469727e-06,3.89368057 L1.00000381,3.89368057 L1.00000381,5.89368057 L3.81469727e-06,5.89368057 L3.81469727e-06,3.89368057 Z" id="Shape" fill="#1AB395" fill-rule="nonzero"></path>
            </g>
            <g id="Group" transform="translate(14.458000, 12.000000)">
                <polygon id="Path" points="0 9.53674316e-07 10.861 9.53674316e-07 10.861 10.086001 0 10.086001"></polygon>
                <path d="M3.81469727e-06,0 L2.00000381,0 L2.00000381,1 L1.00000381,1 L1.00000381,2.89368057 L3.81469727e-06,2.89368057 L3.81469727e-06,0 Z M3.00000429,0 L5.00000429,0 L5.00000429,1 L3.00000429,1 L3.00000429,0 Z M6.00000429,0 L8.00000429,0 L8.00000429,1 L6.00000429,1 L6.00000429,0 Z M9.00000381,0 L10.8613243,0 L10.8613243,1 L9.00000381,1 L9.00000381,0 Z M9.86132431,1.13868046 L10.8613243,1.13868046 C10.8613243,1.13868046 10.8613243,3.13868046 10.8613243,3.13868046 L9.86132431,3.13868046 L9.86132431,1.13868046 Z M9.86132431,4.13868046 L10.8613243,4.13868046 C10.8613243,4.13868046 10.8613243,6.13868046 10.8613243,6.13868046 L9.86132431,6.13868046 L9.86132431,4.13868046 Z M9.86132431,7.13868046 L10.8613243,7.13868046 C10.8613243,7.13868046 10.8613243,9.13868046 10.8613243,9.13868046 L10.8081646,9.13868046 L10.8081646,10.0855207 C10.8081646,10.0855207 8.8081646,10.0855207 8.8081646,10.0855207 L8.8081646,9.08552074 L9.86132431,9.08552074 L9.86132431,7.13868046 Z M5.80816412,9.08552074 L7.80816412,9.08552074 L7.80816412,10.0855207 C7.80816412,10.0855207 5.80816412,10.0855207 5.80816412,10.0855207 L5.80816412,9.08552074 Z M2.80816364,9.08552074 L4.80816364,9.08552074 L4.80816364,10.0855207 C4.80816364,10.0855207 2.80816364,10.0855207 2.80816364,10.0855207 L2.80816364,9.08552074 Z M3.81469727e-06,9.08552074 L1.80816364,9.08552074 L1.80816364,10.0855207 C1.80816364,10.0855207 3.81469727e-06,10.0855207 3.81469727e-06,10.0855207 L3.81469727e-06,9.08552074 Z M3.81469727e-06,6.89368057 L1.00000381,6.89368057 L1.00000381,8.89368057 L3.81469727e-06,8.89368057 L3.81469727e-06,6.89368057 Z M3.81469727e-06,3.89368057 L1.00000381,3.89368057 L1.00000381,5.89368057 L3.81469727e-06,5.89368057 L3.81469727e-06,3.89368057 Z" id="Shape" fill="#1AB395" fill-rule="nonzero"></path>
            </g>
            <g id="Group" transform="translate(14.458000, 0.000000)">
                <polygon id="Path" points="0 9.53674316e-07 10.861 9.53674316e-07 10.861 10.086001 0 10.086001"></polygon>
                <path d="M3.81469727e-06,0 L2.00000381,0 L2.00000381,1 L1.00000381,1 L1.00000381,2.89368057 L3.81469727e-06,2.89368057 L3.81469727e-06,0 Z M3.00000429,0 L5.00000429,0 L5.00000429,1 L3.00000429,1 L3.00000429,0 Z M6.00000429,0 L8.00000429,0 L8.00000429,1 L6.00000429,1 L6.00000429,0 Z M9.00000381,0 L10.8613243,0 L10.8613243,1 L9.00000381,1 L9.00000381,0 Z M9.86132431,1.13868046 L10.8613243,1.13868046 C10.8613243,1.13868046 10.8613243,3.13868046 10.8613243,3.13868046 L9.86132431,3.13868046 L9.86132431,1.13868046 Z M9.86132431,4.13868046 L10.8613243,4.13868046 C10.8613243,4.13868046 10.8613243,6.13868046 10.8613243,6.13868046 L9.86132431,6.13868046 L9.86132431,4.13868046 Z M9.86132431,7.13868046 L10.8613243,7.13868046 C10.8613243,7.13868046 10.8613243,9.13868046 10.8613243,9.13868046 L10.8081646,9.13868046 L10.8081646,10.0855207 C10.8081646,10.0855207 8.8081646,10.0855207 8.8081646,10.0855207 L8.8081646,9.08552074 L9.86132431,9.08552074 L9.86132431,7.13868046 Z M5.80816412,9.08552074 L7.80816412,9.08552074 L7.80816412,10.0855207 C7.80816412,10.0855207 5.80816412,10.0855207 5.80816412,10.0855207 L5.80816412,9.08552074 Z M2.80816364,9.08552074 L4.80816364,9.08552074 L4.80816364,10.0855207 C4.80816364,10.0855207 2.80816364,10.0855207 2.80816364,10.0855207 L2.80816364,9.08552074 Z M3.81469727e-06,9.08552074 L1.80816364,9.08552074 L1.80816364,10.0855207 C1.80816364,10.0855207 3.81469727e-06,10.0855207 3.81469727e-06,10.0855207 L3.81469727e-06,9.08552074 Z M3.81469727e-06,6.89368057 L1.00000381,6.89368057 L1.00000381,8.89368057 L3.81469727e-06,8.89368057 L3.81469727e-06,6.89368057 Z M3.81469727e-06,3.89368057 L1.00000381,3.89368057 L1.00000381,5.89368057 L3.81469727e-06,5.89368057 L3.81469727e-06,3.89368057 Z" id="Shape" fill="#1AB395" fill-rule="nonzero"></path>
            </g>
            <polygon id="Path" fill="#22242B" fill-rule="nonzero" points="4.064 17.026001 0 17.026001 0 15.209001 4.064 15.209001 4.064 11.043001 5.902 11.043001 5.902 15.209001 9.976 15.209001 9.976 17.026001 5.902 17.026001 5.902 21.172001 4.064 21.172001"></polygon>
        </g>
    </g>
</svg>