
<svg width="30px" height="25px" viewBox="0 0 30 25" version="1.1" xmlns="http://www.w3.org/2000/svg" xmlns:xlink="http://www.w3.org/1999/xlink">
    <g id="Page-1" stroke="none" stroke-width="1" fill="none" fill-rule="evenodd">
        <g id="1007" transform="translate(0.590000, -0.000000)">
            <g id="Group" transform="translate(4.234501, 20.000000) rotate(90.000000) translate(-4.234501, -20.000000) translate(-0.325499, 15.765499)">
                <polygon id="Path" points="0 1.1920929e-06 9.12 1.1920929e-06 9.12 8.46900119 0 8.46900119"></polygon>
                <path d="M0,2.38418579e-07 L2,2.38418579e-07 L2,1.00000024 L1,1.00000024 L1,2.17727971 L0,2.17727971 L0,2.38418579e-07 Z M3.00000048,0 L5.00000048,0 L5.00000048,1 L3.00000048,1 L3.00000048,0 Z M6.00000048,0 L8.00000048,0 L8.00000048,1 L6.00000048,1 L6.00000048,0 Z M8.11998081,2.38418579e-07 L9.11998081,2.38418579e-07 L9.11998081,1.00000024 L9.11998081,1.00000024 C9.11998081,1.44916463 9.11998081,1.8800199 9.11998081,1.8800199 L8.11998081,1.8800199 L8.11998081,2.38418579e-07 Z M8.11998081,2.8800199 L9.11998081,2.8800199 C9.11998081,2.8800199 9.11998081,4.8800199 9.11998081,4.8800199 L8.11998081,4.8800199 L8.11998081,2.8800199 Z M8.11998081,5.8800199 L9.11998081,5.8800199 C9.11998081,5.8800199 9.11998081,7.8800199 9.11998081,7.8800199 L8.70862007,7.8800199 L8.70862007,8.46865964 C8.70862007,8.46865964 6.70862007,8.46865964 6.70862007,8.46865964 L6.70862007,7.46866012 L8.11998081,7.46866012 L8.11998081,5.8800199 Z M3.70862055,7.46865988 L5.70862055,7.46865988 L5.70862055,8.46865988 C5.70862055,8.46865988 3.70862055,8.46865988 3.70862055,8.46865988 L3.70862055,7.46865988 Z M0,6.17727971 L1,6.17727971 L1,7.46866012 L2.70862055,7.46866012 L2.70862055,8.46865964 C2.70862055,8.46865964 0.708620071,8.46865964 0.708620071,8.46865964 L0.708620071,8.17727971 L0,8.17727971 L0,6.17727971 Z M0,3.17727971 L1,3.17727971 L1,5.17727971 L0,5.17727971 L0,3.17727971 Z" id="Shape" fill="#1AB395" fill-rule="nonzero"></path>
            </g>
            <g id="Group" transform="translate(14.310501, 20.000000) rotate(90.000000) translate(-14.310501, -20.000000) translate(9.750501, 15.765499)">
                <polygon id="Path" points="0 1.1920929e-06 9.12 1.1920929e-06 9.12 8.46900119 0 8.46900119"></polygon>
                <path d="M0,2.38418579e-07 L2,2.38418579e-07 L2,1.00000024 L1,1.00000024 L1,2.17727971 L0,2.17727971 L0,2.38418579e-07 Z M3.00000048,0 L5.00000048,0 L5.00000048,1 L3.00000048,1 L3.00000048,0 Z M6.00000048,0 L8.00000048,0 L8.00000048,1 L6.00000048,1 L6.00000048,0 Z M8.11998081,2.38418579e-07 L9.11998081,2.38418579e-07 L9.11998081,1.00000024 L9.11998081,1.00000024 C9.11998081,1.44916463 9.11998081,1.8800199 9.11998081,1.8800199 L8.11998081,1.8800199 L8.11998081,2.38418579e-07 Z M8.11998081,2.8800199 L9.11998081,2.8800199 C9.11998081,2.8800199 9.11998081,4.8800199 9.11998081,4.8800199 L8.11998081,4.8800199 L8.11998081,2.8800199 Z M8.11998081,5.8800199 L9.11998081,5.8800199 C9.11998081,5.8800199 9.11998081,7.8800199 9.11998081,7.8800199 L8.70862007,7.8800199 L8.70862007,8.46865964 C8.70862007,8.46865964 6.70862007,8.46865964 6.70862007,8.46865964 L6.70862007,7.46866012 L8.11998081,7.46866012 L8.11998081,5.8800199 Z M3.70862055,7.46865988 L5.70862055,7.46865988 L5.70862055,8.46865988 C5.70862055,8.46865988 3.70862055,8.46865988 3.70862055,8.46865988 L3.70862055,7.46865988 Z M0,6.17727971 L1,6.17727971 L1,7.46866012 L2.70862055,7.46866012 L2.70862055,8.46865964 C2.70862055,8.46865964 0.708620071,8.46865964 0.708620071,8.46865964 L0.708620071,8.17727971 L0,8.17727971 L0,6.17727971 Z M0,3.17727971 L1,3.17727971 L1,5.17727971 L0,5.17727971 L0,3.17727971 Z" id="Shape" fill="#1AB395" fill-rule="nonzero"></path>
            </g>
            <g id="Group" transform="translate(24.386501, 20.000000) rotate(90.000000) translate(-24.386501, -20.000000) translate(19.826501, 15.765499)">
                <polygon id="Path" points="0 1.1920929e-06 9.12 1.1920929e-06 9.12 8.46900119 0 8.46900119"></polygon>
                <path d="M0,2.38418579e-07 L2,2.38418579e-07 L2,1.00000024 L1,1.00000024 L1,2.17727971 L0,2.17727971 L0,2.38418579e-07 Z M3.00000048,0 L5.00000048,0 L5.00000048,1 L3.00000048,1 L3.00000048,0 Z M6.00000048,0 L8.00000048,0 L8.00000048,1 L6.00000048,1 L6.00000048,0 Z M8.11998081,2.38418579e-07 L9.11998081,2.38418579e-07 L9.11998081,1.00000024 L9.11998081,1.00000024 C9.11998081,1.44916463 9.11998081,1.8800199 9.11998081,1.8800199 L8.11998081,1.8800199 L8.11998081,2.38418579e-07 Z M8.11998081,2.8800199 L9.11998081,2.8800199 C9.11998081,2.8800199 9.11998081,4.8800199 9.11998081,4.8800199 L8.11998081,4.8800199 L8.11998081,2.8800199 Z M8.11998081,5.8800199 L9.11998081,5.8800199 C9.11998081,5.8800199 9.11998081,7.8800199 9.11998081,7.8800199 L8.70862007,7.8800199 L8.70862007,8.46865964 C8.70862007,8.46865964 6.70862007,8.46865964 6.70862007,8.46865964 L6.70862007,7.46866012 L8.11998081,7.46866012 L8.11998081,5.8800199 Z M3.70862055,7.46865988 L5.70862055,7.46865988 L5.70862055,8.46865988 C5.70862055,8.46865988 3.70862055,8.46865988 3.70862055,8.46865988 L3.70862055,7.46865988 Z M0,6.17727971 L1,6.17727971 L1,7.46866012 L2.70862055,7.46866012 L2.70862055,8.46865964 C2.70862055,8.46865964 0.708620071,8.46865964 0.708620071,8.46865964 L0.708620071,8.17727971 L0,8.17727971 L0,6.17727971 Z M0,3.17727971 L1,3.17727971 L1,5.17727971 L0,5.17727971 L0,3.17727971 Z" id="Shape" fill="#1AB395" fill-rule="nonzero"></path>
            </g>
            <polygon id="Path" fill="#22242B" fill-rule="nonzero" points="13.486 5.983 9.422 5.983 9.422 4.166 13.486 4.166 13.486 0 15.324 0 15.324 4.166 19.398 4.166 19.398 5.983 15.324 5.983 15.324 10.129 13.486 10.129"></polygon>
        </g>
    </g>
</svg>