<svg xmlns="http://www.w3.org/2000/svg" width="38.922" height="22.56" viewBox="0 0 38.922 22.56"><g transform="translate(-857 -394.043)"><path d="M-20.789,2.531h-3.68V-11.422h3.68v1.375h-2v11.2h2ZM10.789,1.148h2v-11.2h-2v-1.375h3.664V2.531H10.789Z" transform="translate(881.469 410)" fill="#22242b"/><g transform="translate(871.059 407.483) rotate(90)" fill="none" stroke-dasharray="2 1"><path d="M0,0H9.12V8.469H0Z" stroke="none"/><path d="M 0 -9.5367431640625e-07 L 2.000000476837158 -9.5367431640625e-07 L 2.000000476837158 0.9999985694885254 L 1 0.9999985694885254 L 1 2.177278518676758 L 0 2.177278518676758 L 0 -9.5367431640625e-07 Z M 3.000000476837158 -9.5367431640625e-07 L 5.000000476837158 -9.5367431640625e-07 L 5.000000476837158 0.9999985694885254 L 3.000000476837158 0.9999985694885254 L 3.000000476837158 -9.5367431640625e-07 Z M 6.000000476837158 -9.5367431640625e-07 L 8 -9.5367431640625e-07 L 8 0.9999985694885254 L 6.000000476837158 0.9999985694885254 L 6.000000476837158 -9.5367431640625e-07 Z M 8.119980812072754 -9.5367431640625e-07 L 9.119980812072754 -9.5367431640625e-07 L 9.119980812072754 0.9999985694885254 L 9.119980812072754 0.9999985694885254 C 9.119980812072754 1.449163436889648 9.119980812072754 1.880018711090088 9.119980812072754 1.880018711090088 L 8.119980812072754 1.880018711090088 L 8.119980812072754 -9.5367431640625e-07 Z M 8.119980812072754 2.880018711090088 L 9.119980812072754 2.880018711090088 C 9.119980812072754 2.880018711090088 9.119980812072754 4.880018711090088 9.119980812072754 4.880018711090088 L 8.119980812072754 4.880018711090088 L 8.119980812072754 2.880018711090088 Z M 8.119980812072754 5.880018711090088 L 9.119980812072754 5.880018711090088 C 9.119980812072754 5.880018711090088 9.119980812072754 7.880018711090088 9.119980812072754 7.880018711090088 L 8.708620071411133 7.880018711090088 L 8.708620071411133 8.468658447265625 C 8.708620071411133 8.468658447265625 6.708620071411133 8.468658447265625 6.708620071411133 8.468658447265625 L 6.708620071411133 7.468658924102783 L 8.119980812072754 7.468658924102783 L 8.119980812072754 5.880018711090088 Z M 3.708620548248291 7.468658924102783 L 5.708620071411133 7.468658924102783 L 5.708620071411133 8.468658447265625 C 5.708620071411133 8.468658447265625 3.708620548248291 8.468658447265625 3.708620548248291 8.468658447265625 L 3.708620548248291 7.468658924102783 Z M 0 6.177278518676758 L 1 6.177278518676758 L 1 7.468658924102783 L 2.708620548248291 7.468658924102783 L 2.708620548248291 8.468658447265625 C 2.708620548248291 8.468658447265625 0.7086200714111328 8.468658447265625 0.7086200714111328 8.468658447265625 L 0.7086200714111328 8.177278518676758 L 0 8.177278518676758 L 0 6.177278518676758 Z M 0 3.177278518676758 L 1 3.177278518676758 L 1 5.177278518676758 L 0 5.177278518676758 L 0 3.177278518676758 Z" stroke="none" fill="#1ab395"/></g><g transform="translate(881.135 407.483) rotate(90)" fill="none" stroke-dasharray="2 1"><path d="M0,0H9.12V8.469H0Z" stroke="none"/><path d="M 0 -9.5367431640625e-07 L 2.000000476837158 -9.5367431640625e-07 L 2.000000476837158 0.9999985694885254 L 1 0.9999985694885254 L 1 2.177278518676758 L 0 2.177278518676758 L 0 -9.5367431640625e-07 Z M 3.000000476837158 -9.5367431640625e-07 L 5.000000476837158 -9.5367431640625e-07 L 5.000000476837158 0.9999985694885254 L 3.000000476837158 0.9999985694885254 L 3.000000476837158 -9.5367431640625e-07 Z M 6.000000476837158 -9.5367431640625e-07 L 8 -9.5367431640625e-07 L 8 0.9999985694885254 L 6.000000476837158 0.9999985694885254 L 6.000000476837158 -9.5367431640625e-07 Z M 8.119980812072754 -9.5367431640625e-07 L 9.119980812072754 -9.5367431640625e-07 L 9.119980812072754 0.9999985694885254 L 9.119980812072754 0.9999985694885254 C 9.119980812072754 1.449163436889648 9.119980812072754 1.880018711090088 9.119980812072754 1.880018711090088 L 8.119980812072754 1.880018711090088 L 8.119980812072754 -9.5367431640625e-07 Z M 8.119980812072754 2.880018711090088 L 9.119980812072754 2.880018711090088 C 9.119980812072754 2.880018711090088 9.119980812072754 4.880018711090088 9.119980812072754 4.880018711090088 L 8.119980812072754 4.880018711090088 L 8.119980812072754 2.880018711090088 Z M 8.119980812072754 5.880018711090088 L 9.119980812072754 5.880018711090088 C 9.119980812072754 5.880018711090088 9.119980812072754 7.880018711090088 9.119980812072754 7.880018711090088 L 8.708620071411133 7.880018711090088 L 8.708620071411133 8.468658447265625 C 8.708620071411133 8.468658447265625 6.708620071411133 8.468658447265625 6.708620071411133 8.468658447265625 L 6.708620071411133 7.468658924102783 L 8.119980812072754 7.468658924102783 L 8.119980812072754 5.880018711090088 Z M 3.708620548248291 7.468658924102783 L 5.708620071411133 7.468658924102783 L 5.708620071411133 8.468658447265625 C 5.708620071411133 8.468658447265625 3.708620548248291 8.468658447265625 3.708620548248291 8.468658447265625 L 3.708620548248291 7.468658924102783 Z M 0 6.177278518676758 L 1 6.177278518676758 L 1 7.468658924102783 L 2.708620548248291 7.468658924102783 L 2.708620548248291 8.468658447265625 C 2.708620548248291 8.468658447265625 0.7086200714111328 8.468658447265625 0.7086200714111328 8.468658447265625 L 0.7086200714111328 8.177278518676758 L 0 8.177278518676758 L 0 6.177278518676758 Z M 0 3.177278518676758 L 1 3.177278518676758 L 1 5.177278518676758 L 0 5.177278518676758 L 0 3.177278518676758 Z" stroke="none" fill="#1ab395"/></g><g transform="translate(891.211 407.483) rotate(90)" fill="none" stroke-dasharray="2 1"><path d="M0,0H9.12V8.469H0Z" stroke="none"/><path d="M 0 -9.5367431640625e-07 L 2.000000476837158 -9.5367431640625e-07 L 2.000000476837158 0.9999985694885254 L 1 0.9999985694885254 L 1 2.177278518676758 L 0 2.177278518676758 L 0 -9.5367431640625e-07 Z M 3.000000476837158 -9.5367431640625e-07 L 5.000000476837158 -9.5367431640625e-07 L 5.000000476837158 0.9999985694885254 L 3.000000476837158 0.9999985694885254 L 3.000000476837158 -9.5367431640625e-07 Z M 6.000000476837158 -9.5367431640625e-07 L 8 -9.5367431640625e-07 L 8 0.9999985694885254 L 6.000000476837158 0.9999985694885254 L 6.000000476837158 -9.5367431640625e-07 Z M 8.119980812072754 -9.5367431640625e-07 L 9.119980812072754 -9.5367431640625e-07 L 9.119980812072754 0.9999985694885254 L 9.119980812072754 0.9999985694885254 C 9.119980812072754 1.449163436889648 9.119980812072754 1.880018711090088 9.119980812072754 1.880018711090088 L 8.119980812072754 1.880018711090088 L 8.119980812072754 -9.5367431640625e-07 Z M 8.119980812072754 2.880018711090088 L 9.119980812072754 2.880018711090088 C 9.119980812072754 2.880018711090088 9.119980812072754 4.880018711090088 9.119980812072754 4.880018711090088 L 8.119980812072754 4.880018711090088 L 8.119980812072754 2.880018711090088 Z M 8.119980812072754 5.880018711090088 L 9.119980812072754 5.880018711090088 C 9.119980812072754 5.880018711090088 9.119980812072754 7.880018711090088 9.119980812072754 7.880018711090088 L 8.708620071411133 7.880018711090088 L 8.708620071411133 8.468658447265625 C 8.708620071411133 8.468658447265625 6.708620071411133 8.468658447265625 6.708620071411133 8.468658447265625 L 6.708620071411133 7.468658924102783 L 8.119980812072754 7.468658924102783 L 8.119980812072754 5.880018711090088 Z M 3.708620548248291 7.468658924102783 L 5.708620071411133 7.468658924102783 L 5.708620071411133 8.468658447265625 C 5.708620071411133 8.468658447265625 3.708620548248291 8.468658447265625 3.708620548248291 8.468658447265625 L 3.708620548248291 7.468658924102783 Z M 0 6.177278518676758 L 1 6.177278518676758 L 1 7.468658924102783 L 2.708620548248291 7.468658924102783 L 2.708620548248291 8.468658447265625 C 2.708620548248291 8.468658447265625 0.7086200714111328 8.468658447265625 0.7086200714111328 8.468658447265625 L 0.7086200714111328 8.177278518676758 L 0 8.177278518676758 L 0 6.177278518676758 Z M 0 3.177278518676758 L 1 3.177278518676758 L 1 5.177278518676758 L 0 5.177278518676758 L 0 3.177278518676758 Z" stroke="none" fill="#1ab395"/></g><path d="M.248-3.54H-3.816V-5.357H.248V-9.523H2.086v4.166H6.16V-3.54H2.086V.606H.248Z" transform="translate(875.828 403.566)" fill="#22242b"/></g></svg>