<svg xmlns="http://www.w3.org/2000/svg" width="35.754" height="34.129" viewBox="0 0 35.754 34.129"><defs><style>.a{fill:#22242b;}.b{fill:#1ab395;}</style></defs><g transform="translate(-862.577 -387.864)"><path class="a" d="M-.383-.849q0-2.126-3.04-2.126V-5.157a4.052,4.052,0,0,0,2.291-.52A1.8,1.8,0,0,0-.383-7.26v-3.554a2.945,2.945,0,0,1,1.24-2.623,6.678,6.678,0,0,1,3.72-.84v2.08a3.253,3.253,0,0,0-1.891.531A1.7,1.7,0,0,0,2.1-10.254V-6.86Q2.1-4.586-.52-4.14V-4Q2.1-3.592,2.1-1.294V2.123A1.729,1.729,0,0,0,2.68,3.54a3.074,3.074,0,0,0,1.9.5V6.134a6.51,6.51,0,0,1-3.8-.9A3.313,3.313,0,0,1-.383,2.408Z" transform="translate(866 409)"/><path class="b" d="M0,0H2V1H1V2.894H0ZM3,0H5V1H3ZM6,0H8V1H6ZM9,0h1.861V1H9Zm.861,1.139h1v2h-1Zm0,3h1v2h-1Zm0,3h1v2h-.053v.947h-2v-1H9.861ZM5.808,9.086h2v1h-2Zm-3,0h2v1h-2ZM0,9.086H1.808v1H0ZM0,6.894H1v2H0Zm0-3H1v2H0Z" transform="translate(874.47 399.864)"/><path class="b" d="M0,0H2V1H1V2.894H0ZM3,0H5V1H3ZM6,0H8V1H6ZM9,0h1.861V1H9Zm.861,1.139h1v2h-1Zm0,3h1v2h-1Zm0,3h1v2h-.053v.947h-2v-1H9.861ZM5.808,9.086h2v1h-2Zm-3,0h2v1h-2ZM0,9.086H1.808v1H0ZM0,6.894H1v2H0Zm0-3H1v2H0Z" transform="translate(874.47 387.864)"/><path class="b" d="M0,0H2V1H1V2.894H0ZM3,0H5V1H3ZM6,0H8V1H6ZM9,0h1.861V1H9Zm.861,1.139h1v2h-1Zm0,3h1v2h-1Zm0,3h1v2h-.053v.947h-2v-1H9.861ZM5.808,9.086h2v1h-2Zm-3,0h2v1h-2ZM0,9.086H1.808v1H0ZM0,6.894H1v2H0Zm0-3H1v2H0Z" transform="translate(887.47 399.864)"/><path class="b" d="M0,0H2V1H1V2.894H0ZM3,0H5V1H3ZM6,0H8V1H6ZM9,0h1.861V1H9Zm.861,1.139h1v2h-1Zm0,3h1v2h-1Zm0,3h1v2h-.053v.947h-2v-1H9.861ZM5.808,9.086h2v1h-2Zm-3,0h2v1h-2ZM0,9.086H1.808v1H0ZM0,6.894H1v2H0Zm0-3H1v2H0Z" transform="translate(887.47 387.864)"/><path class="a" d="M.248-3.54H-3.816V-5.357H.248V-9.523H2.086v4.166H6.16V-3.54H2.086V.606H.248Z" transform="translate(885.394 421.387)"/></g></svg>