<svg xmlns="http://www.w3.org/2000/svg" width="38.922" height="22.086" viewBox="0 0 38.922 22.086"><g transform="translate(-857 -395)"><g transform="translate(863.47 407)" fill="none" stroke-dasharray="2 1"><path d="M0,0H10.861V10.086H0Z" stroke="none"/><path d="M 3.814697265625e-06 -9.5367431640625e-07 L 2.000003814697266 -9.5367431640625e-07 L 2.000003814697266 0.9999990463256836 L 1.000003814697266 0.9999990463256836 L 1.000003814697266 2.893679618835449 L 3.814697265625e-06 2.893679618835449 L 3.814697265625e-06 -9.5367431640625e-07 Z M 3.000004291534424 -9.5367431640625e-07 L 5.000004291534424 -9.5367431640625e-07 L 5.000004291534424 0.9999990463256836 L 3.000004291534424 0.9999990463256836 L 3.000004291534424 -9.5367431640625e-07 Z M 6.000004291534424 -9.5367431640625e-07 L 8.000003814697266 -9.5367431640625e-07 L 8.000003814697266 0.9999990463256836 L 6.000004291534424 0.9999990463256836 L 6.000004291534424 -9.5367431640625e-07 Z M 9.000003814697266 -9.5367431640625e-07 L 10.86132431030273 -9.5367431640625e-07 L 10.86132431030273 0.9999990463256836 L 9.000003814697266 0.9999990463256836 L 9.000003814697266 -9.5367431640625e-07 Z M 9.861324310302734 1.138679504394531 L 10.86132431030273 1.138679504394531 C 10.86132431030273 1.138679504394531 10.86132431030273 3.138679504394531 10.86132431030273 3.138679504394531 L 9.861324310302734 3.138679504394531 L 9.861324310302734 1.138679504394531 Z M 9.861324310302734 4.138679504394531 L 10.86132431030273 4.138679504394531 C 10.86132431030273 4.138679504394531 10.86132431030273 6.138679504394531 10.86132431030273 6.138679504394531 L 9.861324310302734 6.138679504394531 L 9.861324310302734 4.138679504394531 Z M 9.861324310302734 7.138679504394531 L 10.86132431030273 7.138679504394531 C 10.86132431030273 7.138679504394531 10.86132431030273 9.138679504394531 10.86132431030273 9.138679504394531 L 10.8081636428833 9.138679504394531 L 10.8081636428833 10.08551979064941 C 10.8081636428833 10.08551979064941 8.808164596557617 10.08551979064941 8.808164596557617 10.08551979064941 L 8.808164596557617 9.085519790649414 L 9.861324310302734 9.085519790649414 L 9.861324310302734 7.138679504394531 Z M 5.808164119720459 9.085519790649414 L 7.808164119720459 9.085519790649414 L 7.808164119720459 10.08551979064941 C 7.808164119720459 10.08551979064941 5.808164119720459 10.08551979064941 5.808164119720459 10.08551979064941 L 5.808164119720459 9.085519790649414 Z M 2.808163642883301 9.085519790649414 L 4.808164119720459 9.085519790649414 L 4.808164119720459 10.08551979064941 C 4.808164119720459 10.08551979064941 2.808163642883301 10.08551979064941 2.808163642883301 10.08551979064941 L 2.808163642883301 9.085519790649414 Z M 3.814697265625e-06 9.085519790649414 L 1.808163642883301 9.085519790649414 L 1.808163642883301 10.08551979064941 C 1.808163642883301 10.08551979064941 3.814697265625e-06 10.08551979064941 3.814697265625e-06 10.08551979064941 L 3.814697265625e-06 9.085519790649414 Z M 3.814697265625e-06 6.893679618835449 L 1.000003814697266 6.893679618835449 L 1.000003814697266 8.893679618835449 L 3.814697265625e-06 8.893679618835449 L 3.814697265625e-06 6.893679618835449 Z M 3.814697265625e-06 3.893679618835449 L 1.000003814697266 3.893679618835449 L 1.000003814697266 5.893679618835449 L 3.814697265625e-06 5.893679618835449 L 3.814697265625e-06 3.893679618835449 Z" stroke="none" fill="#1ab395"/></g><g transform="translate(863.47 395)" fill="none" stroke-dasharray="2 1"><path d="M0,0H10.861V10.086H0Z" stroke="none"/><path d="M 3.814697265625e-06 -9.5367431640625e-07 L 2.000003814697266 -9.5367431640625e-07 L 2.000003814697266 0.9999990463256836 L 1.000003814697266 0.9999990463256836 L 1.000003814697266 2.893679618835449 L 3.814697265625e-06 2.893679618835449 L 3.814697265625e-06 -9.5367431640625e-07 Z M 3.000004291534424 -9.5367431640625e-07 L 5.000004291534424 -9.5367431640625e-07 L 5.000004291534424 0.9999990463256836 L 3.000004291534424 0.9999990463256836 L 3.000004291534424 -9.5367431640625e-07 Z M 6.000004291534424 -9.5367431640625e-07 L 8.000003814697266 -9.5367431640625e-07 L 8.000003814697266 0.9999990463256836 L 6.000004291534424 0.9999990463256836 L 6.000004291534424 -9.5367431640625e-07 Z M 9.000003814697266 -9.5367431640625e-07 L 10.86132431030273 -9.5367431640625e-07 L 10.86132431030273 0.9999990463256836 L 9.000003814697266 0.9999990463256836 L 9.000003814697266 -9.5367431640625e-07 Z M 9.861324310302734 1.138679504394531 L 10.86132431030273 1.138679504394531 C 10.86132431030273 1.138679504394531 10.86132431030273 3.138679504394531 10.86132431030273 3.138679504394531 L 9.861324310302734 3.138679504394531 L 9.861324310302734 1.138679504394531 Z M 9.861324310302734 4.138679504394531 L 10.86132431030273 4.138679504394531 C 10.86132431030273 4.138679504394531 10.86132431030273 6.138679504394531 10.86132431030273 6.138679504394531 L 9.861324310302734 6.138679504394531 L 9.861324310302734 4.138679504394531 Z M 9.861324310302734 7.138679504394531 L 10.86132431030273 7.138679504394531 C 10.86132431030273 7.138679504394531 10.86132431030273 9.138679504394531 10.86132431030273 9.138679504394531 L 10.8081636428833 9.138679504394531 L 10.8081636428833 10.08551979064941 C 10.8081636428833 10.08551979064941 8.808164596557617 10.08551979064941 8.808164596557617 10.08551979064941 L 8.808164596557617 9.085519790649414 L 9.861324310302734 9.085519790649414 L 9.861324310302734 7.138679504394531 Z M 5.808164119720459 9.085519790649414 L 7.808164119720459 9.085519790649414 L 7.808164119720459 10.08551979064941 C 7.808164119720459 10.08551979064941 5.808164119720459 10.08551979064941 5.808164119720459 10.08551979064941 L 5.808164119720459 9.085519790649414 Z M 2.808163642883301 9.085519790649414 L 4.808164119720459 9.085519790649414 L 4.808164119720459 10.08551979064941 C 4.808164119720459 10.08551979064941 2.808163642883301 10.08551979064941 2.808163642883301 10.08551979064941 L 2.808163642883301 9.085519790649414 Z M 3.814697265625e-06 9.085519790649414 L 1.808163642883301 9.085519790649414 L 1.808163642883301 10.08551979064941 C 1.808163642883301 10.08551979064941 3.814697265625e-06 10.08551979064941 3.814697265625e-06 10.08551979064941 L 3.814697265625e-06 9.085519790649414 Z M 3.814697265625e-06 6.893679618835449 L 1.000003814697266 6.893679618835449 L 1.000003814697266 8.893679618835449 L 3.814697265625e-06 8.893679618835449 L 3.814697265625e-06 6.893679618835449 Z M 3.814697265625e-06 3.893679618835449 L 1.000003814697266 3.893679618835449 L 1.000003814697266 5.893679618835449 L 3.814697265625e-06 5.893679618835449 L 3.814697265625e-06 3.893679618835449 Z" stroke="none" fill="#1ab395"/></g><g transform="translate(878.47 407)" fill="none" stroke-dasharray="2 1"><path d="M0,0H10.861V10.086H0Z" stroke="none"/><path d="M 3.814697265625e-06 -9.5367431640625e-07 L 2.000003814697266 -9.5367431640625e-07 L 2.000003814697266 0.9999990463256836 L 1.000003814697266 0.9999990463256836 L 1.000003814697266 2.893679618835449 L 3.814697265625e-06 2.893679618835449 L 3.814697265625e-06 -9.5367431640625e-07 Z M 3.000004291534424 -9.5367431640625e-07 L 5.000004291534424 -9.5367431640625e-07 L 5.000004291534424 0.9999990463256836 L 3.000004291534424 0.9999990463256836 L 3.000004291534424 -9.5367431640625e-07 Z M 6.000004291534424 -9.5367431640625e-07 L 8.000003814697266 -9.5367431640625e-07 L 8.000003814697266 0.9999990463256836 L 6.000004291534424 0.9999990463256836 L 6.000004291534424 -9.5367431640625e-07 Z M 9.000003814697266 -9.5367431640625e-07 L 10.86132431030273 -9.5367431640625e-07 L 10.86132431030273 0.9999990463256836 L 9.000003814697266 0.9999990463256836 L 9.000003814697266 -9.5367431640625e-07 Z M 9.861324310302734 1.138679504394531 L 10.86132431030273 1.138679504394531 C 10.86132431030273 1.138679504394531 10.86132431030273 3.138679504394531 10.86132431030273 3.138679504394531 L 9.861324310302734 3.138679504394531 L 9.861324310302734 1.138679504394531 Z M 9.861324310302734 4.138679504394531 L 10.86132431030273 4.138679504394531 C 10.86132431030273 4.138679504394531 10.86132431030273 6.138679504394531 10.86132431030273 6.138679504394531 L 9.861324310302734 6.138679504394531 L 9.861324310302734 4.138679504394531 Z M 9.861324310302734 7.138679504394531 L 10.86132431030273 7.138679504394531 C 10.86132431030273 7.138679504394531 10.86132431030273 9.138679504394531 10.86132431030273 9.138679504394531 L 10.8081636428833 9.138679504394531 L 10.8081636428833 10.08551979064941 C 10.8081636428833 10.08551979064941 8.808164596557617 10.08551979064941 8.808164596557617 10.08551979064941 L 8.808164596557617 9.085519790649414 L 9.861324310302734 9.085519790649414 L 9.861324310302734 7.138679504394531 Z M 5.808164119720459 9.085519790649414 L 7.808164119720459 9.085519790649414 L 7.808164119720459 10.08551979064941 C 7.808164119720459 10.08551979064941 5.808164119720459 10.08551979064941 5.808164119720459 10.08551979064941 L 5.808164119720459 9.085519790649414 Z M 2.808163642883301 9.085519790649414 L 4.808164119720459 9.085519790649414 L 4.808164119720459 10.08551979064941 C 4.808164119720459 10.08551979064941 2.808163642883301 10.08551979064941 2.808163642883301 10.08551979064941 L 2.808163642883301 9.085519790649414 Z M 3.814697265625e-06 9.085519790649414 L 1.808163642883301 9.085519790649414 L 1.808163642883301 10.08551979064941 C 1.808163642883301 10.08551979064941 3.814697265625e-06 10.08551979064941 3.814697265625e-06 10.08551979064941 L 3.814697265625e-06 9.085519790649414 Z M 3.814697265625e-06 6.893679618835449 L 1.000003814697266 6.893679618835449 L 1.000003814697266 8.893679618835449 L 3.814697265625e-06 8.893679618835449 L 3.814697265625e-06 6.893679618835449 Z M 3.814697265625e-06 3.893679618835449 L 1.000003814697266 3.893679618835449 L 1.000003814697266 5.893679618835449 L 3.814697265625e-06 5.893679618835449 L 3.814697265625e-06 3.893679618835449 Z" stroke="none" fill="#1ab395"/></g><g transform="translate(878.47 395)" fill="none" stroke-dasharray="2 1"><path d="M0,0H10.861V10.086H0Z" stroke="none"/><path d="M 3.814697265625e-06 -9.5367431640625e-07 L 2.000003814697266 -9.5367431640625e-07 L 2.000003814697266 0.9999990463256836 L 1.000003814697266 0.9999990463256836 L 1.000003814697266 2.893679618835449 L 3.814697265625e-06 2.893679618835449 L 3.814697265625e-06 -9.5367431640625e-07 Z M 3.000004291534424 -9.5367431640625e-07 L 5.000004291534424 -9.5367431640625e-07 L 5.000004291534424 0.9999990463256836 L 3.000004291534424 0.9999990463256836 L 3.000004291534424 -9.5367431640625e-07 Z M 6.000004291534424 -9.5367431640625e-07 L 8.000003814697266 -9.5367431640625e-07 L 8.000003814697266 0.9999990463256836 L 6.000004291534424 0.9999990463256836 L 6.000004291534424 -9.5367431640625e-07 Z M 9.000003814697266 -9.5367431640625e-07 L 10.86132431030273 -9.5367431640625e-07 L 10.86132431030273 0.9999990463256836 L 9.000003814697266 0.9999990463256836 L 9.000003814697266 -9.5367431640625e-07 Z M 9.861324310302734 1.138679504394531 L 10.86132431030273 1.138679504394531 C 10.86132431030273 1.138679504394531 10.86132431030273 3.138679504394531 10.86132431030273 3.138679504394531 L 9.861324310302734 3.138679504394531 L 9.861324310302734 1.138679504394531 Z M 9.861324310302734 4.138679504394531 L 10.86132431030273 4.138679504394531 C 10.86132431030273 4.138679504394531 10.86132431030273 6.138679504394531 10.86132431030273 6.138679504394531 L 9.861324310302734 6.138679504394531 L 9.861324310302734 4.138679504394531 Z M 9.861324310302734 7.138679504394531 L 10.86132431030273 7.138679504394531 C 10.86132431030273 7.138679504394531 10.86132431030273 9.138679504394531 10.86132431030273 9.138679504394531 L 10.8081636428833 9.138679504394531 L 10.8081636428833 10.08551979064941 C 10.8081636428833 10.08551979064941 8.808164596557617 10.08551979064941 8.808164596557617 10.08551979064941 L 8.808164596557617 9.085519790649414 L 9.861324310302734 9.085519790649414 L 9.861324310302734 7.138679504394531 Z M 5.808164119720459 9.085519790649414 L 7.808164119720459 9.085519790649414 L 7.808164119720459 10.08551979064941 C 7.808164119720459 10.08551979064941 5.808164119720459 10.08551979064941 5.808164119720459 10.08551979064941 L 5.808164119720459 9.085519790649414 Z M 2.808163642883301 9.085519790649414 L 4.808164119720459 9.085519790649414 L 4.808164119720459 10.08551979064941 C 4.808164119720459 10.08551979064941 2.808163642883301 10.08551979064941 2.808163642883301 10.08551979064941 L 2.808163642883301 9.085519790649414 Z M 3.814697265625e-06 9.085519790649414 L 1.808163642883301 9.085519790649414 L 1.808163642883301 10.08551979064941 C 1.808163642883301 10.08551979064941 3.814697265625e-06 10.08551979064941 3.814697265625e-06 10.08551979064941 L 3.814697265625e-06 9.085519790649414 Z M 3.814697265625e-06 6.893679618835449 L 1.000003814697266 6.893679618835449 L 1.000003814697266 8.893679618835449 L 3.814697265625e-06 8.893679618835449 L 3.814697265625e-06 6.893679618835449 Z M 3.814697265625e-06 3.893679618835449 L 1.000003814697266 3.893679618835449 L 1.000003814697266 5.893679618835449 L 3.814697265625e-06 5.893679618835449 L 3.814697265625e-06 3.893679618835449 Z" stroke="none" fill="#1ab395"/></g><path d="M-12.789,2.531h-1.68V-11.422h1.68V2.531ZM22.789,1.148v-12.57h1.664V2.531H22.789Z" transform="translate(871.469 410)" fill="#22242b"/></g></svg>