<svg xmlns="http://www.w3.org/2000/svg" width="25.893" height="28" viewBox="0 0 25.893 28"><g fill="none" stroke-dasharray="2 1"><path d="M14,0H0V13H14Z" stroke="none"/><path d="M 0 0 L 2 0 L 2 1 L 1 1 L 1 3 L 0 3 L 0 0 Z M 3 0 L 5 0 L 5 1 L 3 1 L 3 0 Z M 6 0 L 8 0 L 8 1 L 6 1 L 6 0 Z M 9 0 L 11 0 L 11 1 L 9 1 L 9 0 Z M 12 0 L 14 0 L 14 1 L 14 1 C 14 1 14 3 14 3 L 13 3 L 13 1 L 12 1 L 12 0 Z M 13 4 L 14 4 C 14 4 14 6 14 6 L 13 6 L 13 4 Z M 13 7 L 14 7 C 14 7 14 9 14 9 L 13 9 L 13 7 Z M 13 10 L 14 10 C 14 10 14 12 14 12 L 14 12 L 14 13 C 14 13 12 13 12 13 L 12 12 L 13 12 L 13 10 Z M 9 12 L 11 12 L 11 13 C 11 13 9 13 9 13 L 9 12 Z M 6 12 L 8 12 L 8 13 C 8 13 6 13 6 13 L 6 12 Z M 3 12 L 5 12 L 5 13 C 5 13 3 13 3 13 L 3 12 Z M 0 12 L 2 12 L 2 13 C 2 13 0 13 0 13 L 0 12 Z M 0 10 L 1 10 L 1 12 L 0 12 L 0 10 Z M 0 7 L 1 7 L 1 9 L 0 9 L 0 7 Z M 0 4 L 1 4 L 1 6 L 0 6 L 0 4 Z" stroke="none" fill="#1ab395"/></g><g transform="translate(0 15)" fill="none" stroke-dasharray="2 1"><path d="M14,0H0V13H14Z" stroke="none"/><path d="M 0 0 L 2 0 L 2 1 L 1 1 L 1 3 L 0 3 L 0 0 Z M 3 0 L 5 0 L 5 1 L 3 1 L 3 0 Z M 6 0 L 8 0 L 8 1 L 6 1 L 6 0 Z M 9 0 L 11 0 L 11 1 L 9 1 L 9 0 Z M 12 0 L 14 0 L 14 1 L 14 1 C 14 1 14 3 14 3 L 13 3 L 13 1 L 12 1 L 12 0 Z M 13 4 L 14 4 C 14 4 14 6 14 6 L 13 6 L 13 4 Z M 13 7 L 14 7 C 14 7 14 9 14 9 L 13 9 L 13 7 Z M 13 10 L 14 10 C 14 10 14 12 14 12 L 14 12 L 14 13 C 14 13 12 13 12 13 L 12 12 L 13 12 L 13 10 Z M 9 12 L 11 12 L 11 13 C 11 13 9 13 9 13 L 9 12 Z M 6 12 L 8 12 L 8 13 C 8 13 6 13 6 13 L 6 12 Z M 3 12 L 5 12 L 5 13 C 5 13 3 13 3 13 L 3 12 Z M 0 12 L 2 12 L 2 13 C 2 13 0 13 0 13 L 0 12 Z M 0 10 L 1 10 L 1 12 L 0 12 L 0 10 Z M 0 7 L 1 7 L 1 9 L 0 9 L 0 7 Z M 0 4 L 1 4 L 1 6 L 0 6 L 0 4 Z" stroke="none" fill="#1ab395"/></g><path d="M1.537-.849q0-2.126,3.04-2.126V-5.157a4.052,4.052,0,0,1-2.291-.52A1.8,1.8,0,0,1,1.537-7.26v-3.554A2.945,2.945,0,0,0,.3-13.437a6.678,6.678,0,0,0-3.72-.84v2.08a3.253,3.253,0,0,1,1.891.531,1.7,1.7,0,0,1,.589,1.411V-6.86q0,2.274,2.617,2.72V-4Q-.943-3.592-.943-1.294V2.123A1.729,1.729,0,0,1-1.526,3.54a3.074,3.074,0,0,1-1.9.5V6.134a6.51,6.51,0,0,0,3.8-.9,3.313,3.313,0,0,0,1.16-2.829Z" transform="translate(21.316 17)" fill="#22242b"/></svg>