<svg xmlns="http://www.w3.org/2000/svg" width="32.38" height="37.305" viewBox="0 0 32.38 37.305"><g transform="translate(-2 11)"><path d="M15.19-15.7H-1.493A15.232,15.232,0,0,1,1.432-6.337,14.563,14.563,0,0,1-1.815,3.3h-1.52A15.133,15.133,0,0,0-.088-6.348a15.219,15.219,0,0,0-3.164-9.606v-1H15.19Z" transform="translate(19.19 23.005)" fill="#22242b"/><g transform="translate(22.249 10.315)" fill="none" stroke-dasharray="2 1"><path d="M0,0H11.691V13.855H0Z" stroke="none"/><path d="M 3.000001907348633 1.9073486328125e-06 L 5.000001907348633 1.9073486328125e-06 L 5.000001907348633 1.000001907348633 L 3.000001907348633 1.000001907348633 L 3.000001907348633 1.9073486328125e-06 Z M 6.000001907348633 1.9073486328125e-06 L 8.000001907348633 1.9073486328125e-06 L 8.000001907348633 1.000001907348633 L 6.000001907348633 1.000001907348633 L 6.000001907348633 1.9073486328125e-06 Z M 9.000001907348633 1.9073486328125e-06 L 11.00000190734863 1.9073486328125e-06 L 11.00000190734863 0.3089017868041992 L 11.69110202789307 0.3089017868041992 C 11.69110202789307 0.3089017868041992 11.69110202789307 2.308901786804199 11.69110202789307 2.308901786804199 L 10.69110202789307 2.308901786804199 L 10.69110202789307 1.000001907348633 L 9.000001907348633 1.000001907348633 L 9.000001907348633 1.9073486328125e-06 Z M 10.69110202789307 3.308901786804199 L 11.69110202789307 3.308901786804199 C 11.69110202789307 3.308901786804199 11.69110202789307 5.308901786804199 11.69110202789307 5.308901786804199 L 10.69110202789307 5.308901786804199 L 10.69110202789307 3.308901786804199 Z M 10.69110202789307 6.308901786804199 L 11.69110202789307 6.308901786804199 C 11.69110202789307 6.308901786804199 11.69110202789307 8.308901786804199 11.69110202789307 8.308901786804199 L 10.69110202789307 8.308901786804199 L 10.69110202789307 6.308901786804199 Z M 10.69110202789307 9.308901786804199 L 11.69110202789307 9.308901786804199 C 11.69110202789307 9.308901786804199 11.69110202789307 11.3089017868042 11.69110202789307 11.3089017868042 L 10.69110202789307 11.3089017868042 L 10.69110202789307 9.308901786804199 Z M 10.69110202789307 12.3089017868042 L 11.69110202789307 12.3089017868042 C 11.69110202789307 12.3089017868042 11.69110202789307 13.85454177856445 11.69110202789307 13.85454177856445 L 10.69110202789307 13.85454177856445 L 10.69110202789307 13.85454177856445 L 10.69110202789307 13.85454177856445 L 10.69110202789307 13.85454177856445 L 10.69110202789307 12.3089017868042 Z M 8.23674201965332 12.85454177856445 L 10.23674201965332 12.85454177856445 L 10.23674201965332 13.85454177856445 C 10.23674201965332 13.85454177856445 8.23674201965332 13.85454177856445 8.23674201965332 13.85454177856445 L 8.23674201965332 12.85454177856445 Z M 5.23674201965332 12.85454177856445 L 7.23674201965332 12.85454177856445 L 7.23674201965332 13.85454177856445 C 7.23674201965332 13.85454177856445 5.23674201965332 13.85454177856445 5.23674201965332 13.85454177856445 L 5.23674201965332 12.85454177856445 Z M 2.23674201965332 12.85454177856445 L 4.23674201965332 12.85454177856445 L 4.23674201965332 13.85454177856445 C 4.23674201965332 13.85454177856445 2.23674201965332 13.85454177856445 2.23674201965332 13.85454177856445 L 2.23674201965332 12.85454177856445 Z M 1.9073486328125e-06 12.85454177856445 L 1.23674201965332 12.85454177856445 L 1.23674201965332 13.85454177856445 C 1.23674201965332 13.85454177856445 1.9073486328125e-06 13.85454177856445 1.9073486328125e-06 13.85454177856445 L 1.9073486328125e-06 12.85454177856445 Z M 1.9073486328125e-06 10.09128189086914 L 1.000001907348633 10.09128189086914 L 1.000001907348633 12.09128189086914 L 1.9073486328125e-06 12.09128189086914 L 1.9073486328125e-06 10.09128189086914 Z M 1.9073486328125e-06 7.091281890869141 L 1.000001907348633 7.091281890869141 L 1.000001907348633 9.091281890869141 L 1.9073486328125e-06 9.091281890869141 L 1.9073486328125e-06 7.091281890869141 Z M 1.9073486328125e-06 4.091281890869141 L 1.000001907348633 4.091281890869141 L 1.000001907348633 6.091281890869141 L 1.9073486328125e-06 6.091281890869141 L 1.9073486328125e-06 4.091281890869141 Z M 1.9073486328125e-06 1.091281890869141 L 1.000001907348633 1.091281890869141 L 1.000001907348633 3.091281890869141 L 1.9073486328125e-06 3.091281890869141 L 1.9073486328125e-06 1.091281890869141 Z M 1.9073486328125e-06 1.9073486328125e-06 L 2.000001907348633 1.9073486328125e-06 L 2.000001907348633 1.000001907348633 L 1.9073486328125e-06 1.000001907348633 L 1.9073486328125e-06 1.9073486328125e-06 Z" stroke="none" fill="#1ab395"/></g><g transform="translate(22.249 -11)" fill="none" stroke-dasharray="2 1"><path d="M0,0H11.691V13.855H0Z" stroke="none"/><path d="M 3.000001907348633 1.9073486328125e-06 L 5.000001907348633 1.9073486328125e-06 L 5.000001907348633 1.000001907348633 L 3.000001907348633 1.000001907348633 L 3.000001907348633 1.9073486328125e-06 Z M 6.000001907348633 1.9073486328125e-06 L 8.000001907348633 1.9073486328125e-06 L 8.000001907348633 1.000001907348633 L 6.000001907348633 1.000001907348633 L 6.000001907348633 1.9073486328125e-06 Z M 9.000001907348633 1.9073486328125e-06 L 11.00000190734863 1.9073486328125e-06 L 11.00000190734863 0.3089017868041992 L 11.69110202789307 0.3089017868041992 C 11.69110202789307 0.3089017868041992 11.69110202789307 2.308901786804199 11.69110202789307 2.308901786804199 L 10.69110202789307 2.308901786804199 L 10.69110202789307 1.000001907348633 L 9.000001907348633 1.000001907348633 L 9.000001907348633 1.9073486328125e-06 Z M 10.69110202789307 3.308901786804199 L 11.69110202789307 3.308901786804199 C 11.69110202789307 3.308901786804199 11.69110202789307 5.308901786804199 11.69110202789307 5.308901786804199 L 10.69110202789307 5.308901786804199 L 10.69110202789307 3.308901786804199 Z M 10.69110202789307 6.308901786804199 L 11.69110202789307 6.308901786804199 C 11.69110202789307 6.308901786804199 11.69110202789307 8.308901786804199 11.69110202789307 8.308901786804199 L 10.69110202789307 8.308901786804199 L 10.69110202789307 6.308901786804199 Z M 10.69110202789307 9.308901786804199 L 11.69110202789307 9.308901786804199 C 11.69110202789307 9.308901786804199 11.69110202789307 11.3089017868042 11.69110202789307 11.3089017868042 L 10.69110202789307 11.3089017868042 L 10.69110202789307 9.308901786804199 Z M 10.69110202789307 12.3089017868042 L 11.69110202789307 12.3089017868042 C 11.69110202789307 12.3089017868042 11.69110202789307 13.85454177856445 11.69110202789307 13.85454177856445 L 10.69110202789307 13.85454177856445 L 10.69110202789307 13.85454177856445 L 10.69110202789307 13.85454177856445 L 10.69110202789307 13.85454177856445 L 10.69110202789307 12.3089017868042 Z M 8.23674201965332 12.85454177856445 L 10.23674201965332 12.85454177856445 L 10.23674201965332 13.85454177856445 C 10.23674201965332 13.85454177856445 8.23674201965332 13.85454177856445 8.23674201965332 13.85454177856445 L 8.23674201965332 12.85454177856445 Z M 5.23674201965332 12.85454177856445 L 7.23674201965332 12.85454177856445 L 7.23674201965332 13.85454177856445 C 7.23674201965332 13.85454177856445 5.23674201965332 13.85454177856445 5.23674201965332 13.85454177856445 L 5.23674201965332 12.85454177856445 Z M 2.23674201965332 12.85454177856445 L 4.23674201965332 12.85454177856445 L 4.23674201965332 13.85454177856445 C 4.23674201965332 13.85454177856445 2.23674201965332 13.85454177856445 2.23674201965332 13.85454177856445 L 2.23674201965332 12.85454177856445 Z M 1.9073486328125e-06 12.85454177856445 L 1.23674201965332 12.85454177856445 L 1.23674201965332 13.85454177856445 C 1.23674201965332 13.85454177856445 1.9073486328125e-06 13.85454177856445 1.9073486328125e-06 13.85454177856445 L 1.9073486328125e-06 12.85454177856445 Z M 1.9073486328125e-06 10.09128189086914 L 1.000001907348633 10.09128189086914 L 1.000001907348633 12.09128189086914 L 1.9073486328125e-06 12.09128189086914 L 1.9073486328125e-06 10.09128189086914 Z M 1.9073486328125e-06 7.091281890869141 L 1.000001907348633 7.091281890869141 L 1.000001907348633 9.091281890869141 L 1.9073486328125e-06 9.091281890869141 L 1.9073486328125e-06 7.091281890869141 Z M 1.9073486328125e-06 4.091281890869141 L 1.000001907348633 4.091281890869141 L 1.000001907348633 6.091281890869141 L 1.9073486328125e-06 6.091281890869141 L 1.9073486328125e-06 4.091281890869141 Z M 1.9073486328125e-06 1.091281890869141 L 1.000001907348633 1.091281890869141 L 1.000001907348633 3.091281890869141 L 1.9073486328125e-06 3.091281890869141 L 1.9073486328125e-06 1.091281890869141 Z M 1.9073486328125e-06 1.9073486328125e-06 L 2.000001907348633 1.9073486328125e-06 L 2.000001907348633 1.000001907348633 L 1.9073486328125e-06 1.000001907348633 L 1.9073486328125e-06 1.9073486328125e-06 Z" stroke="none" fill="#1ab395"/></g><g transform="translate(2 10.315)" fill="none" stroke-dasharray="2 1"><path d="M0,0H11.69V13.855H0Z" stroke="none"/><path d="M 2.999996185302734 1.9073486328125e-06 L 4.999995708465576 1.9073486328125e-06 L 4.999995708465576 1.000001907348633 L 2.999996185302734 1.000001907348633 L 2.999996185302734 1.9073486328125e-06 Z M 5.999995708465576 1.9073486328125e-06 L 7.999995708465576 1.9073486328125e-06 L 7.999995708465576 1.000001907348633 L 5.999995708465576 1.000001907348633 L 5.999995708465576 1.9073486328125e-06 Z M 8.999996185302734 1.9073486328125e-06 L 10.99999618530273 1.9073486328125e-06 L 10.99999618530273 0.3102216720581055 L 11.68977546691895 0.3102216720581055 C 11.68977546691895 0.3102216720581055 11.68977546691895 2.310221672058105 11.68977546691895 2.310221672058105 L 10.68977546691895 2.310221672058105 L 10.68977546691895 1.000001907348633 L 8.999996185302734 1.000001907348633 L 8.999996185302734 1.9073486328125e-06 Z M 10.68977546691895 3.310221672058105 L 11.68977546691895 3.310221672058105 C 11.68977546691895 3.310221672058105 11.68977546691895 5.310221672058105 11.68977546691895 5.310221672058105 L 10.68977546691895 5.310221672058105 L 10.68977546691895 3.310221672058105 Z M 10.68977546691895 6.310221672058105 L 11.68977546691895 6.310221672058105 C 11.68977546691895 6.310221672058105 11.68977546691895 8.310221672058105 11.68977546691895 8.310221672058105 L 10.68977546691895 8.310221672058105 L 10.68977546691895 6.310221672058105 Z M 10.68977546691895 9.310221672058105 L 11.68977546691895 9.310221672058105 C 11.68977546691895 9.310221672058105 11.68977546691895 11.31022167205811 11.68977546691895 11.31022167205811 L 10.68977546691895 11.31022167205811 L 10.68977546691895 9.310221672058105 Z M 10.68977546691895 12.31022167205811 L 11.68977546691895 12.31022167205811 C 11.68977546691895 12.31022167205811 11.68977546691895 13.85454177856445 11.68977546691895 13.85454177856445 L 10.68977546691895 13.85454177856445 L 10.68977546691895 13.85454177856445 L 10.68977546691895 13.85454177856445 L 10.68977546691895 13.85454177856445 L 10.68977546691895 12.31022167205811 Z M 8.234095573425293 12.85454177856445 L 10.23409557342529 12.85454177856445 L 10.23409557342529 13.85454177856445 C 10.23409557342529 13.85454177856445 8.234095573425293 13.85454177856445 8.234095573425293 13.85454177856445 L 8.234095573425293 12.85454177856445 Z M 5.234096050262451 12.85454177856445 L 7.234096050262451 12.85454177856445 L 7.234096050262451 13.85454177856445 C 7.234096050262451 13.85454177856445 5.234096050262451 13.85454177856445 5.234096050262451 13.85454177856445 L 5.234096050262451 12.85454177856445 Z M 2.234095573425293 12.85454177856445 L 4.234096050262451 12.85454177856445 L 4.234096050262451 13.85454177856445 C 4.234096050262451 13.85454177856445 2.234095573425293 13.85454177856445 2.234095573425293 13.85454177856445 L 2.234095573425293 12.85454177856445 Z M -3.814697265625e-06 12.85454177856445 L 1.234095573425293 12.85454177856445 L 1.234095573425293 13.85454177856445 C 1.234095573425293 13.85454177856445 -3.814697265625e-06 13.85454177856445 -3.814697265625e-06 13.85454177856445 L -3.814697265625e-06 12.85454177856445 Z M -3.814697265625e-06 10.08864212036133 L 0.9999961853027344 10.08864212036133 L 0.9999961853027344 12.08864212036133 L -3.814697265625e-06 12.08864212036133 L -3.814697265625e-06 10.08864212036133 Z M -3.814697265625e-06 7.08864164352417 L 0.9999961853027344 7.08864164352417 L 0.9999961853027344 9.088642120361328 L -3.814697265625e-06 9.088642120361328 L -3.814697265625e-06 7.08864164352417 Z M -3.814697265625e-06 4.088642120361328 L 0.9999961853027344 4.088642120361328 L 0.9999961853027344 6.08864164352417 L -3.814697265625e-06 6.08864164352417 L -3.814697265625e-06 4.088642120361328 Z M -3.814697265625e-06 1.088642120361328 L 0.9999961853027344 1.088642120361328 L 0.9999961853027344 3.088642120361328 L -3.814697265625e-06 3.088642120361328 L -3.814697265625e-06 1.088642120361328 Z M -3.814697265625e-06 1.9073486328125e-06 L 1.999996185302734 1.9073486328125e-06 L 1.999996185302734 1.000001907348633 L -3.814697265625e-06 1.000001907348633 L -3.814697265625e-06 1.9073486328125e-06 Z" stroke="none" fill="#1ab395"/></g></g></svg>