<svg xmlns="http://www.w3.org/2000/svg" width="30.311" height="39.62" viewBox="0 0 30.311 39.62"><g transform="translate(-3.136 11)"><g transform="translate(13.699 17.912)" fill="none" stroke-dasharray="2 1"><path d="M0,0H11.747V10.708H0Z" stroke="none"/><path d="M -2.86102294921875e-06 -1.9073486328125e-06 L 1.999997138977051 -1.9073486328125e-06 L 1.999997138977051 0.9999980926513672 L 0.9999971389770508 0.9999980926513672 L 0.9999971389770508 2.91035795211792 L -2.86102294921875e-06 2.91035795211792 L -2.86102294921875e-06 -1.9073486328125e-06 Z M 2.999997138977051 -1.9073486328125e-06 L 4.999997615814209 -1.9073486328125e-06 L 4.999997615814209 0.9999980926513672 L 2.999997138977051 0.9999980926513672 L 2.999997138977051 -1.9073486328125e-06 Z M 5.999997615814209 -1.9073486328125e-06 L 7.999997138977051 -1.9073486328125e-06 L 7.999997138977051 0.9999980926513672 L 5.999997615814209 0.9999980926513672 L 5.999997615814209 -1.9073486328125e-06 Z M 8.999997138977051 -1.9073486328125e-06 L 10.99999713897705 -1.9073486328125e-06 L 10.99999713897705 0.2530574798583984 L 11.74693775177002 0.2530574798583984 C 11.74693775177002 0.2530574798583984 11.74693775177002 2.253057479858398 11.74693775177002 2.253057479858398 L 10.74693775177002 2.253057479858398 L 10.74693775177002 0.9999980926513672 L 8.999997138977051 0.9999980926513672 L 8.999997138977051 -1.9073486328125e-06 Z M 10.74693775177002 3.253057956695557 L 11.74693775177002 3.253057956695557 C 11.74693775177002 3.253057956695557 11.74693775177002 5.253057956695557 11.74693775177002 5.253057956695557 L 10.74693775177002 5.253057956695557 L 10.74693775177002 3.253057956695557 Z M 10.74693775177002 6.253057956695557 L 11.74693775177002 6.253057956695557 C 11.74693775177002 6.253057956695557 11.74693775177002 8.253057479858398 11.74693775177002 8.253057479858398 L 10.74693775177002 8.253057479858398 L 10.74693775177002 6.253057956695557 Z M 10.74693775177002 9.253057479858398 L 11.74693775177002 9.253057479858398 C 11.74693775177002 9.253057479858398 11.74693775177002 10.70823764801025 11.74693775177002 10.70823764801025 L 10.74693775177002 10.70823764801025 L 10.74693775177002 10.70823764801025 L 10.74693775177002 10.70823764801025 L 10.74693775177002 10.70823764801025 L 10.74693775177002 9.253057479858398 Z M 8.202117919921875 9.708237648010254 L 10.20211791992188 9.708237648010254 L 10.20211791992188 10.70823764801025 C 10.20211791992188 10.70823764801025 8.202117919921875 10.70823764801025 8.202117919921875 10.70823764801025 L 8.202117919921875 9.708237648010254 Z M 5.202117443084717 9.708237648010254 L 7.202117443084717 9.708237648010254 L 7.202117443084717 10.70823764801025 C 7.202117443084717 10.70823764801025 5.202117443084717 10.70823764801025 5.202117443084717 10.70823764801025 L 5.202117443084717 9.708237648010254 Z M 2.202117919921875 9.708237648010254 L 4.202117443084717 9.708237648010254 L 4.202117443084717 10.70823764801025 C 4.202117443084717 10.70823764801025 2.202117919921875 10.70823764801025 2.202117919921875 10.70823764801025 L 2.202117919921875 9.708237648010254 Z M -2.86102294921875e-06 9.708237648010254 L 1.202117919921875 9.708237648010254 L 1.202117919921875 10.70823764801025 C 1.202117919921875 10.70823764801025 -2.86102294921875e-06 10.70823764801025 -2.86102294921875e-06 10.70823764801025 L -2.86102294921875e-06 9.708237648010254 Z M -2.86102294921875e-06 6.91035795211792 L 0.9999971389770508 6.91035795211792 L 0.9999971389770508 8.910357475280762 L -2.86102294921875e-06 8.910357475280762 L -2.86102294921875e-06 6.91035795211792 Z M -2.86102294921875e-06 3.91035795211792 L 0.9999971389770508 3.91035795211792 L 0.9999971389770508 5.91035795211792 L -2.86102294921875e-06 5.91035795211792 L -2.86102294921875e-06 3.91035795211792 Z" stroke="none" fill="#1ab395"/></g><g transform="translate(13.699 1.85)" fill="none" stroke-dasharray="2 1"><path d="M0,0H11.747V10.708H0Z" stroke="none"/><path d="M -2.86102294921875e-06 -1.9073486328125e-06 L 1.999997138977051 -1.9073486328125e-06 L 1.999997138977051 0.9999980926513672 L 0.9999971389770508 0.9999980926513672 L 0.9999971389770508 2.91035795211792 L -2.86102294921875e-06 2.91035795211792 L -2.86102294921875e-06 -1.9073486328125e-06 Z M 2.999997138977051 -1.9073486328125e-06 L 4.999997615814209 -1.9073486328125e-06 L 4.999997615814209 0.9999980926513672 L 2.999997138977051 0.9999980926513672 L 2.999997138977051 -1.9073486328125e-06 Z M 5.999997615814209 -1.9073486328125e-06 L 7.999997138977051 -1.9073486328125e-06 L 7.999997138977051 0.9999980926513672 L 5.999997615814209 0.9999980926513672 L 5.999997615814209 -1.9073486328125e-06 Z M 8.999997138977051 -1.9073486328125e-06 L 10.99999713897705 -1.9073486328125e-06 L 10.99999713897705 0.2530574798583984 L 11.74693775177002 0.2530574798583984 C 11.74693775177002 0.2530574798583984 11.74693775177002 2.253057479858398 11.74693775177002 2.253057479858398 L 10.74693775177002 2.253057479858398 L 10.74693775177002 0.9999980926513672 L 8.999997138977051 0.9999980926513672 L 8.999997138977051 -1.9073486328125e-06 Z M 10.74693775177002 3.253057956695557 L 11.74693775177002 3.253057956695557 C 11.74693775177002 3.253057956695557 11.74693775177002 5.253057956695557 11.74693775177002 5.253057956695557 L 10.74693775177002 5.253057956695557 L 10.74693775177002 3.253057956695557 Z M 10.74693775177002 6.253057956695557 L 11.74693775177002 6.253057956695557 C 11.74693775177002 6.253057956695557 11.74693775177002 8.253057479858398 11.74693775177002 8.253057479858398 L 10.74693775177002 8.253057479858398 L 10.74693775177002 6.253057956695557 Z M 10.74693775177002 9.253057479858398 L 11.74693775177002 9.253057479858398 C 11.74693775177002 9.253057479858398 11.74693775177002 10.70823764801025 11.74693775177002 10.70823764801025 L 10.74693775177002 10.70823764801025 L 10.74693775177002 10.70823764801025 L 10.74693775177002 10.70823764801025 L 10.74693775177002 10.70823764801025 L 10.74693775177002 9.253057479858398 Z M 8.202117919921875 9.708237648010254 L 10.20211791992188 9.708237648010254 L 10.20211791992188 10.70823764801025 C 10.20211791992188 10.70823764801025 8.202117919921875 10.70823764801025 8.202117919921875 10.70823764801025 L 8.202117919921875 9.708237648010254 Z M 5.202117443084717 9.708237648010254 L 7.202117443084717 9.708237648010254 L 7.202117443084717 10.70823764801025 C 7.202117443084717 10.70823764801025 5.202117443084717 10.70823764801025 5.202117443084717 10.70823764801025 L 5.202117443084717 9.708237648010254 Z M 2.202117919921875 9.708237648010254 L 4.202117443084717 9.708237648010254 L 4.202117443084717 10.70823764801025 C 4.202117443084717 10.70823764801025 2.202117919921875 10.70823764801025 2.202117919921875 10.70823764801025 L 2.202117919921875 9.708237648010254 Z M -2.86102294921875e-06 9.708237648010254 L 1.202117919921875 9.708237648010254 L 1.202117919921875 10.70823764801025 C 1.202117919921875 10.70823764801025 -2.86102294921875e-06 10.70823764801025 -2.86102294921875e-06 10.70823764801025 L -2.86102294921875e-06 9.708237648010254 Z M -2.86102294921875e-06 6.91035795211792 L 0.9999971389770508 6.91035795211792 L 0.9999971389770508 8.910357475280762 L -2.86102294921875e-06 8.910357475280762 L -2.86102294921875e-06 6.91035795211792 Z M -2.86102294921875e-06 3.91035795211792 L 0.9999971389770508 3.91035795211792 L 0.9999971389770508 5.91035795211792 L -2.86102294921875e-06 5.91035795211792 L -2.86102294921875e-06 3.91035795211792 Z" stroke="none" fill="#1ab395"/></g><g transform="translate(13.699 -11)" fill="none" stroke-dasharray="2 1"><path d="M0,0H11.747V10.708H0Z" stroke="none"/><path d="M -2.86102294921875e-06 -1.9073486328125e-06 L 1.999997138977051 -1.9073486328125e-06 L 1.999997138977051 0.9999980926513672 L 0.9999971389770508 0.9999980926513672 L 0.9999971389770508 2.91035795211792 L -2.86102294921875e-06 2.91035795211792 L -2.86102294921875e-06 -1.9073486328125e-06 Z M 2.999997138977051 -1.9073486328125e-06 L 4.999997615814209 -1.9073486328125e-06 L 4.999997615814209 0.9999980926513672 L 2.999997138977051 0.9999980926513672 L 2.999997138977051 -1.9073486328125e-06 Z M 5.999997615814209 -1.9073486328125e-06 L 7.999997138977051 -1.9073486328125e-06 L 7.999997138977051 0.9999980926513672 L 5.999997615814209 0.9999980926513672 L 5.999997615814209 -1.9073486328125e-06 Z M 8.999997138977051 -1.9073486328125e-06 L 10.99999713897705 -1.9073486328125e-06 L 10.99999713897705 0.2530574798583984 L 11.74693775177002 0.2530574798583984 C 11.74693775177002 0.2530574798583984 11.74693775177002 2.253057479858398 11.74693775177002 2.253057479858398 L 10.74693775177002 2.253057479858398 L 10.74693775177002 0.9999980926513672 L 8.999997138977051 0.9999980926513672 L 8.999997138977051 -1.9073486328125e-06 Z M 10.74693775177002 3.253057956695557 L 11.74693775177002 3.253057956695557 C 11.74693775177002 3.253057956695557 11.74693775177002 5.253057956695557 11.74693775177002 5.253057956695557 L 10.74693775177002 5.253057956695557 L 10.74693775177002 3.253057956695557 Z M 10.74693775177002 6.253057956695557 L 11.74693775177002 6.253057956695557 C 11.74693775177002 6.253057956695557 11.74693775177002 8.253057479858398 11.74693775177002 8.253057479858398 L 10.74693775177002 8.253057479858398 L 10.74693775177002 6.253057956695557 Z M 10.74693775177002 9.253057479858398 L 11.74693775177002 9.253057479858398 C 11.74693775177002 9.253057479858398 11.74693775177002 10.70823764801025 11.74693775177002 10.70823764801025 L 10.74693775177002 10.70823764801025 L 10.74693775177002 10.70823764801025 L 10.74693775177002 10.70823764801025 L 10.74693775177002 10.70823764801025 L 10.74693775177002 9.253057479858398 Z M 8.202117919921875 9.708237648010254 L 10.20211791992188 9.708237648010254 L 10.20211791992188 10.70823764801025 C 10.20211791992188 10.70823764801025 8.202117919921875 10.70823764801025 8.202117919921875 10.70823764801025 L 8.202117919921875 9.708237648010254 Z M 5.202117443084717 9.708237648010254 L 7.202117443084717 9.708237648010254 L 7.202117443084717 10.70823764801025 C 7.202117443084717 10.70823764801025 5.202117443084717 10.70823764801025 5.202117443084717 10.70823764801025 L 5.202117443084717 9.708237648010254 Z M 2.202117919921875 9.708237648010254 L 4.202117443084717 9.708237648010254 L 4.202117443084717 10.70823764801025 C 4.202117443084717 10.70823764801025 2.202117919921875 10.70823764801025 2.202117919921875 10.70823764801025 L 2.202117919921875 9.708237648010254 Z M -2.86102294921875e-06 9.708237648010254 L 1.202117919921875 9.708237648010254 L 1.202117919921875 10.70823764801025 C 1.202117919921875 10.70823764801025 -2.86102294921875e-06 10.70823764801025 -2.86102294921875e-06 10.70823764801025 L -2.86102294921875e-06 9.708237648010254 Z M -2.86102294921875e-06 6.91035795211792 L 0.9999971389770508 6.91035795211792 L 0.9999971389770508 8.910357475280762 L -2.86102294921875e-06 8.910357475280762 L -2.86102294921875e-06 6.91035795211792 Z M -2.86102294921875e-06 3.91035795211792 L 0.9999971389770508 3.91035795211792 L 0.9999971389770508 5.91035795211792 L -2.86102294921875e-06 5.91035795211792 L -2.86102294921875e-06 3.91035795211792 Z" stroke="none" fill="#1ab395"/></g><path d="M0,0H27.243" transform="translate(6.203 15.406)" fill="none" stroke="#22242b" stroke-width="1"/><path d="M-1.318-5.845h-2.5V-6.962h2.5V-9.523h1.13v2.561h2.5v1.117h-2.5V-3.3h-1.13Z" transform="translate(6.952 13.515)" fill="#22242b"/></g></svg>