<svg xmlns="http://www.w3.org/2000/svg" width="66.127" height="80.331" viewBox="0 0 66.127 80.331"><defs><style>.a{fill:#434b5d;}.b{fill:#fff;}</style></defs><circle class="a" cx="2.841" cy="2.841" r="2.841" transform="translate(22.411 22.095)"/><circle class="a" cx="2.841" cy="2.841" r="2.841" transform="translate(36.615 22.095)"/><path class="a" d="M66.127,37.4A32.906,32.906,0,0,0,13.415,11.048V6a3.254,3.254,0,0,0,1.736-2.841,3.156,3.156,0,1,0-6.313,0,3.055,3.055,0,0,0,1.578,2.683v7.575h.158A32.334,32.334,0,0,0,0,37.4a29.83,29.83,0,0,0,1.578,9.943h0C8.365,75.6,43.717,80.331,43.717,80.331V68.81h0A33.172,33.172,0,0,0,66.127,37.4ZM8.68,33.3a24.672,24.672,0,0,1,48.925,0Z"/><circle class="a" cx="27" cy="27" r="27" transform="translate(6.131 11)"/><g transform="translate(24.969 27.098)"><path class="b" d="M0,0H12.386V4.229h-8.1V8.335h8.1v4.153h-8.1V18.46h8.1v4.245H0V0"/><path class="b" d="M1.767,0a1.712,1.712,0,0,1,1.26.525A1.733,1.733,0,0,1,3.549,1.79a1.715,1.715,0,0,1-.522,1.25,1.715,1.715,0,0,1-1.26.525A1.7,1.7,0,0,1,.522,3.041,1.716,1.716,0,0,1,0,1.79,1.733,1.733,0,0,1,.522.525,1.7,1.7,0,0,1,1.767,0" transform="translate(19.548 9.168)"/></g></svg>