<svg xmlns="http://www.w3.org/2000/svg" width="23.036" height="18.228" viewBox="0 0 23.036 18.228"><g transform="translate(1848.897 -3355.623)"><path d="M-1204.164,436.616l3.251,11.893c.036.221-.055.3-.24.3h-2.364c-.166,0-.184-.074-.24-.3l-1.053-3.841h-4.949l-1.07,3.841c-.056.221-.074.3-.259.3h-2.345c-.2,0-.277-.074-.24-.3l3.306-11.893c.554-2.013.924-2.216,3.066-2.216C-1205.069,434.4-1204.717,434.6-1204.164,436.616Zm-3.6.757-1.348,4.894h3.656l-1.33-4.894c-.129-.444-.147-.536-.516-.536C-1207.617,436.838-1207.654,436.93-1207.765,437.373Z" transform="translate(-635.214 2921.223)" fill="#fff"/><path d="M-1181.371,441.509a.432.432,0,0,1,.387.461v9.4c-.018,2.77-.553,4.044-4.524,4.044a20.761,20.761,0,0,1-3.416-.259.254.254,0,0,1-.259-.3v-1.4c0-.2.073-.277.259-.277h3.176c1.626,0,2.013-.37,2.013-1.588v-.111a11.782,11.782,0,0,1-2.253.2c-3.361,0-4.267-1.163-4.267-5.411,0-4.026.924-5.115,4.821-5.115A23.942,23.942,0,0,1-1181.371,441.509Zm-4.192,2.013c-1.791,0-1.958.7-1.958,2.881,0,2.383.277,2.9,2.143,2.9a10.25,10.25,0,0,0,1.644-.111v-5.669Z" transform="translate(-644.878 2918.435)" fill="#fff"/></g></svg>