<svg xmlns="http://www.w3.org/2000/svg" width="14.882" height="14.792" viewBox="0 0 14.882 14.792"><g transform="translate(1737.895 -3284.311)"><path d="M-1015.568,313.893c.221.073.332.166.332.333v1.5c0,.24-.11.333-.351.333h-4.377c-1.126,0-1.7.388-1.7,1.2v.259c0,.646.258,1.071,1.089,1.385l3.453,1.348a3.406,3.406,0,0,1,2.567,3.712v.517c0,2.733-2.124,3.546-5.318,3.546a28.439,28.439,0,0,1-4.561-.388.346.346,0,0,1-.314-.406v-1.4c0-.221.11-.333.351-.333h5.244c1.109,0,1.681-.333,1.681-1.145v-.24c0-.794-.369-1.163-1.329-1.533l-3.6-1.348c-1.532-.573-2.2-1.625-2.2-3.768v-.406c0-2.733,1.9-3.527,5.171-3.527A18.878,18.878,0,0,1-1015.568,313.893Z" transform="translate(-713.149 2971.083)" fill="#fff"/><path d="M-1001.671,314.5a1.406,1.406,0,0,1-1.588,1.5,1.427,1.427,0,0,1-1.625-1.5c0-.942.591-1.478,1.625-1.478A1.393,1.393,0,0,1-1001.671,314.5Zm-.517,2.881a.245.245,0,0,1,.277.277v9.769c0,.2-.093.3-.277.3h-2.179c-.184,0-.277-.092-.277-.3v-9.769a.245.245,0,0,1,.277-.277Z" transform="translate(-721.341 2971.291)" fill="#fff"/></g></svg>