<svg xmlns="http://www.w3.org/2000/svg" width="18.872" height="14.405" viewBox="0 0 18.872 14.405"><g transform="translate(2094.002 -3426.639)"><path d="M-1620.274,560.023c0,2.789-.739,3.9-2.826,4.3l3.14,4.986c.148.2.055.37-.222.37h-2.327a.726.726,0,0,1-.739-.407l-3.028-4.764h-1.7v4.875c0,.24-.055.3-.277.3h-2.345c-.222,0-.277-.056-.277-.3V555.739c0-.2.056-.24.277-.259,1.625-.148,3.4-.2,4.912-.2C-1621.641,555.277-1620.274,556.329-1620.274,560.023Zm-7.7-2.216v4.469h1.995c2.2,0,2.77-.295,2.77-2.179,0-1.846-.572-2.29-2.77-2.29Z" transform="translate(-463.127 2871.362)" fill="#fff"/><path d="M-1604,555.493a.307.307,0,0,1,.3.351v1.533c0,.2-.111.3-.314.3h-1.459c-.72,0-1.034.092-1.034.72v.979h2.253c.2,0,.259.092.222.314l-.277,1.551a.287.287,0,0,1-.314.259h-1.884v7.9c0,.2-.093.3-.277.3h-2.18c-.185,0-.277-.092-.277-.3v-7.9h-1.2c-.2,0-.314-.092-.314-.277v-1.57c0-.184.111-.277.314-.277h1.2v-1.459c0-2.327,1.588-2.6,3.25-2.6A11.234,11.234,0,0,1-1604,555.493Z" transform="translate(-471.423 2871.349)" fill="#fff"/></g></svg>