<svg xmlns="http://www.w3.org/2000/svg" width="21.807" height="14.497" viewBox="0 0 21.807 14.497"><g transform="translate(2211.508 -3355.623)"><path d="M-1820.281,439.147c0,2.788-.739,3.9-2.825,4.3l3.139,4.986c.148.2.056.37-.221.37h-2.327a.725.725,0,0,1-.738-.406l-3.029-4.765h-1.7v4.875c0,.24-.056.3-.277.3h-2.345c-.221,0-.277-.056-.277-.3V434.862c0-.2.055-.24.277-.258,1.625-.147,3.4-.2,4.912-.2C-1821.648,434.4-1820.281,435.453-1820.281,439.147Zm-7.7-2.217v4.47h1.994c2.2,0,2.77-.3,2.77-2.179,0-1.847-.572-2.291-2.77-2.291Z" transform="translate(-380.627 2921.223)" fill="#fff"/><path d="M-1807.055,434.589c.2,0,.277.092.277.3v3.675a20.966,20.966,0,0,1,2.271-.111c3.361,0,4.248,1.182,4.248,5.282,0,4.155-.9,5.245-4.8,5.245a25.331,25.331,0,0,1-4.063-.351.421.421,0,0,1-.388-.462V434.884c0-.2.074-.3.277-.3Zm.277,6.242v5.651a12.537,12.537,0,0,0,1.773.129c1.865,0,1.994-.739,1.994-2.9,0-2.383-.24-2.881-2.105-2.881Z" transform="translate(-389.442 2921.145)" fill="#fff"/></g></svg>