<svg xmlns="http://www.w3.org/2000/svg" width="21.734" height="14.294" viewBox="0 0 21.734 14.294"><g transform="translate(2096.707 -3506.644)"><path d="M-1624.583,691.452a.258.258,0,0,1,.3.277v1.976a.258.258,0,0,1-.3.277h-3.859V705.45c0,.2-.092.3-.277.3h-2.345c-.185,0-.277-.092-.277-.3V693.982h-3.859a.245.245,0,0,1-.277-.277v-1.976a.245.245,0,0,1,.277-.277Z" transform="translate(-461.228 2815.192)" fill="#fff"/><path d="M-1611.589,691.452a.259.259,0,0,1,.277.3V695.4a19.277,19.277,0,0,1,1.958-.092c3.527,0,4.45.665,4.45,4.432v5.707c0,.2-.092.3-.277.3h-2.2c-.184,0-.258-.092-.258-.3v-5c0-2.641-.3-2.77-1.995-2.77h-1.662v7.775c0,.2-.092.3-.277.3h-2.216c-.184,0-.259-.092-.259-.3v-13.7a.258.258,0,0,1,.277-.3Z" transform="translate(-470.069 2815.192)" fill="#fff"/></g></svg>