<svg xmlns="http://www.w3.org/2000/svg" width="21.309" height="14.497" viewBox="0 0 21.309 14.497"><g transform="translate(1953.981 -3506.533)"><path d="M-1381.946,696.01c0,3.73-1.367,4.487-5.411,4.487h-2.29v4.875c0,.24-.056.3-.277.3h-2.345c-.222,0-.277-.056-.277-.3V691.725c0-.2.055-.24.277-.259,1.625-.148,3.4-.2,4.913-.2C-1383.313,691.264-1381.946,692.316-1381.946,696.01Zm-7.7-2.217v4.47h1.995c2.2,0,2.77-.3,2.77-2.179,0-1.847-.572-2.291-2.77-2.291Z" transform="translate(-561.435 2815.269)" fill="#fff"/><path d="M-1362.952,698.179c.185,0,.259.092.259.277v9.529c0,.24-.074.277-.259.314a26.484,26.484,0,0,1-4.432.314c-3.546,0-4.45-.665-4.45-4.451v-5.706a.258.258,0,0,1,.3-.277h2.179c.185,0,.259.092.259.277v5.005c0,2.659.3,2.788,1.995,2.788h1.662v-7.793a.245.245,0,0,1,.277-.277Z" transform="translate(-569.978 2812.417)" fill="#fff"/></g></svg>