<svg xmlns="http://www.w3.org/2000/svg" width="20.645" height="14.497" viewBox="0 0 20.645 14.497"><g transform="translate(1811.829 -3355.623)"><path d="M-1141.023,434.677c.277.074.425.184.425.5v1.478a.244.244,0,0,1-.277.277h-3.786c-2.549,0-2.992,1.109-2.992,4.709s.443,4.728,2.992,4.728h3.786a.244.244,0,0,1,.277.277v1.5c0,.3-.147.407-.425.48a18.2,18.2,0,0,1-3.638.277c-4.709,0-5.928-1.662-5.928-7.258s1.219-7.239,5.928-7.239A19.737,19.737,0,0,1-1141.023,434.677Z" transform="translate(-661.24 2921.223)" fill="#fff"/><path d="M-1122.21,434.589c.2,0,.277.092.277.3v13.278a.422.422,0,0,1-.388.462,25.323,25.323,0,0,1-4.063.351c-3.9,0-4.784-1.089-4.784-5.245,0-4.1.868-5.282,4.229-5.282a20.968,20.968,0,0,1,2.271.111v-3.675c0-.2.074-.3.277-.3Zm-4.118,6.242c-1.865,0-2.105.5-2.105,2.881,0,2.179.147,2.9,1.995,2.9a12.526,12.526,0,0,0,1.773-.129v-5.651Z" transform="translate(-669.251 2921.145)" fill="#fff"/></g></svg>