<svg xmlns="http://www.w3.org/2000/svg" width="15.326" height="14.293" viewBox="0 0 15.326 14.293"><g transform="translate(1773.967 -3391.242)"><path d="M-1075.248,495.027a.259.259,0,0,1,.3.277v1.976a.258.258,0,0,1-.3.277h-3.86v11.468c0,.2-.092.3-.277.3h-2.345c-.184,0-.277-.092-.277-.3V497.557h-3.859a.245.245,0,0,1-.277-.277V495.3a.245.245,0,0,1,.277-.277Z" transform="translate(-687.823 2896.215)" fill="#fff"/><path d="M-1062.254,495.027a.245.245,0,0,1,.277.277v13.721c0,.2-.092.3-.277.3h-2.179c-.185,0-.277-.092-.277-.3V495.3a.245.245,0,0,1,.277-.277Z" transform="translate(-696.664 2896.215)" fill="#fff"/></g></svg>