<svg xmlns="http://www.w3.org/2000/svg" width="20.865" height="14.497" viewBox="0 0 20.865 14.497"><g transform="translate(2175.658 -3426.639)"><path d="M-1759.261,560.023c0,2.789-.739,3.9-2.826,4.3l3.14,4.986c.147.2.055.37-.222.37h-2.327a.725.725,0,0,1-.739-.407l-3.028-4.764h-1.7v4.875c0,.24-.056.3-.276.3h-2.346c-.222,0-.277-.056-.277-.3V555.739c0-.2.055-.24.277-.259,1.625-.148,3.4-.2,4.913-.2C-1760.629,555.277-1759.261,556.329-1759.261,560.023Zm-7.7-2.216v4.469h1.995c2.2,0,2.77-.295,2.77-2.179,0-1.846-.573-2.29-2.77-2.29Z" transform="translate(-405.796 2871.362)" fill="#fff"/><path d="M-1740.571,565.211v6.39a.506.506,0,0,1-.406.573,20.261,20.261,0,0,1-4.192.388c-2.77,0-4.229-.3-4.266-3.2.037-2.493,1.33-3.029,3.786-3.029h2.345v-.664c0-.887-.554-1.274-1.736-1.274h-3.342c-.2,0-.259-.055-.259-.277v-1.514c0-.221.074-.259.259-.3a16.914,16.914,0,0,1,3.342-.277C-1741.383,562.035-1740.571,563.217-1740.571,565.211Zm-4.857,2.9c-.96,0-1.292.314-1.292,1.108,0,.887.406,1.126,1.57,1.126a8.794,8.794,0,0,0,1.846-.184v-2.05Z" transform="translate(-414.222 2868.575)" fill="#fff"/></g></svg>