<svg xmlns="http://www.w3.org/2000/svg" width="22.897" height="18.228" viewBox="0 0 22.897 18.228"><g transform="translate(1599.915 -3426.639)"><path d="M-777.925,562.553c0,5.577-1.274,7.221-5.983,7.221s-5.984-1.644-5.984-7.221c0-5.614,1.274-7.276,5.984-7.276S-777.925,556.939-777.925,562.553Zm-9.031,0c0,3.583.5,4.691,3.047,4.691s3.046-1.108,3.046-4.691c0-3.62-.5-4.747-3.046-4.747S-786.956,558.934-786.956,562.553Z" transform="translate(-810.023 2871.362)" fill="#fff"/><path d="M-757.815,562.386a.431.431,0,0,1,.388.461v9.4c-.018,2.77-.553,4.044-4.524,4.044a20.769,20.769,0,0,1-3.416-.259.254.254,0,0,1-.258-.3v-1.4c0-.2.074-.277.258-.277h3.177c1.625,0,2.012-.37,2.012-1.588v-.111a11.768,11.768,0,0,1-2.253.2c-3.361,0-4.265-1.163-4.265-5.411,0-4.026.923-5.115,4.82-5.115A23.938,23.938,0,0,1-757.815,562.386Zm-4.192,2.013c-1.792,0-1.958.7-1.958,2.88,0,2.383.277,2.9,2.143,2.9a10.232,10.232,0,0,0,1.643-.11V564.4Z" transform="translate(-819.591 2868.575)" fill="#fff"/></g></svg>