<svg xmlns="http://www.w3.org/2000/svg" width="21.586" height="14.497" viewBox="0 0 21.586 14.497"><g transform="translate(2175.815 -3249.098)"><path d="M-1759.584,257.055c0,1.995-.573,2.955-2.087,3.232v.055c1.847.221,2.4,1.348,2.4,3.324,0,3.01-1.533,3.915-4.986,3.915-1.514,0-3.97-.055-5.6-.185-.222-.018-.277-.073-.277-.259V253.547c0-.2.055-.24.277-.259,1.625-.148,3.638-.2,5.152-.2C-1761.117,253.085-1759.584,254.082-1759.584,257.055Zm-7.645-1.441v3.675h1.884c2.068,0,2.825-.24,2.825-1.791,0-1.5-.739-1.884-2.475-1.884Zm0,5.762v3.675h2.769c1.589,0,2.253-.369,2.253-1.773,0-1.514-.757-1.9-2.234-1.9Z" transform="translate(-405.686 2996.013)" fill="#fff"/><path d="M-1739.832,264.977v.573c0,.37-.111.5-.591.5h-5.8c.037,1.662.481,1.958,2.087,1.958h3.269a.245.245,0,0,1,.277.277v1.533a.254.254,0,0,1-.259.3,18.925,18.925,0,0,1-3.527.259c-3.73,0-4.635-1.053-4.635-5.264,0-4.229.9-5.263,4.635-5.263C-1740.737,259.843-1739.85,260.859-1739.832,264.977Zm-6.408-.72h3.657c-.019-1.625-.444-2.05-1.792-2.05C-1745.76,262.207-1746.222,262.631-1746.24,264.256Z" transform="translate(-414.398 2993.226)" fill="#fff"/></g></svg>