<svg xmlns="http://www.w3.org/2000/svg" width="27.608" height="14.313" viewBox="0 0 27.608 14.313"><g transform="translate(1992.88 -3320.207)"><path d="M-1443.74,374.119c.185,0,.222.129.24.3l1.329,13.721c.018.2-.092.3-.277.3h-2.345c-.184,0-.258-.093-.276-.3l-.813-8.864-3.324,8.439a.393.393,0,0,1-.388.277h-1.755a.427.427,0,0,1-.388-.277l-3.305-8.439-.813,8.864c-.019.2-.092.3-.277.3h-2.345c-.184,0-.3-.093-.277-.3l1.329-13.7c.018-.185.055-.3.24-.3h2.234a.935.935,0,0,1,1.053.72l3.435,8.994,3.435-8.994a.922.922,0,0,1,1.052-.739Z" transform="translate(-534.124 2946.088)" fill="#fff"/><path d="M-1418.2,385.152v5.707a.264.264,0,0,1-.3.3h-2.179c-.184,0-.277-.093-.277-.3v-5.005c0-2.641-.277-2.77-1.976-2.77h-1.68v7.775c0,.2-.092.3-.277.3h-2.2c-.184,0-.277-.093-.277-.3v-9.548c0-.221.093-.24.277-.277a22.823,22.823,0,0,1,4.414-.314C-1419.119,380.72-1418.2,381.385-1418.2,385.152Z" transform="translate(-547.076 2943.365)" fill="#fff"/></g></svg>