<svg xmlns="http://www.w3.org/2000/svg" width="27.423" height="18.135" viewBox="0 0 27.423 18.135"><g transform="translate(2179.233 -3284.698)"><path d="M-1760.931,313.68c.185,0,.221.129.24.3l1.33,13.721c.019.2-.092.3-.277.3h-2.345c-.185,0-.259-.092-.277-.3l-.813-8.864-3.323,8.44a.394.394,0,0,1-.388.277h-1.754a.427.427,0,0,1-.388-.277l-3.306-8.44-.812,8.864c-.019.2-.093.3-.277.3h-2.345c-.185,0-.3-.092-.277-.3l1.329-13.7c.018-.185.055-.3.24-.3h2.235a.933.933,0,0,1,1.052.72l3.435,8.994,3.435-8.994a.922.922,0,0,1,1.052-.739Z" transform="translate(-403.287 2971.018)" fill="#fff"/><path d="M-1736.167,320.632a.433.433,0,0,1,.388.462v9.4c-.018,2.77-.553,4.044-4.525,4.044a20.769,20.769,0,0,1-3.416-.259.254.254,0,0,1-.259-.295v-1.4c0-.2.074-.277.259-.277h3.177c1.625,0,2.013-.369,2.013-1.588V330.6a11.731,11.731,0,0,1-2.253.2c-3.361,0-4.266-1.163-4.266-5.411,0-4.026.924-5.115,4.82-5.115A24,24,0,0,1-1736.167,320.632Zm-4.192,2.013c-1.791,0-1.958.7-1.958,2.881,0,2.382.277,2.9,2.142,2.9a10.253,10.253,0,0,0,1.644-.111v-5.669Z" transform="translate(-416.031 2968.295)" fill="#fff"/></g></svg>