<svg xmlns="http://www.w3.org/2000/svg" width="21.568" height="14.497" viewBox="0 0 21.568 14.497"><g transform="translate(1954.092 -3391.131)"><path d="M-1380.768,502.115c0,5.577-1.274,7.221-5.984,7.221s-5.983-1.644-5.983-7.221c0-5.614,1.274-7.276,5.983-7.276S-1380.768,496.5-1380.768,502.115Zm-9.031,0c0,3.582.5,4.69,3.047,4.69s3.047-1.108,3.047-4.69c0-3.62-.5-4.747-3.047-4.747S-1389.8,498.5-1389.8,502.115Z" transform="translate(-561.357 2896.292)" fill="#fff"/><path d="M-1362.449,501.837c.222.055.3.129.3.295v1.4c0,.2-.074.3-.314.3h-3.324c-.721,0-1.09.2-1.09.665v.185c0,.351.221.61.886.85l2.364.831a2.566,2.566,0,0,1,1.939,2.771v.3c0,2.141-1.589,2.7-3.934,2.7a37.7,37.7,0,0,1-3.822-.185c-.24,0-.314-.074-.314-.277v-1.5c0-.2.092-.277.314-.277h3.786c.979,0,1.274-.129,1.274-.627v-.167c0-.35-.2-.59-1.016-.868l-2.272-.812a2.685,2.685,0,0,1-1.884-2.807v-.351c0-1.976,1.533-2.659,4.193-2.659A17.6,17.6,0,0,1-1362.449,501.837Z" transform="translate(-570.833 2893.505)" fill="#fff"/></g></svg>