<svg xmlns="http://www.w3.org/2000/svg" width="19.869" height="14.386" viewBox="0 0 19.869 14.386"><g transform="translate(1953.031 -3320.225)"><path d="M-1381.75,374.15a.245.245,0,0,1,.277.277V376.4a.245.245,0,0,1-.277.277h-6.279v3.509h5.706a.258.258,0,0,1,.3.277v1.884a.258.258,0,0,1-.3.277h-5.706v5.522c0,.2-.092.3-.277.3h-2.346c-.184,0-.277-.093-.277-.3V374.427a.245.245,0,0,1,.277-.277Z" transform="translate(-562.102 2946.075)" fill="#fff"/><path d="M-1363.553,385.854v.573c0,.369-.111.5-.591.5h-5.8c.037,1.662.48,1.958,2.087,1.958h3.269a.245.245,0,0,1,.277.277v1.533a.254.254,0,0,1-.259.3,18.977,18.977,0,0,1-3.528.259c-3.73,0-4.635-1.053-4.635-5.264,0-4.229.9-5.263,4.635-5.263C-1364.458,380.72-1363.572,381.736-1363.553,385.854Zm-6.409-.72h3.657c-.018-1.625-.443-2.05-1.792-2.05C-1369.481,383.084-1369.943,383.508-1369.961,385.133Z" transform="translate(-569.609 2943.365)" fill="#fff"/></g></svg>