<svg xmlns="http://www.w3.org/2000/svg" width="11.374" height="14.293" viewBox="0 0 11.374 14.293"><g transform="translate(1912.906 -3391.242)"><path d="M-1320.01,495.027c.184,0,.277.093.277.3v13.7c0,.2-.093.3-.277.3h-2.345c-.185,0-.277-.092-.277-.3v-13.7c0-.2.092-.3.277-.3Z" transform="translate(-590.274 2896.215)" fill="#fff"/><path d="M-1307.845,501.8c.2.056.295.129.295.37v1.514c0,.185-.11.277-.314.277h-1.735c-.961,0-1.293.148-1.293.942v6.832c0,.2-.093.3-.277.3h-2.2c-.185,0-.277-.092-.277-.3V504.2c0-2.327,1.662-2.6,3.342-2.6A14.692,14.692,0,0,1-1307.845,501.8Z" transform="translate(-593.981 2893.505)" fill="#fff"/></g></svg>