<svg xmlns="http://www.w3.org/2000/svg" width="17.819" height="14.294" viewBox="0 0 17.819 14.294"><g transform="translate(1738.588 -3471.135)"><path d="M-1016.4,631.014a.245.245,0,0,1,.277.277v1.976a.245.245,0,0,1-.277.277h-6.629v3.49h6.057a.258.258,0,0,1,.3.277V639.2a.258.258,0,0,1-.3.277h-6.057v3.305h6.629a.245.245,0,0,1,.277.277v1.976a.245.245,0,0,1-.277.277h-9.252c-.185,0-.277-.093-.277-.3V631.291a.245.245,0,0,1,.277-.277Z" transform="translate(-712.662 2840.122)" fill="#fff"/><path d="M-1000.17,637.786c.2.055.3.129.3.37v1.514c0,.184-.11.277-.314.277h-1.736c-.961,0-1.292.148-1.292.942v6.833c0,.2-.092.3-.277.3h-2.2c-.185,0-.277-.093-.277-.3v-7.534c0-2.327,1.662-2.6,3.343-2.6A14.693,14.693,0,0,1-1000.17,637.786Z" transform="translate(-720.894 2837.412)" fill="#fff"/></g></svg>