<svg xmlns="http://www.w3.org/2000/svg" width="19.703" height="14.386" viewBox="0 0 19.703 14.386"><g transform="translate(1633.604 -3471.135)"><path d="M-844.612,631.014a.245.245,0,0,1,.277.277v11.486h6.057a.245.245,0,0,1,.277.277v1.976a.245.245,0,0,1-.277.277h-8.68c-.185,0-.277-.093-.277-.3V631.291a.245.245,0,0,1,.277-.277Z" transform="translate(-786.37 2840.122)" fill="#fff"/><path d="M-820.375,637.74c.185,0,.258.092.258.277v9.529c0,.24-.073.276-.258.314a26.54,26.54,0,0,1-4.432.314c-3.546,0-4.451-.665-4.451-4.45v-5.706a.259.259,0,0,1,.3-.277h2.179c.185,0,.259.092.259.277v5c0,2.66.295,2.789,1.994,2.789h1.662v-7.793a.245.245,0,0,1,.277-.277Z" transform="translate(-793.785 2837.347)" fill="#fff"/></g></svg>