<svg xmlns="http://www.w3.org/2000/svg" width="22.045" height="14.497" viewBox="0 0 22.045 14.497"><g transform="translate(1847.078 -3506.533)"><path d="M-1200.042,695.234c0,1.994-.572,2.955-2.087,3.231v.055c1.847.222,2.4,1.348,2.4,3.324,0,3.01-1.532,3.916-4.986,3.916-1.514,0-3.97-.056-5.595-.185-.221-.018-.277-.074-.277-.258V691.725c0-.2.056-.24.277-.259,1.624-.148,3.637-.2,5.152-.2C-1201.575,691.264-1200.042,692.261-1200.042,695.234Zm-7.645-1.441v3.675h1.884c2.067,0,2.825-.24,2.825-1.791,0-1.5-.739-1.884-2.475-1.884Zm0,5.762v3.675h2.77c1.589,0,2.253-.369,2.253-1.773,0-1.514-.757-1.9-2.234-1.9Z" transform="translate(-636.491 2815.269)" fill="#fff"/><path d="M-1186.478,691.452a.259.259,0,0,1,.277.3v7.2l2.641-3.361a.491.491,0,0,1,.388-.184h2.493c.333,0,.333.147.167.351l-2.973,3.712,3.785,5.781c.13.24.185.5-.314.5h-2.327a.446.446,0,0,1-.406-.2l-3.453-5.447v5.355c0,.2-.093.3-.277.3h-2.179c-.184,0-.277-.092-.277-.3v-13.7a.259.259,0,0,1,.277-.3Z" transform="translate(-645.423 2815.192)" fill="#fff"/></g></svg>