<svg xmlns="http://www.w3.org/2000/svg" width="21.162" height="14.497" viewBox="0 0 21.162 14.497"><g transform="translate(1882.891 -3355.623)"><path d="M-1260.944,439.147c0,3.73-1.367,4.487-5.411,4.487h-2.29v4.875c0,.24-.055.3-.277.3h-2.345c-.221,0-.277-.056-.277-.3V434.862c0-.2.056-.24.277-.258,1.625-.147,3.4-.2,4.912-.2C-1262.311,434.4-1260.944,435.453-1260.944,439.147Zm-7.7-2.217v4.47h1.994c2.2,0,2.77-.3,2.77-2.179,0-1.847-.572-2.291-2.77-2.291Z" transform="translate(-611.347 2921.223)" fill="#fff"/><path d="M-1242.285,434.589c.2,0,.277.092.277.3v13.278a.422.422,0,0,1-.388.462,25.325,25.325,0,0,1-4.063.351c-3.9,0-4.782-1.089-4.782-5.245,0-4.1.868-5.282,4.229-5.282a20.968,20.968,0,0,1,2.271.111v-3.675c0-.2.074-.3.277-.3Zm-4.119,6.242c-1.865,0-2.1.5-2.1,2.881,0,2.179.148,2.9,1.995,2.9a12.535,12.535,0,0,0,1.773-.129v-5.651Z" transform="translate(-619.721 2921.145)" fill="#fff"/></g></svg>