<svg xmlns="http://www.w3.org/2000/svg" width="18.927" height="14.386" viewBox="0 0 18.927 14.386"><g transform="translate(2139.18 -3391.242)"><path d="M-1705.151,495.027a.245.245,0,0,1,.277.277v11.486h6.058a.245.245,0,0,1,.277.277v1.976a.245.245,0,0,1-.277.277h-8.68c-.185,0-.277-.092-.277-.3V495.3a.245.245,0,0,1,.277-.277Z" transform="translate(-431.407 2896.215)" fill="#fff"/><path d="M-1681.781,504.773v6.39a.5.5,0,0,1-.407.572,20.243,20.243,0,0,1-4.192.388c-2.77,0-4.229-.3-4.266-3.195.037-2.493,1.33-3.029,3.786-3.029h2.345v-.665c0-.887-.554-1.274-1.736-1.274h-3.343c-.2,0-.258-.056-.258-.277v-1.514c0-.222.073-.259.258-.3a16.916,16.916,0,0,1,3.343-.277C-1682.594,501.6-1681.781,502.778-1681.781,504.773Zm-4.857,2.9c-.96,0-1.292.314-1.292,1.107,0,.887.406,1.126,1.569,1.126a8.8,8.8,0,0,0,1.847-.184v-2.05Z" transform="translate(-438.472 2893.505)" fill="#fff"/></g></svg>