<svg xmlns="http://www.w3.org/2000/svg" width="20.718" height="14.497" viewBox="0 0 20.718 14.497"><g transform="translate(1918.242 -3320.115)"><path d="M-1322.149,374.239c.277.074.425.185.425.5v1.477a.245.245,0,0,1-.277.277h-3.786c-2.548,0-2.992,1.108-2.992,4.709s.444,4.728,2.992,4.728H-1322a.245.245,0,0,1,.277.277v1.5c0,.3-.148.407-.425.48a18.2,18.2,0,0,1-3.638.277c-4.709,0-5.928-1.662-5.928-7.258s1.219-7.239,5.928-7.239A19.749,19.749,0,0,1-1322.149,374.239Z" transform="translate(-586.527 2946.153)" fill="#fff"/><path d="M-1303.063,385.983c0,4.211-.868,5.264-4.709,5.264-3.823,0-4.709-1.053-4.709-5.264,0-4.229.886-5.263,4.709-5.263C-1303.931,380.72-1303.063,381.754-1303.063,385.983Zm-6.667,0c0,2.327.277,2.9,1.958,2.9,1.7,0,1.976-.572,1.976-2.9s-.277-2.9-1.976-2.9C-1309.452,383.084-1309.73,383.656-1309.73,385.983Z" transform="translate(-594.461 2943.365)" fill="#fff"/></g></svg>