<svg xmlns="http://www.w3.org/2000/svg" width="19.481" height="14.386" viewBox="0 0 19.481 14.386"><g transform="translate(2024.009 -3391.242)"><path d="M-1492.526,495.027c.2,0,.3.074.258.3l-2.308,11.893c-.37,1.958-.739,2.2-2.752,2.2-2.308,0-2.548-.24-3.029-2.2l-1.643-6.98-1.662,6.98c-.462,1.958-.72,2.2-3.01,2.2-2.013,0-2.382-.24-2.77-2.2l-2.29-11.893c-.037-.221.056-.3.24-.3h2.457c.166,0,.221.074.258.3l1.976,10.582c.11.462.184.554.425.554.3,0,.37-.092.48-.554l2.419-10.083a.37.37,0,0,1,.388-.3h2.179a.352.352,0,0,1,.37.3l2.438,10.083c.111.462.166.554.462.554.24,0,.333-.092.425-.554l1.976-10.582c.055-.221.092-.3.277-.3Z" transform="translate(-512.269 2896.215)" fill="#fff"/></g></svg>