<svg xmlns="http://www.w3.org/2000/svg" width="19.611" height="14.497" viewBox="0 0 19.611 14.497"><g transform="translate(2139.606 -3320.115)"><path d="M-1699.319,374.331c.221.074.333.166.333.333v1.5c0,.24-.111.333-.351.333h-4.377c-1.126,0-1.7.388-1.7,1.2v.259c0,.647.259,1.071,1.09,1.385l3.453,1.348a3.407,3.407,0,0,1,2.567,3.712v.518c0,2.733-2.124,3.546-5.319,3.546a28.51,28.51,0,0,1-4.561-.388.347.347,0,0,1-.314-.407v-1.4c0-.221.11-.333.351-.333h5.245c1.108,0,1.681-.332,1.681-1.145v-.24c0-.794-.37-1.163-1.33-1.533l-3.6-1.348c-1.533-.572-2.2-1.625-2.2-3.767v-.407c0-2.733,1.9-3.527,5.171-3.527A18.873,18.873,0,0,1-1699.319,374.331Z" transform="translate(-431.109 2946.153)" fill="#fff"/><path d="M-1681.059,380.96a.328.328,0,0,1,.314.37v1.459c0,.2-.111.3-.314.3h-3.01c-1.7,0-1.958.573-1.958,2.9,0,2.308.259,2.9,1.958,2.9h3.01c.2,0,.314.092.314.277v1.478c0,.222-.111.314-.314.351a15.633,15.633,0,0,1-3.01.259c-3.934,0-4.691-1.053-4.691-5.264,0-4.229.757-5.263,4.691-5.263A17.085,17.085,0,0,1-1681.059,380.96Z" transform="translate(-439.25 2943.365)" fill="#fff"/></g></svg>