<svg xmlns="http://www.w3.org/2000/svg" width="21.476" height="14.497" viewBox="0 0 21.476 14.497"><g transform="translate(1740.859 -3391.131)"><path d="M-1019.19,499.585c0,3.731-1.367,4.487-5.411,4.487h-2.29v4.875c0,.24-.055.3-.277.3h-2.345c-.222,0-.277-.055-.277-.3V495.3c0-.2.056-.24.277-.258,1.625-.148,3.4-.2,4.912-.2C-1020.557,494.839-1019.19,495.891-1019.19,499.585Zm-7.7-2.216v4.469h1.995c2.2,0,2.77-.3,2.77-2.179,0-1.847-.573-2.29-2.77-2.29Z" transform="translate(-711.068 2896.292)" fill="#fff"/><path d="M-1006.529,495.027c.2,0,.277.093.277.3V499a20.969,20.969,0,0,1,2.271-.11c3.361,0,4.248,1.181,4.248,5.282,0,4.155-.9,5.245-4.8,5.245a25.322,25.322,0,0,1-4.063-.351.421.421,0,0,1-.388-.461V495.322c0-.2.074-.3.277-.3Zm.277,6.242v5.652a12.517,12.517,0,0,0,1.773.129c1.865,0,1.994-.739,1.994-2.9,0-2.382-.24-2.881-2.105-2.881Z" transform="translate(-719.65 2896.215)" fill="#fff"/></g></svg>