<svg xmlns="http://www.w3.org/2000/svg" width="18.243" height="14.386" viewBox="0 0 18.243 14.386"><g transform="translate(1633.142 -3426.75)"><path d="M-835.552,555.466a.259.259,0,0,1,.3.277v1.976a.258.258,0,0,1-.3.277h-3.861v11.468c0,.2-.092.3-.276.3h-2.345c-.185,0-.277-.092-.277-.3V558h-3.86a.245.245,0,0,1-.277-.277v-1.976a.245.245,0,0,1,.277-.277Z" transform="translate(-786.694 2871.284)" fill="#fff"/><path d="M-821.819,562.275c.221.056.3.13.3.3v1.4c0,.2-.074.3-.314.3h-3.324c-.72,0-1.089.2-1.089.665v.184c0,.351.221.61.886.85l2.364.831a2.565,2.565,0,0,1,1.939,2.77v.3c0,2.142-1.588,2.7-3.933,2.7a37.784,37.784,0,0,1-3.823-.185c-.24,0-.314-.074-.314-.277v-1.5c0-.2.092-.277.314-.277h3.786c.979,0,1.274-.129,1.274-.627v-.166c0-.351-.2-.591-1.016-.868l-2.271-.812a2.684,2.684,0,0,1-1.884-2.807v-.351c0-1.976,1.532-2.659,4.192-2.659A17.728,17.728,0,0,1-821.819,562.275Z" transform="translate(-793.837 2868.575)" fill="#fff"/></g></svg>