<svg xmlns="http://www.w3.org/2000/svg" width="26.831" height="14.294" viewBox="0 0 26.831 14.294"><g transform="translate(1708.665 -3471.135)"><path d="M-964.1,631.014a.259.259,0,0,1,.3.277v1.976a.259.259,0,0,1-.3.277h-3.861v11.468c0,.2-.092.3-.276.3h-2.345c-.185,0-.277-.093-.277-.3V633.544h-3.86a.245.245,0,0,1-.277-.277v-1.976a.245.245,0,0,1,.277-.277Z" transform="translate(-733.671 2840.122)" fill="#fff"/><path d="M-939.335,641.485l-.018,6.224c0,.2-.093.3-.277.3h-2.179c-.185,0-.277-.093-.277-.3V642.7c0-2.641-.277-2.77-1.754-2.77a9.806,9.806,0,0,0-1.5.111A6.263,6.263,0,0,1-945.1,642l-.018,5.707c0,.2-.074.3-.259.3h-2.2c-.185,0-.258-.093-.258-.3v-5.633c-.019-2.05-.351-2.143-1.773-2.143h-1.256v7.775c0,.2-.092.3-.277.3h-2.179c-.185,0-.277-.093-.277-.3v-9.548c0-.2.074-.24.24-.277a19.62,19.62,0,0,1,3.546-.314,8.124,8.124,0,0,1,3.305.591,9.77,9.77,0,0,1,3.214-.609C-940.406,637.552-939.335,638.365-939.335,641.485Z" transform="translate(-742.499 2837.425)" fill="#fff"/></g></svg>