<svg xmlns="http://www.w3.org/2000/svg" width="21.706" height="14.497" viewBox="0 0 21.706 14.497"><g transform="translate(1705.96 -3320.115)"><path d="M-960.87,376.177l3.251,11.894c.037.221-.055.3-.24.3h-2.364c-.166,0-.184-.074-.24-.3l-1.052-3.841h-4.95l-1.07,3.841c-.056.221-.074.3-.259.3h-2.345c-.2,0-.277-.074-.24-.3l3.305-11.894c.554-2.012.923-2.215,3.066-2.215C-961.775,373.962-961.424,374.165-960.87,376.177Zm-3.6.758-1.348,4.893h3.656l-1.329-4.893c-.13-.444-.148-.536-.518-.536C-964.324,376.4-964.36,376.492-964.471,376.935Z" transform="translate(-735.57 2946.153)" fill="#fff"/><path d="M-939.868,380.96c.221.056.295.13.295.3v1.4c0,.2-.073.3-.314.3h-3.324c-.72,0-1.089.2-1.089.665v.185c0,.351.221.609.886.85l2.364.831a2.565,2.565,0,0,1,1.939,2.77v.3c0,2.143-1.589,2.7-3.934,2.7a37.562,37.562,0,0,1-3.823-.185c-.24,0-.314-.073-.314-.277v-1.5c0-.2.093-.277.314-.277h3.786c.979,0,1.274-.129,1.274-.627v-.167c0-.351-.2-.59-1.016-.868l-2.271-.813a2.685,2.685,0,0,1-1.884-2.807v-.351c0-1.976,1.532-2.659,4.192-2.659A17.667,17.667,0,0,1-939.868,380.96Z" transform="translate(-745.143 2943.365)" fill="#fff"/></g></svg>