<svg xmlns="http://www.w3.org/2000/svg" width="16.812" height="14.405" viewBox="0 0 16.812 14.405"><g transform="translate(1774.779 -3284.606)"><path d="M-1078.007,315.739l3.25,11.893c.037.221-.055.3-.24.3h-2.364c-.166,0-.184-.074-.24-.3l-1.052-3.841h-4.95l-1.071,3.841c-.056.221-.074.3-.258.3h-2.346c-.2,0-.277-.074-.24-.3l3.305-11.893c.555-2.013.924-2.216,3.066-2.216C-1078.911,313.523-1078.561,313.726-1078.007,315.739Zm-3.6.757-1.348,4.894h3.657l-1.33-4.894c-.13-.443-.148-.536-.517-.536C-1081.46,315.961-1081.5,316.053-1081.608,316.5Z" transform="translate(-687.252 2971.083)" fill="#fff"/><path d="M-1061.108,313.712a.245.245,0,0,1,.277.277V327.71c0,.2-.092.3-.277.3h-2.179c-.184,0-.277-.092-.277-.3V313.989a.245.245,0,0,1,.277-.277Z" transform="translate(-697.136 2971.005)" fill="#fff"/></g></svg>