<svg xmlns="http://www.w3.org/2000/svg" width="23.396" height="14.386" viewBox="0 0 23.396 14.386"><g transform="translate(1670.812 -3506.644)"><path d="M-898.967,691.452c.184,0,.277.092.277.3v13.7c0,.2-.092.3-.277.3h-1.717a.969.969,0,0,1-.924-.462l-6.057-8.883v9.049c0,.2-.092.3-.277.3h-2.345c-.185,0-.277-.092-.277-.3v-13.7c0-.2.093-.3.277-.3h1.828a1.053,1.053,0,0,1,1.145.609l5.725,8.366v-8.679c0-.2.092-.3.277-.3Z" transform="translate(-760.247 2815.192)" fill="#fff"/><path d="M-877.355,703.285c0,4.211-.868,5.264-4.709,5.264-3.823,0-4.709-1.053-4.709-5.264,0-4.229.886-5.263,4.709-5.263C-878.223,698.022-877.355,699.056-877.355,703.285Zm-6.667,0c0,2.327.277,2.9,1.958,2.9,1.7,0,1.976-.573,1.976-2.9s-.277-2.9-1.976-2.9C-883.744,700.385-884.022,700.958-884.022,703.285Z" transform="translate(-770.061 2812.481)" fill="#fff"/></g></svg>