<svg xmlns="http://www.w3.org/2000/svg" width="19.398" height="14.497" viewBox="0 0 19.398 14.497"><g transform="translate(1633.669 -3391.131)"><path d="M-837.825,497.054l3.251,11.893c.037.221-.055.3-.24.3h-2.364c-.166,0-.185-.074-.24-.3l-1.052-3.841h-4.95l-1.07,3.841c-.056.221-.074.3-.259.3h-2.345c-.2,0-.277-.074-.24-.3l3.305-11.893c.554-2.012.924-2.215,3.066-2.215C-838.729,494.839-838.378,495.042-837.825,497.054Zm-3.6.757-1.348,4.894h3.657l-1.329-4.894c-.13-.443-.148-.535-.518-.535C-841.278,497.277-841.314,497.369-841.425,497.812Z" transform="translate(-786.325 2896.292)" fill="#fff"/><path d="M-821.191,496.873c.184-.056.3.074.3.277v2.641h1.7c.2,0,.314.092.314.276v1.478c0,.185-.111.277-.314.277h-1.7v5.041c0,.794.277.942,1.09.942h.757c.222,0,.314.074.314.277v1.57a.306.306,0,0,1-.3.35,7.907,7.907,0,0,1-1.569.167c-1.589,0-3.029-.056-3.029-2.382v-5.965h-1.09c-.2,0-.3-.093-.3-.277v-1.478c0-.184.093-.276.3-.276h1.09v-2.05c0-.184.074-.258.258-.3Z" transform="translate(-795.536 2895.459)" fill="#fff"/></g></svg>