<svg xmlns="http://www.w3.org/2000/svg" width="21.753" height="14.497" viewBox="0 0 21.753 14.497"><g transform="translate(1741.135 -3320.115)"><path d="M-1020.382,374.239c.277.074.425.185.425.5v1.477a.245.245,0,0,1-.277.277h-4.1c-2.549,0-2.992,1.09-2.992,4.728,0,3.6.443,4.709,2.992,4.709h2.309v-4.3a.258.258,0,0,1,.276-.3h2.161a.258.258,0,0,1,.277.3v5.245a.855.855,0,0,1-.074.461c-.443.757-2.7,1.127-4.949,1.127-4.709,0-5.928-1.644-5.928-7.239,0-5.614,1.219-7.258,5.928-7.258A25.181,25.181,0,0,1-1020.382,374.239Z" transform="translate(-710.873 2946.153)" fill="#fff"/><path d="M-999.681,385.854v.573c0,.369-.111.5-.591.5h-5.8c.037,1.662.48,1.958,2.087,1.958h3.269a.245.245,0,0,1,.277.277v1.533a.255.255,0,0,1-.259.3,18.976,18.976,0,0,1-3.527.259c-3.73,0-4.635-1.053-4.635-5.264,0-4.229.9-5.263,4.635-5.263C-1000.586,380.72-999.7,381.736-999.681,385.854Zm-6.409-.72h3.657c-.018-1.625-.443-2.05-1.791-2.05C-1005.609,383.084-1006.071,383.508-1006.089,385.133Z" transform="translate(-719.702 2943.365)" fill="#fff"/></g></svg>