<svg xmlns="http://www.w3.org/2000/svg" width="25.963" height="14.497" viewBox="0 0 25.963 14.497"><g transform="translate(1885.476 -3506.533)"><path d="M-1266.378,691.541c.277.073.425.185.425.5v1.478a.244.244,0,0,1-.277.276h-3.786c-2.548,0-2.991,1.109-2.991,4.709s.443,4.728,2.991,4.728h3.786a.245.245,0,0,1,.277.277V705c0,.3-.147.406-.425.481a18.242,18.242,0,0,1-3.638.277c-4.709,0-5.927-1.663-5.927-7.258s1.218-7.239,5.927-7.239A19.742,19.742,0,0,1-1266.378,691.541Z" transform="translate(-609.533 2815.269)" fill="#fff"/><path d="M-1241.762,701.923l-.019,6.224c0,.2-.092.3-.277.3h-2.179c-.185,0-.277-.092-.277-.3v-5c0-2.641-.277-2.77-1.754-2.77a9.81,9.81,0,0,0-1.5.11,6.263,6.263,0,0,1,.24,1.958l-.019,5.707c0,.2-.073.3-.258.3h-2.2c-.185,0-.259-.092-.259-.3v-5.633c-.018-2.05-.351-2.142-1.773-2.142h-1.255v7.775c0,.2-.092.3-.277.3h-2.179c-.184,0-.278-.092-.278-.3V698.6c0-.2.075-.24.241-.277a19.614,19.614,0,0,1,3.546-.314,8.133,8.133,0,0,1,3.305.59,9.77,9.77,0,0,1,3.213-.609C-1242.834,697.99-1241.762,698.8-1241.762,701.923Z" transform="translate(-617.75 2812.495)" fill="#fff"/></g></svg>