<svg xmlns="http://www.w3.org/2000/svg" width="17.264" height="14.7" viewBox="0 0 17.264 14.7"><g transform="translate(1880.832 -3319.819)"><path d="M-1256.442,374.15c.185,0,.277.093.277.3v13.7c0,.2-.092.3-.277.3h-1.717a.971.971,0,0,1-.924-.462l-6.057-8.883v9.049c0,.2-.092.3-.277.3h-2.345c-.185,0-.277-.093-.277-.3v-13.7c0-.2.092-.3.277-.3h1.828a1.053,1.053,0,0,1,1.145.61l5.725,8.366v-8.68c0-.2.093-.3.277-.3Z" transform="translate(-612.793 2946.075)" fill="#fff"/><path d="M-1240.91,374.937a1.406,1.406,0,0,1-1.588,1.5,1.427,1.427,0,0,1-1.625-1.5c0-.942.591-1.478,1.625-1.478A1.393,1.393,0,0,1-1240.91,374.937Zm-.518,2.881a.245.245,0,0,1,.277.277v9.769c0,.2-.093.3-.277.3h-2.179c-.185,0-.277-.093-.277-.3v-9.769a.245.245,0,0,1,.277-.277Z" transform="translate(-622.658 2946.36)" fill="#fff"/></g></svg>