<svg xmlns="http://www.w3.org/2000/svg" width="22.823" height="18.228" viewBox="0 0 22.823 18.228"><g transform="translate(1812.715 -3471.024)"><path d="M-1140.482,638.082c0,5.116-1.644,7.239-5.984,7.239-1.81,0-3.73-.056-5.356-.185-.222-.018-.277-.055-.277-.24V631.286c0-.2.055-.24.277-.258,1.626-.148,3.546-.2,5.356-.2C-1142.126,630.825-1140.482,632.986-1140.482,638.082Zm-8.717-4.728v9.437h2.733c2.235,0,3.047-1.4,3.047-4.709,0-3.287-.85-4.728-3.195-4.728Z" transform="translate(-660.617 2840.199)" fill="#fff"/><path d="M-1120.1,637.74a.245.245,0,0,1,.277.277v9.843c-.018,2.77-.553,4.044-4.524,4.044a19.667,19.667,0,0,1-3.472-.259.254.254,0,0,1-.259-.3v-1.4c0-.2.073-.277.259-.277h3.232c1.625,0,2.012-.37,2.012-1.588v-.111a11.761,11.761,0,0,1-2.253.2c-3.361,0-4.359-1.292-4.359-4.764v-5.393a.245.245,0,0,1,.277-.277h2.2a.245.245,0,0,1,.277.277v4.875c0,2.382.351,2.9,2.217,2.9a10.243,10.243,0,0,0,1.643-.11v-7.664a.245.245,0,0,1,.277-.277Z" transform="translate(-670.067 2837.347)" fill="#fff"/></g></svg>