<svg xmlns="http://www.w3.org/2000/svg" width="23.156" height="14.386" viewBox="0 0 23.156 14.386"><g transform="translate(1599.592 -3249.208)"><path d="M-777.745,253.273c.185,0,.277.093.277.3v13.7c0,.2-.092.295-.277.295h-1.717a.972.972,0,0,1-.924-.461l-6.057-8.883v9.049c0,.2-.093.295-.277.295h-2.345c-.185,0-.277-.092-.277-.295v-13.7c0-.2.092-.3.277-.3h1.828a1.053,1.053,0,0,1,1.145.609l5.725,8.366v-8.68c0-.2.092-.3.277-.3Z" transform="translate(-810.25 2995.936)" fill="#fff"/><path d="M-756.373,264.977v.573c0,.37-.11.5-.591.5h-5.8c.038,1.662.481,1.958,2.087,1.958h3.268a.245.245,0,0,1,.277.277v1.533a.254.254,0,0,1-.259.3,18.927,18.927,0,0,1-3.527.259c-3.731,0-4.635-1.053-4.635-5.264,0-4.229.9-5.263,4.635-5.263C-757.278,259.843-756.391,260.859-756.373,264.977Zm-6.408-.72h3.657c-.019-1.625-.443-2.05-1.791-2.05C-762.3,262.207-762.763,262.631-762.781,264.256Z" transform="translate(-820.064 2993.226)" fill="#fff"/></g></svg>