<svg xmlns="http://www.w3.org/2000/svg" width="20.294" height="14.386" viewBox="0 0 20.294 14.386"><g transform="translate(1989.259 -3355.734)"><path d="M-1441.7,434.589a.258.258,0,0,1,.295.277v1.976a.258.258,0,0,1-.295.277h-3.86v11.468c0,.2-.092.3-.277.3h-2.345c-.185,0-.277-.092-.277-.3V437.119h-3.859a.245.245,0,0,1-.277-.277v-1.976a.245.245,0,0,1,.277-.277Z" transform="translate(-536.667 2921.145)" fill="#fff"/><path d="M-1423.991,441.4a.328.328,0,0,1,.314.37v1.459c0,.2-.111.3-.314.3H-1427c-1.7,0-1.957.572-1.957,2.9,0,2.308.259,2.9,1.957,2.9h3.01c.2,0,.314.092.314.277v1.478c0,.221-.111.314-.314.351a15.577,15.577,0,0,1-3.01.259c-3.933,0-4.69-1.053-4.69-5.263,0-4.229.757-5.264,4.69-5.264A17.075,17.075,0,0,1-1423.991,441.4Z" transform="translate(-545.288 2918.435)" fill="#fff"/></g></svg>