<svg xmlns="http://www.w3.org/2000/svg" width="19.389" height="14.386" viewBox="0 0 19.389 14.386"><g transform="translate(1775.241 -3506.644)"><path d="M-1078.784,691.452a.245.245,0,0,1,.277.277v1.976a.245.245,0,0,1-.277.277h-6.629v3.49h6.057a.258.258,0,0,1,.295.277v1.884a.258.258,0,0,1-.295.277h-6.057v3.305h6.629a.245.245,0,0,1,.277.277v1.976a.245.245,0,0,1-.277.277h-9.252c-.185,0-.277-.092-.277-.3V691.729a.245.245,0,0,1,.277-.277Z" transform="translate(-686.928 2815.192)" fill="#fff"/><path d="M-1061.734,698.262c.221.055.3.129.3.3v1.4c0,.2-.074.3-.314.3h-3.324c-.72,0-1.09.2-1.09.665v.185c0,.351.222.61.886.85l2.364.831a2.566,2.566,0,0,1,1.939,2.771v.3c0,2.141-1.588,2.7-3.933,2.7a37.731,37.731,0,0,1-3.823-.185c-.24,0-.314-.074-.314-.277v-1.5c0-.2.092-.277.314-.277h3.786c.979,0,1.274-.129,1.274-.628v-.166c0-.351-.2-.591-1.016-.868l-2.271-.813a2.685,2.685,0,0,1-1.884-2.807v-.351c0-1.976,1.532-2.659,4.192-2.659A17.663,17.663,0,0,1-1061.734,698.262Z" transform="translate(-694.875 2812.481)" fill="#fff"/></g></svg>