<svg xmlns="http://www.w3.org/2000/svg" width="21.531" height="18.228" viewBox="0 0 21.531 18.228"><g transform="translate(1847.568 -3426.639)"><path d="M-1200.82,560.023c0,2.789-.739,3.9-2.826,4.3l3.14,4.986c.147.2.056.37-.221.37h-2.327a.726.726,0,0,1-.738-.407l-3.029-4.764h-1.7v4.875c0,.24-.056.3-.277.3h-2.345c-.221,0-.277-.056-.277-.3V555.739c0-.2.056-.24.277-.259,1.625-.148,3.4-.2,4.912-.2C-1202.186,555.277-1200.82,556.329-1200.82,560.023Zm-7.7-2.216v4.469h1.994c2.2,0,2.77-.295,2.77-2.179,0-1.846-.573-2.29-2.77-2.29Z" transform="translate(-636.148 2871.362)" fill="#fff"/><path d="M-1181.67,562.386a.431.431,0,0,1,.388.461v9.4c-.019,2.77-.554,4.044-4.524,4.044a20.77,20.77,0,0,1-3.416-.259.254.254,0,0,1-.259-.3v-1.4c0-.2.073-.277.259-.277h3.176c1.626,0,2.013-.37,2.013-1.588v-.111a11.779,11.779,0,0,1-2.253.2c-3.361,0-4.266-1.163-4.266-5.411,0-4.026.924-5.115,4.82-5.115A23.937,23.937,0,0,1-1181.67,562.386Zm-4.192,2.013c-1.791,0-1.958.7-1.958,2.88,0,2.383.277,2.9,2.142,2.9a10.245,10.245,0,0,0,1.644-.11V564.4Z" transform="translate(-644.755 2868.575)" fill="#fff"/></g></svg>