<svg xmlns="http://www.w3.org/2000/svg" width="21.143" height="14.497" viewBox="0 0 21.143 14.497"><g transform="translate(1705.47 -3355.623)"><path d="M-960.379,434.77c.221.073.332.166.332.333v1.5c0,.24-.111.332-.351.332h-4.376c-1.126,0-1.7.388-1.7,1.2v.259c0,.646.258,1.071,1.09,1.385l3.453,1.348a3.406,3.406,0,0,1,2.567,3.712v.517c0,2.733-2.124,3.546-5.319,3.546a28.44,28.44,0,0,1-4.562-.388.347.347,0,0,1-.314-.406v-1.4c0-.222.111-.333.351-.333h5.245c1.108,0,1.68-.333,1.68-1.145v-.24c0-.794-.369-1.163-1.33-1.532l-3.6-1.348c-1.533-.573-2.2-1.626-2.2-3.767v-.407c0-2.733,1.9-3.527,5.171-3.527A18.881,18.881,0,0,1-960.379,434.77Z" transform="translate(-735.913 2921.223)" fill="#fff"/><path d="M-946.861,434.589c.2,0,.277.092.277.3v3.675a20.967,20.967,0,0,1,2.271-.111c3.361,0,4.248,1.182,4.248,5.282,0,4.155-.9,5.245-4.8,5.245a25.316,25.316,0,0,1-4.063-.351.422.422,0,0,1-.388-.462V434.884c0-.2.074-.3.277-.3Zm.277,6.242v5.651a12.527,12.527,0,0,0,1.772.129c1.865,0,1.995-.739,1.995-2.9,0-2.383-.24-2.881-2.105-2.881Z" transform="translate(-744.262 2921.145)" fill="#fff"/></g></svg>