<svg xmlns="http://www.w3.org/2000/svg" width="22.787" height="14.497" viewBox="0 0 22.787 14.497"><g transform="translate(2061.088 -3426.639)"><path d="M-1563.236,562.534c0,5.115-1.644,7.239-5.984,7.239-1.809,0-3.73-.056-5.355-.185-.221-.019-.277-.056-.277-.24v-13.61c0-.2.056-.24.277-.259,1.625-.148,3.546-.2,5.355-.2C-1564.88,555.277-1563.236,557.438-1563.236,562.534Zm-8.717-4.728v9.437h2.733c2.235,0,3.047-1.4,3.047-4.709,0-3.287-.849-4.728-3.195-4.728Z" transform="translate(-486.236 2871.362)" fill="#fff"/><path d="M-1549.359,555.466c.2,0,.277.092.277.3v3.675a20.975,20.975,0,0,1,2.271-.111c3.361,0,4.248,1.182,4.248,5.282,0,4.155-.9,5.245-4.8,5.245a25.252,25.252,0,0,1-4.063-.351.42.42,0,0,1-.388-.461V555.762c0-.2.073-.3.277-.3Zm.277,6.242v5.651a12.532,12.532,0,0,0,1.772.129c1.865,0,1.995-.739,1.995-2.9,0-2.382-.24-2.881-2.106-2.881Z" transform="translate(-495.738 2871.284)" fill="#fff"/></g></svg>