<svg xmlns="http://www.w3.org/2000/svg" width="18.298" height="14.405" viewBox="0 0 18.298 14.405"><g transform="translate(2058.401 -3471.024)"><path d="M-1559.679,635.571c0,3.731-1.367,4.487-5.411,4.487h-2.29v4.876c0,.24-.056.3-.277.3H-1570c-.222,0-.277-.056-.277-.3V631.286c0-.2.055-.24.277-.258,1.625-.148,3.4-.2,4.913-.2C-1561.046,630.825-1559.679,631.877-1559.679,635.571Zm-7.7-2.216v4.469h1.995c2.2,0,2.77-.3,2.77-2.179,0-1.846-.573-2.29-2.77-2.29Z" transform="translate(-488.122 2840.199)" fill="#fff"/><path d="M-1543.707,637.786c.2.055.3.129.3.37v1.514c0,.184-.11.277-.314.277h-1.736c-.96,0-1.292.148-1.292.942v6.833c0,.2-.092.3-.277.3h-2.2c-.184,0-.277-.093-.277-.3v-7.534c0-2.327,1.661-2.6,3.342-2.6A14.693,14.693,0,0,1-1543.707,637.786Z" transform="translate(-496.691 2837.412)" fill="#fff"/></g></svg>