<svg xmlns="http://www.w3.org/2000/svg" width="17.967" height="14.497" viewBox="0 0 17.967 14.497"><g transform="translate(2173.923 -3355.623)"><path d="M-1757.73,434.77c.222.073.333.166.333.333v1.5c0,.24-.111.332-.351.332h-4.377c-1.127,0-1.7.388-1.7,1.2v.259c0,.646.259,1.071,1.09,1.385l3.453,1.348a3.406,3.406,0,0,1,2.567,3.712v.517c0,2.733-2.124,3.546-5.319,3.546a28.44,28.44,0,0,1-4.561-.388.347.347,0,0,1-.314-.406v-1.4c0-.222.11-.333.351-.333h5.245c1.108,0,1.681-.333,1.681-1.145v-.24c0-.794-.37-1.163-1.33-1.532l-3.6-1.348c-1.533-.573-2.2-1.626-2.2-3.767v-.407c0-2.733,1.9-3.527,5.171-3.527A18.881,18.881,0,0,1-1757.73,434.77Z" transform="translate(-407.015 2921.223)" fill="#fff"/><path d="M-1740.9,441.361c.2.056.3.129.3.37v1.514c0,.185-.111.277-.314.277h-1.736c-.961,0-1.292.148-1.292.942V451.3c0,.2-.092.3-.277.3h-2.2c-.185,0-.277-.092-.277-.3v-7.535c0-2.327,1.662-2.6,3.343-2.6A14.7,14.7,0,0,1-1740.9,441.361Z" transform="translate(-415.35 2918.435)" fill="#fff"/></g></svg>