<svg xmlns="http://www.w3.org/2000/svg" width="21.827" height="14.386" viewBox="0 0 21.827 14.386"><g transform="translate(1848.066 -3471.135)"><path d="M-1201.373,631.014a.258.258,0,0,1,.295.277v1.976a.258.258,0,0,1-.295.277h-3.86v11.468c0,.2-.092.3-.277.3h-2.345c-.184,0-.277-.093-.277-.3V633.544h-3.859a.245.245,0,0,1-.277-.277v-1.976a.245.245,0,0,1,.277-.277Z" transform="translate(-635.797 2840.122)" fill="#fff"/><path d="M-1188.41,631.014c.2,0,.277.092.277.3v3.675a20.958,20.958,0,0,1,2.271-.111c3.361,0,4.248,1.182,4.248,5.282,0,4.155-.9,5.245-4.8,5.245a25.328,25.328,0,0,1-4.063-.351.421.421,0,0,1-.388-.461V631.31c0-.2.074-.3.277-.3Zm.277,6.242v5.651a12.527,12.527,0,0,0,1.773.129c1.865,0,1.994-.739,1.994-2.9,0-2.382-.24-2.881-2.105-2.881Z" transform="translate(-644.626 2840.122)" fill="#fff"/></g></svg>