<svg xmlns="http://www.w3.org/2000/svg" width="10.86" height="14.497" viewBox="0 0 10.86 14.497"><g transform="translate(1771.05 -3249.098)"><path d="M-1070.634,257.055c0,1.995-.572,2.955-2.086,3.232v.055c1.847.221,2.4,1.348,2.4,3.324,0,3.01-1.533,3.915-4.987,3.915-1.514,0-3.97-.055-5.6-.185-.221-.018-.277-.073-.277-.259V253.547c0-.2.056-.24.277-.259,1.626-.148,3.638-.2,5.152-.2C-1072.167,253.085-1070.634,254.082-1070.634,257.055Zm-7.645-1.441v3.675h1.884c2.068,0,2.825-.24,2.825-1.791,0-1.5-.739-1.884-2.475-1.884Zm0,5.762v3.675h2.77c1.588,0,2.253-.369,2.253-1.773,0-1.514-.757-1.9-2.235-1.9Z" transform="translate(-689.871 2996.013)" fill="#fff"/></g></svg>