<svg xmlns="http://www.w3.org/2000/svg" width="23.211" height="14.386" viewBox="0 0 23.211 14.386"><g transform="translate(2025.949 -3471.135)"><path d="M-1503.444,631.014c.185,0,.277.092.277.3v13.7c0,.2-.092.3-.277.3h-1.717a.971.971,0,0,1-.924-.462l-6.057-8.883v9.049c0,.2-.093.3-.277.3h-2.345c-.185,0-.277-.093-.277-.3v-13.7c0-.2.092-.3.277-.3h1.828a1.054,1.054,0,0,1,1.146.609l5.725,8.366V631.31c0-.2.092-.3.277-.3Z" transform="translate(-510.907 2840.122)" fill="#fff"/><path d="M-1482.295,631.014c.2,0,.277.092.277.3v13.278a.421.421,0,0,1-.388.461,25.328,25.328,0,0,1-4.063.351c-3.9,0-4.783-1.089-4.783-5.245,0-4.1.868-5.282,4.229-5.282a20.958,20.958,0,0,1,2.271.111V631.31c0-.2.074-.3.277-.3Zm-4.118,6.242c-1.865,0-2.105.5-2.105,2.881,0,2.18.147,2.9,1.994,2.9a12.535,12.535,0,0,0,1.773-.129v-5.651Z" transform="translate(-520.72 2840.122)" fill="#fff"/></g></svg>