<svg xmlns="http://www.w3.org/2000/svg" width="17.874" height="14.497" viewBox="0 0 17.874 14.497"><g transform="translate(1809.65 -3506.533)"><path d="M-1137.315,691.541c.277.073.425.185.425.5v1.478a.244.244,0,0,1-.277.276h-3.786c-2.549,0-2.992,1.109-2.992,4.709s.443,4.728,2.992,4.728h3.786a.245.245,0,0,1,.277.277V705c0,.3-.147.406-.425.481a18.246,18.246,0,0,1-3.638.277c-4.709,0-5.928-1.663-5.928-7.258s1.219-7.239,5.928-7.239A19.746,19.746,0,0,1-1137.315,691.541Z" transform="translate(-662.769 2815.269)" fill="#fff"/><path d="M-1121.705,691.479a.307.307,0,0,1,.3.351v1.533c0,.2-.111.3-.314.3h-1.459c-.72,0-1.033.093-1.033.72v.979h2.253c.2,0,.258.092.221.314l-.277,1.552a.287.287,0,0,1-.314.259h-1.884v7.9c0,.2-.093.3-.277.3h-2.179c-.185,0-.277-.092-.277-.3v-7.9h-1.2c-.2,0-.314-.092-.314-.277v-1.569c0-.185.111-.277.314-.277h1.2V693.9c0-2.327,1.588-2.6,3.25-2.6A11.281,11.281,0,0,1-1121.705,691.479Z" transform="translate(-670.366 2815.256)" fill="#fff"/></g></svg>