<svg xmlns="http://www.w3.org/2000/svg" width="20.866" height="14.497" viewBox="0 0 20.866 14.497"><g transform="translate(1811.912 -3426.639)"><path d="M-1141.165,555.554c.277.073.424.184.424.5v1.477a.244.244,0,0,1-.276.277h-3.786c-2.549,0-2.991,1.109-2.991,4.71s.442,4.728,2.991,4.728h3.786a.244.244,0,0,1,.276.277v1.5c0,.3-.147.406-.424.48a18.2,18.2,0,0,1-3.638.277c-4.709,0-5.928-1.662-5.928-7.258s1.219-7.239,5.928-7.239A19.736,19.736,0,0,1-1141.165,555.554Z" transform="translate(-661.181 2871.362)" fill="#fff"/><path d="M-1121.646,566.467v5.707a.263.263,0,0,1-.3.3h-2.179c-.185,0-.277-.092-.277-.3v-5.005c0-2.641-.277-2.769-1.976-2.769h-1.68v7.775c0,.2-.092.3-.277.3h-2.2c-.184,0-.277-.092-.277-.3v-9.548c0-.222.093-.24.277-.277a22.824,22.824,0,0,1,4.414-.314C-1122.569,562.035-1121.646,562.7-1121.646,566.467Z" transform="translate(-669.4 2868.575)" fill="#fff"/></g></svg>