<svg xmlns="http://www.w3.org/2000/svg" width="19.028" height="14.386" viewBox="0 0 19.028 14.386"><g transform="translate(1668.245 -3426.75)"><path d="M-903.572,555.466a.245.245,0,0,1,.277.277v11.486h6.057a.245.245,0,0,1,.277.277v1.976a.245.245,0,0,1-.277.277h-8.68c-.185,0-.277-.092-.277-.3V555.743a.245.245,0,0,1,.277-.277Z" transform="translate(-762.049 2871.284)" fill="#fff"/><path d="M-881.212,562.192c.184,0,.277.074.24.3l-2.087,7.941c-.535,1.976-.776,2.2-3.01,2.2-2.143,0-2.382-.2-2.918-2.2l-2.161-7.941c-.036-.222.038-.3.241-.3h2.345c.166,0,.185.074.24.3l1.847,7.369c.111.443.166.517.407.517.3,0,.351-.074.461-.517l1.81-7.369c.055-.222.074-.3.24-.3Z" transform="translate(-768.252 2868.51)" fill="#fff"/></g></svg>