<svg xmlns="http://www.w3.org/2000/svg" width="23.284" height="18.116" viewBox="0 0 23.284 18.116"><g transform="translate(1812.937 -3391.242)"><path d="M-1140.84,495.027c.185,0,.277.093.277.3v13.7c0,.2-.092.3-.277.3h-2.345c-.185,0-.277-.092-.277-.3v-5.577h-6.113v5.577c0,.2-.092.3-.277.3h-2.345c-.184,0-.277-.092-.277-.3v-13.7c0-.2.093-.3.277-.3h2.345c.185,0,.277.093.277.3v5.558h6.113v-5.558c0-.2.092-.3.277-.3Z" transform="translate(-660.462 2896.215)" fill="#fff"/><path d="M-1119.739,501.948a.432.432,0,0,1,.388.461v9.4c-.018,2.77-.553,4.044-4.524,4.044a20.818,20.818,0,0,1-3.416-.259.254.254,0,0,1-.259-.3v-1.4c0-.2.074-.277.259-.277h3.176c1.625,0,2.013-.37,2.013-1.589v-.111a11.776,11.776,0,0,1-2.253.2c-3.361,0-4.266-1.164-4.266-5.411,0-4.026.923-5.115,4.82-5.115A24,24,0,0,1-1119.739,501.948Zm-4.192,2.013c-1.792,0-1.958.7-1.958,2.881,0,2.382.277,2.9,2.143,2.9a10.248,10.248,0,0,0,1.643-.11v-5.67Z" transform="translate(-670.301 2893.505)" fill="#fff"/></g></svg>