<svg xmlns="http://www.w3.org/2000/svg" width="18.779" height="14.497" viewBox="0 0 18.779 14.497"><g transform="translate(1632.543 -3320.115)"><path d="M-834.882,377.932c0,1.995-.572,2.955-2.087,3.232v.055c1.847.221,2.4,1.348,2.4,3.324,0,3.01-1.533,3.915-4.987,3.915-1.514,0-3.97-.056-5.6-.185-.221-.018-.277-.073-.277-.259V374.424c0-.2.056-.24.277-.258,1.625-.148,3.638-.2,5.153-.2C-836.415,373.962-834.882,374.959-834.882,377.932Zm-7.645-1.441v3.675h1.884c2.068,0,2.825-.24,2.825-1.791,0-1.5-.739-1.884-2.475-1.884Zm0,5.762v3.675h2.77c1.588,0,2.253-.369,2.253-1.773,0-1.515-.757-1.9-2.235-1.9Z" transform="translate(-787.116 2946.153)" fill="#fff"/><path d="M-818.037,380.923c.2.056.3.13.3.37v1.514c0,.185-.11.277-.314.277h-1.736c-.961,0-1.293.148-1.293.942v6.833c0,.2-.093.3-.277.3h-2.2c-.185,0-.277-.093-.277-.3v-7.535c0-2.327,1.662-2.6,3.342-2.6A14.686,14.686,0,0,1-818.037,380.923Z" transform="translate(-796.022 2943.365)" fill="#fff"/></g></svg>