<svg xmlns="http://www.w3.org/2000/svg" width="21.715" height="14.405" viewBox="0 0 21.715 14.405"><g transform="translate(1918.648 -3355.623)"><path d="M-1321.806,439.147c0,2.788-.738,3.9-2.825,4.3l3.139,4.986c.148.2.056.37-.222.37h-2.326a.727.727,0,0,1-.739-.406l-3.029-4.765h-1.7v4.875c0,.24-.055.3-.277.3h-2.345c-.221,0-.277-.056-.277-.3V434.862c0-.2.055-.24.277-.258,1.625-.147,3.4-.2,4.912-.2C-1323.173,434.4-1321.806,435.453-1321.806,439.147Zm-7.7-2.217v4.47h1.995c2.2,0,2.77-.3,2.77-2.179,0-1.847-.572-2.291-2.77-2.291Z" transform="translate(-586.242 2921.223)" fill="#fff"/><path d="M-1308.549,434.589a.258.258,0,0,1,.277.3v3.656a19.457,19.457,0,0,1,1.958-.092c3.527,0,4.451.665,4.451,4.432v5.707c0,.2-.093.3-.277.3h-2.2c-.185,0-.259-.092-.259-.3v-5.005c0-2.641-.3-2.77-1.994-2.77h-1.662v7.775c0,.2-.093.3-.277.3h-2.216c-.185,0-.259-.092-.259-.3v-13.7a.258.258,0,0,1,.277-.3Z" transform="translate(-595.07 2921.145)" fill="#fff"/></g></svg>