<svg xmlns="http://www.w3.org/2000/svg" width="23.53" height="14.386" viewBox="0 0 23.53 14.386"><g transform="translate(1671.536 -3471.135)"><path d="M-898.866,631.014c.258,0,.37.111.2.406l-5.078,9.307v4.285c0,.2-.092.3-.277.3h-2.345c-.184,0-.277-.093-.277-.3V640.69l-5.078-9.27c-.166-.3-.056-.406.2-.406h2.6a.494.494,0,0,1,.5.3l3.214,6.5,3.232-6.5a.479.479,0,0,1,.5-.3Z" transform="translate(-759.738 2840.122)" fill="#fff"/><path d="M-885.04,631.014c.2,0,.277.092.277.3v3.675a20.957,20.957,0,0,1,2.271-.111c3.361,0,4.248,1.182,4.248,5.282,0,4.155-.9,5.245-4.8,5.245a25.322,25.322,0,0,1-4.063-.351.421.421,0,0,1-.388-.461V631.31c0-.2.074-.3.277-.3Zm.277,6.242v5.651a12.534,12.534,0,0,0,1.773.129c1.865,0,1.994-.739,1.994-2.9,0-2.382-.24-2.881-2.105-2.881Z" transform="translate(-769.763 2840.122)" fill="#fff"/></g></svg>