<svg xmlns="http://www.w3.org/2000/svg" width="19.352" height="14.497" viewBox="0 0 19.352 14.497"><g transform="translate(2210.41 -3391.131)"><path d="M-1819.446,495.116c.277.073.425.184.425.5v1.478a.245.245,0,0,1-.277.277h-3.786c-2.548,0-2.992,1.108-2.992,4.709s.443,4.728,2.992,4.728h3.786a.245.245,0,0,1,.277.277v1.5c0,.3-.148.406-.425.48a18.252,18.252,0,0,1-3.638.277c-4.709,0-5.928-1.662-5.928-7.258s1.219-7.239,5.928-7.239A19.76,19.76,0,0,1-1819.446,495.116Z" transform="translate(-381.398 2896.292)" fill="#fff"/><path d="M-1802.5,501.837c.222.055.3.129.3.295v1.4c0,.2-.074.3-.314.3h-3.324c-.72,0-1.089.2-1.089.665v.185c0,.351.221.61.886.85l2.364.831a2.565,2.565,0,0,1,1.939,2.771v.3c0,2.141-1.588,2.7-3.933,2.7a37.691,37.691,0,0,1-3.822-.185c-.24,0-.314-.074-.314-.277v-1.5c0-.2.092-.277.314-.277h3.785c.979,0,1.275-.129,1.275-.627v-.167c0-.35-.2-.59-1.016-.868l-2.271-.812a2.685,2.685,0,0,1-1.884-2.807v-.351c0-1.976,1.533-2.659,4.192-2.659A17.6,17.6,0,0,1-1802.5,501.837Z" transform="translate(-389.318 2893.505)" fill="#fff"/></g></svg>