<svg xmlns="http://www.w3.org/2000/svg" width="20.774" height="14.497" viewBox="0 0 20.774 14.497"><g transform="translate(1669.703 -3320.115)"><path d="M-899.5,374.331c.221.074.333.166.333.333v1.5c0,.24-.111.333-.351.333H-903.9c-1.126,0-1.7.388-1.7,1.2v.259c0,.647.258,1.071,1.09,1.385l3.453,1.348a3.407,3.407,0,0,1,2.567,3.712v.518c0,2.733-2.124,3.546-5.319,3.546a28.505,28.505,0,0,1-4.561-.388.347.347,0,0,1-.314-.407v-1.4c0-.221.111-.333.351-.333h5.245c1.108,0,1.68-.332,1.68-1.145v-.24c0-.794-.369-1.163-1.33-1.533l-3.6-1.348c-1.532-.572-2.2-1.625-2.2-3.767v-.407c0-2.733,1.9-3.527,5.171-3.527A18.878,18.878,0,0,1-899.5,374.331Z" transform="translate(-761.025 2946.153)" fill="#fff"/><path d="M-879.763,385.854v.573c0,.369-.111.5-.591.5h-5.8c.037,1.662.48,1.958,2.087,1.958h3.269a.245.245,0,0,1,.277.277v1.533a.255.255,0,0,1-.259.3,18.977,18.977,0,0,1-3.527.259c-3.73,0-4.635-1.053-4.635-5.264,0-4.229.9-5.263,4.635-5.263C-880.668,380.72-879.782,381.736-879.763,385.854Zm-6.409-.72h3.657c-.018-1.625-.443-2.05-1.791-2.05C-885.691,383.084-886.153,383.508-886.171,385.133Z" transform="translate(-769.167 2943.365)" fill="#fff"/></g></svg>