<svg xmlns="http://www.w3.org/2000/svg" width="13.609" height="14.699" viewBox="0 0 13.609 14.699"><g transform="translate(2207.455 -3248.803)"><path d="M-1821.361,253.273a.245.245,0,0,1,.277.277v11.486h6.057a.245.245,0,0,1,.277.277v1.976a.245.245,0,0,1-.277.277h-8.68c-.185,0-.277-.092-.277-.295V253.55a.245.245,0,0,1,.277-.277Z" transform="translate(-383.472 2995.936)" fill="#fff"/><path d="M-1803.076,254.06a1.407,1.407,0,0,1-1.588,1.5,1.427,1.427,0,0,1-1.626-1.5c0-.942.591-1.478,1.626-1.478A1.394,1.394,0,0,1-1803.076,254.06Zm-.518,2.881a.245.245,0,0,1,.277.277v9.769c0,.2-.092.295-.277.295h-2.179c-.185,0-.277-.092-.277-.295v-9.769a.245.245,0,0,1,.277-.277Z" transform="translate(-390.77 2996.221)" fill="#fff"/></g></svg>