<svg xmlns="http://www.w3.org/2000/svg" width="21.457" height="14.386" viewBox="0 0 21.457 14.386"><g transform="translate(1670.267 -3355.734)"><path d="M-898.741,434.589a.258.258,0,0,1,.3.277v1.976a.258.258,0,0,1-.3.277h-3.86v11.468c0,.2-.092.3-.277.3h-2.345c-.185,0-.277-.092-.277-.3V437.119h-3.859a.245.245,0,0,1-.277-.277v-1.976a.245.245,0,0,1,.277-.277Z" transform="translate(-760.63 2921.145)" fill="#fff"/><path d="M-879.559,446.292v.573c0,.37-.111.5-.591.5h-5.8c.037,1.662.48,1.958,2.087,1.958h3.269a.245.245,0,0,1,.277.277v1.533a.254.254,0,0,1-.259.3,18.977,18.977,0,0,1-3.527.259c-3.73,0-4.635-1.053-4.635-5.263,0-4.229.9-5.264,4.635-5.264C-880.464,441.158-879.578,442.174-879.559,446.292Zm-6.408-.72h3.656c-.018-1.626-.443-2.05-1.791-2.05C-885.487,443.522-885.949,443.946-885.967,445.572Z" transform="translate(-769.251 2918.435)" fill="#fff"/></g></svg>