<svg xmlns="http://www.w3.org/2000/svg" width="15.695" height="14.792" viewBox="0 0 15.695 14.792"><g transform="translate(1702.507 -3390.836)"><path d="M-953.968,498.809c0,1.994-.572,2.955-2.086,3.232v.055c1.847.222,2.4,1.348,2.4,3.325,0,3.01-1.533,3.915-4.987,3.915-1.514,0-3.97-.056-5.6-.185-.222-.018-.277-.074-.277-.259V495.3c0-.2.056-.24.277-.258,1.626-.148,3.638-.2,5.152-.2C-955.5,494.839-953.968,495.836-953.968,498.809Zm-7.645-1.441v3.675h1.884c2.068,0,2.825-.24,2.825-1.791,0-1.5-.738-1.884-2.475-1.884Zm0,5.762v3.675h2.77c1.588,0,2.253-.37,2.253-1.772,0-1.515-.757-1.9-2.235-1.9Z" transform="translate(-737.994 2896.292)" fill="#fff"/><path d="M-940.055,495.814a1.407,1.407,0,0,1-1.588,1.5,1.427,1.427,0,0,1-1.625-1.5c0-.942.591-1.478,1.625-1.478A1.393,1.393,0,0,1-940.055,495.814Zm-.517,2.881a.245.245,0,0,1,.277.277v9.769c0,.2-.092.3-.277.3h-2.179c-.184,0-.277-.092-.277-.3v-9.769a.245.245,0,0,1,.277-.277Z" transform="translate(-746.757 2896.5)" fill="#fff"/></g></svg>