<svg xmlns="http://www.w3.org/2000/svg" width="26.167" height="14.404" viewBox="0 0 26.167 14.404"><g transform="translate(1707.891 -3426.732)"><path d="M-958.662,555.435c.185,0,.222.129.24.3l1.33,13.721c.018.2-.093.3-.277.3h-2.345c-.185,0-.259-.092-.277-.3l-.812-8.864-3.324,8.44a.393.393,0,0,1-.388.277h-1.754a.427.427,0,0,1-.388-.277l-3.305-8.44-.813,8.864c-.019.2-.093.3-.277.3H-973.4c-.185,0-.3-.092-.277-.3l1.33-13.7c.019-.185.056-.3.24-.3h2.234a.934.934,0,0,1,1.053.72l3.435,8.994,3.435-8.994a.922.922,0,0,1,1.053-.738Z" transform="translate(-734.214 2871.297)" fill="#fff"/><path d="M-935.079,562.275a.328.328,0,0,1,.314.37V564.1c0,.2-.11.3-.314.3h-3.01c-1.7,0-1.958.572-1.958,2.9,0,2.308.258,2.9,1.958,2.9h3.01c.2,0,.314.092.314.277v1.478c0,.222-.11.314-.314.351a15.576,15.576,0,0,1-3.01.259c-3.933,0-4.691-1.053-4.691-5.263,0-4.229.757-5.263,4.691-5.263A17.079,17.079,0,0,1-935.079,562.275Z" transform="translate(-746.959 2868.575)" fill="#fff"/></g></svg>