<svg xmlns="http://www.w3.org/2000/svg" width="17.782" height="14.497" viewBox="0 0 17.782 14.497"><g transform="translate(2022.847 -3320.115)"><path d="M-1500.2,374.239c.277.074.425.185.425.5v1.477a.245.245,0,0,1-.277.277h-3.786c-2.548,0-2.992,1.108-2.992,4.709s.444,4.728,2.992,4.728h3.786a.245.245,0,0,1,.277.277v1.5c0,.3-.148.407-.425.48a18.2,18.2,0,0,1-3.638.277c-4.709,0-5.928-1.662-5.928-7.258s1.219-7.239,5.928-7.239A19.748,19.748,0,0,1-1500.2,374.239Z" transform="translate(-513.085 2946.153)" fill="#fff"/><path d="M-1484.069,380.923c.2.056.3.13.3.37v1.514c0,.185-.111.277-.314.277h-1.735c-.96,0-1.293.148-1.293.942v6.833c0,.2-.092.3-.277.3h-2.2c-.184,0-.277-.093-.277-.3v-7.535c0-2.327,1.662-2.6,3.343-2.6A14.7,14.7,0,0,1-1484.069,380.923Z" transform="translate(-521.291 2943.365)" fill="#fff"/></g></svg>