<svg xmlns="http://www.w3.org/2000/svg" width="23.433" height="14.386" viewBox="0 0 23.433 14.386"><g transform="translate(1777.355 -3471.135)"><path d="M-1080.276,631.014c.184,0,.277.092.277.3v13.7c0,.2-.092.3-.277.3h-2.345c-.184,0-.277-.093-.277-.3v-5.577h-6.113v5.577c0,.2-.092.3-.277.3h-2.346c-.184,0-.277-.093-.277-.3v-13.7c0-.2.092-.3.277-.3h2.346c.184,0,.277.092.277.3v5.558h6.113V631.31c0-.2.092-.3.277-.3Z" transform="translate(-685.444 2840.122)" fill="#fff"/><path d="M-1058.639,642.846c0,4.211-.868,5.264-4.709,5.264-3.823,0-4.71-1.053-4.71-5.264,0-4.228.887-5.263,4.71-5.263C-1059.507,637.583-1058.639,638.618-1058.639,642.846Zm-6.667,0c0,2.327.277,2.9,1.958,2.9,1.7,0,1.976-.573,1.976-2.9s-.277-2.9-1.976-2.9C-1065.029,639.947-1065.306,640.519-1065.306,642.846Z" transform="translate(-695.283 2837.412)" fill="#fff"/></g></svg>