<svg xmlns="http://www.w3.org/2000/svg" width="23.147" height="14.497" viewBox="0 0 23.147 14.497"><g transform="translate(1848.952 -3391.131)"><path d="M-1204.257,497.054l3.25,11.893c.036.221-.056.3-.24.3h-2.364c-.166,0-.185-.074-.24-.3l-1.053-3.841h-4.949l-1.071,3.841c-.056.221-.074.3-.258.3h-2.346c-.2,0-.276-.074-.24-.3l3.306-11.893c.555-2.012.923-2.215,3.066-2.215C-1205.162,494.839-1204.812,495.042-1204.257,497.054Zm-3.6.757-1.348,4.894h3.657l-1.33-4.894c-.129-.443-.148-.535-.517-.535C-1207.71,497.277-1207.747,497.369-1207.859,497.812Z" transform="translate(-635.175 2896.292)" fill="#fff"/><path d="M-1181.057,501.754c.184,0,.259.092.259.277v9.529c0,.24-.075.277-.259.314a26.478,26.478,0,0,1-4.432.314c-3.546,0-4.452-.665-4.452-4.45v-5.707a.259.259,0,0,1,.3-.277h2.179c.185,0,.259.092.259.277v5c0,2.66.3,2.788,1.994,2.788h1.663v-7.793a.245.245,0,0,1,.277-.277Z" transform="translate(-645.008 2893.44)" fill="#fff"/></g></svg>