<svg xmlns="http://www.w3.org/2000/svg" width="21.347" height="14.497" viewBox="0 0 21.347 14.497"><g transform="translate(1669.787 -3391.131)"><path d="M-898.22,499.585c0,3.731-1.367,4.487-5.411,4.487h-2.29v4.875c0,.24-.056.3-.277.3h-2.346c-.221,0-.277-.055-.277-.3V495.3c0-.2.055-.24.277-.258,1.626-.148,3.4-.2,4.913-.2C-899.587,494.839-898.22,495.891-898.22,499.585Zm-7.7-2.216v4.469h1.995c2.2,0,2.77-.3,2.77-2.179,0-1.847-.573-2.29-2.77-2.29Z" transform="translate(-760.967 2896.292)" fill="#fff"/><path d="M-879.1,506.86c0,4.211-.868,5.263-4.71,5.263-3.823,0-4.709-1.053-4.709-5.263,0-4.229.887-5.263,4.709-5.263C-879.967,501.6-879.1,502.631-879.1,506.86Zm-6.667,0c0,2.327.277,2.9,1.958,2.9,1.7,0,1.976-.572,1.976-2.9s-.277-2.9-1.976-2.9C-885.489,503.961-885.766,504.533-885.766,506.86Z" transform="translate(-769.341 2893.505)" fill="#fff"/></g></svg>