<svg xmlns="http://www.w3.org/2000/svg" width="19.314" height="14.293" viewBox="0 0 19.314 14.293"><g transform="translate(2094.796 -3355.734)"><path d="M-1621.109,434.589c.185,0,.277.073.277.277v1.791a.481.481,0,0,1-.129.37l-7.424,9.326h7.424a.259.259,0,0,1,.3.277v1.958a.264.264,0,0,1-.3.3h-10.969c-.184,0-.277-.092-.277-.3l-.019-1.754a.508.508,0,0,1,.129-.37l7.424-9.344h-7.036c-.2,0-.3-.092-.3-.277l-.018-1.976c0-.2.092-.277.3-.277Z" transform="translate(-462.57 2921.145)" fill="#fff"/><path d="M-1603.925,441.361c.2.056.3.129.3.37v1.514c0,.185-.111.277-.314.277h-1.736c-.961,0-1.293.148-1.293.942V451.3c0,.2-.092.3-.277.3h-2.2c-.185,0-.277-.092-.277-.3v-7.535c0-2.327,1.662-2.6,3.343-2.6A14.693,14.693,0,0,1-1603.925,441.361Z" transform="translate(-471.852 2918.435)" fill="#fff"/></g></svg>