<svg xmlns="http://www.w3.org/2000/svg" width="21.78" height="14.497" viewBox="0 0 21.78 14.497"><g transform="translate(2140.981 -3426.639)"><path d="M-1701.319,557.493l3.25,11.893c.037.221-.055.3-.24.3h-2.364c-.166,0-.185-.074-.24-.3l-1.053-3.841h-4.949l-1.071,3.841c-.055.221-.073.3-.258.3h-2.345c-.2,0-.277-.074-.24-.3l3.306-11.893c.554-2.013.923-2.216,3.066-2.216C-1702.223,555.277-1701.873,555.48-1701.319,557.493Zm-3.6.757-1.348,4.894h3.657l-1.33-4.894c-.129-.444-.148-.536-.517-.536C-1704.772,557.715-1704.808,557.807-1704.92,558.25Z" transform="translate(-430.143 2871.362)" fill="#fff"/><path d="M-1679.708,562.275a.328.328,0,0,1,.314.37V564.1c0,.2-.11.3-.314.3h-3.01c-1.7,0-1.957.572-1.957,2.9,0,2.308.259,2.9,1.957,2.9h3.01c.2,0,.314.092.314.277v1.478c0,.222-.11.314-.314.351a15.586,15.586,0,0,1-3.01.259c-3.933,0-4.691-1.053-4.691-5.263,0-4.229.757-5.263,4.691-5.263A17.09,17.09,0,0,1-1679.708,562.275Z" transform="translate(-439.807 2868.575)" fill="#fff"/></g></svg>