<svg xmlns="http://www.w3.org/2000/svg" width="21.014" height="14.497" viewBox="0 0 21.014 14.497"><g transform="translate(2175.732 -3391.131)"><path d="M-1759.443,498.809c0,1.994-.572,2.955-2.087,3.232v.055c1.847.222,2.4,1.348,2.4,3.325,0,3.01-1.533,3.915-4.986,3.915-1.515,0-3.971-.056-5.6-.185-.221-.018-.277-.074-.277-.259V495.3c0-.2.055-.24.277-.258,1.625-.148,3.638-.2,5.152-.2C-1760.976,494.839-1759.443,495.836-1759.443,498.809Zm-7.645-1.441v3.675h1.884c2.068,0,2.825-.24,2.825-1.791,0-1.5-.739-1.884-2.475-1.884Zm0,5.762v3.675h2.77c1.588,0,2.253-.37,2.253-1.772,0-1.515-.757-1.9-2.235-1.9Z" transform="translate(-405.744 2896.292)" fill="#fff"/><path d="M-1740.444,504.773v6.39a.5.5,0,0,1-.406.572,20.254,20.254,0,0,1-4.193.388c-2.77,0-4.229-.3-4.266-3.195.037-2.493,1.33-3.029,3.786-3.029h2.345v-.665c0-.887-.554-1.274-1.736-1.274h-3.342c-.2,0-.259-.056-.259-.277v-1.514c0-.222.074-.259.259-.3a16.909,16.909,0,0,1,3.342-.277C-1741.257,501.6-1740.444,502.778-1740.444,504.773Zm-4.857,2.9c-.96,0-1.292.314-1.292,1.107,0,.887.406,1.126,1.57,1.126a8.789,8.789,0,0,0,1.846-.184v-2.05Z" transform="translate(-414.275 2893.505)" fill="#fff"/></g></svg>