<svg xmlns="http://www.w3.org/2000/svg" width="20.589" height="14.497" viewBox="0 0 20.589 14.497"><g transform="translate(2095.636 -3471.024)"><path d="M-1624.09,631.1c.277.073.425.184.425.5v1.477a.245.245,0,0,1-.277.277h-3.786c-2.548,0-2.992,1.109-2.992,4.709s.444,4.727,2.992,4.727h3.786a.245.245,0,0,1,.277.277v1.5c0,.3-.148.406-.425.48a18.208,18.208,0,0,1-3.638.277c-4.709,0-5.928-1.662-5.928-7.258s1.219-7.239,5.928-7.239A19.742,19.742,0,0,1-1624.09,631.1Z" transform="translate(-461.98 2840.199)" fill="#fff"/><path d="M-1605.055,642.717v.573c0,.37-.111.5-.591.5h-5.8c.036,1.662.48,1.958,2.086,1.958h3.269a.245.245,0,0,1,.277.277v1.533a.255.255,0,0,1-.258.3,18.982,18.982,0,0,1-3.527.258c-3.73,0-4.635-1.053-4.635-5.264,0-4.228.905-5.263,4.635-5.263C-1605.961,637.583-1605.074,638.6-1605.055,642.717Zm-6.408-.72h3.656c-.019-1.626-.443-2.05-1.791-2.05C-1610.984,639.947-1611.445,640.371-1611.464,642Z" transform="translate(-469.991 2837.412)" fill="#fff"/></g></svg>