<svg xmlns="http://www.w3.org/2000/svg" width="21.438" height="14.497" viewBox="0 0 21.438 14.497"><g transform="translate(1989.323 -3391.131)"><path d="M-1442.1,499.585c0,2.788-.739,3.9-2.826,4.3l3.14,4.986c.147.2.055.369-.221.369h-2.327a.724.724,0,0,1-.738-.406l-3.029-4.765h-1.7v4.875c0,.24-.055.3-.277.3h-2.346c-.221,0-.277-.055-.277-.3V495.3c0-.2.056-.24.277-.258,1.626-.148,3.4-.2,4.913-.2C-1443.468,494.839-1442.1,495.891-1442.1,499.585Zm-7.7-2.216v4.469h1.995c2.2,0,2.77-.3,2.77-2.179,0-1.847-.572-2.29-2.77-2.29Z" transform="translate(-536.621 2896.292)" fill="#fff"/><path d="M-1422.656,506.731v.573c0,.37-.111.5-.591.5h-5.8c.037,1.662.48,1.958,2.087,1.958h3.268a.245.245,0,0,1,.277.277v1.532a.254.254,0,0,1-.258.3,18.926,18.926,0,0,1-3.527.259c-3.73,0-4.635-1.053-4.635-5.263,0-4.229.905-5.263,4.635-5.263C-1423.561,501.6-1422.675,502.612-1422.656,506.731Zm-6.409-.72h3.657c-.018-1.625-.443-2.05-1.791-2.05C-1428.584,503.961-1429.046,504.385-1429.065,506.01Z" transform="translate(-545.229 2893.505)" fill="#fff"/></g></svg>