<svg xmlns="http://www.w3.org/2000/svg" width="23.543" height="18.006" viewBox="0 0 23.543 18.006"><g transform="translate(1990.45 -3506.644)"><path d="M-1443.022,691.452c.185,0,.277.092.277.3v13.7c0,.2-.093.3-.277.3h-1.717a.969.969,0,0,1-.923-.462l-6.057-8.883v9.049c0,.2-.092.3-.277.3h-2.346c-.184,0-.277-.092-.277-.3v-13.7c0-.2.092-.3.277-.3h1.828a1.054,1.054,0,0,1,1.146.609l5.725,8.366v-8.679c0-.2.092-.3.277-.3Z" transform="translate(-535.831 2815.192)" fill="#fff"/><path d="M-1421.055,703.137c0,4.248-.9,5.412-4.266,5.412a18.911,18.911,0,0,1-2.271-.111v3.453a.245.245,0,0,1-.277.277h-2.179a.245.245,0,0,1-.277-.277V698.834a.444.444,0,0,1,.388-.461,25.33,25.33,0,0,1,4.063-.351C-1421.979,698.022-1421.055,699.129-1421.055,703.137Zm-6.537-2.751v5.669a13.287,13.287,0,0,0,1.661.111c1.865,0,2.143-.5,2.143-2.881,0-2.179-.148-2.9-1.958-2.9Z" transform="translate(-545.851 2812.481)" fill="#fff"/></g></svg>