<svg xmlns="http://www.w3.org/2000/svg" width="11.296" height="14.294" viewBox="0 0 11.296 14.294"><g transform="translate(2205.692 -3320.225)"><path d="M-1810.455,374.15c.332,0,.314.148.166.351l-4.8,6.223,5.3,7.221c.166.24.185.5-.314.5h-2.586a.445.445,0,0,1-.406-.2l-4.986-6.852v6.759c0,.2-.092.3-.277.3h-2.345c-.184,0-.277-.093-.277-.3V374.427a.245.245,0,0,1,.277-.277h2.345a.245.245,0,0,1,.277.277V380.3l4.635-5.965a.49.49,0,0,1,.388-.185Z" transform="translate(-384.71 2946.075)" fill="#fff"/></g></svg>