<svg xmlns="http://www.w3.org/2000/svg" width="20.7" height="14.497" viewBox="0 0 20.7 14.497"><g transform="translate(1847.364 -3320.115)"><path d="M-1201.508,374.239c.277.074.425.185.425.5v1.477a.246.246,0,0,1-.278.277h-3.785c-2.549,0-2.992,1.108-2.992,4.709s.443,4.728,2.992,4.728h3.785a.246.246,0,0,1,.278.277v1.5c0,.3-.148.407-.425.48a18.2,18.2,0,0,1-3.638.277c-4.709,0-5.928-1.662-5.928-7.258s1.219-7.239,5.928-7.239A19.75,19.75,0,0,1-1201.508,374.239Z" transform="translate(-636.29 2946.153)" fill="#fff"/><path d="M-1182.517,380.877c.184,0,.259.092.259.277v9.529c0,.24-.074.277-.259.314a26.49,26.49,0,0,1-4.432.314c-3.546,0-4.45-.665-4.45-4.451v-5.706a.258.258,0,0,1,.295-.277h2.179c.185,0,.259.092.259.277v5c0,2.659.3,2.788,1.994,2.788h1.663v-7.793a.245.245,0,0,1,.277-.277Z" transform="translate(-644.406 2943.3)" fill="#fff"/></g></svg>