<svg xmlns="http://www.w3.org/2000/svg" width="17.782" height="14.497" viewBox="0 0 17.782 14.497"><g transform="translate(1880.842 -3391.131)"><path d="M-1257.456,499.585c0,3.731-1.366,4.487-5.41,4.487h-2.29v4.875c0,.24-.055.3-.277.3h-2.345c-.222,0-.277-.055-.277-.3V495.3c0-.2.056-.24.277-.258,1.625-.148,3.4-.2,4.912-.2C-1258.823,494.839-1257.456,495.891-1257.456,499.585Zm-7.7-2.216v4.469h1.994c2.2,0,2.77-.3,2.77-2.179,0-1.847-.572-2.29-2.77-2.29Z" transform="translate(-612.786 2896.292)" fill="#fff"/><path d="M-1244.655,496.873c.185-.056.3.074.3.277v2.641h1.7c.2,0,.314.092.314.276v1.478c0,.185-.111.277-.314.277h-1.7v5.041c0,.794.277.942,1.089.942h.757c.222,0,.314.074.314.277v1.57a.307.307,0,0,1-.3.35,7.908,7.908,0,0,1-1.57.167c-1.588,0-3.028-.056-3.028-2.382v-5.965h-1.09c-.2,0-.3-.093-.3-.277v-1.478c0-.184.092-.276.3-.276h1.09v-2.05c0-.184.073-.258.258-.3Z" transform="translate(-620.862 2895.459)" fill="#fff"/></g></svg>