<svg xmlns="http://www.w3.org/2000/svg" width="17.062" height="14.294" viewBox="0 0 17.062 14.294"><g transform="translate(2208.692 -3426.75)"><path d="M-1816.911,555.466a.245.245,0,0,1,.277.277v1.976a.245.245,0,0,1-.277.277h-6.279V561.5h5.707a.258.258,0,0,1,.3.277v1.884a.258.258,0,0,1-.3.277h-5.707v5.521c0,.2-.092.3-.277.3h-2.345c-.184,0-.277-.092-.277-.3V555.743a.245.245,0,0,1,.277-.277Z" transform="translate(-382.603 2871.284)" fill="#fff"/><path d="M-1801.622,562.238c.2.056.3.129.3.37v1.514c0,.184-.111.277-.314.277h-1.736c-.96,0-1.292.147-1.292.942v6.833c0,.2-.093.3-.277.3h-2.2c-.184,0-.277-.092-.277-.3v-7.535c0-2.327,1.662-2.6,3.343-2.6A14.693,14.693,0,0,1-1801.622,562.238Z" transform="translate(-390.304 2868.575)" fill="#fff"/></g></svg>