<svg xmlns="http://www.w3.org/2000/svg" width="24.007" height="14.404" viewBox="0 0 24.007 14.404"><g transform="translate(1919.731 -3426.732)"><path d="M-1319.233,555.435c.184,0,.221.129.24.3l1.329,13.721c.019.2-.092.3-.277.3h-2.345c-.184,0-.258-.092-.277-.3l-.813-8.864-3.324,8.44a.393.393,0,0,1-.388.277h-1.755a.426.426,0,0,1-.388-.277l-3.305-8.44-.813,8.864c-.019.2-.092.3-.277.3h-2.345c-.184,0-.3-.092-.277-.3l1.329-13.7c.018-.185.055-.3.24-.3h2.234a.933.933,0,0,1,1.052.72l3.435,8.994,3.435-8.994a.921.921,0,0,1,1.052-.738Z" transform="translate(-585.482 2871.297)" fill="#fff"/><path d="M-1300.251,557.311c.185-.055.3.074.3.277v2.641h1.7c.2,0,.314.092.314.277v1.477c0,.185-.11.277-.314.277h-1.7V567.3c0,.794.277.942,1.09.942h.757c.221,0,.314.074.314.277v1.57a.307.307,0,0,1-.3.351,7.907,7.907,0,0,1-1.57.166c-1.588,0-3.029-.056-3.029-2.382V562.26h-1.089c-.2,0-.3-.092-.3-.277v-1.477c0-.185.092-.277.3-.277h1.089v-2.05c0-.185.074-.259.259-.3Z" transform="translate(-597.929 2870.529)" fill="#fff"/></g></svg>