<svg xmlns="http://www.w3.org/2000/svg" width="16.693" height="14.294" viewBox="0 0 16.693 14.294"><g transform="translate(1631.499 -3506.644)"><path d="M-841.029,691.452a.245.245,0,0,1,.277.277v11.486h6.057a.245.245,0,0,1,.277.277v1.976a.245.245,0,0,1-.277.277h-8.68c-.185,0-.277-.092-.277-.3V691.729a.245.245,0,0,1,.277-.277Z" transform="translate(-787.848 2815.192)" fill="#fff"/><path d="M-819.812,698.225c.2.056.3.129.3.37v1.514c0,.185-.111.277-.314.277h-1.737c-.96,0-1.293.148-1.293.942v6.833c0,.2-.092.3-.277.3h-2.2c-.185,0-.277-.092-.277-.3v-7.535c0-2.327,1.662-2.6,3.342-2.6A14.7,14.7,0,0,1-819.812,698.225Z" transform="translate(-795.289 2812.481)" fill="#fff"/></g></svg>