<svg xmlns="http://www.w3.org/2000/svg" width="10.193" height="14.497" viewBox="0 0 10.193 14.497"><g transform="translate(1664.404 -3284.606)"><path d="M-890.48,313.893c.221.073.332.166.332.333v1.5c0,.24-.11.333-.351.333h-4.377c-1.126,0-1.7.388-1.7,1.2v.259c0,.646.258,1.071,1.089,1.385l3.453,1.348a3.406,3.406,0,0,1,2.567,3.712v.517c0,2.733-2.124,3.546-5.318,3.546a28.431,28.431,0,0,1-4.561-.388.346.346,0,0,1-.314-.406v-1.4c0-.221.11-.333.35-.333h5.245c1.109,0,1.681-.333,1.681-1.145v-.24c0-.794-.369-1.163-1.33-1.533l-3.6-1.348c-1.532-.573-2.2-1.625-2.2-3.768v-.406c0-2.733,1.9-3.527,5.171-3.527A18.881,18.881,0,0,1-890.48,313.893Z" transform="translate(-764.746 2971.083)" fill="#fff"/></g></svg>