<svg xmlns="http://www.w3.org/2000/svg" width="9.991" height="14.497" viewBox="0 0 9.991 14.497"><g transform="translate(1735.255 -3249.098)"><path d="M-1010.687,253.362c.277.074.425.185.425.5v1.477a.245.245,0,0,1-.277.277h-3.786c-2.549,0-2.992,1.108-2.992,4.709s.443,4.728,2.992,4.728h3.786a.245.245,0,0,1,.277.277v1.5c0,.3-.148.407-.425.48a18.243,18.243,0,0,1-3.638.277c-4.709,0-5.928-1.662-5.928-7.258s1.219-7.239,5.928-7.239A19.746,19.746,0,0,1-1010.687,253.362Z" transform="translate(-715.002 2996.013)" fill="#fff"/></g></svg>