<svg xmlns="http://www.w3.org/2000/svg" width="20.017" height="14.497" viewBox="0 0 20.017 14.497"><g transform="translate(2175.446 -3320.115)"><path d="M-1759.935,374.239c.277.074.425.185.425.5v1.477a.245.245,0,0,1-.276.277h-3.786c-2.549,0-2.992,1.108-2.992,4.709s.443,4.728,2.992,4.728h3.786a.245.245,0,0,1,.276.277v1.5c0,.3-.147.407-.425.48a18.2,18.2,0,0,1-3.638.277c-4.709,0-5.928-1.662-5.928-7.258s1.219-7.239,5.928-7.239A19.747,19.747,0,0,1-1759.935,374.239Z" transform="translate(-405.945 2946.153)" fill="#fff"/><path d="M-1741.655,383.9v6.389a.505.505,0,0,1-.407.573,20.244,20.244,0,0,1-4.192.388c-2.77,0-4.229-.3-4.266-3.195.037-2.493,1.33-3.029,3.786-3.029h2.345v-.665c0-.887-.553-1.274-1.735-1.274h-3.343c-.2,0-.258-.055-.258-.277v-1.514c0-.221.074-.258.258-.3a16.917,16.917,0,0,1,3.343-.277C-1742.468,380.72-1741.655,381.9-1741.655,383.9Zm-4.857,2.9c-.961,0-1.292.314-1.292,1.108,0,.887.406,1.127,1.569,1.127a8.756,8.756,0,0,0,1.847-.185V386.8Z" transform="translate(-413.775 2943.365)" fill="#fff"/></g></svg>