<svg xmlns="http://www.w3.org/2000/svg" width="21.807" height="14.497" viewBox="0 0 21.807 14.497"><g transform="translate(1883.426 -3471.024)"><path d="M-1262.575,631.1c.277.073.425.184.425.5v1.477a.244.244,0,0,1-.277.277h-4.1c-2.549,0-2.992,1.09-2.992,4.728,0,3.6.443,4.709,2.992,4.709h2.308v-4.3a.259.259,0,0,1,.277-.3h2.161a.258.258,0,0,1,.277.3v5.245a.867.867,0,0,1-.073.461c-.443.757-2.7,1.127-4.949,1.127-4.71,0-5.928-1.644-5.928-7.239,0-5.614,1.218-7.257,5.928-7.257A25.12,25.12,0,0,1-1262.575,631.1Z" transform="translate(-610.971 2840.199)" fill="#fff"/><path d="M-1242.1,631.014c.2,0,.277.092.277.3v13.278a.421.421,0,0,1-.388.461,25.328,25.328,0,0,1-4.063.351c-3.9,0-4.783-1.089-4.783-5.245,0-4.1.868-5.282,4.229-5.282a20.97,20.97,0,0,1,2.272.111V631.31c0-.2.074-.3.277-.3Zm-4.118,6.242c-1.865,0-2.105.5-2.105,2.881,0,2.18.147,2.9,1.994,2.9a12.534,12.534,0,0,0,1.773-.129v-5.651Z" transform="translate(-619.799 2840.122)" fill="#fff"/></g></svg>