<svg xmlns="http://www.w3.org/2000/svg" width="20.829" height="14.386" viewBox="0 0 20.829 14.386"><g transform="translate(1918.233 -3471.135)"><path d="M-1322.17,631.014a.245.245,0,0,1,.277.277v1.976a.245.245,0,0,1-.277.277h-6.63v3.49h6.058a.258.258,0,0,1,.3.277V639.2a.258.258,0,0,1-.3.277h-6.058v3.305h6.63a.245.245,0,0,1,.277.277v1.976a.245.245,0,0,1-.277.277h-9.252c-.184,0-.277-.093-.277-.3V631.291a.245.245,0,0,1,.277-.277Z" transform="translate(-586.534 2840.122)" fill="#fff"/><path d="M-1302.923,637.74c.185,0,.259.092.259.277v9.529c0,.24-.074.276-.259.314a26.54,26.54,0,0,1-4.432.314c-3.546,0-4.45-.665-4.45-4.45v-5.706a.259.259,0,0,1,.3-.277h2.179c.185,0,.259.092.259.277v5c0,2.66.3,2.789,1.994,2.789h1.662v-7.793a.245.245,0,0,1,.277-.277Z" transform="translate(-594.739 2837.347)" fill="#fff"/></g></svg>