<svg xmlns="http://www.w3.org/2000/svg" width="25.243" height="14.294" viewBox="0 0 25.243 14.294"><g transform="translate(1742.871 -3506.644)"><path d="M-1024.038,691.452a.245.245,0,0,1,.277.277v1.976a.245.245,0,0,1-.277.277h-6.279v3.508h5.706a.259.259,0,0,1,.3.277v1.884a.259.259,0,0,1-.3.277h-5.706v5.521c0,.2-.093.3-.277.3h-2.345c-.185,0-.277-.092-.277-.3V691.729a.245.245,0,0,1,.277-.277Z" transform="translate(-709.654 2815.192)" fill="#fff"/><path d="M-1000.261,701.923l-.018,6.224c0,.2-.093.3-.277.3h-2.179c-.184,0-.277-.092-.277-.3v-5c0-2.641-.277-2.77-1.754-2.77a9.806,9.806,0,0,0-1.5.11,6.266,6.266,0,0,1,.24,1.958l-.018,5.707c0,.2-.074.3-.258.3h-2.2c-.184,0-.258-.092-.258-.3v-5.633c-.019-2.05-.351-2.142-1.773-2.142h-1.255v7.775c0,.2-.093.3-.277.3h-2.179c-.184,0-.277-.092-.277-.3V698.6c0-.2.074-.24.24-.277a19.62,19.62,0,0,1,3.546-.314,8.137,8.137,0,0,1,3.306.59,9.765,9.765,0,0,1,3.213-.609C-1001.332,697.99-1000.261,698.8-1000.261,701.923Z" transform="translate(-717.367 2812.495)" fill="#fff"/></g></svg>