<svg xmlns="http://www.w3.org/2000/svg" width="23.525" height="14.386" viewBox="0 0 23.525 14.386"><g transform="translate(2061.457 -3355.734)"><path d="M-1563.883,434.589c.185,0,.277.092.277.3v13.7c0,.2-.092.3-.277.3h-1.718a.971.971,0,0,1-.923-.462l-6.057-8.883v9.049c0,.2-.092.3-.277.3h-2.345c-.184,0-.277-.092-.277-.3v-13.7c0-.2.092-.3.277-.3h1.828a1.054,1.054,0,0,1,1.145.609l5.725,8.366v-8.679c0-.2.093-.3.277-.3Z" transform="translate(-485.977 2921.145)" fill="#fff"/><path d="M-1548.731,434.589c.2,0,.277.092.277.3v3.675a20.977,20.977,0,0,1,2.271-.111c3.361,0,4.248,1.182,4.248,5.282,0,4.155-.9,5.245-4.8,5.245a25.329,25.329,0,0,1-4.063-.351.421.421,0,0,1-.388-.462V434.884c0-.2.074-.3.277-.3Zm.277,6.242v5.651a12.536,12.536,0,0,0,1.773.129c1.865,0,1.994-.739,1.994-2.9,0-2.383-.24-2.881-2.1-2.881Z" transform="translate(-495.997 2921.145)" fill="#fff"/></g></svg>