<svg xmlns="http://www.w3.org/2000/svg" width="28.317" height="14.404" viewBox="0 0 28.317 14.404"><g transform="translate(1922.526 -3506.533)"><path d="M-1329.487,693.479l3.25,11.893c.037.221-.055.3-.24.3h-2.364c-.166,0-.184-.074-.24-.3l-1.053-3.841h-4.949l-1.071,3.841c-.056.221-.074.3-.258.3h-2.346c-.2,0-.277-.074-.24-.3l3.306-11.893c.554-2.013.923-2.215,3.065-2.215C-1330.391,691.264-1330.041,691.467-1329.487,693.479Zm-3.6.757-1.348,4.894h3.657l-1.33-4.894c-.129-.444-.147-.536-.517-.536C-1332.94,693.7-1332.977,693.793-1333.088,694.237Z" transform="translate(-583.52 2815.269)" fill="#fff"/><path d="M-1300.817,701.923l-.018,6.224c0,.2-.093.3-.277.3h-2.179c-.184,0-.277-.092-.277-.3v-5c0-2.641-.277-2.77-1.755-2.77a9.8,9.8,0,0,0-1.5.11,6.28,6.28,0,0,1,.24,1.958l-.019,5.707c0,.2-.073.3-.258.3h-2.2c-.185,0-.259-.092-.259-.3v-5.633c-.018-2.05-.351-2.142-1.773-2.142h-1.255v7.775c0,.2-.092.3-.277.3h-2.179c-.184,0-.277-.092-.277-.3V698.6c0-.2.074-.24.24-.277a19.62,19.62,0,0,1,3.546-.314,8.135,8.135,0,0,1,3.305.59,9.769,9.769,0,0,1,3.213-.609C-1301.888,697.99-1300.817,698.8-1300.817,701.923Z" transform="translate(-593.391 2812.495)" fill="#fff"/></g></svg>