<svg xmlns="http://www.w3.org/2000/svg" width="26.48" height="14.405" viewBox="0 0 26.48 14.405"><g transform="translate(1992.047 -3471.024)"><path d="M-1446.737,635.571c0,3.731-1.366,4.487-5.411,4.487h-2.29v4.876c0,.24-.056.3-.277.3h-2.345c-.222,0-.277-.056-.277-.3V631.286c0-.2.055-.24.277-.258,1.625-.148,3.4-.2,4.912-.2C-1448.1,630.825-1446.737,631.877-1446.737,635.571Zm-7.7-2.216v4.469h1.994c2.2,0,2.77-.3,2.77-2.179,0-1.846-.572-2.29-2.77-2.29Z" transform="translate(-534.709 2840.199)" fill="#fff"/><path d="M-1422.276,641.485l-.019,6.224c0,.2-.092.3-.277.3h-2.18c-.185,0-.277-.093-.277-.3V642.7c0-2.641-.277-2.77-1.754-2.77a9.8,9.8,0,0,0-1.5.111,6.263,6.263,0,0,1,.24,1.958l-.019,5.707c0,.2-.074.3-.259.3h-2.2c-.184,0-.259-.093-.259-.3v-5.633c-.018-2.05-.351-2.143-1.773-2.143h-1.255v7.775c0,.2-.093.3-.277.3h-2.179c-.185,0-.277-.093-.277-.3v-9.548c0-.2.074-.24.24-.277a19.6,19.6,0,0,1,3.546-.314,8.129,8.129,0,0,1,3.306.591,9.768,9.768,0,0,1,3.213-.609C-1423.347,637.552-1422.276,638.365-1422.276,641.485Z" transform="translate(-543.291 2837.425)" fill="#fff"/></g></svg>