<svg xmlns="http://www.w3.org/2000/svg" width="14.459" height="14.293" viewBox="0 0 14.459 14.293"><g transform="translate(1772.988 -3355.734)"><path d="M-1081.856,434.589c.185,0,.277.092.277.3v13.7c0,.2-.092.3-.277.3h-2.345c-.185,0-.277-.092-.277-.3v-13.7c0-.2.093-.3.277-.3Z" transform="translate(-688.509 2921.145)" fill="#fff"/><path d="M-1066.3,445.59V451.3a.264.264,0,0,1-.3.3h-2.179c-.185,0-.277-.092-.277-.3v-5.005c0-2.641-.277-2.77-1.976-2.77h-1.68V451.3c0,.2-.093.3-.277.3h-2.2c-.185,0-.277-.092-.277-.3v-9.548c0-.221.092-.24.277-.277a22.821,22.821,0,0,1,4.413-.314C-1067.223,441.158-1066.3,441.823-1066.3,445.59Z" transform="translate(-692.23 2918.435)" fill="#fff"/></g></svg>