<svg xmlns="http://www.w3.org/2000/svg" width="23.432" height="14.294" viewBox="0 0 23.432 14.294"><g transform="translate(1400.974 -400.214)"><path d="M-1080.517,555.466c.184,0,.277.092.277.3v13.7c0,.2-.093.3-.277.3h-1.717a.971.971,0,0,1-.924-.462l-6.057-8.883v9.049c0,.2-.092.3-.277.3h-2.346c-.185,0-.277-.092-.277-.3v-13.7c0-.2.092-.3.277-.3h1.829a1.052,1.052,0,0,1,1.144.609l5.725,8.366v-8.679c0-.2.092-.3.277-.3Z" transform="translate(-308.859 -155.252)" fill="#fff"/><path d="M-1065.334,555.466a.258.258,0,0,1,.277.3v3.656a19.293,19.293,0,0,1,1.958-.092c3.527,0,4.45.665,4.45,4.432v5.706c0,.2-.092.3-.277.3h-2.2c-.185,0-.259-.092-.259-.3v-5c0-2.641-.3-2.77-1.994-2.77h-1.662v7.774c0,.2-.093.3-.277.3h-2.216c-.184,0-.259-.092-.259-.3v-13.7a.258.258,0,0,1,.277-.3Z" transform="translate(-318.893 -155.252)" fill="#fff"/></g></svg>