<svg xmlns="http://www.w3.org/2000/svg" width="21.179" height="14.497" viewBox="0 0 21.179 14.497"><g transform="translate(1882.66 -3426.639)"><path d="M-1259.535,562.534c0,5.115-1.644,7.239-5.984,7.239-1.81,0-3.73-.056-5.355-.185-.221-.019-.277-.056-.277-.24v-13.61c0-.2.055-.24.277-.259,1.625-.148,3.546-.2,5.355-.2C-1261.179,555.277-1259.535,557.438-1259.535,562.534Zm-8.717-4.728v9.437h2.733c2.234,0,3.047-1.4,3.047-4.709,0-3.287-.849-4.728-3.195-4.728Z" transform="translate(-611.509 2871.362)" fill="#fff"/><path d="M-1241.525,562.275c.221.056.3.13.3.3v1.4c0,.2-.074.3-.314.3h-3.324c-.72,0-1.09.2-1.09.665v.184c0,.351.222.61.887.85l2.364.831a2.565,2.565,0,0,1,1.939,2.77v.3c0,2.142-1.588,2.7-3.933,2.7a37.791,37.791,0,0,1-3.823-.185c-.24,0-.314-.074-.314-.277v-1.5c0-.2.092-.277.314-.277h3.786c.979,0,1.274-.129,1.274-.627v-.166c0-.351-.2-.591-1.016-.868l-2.271-.812a2.684,2.684,0,0,1-1.884-2.807v-.351c0-1.976,1.533-2.659,4.192-2.659A17.727,17.727,0,0,1-1241.525,562.275Z" transform="translate(-620.713 2868.575)" fill="#fff"/></g></svg>