<svg xmlns="http://www.w3.org/2000/svg" width="21.955" height="14.386" viewBox="0 0 21.955 14.386"><g transform="translate(1954.064 -3426.75)"><path d="M-1381.053,555.466c.185,0,.277.092.277.3v13.7c0,.2-.092.3-.277.3h-2.345c-.184,0-.277-.092-.277-.3v-5.577h-6.113v5.577c0,.2-.092.3-.277.3h-2.345c-.184,0-.277-.092-.277-.3v-13.7c0-.2.093-.3.277-.3h2.345c.185,0,.277.092.277.3v5.558h6.113v-5.558c0-.2.092-.3.277-.3Z" transform="translate(-561.376 2871.284)" fill="#fff"/><path d="M-1361.742,562.275c.222.056.3.13.3.3v1.4c0,.2-.074.3-.314.3h-3.324c-.721,0-1.09.2-1.09.665v.184c0,.351.222.61.886.85l2.364.831a2.565,2.565,0,0,1,1.939,2.77v.3c0,2.142-1.589,2.7-3.934,2.7a37.779,37.779,0,0,1-3.822-.185c-.24,0-.314-.074-.314-.277v-1.5c0-.2.092-.277.314-.277h3.786c.979,0,1.274-.129,1.274-.627v-.166c0-.351-.2-.591-1.016-.868l-2.271-.812a2.684,2.684,0,0,1-1.884-2.807v-.351c0-1.976,1.533-2.659,4.192-2.659A17.726,17.726,0,0,1-1361.742,562.275Z" transform="translate(-571.125 2868.575)" fill="#fff"/></g></svg>