<svg xmlns="http://www.w3.org/2000/svg" width="27.386" height="14.405" viewBox="0 0 27.386 14.405"><g transform="translate(1708.731 -3506.625)"><path d="M-960.091,691.421c.185,0,.222.129.24.3l1.33,13.721c.018.2-.092.3-.277.3h-2.345c-.184,0-.258-.092-.277-.3l-.812-8.864-3.325,8.44a.392.392,0,0,1-.388.277H-967.7a.426.426,0,0,1-.388-.277l-3.305-8.44-.813,8.864c-.018.2-.092.3-.277.3h-2.345c-.184,0-.3-.092-.277-.3l1.33-13.7c.019-.185.056-.3.24-.3h2.234a.934.934,0,0,1,1.053.72l3.435,8.994,3.435-8.994a.923.923,0,0,1,1.053-.738Z" transform="translate(-733.624 2815.204)" fill="#fff"/><path d="M-935.253,691.452c.2,0,.277.092.277.3v13.278a.421.421,0,0,1-.388.461,25.329,25.329,0,0,1-4.063.351c-3.9,0-4.784-1.09-4.784-5.245,0-4.1.868-5.282,4.229-5.282a20.947,20.947,0,0,1,2.271.111v-3.675c0-.2.074-.3.277-.3Zm-4.118,6.242c-1.865,0-2.105.5-2.105,2.881,0,2.18.148,2.9,1.995,2.9a12.429,12.429,0,0,0,1.773-.129v-5.651Z" transform="translate(-746.369 2815.192)" fill="#fff"/></g></svg>