<svg xmlns="http://www.w3.org/2000/svg" width="21.641" height="14.497" viewBox="0 0 21.641 14.497"><g transform="translate(1954.147 -3355.623)"><path d="M-1382.229,439.147c0,2.788-.739,3.9-2.826,4.3l3.14,4.986c.147.2.055.37-.222.37h-2.327a.725.725,0,0,1-.739-.406l-3.029-4.765h-1.7v4.875c0,.24-.055.3-.277.3h-2.345c-.221,0-.277-.056-.277-.3V434.862c0-.2.056-.24.277-.258,1.625-.147,3.4-.2,4.912-.2C-1383.6,434.4-1382.229,435.453-1382.229,439.147Zm-7.7-2.217v4.47h1.995c2.2,0,2.77-.3,2.77-2.179,0-1.847-.572-2.291-2.77-2.291Z" transform="translate(-561.318 2921.223)" fill="#fff"/><path d="M-1362.67,441.315c.185,0,.259.093.259.277v9.529c0,.24-.074.277-.259.314a26.54,26.54,0,0,1-4.432.314c-3.546,0-4.45-.665-4.45-4.45v-5.706a.259.259,0,0,1,.3-.277h2.179c.185,0,.259.093.259.277V446.6c0,2.659.3,2.788,1.994,2.788h1.662v-7.793a.245.245,0,0,1,.277-.277Z" transform="translate(-570.094 2918.37)" fill="#fff"/></g></svg>