<svg xmlns="http://www.w3.org/2000/svg" width="21.051" height="14.497" viewBox="0 0 21.051 14.497"><g transform="translate(1741.062 -3355.623)"><path d="M-1020.958,434.77c.222.073.333.166.333.333v1.5c0,.24-.111.332-.351.332h-4.377c-1.126,0-1.7.388-1.7,1.2v.259c0,.646.259,1.071,1.09,1.385l3.453,1.348a3.406,3.406,0,0,1,2.567,3.712v.517c0,2.733-2.124,3.546-5.319,3.546a28.436,28.436,0,0,1-4.562-.388.347.347,0,0,1-.314-.406v-1.4c0-.222.112-.333.351-.333h5.245c1.108,0,1.68-.333,1.68-1.145v-.24c0-.794-.369-1.163-1.33-1.532l-3.6-1.348c-1.532-.573-2.2-1.626-2.2-3.767v-.407c0-2.733,1.9-3.527,5.171-3.527A18.881,18.881,0,0,1-1020.958,434.77Z" transform="translate(-710.925 2921.223)" fill="#fff"/><path d="M-1000.737,445.59V451.3a.263.263,0,0,1-.3.3h-2.179c-.185,0-.277-.092-.277-.3v-5.005c0-2.641-.277-2.77-1.976-2.77h-1.68V451.3c0,.2-.092.3-.277.3h-2.2c-.185,0-.277-.092-.277-.3v-9.548c0-.221.093-.24.277-.277a22.827,22.827,0,0,1,4.414-.314C-1001.66,441.158-1000.737,441.823-1000.737,445.59Z" transform="translate(-719.274 2918.435)" fill="#fff"/></g></svg>