<svg xmlns="http://www.w3.org/2000/svg" width="20.866" height="18.228" viewBox="0 0 20.866 18.228"><g transform="translate(2025.063 -3426.639)"><path d="M-1504.356,555.647c.222.073.333.166.333.333v1.5c0,.24-.111.332-.351.332h-4.377c-1.126,0-1.7.388-1.7,1.2v.258c0,.647.259,1.072,1.089,1.385l3.453,1.348a3.406,3.406,0,0,1,2.567,3.712v.517c0,2.733-2.123,3.546-5.318,3.546a28.451,28.451,0,0,1-4.562-.388.347.347,0,0,1-.314-.406v-1.4c0-.222.111-.333.351-.333h5.245c1.107,0,1.68-.332,1.68-1.145v-.24c0-.794-.369-1.163-1.329-1.532l-3.6-1.348c-1.532-.573-2.2-1.626-2.2-3.767V558.8c0-2.733,1.9-3.527,5.171-3.527A18.867,18.867,0,0,1-1504.356,555.647Z" transform="translate(-511.529 2871.362)" fill="#fff"/><path d="M-1484.914,562.386a.432.432,0,0,1,.388.461v9.4c-.018,2.77-.553,4.044-4.524,4.044a20.774,20.774,0,0,1-3.416-.259.254.254,0,0,1-.258-.3v-1.4c0-.2.074-.277.258-.277h3.177c1.625,0,2.013-.37,2.013-1.588v-.111a11.776,11.776,0,0,1-2.253.2c-3.361,0-4.266-1.163-4.266-5.411,0-4.026.924-5.115,4.82-5.115A23.938,23.938,0,0,1-1484.914,562.386Zm-4.192,2.013c-1.791,0-1.958.7-1.958,2.88,0,2.383.277,2.9,2.142,2.9a10.248,10.248,0,0,0,1.644-.11V564.4Z" transform="translate(-519.67 2868.575)" fill="#fff"/></g></svg>