<svg xmlns="http://www.w3.org/2000/svg" width="19.204" height="14.386" viewBox="0 0 19.204 14.386"><g transform="translate(2059.934 -3391.242)"><path d="M-1561.992,495.027a.259.259,0,0,1,.3.277v1.976a.258.258,0,0,1-.3.277h-3.86v11.468c0,.2-.092.3-.277.3h-2.345c-.185,0-.277-.092-.277-.3V497.557h-3.859a.245.245,0,0,1-.277-.277V495.3a.245.245,0,0,1,.277-.277Z" transform="translate(-487.046 2896.215)" fill="#fff"/><path d="M-1546.424,504.773v6.39a.5.5,0,0,1-.406.572,20.246,20.246,0,0,1-4.192.388c-2.77,0-4.229-.3-4.266-3.195.037-2.493,1.329-3.029,3.786-3.029h2.345v-.665c0-.887-.553-1.274-1.736-1.274h-3.343c-.2,0-.259-.056-.259-.277v-1.514c0-.222.074-.259.259-.3a16.917,16.917,0,0,1,3.343-.277C-1547.237,501.6-1546.424,502.778-1546.424,504.773Zm-4.857,2.9c-.961,0-1.293.314-1.293,1.107,0,.887.407,1.126,1.57,1.126a8.788,8.788,0,0,0,1.847-.184v-2.05Z" transform="translate(-494.306 2893.505)" fill="#fff"/></g></svg>