<svg xmlns="http://www.w3.org/2000/svg" width="21.863" height="14.497" viewBox="0 0 21.863 14.497"><g transform="translate(1989.739 -3426.639)"><path d="M-1442.864,559.247c0,1.995-.573,2.955-2.087,3.232v.055c1.846.222,2.4,1.348,2.4,3.324,0,3.01-1.533,3.915-4.986,3.915-1.514,0-3.971-.056-5.6-.185-.221-.019-.277-.074-.277-.259V555.739c0-.2.055-.24.277-.259,1.625-.148,3.638-.2,5.153-.2C-1444.4,555.277-1442.864,556.275-1442.864,559.247Zm-7.646-1.441v3.676h1.884c2.068,0,2.825-.24,2.825-1.791,0-1.5-.739-1.884-2.475-1.884Zm0,5.762v3.675h2.771c1.588,0,2.252-.369,2.252-1.773,0-1.514-.757-1.9-2.234-1.9Z" transform="translate(-536.33 2871.362)" fill="#fff"/><path d="M-1429.3,555.466a.258.258,0,0,1,.277.3v3.656a19.3,19.3,0,0,1,1.958-.092c3.527,0,4.451.665,4.451,4.432v5.706c0,.2-.093.3-.277.3h-2.2c-.185,0-.258-.092-.258-.3v-5c0-2.641-.3-2.77-1.995-2.77H-1429v7.774c0,.2-.093.3-.277.3h-2.215c-.185,0-.259-.092-.259-.3v-13.7a.258.258,0,0,1,.277-.3Z" transform="translate(-545.261 2871.284)" fill="#fff"/></g></svg>