<svg xmlns="http://www.w3.org/2000/svg" width="26.148" height="14.497" viewBox="0 0 26.148 14.497"><g transform="translate(1956.659 -3471.024)"><path d="M-1387.925,631.194c.221.074.332.166.332.333v1.5c0,.241-.11.333-.351.333h-4.376c-1.127,0-1.7.388-1.7,1.2v.258c0,.647.259,1.072,1.089,1.385l3.453,1.348a3.406,3.406,0,0,1,2.567,3.712v.517c0,2.733-2.124,3.546-5.319,3.546a28.506,28.506,0,0,1-4.561-.388.347.347,0,0,1-.314-.407v-1.4c0-.222.111-.333.351-.333h5.245c1.108,0,1.68-.332,1.68-1.144v-.24c0-.794-.37-1.164-1.33-1.532l-3.6-1.348c-1.533-.573-2.2-1.626-2.2-3.767v-.406c0-2.733,1.9-3.527,5.171-3.527A18.925,18.925,0,0,1-1387.925,631.194Z" transform="translate(-559.555 2840.199)" fill="#fff"/><path d="M-1362.607,641.485l-.019,6.224c0,.2-.092.3-.277.3h-2.18c-.185,0-.277-.093-.277-.3V642.7c0-2.641-.277-2.77-1.754-2.77a9.808,9.808,0,0,0-1.5.111,6.263,6.263,0,0,1,.24,1.958l-.019,5.707c0,.2-.074.3-.258.3h-2.2c-.185,0-.259-.093-.259-.3v-5.633c-.018-2.05-.351-2.143-1.772-2.143h-1.256v7.775c0,.2-.093.3-.277.3h-2.179c-.185,0-.277-.093-.277-.3v-9.548c0-.2.074-.24.24-.277a19.606,19.606,0,0,1,3.546-.314,8.125,8.125,0,0,1,3.305.591,9.77,9.77,0,0,1,3.214-.609C-1363.678,637.552-1362.607,638.365-1362.607,641.485Z" transform="translate(-567.904 2837.425)" fill="#fff"/></g></svg>