<svg xmlns="http://www.w3.org/2000/svg" width="20.331" height="14.497" viewBox="0 0 20.331 14.497"><g transform="translate(2059.989 -3506.533)"><path d="M-1562.382,696.01c0,3.73-1.367,4.487-5.41,4.487h-2.29v4.875c0,.24-.056.3-.277.3h-2.345c-.221,0-.277-.056-.277-.3V691.725c0-.2.055-.24.277-.259,1.625-.148,3.4-.2,4.913-.2C-1563.749,691.264-1562.382,692.316-1562.382,696.01Zm-7.7-2.217v4.47h1.995c2.2,0,2.77-.3,2.77-2.179,0-1.847-.572-2.291-2.77-2.291Z" transform="translate(-487.007 2815.269)" fill="#fff"/><path d="M-1544.6,701.2v6.39a.5.5,0,0,1-.406.572,20.257,20.257,0,0,1-4.192.388c-2.77,0-4.229-.3-4.266-3.2.037-2.493,1.329-3.028,3.785-3.028h2.345v-.665c0-.887-.554-1.274-1.736-1.274h-3.343c-.2,0-.259-.055-.259-.277v-1.514c0-.221.074-.258.259-.3a16.915,16.915,0,0,1,3.343-.277C-1545.414,698.022-1544.6,699.2-1544.6,701.2Zm-4.857,2.9c-.96,0-1.292.314-1.292,1.108,0,.887.406,1.126,1.57,1.126a8.823,8.823,0,0,0,1.846-.184V704.1Z" transform="translate(-495.058 2812.481)" fill="#fff"/></g></svg>