<svg xmlns="http://www.w3.org/2000/svg" width="27.571" height="14.405" viewBox="0 0 27.571 14.405"><g transform="translate(2028.25 -3355.715)"><path d="M-1503.942,434.557c.184,0,.221.129.24.3l1.33,13.721c.019.2-.092.3-.277.3h-2.345c-.185,0-.259-.092-.277-.3l-.813-8.864-3.324,8.44a.393.393,0,0,1-.388.277h-1.754a.426.426,0,0,1-.388-.277l-3.306-8.44-.813,8.864c-.018.2-.092.3-.277.3h-2.345c-.184,0-.3-.092-.277-.3l1.33-13.7c.018-.185.055-.3.24-.3h2.234a.934.934,0,0,1,1.053.72l3.435,8.994,3.435-8.994a.923.923,0,0,1,1.053-.739Z" transform="translate(-509.291 2921.158)" fill="#fff"/><path d="M-1478.643,446.422c0,4.21-.868,5.263-4.709,5.263-3.823,0-4.71-1.053-4.71-5.263,0-4.229.887-5.264,4.71-5.264C-1479.51,441.158-1478.643,442.193-1478.643,446.422Zm-6.667,0c0,2.327.277,2.9,1.958,2.9,1.7,0,1.976-.573,1.976-2.9s-.277-2.9-1.976-2.9C-1485.032,443.522-1485.309,444.094-1485.309,446.422Z" transform="translate(-522.036 2918.435)" fill="#fff"/></g></svg>