<svg xmlns="http://www.w3.org/2000/svg" width="13.738" height="14.293" viewBox="0 0 13.738 14.293"><g transform="translate(1737.156 -3426.75)"><path d="M-1014.311,555.466a.245.245,0,0,1,.277.277v1.976a.245.245,0,0,1-.277.277h-6.279V561.5h5.706a.258.258,0,0,1,.3.277v1.884a.259.259,0,0,1-.3.277h-5.706v5.521c0,.2-.092.3-.277.3h-2.346c-.184,0-.277-.092-.277-.3V555.743a.245.245,0,0,1,.277-.277Z" transform="translate(-713.667 2871.284)" fill="#fff"/><path d="M-1002.3,555.466a.245.245,0,0,1,.277.277v13.721c0,.2-.093.3-.277.3h-2.179c-.185,0-.277-.092-.277-.3V555.743a.245.245,0,0,1,.277-.277Z" transform="translate(-721.393 2871.284)" fill="#fff"/></g></svg>