<svg xmlns="http://www.w3.org/2000/svg" width="22.399" height="14.294" viewBox="0 0 22.399 14.294"><g transform="translate(1812.844 -3320.225)"><path d="M-1141.2,374.15c.184,0,.277.074.277.277v1.791a.479.479,0,0,1-.129.369l-7.423,9.326h7.423a.258.258,0,0,1,.3.277v1.958a.264.264,0,0,1-.3.3h-10.969c-.184,0-.277-.093-.277-.3l-.019-1.755a.506.506,0,0,1,.129-.369l7.424-9.344h-7.036c-.2,0-.295-.093-.295-.277l-.019-1.976c0-.2.093-.277.3-.277Z" transform="translate(-660.526 2946.075)" fill="#fff"/><path d="M-1120.624,385.152v5.707a.264.264,0,0,1-.3.3h-2.179c-.185,0-.277-.093-.277-.3v-5.005c0-2.641-.277-2.77-1.976-2.77h-1.681v7.775c0,.2-.092.3-.277.3h-2.2c-.184,0-.277-.093-.277-.3v-9.548c0-.221.092-.24.277-.277a22.827,22.827,0,0,1,4.414-.314C-1121.548,380.72-1120.624,381.385-1120.624,385.152Z" transform="translate(-669.821 2943.365)" fill="#fff"/></g></svg>