<svg xmlns="http://www.w3.org/2000/svg" width="15.566" height="14.7" viewBox="0 0 15.566 14.7"><g transform="translate(2093.54 -3319.819)"><path d="M-1619.194,374.15a.258.258,0,0,1,.3.277V376.4a.258.258,0,0,1-.3.277h-3.859v11.468c0,.2-.092.3-.277.3h-2.345c-.185,0-.277-.093-.277-.3V376.68h-3.859a.245.245,0,0,1-.277-.277v-1.976a.245.245,0,0,1,.277-.277Z" transform="translate(-463.451 2946.075)" fill="#fff"/><path d="M-1605.85,374.937a1.407,1.407,0,0,1-1.588,1.5,1.427,1.427,0,0,1-1.625-1.5c0-.942.591-1.478,1.625-1.478A1.393,1.393,0,0,1-1605.85,374.937Zm-.518,2.881a.245.245,0,0,1,.277.277v9.769c0,.2-.092.3-.277.3h-2.179c-.185,0-.277-.093-.277-.3v-9.769a.245.245,0,0,1,.277-.277Z" transform="translate(-472.124 2946.36)" fill="#fff"/></g></svg>