<svg xmlns="http://www.w3.org/2000/svg" width="22.956" height="14.386" viewBox="0 0 22.956 14.386"><g transform="translate(1600.158 -3355.734)"><path d="M-777.985,434.589c.277,0,.37.147.2.406l-4.322,6.445,4.728,7.037c.2.295.056.406-.2.406h-2.6a.494.494,0,0,1-.5-.3l-3.1-4.875-3.121,4.875a.493.493,0,0,1-.5.3h-2.6c-.258,0-.406-.111-.2-.406l4.728-7.037-4.339-6.445c-.167-.258-.074-.406.2-.406h2.6a.487.487,0,0,1,.5.3l2.733,4.3,2.7-4.3a.486.486,0,0,1,.5-.3Z" transform="translate(-809.853 2921.145)" fill="#fff"/><path d="M-757.677,446.292v.573c0,.37-.111.5-.591.5h-5.8c.037,1.662.48,1.958,2.087,1.958h3.269a.245.245,0,0,1,.277.277v1.533a.255.255,0,0,1-.259.3,18.976,18.976,0,0,1-3.527.259c-3.73,0-4.635-1.053-4.635-5.263,0-4.229.9-5.264,4.635-5.264C-758.582,441.158-757.7,442.174-757.677,446.292Zm-6.409-.72h3.657c-.018-1.626-.443-2.05-1.791-2.05C-763.6,443.522-764.067,443.946-764.085,445.572Z" transform="translate(-819.526 2918.435)" fill="#fff"/></g></svg>