<svg xmlns="http://www.w3.org/2000/svg" width="20.625" height="14.386" viewBox="0 0 20.625 14.386"><g transform="translate(2094.878 -3391.149)"><path d="M-1620.733,495.027c.185,0,.277.093.277.3v13.7c0,.2-.092.3-.277.3h-2.345c-.185,0-.277-.092-.277-.3v-5.577h-6.113v5.577c0,.2-.092.3-.277.3h-2.345c-.185,0-.277-.092-.277-.3v-13.7c0-.2.092-.3.277-.3h2.345c.185,0,.277.093.277.3v5.558h6.113v-5.558c0-.2.092-.3.277-.3Z" transform="translate(-462.512 2896.215)" fill="#fff"/><path d="M-1602.51,495.055a.306.306,0,0,1,.3.35v1.533c0,.2-.111.3-.314.3h-1.46c-.72,0-1.034.092-1.034.72v.979h2.253c.2,0,.258.092.222.314l-.277,1.552a.288.288,0,0,1-.314.258h-1.884v7.9c0,.2-.092.3-.277.3h-2.179c-.185,0-.277-.092-.277-.3v-7.9h-1.2c-.2,0-.314-.092-.314-.277v-1.57c0-.185.111-.277.314-.277h1.2v-1.459c0-2.327,1.588-2.6,3.25-2.6A11.293,11.293,0,0,1-1602.51,495.055Z" transform="translate(-472.039 2896.28)" fill="#fff"/></g></svg>