<svg xmlns="http://www.w3.org/2000/svg" width="22.583" height="14.386" viewBox="0 0 22.583 14.386"><g transform="translate(2212.025 -3284.717)"><path d="M-1820.164,313.712c.185,0,.277.092.277.3v13.7c0,.2-.092.3-.277.3h-1.718a.972.972,0,0,1-.924-.462l-6.057-8.883v9.049c0,.2-.092.3-.277.3h-2.345c-.185,0-.277-.092-.277-.3v-13.7c0-.2.092-.3.277-.3h1.828a1.054,1.054,0,0,1,1.145.609l5.725,8.366v-8.679c0-.2.092-.3.277-.3Z" transform="translate(-380.264 2971.005)" fill="#fff"/><path d="M-1799.547,323.458v6.39a.5.5,0,0,1-.407.572,20.243,20.243,0,0,1-4.192.388c-2.77,0-4.229-.3-4.266-3.195.037-2.493,1.33-3.029,3.786-3.029h2.345v-.664c0-.887-.553-1.274-1.736-1.274h-3.343c-.2,0-.258-.056-.258-.277v-1.514c0-.222.074-.259.258-.3a16.918,16.918,0,0,1,3.343-.277C-1800.36,320.281-1799.547,321.463-1799.547,323.458Zm-4.857,2.9c-.961,0-1.293.314-1.293,1.108,0,.887.407,1.126,1.57,1.126a8.79,8.79,0,0,0,1.847-.184v-2.05Z" transform="translate(-389.895 2968.295)" fill="#fff"/></g></svg>