<svg xmlns="http://www.w3.org/2000/svg" width="20.136" height="14.405" viewBox="0 0 20.136 14.405"><g transform="translate(1598.29 -3284.606)"><path d="M-777.607,315.739l3.25,11.893c.038.221-.055.3-.24.3h-2.364c-.166,0-.185-.074-.24-.3l-1.052-3.841h-4.95l-1.071,3.841c-.055.221-.074.3-.258.3h-2.345c-.2,0-.277-.074-.24-.3l3.305-11.893c.554-2.013.924-2.216,3.065-2.216C-778.511,313.523-778.16,313.726-777.607,315.739Zm-3.6.757-1.348,4.894h3.657l-1.33-4.894c-.129-.443-.148-.536-.518-.536C-781.06,315.961-781.1,316.053-781.207,316.5Z" transform="translate(-811.164 2971.083)" fill="#fff"/><path d="M-757.427,320.484c.2.055.295.129.295.37v1.514c0,.185-.11.277-.314.277h-1.736c-.961,0-1.292.147-1.292.942v6.833c0,.2-.092.3-.277.3h-2.2c-.184,0-.277-.092-.277-.3v-7.535c0-2.327,1.663-2.6,3.343-2.6A14.7,14.7,0,0,1-757.427,320.484Z" transform="translate(-821.023 2968.295)" fill="#fff"/></g></svg>