<svg xmlns="http://www.w3.org/2000/svg" width="21.716" height="14.404" viewBox="0 0 21.716 14.404"><g transform="translate(1599.075 -3391.131)"><path d="M-777.862,499.585c0,2.788-.739,3.9-2.825,4.3l3.139,4.986c.148.2.056.369-.221.369H-780.1a.726.726,0,0,1-.739-.406l-3.029-4.765h-1.7v4.875c0,.24-.056.3-.277.3h-2.345c-.221,0-.277-.055-.277-.3V495.3c0-.2.056-.24.277-.258,1.625-.148,3.4-.2,4.912-.2C-779.228,494.839-777.862,495.891-777.862,499.585Zm-7.7-2.216v4.469h1.994c2.2,0,2.77-.3,2.77-2.179,0-1.847-.573-2.29-2.77-2.29Z" transform="translate(-810.613 2896.292)" fill="#fff"/><path d="M-757.931,506.029v5.706a.264.264,0,0,1-.3.3h-2.179c-.185,0-.277-.092-.277-.3v-5c0-2.641-.277-2.77-1.976-2.77h-1.68v7.775c0,.2-.093.3-.277.3h-2.2c-.185,0-.277-.092-.277-.3v-9.547c0-.221.092-.24.277-.277a22.774,22.774,0,0,1,4.414-.314C-758.854,501.6-757.931,502.261-757.931,506.029Z" transform="translate(-819.428 2893.505)" fill="#fff"/></g></svg>