<svg xmlns="http://www.w3.org/2000/svg" width="10.6" height="14.405" viewBox="0 0 10.6 14.405"><g transform="translate(1699.618 -3284.606)"><path d="M-948.995,318.27c0,3.73-1.367,4.487-5.411,4.487h-2.289v4.875c0,.24-.056.3-.277.3h-2.345c-.222,0-.277-.055-.277-.3V313.985c0-.2.056-.24.277-.259,1.626-.147,3.4-.2,4.912-.2C-950.361,313.523-948.995,314.576-948.995,318.27Zm-7.7-2.216v4.469h1.994c2.2,0,2.77-.295,2.77-2.179,0-1.847-.572-2.29-2.77-2.29Z" transform="translate(-740.023 2971.083)" fill="#fff"/></g></svg>