<svg xmlns="http://www.w3.org/2000/svg" width="14.457" height="14.497" viewBox="0 0 14.457 14.497"><g transform="translate(1631.204 -3284.606)"><path d="M-833.582,313.8c.277.074.424.184.424.5v1.478a.245.245,0,0,1-.276.277h-3.786c-2.549,0-2.991,1.107-2.991,4.709s.442,4.728,2.991,4.728h3.786a.244.244,0,0,1,.276.277v1.5c0,.3-.147.407-.424.481a18.257,18.257,0,0,1-3.638.277c-4.709,0-5.927-1.662-5.927-7.258s1.219-7.239,5.927-7.239A19.743,19.743,0,0,1-833.582,313.8Z" transform="translate(-788.056 2971.083)" fill="#fff"/><path d="M-820.736,313.712a.245.245,0,0,1,.277.277V327.71c0,.2-.092.3-.277.3h-2.179c-.184,0-.277-.092-.277-.3V313.989a.245.245,0,0,1,.277-.277Z" transform="translate(-796.287 2971.005)" fill="#fff"/></g></svg>