<svg xmlns="http://www.w3.org/2000/svg" width="21.18" height="14.497" viewBox="0 0 21.18 14.497"><g transform="translate(1776.561 -3320.115)"><path d="M-1080.68,374.239c.277.074.425.185.425.5v1.477a.245.245,0,0,1-.277.277h-4.1c-2.549,0-2.992,1.09-2.992,4.728,0,3.6.443,4.709,2.992,4.709h2.309v-4.3a.258.258,0,0,1,.277-.3h2.16a.258.258,0,0,1,.277.3v5.245a.855.855,0,0,1-.074.461c-.443.757-2.7,1.127-4.949,1.127-4.709,0-5.928-1.644-5.928-7.239,0-5.614,1.219-7.258,5.928-7.258A25.183,25.183,0,0,1-1080.68,374.239Z" transform="translate(-686.001 2946.153)" fill="#fff"/><path d="M-1060.734,383.9v6.389a.5.5,0,0,1-.406.573,20.244,20.244,0,0,1-4.192.388c-2.77,0-4.229-.3-4.266-3.195.037-2.493,1.33-3.029,3.786-3.029h2.345v-.665c0-.887-.555-1.274-1.736-1.274h-3.343c-.2,0-.258-.055-.258-.277v-1.514c0-.221.074-.258.258-.3a16.917,16.917,0,0,1,3.343-.277C-1061.546,380.72-1060.734,381.9-1060.734,383.9Zm-4.856,2.9c-.961,0-1.293.314-1.293,1.108,0,.887.406,1.127,1.57,1.127a8.767,8.767,0,0,0,1.847-.185V386.8Z" transform="translate(-694.648 2943.365)" fill="#fff"/></g></svg>