<svg xmlns="http://www.w3.org/2000/svg" width="18.373" height="14.294" viewBox="0 0 18.373 14.294"><g transform="translate(1596.832 -3320.225)"><path d="M-774.118,374.15c.333,0,.314.148.167.351l-4.8,6.223,5.3,7.221c.167.24.185.5-.314.5h-2.585a.447.447,0,0,1-.407-.2l-4.986-6.852v6.759c0,.2-.092.3-.277.3h-2.345c-.184,0-.277-.093-.277-.3V374.427a.245.245,0,0,1,.277-.277h2.345a.245.245,0,0,1,.277.277V380.3l4.635-5.965a.49.49,0,0,1,.388-.185Z" transform="translate(-812.188 2946.075)" fill="#fff"/><path d="M-757.945,380.923c.2.056.3.13.3.37v1.514c0,.185-.111.277-.314.277H-759.7c-.961,0-1.292.148-1.292.942v6.833c0,.2-.093.3-.277.3h-2.2c-.185,0-.277-.093-.277-.3v-7.535c0-2.327,1.662-2.6,3.342-2.6A14.694,14.694,0,0,1-757.945,380.923Z" transform="translate(-820.809 2943.365)" fill="#fff"/></g></svg>