<svg xmlns="http://www.w3.org/2000/svg" width="23.193" height="14.386" viewBox="0 0 23.193 14.386"><g transform="translate(1599.611 -3213.701)"><path d="M-777.74,192.835c.184,0,.277.092.277.3v13.7c0,.2-.092.3-.277.3h-2.345c-.185,0-.277-.092-.277-.3v-5.577h-6.113v5.577c0,.2-.092.3-.277.3H-789.1c-.185,0-.277-.092-.277-.3v-13.7c0-.2.092-.3.277-.3h2.345c.184,0,.277.092.277.3v5.558h6.113v-5.558c0-.2.092-.3.277-.3Z" transform="translate(-810.237 3020.866)" fill="#fff"/><path d="M-756.342,204.538v.572c0,.37-.111.5-.591.5h-5.8c.037,1.662.48,1.958,2.087,1.958h3.269a.245.245,0,0,1,.277.277v1.532a.254.254,0,0,1-.259.3,18.93,18.93,0,0,1-3.527.259c-3.73,0-4.635-1.053-4.635-5.263,0-4.229.905-5.264,4.635-5.264C-757.248,199.4-756.361,200.42-756.342,204.538Zm-6.409-.72h3.657c-.018-1.625-.443-2.05-1.791-2.05C-762.27,201.768-762.732,202.193-762.751,203.818Z" transform="translate(-820.076 3018.156)" fill="#fff"/></g></svg>