<svg xmlns="http://www.w3.org/2000/svg" xmlns:xlink="http://www.w3.org/1999/xlink" width="288.488" height="138.971" viewBox="0 0 288.488 138.971"><defs><filter id="a" x="-13.977" y="-55" width="318.488" height="220.672" filterUnits="userSpaceOnUse"><feOffset dy="3" input="SourceAlpha"/><feGaussianBlur stdDeviation="5" result="b"/><feFlood flood-opacity="0.102"/><feComposite operator="in" in2="b"/><feComposite in="SourceGraphic"/></filter><filter id="c" x="146.341" y="-54" width="318.488" height="220.672" filterUnits="userSpaceOnUse"><feOffset dy="3" input="SourceAlpha"/><feGaussianBlur stdDeviation="5" result="d"/><feFlood flood-opacity="0.102"/><feComposite operator="in" in2="d"/><feComposite in="SourceGraphic"/></filter><filter id="e" x="116.341" y="-24" width="318.488" height="220.672" filterUnits="userSpaceOnUse"><feOffset dy="3" input="SourceAlpha"/><feGaussianBlur stdDeviation="5" result="f"/><feFlood flood-opacity="0.102"/><feComposite operator="in" in2="f"/><feComposite in="SourceGraphic"/></filter></defs><g transform="translate(-337 -210)"><g transform="translate(337 210.001)"><g fill="#fff" stroke="#dbdbdb" stroke-width="1"><rect width="288.489" height="138.97" rx="5" stroke="none"/><rect x="0.5" y="0.5" width="287.489" height="137.97" rx="4.5" fill="none"/></g><text transform="translate(24.552 12)" fill="#7c848e" font-size="14" font-family="OpenSans-Regular, Open Sans" letter-spacing="0.019em"><tspan x="0" y="15">Area of the cylinder is</tspan><tspan x="0" y="45">and the volume is </tspan></text><g transform="translate(-176.683 -209.001)"><g transform="translate(338 210.001)"><g transform="translate(22.232 9)" fill="none" stroke="#e6e6e6" stroke-width="1"><rect width="88" height="25" rx="4" stroke="none"/><rect x="0.5" y="0.5" width="87" height="24" rx="3.5" fill="none"/></g></g></g><g transform="translate(-206.683 -179.001)"><g transform="translate(338 210.001)"><g transform="translate(22.232 9)" fill="none" stroke="#e6e6e6" stroke-width="1"><rect width="88" height="25" rx="4" stroke="none"/><rect x="0.5" y="0.5" width="87" height="24" rx="3.5" fill="none"/></g></g></g></g></g></svg>