<svg xmlns="http://www.w3.org/2000/svg" xmlns:xlink="http://www.w3.org/1999/xlink" width="288.49" height="138.967" viewBox="0 0 288.49 138.967"><defs><filter id="a" x="-13.977" y="-55" width="318.489" height="220.672" filterUnits="userSpaceOnUse"><feOffset dy="3" input="SourceAlpha"/><feGaussianBlur stdDeviation="5" result="b"/><feFlood flood-opacity="0.102"/><feComposite operator="in" in2="b"/><feComposite in="SourceGraphic"/></filter><filter id="c" x="-13.977" y="-7" width="318.489" height="220.672" filterUnits="userSpaceOnUse"><feOffset dy="3" input="SourceAlpha"/><feGaussianBlur stdDeviation="5" result="d"/><feFlood flood-opacity="0.102"/><feComposite operator="in" in2="d"/><feComposite in="SourceGraphic"/></filter></defs><g transform="translate(-337 -210)"><g transform="translate(337 210.001)"><g fill="#fff" stroke="#dbdbdb" stroke-width="1"><rect width="140" height="42.966" rx="5" stroke="none"/><rect x="0.5" y="0.5" width="139" height="41.966" rx="4.5" fill="none"/></g><path d="M8.852,14.508H7.313V17H5.523V14.508H.3V13.094L5.523,5.547H7.313v7.438H8.852ZM5.523,12.984V10.117q0-1.531.078-2.508H5.539a8.862,8.862,0,0,1-.687,1.25L2.016,12.984Z" transform="translate(24.552 12)" fill="#7c848e"/></g><g transform="translate(485 210.001)"><g fill="#fff" stroke="#dbdbdb" stroke-width="1"><rect width="140" height="42.966" rx="5" stroke="none"/><rect x="0.5" y="0.5" width="139" height="41.966" rx="4.5" fill="none"/></g><path d="M8.445,11.289a8.125,8.125,0,0,1-.957,4.422,3.267,3.267,0,0,1-2.926,1.445,3.243,3.243,0,0,1-2.891-1.492,7.979,7.979,0,0,1-.984-4.375,8.17,8.17,0,0,1,.957-4.457A3.268,3.268,0,0,1,4.563,5.4a3.246,3.246,0,0,1,2.9,1.5A8.039,8.039,0,0,1,8.445,11.289Zm-5.9,0a8.322,8.322,0,0,0,.48,3.336,1.6,1.6,0,0,0,1.535,1,1.615,1.615,0,0,0,1.543-1.016,8.216,8.216,0,0,0,.488-3.32,8.281,8.281,0,0,0-.488-3.324A1.615,1.615,0,0,0,4.563,6.938,1.6,1.6,0,0,0,3.027,7.945,8.383,8.383,0,0,0,2.547,11.289Zm7.922,4.734a1.2,1.2,0,0,1,.3-.875,1.146,1.146,0,0,1,.859-.3,1.132,1.132,0,0,1,.867.316,1.211,1.211,0,0,1,.3.863,1.241,1.241,0,0,1-.3.879,1.119,1.119,0,0,1-.863.324,1.114,1.114,0,0,1-.859-.32A1.249,1.249,0,0,1,10.469,16.023Zm12.1.977H14.829V15.609l2.945-2.961a25.053,25.053,0,0,0,1.73-1.895A4.523,4.523,0,0,0,20.126,9.7a2.833,2.833,0,0,0,.2-1.055,1.608,1.608,0,0,0-.465-1.219,1.781,1.781,0,0,0-1.285-.445,3.426,3.426,0,0,0-1.27.242,5.942,5.942,0,0,0-1.418.875l-.992-1.211A6.4,6.4,0,0,1,16.743,5.75a5.42,5.42,0,0,1,1.914-.336,3.766,3.766,0,0,1,2.555.832,2.81,2.81,0,0,1,.961,2.238A3.928,3.928,0,0,1,21.9,9.953a5.969,5.969,0,0,1-.852,1.434,19.461,19.461,0,0,1-1.91,2L17.149,15.3v.078h5.422Zm5.563-7.133a3.917,3.917,0,0,1,2.734.914,3.2,3.2,0,0,1,1.008,2.492,3.64,3.64,0,0,1-1.145,2.855,4.708,4.708,0,0,1-3.254,1.027,6.15,6.15,0,0,1-3.008-.617V14.875a5.515,5.515,0,0,0,1.453.555,6.6,6.6,0,0,0,1.523.2,2.834,2.834,0,0,0,1.891-.555,2.02,2.02,0,0,0,.648-1.625q0-2.047-2.609-2.047a6.839,6.839,0,0,0-.906.074q-.539.074-.945.168l-.82-.484.438-5.578h5.938V7.211h-4.32L26.5,10.039q.273-.047.668-.109A6.3,6.3,0,0,1,28.134,9.867Z" transform="translate(24.552 12)" fill="#7c848e"/></g><g transform="translate(0 48)"><g transform="translate(337 210.001)"><g fill="#fff" stroke="#dbdbdb" stroke-width="1"><rect width="288.49" height="90.966" rx="5" stroke="none"/><rect x="0.5" y="0.5" width="287.49" height="89.966" rx="4.5" fill="none"/></g><g transform="translate(94.5)"><path d="M3.449-8.8a2.646,2.646,0,0,1-.633,1.809,3.185,3.185,0,0,1-1.781.973v.063A3.448,3.448,0,0,1,3.1-5.1a2.447,2.447,0,0,1,.688,1.816A3.018,3.018,0,0,1,2.621-.738,5.34,5.34,0,0,1-.691.156a7.459,7.459,0,0,1-3.2-.617V-2.094a7.316,7.316,0,0,0,1.539.555,6.682,6.682,0,0,0,1.563.2,3.3,3.3,0,0,0,1.984-.492,1.781,1.781,0,0,0,.656-1.523A1.45,1.45,0,0,0,1.121-4.7a4.64,4.64,0,0,0-2.281-.43h-.992V-6.625h1.008q2.734,0,2.734-1.891a1.394,1.394,0,0,0-.477-1.133,2.146,2.146,0,0,0-1.406-.4,4.258,4.258,0,0,0-1.25.184,5.918,5.918,0,0,0-1.422.715l-.9-1.281A5.988,5.988,0,0,1-.215-11.586a4.341,4.341,0,0,1,2.7.742A2.436,2.436,0,0,1,3.449-8.8Z" transform="translate(49 76)" fill="#7c848e"/><path d="M3.879,0H-3.863V-1.391L-.918-4.352A25.053,25.053,0,0,0,.813-6.246,4.523,4.523,0,0,0,1.434-7.3a2.833,2.833,0,0,0,.2-1.055A1.608,1.608,0,0,0,1.164-9.57a1.781,1.781,0,0,0-1.285-.445,3.426,3.426,0,0,0-1.27.242A5.942,5.942,0,0,0-2.809-8.9L-3.8-10.109A6.4,6.4,0,0,1-1.949-11.25a5.42,5.42,0,0,1,1.914-.336,3.766,3.766,0,0,1,2.555.832A2.81,2.81,0,0,1,3.48-8.516,3.928,3.928,0,0,1,3.2-7.047a5.969,5.969,0,0,1-.852,1.434,19.461,19.461,0,0,1-1.91,2L-1.543-1.7v.078H3.879Z" transform="translate(49 32)" fill="#7c848e"/><path d="M0,0H80" transform="translate(9.5 45.5)" fill="none" stroke="#7c848e" stroke-width="1.5"/></g></g></g></g></svg>
