<svg xmlns="http://www.w3.org/2000/svg" xmlns:xlink="http://www.w3.org/1999/xlink" width="288.489" height="90.967" viewBox="0 0 288.489 90.967"><defs><filter id="a" x="-13.977" y="-55" width="318.489" height="220.672" filterUnits="userSpaceOnUse"><feOffset dy="3" input="SourceAlpha"/><feGaussianBlur stdDeviation="5" result="b"/><feFlood flood-opacity="0.102"/><feComposite operator="in" in2="b"/><feComposite in="SourceGraphic"/></filter></defs><g transform="translate(-337 -210)"><g transform="translate(337 210.001)"><g fill="#fff" stroke="#dbdbdb" stroke-width="1"><rect width="288.489" height="42.966" rx="5" stroke="none"/><rect x="0.5" y="0.5" width="287.489" height="41.966" rx="4.5" fill="none"/></g><path d="M8.445,17H.7V15.609l2.945-2.961a25.053,25.053,0,0,0,1.73-1.895A4.523,4.523,0,0,0,6,9.7a2.833,2.833,0,0,0,.2-1.055A1.608,1.608,0,0,0,5.73,7.43a1.781,1.781,0,0,0-1.285-.445,3.426,3.426,0,0,0-1.27.242A5.942,5.942,0,0,0,1.758,8.1L.766,6.891A6.4,6.4,0,0,1,2.617,5.75a5.42,5.42,0,0,1,1.914-.336,3.766,3.766,0,0,1,2.555.832,2.81,2.81,0,0,1,.961,2.238A3.928,3.928,0,0,1,7.77,9.953a5.969,5.969,0,0,1-.852,1.434,19.461,19.461,0,0,1-1.91,2L3.023,15.3v.078H8.445Zm4.219-4.414-2.9-4.227H11.86l1.969,3.023,1.984-3.023h2.078l-2.906,4.227L18.039,17H15.961l-2.133-3.234L11.7,17H9.625Zm11.172-.164h-4.9V11.367l1.8-1.758A8.015,8.015,0,0,0,21.9,8.32a1.647,1.647,0,0,0,.254-.875.762.762,0,0,0-.25-.617.971.971,0,0,0-.648-.211,2.564,2.564,0,0,0-1.57.688l-.734-.945a3.623,3.623,0,0,1,2.414-.93,2.429,2.429,0,0,1,1.652.516,1.771,1.771,0,0,1,.59,1.406,2.344,2.344,0,0,1-.359,1.238,8.565,8.565,0,0,1-1.43,1.582L20.735,11.18h3.1Zm9.118-.367H29.845V10.664h3.109V7.477H34.36v3.188h3.117v1.391H34.36v3.172H32.954ZM50.994,8.2a2.646,2.646,0,0,1-.633,1.809,3.185,3.185,0,0,1-1.781.973v.063a3.448,3.448,0,0,1,2.063.855,2.447,2.447,0,0,1,.688,1.816,3.018,3.018,0,0,1-1.164,2.543,5.34,5.34,0,0,1-3.312.895,7.459,7.459,0,0,1-3.2-.617V14.906a7.316,7.316,0,0,0,1.539.555,6.682,6.682,0,0,0,1.563.2,3.3,3.3,0,0,0,1.984-.492,1.781,1.781,0,0,0,.656-1.523,1.45,1.45,0,0,0-.727-1.344,4.64,4.64,0,0,0-2.281-.43h-.992V10.375H46.4q2.734,0,2.734-1.891a1.394,1.394,0,0,0-.477-1.133,2.146,2.146,0,0,0-1.406-.4A4.258,4.258,0,0,0,46,7.137a5.918,5.918,0,0,0-1.422.715l-.9-1.281A5.988,5.988,0,0,1,47.33,5.414a4.341,4.341,0,0,1,2.7.742A2.436,2.436,0,0,1,50.994,8.2Zm4.649,4.383-2.9-4.227h2.094l1.969,3.023,1.984-3.023h2.078l-2.906,4.227L61.017,17H58.939l-2.133-3.234L54.682,17H52.6Zm14.188-.531H66.721V10.664h3.109V7.477h1.406v3.188h3.117v1.391H71.237v3.172H69.831Zm14.6-2.187a3.917,3.917,0,0,1,2.734.914,3.2,3.2,0,0,1,1.008,2.492,3.64,3.64,0,0,1-1.145,2.855,4.708,4.708,0,0,1-3.254,1.027,6.15,6.15,0,0,1-3.008-.617V14.875a5.515,5.515,0,0,0,1.453.555,6.6,6.6,0,0,0,1.523.2,2.834,2.834,0,0,0,1.891-.555,2.02,2.02,0,0,0,.648-1.625q0-2.047-2.609-2.047a6.839,6.839,0,0,0-.906.074q-.539.074-.945.168L81,11.156l.438-5.578h5.938V7.211h-4.32L82.8,10.039q.273-.047.668-.109A6.3,6.3,0,0,1,84.433,9.867Zm10.1.641v-1.4h7.523v1.4Zm0,3.117V12.234h7.523v1.391Zm21.532-2.336a8.125,8.125,0,0,1-.957,4.422,3.614,3.614,0,0,1-5.816-.047,7.979,7.979,0,0,1-.984-4.375,8.17,8.17,0,0,1,.957-4.457,3.617,3.617,0,0,1,5.816.066A8.039,8.039,0,0,1,116.067,11.289Zm-5.9,0a8.322,8.322,0,0,0,.48,3.336,1.679,1.679,0,0,0,3.078-.016,8.216,8.216,0,0,0,.488-3.32,8.281,8.281,0,0,0-.488-3.324,1.673,1.673,0,0,0-3.078-.02A8.383,8.383,0,0,0,110.168,11.289Z" transform="translate(24.552 12)" fill="#7c848e"/></g><g transform="translate(337 258.001)"><g fill="#fff" stroke="#dbdbdb" stroke-width="1"><rect width="288.489" height="42.966" rx="5" stroke="none"/><rect x="0.5" y="0.5" width="287.489" height="41.966" rx="4.5" fill="none"/></g><path d="M3.234,12.586.336,8.359H2.43L4.4,11.383,6.383,8.359H8.461L5.555,12.586,8.609,17H6.531L4.4,13.766,2.273,17H.2Zm14.188-.531H14.313V10.664h3.109V7.477h1.406v3.188h3.117v1.391H18.829v3.172H17.422ZM36.3,14.508H34.759V17H32.97V14.508H27.751V13.094L32.97,5.547h1.789v7.438H36.3ZM32.97,12.984V10.117q0-1.531.078-2.508h-.062a8.862,8.862,0,0,1-.687,1.25l-2.836,4.125Zm16.743,2.289L42.08,11.914v-.945l7.633-3.812V8.68l-5.727,2.688,5.727,2.367ZM61.307,17H59.471V9.625q0-1.32.063-2.094-.18.188-.441.414T57.338,9.383l-.922-1.164,3.359-2.641h1.531Zm11.782-5.711a8.125,8.125,0,0,1-.957,4.422,3.614,3.614,0,0,1-5.816-.047,7.979,7.979,0,0,1-.984-4.375,8.17,8.17,0,0,1,.957-4.457A3.617,3.617,0,0,1,72.1,6.9,8.039,8.039,0,0,1,73.088,11.289Zm-5.9,0a8.322,8.322,0,0,0,.48,3.336,1.679,1.679,0,0,0,3.078-.016,8.216,8.216,0,0,0,.488-3.32,8.281,8.281,0,0,0-.488-3.324,1.673,1.673,0,0,0-3.078-.02A8.383,8.383,0,0,0,67.19,11.289Z" transform="translate(24.552 12)" fill="#7c848e"/></g></g></svg>
