<svg xmlns="http://www.w3.org/2000/svg" width="247.207" height="145.945" viewBox="0 0 247.207 145.945"><g transform="translate(-16.756 -51.6)"><rect width="247.207" height="145.945" rx="5" transform="translate(16.756 51.6)" fill="#fff"/><g transform="translate(34.623 66.807)"><text transform="translate(0.133 11.104)" fill="#212e3a" font-size="12" font-family="OpenSans-Semibold, Open Sans" font-weight="600"><tspan x="0" y="0">The area of a cylinder is</tspan></text><text transform="translate(0.133 38.104)" fill="#212e3a" font-size="12" font-family="OpenSans-Semibold, Open Sans" font-weight="600"><tspan x="0" y="0">and the volume is</tspan></text><g transform="translate(-166.867 -390.208)"><g transform="translate(300.963 386)"><g fill="#f8f8f8" stroke="#858585" stroke-width="1.5"><rect width="78" height="22" rx="2" stroke="none"/><rect x="0.75" y="0.75" width="76.5" height="20.5" rx="1.25" fill="none"/></g></g></g><g transform="translate(-186.867 -363.208)"><g transform="translate(300.963 386)"><g fill="#f8f8f8" stroke="#858585" stroke-width="1.5"><rect width="78" height="22" rx="2" stroke="none"/><rect x="0.75" y="0.75" width="76.5" height="20.5" rx="1.25" fill="none"/></g></g><g transform="translate(371.02 394.619) rotate(90)"><path d="M4.616,4.68,1,8.343a.582.582,0,0,1-.832,0,.6.6,0,0,1,0-.843l3.2-3.241-3.2-3.24a.6.6,0,0,1,0-.844A.582.582,0,0,1,1,.175L4.616,3.837a.6.6,0,0,1,0,.843Z" transform="translate(0 0)" fill="#1ab395"/></g></g></g></g></svg>