<svg xmlns="http://www.w3.org/2000/svg" xmlns:xlink="http://www.w3.org/1999/xlink" width="288.489" height="90.971" viewBox="0 0 288.489 90.971"><defs><filter id="a" x="-13.977" y="-55" width="318.489" height="220.672" filterUnits="userSpaceOnUse"><feOffset dy="3" input="SourceAlpha"/><feGaussianBlur stdDeviation="5" result="b"/><feFlood flood-opacity="0.102"/><feComposite operator="in" in2="b"/><feComposite in="SourceGraphic"/></filter><clipPath id="c"><rect width="288.489" height="90.97" rx="5" transform="translate(309 187)" fill="#fff" stroke="#dbdbdb" stroke-width="1"/></clipPath></defs><g transform="translate(-309 -187)" clip-path="url(#c)"><g transform="translate(-28 -23)"><g transform="translate(337 210.001)"><g fill="#fff" stroke="#dbdbdb" stroke-width="1"><rect width="288.489" height="90.97" rx="5" stroke="none"/><rect x="0.5" y="0.5" width="287.489" height="89.97" rx="4.5" fill="none"/></g></g></g><path d="M8.445,17H.7V15.609l2.945-2.961a25.053,25.053,0,0,0,1.73-1.895A4.523,4.523,0,0,0,6,9.7a2.833,2.833,0,0,0,.2-1.055A1.608,1.608,0,0,0,5.73,7.43a1.781,1.781,0,0,0-1.285-.445,3.426,3.426,0,0,0-1.27.242A5.942,5.942,0,0,0,1.758,8.1L.766,6.891A6.4,6.4,0,0,1,2.617,5.75a5.42,5.42,0,0,1,1.914-.336,3.766,3.766,0,0,1,2.555.832,2.81,2.81,0,0,1,.961,2.238A3.928,3.928,0,0,1,7.77,9.953a5.969,5.969,0,0,1-.852,1.434,19.461,19.461,0,0,1-1.91,2L3.023,15.3v.078H8.445ZM46.7,17H44.862V9.625q0-1.32.063-2.094-.18.188-.441.414T42.729,9.383l-.922-1.164,3.359-2.641H46.7Z" transform="translate(373.552 199)" fill="#7c848e"/><path d="M8.016,8.2a2.646,2.646,0,0,1-.633,1.809,3.185,3.185,0,0,1-1.781.973v.063a3.448,3.448,0,0,1,2.063.855,2.447,2.447,0,0,1,.688,1.816,3.018,3.018,0,0,1-1.164,2.543,5.34,5.34,0,0,1-3.312.895,7.459,7.459,0,0,1-3.2-.617V14.906a7.316,7.316,0,0,0,1.539.555,6.682,6.682,0,0,0,1.563.2,3.3,3.3,0,0,0,1.984-.492,1.781,1.781,0,0,0,.656-1.523A1.45,1.45,0,0,0,5.688,12.3a4.64,4.64,0,0,0-2.281-.43H2.414V10.375H3.422q2.734,0,2.734-1.891A1.394,1.394,0,0,0,5.68,7.352a2.146,2.146,0,0,0-1.406-.4,4.258,4.258,0,0,0-1.25.184A5.918,5.918,0,0,0,1.6,7.852L.7,6.57A5.988,5.988,0,0,1,4.352,5.414a4.341,4.341,0,0,1,2.7.742A2.436,2.436,0,0,1,8.016,8.2Z" transform="translate(513.552 199)" fill="#7c848e"/><path d="M.563,13.492V11.93H4.578v1.563ZM13.891,17H6.149V15.609l2.945-2.961a25.053,25.053,0,0,0,1.73-1.895A4.523,4.523,0,0,0,11.446,9.7a2.833,2.833,0,0,0,.2-1.055,1.608,1.608,0,0,0-.465-1.219,1.781,1.781,0,0,0-1.285-.445,3.426,3.426,0,0,0-1.27.242A5.942,5.942,0,0,0,7.2,8.1L6.211,6.891A6.4,6.4,0,0,1,8.063,5.75a5.42,5.42,0,0,1,1.914-.336,3.766,3.766,0,0,1,2.555.832,2.81,2.81,0,0,1,.961,2.238,3.928,3.928,0,0,1-.277,1.469,5.969,5.969,0,0,1-.852,1.434,19.461,19.461,0,0,1-1.91,2L8.469,15.3v.078h5.422Z" transform="translate(507.552 247)" fill="#7c848e"/><path d="M8.445,11.289a8.125,8.125,0,0,1-.957,4.422,3.267,3.267,0,0,1-2.926,1.445,3.243,3.243,0,0,1-2.891-1.492,7.979,7.979,0,0,1-.984-4.375,8.17,8.17,0,0,1,.957-4.457A3.268,3.268,0,0,1,4.563,5.4a3.246,3.246,0,0,1,2.9,1.5A8.039,8.039,0,0,1,8.445,11.289Zm-5.9,0a8.322,8.322,0,0,0,.48,3.336,1.6,1.6,0,0,0,1.535,1,1.615,1.615,0,0,0,1.543-1.016,8.216,8.216,0,0,0,.488-3.32,8.281,8.281,0,0,0-.488-3.324A1.615,1.615,0,0,0,4.563,6.938,1.6,1.6,0,0,0,3.027,7.945,8.383,8.383,0,0,0,2.547,11.289Zm34.166,2.2V11.93h4.016v1.563ZM50.041,17H42.3V15.609l2.945-2.961a25.053,25.053,0,0,0,1.73-1.895A4.523,4.523,0,0,0,47.6,9.7a2.833,2.833,0,0,0,.2-1.055,1.608,1.608,0,0,0-.465-1.219,1.781,1.781,0,0,0-1.285-.445,3.426,3.426,0,0,0-1.27.242,5.942,5.942,0,0,0-1.418.875l-.992-1.211A6.4,6.4,0,0,1,44.213,5.75a5.42,5.42,0,0,1,1.914-.336,3.766,3.766,0,0,1,2.555.832,2.81,2.81,0,0,1,.961,2.238,3.928,3.928,0,0,1-.277,1.469,5.969,5.969,0,0,1-.852,1.434,19.461,19.461,0,0,1-1.91,2L44.619,15.3v.078h5.422Z" transform="translate(373.552 247)" fill="#7c848e"/><path d="M24.691,13.289H7.137V-59.965H24.691v3.855H11.156v65.5H24.691Z" transform="translate(346.553 257)" fill="#7c848e" stroke="#fff" stroke-width="2"/><path d="M24.691,13.289H7.137V-59.965H24.691v3.855H11.156v65.5H24.691Z" transform="translate(480.553 257)" fill="#7c848e" stroke="#fff" stroke-width="2"/><path d="M24.691-78.289H7.137V-5.035H24.691V-8.891H11.156v-65.5H24.691Z" transform="translate(455.553 192) rotate(180)" fill="#7c848e" stroke="#fff" stroke-width="2"/><path d="M24.691-78.289H7.137V-5.035H24.691V-8.891H11.156v-65.5H24.691Z" transform="translate(554.553 192) rotate(180)" fill="#7c848e" stroke="#fff" stroke-width="2"/><path d="M3.234-4.414.336-8.641H2.43L4.4-5.617,6.383-8.641H8.461L5.555-4.414,8.609,0H6.531L4.4-3.234,2.273,0H.2Z" transform="translate(463.552 242)" fill="#7c848e"/></g></svg>