<svg xmlns="http://www.w3.org/2000/svg" xmlns:xlink="http://www.w3.org/1999/xlink" width="288.489" height="90.971" viewBox="0 0 288.489 90.971"><defs><filter id="a" x="-13.977" y="-55" width="318.489" height="220.672" filterUnits="userSpaceOnUse"><feOffset dy="3" input="SourceAlpha"/><feGaussianBlur stdDeviation="5" result="b"/><feFlood flood-opacity="0.102"/><feComposite operator="in" in2="b"/><feComposite in="SourceGraphic"/></filter><clipPath id="c"><rect width="288.489" height="90.97" rx="5" transform="translate(309 187)" fill="#fff" stroke="#dbdbdb" stroke-width="1"/></clipPath></defs><g transform="translate(-309 -187)" clip-path="url(#c)"><g transform="translate(-28 -23)"><g transform="translate(337 210.001)"><g fill="#fff" stroke="#dbdbdb" stroke-width="1"><rect width="288.489" height="90.97" rx="5" stroke="none"/><rect x="0.5" y="0.5" width="287.489" height="89.97" rx="4.5" fill="none"/></g></g></g><path d="M8.445,17H.7V15.609l2.945-2.961a25.053,25.053,0,0,0,1.73-1.895A4.523,4.523,0,0,0,6,9.7a2.833,2.833,0,0,0,.2-1.055A1.608,1.608,0,0,0,5.73,7.43a1.781,1.781,0,0,0-1.285-.445,3.426,3.426,0,0,0-1.27.242A5.942,5.942,0,0,0,1.758,8.1L.766,6.891A6.4,6.4,0,0,1,2.617,5.75a5.42,5.42,0,0,1,1.914-.336,3.766,3.766,0,0,1,2.555.832,2.81,2.81,0,0,1,.961,2.238A3.928,3.928,0,0,1,7.77,9.953a5.969,5.969,0,0,1-.852,1.434,19.461,19.461,0,0,1-1.91,2L3.023,15.3v.078H8.445ZM46.7,17H44.862V9.625q0-1.32.063-2.094-.18.188-.441.414T42.729,9.383l-.922-1.164,3.359-2.641H46.7Z" transform="translate(373.552 199)" fill="#7c848e"/><text transform="translate(513.552 199)" fill="#7c848e" font-size="16" font-family="OpenSans-SemiBold, Open Sans" font-weight="600" letter-spacing="0.019em"><tspan x="0" y="17" xml:space="preserve">3       </tspan></text><path d="M.563,13.492V11.93H4.578v1.563ZM13.891,17H6.149V15.609l2.945-2.961a25.053,25.053,0,0,0,1.73-1.895A4.523,4.523,0,0,0,11.446,9.7a2.833,2.833,0,0,0,.2-1.055,1.608,1.608,0,0,0-.465-1.219,1.781,1.781,0,0,0-1.285-.445,3.426,3.426,0,0,0-1.27.242A5.942,5.942,0,0,0,7.2,8.1L6.211,6.891A6.4,6.4,0,0,1,8.063,5.75a5.42,5.42,0,0,1,1.914-.336,3.766,3.766,0,0,1,2.555.832,2.81,2.81,0,0,1,.961,2.238,3.928,3.928,0,0,1-.277,1.469,5.969,5.969,0,0,1-.852,1.434,19.461,19.461,0,0,1-1.91,2L8.469,15.3v.078h5.422Z" transform="translate(507.552 247)" fill="#7c848e"/><path d="M8.445,11.289a8.125,8.125,0,0,1-.957,4.422,3.267,3.267,0,0,1-2.926,1.445,3.243,3.243,0,0,1-2.891-1.492,7.979,7.979,0,0,1-.984-4.375,8.17,8.17,0,0,1,.957-4.457A3.268,3.268,0,0,1,4.563,5.4a3.246,3.246,0,0,1,2.9,1.5A8.039,8.039,0,0,1,8.445,11.289Zm-5.9,0a8.322,8.322,0,0,0,.48,3.336,1.6,1.6,0,0,0,1.535,1,1.615,1.615,0,0,0,1.543-1.016,8.216,8.216,0,0,0,.488-3.32,8.281,8.281,0,0,0-.488-3.324A1.615,1.615,0,0,0,4.563,6.938,1.6,1.6,0,0,0,3.027,7.945,8.383,8.383,0,0,0,2.547,11.289Zm34.166,2.2V11.93h4.016v1.563ZM50.041,17H42.3V15.609l2.945-2.961a25.053,25.053,0,0,0,1.73-1.895A4.523,4.523,0,0,0,47.6,9.7a2.833,2.833,0,0,0,.2-1.055,1.608,1.608,0,0,0-.465-1.219,1.781,1.781,0,0,0-1.285-.445,3.426,3.426,0,0,0-1.27.242,5.942,5.942,0,0,0-1.418.875l-.992-1.211A6.4,6.4,0,0,1,44.213,5.75a5.42,5.42,0,0,1,1.914-.336,3.766,3.766,0,0,1,2.555.832,2.81,2.81,0,0,1,.961,2.238,3.928,3.928,0,0,1-.277,1.469,5.969,5.969,0,0,1-.852,1.434,19.461,19.461,0,0,1-1.91,2L44.619,15.3v.078h5.422Z" transform="translate(373.552 247)" fill="#7c848e"/><text transform="translate(346.553 257)" fill="#7c848e" stroke="#fff" stroke-width="2" font-size="84" font-family="OpenSans-Light, Open Sans" font-weight="300" letter-spacing="0.019em"><tspan x="0" y="0">[</tspan></text><text transform="translate(480.553 257)" fill="#7c848e" stroke="#fff" stroke-width="2" font-size="84" font-family="OpenSans-Light, Open Sans" font-weight="300" letter-spacing="0.019em"><tspan x="0" y="0">[</tspan></text><text transform="matrix(-1, 0, 0, 1, 455.553, 257)" fill="#7c848e" stroke="#fff" stroke-width="2" font-size="84" font-family="OpenSans-Light, Open Sans" font-weight="300" letter-spacing="0.019em"><tspan x="0" y="0">[</tspan></text><text transform="matrix(-1, 0, 0, 1, 554.553, 257)" fill="#7c848e" stroke="#fff" stroke-width="2" font-size="84" font-family="OpenSans-Light, Open Sans" font-weight="300" letter-spacing="0.019em"><tspan x="0" y="0">[</tspan></text><path d="M3.234-4.414.336-8.641H2.43L4.4-5.617,6.383-8.641H8.461L5.555-4.414,8.609,0H6.531L4.4-3.234,2.273,0H.2Z" transform="translate(463.552 242)" fill="#7c848e"/></g></svg>
