<svg enable-background="new 0 0 288.488 138.971" height="138.971" viewBox="0 0 288.488 138.971" width="288.488" xmlns="http://www.w3.org/2000/svg"><g transform="translate(0 .001)"><g><path d="m5 0h278.489c2.761 0 5 2.239 5 5v128.97c0 2.761-2.239 5-5 5h-278.489c-2.761 0-5-2.239-5-5v-128.97c0-2.761 2.239-5 5-5z" fill="#fff"/><path d="m5 .5h278.489c2.485 0 4.5 2.015 4.5 4.5v128.97c0 2.485-2.015 4.5-4.5 4.5h-278.489c-2.485 0-4.5-2.015-4.5-4.5v-128.97c0-2.485 2.015-4.5 4.5-4.5z" fill="none" stroke="#dbdbdb"/></g><g enable-background="new" fill="#7c848e"><path d="m29.002 27h-1.162v-8.962h-3.165v-1.032h7.492v1.032h-3.165z"/><path d="m38.893 27v-4.847c0-.61-.139-1.066-.417-1.367s-.713-.451-1.306-.451c-.789 0-1.364.214-1.726.643s-.543 1.13-.543 2.105v3.917h-1.135v-10.637h1.135v3.22c0 .388-.018.709-.055.964h.068c.223-.36.541-.644.954-.852.413-.207.883-.311 1.412-.311.916 0 1.603.218 2.061.652.458.436.687 1.127.687 2.075v4.889z"/><path d="m45.79 27.137c-1.107 0-1.981-.337-2.622-1.012s-.96-1.611-.96-2.81c0-1.208.297-2.167.892-2.878s1.394-1.066 2.396-1.066c.939 0 1.682.309 2.229.926.547.618.82 1.433.82 2.444v.718h-5.161c.023.88.245 1.547.667 2.003s1.015.684 1.781.684c.807 0 1.604-.169 2.393-.506v1.012c-.401.173-.78.298-1.138.372-.359.076-.791.113-1.297.113zm-.307-6.816c-.602 0-1.081.196-1.439.588s-.568.935-.632 1.627h3.917c0-.716-.16-1.264-.479-1.644s-.775-.571-1.367-.571z"/><path d="m59.256 27-.226-1.066h-.055c-.374.47-.746.787-1.118.953-.372.167-.835.25-1.391.25-.743 0-1.325-.191-1.747-.574s-.632-.928-.632-1.634c0-1.513 1.21-2.306 3.63-2.379l1.271-.041v-.465c0-.588-.126-1.022-.379-1.302-.253-.281-.657-.421-1.213-.421-.625 0-1.331.191-2.119.574l-.349-.868c.369-.2.773-.357 1.213-.472s.881-.171 1.323-.171c.893 0 1.555.198 1.986.595s.646 1.032.646 1.907v5.114zm-2.564-.8c.707 0 1.261-.193 1.665-.581s.605-.93.605-1.627v-.677l-1.135.048c-.902.032-1.553.172-1.952.42-.399.249-.598.635-.598 1.159 0 .41.124.723.373.937s.595.321 1.042.321z"/><path d="m66.119 19.371c.333 0 .631.027.896.082l-.157 1.053c-.31-.068-.583-.103-.82-.103-.606 0-1.125.246-1.555.738s-.646 1.105-.646 1.839v4.02h-1.135v-7.492h.937l.13 1.388h.055c.278-.487.613-.863 1.005-1.128s.82-.397 1.29-.397z"/><path d="m71.847 27.137c-1.107 0-1.981-.337-2.622-1.012s-.96-1.611-.96-2.81c0-1.208.297-2.167.892-2.878s1.394-1.066 2.396-1.066c.939 0 1.682.309 2.229.926.547.618.82 1.433.82 2.444v.718h-5.162c.023.88.245 1.547.667 2.003s1.015.684 1.781.684c.807 0 1.604-.169 2.393-.506v1.012c-.401.173-.78.298-1.138.372-.359.076-.791.113-1.296.113zm-.308-6.816c-.602 0-1.081.196-1.439.588s-.568.935-.632 1.627h3.917c0-.716-.16-1.264-.479-1.644s-.775-.571-1.367-.571z"/><path d="m81.409 27-.226-1.066h-.055c-.374.47-.746.787-1.118.953-.372.167-.835.25-1.391.25-.743 0-1.325-.191-1.747-.574s-.632-.928-.632-1.634c0-1.513 1.21-2.306 3.63-2.379l1.271-.041v-.465c0-.588-.126-1.022-.379-1.302-.253-.281-.657-.421-1.213-.421-.625 0-1.331.191-2.119.574l-.349-.868c.369-.2.773-.357 1.213-.472s.881-.171 1.323-.171c.893 0 1.555.198 1.986.595s.646 1.032.646 1.907v5.114zm-2.563-.8c.707 0 1.261-.193 1.665-.581s.605-.93.605-1.627v-.677l-1.135.048c-.902.032-1.553.172-1.952.42-.399.249-.598.635-.598 1.159 0 .41.124.723.373.937s.595.321 1.042.321z"/><path d="m95.224 23.247c0 1.222-.308 2.175-.923 2.86-.615.687-1.465 1.029-2.55 1.029-.67 0-1.265-.157-1.784-.472s-.92-.766-1.203-1.354-.424-1.276-.424-2.064c0-1.222.305-2.173.916-2.854s1.458-1.021 2.543-1.021c1.048 0 1.881.349 2.499 1.046s.926 1.641.926 2.83zm-5.708 0c0 .957.191 1.687.574 2.188s.946.752 1.688.752 1.307-.249 1.692-.749c.385-.498.578-1.229.578-2.19 0-.952-.192-1.676-.578-2.171-.385-.494-.954-.741-1.706-.741-.743 0-1.303.244-1.682.731s-.566 1.214-.566 2.18z"/><path d="m100.856 20.39h-1.907v6.61h-1.135v-6.61h-1.34v-.513l1.34-.41v-.417c0-1.841.804-2.762 2.413-2.762.396 0 .861.08 1.395.239l-.294.909c-.438-.142-.811-.212-1.121-.212-.428 0-.745.143-.95.428-.205.284-.308.741-.308 1.37v.485h1.907z"/><path d="m110.999 27-.226-1.066h-.055c-.374.47-.746.787-1.118.953-.372.167-.835.25-1.391.25-.743 0-1.325-.191-1.747-.574s-.632-.928-.632-1.634c0-1.513 1.21-2.306 3.63-2.379l1.271-.041v-.465c0-.588-.126-1.022-.379-1.302-.253-.281-.657-.421-1.213-.421-.625 0-1.331.191-2.119.574l-.349-.868c.369-.2.773-.357 1.213-.472s.881-.171 1.323-.171c.893 0 1.555.198 1.986.595s.646 1.032.646 1.907v5.114zm-2.564-.8c.707 0 1.261-.193 1.665-.581s.605-.93.605-1.627v-.677l-1.135.048c-.902.032-1.553.172-1.952.42-.399.249-.598.635-.598 1.159 0 .41.124.723.373.937s.596.321 1.042.321z"/><path d="m121.341 27.137c-1.084 0-1.924-.334-2.519-1.002-.595-.667-.892-1.611-.892-2.833 0-1.253.302-2.222.906-2.905s1.464-1.025 2.581-1.025c.36 0 .72.039 1.08.116s.643.169.848.273l-.349.964c-.25-.101-.524-.184-.82-.25-.296-.065-.558-.099-.786-.099-1.522 0-2.283.971-2.283 2.912 0 .921.186 1.627.557 2.119s.922.738 1.651.738c.625 0 1.265-.135 1.921-.403v1.005c-.503.26-1.134.39-1.895.39z"/><path d="m124.088 19.508h1.217l1.641 4.272c.36.976.583 1.68.67 2.112h.055c.059-.232.184-.63.373-1.193s.808-2.293 1.856-5.191h1.217l-3.22 8.531c-.319.843-.691 1.441-1.118 1.795-.426.353-.949.529-1.569.529-.346 0-.688-.039-1.025-.116v-.909c.25.055.531.082.841.082.779 0 1.335-.438 1.668-1.313l.417-1.066z"/><path d="m133.733 27h-1.135v-10.637h1.135z"/><path d="m136.309 17.478c0-.26.064-.45.191-.571.127-.12.287-.181.479-.181.182 0 .339.062.472.185s.198.313.198.567-.066.445-.198.571c-.132.125-.29.188-.472.188-.191 0-.351-.063-.479-.188-.127-.126-.191-.316-.191-.571zm1.231 9.522h-1.135v-7.492h1.135z"/><path d="m145.339 27v-4.847c0-.61-.139-1.066-.417-1.367-.277-.301-.713-.451-1.305-.451-.784 0-1.358.212-1.723.636s-.547 1.123-.547 2.099v3.93h-1.135v-7.492h.923l.185 1.025h.055c.232-.369.558-.655.978-.857.419-.203.886-.305 1.401-.305.902 0 1.582.218 2.037.652.456.436.684 1.132.684 2.089v4.888z"/><path d="m154.171 25.995h-.062c-.524.761-1.309 1.142-2.352 1.142-.98 0-1.742-.335-2.287-1.005-.544-.67-.816-1.622-.816-2.857s.273-2.194.82-2.878 1.308-1.025 2.283-1.025c1.016 0 1.795.369 2.338 1.107h.089l-.048-.54-.027-.526v-3.049h1.135v10.636h-.923zm-2.27.192c.774 0 1.336-.211 1.685-.632.349-.422.523-1.103.523-2.041v-.239c0-1.062-.177-1.819-.53-2.272-.353-.454-.917-.681-1.691-.681-.666 0-1.175.259-1.528.776s-.529 1.247-.529 2.19c0 .957.175 1.68.526 2.167.35.488.865.732 1.544.732z"/><path d="m161.081 27.137c-1.107 0-1.981-.337-2.622-1.012-.64-.675-.96-1.611-.96-2.81 0-1.208.297-2.167.892-2.878s1.394-1.066 2.396-1.066c.938 0 1.682.309 2.229.926.547.618.82 1.433.82 2.444v.718h-5.161c.022.88.245 1.547.666 2.003.422.456 1.016.684 1.781.684.807 0 1.604-.169 2.393-.506v1.012c-.401.173-.78.298-1.139.372-.358.076-.789.113-1.295.113zm-.308-6.816c-.602 0-1.081.196-1.439.588-.357.392-.568.935-.632 1.627h3.917c0-.716-.16-1.264-.479-1.644s-.775-.571-1.367-.571z"/><path d="m169.454 19.371c.333 0 .632.027.896.082l-.157 1.053c-.31-.068-.583-.103-.82-.103-.605 0-1.124.246-1.555.738s-.646 1.105-.646 1.839v4.02h-1.135v-7.492h.937l.13 1.388h.055c.278-.487.613-.863 1.005-1.128.391-.265.821-.397 1.29-.397z"/></g><g enable-background="new" fill="#7c848e"><path d="m30.363 57-.226-1.066h-.055c-.374.47-.746.787-1.118.953-.372.167-.835.25-1.391.25-.743 0-1.325-.191-1.747-.574s-.632-.928-.632-1.634c0-1.513 1.21-2.306 3.63-2.379l1.271-.041v-.465c0-.588-.126-1.022-.379-1.302-.253-.281-.657-.421-1.213-.421-.625 0-1.331.191-2.119.574l-.349-.868c.369-.2.773-.357 1.213-.472s.881-.171 1.323-.171c.893 0 1.555.198 1.986.595s.646 1.032.646 1.907v5.114zm-2.564-.8c.707 0 1.261-.193 1.665-.581s.605-.93.605-1.627v-.677l-1.135.048c-.902.032-1.553.172-1.952.42-.399.249-.598.635-.598 1.159 0 .41.124.723.373.937s.595.321 1.042.321z"/><path d="m38.934 57v-4.847c0-.61-.139-1.066-.417-1.367s-.713-.451-1.306-.451c-.784 0-1.358.212-1.723.636s-.547 1.123-.547 2.099v3.93h-1.135v-7.492h.923l.185 1.025h.055c.232-.369.558-.655.978-.857.419-.203.886-.305 1.401-.305.902 0 1.582.218 2.037.652.456.436.684 1.132.684 2.089v4.888z"/><path d="m47.766 55.995h-.062c-.524.761-1.308 1.142-2.352 1.142-.98 0-1.742-.335-2.287-1.005s-.817-1.622-.817-2.857.273-2.194.82-2.878 1.308-1.025 2.283-1.025c1.016 0 1.795.369 2.338 1.107h.089l-.048-.54-.027-.526v-3.049h1.135v10.636h-.923zm-2.27.192c.775 0 1.336-.211 1.685-.632.349-.422.523-1.103.523-2.041v-.239c0-1.062-.177-1.819-.53-2.272-.353-.454-.917-.681-1.692-.681-.666 0-1.175.259-1.528.776s-.53 1.247-.53 2.19c0 .957.175 1.68.526 2.167s.867.732 1.546.732z"/><path d="m57.834 56.2c.201 0 .394-.015.581-.044.187-.03.335-.061.444-.093v.868c-.123.06-.304.108-.543.146-.239.039-.455.059-.646.059-1.449 0-2.174-.764-2.174-2.29v-4.456h-1.073v-.547l1.073-.472.479-1.6h.656v1.736h2.174v.882h-2.174v4.409c0 .451.107.798.321 1.039s.508.363.882.363z"/><path d="m65.749 57v-4.847c0-.61-.139-1.066-.417-1.367s-.713-.451-1.306-.451c-.789 0-1.364.214-1.726.643s-.543 1.13-.543 2.105v3.917h-1.135v-10.637h1.135v3.22c0 .388-.018.709-.055.964h.068c.223-.36.541-.644.954-.852.413-.207.883-.311 1.412-.311.916 0 1.603.218 2.061.652.458.436.687 1.127.687 2.075v4.889z"/><path d="m72.646 57.137c-1.107 0-1.981-.337-2.622-1.012s-.96-1.611-.96-2.81c0-1.208.297-2.167.892-2.878s1.394-1.066 2.396-1.066c.939 0 1.682.309 2.229.926.547.618.82 1.433.82 2.444v.718h-5.161c.023.88.245 1.547.667 2.003s1.015.684 1.781.684c.807 0 1.604-.169 2.393-.506v1.012c-.401.173-.78.298-1.138.372-.359.076-.791.113-1.297.113zm-.307-6.816c-.602 0-1.081.196-1.439.588s-.568.935-.632 1.627h3.917c0-.716-.16-1.264-.479-1.644s-.775-.571-1.367-.571z"/><path d="m83.145 57-2.844-7.492h1.217l1.613 4.443c.365 1.039.579 1.714.643 2.023h.055c.05-.241.208-.742.475-1.5.267-.76.865-2.415 1.794-4.967h1.217l-2.844 7.493z"/><path d="m95.251 53.247c0 1.222-.308 2.175-.923 2.86-.615.687-1.465 1.029-2.55 1.029-.67 0-1.265-.157-1.784-.472s-.92-.766-1.203-1.354-.424-1.276-.424-2.064c0-1.222.305-2.173.916-2.854s1.458-1.021 2.543-1.021c1.048 0 1.881.349 2.499 1.046s.926 1.641.926 2.83zm-5.708 0c0 .957.191 1.687.574 2.188s.946.752 1.688.752 1.307-.249 1.692-.749c.385-.498.578-1.229.578-2.19 0-.952-.192-1.676-.578-2.171-.385-.494-.954-.741-1.706-.741-.743 0-1.303.244-1.682.731s-.566 1.214-.566 2.18z"/><path d="m98.641 57h-1.135v-10.637h1.135z"/><path d="m102.379 49.508v4.86c0 .61.139 1.066.417 1.367s.713.451 1.306.451c.784 0 1.357-.214 1.719-.643s.543-1.128.543-2.099v-3.938h1.135v7.494h-.937l-.164-1.005h-.062c-.232.369-.555.651-.967.848s-.883.294-1.412.294c-.912 0-1.594-.217-2.047-.649s-.68-1.126-.68-2.078v-4.901h1.149z"/><path d="m119.722 57v-4.874c0-.597-.127-1.045-.383-1.343-.255-.299-.652-.448-1.189-.448-.707 0-1.228.203-1.565.608s-.506 1.03-.506 1.873v4.184h-1.135v-4.874c0-.597-.127-1.045-.383-1.343-.255-.299-.654-.448-1.196-.448-.711 0-1.231.213-1.562.64-.331.426-.496 1.124-.496 2.095v3.93h-1.135v-7.492h.923l.185 1.025h.055c.214-.364.516-.649.906-.854s.826-.308 1.309-.308c1.171 0 1.937.424 2.297 1.271h.055c.223-.392.547-.702.971-.93s.907-.342 1.449-.342c.848 0 1.482.218 1.904.652.421.436.632 1.132.632 2.089v4.889z"/><path d="m126.625 57.137c-1.107 0-1.981-.337-2.622-1.012s-.96-1.611-.96-2.81c0-1.208.297-2.167.892-2.878s1.394-1.066 2.396-1.066c.939 0 1.682.309 2.229.926.547.618.82 1.433.82 2.444v.718h-5.161c.023.88.245 1.547.667 2.003s1.015.684 1.781.684c.807 0 1.604-.169 2.393-.506v1.012c-.401.173-.78.298-1.138.372-.359.076-.791.113-1.297.113zm-.307-6.816c-.602 0-1.081.196-1.439.588s-.568.935-.632 1.627h3.917c0-.716-.16-1.264-.479-1.644s-.775-.571-1.367-.571z"/><path d="m135.388 47.478c0-.26.064-.45.191-.571.127-.12.287-.181.479-.181.182 0 .339.062.472.185s.198.313.198.567-.066.445-.198.571c-.132.125-.29.188-.472.188-.191 0-.351-.063-.479-.188-.127-.126-.191-.316-.191-.571zm1.231 9.522h-1.135v-7.492h1.135z"/><path d="m144.123 54.956c0 .697-.26 1.235-.779 1.613s-1.249.567-2.188.567c-.994 0-1.768-.157-2.324-.472v-1.053c.36.183.746.326 1.159.431s.81.157 1.193.157c.592 0 1.048-.095 1.367-.284.319-.188.479-.477.479-.864 0-.292-.126-.541-.379-.749-.253-.207-.746-.452-1.48-.734-.697-.26-1.193-.486-1.487-.68s-.513-.414-.656-.66-.215-.54-.215-.882c0-.61.249-1.093.745-1.446.497-.353 1.178-.529 2.044-.529.807 0 1.595.164 2.365.492l-.403.923c-.752-.31-1.433-.465-2.044-.465-.538 0-.943.084-1.217.253s-.41.401-.41.697c0 .2.051.371.154.513s.268.275.496.403.666.313 1.313.554c.889.323 1.489.649 1.801.978s.466.74.466 1.237z"/></g></g><g fill="none" transform="translate(183.549 10.001)"><path d="m4 0h80c2.209 0 4 1.791 4 4v17c0 2.209-1.791 4-4 4h-80c-2.209 0-4-1.791-4-4v-17c0-2.209 1.791-4 4-4z"/><path d="m4 .5h80c1.933 0 3.5 1.567 3.5 3.5v17c0 1.933-1.567 3.5-3.5 3.5h-80c-1.933 0-3.5-1.567-3.5-3.5v-17c0-1.933 1.567-3.5 3.5-3.5z" stroke="#e6e6e6"/></g><g fill="none" transform="translate(153.549 40.001)"><path d="m4 0h80c2.209 0 4 1.791 4 4v17c0 2.209-1.791 4-4 4h-80c-2.209 0-4-1.791-4-4v-17c0-2.209 1.791-4 4-4z"/><path d="m4 .5h80c1.933 0 3.5 1.567 3.5 3.5v17c0 1.933-1.567 3.5-3.5 3.5h-80c-1.933 0-3.5-1.567-3.5-3.5v-17c0-1.933 1.567-3.5 3.5-3.5z" stroke="#e6e6e6"/></g><path d="m231.951 55.91-4.21-4.211c-.263-.273-.255-.707.017-.97.266-.256.687-.256.953 0l3.721 3.726 3.73-3.726c.273-.263.707-.255.97.017.256.266.256.687 0 .953l-4.21 4.211c-.268.268-.702.268-.97 0z" fill="#00ad50"/></svg>