<svg xmlns="http://www.w3.org/2000/svg" xmlns:xlink="http://www.w3.org/1999/xlink" width="288.489" height="42.967" viewBox="0 0 288.489 42.967"><defs><filter id="a" x="-13.977" y="-55" width="318.489" height="220.672" filterUnits="userSpaceOnUse"><feOffset dy="3" input="SourceAlpha"/><feGaussianBlur stdDeviation="5" result="b"/><feFlood flood-opacity="0.102"/><feComposite operator="in" in2="b"/><feComposite in="SourceGraphic"/></filter></defs><g transform="translate(-337 -210)"><g transform="translate(337 210.001)"><g fill="#fff" stroke="#dbdbdb" stroke-width="1"><rect width="288.489" height="42.966" rx="5" stroke="none"/><rect x="0.5" y="0.5" width="287.489" height="41.966" rx="4.5" fill="none"/></g><path d="M.8-6.492v-1.4H8.32v1.4Zm0,3.117V-4.766H8.32v1.391ZM19.977,0H18.141V-7.375q0-1.32.063-2.094-.18.188-.441.414T16.008-7.617l-.922-1.164,3.359-2.641h1.531Zm11.93,0H30.063V-5.328a2.416,2.416,0,0,0-.375-1.48A1.384,1.384,0,0,0,28.516-7.3a1.787,1.787,0,0,0-1.559.691,4.057,4.057,0,0,0-.5,2.3V0H24.626V-8.641h1.438l.258,1.133h.094a2.394,2.394,0,0,1,1.043-.953,3.363,3.363,0,0,1,1.5-.336A2.628,2.628,0,0,1,31.6-7.437h.125a2.634,2.634,0,0,1,1.078-1A3.422,3.422,0,0,1,34.4-8.8a2.9,2.9,0,0,1,2.254.781,3.46,3.46,0,0,1,.707,2.383V0H35.524V-5.328a2.4,2.4,0,0,0-.379-1.48A1.4,1.4,0,0,0,33.97-7.3a1.822,1.822,0,0,0-1.566.668,3.443,3.443,0,0,0-.5,2.051Z" transform="translate(107.552 29)" fill="#7c848e"/><g transform="translate(9.232 9)" fill="#fff" stroke="#b7b7b7" stroke-width="1"><rect width="88" height="25" rx="4" stroke="none"/><rect x="0.5" y="0.5" width="87" height="24" rx="3.5" fill="none"/></g><path d="M-19.809,0h-1.836V-7.375q0-1.32.063-2.094-.18.188-.441.414t-1.754,1.438L-24.7-8.781l3.359-2.641h1.531ZM-8.028-5.711a8.125,8.125,0,0,1-.957,4.422A3.267,3.267,0,0,1-11.91.156,3.243,3.243,0,0,1-14.8-1.336a7.979,7.979,0,0,1-.984-4.375,8.17,8.17,0,0,1,.957-4.457A3.268,3.268,0,0,1-11.91-11.6a3.246,3.246,0,0,1,2.9,1.5A8.039,8.039,0,0,1-8.028-5.711Zm-5.9,0a8.322,8.322,0,0,0,.48,3.336,1.6,1.6,0,0,0,1.535,1,1.615,1.615,0,0,0,1.543-1.016,8.216,8.216,0,0,0,.488-3.32,8.281,8.281,0,0,0-.488-3.324,1.615,1.615,0,0,0-1.543-1.027,1.6,1.6,0,0,0-1.535,1.008A8.383,8.383,0,0,0-13.926-5.711Zm15.328,0A8.125,8.125,0,0,1,.445-1.289,3.267,3.267,0,0,1-2.48.156,3.243,3.243,0,0,1-5.371-1.336a7.979,7.979,0,0,1-.984-4.375A8.17,8.17,0,0,1-5.4-10.168,3.268,3.268,0,0,1-2.48-11.6a3.246,3.246,0,0,1,2.9,1.5A8.039,8.039,0,0,1,1.4-5.711Zm-5.9,0a8.322,8.322,0,0,0,.48,3.336,1.6,1.6,0,0,0,1.535,1A1.615,1.615,0,0,0-.937-2.391a8.216,8.216,0,0,0,.488-3.32A8.281,8.281,0,0,0-.937-9.035,1.615,1.615,0,0,0-2.48-10.062,1.6,1.6,0,0,0-4.016-9.055,8.383,8.383,0,0,0-4.5-5.711ZM7.184.156A3.783,3.783,0,0,1,4.2-.988a4.782,4.782,0,0,1-1.02-3.285A4.809,4.809,0,0,1,4.25-7.625,3.956,3.956,0,0,1,7.332-8.8a5.776,5.776,0,0,1,2.461.508L9.239-6.812a5.56,5.56,0,0,0-1.922-.453q-2.242,0-2.242,2.977a3.565,3.565,0,0,0,.559,2.184,1.934,1.934,0,0,0,1.637.73,4.7,4.7,0,0,0,2.32-.609v1.6A3.626,3.626,0,0,1,8.539.031,6.305,6.305,0,0,1,7.184.156ZM19.2,0H17.356V-5.328a2.416,2.416,0,0,0-.375-1.48A1.384,1.384,0,0,0,15.809-7.3a1.787,1.787,0,0,0-1.559.691,4.057,4.057,0,0,0-.5,2.3V0H11.919V-8.641h1.438l.258,1.133h.094a2.394,2.394,0,0,1,1.043-.953,3.363,3.363,0,0,1,1.5-.336A2.628,2.628,0,0,1,18.9-7.437h.125a2.634,2.634,0,0,1,1.078-1A3.422,3.422,0,0,1,21.692-8.8a2.9,2.9,0,0,1,2.254.781,3.46,3.46,0,0,1,.707,2.383V0H22.817V-5.328a2.4,2.4,0,0,0-.379-1.48A1.4,1.4,0,0,0,21.262-7.3a1.822,1.822,0,0,0-1.566.668,3.443,3.443,0,0,0-.5,2.051Z" transform="translate(52.552 28.999)" fill="#7c848e"/></g></g></svg>
