<svg xmlns="http://www.w3.org/2000/svg" width="288.489" height="138.967" viewBox="0 0 288.489 138.967"><g transform="translate(-309 -187)"><g transform="translate(-28 -23)"><g transform="translate(337 210.001)"><g fill="#fff" stroke="#dbdbdb" stroke-width="1"><rect width="288.489" height="42.966" rx="5" stroke="none"/><rect x="0.5" y="0.5" width="287.489" height="41.966" rx="4.5" fill="none"/></g><path d="M3.234,12.586.336,8.359H2.43L4.4,11.383,6.383,8.359H8.461L5.555,12.586,8.609,17H6.531L4.4,13.766,2.273,17H.2Zm14.188-.531H14.313V10.664h3.109V7.477h1.406v3.188h3.117v1.391H18.829v3.172H17.422Zm10.024-3.7h2l1.758,4.9a9.294,9.294,0,0,1,.531,1.969H31.8a8.212,8.212,0,0,1,.258-1.043q.188-.613,1.984-5.824h1.984l-3.7,9.789q-1.008,2.7-3.359,2.7a5.287,5.287,0,0,1-1.187-.133V19.258a4.3,4.3,0,0,0,.945.094,1.936,1.936,0,0,0,1.867-1.539l.32-.812Z" transform="translate(24.552 12)" fill="#7c848e"/></g></g><g transform="translate(-28 25)"><g transform="translate(337 210.001)"><g fill="#fff" stroke="#dbdbdb" stroke-width="1"><rect width="288.489" height="42.966" rx="5" stroke="none"/><rect x="0.5" y="0.5" width="287.489" height="41.966" rx="4.5" fill="none"/></g><path d="M7.117,14.539A2.261,2.261,0,0,1,6.2,16.48a4.414,4.414,0,0,1-2.641.676,6.237,6.237,0,0,1-2.773-.523V15.047a6.809,6.809,0,0,0,2.836.7q1.7,0,1.7-1.023a.811.811,0,0,0-.187-.547,2.219,2.219,0,0,0-.617-.453,10.621,10.621,0,0,0-1.2-.531,5.529,5.529,0,0,1-2.02-1.156,2.139,2.139,0,0,1-.527-1.5A1.97,1.97,0,0,1,1.66,8.816,4.245,4.245,0,0,1,4.094,8.2a6.893,6.893,0,0,1,2.883.617L6.383,10.2a6.412,6.412,0,0,0-2.352-.578q-1.453,0-1.453.828a.833.833,0,0,0,.379.688,8.333,8.333,0,0,0,1.652.773,7.553,7.553,0,0,1,1.555.758,2.265,2.265,0,0,1,.719.793A2.3,2.3,0,0,1,7.117,14.539ZM11.235,17H9.4V8.359h1.836ZM9.289,6.07a1.017,1.017,0,0,1,.27-.758,1.05,1.05,0,0,1,.77-.266,1.028,1.028,0,0,1,.754.266,1.017,1.017,0,0,1,.27.758,1,1,0,0,1-.27.738,1.019,1.019,0,0,1-.754.27,1.041,1.041,0,0,1-.77-.27A1,1,0,0,1,9.289,6.07ZM21.758,17H19.915V11.688a2.325,2.325,0,0,0-.4-1.492A1.555,1.555,0,0,0,18.235,9.7a2.031,2.031,0,0,0-1.7.688,3.8,3.8,0,0,0-.539,2.3V17H14.157V8.359h1.438l.258,1.133h.094a2.556,2.556,0,0,1,1.109-.953A3.718,3.718,0,0,1,18.649,8.2q3.109,0,3.109,3.164Zm6.633-4.383A12.106,12.106,0,0,1,29,8.742a9.633,9.633,0,0,1,1.746-3.164h1.6a11.168,11.168,0,0,0-1.664,3.293A12.277,12.277,0,0,0,30.1,12.6a11.943,11.943,0,0,0,.578,3.7,11.155,11.155,0,0,0,1.648,3.234H30.743a9.207,9.207,0,0,1-1.75-3.1A11.793,11.793,0,0,1,28.392,12.617Zm7.961-.031-2.9-4.227h2.094l1.969,3.023L39.5,8.359h2.078l-2.906,4.227L41.728,17H39.65l-2.133-3.234L35.392,17H33.314Zm10.3.031a11.773,11.773,0,0,1-.605,3.828,9.157,9.157,0,0,1-1.746,3.086H42.72a11.212,11.212,0,0,0,1.652-3.242,11.944,11.944,0,0,0,.574-3.687,12.227,12.227,0,0,0-.578-3.73A11.3,11.3,0,0,0,42.7,5.578h1.6a9.584,9.584,0,0,1,1.75,3.176A12.164,12.164,0,0,1,46.658,12.617Z" transform="translate(24.552 12)" fill="#7c848e"/></g></g><g transform="translate(-28 73)"><g transform="translate(337 210.001)"><g fill="#fff" stroke="#dbdbdb" stroke-width="1"><rect width="288.489" height="42.966" rx="5" stroke="none"/><rect x="0.5" y="0.5" width="287.489" height="41.966" rx="4.5" fill="none"/></g><path d="M.641,12.617a12.106,12.106,0,0,1,.605-3.875A9.633,9.633,0,0,1,2.992,5.578h1.6A11.168,11.168,0,0,0,2.93,8.871a12.277,12.277,0,0,0-.578,3.73,11.943,11.943,0,0,0,.578,3.7,11.155,11.155,0,0,0,1.648,3.234H2.992a9.207,9.207,0,0,1-1.75-3.1A11.793,11.793,0,0,1,.641,12.617ZM8.6,12.586,5.7,8.359H7.8l1.969,3.023L11.75,8.359h2.078l-2.906,4.227L13.977,17H11.9L9.766,13.766,7.641,17H5.563Zm14.188-.531H19.68V10.664H22.79V7.477H24.2v3.188h3.117v1.391H24.2v3.172H22.79ZM40.829,8.2a2.646,2.646,0,0,1-.633,1.809,3.185,3.185,0,0,1-1.781.973v.063a3.448,3.448,0,0,1,2.063.855,2.447,2.447,0,0,1,.688,1.816A3.018,3.018,0,0,1,40,16.262a5.34,5.34,0,0,1-3.312.895,7.459,7.459,0,0,1-3.2-.617V14.906a7.316,7.316,0,0,0,1.539.555,6.682,6.682,0,0,0,1.563.2,3.3,3.3,0,0,0,1.984-.492,1.781,1.781,0,0,0,.656-1.523A1.45,1.45,0,0,0,38.5,12.3a4.64,4.64,0,0,0-2.281-.43h-.992V10.375h1.008q2.734,0,2.734-1.891a1.394,1.394,0,0,0-.477-1.133,2.146,2.146,0,0,0-1.406-.4,4.258,4.258,0,0,0-1.25.184,5.918,5.918,0,0,0-1.422.715l-.9-1.281a5.988,5.988,0,0,1,3.648-1.156,4.341,4.341,0,0,1,2.7.742A2.436,2.436,0,0,1,40.829,8.2Zm5.844,4.414a11.773,11.773,0,0,1-.605,3.828,9.157,9.157,0,0,1-1.746,3.086H42.736a11.212,11.212,0,0,0,1.652-3.242,11.944,11.944,0,0,0,.574-3.687,12.227,12.227,0,0,0-.578-3.73A11.3,11.3,0,0,0,42.72,5.578h1.6a9.584,9.584,0,0,1,1.75,3.176A12.164,12.164,0,0,1,46.673,12.617Zm6.032,0a12.107,12.107,0,0,1,.605-3.875,9.633,9.633,0,0,1,1.746-3.164h1.6a11.169,11.169,0,0,0-1.664,3.293,12.277,12.277,0,0,0-.578,3.73,11.943,11.943,0,0,0,.578,3.7,11.155,11.155,0,0,0,1.648,3.234H55.057a9.207,9.207,0,0,1-1.75-3.1A11.793,11.793,0,0,1,52.705,12.617Zm7.961-.031-2.9-4.227h2.094l1.969,3.023,1.984-3.023h2.078l-2.906,4.227L66.041,17H63.963l-2.133-3.234L59.706,17H57.627Zm14.188-.531H71.745V10.664h3.109V7.477h1.406v3.188h3.117v1.391H76.261v3.172H74.855ZM93.73,14.508H92.191V17H90.4V14.508H85.183V13.094L90.4,5.547h1.789v7.438H93.73ZM90.4,12.984V10.117q0-1.531.078-2.508h-.062a8.862,8.862,0,0,1-.687,1.25l-2.836,4.125Zm8.336-.367a11.773,11.773,0,0,1-.605,3.828,9.157,9.157,0,0,1-1.746,3.086H94.8a11.212,11.212,0,0,0,1.652-3.242,11.944,11.944,0,0,0,.574-3.687,12.227,12.227,0,0,0-.578-3.73,11.3,11.3,0,0,0-1.664-3.293h1.6a9.584,9.584,0,0,1,1.75,3.176A12.164,12.164,0,0,1,98.738,12.617Z" transform="translate(24.552 12)" fill="#7c848e"/></g></g></g></svg>
