<svg xmlns="http://www.w3.org/2000/svg" xmlns:xlink="http://www.w3.org/1999/xlink" width="288.49" height="138.967" viewBox="0 0 288.49 138.967"><defs><filter id="a" x="-13.977" y="-55" width="318.489" height="220.672" filterUnits="userSpaceOnUse"><feOffset dy="3" input="SourceAlpha"/><feGaussianBlur stdDeviation="5" result="b"/><feFlood flood-opacity="0.102"/><feComposite operator="in" in2="b"/><feComposite in="SourceGraphic"/></filter><filter id="c" x="-13.977" y="-7" width="318.489" height="220.672" filterUnits="userSpaceOnUse"><feOffset dy="3" input="SourceAlpha"/><feGaussianBlur stdDeviation="5" result="d"/><feFlood flood-opacity="0.102"/><feComposite operator="in" in2="d"/><feComposite in="SourceGraphic"/></filter></defs><g transform="translate(-337 -210)"><g transform="translate(337 210.001)"><g fill="#fff" stroke="#dbdbdb" stroke-width="1"><rect width="140" height="42.966" rx="5" stroke="none"/><rect x="0.5" y="0.5" width="139" height="41.966" rx="4.5" fill="none"/></g><text transform="translate(24.552 12)" fill="#7c848e" font-size="16" font-family="OpenSans-SemiBold, Open Sans" font-weight="600" letter-spacing="0.019em"><tspan x="0" y="17">4</tspan></text></g><g transform="translate(485 210.001)"><g fill="#fff" stroke="#dbdbdb" stroke-width="1"><rect width="140" height="42.966" rx="5" stroke="none"/><rect x="0.5" y="0.5" width="139" height="41.966" rx="4.5" fill="none"/></g><text transform="translate(24.552 12)" fill="#7c848e" font-size="16" font-family="OpenSans-SemiBold, Open Sans" font-weight="600" letter-spacing="0.019em"><tspan x="0" y="17">0.25</tspan></text></g><g transform="translate(0 48)"><g transform="translate(337 210.001)"><g fill="#fff" stroke="#dbdbdb" stroke-width="1"><rect width="288.49" height="90.966" rx="5" stroke="none"/><rect x="0.5" y="0.5" width="287.49" height="89.966" rx="4.5" fill="none"/></g><g transform="translate(94.5)"><text transform="translate(49 76)" fill="#7c848e" font-size="16" font-family="OpenSans-SemiBold, Open Sans" font-weight="600" letter-spacing="0.019em"><tspan x="-4.566" y="0">3</tspan></text><text transform="translate(49 32)" fill="#7c848e" font-size="16" font-family="OpenSans-SemiBold, Open Sans" font-weight="600" letter-spacing="0.019em"><tspan x="-4.566" y="0">2</tspan></text><line x2="80" transform="translate(9.5 45.5)" fill="none" stroke="#7c848e" stroke-width="1.5"/></g></g></g></g></svg>
