<svg xmlns="http://www.w3.org/2000/svg" xmlns:xlink="http://www.w3.org/1999/xlink" width="288.49" height="138.967" viewBox="0 0 288.49 138.967"><defs><filter id="a" x="-13.977" y="-55" width="318.489" height="220.672" filterUnits="userSpaceOnUse"><feOffset dy="3" input="SourceAlpha"/><feGaussianBlur stdDeviation="5" result="b"/><feFlood flood-opacity="0.102"/><feComposite operator="in" in2="b"/><feComposite in="SourceGraphic"/></filter><filter id="c" x="-13.977" y="-7" width="318.489" height="220.672" filterUnits="userSpaceOnUse"><feOffset dy="3" input="SourceAlpha"/><feGaussianBlur stdDeviation="5" result="d"/><feFlood flood-opacity="0.102"/><feComposite operator="in" in2="d"/><feComposite in="SourceGraphic"/></filter></defs><g transform="translate(-309 -187)"><g transform="translate(-28 -23)"><g transform="translate(337 210.001)"><g fill="#fff" stroke="#dbdbdb" stroke-width="1"><rect width="288.489" height="42.966" rx="5" stroke="none"/><rect x="0.5" y="0.5" width="287.489" height="41.966" rx="4.5" fill="none"/></g><path d="M3.859-4.945H.75V-6.336H3.859V-9.523H5.266v3.188H8.383v1.391H5.266v3.172H3.859Z" transform="translate(107.552 29)" fill="#7c848e"/><path d="M8.852-2.492H7.313V0H5.523V-2.492H.3V-3.906l5.219-7.547H7.313v7.438H8.852ZM5.523-4.016V-6.883q0-1.531.078-2.508H5.539a8.862,8.862,0,0,1-.687,1.25L2.016-4.016ZM14.68-6.492v-1.4H22.2v1.4Zm0,3.117V-4.766H22.2v1.391ZM33.86,0H32.025V-7.375q0-1.32.063-2.094-.18.188-.441.414T29.892-7.617L28.97-8.781l3.359-2.641H33.86ZM45.642-5.711a8.125,8.125,0,0,1-.957,4.422A3.267,3.267,0,0,1,41.759.156a3.243,3.243,0,0,1-2.891-1.492,7.979,7.979,0,0,1-.984-4.375,8.17,8.17,0,0,1,.957-4.457A3.268,3.268,0,0,1,41.759-11.6a3.246,3.246,0,0,1,2.9,1.5A8.039,8.039,0,0,1,45.642-5.711Zm-5.9,0a8.322,8.322,0,0,0,.48,3.336,1.6,1.6,0,0,0,1.535,1A1.615,1.615,0,0,0,43.3-2.391a8.216,8.216,0,0,0,.488-3.32A8.281,8.281,0,0,0,43.3-9.035a1.615,1.615,0,0,0-1.543-1.027,1.6,1.6,0,0,0-1.535,1.008A8.383,8.383,0,0,0,39.744-5.711Z" transform="translate(126.552 29)" fill="#7c848e"/><g transform="translate(9.232 9)" fill="none" stroke="#b7b7b7" stroke-width="1"><rect width="88" height="25" rx="4" stroke="none"/><rect x="0.5" y="0.5" width="87" height="24" rx="3.5" fill="none"/></g></g></g><g transform="translate(-28 25)"><g transform="translate(337 210.001)"><g fill="#fff" stroke="#dbdbdb" stroke-width="1"><rect width="288.49" height="90.966" rx="5" stroke="none"/><rect x="0.5" y="0.5" width="287.49" height="89.966" rx="4.5" fill="none"/></g><g transform="translate(76)"><path d="M3.879,0H-3.863V-1.391L-.918-4.352A25.053,25.053,0,0,0,.813-6.246,4.523,4.523,0,0,0,1.434-7.3a2.833,2.833,0,0,0,.2-1.055A1.608,1.608,0,0,0,1.164-9.57a1.781,1.781,0,0,0-1.285-.445,3.426,3.426,0,0,0-1.27.242A5.942,5.942,0,0,0-2.809-8.9L-3.8-10.109A6.4,6.4,0,0,1-1.949-11.25a5.42,5.42,0,0,1,1.914-.336,3.766,3.766,0,0,1,2.555.832A2.81,2.81,0,0,1,3.48-8.516,3.928,3.928,0,0,1,3.2-7.047a5.969,5.969,0,0,1-.852,1.434,19.461,19.461,0,0,1-1.91,2L-1.543-1.7v.078H3.879Z" transform="translate(49 76)" fill="#7c848e"/><path d="M-10.711-6.492v-1.4h7.523v1.4Zm0,3.117V-4.766h7.523v1.391ZM10.391-8.8a2.646,2.646,0,0,1-.633,1.809,3.185,3.185,0,0,1-1.781.973v.063a3.448,3.448,0,0,1,2.062.855,2.447,2.447,0,0,1,.688,1.816A3.018,3.018,0,0,1,9.563-.738,5.34,5.34,0,0,1,6.25.156a7.459,7.459,0,0,1-3.2-.617V-2.094a7.316,7.316,0,0,0,1.539.555,6.682,6.682,0,0,0,1.563.2,3.3,3.3,0,0,0,1.984-.492,1.781,1.781,0,0,0,.656-1.523A1.45,1.45,0,0,0,8.063-4.7a4.64,4.64,0,0,0-2.281-.43H4.789V-6.625H5.8q2.734,0,2.734-1.891a1.394,1.394,0,0,0-.477-1.133,2.146,2.146,0,0,0-1.406-.4,4.258,4.258,0,0,0-1.25.184,5.918,5.918,0,0,0-1.422.715l-.9-1.281a5.988,5.988,0,0,1,3.648-1.156,4.341,4.341,0,0,1,2.7.742A2.436,2.436,0,0,1,10.391-8.8Z" transform="translate(115 52)" fill="#7c848e"/><g transform="translate(9 9)" fill="none" stroke="#b7b7b7" stroke-width="1"><rect width="80" height="25" rx="4" stroke="none"/><rect x="0.5" y="0.5" width="79" height="24" rx="3.5" fill="none"/></g><path d="M0,0H80" transform="translate(9.5 45.5)" fill="none" stroke="#7c848e" stroke-width="1.5"/></g></g></g></g></svg>
