<?xml version="1.0" encoding="utf-8"?>
<!-- Generator: Adobe Illustrator 17.0.0, SVG Export Plug-In . SVG Version: 6.00 Build 0)  -->
<!DOCTYPE svg PUBLIC "-//W3C//DTD SVG 1.1//EN" "http://www.w3.org/Graphics/SVG/1.1/DTD/svg11.dtd">
<svg version="1.1" id="Layer_1" xmlns="http://www.w3.org/2000/svg" xmlns:xlink="http://www.w3.org/1999/xlink" x="0px" y="0px"
	 width="288.488px" height="138.971px" viewBox="0 0 288.488 138.971" enable-background="new 0 0 288.488 138.971"
	 xml:space="preserve">
<g transform="translate(-337 -210)">
	<g transform="translate(337 210.001)">
		<g>
			<path fill="#FFFFFF" d="M5,0h278.489c2.761,0,5,2.239,5,5v128.97c0,2.761-2.239,5-5,5H5c-2.761,0-5-2.239-5-5V5
				C0,2.239,2.239,0,5,0z"/>
			<path fill="none" stroke="#DBDBDB" d="M5,0.5h278.489c2.485,0,4.5,2.015,4.5,4.5v128.97c0,2.485-2.015,4.5-4.5,4.5H5
				c-2.485,0-4.5-2.015-4.5-4.5V5C0.5,2.515,2.515,0.5,5,0.5z"/>
		</g>
	</g>
</g>
<g>
	<g>
		<path fill="#FFFFFF" d="M276.994,103.424c0,2.784-1.8,5.061-4,5.061H14.549c-2.2,0-4-2.278-4-5.061V82.547
			c0-2.784,1.8-5.061,4-5.061h258.445c2.2,0,4,2.278,4,5.061L276.994,103.424L276.994,103.424z"/>
		<path fill="none" stroke="#E6E6E6" d="M276.994,103.424c0,2.784-1.8,5.061-4,5.061H14.549c-2.2,0-4-2.278-4-5.061V82.547
			c0-2.784,1.8-5.061,4-5.061h258.445c2.2,0,4,2.278,4,5.061L276.994,103.424L276.994,103.424z"/>
	</g>
	<g enable-background="new    ">
		<path fill="#444444" d="M11.341,65.509c0.564-0.096,1.355-0.168,2.471-0.168c1.127,0,1.931,0.216,2.471,0.647
			c0.516,0.408,0.863,1.08,0.863,1.871c0,0.792-0.264,1.463-0.744,1.919c-0.624,0.587-1.547,0.851-2.626,0.851
			c-0.24,0-0.456-0.012-0.624-0.036v2.891h-1.811V65.509z M13.152,69.179c0.156,0.036,0.348,0.048,0.612,0.048
			c0.971,0,1.571-0.491,1.571-1.319c0-0.743-0.516-1.188-1.427-1.188c-0.372,0-0.624,0.036-0.756,0.072V69.179z"/>
		<path fill="#444444" d="M21.371,73.485l-0.108-0.588h-0.036c-0.384,0.468-0.983,0.72-1.679,0.72c-1.187,0-1.895-0.863-1.895-1.799
			c0-1.523,1.367-2.254,3.442-2.243v-0.084c0-0.312-0.168-0.755-1.067-0.755c-0.6,0-1.235,0.203-1.619,0.443l-0.336-1.176
			c0.408-0.228,1.211-0.516,2.279-0.516c1.955,0,2.579,1.151,2.579,2.531v2.039c0,0.563,0.024,1.103,0.084,1.427H21.371z
			 M21.155,70.714c-0.959-0.012-1.703,0.216-1.703,0.924c0,0.468,0.312,0.695,0.719,0.695c0.456,0,0.828-0.3,0.948-0.672
			c0.024-0.096,0.036-0.204,0.036-0.312V70.714z"/>
		<path fill="#444444" d="M24.372,69.551c0-0.863-0.024-1.428-0.048-1.932h1.571l0.06,1.08h0.048c0.3-0.852,1.02-1.212,1.583-1.212
			c0.168,0,0.252,0,0.384,0.024v1.715c-0.132-0.023-0.288-0.048-0.492-0.048c-0.672,0-1.127,0.359-1.247,0.923
			c-0.024,0.12-0.036,0.264-0.036,0.407v2.975h-1.823V69.551z"/>
		<path fill="#444444" d="M31.224,65.941v1.679h1.307v1.344h-1.307v2.123c0,0.707,0.168,1.031,0.72,1.031
			c0.228,0,0.408-0.024,0.54-0.048l0.012,1.379c-0.24,0.096-0.672,0.156-1.188,0.156c-0.588,0-1.08-0.204-1.367-0.504
			c-0.336-0.348-0.504-0.911-0.504-1.739v-2.398h-0.779V67.62h0.779v-1.271L31.224,65.941z"/>
		<path fill="#444444" d="M36.072,65.509c0.48-0.096,1.451-0.168,2.363-0.168c1.115,0,1.799,0.108,2.387,0.456
			c0.563,0.3,0.971,0.852,0.971,1.583c0,0.72-0.419,1.391-1.331,1.727v0.024c0.923,0.252,1.607,0.947,1.607,1.991
			c0,0.731-0.335,1.307-0.839,1.715c-0.588,0.468-1.571,0.731-3.178,0.731c-0.899,0-1.571-0.06-1.979-0.12V65.509z M37.883,68.604
			h0.6c0.959,0,1.475-0.396,1.475-0.996c0-0.611-0.468-0.936-1.295-0.936c-0.396,0-0.624,0.024-0.78,0.048V68.604z M37.883,72.19
			c0.18,0.023,0.396,0.023,0.708,0.023c0.828,0,1.559-0.312,1.559-1.163c0-0.815-0.731-1.139-1.643-1.139h-0.624V72.19z"/>
	</g>
	<g>
		<line fill="none" stroke="#B5B5B5" stroke-width="2" x1="24.744" y1="102.65" x2="48.744" y2="102.65"/>
		<line fill="none" stroke="#B5B5B5" stroke-width="2" x1="24.98" y1="93.193" x2="48.98" y2="93.193"/>
		<line fill="none" stroke="#B5B5B5" stroke-width="2" x1="24.744" y1="83.736" x2="48.744" y2="83.736"/>
		<g enable-background="new    ">
			<path fill="#B5B5B5" d="M17.695,84.254l-0.56,1.695h-0.72l1.831-5.389h0.84l1.839,5.389h-0.744l-0.576-1.695H17.695z
				 M19.462,83.711l-0.527-1.552c-0.12-0.352-0.2-0.672-0.28-0.983h-0.016c-0.08,0.32-0.168,0.647-0.272,0.976l-0.528,1.56H19.462z"
				/>
		</g>
		<g enable-background="new    ">
			<path fill="#B5B5B5" d="M16.824,90.107c0.304-0.063,0.784-0.111,1.271-0.111c0.696,0,1.144,0.12,1.479,0.392
				c0.28,0.208,0.447,0.527,0.447,0.951c0,0.52-0.344,0.976-0.911,1.184v0.016c0.512,0.128,1.111,0.552,1.111,1.352
				c0,0.464-0.184,0.815-0.456,1.079c-0.375,0.344-0.983,0.504-1.863,0.504c-0.479,0-0.848-0.032-1.08-0.063V90.107z M17.52,92.314
				h0.632c0.735,0,1.167-0.384,1.167-0.903c0-0.632-0.48-0.88-1.184-0.88c-0.32,0-0.504,0.024-0.616,0.048V92.314z M17.52,94.897
				c0.136,0.023,0.336,0.031,0.583,0.031c0.72,0,1.383-0.264,1.383-1.047c0-0.735-0.631-1.04-1.391-1.04H17.52V94.897z"/>
		</g>
		<g enable-background="new    ">
			<path fill="#B5B5B5" d="M20.59,104.724c-0.256,0.128-0.768,0.256-1.423,0.256c-1.519,0-2.662-0.96-2.662-2.727
				c0-1.688,1.143-2.83,2.814-2.83c0.671,0,1.095,0.144,1.279,0.239l-0.168,0.567c-0.264-0.127-0.64-0.224-1.087-0.224
				c-1.264,0-2.103,0.808-2.103,2.223c0,1.319,0.76,2.167,2.071,2.167c0.424,0,0.855-0.088,1.135-0.224L20.59,104.724z"/>
		</g>
	</g>
</g>
<g>
	<g>
		<path fill="#FFFFFF" d="M276.994,51.424c0,2.784-1.8,5.061-4,5.061H14.549c-2.2,0-4-2.278-4-5.061V30.546
			c0-2.784,1.8-5.061,4-5.061h258.445c2.2,0,4,2.278,4,5.061L276.994,51.424L276.994,51.424z"/>
		<path fill="none" stroke="#E6E6E6" d="M276.994,51.424c0,2.784-1.8,5.061-4,5.061H14.549c-2.2,0-4-2.278-4-5.061V30.546
			c0-2.784,1.8-5.061,4-5.061h258.445c2.2,0,4,2.278,4,5.061L276.994,51.424L276.994,51.424z"/>
	</g>
	<g enable-background="new    ">
		<path fill="#444444" d="M11.341,13.509c0.564-0.096,1.355-0.168,2.471-0.168c1.127,0,1.931,0.216,2.471,0.647
			c0.516,0.408,0.863,1.08,0.863,1.871c0,0.792-0.264,1.463-0.744,1.919c-0.624,0.588-1.547,0.852-2.626,0.852
			c-0.24,0-0.456-0.012-0.624-0.036v2.891h-1.811V13.509z M13.152,17.179c0.156,0.036,0.348,0.048,0.612,0.048
			c0.971,0,1.571-0.491,1.571-1.319c0-0.743-0.516-1.188-1.427-1.188c-0.372,0-0.624,0.036-0.756,0.072V17.179z"/>
		<path fill="#444444" d="M21.371,21.485l-0.108-0.588h-0.036c-0.384,0.468-0.983,0.72-1.679,0.72c-1.187,0-1.895-0.863-1.895-1.799
			c0-1.523,1.367-2.255,3.442-2.243V17.49c0-0.312-0.168-0.755-1.067-0.755c-0.6,0-1.235,0.203-1.619,0.443l-0.336-1.176
			c0.408-0.228,1.211-0.516,2.279-0.516c1.955,0,2.579,1.151,2.579,2.531v2.039c0,0.563,0.024,1.103,0.084,1.427H21.371z
			 M21.155,18.714c-0.959-0.012-1.703,0.216-1.703,0.924c0,0.468,0.312,0.695,0.719,0.695c0.456,0,0.828-0.3,0.948-0.672
			c0.024-0.096,0.036-0.204,0.036-0.312V18.714z"/>
		<path fill="#444444" d="M24.372,17.551c0-0.863-0.024-1.428-0.048-1.932h1.571l0.06,1.08h0.048c0.3-0.852,1.02-1.212,1.583-1.212
			c0.168,0,0.252,0,0.384,0.024v1.715c-0.132-0.023-0.288-0.048-0.492-0.048c-0.672,0-1.127,0.359-1.247,0.924
			c-0.024,0.12-0.036,0.264-0.036,0.407v2.975h-1.823V17.551z"/>
		<path fill="#444444" d="M31.224,13.941v1.679h1.307v1.344h-1.307v2.123c0,0.707,0.168,1.031,0.72,1.031
			c0.228,0,0.408-0.024,0.54-0.048l0.012,1.379c-0.24,0.096-0.672,0.156-1.188,0.156c-0.588,0-1.08-0.204-1.367-0.504
			c-0.336-0.348-0.504-0.911-0.504-1.739v-2.398h-0.779v-1.344h0.779v-1.271L31.224,13.941z"/>
		<path fill="#444444" d="M37.955,19.409l-0.576,2.075h-1.895l2.47-8.084h2.399l2.507,8.084h-1.967l-0.624-2.075H37.955z
			 M40.006,18.042l-0.504-1.715c-0.144-0.479-0.288-1.079-0.408-1.56h-0.024c-0.12,0.48-0.24,1.092-0.372,1.56l-0.479,1.715H40.006z
			"/>
	</g>
	<g>
		<line fill="none" stroke="#B5B5B5" stroke-width="2" x1="24.744" y1="50.649" x2="48.744" y2="50.649"/>
		<line fill="none" stroke="#B5B5B5" stroke-width="2" x1="24.98" y1="41.192" x2="48.98" y2="41.192"/>
		<line fill="none" stroke="#B5B5B5" stroke-width="2" x1="24.744" y1="31.735" x2="48.744" y2="31.735"/>
		<g enable-background="new    ">
			<path fill="#B5B5B5" d="M17.695,32.254l-0.56,1.695h-0.72l1.831-5.389h0.84l1.839,5.389h-0.744l-0.576-1.695H17.695z
				 M19.462,31.711l-0.527-1.552c-0.12-0.352-0.2-0.672-0.28-0.983h-0.016c-0.08,0.32-0.168,0.647-0.272,0.976l-0.528,1.56H19.462z"
				/>
		</g>
		<g enable-background="new    ">
			<path fill="#B5B5B5" d="M16.824,38.106c0.304-0.063,0.784-0.111,1.271-0.111c0.696,0,1.144,0.12,1.479,0.392
				c0.28,0.208,0.447,0.527,0.447,0.951c0,0.52-0.344,0.976-0.911,1.184v0.016c0.512,0.128,1.111,0.552,1.111,1.352
				c0,0.464-0.184,0.815-0.456,1.079c-0.375,0.344-0.983,0.504-1.863,0.504c-0.479,0-0.848-0.032-1.08-0.063V38.106z M17.52,40.313
				h0.632c0.735,0,1.167-0.384,1.167-0.903c0-0.632-0.48-0.88-1.184-0.88c-0.32,0-0.504,0.024-0.616,0.048V40.313z M17.52,42.896
				c0.136,0.023,0.336,0.031,0.583,0.031c0.72,0,1.383-0.264,1.383-1.047c0-0.735-0.631-1.04-1.391-1.04H17.52V42.896z"/>
		</g>
		<g enable-background="new    ">
			<path fill="#B5B5B5" d="M20.59,52.723c-0.256,0.128-0.768,0.256-1.423,0.256c-1.519,0-2.662-0.96-2.662-2.727
				c0-1.688,1.143-2.83,2.814-2.83c0.671,0,1.095,0.144,1.279,0.239l-0.168,0.567c-0.264-0.127-0.64-0.224-1.087-0.224
				c-1.264,0-2.103,0.808-2.103,2.223c0,1.319,0.76,2.167,2.071,2.167c0.424,0,0.855-0.088,1.135-0.224L20.59,52.723z"/>
		</g>
	</g>
</g>
</svg>
