<svg xmlns="http://www.w3.org/2000/svg" width="23.54" height="39.319" viewBox="0 0 23.54 39.319">
    <g transform="translate(-289.999 -376.5)">
        <path d="M302.746,398.858h10.793v16.961H302.746Z" fill="none"/>
        <path d="M305.746,398.858h2v1h-2Zm3,0h2v1h-2Zm3,0h1.793v1h-1.793Zm.793,1.207h1v2h-1Zm0,3h1v2h-1Zm0,3h1v2h-1Zm0,3h1v2h-1Zm0,3h1v2h-1Zm-.245,2.754h1.245v.246h0v0h0v.754h-1.245Zm-3,0h2v1h-2Zm-3,0h2v1h-2Zm-3.548-1.452h1v1.452h1.548v1h-2v-.452h-.548Zm0-3h1v2h-1Zm0-3h1v2h-1Zm0-3h1v2h-1Zm0-3h1v2h-1Zm0-2.509h2v1h-1v.509h-1Z" fill="#707070"/>
        <path d="M302.746,376.5h10.793v16.961H302.746Z" fill="none"/>
        <path d="M305.746,376.5h2v1h-2Zm3,0h2v1h-2Zm3,0h1.793v1h-1.793Zm.793,1.207h1v2h-1Zm0,3h1v2h-1Zm0,3h1v2h-1Zm0,3h1v2h-1Zm0,3h1v2h-1Zm-.245,2.754h1.245v.246h0v0h0v.754h-1.245Zm-3,0h2v1h-2Zm-3,0h2v1h-2Zm-3.548-1.452h1v1.452h1.548v1h-2v-.452h-.548Zm0-3h1v2h-1Zm0-3h1v2h-1Zm0-3h1v2h-1Zm0-3h1v2h-1Zm0-2.509h2v1h-1v.509h-1Z" fill="#707070"/>
        <path d="M293.039,398.651q0-2.125-3.04-2.126v-2.182a4.049,4.049,0,0,0,2.291-.52,1.8,1.8,0,0,0,.749-1.583v-3.554a2.946,2.946,0,0,1,1.24-2.623,6.672,6.672,0,0,1,3.72-.84v2.08a3.251,3.251,0,0,0-1.891.531,1.7,1.7,0,0,0-.586,1.412v3.394q0,2.274-2.62,2.72v.14q2.62.408,2.62,2.706v3.417a1.729,1.729,0,0,0,.58,1.417,3.073,3.073,0,0,0,1.9.5v2.094a6.508,6.508,0,0,1-3.8-.9,3.312,3.312,0,0,1-1.163-2.826Z" fill="#707070"/>
    </g>
</svg>