<svg xmlns="http://www.w3.org/2000/svg" width="23.541" height="39.319" viewBox="0 0 23.541 39.319"><path d="M313.539,398.858H302.746v16.961h10.793Z" transform="translate(-302.746 -376.5)" fill="none"/><path d="M310.539,398.858h-2v1h2Zm-3,0h-2v1h2Zm-3,0h-1.793v1h1.793Zm-.793,1.207h-1v2h1Zm0,3h-1v2h1Zm0,3h-1v2h1Zm0,3h-1v2h1Zm0,3h-1v2h1Zm.245,2.754h-1.245v.246h0v0h0v.754h1.245Zm3,0h-2v1h2Zm3,0h-2v1h2Zm3.548-1.452h-1v1.452h-1.548v1h2v-.452h.548Zm0-3h-1v2h1Zm0-3h-1v2h1Zm0-3h-1v2h1Zm0-3h-1v2h1Zm0-2.509h-2v1h1v.509h1Z" transform="translate(-302.746 -376.5)" fill="#707070"/><path d="M313.539,376.5H302.746v16.961h10.793Z" transform="translate(-302.746 -376.5)" fill="none"/><path d="M310.539,376.5h-2v1h2Zm-3,0h-2v1h2Zm-3,0h-1.793v1h1.793Zm-.793,1.207h-1v2h1Zm0,3h-1v2h1Zm0,3h-1v2h1Zm0,3h-1v2h1Zm0,3h-1v2h1Zm.245,2.754h-1.245v.246h0v0h0v.754h1.245Zm3,0h-2v1h2Zm3,0h-2v1h2Zm3.548-1.452h-1v1.452h-1.548v1h2v-.452h.548Zm0-3h-1v2h1Zm0-3h-1v2h1Zm0-3h-1v2h1Zm0-3h-1v2h1Zm0-2.509h-2v1h1v.509h1Z" transform="translate(-302.746 -376.5)" fill="#707070"/><path d="M294.962,398.651q0-2.125,3.04-2.126v-2.182a4.049,4.049,0,0,1-2.291-.52,1.8,1.8,0,0,1-.749-1.583v-3.554a2.946,2.946,0,0,0-1.24-2.623,6.673,6.673,0,0,0-3.72-.84v2.08a3.252,3.252,0,0,1,1.891.531,1.7,1.7,0,0,1,.586,1.412v3.394q0,2.274,2.62,2.72v.14q-2.621.408-2.62,2.706v3.417a1.729,1.729,0,0,1-.58,1.417,3.073,3.073,0,0,1-1.9.5v2.094a6.509,6.509,0,0,0,3.8-.9,3.312,3.312,0,0,0,1.163-2.826Z" transform="translate(-274.461 -376.5)" fill="#707070"/></svg>