<svg xmlns="http://www.w3.org/2000/svg" width="12.352" height="29.718" viewBox="0 0 12.352 29.718"><defs><style>.a{fill:#1ab395;}.b{fill:#22242b;}</style></defs><g transform="translate(-877.791 -393.367)"><path class="a" d="M0,0H2V1H1V2.894H0ZM3,0H5V1H3ZM6,0H8V1H6ZM9,0h1.861V1H9Zm.861,1.139h1v2h-1Zm0,3h1v2h-1Zm0,3h1v2h-.053v.947h-2v-1H9.861ZM5.808,9.086h2v1h-2Zm-3,0h2v1h-2ZM0,9.086H1.808v1H0ZM0,6.894H1v2H0Zm0-3H1v2H0Z" transform="translate(878.47 413)"/><path class="b" d="M.891,0V-2.262L6.457-8.953,1.031-14.906v-2.227h11.52v2.4H6.645l-2.52-.082L9.48-8.977,3.867-2.309l3.668-.07h5.707V0Z" transform="translate(876.9 410.5)"/></g></svg>