<svg xmlns="http://www.w3.org/2000/svg" width="13" height="33.133" viewBox="0 0 13 33.133"><g transform="translate(-192 -293)"><path d="M.891,0V-2.262L6.457-8.953,1.031-14.906v-2.227h11.52v2.4H6.645l-2.52-.082L9.48-8.977,3.867-2.309l3.668-.07h5.707V0Z" transform="translate(191.109 326.133)" fill="#22242b"/><path d="M3,0H5V1H3ZM6,0H8V1H6ZM9,0h2V1H9Zm3,0h1V1H12Zm0,2h1V4H12Zm0,3h1V7H12Zm0,3h1v2H12Zm0,3h1v2H12Zm-2,1h2v1H10ZM7,12H9v1H7ZM4,12H6v1H4ZM1,12H3v1H1ZM0,11H1v2H0ZM0,8H1v2H0ZM0,5H1V7H0ZM0,2H1V4H0ZM0,0H2V1H0Z" transform="translate(192 293)" fill="#1ab395"/></g></svg>