<svg xmlns="http://www.w3.org/2000/svg" width="28.102" height="19.297" viewBox="0 0 28.102 19.297"><g transform="translate(-363 -301)"><path d="M.477.109H-.516L-2.7-6H-4.1V-7.055h2.258L-.008-1.711,4.008-13.187h1.07Z" transform="translate(370.102 320.188)" fill="#22242b"/><path d="M0,0H2V1H1V3H0ZM3,0H5V1H3ZM6,0H8V1H6ZM9,0h2V1H9Zm3,0h2V3H13V1H12Zm1,4h1V6H13Zm0,3h1V9H13Zm0,3h1v3H12V12h1ZM9,12h2v1H9ZM6,12H8v1H6ZM3,12H5v1H3ZM0,12H2v1H0Zm0-2H1v2H0ZM0,7H1V9H0ZM0,4H1V6H0Z" transform="translate(377.102 307.188)" fill="#1ab395"/><path d="M1.843-9.407a2.067,2.067,0,0,1-.494,1.413,2.488,2.488,0,0,1-1.392.76v.049a2.694,2.694,0,0,1,1.611.668A1.912,1.912,0,0,1,2.105-5.1,2.358,2.358,0,0,1,1.2-3.111a4.172,4.172,0,0,1-2.588.7,5.828,5.828,0,0,1-2.5-.482V-4.17a5.716,5.716,0,0,0,1.2.433,5.22,5.22,0,0,0,1.221.153,2.575,2.575,0,0,0,1.55-.385,1.391,1.391,0,0,0,.513-1.19,1.133,1.133,0,0,0-.568-1.05,3.625,3.625,0,0,0-1.782-.336h-.775V-7.71h.787Q.39-7.71.39-9.187a1.089,1.089,0,0,0-.372-.885,1.676,1.676,0,0,0-1.1-.311,3.327,3.327,0,0,0-.977.143,4.624,4.624,0,0,0-1.111.558l-.7-1a4.678,4.678,0,0,1,2.85-.9,3.391,3.391,0,0,1,2.106.58A1.9,1.9,0,0,1,1.843-9.407Z" transform="translate(366.895 312.586)" fill="#22242b"/></g></svg>