<svg xmlns="http://www.w3.org/2000/svg" width="14" height="28.259" viewBox="0 0 14 28.259">
    <defs>
        <style>.a{fill:#707070;stroke:#707070;}.b{fill:none;stroke-dasharray:2 1;}.c,.d{stroke:none;}.d{fill:#6a737f;}</style>
    </defs>
    <g transform="translate(-7.82 6.259)">
        <path class="a" d="M-14.82-7.415a6.891,6.891,0,0,1,.345-2.206,5.483,5.483,0,0,1,.994-1.8h.912a6.357,6.357,0,0,0-.947,1.874,6.988,6.988,0,0,0-.329,2.123,6.8,6.8,0,0,0,.329,2.1,6.349,6.349,0,0,0,.938,1.841h-.9a5.24,5.24,0,0,1-1-1.765A6.712,6.712,0,0,1-14.82-7.415Z" transform="translate(7.84 9.061) rotate(90)"/>
        <g class="b" transform="translate(7.82)">
            <path class="c" d="M0,0H14V22H0Z"/>
            <path class="d" d="M 0 0 L 2 0 L 2 1 L 1 1 L 1 3 L 0 3 L 0 0 Z M 3 0 L 5 0 L 5 1 L 3 1 L 3 0 Z M 6 0 L 8 0 L 8 1 L 6 1 L 6 0 Z M 9 0 L 11 0 L 11 1 L 9 1 L 9 0 Z M 12 0 L 14 0 L 14 1 L 14 1 C 14 1 14 3 14 3 L 13 3 L 13 1 L 12 1 L 12 0 Z M 13 4 L 14 4 C 14 4 14 6 14 6 L 13 6 L 13 4 Z M 13 7 L 14 7 C 14 7 14 9 14 9 L 13 9 L 13 7 Z M 13 10 L 14 10 C 14 10 14 12 14 12 L 13 12 L 13 10 Z M 13 13 L 14 13 C 14 13 14 15 14 15 L 13 15 L 13 13 Z M 13 16 L 14 16 C 14 16 14 18 14 18 L 13 18 L 13 16 Z M 13 19 L 14 19 C 14 19 14 21 14 21 L 14 21 L 14 22 C 14 22 12 22 12 22 L 12 21 L 13 21 L 13 19 Z M 9 21 L 11 21 L 11 22 C 11 22 9 22 9 22 L 9 21 Z M 6 21 L 8 21 L 8 22 C 8 22 6 22 6 22 L 6 21 Z M 3 21 L 5 21 L 5 22 C 5 22 3 22 3 22 L 3 21 Z M 0 21 L 2 21 L 2 22 C 2 22 0 22 0 22 L 0 21 Z M 0 19 L 1 19 L 1 21 L 0 21 L 0 19 Z M 0 16 L 1 16 L 1 18 L 0 18 L 0 16 Z M 0 13 L 1 13 L 1 15 L 0 15 L 0 13 Z M 0 10 L 1 10 L 1 12 L 0 12 L 0 10 Z M 0 7 L 1 7 L 1 9 L 0 9 L 0 7 Z M 0 4 L 1 4 L 1 6 L 0 6 L 0 4 Z"/>
        </g>
    </g>
</svg>