<svg width="28px" height="23px" viewBox="0 0 28 23" version="1.1" 
    xmlns="http://www.w3.org/2000/svg" 
    xmlns:xlink="http://www.w3.org/1999/xlink">
    <g id="Page-1" stroke="none" stroke-width="1" fill="none" fill-rule="evenodd">
        <g id="1058" transform="translate(-9.000000, -5.000000)">
            <path d="M37.1619353,21.7900722 C37.1074796,21.6959567 37.0085866,21.6363189 36.8999353,21.6320722 L31.6799353,21.6320722 C31.571284,21.6363189 31.4723909,21.6959567 31.4179353,21.7900722 C31.3425298,21.900341 31.3036991,22.0315255 31.3069353,22.1650722 C31.3039097,22.2982797 31.3427309,22.4290826 31.4179353,22.5390722 L34.0279353,26.2680722 C34.0809188,26.3630631 34.1811671,26.4219353 34.2899353,26.4219353 C34.3987034,26.4219353 34.4989518,26.3630631 34.5519353,26.2680722 L37.1619353,22.5390722 C37.2371396,22.4290826 37.2759608,22.2982797 37.2729353,22.1650722 C37.2761036,22.0315345 37.237279,21.9003703 37.1619353,21.7900722 Z" id="Path" fill="#707070" fill-rule="nonzero" transform="translate(34.289932, 24.027004) rotate(-90.000000) translate(-34.289932, -24.027004) "></path>
            <line x1="17.699" y1="23.997" x2="34.205" y2="23.997" id="Path" stroke="#707070"></line>
            <polygon id="Path" fill="#707070" fill-rule="nonzero" points="12.289 25.105 10.501 27.373 8.922 27.373 11.706 24.038 10.349 20.89 11.785 20.89 12.629 23.076 14.311 20.89 15.922 20.89 13.222 24.108 14.669 27.373 13.222 27.373"></polygon>
            <path d="M13.691,17.452 L11.863,17.452 L14.441,5.296 L16.277,5.296 L13.691,17.452 Z M18.472,6.686 C18.4567535,6.37158718 18.5643297,6.06356066 18.772,5.827 C18.9978238,5.59919698 19.3108165,5.47968403 19.631,5.499 C19.8722395,5.48788564 20.1098274,5.56107119 20.303,5.706 C20.483476,5.86318002 20.5791208,6.09636059 20.561,6.335 C20.5786907,6.65672569 20.4662553,6.97204935 20.249,7.21 C20.0321178,7.42614569 19.7349578,7.54211056 19.429,7.53 C19.1843009,7.54016937 18.9430041,7.46992286 18.742,7.33 C18.5511093,7.17320724 18.4503517,6.93198841 18.473,6.686 L18.472,6.686 Z M18.105,17.452 L16.262,17.452 L18.106,8.811 L19.942,8.811 L18.105,17.452 Z M26.6,8.652 C27.1107424,8.61723451 27.6131645,8.79496738 27.9884341,9.14316156 C28.3637037,9.49135573 28.5784929,9.97908772 28.582,10.491 L28.645,10.491 C28.9822801,9.94122167 29.4371813,9.47300125 29.977,9.12 C30.4385682,8.81960168 30.9763123,8.65723768 31.527,8.652 C32.1165432,8.61210124 32.6941907,8.8311837 33.109,9.252 C33.496521,9.7244265 33.6905564,10.3261863 33.652,10.936 C33.6357498,11.4120879 33.5782005,11.8858665 33.48,12.352 L32.387,17.452 L30.551,17.452 L31.668,12.202 C31.7463567,11.860425 31.7958643,11.5128683 31.816,11.163 C31.816,10.491 31.501,10.155 30.871,10.155 C30.2218017,10.2060348 29.6369697,10.5667618 29.3,11.124 C28.7595992,11.8920642 28.3943411,12.7693662 28.23,13.694 L27.441,17.452 L25.605,17.452 L26.723,12.202 C26.7987698,11.8763136 26.8433048,11.544143 26.856,11.21 C26.856,10.5066667 26.5513333,10.155 25.942,10.155 C25.2815062,10.2052645 24.6875163,10.5758544 24.352,11.147 C23.8092131,11.9412274 23.440483,12.8412422 23.27,13.788 L22.5,17.452 L20.66,17.452 L22.5,8.811 L23.941,8.811 L23.777,10.411 L23.847,10.411 C24.3896994,9.37969229 25.436116,8.71109553 26.6,8.652 Z" id="Shape" fill="#707070" fill-rule="nonzero"></path>
            <g id="Group">
                <polygon id="Path" points="0 0 46 0 46 32.9 0 32.9"></polygon>
            </g>
        </g>
    </g>
</svg>