<svg xmlns="http://www.w3.org/2000/svg" width="26" height="4.108" viewBox="0 0 26 4.108">
    <path d="M-1.16-.123A2.074,2.074,0,0,1-.648-1.631,1.976,1.976,0,0,1,.833-2.156a1.952,1.952,0,0,1,1.495.545A2.088,2.088,0,0,1,2.84-.123a2.14,2.14,0,0,1-.519,1.515,1.93,1.93,0,0,1-1.488.559A1.92,1.92,0,0,1-.648,1.4,2.152,2.152,0,0,1-1.16-.123Z" transform="translate(1.16 2.156)" fill="#22242b"/>
    <path d="M-1.16-.123A2.074,2.074,0,0,1-.648-1.631,1.976,1.976,0,0,1,.833-2.156a1.952,1.952,0,0,1,1.495.545A2.088,2.088,0,0,1,2.84-.123a2.14,2.14,0,0,1-.519,1.515,1.93,1.93,0,0,1-1.488.559A1.92,1.92,0,0,1-.648,1.4,2.152,2.152,0,0,1-1.16-.123Z" transform="translate(12.16 2.156)" fill="#22242b"/>
    <path d="M-1.16-.123A2.074,2.074,0,0,1-.648-1.631,1.976,1.976,0,0,1,.833-2.156a1.952,1.952,0,0,1,1.495.545A2.088,2.088,0,0,1,2.84-.123a2.14,2.14,0,0,1-.519,1.515,1.93,1.93,0,0,1-1.488.559A1.92,1.92,0,0,1-.648,1.4,2.152,2.152,0,0,1-1.16-.123Z" transform="translate(23.16 2.156)" fill="#22242b"/>
</svg>