<svg width="11px" height="10px" viewBox="0 0 11 10" version="1.1" 
    xmlns="http://www.w3.org/2000/svg" 
    xmlns:xlink="http://www.w3.org/1999/xlink">
    <g id="Page-1" stroke="none" stroke-width="1" fill="none" fill-rule="evenodd">
        <g id="2207" transform="translate(-1.000000, 0.000000)" fill="#707070" fill-rule="nonzero">
            <path d="M1.77646886,3.59960024 C1.75552073,3.27956268 1.86355689,2.9644572 2.07646886,2.72460024 C2.30913468,2.51034578 2.62000503,2.40177639 2.93546886,2.42460024 C3.25623333,2.40201147 3.57146817,2.51690675 3.80246886,2.74060024 C4.01131275,2.97806247 4.11898428,3.28779758 4.10246886,3.60360024 C4.12001478,3.92438647 4.01247536,4.23947696 3.80246886,4.48260024 C3.5732458,4.70956488 3.25722751,4.8265682 2.93546886,4.80360024 C2.61648239,4.82514009 2.30361679,4.70858946 2.07646886,4.48360024 C1.86596975,4.23878485 1.75845213,3.92196625 1.77646886,3.59960024 L1.77646886,3.59960024 Z M3.89931855,9.96673689 C3.87837042,9.64669932 3.98640658,9.33159385 4.19931855,9.09173689 C4.4313267,8.87603168 4.74227509,8.76598708 5.05831855,8.78773689 C5.37908301,8.76514811 5.69431786,8.8800434 5.92531855,9.10373689 C6.13416244,9.34119912 6.24183397,9.65093422 6.22531855,9.96673689 C6.24286447,10.2875231 6.13532505,10.6026136 5.92531855,10.8457369 C5.69679461,11.074163 5.3806866,11.192658 5.05831855,11.1707369 C4.73933208,11.1922767 4.42646648,11.0757261 4.19931855,10.8507369 C3.98845897,10.6060734 3.88057735,10.2892384 3.89831855,9.96673689 L3.89931855,9.96673689 Z M8.43463407,4.99649511 C8.41368594,4.67645754 8.52172211,4.36135207 8.73463407,4.12149511 C8.96729989,3.90724065 9.27817024,3.79867126 9.59363407,3.82149511 C9.91439854,3.79890633 10.2296334,3.91380162 10.4606341,4.13749511 C10.669478,4.37495734 10.7771495,4.68469244 10.7606341,5.00049511 C10.77818,5.32128134 10.6706406,5.63637183 10.4606341,5.87949511 C10.2328787,6.10647006 9.9184905,6.22450223 9.59763407,6.20349511 C9.27864761,6.22503495 8.96578201,6.10848432 8.73863407,5.88349511 C8.52487043,5.63898786 8.41475298,5.32083092 8.43163407,4.99649511 L8.43463407,4.99649511 Z" id="Shape" transform="translate(6.268196, 6.797464) rotate(45.000000) translate(-6.268196, -6.797464) "></path>
        </g>
    </g>
</svg>