<svg width="8px" height="7px" viewBox="0 0 8 7" version="1.1" 
    xmlns="http://www.w3.org/2000/svg" 
    xmlns:xlink="http://www.w3.org/1999/xlink">
    <g id="Page-1" stroke="none" stroke-width="1" fill="none" fill-rule="evenodd">
        <g id="2207" fill="#707070" fill-rule="nonzero">
            <path d="M0.00246231856,1.11606776 C-0.0176497904,0.812853437 0.0860747542,0.514311943 0.290489614,0.28706341 C0.513869969,0.0840715468 0.812333789,-0.0187907342 1.11520777,0.00283334606 C1.42317084,-0.0185680174 1.72582497,0.090287628 1.94760665,0.302222347 C2.14811579,0.527202032 2.25149026,0.820655457 2.23563395,1.1198575 C2.25247963,1.42378113 2.14923201,1.72230843 1.94760665,1.95265159 C1.72753167,2.1676855 1.42412535,2.27853837 1.11520777,2.25677776 C0.808951739,2.27718533 0.508572298,2.16676135 0.290489614,1.95359902 C0.0883913218,1.72165271 -0.0148353793,1.42148814 0.00246231856,1.11606776 L0.00246231856,1.11606776 Z M3.17150978,5.02784 C3.39425872,4.82347365 3.69279746,4.71921371 3.99622794,4.7398202 C4.30419101,4.71841884 4.60684514,4.82727448 4.82862682,5.0392092 C5.02913596,5.26418889 5.13251043,5.55764231 5.11665412,5.85684435 C5.1334998,6.16076799 5.03025218,6.45929529 4.82862682,6.68963844 C4.60922305,6.90605704 4.3057306,7.01832311 3.99622794,6.99755435 C3.68997191,7.01796192 3.38959247,6.90753794 3.17150978,6.69437561 C2.96906541,6.46257326 2.86548923,6.16239308 2.8825224,5.85684435 C2.86337038,5.55363003 2.96709492,5.25508853 3.17150978,5.02784 Z M5.76504858,1.11606776 C5.74493647,0.812853437 5.84866101,0.514311943 6.05307587,0.28706341 C6.27645623,0.0840715468 6.57492005,-0.0187907342 6.87779403,0.00283334606 C7.1857571,-0.0185680174 7.48841123,0.090287628 7.71019291,0.302222347 C7.91070205,0.527202032 8.01407652,0.820655457 7.99822021,1.1198575 C8.01506589,1.42378113 7.91181827,1.72230843 7.71019291,1.95265159 C7.49152701,2.16769527 7.18968576,2.27952291 6.88163439,2.25962006 C6.57537836,2.28002763 6.27499892,2.16960365 6.05691624,1.95644132 C5.85168369,1.72478695 5.74596092,1.42335439 5.76216831,1.11606776 L5.76504858,1.11606776 Z" id="Shape"></path>
        </g>
    </g>
</svg>