<?xml version="1.0" encoding="UTF-8"?>
<svg width="3px" height="7px" viewBox="0 0 3 7" version="1.1" 
    xmlns="http://www.w3.org/2000/svg" 
    xmlns:xlink="http://www.w3.org/1999/xlink">
    <g id="Page-1" stroke="none" stroke-width="1" fill="none" fill-rule="evenodd">
        <g id="2207" fill="#707070" fill-rule="nonzero">
            <path d="M0.291236831,4.29067226 C0.513985769,4.08630591 0.812524512,3.98204597 1.11595499,4.00265246 C1.42391806,3.9812511 1.72657219,4.09010675 1.94835387,4.30204147 C2.14886301,4.52702115 2.25223747,4.82047458 2.23638116,5.11967662 C2.25322685,5.42360025 2.14997922,5.72212755 1.94835387,5.95247071 C1.7289501,6.1688893 1.42545764,6.28115537 1.11595499,6.26038661 C0.809698956,6.28079418 0.509319515,6.1703702 0.291236831,5.95720787 C0.0887924538,5.72540552 -0.0147837209,5.42522535 0.0022494443,5.11967662 C-0.0169025737,4.81646229 0.086821971,4.5179208 0.291236831,4.29067226 Z M0.00450267306,1.11606776 C-0.0156094359,0.812853437 0.0881151087,0.514311943 0.292529968,0.28706341 C0.515910323,0.0840715468 0.814374143,-0.0187907342 1.11724812,0.00283334606 C1.4252112,-0.0185680174 1.72786533,0.090287628 1.94964701,0.302222347 C2.15015615,0.527202032 2.25353061,0.820655457 2.2376743,1.1198575 C2.25451999,1.42378113 2.15127236,1.72230843 1.94964701,1.95265159 C1.73098111,2.16769527 1.42913985,2.27952291 1.12108849,2.25962006 C0.814832457,2.28002763 0.514453017,2.16960365 0.296370332,1.95644132 C0.0911377881,1.72478695 -0.0145849855,1.42335439 0.00162240011,1.11606776 L0.00450267306,1.11606776 Z" id="Shape"></path>
        </g>
    </g>
</svg>