<svg xmlns="http://www.w3.org/2000/svg" width="39" height="11.495" viewBox="0 0 39 11.495"><path d="M-11.665-1.4a3.381,3.381,0,0,0,1.171-.24V-.26a3.361,3.361,0,0,1-.737.233,4.384,4.384,0,0,1-.931.1q-2.125,0-2.125-1.916a4.876,4.876,0,0,1,.124-1.016l.939-4.421H-14.48l.163-.853,1.474-.636,1-1.8h1.132l-.4,1.908H-8.95l-.3,1.381H-11.4l-.946,4.437a3.208,3.208,0,0,0-.1.714.726.726,0,0,0,.194.531A.792.792,0,0,0-11.665-1.4Zm5.4,1.474A2.105,2.105,0,0,1-8-.714a3.438,3.438,0,0,1-.636-2.214A7.91,7.91,0,0,1-8.093-5.86a5.29,5.29,0,0,1,1.485-2.16,3.16,3.16,0,0,1,2.079-.8,2.324,2.324,0,0,1,1.3.353,2.315,2.315,0,0,1,.845,1.028h.078l.481-1.226h1.4L-2.264-.082H-3.676l.163-1.365h-.047A3.482,3.482,0,0,1-6.266.073ZM-5.6-1.4A1.8,1.8,0,0,0-4.35-2,4.54,4.54,0,0,0-3.342-3.611a5.98,5.98,0,0,0,.4-2.2,1.6,1.6,0,0,0-.365-1.1,1.209,1.209,0,0,0-.954-.415,1.723,1.723,0,0,0-1.241.6A4.249,4.249,0,0,0-6.437-5.1a6.576,6.576,0,0,0-.349,2.129,1.868,1.868,0,0,0,.314,1.183A1.056,1.056,0,0,0-5.6-1.4ZM5.283-.082l1.1-5.212a5.861,5.861,0,0,0,.14-1.016.891.891,0,0,0-1-1.016,1.738,1.738,0,0,0-1.1.442,4,4,0,0,0-.977,1.276A7.221,7.221,0,0,0,2.793-3.72L2.033-.082H.2L2.033-8.661H3.46L3.3-7.07h.07A4.648,4.648,0,0,1,4.694-8.4a2.8,2.8,0,0,1,1.482-.415,2.135,2.135,0,0,1,1.609.589,2.312,2.312,0,0,1,.57,1.675,7.323,7.323,0,0,1-.178,1.4L7.114-.082Zm17.98-11.34H24.52L23.077-4.627H21.6L22.363-8.2q.132-.613.442-1.683-.163.155-.384.334t-1.191.8l-.6-1Z" transform="translate(14.48 11.422)" fill="#22242b"/><path d="M0,0H6.95" transform="translate(24.802 2.901)" fill="#22242b" stroke="#707070" stroke-width="1"/><path d="M-11.665-1.4a3.381,3.381,0,0,0,1.171-.24V-.26a3.361,3.361,0,0,1-.737.233,4.384,4.384,0,0,1-.931.1q-2.125,0-2.125-1.916a4.876,4.876,0,0,1,.124-1.016l.939-4.421H-14.48l.163-.853,1.474-.636,1-1.8h1.132l-.4,1.908H-8.95l-.3,1.381H-11.4l-.946,4.437a3.208,3.208,0,0,0-.1.714.726.726,0,0,0,.194.531A.792.792,0,0,0-11.665-1.4Zm5.4,1.474A2.105,2.105,0,0,1-8-.714a3.438,3.438,0,0,1-.636-2.214A7.91,7.91,0,0,1-8.093-5.86a5.29,5.29,0,0,1,1.485-2.16,3.16,3.16,0,0,1,2.079-.8,2.324,2.324,0,0,1,1.3.353,2.315,2.315,0,0,1,.845,1.028h.078l.481-1.226h1.4L-2.264-.082H-3.676l.163-1.365h-.047A3.482,3.482,0,0,1-6.266.073ZM-5.6-1.4A1.8,1.8,0,0,0-4.35-2,4.54,4.54,0,0,0-3.342-3.611a5.98,5.98,0,0,0,.4-2.2,1.6,1.6,0,0,0-.365-1.1,1.209,1.209,0,0,0-.954-.415,1.723,1.723,0,0,0-1.241.6A4.249,4.249,0,0,0-6.437-5.1a6.576,6.576,0,0,0-.349,2.129,1.868,1.868,0,0,0,.314,1.183A1.056,1.056,0,0,0-5.6-1.4ZM5.283-.082l1.1-5.212a5.861,5.861,0,0,0,.14-1.016.891.891,0,0,0-1-1.016,1.738,1.738,0,0,0-1.1.442,4,4,0,0,0-.977,1.276A7.221,7.221,0,0,0,2.793-3.72L2.033-.082H.2L2.033-8.661H3.46L3.3-7.07h.07A4.648,4.648,0,0,1,4.694-8.4a2.8,2.8,0,0,1,1.482-.415,2.135,2.135,0,0,1,1.609.589,2.312,2.312,0,0,1,.57,1.675,7.323,7.323,0,0,1-.178,1.4L7.114-.082Zm17.98-11.34H24.52L23.077-4.627H21.6L22.363-8.2q.132-.613.442-1.683-.163.155-.384.334t-1.191.8l-.6-1Z" transform="translate(14.48 11.422)" fill="#22242b"/></svg>