<?xml version="1.0" encoding="UTF-8"?>
<svg width="39px" height="12px" viewBox="0 0 39 12" version="1.1" 
    xmlns="http://www.w3.org/2000/svg" 
    xmlns:xlink="http://www.w3.org/1999/xlink">
    <g id="Page-1" stroke="none" stroke-width="1" fill="none" fill-rule="evenodd">
        <g id="2247" transform="translate(-1.000000, 0.000000)">
            <path d="M5.547,2.622 C6.3457981,2.6106222 7.13748651,2.77339606 7.867,3.099 L7.32,4.539 C6.77784878,4.28335205 6.18908767,4.14143679 5.59,4.122 C4.77106275,4.14334264 4.026091,4.60108258 3.637,5.322 C3.09132766,6.21226994 2.81971143,7.24343782 2.856,8.287 C2.82533434,8.77222034 2.98333595,9.25052454 3.297,9.622 C3.6144299,9.94522182 4.05566852,10.1161061 4.508,10.091 C4.87552171,10.0947643 5.24113127,10.0376589 5.59,9.922 C5.93604814,9.80321829 6.27408194,9.66225953 6.602,9.5 L6.602,11.022 C5.86330936,11.3945455 5.04628625,11.5851728 4.219,11.578 C3.34824419,11.6322813 2.49227804,11.3338645 1.844,10.75 C1.24838391,10.1110923 0.942989996,9.2546143 1,8.383 C0.986428868,7.37356891 1.18185849,6.37224746 1.574,5.442 C1.9121712,4.61631241 2.4712973,3.89975909 3.19,3.371 C3.87507578,2.87515141 4.70136068,2.61257721 5.547,2.622 Z M21.797,0.857 L21.391,2.779 L23.571,2.779 L23.271,4.17 L21.107,4.17 L20.154,8.639 C20.0937636,8.87414928 20.0602186,9.11533781 20.054,9.358 C20.0453555,9.55607652 20.1175394,9.74916837 20.254,9.893 C20.4131645,10.0347107 20.6222919,10.1070594 20.835,10.094 C21.2395895,10.0841004 21.6391741,10.0021517 22.015,9.852 L22.015,11.242 C21.7774825,11.3482593 21.528505,11.4267778 21.273,11.476 C20.9651273,11.5426574 20.651006,11.5761815 20.336,11.5760007 C18.9086667,11.5760007 18.195,10.9326667 18.195,9.646 C18.2006016,9.30122486 18.2424993,8.9579984 18.32,8.622 L19.265,4.169 L18,4.169 L18.164,3.31 L19.648,2.669 L20.656,0.857 L21.797,0.857 Z M14.297,5.938 C14.3246178,5.47049713 14.1892617,5.00788342 13.914,4.629 C13.644733,4.30709241 13.238971,4.13165782 12.82,4.156 C12.3289552,4.15911683 11.8600549,4.36074395 11.52,4.715 C11.1049514,5.14097959 10.7992383,5.66113782 10.629,6.231 C10.4148139,6.89065343 10.308118,7.58046232 10.313,8.274 C10.2809726,8.74834194 10.4176972,9.21873145 10.699,9.602 C10.9894718,9.92356023 11.4117503,10.093578 11.844,10.063 C12.3197214,10.0599332 12.7748836,9.86866444 13.11,9.531 C13.5215622,9.11601538 13.8224155,8.60439292 13.985,8.043 C14.1996118,7.36223589 14.3049194,6.65174735 14.297,5.938 Z M16.149,6.016 C16.1623022,7.00237082 15.968103,7.98052155 15.579,8.887 C15.2522224,9.68170918 14.7093848,10.3690033 14.012,10.871 C13.3385215,11.3351203 12.5367914,11.5770728 11.719,11.563 C10.8350792,11.6070331 9.97239267,11.2830279 9.336,10.668 C8.72368485,10.0100339 8.40498018,9.13152066 8.453,8.234 C8.44163702,7.25504503 8.63191932,6.28423091 9.012,5.382 C9.3373784,4.57693402 9.87942312,3.87774479 10.578,3.362 C11.2565592,2.87793096 12.0726003,2.6244955 12.906,2.639 C13.79363,2.58888775 14.6606078,2.91909576 15.29,3.547 C15.8899775,4.22495549 16.1986083,5.11204444 16.149,6.016 L16.149,6.016 Z M38.25,0 L39.516,0 L38.063,6.844 L36.57,6.844 L37.343,3.244 C37.4316667,2.83266667 37.58,2.266 37.788,1.544 C37.6786667,1.648 37.5496667,1.76 37.401,1.88 C37.2523333,2 36.8523333,2.26666667 36.201,2.68 L35.601,1.672 L38.25,0 Z" id="Shape" fill="#707070" fill-rule="nonzero"></path>
            <line x1="25.59" y1="2.922" x2="32.59" y2="2.922" id="Path" stroke="#707070"></line>
        </g>
    </g>
</svg>