<svg width="8px" height="8px" viewBox="0 0 8 8" version="1.1" 
    xmlns="http://www.w3.org/2000/svg" 
    xmlns:xlink="http://www.w3.org/1999/xlink">
    <g id="Page-1" stroke="none" stroke-width="1" fill="none" fill-rule="evenodd">
        <g id="2253" transform="translate(4.000000, 4.000000) rotate(-90.000000) translate(-4.000000, -4.000000) " fill="#707070" fill-rule="nonzero">
            <path d="M6.727,3.789 C6.79048537,3.01609272 6.51027069,2.25446485 5.961,1.707 C5.31643168,1.21291386 4.5130337,0.972392587 3.703,1.031 L0.003,1.031 L0.003,-4.72555447e-05 L3.828,-4.72555447e-05 C4.35033792,-0.00228121653 4.8697514,0.0780439355 5.367,0.238 C5.8391735,0.387225049 6.27627511,0.630437229 6.652,0.953 C7.02699775,1.28120427 7.3268119,1.68641384 7.531,2.141 C7.75912442,2.65989747 7.87139725,3.2222854 7.86,3.789 C7.86976399,4.3553484 7.76782179,4.91806932 7.56,5.445 C7.37637307,5.90346348 7.0936207,6.31563995 6.732,6.652 C6.36500456,6.98483891 5.93091692,7.23512982 5.459,7.386 C4.9320849,7.55521426 4.38139091,7.63861181 3.828,7.633 L0,7.633 L0,6.602 L3.469,6.602 C4.34661954,6.67191186 5.21975783,6.42066694 5.926,5.895 C6.49169735,5.34625602 6.78504603,4.57497971 6.727,3.789 Z" id="Path"></path>
        </g>
    </g>
</svg>