<svg xmlns="http://www.w3.org/2000/svg" width="11.82" height="11.479" viewBox="0 0 11.82 11.479"><path d="M6.708.9H.95A7.765,7.765,0,0,1-1.505.533,5.213,5.213,0,0,1-3.42-.571,5.037,5.037,0,0,1-4.666-2.387a6.483,6.483,0,0,1-.446-2.491,5.86,5.86,0,0,1,.493-2.479A5.213,5.213,0,0,1-3.3-9.143,5.53,5.53,0,0,1-1.37-10.218,7.436,7.436,0,0,1,.95-10.576H6.708v1.551H1.138A5.284,5.284,0,0,0-2.028-8.2,3.472,3.472,0,0,0-3.362-5.653H6.708V-4.1H-3.362A3.523,3.523,0,0,0-1.969-1.511a5.853,5.853,0,0,0,3.46.864H6.708Z" transform="translate(5.112 10.576)" fill="#22242b"/></svg>