<?xml version="1.0" encoding="UTF-8"?>
<svg width="8px" height="8px" viewBox="0 0 8 8" version="1.1" 
    xmlns="http://www.w3.org/2000/svg" 
    xmlns:xlink="http://www.w3.org/1999/xlink">
    <!-- Generator: Sketch 64 (93537) - https://sketch.com -->
    <title>2266</title>
    <desc>Created with Sketch.</desc>
    <g id="Page-1" stroke="none" stroke-width="1" fill="none" fill-rule="evenodd">
        <g id="2266" fill="#707070" fill-rule="nonzero">
            <path d="M4.031,7.969 L3.91,7.969 C3.86987358,7.96880269 3.82979751,7.96613095 3.79,7.961 L2.729,7.821 C2.33165443,7.72484736 1.95198055,7.56656554 1.604,7.352 C1.27363396,7.14628231 0.982721041,6.88313989 0.745,6.575 C0.496905488,6.2518221 0.308916934,5.88668398 0.19,5.497 C0.0576459505,5.05190712 -0.00641628619,4.58931034 -3.78993711e-15,4.125 C-0.0117120482,3.55835936 0.100218912,2.99597453 0.328,2.477 C0.532311281,2.02277336 0.832117852,1.61791511 1.207,1.29 C1.58214239,0.967449493 2.01851929,0.72392193 2.49,0.574 C2.98784389,0.413654407 3.50797794,0.333322218 4.031,0.336 L5.367,0.336 L6.453,0.336 L7.86,0.336 L7.86,1.367 L6.09,1.367 L5.24334847,3.61 L5.6917754,3.61 L7.86,3.61 L7.86,4.641 L4.953,4.641 L4.153,6.941 L4.953,6.941 L7.86,6.941 L7.86,7.969 L4.031,7.969 Z M4.28391658,1.369 C3.50989064,1.32532813 2.74136954,1.51824664 2.08892179,1.92 C1.54063458,2.3292798 1.20344346,2.94575374 1.164,3.611 L5.24343872,3.611 L6.09040833,1.369 L4.28391658,1.369 Z M1.164,4.641 C1.21096664,5.1571095 1.41239239,5.64708287 1.742,6.047 C2.06261138,6.46056977 2.8413649,6.93910217 4.15312195,6.93910217 L4.95335388,4.641 L1.164,4.641 Z" id="Shape"></path>
        </g>
    </g>
</svg>