<svg xmlns="http://www.w3.org/2000/svg" width="9.97" height="15.629" viewBox="0 0 9.97 15.629"><path d="M-.217,3.294A3.21,3.21,0,0,1-2.852,2.2,4.929,4.929,0,0,1-3.746-.988a18.615,18.615,0,0,1,.479-4.037A13.655,13.655,0,0,1-.916-10.63a4.605,4.605,0,0,1,3.68-1.706,3.09,3.09,0,0,1,2.59,1.109,5.28,5.28,0,0,1,.87,3.3,19.779,19.779,0,0,1-.533,4.247A15.541,15.541,0,0,1,4.342.234a6.248,6.248,0,0,1-1.95,2.292A4.546,4.546,0,0,1-.217,3.294ZM0,1.515A2.253,2.253,0,0,0,1.923.2a14.478,14.478,0,0,0,1.4-3.944H-1.185a16.506,16.506,0,0,0-.293,2.9A3.473,3.473,0,0,0-1.122.928,1.215,1.215,0,0,0,0,1.515ZM2.539-10.557A2.306,2.306,0,0,0,.652-9.34,12.017,12.017,0,0,0-.784-5.572H3.683A14.54,14.54,0,0,0,3.966-8.25Q3.966-10.557,2.539-10.557Z" transform="translate(3.746 12.336)" fill="#22242b"/></svg>