<svg xmlns="http://www.w3.org/2000/svg" width="25" height="19.435" viewBox="0 0 25 19.435"><g transform="translate(-5)"><g transform="translate(16)" fill="none" stroke-dasharray="2 1"><path d="M0,0H14V13H0Z" stroke="none"/><path d="M 0 0 L 2 0 L 2 1 L 1 1 L 1 3 L 0 3 L 0 0 Z M 3 0 L 5 0 L 5 1 L 3 1 L 3 0 Z M 6 0 L 8 0 L 8 1 L 6 1 L 6 0 Z M 9 0 L 11 0 L 11 1 L 9 1 L 9 0 Z M 12 0 L 14 0 L 14 1 L 14 1 C 14 1 14 3 14 3 L 13 3 L 13 1 L 12 1 L 12 0 Z M 13 4 L 14 4 C 14 4 14 6 14 6 L 13 6 L 13 4 Z M 13 7 L 14 7 C 14 7 14 9 14 9 L 13 9 L 13 7 Z M 13 10 L 14 10 C 14 10 14 12 14 12 L 14 12 L 14 13 C 14 13 12 13 12 13 L 12 12 L 13 12 L 13 10 Z M 9 12 L 11 12 L 11 13 C 11 13 9 13 9 13 L 9 12 Z M 6 12 L 8 12 L 8 13 C 8 13 6 13 6 13 L 6 12 Z M 3 12 L 5 12 L 5 13 C 5 13 3 13 3 13 L 3 12 Z M 0 12 L 2 12 L 2 13 C 2 13 0 13 0 13 L 0 12 Z M 0 10 L 1 10 L 1 12 L 0 12 L 0 10 Z M 0 7 L 1 7 L 1 9 L 0 9 L 0 7 Z M 0 4 L 1 4 L 1 6 L 0 6 L 0 4 Z" stroke="none" fill="#1ab395"/></g><path d="M2.223-7a2.508,2.508,0,0,0-1.8.858A4.948,4.948,0,0,0-.791-3.878H-.5a6.611,6.611,0,0,0,2.934-.534A1.653,1.653,0,0,0,3.49-5.923a1.007,1.007,0,0,0-.319-.793A1.386,1.386,0,0,0,2.223-7ZM.706,2.638A4.137,4.137,0,0,1-2.362,1.531a4.192,4.192,0,0,1-1.1-3.093A8.78,8.78,0,0,1-2.692-5.24,6.308,6.308,0,0,1-.6-7.869,5.03,5.03,0,0,1,2.363-8.8a3.871,3.871,0,0,1,2.5.723,2.488,2.488,0,0,1,.893,2.051A3.177,3.177,0,0,1,4.094-3.184,9.076,9.076,0,0,1-.641-2.161H-1.07l-.02.309v.289A2.507,2.507,0,0,0-.526.174,2.143,2.143,0,0,0,1.155.8,5.5,5.5,0,0,0,2.582.613,10.176,10.176,0,0,0,4.258-.036V1.83A9.261,9.261,0,0,1,2.5,2.454,8.012,8.012,0,0,1,.706,2.638Z" transform="translate(8.465 16.797)" fill="#22242b"/></g></svg>