<?xml version="1.0" encoding="UTF-8"?>
<svg width="14px" height="10px" viewBox="0 0 14 10" version="1.1" 
    xmlns="http://www.w3.org/2000/svg" 
    xmlns:xlink="http://www.w3.org/1999/xlink">
    <!-- Generator: Sketch 64 (93537) - https://sketch.com -->
    <title>Caminho 2745</title>
    <desc>Created with Sketch.</desc>
    <g id="Page-1" stroke="none" stroke-width="1" fill="none" fill-rule="evenodd">
        <g id="Caminho-2745" fill="#707070" fill-rule="nonzero">
            <path d="M14,0 C14.015304,1.18703128 13.6128447,2.34166833 12.863,3.262 C12.1296866,4.04226304 11.090381,4.46061827 10.021,4.406 C8.63927419,4.27559725 7.3277751,3.73630548 6.254,2.857 C5.60729277,2.32993038 4.82291416,1.99951957 3.994,1.905 C2.66733333,1.905 1.97566667,2.73833333 1.919,4.405 L0,4.405 C0.00999598709,3.7832943 0.117989582,3.16705585 0.32,2.579 C0.495631787,2.06585619 0.770900831,1.59246141 1.13,1.186 C1.47410548,0.803605439 1.89906041,0.502652635 2.374,0.305 C2.8879699,0.0952395875 3.43892958,-0.00883057513 3.994,-0.001 C5.20790304,0.0701669191 6.37203473,0.506193489 7.334,1.25 C8.13920738,1.91420538 9.1047574,2.35525484 10.134,2.529 C10.6835726,2.54323606 11.2047878,2.28543471 11.527,1.84 C11.9025284,1.30113338 12.0965815,0.656624713 12.081,0 L14,0 Z" id="Path"></path>
            <path d="M14,5.00141124 C14.015304,6.18844252 13.6128447,7.34307957 12.863,8.26341124 C12.1296866,9.04367428 11.090381,9.46202951 10.021,9.40741124 C8.63927419,9.27700849 7.3277751,8.73771672 6.254,7.85841124 C5.60729277,7.33134162 4.82291416,7.00093081 3.994,6.90641124 C2.66733333,6.90641124 1.97566667,7.73974457 1.919,9.40641124 L0,9.40641124 C0.00999598709,8.78470554 0.117989582,8.16846709 0.32,7.58041124 C0.495631787,7.06726744 0.770900831,6.59387265 1.13,6.18741124 C1.47410548,5.80501668 1.89906041,5.50406388 2.374,5.30641124 C2.8879699,5.09665083 3.43892958,4.99258067 3.994,5.00041124 C5.20790304,5.07157816 6.37203473,5.50760473 7.334,6.25141124 C8.13920738,6.91561662 9.1047574,7.35666608 10.134,7.53041124 C10.6835726,7.5446473 11.2047878,7.28684595 11.527,6.84141124 C11.9025284,6.30254462 12.0965815,5.65803595 12.081,5.00141124 L14,5.00141124 Z" id="Path-Copy"></path>
        </g>
    </g>
</svg>