<?xml version="1.0" encoding="UTF-8"?>
<svg width="14px" height="8px" viewBox="0 0 14 8" version="1.1" 
    xmlns="http://www.w3.org/2000/svg" 
    xmlns:xlink="http://www.w3.org/1999/xlink">
    <!-- Generator: Sketch 64 (93537) - https://sketch.com -->
    <title>Caminho 2752</title>
    <desc>Created with Sketch.</desc>
    <g id="Page-1" stroke="none" stroke-width="1" fill="none" fill-rule="evenodd">
        <g id="Caminho-2752" fill="#707070" fill-rule="nonzero">
            <path d="M13.673,7.988 L0.311,7.988 L0.311,6.112 L13.673,6.112 L13.673,7.988 Z M10.134,2.53 C10.6835726,2.54423606 11.2047878,2.28643471 11.527,1.841 C11.9027323,1.30185575 12.0967953,0.656964087 12.081,-9.43635361e-16 L14,-9.43635361e-16 C14.0123858,1.17804727 13.6098839,2.3228945 12.863,3.234 C12.1296866,4.01426304 11.090381,4.43261827 10.021,4.378 C8.64210213,4.24629111 7.3322415,3.71254116 6.254,2.843 C5.60818433,2.31209709 4.82403077,1.97692349 3.994,1.877 C2.66733333,1.877 1.97566667,2.71033333 1.919,4.377 L0,4.377 C0.00866450011,3.75255865 0.116682937,3.13347798 0.32,2.543 C0.49458905,2.0356648 0.77012862,1.5689484 1.13,1.171 C1.47732402,0.795708731 1.90168604,0.499951601 2.374,0.304 C2.8881114,0.0949239378 3.43906606,-0.00846508566 3.994,-9.43635361e-16 C5.20790304,0.0711669191 6.37203473,0.507193489 7.334,1.251 C8.13920738,1.91520538 9.1047574,2.35625484 10.134,2.53 Z" id="Shape"></path>
        </g>
    </g>
</svg>