<svg xmlns="http://www.w3.org/2000/svg" width="12" height="11.914" viewBox="0 0 12 11.914">
    <defs>
        <style>.a{fill:#707070;}</style>
    </defs>
    <path class="a" d="M-3.816-2.384V-4.57h12v2.186ZM.618.809A1.779,1.779,0,0,1,1-.413,1.488,1.488,0,0,1,2.177-.849,1.448,1.448,0,0,1,3.32-.407,1.766,1.766,0,0,1,3.713.809,1.745,1.745,0,0,1,3.3,2.038a1.444,1.444,0,0,1-1.118.454,1.5,1.5,0,0,1-1.148-.436A1.748,1.748,0,0,1,.618.809Zm0-8.573A1.779,1.779,0,0,1,1-8.986a1.488,1.488,0,0,1,1.173-.436A1.448,1.448,0,0,1,3.32-8.98a1.766,1.766,0,0,1,.393,1.216A1.745,1.745,0,0,1,3.3-6.535a1.444,1.444,0,0,1-1.118.454,1.5,1.5,0,0,1-1.148-.436A1.748,1.748,0,0,1,.618-7.764Z" transform="translate(3.816 9.422)"/>
</svg>