<svg xmlns="http://www.w3.org/2000/svg" width="16" height="5.036" viewBox="0 0 16 5.036"><path d="M10.489-8.057a5.784,5.784,0,0,1-1.3,3.728A4.165,4.165,0,0,1,5.941-3.021a7.978,7.978,0,0,1-4.3-1.771A4.982,4.982,0,0,0-.946-5.88q-2.274,0-2.372,2.859H-5.511a6.757,6.757,0,0,1,.365-2.087A4.706,4.706,0,0,1-4.219-6.7,3.959,3.959,0,0,1-2.8-7.707,4.723,4.723,0,0,1-.946-8.057,6.9,6.9,0,0,1,2.871-6.627a6.811,6.811,0,0,0,3.2,1.462,1.9,1.9,0,0,0,1.592-.788,3.531,3.531,0,0,0,.634-2.1Z" transform="translate(5.511 8.057)" fill="#22242b"/></svg>