<svg xmlns="http://www.w3.org/2000/svg" width="10.581" height="9.195" viewBox="0 0 10.581 9.195">
    <defs>
        <style>.a{fill:#707070;}</style>
    </defs>
    <path class="a" d="M4.834-1.8h-10.1V-3.223h10.1ZM4.823-4.963h-10.1V-6.381h10.1ZM2.148-9.088A1.259,1.259,0,0,0,3.2-9.609,2.335,2.335,0,0,0,3.62-11H5.07a3.793,3.793,0,0,1-.859,2.444,2.754,2.754,0,0,1-2.148.865A5.345,5.345,0,0,1-.784-8.852a3.313,3.313,0,0,0-1.708-.73q-1.5,0-1.568,1.891h-1.45a4.447,4.447,0,0,1,.242-1.386,3,3,0,0,1,.612-1.037,2.681,2.681,0,0,1,.94-.655A3.123,3.123,0,0,1-2.492-11a4.564,4.564,0,0,1,2.524.945A4.5,4.5,0,0,0,2.148-9.088Z" transform="translate(5.511 11)"/>
</svg>