<svg xmlns="http://www.w3.org/2000/svg" width="17" height="16.745" viewBox="0 0 17 16.745"><path d="M9.98-4.772a8.1,8.1,0,0,1-.671,3.29A8.38,8.38,0,0,1,7.482,1.177a8.609,8.609,0,0,1-2.7,1.779,8.413,8.413,0,0,1-3.3.651,8.413,8.413,0,0,1-3.3-.651,8.609,8.609,0,0,1-2.7-1.779A8.38,8.38,0,0,1-6.349-1.482a8.1,8.1,0,0,1-.671-3.29,8.053,8.053,0,0,1,.671-3.283,8.4,8.4,0,0,1,1.826-2.652,8.609,8.609,0,0,1,2.7-1.779,8.413,8.413,0,0,1,3.3-.651,8.413,8.413,0,0,1,3.3.651,8.609,8.609,0,0,1,2.7,1.779A8.4,8.4,0,0,1,9.309-8.055,8.053,8.053,0,0,1,9.98-4.772Zm-2.014,0a6.779,6.779,0,0,0-.49-2.585A6.367,6.367,0,0,0,6.113-9.445a6.408,6.408,0,0,0-2.061-1.4,6.448,6.448,0,0,0-2.571-.51,6.434,6.434,0,0,0-2.578.51,6.428,6.428,0,0,0-2.055,1.4A6.367,6.367,0,0,0-4.516-7.357a6.779,6.779,0,0,0-.49,2.585,6.815,6.815,0,0,0,.49,2.6A6.367,6.367,0,0,0-3.153-.086,6.428,6.428,0,0,0-1.1,1.311a6.434,6.434,0,0,0,2.578.51,6.448,6.448,0,0,0,2.571-.51,6.408,6.408,0,0,0,2.061-1.4A6.367,6.367,0,0,0,7.476-2.174,6.815,6.815,0,0,0,7.966-4.772ZM1.48-3.268A1.391,1.391,0,0,1,.9-3.389a1.568,1.568,0,0,1-.47-.322A1.545,1.545,0,0,1,.11-4.188a1.437,1.437,0,0,1-.121-.584A1.437,1.437,0,0,1,.11-5.356,1.631,1.631,0,0,1,.433-5.84,1.51,1.51,0,0,1,.9-6.169a1.391,1.391,0,0,1,.577-.121,1.437,1.437,0,0,1,.584.121,1.569,1.569,0,0,1,.483.329,1.569,1.569,0,0,1,.329.483A1.437,1.437,0,0,1,3-4.772a1.437,1.437,0,0,1-.121.584,1.488,1.488,0,0,1-.329.477,1.631,1.631,0,0,1-.483.322A1.437,1.437,0,0,1,1.48-3.268Z" transform="translate(7.02 13.138)" fill="#22242b"/></svg>