<svg xmlns="http://www.w3.org/2000/svg" width="5.141" height="5.539" viewBox="0 0 5.141 5.539">
    <defs>
        <style>.a{fill:#707070;}</style>
    </defs>
    <path class="a" d="M2.57-8.781a2.871,2.871,0,0,1-.684,2.023,2.467,2.467,0,0,1-1.91.742,2.4,2.4,0,0,1-1.859-.746,2.864,2.864,0,0,1-.687-2.02,2.851,2.851,0,0,1,.691-2.047,2.481,2.481,0,0,1,1.887-.727,2.437,2.437,0,0,1,1.875.738A2.87,2.87,0,0,1,2.57-8.781Zm-3.875,0a2.248,2.248,0,0,0,.3,1.3,1.131,1.131,0,0,0,.992.43,1.131,1.131,0,0,0,.992-.43,2.248,2.248,0,0,0,.3-1.3,2.262,2.262,0,0,0-.3-1.309,1.136,1.136,0,0,0-.992-.426A1.136,1.136,0,0,0-1-10.09,2.262,2.262,0,0,0-1.3-8.781Z" transform="translate(2.57 11.555)"/>
</svg>