<?xml version="1.0" encoding="UTF-8"?>
<svg width="14px" height="14px" viewBox="0 0 14 14" version="1.1" 
    xmlns="http://www.w3.org/2000/svg" 
    xmlns:xlink="http://www.w3.org/1999/xlink">
    <!-- Generator: Sketch 64 (93537) - https://sketch.com -->
    <title>3177</title>
    <desc>Created with Sketch.</desc>
    <g id="Page-1" stroke="none" stroke-width="1" fill="none" fill-rule="evenodd">
        <g id="3170" fill="#707070" fill-rule="nonzero">
            <path d="M13.6,6.693 C13.6068359,7.59821408 13.4239047,8.49481506 13.063,9.325 C12.7183098,10.121613 12.2221146,10.8436602 11.602,11.451 C10.9784216,12.0578558 10.2454918,12.5410465 9.442,12.875 C8.60542617,13.2248834 7.70677284,13.402097 6.8,13.396 C5.89289087,13.4022319 4.99388402,13.2250156 4.157,12.875 C3.35386387,12.5409357 2.62128188,12.0577506 1.998,11.451 C1.37788541,10.8436602 0.881690241,10.121613 0.537,9.325 C0.176095259,8.49481506 -0.00683586737,7.59821408 1.09306553e-15,6.693 C-0.00709536904,5.78969784 0.175864283,4.89500129 0.537,4.067 C0.882606435,3.27207208 1.37871937,2.55150285 1.998,1.945 C2.6213673,1.33860746 3.3539437,0.855765306 4.157,0.522 C4.99381272,0.171641625 5.89282222,-0.00591530221 6.8,-4.5336998e-15 C7.70710913,-0.00623190382 8.60611598,0.170984355 9.443,0.521 C10.2460563,0.854765306 10.9786327,1.33760746 11.602,1.944 C12.2209218,2.55059141 12.7166911,3.27115471 13.062,4.066 C13.4236166,4.89423512 13.6069205,5.78928982 13.6,6.693 Z M11.989,6.693 C11.9946464,5.98468096 11.8614717,5.28211677 11.597,4.625 C11.3472438,4.00195527 10.9768132,3.4344147 10.507,2.955 C10.0353561,2.47832626 9.47476724,2.09882461 8.857,1.838 C8.20657798,1.56223667 7.50644075,1.42302611 6.8,1.429 C6.09191858,1.42170809 5.3899492,1.56060407 4.738,1.837 C4.12257023,2.09887119 3.56413992,2.47829129 3.094,2.954 C2.62418682,3.4334147 2.25375615,4.00095527 2.004,4.624 C1.73952829,5.28111677 1.60635364,5.98368096 1.612,6.692 C1.60566503,7.40394786 1.7388386,8.11024337 2.004,8.771 C2.25410396,9.39297621 2.62451641,9.95946938 3.094,10.438 C3.56348874,10.9150372 4.12159461,11.2958264 4.737,11.559 C5.38925862,11.835531 6.0915824,11.9744297 6.8,11.967 C7.50637099,11.9732901 8.20650547,11.8344204 8.857,11.559 C9.47474427,11.296873 10.0350087,10.9160019 10.506,10.438 C10.9758132,9.9585853 11.3462438,9.39104473 11.596,8.768 C11.8606484,8.10849033 11.9938125,7.40360396 11.988,6.693 L11.989,6.693 Z" id="Shape"></path>
        </g>
    </g>
</svg>