<svg xmlns="http://www.w3.org/2000/svg" width="29" height="9.391" viewBox="0 0 29 9.391"><g transform="translate(-6443 852)"><path d="M1.437.594H-.531V-5.094a2.579,2.579,0,0,0-.4-1.581A1.477,1.477,0,0,0-2.182-7.2a1.908,1.908,0,0,0-1.664.738A4.331,4.331,0,0,0-4.376-4v4.6h-1.96V-8.63H-4.8l.275,1.209h.1A2.556,2.556,0,0,1-3.313-8.438,3.59,3.59,0,0,1-1.707-8.8,2.805,2.805,0,0,1,1.112-7.346h.133A2.812,2.812,0,0,1,2.4-8.413,3.653,3.653,0,0,1,4.1-8.8,3.1,3.1,0,0,1,6.5-7.963a3.694,3.694,0,0,1,.755,2.544V.594H5.3V-5.094a2.559,2.559,0,0,0-.4-1.581A1.489,1.489,0,0,0,3.639-7.2a1.946,1.946,0,0,0-1.672.713,3.676,3.676,0,0,0-.53,2.189Z" transform="translate(6449.336 -843.203)" fill="#22242b"/><path d="M5.511.582H-5.269v-.94L2.988-8.615,4.123-7.583-2.494-.966l.011.046H5.511Z" transform="translate(6466.489 -843.191)" fill="#22242b"/></g></svg>