<svg xmlns="http://www.w3.org/2000/svg" width="25.441" height="39.711" viewBox="0 0 25.441 39.711">
    <g transform="translate(13.324 22.358)" fill="none" stroke-dasharray="2 1">
        <path d="M0,0H10.793V16.961H0Z" stroke="none"/>
        <path d="M 3.000001907348633 -1.9073486328125e-06 L 5.000001907348633 -1.9073486328125e-06 L 5.000001907348633 0.9999990463256836 L 3.000001907348633 0.9999990463256836 L 3.000001907348633 -1.9073486328125e-06 Z M 6.000001907348633 -1.9073486328125e-06 L 8.000001907348633 -1.9073486328125e-06 L 8.000001907348633 0.9999990463256836 L 6.000001907348633 0.9999990463256836 L 6.000001907348633 -1.9073486328125e-06 Z M 9.000001907348633 -1.9073486328125e-06 L 10.79332160949707 -1.9073486328125e-06 L 10.79332160949707 0.9999990463256836 L 9.000001907348633 0.9999990463256836 L 9.000001907348633 -1.9073486328125e-06 Z M 9.79332160949707 1.20667839050293 L 10.79332160949707 1.20667839050293 C 10.79332160949707 1.20667839050293 10.79332160949707 3.20667839050293 10.79332160949707 3.20667839050293 L 9.79332160949707 3.20667839050293 L 9.79332160949707 1.20667839050293 Z M 9.79332160949707 4.20667839050293 L 10.79332160949707 4.20667839050293 C 10.79332160949707 4.20667839050293 10.79332160949707 6.20667839050293 10.79332160949707 6.20667839050293 L 9.79332160949707 6.20667839050293 L 9.79332160949707 4.20667839050293 Z M 9.79332160949707 7.20667839050293 L 10.79332160949707 7.20667839050293 C 10.79332160949707 7.20667839050293 10.79332160949707 9.20667839050293 10.79332160949707 9.20667839050293 L 9.79332160949707 9.20667839050293 L 9.79332160949707 7.20667839050293 Z M 9.79332160949707 10.20667839050293 L 10.79332160949707 10.20667839050293 C 10.79332160949707 10.20667839050293 10.79332160949707 12.20667839050293 10.79332160949707 12.20667839050293 L 9.79332160949707 12.20667839050293 L 9.79332160949707 10.20667839050293 Z M 9.79332160949707 13.20667839050293 L 10.79332160949707 13.20667839050293 C 10.79332160949707 13.20667839050293 10.79332160949707 15.20667839050293 10.79332160949707 15.20667839050293 L 9.79332160949707 15.20667839050293 L 9.79332160949707 13.20667839050293 Z M 9.547581672668457 15.96093845367432 L 10.79332160949707 15.96093845367432 L 10.79332160949707 16.20667839050293 L 10.79332160949707 16.20667839050293 L 10.79332160949707 15.96093845367432 L 10.79332160949707 16.20667839050293 L 10.79332160949707 16.20667839050293 C 10.79332160949707 16.20667839050293 10.79332160949707 16.96093940734863 10.79332160949707 16.96093940734863 L 9.79332160949707 16.96093940734863 L 9.79332160949707 16.96093940734863 L 9.79332160949707 16.96093940734863 L 9.79332160949707 16.96093940734863 L 9.79332160949707 16.96093940734863 C 9.648698806762695 16.96093940734863 9.547581672668457 16.96093940734863 9.547581672668457 16.96093940734863 L 9.547581672668457 15.96093845367432 Z M 6.547581672668457 15.96093845367432 L 8.547581672668457 15.96093845367432 L 8.547581672668457 16.96093940734863 C 8.547581672668457 16.96093940734863 6.547581672668457 16.96093940734863 6.547581672668457 16.96093940734863 L 6.547581672668457 15.96093845367432 Z M 3.547581672668457 15.96093845367432 L 5.547581672668457 15.96093845367432 L 5.547581672668457 16.96093940734863 C 5.547581672668457 16.96093940734863 3.547581672668457 16.96093940734863 3.547581672668457 16.96093940734863 L 3.547581672668457 15.96093845367432 Z M 1.9073486328125e-06 14.50851821899414 L 1.000001907348633 14.50851821899414 L 1.000001907348633 15.96093845367432 L 2.547581672668457 15.96093845367432 L 2.547581672668457 16.96093940734863 C 2.547581672668457 16.96093940734863 0.547581672668457 16.96093940734863 0.547581672668457 16.96093940734863 L 0.547581672668457 16.50851821899414 L 1.9073486328125e-06 16.50851821899414 L 1.9073486328125e-06 14.50851821899414 Z M 1.9073486328125e-06 11.50851821899414 L 1.000001907348633 11.50851821899414 L 1.000001907348633 13.50851821899414 L 1.9073486328125e-06 13.50851821899414 L 1.9073486328125e-06 11.50851821899414 Z M 1.9073486328125e-06 8.508519172668457 L 1.000001907348633 8.508519172668457 L 1.000001907348633 10.50851821899414 L 1.9073486328125e-06 10.50851821899414 L 1.9073486328125e-06 8.508519172668457 Z M 1.9073486328125e-06 5.508519172668457 L 1.000001907348633 5.508519172668457 L 1.000001907348633 7.508519172668457 L 1.9073486328125e-06 7.508519172668457 L 1.9073486328125e-06 5.508519172668457 Z M 1.9073486328125e-06 2.508519172668457 L 1.000001907348633 2.508519172668457 L 1.000001907348633 4.508519172668457 L 1.9073486328125e-06 4.508519172668457 L 1.9073486328125e-06 2.508519172668457 Z M 1.9073486328125e-06 -1.9073486328125e-06 L 2.000001907348633 -1.9073486328125e-06 L 2.000001907348633 0.9999990463256836 L 1.000001907348633 0.9999990463256836 L 1.000001907348633 1.508519172668457 L 1.9073486328125e-06 1.508519172668457 L 1.9073486328125e-06 -1.9073486328125e-06 Z" stroke="none" fill="#22242b"/>
    </g>
    <g transform="translate(13.324)" fill="none" stroke-dasharray="2 1">
        <path d="M0,0H10.793V16.961H0Z" stroke="none"/>
        <path d="M 3.000001907348633 -1.9073486328125e-06 L 5.000001907348633 -1.9073486328125e-06 L 5.000001907348633 0.9999990463256836 L 3.000001907348633 0.9999990463256836 L 3.000001907348633 -1.9073486328125e-06 Z M 6.000001907348633 -1.9073486328125e-06 L 8.000001907348633 -1.9073486328125e-06 L 8.000001907348633 0.9999990463256836 L 6.000001907348633 0.9999990463256836 L 6.000001907348633 -1.9073486328125e-06 Z M 9.000001907348633 -1.9073486328125e-06 L 10.79332160949707 -1.9073486328125e-06 L 10.79332160949707 0.9999990463256836 L 9.000001907348633 0.9999990463256836 L 9.000001907348633 -1.9073486328125e-06 Z M 9.79332160949707 1.20667839050293 L 10.79332160949707 1.20667839050293 C 10.79332160949707 1.20667839050293 10.79332160949707 3.20667839050293 10.79332160949707 3.20667839050293 L 9.79332160949707 3.20667839050293 L 9.79332160949707 1.20667839050293 Z M 9.79332160949707 4.20667839050293 L 10.79332160949707 4.20667839050293 C 10.79332160949707 4.20667839050293 10.79332160949707 6.20667839050293 10.79332160949707 6.20667839050293 L 9.79332160949707 6.20667839050293 L 9.79332160949707 4.20667839050293 Z M 9.79332160949707 7.20667839050293 L 10.79332160949707 7.20667839050293 C 10.79332160949707 7.20667839050293 10.79332160949707 9.20667839050293 10.79332160949707 9.20667839050293 L 9.79332160949707 9.20667839050293 L 9.79332160949707 7.20667839050293 Z M 9.79332160949707 10.20667839050293 L 10.79332160949707 10.20667839050293 C 10.79332160949707 10.20667839050293 10.79332160949707 12.20667839050293 10.79332160949707 12.20667839050293 L 9.79332160949707 12.20667839050293 L 9.79332160949707 10.20667839050293 Z M 9.79332160949707 13.20667839050293 L 10.79332160949707 13.20667839050293 C 10.79332160949707 13.20667839050293 10.79332160949707 15.20667839050293 10.79332160949707 15.20667839050293 L 9.79332160949707 15.20667839050293 L 9.79332160949707 13.20667839050293 Z M 9.547581672668457 15.96093845367432 L 10.79332160949707 15.96093845367432 L 10.79332160949707 16.20667839050293 L 10.79332160949707 16.20667839050293 L 10.79332160949707 15.96093845367432 L 10.79332160949707 16.20667839050293 L 10.79332160949707 16.20667839050293 C 10.79332160949707 16.20667839050293 10.79332160949707 16.96093940734863 10.79332160949707 16.96093940734863 L 9.79332160949707 16.96093940734863 L 9.79332160949707 16.96093940734863 L 9.79332160949707 16.96093940734863 L 9.79332160949707 16.96093940734863 L 9.79332160949707 16.96093940734863 C 9.648698806762695 16.96093940734863 9.547581672668457 16.96093940734863 9.547581672668457 16.96093940734863 L 9.547581672668457 15.96093845367432 Z M 6.547581672668457 15.96093845367432 L 8.547581672668457 15.96093845367432 L 8.547581672668457 16.96093940734863 C 8.547581672668457 16.96093940734863 6.547581672668457 16.96093940734863 6.547581672668457 16.96093940734863 L 6.547581672668457 15.96093845367432 Z M 3.547581672668457 15.96093845367432 L 5.547581672668457 15.96093845367432 L 5.547581672668457 16.96093940734863 C 5.547581672668457 16.96093940734863 3.547581672668457 16.96093940734863 3.547581672668457 16.96093940734863 L 3.547581672668457 15.96093845367432 Z M 1.9073486328125e-06 14.50851821899414 L 1.000001907348633 14.50851821899414 L 1.000001907348633 15.96093845367432 L 2.547581672668457 15.96093845367432 L 2.547581672668457 16.96093940734863 C 2.547581672668457 16.96093940734863 0.547581672668457 16.96093940734863 0.547581672668457 16.96093940734863 L 0.547581672668457 16.50851821899414 L 1.9073486328125e-06 16.50851821899414 L 1.9073486328125e-06 14.50851821899414 Z M 1.9073486328125e-06 11.50851821899414 L 1.000001907348633 11.50851821899414 L 1.000001907348633 13.50851821899414 L 1.9073486328125e-06 13.50851821899414 L 1.9073486328125e-06 11.50851821899414 Z M 1.9073486328125e-06 8.508519172668457 L 1.000001907348633 8.508519172668457 L 1.000001907348633 10.50851821899414 L 1.9073486328125e-06 10.50851821899414 L 1.9073486328125e-06 8.508519172668457 Z M 1.9073486328125e-06 5.508519172668457 L 1.000001907348633 5.508519172668457 L 1.000001907348633 7.508519172668457 L 1.9073486328125e-06 7.508519172668457 L 1.9073486328125e-06 5.508519172668457 Z M 1.9073486328125e-06 2.508519172668457 L 1.000001907348633 2.508519172668457 L 1.000001907348633 4.508519172668457 L 1.9073486328125e-06 4.508519172668457 L 1.9073486328125e-06 2.508519172668457 Z M 1.9073486328125e-06 -1.9073486328125e-06 L 2.000001907348633 -1.9073486328125e-06 L 2.000001907348633 0.9999990463256836 L 1.000001907348633 0.9999990463256836 L 1.000001907348633 1.508519172668457 L 1.9073486328125e-06 1.508519172668457 L 1.9073486328125e-06 -1.9073486328125e-06 Z" stroke="none" fill="#22242b"/>
    </g>
    <path d="M0,0H25.441" transform="translate(0 19.659)" fill="none" stroke="#707070" stroke-width="1"/>
    <path d="M4.07-7.25A10.841,10.841,0,0,1,3.41-3.4,6.1,6.1,0,0,1,1.641-.746a3.922,3.922,0,0,1-2.547.9A2.962,2.962,0,0,1-3.121-.637,3.259,3.259,0,0,1-3.9-3.008,6.028,6.028,0,0,1-3.34-5.562,4.286,4.286,0,0,1-1.867-7.387,3.683,3.683,0,0,1,.234-8,2.329,2.329,0,0,1,2.2-7.086a3.847,3.847,0,0,0-.52-2.2,1.682,1.682,0,0,0-1.465-.746,3.73,3.73,0,0,0-1.012.156,3.912,3.912,0,0,0-1.059.484v-1.586A5.094,5.094,0,0,1-.715-11.4a5.123,5.123,0,0,1,1.238-.156,3.262,3.262,0,0,1,2.629,1.078A4.872,4.872,0,0,1,4.07-7.25ZM-.789-1.344a2.139,2.139,0,0,0,1.738-1.1A7.168,7.168,0,0,0,2.008-5.406,1.826,1.826,0,0,0,1.4-6.254a1.464,1.464,0,0,0-.918-.324,1.873,1.873,0,0,0-1.227.445A3.1,3.1,0,0,0-1.613-4.84a4.809,4.809,0,0,0-.332,1.77Q-1.945-1.344-.789-1.344Z" transform="translate(5 16.555)" fill="#707070"/>
    <path d="M4.07-7.25A10.841,10.841,0,0,1,3.41-3.4,6.1,6.1,0,0,1,1.641-.746a3.922,3.922,0,0,1-2.547.9A2.962,2.962,0,0,1-3.121-.637,3.259,3.259,0,0,1-3.9-3.008,6.028,6.028,0,0,1-3.34-5.562,4.286,4.286,0,0,1-1.867-7.387,3.683,3.683,0,0,1,.234-8,2.329,2.329,0,0,1,2.2-7.086a3.847,3.847,0,0,0-.52-2.2,1.682,1.682,0,0,0-1.465-.746,3.73,3.73,0,0,0-1.012.156,3.912,3.912,0,0,0-1.059.484v-1.586A5.094,5.094,0,0,1-.715-11.4a5.123,5.123,0,0,1,1.238-.156,3.262,3.262,0,0,1,2.629,1.078A4.872,4.872,0,0,1,4.07-7.25ZM-.789-1.344a2.139,2.139,0,0,0,1.738-1.1A7.168,7.168,0,0,0,2.008-5.406,1.826,1.826,0,0,0,1.4-6.254a1.464,1.464,0,0,0-.918-.324,1.873,1.873,0,0,0-1.227.445A3.1,3.1,0,0,0-1.613-4.84a4.809,4.809,0,0,0-.332,1.77Q-1.945-1.344-.789-1.344Z" transform="translate(5 39.555)" fill="#707070"/>
</svg>