<svg xmlns="http://www.w3.org/2000/svg" width="35.872" height="17.594" viewBox="0 0 35.872 17.594"><defs><style>.a{fill:#22242b;}.b{fill:#1ab395;}</style></defs><g transform="translate(-414.428 -305.41)"><path class="a" d="M-17.3,4.2a3.538,3.538,0,0,1-1.273-.2V2.384a3.312,3.312,0,0,0,.974.171q1.145,0,1.512-1.752l1.854-8.733h-1.53l.179-.906,1.658-.649.179-.786A4.574,4.574,0,0,1-12.6-12.676,3.114,3.114,0,0,1-10.4-13.39a4.36,4.36,0,0,1,1.8.367l-.521,1.5a3.308,3.308,0,0,0-1.162-.239,1.252,1.252,0,0,0-.944.367,2.529,2.529,0,0,0-.543,1.2l-.154.735h1.957l-.316,1.521h-1.957l-1.906,9a4.586,4.586,0,0,1-1.119,2.375A2.784,2.784,0,0,1-17.3,4.2ZM17.3-9.451,17.034-8.28,15.394-8a2.667,2.667,0,0,1,.239,1.171,3.448,3.448,0,0,1-1.017,2.619,3.785,3.785,0,0,1-2.726.97,4.039,4.039,0,0,1-.786-.068q-.948.342-.948.889a.443.443,0,0,0,.269.444,2.983,2.983,0,0,0,.782.188l1.085.137A4.1,4.1,0,0,1,14.445-.9,2,2,0,0,1,15.095.7,2.987,2.987,0,0,1,13.8,3.29a6.279,6.279,0,0,1-3.666.914,4.787,4.787,0,0,1-2.687-.641A2.013,2.013,0,0,1,6.5,1.8,2.162,2.162,0,0,1,7.092.282,4.574,4.574,0,0,1,9-.8a1.2,1.2,0,0,1-.649-1.085,1.457,1.457,0,0,1,.4-1.021A4.041,4.041,0,0,1,10-3.743,2.333,2.333,0,0,1,8.848-5.9,3.61,3.61,0,0,1,9.9-8.6a3.78,3.78,0,0,1,2.764-1.025,5.618,5.618,0,0,1,1.367.171Zm-7,9.3a2.866,2.866,0,0,0-1.47.607,1.435,1.435,0,0,0-.513,1.119,1.025,1.025,0,0,0,.474.884,2.562,2.562,0,0,0,1.448.329,4.318,4.318,0,0,0,2.179-.461A1.456,1.456,0,0,0,13.206,1a.773.773,0,0,0-.385-.684,3.312,3.312,0,0,0-1.35-.35ZM12.608-8.28a1.531,1.531,0,0,0-.974.329,2.13,2.13,0,0,0-.649.9,3.274,3.274,0,0,0-.231,1.243,1.33,1.33,0,0,0,.3.936,1.121,1.121,0,0,0,.867.329,1.468,1.468,0,0,0,.961-.333,2.173,2.173,0,0,0,.632-.914,3.477,3.477,0,0,0,.226-1.273Q13.745-8.28,12.608-8.28Z" transform="translate(433 318.8)"/><path class="b" d="M6,1a5,5,0,1,0,5,5A5.006,5.006,0,0,0,6,1M6,0A6,6,0,1,1,0,6,6,6,0,0,1,6,0Z" transform="translate(426 308)"/></g></svg>