<svg xmlns="http://www.w3.org/2000/svg" width="8" height="8.62" viewBox="0 0 8 8.62"><defs><style>.a{fill:#22242b;}</style></defs><path class="a" d="M5.43-7.239A4.468,4.468,0,0,1,4.366-4.09,3.84,3.84,0,0,1,1.393-2.935,3.742,3.742,0,0,1-1.5-4.1,4.457,4.457,0,0,1-2.57-7.239a4.438,4.438,0,0,1,1.076-3.185,3.86,3.86,0,0,1,2.936-1.131A3.793,3.793,0,0,1,4.36-10.406,4.466,4.466,0,0,1,5.43-7.239Zm-6.03,0A3.5,3.5,0,0,0-.127-5.22a1.761,1.761,0,0,0,1.544.669A1.761,1.761,0,0,0,2.962-5.22a3.5,3.5,0,0,0,.474-2.018,3.521,3.521,0,0,0-.474-2.036,1.768,1.768,0,0,0-1.544-.663,1.768,1.768,0,0,0-1.544.663A3.521,3.521,0,0,0-.6-7.239Z" transform="translate(2.57 11.555)"/></svg>