<svg xmlns="http://www.w3.org/2000/svg" width="39.117" height="39.319" viewBox="0 0 39.117 39.319"><g transform="translate(-974.324 -324)"><g transform="translate(995.324 346.358)" fill="none" stroke-dasharray="2 1"><path d="M0,0H10.793V16.961H0Z" stroke="none"/><path d="M 3.000001907348633 -1.9073486328125e-06 L 5.000001907348633 -1.9073486328125e-06 L 5.000001907348633 0.9999990463256836 L 3.000001907348633 0.9999990463256836 L 3.000001907348633 -1.9073486328125e-06 Z M 6.000001907348633 -1.9073486328125e-06 L 8.000001907348633 -1.9073486328125e-06 L 8.000001907348633 0.9999990463256836 L 6.000001907348633 0.9999990463256836 L 6.000001907348633 -1.9073486328125e-06 Z M 9.000001907348633 -1.9073486328125e-06 L 10.79332160949707 -1.9073486328125e-06 L 10.79332160949707 0.9999990463256836 L 9.000001907348633 0.9999990463256836 L 9.000001907348633 -1.9073486328125e-06 Z M 9.79332160949707 1.20667839050293 L 10.79332160949707 1.20667839050293 C 10.79332160949707 1.20667839050293 10.79332160949707 3.20667839050293 10.79332160949707 3.20667839050293 L 9.79332160949707 3.20667839050293 L 9.79332160949707 1.20667839050293 Z M 9.79332160949707 4.20667839050293 L 10.79332160949707 4.20667839050293 C 10.79332160949707 4.20667839050293 10.79332160949707 6.20667839050293 10.79332160949707 6.20667839050293 L 9.79332160949707 6.20667839050293 L 9.79332160949707 4.20667839050293 Z M 9.79332160949707 7.20667839050293 L 10.79332160949707 7.20667839050293 C 10.79332160949707 7.20667839050293 10.79332160949707 9.20667839050293 10.79332160949707 9.20667839050293 L 9.79332160949707 9.20667839050293 L 9.79332160949707 7.20667839050293 Z M 9.79332160949707 10.20667839050293 L 10.79332160949707 10.20667839050293 C 10.79332160949707 10.20667839050293 10.79332160949707 12.20667839050293 10.79332160949707 12.20667839050293 L 9.79332160949707 12.20667839050293 L 9.79332160949707 10.20667839050293 Z M 9.79332160949707 13.20667839050293 L 10.79332160949707 13.20667839050293 C 10.79332160949707 13.20667839050293 10.79332160949707 15.20667839050293 10.79332160949707 15.20667839050293 L 9.79332160949707 15.20667839050293 L 9.79332160949707 13.20667839050293 Z M 9.547581672668457 15.96093845367432 L 10.79332160949707 15.96093845367432 L 10.79332160949707 16.20667839050293 L 10.79332160949707 16.20667839050293 L 10.79332160949707 15.96093845367432 L 10.79332160949707 16.20667839050293 L 10.79332160949707 16.20667839050293 C 10.79332160949707 16.20667839050293 10.79332160949707 16.96093940734863 10.79332160949707 16.96093940734863 L 9.79332160949707 16.96093940734863 L 9.79332160949707 16.96093940734863 L 9.79332160949707 16.96093940734863 L 9.79332160949707 16.96093940734863 L 9.79332160949707 16.96093940734863 C 9.648698806762695 16.96093940734863 9.547581672668457 16.96093940734863 9.547581672668457 16.96093940734863 L 9.547581672668457 15.96093845367432 Z M 6.547581672668457 15.96093845367432 L 8.547581672668457 15.96093845367432 L 8.547581672668457 16.96093940734863 C 8.547581672668457 16.96093940734863 6.547581672668457 16.96093940734863 6.547581672668457 16.96093940734863 L 6.547581672668457 15.96093845367432 Z M 3.547581672668457 15.96093845367432 L 5.547581672668457 15.96093845367432 L 5.547581672668457 16.96093940734863 C 5.547581672668457 16.96093940734863 3.547581672668457 16.96093940734863 3.547581672668457 16.96093940734863 L 3.547581672668457 15.96093845367432 Z M 1.9073486328125e-06 14.50851821899414 L 1.000001907348633 14.50851821899414 L 1.000001907348633 15.96093845367432 L 2.547581672668457 15.96093845367432 L 2.547581672668457 16.96093940734863 C 2.547581672668457 16.96093940734863 0.547581672668457 16.96093940734863 0.547581672668457 16.96093940734863 L 0.547581672668457 16.50851821899414 L 1.9073486328125e-06 16.50851821899414 L 1.9073486328125e-06 14.50851821899414 Z M 1.9073486328125e-06 11.50851821899414 L 1.000001907348633 11.50851821899414 L 1.000001907348633 13.50851821899414 L 1.9073486328125e-06 13.50851821899414 L 1.9073486328125e-06 11.50851821899414 Z M 1.9073486328125e-06 8.508519172668457 L 1.000001907348633 8.508519172668457 L 1.000001907348633 10.50851821899414 L 1.9073486328125e-06 10.50851821899414 L 1.9073486328125e-06 8.508519172668457 Z M 1.9073486328125e-06 5.508519172668457 L 1.000001907348633 5.508519172668457 L 1.000001907348633 7.508519172668457 L 1.9073486328125e-06 7.508519172668457 L 1.9073486328125e-06 5.508519172668457 Z M 1.9073486328125e-06 2.508519172668457 L 1.000001907348633 2.508519172668457 L 1.000001907348633 4.508519172668457 L 1.9073486328125e-06 4.508519172668457 L 1.9073486328125e-06 2.508519172668457 Z M 1.9073486328125e-06 -1.9073486328125e-06 L 2.000001907348633 -1.9073486328125e-06 L 2.000001907348633 0.9999990463256836 L 1.000001907348633 0.9999990463256836 L 1.000001907348633 1.508519172668457 L 1.9073486328125e-06 1.508519172668457 L 1.9073486328125e-06 -1.9073486328125e-06 Z" stroke="none" fill="#1ab395"/></g><g transform="translate(995.324 324)" fill="none" stroke-dasharray="2 1"><path d="M0,0H10.793V16.961H0Z" stroke="none"/><path d="M 3.000001907348633 -1.9073486328125e-06 L 5.000001907348633 -1.9073486328125e-06 L 5.000001907348633 0.9999990463256836 L 3.000001907348633 0.9999990463256836 L 3.000001907348633 -1.9073486328125e-06 Z M 6.000001907348633 -1.9073486328125e-06 L 8.000001907348633 -1.9073486328125e-06 L 8.000001907348633 0.9999990463256836 L 6.000001907348633 0.9999990463256836 L 6.000001907348633 -1.9073486328125e-06 Z M 9.000001907348633 -1.9073486328125e-06 L 10.79332160949707 -1.9073486328125e-06 L 10.79332160949707 0.9999990463256836 L 9.000001907348633 0.9999990463256836 L 9.000001907348633 -1.9073486328125e-06 Z M 9.79332160949707 1.20667839050293 L 10.79332160949707 1.20667839050293 C 10.79332160949707 1.20667839050293 10.79332160949707 3.20667839050293 10.79332160949707 3.20667839050293 L 9.79332160949707 3.20667839050293 L 9.79332160949707 1.20667839050293 Z M 9.79332160949707 4.20667839050293 L 10.79332160949707 4.20667839050293 C 10.79332160949707 4.20667839050293 10.79332160949707 6.20667839050293 10.79332160949707 6.20667839050293 L 9.79332160949707 6.20667839050293 L 9.79332160949707 4.20667839050293 Z M 9.79332160949707 7.20667839050293 L 10.79332160949707 7.20667839050293 C 10.79332160949707 7.20667839050293 10.79332160949707 9.20667839050293 10.79332160949707 9.20667839050293 L 9.79332160949707 9.20667839050293 L 9.79332160949707 7.20667839050293 Z M 9.79332160949707 10.20667839050293 L 10.79332160949707 10.20667839050293 C 10.79332160949707 10.20667839050293 10.79332160949707 12.20667839050293 10.79332160949707 12.20667839050293 L 9.79332160949707 12.20667839050293 L 9.79332160949707 10.20667839050293 Z M 9.79332160949707 13.20667839050293 L 10.79332160949707 13.20667839050293 C 10.79332160949707 13.20667839050293 10.79332160949707 15.20667839050293 10.79332160949707 15.20667839050293 L 9.79332160949707 15.20667839050293 L 9.79332160949707 13.20667839050293 Z M 9.547581672668457 15.96093845367432 L 10.79332160949707 15.96093845367432 L 10.79332160949707 16.20667839050293 L 10.79332160949707 16.20667839050293 L 10.79332160949707 15.96093845367432 L 10.79332160949707 16.20667839050293 L 10.79332160949707 16.20667839050293 C 10.79332160949707 16.20667839050293 10.79332160949707 16.96093940734863 10.79332160949707 16.96093940734863 L 9.79332160949707 16.96093940734863 L 9.79332160949707 16.96093940734863 L 9.79332160949707 16.96093940734863 L 9.79332160949707 16.96093940734863 L 9.79332160949707 16.96093940734863 C 9.648698806762695 16.96093940734863 9.547581672668457 16.96093940734863 9.547581672668457 16.96093940734863 L 9.547581672668457 15.96093845367432 Z M 6.547581672668457 15.96093845367432 L 8.547581672668457 15.96093845367432 L 8.547581672668457 16.96093940734863 C 8.547581672668457 16.96093940734863 6.547581672668457 16.96093940734863 6.547581672668457 16.96093940734863 L 6.547581672668457 15.96093845367432 Z M 3.547581672668457 15.96093845367432 L 5.547581672668457 15.96093845367432 L 5.547581672668457 16.96093940734863 C 5.547581672668457 16.96093940734863 3.547581672668457 16.96093940734863 3.547581672668457 16.96093940734863 L 3.547581672668457 15.96093845367432 Z M 1.9073486328125e-06 14.50851821899414 L 1.000001907348633 14.50851821899414 L 1.000001907348633 15.96093845367432 L 2.547581672668457 15.96093845367432 L 2.547581672668457 16.96093940734863 C 2.547581672668457 16.96093940734863 0.547581672668457 16.96093940734863 0.547581672668457 16.96093940734863 L 0.547581672668457 16.50851821899414 L 1.9073486328125e-06 16.50851821899414 L 1.9073486328125e-06 14.50851821899414 Z M 1.9073486328125e-06 11.50851821899414 L 1.000001907348633 11.50851821899414 L 1.000001907348633 13.50851821899414 L 1.9073486328125e-06 13.50851821899414 L 1.9073486328125e-06 11.50851821899414 Z M 1.9073486328125e-06 8.508519172668457 L 1.000001907348633 8.508519172668457 L 1.000001907348633 10.50851821899414 L 1.9073486328125e-06 10.50851821899414 L 1.9073486328125e-06 8.508519172668457 Z M 1.9073486328125e-06 5.508519172668457 L 1.000001907348633 5.508519172668457 L 1.000001907348633 7.508519172668457 L 1.9073486328125e-06 7.508519172668457 L 1.9073486328125e-06 5.508519172668457 Z M 1.9073486328125e-06 2.508519172668457 L 1.000001907348633 2.508519172668457 L 1.000001907348633 4.508519172668457 L 1.9073486328125e-06 4.508519172668457 L 1.9073486328125e-06 2.508519172668457 Z M 1.9073486328125e-06 -1.9073486328125e-06 L 2.000001907348633 -1.9073486328125e-06 L 2.000001907348633 0.9999990463256836 L 1.000001907348633 0.9999990463256836 L 1.000001907348633 1.508519172668457 L 1.9073486328125e-06 1.508519172668457 L 1.9073486328125e-06 -1.9073486328125e-06 Z" stroke="none" fill="#1ab395"/></g><g transform="translate(974.324 337.141)" fill="none" stroke-dasharray="2 1"><path d="M0,0H10.793V12.678H0Z" stroke="none"/><path d="M 3.000001907348633 9.5367431640625e-07 L 5.000001907348633 9.5367431640625e-07 L 5.000001907348633 1.000000953674316 L 3.000001907348633 1.000000953674316 L 3.000001907348633 9.5367431640625e-07 Z M 6.000001907348633 9.5367431640625e-07 L 8.000001907348633 9.5367431640625e-07 L 8.000001907348633 1.000000953674316 L 6.000001907348633 1.000000953674316 L 6.000001907348633 9.5367431640625e-07 Z M 9.000001907348633 9.5367431640625e-07 L 10.79332160949707 9.5367431640625e-07 L 10.79332160949707 1.000000953674316 L 9.000001907348633 1.000000953674316 L 9.000001907348633 9.5367431640625e-07 Z M 9.79332160949707 1.206681251525879 L 10.79332160949707 1.206681251525879 C 10.79332160949707 1.206681251525879 10.79332160949707 3.206681251525879 10.79332160949707 3.206681251525879 L 9.79332160949707 3.206681251525879 L 9.79332160949707 1.206681251525879 Z M 9.79332160949707 4.206681251525879 L 10.79332160949707 4.206681251525879 C 10.79332160949707 4.206681251525879 10.79332160949707 6.206681251525879 10.79332160949707 6.206681251525879 L 9.79332160949707 6.206681251525879 L 9.79332160949707 4.206681251525879 Z M 9.79332160949707 7.206681251525879 L 10.79332160949707 7.206681251525879 C 10.79332160949707 7.206681251525879 10.79332160949707 9.206681251525879 10.79332160949707 9.206681251525879 L 9.79332160949707 9.206681251525879 L 9.79332160949707 7.206681251525879 Z M 9.79332160949707 10.20668125152588 L 10.79332160949707 10.20668125152588 C 10.79332160949707 10.20668125152588 10.79332160949707 12.20668125152588 10.79332160949707 12.20668125152588 L 10.26486206054688 12.20668125152588 L 10.26486206054688 12.67822170257568 C 10.26486206054688 12.67822170257568 8.264862060546875 12.67822170257568 8.264862060546875 12.67822170257568 L 8.264862060546875 11.67822170257568 L 9.79332160949707 11.67822170257568 L 9.79332160949707 10.20668125152588 Z M 5.264861583709717 11.67822170257568 L 7.264862060546875 11.67822170257568 L 7.264862060546875 12.67822170257568 C 7.264862060546875 12.67822170257568 5.264861583709717 12.67822170257568 5.264861583709717 12.67822170257568 L 5.264861583709717 11.67822170257568 Z M 2.264862060546875 11.67822170257568 L 4.264861583709717 11.67822170257568 L 4.264861583709717 12.67822170257568 C 4.264861583709717 12.67822170257568 2.264862060546875 12.67822170257568 2.264862060546875 12.67822170257568 L 2.264862060546875 11.67822170257568 Z M 1.9073486328125e-06 11.67822170257568 L 1.264862060546875 11.67822170257568 L 1.264862060546875 12.67822170257568 C 1.264862060546875 12.67822170257568 1.9073486328125e-06 12.67822170257568 1.9073486328125e-06 12.67822170257568 L 1.9073486328125e-06 11.67822170257568 Z M 1.9073486328125e-06 8.943080902099609 L 1.000001907348633 8.943080902099609 L 1.000001907348633 10.94308090209961 L 1.9073486328125e-06 10.94308090209961 L 1.9073486328125e-06 8.943080902099609 Z M 1.9073486328125e-06 5.943081378936768 L 1.000001907348633 5.943081378936768 L 1.000001907348633 7.943081378936768 L 1.9073486328125e-06 7.943081378936768 L 1.9073486328125e-06 5.943081378936768 Z M 1.9073486328125e-06 2.943080902099609 L 1.000001907348633 2.943080902099609 L 1.000001907348633 4.943081378936768 L 1.9073486328125e-06 4.943081378936768 L 1.9073486328125e-06 2.943080902099609 Z M 1.9073486328125e-06 9.5367431640625e-07 L 2.000001907348633 9.5367431640625e-07 L 2.000001907348633 1.000000953674316 L 1.000001907348633 1.000000953674316 L 1.000001907348633 1.943080902099609 L 1.9073486328125e-06 1.943080902099609 L 1.9073486328125e-06 9.5367431640625e-07 Z" stroke="none" fill="#1ab395"/></g><path d="M0,0H25.441" transform="translate(988 343.659)" fill="none" stroke="#22242b" stroke-width="1"/></g></svg>