<svg xmlns="http://www.w3.org/2000/svg" width="21.613" height="18.53" viewBox="0 0 21.613 18.53"><path d="M5.129-16.983a5.288,5.288,0,0,1,2.122.43,5.533,5.533,0,0,1,1.735,1.171,5.533,5.533,0,0,1,1.171,1.735,5.287,5.287,0,0,1,.43,2.122,5.384,5.384,0,0,1-.414,2.089A5.428,5.428,0,0,1,8.986-7.67L-.22,1.547-9.426-7.67a5.428,5.428,0,0,1-1.187-1.767,5.384,5.384,0,0,1-.414-2.089,5.287,5.287,0,0,1,.43-2.122,5.533,5.533,0,0,1,1.171-1.735,5.533,5.533,0,0,1,1.735-1.171,5.287,5.287,0,0,1,2.122-.43A5.19,5.19,0,0,1-4-16.763a5.355,5.355,0,0,1,1.278.6,7.51,7.51,0,0,1,1.112.875q.526.5,1.074,1.069l.312.322.344-.354q.548-.559,1.069-1.058a7.164,7.164,0,0,1,1.1-.87,5.251,5.251,0,0,1,1.268-.585A5.257,5.257,0,0,1,5.129-16.983Z" transform="translate(11.027 16.983)" fill="#22242b"/></svg>