
<svg width="12px" height="15px" viewBox="0 0 12 15" version="1.1" xmlns="http://www.w3.org/2000/svg" xmlns:xlink="http://www.w3.org/1999/xlink">
    <g id="Page-1" stroke="none" stroke-width="1" fill="none" fill-rule="evenodd">
        <g id="Group" fill="#22242B" fill-rule="nonzero">
            <path d="M6.43583036,13.9906794 C5.20517275,13.3697959 4.37905767,12.7074708 3.95748512,12.0037043 C3.5311758,11.3043363 3.04423199,10.0476815 3.04423199,8.99203176 L3.04423199,8.8817842e-16 L2,8.8817842e-16 L2,8.1647912 C2,9.952798 2.25933817,11.3284416 2.77801451,12.291722 C3.09336252,12.8773831 3.55008387,13.6004573 4.34854441,13.9906794 C5.41137193,14.5101025 6.10713392,14.5101025 6.43583036,13.9906794 Z" id="U"></path>
            <path d="M5.99481417,15 C8.56698358,15 10.3163354,14.1180371 11.2428695,12.3541114 C11.7476232,11.3859416 12,10.0033156 12,8.20623342 L12,0 L11.0155114,0 L11.0155114,9.51537138 C11.0155114,10.569748 10.3991392,11.7307692 10.0603319,12.3541114 C9.43111842,13.5013263 7.32945021,14.0430311 5.58009844,14.0430311 C4.12115289,14.0430311 2.40770216,13.01213 1.79231754,11.951122 C1.51574019,11.4825102 1.28634347,10.5094129 1.10412739,9.03183024 L1.10412739,0 L0,0 L0,8.20623342 C0,10.0033156 0.252376837,11.3859416 0.75713051,12.3541114 C1.67675022,14.1180371 3.42264477,15 5.99481417,15 Z" id="U"></path>
        </g>
    </g>
</svg>