<svg xmlns="http://www.w3.org/2000/svg" width="12.97" height="16.562" viewBox="0 0 12.97 16.562"><path d="M6.1-9.5a4.733,4.733,0,0,1-.716,2.645A4.385,4.385,0,0,1,3.349-5.2L8.165,2.558H3.95L-.15-4.614h-.924V2.558H-4.8V-14H.774a8.311,8.311,0,0,1,2.368.3,4.387,4.387,0,0,1,1.663.878,3.5,3.5,0,0,1,.976,1.415A5.364,5.364,0,0,1,6.1-9.5ZM1.917-5.769v-7.08H-1.074v7.08ZM4.885-9.5a3.838,3.838,0,0,0-.474-2.05,2.609,2.609,0,0,0-1.34-1.08v6.456a3.65,3.65,0,0,0,.722-.474,2.728,2.728,0,0,0,.572-.676,3.457,3.457,0,0,0,.381-.93A4.977,4.977,0,0,0,4.885-9.5ZM4.654,1.53H6.283L2.356-4.857a5.2,5.2,0,0,1-.641.133q-.352.052-.653.075Zm-6.883-.012V-12.849H-3.65V1.519Z" transform="translate(4.805 14.004)" fill="#22242b"/></svg>