<svg xmlns="http://www.w3.org/2000/svg" width="12.92" height="17.138" viewBox="0 0 12.92 17.138"><path d="M7.354,2.022A10.881,10.881,0,0,1,2.615,2.9,9.605,9.605,0,0,1-.771,2.334,7.114,7.114,0,0,1-3.348.7,7.223,7.223,0,0,1-4.989-1.885a9.631,9.631,0,0,1-.578-3.432,9.811,9.811,0,0,1,.647-3.629,8.218,8.218,0,0,1,1.82-2.82A8.151,8.151,0,0,1-.3-13.591a9.545,9.545,0,0,1,3.565-.647,11.98,11.98,0,0,1,4.091.612v1.387a6.972,6.972,0,0,0-.925-.358,9.127,9.127,0,0,0-1.005-.248,9.6,9.6,0,0,0-1.046-.139q-.526-.04-1.023-.04a9.271,9.271,0,0,0-2.427.312,6.877,6.877,0,0,0-2.1.959V.554A7.294,7.294,0,0,0,.859,1.4a10.093,10.093,0,0,0,2.5.289,8.262,8.262,0,0,0,2.109-.266A7.362,7.362,0,0,0,7.354.635Zm-11.5-7.465a8.361,8.361,0,0,0,.468,2.9A6.192,6.192,0,0,0-2.331-.359v-10.4A6.688,6.688,0,0,0-3.665-8.506,8.937,8.937,0,0,0-4.145-5.444Z" transform="translate(5.566 14.238)" fill="#22242b"/></svg>