<svg xmlns="http://www.w3.org/2000/svg" width="21.613" height="21.613" viewBox="0 0 21.613 21.613"><path d="M5.215-10.817a5.067,5.067,0,0,1,2.084.435A5.531,5.531,0,0,1,9.007-9.206a5.585,5.585,0,0,1,1.155,1.724A5.189,5.189,0,0,1,10.586-5.4a5.242,5.242,0,0,1-.424,2.1A5.473,5.473,0,0,1,9-1.584,5.473,5.473,0,0,1,7.283-.424,5.242,5.242,0,0,1,5.183,0,5.3,5.3,0,0,1,3.8-.183,5.4,5.4,0,0,1,2.519-.709a5.5,5.5,0,0,1-1.1-.827,5.281,5.281,0,0,1-.865-1.1V-.773A2.959,2.959,0,0,0,.682.091a4.29,4.29,0,0,0,.344.816,5.389,5.389,0,0,0,.494.747,7.413,7.413,0,0,0,.58.655v.773H-2.541V2.31a7.413,7.413,0,0,0,.58-.655A5.389,5.389,0,0,0-1.466.908,4.29,4.29,0,0,0-1.123.091,2.959,2.959,0,0,0-.994-.773V-2.632A10.628,10.628,0,0,1-2.959-.709a5.4,5.4,0,0,1-1.278.526A5.3,5.3,0,0,1-5.624,0,5.28,5.28,0,0,1-7.729-.424,5.437,5.437,0,0,1-9.448-1.579,5.437,5.437,0,0,1-10.6-3.3,5.28,5.28,0,0,1-11.027-5.4,5.242,5.242,0,0,1-10.6-7.5a5.473,5.473,0,0,1,1.16-1.719,5.473,5.473,0,0,1,1.719-1.16,5.242,5.242,0,0,1,2.1-.424h.376a.666.666,0,0,1,.161.021,5.3,5.3,0,0,1-.537-2.342,5.242,5.242,0,0,1,.424-2.1,5.473,5.473,0,0,1,1.16-1.719,5.473,5.473,0,0,1,1.719-1.16,5.242,5.242,0,0,1,2.1-.424,5.242,5.242,0,0,1,2.1.424A5.473,5.473,0,0,1,3.6-16.946a5.473,5.473,0,0,1,1.16,1.719,5.242,5.242,0,0,1,.424,2.1C5.183-12.3,5.029-10.817,5.215-10.817Z" transform="translate(11.027 18.53)" fill="#22242b"/></svg>