<svg xmlns="http://www.w3.org/2000/svg" width="8.094" height="19.605" viewBox="0 0 8.094 19.605"><path d="M4.067-5.66a4.97,4.97,0,0,1-.355,1.948,4.885,4.885,0,0,1-.95,1.47,5.666,5.666,0,0,1-1.367,1.06,8.39,8.39,0,0,1-1.613.69,10.583,10.583,0,0,1-1.688.376A11.8,11.8,0,0,1-3.507,0h-.52V-19.605h1.408V-8.039A6.839,6.839,0,0,1-1.046-9.112,4.292,4.292,0,0,1,.841-9.5a3.235,3.235,0,0,1,1.381.28,2.814,2.814,0,0,1,1.012.786,3.49,3.49,0,0,1,.622,1.217A5.439,5.439,0,0,1,4.067-5.66ZM-2.618-.738A5.287,5.287,0,0,0-.725-1.265,4.262,4.262,0,0,0,.629-2.331a4.361,4.361,0,0,0,.807-1.5A6.076,6.076,0,0,0,1.7-5.66a3.754,3.754,0,0,0-.123-.978A2.283,2.283,0,0,0,1.2-7.431a1.852,1.852,0,0,0-.636-.533,1.937,1.937,0,0,0-.9-.2,2.779,2.779,0,0,0-1.2.267,5.588,5.588,0,0,0-1.087.677Z" transform="translate(4.026 19.605)" fill="#22242b"/></svg>