<svg xmlns="http://www.w3.org/2000/svg" width="15.55" height="20.726" viewBox="0 0 15.55 20.726"><path d="M7.3,4.056a5.409,5.409,0,0,0,.773-.05,4.75,4.75,0,0,0,.683-.151v2.2q-.224.1-.443.179t-.454.14a3.355,3.355,0,0,1-.515.09q-.28.028-.639.028a7.287,7.287,0,0,1-1.524-.162,5.521,5.521,0,0,1-1.563-.616A8.745,8.745,0,0,1,1.969,4.454a15.666,15.666,0,0,1-1.8-2.089,8.237,8.237,0,0,1-2.941-.807A6.847,6.847,0,0,1-4.96-.145a7.381,7.381,0,0,1-1.361-2.47,9.779,9.779,0,0,1-.471-3.1A10.737,10.737,0,0,1-6.232-9.3a7.657,7.657,0,0,1,1.574-2.683,6.686,6.686,0,0,1,2.442-1.675,8.378,8.378,0,0,1,3.165-.577A7.829,7.829,0,0,1,4-13.667a6.459,6.459,0,0,1,2.33,1.636,7.421,7.421,0,0,1,1.49,2.577,10.317,10.317,0,0,1,.527,3.406A11.013,11.013,0,0,1,8-3.231a8.6,8.6,0,0,1-.958,2.3A6.68,6.68,0,0,1,5.571.78,5.808,5.808,0,0,1,3.683,1.816,7.619,7.619,0,0,0,4.7,2.975a4.847,4.847,0,0,0,.947.683,3.09,3.09,0,0,0,.868.319A4.226,4.226,0,0,0,7.3,4.056ZM.815-13.3a6.867,6.867,0,0,0-1.9.252,5.78,5.78,0,0,0-1.608.734V.471a5.875,5.875,0,0,0,1.63.734,6.737,6.737,0,0,0,1.809.241A6.944,6.944,0,0,0,2.619,1.2,6.151,6.151,0,0,0,4.266.471V-12.345a5.607,5.607,0,0,0-1.58-.711A6.936,6.936,0,0,0,.815-13.3ZM-5.672-5.556a8.066,8.066,0,0,0,.5,2.946A6.373,6.373,0,0,0-3.812-.447v-10.9A6.883,6.883,0,0,0-5.2-8.866,10.67,10.67,0,0,0-5.672-5.556ZM7.223-5.791A10.176,10.176,0,0,0,6.753-9,6.613,6.613,0,0,0,5.386-11.4V-.47a6.5,6.5,0,0,0,1.35-2.252A8.915,8.915,0,0,0,7.223-5.791ZM6.775,5.659a4.968,4.968,0,0,0,.717-.045,3.362,3.362,0,0,0,.571-.134V4.7a2.6,2.6,0,0,1-.353.056,4.226,4.226,0,0,1-.431.022,5.623,5.623,0,0,1-1.2-.118,3.592,3.592,0,0,1-1.053-.42A5.4,5.4,0,0,1,3.98,3.407,13.611,13.611,0,0,1,2.809,2.051a6.734,6.734,0,0,1-.739.179,6.348,6.348,0,0,1-.751.1A13.3,13.3,0,0,0,2.865,4.056,7.407,7.407,0,0,0,4.232,5.065,4.292,4.292,0,0,0,5.5,5.541,6.826,6.826,0,0,0,6.775,5.659Z" transform="translate(6.792 14.238)" fill="#22242b"/></svg>