<svg xmlns="http://www.w3.org/2000/svg" width="11.82" height="15.556" viewBox="0 0 11.82 15.556"><path d="M.645,1.242H.827a1.469,1.469,0,0,0,.182-.012l.717,2.08H3.418L2.607,1.019A5.841,5.841,0,0,0,4.3.314,4.909,4.909,0,0,0,5.591-.855,5.115,5.115,0,0,0,6.42-2.476a6.9,6.9,0,0,0,.288-2.062,5.86,5.86,0,0,0-.493-2.479A5.213,5.213,0,0,0,4.892-8.8,5.53,5.53,0,0,0,2.965-9.879a7.436,7.436,0,0,0-2.321-.358H-1.364l-.717-2.009H-3.7l.7,2.009H-5.112v1.551h2.655l1.175,3.372h-3.83v1.551H-.741L.469-.309H-5.112V1.242ZM.457-8.686a5.284,5.284,0,0,1,3.166.828A3.472,3.472,0,0,1,4.957-5.314H.375L-.812-8.686Zm4.5,4.923a3.878,3.878,0,0,1-.869,2.115A3.752,3.752,0,0,1,2.067-.52L.927-3.763Z" transform="translate(5.112 12.246)" fill="#22242b"/></svg>