<svg xmlns="http://www.w3.org/2000/svg" width="247.207" height="145.945" viewBox="0 0 247.207 145.945"><g transform="translate(-17.078 -52.54)"><rect width="247.207" height="145.945" rx="5" transform="translate(17.078 52.54)" fill="#fff"/><g transform="translate(34.623 66.807)"><text transform="translate(0.133 11.104)" fill="#212e3a" font-size="12" font-family="OpenSans-Semibold, Open Sans" font-weight="600"><tspan x="0" y="0">Can you</tspan></text><text transform="translate(89.133 38.104)" fill="#212e3a" font-size="12" font-family="OpenSans-Semibold, Open Sans" font-weight="600"><tspan x="0" y="0">the right options into</tspan></text><text transform="translate(0.133 65.104)" fill="#212e3a" font-size="12" font-family="OpenSans-Semibold, Open Sans" font-weight="600"><tspan x="0" y="0">the right boxes?</tspan></text><text transform="translate(147.133 11.104)" fill="#212e3a" font-size="12" font-family="OpenSans-Semibold, Open Sans" font-weight="600"><tspan x="0" y="0">and</tspan></text><g transform="translate(58.133 -4.208)"><g fill="#f8f8f8" stroke="#858585" stroke-width="1.5" stroke-dasharray="5 5"><rect width="78" height="22" rx="2" stroke="none"/><rect x="0.75" y="0.75" width="76.5" height="20.5" rx="1.25" fill="none"/></g></g><g transform="translate(0.133 22.792)"><g fill="#f8f8f8" stroke="#858585" stroke-width="1.5" stroke-dasharray="5 5"><rect width="78" height="22" rx="2" stroke="none"/><rect x="0.75" y="0.75" width="76.5" height="20.5" rx="1.25" fill="none"/></g></g></g><g transform="translate(-433.244 -46.4)"><rect width="78" height="22" rx="4" transform="translate(468 207)" fill="#3f85e5"/><text transform="translate(507.048 222)" fill="#fff" font-size="9" font-family="OpenSans-Semibold, Open Sans" font-weight="600"><tspan x="-25.453" y="0">WHISPERED</tspan></text></g><g transform="translate(-350.244 -46.4)"><rect width="78" height="22" rx="4" transform="translate(468 207)" fill="#3f85e5"/><text transform="translate(507.048 222)" fill="#fff" font-size="9" font-family="OpenSans-Semibold, Open Sans" font-weight="600"><tspan x="-18.499" y="0">HOLMES</tspan></text></g></g></svg>