<svg xmlns="http://www.w3.org/2000/svg" width="194.4" height="117.678" viewBox="0 0 194.4 117.678"><g transform="translate(-15.957 -40.256)"><path d="M3.932,0H190.468A3.983,3.983,0,0,1,194.4,4.032V113.646a3.983,3.983,0,0,1-3.932,4.032H3.932A3.983,3.983,0,0,1,0,113.646V4.032A3.983,3.983,0,0,1,3.932,0Z" transform="translate(15.957 40.256)" fill="#fff"/><path d="M3.582,4.384a1.731,1.731,0,0,0-1.424.642A2.743,2.743,0,0,0,1.639,6.8a2.761,2.761,0,0,0,.5,1.789,1.762,1.762,0,0,0,1.444.606,3.793,3.793,0,0,0,.791-.081q.382-.081.8-.209v.9a4.822,4.822,0,0,1-1.714.286,2.739,2.739,0,0,1-2.167-.855A3.576,3.576,0,0,1,.532,6.788,3.952,3.952,0,0,1,.9,5.034,2.619,2.619,0,0,1,1.96,3.883a3.21,3.21,0,0,1,1.63-.4A4.046,4.046,0,0,1,5.41,3.9l-.378.875a5.643,5.643,0,0,0-.688-.27A2.478,2.478,0,0,0,3.582,4.384ZM9.258,10l-.207-.677H9.017a1.991,1.991,0,0,1-.708.6,2.238,2.238,0,0,1-.914.16A1.547,1.547,0,0,1,6.277,9.7a1.447,1.447,0,0,1-.4-1.094,1.285,1.285,0,0,1,.558-1.134,3.218,3.218,0,0,1,1.7-.417l.839-.026V6.77a.983.983,0,0,0-.218-.7.887.887,0,0,0-.675-.231,2.332,2.332,0,0,0-.716.11,5.406,5.406,0,0,0-.659.259l-.334-.738a3.594,3.594,0,0,1,.866-.314,3.984,3.984,0,0,1,.888-.108,2.1,2.1,0,0,1,1.4.4A1.583,1.583,0,0,1,10,6.726V10ZM7.72,9.3a1.279,1.279,0,0,0,.9-.314A1.139,1.139,0,0,0,8.964,8.1V7.68l-.624.026a2.135,2.135,0,0,0-1.061.244.741.741,0,0,0-.332.666.65.65,0,0,0,.193.5A.831.831,0,0,0,7.72,9.3Zm7.769.7H14.452V7.012a1.308,1.308,0,0,0-.226-.839.875.875,0,0,0-.719-.277,1.142,1.142,0,0,0-.958.387,2.135,2.135,0,0,0-.3,1.3V10H11.213V5.14h.809l.145.637h.053a1.438,1.438,0,0,1,.624-.536,2.091,2.091,0,0,1,.9-.189,1.56,1.56,0,0,1,1.749,1.78Zm2.587-4.86H19.2L20.189,7.9A5.228,5.228,0,0,1,20.488,9h.035a4.619,4.619,0,0,1,.145-.587q.105-.345,1.116-3.276H22.9l-2.079,5.506a1.972,1.972,0,0,1-1.89,1.516,2.974,2.974,0,0,1-.668-.075V11.27a2.42,2.42,0,0,0,.532.053,1.089,1.089,0,0,0,1.05-.866l.18-.457Zm9.65,2.421a2.653,2.653,0,0,1-.611,1.859,2.189,2.189,0,0,1-1.7.668,2.33,2.33,0,0,1-1.2-.308,2.031,2.031,0,0,1-.8-.883,3.008,3.008,0,0,1-.281-1.336,2.635,2.635,0,0,1,.606-1.846,2.2,2.2,0,0,1,1.709-.664,2.141,2.141,0,0,1,1.67.679A2.623,2.623,0,0,1,27.725,7.561Zm-3.538,0q0,1.683,1.244,1.683t1.23-1.683q0-1.666-1.239-1.666a1.057,1.057,0,0,0-.943.431A2.192,2.192,0,0,0,24.188,7.561ZM32.114,10l-.145-.637h-.053a1.465,1.465,0,0,1-.613.532,2.05,2.05,0,0,1-.907.193,1.781,1.781,0,0,1-1.318-.439,1.822,1.822,0,0,1-.435-1.332V5.14h1.042v3a1.3,1.3,0,0,0,.229.837.872.872,0,0,0,.716.279,1.14,1.14,0,0,0,.956-.389,2.143,2.143,0,0,0,.305-1.3V5.14h1.037V10ZM100.6,10l-.207-.677h-.035a1.991,1.991,0,0,1-.708.6,2.238,2.238,0,0,1-.914.16A1.547,1.547,0,0,1,97.621,9.7a1.447,1.447,0,0,1-.4-1.094,1.285,1.285,0,0,1,.558-1.134,3.218,3.218,0,0,1,1.7-.417l.839-.026V6.77a.983.983,0,0,0-.218-.7.887.887,0,0,0-.675-.231,2.332,2.332,0,0,0-.716.11,5.406,5.406,0,0,0-.659.259l-.334-.738a3.594,3.594,0,0,1,.866-.314,3.984,3.984,0,0,1,.888-.108,2.1,2.1,0,0,1,1.4.4,1.583,1.583,0,0,1,.472,1.27V10Zm-1.538-.7a1.279,1.279,0,0,0,.9-.314,1.139,1.139,0,0,0,.341-.881V7.68l-.624.026a2.135,2.135,0,0,0-1.061.244.741.741,0,0,0-.332.666.65.65,0,0,0,.193.5A.831.831,0,0,0,99.064,9.3Zm7.769.7H105.8V7.012a1.308,1.308,0,0,0-.226-.839.875.875,0,0,0-.719-.277,1.142,1.142,0,0,0-.958.387,2.135,2.135,0,0,0-.3,1.3V10h-1.033V5.14h.809l.145.637h.053a1.438,1.438,0,0,1,.624-.536,2.091,2.091,0,0,1,.9-.189,1.56,1.56,0,0,1,1.749,1.78Zm2.851.088a1.693,1.693,0,0,1-1.419-.659,2.963,2.963,0,0,1-.51-1.85,2.972,2.972,0,0,1,.516-1.861,1.709,1.709,0,0,1,1.43-.666,1.676,1.676,0,0,1,1.459.708h.053a6.191,6.191,0,0,1-.075-.826V3.162h1.037V10h-.809l-.18-.637h-.048A1.651,1.651,0,0,1,109.684,10.088Zm.277-.835a1.124,1.124,0,0,0,.927-.358,1.886,1.886,0,0,0,.3-1.162V7.587a2.178,2.178,0,0,0-.3-1.305,1.109,1.109,0,0,0-.936-.387.95.95,0,0,0-.839.442,2.263,2.263,0,0,0-.294,1.259,2.207,2.207,0,0,0,.286,1.233A.964.964,0,0,0,109.961,9.253Zm-107.412,26a2.511,2.511,0,0,0,.756-.119v.778a2.085,2.085,0,0,1-.442.125,3.043,3.043,0,0,1-.56.051q-1.468,0-1.468-1.547V31.922H.171v-.457l.712-.378.352-1.028h.637V31.14H3.256v.782H1.872v2.6a.73.73,0,0,0,.187.552A.681.681,0,0,0,2.549,35.253ZM8.327,36H7.29V33.012a1.308,1.308,0,0,0-.226-.839.875.875,0,0,0-.719-.277,1.14,1.14,0,0,0-.956.389,2.143,2.143,0,0,0-.305,1.3V36H4.051V29.162H5.084V30.9a8.1,8.1,0,0,1-.053.892H5.1a1.434,1.434,0,0,1,.587-.545,1.891,1.891,0,0,1,.877-.193,1.567,1.567,0,0,1,1.767,1.78Zm3.335.088a2.351,2.351,0,0,1-1.773-.661A2.511,2.511,0,0,1,9.249,33.6a2.755,2.755,0,0,1,.593-1.872,2.049,2.049,0,0,1,1.63-.681,2,2,0,0,1,1.521.584,2.233,2.233,0,0,1,.558,1.608V33.8H10.312a1.6,1.6,0,0,0,.382,1.088,1.332,1.332,0,0,0,1.015.38,3.747,3.747,0,0,0,.8-.081,4.2,4.2,0,0,0,.8-.27v.839a3.171,3.171,0,0,1-.765.255A4.689,4.689,0,0,1,11.661,36.088Zm-.189-4.254a1.038,1.038,0,0,0-.789.312,1.487,1.487,0,0,0-.354.91h2.206a1.345,1.345,0,0,0-.29-.912A.992.992,0,0,0,11.472,31.834Zm7.605-.782a2.486,2.486,0,0,1,.514.044l-.1.962a1.952,1.952,0,0,0-.457-.053,1.323,1.323,0,0,0-1,.4,1.461,1.461,0,0,0-.385,1.05V36H16.612V31.14h.809l.136.857h.053a1.926,1.926,0,0,1,.631-.69A1.5,1.5,0,0,1,19.078,31.052ZM21.3,36H20.268V31.14H21.3Zm-1.094-6.148a.572.572,0,0,1,.152-.426.591.591,0,0,1,.433-.149.578.578,0,0,1,.424.149.572.572,0,0,1,.152.426.561.561,0,0,1-.152.415.573.573,0,0,1-.424.152.586.586,0,0,1-.433-.152A.561.561,0,0,1,20.206,29.852Zm6.45,1.288v.567l-.831.154a1.341,1.341,0,0,1,.189.378,1.491,1.491,0,0,1,.075.475,1.454,1.454,0,0,1-.519,1.182,2.17,2.17,0,0,1-1.428.431,2.316,2.316,0,0,1-.422-.035.582.582,0,0,0-.334.483.269.269,0,0,0,.156.25,1.349,1.349,0,0,0,.573.083h.848a1.886,1.886,0,0,1,1.222.343,1.206,1.206,0,0,1,.417.989,1.438,1.438,0,0,1-.681,1.274,3.586,3.586,0,0,1-1.969.448,2.717,2.717,0,0,1-1.516-.352,1.136,1.136,0,0,1-.523-1,1.066,1.066,0,0,1,.283-.754,1.519,1.519,0,0,1,.793-.424.776.776,0,0,1-.341-.283.716.716,0,0,1-.134-.411.707.707,0,0,1,.154-.461,1.775,1.775,0,0,1,.457-.374,1.354,1.354,0,0,1-.613-.53,1.558,1.558,0,0,1-.235-.859,1.54,1.54,0,0,1,.5-1.226,2.1,2.1,0,0,1,1.422-.435,3.46,3.46,0,0,1,.433.029,2.725,2.725,0,0,1,.341.059Zm-3.819,5.616a.568.568,0,0,0,.3.514,1.654,1.654,0,0,0,.846.18,2.556,2.556,0,0,0,1.257-.242.725.725,0,0,0,.413-.642.481.481,0,0,0-.226-.45,1.817,1.817,0,0,0-.842-.134H23.8a1.1,1.1,0,0,0-.705.209A.684.684,0,0,0,22.837,36.756Zm.444-4.043a.978.978,0,0,0,.235.7.889.889,0,0,0,.675.246q.9,0,.9-.958a1.087,1.087,0,0,0-.222-.732.843.843,0,0,0-.675-.257.869.869,0,0,0-.679.255A1.071,1.071,0,0,0,23.281,32.713ZM31.608,36H30.571V33.012a1.308,1.308,0,0,0-.226-.839.875.875,0,0,0-.719-.277,1.14,1.14,0,0,0-.956.389,2.143,2.143,0,0,0-.305,1.3V36H27.332V29.162h1.033V30.9a8.1,8.1,0,0,1-.053.892h.066a1.434,1.434,0,0,1,.587-.545,1.891,1.891,0,0,1,.877-.193,1.567,1.567,0,0,1,1.767,1.78Zm3.023-.747a2.511,2.511,0,0,0,.756-.119v.778a2.085,2.085,0,0,1-.442.125,3.043,3.043,0,0,1-.56.051q-1.468,0-1.468-1.547V31.922h-.664v-.457l.712-.378.352-1.028h.637V31.14h1.384v.782H33.954v2.6a.73.73,0,0,0,.187.552A.681.681,0,0,0,34.631,35.253Zm7.926-1.692a2.653,2.653,0,0,1-.611,1.859,2.189,2.189,0,0,1-1.7.668,2.33,2.33,0,0,1-1.2-.308,2.031,2.031,0,0,1-.8-.883,3.008,3.008,0,0,1-.281-1.336,2.635,2.635,0,0,1,.606-1.846,2.2,2.2,0,0,1,1.709-.664,2.141,2.141,0,0,1,1.67.679A2.623,2.623,0,0,1,42.557,33.561Zm-3.538,0q0,1.683,1.244,1.683t1.23-1.683q0-1.666-1.239-1.666a1.057,1.057,0,0,0-.943.431A2.192,2.192,0,0,0,39.019,33.561Zm6.964,2.527a1.7,1.7,0,0,1-1.433-.664h-.062q.062.615.062.747v1.991H43.518V31.14h.835q.035.136.145.65h.053A1.618,1.618,0,0,1,46,31.052a1.687,1.687,0,0,1,1.417.659,2.972,2.972,0,0,1,.508,1.85,2.974,2.974,0,0,1-.516,1.859A1.7,1.7,0,0,1,45.984,36.088Zm-.25-4.192a1.073,1.073,0,0,0-.9.36,1.868,1.868,0,0,0-.283,1.151v.154a2.273,2.273,0,0,0,.281,1.285,1.046,1.046,0,0,0,.918.4.932.932,0,0,0,.826-.439,2.269,2.269,0,0,0,.29-1.252,2.19,2.19,0,0,0-.288-1.237A.96.96,0,0,0,45.733,31.9Zm4.978,3.357a2.511,2.511,0,0,0,.756-.119v.778a2.085,2.085,0,0,1-.442.125,3.043,3.043,0,0,1-.56.051Q49,36.088,49,34.541V31.922h-.664v-.457l.712-.378.352-1.028h.637V31.14h1.384v.782H50.034v2.6a.73.73,0,0,0,.187.552A.681.681,0,0,0,50.711,35.253ZM53.246,36H52.213V31.14h1.033Zm-1.094-6.148a.572.572,0,0,1,.152-.426.591.591,0,0,1,.433-.149.578.578,0,0,1,.424.149.572.572,0,0,1,.152.426.561.561,0,0,1-.152.415.573.573,0,0,1-.424.152.586.586,0,0,1-.433-.152A.561.561,0,0,1,52.152,29.852Zm6.657,3.709A2.653,2.653,0,0,1,58.2,35.42a2.189,2.189,0,0,1-1.7.668,2.33,2.33,0,0,1-1.2-.308,2.031,2.031,0,0,1-.8-.883,3.008,3.008,0,0,1-.281-1.336,2.635,2.635,0,0,1,.606-1.846,2.2,2.2,0,0,1,1.709-.664,2.141,2.141,0,0,1,1.67.679A2.623,2.623,0,0,1,58.809,33.561Zm-3.538,0q0,1.683,1.244,1.683t1.23-1.683q0-1.666-1.239-1.666a1.057,1.057,0,0,0-.943.431A2.192,2.192,0,0,0,55.271,33.561ZM64.046,36H63.009V33.012a1.308,1.308,0,0,0-.226-.839.875.875,0,0,0-.719-.277,1.142,1.142,0,0,0-.958.387,2.135,2.135,0,0,0-.3,1.3V36H59.77V31.14h.809l.145.637h.053a1.438,1.438,0,0,1,.624-.536,2.091,2.091,0,0,1,.9-.189,1.56,1.56,0,0,1,1.749,1.78Zm4.477-1.384A1.272,1.272,0,0,1,68,35.708a2.483,2.483,0,0,1-1.485.38,3.509,3.509,0,0,1-1.56-.294V34.9a3.83,3.83,0,0,0,1.6.4q.954,0,.954-.576a.456.456,0,0,0-.105-.308,1.248,1.248,0,0,0-.347-.255,5.974,5.974,0,0,0-.672-.3,3.11,3.11,0,0,1-1.136-.65,1.2,1.2,0,0,1-.3-.844,1.108,1.108,0,0,1,.5-.969,2.388,2.388,0,0,1,1.369-.345,3.877,3.877,0,0,1,1.622.347l-.334.778a3.607,3.607,0,0,0-1.323-.325q-.817,0-.817.466a.469.469,0,0,0,.213.387,4.687,4.687,0,0,0,.929.435,4.249,4.249,0,0,1,.875.426,1.274,1.274,0,0,1,.4.446A1.291,1.291,0,0,1,68.523,34.616ZM72.56,36H71.527V31.14H72.56Zm-1.094-6.148a.572.572,0,0,1,.152-.426.591.591,0,0,1,.433-.149.578.578,0,0,1,.424.149.572.572,0,0,1,.152.426.561.561,0,0,1-.152.415.573.573,0,0,1-.424.152.586.586,0,0,1-.433-.152A.561.561,0,0,1,71.466,29.852ZM78.087,36H77.05V33.012a1.308,1.308,0,0,0-.226-.839.875.875,0,0,0-.719-.277,1.142,1.142,0,0,0-.958.387,2.135,2.135,0,0,0-.3,1.3V36H73.811V31.14h.809l.145.637h.053a1.438,1.438,0,0,1,.624-.536,2.091,2.091,0,0,1,.9-.189,1.56,1.56,0,0,1,1.749,1.78Zm3.023-.747a2.511,2.511,0,0,0,.756-.119v.778a2.085,2.085,0,0,1-.442.125,3.043,3.043,0,0,1-.56.051q-1.468,0-1.468-1.547V31.922h-.664v-.457l.712-.378.352-1.028h.637V31.14h1.384v.782H80.433v2.6a.73.73,0,0,0,.187.552A.681.681,0,0,0,81.11,35.253Zm5.813-1.692a2.653,2.653,0,0,1-.611,1.859,2.189,2.189,0,0,1-1.7.668,2.33,2.33,0,0,1-1.2-.308,2.031,2.031,0,0,1-.8-.883,3.008,3.008,0,0,1-.281-1.336,2.635,2.635,0,0,1,.606-1.846,2.2,2.2,0,0,1,1.709-.664,2.141,2.141,0,0,1,1.67.679A2.623,2.623,0,0,1,86.923,33.561Zm-3.538,0q0,1.683,1.244,1.683t1.23-1.683q0-1.666-1.239-1.666a1.057,1.057,0,0,0-.943.431A2.192,2.192,0,0,0,83.385,33.561Zm8.423,1.692a2.511,2.511,0,0,0,.756-.119v.778a2.085,2.085,0,0,1-.442.125,3.043,3.043,0,0,1-.56.051q-1.468,0-1.468-1.547V31.922H89.43v-.457l.712-.378.352-1.028h.637V31.14h1.384v.782H91.131v2.6a.73.73,0,0,0,.187.552A.681.681,0,0,0,91.808,35.253ZM97.586,36H96.549V33.012a1.308,1.308,0,0,0-.226-.839A.875.875,0,0,0,95.6,31.9a1.14,1.14,0,0,0-.956.389,2.143,2.143,0,0,0-.305,1.3V36H93.31V29.162h1.033V30.9a8.1,8.1,0,0,1-.053.892h.066a1.434,1.434,0,0,1,.587-.545,1.891,1.891,0,0,1,.877-.193,1.567,1.567,0,0,1,1.767,1.78Zm3.335.088a2.351,2.351,0,0,1-1.773-.661,2.511,2.511,0,0,1-.639-1.822,2.755,2.755,0,0,1,.593-1.872,2.049,2.049,0,0,1,1.63-.681,2,2,0,0,1,1.521.584,2.233,2.233,0,0,1,.558,1.608V33.8H99.571a1.6,1.6,0,0,0,.382,1.088,1.332,1.332,0,0,0,1.015.38,3.747,3.747,0,0,0,.8-.081,4.2,4.2,0,0,0,.8-.27v.839a3.171,3.171,0,0,1-.765.255A4.689,4.689,0,0,1,100.92,36.088Zm-.189-4.254a1.038,1.038,0,0,0-.789.312,1.487,1.487,0,0,0-.354.91h2.206a1.345,1.345,0,0,0-.29-.912A.992.992,0,0,0,100.731,31.834Zm7.605-.782a2.486,2.486,0,0,1,.514.044l-.1.962a1.952,1.952,0,0,0-.457-.053,1.323,1.323,0,0,0-1,.4,1.461,1.461,0,0,0-.385,1.05V36h-1.033V31.14h.809l.136.857h.053a1.926,1.926,0,0,1,.631-.69A1.5,1.5,0,0,1,108.337,31.052ZM110.559,36h-1.033V31.14h1.033Zm-1.094-6.148a.572.572,0,0,1,.152-.426.591.591,0,0,1,.433-.149.578.578,0,0,1,.424.149.572.572,0,0,1,.152.426.561.561,0,0,1-.152.415.573.573,0,0,1-.424.152.586.586,0,0,1-.433-.152A.561.561,0,0,1,109.465,29.852Zm6.45,1.288v.567l-.831.154a1.341,1.341,0,0,1,.189.378,1.491,1.491,0,0,1,.075.475,1.454,1.454,0,0,1-.519,1.182,2.17,2.17,0,0,1-1.428.431,2.316,2.316,0,0,1-.422-.035.582.582,0,0,0-.334.483.269.269,0,0,0,.156.25,1.349,1.349,0,0,0,.573.083h.848a1.886,1.886,0,0,1,1.222.343,1.206,1.206,0,0,1,.417.989,1.438,1.438,0,0,1-.681,1.274,3.586,3.586,0,0,1-1.969.448,2.717,2.717,0,0,1-1.516-.352,1.136,1.136,0,0,1-.523-1,1.066,1.066,0,0,1,.283-.754,1.519,1.519,0,0,1,.793-.424.776.776,0,0,1-.341-.283.716.716,0,0,1-.134-.411.707.707,0,0,1,.154-.461,1.775,1.775,0,0,1,.457-.374,1.354,1.354,0,0,1-.613-.53,1.558,1.558,0,0,1-.235-.859,1.54,1.54,0,0,1,.5-1.226,2.1,2.1,0,0,1,1.422-.435,3.46,3.46,0,0,1,.433.029,2.725,2.725,0,0,1,.341.059ZM112.1,36.756a.568.568,0,0,0,.3.514,1.654,1.654,0,0,0,.846.18,2.556,2.556,0,0,0,1.257-.242.725.725,0,0,0,.413-.642.481.481,0,0,0-.226-.45,1.817,1.817,0,0,0-.842-.134h-.782a1.1,1.1,0,0,0-.705.209A.684.684,0,0,0,112.1,36.756Zm.444-4.043a.978.978,0,0,0,.235.7.889.889,0,0,0,.675.246q.9,0,.9-.958a1.087,1.087,0,0,0-.222-.732.843.843,0,0,0-.675-.257.869.869,0,0,0-.679.255A1.071,1.071,0,0,0,112.54,32.713ZM120.867,36H119.83V33.012a1.308,1.308,0,0,0-.226-.839.875.875,0,0,0-.719-.277,1.14,1.14,0,0,0-.956.389,2.143,2.143,0,0,0-.305,1.3V36h-1.033V29.162h1.033V30.9a8.1,8.1,0,0,1-.053.892h.066a1.434,1.434,0,0,1,.587-.545,1.891,1.891,0,0,1,.877-.193,1.567,1.567,0,0,1,1.767,1.78Zm3.023-.747a2.511,2.511,0,0,0,.756-.119v.778a2.085,2.085,0,0,1-.442.125,3.043,3.043,0,0,1-.56.051q-1.468,0-1.468-1.547V31.922h-.664v-.457l.712-.378.352-1.028h.637V31.14H124.6v.782h-1.384v2.6a.73.73,0,0,0,.187.552A.681.681,0,0,0,123.89,35.253Zm6.1-4.2a1.687,1.687,0,0,1,1.417.659,2.972,2.972,0,0,1,.508,1.85,2.982,2.982,0,0,1-.514,1.861,1.872,1.872,0,0,1-2.861,0h-.07l-.189.576H127.5V29.162h1.033v1.626q0,.18-.018.536t-.026.453h.044A1.64,1.64,0,0,1,129.988,31.052Zm-.268.844a1.05,1.05,0,0,0-.9.367,2.135,2.135,0,0,0-.283,1.228v.07a2.273,2.273,0,0,0,.281,1.285,1.046,1.046,0,0,0,.918.4.931.931,0,0,0,.833-.435,2.308,2.308,0,0,0,.283-1.257Q130.853,31.9,129.72,31.9Zm7.479,1.666a2.653,2.653,0,0,1-.611,1.859,2.189,2.189,0,0,1-1.7.668,2.33,2.33,0,0,1-1.2-.308,2.031,2.031,0,0,1-.8-.883,3.008,3.008,0,0,1-.281-1.336,2.635,2.635,0,0,1,.606-1.846,2.2,2.2,0,0,1,1.709-.664,2.141,2.141,0,0,1,1.67.679A2.623,2.623,0,0,1,137.2,33.561Zm-3.538,0q0,1.683,1.244,1.683t1.23-1.683q0-1.666-1.239-1.666a1.057,1.057,0,0,0-.943.431A2.192,2.192,0,0,0,133.661,33.561Zm5.58-.044-1.63-2.377h1.178l1.107,1.7,1.116-1.7h1.169l-1.635,2.377L142.264,36H141.1l-1.2-1.819L138.7,36h-1.169Zm5.774,2.571a2.351,2.351,0,0,1-1.773-.661A2.511,2.511,0,0,1,142.6,33.6a2.755,2.755,0,0,1,.593-1.872,2.049,2.049,0,0,1,1.63-.681,2,2,0,0,1,1.521.584,2.233,2.233,0,0,1,.558,1.608V33.8h-3.239a1.6,1.6,0,0,0,.382,1.088,1.332,1.332,0,0,0,1.015.38,3.747,3.747,0,0,0,.8-.081,4.2,4.2,0,0,0,.8-.27v.839a3.171,3.171,0,0,1-.765.255A4.689,4.689,0,0,1,145.014,36.088Zm-.189-4.254a1.038,1.038,0,0,0-.789.312,1.487,1.487,0,0,0-.354.91h2.206a1.345,1.345,0,0,0-.29-.912A.992.992,0,0,0,144.825,31.834Zm6.292,2.782a1.272,1.272,0,0,1-.519,1.092,2.483,2.483,0,0,1-1.485.38,3.509,3.509,0,0,1-1.56-.294V34.9a3.83,3.83,0,0,0,1.6.4q.954,0,.954-.576a.456.456,0,0,0-.105-.308,1.248,1.248,0,0,0-.347-.255,5.974,5.974,0,0,0-.672-.3,3.11,3.11,0,0,1-1.136-.65,1.2,1.2,0,0,1-.3-.844,1.108,1.108,0,0,1,.5-.969,2.388,2.388,0,0,1,1.369-.345,3.877,3.877,0,0,1,1.622.347l-.334.778a3.607,3.607,0,0,0-1.323-.325q-.817,0-.817.466a.469.469,0,0,0,.213.387,4.687,4.687,0,0,0,.929.435,4.249,4.249,0,0,1,.875.426,1.274,1.274,0,0,1,.4.446A1.291,1.291,0,0,1,151.117,34.616Zm1.4-.567v-.281a1.658,1.658,0,0,1,.176-.8,2.291,2.291,0,0,1,.615-.664,3.4,3.4,0,0,0,.675-.642.963.963,0,0,0,.152-.545.685.685,0,0,0-.246-.567,1.106,1.106,0,0,0-.708-.2,2.432,2.432,0,0,0-.773.119,5.491,5.491,0,0,0-.694.286l-.369-.773a3.869,3.869,0,0,1,1.912-.5,2.066,2.066,0,0,1,1.367.422,1.435,1.435,0,0,1,.505,1.165,1.659,1.659,0,0,1-.1.587,1.684,1.684,0,0,1-.292.49,4.719,4.719,0,0,1-.675.606,2.587,2.587,0,0,0-.547.532,1.021,1.021,0,0,0-.138.567v.2Zm-.18,1.4a.579.579,0,0,1,.646-.664.64.64,0,0,1,.483.174.678.678,0,0,1,.167.49.7.7,0,0,1-.169.494.73.73,0,0,1-.96,0A.7.7,0,0,1,152.334,35.451Z" transform="translate(26.756 56.418)" fill="#212e3a"/><g transform="translate(65.756 52.6)"><rect width="50" height="20" rx="2" fill="#f8f8f8"/><path d="M2,0H7V1.5H2V0ZM12,0h5V1.5H12ZM22,0h5V1.5H22ZM32,0h5V1.5H32ZM42,0h5V1.5H42Zm6.5,2.858H50v5H48.5Zm0,10H50v5H48.5ZM41.284,18.5h5V20h-5Zm-10,0h5V20h-5Zm-10,0h5V20h-5Zm-10,0h5V20h-5Zm-9.459-.031A.5.5,0,0,0,2,18.5H6.284V20H1.852a1.99,1.99,0,0,1-.553-.121ZM0,10.426H1.5v5H0ZM.588.584,1.647,1.646A.5.5,0,0,0,1.5,2V5.426H0V2s0,0,0-.005,0,0,0,0,0-.005,0-.008V1.9H0v0H0V1.849a.03.03,0,0,1,0,0h0v0h0V1.83h0V1.824h0v0h0A1.989,1.989,0,0,1,.379.828l0,0,0,0h0l0,0,0,0,0,0,0,0,0,0,0,0,0,0,0,0,0,0,0,0,0,0,0,0,0,0,0,0,0,0,0,0,0,0,0,0,0,0,0,0h0l0,0A2.011,2.011,0,0,1,.588.584Z" fill="#858585"/></g><g transform="translate(149.756 52.6)"><rect width="50" height="20" rx="2" fill="#f8f8f8"/><path d="M2,0H7V1.5H2V0ZM12,0h5V1.5H12ZM22,0h5V1.5H22ZM32,0h5V1.5H32ZM42,0h5V1.5H42Zm6.5,2.858H50v5H48.5Zm0,10H50v5H48.5ZM41.284,18.5h5V20h-5Zm-10,0h5V20h-5Zm-10,0h5V20h-5Zm-10,0h5V20h-5Zm-9.459-.031A.5.5,0,0,0,2,18.5H6.284V20H1.852a1.99,1.99,0,0,1-.553-.121ZM0,10.426H1.5v5H0ZM.588.584,1.647,1.646A.5.5,0,0,0,1.5,2V5.426H0V2s0,0,0-.005,0,0,0,0,0-.005,0-.008V1.9H0v0H0V1.849a.03.03,0,0,1,0,0h0v0h0V1.83h0V1.824h0v0h0A1.989,1.989,0,0,1,.379.828l0,0,0,0h0l0,0,0,0,0,0,0,0,0,0,0,0,0,0,0,0,0,0,0,0,0,0,0,0,0,0,0,0,0,0,0,0,0,0,0,0,0,0,0,0h0l0,0A2.011,2.011,0,0,1,.588.584Z" fill="#858585"/></g><g transform="translate(-441.244 -99.4)"><rect width="70.909" height="20" rx="4" transform="translate(468 206.818)" fill="#3f85e5"/><path d="M-6.348-3.274A3.2,3.2,0,0,1-7.231-.842,3.548,3.548,0,0,1-9.776,0h-1.8V-6.425h1.986A3.286,3.286,0,0,1-7.2-5.6,3.087,3.087,0,0,1-6.348-3.274Zm-1.107.035q0-2.307-2.158-2.307h-.91V-.883h.747A2.067,2.067,0,0,0-7.455-3.239Zm3.538-.2h.729a1.666,1.666,0,0,0,1.063-.272.989.989,0,0,0,.33-.809A.87.87,0,0,0-2.151-5.3a1.952,1.952,0,0,0-1.072-.237h-.694Zm0,.87V0h-1.05V-6.425h1.815a2.982,2.982,0,0,1,1.841.466,1.673,1.673,0,0,1,.6,1.406A1.758,1.758,0,0,1-1.962-2.843L-.147,0h-1.2L-2.881-2.566ZM4.77,0,4.129-1.784H1.672L1.044,0H-.064l2.4-6.451H3.483L5.886,0ZM3.852-2.689l-.6-1.749q-.066-.176-.182-.554t-.16-.554A9.849,9.849,0,0,1,2.56-4.364L1.98-2.689Zm5.511-.8h2.364V-.259a6.842,6.842,0,0,1-1.114.268A7.886,7.886,0,0,1,9.459.088a2.9,2.9,0,0,1-2.25-.864,3.477,3.477,0,0,1-.791-2.437A3.249,3.249,0,0,1,7.31-5.64a3.353,3.353,0,0,1,2.457-.877,4.784,4.784,0,0,1,1.907.387l-.369.875a3.711,3.711,0,0,0-1.564-.36,2.107,2.107,0,0,0-1.626.646,2.5,2.5,0,0,0-.6,1.767,2.637,2.637,0,0,0,.538,1.791A1.952,1.952,0,0,0,9.6-.8a5.091,5.091,0,0,0,1.09-.127V-2.584H9.363Z" transform="translate(503.001 220.818)" fill="#fff"/></g><g transform="translate(-365.244 -99.4)"><rect width="70.909" height="20" rx="4" transform="translate(468 206.818)" fill="#3f85e5"/><path d="M-6.416-3.274A3.2,3.2,0,0,1-7.3-.842,3.548,3.548,0,0,1-9.844,0h-1.8V-6.425h1.986A3.286,3.286,0,0,1-7.269-5.6,3.087,3.087,0,0,1-6.416-3.274Zm-1.107.035q0-2.307-2.158-2.307h-.91V-.883h.747A2.067,2.067,0,0,0-7.523-3.239Zm3.538-.2h.729a1.666,1.666,0,0,0,1.063-.272.989.989,0,0,0,.33-.809A.87.87,0,0,0-2.219-5.3a1.952,1.952,0,0,0-1.072-.237h-.694Zm0,.87V0h-1.05V-6.425h1.815a2.982,2.982,0,0,1,1.841.466,1.673,1.673,0,0,1,.6,1.406A1.758,1.758,0,0,1-2.03-2.843L-.215,0h-1.2L-2.949-2.566ZM6.42-3.221A3.514,3.514,0,0,1,5.636-.782a2.837,2.837,0,0,1-2.221.87A2.857,2.857,0,0,1,1.18-.776,3.536,3.536,0,0,1,.4-3.23a3.482,3.482,0,0,1,.784-2.443,2.89,2.89,0,0,1,2.239-.853,2.832,2.832,0,0,1,2.215.866A3.511,3.511,0,0,1,6.42-3.221Zm-4.9,0A2.881,2.881,0,0,0,2-1.422a1.691,1.691,0,0,0,1.419.613,1.688,1.688,0,0,0,1.413-.606A2.886,2.886,0,0,0,5.3-3.221a2.892,2.892,0,0,0-.472-1.793,1.67,1.67,0,0,0-1.408-.611A1.705,1.705,0,0,0,2-5.014,2.853,2.853,0,0,0,1.516-3.221ZM12.054-4.482A1.873,1.873,0,0,1,11.4-2.94,2.9,2.9,0,0,1,9.519-2.4H8.851V0H7.8V-6.425H9.65a2.8,2.8,0,0,1,1.8.492A1.767,1.767,0,0,1,12.054-4.482Zm-3.2,1.2h.558A2,2,0,0,0,10.6-3.568a1.024,1.024,0,0,0,.378-.879,1,1,0,0,0-.338-.826A1.671,1.671,0,0,0,9.58-5.546H8.851Z" transform="translate(503.001 220.818)" fill="#fff"/></g></g></svg>