<svg xmlns="http://www.w3.org/2000/svg" width="226.402" height="174.189" viewBox="0 0 226.402 174.189"><rect width="226.402" height="174.189" rx="10" transform="translate(0 0)" fill="#fff"/><path d="M10,1a9.01,9.01,0,0,0-9,9V164.189a9.01,9.01,0,0,0,9,9H216.4a9.01,9.01,0,0,0,9-9V10a9.01,9.01,0,0,0-9-9H10m0-1H216.4a10,10,0,0,1,10,10V164.189a10,10,0,0,1-10,10H10a10,10,0,0,1-10-10V10A10,10,0,0,1,10,0Z" transform="translate(0 0)" fill="#dadae4"/><g transform="translate(16.757 12.829)"><text transform="translate(0 12)" fill="#434b5d" font-size="11" font-family="OpenSans-Bold, Open Sans" font-weight="700"><tspan x="0" y="0">Drag &amp; Drop</tspan></text></g><text transform="translate(16.756 60.418)" fill="#212e3a" font-size="9" font-family="OpenSans-SemiBold, Open Sans" font-weight="600" letter-spacing="-0.025em"><tspan x="0" y="10" xml:space="preserve">Can you                                       and  </tspan><tspan x="0" y="23"></tspan><tspan x="0" y="36">the right options into the right boxes?</tspan></text><g transform="translate(55.756 56.6)"><rect width="65.07" height="20" rx="2" fill="#f8f8f8"/><path d="M2,0H7V1.5H2V0ZM12,0h5V1.5H12ZM22,0h5V1.5H22ZM32,0h5V1.5H32ZM42,0h5V1.5H42ZM52,0h5V1.5H52ZM62,0h1.07a2,2,0,0,1,2,2v.788h-1.5V2a.5.5,0,0,0-.5-.5H62Zm1.57,7.788h1.5v5h-1.5Zm0,10h1.5V18a2,2,0,0,1-2,2H61.425V18.5H63.07a.5.5,0,0,0,.5-.5ZM51.425,18.5h5V20h-5Zm-10,0h5V20h-5Zm-10,0h5V20h-5Zm-10,0h5V20h-5Zm-10,0h5V20h-5Zm-9.567-.02A.5.5,0,0,0,2,18.5H6.425V20H1.618q-.095-.018-.186-.045ZM0,10.566H1.5v5H0ZM.492.686l1.131.986A.492.492,0,0,0,1.5,2V5.566H0V2s0,0,0,0,0,0,0,0,0,0,0,0,0,0,0,0v0s0,0,0,0v-.01H0v0s0,0,0,0V1.936H0v0s0,0,0,0V1.9H0V1.84h0V1.809h0V1.742h0V1.711h0V1.68h0v-.03h0v-.03h0v-.03h0v-.03h0v-.03h0l0-.009V1.5h0l0-.009V1.468h0l0-.012V1.438h0l0-.012v-.02h0l0-.009V1.382h0L.1,1.361V1.353h0A2,2,0,0,1,.492.686Z" fill="#858585"/></g><g transform="translate(146.756 56.6)"><rect width="65.07" height="20" rx="2" fill="#f8f8f8"/><path d="M2,0H7V1.5H2V0ZM12,0h5V1.5H12ZM22,0h5V1.5H22ZM32,0h5V1.5H32ZM42,0h5V1.5H42ZM52,0h5V1.5H52ZM62,0h1.07a2,2,0,0,1,2,2v.788h-1.5V2a.5.5,0,0,0-.5-.5H62Zm1.57,7.788h1.5v5h-1.5Zm0,10h1.5V18a2,2,0,0,1-2,2H61.425V18.5H63.07a.5.5,0,0,0,.5-.5ZM51.425,18.5h5V20h-5Zm-10,0h5V20h-5Zm-10,0h5V20h-5Zm-10,0h5V20h-5Zm-10,0h5V20h-5Zm-9.567-.02A.5.5,0,0,0,2,18.5H6.425V20H1.618q-.095-.018-.186-.045ZM0,10.566H1.5v5H0ZM.492.686l1.131.986A.492.492,0,0,0,1.5,2V5.566H0V2s0,0,0,0,0,0,0,0,0,0,0,0,0,0,0,0v0s0,0,0,0v-.01H0v0s0,0,0,0V1.936H0v0s0,0,0,0V1.9H0V1.84h0V1.809h0V1.742h0V1.711h0V1.68h0v-.03h0v-.03h0v-.03h0v-.03h0v-.03h0l0-.009V1.5h0l0-.009V1.468h0l0-.012V1.438h0l0-.012v-.02h0l0-.009V1.382h0L.1,1.361V1.353h0A2,2,0,0,1,.492.686Z" fill="#858585"/></g><g transform="translate(-451.244 -95.4)"><rect width="70.909" height="20" rx="4" transform="translate(468 206.818)" fill="#3f85e5"/><text transform="translate(503.001 220.818)" fill="#fff" font-size="9" font-family="OpenSans-SemiBold, Open Sans" font-weight="600"><tspan x="-12.421" y="0">DRAG</tspan></text></g><g transform="translate(-375.244 -95.4)"><rect width="70.909" height="20" rx="4" transform="translate(468 206.818)" fill="#3f85e5"/><text transform="translate(503.001 220.818)" fill="#fff" font-size="9" font-family="OpenSans-SemiBold, Open Sans" font-weight="600"><tspan x="-12.489" y="0">DROP</tspan></text></g></svg>