<svg xmlns="http://www.w3.org/2000/svg" viewBox="0 0 248 146" width="248" height="146">
	<defs>
		<clipPath clipPathUnits="userSpaceOnUse" id="cp1">
			<path d="M25.08 2L227.73 2L227.73 142L25.08 142L25.08 2Z" />
		</clipPath>
	</defs>
	<style>
		tspan { white-space:pre }
		.shp0 { fill: #ffffff } 
		.shp1 { fill: #ee2a7b } 
		.shp2 { fill: #9e1f63 } 
		.shp3 { fill: #da1c5c } 
		.shp4 { fill: #77134d } 
		.shp5 { fill: #7c0f6a } 
		.shp6 { fill: #f8f8f8;stroke: #858585;stroke-width: 1.5 } 
		.shp7 { fill: none;stroke: #5dd3bb;stroke-width: 1.2 } 
	</style>
	<g id="Layer">
		<path id="Layer" class="shp0" d="M5.02 0L242.98 0C245.76 0 248 2.23 248 5L248 140.94C248 143.71 245.76 145.94 242.98 145.94L5.02 145.94C2.24 145.94 0 143.71 0 140.94L0 5C0 2.23 2.24 0 5.02 0Z" />
		<g id="Clip-Path: Clip-Path" clip-path="url(#cp1)">
			<g id="Clip-Path">
				<g id="Layer">
					<g id="Layer">
						<path id="Layer" fill-rule="evenodd" class="shp1" d="M114.26 65.41L114.48 65.04L114.86 65.02L115.01 64.98L114.64 64.76L114.8 64.49L115.22 64.61L115.35 64.81L115.59 64.82L115.91 65.13L115.6 65.44L115.57 65.92L115.47 66.1L115.24 65.85L114.7 66.15L114.34 65.7L114.26 65.41ZM119.82 64.55L119.9 65.46L119.6 65.78L119.02 65.08L119.19 64.56L119.66 63.97L119.82 64.55ZM113 61.86L112.63 61.64L112.6 61.26L112.95 61.09L112.96 60.85L112.51 60.35L112.24 60.19L112.17 59.66L112.44 59.2L112.41 58.82L112.54 58.4L112.87 58.46L113.27 58.2L113.56 58.12L113.58 58.51L113.48 58.69L113.78 59.23L113.92 59.19L114.15 59.44L114.31 59.17L114.1 58.68L114.02 58.39L114.47 58.03L115.22 58.22L115.78 58.54L115.75 59.02L115.52 59.62L115.02 60.07L114.39 60.08L114.29 60.26L114.59 60.81L114.52 61.13L114.14 61.16L113.57 61.08L113.36 61.45L113 61.85L113 61.86ZM115.53 60.24L115.4 60.9L115.08 60.6L115.53 60.24ZM113.17 62.2L113.51 62.03L113.99 62.06L113.92 62.39L113.5 62.27L113.15 62.44L113.17 62.2ZM111.46 61.1L111.55 62.01L111.88 62.08L112.16 62.24L112.56 61.97L112.93 62.19L113.07 62.15L112.95 62.57L112.5 62.92L112.29 63.29L112.25 63.15L112.37 62.73L111.93 62.84L111.23 62.56L110.74 61.91L110.72 61.52L111.05 61.59L110.97 61.3L111.32 61.13L111.46 61.09L111.46 61.1ZM107.17 59.36L106.94 59.11L106.18 58.3L105.53 57.93L105.65 57.51L105.89 57.52L106.23 56.73L105.94 55.95L105.46 55.93L105.29 55.58L106 55L106.8 55.1L106.69 54.66L107.01 54.11L106.74 53.71L107.03 53.02L107.26 53.03L107.38 53.47L107.65 53.01L107.31 52.32L107.89 52.16L108.06 52.51L108.43 52.72L108.55 53.15L109.22 53.05L109.2 52.67L109.89 52.33L109.98 52.38L109.99 53L109.55 53.12L109.54 53.36L109.96 53.48L110.23 53.88L110.33 53.69L110.23 53.02L110.43 52.89L110.38 52.12L110.67 52.04L110.99 52.35L111.46 52.38L112.26 52.71L112.56 53.25L112.29 53.71L111.95 53.88L112.17 54.13L112.23 54.66L112.35 55.1L112.91 55.42L113.29 55.39L113.49 56.12L113.09 56.38L112.74 56.55L112.61 56.35L112.37 56.34L112.31 55.81L111.79 55.64L111.36 55.75L111.27 56.32L110.9 56.96L110.33 56.88L110.2 56.68L109.62 56.84L109.69 57.13L108.5 57.06L108.29 57.43L108.51 57.68L108.3 58.05L107.86 58.17L107.65 58.53L107.83 58.64L107.99 59.22L107.74 59.45L107.17 59.36ZM109.77 60.62L109.48 60.69L109.32 60.11L109.77 60.62ZM110.91 59.92C110.87 60.02 111.04 60.42 111.11 60.42L110.53 60.8L110.03 61.01L110.05 60.77L110.45 60.51L110.91 59.92ZM110.24 57.69L110.63 58.28L111.05 58.4L110.96 59.21L110.84 59.63L110.24 60.02L109.72 59.85L109.55 59.51L109.24 59.2L109.04 58.47L109.08 57.76L109.39 57.45L110.24 57.69ZM111.12 60.41C111.12 60.42 111.11 60.42 111.11 60.42L111.12 60.41ZM114.8 52.57L115.14 52.4L115.7 52.72L115.17 52.79L114.8 52.57ZM108.92 52.51L108.4 51.71L108.16 51.7L108.08 51.41L108.66 51.25L109.17 50.81L109.54 51.02L109.67 51.22L110.59 51.13L111.14 51.45L111.82 51.34L112.41 50.95L112.96 50.65L113.47 50.82L114.28 50.92L115.3 50.65L115.29 50.89L114.54 51.32L114.37 51.83L114.17 51.96L113.99 52.48L113.05 53.04L112.72 52.97L112.46 52.58L112 52.31L111.57 52.19L111.07 51.78L110.65 51.66L110.61 51.51L109.51 51.49L109.2 51.81L108.92 52.51ZM109.53 51.88L110.12 51.72L110.49 51.93L110.24 52.16L109.6 52.4L109.27 52.34L109.53 51.88ZM111.1 57.69L111.59 57.48L111.96 56.84L111.77 57.59L111.56 57.96L111.1 57.69ZM113.17 62.2L113.17 62.2L113.17 62.2ZM110.91 59.92L110.91 59.92L110.91 59.92ZM108.92 52.51L108.92 52.51L108.92 52.51Z" />
						<path id="Layer" fill-rule="evenodd" class="shp2" d="M175.09 22.52L175.44 21.49L176.28 21.12L176.64 20.71L176.44 19.98L176.47 19.51L175.69 18.93L175.24 18.43L175.09 17.85L174.96 16.79L174.66 16.25L173.64 15.67L173.01 15.91L172.9 16.1L172.48 15.98L171.88 15.51L171.31 15.43L171.15 15.71L170.46 16.05L170.08 16.07L170.05 16.55L169.65 16.81L168.86 17.96L168.62 18.8L168.54 19.37L168.2 19.54L167.57 19.55L167.11 19.28L166.53 19.44L166.14 19.46L165.55 19.85L165.05 19.44L164.53 18.41L164.07 18.15L162.61 18.54L161.5 17.9L161.02 17.25L160.97 16.48L161.05 15.92L160.51 14.5L160.46 13.74L160.05 13.38L159.52 13.44L159.17 13.85L159.04 14.27L158.81 14.26L158.67 14.06L158.47 14.19L158.24 14.18L157.63 13.95L157.18 13.44L156.91 13.91L157.18 14.3L157 14.82L156.53 14.79L156.01 15.47L156.07 16L155.75 16.55L155.67 16.26L155.34 16.19L155.23 15.76L154.72 15.35L154.48 14.71L153.75 14.05L153.04 14.01L152.3 13.58L151.91 13.61L151.91 14.46L151.66 14.69L151.5 14.97L151.06 15.08L151.07 15.7L150.49 15.86L150.16 15.79L150.13 15.41L149.74 14.81L149.06 14.92L148.21 15.53L147.73 15.5L147.23 15.95L146.74 16.16L146.35 16.19L145.71 17.29L145.83 17.72L145.68 18.62L145.18 19.07L144 19.62L142.65 20.44L142.39 20.9L141.8 21.06L140.86 20.76L139.86 20.8L139.59 21.26L139.75 21.84L139.32 22.58L138.67 23.06L137.75 24.01L137.11 25.12L135.11 26.67L134.79 27.22L134.76 27.69L134.32 28.67L133.53 28.95L132.75 28.38L132.21 27.83L131.5 27.78L130.41 28.39L129.59 29.39L129.08 30.69L128.52 32.09L127.9 32.72L127.81 33.52L127.31 34.59L126.59 35.4L126.06 36.32L126.59 37.12L126.89 38.52L126.38 38.97L125.95 39.7L124.63 39.43L124.41 39.81L124.34 40.99L123.89 42.21L123.99 42.88L123.19 43.4L122.93 43.87L122.53 44.13L121.73 43.79L121.39 43.96L121.4 44.58L120.92 44.56L120.47 44.91L120.47 45.77L119.71 47.29L119.16 47.59L119.15 46.97L118.98 46.63L119.27 46.55L119.1 46.21L118.5 45.98L118.35 45.16L118.42 44.83L118.41 44.21L118.72 43.9L118.95 43.29L119.49 42.99L119.33 42.41L118.8 42.47L118.54 42.93L118.65 43.37L118.36 43.45L118.09 43.29L117.98 43.47L117.69 43.55L117.71 43.93L117.94 44.18L117.86 44.75L117.35 45.19L116.38 45.37L116.49 45.19L116.33 44.61L115.99 44.78L116.07 45.07L116 45.4L115.43 45.31L115.41 44.93L115.66 44.71L115.38 44.55L115.3 44.26L115.49 43.51L115.35 42.69L115.18 42.34L114.96 42.71L115.17 43.2L115.28 43.88L115.03 44.1L115.13 44.77L114.88 45L114.45 44.87L113.92 44.94L113.8 45.36L113.42 45.38L113.4 45.62L112.53 45.86L112.1 45.11L112.2 45.79L112.03 46.07L110.72 46.42L110.45 46.26L110.57 45.84L110.48 45.79L110.18 45.86L110 45.76L109.27 45.95L108.79 45.92L108.66 45.73L108.32 45.9L108.23 44.98L109.66 44.21L109.54 43.78L109.27 43.62L109.18 44.18L108.8 44.21L108.64 43.63L108.88 43.64L108.95 43.31L108.24 42.41L107.91 41.49L107.5 41.13L107.44 39.76L107.54 39.79L107.52 39.72L107.88 39.63L108.09 39.26L108.46 39.47L108.63 39.81L108.96 39.88L109.42 41.01L109.62 40.87L109.56 40.35L109.94 40.32L110.4 40.59L110.34 40.06L109.68 39.92L109.33 40.09L109.43 39.29L109.81 39.26L110.12 38.95L110 38.51L110.39 38.49L110.05 37.8L109.59 38.15L109.58 38.39L109.1 38.36L109.02 38.07L108.72 38.39L108.45 37.37L108.53 36.8L109.31 36.52L109.69 36.49L109.52 37L109.82 36.69L110.15 36.76L110.5 37.44L110.71 37.08L111.05 36.91L111.52 37.17L111.49 36.79L110.84 36.42L110.62 36.17L111.02 35.9L111.3 36.06L111.99 35.72L111.63 35.27L111.96 35.34L112.56 34.95L112.84 35.11L112.61 35.71L112.82 36.2L112.85 35.73L113.17 35.17L113.84 35.07L114.23 35.05L113.8 34.92L113.34 34.66L112.2 34.5L111.84 34.9L111.37 34.87L110.68 35.21L110.49 35.11L110.94 34.75L110.88 34.23L111.23 34.06L110.91 33.75L110.92 33.51L111.64 33.56L111.76 33.13L112.05 33.06L111.7 32.61L110.62 32.97L110.5 32.53L110.64 31.88L110.9 32.27L111.19 32.19L111.41 31.83L111.9 31.62L111.62 31.46L111.33 31.53L110.91 31.41L110.83 31.12L111.08 30.9L111.16 30.33L111.26 30.39L111.52 30.78L111.8 30.95L112.52 30.99L112.74 31.24L113.35 31.47L113.67 31.77L113.77 32.45L114.02 32.22L114.75 32.03L115.16 32.39L114.98 32.9L114.6 32.92L114.49 33.11L115.05 33.43L115.45 33.17L115.37 32.87L115.8 32.76L116.56 32.95L117.05 32.74L116.95 32.06L117.25 31.75L116.56 32.09L116.49 32.42L116.2 32.49L115.79 32.14L116.18 32.11L116.38 31.98L116.15 31.73L115.38 31.78L115.01 31.56L115.08 31.24L114.66 31.12L114.5 31.39L114.02 31.36L113.89 31.16L113.48 30.81L112.69 30.47L112.31 30.5L111.75 30.18L111.73 29.8L111.65 29.51L111.66 29.27L111.9 29.28L112.43 29.22L112.15 29.06L111.89 28.66L112 28.48L112.13 28.68L112.37 28.69L113.01 29.06L113.69 28.96L113.04 28.59L112.66 28.61L112.34 28.31L112.83 28.1L112.21 27.25L112.32 27.07L112.93 27.29L113.46 27.23L113.59 27.43L114.1 27.6L114.63 28.4L114.96 28.46L115.55 28.93L116.28 28.73L115.91 28.52L115.62 28.6L114.88 28.17L114.58 27.63L114.47 27.52L115.03 27.51L115 27.13L114.69 26.83L115 26.89L115.37 27.11L115.07 26.56L115.8 26.37L116.14 27.06L116.39 26.83L116.37 26.45L116.88 26.63L117.15 27.02L116.77 27.67L116.85 27.96L117.33 27.99L117.3 27.61L117.7 27.34L117.31 26.75L117.01 26.21L116.32 25.69L116.33 25.45L116.81 25.48L116.94 25.68L117.33 25.65L117.54 26.14L117.92 26.12L118.11 26.22L118.16 26.99L118.57 27.35L119.06 27.14L119.96 27.29L120.3 27.12L120.02 26.96L119.22 26.86L119.08 26.66L119.61 26.6L119.63 26.36L118.64 26.16L118.48 25.58L118.92 25.46L119.04 25.04L119.33 24.96L119.5 25.3L119.96 25.57L120.17 26.06L120.56 26.03L120.78 27.14L121.26 27.79L121.63 28.01L121.56 27.71L121.24 27.41L120.99 26.77L120.97 26.66L121.2 26.64L121.34 26.26L121.52 26.71L121.98 26.98L121.86 27.4L122.31 27.9L122.47 27.63L122.24 27.37L122.55 27.06L121.9 26.69L121.51 26.09L121.71 25.96L122.08 26.17L122.16 26.46L122.5 26.29L122.92 26.29L123.08 26.38L123.71 26.13L123.61 25.72L123.68 25.75L123.95 26.14L124.91 25.96L124.36 25.64L124.46 25.46L124.98 25.63L125.38 25.37L125.75 25.59L125.8 25.93L125.99 25.59L126.32 25.66L126.48 25.38L126.21 25.22L125.59 25.23L125.6 25L126.28 24.89L126.71 24.78L127.07 24.37L127.09 24.13L127.71 24.12L127.98 23.66L128.31 23.73L128.86 24.05L128.93 23.72L129.18 23.5L129.47 23.42L129.54 23.09L130 23.35L130.29 23.28L130.46 23.62L130.34 24.04L130.71 24.25L131.11 23.99L131.59 24.02L131.23 23.57L131.34 23.39L131.83 23.18L132.53 23.46L132.73 23.33L132.5 22.98L132.86 22.82L132.9 22.81L133.38 22.84L133.49 22.66L133.82 22.72L134.19 22.94L134.82 22.69L135.15 22.76L135.66 22.31L135.47 22.2L135.08 22.47L134.8 22.31L134.83 21.83L135.09 21.37L134.91 21.26L135.12 20.89L135.36 20.91L135.7 21.6L135.86 21.32L135.88 21.08L135.56 20.78L135.77 20.41L136.01 20.42L136.13 20.86L136.31 20.97L136.38 20.64L136.36 20.25L136.5 20.22L136.66 19.94L137.01 19.77L137.19 19.88L137.31 20.31L137.52 19.94L137.35 19.6L137.51 19.32L137.05 19.06L136.97 18.77L137.7 18.57L138.35 18.94L138.43 19.23L138.8 19.45L138.9 19.26L139.34 19.15L138.85 19.11L138.63 18.86L138.7 18.53L138.16 17.97L137.93 17.72L138.28 17.55L138.44 17.28L138.52 17.57L138.85 17.64L139.23 17.61L138.95 17.45L139.02 17.12L139.31 17.04L139.2 16.61L139.49 16.53L139.53 16.68L139.94 17.03L140.14 16.9L140.02 16.47L140.16 16.43L140.3 16.63L140.63 16.69L140.56 16.17L140.3 15.77L140.5 15.64L140.87 15.85L141.58 15.89L141.66 16.18L141.7 16.19L141.8 16.39L142.07 16.21L142.14 16.21L142.18 16.14L142.2 16.13L142.19 16.12L142.35 15.84L143.05 16.12L143.44 16.1L143.71 16.26L144.15 17L144.31 16.72L144.14 16.38L144.26 15.96L143.84 15.84L143.72 15.4L143.19 15.46L142.83 15.01L142.99 14.74L143.62 14.73L144.08 14.99L143.87 14.5L144.3 14.39L144.49 14.49L144.59 15.17L144.87 15.33L145.08 15.82L145.29 15.45L144.9 14.85L144.84 14.32L145.2 13.92L145.9 14.2L145.87 13.81L145.5 13.6L144.72 13.89L144.29 13.77L144.79 13.56L144.67 13.12L145.12 12.77L145.49 12.98L145.57 13.27L146.55 13.71L147.04 13.5L146.73 12.96L146.18 12.64L146.02 12.06L146.66 11.81L146.94 11.97L146.74 12.1L146.76 12.48L147.19 12.6L147.77 12.45L147.87 13.12L147.61 13.58L147.58 14.06L147.83 13.84L147.95 13.41L148.3 13.24L148.48 13.35L148.51 12.87L148.3 12.39L148.58 12.54L148.84 12.94L149.19 12.77L149.11 12.48L149.57 12.75L149.65 13.04L150.07 13.16L149.95 13.58L150.03 13.87L150.18 13.84L150.64 13.25L151.13 13.04L151.29 12.76L151.01 12.6L150.44 12.52L150.27 12.18L149.09 11.87L148.78 11.56L148.8 11.55L149.46 11.34L149.78 11.53L150.08 11.45L150.09 11.21L150.58 11L150.82 11.07L150.77 11.11L151.01 11.14L151.03 11.51L151.36 11.57L151.32 11.43L151.48 11.15L151.85 11.37L152.14 11.29L151.97 10.94L152.36 10.92L152.73 11.13L152.66 10.6L152.39 10.44L152.35 10.3L153.13 10.01L153.55 10.13L153.82 10.53L154.23 10.03L154.2 9.65L154.67 9.06L154.69 9.05L155.03 9.1L154.93 9.45L155.06 9.65L154.83 10.26L155.08 10.89L155.07 10.27L155.5 10.39L155.81 10.7L155.73 10.41L155.46 10.25L155.08 9.41L155.33 9.19L155.36 9.2L155.8 9.45L155.88 9.33L156.08 9.38L156.21 9.58L156.01 10.57L156.37 11.02L156.18 11.77L156.78 11.37L156.8 10.9L156.42 10.07L156.69 9.61L156.77 9.04L157.42 8.55L157.43 8.55L157.53 8.6L157.74 8.55L158.04 8.54L158.07 8.57L157.95 8.72L158.19 8.71L158.27 8.79L158.08 9.54L157.63 9.9L157.45 10.41L158.09 10.17L158.16 9.84L158.48 9.28L159.51 8.77L159.99 8.8L159.46 10.35L158.72 10.78L158.6 11.2L158.07 11.26L157.91 11.54L158.73 11.4L159.04 11.08L159.67 10.83L159.75 11.13L160.07 11.43L160.15 10.86L159.79 10.41L160.01 10.04L160.68 9.94L160.84 9.66L161.37 9.6L161.15 10.21L161.68 10.14L161.98 9.83L162.1 10.26L162.46 10.71L162.41 11.43L162.53 11.86L162.84 11.55L162.73 10.87L163 10.41L163.54 10.11L162.99 9.79L162.96 9.41L162.59 9.2L162.41 8.23L162.52 8.05L163.04 8.22L163.62 8.07L163.65 8.45L164.08 8.33L164.27 8.44L164.69 9.42L165.61 9.95L165.87 10.35L165.44 10.46L165.66 10.71L165.47 11.47L165.97 11.88L166.27 11.8L166.19 11.51L165.92 11.11L166.36 10.99L166.21 10.41L166.51 10.1L167.13 10.09L167 9.89L167.11 9.7L167.44 9.77L167.98 9.47L168.17 9.58L168.47 10.12L168.76 10.04L168.78 9.8L168.94 9.53L169.37 9.41L169.49 9.85L169.69 9.71L169.81 9.29L169.47 8.6L169.49 8.37L169.78 8.29L169.95 8.63L169.97 9.02L170.32 8.85L170.55 8.24L170.93 8.21L171.25 8.52L171.36 8.95L171.1 9.42L171.53 9.3L171.71 8.79L171.95 8.8L172.1 9.38L172.47 9.6L172.31 9.87L172.17 9.91L171.81 10.32L170.64 10.63L170.56 11.2L170.22 11.37L170.04 11.88L169.3 12.31L169.32 12.7L169.06 13.16L169.44 13.13L170.46 12.86L170.82 12.45L170.89 12.12L171.39 11.68L172.52 11.22L172.84 10.67L174.08 10.03L174.26 10.13L174.29 10.51L173.86 11.25L173.42 11.37L173.31 11.55L173.63 11.86L172.78 12.47L172.51 12.93L172.9 12.91L173.1 12.78L173.48 12.75L173.65 13.1L173.85 12.97L173.93 12.4L174.32 12.37L174.33 12.14L174.49 11.86L174.87 11.84L175.09 11.47L175.42 11.53L175.53 11.35L175.45 11.06L175.08 10.85L175.09 10.61L175.4 10.3L175.78 10.27L175.89 10.95L176.07 11.05L176.42 10.88L176.35 10.35L176.46 10.17L177.04 10.01L177.16 10.45L177.44 10.61L177.87 10.49L177.8 10.82L177.5 11.14L177.58 11.43L178.09 11.6L178.02 11.93L177.32 12.51L176.77 12.19L176.63 11.99L176.21 11.87L176.2 12.11L176.61 12.46L176.5 12.65L176.06 12.77L175.86 12.9L176.09 13.15L176.76 13.04L176.95 13.15L176.93 13.39L176.48 13.74L176.06 13.62L175.22 14L175.94 14.04L176.25 14.35L176.45 14.22L176.73 14.38L176.65 14.94L177.03 14.92L177.19 14.64L177.29 13.84L177.39 13.65L177.72 13.72L178.19 13.13L178.58 13.1L179.04 13.37L179.34 13.91L179.18 14.19L178.8 14.21L178.73 14.54L178.91 14.65L179.26 14.48L179.44 14.59L179.23 14.96L179.42 15.06L180.01 14.67L180.38 14.88L180.42 15.03L180.78 15.48L180.47 15.79L179.94 15.86L179.93 16.09L180.2 16.25L180.84 16.01L181.12 16.17L181.4 16.95L181.92 17.12L182.24 17.42L182.22 17.66L182.45 17.91L182.39 18L181.81 18.16L180.72 17.91L179.78 18.47L179.03 18.28L178.16 17.66L177.75 17.3L177.14 17.07L176.51 16.46L176.36 16.5L176.43 17.03L176.93 17.44L177.19 17.84L177.61 17.96L177.74 18.16L177.61 18.82L177.79 18.92L177.57 19.53L177.45 19.95L177.7 19.73L178.17 19.75L178.15 20.23L178.28 20.43L178.69 19.93L178.76 19.6L179.03 19.76L178.97 20.09L179.04 20.38L179.2 20.1L179.44 20.12L179.63 20.22L179.84 20.71L179.93 20.77L179.66 21.23L179.17 21.44L178.82 20.99L178.45 20.77L178.17 21.47L177.53 21.72L176.92 21.49L175.9 21.77L175.42 22.59L175.09 22.53L175.09 22.52ZM154.69 9.05L154.68 9.05L154.74 8.1L155.38 8.47L155.6 8.11L156.15 8.43L156.64 8.22L156.65 8.84L156.02 9.08L155.88 9.33L155.36 9.2L155.25 9.13L155.03 9.1L155.05 9.03L154.69 9.05ZM150.82 11.07L151.28 10.66L151.34 11.19L151.01 11.14L151 11.12L150.82 11.07ZM148.8 11.55L148.64 11.6L147.93 11.56L147.53 11.82L147.21 11.52L147.57 11.11L146.59 11.53L146.22 11.31L146.63 10.81L147.01 10.79L147.19 10.28L147.77 10.12L148.04 9.66L149.13 9.06L148.1 10.19L147.93 10.7L148.67 10.27L149.41 10.69L149.4 10.07L149.62 9.71L149.68 10.23L150.01 11.16L149.46 11.34L149.32 11.26L148.8 11.55ZM132.5 22.98L132.41 23.03L132.15 22.63L132.55 22.37L133.25 22.65L132.86 22.82L132.47 22.93L132.5 22.98ZM122.92 26.29L122.52 26.06L122.14 26.08L121.92 25.83L122.51 25.44L122.97 25.7L122.53 25.82L122.75 26.07L123.08 26.14L123.12 26.28L122.92 26.29ZM122.98 25.7L123.23 25.48L123.6 25.69L123.61 25.72L123.26 25.63L122.98 25.7ZM120.85 25.96L121.15 25.64L121.16 25.64L121.34 25.75L121.27 26.08L120.89 26.18L120.85 25.96ZM121.16 25.64L121.15 25.64L121.02 25.68L120.87 24.86L121.34 25.13L121.31 25.6L121.16 25.64ZM114.04 27.12L114.06 26.84L114.06 26.83L113.73 26.98L113.28 26.89L113.21 26.59L113.55 26.42L113.35 25.7L113.42 25.37L113.66 25.38L113.82 25.97L113.64 26.48L114.03 26.45L114.11 25.89L114.85 26.31L114.67 26.83L114.68 26.83L114.42 27.48L114.04 27.12ZM114.04 27.12L114.03 27.31L113.57 27.04L113.73 26.98L113.94 27.02L114.04 27.12ZM107.44 39.76L107.12 39.67L107.42 39.36L107.52 39.72L107.44 39.74L107.44 39.76ZM125.77 26.4L125.58 26.72L125.65 27.25L124.92 27.44L125.87 27.5L126.09 27.13L126.52 27.01L126.99 27.28L127.14 27.86L127.6 28.13L127.87 27.67L128.31 27.55L127.95 27.1L129.03 26.74L129.4 26.95L129.74 26.78L129.2 26.22L129.36 25.95L130.28 25.86L130 25.7L129.59 25.34L129.3 25.42L129.11 25.31L128.7 25.81L128.06 26.06L128.49 26.18L128.28 26.54L127.11 26.85L126.51 26.62L125.79 26.58L125.77 26.4ZM125.73 26.05L125.77 26.4L125.85 26.26L125.8 25.93L125.73 26.05ZM108.19 36.11L108.31 36.55L107.91 36.81L107.86 36.05L108.19 36.11ZM109.07 35.88L108.83 35.87L109.28 35.51L109.07 35.88ZM108.57 35.47L108.25 35.16L108.92 35.06L108.57 35.47ZM108.95 32.25L109.48 32.19L109.16 32.74L108.95 32.25ZM109.13 33.21L108.84 33.29L108.76 33L109.13 33.21ZM109.52 34.67L109.07 35.02L109.42 33.99L109.52 34.67ZM108.33 33.74L108.9 33.82L108.4 34.27L108.33 33.74ZM109.77 31.25L109.85 31.54L109.42 31.66L109.25 31.31L109.77 31.25ZM111.91 28.42L111.39 28.25L111.51 27.83L111.91 28.42ZM112.39 27.59L112.04 27.76L112.08 27.05L112.39 27.59ZM114.42 27.48L114.47 27.52L114.4 27.52L114.42 27.48ZM120.89 26.18L120.97 26.66L120.81 26.67L120.7 26.23L120.89 26.18ZM121.34 26.26L121.27 26.08L121.43 26.04L121.34 26.26ZM122.36 24.85L123.47 24.64L123.59 25.07L122.91 25.17L122.36 24.85ZM130.93 23.03L130.47 22.77L131.05 22.61L131.75 22.89L132.23 22.92L131.3 23.25L130.96 23.42L130.93 23.03ZM134.51 20.05L134.64 20.25L134.48 20.53L134.09 20.55L134.07 20.17L134.51 20.05ZM136.31 19.49L136.72 19.85L135.9 19.99L135.96 19.66L136.31 19.49ZM136.9 18.48L136.72 18.99L135.98 19.43L136.17 18.67L136.9 18.48ZM142.19 16.12L142.18 16.14L142.07 16.21L141.7 16.19L141.63 16.04L141.97 15.87L142.19 16.12ZM140.23 12.29L139.98 12.51L139.81 12.17L140.2 11.91L140.23 12.29ZM140.76 11.37L141.03 10.91L141.92 10.44L141.64 11.13L140.76 11.37ZM142.19 10.59L142.54 10.43L142.67 10.62L142.22 10.98L142.19 10.59ZM143.94 10.99L142.74 11.15L143.4 10.43L144.25 10.67L143.94 10.99ZM145.67 10.14L146.21 9.84L146.46 10.47L145.67 10.14ZM145.68 11.62L145.37 11.07L144.46 11.16L144.82 10.75L146.21 10.69L145.68 11.62ZM147.69 9.21L147.2 10.04L146.45 9.85L146.28 9.51L147.1 9.37L146.73 9.15L145.82 9.24L145.79 8.86L146.24 8.5L146.65 8.86L147.38 8.67L147.4 8.43L147.87 8.46L147.69 9.21ZM148.27 9.05L148.1 8.71L148.52 7.97L149.49 7.79L149.76 7.33L150.57 7.43L150.39 7.94L149.72 8.04L149.36 8.45L148.27 9.06L148.27 9.05ZM149.83 9.34L150.31 9.37L150.61 9.91L150.39 10.28L149.91 9.63L149.83 9.34ZM153.68 9.71L153.56 10.13L152.95 9.91L152.61 10.08L152.11 9.67L151.69 10.16L151.51 10.06L151.77 9.6L151.46 9.29L152.15 8.95L151.74 8.6L152.24 8.15L152.89 8.52L152.5 7.93L153.09 7.53L153.3 8.02L153.53 7.42L154.22 7.93L154.1 8.36L154.41 8.66L153.93 9.49L153.68 9.71ZM158.35 6.13L158.91 6.21L158.22 6.55L158.35 6.13ZM157.18 6.44L157.93 6.63L157.63 6.94C157.56 6.94 157.5 6.94 157.43 6.95C157.37 6.95 157.31 6.95 157.24 6.96C157.18 6.96 157.11 6.97 157.05 6.97C156.99 6.98 156.92 6.98 156.86 6.99L157.18 6.44ZM158.19 8.71L158.07 8.57L158.42 8.13L158.33 8.7L158.19 8.71ZM157.82 8.53L157.74 8.55L157.43 8.55L157.15 8.39L156.88 7.37L157.99 7.15L158.02 7.54L158.53 7.71L158.52 7.95L157.99 8.01L157.81 8.52L157.82 8.53ZM159.51 8.15L159.07 7.65L159.33 7.19L159.52 6.44L159.91 6.41L159.63 7.11L159.87 7.74L159.81 8.07L159.51 8.15ZM160.61 9.03L160.29 8.72L160.68 7.84L161.21 7.78L161.46 8.41L161.01 8.77L161.07 9.29L160.67 9.56L160.61 9.03ZM165.34 9.79L164.99 9.34L164.59 8.74L165.13 8.68L165.68 9L165.7 9.38L165.35 9.79L165.34 9.79ZM166.02 8.83L167.28 8.57L167.15 9.23L166.51 9.48L166.21 9.79L166.02 8.83ZM165.3 8.16L164.67 7.55L164.75 6.99L165.16 7.34L165.69 7.28L165.81 7.72L166.35 7.41L166.52 7.76L167.69 7.45L167.62 7.78L165.72 8.28L165.3 8.16ZM168.54 8.31L168.88 9L168.43 9.35L167.62 9.25L167.89 8.79L167.73 8.21L168.54 8.31ZM169.38 7.93L169.14 7.91L169.13 7.29L169.64 7.47L169.72 7.76L169.38 7.93ZM170.8 7.4L171.19 7.13L171.56 7.35L171.17 7.61L170.8 7.4ZM171.74 8.31L171.9 8.03L172.2 7.96L172.37 8.3L172.66 8.22L172.96 7.91L173.13 8.25L173.45 8.55L172.96 8.76L173.52 9.08L173.01 9.53L172.49 9.35L172.15 8.67L171.74 8.31ZM109.78 31.25L109.77 31.25L109.77 31.25L109.78 31.25ZM111.51 27.83L111.51 27.83L111.51 27.83ZM114.69 26.83L114.68 26.83L114.68 26.83L114.69 26.83ZM114.68 26.83L114.68 26.83L114.68 26.83ZM121.31 25.6L121.31 25.6L121.31 25.6ZM122.98 25.7L122.97 25.7L122.98 25.7ZM140.2 11.91L140.2 11.91L140.2 11.91Z" />
						<path id="Layer" fill-rule="evenodd" class="shp3" d="M119.37 46.6L119.54 46.94L119.55 47.56L120.09 47.26L120.85 45.74L120.85 44.88L121.31 44.53L121.78 44.55L121.77 43.93L122.12 43.76L122.91 44.1L123.31 43.84L123.58 43.37L124.37 42.85L124.27 42.18L124.73 40.96L124.8 39.78L125.01 39.41L126.33 39.68L126.76 38.94L127.27 38.49L126.97 37.09L126.44 36.3L126.98 35.38L127.69 34.56L128.19 33.5L128.29 32.69L128.9 32.06L129.46 30.67L129.97 29.36L130.79 28.36L131.88 27.76L132.6 27.8L133.14 28.36L133.91 28.93L134.7 28.64L135.14 27.67L135.17 27.19L135.49 26.64L137.49 25.09L138.13 23.99L139.05 23.04L139.7 22.55L140.13 21.82L139.97 21.24L140.24 20.77L141.25 20.74L142.19 21.03L142.77 20.88L143.03 20.42L144.38 19.59L145.56 19.05L146.06 18.6L146.21 17.7L146.09 17.27L146.73 16.16L147.12 16.14L147.61 15.93L148.11 15.48L148.59 15.51L149.44 14.89L150.12 14.79L150.51 15.38L150.54 15.77L150.87 15.83L151.45 15.68L151.44 15.06L151.88 14.94L152.04 14.66L152.29 14.44L152.29 13.58L152.68 13.56L153.42 13.98L154.13 14.03L154.86 14.69L155.1 15.33L155.61 15.74L155.72 16.17L156.05 16.24L156.13 16.53L156.45 15.98L156.39 15.45L156.91 14.77L157.38 14.79L157.56 14.28L157.29 13.88L157.56 13.42L158.01 13.93L158.62 14.15L158.85 14.17L158.96 14.84L159.44 15.49L159.69 16.98L160.07 17.81L160.94 18.44L161.2 18.84L161.52 19.14L161.66 19.96L161.58 20.53L161.77 20.63L162.01 20.65L162.15 21.47L162.52 21.68L162.49 22.15L162.04 22.51L161.7 23.3L161.2 23.75L161.02 24.26L161.67 24.63L161.54 25.29L161.14 25.55L160.85 26.25L160.92 26.78L160.62 27.72L160.32 28.03L160.2 28.45L159.66 29.37L159.26 29.64L159.11 30.53L159.47 30.98L159.4 32.17L159.51 32.61L159.19 33.16L158.81 33.18L158.35 32.92L158.28 32.39L157.52 32.44L157.25 32.04L156.85 32.31L156.59 31.91L156.62 31.43L155.98 31.68L156.03 30.97L155.64 30.99L155.28 31.4L154.88 31.66L154.46 31.54L154.44 31.16L154.21 30.91L154.17 31.62L154.34 31.96L153.76 32.12L153.39 31.91L152.91 31.88L153.26 32.33L153.1 32.61L152.87 32.59L152.88 32.35L152.71 32.01L152.42 32.09L152.39 32.56L152.67 32.72L152.78 33.16L152.44 33.33L151.68 34L151.56 34.42L150.95 34.19L151.2 34.83L151.52 35.13L151.54 35.51L151.21 35.45L151.28 35.98L151.65 36.19L150.81 36.57L150.53 36.41L149.9 36.66L149.51 37.54L148.56 38.1L148.29 37.94L147.56 38.14L147.5 37.61L147.14 38.02L147.05 38.58L146.29 38.63L145.74 38.93L145.47 38.77L145.59 38.35L145.22 38.14L144.76 38.49L144.44 39.05L143.91 39.11L143.89 38.73L143.7 38.62L143.29 39.12L143.05 39.11L143.03 38.72L142.45 38.88L142.05 39.14L142.36 39.45L142.2 39.72L141.24 39.9L140.83 39.54L140.58 39.77L140.49 40.33L139.8 40.67L139.01 40.34L138.69 40.04L138.82 41.09L138.54 41.79L138.34 41.92L138.11 42.53L137.59 43.21L137.75 43.79L137.39 44.2L137.27 43.76L137.08 43.9L136.83 44.74L136.2 44.99L136.46 45.38L136.3 45.66L136.06 45.65L136.02 46.36L135.38 46.61L135.5 47.04L135.56 47.57L135.88 47.88L135.61 48.34L136 48.31L136.01 48.93L136.79 48.64L137 49.13L136.82 49.65L137.28 50.77L137.03 50.99L137.5 51.88L137.29 52.25L137.48 52.98L136.78 53.55L135.76 53.83L135.31 54.18L134.77 54.05L134.85 53.91L135.58 53.72L135.79 53.35L135.24 53.03L134.53 53.35L134.1 52.87L133.98 52.43L133.82 52.71L133.54 52.55L133.46 52.26L133.05 51.9L132.71 52.07L132.29 51.95L132.21 51.66L131.57 51.91L131.31 51.51L130.83 51.48L130.72 51.67L131.41 52.18L131.49 52.47L131.74 52.25L132.39 52.62L132.56 52.97L133.06 53.38L133.07 54L133.55 54.03L133.77 54.28L134.39 54.27L134.52 54.41L134.53 54.46L134.55 54.44L134.84 54.77L134.96 55.21L134.78 55.72L134.25 55.78L133.88 55.57L133.05 55.95L132.77 55.79L133.13 55.38L133.05 55.09L132.71 55.26L132.64 55.59L132.27 55.38L131.68 55.53L131.33 55.94L131.12 55.45L130.96 55.73L130.52 55.85L130.48 55.7L130.2 55.54L129.71 55.75L130.03 56.06L130.22 56.78L129.3 56.25L129.88 56.95L129.72 57.23L129.12 57.62L129.41 58.4L128.8 58.17L128.35 57.67L128.36 58.29L127.82 58.59L128.16 59.28L127.49 59.38L127.59 60.06L126.95 60.3L126.59 60.71L126.76 61.14L126.66 61.24L126.28 61.26L125.26 62.39L125.08 62.91L125.07 62.91L124.35 63.73L123.43 64.05L123.36 63.52L123.01 63.07L122.29 63.03L121.48 62.31L121.6 61.89L120.99 62.52L120.19 62.19L119.34 62.81L119.46 63.24L119.25 63.61L118.52 63.8L117.98 63.25L116.56 62.93L116.1 62.66L115.98 62.22L116.53 61.92L116.98 60.71L116.63 60.26L116.8 59.75L116.54 59.35L116.79 59.12L117.49 59.41L118.23 58.97L118.37 58.31L117.65 58.27L117.46 57.54L117.63 57.03L117.28 56.58L117.56 55.88L117.63 54.7L117.55 54.4L117.65 53.6L117.33 53.3L117.27 52.77L117.56 52.69L117.97 52.19L118 51.71L118.31 51.4L118.98 51.29L119.05 50.97L118.84 50.48L119.09 50.25L118.91 50.15L118.6 50.46L118.76 51.04L118.1 50.91L118.51 50.41L118.53 50.17L118.26 49.78L118.69 49.04L118.66 48.66L119.16 47.59L119.36 46.6L119.37 46.6ZM126.76 61.14L127.28 60.61L127.29 60.37L127.83 60.07L127.95 60.5L127.43 61.19L126.68 61.86L126.1 62.63L125.4 63.21L124.95 63.57L124.87 63.28L125.08 62.91L125.66 62.75L126.44 61.61L126.84 61.35L126.76 61.14ZM134.77 54.05L134.55 54.44L134.52 54.41L134.45 54.17L134.43 53.81L134.55 53.99L134.77 54.05ZM134.29 53.6L134.41 53.49L134.43 53.81L134.29 53.6ZM134.41 53.49L134.4 53.41L134.53 53.35L134.54 53.37L134.41 53.49ZM118.04 50.38L117.73 50.69L117.46 50.53L117.67 50.17L118.04 50.38ZM134.85 57.96L135.02 58.31L134.58 58.42L134.61 57.95L134.85 57.96ZM133.51 60.27L134.1 60.11L134.56 60.38L134.54 60.61L134.03 60.44L133.59 60.56L133.51 60.27ZM129.71 63L129.67 62.85L130.16 62.64L130.47 62.33L130.23 62.31L130.2 61.31L130.43 61.32L130.57 60.66L131.15 60.51L131.61 60.15L132.1 59.94L132.65 60.26L133.03 60.24L133.2 60.58L132.91 60.66L132.66 60.88L132.26 61.15L132.47 61.63L132.46 61.87L131.82 62.12L131.57 62.34L130.75 62.48L130.49 62.71L130.63 62.91L130.37 63.13L129.71 62.99L129.71 63ZM133.51 60.27L133.51 60.27L133.51 60.27Z" />
						<path id="Layer" fill-rule="evenodd" class="shp1" d="M157.92 59.83C157.89 59.84 157.86 59.86 157.84 59.88L157.88 59.68L157.56 59.38L157.32 59.36L157.4 59.65L157.15 59.88L156.36 59.54L156.15 59.05L155.44 58.77L155.01 58.89L155.08 58.56L154.85 58.31L154.64 58.68L154.31 58.61L154.35 57.9L154.04 58.21L153.82 57.96L153.81 57.34L153.52 57.42L153.44 57.99L153.31 57.79L152.71 58.18L152.48 57.93L152.88 57.67L152.9 57.43L152.21 57.77L151.69 57.6L151.15 57.04L150.9 57.26L149.6 57.38L149.14 57.11L147.99 57.18L147.62 56.97L147.05 56.89L147.12 56.56L146.73 56.59L146.03 57.16L145.9 56.96L146.35 56.61L146.42 56.28L146.25 55.08L146.74 54.87L146.95 54.5L146.19 54.55L145.91 54.39L146.31 54.13L146.18 53.93L145.38 53.6L145.17 53.11L144.75 52.99L144.52 52.11L144.26 52.34L144.09 51.99L143.29 51.9L143.26 51.51L143.47 51.15L144.07 50.75L144.01 50.22L144.6 49.21L144.94 49.04L145.27 48.25L145.75 48.28L145.7 47.51L146.05 47.34L145.88 47L145.84 46L146.04 45.87L146.12 45.3L146.37 45.08L146.79 44.58L146.67 44.14L146.28 44.17L146.35 43.84L146.8 43.48L146.77 43.34L146.85 42.77L147.34 42.56L147.58 42.57L148.03 42.22L148.11 41.65L148.49 41.63L148.67 41.11L149.09 41.24L149.32 41.49L149.3 41.72L149.38 42.02L150 42.01L150.25 41.78L150.69 41.67L150.8 41.48L150.64 40.9L150.84 40.77L151.1 41.16L151.17 40.84L151.68 40.39L152.1 40.51L152.18 40.8L152.62 41.3L152.41 40.82L152.7 40.12L153.19 39.91L153.7 40.08L154.01 39.77L154.09 39.2L154.27 39.31L154.21 39.63L154.44 39.65L155.03 39.49L156.25 39.09L156.54 39.01L156.75 38.64L157.48 38.45L157.7 38.08L158.61 37.99L159.26 38.37L159.79 39.16L159.95 38.88L159.62 37.96L159.86 37.97L160.36 38.38L159.99 37.31L160.29 37.24L160.71 36.5L160.65 35.97L161.13 36L160.85 34.98L159.93 34.45L159.73 33.72L159.27 33.46L159.19 33.16L159.51 32.61L159.39 32.18L159.47 30.99L159.11 30.54L159.26 29.64L159.66 29.38L160.19 28.46L160.31 28.04L160.62 27.72L160.92 26.78L160.85 26.26L161.13 25.56L161.53 25.29L161.67 24.64L161.02 24.26L161.19 23.75L161.7 23.3L162.03 22.51L162.49 22.16L162.52 21.68L162.15 21.47L162 20.65L161.76 20.64L161.58 20.53L161.66 19.96L161.52 19.15L161.2 18.84L160.94 18.44L160.07 17.82L159.69 16.99L159.44 15.49L158.95 14.84L158.85 14.17L159.05 14.04L159.18 14.24L159.42 14.25L159.54 13.83L159.9 13.42L160.43 13.36L160.84 13.72L160.89 14.48L161.43 15.9L161.34 16.47L161.39 17.23L161.88 17.88L162.99 18.52L164.45 18.13L164.91 18.39L165.42 19.43L165.92 19.84L166.52 19.44L166.91 19.42L167.49 19.26L167.95 19.53L168.58 19.52L168.59 19.28L168.67 18.71L168.91 17.87L169.7 16.73L170.1 16.46L170.13 15.99L170.51 15.96L171.2 15.62L171.36 15.35L171.93 15.43L172.52 15.89L172.95 16.01L173.05 15.83L173.69 15.58L174.71 16.17L175.01 16.71L175.14 17.77L175.29 18.35L175.74 18.85L176.52 19.42L176.49 19.9L176.69 20.62L176.33 21.03L175.49 21.41L175 22.48L174.19 22.38L173.66 22.44L173.98 22.75L173.51 23.34L172.84 24.06L173 24.65L172.82 26.02L173.14 26.32L173.57 27.06L173.62 27.83L173.54 28.4L174.22 29.77L174.34 30.21L173.73 30.84L172.84 31.31L171.83 32.2L172.01 33.17L171.82 33.92L171.77 36.35L171.44 39.47L170.92 39.3L169.92 40.81L169.66 41.27L170.07 41.63L169.43 41.88L168.95 42.7L169.01 43.23L169.52 43.64L169.43 44.21L169.14 44.29L168.61 45.21L168.56 45.92L169.04 46.81L168.7 47.6L167.87 47.98L167.25 48.61L167.46 50.81L168 51.37L168.32 53.15L168.08 54L166.32 55.32L164.35 56.4L163.19 57.33L161.96 57.97L160.67 58.7L159.95 58.66L158.26 59.03L157.92 59.82L157.92 59.83ZM157.81 60.01L158.22 60.37C157.61 60.13 157.68 60 157.84 59.88L157.81 60.01ZM158.86 37.14L158.39 36.87L158.29 36.2L158.91 36.19L159.6 36.71L159.49 36.89L159.03 36.63L159.15 37.06L158.86 37.14ZM148.56 39.81L148.68 40.25L148.38 40.33L148.31 40.04L148.56 39.81ZM148.08 40.64L148.46 40.62L148.25 40.99L147.63 41L147.56 40.47L147.96 40.21L148.08 40.64ZM145.52 56.12L145.14 56.15L145.06 55.86L145.3 55.87L145.64 55.7L145.52 56.12ZM145.26 54.87L145.23 55.34L145.05 55.24L145.26 54.87ZM145.41 53.97L145.16 54.2L144.48 54.3L144.22 53.9L144.56 53.73L145.41 53.97ZM144.26 53.19L143.88 53.21L143.8 52.92L144.07 52.46L144.26 53.19ZM143.26 52.37L142.93 52.3L142.85 52.01L143.26 52.37ZM139.24 50.79L139.69 51.29L139.89 51.16L139.68 50.67L139.89 50.31L140.17 50.46L140.64 51.35L140.52 51.77L140.2 51.47L139.91 51.55L139.97 52.07L140.34 52.29L140.17 52.8L139.69 52.77L139.54 52.19L139.18 51.74L139.12 51.21L138.95 50.87L139.24 50.79ZM142.85 52.01L142.85 52.01L142.85 52.01Z" />
						<path id="Layer" fill-rule="evenodd" class="shp1" d="M149.84 71.02L148.8 70.91L148.75 70.14L148.39 69.69L148.43 68.98L147.96 68.09L147.68 67.93L147.71 67.46L147.5 66.97L147.14 67.38L146.87 67.22L146.49 66.38L145.82 66.25L144.82 66.28L144.49 66.22L144.65 65.94L145.67 64.81L145.7 64.33L145.03 64.44L144.81 64.81L144.48 64.74L144.21 63.72L144.21 62.87L144.58 62.22L144.95 62.43L145.77 62.29L145.31 62.03L145.07 62.01L144.85 61.76L145.76 60.19L146.3 59.89L147.25 59.95L147.48 60.2L147.78 59.88L148.35 59.96L148.76 60.32L149.12 59.92L149.2 60.21L150.03 60.69L150.11 60.98L150.73 60.97L150.61 60.53L150.72 60.35L150.95 60.6L151.16 60.23L151.35 60.95L151.78 61.08L152.08 61.62L153 62.15L153.52 63.18L155.4 64.39L155.6 64.26L155.58 64.73L155.52 64.83L155.32 64.96L154.69 65.21L154.13 65.74L153.74 65.77L152.49 67.51L152.43 70.17L152.16 70.63L151.57 70.79L151.4 71.3L150.71 71.64L149.84 71.02ZM144.63 60.65L144.56 60.98L144.05 60.8L144.17 60.38L144.63 60.65ZM142.68 60.39L142.31 60.18L141.84 60.15L141.71 59.95L142.66 60.01L143 59.84L143.11 59.65L143.39 59.81L143.5 60.25L143.97 60.51L143.89 61.08L143.66 60.83L143.13 60.89L142.69 61.01L142.68 60.39ZM143.47 61.58L144.12 61.95L143.99 62.61L143.6 62.64L143.31 61.86L143.47 61.58ZM139.91 62.85L140.09 62.95L140.4 62.64L140.24 62.05L139.93 61.75L140.09 61.47L140.47 61.45L140.63 61.17L140.41 60.92L140.74 60.99L140.84 60.8L141.07 61.06L141 61.38L141.44 61.27L141.67 61.28L142.11 61.17L142.24 61.36L142.93 61.88L143.14 62.37L143.31 62.71L143.29 62.95L143.15 62.99L142.83 62.69L141.85 63.1L141.15 62.82L140.41 63.26L140.25 63.53L139.72 63.6L139.59 63.4L139.91 62.85Z" />
						<path id="Layer" fill-rule="evenodd" class="shp2" d="M150.1 76.94L150.38 76.25L150.28 75.57L150.47 74.82L150.44 74.44L150.49 73.73L150.7 73.36L150.82 72.93L150.74 72.64L150.94 72.51L151.12 72L150.02 71.12L148.98 71.01L148.93 70.25L148.57 69.8L148.62 69.08L148.14 68.2L147.92 67.95L147.89 67.56L147.68 67.07L147.38 67.39L147.05 67.32L146.67 66.49L146.06 66.26L145.05 66.3L144.72 66.23L144.35 66.88L143.95 68L143.19 68.67L141.97 69.07L141.42 68.75L141.18 67.88L141.3 67.46L140.89 65.62L141.22 64.83L141.04 64.72L140.31 64.92L139.61 64.64L139.26 64.81L138.71 64.49L138.02 64.83L137.79 65.43L137.66 65.23L137.18 66.06L136.1 66.43L135.74 66.84L135.57 67.35L134.98 67.51L134.62 68.77L134.74 69.21L134.68 69.3L135.2 69.47L135.7 69.03L136.67 68.85L137.94 69.21L138.72 69.78L139.33 70.01L139.45 70.44L140.21 70.39L140.73 70.57L140.61 70.99L141.07 71.26L141.17 71.93L141.96 72.26L142.04 72.55L143.2 72.48L143.81 73.33L144.45 73.94L144.72 74.96L145.22 75.37L145.29 76.51L145.94 76.89L146.11 77.23L146.11 77.23L147.06 77.29L148.13 77.78L148.6 77.19L149.17 77.27L149.62 76.92L150.1 76.94Z" />
						<path id="Layer" fill-rule="evenodd" class="shp3" d="M135.79 76.33L136.24 75.35L136.73 75.14L136.65 74.85L136.33 74.55L136.6 74.09L136.34 73.69L135.31 73.34L134.91 72.75L134.71 71.4L133.77 71.11L133.73 70.96L134.13 70.7L134.35 70.09L134.69 69.3L135.2 69.48L135.71 69.03L136.68 68.85L137.95 69.21L138.72 69.78L139.33 70.01L139.45 70.45L140.22 70.4L140.73 70.57L140.61 70.99L141.07 71.26L141.18 71.93L141.97 72.27L142.05 72.56L143.2 72.48L143.82 73.33L144.45 73.94L144.72 74.96L145.23 75.37L145.3 76.52L145.95 76.89L146.12 77.23L145.14 77.65L145.4 78.05L145.13 78.51L144.09 78.4L143.14 78.96L142.72 78.84L142.2 79.53L142.59 80.12L142.27 80.68L141.81 80.41L141.78 80.02L141.27 79.85L140.71 80.39L139.97 79.96L139.82 80.86L139.36 80.59L138.59 80.64L138.16 79.9L137.07 79.65L136.4 79.75L136.29 79.08L136.7 78.58L136.96 77.49L136.59 77.28L136.3 76.5L135.79 76.33Z" />
						<path id="Layer" fill-rule="evenodd" class="shp1" d="M136.4 79.75L137.08 79.64L138.16 79.9L138.6 80.64L139.36 80.59L139.83 80.86L139.98 79.96L140.72 80.39L141.27 79.85L141.79 80.02L141.81 80.4L142.28 80.67L142.6 80.12L142.2 79.52L142.72 78.84L143.14 78.96L144.09 78.4L145.13 78.51L145.4 78.05L145.14 77.65L146.12 77.23L147.07 77.29L148.14 77.78L148.61 77.19L149.17 77.27L149.63 76.92L150.29 77.05L150.59 77.59L151.21 77.58L151.34 78.64L152.05 78.68L152.55 79.09L152.59 80.1L153.41 79.95L154.26 80.2L154.32 80.72L154.69 80.94L155.49 81.89L155.36 82.55L154.8 83.09L154.9 83.76L154.48 84.5L154.71 85.37L154.61 86.18L154.73 87.47L154.98 88.1L154.83 89L155.41 89.7L155.9 90.97L155.73 91.48L156.11 92.32L155.73 92.34L154.69 92.85L153.38 92.35L153.09 91.57L152.7 91.83L152.38 92.38L152.41 93.38L151.98 94.12L152.22 94.99L151.84 95.64L151.75 95.59L150.58 95.28L149.78 94.94L148.88 95.65L148.45 96.39L147.85 96.16L147.69 95.58L146.84 95.34L146.63 94.85L146.03 94.62L145.24 94.91L144.98 94.51L145.15 94L144.56 93.53L143.55 93.57L143.24 93.26L142.55 92.75L142.26 92.82L141.89 92.61L141.73 92.03L140.69 91.92L140.76 91.59L140.32 90.85L139.04 89.86L138.64 89.27L138.42 89.02L137.6 89.16L136.86 88.73L135.04 88.05L134.47 87.97L133.94 87.18L133.52 87.06L133.68 86.78L133.61 85.63L133.8 84.88L134.54 84.44L135.2 84.58L135.96 83.05L135.84 82.62L136.07 82.01L136.06 81.39L136.38 79.98L136.4 79.75Z" />
						<path id="Layer" fill-rule="evenodd" class="shp2" d="M133.52 87.06L133.95 87.18L134.47 87.97L135.04 88.06L136.87 88.74L137.6 89.16L138.43 89.02L138.65 89.27L139.04 89.87L140.33 90.85L140.76 91.59L140.69 91.92L141.74 92.03L141.9 92.61L142.27 92.83L142.56 92.75L143.24 93.27L143.56 93.57L144.57 93.54L145.16 94L144.99 94.51L145.25 94.91L146.03 94.63L146.64 94.85L146.85 95.34L147.7 95.58L147.85 96.16L148.46 96.39L148.89 95.66L149.79 94.95L150.58 95.28L151.76 95.59L152.17 95.95L152.78 96.17L153 95.57L153.53 95.51L154.52 96.57L155.82 97.31L156.58 97.26L157.08 97.67L156.81 98.99L157.16 99.68L156.56 100.07L156.67 101.37L158.17 101.98L158.42 102.62L158.19 103.22L158.56 103.43L158.13 104.17L157.98 105.07L158.45 106.81L159.23 106.53L159.67 107.27L160.33 107.4L160.78 107.91L161.98 107.74L162.41 107.86L162.27 109.38L162.74 110.26L162.66 110.83L163.19 110.77L163.91 111.43L164.56 111.8L164.86 112.34L165.47 112.57L165.9 113.31L166.53 113.92L167.12 113.77L166.98 114.43L167.15 114.77L166.87 115.47L166.09 115.75L165.57 115.58L164.8 116.49L165.27 117.37L164.94 118.16L164.13 118.93L163.81 119.48L163.23 119.63L162.02 118.94L160.94 119.55L160.61 119.48L159.87 120.53L159.3 120.45L159.37 120.12L159.09 119.96L158.38 119.92L157.79 119.45L157.35 119.57L156.95 119.83L156.34 119.61L155.85 119.81L155.12 120.01L154.38 119.58L153.8 119.74L153.26 119.18L152.58 119.29L152.27 118.98L152.31 118.27L152.12 118.16L152 118.58L152.12 119.02L151.81 119.34L150.83 119.75L150.5 119.69L150.52 119.45L150.75 119.46L151.54 119.18L151.55 118.94L151.47 118.65L151.22 118.87L150.05 119.18L149.54 119.01L149.29 119.23L148.83 118.97L148.62 118.48L148.18 118.59L147.68 118.18L147.48 118.31L147.69 118.8L148.48 119.14L148.54 119.66L148.71 120.01L149.04 120.08L149.12 120.37L148.68 120.48L148.62 120.81L148.91 120.74L149.09 120.84L148.88 121.21L149.32 121.09L149.4 121.39L149.26 122.04L149.38 122.48L149.83 122.98L150.06 123L149.71 121.69L149.47 120.2L149.65 119.45L149.89 119.46L149.94 120.23L149.81 120.88L150.26 122.87L150.34 123.16L151.07 122.96L151.35 123.12L151.65 123.66L152.1 123.31L152.89 123.64L153.54 124.02L153.2 124.19L152.76 124.3L152.82 124.83L152.33 125.04L151.45 124.65L150.54 123.88L149.82 123.84L149.08 124.27L148.25 123.8L146.66 123.99L145.61 123.88L144.83 123.31L144.53 122.76L144.82 122.69L145.63 121.92L145.7 121.59L145.33 120.52L145 120.46L144.61 119.86L144.17 119.98L143.82 119.53L144.8 119.11L145.95 119.04L146.74 119.37L147.04 119.29L146.92 118.86L147.2 118.16L146.98 117.91L146.58 118.17L146.37 117.68L145.92 117.18L145.31 116.95L144.6 116.91L144.39 116.42L144.02 116.2L143.86 115.62L144.19 115.69L144.39 115.56L143.81 114.86L142.98 114.38L142.95 113.99L143.42 114.26L144.3 114.65L144.71 115.01L145.19 115.03L145.81 115.02L144.96 114.78L144.65 114.48L144.53 114.04L144.5 113.66L144.11 113.92L143.76 114.09L143.3 113.83L143.41 113.64L143.24 113.3L142.45 113.58L141.85 113.36L141.32 113.42L141 113.97L140.16 114.35L139.88 114.19L139.91 114.57L138.34 115.15L138.07 114.99L137.95 114.55L137.57 115.2L137.6 115.58L137.24 115.99L137.24 115.99L137.08 115.41L136.29 115.07L135.67 115.08L134.84 114.6L134.2 113.99L134.21 113.14L134.74 113.07L135.06 113.38L135.36 113.06L136.3 112.5L136.49 112.61L136.81 112.05L137.43 111.18L137.9 111.45L138.65 111.64L138.86 112.13L139.51 112.5L139.76 112.28L139.7 111.75L140.06 111.34L140.23 110.83L139.8 110.09L139.47 109.16L139.54 108.83L139.24 108.29L139.56 107.74L139.94 106.85L139.51 106.11L139.2 104.95L138.92 104.79L138.67 105.01L137.98 104.5L137.52 103.37L136.97 103.05L136.92 102.29L136.63 102.37L136.07 102.05L135.73 102.22L135.43 101.67L135.28 101.71L134.96 101.41L134.68 102.11L134.43 102.33L134.2 102.93L133.59 102.71L132.83 102.76L131.09 102.13L130.37 102.32L129.9 102.06L129 101.91L128.61 101.31L128.64 100.84L128.15 100.19L127.41 99.76L126.9 98.73L126.44 98.47L125.85 98.62L125.39 98.36L125.47 97.79L125.13 97.1L124.9 96.23L125.04 96.19L125.62 95.41L126.67 94.67L127.13 94.93L127.65 94.25L127.84 93.5L130.27 92.69L130.98 92.11L131.56 91.96L131.93 92.17L132.45 91.48L132.52 91.16L132.64 90.73L132.98 90.56L132.64 89.88L132.79 88.98L132.58 88.49L133.22 87.38L133.52 87.06Z" />
						<path id="Layer" fill-rule="evenodd" class="shp3" d="M134.19 102.92L134.42 102.32L134.67 102.09L134.95 101.4L135.27 101.7L135.42 101.66L135.72 102.2L136.06 102.03L136.62 102.35L136.91 102.28L136.96 103.04L137.51 103.36L137.97 104.48L138.66 105L138.91 104.78L139.19 104.94L139.5 106.1L139.93 106.84L139.55 107.72L139.23 108.28L139.53 108.82L139.46 109.15L139.79 110.07L140.22 110.82L140.05 111.33L139.69 111.74L139.75 112.27L139.5 112.49L138.85 112.12L138.64 111.63L137.89 111.44L137.43 111.17L136.8 112.04L136.48 112.59L136.29 112.49L135.35 113.05L135.04 113.37L134.73 113.06L134.2 113.12L134.25 113.03L134.35 112.23L135.77 109.98L135.69 109.07L135.87 108.31L135.17 106.56L135.34 106.04L134.95 104.59L135.31 103.32L134.19 102.92Z" />
						<path id="Layer" fill-rule="evenodd" class="shp1" d="M125.38 98.34L125.85 98.61L126.43 98.45L126.89 98.72L127.4 99.75L128.14 100.18L128.63 100.83L128.6 101.3L129 101.9L129.9 102.05L130.36 102.31L131.09 102.12L132.82 102.75L133.59 102.7L135.32 103.32L134.95 104.59L135.35 106.04L135.17 106.56L135.88 108.32L135.69 109.07L135.78 109.98L134.35 112.23L134.26 113.03L134.2 113.98L134.83 114.59L135.66 115.07L136.29 115.06L137.08 115.4L137.23 115.98L136.85 116L137.02 116.35L136.81 116.72L136.06 117.15L135.55 116.97L134.66 116.59L134.21 116.94L133.72 117.15L133.69 117.63L133.26 118.36L132.77 118.57L132.58 119.32L132.08 118.91L132.01 118.62L131.66 117.93L131.1 117.85L130.98 117.42L130.31 116.66L129.62 116.14L129.01 115.92L127.16 115.71L126.76 115.97L126.01 115.79L125.63 115.81L124.75 115.19L124.38 114.97L123.94 114.47L123.46 114.44L123.05 114.09L122.15 113.94L121.48 113.18L121.24 113.17L121.12 112.73L120.53 112.27L119.71 112.41L119.7 111.79L120.04 111.62L120.26 111.25L120.14 110.81L119.4 110.39L119.63 109.78L119.75 109.36L120.39 109.11L119.66 108.45L118.97 108.79L118.82 108.21L118.1 108.16L118.18 107.6L117.51 106.84L117.53 106.6L118.18 106.12L117.8 105.29L117.46 104.6L117.48 104.12L117.28 102.78L117.31 102.3L116.9 101.94L117.68 101.66L118.2 101.83L118.59 101.57L119.24 101.94L119.92 101.84L120.18 101.38L121.76 100.56L123.17 99.41L124.17 98.76L124.83 98.89L125.37 98.59L125.38 98.34Z" />
						<path id="Layer" fill-rule="evenodd" class="shp3" d="M116.89 101.94L117.68 101.65L118.19 101.82L118.59 101.56L119.24 101.93L119.91 101.83L120.18 101.37L121.76 100.56L123.17 99.41L124.16 98.75L124.82 98.88L125.37 98.58L125.47 97.78L125.12 97.09L124.89 96.22L124.12 96.27L123.49 95.66L122.42 95.17L121.97 94.66L121.09 94.28L120.34 94.71L119.72 94.72L119.46 95.18L119.09 94.11L117.98 94.33L117.13 94.09L116.86 94.55L115.52 93.89L114.52 93.69L113.75 93.12L112.62 91.24L112.55 91.57L112.28 92.03L111.87 92.53L110.85 91.95L110.65 92.08L110.85 92.81L110.25 93.2L109.98 93.66L109.99 94.28L109.36 94.53L109.12 94.51L109.39 95.53L109.01 96.41L109.41 96.77L109.8 98.22L110.25 98.73L110.46 99.22L111.65 100.15L112.27 100.99L112.9 100.74L113.13 101L113.71 100.84L114.43 100.88L114.74 101.19L115.09 101.02L115.91 100.88L116.23 101.18L116.64 101.54L116.89 101.94Z" />
						<path id="Layer" fill-rule="evenodd" class="shp1" d="M112.61 91.24L113.74 93.12L114.52 93.69L115.51 93.89L116.86 94.55L117.13 94.08L117.97 94.33L119.09 94.11L119.45 95.18L119.72 94.72L120.34 94.71L121.09 94.27L121.97 94.66L122.42 95.16L123.49 95.66L124.12 96.27L125.04 96.18L125.61 95.4L126.66 94.66L126.66 94.66L126.01 93.43L125.09 92.89L124.7 92.92L124.35 92.47L123.98 92.25L123.49 92.46L123.28 91.97L122.35 91.44L121.93 91.32L121.39 91.62L120.92 91.36L120.79 91.16L120.79 91.16L119.74 90.43L119.01 90.62L118.31 90.34L117.29 90.61L116.25 90.27L115.17 90.01L115.09 89.72L114.54 89.4L113.62 89.49L113.58 89.34L113.1 90.17L112.61 91.24Z" />
						<path id="Layer" fill-rule="evenodd" class="shp3" d="M119.4 110.38L120.14 110.8L120.26 111.24L120.04 111.61L119.7 111.78L119.71 112.4L120.53 112.26L121.12 112.72L121.24 113.16L121.48 113.17L122.15 113.93L123.05 114.08L123.46 114.43L123.93 114.46L124.38 114.97L124.75 115.18L125.62 115.8L126.01 115.78L126.76 115.97L127.16 115.7L129.01 115.91L129.62 116.14L130.3 116.65L130.98 117.41L131.09 117.84L131.66 117.93L132 118.61L132.08 118.9L132.58 119.32L132.53 119.41L131.9 120.28L131.47 120.39L131.06 120.03L130.04 120.31L129.54 121.37L129.09 121.73L128.12 121.91L128.11 122.15L128.43 122.45L128.55 123.51L128.6 124.27L128.6 124.27L128.1 123.86L127.57 123.92L127.24 123L126.51 122.57L126.01 122.78L125.64 122.57L125.01 122.82L124.73 122.66L123.82 122.75L123.5 123.3L123.47 123.78L123.03 123.89L122.07 123.22L121.45 123.23L121.14 122.68L120.68 122.42L120.15 122.48L119.74 122.12L119.96 121.75L119.31 121.38L118.81 120.97L118.08 121.17L117.38 120.88L116.64 120.46L116.42 120.21L116.42 120.21L116.59 119.69L116.87 119L116.86 117.52L116.28 116.2L116.37 116.25L116.82 115.89L116.72 115.22L116.93 114.85L118.24 114.5L118.69 114.15L118.7 113.29L118.39 112.13L118.73 111.1L119.32 110.94L119.4 110.38Z" />
						<path id="Layer" fill-rule="evenodd" class="shp1" d="M116.27 116.2L116.86 117.52L116.87 119L116.59 119.7L116.41 120.21L115.98 120.33L115.52 120.06L114.75 120.11L113.6 119.33L112.88 119.29L112.78 119.47L111.97 119.37L110.63 119.34L110.58 119.43L110.33 118.8L110.38 118.09L110.38 117.23L110.73 116.2L111.3 115.42L111.34 115.57L111.63 115.49L111.81 114.98L112.52 115.02L113.18 115.15L113.71 115.09L114.74 115.44L115.15 115.8L116 116.04L116.27 116.2Z" />
						<path id="Layer" fill-rule="evenodd" class="shp2" d="M111.3 115.42L110.73 116.2L110.38 117.23L110.38 118.09L110.33 118.8L110.58 119.43L110.12 120.03L109.37 120.46L108.23 120.29L107.82 120.79L107.17 121.28L106.69 121.25L106.49 120.76L106.66 119.39L105.79 118.77L105.77 118.38L106.27 117.94L106.21 117.41L106.58 116.76L107.03 116.41L107.24 115.42L108.01 114.51L108.34 114.58L108.65 114.27L108.12 113.47L108.65 112.55L109.4 112.12L110.23 111.74L110.42 111.85L110.52 112.52L111.16 112.28L111.21 112.18L111.29 112.47L111.39 113.14L111.53 113.34L111.77 113.98L111.8 114.36L111.37 115.1L111.3 115.42Z" />
						<path id="Layer" fill-rule="evenodd" class="shp2" d="M113.13 101L113.71 100.84L114.42 100.88L114.74 101.19L115.09 101.02L115.91 100.88L116.22 101.18L116.63 101.54L117.31 102.29L117.28 102.77L117.48 104.12L117.45 104.59L117.79 105.28L118.17 106.11L117.52 106.6L117.51 106.84L118.18 107.59L118.1 108.16L118.81 108.2L118.97 108.78L119.66 108.44L120.39 109.11L119.75 109.36L119.63 109.78L119.32 110.95L118.74 111.11L118.39 112.13L118.7 113.3L118.69 114.15L118.24 114.51L116.93 114.86L116.72 115.23L116.82 115.9L116.37 116.26L116 116.04L115.15 115.8L114.74 115.44L113.71 115.1L113.18 115.16L112.52 115.02L111.8 114.98L111.63 115.5L111.34 115.57L111.37 115.1L111.79 114.36L111.77 113.98L111.52 113.34L111.39 113.14L111.28 112.47L111.21 112.18L111.41 112.05L111.99 111.89L112.22 111.29L111.72 110.88L111.56 110.3L111.01 109.98L110.84 109.63L111.1 109.17L110.91 108.44L111.2 108.37L111.02 107.4L111.28 106.94L111.58 106.86L111.88 107.41L112.22 107.24L112.16 106.71L111.79 106.5L111.37 105.52L111.53 105.24L112.42 104.77L112.89 104.18L112.61 104.02L112.37 104.01L112.24 103.81L112.42 103.29L113.08 103.43L113.26 103.53L113.37 103.34L112.96 102.99L112.79 102.64L113.08 101.94L113.23 101.05L113.13 101Z" />
						<path id="Layer" fill-rule="evenodd" class="shp1" d="M108.12 113.47L108.65 112.55L109.4 112.12L110.23 111.74L110.42 111.84L110.52 112.52L111.16 112.27L111.41 112.05L111.99 111.89L112.22 111.28L111.72 110.87L111.56 110.29L111.01 109.97L110.84 109.63L111.1 109.17L110.91 108.44L110.82 108.39L110.5 108.08L110.25 107.45L109.81 107.57L109.6 107.93L109.81 108.42L109.84 108.81L109.36 108.78L108.94 108.66L108.48 109.01L108.11 109.66L107.51 110.05L107.27 110.03L107.26 110.27L107.65 110.87L107.84 112.45L107.72 112.87L108.12 113.47Z" />
						<path id="Layer" fill-rule="evenodd" class="shp1" d="M111.38 102.94L111.14 102.3L110.81 102.24L110.45 101.79L109.84 101.56L109.86 101.32L109.38 101.29L108.93 100.79L108.55 100.81L108.58 100.34L108.26 100.03L107.97 100.11L107.71 99.71L107.27 99.83L106.99 99.67L106.48 99.5L106.26 99.87L105.93 99.8L105.96 99.32L105.67 98.54L105.38 98.62L104.95 99.36L104.66 99.44L104.45 99.81L104.73 99.96L104.87 100.78L104.75 101.21L104.81 101.73L104.52 101.81L104.45 102.14L105.43 104.92L105.97 107.81L105.78 107.96L105.31 106.2L104.91 105.6L103.85 104.87L103.25 104.64L103.13 104.21L103.21 103.64L102.76 103.14L102.53 102.26L101.98 101.95L102.06 101.38L102.46 101.12L102.97 101.29L103.29 101.6L103.09 100.87L102.91 100.76L102.54 99.69L102.55 98.83L102.79 97.99L102.54 97.35L102.71 96.84L102.16 96.52L101.52 96.77L101.11 97.27L100.02 97.87L99.94 97.58L100.14 97.45L99.91 96.58L100.26 95.55L100.31 95.46L101.2 95.85L102.11 95.76L102.68 95.84L103.34 96.84L103.8 97.1L104.46 96.38L105.42 96.43L105.88 95.84L107.78 95.95L108.81 96.54L108.86 96.45L109.27 96.81L109.75 98.31L110.11 98.76L110.32 99.25L111.5 100.18L112.27 100.99L112.9 100.74L113.07 101.09L112.93 101.98L112.64 102.68L112.81 103.03L113.22 103.38L113.12 103.57L112.93 103.46L112.36 103.38L112.24 103.8L111.38 102.94ZM105.81 108.08L105.7 108.02L105.78 107.96L105.81 108.08ZM105.7 108.02L105.52 108.16L105.11 107.8L105.05 107.28L105.44 107.87L105.7 108.02ZM104.77 107.12L104.89 107.56L104.2 107.04L103.94 106.65L104.77 107.12ZM103.7 105.77L104.91 106.47L104.28 106.48L103.7 105.77ZM104.95 105.75L105.03 106.04L104.46 105.96L104.05 105.61L104.02 105.22L104.95 105.75ZM102.55 100.32L102.56 100.94L102.32 100.92L102.33 100.07L102.55 100.32ZM102.47 100.03L102.06 99.67L102.28 99.3L102.47 100.03ZM101.57 100.74L101.81 101.38L101.64 101.89L101.57 100.74ZM101.44 99.68L101.7 100.08L101.58 100.5L101.44 99.69L101.44 99.68ZM101.35 97.92L101.73 98.75L101.54 99.5L101.36 99.39L101.16 98.67L101.36 98.54L101.35 97.92ZM102.31 97.12L102.46 98.55L101.99 98.53L101.96 98.14L101.64 97.84L101.93 97.14L102.31 97.12Z" />
						<path id="Layer" fill-rule="evenodd" class="shp3" d="M105.67 108.13L106.12 107.78L105.52 104.98L104.6 102.11L104.66 101.78L104.95 101.7L104.8 101.12L104.97 100.6L104.83 99.79L104.5 99.72L104.62 99.3L105.01 99.27L105.38 98.63L105.67 98.55L106.01 99.24L105.98 99.71L106.31 99.78L106.47 99.5L106.99 99.68L107.27 99.84L107.7 99.72L107.91 100.21L108.2 100.13L108.67 100.4L108.59 100.96L109.02 100.85L109.47 101.35L109.89 101.47L110.02 101.67L110.58 101.99L110.93 102.44L111.36 102.56L111.61 103.2L112.2 103.66L112.37 104L112.61 104.02L112.89 104.18L112.42 104.77L111.53 105.24L111.37 105.52L111.79 106.5L112.16 106.71L112.22 107.24L111.88 107.41L111.58 106.86L111.28 106.94L111.02 107.4L111.2 108.37L110.81 108.39L110.5 108.09L110.25 107.45L109.81 107.57L109.6 107.94L109.81 108.43L109.83 108.81L109.36 108.78L108.93 108.66L108.48 109.01L108.11 109.66L107.51 110.05L107.27 110.04L107.09 109.07L106.76 109.01L106.04 108.34L105.67 108.13Z" />
						<path id="Layer" fill-rule="evenodd" class="shp3" d="M100.45 95.42L101.29 95.9L102.2 95.81L102.77 95.9L103.43 96.89L103.94 97.06L104.51 96.29L105.56 96.4L106.03 95.8L107.93 95.92L108.95 96.5L109.39 95.53L109.11 94.51L108.45 94.37L107.12 94.34L106.47 93.97L105.76 93.93L105.2 93.61L104.54 93.47L104.48 92.95L103.31 92.4L103 92.09L101.96 92.6L101.93 93.08L101.3 93.33L101 94.26L101 94.26L101.3 94.81L101.14 95.08L100.72 94.96L100.45 95.42Z" />
						<path id="Layer" fill-rule="evenodd" class="shp1" d="M103 92.1L103.31 92.4L104.48 92.95L104.54 93.48L105.2 93.61L105.76 93.93L106.47 93.97L107.12 94.35L108.45 94.38L109.35 94.53L109.99 94.28L109.98 93.66L110.25 93.2L110.84 92.81L110.65 92.08L110.85 91.95L111.86 92.53L112.28 92.03L112.54 91.57L113.11 90.17L113.59 89.35L112.77 88.63L112.52 87.99L111.77 87.81L111.12 87.43L110.83 86.65L109.91 86.12L109.55 85.67L109.1 86.03L108.72 86.05L108.5 86.42L107.76 85.99L107.42 86.16L106.59 84.83L106.27 84.52L105.91 84.93L105.74 85.44L105.28 85.18L104.73 85.48L104.02 85.44L102.89 85.89L102.68 86.26L103.16 86.91L102.9 87.37L102.61 87.45L102.26 86.76L101.6 86.63L101.16 86.12L100.73 86L99.73 86.04L99.21 85.86L98.9 85.56L98.38 85.38L98.21 85.04L97.67 84.48L96.97 84.2L96.75 84.57L96.46 84.65L96.02 84.15L95.86 83.57L95.38 83.54L95 83.56L94.81 83.46L94.99 83.8L94.83 84.08L94.94 84.51L94.68 84.97L95.05 85.19L95.38 85.25L95.66 86.03L96.25 85.88L96.62 86.09L96.59 86.56L96.68 86.62L97.21 87.41L98.93 87.42L99.43 87.83L100.26 88.31L99.9 88.72L100.73 90.05L102.05 91.18L102.78 91.61L103 92.1Z" />
						<path id="Layer" fill-rule="evenodd" class="shp3" d="M120.8 91.16L120.93 91.36L121.39 91.62L121.93 91.32L122.36 91.44L123.28 91.97L123.49 92.46L123.98 92.25L124.35 92.47L124.71 92.92L125.09 92.89L126.02 93.43L126.66 94.66L127.12 94.92L127.64 94.24L127.83 93.49L130.27 92.68L130.97 92.1L131.55 91.94L131.92 92.16L132.44 91.47L132.51 91.14L132.63 90.72L132.98 90.55L132.64 89.86L132.79 88.97L132.58 88.48L133.22 87.37L133.68 86.78L133.61 85.63L133.8 84.88L134.54 84.45L135.2 84.58L135.96 83.06L135.85 82.62L136.07 82.01L136.06 81.39L136.39 79.98L136.3 79.07L136.71 78.57L136.97 77.49L136.6 77.28L136.31 76.5L132.95 75.06L130.01 73.12L129.68 73.05L128.42 73.31L127.57 73.07L127.5 72.78L128.45 72.83L129.52 72.47L129.19 72.4L128.46 72.6L127.27 72.53L126.42 71.66L126.51 70.86L126.91 70.6L127.41 71.01L127.58 71.35L127.69 71.17L127.26 70.43L126.12 69.41L124.93 69.33L124.28 68.96L123.38 68.81L122.6 69.1L121.95 68.73L121.17 69.01L120.96 69.38L120.22 68.96L118.74 68.96L117.9 68.48L117.25 68.97L116.75 69.42L116.51 69.4L116.44 69.73L116.16 69.57L115.8 70.84L115.28 71.52L114.42 71.52L114.21 71.89L114.52 73.05L114.11 73.55L114.26 74.13L114.05 74.5L113.91 75.16L113.52 75.42L113.39 76.7L113.56 77.04L113.63 77.57L112.97 78.92L112.68 78.99L112.65 79.47L112.94 79.39L113.35 79.75L113.74 79.72L114.55 80.44L114.39 80.72L114.5 81.39L115.01 81.56L115.22 82.05L114.62 82.45L114.65 82.83L114.78 83.03L114.51 83.49L114.68 83.83L115.12 83.72L115.4 83.87L115.27 82.82L115.6 82.89L116.39 84.08L117.18 84.41L116.73 84.77L117.07 85.45L118.1 85.8L118.59 86.45L119.48 88.31L119.46 89.41L119.92 89.67L120.27 89.5L120.92 89.88L121.07 90.46L120.8 91.16Z" />
						<path id="Layer" fill-rule="evenodd" class="shp3" d="M112.68 79L112.65 79.47L112.94 79.39L113.35 79.75L113.74 79.73L114.55 80.44L114.39 80.72L114.5 81.39L115.01 81.57L115.22 82.06L114.63 82.45L114.65 82.83L114.78 83.03L114.52 83.49L114.69 83.83L115.12 83.72L115.4 83.88L115.27 82.82L115.6 82.89L116.39 84.08L117.19 84.41L116.73 84.77L117.07 85.46L118.11 85.8L118.59 86.45L119.48 88.32L119.46 89.41L119.93 89.68L120.27 89.51L120.92 89.88L121.08 90.46L120.79 91.16L119.74 90.43L119.01 90.62L118.31 90.34L117.29 90.62L116.26 90.27L115.17 90.01L115.09 89.72L114.54 89.4L113.63 89.49L112.77 88.63L112.52 88L111.77 87.81L111.12 87.43L110.83 86.65L109.91 86.12L109.55 85.67L109.1 86.03L108.72 86.05L108.5 86.42L107.77 86L107.42 86.17L106.59 84.83L106.28 84.53L106.28 84.53L105.99 82.89L105.69 82.35L105.23 81.22L104.88 80.77L104.91 80.3L105.28 79.65L105.24 78.65L104.81 77.91L105.03 77.54L105.32 77.46L105.49 77.8L105.75 78.2L107.01 77.94L107.53 78.12L108.25 77.92L108.77 78.1L109.26 77.89L110.09 78.37L110.41 78.67L110.94 78.61L111.21 78.15L111.84 78.76L112.32 78.79L112.49 79.13L112.68 79Z" />
						<path id="Layer" fill-rule="evenodd" class="shp2" d="M105.68 57.89L106.33 58.26L107.05 58.92L107.22 59.27L107.74 59.44L107.93 60.17L108.34 60.53L107.74 60.92L107.36 60.95L107.39 61.33L107.65 61.73L107.62 62.2L108.15 62.14L108.4 61.91L108.64 61.93L108.72 62.22L109.1 63.05L109.3 62.92L109.92 62.91L110.05 63.11L109.79 63.57L109.2 63.73L108.98 63.48L108.45 63.54L108.89 64.04L109.23 64.11L109.54 64.41L109.57 64.8L110.08 64.97L110.39 64.66L111.03 64.41L111.91 64.8L112.11 64.66L112.73 64.65L112.98 64.43L113.22 64.44L113.82 64.91L113.16 64.77L112.86 64.85L112.82 64.71L112.48 64.88L112.56 65.17L113.23 65.07L113.79 65.38L114.03 65.4L114.1 65.69L114.42 65.99L114.69 67.01L115.21 67.19L115.27 67.71L114.91 68.12L115.16 68.76L115.58 68.88L115.79 69.37L116.16 69.58L115.8 70.85L115.28 71.53L114.42 71.53L114.21 71.89L114.52 73.06L114.11 73.56L114.26 74.14L114.05 74.51L113.92 75.17L113.52 75.43L113.39 76.71L113.56 77.05L113.63 77.58L112.97 78.92L112.48 79.13L112.31 78.79L111.83 78.76L111.2 78.15L110.93 78.61L110.4 78.67L110.09 78.37L109.25 77.89L108.76 78.1L108.25 77.93L107.52 78.12L107 77.95L105.74 78.2L105.48 77.81L105.31 77.46L105.02 77.54L104.81 77.91L105.24 78.65L105.27 79.65L104.9 80.3L104.87 80.78L105.23 81.23L105.69 82.35L105.99 82.89L106.27 84.53L105.91 84.94L105.74 85.45L105.28 85.19L104.73 85.49L104.02 85.44L102.89 85.9L102.68 86.27L103.16 86.92L102.9 87.38L102.61 87.46L102.26 86.77L101.6 86.63L101.16 86.13L100.73 86.01L99.73 86.05L99.21 85.87L98.89 85.57L98.38 85.39L98.21 85.05L97.67 84.49L96.97 84.21L96.75 84.58L96.46 84.66L96.01 84.15L95.86 83.57L95.38 83.54L95 83.57L94.81 83.46L94.73 83.17L94.26 82.28L94.04 82.03L93.6 82.15L93.38 81.9L93.46 81.33L92.89 81.25L92.73 81.53L92.38 81.7L91.94 81.19L91.37 81.11L91.05 80.81L91.05 80.81L91.13 80.24L90.83 79.7L91.2 79.05L91.96 78.38L92.45 78.17L92.67 77.8L93.37 77.23L94.24 76.99L93.94 76.45L93.48 76.18L93.09 75.59L92.52 75.51L92.25 75.11L91.88 74.9L91.41 74.87L91.16 74.23L91.32 73.96L91.07 73.32L91.07 73.32L91.59 72.64L91.47 72.2L91.65 71.69L91.43 70.58L91.33 70.53L91.99 70.04L91.88 69.37L92.13 69.14L92.19 68.19L92.5 67.88L92.5 67.88L93 67.43L93.67 66.71L93.86 65.96L94.4 65.66L95.04 65.41L95.79 65.6L96.24 66.1L96.72 66.13L96.71 65.51L97.24 65.45L97.5 64.98L97.85 64.81L97.73 64.38L97.18 64.06L97.24 63.73L97.7 63.38L98.14 63.88L98.53 63.86L98.85 63.3L99.25 63.04L99.5 62.82L99.7 62.69L99.75 62.59L99.84 62.65L100.02 62.13L99.52 61.72L99.55 61.25L99.96 60.75L101.13 61.06L101.56 61.18L101.81 61.81L101.49 62.37L101.68 63.09L102.03 62.92L102.06 62.45L102.27 62.08L102.51 62.09L102.72 62.58L102.4 63.13L102.49 64.05L102.57 63.48L102.99 62.74L103.12 62.32L103.66 62.02L104.08 62.14L104.35 62.54L105.01 62.67L105.27 63.93L106.18 64.7L105.47 63.79L105.11 62.49L104.56 62.17L104.39 61.82L104.6 61.45L105.13 61.39L104.83 60.85L105.15 60.3L104.64 60.12L104.85 59.75L105.31 60.02L105.79 60.05L105.59 59.32L105.81 58.95L105.53 58.79L105.41 58.36L105.68 57.89L105.68 57.89Z" />
						<path id="Layer" fill-rule="evenodd" class="shp3" d="M94.83 84.08L94.94 84.51L94.68 84.97L94.4 84.81L94.47 84.48L94.77 84.17L94.83 84.08Z" />
						<path id="Layer" fill-rule="evenodd" class="shp3" d="M91.05 80.8L91.37 81.1L91.94 81.19L92.39 81.69L92.73 81.52L92.89 81.24L93.46 81.32L93.38 81.89L93.6 82.14L94.04 82.03L94.26 82.28L94.74 83.16L94.99 83.8L94.77 84.17L94.47 84.48L94.4 84.81L95.05 85.19L95.38 85.25L95.66 86.03L96.25 85.88L96.62 86.09L96.59 86.56L95.81 86.85L95.6 87.84L94.57 87.49L93.95 88.36L93.7 87.73L93.33 87.51L92.38 86.6L92 87.24L91.01 87.9L91 87.28L90.52 86.39L90.94 85.89L90.54 85.3L88.77 86.24L88.28 85.59L86.98 85.7L86.62 85.25L86.75 84.83L86.63 84.39L86.76 83.74L86.75 83.12L86.11 82.74L85.58 82.81L85.44 83.47L84.73 83.42L84.23 83.01L84.44 82.64L84.77 82.71L85.05 82.87L85.31 82.41L85.83 81.73L87.07 81.08L87.49 81.21L88.33 80.83L88.8 80.86L89.07 80.39L88.68 79.8L89.17 79.59L89.81 79.96L89.75 80.29L90.16 80.65L91.05 80.8Z" />
						<path id="Layer" fill-rule="evenodd" class="shp1" d="M92.16 67.19L92.32 66.91L92.35 66.43L91.7 66.06L91.73 65.59L91.27 65.32L91.15 64.88L90.32 64.41L89.92 64.67L89.55 64.46L89.35 64.59L89.05 64.05L88.91 64.09L88.91 64.09L88.75 63.5L88.38 63.29L88.3 63L88.78 63.03L89.13 63.48L89.24 64.15L89.7 64.42L89.86 64.14L89.58 63.98L89.56 63.6L89.85 63.52L90.23 63.5L90.79 63.81L90.43 63.36L90.14 62.58L90.36 62.22L90.89 62.15L91.23 61.98L91.68 61.63L92.1 61.13L92.23 60.47L92.91 60.37L93.23 59.81L93.89 59.95L94.02 60.15L95.12 60.17L96.05 59.84L96.6 60.16L96.99 60.13L97.25 60.53L97.93 60.43L98.72 60.76L99.15 61.5L99.31 62.08L99.66 62.54L99.61 62.63L99.32 62.7L99.16 62.98L98.71 63.34L98.44 63.8L98 63.91L97.65 63.46L97.19 63.82L97.13 64.15L97.68 64.46L97.85 64.81L97.51 64.98L97.09 65.48L96.71 65.5L96.72 66.12L96.24 66.09L95.7 65.54L94.95 65.35L94.41 65.65L93.91 65.86L93.67 66.7L93.01 67.43L92.5 67.87L92.16 67.19ZM88.91 64.09L89 64.14L89.35 64.59L88.84 64.41L88.4 64.53L88.28 64.09L87.91 63.88L87.94 63.41L87.72 63.15L88.18 63.42L88.72 63.98L88.91 64.09L88.91 64.09L88.91 64.09ZM89.68 63.18L89.7 63.56L89.37 63.49L89.33 63.35L89.11 63.09L89.68 63.18ZM89.56 62.74L89.93 62.95L89.6 62.89L89.56 62.74ZM90.28 63.4L90.14 63.44L89.92 63.19L89.93 62.95L90.28 63.4ZM89.35 64.59L89.35 64.59L89.35 64.59ZM89.93 62.95L89.93 62.95L89.93 62.95Z" />
						<path id="Layer" fill-rule="evenodd" class="shp3" d="M91.34 70.52L91.99 70.03L91.89 69.36L92.14 69.14L92.2 68.19L92.5 67.87L92.15 67.42L92.4 67.2L92.33 66.67L91.69 66.3L91.72 65.82L91.25 65.56L91.14 65.12L90.3 64.64L90 64.96L89.63 64.75L89.43 64.88L88.91 64.7L88.48 64.82L88.45 64.44L88.09 64.23L88.02 63.7L87.8 63.45L87.12 63.55L86.43 63.89L86.55 64.32L86.16 65.21L86.7 65.76L86.49 66.13L86.91 67.11L87.19 67.27L87.3 67.71L87.62 68.01L87.19 68.75L87.64 69.25L87.88 69.27L88.25 69.48L88.33 69.77L88.55 70.02L88.68 71.08L89.23 71.4L89.44 71.89L89.77 71.95L90.05 72.11L90.21 71.84L90.13 71.55L90.35 71.18L90.36 70.94L90.76 70.68L91.16 70.41L91.34 70.52Z" />
						<path id="Layer" fill-rule="evenodd" class="shp4" d="M90.05 72.11L90.21 71.83L90.13 71.54L90.34 71.17L90.36 70.94L90.76 70.67L91.16 70.41L91.43 70.57L91.65 71.68L91.48 72.19L91.6 72.63L91.08 73.31L90.65 73.19L90.15 72.78L90.14 72.16L90.05 72.11Z" />
						<path id="Layer" fill-rule="evenodd" class="shp5" d="M87.63 15.43L87.46 16.57L87.64 16.05L87.89 15.83L87.63 15.43ZM88.25 14.57L88.41 15.15L88.62 14.78L88.54 14.49L88.25 14.57ZM88.24 12.46L88.06 12.98L88.38 13.28L88.24 12.46ZM90.1 13.29L90.17 12.96L90.03 12.76L90.1 13.29ZM89.25 13.05L89.57 13.35L89.78 12.98L89.48 12.44L89.2 12.28L89.25 13.05ZM88.76 12.4L88.63 13.06L88.9 14.08L89.27 14.29L89.02 13.65L88.96 12.27L88.76 12.4ZM90.03 12.76L90.03 12.76L90.03 12.76Z" />
						<path id="Layer" fill-rule="evenodd" class="shp3" d="M61.27 47.32L62.06 47.65L63.06 47.86L63.82 47.81L63.91 47.24L64.37 47.51L64.12 47.73L64.58 47.99L65.31 47.8L65.58 47.96L65.94 47.55L67.39 48.26L67.69 47.94L67.66 48.42L68.19 48.36L68.42 48.61L69.06 48.98L68.92 48.16L69.4 48.19L70.04 47.94L70.16 47.52L70.79 47.27L71.15 46.86L71.56 45.74L71.39 45.4L71.92 45.34L72.18 44.88L72.17 44.26L72.58 43.76L72.32 43.36L72.67 43.19L72.94 43.35L72.6 42.66L72.29 42.36L72.4 41.31L71.87 40.52L71.49 40.54L70.93 41.08L70.6 41.02L70.11 39.51L71.22 38.67L71.82 38.9L72.13 38.58L72.61 38.61L72.95 38.44L72.71 38.42L73.39 38.32L74.01 38.31L73.62 37.72L73.4 37.23L73.43 37.61L72.97 37.34L72.74 37.95L72.05 38.29L72.26 37.92L72.61 37.75L72.64 37.27L72.21 37.15L72.24 37.53L71.87 37.32L71.79 37.03L71.09 36.75L70.88 37.12L70.69 37.01L70.29 37.28L70.55 37.67L70.36 37.8L69.99 37.59L69.88 37.78L69.36 37.6L69.34 38.08L69.8 38.34L69.6 38.47L70.17 38.56L70.44 38.72L69.52 39.04L68.76 38.85L68.79 39.24L68.09 38.96L67.82 38.56L67.33 38.77L67.41 38.2L66.36 37.47L66.25 37.65L65.71 37.1L65.25 37.69L65.78 37.63L65.56 38L65.69 38.19L65.57 38.62L65.24 38.55L65.4 38.27L64.75 37.9L65.17 38.88L65.74 38.96L65.71 39.43L64.96 39.25L64.71 39.47L64.79 39.76L64.14 39.39L63.96 39.9L63.73 39.89L63.99 40.28L64.32 40.35L64.03 40.43L64.63 40.66L64.45 41.41L65.79 42.06L65.06 42.26L64.89 41.91L63.95 42.48L64.14 42.58L63.45 42.92L62.2 42.94L62.57 43.15L63.19 43.14L63.36 43.49L63.92 43.81L64.5 43.65L64.54 43.8L64.95 44.15L63.68 43.79L62.94 43.37L62.54 43.63L61.88 43.49L61.96 43.79L61.71 44.01L61.84 44.21L61.47 43.99L61.35 43.56L61.06 43.64L61.02 43.49L60.16 43.49L60.15 43.73L61.68 44.48L60.91 44.53L60.25 44.4L59.7 44.7L60.16 44.97L60.1 45.3L61.42 45.56L60.27 45.64L59.68 45.79L60.29 46.02L61.34 46.13L61.08 46.35L60.28 46.26L60.65 46.47L60.39 46.69L61.06 46.83L61.27 47.32Z" />
						<path id="Layer" fill-rule="evenodd" class="shp2" d="M67.53 57.56L67.03 57.15L66.82 57.53L66.36 57.26L66.57 56.89L67.1 56.83L67.32 57.08L68.09 57.03L68.34 56.81L68.53 56.91L68.89 56.5L69.4 56.68L69.6 56.55L70.28 56.44L70.85 55.67L71.22 55.88L71.66 55.76L71.87 55.39L72.72 55.64L73.68 56.31L73.94 56.71L74.27 56.78L74.64 56.99L75.02 56.35L75.89 56.11L76.82 55.79L76.25 55.7L75.91 55.87L75.34 55.79L74.86 55.76L74.51 55.93L73.78 55.51L73.71 54.98L73.56 54.4L73.13 54.28L73.08 54.37L72.43 54L72.59 53.72L73.02 53.84L72.61 53.48L72.67 53.15L71.92 52.97L71.39 53.03L70.97 52.91L70.83 52.71L71.13 52.63L70.63 52.22L71.1 52.25L71.32 51.88L70.91 51.52L71.68 51.47L72.05 51.69L72.67 51.68L72.85 51.78L73.38 51.72L73.81 51.84L74.95 51.15L74.76 51.04L74.79 50.56L75.17 50.54L75.06 50.1L75.42 49.7L74.48 49.4L74.28 49.53L74.15 49.33L73.72 49.21L74.21 49L74.98 48.95L75.67 48.61L76.72 48.72L77.04 49.03L77.94 49.18L78.05 49.61L78.37 49.92L78.2 49.58L78.23 49.1L78.56 49.17L78.62 49.7L78.9 49.86L79.19 49.78L78.91 49.62L78.7 49.13L78.64 48.6L79.18 48.3L79.37 47.55L80.05 47.44L79.92 47.25L80.42 46.8L80.01 46.44L79.38 46.69L79.7 46.14L79.31 46.16L79.34 44.83L80.61 43.71L81.55 44.01L80.4 43.22L80.09 43.54L79.63 43.27L80.22 42.26L79.7 42.08L79.32 41.25L79.09 41.24L79.3 41.73L79.03 42.19L78.57 41.06L78.15 40.94L77.96 41.69L77.87 40.78L78.14 40.32L78.4 40.72L78.58 40.21L79.53 39.4L80.12 39.25L80.2 38.68L79.97 38.43L80.15 37.92L80.71 37.38L81.11 37.74L80.77 37.05L81.13 36.64L80.89 36.62L80.77 37.05L80.18 37.44L80.35 36.93L79.91 37.04L79.75 37.32L79.62 37.12L79.98 36.71L80.82 36.33L79.74 36.7L79.56 36.59L79.26 37.53L78.77 37.74L78.61 38.01L78.11 38.46L78.02 38.76L77.8 38.77L77.43 38.56L77.54 38.38L77.83 38.3L78.3 37.71L78.84 37.41L78.6 37.39L78.62 37.15L78.96 36.99L79.14 36.47L79.79 35.99L79.75 35.84L80.34 35.45L80.45 35.26L81.05 34.87L81.38 34.94L81.25 34.74L81.59 34.57L79.99 35L79.91 34.71L79.77 34.75L79.61 34.16L79.89 34.32L80.03 34.28L79.81 34.03L79.44 33.82L79.31 33.62L79.6 33.54L79.77 33.64L79.78 33.65L79.78 33.65L80.06 33.81L80.35 33.73L80.55 33.6L80.42 33.4L80.57 33.27L80.62 33.27L80.6 33.24L80.67 33.18L81.03 33.63L81.04 33.39L80.82 33.14L81.11 33.06L81.29 33.17L81.16 32.97L81.41 32.75L81.56 32.71L81.78 32.96L81.71 32.67L81.85 32.63L81.37 32.6L81.34 32.46L81.39 32.37L81.87 32.39L81.17 32.11L81.27 31.93L81.5 31.32L81.76 31.72L82.09 31.79L81.82 31.63L81.75 31.1L82.04 31.02L81.97 30.73L82.37 30.47L82.34 30.95L82.54 30.81L82.55 30.58L82.66 30.39L82.87 30.88L83.16 30.8L83.46 31.35L83.44 30.96L83.19 30.33L83.37 30.43L83.77 30.17L83.8 29.7L84.22 29.82L84.44 29.45L84.53 29.5L84.6 29.17L84.89 29.09L85.19 28.78L85.59 29.37L85.34 29.6L85.92 29.44L86.05 29.64L85.85 29.77L86.14 29.69L86.33 29.8L86.81 29.83L87.27 30.09L87.84 30.18L87.95 30.3L87.95 30.61L88.15 30.48L88.15 30.4L88.35 30.35L88.82 30.61L88.71 30.8L88.36 30.97L88.44 31.26L87.99 31.61L87.66 31.55L87.12 31.85L85.76 32.05L85.51 32.28L85.27 32.26L85.59 32.57L85.98 32.54L85.23 32.97L84.65 33.13L84.69 33.27L85.07 33.25L85.26 33.36L85.73 33.38L86.16 33.5L86.21 33.41L86.49 33.57L86.8 33.88L87.08 34.04L87.32 34.05L87.82 34.46L88.74 34.99L88.89 34.96L89.12 35.83L88.91 36.2L88.33 36.35L87.82 36.8L87.81 37.04L87.35 37.39L87.25 37.57L86.9 37.74L86.25 38.23L85.96 38.31L85.71 38.53L85.27 38.65L84.72 38.33L84.04 38.43L84.08 38.58L84.79 38.62L84.87 38.91L84.71 39.19L85.07 39.64L84.45 39.65L83.98 39.38L83.68 39.7L83.11 39.62L82.55 39.3L82.33 39.05L82.35 39.43L82.71 39.88L82.99 40.04L83.43 40.54L83.96 40.48L84.26 40.4L84.7 40.9L84.82 41.34L85.14 41.64L85.2 43.03L85.38 43.13L85.44 43.66L84.99 44.88L85 45.5L84.8 46.49L84.93 46.68L84.77 46.96L85.49 47.62L85.89 48.22L85.83 49.17L85.92 49.22L85.95 49.6L86.12 49.95L85.88 49.93L85.54 50.1L85.6 50.63L85.77 51.83L85.54 51.58L85.21 51.51L85.13 51.22L85 51.03L84.97 51.5L85.27 52.04L85.46 52.15L85.48 53.39L85.21 53.85L84.1 54.07L84.51 54.43L84.66 55.01L85.01 54.84L85.42 54.34L86.16 54.77L87.22 55.49L87.67 56.62L87.45 57.22L87.47 57.61L86.82 58.09L86.39 58.83L86.06 58.76L85.57 58.97L85.59 58.73L85.36 58.48L85.02 58.65L85.39 58.86L85.19 59L85.37 59.1L85.18 59.23L84.65 59.3L84.57 59.01L83.84 59.2L84.21 59.41L84.14 59.74L83.66 59.72L83.39 59.56L82.76 59.57L83.19 59.69L83.5 59.99L83.45 60.08L83.36 60.03L83.12 60.02L83.31 60.12L83.66 60.57L83.94 60.73L84.51 60.82L85.15 61.19L84.9 61.41L84.83 61.74L84.62 62.11L84.2 61.99L83.43 62.04L83.36 62.36L83.14 62.11L82.86 61.95L82.28 62.11L81.85 61.99L81.32 62.05L81.05 61.89L80.69 61.44L80.18 61.27L79.34 60.79L78.81 60.85L78.64 60.51L78.66 60.27L78.27 60.3L78.09 60.19L77.77 59.88L77.1 59.99L76.78 59.68L76.07 59.64L75.67 59.9L75.44 59.65L74.89 59.33L74.65 59.32L74.31 58.63L73.85 58.36L72.91 58.07L72.71 58.2L72.53 58.09L72.09 58.21L71.91 58.73L71.66 58.95L71.28 58.97L71.21 59.3L70.84 59.09L70.63 58.6L70.35 58.44L70.33 58.06L70.09 58.04L69.81 57.88L69.33 57.86L68.93 57.5L68.53 57.76L68.34 57.65L67.9 57.77L67.92 57.53L67.48 57.65L67.47 57.89L67.03 58L67.53 57.56ZM95.78 27.74L95.91 27.94L95.38 28L95.78 27.74ZM97.88 25.39L98.32 25.27L97.87 25.63L97.88 25.39ZM96.21 26.15L96.04 25.8L96.29 25.58L96.62 25.65L96.21 26.15ZM96.81 25.75L97.15 25.58L97.31 25.31L97.44 25.51L97.12 26.06L96.92 26.19L96.81 25.75ZM95.96 26.99L95.41 26.67L95.38 26.29L95.71 26.36L96.12 26.72L96.32 26.59L96.34 26.35L96.63 26.27L96.8 26.61L97.12 26.92L96.82 27L96.76 27.33L96.41 27.5L96.29 27.92L95.93 27.47L95.96 26.99ZM72.6 42.66L72.28 42.35L72.35 41.17L71.83 40.37L71.44 40.4L70.88 40.93L70.46 40.81L69.98 39.31L71.17 38.52L71.69 38.69L72.14 38.34L72.52 38.32L72.96 38.2L73.48 38.37L73.77 38.29L74.05 38.45L74.67 38.44L75.35 38.96L75.62 39.36L75.35 39.82L75.5 41.26L74.97 41.32L75.62 41.69L75.22 42.81L75.42 41.82L75.14 41.66L75.08 41.99L74.77 42.31L75.09 42.61L74.78 42.93L74.28 42.52L74.07 42.89L73.54 42.95L73.41 42.75L73.19 43.12L72.94 43.35L72.6 42.66ZM78.02 38.76L78.18 38.75L78.18 39.6L77.82 40.01L77.47 39.56L77.8 38.77L77.99 38.88L78.02 38.76ZM87.95 30.3L87.94 29.99L88.13 30.09L88.15 30.4L88.06 30.43L87.95 30.3ZM85 51.02L84.58 50.9L84.45 50.71L84.02 50.58L84.21 50.69L84.43 50.94L84.67 50.96L85 51.02ZM77.42 60.29L77.59 60.64L77.86 60.8L77.52 60.97L77.41 61.15L77.08 61.08L76.87 60.6L76.55 60.29L77.42 60.29ZM79.01 38.61L78.79 38.98L78.62 38.63L78.84 38.26L79.01 38.61ZM77.28 36.26L77.22 36.59L76.83 36.62L77.28 36.26ZM76.56 33.88L76.93 34.1L76.35 34.25L76.56 33.88ZM77.26 34.16L77.9 33.91L77.6 34.23L77.27 34.16L77.26 34.16ZM78.83 33.59L79.01 33.7L78.72 33.77L78.83 33.59ZM78.96 32.93L78.9 33.26L78.61 33.34L78.63 32.86L78.96 32.93ZM88.51 29.21L88.88 29.42L89 29.86L88.71 29.94L89.32 30.16L89.1 30.53L88.93 30.19L88.42 30.01L88.63 29.65L88.38 29.87L88.3 29.58L88.51 29.21ZM89.32 29.31L89.16 29.58L89.08 29.29L89.32 29.31ZM79.74 28.83L79.57 28.49L80.06 28.28L80.41 28.73L80.54 28.3L82.07 28.21L81.79 28.9L81.21 29.06L80.9 29.38L81.03 29.57L80.49 29.88L80.08 29.52L79.66 29.4L79.45 28.91L79.74 28.83ZM79.17 29.61L79.36 29.47L79.6 29.49L79.86 29.89L79.04 30.03L78.93 29.59L79.17 29.61ZM78.41 30.28L77.89 30.1L77.74 29.52L77.97 29.53L78.47 29.94L78.41 30.27L78.41 30.28ZM77.68 30.47L77.79 30.29L78.3 30.46L77.9 30.72L77.68 30.47ZM76.68 31.98L76.3 32.01L76.46 31.73L76.75 31.65L76.68 31.98ZM76.85 31.47L76.92 31.14L77.17 30.92L77.33 30.64L77.61 30.8L77.54 31.13L77.34 31.26L77.22 31.68L76.85 31.47ZM79.73 32.88L79.13 32.65L79.17 31.94L79.37 31.81L79.24 31.61L79.13 31.8L78.83 31.25L79.12 31.18L79.25 31.37L79.52 30.91L79.86 31.6L80.09 31L80.42 31.06L80.43 31.68L79.85 32.46L80.16 33L80.49 33.07L80.6 33.24L80.57 33.27L80.14 33.24L79.78 33.65L79.77 33.64L79.47 33.34L79.73 32.88ZM77.23 35.5L77.8 35.58L77.82 35.34L78.29 35.37L77.81 34.72L78.43 34.71L78.53 35.38L78.81 35.54L78.78 36.02L78.16 36.03L78.26 35.84L77.23 35.5ZM77 36.96L78.26 36.7L77.41 37.32L76.92 37.53L77 36.96ZM75.99 37.85L76.3 37.54L75.67 37.55L76.05 36.9L76.86 37L76.61 37.84L75.99 37.85ZM75.13 47.43L75.64 47.6L75.61 48.08L76.04 48.2L75.22 48.34L74.78 47.6C74.78 47.6 75.18 47.34 75.13 47.43ZM75.81 44.75L76.37 44.22L77.49 44L77.18 44.31L77.11 44.64L76.24 44.87L75.82 44.75L75.81 44.75ZM83.17 60.78L83.5 60.85L83.42 60.56L83.24 60.45L83 60.44L83.17 60.78ZM95.38 28L95.38 28L95.38 28ZM95.93 27.47L95.93 27.47L95.93 27.47ZM85 51.02L85 51.02L85 51.03L85 51.02ZM76.75 31.65L76.75 31.65L76.75 31.65ZM75.99 37.85L75.99 37.85L75.99 37.85Z" />
						<path id="Layer" fill-rule="evenodd" class="shp1" d="M86.38 85.24L86.15 85.85L86.35 86.57L85.68 87.3L85.07 87.07L84.49 87.22L84.67 88.19L84.02 89.53L84.43 90.51L85.17 90.93L84.47 91.51L84.34 92.17L84.24 92.12L82.12 92.37L81.34 92.66L81.27 92.99L80.6 93.09L79.54 92.36L79.39 91.78L78.44 90.01L78.07 89.8L77.54 89.86L77.17 89.65L76.83 88.96L76.33 88.55L76.16 88.2L75.88 88.04L74.52 88.49L73.7 88.63L73.39 88.94L72.73 89.67L72.48 90.51L72.32 90.79L72.1 90.54L71.53 89.6L70.37 89.05L69.85 88.26L69.15 87.98L68.79 87.53L67.68 86.89L66.95 87.08L66.69 86.68L66.04 86.31L65.81 85.44L65.24 85.36L65.04 84.63L64.33 83.73L63.54 83.4L63.84 83.08L64.02 82.57L63.8 82.32L63.76 82.17L63.4 81.72L64.17 81.67L65.43 80.55L66.49 78.95L66.92 78.83L66.71 78.34L67.25 77.42L68.22 76.38L68.6 76.36L68.91 76.9L68.77 77.56L69.04 78.58L69.29 76.87L68.87 75.89L68.56 75.59L68.92 75.18L69.06 75.14L69.51 74.79L69.54 74.31L69.81 73.85L69.47 73.16L68.97 72.75L68.75 71.64L68.43 71.34L68.5 71.01L68.9 70.75L69.07 70.23L68.85 69.98L69.34 69.77L69.8 70.04L70.06 70.44L70.05 69.82L69.65 69.46L69.02 69.47L68.75 69.31L68.77 68.83L69.23 68.48L69.11 68.04L68.58 68.11L68.59 67.87L68.85 67.65L68.62 67.4L68.04 67.55L67.7 66.86L67.42 66.7L67.4 66.32L66.82 65.62L66.49 65.55L66.17 65.25L65.49 65.35L65.75 65.13L65.88 64.47L65.42 64.2L65.47 64.11L66.04 64.19L66.37 64.26L66.44 63.93L66.21 63.68L65.81 63.94L65.9 63.37L66.17 63.53L66.58 63.89L66.6 63.65L66.19 63.3L65.62 63.21L65.59 62.83L66.18 62.67L66.97 63.01L67.45 63.04L67.96 63.21L68.13 63.56L68.57 63.44L68.79 63.69L69.52 63.5L70.13 63.72L70.45 64.03L70.56 65.32L71.38 65.18L71.46 65.47L71.98 65.64L72.29 65.95L72.71 66.07L73.49 66.64L73.67 66.13L73.61 65.6L73.91 65.28L74.03 64.86L74.38 64.69L73.97 63.48L74.23 63.25L74.36 62.59L74.58 62.84L75.14 63.16L75.62 63.19L75.88 63.59L75.48 63.85L75.6 64.29L75.57 64.76L76.05 64.79L76.4 65.24L77.27 65.87L78.12 66.11L78.89 66.06L78.53 65.61L78.51 65.22L78.96 64.87L80.15 64.94L80.5 65.39L80.87 65.6L81.72 65.84L81.88 65.57L82.99 65.35L83.71 64.53L83.94 63.93L84.39 63.57L85.35 63.63L85.42 63.92L86.42 64.12L86.56 64.09L86.73 64.43L86.34 65.31L86.79 65.82L86.67 66.24L87 67.16L87.27 67.32L87.39 67.76L87.65 68.16L87.28 68.8L87.58 69.34L87.97 69.32L88.24 69.48L88.27 69.86L88.49 70.11L88.62 71.17L89.08 71.43L89.38 71.98L89.62 71.99L89.99 72.2L90 72.82L90.6 73.29L91.02 73.41L91.27 74.04L91.11 74.32L91.36 74.96L91.83 74.98L92.3 75.25L92.52 75.5L93.09 75.58L93.48 76.18L93.95 76.44L94.25 76.99L93.37 77.22L92.67 77.8L92.51 78.07L91.98 78.14L91.22 78.81L90.8 79.54L91.1 80.09L91.02 80.65L90.12 80.5L89.71 80.15L89.68 79.76L89.13 79.44L88.64 79.65L88.94 80.2L88.77 80.71L88.2 80.63L87.36 81.01L86.88 80.98L85.65 81.62L85.13 82.3L84.86 82.76L84.59 82.6L84.2 82.63L84.08 83.05L84.58 83.46L85.3 83.51L85.43 82.85L85.96 82.78L86.7 83.21L86.71 83.83L86.58 84.49L86.75 84.83L86.62 85.25L86.38 85.24ZM83.93 101.39L83.35 100.69L83.37 100.46L83.71 100.29L83.9 100.39L83.91 100.15L83.73 100.05L83.94 99.68L83.68 99.28L83.65 98.9L83.89 98.91L84 98.73L83.73 98.33L83.86 97.91L84.13 98.07L84.33 97.94L84.21 97.5L84.9 97.16L85.8 97.31L86.24 97.19L86.36 97.63L86.54 97.74L86.9 97.33L86.88 96.95L87.24 96.54L87.51 96.7L87.18 97.49L86.71 98.08L86.46 99.16L85.54 100.11L85.16 100.75L84.46 101.33L83.93 101.39Z" />
						<path id="Layer" fill-rule="evenodd" class="shp2" d="M84.39 91.46L85.09 90.88L84.36 90.46L83.94 89.48L84.59 88.14L84.41 87.17L84.99 87.02L85.6 87.24L86.27 86.52L86.07 85.79L86.3 85.19L86.65 85.02L87.09 85.52L88.44 85.32L88.93 85.97L90.62 84.97L90.96 85.66L90.54 86.16L91.07 86.95L91.08 87.57L92.02 87.01L92.4 86.37L93.25 87.23L93.72 87.49L93.96 88.13L94.59 87.26L95.62 87.61L95.77 86.71L96.55 86.42L97.17 87.27L98.89 87.28L99.34 87.78L100.23 88.17L99.87 88.58L100.64 90.01L101.96 91.13L102.84 91.52L103.05 92.01L102.02 92.52L101.99 92.99L101.45 93.3L101.06 94.18L100.56 93.77L100.08 93.74L99.5 93.9L98.94 93.58L98.21 93.77L97.61 93.54L97.21 93.81L97.16 94.52L97.27 95.19L96.58 95.53L96.28 95.61L96.19 96.41L95.85 97.2L95.92 97.73L96.71 98.92L97.1 99.52L97.16 100.05L97.83 102.52L97.56 102.98L97.69 103.18L97.43 103.64L97.53 104.31L97.73 105.04L97.77 105.8L98.19 106.78L98.35 107.36L98.76 107.72L98.93 108.07L99.85 108.6L100.17 108.9L100.78 109.13L101.13 109.58L100.83 109.9L99.91 109.98L99.81 110.17L99.87 110.7L100.33 110.96L101.15 111.68L102.5 113.81L102.92 114.79L103.12 115.51L103.84 116.18L104.05 116.67L104.03 117.14L103.56 117.73L103.21 117.9L103.09 118.33L102.95 118.36L102.84 118.55L102.49 118.1L102.38 117.43L102.46 116.86L102.77 116.54L102.6 116.2L101.86 115.77L101.78 115.48L101.48 114.94L101.11 114.73L100.87 114.71L100.37 115.16L99.93 115.27L99.77 115.55L99.17 115.94L98.64 116.01L98.43 116.38L98.45 116.76L98.77 117.06L99.04 118.08L98.98 118.41L98.51 119L98.5 119.24L98.1 119.5L97.58 119.33L96.95 119.58L96.21 120.63L95.25 120.81L94.83 121.31L94.2 121.56L93.4 121.22L93.19 120.41L93.27 120.4L93.7 119.84L93.97 119.83L94.46 119.62L94.82 119.21L94.99 118.7L95.14 118.66L95.32 118.76L95.76 118.65L96.03 118.19L95.96 117.66L96.26 116.72L96.19 116.19L96.53 115.4L96.77 114.56L96.51 114.16L96.12 114.19L95.58 113.63L95.61 113.15L95.15 112.89L95.03 112.45L95.23 112.32L95.59 111.91L95.53 111.39L94.6 110.85L94.81 110.48L94.55 110.09L94.22 110.02L94.05 109.67L94.03 108.43L93.57 108.17L93.21 107.72L92.77 107.83L92.31 107.57L92.43 107.15L92.22 106.66L91.81 106.3L91.32 105.03L91.05 103.15L90.82 102.9L90.95 102.48L90.8 101.66L90.06 101.24L90.24 100.72L89.96 99.71L89.86 99.03L89.54 98.54L89.52 98.34L89.84 97.79L89.63 97.3L89.9 96.84L89.86 95.84L89.89 95.36L89.96 95.03L89.99 94.56L89.35 93.95L89.05 93.41L87.75 92.04L86.12 92.09L85.91 92.46L85.12 92.74L84.25 92.12L84.39 91.46ZM93.19 120.41L92.59 120.5L91.43 121.43L91.52 122.34L91.3 122.95L90.86 123.07L90.49 123.71L89.88 123.49L89.03 122.39L89.16 121.96L88.91 121.33L88.62 121.41L87.72 120.4L87.52 119.67L87.12 119.32L86.56 118.14L85.96 117.91L85.67 117.13L86.24 116.35L86.96 116.4L87.03 116.69L87.47 116.57L88.08 116.8L88.38 117.34L88.98 117.81L90.06 118.06L91.12 118.79L91.99 118.56L92.38 119.15L92.66 119.31L93.63 119.13L93.73 119.81L93.7 119.84L93.58 119.85L93.38 119.98L93.17 120.35L93.19 120.41ZM89.54 98.54L89.55 98.72L89.48 99.05L89.11 98.84L88.54 98.76L88.32 98.51L88.61 98.43L89.32 98.47L89.52 98.34L89.47 98.44L89.54 98.54ZM81.42 101.05L81.66 101.07L81.91 100.84L81.99 101.13L81.7 101.21L81.61 101.36L81.55 101.25L81.5 101.35L81.4 101.29L81.42 101.05ZM81.61 101.36L81.9 101.94L82.26 102.15L83.68 101.62L84.05 101.83L84.3 102.47L84.59 102.39L84.59 103.25L84.65 103.77L84.43 104.38L84.12 104.7L83.35 104.75L83.68 105.67L82.96 106.49L82.52 107.46L82.27 107.68L81.74 108.6L81.34 108.86L81.06 108.7L80.94 108.27L80.48 108L80.08 108.26L79.76 108.82L79.29 108.79L79.06 108.54L78.82 108.52L79.12 107.59L79.42 106.42L79.4 106.03L80.07 105.31L80.56 105.1L80.66 104.92L80.2 104.65L80.18 104.27L80.76 104.11L81.08 103.56L80.96 103.12L81.08 102.7L80.93 102.12L81.23 101.8L81.5 101.35L81.59 101.4L81.61 101.36ZM78.82 108.52L78.82 108.53L78.82 108.52L78.82 108.52ZM89.98 100.95L89.97 101.18L89.75 100.93L89.98 100.95Z" />
						<path id="Layer" fill-rule="evenodd" class="shp3" d="M64 82.18L64.04 82.33L64.26 82.58L64.09 83.09L63.78 83.41L64.57 83.74L65.29 84.64L65.48 85.37L66.05 85.45L66.28 86.32L66.93 86.7L67.19 87.09L67.92 86.9L69.03 87.54L69.39 87.99L70.09 88.27L70.61 89.06L71.78 89.61L72.34 90.55L72.57 90.8L72.41 91.08L71.88 91.14L71.54 91.93L71.13 92.43L70.58 92.73L69.34 92.75C69.28 92.77 69.22 92.8 69.16 92.82C69.1 92.85 69.04 92.87 68.99 92.9C68.93 92.93 68.87 92.96 68.82 92.99C68.76 93.02 68.7 93.06 68.65 93.09L67.75 92.94L66.83 92.41L65.91 92.5L65.2 92.46L65.37 92.8L64.96 93.3L64.48 93.27L64.33 93.31L64.11 93.06L62.68 93.83L62.05 93.84L60.22 94.88L59.73 95.08L59.67 96.03L59.5 96.55L59.76 96.95L59.93 98.15L59.05 98.38L58.12 98.09L57.8 98.64L56.42 99.32L55.9 100L55.98 100.3L55.63 100.47L54.8 99.99L52.89 99.87L52.63 100.33L51.54 100.94L51.15 100.34L50.9 99.71L50.35 100.01L49.77 100.16L49.56 99.67L49.1 99.41L48.81 99.49L48.21 99.02L47.36 98.16L46.88 98.13L45.99 97.75L44.83 98.06L43.85 97.62L43.32 97.68L43.11 98.05L42.15 97.99L41.47 97.47L41.12 96.16L41.29 94.79L41.49 94.66L41.01 93.15L40.32 92.64L40.01 92.33L40.33 91.78L40.28 91.01L41.42 90.32L42.24 90.18L42.6 89.77L42.04 89.45L42.1 88.5L43.27 88.19L43.85 87.18L43.51 86.49L43.56 84.92L44.22 85.05L44.63 85.41L45.76 84.96L45.56 84.23L46.43 83.99L47.43 82.48L47.72 81.78L49.12 81.49L49.49 81.7L49.94 81.34L49.91 80.34L50.13 79.74L49.13 78.91L48.4 79.11L47.27 78.09L46.17 78.07L46.2 77.59L46.61 77.09L46.29 76.79L45.08 76.33L45.13 76.24L45.95 76.1L45.63 75.8L46.07 75.68L45.99 75.39L46.41 74.89L45.82 75.04L45.69 74.85L46.16 74.25L46.02 74.06L46.18 73.78L45.85 73.71L45.99 73.05L46.59 72.66L47.72 72.82L47.89 73.17L48.69 73.5L49.22 73.44L49.05 73.09L49.17 72.67L50.36 72.74L50.34 72.98L50.87 72.92L51.47 73.38L51.65 74.34L52.32 74.24L52.79 74.51L53.18 75.1L53.99 75.2L54.83 75.44L54.91 75.73L55.35 76.47L56.94 77.76L57.67 78.42L59.13 78.65L60.01 79.28L59.98 79.75L60.7 80.42L61.43 80.22L61.89 80.49L62.76 81.97L63.25 81.76L63.62 81.97L63.64 81.73L64 82.18ZM69.15 99.03L69.31 98.76L70.16 99L70.36 99.72L70.1 99.95L69.84 99.55L69.15 99.03ZM66.86 99.8L66.65 99.31L66.29 98.86L66.65 98.45L67.27 98.44L67.77 98.85L68.24 99.12L67.42 99.26L66.86 99.8ZM62.73 99.27L63.09 98.86L63.85 99.05L63.87 99.43L63.43 99.55L62.94 99.76L62.73 99.27ZM66.86 99.8L66.86 99.8L66.86 99.8Z" />
						<path id="Layer" fill-rule="evenodd" class="shp2" d="M40.34 92.4L40.56 91.79L40.61 91.08L41.75 90.39L42.62 90.15L42.98 89.75L42.43 89.43L42.43 88.57L43.74 88.22L44.19 87.24L43.85 86.56L43.98 85.04L44.59 85.27L45.05 85.53L46.09 85.02L45.99 84.35L46.72 84.15L47.72 82.64L48 81.94L49.4 81.64L49.77 81.86L50.13 81.45L50.1 80.45L50.32 79.84L49.32 79.02L48.59 79.21L47.36 78.14L46.41 78.08L46.29 77.64L46.7 77.14L46.39 76.84L45.17 76.39L45 76.9L44.89 77.94L43.85 79.31L43.78 79.64L43.22 80.18L43.32 80.85L42.89 80.97L42.24 81.45L41.66 82.23L40.68 82.65L40.42 83.11L39.23 83.66L38.15 84.88L37.94 85.25L38.4 85.52L38.89 85.31L39.52 85.3L39.36 85.57L39.29 85.9L38.34 85.85L38.07 86.31L38.09 86.69L38.68 86.53L39.32 86.91L38.83 87.12L38.64 87.87L38.05 88.26L37.39 89.6L36.58 90.37L36.24 90.54L36.37 90.73L37.37 90.7L38.18 91.65L38.48 92.19L39.34 92.2L40.04 92.48L40.34 92.4Z" />
						<path id="Layer" fill-rule="evenodd" class="shp1" d="M125 122.82L125.03 123.82L125.39 124.27L125.07 124.83L124.21 124.82L123.98 125.43L123.38 125.82L122.78 125.6L122.14 124.99L121.13 124.4L120.97 123.82L120.78 123.71L120.62 123.99L119.9 124.18L119.53 123.97L119.19 123.28L118.76 123.16L118.2 123.7L117.73 123.67L117.37 123.22L116.94 123.34L117.08 124.16L117.58 124.57L117.87 125.35L117.57 125.43L117.42 124.84L116.49 124.31L116.33 124.59L116.65 124.89L116.86 125.38L116.52 125.55L116.2 125.25L116.15 124.48L115.79 124.03L115.49 124.35L115.46 124.82L115.67 125.31L115.11 124.99L114.87 124.36L115.09 123.75L114.57 122.96L114.64 122.63L114.91 122.79L115.09 122.27L114.48 122.05L113.94 122.35L113.5 123.32L113.15 123.49L113.44 124.27L113.32 124.69L113.43 125.13L113.64 126.48L113.7 127.01L113.59 127.11L113.57 127.05L113.33 127.03L113.35 127.32L113.2 127.45L112.87 127.38L113.03 127.11L113.28 126.88L113.16 126.45L112.85 126.14L112.69 126.42L112.2 126.63L112.6 126.99L112.44 127.26L112.33 127.31L112.31 127.3L111.78 127.37L112.06 127.43L111.95 127.47L111.35 127.25L111.54 127.97L111.95 128.33L111.98 128.71L112.25 128.87L112.28 129.26L112.59 129.56L113.28 130.94L113.3 131.32L112.89 131.82L112.94 132.58L112.69 132.81L112.28 132.45L112.29 132.21L111.91 131.38L111.53 131.4L111.07 131.14L110.5 131.06L110.75 131.69L110.59 131.97L110.8 132.46L110.93 132.66L110.82 132.84L110.9 133.13L110.79 133.32L110.35 132.81L109.91 132.93L109.83 132.64L110.12 132.56L109.73 131.96L109.45 131.8L109.34 131.99L109.35 132.61L109.24 133.65L109.25 134.27L108.95 134.59L108.96 135.21L108.58 134.5L108.59 134.37L108.53 134.41L108.49 134.32L108.57 133.75L108.2 133.54L107.6 133.93L107.23 134.58L107.16 134.05L107.47 133.74L107.5 133.26L107.01 132.61L107.15 131.95L106.69 132.31L106.63 132.64L106.37 132.86L106.31 132.33L106.17 131.51L106.43 131.05L106.78 130.88L106.9 130.46L106.61 129.68L106.22 129.08L105.99 128.21L106.44 127.86L106.77 127.93L107.4 127.68L107.76 128.13L108.29 128.07L108.86 128.15L109.41 129.33L109.81 129.69L110.02 130.18L110.61 130.02L111.09 130.05L110.58 129.64L110.41 129.29L110.14 129.13L110.26 128.71L109.78 128.68L109.35 127.94L108.98 127.73L108.49 127.94L107.99 127.53L107.88 126.85L107.25 127.1L107.02 126.85L107.21 126.1L107.1 124.81L107.3 124.67L107.07 124.42L107.04 123.42L106.49 122.24L106.91 121.51L106.82 121.45L107.21 121.43L108 120.9L108.32 120.35L109.41 120.61L110.21 120.08L110.67 119.49L111.92 119.47L112.72 119.57L112.83 119.38L113.45 119.37L114.6 120.16L115.37 120.11L115.83 120.37L116.26 120.25L116.49 120.5L117.32 120.98L118.07 121.17L118.75 121.07L119.26 121.48L119.91 121.85L119.78 122.27L120.25 122.54L120.78 122.48L121.24 122.74L121.54 123.28L122.11 123.37L123.07 124.04L123.51 123.93L123.59 123.36L123.91 122.81L124.73 122.66L125.01 122.82L125 122.82ZM105.89 121.15L106 121.59L106.23 121.84L106.21 122.08L106.07 122.12L105.81 121.72L105.61 120.99L105.72 120.81L105.49 120.56L105.65 120.28L106.22 120.36L106.15 120.69L105.89 121.15ZM106.03 125.17L106.14 124.98L106.53 124.72L106.72 124.83L106.6 125.25L106.31 125.33L106.03 125.17ZM105.6 125.9L105.92 125.35L106.09 125.69L106.06 126.17L105.87 126.3L105.94 126.59L105.93 126.83L105.97 126.97L105.62 127.14L105.45 126.8L105.08 126.59L105.24 126.31L105.2 126.16L105.04 126.44L104.9 126.48L104.82 126.19L105.09 125.73L105.42 125.8L105.6 125.9ZM105.59 128.48L105.31 128.32L105.11 128.45L104.89 128.2L104.73 127.62L104.99 127.39L105.22 127.41L105.39 127.75L105.51 128.19L105.59 128.48ZM116.35 138.85L116.55 138.71L117.03 138.74L117.16 138.94L116.81 139.11C116.76 139.2 116.43 139.14 116.43 139.14L116.35 138.85ZM118.99 135.57L119.26 135.73L119.38 136.17L119.53 136.13L119.62 136.18L119.6 136.42L119.27 136.35L119.08 136.48L118.8 136.32L118.72 136.03L118.44 135.87L118.11 135.81L118.4 135.73L118.99 135.57ZM118.84 133.28L118.53 133.59L118.06 133.56L117.88 133.22L117.99 133.03L118.23 133.05L118.44 132.68L118.33 132.24L118.43 132.06L118.82 132.03L119.04 132.29L119.07 132.67L118.84 133.28ZM119.22 130.91L119.01 130.42L119.41 130.16L120.07 130.29L120.46 130.27L120.97 130.44L121.01 130.59L120.76 130.81L120.85 130.87L120.73 131.29L120.46 131.75L120 131.48L119.74 131.08L119.94 130.95L120.23 130.88L120.39 130.6L120.02 130.39L119.51 130.83L119.28 130.82L119.22 130.91ZM120.78 125.67L121.06 125.83L121.28 126.08L121.17 126.26L120.84 126.19L120.58 125.8L120.78 125.67ZM119.09 126.66L119.17 126.95L119.56 126.93L119.78 127.18L119.34 127.3L118.98 127.7L118.76 127.45L118.58 127.35L118.5 127.06L118.62 126.63L118.73 126.45L119.09 126.66ZM119.08 123.71L119.34 124.1L119.18 124.38L118.8 124.4L118.76 124.26L118.48 124.1L118.84 123.69L119.08 123.71ZM113.98 127.41L114.2 127.66L114.14 127.99L113.94 128.12L113.8 127.3L113.98 127.41ZM113.35 127.32L113.59 127.11L113.61 127.19L113.36 127.42L113.35 127.32ZM116.03 129.2L116.1 129.49L116.33 129.74L116.11 130.11L115.88 130.09L115.94 129.76L115.85 129.71L115.79 129.18L116.03 129.2ZM116.92 135.73L117.17 135.51L117.69 135.68L117.44 135.91L117 136.02L116.92 135.73ZM111.64 136.13L112.04 135.87L112.31 136.03L112.06 136.25L111.73 136.18L111.64 136.13ZM112.68 134.77L112.97 134.69L112.81 134.96L112.68 134.77ZM113.16 133.94L113.29 134.13L113.18 134.32L112.94 134.3L113.16 133.94ZM113 133.35L113.29 133.28L113.32 133.66L112.99 133.59L113 133.35ZM114.27 136.05L114.58 135.73L114.86 135.89L114.79 136.22L114.35 136.34L114.27 136.05ZM114.96 136.57L114.93 136.19L115.46 136.12L115.65 136.23L115.58 136.56L115.24 136.73L114.96 136.57ZM115.52 135.17L115.65 135.37L115.42 135.35L115.52 135.17ZM115.33 134.45L115.4 134.74L115.3 134.92L115.07 134.67L115.09 134.43L115.33 134.45ZM114.75 132.89L114.77 133.27L114.93 133.85L114.77 134.13L114.59 134.02L114.3 133.24L114.22 132.95L114.57 132.78L114.75 132.89ZM112.06 127.43L112.33 127.31L113.01 127.59L113.17 128.17L113.53 128.62L113.79 129.01L113.83 129.16L114.1 129.32L114.25 129.28L114.48 130.15L114.46 130.63L114.35 130.81L114.28 131.14L114.07 131.51L114.18 131.95L114.33 131.91L114.79 132.17L114.34 132.53L114.21 132.33L113.97 132.31L113.76 131.82L113.54 131.57L113.7 131.3L113.62 131.01L113.61 130.39L113.62 130.15L113.34 129.99L113.04 129.45L113.02 129.06L112.79 128.81L112.77 128.43L112.64 128.23L112.65 127.99L112.57 127.7L112.11 127.44L112.06 127.43ZM108.32 134.83L108.47 134.8L108.35 135.22L108.41 135.75L108.01 136.01L107.79 135.76L107.95 135.48L107.96 135.24L108.32 134.84L108.32 134.83ZM108.53 134.41L108.58 134.5L108.57 134.61L108.39 134.5L108.53 134.41ZM120.58 125.8L120.58 125.8L120.58 125.8ZM118.73 126.45L118.73 126.45L118.72 126.45L118.73 126.45Z" />
					</g>
				</g>
			</g>
		</g>
	</g>
	<path id="Shape 4" class="shp6" d="M28 81L100 81C100.55 81 101 81.45 101 82L101 99C101 99.55 100.55 100 100 100L28 100C27.45 100 27 99.55 27 99L27 82C27 81.45 27.45 81 28 81Z" />
	<path id="Shape 7" class="shp7" d="M93 89L89 93L85 89" />
	<path id="Shape 4 copy" class="shp6" d="M136 38L208 38C208.55 38 209 38.45 209 39L209 56C209 56.55 208.55 57 208 57L136 57C135.45 57 135 56.55 135 56L135 39C135 38.45 135.45 38 136 38Z" />
	<path id="Shape 7 copy" class="shp7" d="M201 46L197 50L193 46" />
</svg>