<svg xmlns="http://www.w3.org/2000/svg" xmlns:xlink="http://www.w3.org/1999/xlink" width="247.207" height="145.945" viewBox="0 0 247.207 145.945"><defs><clipPath id="a"><rect width="202" height="140" transform="translate(42.461 53.6)" fill="#fff" stroke="#707070" stroke-width="1"/></clipPath></defs><g transform="translate(-17.461 -51.6)"><rect width="247.207" height="145.945" rx="5" transform="translate(17.461 51.6)" fill="#fff"/><g clip-path="url(#a)"><g transform="translate(-113.607 -204.977) rotate(30)"><path d="M461.261,174.6l.213.213.532.213.319-.532.319.106v-.213l-.213-.426.106-.426-.426-.106-.213.106-.213-.106-.426.106v.319h.426l-.106.106-.319.213v.426Zm3.937-3.937-.106.745.106.532.851.319.106-.426-.532-.745-.426-.426Zm-5.426-1.17-.213.532.426.106-.213-.638Zm-1.383,2.66h-.425l-.213-.319.213-.319-.106-.213-.638-.213H456.9l-.319-.426v-.532l-.213-.319-.106-.426.319-.106.213-.426.213-.213.213.319v.213l.532.319.106-.106.319.106v-.319l-.426-.319-.213-.213.213-.532.745-.213h.638l.213.426.106.638-.213.638-.532.319v.213l.532.319.106.319-.319.213-.532.213v.426l-.107.532Zm.319.213.106.213.213-.319.426-.106-.106-.319-.426.213-.213.319Zm-2.021-.106.532.745.319-.106h.319l.213-.426h.426l.106-.106.106.426-.213.532v.426l-.106-.106-.106-.426-.319.319-.745.106-.745-.319L456.26,173l.319-.106-.213-.213.213-.319.107-.106Zm-2.021-2.766.319-.426v-.745l.213.745v.426Zm-.319,2.979.426.426.213-.213-.638-.213Zm1.277-.958-.106.745-.213.426.106.213.319-.426.319-.638c0,.106-.426-.213-.426-.319Zm-2.553-1.383.851-.213.638.319.426-.106.319.745.106.426-.319.638-.532.106-.319-.213-.426-.106-.532-.532-.319-.638.106-.426Zm2.234-6.916.213-.319h.638l-.426.319Zm-4.894,2.553v-.532l.426-.426h.426l-.106.319-.426.532-.319.106Zm-.213.319-.106-.745.106-.426.958-.532.106.106.426-.106.638.106.426-.106h.532l.426.213.319-.106.532-.958-.106-.532.106-.213-.106-.532.426-.745-.106-.213-.745.745-.745.319-.532.106-.319.532-.319.638-.532.426h-.638l-.745.532-.213-.106h-.426l-.213.638-.426.426.213.213.213-.106.851.426Zm2.447,6.6h0l.106-.319-.426-.426h-.213v-.426l.319-.319v-.426l-.319-.106v-.426l1.064-.532-.213-.213.426-.426.213.106.532-.213v-.745l-.213-.532.319-.319.532-.106.319.426.213-.106.213.106.213-.319.213-.426-.532-.532-.319.213h-.638l-.319-.319-.319-.426-.319-.106.213-.319v-.532l-.532-.319-.851.106-.426.213-.426-.106-.213.213.426.638-.106.213.426.532v.213l-.426-.213-.426.106-.106-.213.319-.319-.319-.532h-.106l-.426.638.213.319-.532.426-.319-.319h-.426l-.319-.213-.426.426.638.426v.532l-.319-.319-.213.106.106.745.426.213v.638l.319.319-.745.319-.319.851.319.213.426-.213.638.532.106.851-.213.106.106.426h.745l1.064.319.319.106Z" transform="translate(-88.12 -18.234)" fill="#ee2a7b" fill-rule="evenodd"/><path d="M492.852,111.11l.319-.106v-.958l.745-.745.638-.106.426-.532-.106-.745h.425l.532.213.319-.426v-.532h-.106l-.426-.319h-.213l-.213.106v.319l-.213-.213-.106-.319h-.319l.106.319-.106.638-.213-.106-.213-.426-.426.213-.106.319-.106-.426-.106-.638h-.213l-.213-.638-.213-.106-.426.106-.425-.213-.638-.106-.319-.426.106-.106.851.213.638-.106.532.106,1.064.106.745-.213.532-.958,1.064-.319.426-.426v-.106l-.319-.106-.106-.213-.426-.106-.532.106-.638-.532h-.319l-.425.532h-.319l-.106-.213.426-.319.106-.426-.532-.213-.106-.106h-.426l-.319.638h-.213v-.426h-.213l-.213.319H492l-.106-.319.319-.213v-.319l-.532-.319h-.532l-.319.213-.107.745-.319.106v.213l.319.745v.319l-.319.213-.213-.532h-.319l-.106.213-.426-.106-.638.319.532-.745.426-.106.213-.532-.106-.213h-.213l-.532.426-.319-.106.106-.213.319-.319v-.213l-.532-.106-.106-.213.426-.106.213.106h.638l.319-.851-.106-.319-.532.106-.213-.213.106-.426-.106-.319-.319.319H488.6l-.319-.319-.426.426v.213l.319.426-.213.319h-.213l-.425-.532-.319.213-.106.426L487,101h.426l.213.213v.213l-.319.106v.426l-.319.213v.319l.106.213-.319.213.213.532-.106.213-.319-.213-.319.213-.106.213-.319.213v-.532l.425-.958-.425-.106v-.213l.319-.319v-.851l-.213-.319h-.213l-.745,1.17v.638l-.745.958-.213.638.106.319-.106.532-.745.745-.319.213v-.532l-.213-.319.425-.745-.106-.532.213-.319-.213-.532.851-.851.106-.532.106-.106v-.319H483.7l-.426-.426-.213.106.106.532-.319.319v-.532l-.319-.319-.425-.106-.319.213.106.638-.213.319-.213-.319-.319-.213-.213.213.106.213.638.426.106.426-.106.213-.319-.319-.319.319v.319l.106.213-.213.213-.532-.319h-.213l-.319.532-.319.106v.213l.213.106-.532.319-.106.426.426.426-.319.319.426.213.213.213-.213.213-.638-.106-.213-.745-.319-.106.319-.319-.426-.213h-1.064l-.851-.638h-.213l-.319.319-.213-.319-.426.426-.532.106v.213l.638.745h.425l.213.319h.638l-.319.532v.532l.426.532-.106.426-.319-.319-.319-.638-.532-.213-.319-.319-.107.426-.425.319-.107-.638-.426.319v.319l-.532.426v.426l.532.213.213.532-.426-.106-.213-.213-.426.532-.106.426-.638.532v-.319l.426-.319-.106-.426.426-.745-.319-1.6-.426.213-.638.958v.638l.106.319-.425.532-.107-.532.213-.532-.213-.745-.319-.106-.532.319-.319.745.213.532v.532l.745.532.213.426-.319.638-.213-.745-.532-.213-.319-.958-.213-.106-.745.213-.106.319.745.532h.319l.213.213-.426-.106-.425.106.319.532-.532-.426-.106-.638-.213-.106-.106-.426-.319.213-.106.745.213.319-.106.638-.426-.213-.426.106-.532.638.106.106h.319l.319.426h-.425l-.319.213.319.213-.213.213h-.426v.319l.106.106-.319.106-.213-.319-.426.106-.319.426.106.213-.213.213h-.532l-.319.532.426.106,1.17-.319.319.213.532-.213h.319v.319l-.319.426L467,116l-.106.106-.213-.213-.107-.426-.425.106-.213-.213H465.4l.213.213-.213.319-.426-.213h-.319l.426.319.213.426h-.213l-.213.319.107.426-.107.319-.213-.426v-.532l-.426-.532-.426.426-.426.106-.213-.319.106-.213h-.319l-.426.532.426.426h.638l.532.319-.319.426-1.064.106-.213-.213H462.1l-.213.532.319.319-.319.426.426-.106.532-.638h.426l.213.319-.745.106-.106.532.319.426.638.319v.426l-.426-.319h-.319l-.426-.532h-.213l-.319.319.426.319h-.532l-.532.319v.319l.532.213.426-.319.319.319.426-.106.106.426.319.213v.319l-.745-.426h-.319l-.319.213-.745.106v.426l-.426.213-.213-.213-.638.319h-.426l-.106.213.425.213.319.426-.319.106-.213-.106-.106.106.319.319-.106.213-.532-.106-.107-.106-.213.213.319.319-.213.213.106.319h.319l-.319.213-.319.106-.213-.213v.319l-.213.319.319.106.745.213.106.319.319.106L460.3,126l-.319.319v.213h-.426l-.213-.213h-.745l-.532.532.213.213h.532v.319l.319.213v.426l-.319-.319h-.213l-.213.319v.319l-.106.106.213.319.106.319h-.213l-.319-.319-.213.106v.426l.426.106.106.213v.319l-.638-.426-.213.106v.426h.213v.532l.213.426h.319l.213-.426h.213l-.213.638-.319.106-.426.532h-.425l-.319.106v.213l-.425.213-.319.319.425.213-.106.213-.745.106-.319.426v.213l.532.213-.426.213-.213.426h-.425l-.106-.426-.319-.213-.213.213h-.532l.106.319-.213.213-.106.319.106.319h-.638l-.319.106v.532l-.532.319.106.213-.106.532-.319.319-.532.426.106.213.532-.319h.319v.319l-.319.106v.532l.319.426.638-.319.638-.106.851-.851V137.5l-.426.106.426-.532.106-.638h.213l.213-.213.532.106h.319l-.745.532v.319l.745.213-.213.319h-.426l-.745.851.532.213-.319.319v.532h-.532l-.426-.426h-.532l-.319.319v.426l-.426.213-.426.213.319-.319.213-.213-.319-.426v-.532l-.425-.532h-.426l-.213.426-.532.106v.213h.638l-.745.638-.426-.213-.426.106-.532.532.319.106.319-.106.106.106-.532.319-.213.319-.213-.213h-.426l-.106.213.638.319h.745l-.106.426.319.106v.319l-.638-.213-.106-.426H448.7l-.532-.426-.107-.319h-.213l-.106.426.532.638.532.426.426.106.213.213h-.426l-.745-.319-.745-.851-.319.213-.426-.319h-.532l-.319-.213-.213.213.106.426-.319.319.426.426.958-.319.106.213-.425.319.213.106.745-.319h.319l-.213.319-.851.319-.319.426-.532-.106-.426-.638h-.213l-.319.213-.426-.319-.319.213-.213-.106-.426.213.106.213.851.106.532.319.638.319-.213.426.213.319-.426.213-.213-.213v-.745l-.426-.213-.532.106.213.319-.106.319-.638-.426-.532.532.532.319h-.426l-.319.106-.106-.532h-.851l.213.532-.319.213-.106-.532-.426-.426-.213.106.106.319.532.532-.213.319.213.213.638-.213.851.213.532.319h.851l.213-.213h.426l-.532.532-.745-.106-.319.106-.851-.426-.532.106L442,145.9l-.426.319-.638.106v.213l.958.426-.319.426.426.106.319-.213h.745l-.532.426h-.745l-.213.106-.213-.106v.213l.425.213h.319l-.425.319-.213.106.106.213.213.213.213.319h.638l.319-.213.851-.106.532.106.213.106.426-.213v-.319l.425-.106.106.319h.426l.638-.426.319.106-.106.213-.319.213.532.106.213-.213-.106-.319.426-.638-.106.426.426.532-.319.426-.745.213-.319.319.213.213-.213.426h-.638v-.213l.319-.213-.106-.532-.532-.106-.532.532-.106.319-.426-.532-.425-.106-.638.106-.319-.106-.638.319H442.1l-.425-.213h-.106l.213.532-.106.319.213.213.425-.106.213-.213h.319l-.319.426v.426l-.213.213-.425-.213.213.638.319.319.745-.851.532.213-.213.213.106.426-.638.319.106.213.426.106-.213.319.319.426-.213.532h.213l.426-.638.425-.213.106-.532,1.064-.426h.532l.426-.106-.319.213-.532.426v.638l.213.426-.426-.319-.106-.638h-.319l-.319.638-.319.106.532.213-.426.638h-.319l-.213.426.319.106h.745l.213.319h-.532l-.213.319v.426l-.638-.426-.319.106-.106.426-.106-.532-.319.213-.532.638.213.532.745.745.106-.426.213.213.426-.213-.107-.213.213-.532.638.426-.319.213.319.319-.106.426-.319.213.319.745.213-.319.638-.213.319.426h-.532l-.319.213.319.426-.106.213-.957-.745-.319.106-.319-.213h-.425v.426l-.319.319.745,1.17.532.106.745.638,1.064.426.106.319-.213.106.426.426.319-.213-.213-.532h.319l.319.319-.851,1.383.532.745.213-.319.213.106.425-.213.532-.532h.213l.213-.213h.106l.106.426h.319l.957-.958V162.6l-.425-.532.745.426.638-.638-.106-.213.319-.213-.106-.426.426-.319.426-.106.106-.319-.426-.532.106-.319-.426-.532-.426-.319v-.426l.319.213.532.638.213.745.213.213h.319l-.106.319.213.319.532-.213-.106-.319-.213-.213.213-.319.426.426v.213l.745-.638.213-.638-.213-.532-.319-.106-.213-.319.213-.213V157.5h.319l.213-.213-.319-.319v-.532l.425-.319.426.426-.319.532.106.638-.106.426.319.532.106.319.532.638.638-.106.319.213-.213.213.319.213.319.532.319-.532-.106-1.7-.426-.745.213-.532.426-.213-.319-.532.213-.319.851-.106.213-.426v-.532l.426-.851-.426-.532-.213-1.277-.532-1.064V150.9l1.277-.426v-.851l.213-.638-.958-1.064-.851-.426v-1.064l.213-1.064-.106-1.17-.319-.745.213-.851-.213-1.49L457,139.729l.213-1.277.638-1.064.638-.319.745.213.957.106.532-.638-.106-1.064-.213-.426v-.638l.958-2.341v-1.277l.319-1.277.319-.745v-.851l-.426-.426v-.532l.851-.532.958-.213.426-.426v-.532l.745-1.383.745-1.064.213-.638-.319-.851-.319-.319V119.94l.319-.213.319-.426.213-.638.425-.213.426-.958.532-.426.638.319.213.319.319-.106.425-.426-.319-.532.319-.319V116l.106-.319-.426-.745.319-.213h.851l.638-.319.958.213.532.426.638.106.319.319.319-.106.213.213v-.638l-.319-.426.107-.851.425-.213-.106-.532-.426-.213v-.532l.638.213.638-.106.213-.106h0l.106-.213.213.106.213-.106-.106-.426.106-.532.425-.319.532.106.426.638,1.17.958.213.532.426.638.745.319h1.277l.638-.638.426-.426h.532l.957.638.638.106.319-.638.319-.213.426-.426h.532l.532-.319.213-.319-.213-.532-.213-.851.106-1.383.213-.426-.213-.426.319-.213.426-.638v-.319l.532-.213.745.106.426-.106v-.213l.425-.532h1.17l.532.319.638.851.425.426.638.213.958.106.213.426.532.532-.106.532-.532.745.213,1.064Zm-50,48.3.319.319-.425.106.106-.426Zm-1.277-3.085.319-.106.319.319-.213.426-.426-.638Zm.958-1.17v.426l-.213.106.213-.532Zm-.532-.213-.106.532-.426-.106.532-.426Zm-.958-2.128-.426-.319.426-.319v.638Zm-.213.426h.426l-.213.213-.213-.213Zm1.064.532.426.532-.213.532-.213-1.064Zm-.745.745-.319-.426.532-.213-.213.638Zm-.319-3.3-.426.319.319.213.319-.319-.213-.213Zm-.213-3.83.638.319-.532.106-.106-.426Zm.106-.958.532.319-.213.319-.319-.638Zm1.6-1.17.213.426H442l.319-.426Zm.532-.319.426.106.213.319-.532.319-.107-.745Zm4.894-3.511.532-.532.107.638-.319.213-.319-.319Zm.213-.851-.213.213-.532-.638h.532l.213.426Zm.532-1.17.851-.745.319.319-.532.426Zm.106,1.064.319-.638h.532l.106-.319h.426l.319.319-.426.532h-.638l-.319.213-.319-.106Zm7.235-7.873.213-.426.745-.106-.532.745-.426-.213Zm-.638,1.277-.213-.319h-.532l.426-.426.745-.106.425-.213-.638.745-.213.319Zm1.383-4.681.213.106v.319l-.319.213-.213-.319.319-.319Zm1.064-1.064.213-.319.532.106-.638.532-.106-.319Zm-.319-.958.532-.532.106.532-.425.745-.213-.745Zm3.4-5,.213-.319.319.106-.213.426-.319-.213Zm-3.3-2.873.213.319-.106.319-.319-.213.213-.426Zm.851-1.383-.638.638v-.532l.532-.851.106.745Zm.425-.426-.213-.319.213-.319.213.106-.213.532Zm1.6-1.277-.106.426-.958.745.213-.958.851-.213Zm.958-1.17.319-.532.532.426-.851.106Zm.745.213v1.064l-.532-.319-.745.532.106-.532,1.17-.745Zm.319-2.766.213.745v.958l-.745.213-.319-.213.638-.532h-.426l-.745.532-.213-.319.213-.532.532.106.532-.532-.106-.213.425-.213Zm.638.319-.319-.213v-.851l.745-.638v-.532l.745-.319.106.532-.532.426-.106.532-.638,1.064Zm1.809.319.745.638-.958,1.064-.638.319-.213.426-.426-.106.106-.532-.638.851h-.426l.106-.638.319-.213-.106-.532.426-.426v-.532l.638-1.064-.319,1.49.107.532.425-.745h.851l-.319-.532v-.426l.319.426Zm-.106-.638-.213-.213.425-.213.532.319v.426l-.745-.319Zm1.489.851.213-.638.319.426-.532.213Zm1.915-2.979-.107.319.107.426-.638.106-.213.319-.638-.106-.106.638h-.213v-.532l-.426-.106.426-.638-.532-.106.213-.638h.745l-.638-.319.319-.638.426.319-.106-.638.851.106.106.426.426.106v.958Zm0-1.6h.745v-.426h.638l.319-.426.319.532-.425.532v.426h-.638l-.532.213-.425-.851Zm2.234-3.085-.106-.426.532-.213-.426.638Zm-.957,1.064v-.638l.745-.213-.106.426a6.51,6.51,0,0,0-.638.426Zm1.809.958.106-.745.213.532-.319.213Zm-.213-.106-.213.213H470.3l-.745-.745.851-.745.213.319.532-.106.106.213-.426.319.106.532Zm1.49-1.383-.213.213-.638-.213v-.532l-.213-.745.319-.213.107.745.532.426.106.319Zm1.489.851-.319-.426-.426-.106-.106-.958.426-.319.532.426-.213.532.319.426-.213.426Zm4.149-2.128-.532-.213-.638-.319.426-.319h.638l.213.319-.106.532Zm.745-.426-.638-.745.958-.851.213.638-.426.532-.106.426Zm-1.17-1.064-.426.106-.851-.213-.213-.532.532.106.426-.319.319.319.319-.532.319.213.851-.851.106.319-1.383,1.383Zm1.7-1.064.745-.319.638.426-.213.532-.745.319v-.532l-.425-.426Zm1.49-1.383-.213.319-.213.106-.319-.532.532-.106.213.213Zm1.17-.851h-.425l.213-.426h.426l-.213.426Zm.851.319v-.319l.213-.213.319.213.213-.213.106-.426.319.213.426.106-.319.426h.638l-.213.638-.532.106-.638-.426Z" transform="translate(-88.644 -22.198)" fill="#9e1f63" fill-rule="evenodd"/><path d="M455.8,158.97l.319.213.319.532.319-.532-.106-1.7-.426-.745.213-.532.426-.213-.319-.532.213-.319.851-.106.213-.426v-.532l.426-.851-.426-.532-.213-1.277-.532-1.064v-.426l1.277-.426v-.851l.213-.638-.958-1.064-.851-.426v-1.064l.213-1.064-.106-1.17-.319-.745.213-.851-.213-1.489-.213-1.383.213-1.277.638-1.064.638-.319.745.213.957.106.532-.638-.106-1.064-.213-.426v-.638l.958-2.341v-1.277l.319-1.277.319-.745v-.851l-.426-.426V126.2l.851-.532.958-.213.426-.426V124.5l.745-1.383.745-1.064.213-.638-.319-.851-.319-.319v-1.277l.319-.213.319-.426.213-.638.425-.213.426-.958.532-.426.638.319.213.319.319-.106.425-.426-.319-.532.319-.319v-.319l.106-.319-.426-.745.319-.213h.851l.638-.319.958.213.532.426.638.106.319.319.319-.106.213.213v-.638l-.319-.426.106-.851.425-.213-.106-.532-.426-.213V111.2l.638.213.638-.106.213-.106.426.532.745.319.958,1.17.745.532,1.064.106.426.213.426.106.532.638.213.532h.213l.213-.106.532.638h.426l.213.426-.213.532.106.851-.213.638.106.532h.745l.213.638-.213.426.106.745.319.426.213.958-.106.426.106.426v1.064l-.213.426.319.851.532.213.532,1.064.319.319v.638h0l-.319.213h-.532l-.319-.426-.638.426-.426-.213-.213.426-.426-.213-.213-.426-.426.532-.319-.638-.319.213-.106.532-.213.426-.426.106-.213-.319-.319-.106.319.638.319.213-.426.426h-.426l-.426.213.532.213v.319l-.213.106-.106-.213-.319-.213-.213.213.213.426h.319l.319.319-.213.319-.319.958.106.426-.638.106.532.426.426.106.213.319-.319.106.319.426h.426l-.532.745h-.319l-.426.532.106.958-.532.957h-.319l-.532.532-.319-.426-.106.532.213.532-.638.426-.319.532h-.319l-.106-.426h-.426l-.213.532v.638l-.426.319-.213-.319h-.213l-.106.638-.213.106-.213-.319-.426.426-.213.426.426.106v.319l-.745.638-.532-.106-.106.319.213.532-.425.638-.851.106-.426-.106.638.851.106.745-.106.213.106.638-.106.851.425.426-.106.532-.319-.319-.106.213.213.851-.426.532.426.213v.319l-.213.106.319.638-.426.532.319.319.319.426.426.106v.532l.319-.213.319.532.532-.638.425.319.106.532.958.745-.106.319.851.532v.426l.532.532-.319.851-.745.745-.213.532-.745.213-.425-.213.106-.319-.638-.213-.319-.319v.319h-.319l-.213-.213-.532-.106-.213.319-.425.106-.213-.213-.426.532-.426-.213-.426.213v.213l.851.106.213.213.107-.319h.745l.319.213.638.106.319.532.426-.213.319.106.532-.319.638.213.319.319.106.532-.426.319h-.426l-.532.745h-.319l.106-.532-.213-.213-.213.319.106.319h-.426l-.426.426-.106.532-.425-.319v.319l-.319.319-.106-.106h-.319l-.319.426.426.106.532.532h-1.064l.851.319v.319l-.319.638.638.532-.638.106-.638-.213.319.532-.319.532.638.426-.532.426.426.532-.426.532-.106.532.532.426-.213.426-.106,1.383-.426.426-.213,1.064-.638.745-.319-.426-.532-.213-.638.319-1.064-.213-.106-.426-.213.851-.851.106-.426.958.319.319v.426l-.532.532-.745-.213-1.383.426h-.532l-.319-.319.319-.532-.213-1.277-.532-.213-.106-.532-.426-.213.106-.319.745-.106.426-.745-.213-.638-.638.319-.532-.532-.106-.532-.532-.213-.106-.745-.532-1.064-.213-.213-.319-.745-.425-.106-.319-.426.213-.213.106-.638-.213-.426.106-.426.532-.426-.106-.319-.426-.319.106-.319h-.213l-.106.426.426.426-.638.213.106-.638-.106-.213-.426-.213v-.851l-.213-.319-.107-1.17-.319-.958Zm16.385-1.6.426.638.213.213v-.638l.532-.532v-.426h-.638l-.532.745Zm-16.065,5.532v.426h.319l.106-.426Zm18.512-1.7.213.426.319-.319-.319-.213-.213.106Zm.213,2.553.213.213.319-.319.532-.106-.106-.213h-.532l-.426.426Zm-1.915,4.256.638-.213.106-.319-.213-.106.106-.319.638-.532.107-.319.425-.532-.106-.213-.426-.319.213-.426.106-.319.213-.213-.319-.213-.319.213h-.638l-.319.426-.213.532-.426.426.213.638-.213.106.532.851.213-.106-.106.426-.319.426.106.106Zm-4.149,1.7.106.532v.426l.213.213.213-.532.319-.851.107-.958.319-.958.106-.851-.319-.319-.319.532.106.213-.213.851-.319.213Z" transform="translate(-87.66 -21.437)" fill="#da1c5c" fill-rule="evenodd"/><path d="M494.623,151.575l-.106-.851,1.277-1.17.638-.319.745-1.277.745-1.17.532-1.383,1.17-1.915.851-2.021-.213-.851-1.17-1.383-.745-.213-1.277-1.809.213-.851.532-.745-.106-.851-.851-.532-.319-.638V132.53l.213-.213-.213-.532-.638-.106-.319-.426V130.3l.426-.532-.532-.106v-.532l.106-1.809.532-.106-1.277-2.873-1.17-2.128-.213-.745-.638-.745.426-1.277.532-.851.213-.851-.319-.319-1.277-.851-.213-.532-.426-.638-.745-.426-.425-.106-.532-1.277-.426-.426.213-.958.107-.745-.426-.106.426-.319.745-.319-.106-1.17.532-.745.106-.532-.532-.532-.213-.426-.958-.106-.638-.213-.426-.426-.638-.851-.532-.319h-1.17l-.426.532v.213l-.426.106-.745-.106-.532.213v.319l-.426.638-.319.213.213.426-.213.426-.106,1.383.213.851.213.532.106.213-.532.319H482.6l-.426.426-.319.213-.319.638-.638-.106-.957-.638h-.532l-.426.426-.638.638h-1.277l-.745-.319-.426-.638-.213-.532-1.17-.958-.425-.638-.532-.106-.426.319-.106.532.106.426-.213.106-.213-.106-.107.213.426.532.745.319.958,1.17.745.532,1.064.106.426.213.426.106.532.638.213.532h.213l.213-.106.532.638h.426l.213.426-.213.532.106.851-.213.638.106.532h.745l.213.638-.213.426.106.745.319.426.213.958-.106.426.106.426v1.064l-.213.426.319.851.532.213.532,1.064.319.319v.638l.213.213h.532l.532.532h1.064l.745.745-.425.213.319.426v.851l-.213.213.851.745-.638-.106-.213.106.745.638v.319l-.851-.426H484.3l-.745.532v.426l-.532.532v.426l-.213.213-.851.958-.426.426-.213.106-.106-.319h-.213l.213.532-.106.426-.532.106-.319.426.106.745.426.319-.638-.213-.213-.213-.426.106-.213.638.106.319-.425-.213-.106.213.426.426v.213l-.319.319-.106.319-.532.319-.213-.213-.106-.213-.319-.106-.426.106.106.532-.319.213.213.532-.213.532-.213.106-.319.426.213.532.106.106-.213.532.106.319.319-.213.319.319-.106.638-.106.319.213.532-.106.213.532.851.319.213-.213.319.426.638-.426.213.107.851-.213.319v1.17l.319.426-.319.638v.426l.213.319.745-.319.319.213.106-.319.638.638.426-.106.426.319.851-.106.213.106-.213.426h.319l.638-.426v.426l-.319.426.745.958.106.319-.213.532.213.106.319-.851.319-.213.106.319.532-.213h.425l.958-.638h.532l1.064-.745.106-.319.745.213.532-.106.426-.638.106.213-.213.426.319.106.319-.638.213.106-.213-.532.213-.213.319.532.319.106.106-.426.319.638.319-.106v-.426l.319.106.106.319.319-.319.745-.106.426.319.851-.106.106-.319-.213-.213.213-.106.426.106.106.319.532.106c-.745.106-.638-.106-.532-.319ZM484.3,131.254l-.213.213h-.532l-.425-.532.532-.319.851.106v.213h-.532l.319.319Zm-7.873,7.979.106-.319.319.319-.213.213-.213-.213Zm-.213.319.319.319.319-.213v.426l-.532.319-.319-.426.213-.426Zm5.745,14.576.106.426-.319.213-.213-.213.213-.106.213-.319Zm-.745-.532.213.426h-.213V153.6Zm-1.17-.638.851-.213-.106.319-.532.426-.425-.213.213-.319Zm-1.064-.851.532.532-.319.213-.213-.213v-.532Zm-1.277.213.532.106-.319.106-.213-.213Zm-3.724.745.638.213.106-.213-.426-.319v-.426h.319l.851.532.106.426-.426-.106-.213.213.319.426h.426l.106.532-.426.213-.426-.426-.532-.213-.319-.426-.319-.213Z" transform="translate(-86.586 -21.808)" fill="#ee2a7b" fill-rule="evenodd"/><path d="M493.857,162.407l.426-.638-.106-.532.426-.426v-.532l-1.277-2.341.213-2.128.319-.213.213-.745.425-.532.107-.213V154l-.213-.426-.106.213-2.234-.106-.958-.638h-1.064l-.532-.319-.426.106-.532-.532v.426l-.319-.106v.213l.319.319-.532.319-.213-.213h-.958l-.213-.213-.106.532-.532-.106-.532.213-.106.426-.319-.106-.851.426-.319.532v1.809l.319.106.213-.106h.532l-.638.532h-.426v.745l.426.745.745.745.319-.106V159l.532-.426.213.426-.319,1.49v.319l.319-.106.851-.532.638-.213.745.532h.319l.106-.532.426.319.213.426h.319l.851.532.319.638.532.213.425.638.958-.426,1.064.106Zm-11.278-6.49h.532l.106.319-.532.106-.107-.426Zm-.958,1.277-.319-.532h-.425l-.426.213-.213-.106.851-.426.213-.319v-.213h.319l.319.319h.532l.213.532-.319-.106-.425.319-.319.319Zm.958.426V157.3h.745l.213.638-.319.213-.638-.532Zm-2.447,3.192.213.106.425-.319v-.319l.426-.745.745-.106.319-.426.319-.426.426.106.106-.106-.106-.213-.319-.213-.426-.319-.851-.106-.213-.106-.319.319-.213.106-.319.319-.106-.319-.319-.106v.213l-.319.106.319.106v.319l-.319.213v.319l.426.106.426.426-.106.426h-.213Z" transform="translate(-86.138 -18.809)" fill="#ee2a7b" fill-rule="evenodd"/><path d="M496.068,166.841l-.107-.745-.426-.532-.213-.745-.213-.319-.319-.638v-.426l-.106-.426-.213-.213.106-.213-.106-.532-1.383-.213-.958.426-.426-.638-.532-.213-.319-.638-.851-.532-.319-.106-.213-.319-.426-.319-.106.426-.319.106-.745-.532-.638.106-.851.532-.319.106v.745l.213,1.17-.319.958-.851.958h-.638l-.638-.638-.106-.426-1.277-1.383-.106-.851h-.213l-.532.532-.745.106-.213.319H480l-.426.638.106.638-.213-.106v.958l-.745.851-.106.532.106.532-.426.426.319,1.277.319.319v.106l.532-.106.213-.638.745-.638,1.277-.319.958.106.638-.106.319.319.638-.426.532-.106.106.426h.532l.426.532.851-.106.213.213.958-.638.957.426.851.213.745.745.638.106.638.958h.745l.319.213h0l.851-.426,1.17-.106.106-.745.532-.213.213-.532Z" transform="translate(-86.221 -18.349)" fill="#9e1f63" fill-rule="evenodd"/><path d="M483.369,173.048l-.106-1.064.319-.426-.213-.213-.425-.106v-.532l-.426-.213-1.064.213-.638-.319-.851-1.064-.958.213-.106-.106.213-.426-.107-.638-.106-.851.532-.106.213-.638.745-.638,1.277-.319.958.106.638-.106.319.319.638-.426.532-.106.106.426h.532l.426.532.851-.106.213.213.958-.638.958.426.851.213.745.745.638.106.638.958h.745l.319.213-.638.851.426.213v.532l-.958.426-.532.958-.426.106-.106.851.638.319v.638H490.6l-.213-.319-.532.106-.213.745h-.851l.319.851h-.532l-.638.426-.745-.426-1.064.319-.532.426-.426-.532.106-.638-.319-1.064h-.426l-.638-.532Z" transform="translate(-86.183 -17.959)" fill="#da1c5c" fill-rule="evenodd"/><path d="M485.2,175.656l.532-.426,1.064-.319.745.426.638-.426h.532l-.319-.851h.851l.213-.745.532-.106.213.319h.532v-.638l-.638-.319.106-.851.426-.106.532-.958.958-.426V169.7l-.426-.213.638-.851.851-.426,1.17-.106.106-.745.532-.213.213-.532.638-.213.532.319.532-.319.638.851.638-.319.638.106.532.851.638-.532.851-.213.319.426h.426l1.17.426.213.638-.213.745.426.532v.851l.638.638.319.745.745,1.064.532.426.319.851.851.319,1.064.851.106.532.745.532-.319.213-.638.958-1.383.213-.638-.532-.213.426v.638l.532.851v.851l.638.638v.745h-.106l-1.17.319-.851.106-.426,1.064v.851l-.638.106-.426-.426-.851.213-.426-.319-.638.106-.532.638-.426-.213-.106-.532-.745-.106-.851.532-.426-.106-.851-.106-.213.213h-.425l-.426-.426-.958.426-.106-.319-.745-.426-1.6-.213-.638-.319-.319-.106-.638.532h-.851l-1.915.319-.532.213-.851-.426-.426.106V183.1l-.638-.958-.213-.745.426-.745.638-.213-.106-1.7-.319-.319-.107-.638-.319-.532-.426-1.383Z" transform="translate(-85.78 -17.908)" fill="#ee2a7b" fill-rule="evenodd"/><path d="M486.473,182.56l.426-.106.851.426.532-.213,1.915-.319h.851l.638-.532.319.106.638.319,1.6.213.745.426.106.319.958-.426.426.426h.426l.213-.213.851.106.426.106.851-.532.745.106.106.532.426.213.532-.638.638-.106.426.319.851-.213.426.426.638-.106v-.851l.426-1.064.851-.106,1.17-.319.532.106.638-.106-.106-.638.426-.319,1.383.426h1.49l.638-.426.638.106.426,1.277.638.426-.319.638.745,1.064,1.6-.213.532.426.106.638h.426v.851l.319.851,1.277,1.277.532-.638.745.426.638-.213.638.213.958-.745.426-.106.638,1.383.851.532.213.532.426-.319.957.213h.745l.532.319.638-.106.745.426.851.213.425-.426.213.638.319.213.106.745-.532.638-.532.106-.213,1.17.851.532.106.851-.319,1.064v.638l-.425.426h-1.383l-.638,1.064-.319.106-.106,1.277-.532.213-.106-.319h-.319l-.638.319-.745-.106-.319.319-.213.426-.638.106-.319.426-.532.532h-.851l-.426.426-.745-.213-.532.426-.426-.106-.319-.638h-.213l.106.426.319.319-.106.426-.638.851-.319.106-.107-.213.213-.106.532-.638-.106-.213-.213-.213-.106.319-.851.851-.532.106-.106.319h-.532l-.426-.319-.319.319-.638-.106-.107.213.426.319.851-.106.319.426.319.213.319-.106.213.213-.319.319.106.319.213-.213h.213v.426l.319-.319.213.213.213.638.319.319.638.213.213-.106-.958-.958-.958-1.17-.213-.745.213-.106.426.638.213.638,1.383,1.49.213.213.532-.532h.319l.532.319.213-.532.851-.106h.745l-.213.319-.319.319.319.426-.319.426-.958.106-1.17-.213-.638.319-.426.745h-.957l-1.277.958-.958.426-.957-.106-.532-.319.213-.213.319-1.064-.106-.319-.851-.745-.319.106-.638-.319-.319.319-.532-.213.638-.851.958-.638.851-.106.213-.213-.319-.319-.106-.745-.319-.106-.213.426-.426-.319-.638-.213-.638.106-.638.319-.426-.319h-.426l-.426-.426.319-.106.106-.213-.851-.319h-.958l-.213-.319h.532l.958-.106.532.106.426-.213.532-.319-.851.213-.426-.106-.319-.319-.213-.319-.213.426-.213.319h-.532v-.213l-.319-.213-.532.638-.638.106-.426.319v.638l-.532.745h-.319l.213.319-1.064,1.277h-.319l-.319-.319v.745l.213.319-.106.532h0l-.426-.426-.851.106-.532.319h-.958l-.851-.213-.426-.745.426-.319.426.106.106-.426.532-.958h.213v-.638l.106-1.064h.532l.745-.213.426.319h.745l.106-.319-.319-.426.106-.532-.106-.532-.745-.426-.745-.638-.106-.319-.532-.319v-.638l-.106-.958-.745-.426-.851-.851h-.319l-.106.319-.851-.106-.958-.745h-.638l-.426-.638-.213.213h-.638l-.213.319-.532-.319-.106.106-.426-.106.106.745-.106.319.106.638-.638.106-.638.426-1.809.319-.532.532h-.532l-.851.319-.638-.319-.213-.426-.745-.319h-.851l-.958-.638h-.532l-.426.426h-.532l-.213-.532-.638-.426-.638-.638.106-.106.106-.958.532-1.17h.532l.106-.851-.213-.745,1.7-1.915.319-.851.426-.426h.426l.106-.851-.106-.319-.106-.426.213-.319-.638-.426-.319-.851-.426-.319v-1.277Z" transform="translate(-85.882 -17.045)" fill="#9e1f63" fill-rule="evenodd"/><path d="M494.306,195.115l-.106-.638.106-.319-.106-.745.425.106.107-.106.532.319.213-.319h.638l.213-.213.426.638h.638l.958.745.851.106.106-.319h.319l.851.851.745.426.107.958v.638l.532.319.106.319.745.638.745.426.106.532-.106.532.319.426-.106.319h-.745l-.426-.319-.745.213h-.532l-.106,1.064v.638H500.9l-.532.958-.106.426-.426-.106-.425.319v-.106l-.319-.745.106-2.66-.532-.745-.213-.745-1.49-1.17-.106-.532-1.064-1.064-.319-1.277Z" transform="translate(-85.205 -16.195)" fill="#da1c5c" fill-rule="evenodd"/><path d="M485.332,195.438h.532l.426-.426h.532l.958.638h.851l.745.319.213.426.638.319.851-.319h.532l.532-.532,1.809-.319.638-.426,1.809-.319.319,1.277,1.064,1.064.106.532,1.49,1.17.213.745.532.745-.106,2.66.319.745.426.851.851.213h.958l.532-.319.851-.106.426.426-.319.213.319.213v.426l-.426.745-.532.106-.958.106-.213.532-.319.426.213.426v.851l-.319.426.213.745-.638-.106-.213-.213-.638-.426-.532.213-.319-.319-.958-.319-.851-.106-.638.106-1.7.745-.213.426-.745.213-.319.213-1.064-.106h-.425l-.638-.213-.426.213-.532-.106-.851.319-.958-.319-.213.106-.319-.319-.745-.106-.638.532-.319-.532.213-.319v-.426l-.319-.319h-.851l-.106-.638-.106-.426.426-.532-.958-.213-.425.638-.426-.426-.638.319-.213-.532-.958-.319-.106-.213.319-.745-.745-.532-.638-.426-.213-.426-.851-1.064-.213-.426-.532-.106.532-.638.532-.106.213-.426h.745l.532-.426v-.532l.958-1.49.638-1.7.532-1.064.638-.213.319-.532Z" transform="translate(-86.125 -16.092)" fill="#ee2a7b" fill-rule="evenodd"/><path d="M480.427,202.837l.532-.638.532-.106.213-.426h.745l.532-.426v-.532l.958-1.49.638-1.7.532-1.064.638-.213.319-.532-.319-.745-.638-.426-.638-.638-.638.426-.851-.213-1.17.106-.638-.213-.958.106-.425.745-.532.319v.532l-.851-.745-.851.745-.851.213v.532l-1.49.106-.957.319-.958-.106-1.915-1.064.106.319v.532l-.106.638h-1.17l-.106.213.532.532-.319.638v.532l.319.532-.426.532-.213.106.745.745.106.957.532.106,1.064,1.064.638.213.426.319,1.49.213.957.426.426-.532.319.106.426-.426.638-.319.426.106.213-.319.638-.532.426.106.532.106Z" transform="translate(-86.752 -16.15)" fill="#da1c5c" fill-rule="evenodd"/><path d="M471.306,195.888l1.915,1.064.957.106.958-.319,1.49-.106V196.1l.851-.213.851-.745.851.745v-.532l.532-.319.426-.745.958-.106.638.213,1.17-.106.851.213.745-.532.106-.958.532-1.17h0l-1.17-.745H482.9l-.319.213-.532-.213h-.425l-.319.426-.426-.319h-1.064l-.426.106-.319.532h-.532l-.213-.106h0l-1.277-.106-.532.532-.745.106-.745.745-1.064.213-1.064.319-.213-.213h-.638l-.745.532-.106-.106v.958Z" transform="translate(-86.675 -16.329)" fill="#ee2a7b" fill-rule="evenodd"/><path d="M485.813,208.006h.851l.319.319v.426l-.213.319.319.532.638-.532.745.106.319.319.213-.106.958.319.851-.319.532.106.426-.213.638.213h.426l1.064.106.319-.213.745-.213.213-.426,1.7-.745.638-.106.851.106.958.319.319.319.532-.213.638.426.213.213.638.106v.106l-.106,1.064-.319.319-.532-.106-.745.745.106,1.17-.213.532-.745.638.106.213.426.106.638.851.426.638h0l-.638-.106-.426.319-.745-.638h-.851l-.319.426H497.3l-.425.532h-.319l-.745.532v.638l.213.426-.319.319-1.17-.106-.532.319-.532-.319h-.532l-.425.319-.532-.106v-.426h-.745l-.638-.106-.532.532-.745.106h-.851l-.319-.106h0l-.106-.532-.106-.745-.745-1.277-1.17-.851h.106l.213-.532-.425-.532v-.426l.957-.958.213-.532-.426-.745-.851-.851-.213-1.064.426-.426Z" transform="translate(-85.755 -15.255)" fill="#da1c5c" fill-rule="evenodd"/><path d="M486.288,214.2l1.17.851.745,1.277.106.745.106.532-.319.319h-.532l-.638.426-1.383-.106-.638.319v.213l-.745.319-1.17.638v.106l-.532-.426-.319-.638-.426-.745-.213-1.064.106-.958.106.106.213-.213-.106-.532.638-.319.638-.213.426-.319,1.064-.213.532.106.851-.213Z" transform="translate(-86.017 -14.852)" fill="#ee2a7b" fill-rule="evenodd"/><path d="M481.824,216.066l-.106.957.213,1.064.426.745.319.638.532.426-.106.745-.426.745-1.064.426-.106.638-.319.745-.426.213-.425-.319-.532-1.277-1.064-.106-.213-.319.213-.638-.319-.426v-.745l.213-.532-.319-.958.213-1.17.319-.106.107-.426-.851-.426V214.9l.426-.745.532-.745h.213l.426.532.426-.532V213.3l.213.213.425.532.213.106.532.426.213.319v.851Z" transform="translate(-86.234 -14.91)" fill="#9e1f63" fill-rule="evenodd"/><path d="M476.3,203.389l.426-.426.638-.319.426.106.213-.319.638-.532.426.106.532.106.958.319.213.426.851,1.064.213.426.638.426.745.532-.319.745.106.213.958.319.213.532.638-.319.426.426.426-.638.958.213-.425.532.106.426.319,1.17-.425.426.213,1.064.851.851.425.745-.213.532-.958.958v.426l.426.532-.213.532H486.3l-.851.213-.532-.106-1.064.213-.425.319-.638.213-.638.319.106.532-.213.213-.213-.426v-.851l-.213-.319-.532-.426-.213-.106-.425-.532-.213-.213.106-.213.426-.426-.106-.638-.638-.106-.426-.426h-.638l-.319-.213v-.532l-.532-.532.213-.213-.638-.745v-.532l.213-.213.532.319.213-.319-.319-.426H477.9l-.851-.638v-.319l.532-.851.107-.745h-.319l-.213.106-.213-.106-.106-.532.638-.213h.213V205.3l-.532-.106-.319-.213-.106-.745-.319-.851Z" transform="translate(-86.349 -15.638)" fill="#9e1f63" fill-rule="evenodd"/><path d="M478.247,216.177v-1.064l.425-.745.532-.745h.213l.425.532.426-.532.106-.319.426-.426-.106-.638-.638-.106-.426-.426h-.638l-.319-.213v-.532l-.532-.532h-.106l-.426-.106-.532-.426-.319.319v.426l.426.319.213.319-.426.213-.426.106-.213.532v.745l-.319.638-.213.106.106.213.638.319.957,1.277.106.426Z" transform="translate(-86.381 -15.127)" fill="#ee2a7b" fill-rule="evenodd"/><path d="M477.77,206.281l-.106-.426.532-.213h.213v-.213l-.532-.106-.319-.213-.106-.745-.319-.851-.319-.213-.425.532-1.064-.319-1.49-.213-.426-.319-.532-.213-1.17-1.064-.532-.106v.106H470l-1.7.851-.106.745-.851.426-.213.958H466.6l-1.064-.532-.532.213-.745.532L463.3,205v.106l.213,1.064.638.638-.106.213.213.213.638-1.064.107-.638.425-.532h.638l.106.532.532.426.213.851.426.745.851.745h.213l.532.532-.426-.106-.532.106-.213.426.213.532h.638l.638.638.638.213.213.532.319.319.638-.106,1.277.106.638.319,1.383,1.383h-.426l-.638-.319.319.426.532.106h0l.213-.532-1.915-2.234-2.234-1.915-.106-.319.213-.213-.319-.426-.106-.426-.532-.638h-.319v-.426l.213-.213v-.851l.213-.213.638.532.213.426.319-.106v-.426l.532-.106h.319l.319-.319.426.213.213-.213.426.106.213.426.319-.213.638.213.426-.213.106.213.638-.106.532.213.319-.106.532.426,1.17.319Zm-5.745,6.6h.958l.319.319-.851-.106-.426-.213Zm-.638-.638h1.383l-.532.319-.851-.319Zm0-.638h1.064l.213.213-.532.213-.532-.106-.213-.319Zm-4.043-3.617.319.106.319.532-.213.106-.425-.745Zm-.426-.638.532.532-.532-.106v-.426Zm.106,1.6.532.426.106.532-.638-.958Zm-.638-.851.426.213.106.426-.532-.638Zm-.958-1.49.745.532.213.745h-.213l-.532-.532.106-.213-.319-.532Zm.426-1.17.851,1.17-.426.213-.213-.319-.426-.106-.106-.745Z" transform="translate(-87.18 -15.658)" fill="#ee2a7b" fill-rule="evenodd"/><path d="M473.92,213.1l.213-.532-1.915-2.128-2.234-2.021-.107-.319.213-.213-.426-.426-.106-.532-.532-.638-.319.106-.106-.426.319-.213v-.745l.213-.213.638.426.213.426.319-.106v-.319l.532-.106h.319l.319-.319.426.319.213-.213h.532l.213.532.319-.319.638.213.425-.106.213.106h.638l.532.213.426-.106.532.426.745.106.319.213.213-.106h.319l-.107.745-.532.851v.319l.851.638h.426l.319.426-.213.319-.532-.319-.213.213v.532l.638.745-.319.213-.426-.106-.532-.426-.319.319v.426l.426.319.213.319-.426.213-.426.106-.213.532v.745l-.319.638-.213.106-.638-.745-.319.106-.957-.213Z" transform="translate(-86.841 -15.453)" fill="#da1c5c" fill-rule="evenodd"/><path d="M463.419,205.007h.957l.745-.532.532-.213,1.064.532.532-.106.106-.958.958-.426.106-.745,1.7-.851h1.17l-.106-1.064-.745-.745-.638.213-1.17.638h-.745l-.638.319h-.638l-.638.213-.319-.426-1.277.106-.426-.106-.638.958.213.426-.426.532.213.958h0l.532.319v.319l-.425.106Z" transform="translate(-87.193 -15.766)" fill="#da1c5c" fill-rule="evenodd"/><path d="M464.584,201.331l.426.106,1.277-.106.319.426.638-.213h.638l.638-.319h.745l1.17-.638.851-.319.426-.532-.319-.532v-.532l.319-.638-.532-.532.106-.213h1.17l.106-.638v-.532l-.213-1.49v-.958l-1.064-.213-.532-.426-.745.213h-.745l-.638-.532h-1.064l-.532-.213-.213.532-.319.213v.426h-.851l-.213.319-1.383-.745-.426-.106-.106.532.106.532h-.532l-.319.532-.638.319-.745.958v.426l.745.319v.532l-.213.213-.638-.426-.638.213-.638-.213-.425.106-.851.532-.532.106-.426-.106-.532.106-.319-.213-.745-.213-.745.106v.426l-.213.213-.638-.213-.425-.426-.426.213-.319.213H453.2l.319.213v.319l.319.319v.532h.426l.319-.106.638.532.425-.426h.426l.213.426h.106l.851.426,1.489-.851.638.106h.958l-.106.532,1.383.745,1.7.319h.851Z" transform="translate(-87.826 -16.239)" fill="#ee2a7b" fill-rule="evenodd"/><path d="M478.821,192.991l.213.106h.532l.319-.532.426-.106h1.064l.426.319.319-.426h.426l.532.213.319-.213h1.064l1.17.745h.532l.106-.851-.213-.745,1.7-1.915.319-.851.426-.426h.425l.106-.851-.106-.319-.106-.426.213-.319-.638-.426-.319-.851-.426-.319v-1.277l.106-.745-.638-.958-.213-.745.426-.745.638-.213-.107-1.7-.319-.319-.106-.638-.319-.532-.426-1.383-.532-.745.106-.638-.319-1.064h-.426l-.638-.532-3.617.426-3.511-.213-.319.106-.958.851-.851.213-.213-.213.851-.426.745-.851-.319.106-.532.532-1.064.532-1.17-.319-.319-.745.213-.426.638.106.319.213v-.213l-.745-.426-1.49-.319-1.064.532h-.745l-.851.319-.532.638h-.745l-.532.638v.426h-.851l-1.277.745h-.958l-.319.745-.213.638-.213.106.106.319h-.319l.319,1.277-.106.851-.745.426v.426l.851.851-.106.638.426.426v.426l.213.638-.213.426.532,1.17.319.213.319.426.107,1.49-.213.213.213.426.213-.213.532.106.319-.213,1.064.213v.319l.426.532.532-.106.426.319-.319.638.213.319.213.106v.532l.319.213.319-.319h.319l-.638-.851.319-.106,1.277.638.851-.106-.213.532.638.426,1.064-.213.745.319,1.7,1.17.532.958h.532l.213-.319h.745l.426.426Z" transform="translate(-87.167 -17.582)" fill="#da1c5c" fill-rule="evenodd"/><path d="M466.041,185.6l.213.426.213-.213.532.106.319-.213,1.064.213v.319l.426.532.532-.106.426.319-.319.638.213.319.213.106v.532l.319.213.319-.319h.319l-.638-.851.319-.106,1.277.638.851-.106-.213.532.638.426,1.064-.213.745.319,1.7,1.17.532.958h.532l.213-.319h.745l.426.426.106.745-1.277-.106-.532.532-.745.106-.745.745-1.064.213-1.064.319-.213-.213h-.638l-.745.532-1.17-.319-.532-.426-.745.213h-.745l-.638-.532h-1.064l-.532-.213-.213.532-.319.213v.426H465.3l-.213.319-1.383-.745-.425-.106h0l-1.064-1.277-.532-.319-.958-.745-.532-.213-.213-.426v-.745l-.532-.851-.745-.426v-.426l.213-.213.319.213.426.213.958-.851.532-.106.532-.532.532-.106.319-.426h.958l.426.106.426-.319V185.6l.851.213.426-.213.319.213Z" transform="translate(-87.474 -16.68)" fill="#da1c5c" fill-rule="evenodd"/><path d="M450.39,171.7h.745l.958.213.319.213.532-.106.532.532.532.106-.319.638-.319.213.213.319.426.213.213.426.426-.319.106-.319.213-.106.213.213.745.532.106-.213.532-.319.213.106v.532l-.426.426-.319-.106-.426.319.638.213.319-.106.426.106.213.319.532-.106.106-.426.426-.532.958-.106.106-.213.532-.319.106-.319.213-.106.745.106-.638.213-.213.213-.107-.106-.213.319.213.213.532-.426h.638l.213-.106.213.213.425.106.745.745.532-.106.319.426-.106.532.532.426.426-.106.426.319h.425l.319,1.277-.106.851-.745.426v.426l.851.851-.106.638.426.426v.426l.213.638-.213.426.532,1.17.319.213.319.426.106,1.489-.319.426-.319-.213-.426.213-.851-.213v.532l-.425.319-.426-.106h-.958l-.319.426-.532.106-.532.532-.532.106-.958.851-.426-.213-.319-.213-.213.213v.426l.745.426.532.851v.745l.213.426.532.213.958.745.532.319,1.064,1.277-.106.532.106.532h-.532l-.319.532-.638.319-.745.958v.426l.745.319v.532l-.213.213-.638-.426-.638.213-.638-.213-.426.106-.851.532-.532.106-.426-.106-.532.106-.319-.213-.745-.213-.745.106v.426l-.213.213-.638-.213-.426-.426-.426.213-.319.213h-.213l-.213-.213-.851-.532-.319-.106-.319.319-.319-.106-.213-.532-.532.213v.319l-.213.319-.638-.213-.532.213-.426-.106h0l-.213-.532-.532-.319v-.745l.319-.958.319-.426v-.426l.319-.851.638-.638-.532-.319h-.532l-.638-.319-.532.213-.426-.213h-.425l-.426.213-.532-.426v-.319l-.532-.426h0l.106-.851-.319-.319-.106-.532-.745-.851h-.106l.319-.745-.426-.532.106-.319-.425-.851.106-.426h0l.213-.638.213-.958-.213-.745.319-.532.426-.532.745-.213.638.213.426-.213-.319-.532.426-.319v-.532l.213-.319-.319-.319h-.638l-.106-.319.213-.532.638.213.319-.213v-.638l.213-.426.107-.319.106-.213v-.106h.106l-.106-.532-.638-.106-.213-.426.106-.638,1.17-.319.426-.106.532.426v.638l.532.532.213-.319-.213-.426v-.426l.213-.106.426.319v.638l.532.745-.213-.532v-.851l-.106-.426.319-.532.426-.106.426.213.638-.213.851.958,1.17.213-1.064-.426-.958-.958h-.638l-.319-.213v-.426l.426-.319-.532-.319v-.638l-.532.106v-.426h.532l.426-.213-.532-.532v-.426h-.319l-.319-.319V171.7Z" transform="translate(-88.421 -17.569)" fill="#9e1f63" fill-rule="evenodd"/><path d="M453.506,198.1l.319.319v.532h-.319l-.106-.319.106-.426Z" transform="translate(-87.813 -15.881)" fill="#da1c5c" fill-rule="evenodd"/><path d="M449.188,197.245l.426.106.532-.213.638.213.213-.319v-.319l.532-.213.213.532.319.106.319-.319.319.106.851.532.532.426v.426l-.106.426.106.319h.745l.319-.106.638.532.426-.426h.425l.213.426-.532.638.319.958-1.064.213-.106,1.064-.532-.426h-.426l-1.277-.319v.745l-.532,1.064-.319-.532-.851-.532.106-.638-.638-.319-1.064,1.7-.745-.319-1.064.745-.532-.213-.106-.426-.319-.319-.213-.638-.319-.532h-.745l-.425.319.213.638-.638.319-.638-.106v-.426l.319-.106h.319V201.5l.106-.851.745-1.17.426-.106.532-.745.426-.213v-.532l-.638-.319.319-.426h.745l.106.319.532.106Z" transform="translate(-88.389 -15.984)" fill="#da1c5c" fill-rule="evenodd"/><path d="M444.39,186.556l.213-.638.213-.958-.213-.851.319-.426.319-.532.745-.213.745.213.426-.213-.319-.532.319-.213.106-.638.213-.319-.319-.213h-.638l-.106-.319.213-.532.532.213.319-.319v-.532l.213-.532v-.319l.213-.213v-.106l-.532-.213-.426-.426-.745-.426-.851.106-.532.426-.426-.213-.319.213h-.638l-.638.745-.958.532-.213-.106-.638.213v.638l-.532.426.213.638-.106.638-.213.532-.213.319-.425.319v.426l.638.532.532.213h-.638l-.319.213-.213.213.213.319h.319v.319h-.532l-.426-.532-.532-.213-.425.213.213.213h.426l.426.426.106-.106.532.319-.532-.213h-.319l-.745-.213H437.9l.319.106.213.426h.426l.319.319.319-.319.532-.106.106-.213h.426l.213-.426h.957l.319.319h.532l.213.426h.745l.213.426v.319l.638.426Zm-5.32-2.447.532-.213.213.319-.319.106-.106-.106-.319-.106Zm.213-.532h.426l.532.213-.106.106-.319-.106-.106-.213-.319.106Z" transform="translate(-88.804 -17.211)" fill="#ee2a7b" fill-rule="evenodd"/><path d="M444.754,188.975l.319-.745-.426-.532.106-.319-.425-.851.106-.426-.532-.213.106-.319-.319-.426h-.745l-.213-.426H442.2l-.319-.319h-.958l-.106.426h-.426l-.106.213-.532.106-.319.319-.213-.319H438.8l-.319-.426-.319-.106-.532.426-.426.638.319.319.106.958.745.213v.426l.851.638h.319l.319.319.426.106v.851l.638.213.213-.106h.426l.213.213.319.106.638.851h.638l.426.319.319-.106h.319v-.319l-.213-.213v-.426l-.106-.213.213-.426.213-.426Z" transform="translate(-88.849 -16.757)" fill="#da1c5c" fill-rule="evenodd"/><path d="M444.019,190.721V190.4l-.213-.213v-.426l-.106-.213.213-.426.213-.426h.319l.745.851.106.532.319.319-.106.851-.426.106-.638-.106-.319-.532Z" transform="translate(-88.433 -16.482)" fill="#77134d" fill-rule="evenodd"/><path d="M415.458,145.811l.425,1.064-.106-.532.106-.319-.425-.213Zm.319-1.277-.213.213.426.426v-.426l-.213-.213Zm-1.277-1.6.106.532.426.106-.532-.638Zm1.7-.638.319.426-.106-.319-.213-.106Zm-.958,0h.319l.532.319v.426l-.425-.106-.426-.638Zm-.213.106.745,1.17.532.426h-.426l-.745-.745-.213-.638Z" transform="translate(-90.3 -19.449)" fill="#7c0f6a" fill-rule="evenodd"/><path d="M409.173,184.789l.851-.106.958-.319.638-.426-.213-.532h.532l-.106.319h.532l.532-.532h.319l.106-.532,1.6-.106.106-.426.213.426.426-.319.319.106h.745l-.532-.638.426-.213.426-.532-.106-.426.426-.532.106-.532-.213-1.17-.319-.213.426-.319v-.532l-.319-.532.106-.638-.426-.213.213-.319h.319l-.638-.426-.426-.106-.426-.958-.851-.426-.319.213-.213.745-.319.106-1.17-1.064.532-1.277.638-.106.106-.426.426-.213.213-.319-.213.106.532-.426.532-.319-.638-.319L414.6,170l.213.319h-.532l.106.638-.426.638v-.426l.213-.319-.213-.426-.426.106.213.319h-.426l-.213-.213-.745.106v.426h-.213l-.213.426.426.213-.106.213h-.426v.213l-.532.106.213.426h.532l-.106.213.532-.213h.319l-.638.745-.745.213.213.319-.745.106-.426-.213-.319.426-.213-.532-1.277-.106v.213l-.745-.213-.106.745.426-.319v.426l.213.106.106.426-.319.106v-.319h-.745l.851.638.532-.213.213.426-.745.213-.106.319.213.213h-.745l.106.532-.213.106.425.213.319-.106-.213.213.638-.106.213.745,1.489-.106-.532.532-.319-.213-.532.958h.213l-.426.638-1.064.638h.426l.532-.319.319.213h.638l.426-.426.106.106.532.106-1.277.319h-.851l-.213.426-.638.213.213.213-.106.319.213.106h-.426l-.319-.319-.213.213-.106-.106-.745.426.106.213,1.7-.106-.638.426-.638.213-.319.532h.532l.106.319,1.277-.426-.958.638-.426.426.638-.106.957-.426-.106.319-.745.319h.426l-.106.319.638-.213Z" transform="translate(-90.824 -17.678)" fill="#da1c5c" fill-rule="evenodd"/><path d="M416.875,176.9l-.638-.426-.426-.106-.532-1.064-.851-.426-.319.213-.213.745-.426.106-1.17-1.064.638-1.277.532-.106.213-.532.319-.213.319-.319.532-.106.213-.213h.319l.532-.319.851.106.426.213v.532l.851,1.17-.426.319h.745l.213,1.17-.319-.958h-.319l.106.319-.106.426.426.106-.106.426-.638-.106v.426l-.425.319-.213-.106v.426l-.107.319Zm11.7-24.47.213-.426.213.106-.426.319Zm.958-3.3-.106-.213.319-.319-.213.532Zm-1.17,1.277.106-.638-.319.106-.106.319.319.213Zm.638-.319-.319-.319.213-.319v-.319l.213.106v.638l-.106.213Zm-.213,1.6-.213-.426h-.638l-.213-.319.319-.106.532.106.107-.213-.107-.213.213-.213.319.213.426.106-.213.213.106.319-.213.319.106.426-.532-.213Zm5.32,35,.319.213.319-.106-.213-.213h-.213l-.213.106Zm-5.639,3.085.745-.426.319.213h.319l-.213.319v.213l-.319.106-.426-.319-.426-.106Zm-9.043-20.215v.426l.319.213v-.426l-.319-.213Zm-2.553-.426.213-.532.106.319-.319.213Zm-1.6-1.809V166.9h.426l-.426.426Zm.745-.532.426-.532-.106.426-.319.106Zm1.064-1.064.213-.213h-.213v.213Zm-.532-.745.213.426.213-.213-.107-.319-.319.106Zm7.235-8.3.213.213v-.319l-.213.106Zm-.532.213h.426l.319.319-.213.213.638-.106v.426l-.319-.213-.532.106v-.426l-.106.319-.213-.213V156.9Zm-.106.958.319.532.106-.213-.213-.319Zm-7.873,3.3.213-.213-.319-.213.319-.426.532.213-.106-.426,1.277-.851.106.745-.426.426-.106.426.213.106-.319.532-.532-.106-.426.106-.426-.319Zm-.107.851.319.319.638-.532-.425-.213-.213.106-.106.213-.213.106Zm-.106.851-.532.106-.426-.426.213-.106.638.106.106.319Zm-.213.638-.319-.106v-.213l.532-.106-.213.426Zm-.532,1.383.107.319-.319.213v-.319l.213-.213Zm.426-.213-.106-.426.106-.213-.106-.319h-.319v.319l-.106.319.106.319Zm2.766.319v-.532l-.638.106-.319-.638.106-.213-.213-.106v.213l-.532-.319.213-.213.213.106v-.532l.638.426-.106-.638.319-.106.319.532-.106.958.532.319.319-.106.213.106-.425.213-.106.532-.426-.106Zm-.851,2.979,1.064-.213v.213l.532-.319-.213-.426h-.319l-.425-.532-.532.319.745.319-.426.213.106.213-.532.213Zm.745,1.915-.213-.532.958-.851-.426.958-.319.426Zm-.638.745.532-.319-.213-.851-.745.319v.745l.532-.319-.106.426Zm2.021-.106.106.851.532.213.106-.532-.426-.745-.319.213Zm1.809,9.15.745.426.638-.532-.426.106-.213-.426-.532.106c0-.106-.213.319-.213.319Zm-.532-2.979.213-.745.851-.745-.106.426.106.319-.638.638-.425.106Zm-.958,15.853.319-.319-.106-.213.319-.319.106.213.319-.319h.213l.213-.426.532.106.426-.213h.319l.213-.106.213.319h.319l.426.319h.426l-.106-.319.319-.213.106-.319-.106-.532.319-.319h.213l.106-.213.957-.213h.532l.638.426.213-.106h.638l.319.106.213-.426.638-.319.426.106.532-.426.425.106h.213l.319-.213.107.213.319.213.426-.319h.957l.532-.106.532.213h.319l.426-.319.426-.106.425-.426h.319l.319.106-.106-.319.638-.426.426-.106V186.9l-.106-.319.106-.319H435.6l-.532.213h-.319l-.532-.213H434l.213-.106h.106v-.106l-.425-.106-.426.106.532-.319h.319l.426-.213-.106-.319h-.426l.319-.319.213-.213.213.213.425-.319.106-.213h-.213l.106-.213h-.425l.213-.319.319.106.106.213.319-.426.319-.106v-.851l.319-.745-.213-.319-.107-.638-.957-.745L434,180.2h-.851l-.106.638-.213.319-.426-.426-.532-.106.851-.745v-.532l-.638-1.064h-.213l-.532-.319-.213-.426-.319.106-.213.106-.319-.106h-.213l.426-.106.213.106.426-.106.213.106.213.213.319-.106.319.106-.745-.958-.319-.426.213-.319.213-.106-.319-.213-.213-.319h-.106l-.426-.851-.638-.319-.958-.213v-.319l-.213-.106-.319-.958-.319-.532-.213-1.277-.319-.426H427.3l-.745-1.17-.425-.106-.319-.319-.638-.213-.213.213-.426.319-.638-.213h-.319l-.532-.213-.213-.319.319.106h.638l.532-.213.106-.426h.532l.532-.319-.532-.213v-.319l-.213-.213-.638.319-.106-.106.532-.426h.638l.319-.319.106-.319.213-.213.319-.745.213-.319v-.213l.213-.532-.106-.213.213-.638.425-.426v-.426l-.638-.638-.107.106H425.28l-.638-.106-.213.106h-.319l-.426-.106h-.319v.106l-.426.106-.426.213H422.3l-.319.213-.106-.106.426-.426.426-.745-.319.213-.426-.106.213-.106.106-.319,1.064-.851.319-.532.319-.106.213-.532-.213-.213.213-.319v-.213h-.532l-.213.213-.319-.106-.532.213h-.532l-.426.213h-.213l-.213.213.106-.213-.213-.106-.426.426.106-.319-.638-.319-.106.426-.213.213.106.319h-.106v.426l-.426.106.213.426-.213.426h-.213l.532.426.213.319-.532-.319-.213.213-.425-.319v.213l.106.213-.106.213-.213-.426-.213.426.213.213-.213.213.319.426H419l-.319.106-.426-.213.106.638v.213l.745-.106-.426.213v.106l.106.106.425-.213-.106.106.213.213-.319-.106-.106.106-.106.319.213.106h-.213l-.213.213.319.106.106.213-.532-.213-.106.319.213.106-.106.213-.213.213h-.532l-.213.213.213.106h.426l.319.106-.106.106h-.319l.426.426.106-.106.213.213,1.17-1.17-.213.319.213.106-.319.106-.319.638v.213l-.319.638.106.106-.319.745.106.532-.213.319.106.213.213-.106-.319.532-.106.745-.213.213v.213H419l-.106-.426.213-.638v-.319l.319-.426-.213-.958h.213l.745-.851-.532.745-.106.532.213.106v-.319l.319-.319.106.532.319-.638-.107-.426.213-.106-.106.532.638.426-.532-.106-.213.745.107.532.319.106.213.532-.426.426-.425,1.17.106.532-.426-.213v.532l.532.745-.213-.745.425-.106.958.745v-.532l-.426-.319.213-.106.745.532.532-.106v1.17h.532l.106-.426,1.383.106-.958.213-.532,1.6.638,1.17.319-.213v.638l.426-.532.532.106-.213.638.213.106-.532.426.213.745-.319.532.319.426.425.319h.319l-.213.213h-.319l-.319-.426-.319.106.213.426.319.213-.426-.106-.319-.319-.851.319-.426-.106-.958.426-.426.638-.638.426-.319.426.426-.106.213.106.106-.213.957-.213-.106.532.319.319-.319.213.213.426h.213l-.638,1.17-.426.106-.426.319h-.213l-.532.319h-.426l-.638.426.532.106v.426l-.426.213.638.106-.213.213.213.106.425-.106.426-.319.745-.213.107.319.532.106-.426.106v.319h.745v-.106l.426-.106.426.426.319.426h.851l.213-.319.426-.213.532-.213.213-.319.532-.213-.638.745-.638.638v.745h-.426l-.319.106-.426-.213-1.17-.106-.851.213v.426l-.319.319h-.426l-.106.958-.532.426-.106.213-.532.106-.106.532h-.213l-.106.319-.638.426-.319-.106-.426.319v.426h.532V191.8l.638.106Z" transform="translate(-90.441 -19.046)" fill="#9e1f63" fill-rule="evenodd"/><path d="M449.164,204l-.106-.426-.319-.213-.213-.638-.319-.532h-.851l-.426.319.213.638-.638.319-.638-.106-.106-.426.319-.213h.319v-.532l.107-.851.745-1.17.425-.213.532-.745.532-.213-.106-.532-.532-.319.319-.426h.638l.213.319.532.106.851-.319-.213-.532-.532-.319v-.851l.319-.957.426-.319v-.319l.319-.851.638-.638-.532-.319h-.532l-.638-.319-.532.213-.319-.106h-.532l-.426.213-.532-.426v-.319l-.532-.426-.426.106-.745-.106-.319-.532h-.426l-.213.106-.532-.319h-.532l-.638-.851-.319-.106-.213-.319h-.319l-.319.213-.532-.319v-.745l-.426-.213-.319-.319h-.319l-.745-.638-.106-.426-.638-.213-.106-.958-.319-.213-.107.106-.958.319-.213-.213-.851.426-.213.532.106.638-.213,1.064-.851.745v.319l-.851.213h-.426l-.532-.213-1.064.532-.213.532.213.319.532.213-.638.426-.851.213-1.064-.106-.532-.213-.426.213-.213-.426-.319-.319.213-.426-.426-.213-.426.213h-.638l-.319-.106.213.638-.106.319.957.851-.213.319.106.426-.106.426.319.426.106.532-.958-.106-.425.106-.426-.106-.532.106-.213-.213-.638.532-.745-1.064-.425-.106-.638.106-.532.532-.319-.106-.319.319-.319-.213-.532.106-.426.213-.851.106-.426.426.213.319.532-.213.532.106.106.213-.532-.106h-.319l.213.532.213-.426.319.106.107.319-.319.106-.532.213v.106h.532l.213.638-.106.319.532-.426.426.106.319-.106.851.319.213.319h.319l.638.426.426-.426.319.106-.106.319.106.213.426-.319.319.319-.213.532.213.426h.319l.532-.319.532.106.319.532-.425-.213H426.5l-.319.426.319.106.106.532-.213.426.107.319.425.106.745.851.638.106.638.426v.532l.213.426-.213.532-.106.106-.106.532.425.106.851.638.638,1.6-.745-.745-.213-.638-.532-.319-.319.213-.319,1.383v1.064l.425.319-.319.319-.106,1.915-.532,1.6-.638.426.532.213.106.106.319.106.106.532-.106.426.851-.106,1.064.426.532.532.532-.213.638.638h.745l.426.213.532-.532h1.277l.532.213.745-.106.851.426,1.277-.106.958.532.319.106V215.6l-.213-.851.213-.957.106-.426.638-.532.957-1.064h.319l.319.213.638.106.638.426h.425l.426-.319h.426l1.7,1.064.426.426,1.277.106.532-.426-.106-.319.532-.638,1.7-1.277h.107l-.213-.638.319-.851h-.851l-.851-.638-.106-1.489-.638-.745.426-.426.638-.106.213-.958-.532-.532-.106-.638.213-.106Zm5.745,15.321-.851-.319-.106-.213.213-.319h.213l-.106-.213h-.213v-.426l-.426-.213-.213-.319.213-.106v-.213l-.426-.213-.106-.426h.319l.106-.213-.319-.319.426-.638.851-.319.319-.319.319.319h.213l.106-.532-.213-.319.106-.532h.319l.106.851-.106.745.319,1.064-.319,1.277v.745l-.319.851Z" transform="translate(-89.961 -16.674)" fill="#ee2a7b" fill-rule="evenodd"/><path d="M448.841,210.29l-.213-.638.319-.851H448.1l-.851-.638-.106-1.49-.638-.745.426-.426.638-.106.213-.958-.532-.532-.106-.638.213-.319.638.213,1.064-.851.745.319.958-1.7.638.426-.106.638.851.426.319.532.532-.958v-.745l1.17.319h.532l.532.426.107-1.064,1.064-.213-.319-.851.532-.638.957.426,1.49-.851.638.213.957-.106-.106.532,1.383.851,1.7.319.958-.106.426.319-.638.958.213.426-.319.532.106.958-.638-.106-.426.213-.426.426h-.638l-.532.532-.638.106-.213.426.319.638.426.532-.426.638-.213.213.319.745.106.851.319.426,1.277.638.638.319.319.426,1.809,1.809v.532l.213.106v.532l.426.532.532.532.425.638.851.638.426.426.532.106.319.213h1.064l.426.106.638-.106.532.213-.106.426-.745.532v.213l.319.426h.532l1.064.213,2.234,1.17.851.638.532.532.958.213.426.319.213.426-.107.745-.213.319.107.426-.107.106v.213l-.532-.213-.425-.532-.213-.532.106-.426-.319-.213h-.851l-.213-.213-.532-.319h-.426l-.213.106-.213.638-.319.319v.319l-.319.638-.426.319v.426l.213.319.426.106.745.745.106.319-.106.745.106.213-.213.426-.532.106-.425.532-.106,1.277-.745.638-.106.638-.426.532-.851.106-.638-.638v-.426l.107-.213.319-.213.319-.426.106-.532-.106-.532.106-.106h.213l.319-.319v-.532l-.319-.426-.213-.958-.319-.426-.107-.851-.213-.851-.426-.213-.319.213-.745-.213-.213-.426h-.532l-.319-.319.106-.213.106-.532-.319-.426H467.14v-.426l-.426-.213-.319.106-.319-.213-.638-1.064h-.532l-.532-.213-.319.319h-.532l-.106-.426-.426-.319-.532-.106-1.064-.851-1.17-1.49-.319-.106-.106-.426-.532-.638h-.851l-.106-.532-.745-.745-.426-.532-.638-.319v-.745l-.426-.319v-.532l-.532-.851-.213-.426-.106-.319-.213-.426-.851-.213-.532-.319-1.809-.532-1.383.851v.426l-.532.638-1.064-.106Zm2.128,9.363h.213v-.213l.213-.213-.213-.213-.107.319-.213.106.106.213Zm7.022-4.468.319.106-.107-.213-.213.106Zm-2.234-1.6-.213.213.319.106.532-.213h.426l-.106-.319-.213-.319-.106.213-.638.319Zm-3.4,13.618.213-.106.319.106.425-.213v-.638l.213-.426h.532l.319.319h.319l.213-.426V224.76l.106-.319-.106-1.064.213-1.064-.745-.638.638-.426.106-.426-.106-.638-.319-.426-.426-.745-.213.213-.532-.426H453.1l-.958,1.17h-.425l-.638-.426v.638l-.106.426.425.426.106.426.319.319v.638l-.426.426.213.319h.532v.213l-.319.426-.213.958.213.319.319,1.17.213.958Zm17.661,7.341V233.8l.319-.319-.106-.638-.532-.745.532-1.383.532-.426.106-.745-.426-.532-.745.638h-.319l-.638-.319-.638.638-1.277-.106-1.064.319-.745-.106-.532-.319-.638.106-.319.319-.213-.213-.638.319-.106.958.638.532.638-.106,1.064.745.532.106.532.532,1.277.426.213-.213.532.426.106.426,1.277.532Z" transform="translate(-88.254 -15.837)" fill="#9e1f63" fill-rule="evenodd"/><path d="M428.276,210.877l.532.213.106.106.319.106.106.532-.106.426.851-.106,1.064.426.532.532.532-.213.638.638h.745l.425.213.532-.532h1.277l.532.213.745-.106.851.426,1.277-.106.958.532.319.106v.319l-.426.319.106.851-.106.638-.319.532-1.064.638a3.31,3.31,0,0,0-.426.638l-.851.319h-1.064l-.745.532-.638.319.319.213-.106.638-.426.213-.213.213.106-.106-.319-.106-.851,1.383-.532.319-1.064,1.809-.319.426.426.851.106.532.426.213.745.958-.638.638-.957.213v.638l-.851,1.277-.106.851.213.213-.213.319h-.958l-1.7.851v.532l-.638,1.064-.638-.319-.532-.426-.319.532-.425.426-.426-.319h-.532l-.213.213-.745-.106-1.17-.319-.426.213-.958.106-.851.851-1.064.106-.426.319v.426l-.851.426L417,235.56l-.958-.958-.532-1.277.106-.213-1.17-1.064-.851-.106-.426-.106V231.2l-.426-.638.638-1.17.638-.532.106-.532h-.638l-.426-.851.851-.851v-1.17l-.638-.426-.745-1.383.638-.213.532.106.745-.957-.532-.532.638-.638.106-1.809-.106-.745,1.064-.958h.425l.213-.532-.532-.851-.106-.638-1.277-.213-.532.532-1.49-.319-.958.532-.213-.426.106-.638-.426-.106-1.277.213v-.106l.638-.532-.426-.106.319-.319-.213-.213.107-.638-.426.426-.213-.106.106-.745-.213-.106v-.319l-.319.106-.213-.638.319-.638,1.064-.426.319.213.851-.106.426-.319-.319-.213-.106-.426,1.064-.532.106.213.425-.319.745.106.638.745.532-.426h.532l.638.319.745-.319.851-.213.213.213.745.426,2.021.319.957.213,1.383-.532,1.064.106.213.426.957.213.532-.532h.532l1.489.851.319-.426h.426l-.106-.213Zm13.406,12.235.851.106.426.213.106-.319-.532-.532-.851.213v.319Zm-1.6,1.809.213-.745.638-.532h-.532l-.638-.106-.532.319-.106.532.532.213.426.319Zm-3.4,1.915.319-.426.319-.319-.213-.319-.745.213-.107.532Z" transform="translate(-90.671 -15.146)" fill="#da1c5c" fill-rule="evenodd"/><path d="M413.539,231.391l-.106-.638-.319-.638.638-1.17.638-.638.106-.532h-.638l-.426-.745.958-.958-.106-1.064-.638-.426-.638-1.383.638-.106h.532l.638-.958-.425-.532.532-.532.106-1.809-.106-.745,1.064-.958h.426l.106-.532-.532-.851-.106-.638-1.277-.213-.532.532-1.6-.319-.851.426-.319-.319.106-.638-.426-.106-1.277.213.106.532.426.958-.213,1.7.106.319-.213.745.426.532-.319.319-.319.745-.106.958-.638.851v.532l-.745,1.064-.319,1.6v.426h.532l.319-.426.532-.319v.319l.106.319-.851.426v.532l.213.319.426-.426h.745l-.319.426.213.745-.319.638.106,1.49-.319,1.064-.213.319.213.106.851-.532,1.17.426.532.319.745-.426.745-.106Z" transform="translate(-90.722 -14.807)" fill="#9e1f63" fill-rule="evenodd"/><path d="M497.281,215.5h-.319l-.638.532v.638l.213.532-.319.319-1.17-.106-.532.213-.532-.319h-.532l-.426.319h-.532l-.106-.426h-.745L491,217.1l-.532.426-.745.213h-.958l-.319-.106-.319.319H487.6l-.638.426-1.383-.106-.532.319v.213l-.745.319-1.064.638-.106.745-.426.851-1.064.319v.638l-.426.851-.319.213H481v.851l1.064.745.532.851.319.106-.106.213.745,1.064.213.745.319.106.425-.532.426.532.638.106.319-.426h.426l.745.426.425-.213.107.426h.319l.319.213.638.106-.426.213-.426.426-.426-.319-.532-.106L486,228.161l-.532.213-.426.319-.532-.213-.425.532-.319.106-.213.532.638.638.638.319.638.532.106.426-.213.319v.532l.532.638.319.426.106-.319-.106-.319.213-.532.213.638.745.319.213.426-.106.426.319.426V233.8l.319-.638h.426l.213.532.851.532-.319-.532.106-.426-.319-.532-.426-.958-.319-.532v-.213h.319l.638.319-.213.213.213.213.319-.319.638.213v-.213l-.213-.213v-.213l-.213-.106-.426-.319v-.319l-.532-.426.532-.213h.532l.319-.213.745.532.106.213.532.106.106-.319-.426-.638.106-.638-.213-.319-1.277-.851-.426-.106-.213-.319h-.319l-.213-.319-.532-.106-.532-.532.638-.106.319-.426v-.319l-.532-.106.319-.426v-.319l.425.106.319.319-.106.319v.319l.319-.106.213-.638-.319-.426-.851-1.064-.319-.319-.106-.426-.638-.532.213-.319-.107-1.064.319-.532.638-.106.106.532h-.319l.106.319.851.426.106.638.532.426h.638l-.426-.319-.213-.426.106-.426.532.213.426.638.426.106.213-.319-.426-.319-.426-.106v-.319h1.064l.426.426.213-.213-.638-.532-.638-.106-.532-.638.319-.319.532.213.426-.213.213-.745.425-.106.638.426h.425l.532-.532v-.319h.213l.426.426h1.17l.851.213.638-.106.319-.638-.107-.638.745-.426v-.638l-.532-.213-.532-.851Zm-17.342,7.554v.532l.319.319.319.106.106.213-.106.106-.426-.213-.532-.532v-.213l-.319-.106v-.319l.532-.213.106.319Zm2.128,3.936v-.213l.213-.426h.213l.106.426-.213.213h-.319Zm0,.851V227.2l.319.213.213.426-.106.213.213.213.106.213.106.106-.213.319-.319-.213h-.425v-.319l-.106-.106v.319l-.106.106-.213-.213v-.532l.319-.106Zm1.064,2.021.213.213h-.319l-.106.213-.319-.106-.426-.426.106-.319.213-.106.319.213.319.319Zm14.9,4.043-.213-.213.106-.213.426-.213.213.106-.213.319c0,.106-.319.213-.319.213Zm0-3.936.426-.426h.319l.319.319.106-.106h.106l.106.213-.319.106-.106.213h-.319l-.213-.213h-.319l-.319.106.213-.213Zm-.958-2.979.106.638-.106.426-.426.213-.319-.213v-.213l.213-.106v-.426l-.319-.319v-.213l.319-.213.319.106.213.319Zm-.745-1.6-.425-.319.213-.426.638-.213.319-.213.532-.106.106.106-.106.319h.106l.107.426v.532h-.532l-.426-.213.106-.213.213-.213v-.319h-.426l-.106.319-.106.319-.213.106v.106Zm-1.383-5.107.106-.213h.319l.319.106v.213l-.319.106-.426-.213Zm-1.277,1.49h.426l.213.213.319-.213.319.106-.319.319-.106.532-.319-.106h-.213l-.213-.213-.106-.426v-.213Zm-1.277-2.447.213-.106.426.213v.319l-.319.213-.106-.106h-.319l.106-.532Zm-2.553,5.639h.213l.319.106.106.319-.106.213-.532-.638Zm-.532,0,.213-.106.107.106-.107.319-.213-.319Zm3.192.638.213-.106.213.213.319.106v.426l-.213.106-.106-.319h-.106l-.319-.426Zm4.469,5.32-.213-.213.106-.319.532-.106-.106.319-.319.319Zm-4.575,2.766.213-.426h.319l-.106.319-.319.106Zm.213-1.7.213-.213v.319l-.213-.106Zm0-.532v-.426l.213.106v.213l-.213.106Zm-.319-.638-.106-.213.213-.213.213.319-.319.106Zm2.553,1.7-.213-.213.107-.426h.319l.106.319-.319.319Zm.638-.106-.213-.319.426-.319h.213l.106.319-.213.319Zm-.213-1.277v-.213l.213.106-.213.106Zm-.745-.638.213-.106.213.213v.213l-.319-.106-.106-.213Zm-1.277-1.17h.213l.213.319.426.426v.319h-.213l-.638-.532-.213-.213.213-.319Zm-5.107-3.3.426-.319.745-.106.426.426.532.213.426.213.106.106h.319l.106-.106.638.638.213.426v.213l.106.319v.426l.319.319.106-.106h.532l-.213.532-.213-.106-.213.106-.426-.319-.319-.106v-.319l-.213-.213-.319-.532-.106-.213h-.319l-.532-.319-.213-.319-.319-.106-.213-.319-.213-.106-.107-.213-.213-.213h-.532l-.319.106Zm.745,8.192.106-.106.107.426.319.426-.213.426-.319-.106v-.319l-.106-.213.106-.532Zm0-.532.106.213h-.213Z" transform="translate(-86.157 -14.769)" fill="#ee2a7b" fill-rule="evenodd"/></g></g></g></svg>