<svg xmlns="http://www.w3.org/2000/svg" xmlns:xlink="http://www.w3.org/1999/xlink" width="226.402" height="174.189" viewBox="0 0 226.402 174.189"><defs><clipPath id="a"><rect width="172.076" height="119.261" fill="#fff" stroke="#707070" stroke-width="1"/></clipPath></defs><rect width="226.402" height="174.189" rx="10" transform="translate(0 0)" fill="#fff"/><path d="M10,1a9.01,9.01,0,0,0-9,9V164.189a9.01,9.01,0,0,0,9,9H216.4a9.01,9.01,0,0,0,9-9V10a9.01,9.01,0,0,0-9-9H10m0-1H216.4a10,10,0,0,1,10,10V164.189a10,10,0,0,1-10,10H10a10,10,0,0,1-10-10V10A10,10,0,0,1,10,0Z" transform="translate(0 0)" fill="#dadae4"/><g transform="translate(16.757 12.829)"><text transform="translate(0 12)" fill="#434b5d" font-size="11" font-family="OpenSans-Bold, Open Sans" font-weight="700"><tspan x="0" y="0">Label Image with Drop Down</tspan></text></g><g transform="translate(-10.561 -14.011)"><g transform="translate(38.757 53.303)" clip-path="url(#a)"><g transform="translate(66.948 -29.019) rotate(30)"><path d="M10.785,11.329l.181.181.453.181.272-.453.272.091v-.181l-.181-.363.091-.363-.363-.091-.181.091-.181-.091-.363.091v.272h.363l-.091.091-.272.181v.363Zm3.353-3.353-.091.634.091.453.725.272.091-.363L14.5,8.338l-.363-.363Zm-4.622-1-.181.453.363.091-.181-.544ZM8.338,9.244H7.976l-.181-.272L7.976,8.7l-.091-.181-.544-.181H7.069L6.8,7.976V7.522l-.181-.272-.091-.363L6.8,6.8l.181-.363.181-.181.181.272v.181l.453.272.091-.091.272.091V6.707l-.363-.272-.181-.181L7.794,5.8l.634-.181h.544l.181.363.091.544-.181.544-.453.272v.181l.453.272.091.272-.272.181-.453.181v.363l-.091.453Zm.272.181.091.181.181-.272.363-.091-.091-.272-.363.181-.181.272ZM6.888,9.335l.453.634.272-.091h.272l.181-.363h.362l.091-.091.091.363-.181.453V10.6l-.091-.091-.091-.363-.272.272-.634.091-.634-.272L6.525,9.97,6.8,9.879,6.616,9.7,6.8,9.426l.091-.091ZM5.166,6.979l.272-.363V5.982l.181.634v.363ZM4.894,9.516l.363.363L5.438,9.7l-.544-.181ZM5.982,8.7l-.091.634L5.71,9.7l.091.181.272-.363.272-.544c0,.091-.363-.181-.363-.272ZM3.806,7.522l.725-.181.544.272.363-.091.272.634.091.363-.272.544-.453.091L4.8,8.973l-.363-.091-.453-.453-.272-.544.091-.363Zm1.9-5.891.181-.272h.544l-.362.272ZM1.541,3.807V3.353L1.9,2.991h.363l-.091.272-.362.453-.272.091Zm-.181.272-.091-.634.091-.362.816-.453.091.091.362-.091.544.091.362-.091h.453l.363.181.272-.091L5.075,1.9,4.985,1.45l.091-.181L4.985.816,5.347.181,5.257,0,4.622.634,3.988.906,3.535,1l-.272.453-.272.544-.453.363H1.994l-.634.453-.181-.091H.816l-.181.544-.362.363.181.181.181-.091.725.363ZM3.444,9.7h0l.091-.272-.362-.363H2.991V8.7l.272-.272V8.066l-.272-.091V7.613L3.9,7.16l-.181-.181.363-.363.181.091.453-.181V5.891l-.181-.453L4.8,5.166l.453-.091.272.363.181-.091.181.091.181-.272L6.254,4.8,5.8,4.35l-.272.181H4.985L4.713,4.26,4.441,3.9l-.272-.091.181-.272V3.081L3.9,2.81,3.172,2.9l-.363.181-.362-.091-.181.181.363.544L2.538,3.9,2.9,4.35v.181L2.538,4.35l-.363.091L2.085,4.26l.272-.272-.272-.453H1.994l-.363.544.181.272-.453.363-.272-.272H.725L.453,4.26l-.362.363.544.363v.453L.363,5.166l-.181.091.091.634.363.181v.544l.272.272L.272,7.16,0,7.885l.272.181.363-.181.544.453.091.725-.181.091.091.363h.634l.906.272.272.091Z" transform="translate(38.338 56.192)" fill="#ee2a7b" fill-rule="evenodd"/><path d="M44.682,10.06l.272-.091V9.154l.634-.634.544-.091.363-.453L46.4,7.341h.362l.453.181.272-.363V6.707H47.4l-.363-.272h-.181l-.181.091V6.8l-.181-.181L46.4,6.344h-.272l.091.272-.091.544-.181-.091-.181-.363-.363.181-.091.272L45.225,6.8l-.091-.544h-.181l-.181-.544-.181-.091-.363.091-.362-.181-.544-.091-.272-.363.091-.091.725.181.544-.091.453.091.906.091.634-.181.453-.816.906-.272.363-.363V3.535l-.272-.091-.091-.181L47.4,3.172l-.453.091L46.4,2.81h-.272l-.362.453H45.5l-.091-.181.363-.272.091-.363-.453-.181-.091-.091h-.363l-.272.544H44.5V2.356h-.181l-.181.272h-.181l-.091-.272.272-.181V1.9l-.453-.272h-.453l-.272.181-.091.634-.272.091v.181l.272.634v.272l-.272.181-.181-.453h-.272l-.091.181-.363-.091-.544.272.453-.634.363-.091.181-.453-.091-.181h-.181l-.453.363-.272-.091.091-.181.272-.272V1.994L41.056,1.9l-.091-.181.363-.091.181.091h.544L42.325,1,42.234.725l-.453.091L41.6.634l.091-.363L41.6,0l-.272.272h-.272L40.784,0l-.363.363V.544l.272.363-.181.272h-.181L39.969.725,39.7.906l-.091.363.091.181h.362l.181.181v.181l-.272.091v.363l-.272.181v.272l.091.181-.272.181.181.453-.091.181-.272-.181-.272.181-.091.181-.272.181V3.625l.362-.816L38.7,2.719V2.538l.272-.272V1.541l-.181-.272h-.181l-.634,1V2.81l-.634.816-.181.544.091.272-.091.453-.634.634-.272.181V5.257l-.181-.272.362-.634L36.343,3.9l.181-.272-.181-.453.725-.725.091-.453L37.25,1.9V1.631h-.362l-.363-.363-.181.091.091.453-.272.272V1.631l-.272-.272-.362-.091-.272.181.091.544-.181.272-.181-.272-.272-.181-.181.181.091.181.544.363.091.363-.091.181-.272-.272-.272.272v.272l.091.181-.181.181-.453-.272H33.9l-.272.453-.272.091v.181l.181.091-.453.272-.091.363.363.363-.272.272.363.181.181.181-.181.181L32.9,5.982l-.181-.634-.272-.091.272-.272L32.356,4.8h-.906l-.725-.544h-.181l-.272.272L30.09,4.26l-.363.363-.453.091v.181l.544.634h.362l.181.272h.544l-.272.453v.453L31,7.16l-.091.363-.272-.272-.272-.544-.453-.181-.272-.272-.091.363-.362.272-.091-.544-.363.272v.272l-.453.363v.363l.453.181.181.453-.362-.091-.181-.181-.363.453-.091.363-.544.453V8.973l.363-.272-.091-.363.362-.634-.272-1.359-.363.181-.544.816v.544l.091.272-.362.453-.091-.453.181-.453-.181-.634-.272-.091-.453.272-.272.634.181.453v.453l.634.453.181.363-.272.544-.181-.634-.453-.181-.272-.816-.181-.091-.634.181-.091.272.634.453h.272l.181.181-.363-.091-.362.091.272.453-.453-.363-.091-.544-.181-.091L24.2,8.61l-.272.181-.091.634.181.272-.091.544-.362-.181-.363.091-.453.544.091.091h.272l.272.363h-.362l-.272.181.272.181-.181.181h-.363v.272l.091.091-.272.091-.181-.272-.363.091-.272.363.091.181-.181.181h-.453l-.272.453.363.091,1-.272.272.181.453-.181h.272v.272l-.272.363-.091.634-.091.091-.181-.181-.091-.363-.362.091-.181-.181H21.3l.181.181-.181.272-.362-.181h-.272l.363.272.181.363h-.181l-.181.272.091.363-.091.272-.181-.363v-.453l-.363-.453-.363.363-.362.091L19.4,14.41l.091-.181h-.272l-.363.453.363.363h.544l.453.272-.272.363-.906.091-.181-.181h-.363l-.181.453.272.272-.272.363.362-.091.453-.544h.362l.181.272-.634.091-.091.453.272.363.544.272v.363l-.362-.272h-.272l-.363-.453H18.58l-.272.272.362.272h-.453l-.453.272v.272l.453.181.362-.272.272.272.363-.091.091.363.272.181v.272l-.634-.363H18.67l-.272.181-.634.091V19.4l-.363.181L17.22,19.4l-.544.272h-.363l-.091.181.362.181.272.363-.272.091-.181-.091-.091.091.272.272-.091.181-.453-.091-.091-.091-.181.181.272.272-.181.181.091.272h.272l-.272.181-.272.091-.181-.181v.272l-.181.272.272.091.634.181.091.272.272.091.363-.181-.272.272V23.2h-.362l-.181-.181H15.5l-.453.453.181.181h.453v.272l.272.181v.363l-.272-.272H15.5l-.181.272v.272l-.091.091.181.272.091.272h-.181l-.272-.272-.181.091v.363l.363.091.091.181V26.1l-.544-.363-.181.091v.363h.181v.453l.181.363h.272l.181-.363h.181l-.181.544-.272.091-.363.453H14.41l-.272.091v.181l-.362.181-.272.272.362.181-.091.181-.634.091-.272.363v.181l.453.181-.363.181-.181.363h-.362l-.091-.363-.272-.181-.181.181H11.42l.091.272-.181.181-.091.272.091.272h-.544l-.272.091v.453l-.453.272.091.181-.091.453-.272.272-.453.363.091.181.453-.272h.272v.272l-.272.091v.453l.272.363.544-.272.544-.091.725-.725v-.363l-.363.091.363-.453.091-.544h.181l.181-.181.453.091h.272l-.634.453v.272l.634.181-.181.272H12.6l-.634.725.453.181-.272.272v.453h-.453l-.363-.363h-.453l-.272.272v.363l-.363.181-.362.181.272-.272.181-.181-.272-.363v-.453L9.7,33.262H9.335l-.181.363-.453.091V33.9h.544l-.634.544-.363-.181-.363.091-.453.453.272.091.272-.091.091.091-.453.272-.181.272-.181-.181H6.888l-.091.181.544.272h.634l-.091.363.272.091v.272l-.544-.181-.091-.363H7.069l-.453-.363-.091-.272H6.344l-.091.363.453.544.453.363.363.091L7.7,36.8H7.341l-.634-.272L6.072,35.8l-.272.181-.363-.272H4.985l-.272-.181-.181.181.091.363-.272.272.363.363.816-.272.091.181-.362.272.181.091.635-.272h.272l-.181.272-.725.272-.272.363-.453-.091-.363-.544H4.169l-.272.181-.363-.272-.272.181-.181-.091-.363.181.091.181.725.091.453.272.544.272-.181.363.181.272-.363.181-.181-.181v-.634l-.363-.181-.453.091.181.272-.091.272-.544-.363-.453.453.453.272H2.356l-.272.091-.091-.453H1.269l.181.453-.272.181-.091-.453-.363-.363-.181.091.091.272.453.453-.181.272.181.181.544-.181.725.181.453.272h.725l.181-.181h.363l-.453.453-.634-.091-.272.091L1.994,39.7l-.453.091L1.359,39.7,1,39.969l-.544.091v.181l.816.363L1,40.966l.362.091.272-.181h.634l-.453.363H1.178L1,41.328l-.181-.091v.181l.362.181H1.45l-.362.272-.181.091L1,42.144l.181.181.181.272H1.9l.272-.181.725-.091.453.091.181.091.363-.181v-.272l.362-.091.091.272h.363l.544-.363.272.091-.091.181-.272.181.453.091.181-.181-.091-.272.363-.544-.091.363.363.453-.272.363-.635.181-.272.272.181.181-.181.363H4.622v-.181l.272-.181L4.8,42.778l-.453-.091-.453.453-.091.272-.363-.453-.362-.091-.544.091-.272-.091-.544.272H1.45l-.362-.181H1l.181.453-.091.272.181.181.362-.091.181-.181h.272l-.272.363v.363l-.181.181-.362-.181.181.544.272.272.634-.725.453.181-.181.181.091.362-.544.272.091.181.363.091-.181.272.272.363-.181.453h.181l.363-.544.362-.181.091-.453.906-.363h.453l.363-.091-.272.181-.453.363v.544l.181.363-.363-.272-.091-.544H3.988l-.272.544-.272.091.453.181-.363.544H3.263l-.181.363.272.091h.634l.181.272H3.716l-.181.272v.363l-.544-.363-.272.091-.091.363-.091-.453-.272.181-.453.544.181.453.634.634.091-.363.181.181.363-.181-.091-.181.181-.453L3.9,49.3l-.272.181.272.272-.091.363-.272.181.272.634.181-.272.544-.181.272.363H4.35l-.272.181.272.363-.091.181-.816-.634-.272.091L2.9,50.845H2.538v.363l-.272.272.634,1,.453.091.634.544.906.363.091.272-.181.091.363.363.272-.181-.181-.453h.272l.272.272-.725,1.178.453.634.181-.272.181.091.362-.181.453-.453h.181l.181-.181H7.16l.091.363h.272l.816-.816v-.272l-.362-.453.634.363.544-.544-.091-.181.272-.181-.091-.363.363-.272L9.97,52.2l.091-.272L9.7,51.479l.091-.272-.363-.453-.362-.272V50.12l.272.181.453.544.181.634.181.181h.272l-.091.272.181.272.453-.181-.091-.272-.181-.181.181-.272.363.363v.181l.634-.544.181-.544-.181-.453L11.6,50.21l-.181-.272.181-.181v-.181h.272l.181-.181-.272-.272v-.453l.362-.272.363.363-.272.453.091.544-.091.363.272.453.091.272.453.544.544-.091.272.181-.181.181.272.181.272.453.272-.453-.091-1.45-.363-.634.181-.453.363-.181-.272-.453L14.5,48.4l.725-.091.181-.363v-.453l.362-.725-.362-.453-.181-1.088-.453-.906v-.363l1.088-.363v-.725l.181-.544-.816-.906-.725-.363V40.15l.181-.906-.091-1-.272-.634.181-.725-.181-1.269-.181-1.178.181-1.088.544-.906.544-.272.634.181.816.091.453-.544L17.22,31l-.181-.363V30.09l.816-1.994V27.008l.272-1.088.272-.634v-.725l-.363-.363v-.453l.725-.453.816-.181.363-.363V22.3l.634-1.178.634-.906.181-.544-.272-.725-.272-.272V17.583l.272-.181.272-.363.181-.544.362-.181L22.3,15.5l.453-.363.544.272.181.272.272-.091.362-.363-.272-.453.272-.272v-.272l.091-.272-.363-.634.272-.181h.725l.544-.272.816.181.453.363.544.091.272.272.272-.091.181.181v-.544l-.272-.363.091-.725.362-.181-.091-.453-.363-.181v-.453l.544.181.544-.091.181-.091h0L29,10.785l.181.091.181-.091-.091-.363.091-.453.362-.272.453.091.363.544,1,.816.181.453.363.544.634.272h1.088l.544-.544.363-.363h.453l.816.544.544.091L36.8,11.6l.272-.181.363-.363h.453l.453-.272.181-.272-.181-.453-.181-.725.091-1.178.181-.363-.181-.363.272-.181.363-.544V6.435l.453-.181.634.091.363-.091V6.072l.362-.453h1l.453.272.544.725.362.363.544.181.816.091.181.363.453.453-.091.453-.453.634.181.906ZM2.084,51.207l.272.272-.362.091.091-.363ZM1,48.579l.272-.091.272.272-.181.363L1,48.579Zm.816-1v.363l-.181.091.181-.453ZM1.359,47.4l-.091.453-.362-.091.453-.363ZM.544,45.588l-.363-.272.363-.272v.544Zm-.181.363H.725l-.181.181L.362,45.95Zm.906.453.363.453-.181.453L1.269,46.4Zm-.634.634-.272-.362.453-.181-.181.544Zm-.272-2.81L0,44.5l.272.181.272-.272-.181-.181ZM.181,40.966l.544.272-.453.091-.091-.363Zm.091-.816.453.272-.181.272L.272,40.15Zm1.359-1,.181.363H1.359l.272-.363Zm.453-.272.363.091.181.272-.453.272-.091-.634ZM6.254,35.89l.453-.453.091.544-.272.181-.272-.272Zm.181-.725-.181.181L5.8,34.8h.453l.181.363Zm.453-1,.725-.634.272.272-.453.363Zm.091.906.272-.544H7.7l.091-.272h.363l.272.272-.363.453H7.522l-.272.181-.272-.091Zm6.163-6.707.181-.363.634-.091-.453.634-.363-.181ZM12.6,29.455l-.181-.272h-.453l.363-.363.634-.091.362-.181-.544.634-.181.272Zm1.178-3.988.181.091v.272l-.272.181L13.5,25.74l.272-.272Zm.906-.906.181-.272.453.091-.544.453-.091-.272Zm-.272-.816.453-.453.091.453-.362.634-.181-.634Zm2.9-4.26.181-.272.272.091-.181.363-.272-.181ZM14.5,17.039l.181.272-.091.272L14.32,17.4l.181-.363Zm.725-1.178-.544.544v-.453l.453-.725.091.634Zm.362-.363-.181-.272.181-.272.181.091-.181.453Zm1.359-1.088-.091.363-.816.634.181-.816.725-.181Zm.816-1,.272-.453.453.363-.725.091Zm.634.181V14.5l-.453-.272-.634.453.091-.453,1-.634Zm.272-2.356.181.634v.816l-.634.181-.272-.181.544-.453h-.363l-.634.453-.181-.272.181-.453.453.091L18.4,11.6l-.091-.181.362-.181Zm.544.272-.272-.181V10.6l.634-.544V9.607l.634-.272.091.453-.453.363-.091.453-.544.906Zm1.541.272.634.544-.816.906-.544.272-.181.363-.363-.091.091-.453-.544.725H18.67l.091-.544.272-.181-.091-.453.363-.363v-.453l.544-.906-.272,1.269.091.453.362-.634h.725l-.272-.453V11.42l.272.362Zm-.091-.544-.181-.181.362-.181.453.272v.363l-.634-.272Zm1.269.725.181-.544.272.363-.453.181Zm1.632-2.538-.091.272.091.363-.544.091-.181.272-.544-.091-.091.544h-.181v-.453l-.363-.091.363-.544L21.57,9.7l.181-.544h.634l-.544-.272.272-.544.363.272-.091-.544.725.091.091.363.363.091v.816Zm0-1.359H24.2V7.7h.544l.272-.363.272.453-.362.453V8.61H24.38l-.453.181-.362-.725Zm1.9-2.628-.091-.363.453-.181-.363.544Zm-.816.906V5.8l.634-.181-.091.363a5.547,5.547,0,0,0-.544.363Zm1.541.816.091-.634.181.453-.272.181Zm-.181-.091-.181.181h-.363l-.634-.634.725-.634.181.272.453-.091.091.181-.363.272.091.453ZM27.28,5.891l-.181.181-.544-.181V5.438L26.374,4.8l.272-.181.091.634.453.363.091.272Zm1.269.725-.272-.363-.363-.091-.091-.816.363-.272.453.363-.181.453.272.363-.181.363ZM32.084,4.8l-.453-.181-.544-.272.363-.272h.544l.181.272-.091.453Zm.634-.363-.544-.634.816-.725.181.544-.362.453-.091.363Zm-1-.906-.362.091-.725-.181-.181-.453.453.091.363-.272.272.272.272-.453.272.181.725-.725.091.272L31.721,3.535Zm1.45-.906.634-.272.544.363-.181.453-.634.272V2.991l-.362-.363ZM34.44,1.45l-.181.272-.181.091-.272-.453.453-.091.181.181Zm1-.725h-.362l.181-.363h.363l-.181.363ZM36.162,1V.725l.181-.181.272.181L36.8.544l.091-.363.272.181.363.091L37.25.816h.544l-.181.544-.453.091-.544-.363Z" transform="translate(30.906 0)" fill="#9e1f63" fill-rule="evenodd"/><path d="M0,40.694l.272.181.272.453.272-.453-.091-1.45-.363-.634.181-.453.363-.181L.634,37.7l.181-.272.725-.091.181-.363v-.453l.362-.725-.362-.453-.181-1.088-.453-.906V32.99l1.088-.363V31.9l.181-.544-.816-.906L.816,30.09v-.906L1,28.277l-.091-1-.272-.634.181-.725L.634,24.652.453,23.474l.181-1.088.544-.906.544-.272.635.181.816.091.453-.544-.091-.906-.181-.363v-.544l.816-1.994V16.042l.272-1.088.272-.634v-.725l-.363-.363v-.453l.725-.453.816-.181.363-.363v-.453l.634-1.178.634-.906L7.7,8.7l-.272-.725L7.16,7.7V6.616l.272-.181L7.7,6.072l.181-.544.362-.181.363-.816.453-.363.544.272.181.272.272-.091.362-.363-.272-.453.272-.272V3.263l.091-.272-.363-.634.272-.181h.725l.544-.272.816.181.453.363.544.091.272.272.272-.091.181.181V2.356l-.272-.363.091-.725.362-.181L14.32.634,13.957.453V0L14.5.181l.544-.091L15.226,0l.362.453.634.272.816,1,.634.453.906.091.362.181.363.091.453.544.181.453h.181l.181-.091.453.544h.363l.181.363-.181.453.091.725-.181.544.091.453h.634l.181.544-.181.363.091.634.272.363.181.816-.091.363.091.363v.906l-.181.363.272.725.453.181.453.906.272.272v.544h0l-.272.181h-.453l-.272-.363-.544.363-.363-.181-.181.363-.363-.181-.181-.363-.362.453-.272-.544-.272.181-.091.453-.181.363-.362.091-.181-.272-.272-.091.272.544.272.181-.363.363h-.363l-.363.181.453.181v.272l-.181.091-.091-.181-.272-.181-.181.181.181.363h.272l.272.272-.181.272-.272.816.091.363-.544.091.453.363.363.091.181.272-.272.091.272.363H19.3l-.453.634H18.58l-.363.453.091.816-.453.816h-.272l-.453.453-.272-.363-.091.453.181.453-.544.363-.272.453h-.272l-.091-.363h-.363l-.181.453v.544l-.363.272-.181-.272H14.5l-.091.544-.181.091-.181-.272-.363.363-.181.363.363.091v.272l-.634.544-.453-.091-.091.272.181.453-.362.544-.725.091-.363-.091.544.725.091.634-.091.181.091.544-.091.725.362.363-.091.453L11.964,31l-.091.181.181.725-.363.453.363.181v.272l-.181.091.272.544-.362.453.272.272.272.363.363.091v.453l.272-.181.272.453.453-.544.362.272.091.453.816.634-.091.272.725.453v.363l.453.453-.272.725-.634.634-.181.453-.634.181-.362-.181.091-.272-.544-.181-.272-.272v.272H12.96l-.181-.181-.453-.091-.181.272-.362.091-.181-.181-.363.453-.362-.181-.362.181v.181l.725.091.181.181.091-.272h.634l.272.181.544.091.272.453.363-.181.272.091.453-.272.544.181.272.272.091.453-.362.272H14.5l-.453.634h-.272l.091-.453-.181-.181-.181.272.091.272h-.363l-.363.363-.091.453-.362-.272v.272l-.272.272-.091-.091h-.272l-.272.363.363.091.453.453H11.42l.725.272v.272l-.272.544.544.453-.544.091-.544-.181.272.453-.272.453.544.363-.453.363.363.453-.363.453-.091.453.453.363-.181.363-.091,1.178-.363.363-.181.906-.544.634-.272-.363L9.7,51.3l-.544.272-.906-.181-.091-.363-.181.725-.725.091-.363.816.272.272v.363l-.453.453-.634-.181-1.178.363H4.441l-.272-.272.272-.453L4.26,52.113l-.453-.181-.091-.453L3.353,51.3l.091-.272.634-.091.363-.634-.181-.544-.544.272-.453-.453-.091-.453-.453-.181-.091-.634L2.175,47.4l-.181-.181-.272-.634-.362-.091-.272-.363.181-.181.091-.544-.181-.363.091-.363.453-.363-.091-.272-.363-.272.091-.272H1.178l-.091.363.363.363-.544.181L1,43.866l-.091-.181L.544,43.5v-.725l-.181-.272-.091-1L0,40.694Zm13.957-1.359.363.544.181.181v-.544l.453-.453V38.7H14.41l-.453.634ZM.272,44.047v.363H.544l.091-.363Zm15.77-1.45.181.362.272-.272-.272-.181-.181.091Zm.181,2.175.181.181.272-.272.453-.091-.091-.181h-.453l-.362.363ZM14.592,48.4l.544-.181.091-.272-.181-.091.091-.272.544-.453.091-.272.362-.453-.091-.181-.363-.272.181-.363.091-.272.181-.181-.272-.181-.272.181h-.544l-.272.363-.181.453-.363.363.181.544-.181.091.453.725.181-.091-.091.363-.272.363.091.091Zm-3.535,1.45.091.453v.363l.181.181.181-.453.272-.725.091-.816.272-.816.091-.725-.272-.272-.272.453.091.181L11.6,48.4l-.272.181Z" transform="translate(44.863 10.785)" fill="#da1c5c" fill-rule="evenodd"/><path d="M18.761,39.334l-.091-.725,1.088-1,.544-.272.634-1.088.634-1,.453-1.178,1-1.631.725-1.722L23.564,30l-1-1.178-.634-.181L20.845,27.1l.181-.725.453-.634-.091-.725-.725-.453-.272-.544v-.906l.181-.181-.181-.453-.544-.091-.272-.363v-.816l.363-.453-.453-.091v-.453l.091-1.541.453-.091-1.088-2.447-1-1.813-.181-.634-.544-.634.362-1.088.453-.725.181-.725-.272-.272-1.088-.725-.181-.453-.363-.544-.634-.363-.362-.091-.453-1.088L14.5,6.616l.181-.816.091-.634-.363-.091.363-.272.634-.272-.091-1L15.77,2.9l.091-.453-.453-.453-.181-.363-.816-.091-.544-.181L13.5,1,12.96.272,12.507,0h-1l-.363.453V.634l-.363.091L10.151.634,9.7.816v.272l-.362.544-.272.181.181.363-.181.363L8.973,3.716l.181.725.181.453.091.181-.453.272H8.52l-.363.363-.272.181-.272.544-.544-.091L6.254,5.8H5.8l-.363.363-.544.544H3.807l-.634-.272L2.81,5.891l-.181-.453-1-.816-.362-.544L.816,3.988.453,4.26l-.091.453.091.363-.181.091L.091,5.075,0,5.257l.363.453L1,5.982l.816,1,.634.453.906.091.362.181.362.091.453.544.181.453h.181L5.075,8.7l.453.544h.363l.181.363-.181.453.091.725-.181.544.091.453h.634l.181.544-.181.363.091.634.272.363.181.816-.091.363.091.363v.906l-.181.363.272.725.453.181.453.906.272.272v.544l.181.181h.453l.453.453h.906l.634.634-.362.181.272.363v.725l-.181.181.725.634-.544-.091-.181.091.634.544v.272L10.6,22.93H9.97l-.634.453v.363l-.453.453v.363l-.181.181-.725.816-.363.363-.181.091-.091-.272H7.16l.181.453-.091.363-.453.091-.272.363.091.634.363.272-.544-.181-.181-.181-.363.091-.181.544.091.272-.362-.181-.091.181.362.363V29l-.272.272-.091.272-.453.272-.181-.181-.091-.181-.272-.091-.363.091.091.453-.272.181.181.453L3.807,31l-.181.091-.272.362.181.453.091.091-.181.453.091.272.272-.181.272.272-.091.544-.091.272.181.453-.091.181.453.725.272.181-.181.272.363.544-.363.181.091.725-.181.272v1l.272.363-.272.544v.363l.181.272.634-.272.272.181.091-.272.544.544.363-.091.363.272.725-.091.181.091-.181.363h.272l.544-.363v.363l-.272.363.634.816.091.272-.181.453.181.091.272-.725.272-.181.091.272L9.97,41.6h.362l.816-.544H11.6l.906-.634.091-.272.634.181.453-.091.362-.544.091.181-.181.363.272.091.272-.544.181.091-.181-.453.181-.181.272.453.272.091.091-.363.272.544.272-.091v-.363l.272.091.091.272.272-.272.634-.091.363.272.725-.091.091-.272-.181-.181.181-.091.363.091.091.272.453.091c-.634.091-.544-.091-.453-.272ZM9.97,22.024l-.181.181H9.335l-.362-.453.453-.272.725.091v.181H9.7l.272.272Zm-6.707,6.8.091-.272.272.272L3.444,29l-.181-.181Zm-.181.272.272.272.272-.181v.363l-.453.272L2.9,29.455l.181-.363ZM7.976,41.51l.091.363-.272.181-.181-.181.181-.091.181-.272Zm-.634-.453.181.362H7.341v-.362Zm-1-.544.725-.181-.091.272-.453.363-.362-.181.181-.272Zm-.906-.725.453.453-.272.181-.181-.181v-.453Zm-1.088.181.453.091-.272.091-.181-.181ZM1.178,40.6l.544.181.091-.181-.363-.272v-.363h.272l.725.453.091.363-.362-.091-.181.181.272.363h.363l.091.453-.362.181-.363-.363-.453-.181-.272-.363L1,40.784Z" transform="translate(60.089 5.529)" fill="#ee2a7b" fill-rule="evenodd"/><path d="M12.145,8.61l.363-.544-.091-.453.363-.362V6.8L11.692,4.8l.181-1.813.272-.181.181-.634.362-.453.091-.181V1.45L12.6,1.088l-.091.181-1.9-.091L9.788.634H8.882L8.429.363,8.066.453,7.613,0V.363L7.341.272V.453l.272.272L7.16,1,6.979.816H6.163L5.982.634l-.091.453L5.438,1l-.453.181-.091.363L4.622,1.45,3.9,1.813l-.272.453V3.807L3.9,3.9l.181-.091h.453l-.544.453H3.625v.634l.363.634.634.634.272-.091V5.71l.453-.363.181.363L5.257,6.979v.272l.272-.091.725-.453L6.8,6.525l.634.453H7.7l.091-.453.363.272.181.363H8.61l.725.453.272.544.453.181.362.544.816-.363.906.091ZM2.538,3.081h.453l.091.272-.453.091-.091-.363ZM1.722,4.169,1.45,3.716H1.088L.725,3.9.544,3.807l.725-.363.181-.272V2.991h.272l.272.272h.453l.181.453-.272-.091L1.994,3.9l-.272.272Zm.816.363V4.26h.634l.181.544-.272.181-.544-.453ZM.453,7.251l.181.091L1,7.069V6.8l.363-.634.634-.091.272-.363.272-.363.363.091.091-.091L2.9,5.166l-.272-.181-.363-.272-.725-.091-.181-.091L1.088,4.8l-.181.091-.272.272L.544,4.894.272,4.8v.181L0,5.075l.272.091v.272L0,5.619v.272l.362.091.363.363-.091.363H.453Z" transform="translate(66.433 48.035)" fill="#ee2a7b" fill-rule="evenodd"/><path d="M15.136,6.254l-.091-.634-.363-.453L14.5,4.532,14.32,4.26l-.272-.544V3.353l-.091-.363-.181-.181.091-.181-.091-.453L12.6,1.994l-.816.363-.362-.544-.453-.181-.272-.544L9.97.634,9.7.544,9.516.272,9.154,0,9.063.363,8.791.453,8.157,0,7.613.091,6.888.544,6.616.634v.634l.181,1-.272.816L5.8,3.9H5.257l-.544-.544-.091-.363L3.535,1.813l-.091-.725H3.263l-.453.453-.634.091L1.994,1.9H1.45l-.363.544.091.544L1,2.9v.816l-.634.725-.091.453.091.453L0,5.71.272,6.8l.272.272V7.16L1,7.069l.181-.544.634-.544L2.9,5.71l.816.091L4.26,5.71l.272.272.544-.363.453-.091.091.363h.453l.363.453.725-.091.181.181.816-.544.816.363.725.181.634.634.544.091.544.816h.635l.272.181h0l.725-.363,1-.091.091-.634.453-.181.181-.453Z" transform="translate(65.255 54.561)" fill="#9e1f63" fill-rule="evenodd"/><path d="M3.807,6.344l-.091-.906.272-.363-.181-.181L3.444,4.8V4.35l-.363-.181-.906.181-.544-.272L.906,3.172l-.816.181L0,3.263.181,2.9.091,2.356,0,1.631l.453-.091L.634,1,1.269.453,2.356.181l.816.091L3.716.181l.272.272L4.532.091,4.985,0l.091.363h.453l.363.453L6.616.725,6.8.906,7.613.363l.816.363.725.181.634.634.544.091.544.816h.634l.272.181-.544.725.362.181v.453l-.816.363-.453.816-.363.091-.091.725.544.272V6.8H9.97l-.181-.272-.453.091-.181.634H8.429l.272.725H8.247L7.7,8.338l-.634-.363-.906.272L5.71,8.61l-.363-.453.091-.544-.272-.906H4.8L4.26,6.254Z" transform="translate(65.799 60.089)" fill="#da1c5c" fill-rule="evenodd"/><path d="M0,7.885l.453-.363.906-.272.634.363.544-.363h.453l-.272-.725h.725l.181-.634L4.079,5.8l.181.272h.453V5.529l-.544-.272.091-.725.363-.091.453-.816.816-.363V2.81l-.362-.181L6.072,1.9,6.8,1.541l1-.091L7.885.816,8.338.634,8.519.181,9.063,0l.453.272L9.97,0l.544.725.544-.272L11.6.544l.453.725L12.6.816l.725-.181L13.595,1h.363l1,.363.181.544-.181.634.363.453v.725l.544.544.272.634.634.906.453.363.272.725.725.272.906.725.091.453.635.453-.272.181-.544.816-1.178.181-.544-.453-.181.363v.544l.453.725v.725l.544.544v.634h-.091l-1,.272-.725.091-.363.906v.725l-.544.091-.362-.363-.725.181-.363-.272-.544.091-.453.544-.363-.181-.091-.453-.634-.091-.725.453-.363-.091-.725-.091-.181.181H9.516l-.363-.362-.816.362-.091-.272-.634-.363-1.359-.181-.544-.272-.272-.091-.544.453H4.169l-1.631.272-.453.181-.725-.363L1,14.5v-.272l-.544-.816-.181-.634.363-.634.544-.181-.091-1.45-.272-.272L.725,9.7.453,9.244.091,8.066Z" transform="translate(71.509 60.814)" fill="#ee2a7b" fill-rule="evenodd"/><path d="M2.447,2.266l.363-.091.725.363.453-.181,1.631-.272h.725l.544-.453.272.091.544.272,1.359.181.634.363.091.272.816-.363.363.363h.363l.181-.181.725.091.363.091.725-.453.634.091.091.453.363.181.453-.544.544-.091.363.272.725-.181.363.363L17.4,2.81V2.085l.363-.906.725-.091,1-.272.453.091.544-.091L20.392.272,20.755,0l1.178.363H23.2L23.746,0l.544.091.363,1.088.544.363-.272.544.634.906,1.36-.181.453.363.091.544h.363v.725l.272.725,1.088,1.088.453-.544.634.363.544-.181.544.181.816-.634.363-.091.544,1.178.725.453.181.453.363-.272.816.181H35.8l.453.272.544-.091.634.363.725.181.362-.363.181.544.272.181.091.634-.453.544-.453.091-.181,1,.725.453.09.725-.272.906v.544l-.362.363H36.978l-.544.906-.272.091-.091,1.088-.453.181-.091-.272h-.272l-.544.272-.634-.091-.272.272-.181.362-.544.091-.272.363-.453.453h-.725l-.363.363-.634-.181-.453.363-.363-.091-.272-.544h-.181l.091.362.272.272-.091.363-.544.725-.272.091-.091-.181.181-.091.453-.544-.091-.181-.181-.181L29,18.217l-.725.725-.453.091-.091.272H27.28l-.363-.272-.272.272-.544-.091-.091.181.363.272.725-.091.272.363.272.181.272-.091.181.181-.272.272.091.272.181-.181h.181v.363l.272-.272.181.181.181.544.272.272.544.181.181-.091-.816-.816-.816-1L28.1,19.3l.181-.091.363.544.181.544L30,21.57l.181.181.453-.453h.272l.453.272.181-.453.725-.091H32.9l-.181.272-.272.272.272.363-.272.363-.816.091-1-.181-.544.272-.363.634h-.816l-1.088.816-.816.363-.816-.091-.453-.272.181-.181.272-.906-.091-.272-.725-.634-.272.091-.544-.272-.272.272-.453-.181.544-.725.816-.544.725-.091L26.1,20.3l-.272-.272L25.74,19.4l-.272-.091-.181.363-.363-.272-.544-.181-.544.091-.544.272L22.93,19.3h-.363l-.363-.363.272-.091.091-.181-.725-.272h-.816l-.181-.272H21.3l.816-.091.453.091.363-.181.453-.272-.725.181-.363-.091-.272-.272-.181-.272-.181.363-.181.272h-.453v-.181l-.272-.181-.453.544-.544.091L19.4,18.4v.544l-.453.634H18.67l.181.272-.906,1.088h-.272l-.272-.272V21.3l.181.272-.091.453h0l-.362-.363-.725.091-.453.272h-.816l-.725-.181-.363-.634.363-.272.363.091.091-.363.453-.816H15.5V19.3l.091-.906h.453l.634-.181.363.272h.634l.091-.272-.272-.363.091-.453-.091-.453-.634-.363-.634-.544-.091-.272-.453-.272v-.544l-.091-.816-.634-.363-.725-.725h-.272l-.091.272-.725-.091-.816-.634h-.544l-.363-.544-.181.181h-.544l-.181.272-.453-.272-.091.091-.363-.091.091.634-.091.272.091.544-.544.091-.544.363-1.541.272-.453.453H6.163l-.725.272-.544-.272L4.713,14.5l-.634-.272H3.353l-.816-.544H2.084l-.362.363H1.269l-.181-.453-.544-.363L0,12.688.091,12.6l.091-.816.453-1h.453l.091-.725L1,9.426l1.45-1.631.272-.725.362-.363h.362l.091-.725L3.444,5.71l-.091-.363.181-.272-.544-.363-.272-.725-.363-.272V2.628Z" transform="translate(70.059 73.049)" fill="#9e1f63" fill-rule="evenodd"/><path d="M.091,1.631,0,1.088.091.816,0,.181.362.272.453.181.906.453,1.088.181h.544L1.813,0l.363.544h.544l.816.634.725.091L4.35,1h.272l.725.725.634.363.091.816v.544l.453.272.091.272.634.544.634.363.091.453L7.885,5.8l.272.363-.091.272H7.432l-.363-.272-.634.181H5.982l-.091.906v.544H5.71l-.453.816-.091.363L4.8,8.882l-.362.272V9.063l-.272-.634L4.26,6.163l-.453-.634-.181-.634-1.269-1-.091-.453-.906-.906L1.088,1.45Z" transform="translate(79.666 85.104)" fill="#da1c5c" fill-rule="evenodd"/><path d="M4.713.544h.453L5.529.181h.453L6.8.725h.725L8.157,1l.181.363.544.272.725-.272h.453l.453-.453L12.054.634,12.6.272,14.139,0l.272,1.088.906.906.091.453,1.269,1,.181.634.453.634L17.22,6.979l.272.634.363.725.725.181H19.4l.453-.272.725-.091.362.363-.272.181.272.181v.363l-.362.634-.453.091-.816.091-.181.453-.272.363.181.363v.725l-.272.363.181.634L18.4,12.87l-.181-.181-.544-.363-.453.181-.272-.272-.816-.272-.725-.091-.544.091-1.45.634-.181.363-.634.181-.272.181-.906-.091h-.362l-.544-.181-.363.181L9.7,13.142l-.725.272-.816-.272-.181.091L7.7,12.96l-.634-.091-.544.453-.272-.453.181-.272v-.363l-.272-.272H5.438l-.091-.544-.091-.363.363-.453L4.8,10.423l-.362.544L4.078,10.6l-.544.272-.181-.453-.816-.272L2.447,9.97l.272-.634-.634-.453-.544-.363-.181-.363L.634,7.251.453,6.888,0,6.8l.453-.544.453-.091L1.088,5.8h.634l.453-.363V4.985l.816-1.269.544-1.45.453-.906.544-.181L4.8.725Z" transform="translate(66.615 86.554)" fill="#ee2a7b" fill-rule="evenodd"/><path d="M8.882,7.613l.453-.544.453-.091.181-.363H10.6l.453-.363V5.8l.816-1.269.544-1.45.453-.906.544-.181.272-.453L13.414.906,12.87.544,12.326,0l-.544.363L11.057.181l-1,.091L9.516.091,8.7.181,8.338.816l-.453.272v.453L7.16.906l-.725.634-.725.181v.453l-1.269.091-.816.272L2.81,2.447,1.178,1.541l.091.272v.453l-.091.544h-1l-.091.181.453.453-.272.544v.453l.272.453-.363.453L0,5.438l.634.634.091.816.453.091.906.906.544.181.362.272,1.269.181.816.363.363-.453.272.091.362-.362.544-.272.363.091L7.16,7.7,7.7,7.251l.363.091.453.091Z" transform="translate(57.733 85.738)" fill="#da1c5c" fill-rule="evenodd"/><path d="M.091,4.078l1.631.906.816.091L3.353,4.8l1.269-.091V4.26l.725-.181.725-.634.725.634V3.625l.453-.272.363-.634.816-.091.544.181,1-.091.725.181.634-.453.091-.816.453-1h0l-1-.634H9.97L9.7.181,9.244,0H8.882L8.61.362,8.247.091H7.341L6.979.181,6.707.634H6.254L6.072.544h0L4.985.453,4.532.906,3.9,1l-.634.634-.906.181-.906.272L1.269,1.9H.725l-.634.453L0,2.266v.816Z" transform="translate(58.82 83.2)" fill="#ee2a7b" fill-rule="evenodd"/><path d="M.181.091H.906l.272.272V.725L1,1l.272.453L1.813,1l.634.091.272.272L2.9,1.269l.816.272.725-.272.453.091.363-.181.544.181h.362l.906.091.272-.181.634-.181L8.157.725,9.607.091,10.151,0l.725.091.816.272.272.272.453-.181.544.363L13.142,1l.544.091v.091l-.091.906-.272.272-.453-.091-.634.634.091,1-.181.453-.634.544.091.181.363.091.544.725.363.544h0l-.544-.091-.363.272-.634-.544H10.6l-.272.363H9.969l-.362.453H9.335L8.7,7.341v.544l.181.363-.272.272-1-.091L7.16,8.7l-.453-.272H6.254L5.891,8.7,5.438,8.61V8.248H4.8L4.26,8.157l-.453.453L3.172,8.7H2.447L2.175,8.61h0l-.091-.453-.091-.634L1.359,6.435l-1-.725H.453l.181-.453L.272,4.8V4.441l.816-.816.181-.453L.906,2.538.181,1.813,0,.906.363.544Z" transform="translate(71.871 98.426)" fill="#da1c5c" fill-rule="evenodd"/><path d="M4.078,0l1,.725L5.71,1.813l.091.634.091.453-.272.272H5.166l-.544.363L3.444,3.444,2.9,3.716V3.9l-.634.272-1,.544V4.8L.816,4.441.544,3.9.181,3.263,0,2.356l.091-.816.091.091L.363,1.45.272,1,.816.725,1.359.544,1.722.272,2.628.091l.453.091L3.807,0Z" transform="translate(68.155 104.136)" fill="#ee2a7b" fill-rule="evenodd"/><path d="M3.172,2.356l-.091.816.181.906.363.634.272.544.453.363-.091.634L3.9,6.888l-.906.363L2.9,7.794l-.272.634-.363.181L1.9,8.338,1.45,7.251.544,7.16.362,6.888l.181-.544L.272,5.982V5.347l.181-.453L.181,4.078l.181-1,.272-.091.091-.363L0,2.266V1.36L.362.725.816.091H1l.363.453L1.722.091V0L1.9.181l.362.453.181.091.453.362.181.272v.725Z" transform="translate(65.074 103.321)" fill="#9e1f63" fill-rule="evenodd"/><path d="M0,1.269.363.906.906.634l.362.091L1.45.453,1.994,0l.363.091L2.81.181l.816.272.181.363.725.906.181.363.544.363.634.453-.272.634.091.181.816.272.181.453.544-.272.363.362.363-.544.816.181-.362.453.091.363.272,1-.362.363.181.906.725.725L9.7,8.61l-.181.453L8.7,9.879v.363l.363.453-.181.453H8.519l-.725.181-.453-.091-.906.181-.362.272-.544.181-.544.272.091.453-.181.181-.181-.362v-.725l-.181-.272-.453-.363L3.9,10.966l-.362-.453-.181-.181.091-.181.362-.363-.091-.544-.544-.091L2.81,8.791H2.266L1.994,8.61V8.157L1.541,7.7l.181-.181-.544-.634V6.435l.181-.181.453.272.181-.272-.272-.363H1.359L.634,5.347V5.075l.453-.725.091-.634H.906l-.181.091L.544,3.716.453,3.263,1,3.081h.181V2.9L.725,2.81.453,2.628.363,1.994.091,1.269Z" transform="translate(63.443 92.989)" fill="#9e1f63" fill-rule="evenodd"/><path d="M2.085,5.347V4.441l.362-.634L2.9,3.172h.181l.362.453.363-.453L3.9,2.9l.362-.363-.091-.544L3.625,1.9l-.363-.363H2.719l-.272-.181V.906L1.994.453H1.9L1.541.363,1.088,0,.816.272V.634l.363.272.181.272L1,1.359.634,1.45.453,1.9v.634l-.272.544L0,3.172l.091.181.544.272L1.45,4.713l.091.363Z" transform="translate(62.989 100.239)" fill="#ee2a7b" fill-rule="evenodd"/><path d="M12.326,3.988l-.091-.363.453-.181h.181V3.263l-.453-.091-.272-.181-.091-.634-.272-.725L11.51,1.45l-.362.453-.906-.272L8.973,1.45,8.61,1.178,8.157,1l-1-.906L6.707,0V.091h-1L4.26.816l-.091.634-.725.363-.181.816H2.81L1.9,2.175l-.453.181L.816,2.81,0,2.9v.091L.181,3.9l.544.544-.091.181L.816,4.8,1.36,3.9l.091-.544L1.813,2.9h.544l.091.453.453.363.181.725.363.634.725.634H4.35l.453.453-.363-.091-.453.091-.181.363.181.453h.544l.544.544.544.181.181.453.272.272.544-.091L7.7,8.429l.544.272L9.426,9.879H9.063L8.52,9.607l.272.363.453.091h0l.181-.453L7.794,7.7l-1.9-1.631L5.8,5.8l.181-.181L5.71,5.257l-.091-.363L5.166,4.35H4.894V3.988l.181-.181V3.081L5.257,2.9l.544.453.181.363.272-.091V3.263l.453-.091h.272L7.251,2.9l.363.181L7.794,2.9l.363.091.181.363.272-.181.544.181.362-.181.091.181.544-.091.453.181.272-.091.453.363,1,.272ZM7.432,9.607h.816l.272.272-.725-.091-.363-.181Zm-.544-.544H8.066l-.453.272-.725-.272Zm0-.544h.906l.181.181-.453.181-.453-.091-.181-.272ZM3.444,5.438l.272.091.272.453-.181.091-.362-.634Zm-.363-.544.453.453-.453-.091V4.894Zm.091,1.359.453.363.091.453-.544-.816Zm-.544-.725.363.181.091.363-.453-.544ZM1.813,4.26l.635.453.181.634H2.447l-.453-.453.091-.181L1.813,4.26Zm.363-1,.725,1-.363.181-.181-.272-.362-.091L1.9,3.444Z" transform="translate(51.66 92.717)" fill="#ee2a7b" fill-rule="evenodd"/><path d="M4.532,7.069l.181-.453L3.081,4.8l-1.9-1.722L1.087,2.81l.181-.181L.906,2.266.816,1.813.362,1.269l-.272.091L0,1,.272.816V.181L.453,0,1,.363l.181.363L1.45.634V.363L1.9.272h.272L2.447,0,2.81.272,2.991.091h.453l.181.453L3.9.272l.544.181L4.8.363l.181.091h.544l.453.181L6.344.544,6.8.906,7.432,1l.272.181.181-.091h.272l-.091.634-.453.725v.272l.725.544H8.7l.272.363L8.791,3.9l-.453-.272-.181.181V4.26l.544.634-.272.181-.363-.091-.453-.363-.272.272v.363l.363.272.181.272-.363.181-.362.091-.181.453V7.16L6.707,7.7l-.181.091L5.982,7.16l-.272.091-.816-.181Z" transform="translate(56.464 95.617)" fill="#da1c5c" fill-rule="evenodd"/><path d="M.272,4.35h.816L1.722,3.9l.453-.181.906.453.453-.091.091-.816L4.441,2.9l.091-.634,1.45-.725h1L6.888.634,6.254,0,5.71.181l-1,.544H4.078L3.535,1H2.991l-.544.181L2.175.816,1.087.906.725.816l-.544.816.181.363L0,2.447l.181.816h0l.453.272v.272L.272,3.9Z" transform="translate(51.479 91.176)" fill="#da1c5c" fill-rule="evenodd"/><path d="M9.7,7.522l.363.091,1.088-.091.272.363.544-.181h.544l.544-.272h.634l1-.544.725-.272.362-.453L15.5,5.71V5.257l.272-.544-.453-.453.091-.181h1l.091-.544V3.081l-.181-1.269V1L15.408.816,14.954.453,14.32.634h-.634L13.142.181h-.906L11.782,0,11.6.453l-.272.181V1H10.6l-.181.272L9.244.634,8.882.544,8.791,1l.091.453H8.429L8.157,1.9l-.544.272-.634.816v.363l.634.272v.453l-.181.181L6.888,3.9l-.544.181L5.8,3.9l-.362.091-.725.453-.453.091L3.9,4.441l-.453.091L3.172,4.35l-.634-.181L1.9,4.26v.363L1.722,4.8l-.544-.181L.816,4.26l-.363.181-.272.181H0L.272,4.8v.272l.272.272V5.8H.906l.272-.091.544.453L2.084,5.8h.363l.181.362h.091l.725.363L4.713,5.8l.544.091h.816l-.091.453,1.178.634,1.45.272h.725Z" transform="translate(42.507 84.469)" fill="#ee2a7b" fill-rule="evenodd"/><path d="M13.051,18.308l.181.091h.453l.272-.453.363-.091h.906l.363.272.272-.363h.363l.453.181.272-.181h.906l1,.634H19.3l.091-.725-.181-.634,1.45-1.631.272-.725.363-.363h.362l.091-.725-.091-.272-.091-.363.181-.272-.544-.363-.272-.725-.362-.272V10.241l.091-.634-.544-.816-.181-.634.362-.634.544-.181-.091-1.45-.272-.272-.091-.544-.272-.453-.363-1.178L19.3,2.81l.091-.544-.272-.906h-.362L18.217.906l-3.081.363-2.991-.181-.272.091-.816.725-.725.181L10.151,1.9l.725-.363L11.51.816l-.272.091-.453.453-.906.453-1-.272L8.61.906,8.791.544l.544.091.272.181V.634L8.973.272,7.7,0,6.8.453H6.163L5.438.725l-.453.544H4.35L3.9,1.813v.362H3.172L2.085,2.81H1.269L1,3.444l-.181.544-.181.091.091.272H.453L.725,5.438l-.091.725L0,6.526v.363l.725.725-.091.544L1,8.519v.363l.181.544L1,9.788l.453,1,.272.181.272.363L2.085,12.6l-.181.181.181.363.181-.181.453.091.272-.181.906.181v.272l.363.453.453-.091.362.272L4.8,14.5l.181.272.181.091v.453l.272.181.272-.272h.272L5.438,14.5l.272-.091,1.088.544.725-.091-.181.453.544.363.906-.181.634.272,1.45,1,.453.816h.453l.181-.272H12.6l.363.363Z" transform="translate(51.842 65.436)" fill="#da1c5c" fill-rule="evenodd"/><path d="M6.254,0l.181.363L6.616.181l.453.091L7.341.091l.906.181V.544L8.61,1,9.063.906l.363.272-.272.544.181.272.181.091v.453l.272.181.272-.272h.272l-.544-.725.272-.091,1.088.544.725-.091-.181.453.544.363.906-.181.634.272,1.45,1,.453.816h.453l.181-.272h.634l.363.363.091.634-1.088-.091-.453.453-.634.091-.634.634-.906.181-.906.272L12.6,6.888h-.544l-.634.453-1-.272L9.97,6.707l-.635.181H8.7l-.544-.453H7.251L6.8,6.254l-.181.453-.272.181v.363H5.619l-.181.272L4.26,6.888,3.9,6.8h0L2.991,5.71l-.453-.272L1.722,4.8l-.453-.181L1.088,4.26V3.625L.635,2.9,0,2.538V2.175l.181-.181.272.181.362.181.816-.725.453-.091.453-.453L2.991,1,3.263.634h.816l.363.091L4.8.453V0l.725.181L5.891,0l.272.181Z" transform="translate(47.491 78.216)" fill="#da1c5c" fill-rule="evenodd"/><path d="M5.529,0h.634l.816.181.272.181L7.7.272l.453.453L8.61.816l-.272.544-.272.181.181.272.363.181.181.363.363-.272.091-.272.181-.091.181.181.634.453.091-.181.453-.272.181.091v.453L10.6,2.81l-.272-.091-.362.272.544.181.272-.091.363.091.181.272.453-.091.091-.363.363-.453.816-.091.091-.181.453-.272.091-.272.181-.091.634.091-.544.181-.181.181-.091-.091-.181.272.181.181.453-.363h.544l.181-.091.181.181.362.091.634.634.453-.091.272.363-.091.453.453.363.363-.091.363.272h.362l.272,1.088-.091.725-.634.362v.363l.725.725-.091.544.363.363V8.7l.181.544-.181.363.453,1,.272.181.272.363.091,1.269-.272.363L19.3,12.6l-.363.181-.725-.181v.453l-.362.272-.363-.091h-.816l-.272.363-.453.091-.453.453-.453.091-.816.725-.363-.181-.272-.181-.181.181v.363l.634.363.453.725v.634l.181.363.453.181.816.634.453.272.906,1.088-.091.453.091.453h-.453l-.272.453-.544.272-.634.816V22.2l.634.272v.453l-.181.181-.544-.363-.544.181-.544-.181-.363.091-.725.453-.453.091-.363-.091-.453.091L11.6,23.2l-.634-.181-.634.091v.363l-.181.181-.544-.181-.363-.363-.362.181-.272.181H8.429l-.181-.181-.725-.453-.272-.091-.272.272-.272-.091-.181-.453-.453.181v.272l-.181.272-.544-.181-.453.181-.363-.091h0l-.181-.453L3.9,22.386v-.634l.272-.816.272-.363v-.362l.272-.725.544-.544L4.8,18.67H4.35L3.806,18.4l-.453.181L2.991,18.4H2.628l-.363.181-.453-.363v-.272l-.453-.363h0l.091-.725-.272-.272-.091-.453-.634-.725H.362l.272-.634L.272,14.32l.091-.272L0,13.323l.091-.363h0l.181-.544L.453,11.6l-.181-.634.272-.453.363-.453.634-.181.544.181.362-.181-.272-.453.363-.272V8.7l.181-.272-.272-.272H1.9l-.091-.272.181-.453.544.181.272-.181V6.888l.181-.363.091-.272.091-.181V5.982h.091l-.091-.453-.544-.091-.181-.363.091-.544,1-.272L3.9,4.169l.453.363v.544l.453.453.181-.272L4.8,4.894V4.532l.181-.091.363.272v.544l.453.634-.181-.453V4.713L5.529,4.35,5.8,3.9l.363-.091.363.181.544-.181.725.816,1,.181-.906-.363-.816-.816H6.526l-.272-.181V3.082l.363-.272-.453-.272V1.994l-.453.091V1.722h.453l.363-.181-.453-.453V.725H5.8L5.529.453V0Z" transform="translate(34.078 65.618)" fill="#9e1f63" fill-rule="evenodd"/><path d="M.091,0,.362.272V.725H.091L0,.453.091.091Z" transform="translate(42.688 89.545)" fill="#da1c5c" fill-rule="evenodd"/><path d="M4.078.634l.363.091L4.894.544l.544.181L5.619.453V.181L6.072,0l.181.453.272.091L6.8.272l.272.091.725.453.453.363v.363L8.157,1.9l.091.272h.634l.272-.091.544.453.362-.363h.362l.181.363-.453.544.272.816-.906.181-.091.906-.453-.363H8.61L7.522,4.35v.634l-.453.906L6.8,5.438l-.725-.453.091-.544-.544-.272-.906,1.45-.634-.272-.906.634L2.719,5.8l-.091-.363-.272-.272-.181-.544L1.9,4.169H1.269l-.362.272.181.544-.544.272L0,5.166V4.8l.272-.091H.544V4.26l.091-.725.634-1,.363-.091.453-.634.363-.181V1.178L1.9.906,2.175.544H2.81L2.9.816l.453.091Z" transform="translate(34.531 88.094)" fill="#da1c5c" fill-rule="evenodd"/><path d="M5.529,7.885l.181-.544.181-.816L5.71,5.8l.272-.363.272-.453L6.888,4.8l.634.181L7.885,4.8,7.613,4.35l.272-.181.091-.544.181-.272-.272-.181H7.341L7.251,2.9l.181-.453.453.181.272-.272V1.9l.181-.453V1.178L8.519,1V.906L8.066.725,7.7.363,7.069,0,6.344.091,5.891.453,5.529.272,5.257.453H4.713l-.544.634-.816.453L3.172,1.45l-.544.181v.544l-.453.363.181.544-.091.544-.181.453L1.9,4.35l-.362.272v.363l.544.453.453.181H1.994L1.722,5.8l-.181.181.181.272h.272v.272H1.541l-.363-.453L.725,5.891l-.362.181.181.181H.906l.362.363.091-.091.453.272-.453-.181H1.088L.453,6.435H0l.272.091.181.363H.816l.272.272.272-.272L1.813,6.8,1.9,6.616h.363l.181-.363h.816l.272.272h.453l.181.363H4.8l.181.363v.272l.544.363ZM1,5.8l.453-.181.181.272-.272.091-.091-.091L1,5.8Zm.181-.453h.363l.453.181L1.9,5.619l-.272-.091-.091-.181-.272.091Z" transform="translate(28.64 70.693)" fill="#ee2a7b" fill-rule="evenodd"/><path d="M6.435,3.9l.272-.634L6.344,2.81l.091-.272-.362-.725.091-.363L5.71,1.269,5.8,1,5.529.634H4.894L4.713.272H4.26L3.988,0H3.172L3.082.363H2.719L2.628.544,2.175.634,1.9.906,1.722.634H1.359L1.088.272.816.181.363.544,0,1.088l.272.272.091.816L1,2.356v.363l.725.544h.272l.272.272.363.091V4.35l.544.181.181-.091h.363l.181.181.272.091.544.725h.544l.363.272.272-.091h.272V5.347l-.181-.181V4.8l-.091-.181.181-.363L6.254,3.9Z" transform="translate(28.005 77.128)" fill="#da1c5c" fill-rule="evenodd"/><path d="M.272,1.722V1.45L.091,1.269V.906L0,.725.181.363.363,0H.634l.634.725.091.453.272.272-.091.725-.363.091L.634,2.175.363,1.722Z" transform="translate(33.896 81.025)" fill="#77134d" fill-rule="evenodd"/><path d="M.816,2.991l.362.906-.091-.453.091-.272L.816,2.991ZM1.088,1.9l-.181.181.363.363V2.085L1.088,1.9ZM0,.544.091,1l.363.091L0,.544ZM1.45,0l.272.363L1.631.091,1.45,0ZM.634,0H.906l.453.272V.634L1,.544.634,0ZM.453.091l.634,1,.453.363H1.178L.544.816.363.272Z" transform="translate(7.432 38.972)" fill="#7c0f6a" fill-rule="evenodd"/><path d="M2.447,12.6l.725-.091.816-.272.544-.363L4.35,11.42H4.8l-.091.272h.453l.453-.453h.272l.091-.453,1.359-.091.091-.363.181.363.363-.272.272.091h.634L8.429,9.97l.362-.181.363-.453-.091-.363.363-.453.091-.453-.181-1-.272-.181.363-.272V6.163L9.154,5.71l.091-.544-.363-.181.181-.272h.272L8.791,4.35,8.429,4.26l-.363-.816-.725-.363-.272.181L6.888,3.9l-.272.091-1-.906.453-1.088L6.616,1.9l.091-.363.362-.181.181-.272-.181.091L7.523.816,7.976.544,7.432.272,7.069,0l.181.272H6.8l.091.544-.363.544V1L6.707.725,6.526.363,6.163.453l.181.272H5.982L5.8.544,5.166.634V1H4.985L4.8,1.359l.363.181-.091.181H4.713V1.9l-.453.091.181.363h.453L4.8,2.538l.453-.181h.272l-.544.634-.634.181.181.272L3.9,3.535l-.363-.181-.272.363-.181-.453L1.994,3.172v.181l-.634-.181-.091.634.362-.272V3.9l.181.091L1.9,4.35l-.272.091V4.169H1l.725.544.453-.181.181.363-.634.181-.091.272.181.181H1.178l.091.453-.181.091.362.181.272-.091-.181.181.544-.091.181.634L3.535,6.8l-.453.453L2.81,7.069l-.453.816h.181l-.363.544-.906.544h.362L2.085,8.7l.272.181H2.9l.362-.363.091.091.453.091-1.088.272H1.994l-.181.363-.544.181L1.45,9.7l-.091.272.181.091H1.178L.906,9.788.725,9.97.634,9.879,0,10.241l.091.181,1.45-.091L1,10.695l-.544.181-.272.453H.634l.091.272,1.088-.363L1,11.782l-.363.363.544-.091.816-.363-.091.272-.634.272h.362l-.091.272.544-.181Z" transform="translate(0 64.077)" fill="#da1c5c" fill-rule="evenodd"/><path d="M3.9,24.108l-.544-.363-.363-.091-.453-.906-.725-.363-.272.181-.181.634L1,23.292l-1-.906L.544,21.3,1,21.208l.181-.453.272-.181.272-.272.453-.091.181-.181h.272l.453-.272.725.091.363.181v.453l.725,1-.363.272h.634l.181,1-.272-.816H4.8l.091.272-.091.363.362.091-.091.363-.544-.091v.363l-.362.272-.181-.091v.363l-.091.272Zm9.97-20.845.181-.363.181.091-.363.272Zm.816-2.81L14.592.272,14.864,0l-.181.453Zm-1,1.088L13.776,1l-.272.091-.091.272.272.181Zm.544-.272L13.957,1l.181-.272V.453l.181.091v.544l-.091.181Zm-.181,1.359-.181-.363h-.544l-.181-.272.272-.091.453.091.091-.181-.091-.181.181-.181.272.181.363.091L14.5,1.9l.091.272-.181.272.091.363-.453-.181ZM18.58,32.446l.272.181.272-.091-.181-.181h-.181l-.181.091Zm-4.8,2.628.634-.363.272.181h.272l-.181.272v.181l-.272.091-.363-.272-.363-.091Zm-7.7-17.22v.363l.272.181v-.363l-.272-.181ZM3.9,17.492l.181-.453.091.272-.272.181ZM2.538,15.951v-.363H2.9l-.363.363Zm.634-.453.363-.453-.091.363-.272.091Zm.906-.906.181-.181H4.078v.181Zm-.453-.634.181.363.181-.181L3.9,13.867l-.272.091ZM9.788,6.888l.181.181V6.8l-.181.091Zm-.453.181H9.7l.272.272-.181.181.544-.091v.363l-.272-.181L9.607,7.7V7.341l-.091.272-.181-.181V7.069Zm-.091.816.272.453.091-.181-.181-.272Zm-6.707,2.81.181-.181-.272-.181.272-.363.453.181-.091-.363,1.088-.725L4.26,9.7,3.9,10.06l-.091.363.181.091-.272.453-.453-.091-.363.091-.363-.272Zm-.091.725.272.272.544-.453L2.9,11.057l-.181.091-.091.181-.181.091Zm-.091.725-.453.091-.363-.363.181-.091.544.091.091.272Zm-.181.544L1.9,12.6v-.181l.453-.091-.181.363Zm-.453,1.178.091.272-.272.181v-.272l.181-.181Zm.363-.181-.091-.363.091-.181-.091-.272H1.722v.272l-.091.272.091.272Zm2.356.272V13.5l-.544.091-.272-.544.091-.181-.181-.091v.181l-.453-.272.181-.181.181.091v-.453l.544.363L3.9,11.963l.272-.091.272.453-.091.816.453.272.272-.091.181.091-.362.181-.091.453-.362-.091ZM3.716,16.5l.906-.181V16.5l.453-.272-.181-.363H4.622l-.362-.453-.453.272.634.272-.363.181.091.181-.453.181Zm.634,1.631-.181-.453.816-.725-.363.816-.272.363Zm-.544.634.453-.272-.181-.725-.634.272v.634L3.9,18.4l-.091.363Zm1.722-.091.091.725.453.181.091-.453L5.8,18.489l-.272.181Zm1.541,7.794.634.363.544-.453-.362.091L7.7,26.1l-.453.091c0-.091-.181.272-.181.272Zm-.453-2.538.181-.634.725-.634-.091.363.091.272-.544.544-.362.091ZM5.8,37.431l.272-.272-.091-.181.272-.272.091.181.272-.272H6.8l.181-.363.453.091.363-.181h.272l.181-.091.181.272H8.7l.363.272h.362l-.091-.272.272-.181L9.7,35.89l-.091-.453.272-.272h.181l.091-.181.816-.181h.453l.544.363.181-.091h.544l.272.091.181-.363.544-.272.363.091.453-.363.362.091h.181l.272-.181.091.181.272.181.363-.272h.816l.453-.091.453.181h.272l.363-.272.363-.091.362-.363H19.4l.272.091-.091-.272.544-.363.363-.091v-.363l-.091-.272.091-.272h-.634l-.453.181h-.272l-.453-.181h-.181l.181-.091h.091V31.9l-.362-.091-.363.091.453-.272h.272l.363-.181-.091-.272H18.67l.272-.272.181-.181.181.181.362-.272.091-.181h-.181l.091-.181H19.3L19.486,30l.272.091.091.181.272-.363.272-.091v-.725l.272-.634-.181-.272-.091-.544-.816-.634-1.088-.091h-.725l-.091.544-.181.272-.363-.363-.453-.091.725-.634v-.453l-.544-.906h-.181l-.453-.272-.181-.363-.272.091-.181.091-.272-.091h-.181l.363-.091.181.091.363-.091.181.091.181.181.272-.091.272.091-.634-.816-.272-.363.181-.272.181-.091-.272-.181-.181-.272h-.091L15.5,22.2l-.544-.272-.816-.181V21.48l-.181-.091-.272-.816-.272-.453-.181-1.088-.272-.363h-.181l-.634-1-.362-.091-.272-.272-.544-.181-.181.181-.363.272L9.879,17.4H9.607l-.453-.181-.181-.272.272.091h.544l.453-.181.091-.363h.453l.453-.272-.453-.181V15.77l-.181-.181-.544.272-.091-.091.453-.363h.544l.272-.272.091-.272.181-.181.272-.634.181-.272v-.181l.181-.453-.091-.181.181-.544.362-.363v-.363l-.544-.544-.091.091h-.906l-.544-.091-.181.091H10.06L9.7,11.148H9.426v.091l-.363.091L8.7,11.51H8.519l-.272.181L8.157,11.6l.363-.363.362-.634-.272.181-.363-.091.181-.091.091-.272.906-.725L9.7,9.154l.272-.091.181-.453-.181-.181.181-.272V7.976H9.7l-.181.181-.272-.091-.453.181H8.338l-.363.181H7.794l-.181.181L7.7,8.429l-.181-.091L7.16,8.7l.091-.272-.544-.272-.091.363L6.435,8.7l.091.272H6.435v.363l-.363.091.181.363-.181.363H5.891l.453.363.181.272-.453-.272-.181.181-.362-.272V10.6l.091.181-.091.181L5.347,10.6l-.181.363.181.181-.181.181.272.363H5.71l-.272.091L5.075,11.6l.091.544v.181l.634-.091-.362.181v.091l.091.091.362-.181-.091.091.181.181L5.71,12.6l-.091.091-.091.272.181.091H5.528l-.181.181.272.091.091.181-.453-.181-.091.272.181.091-.091.181-.181.181H4.622l-.181.181.181.091h.363l.272.091-.091.091H4.894l.363.363.091-.091.181.181,1-1-.181.272.181.091-.272.091-.272.544v.181l-.272.544.091.091-.272.634.091.453-.181.272.091.181.181-.091-.272.453-.091.634-.181.181v.181H5.71l-.091-.363.181-.544v-.272l.272-.363-.181-.816h.181l.635-.725-.453.634-.091.453.181.091v-.272l.272-.272.091.453.272-.544-.091-.363.181-.091-.091.453.544.363L7.069,16.4l-.181.634.091.453.272.091.181.453-.363.363-.362,1,.091.453-.363-.181v.453l.453.634-.181-.634.362-.091.816.634v-.453l-.363-.272.181-.091.634.453.453-.091v1h.453l.091-.363,1.178.091-.816.181-.453,1.359.544,1,.272-.181v.544l.363-.453.453.091-.181.544.181.091-.453.363.181.634-.272.453.272.362.362.272h.272l-.181.181h-.272l-.272-.363-.272.091.181.363.272.181-.363-.091-.272-.272-.725.272-.362-.091-.816.363-.363.544-.544.363-.272.363.362-.091.181.091.091-.181.816-.181-.091.453.272.272-.272.181L8.519,29H8.7l-.544,1-.363.091-.363.272H7.251l-.453.272H6.435L5.891,31l.453.091v.363l-.362.181.544.091-.181.181.181.091.362-.091.363-.272.634-.181.091.272.453.091-.363.091v.272H8.7v-.091l.363-.091.362.363.272.363h.725l.181-.272.363-.181.453-.181.181-.272.453-.181-.544.634-.544.544v.634H10.6l-.272.091-.362-.181-1-.091-.725.181v.363l-.272.272H7.613l-.091.816-.453.363-.091.181-.453.091-.091.453H6.254l-.091.272-.544.363-.272-.091-.363.272v.363h.453V36.8l.544.091Z" transform="translate(5.438 44.682)" fill="#9e1f63" fill-rule="evenodd"/><path d="M25.014,15.589l-.091-.363-.272-.181-.181-.544-.272-.453h-.725l-.362.272.181.544-.544.272-.544-.091-.091-.363.272-.181h.272v-.453l.091-.725.634-1,.362-.181.453-.634.453-.181-.091-.453-.453-.272.272-.363h.544l.181.272.453.091.725-.272L26.1,9.879l-.453-.272V8.882l.272-.816.363-.272V7.522l.272-.725.544-.544-.453-.272h-.453l-.544-.272-.453.181L24.924,5.8h-.453l-.362.181-.453-.363V5.347L23.2,4.985l-.363.091L22.2,4.985l-.272-.453H21.57l-.181.091-.453-.272h-.453l-.544-.725-.272-.091-.181-.272h-.272l-.272.181-.453-.272V2.538l-.363-.181-.272-.272h-.272l-.634-.544-.091-.363L16.314,1,16.223.181,15.951,0l-.091.091-.816.272L14.864.181l-.725.363L13.957,1l.091.544-.181.906-.725.634v.272l-.725.181h-.363L11.6,3.353l-.906.453-.181.453.181.272.453.181-.544.363-.725.181-.906-.091-.453-.181-.363.181L7.976,4.8,7.7,4.532l.181-.363-.363-.181-.362.181H6.616l-.272-.091.181.544-.091.272.816.725-.181.272.091.362-.091.363.272.363.091.453-.816-.091-.362.091-.363-.091-.453.091-.181-.181L4.713,7.7,4.078,6.8l-.362-.091L3.172,6.8l-.453.453L2.447,7.16l-.272.272L1.9,7.251l-.453.091-.363.181-.725.091L0,7.976l.181.272.453-.181.453.091.091.181L.725,8.248H.453L.634,8.7l.181-.362.272.091.091.272-.272.091-.453.181v.091H.906l.181.544L1,9.879l.453-.363.363.091.272-.091.725.272.181.272h.272l.544.363.363-.363.272.091-.091.272.091.181.363-.272.272.272-.181.453.181.363h.272l.453-.272.453.091.272.453-.362-.181H5.71l-.272.363.272.091.091.453-.181.363.091.272.362.091.634.725.544.091.544.362v.453l.181.363-.181.453-.091.091-.091.453.362.091.725.544.544,1.359-.634-.634-.181-.544-.453-.272-.272.181-.272,1.178v.906l.362.272-.272.272-.091,1.631-.453,1.359-.544.363.453.181.091.091.272.091.091.453-.091.362.725-.091.906.363.453.453.453-.181.544.544h.634l.362.181.453-.453H12.87l.453.181.634-.091.725.363L15.77,25.2l.816.453.272.091v-.272l-.181-.725.181-.816.091-.363.544-.453.816-.906h.272l.272.181.544.091.544.363H20.3l.363-.272h.362l1.45.906.363.363,1.088.091.453-.363-.091-.272.453-.544,1.45-1.088h.091l-.181-.544.272-.725h-.725l-.725-.544-.091-1.269-.544-.634.363-.362.544-.091.181-.816-.453-.453-.091-.544.181-.091ZM29.909,28.64l-.725-.272-.091-.181.181-.272h.181l-.091-.181h-.181v-.363l-.363-.181-.181-.272.181-.091v-.181l-.363-.181-.091-.363h.272l.091-.181-.272-.272.363-.544.725-.272.272-.272.272.272h.181l.091-.453-.181-.272.091-.453h.272l.091.725-.091.634.272.906-.272,1.088v.634l-.272.725Z" transform="translate(12.235 78.306)" fill="#ee2a7b" fill-rule="evenodd"/><path d="M1.994,9.788l-.181-.544.272-.725H1.359L.634,7.976.544,6.707,0,6.072.363,5.71l.544-.091L1.088,4.8.634,4.35.544,3.807l.181-.272.544.181.906-.725.634.272.816-1.45.544.362-.091.544.725.363.272.453.453-.816V2.085l1,.272h.453l.453.362.091-.906.906-.181L8.157.906,8.61.363l.816.363L10.695,0l.544.181.816-.091-.091.453,1.178.725,1.45.272.816-.091.363.272-.544.816.181.363-.272.453.091.816-.544-.091-.362.181-.363.363h-.544l-.453.453-.544.091-.181.363.272.544.363.453-.363.544-.181.181.272.634.091.725.272.363,1.088.544.544.272.272.362L16.4,11.691v.453l.181.091v.453l.363.453.453.453.362.544.725.544.363.363.453.091.272.181h.906l.363.091.544-.091.453.181-.091.363-.634.453v.181l.272.363h.453l.906.181,1.9,1,.725.544.453.453.816.181.363.272.181.362-.091.634-.181.272.091.363-.091.091v.181l-.453-.181-.362-.453-.181-.453.091-.363-.272-.181h-.725l-.181-.181L24.38,19.3h-.363l-.181.091-.181.544-.272.272v.272l-.272.544-.362.272v.362l.181.272.362.091.634.634.091.272-.091.634.091.181-.181.363-.453.091-.362.453L22.93,25.74l-.634.544-.091.544-.363.453-.725.091-.544-.544v-.363l.091-.181.272-.181.272-.363.091-.453-.091-.453.091-.091h.181l.272-.272v-.453l-.272-.363-.181-.816-.272-.362-.091-.725-.181-.725-.363-.181-.272.181-.634-.181-.181-.363h-.453l-.272-.272.091-.181.091-.453-.272-.363h-.906v-.363l-.363-.181-.272.091-.272-.181-.544-.906h-.453l-.453-.181-.272.272H14.5l-.091-.363-.363-.272-.453-.091-.906-.725-1-1.269-.272-.091-.091-.363-.453-.544h-.725l-.091-.453-.634-.634-.363-.453-.544-.272V11.6l-.363-.272v-.453L7.7,10.151l-.181-.363-.091-.272-.181-.363-.725-.181L6.072,8.7,4.532,8.248l-1.178.725v.362L2.9,9.879l-.906-.091Zm1.813,7.976h.181v-.181l.181-.181-.181-.181-.091.272-.181.091.091.181Zm5.982-3.807.272.091-.091-.181-.181.091ZM7.885,12.6l-.181.181.272.091.453-.181h.363L8.7,12.417l-.181-.272-.091.181-.544.272Zm-2.9,11.6.181-.091.272.091.362-.181v-.544l.181-.362h.453l.272.272h.272l.181-.362v-.906l.091-.272-.091-.906.181-.906-.634-.544.544-.363.091-.363-.091-.544-.272-.363-.363-.634-.181.181-.453-.363H5.619l-.816,1H4.441L3.9,17.673v.544l-.091.362.362.363.091.363.272.272v.544l-.363.363.181.272H4.8v.181l-.272.363-.181.816.181.272.272,1,.181.816ZM20.03,30.452v-.634l.272-.272L20.211,29l-.453-.634.453-1.178.453-.362.091-.634-.363-.453-.634.544h-.272l-.544-.272-.544.544-1.088-.091-.906.272-.634-.091-.453-.272-.544.091-.272.272-.181-.181-.544.272-.091.816.544.453.544-.091.906.634.453.091.453.453,1.088.363.181-.181.453.363.091.362,1.087.453Z" transform="translate(36.434 90.179)" fill="#9e1f63" fill-rule="evenodd"/><path d="M16.676,1.088l.453.181.091.091.272.091.091.453-.091.363.725-.091.906.363.453.453.453-.181.544.544h.634l.362.181.453-.453h1.088l.453.181.634-.091.725.363,1.088-.091.816.453.272.091V4.26l-.363.272.091.725-.091.544-.272.453-.906.544a2.82,2.82,0,0,0-.363.544l-.725.272h-.906l-.634.453-.544.272.272.181-.091.544-.363.181-.181.181.091-.091-.272-.091-.725,1.178-.453.272-.906,1.541-.272.363.363.725.091.453.363.181.634.816-.544.544-.816.181v.544l-.725,1.088-.091.725.181.181-.181.272h-.816l-1.45.725v.453l-.544.906-.544-.272-.453-.363-.272.453-.362.363-.363-.272H13.5l-.181.181-.634-.091-1-.272-.363.181-.816.091-.725.725-.906.091-.363.272v.363l-.725.363-.725-.091L6.254,21.3,5.8,20.211l.091-.181-1-.906-.725-.091-.363-.091V18.4l-.363-.544.544-1,.544-.453.091-.453H4.078l-.363-.725.725-.725v-1L3.9,13.142l-.635-1.178.544-.181.453.091.634-.816L4.441,10.6l.544-.544.091-1.541-.091-.634.906-.816h.362l.181-.453-.453-.725-.091-.544L4.8,5.166l-.453.453L3.082,5.347,2.266,5.8l-.181-.363.091-.544L1.813,4.8.725,4.985V4.894l.544-.453L.906,4.35l.272-.272L1,3.9l.091-.544-.363.363L.544,3.625l.091-.634L.453,2.9V2.628l-.272.091L0,2.175l.272-.544.906-.363.272.181.725-.091.363-.272L2.266.906,2.175.544,3.082.091l.091.181L3.535,0l.634.091.544.634L5.166.363h.453l.544.272L6.8.363,7.523.181,7.7.363l.634.363L10.06,1l.816.181L12.054.725l.906.091.181.363.816.181.453-.453h.453l1.269.725.272-.363h.362l-.091-.181ZM28.1,11.51l.725.091.362.181.091-.272-.453-.453-.725.181v.272Zm-1.359,1.541.181-.634.544-.453h-.453l-.544-.091-.453.272-.091.453.453.181.363.272Zm-2.9,1.631.272-.363.272-.272-.181-.272-.634.181-.091.453Z" transform="translate(2.175 99.967)" fill="#da1c5c" fill-rule="evenodd"/><path d="M4.8,14.048,4.713,13.5l-.272-.544.544-1,.544-.544.091-.453H5.075l-.363-.634.816-.816L5.438,8.61l-.544-.363L4.35,7.069l.544-.091h.453l.544-.816L5.529,5.71l.453-.453.091-1.541-.091-.634.906-.816h.363l.091-.453-.453-.725L6.8.544,5.71.363,5.257.816,3.9.544,3.172.906,2.9.634,2.991.091,2.628,0,1.541.181l.091.453.362.816L1.813,2.9l.091.272-.181.634.363.453-.272.272-.272.634-.091.816-.544.725V7.16l-.634.906L0,9.426v.363H.453l.272-.363.453-.272v.272l.091.272-.725.363v.453l.181.272.363-.363h.634l-.272.363.181.634-.272.544.091,1.269-.272.906L1,14.41l.181.091.725-.453,1,.363.453.272.634-.363.634-.091Z" transform="translate(1.45 104.771)" fill="#9e1f63" fill-rule="evenodd"/><path d="M15.317,0h-.272L14.5.453V1l.181.453-.272.272-1-.091-.453.181-.453-.272h-.453l-.363.272h-.453l-.091-.363h-.634L9.97,1.359l-.453.363L8.882,1.9H8.066l-.272-.091-.272.272H7.069l-.544.363L5.347,2.356l-.453.272V2.81l-.634.272-.906.544-.091.634L2.9,4.985l-.906.272V5.8l-.363.725-.272.181H1.45v.725l.906.634.453.725.272.091-.091.181.634.906.181.634.272.091.362-.453.363.453.544.091.272-.363h.363l.634.363.362-.181.091.363h.272l.272.181.544.091-.363.181-.362.363-.362-.272-.453-.091-.906-.634-.453.181-.363.272-.453-.181-.362.453-.272.091-.181.453.544.544.544.272.544.453.091.363-.181.272v.453l.453.544.272.363.091-.272-.091-.272.181-.453.181.544.635.272.181.363-.091.363.272.363v-.634l.272-.544h.363l.181.453.725.453L8.52,15.5l.091-.363-.272-.453-.363-.816L7.7,13.414v-.181h.272l.544.272-.181.181.181.181.272-.272.544.181v-.181l-.181-.181v-.181l-.181-.091L8.61,12.87V12.6l-.453-.363.453-.181h.453l.272-.181.634.453.091.181.453.091.091-.272-.363-.544.091-.544-.181-.272-1.088-.725L8.7,10.151,8.52,9.879H8.248l-.181-.272-.453-.091L7.16,9.063,7.7,8.973l.272-.363V8.338l-.453-.091.272-.363V7.613l.362.091.272.272-.091.272v.272l.272-.091.181-.544-.272-.363-.725-.906-.272-.272-.091-.363-.544-.453.181-.272L6.979,4.35,7.251,3.9l.544-.091.091.453H7.613l.091.272.725.363.091.544.453.363h.544l-.363-.272-.181-.363L9.063,4.8l.453.181.363.544.363.091.181-.272-.362-.272L9.7,4.985V4.713H10.6l.363.363.181-.181L10.6,4.441,10.06,4.35l-.453-.544.272-.272.453.181.363-.181.181-.634.362-.091.544.363h.362l.453-.453V2.447h.181l.362.363h1l.725.181.544-.091.272-.544-.091-.544.635-.363V.906L15.77.725,15.317,0ZM.544,6.435v.453l.272.272.272.091.091.181-.091.091L.725,7.341.272,6.888V6.707L0,6.616V6.344l.453-.181.091.272ZM2.356,9.788V9.607l.181-.362h.181l.091.362-.181.181H2.356Zm0,.725V9.969l.272.181.181.363-.091.181.181.181.091.181.091.091L2.9,11.42l-.272-.181H2.266v-.272l-.091-.091v.272l-.091.091L1.9,11.057V10.6l.272-.091Zm.906,1.722.181.181H3.172l-.091.181-.272-.091-.363-.363.091-.272.181-.091.272.181.272.272Zm12.689,3.444L15.77,15.5l.091-.181.363-.181.181.091-.181.272c0,.091-.272.181-.272.181Zm0-3.353.363-.363h.272l.272.272.091-.091h.091l.091.181-.272.091-.091.181h-.272l-.181-.181h-.272l-.272.091.181-.181Zm-.816-2.538.091.544-.091.363-.363.181-.272-.181v-.181l.181-.091V10.06l-.272-.272V9.607l.272-.181.272.091.181.272ZM14.5,8.429l-.362-.272.181-.363.544-.181.272-.181.453-.091.091.091-.091.272h.091l.091.363v.453h-.453l-.363-.181.091-.181.181-.181V7.7h-.363l-.091.272-.091.272-.181.091v.091Zm-1.178-4.35.091-.181h.272l.272.091v.181l-.272.091-.363-.181ZM12.235,5.347H12.6l.181.181.272-.181.272.091-.272.272-.091.453-.272-.091h-.181l-.181-.181-.091-.363V5.347ZM11.148,3.263l.181-.091.363.181v.272l-.272.181-.091-.091h-.272l.091-.453Zm-2.175,4.8h.181l.272.091.091.272-.091.181-.453-.544Zm-.453,0L8.7,7.976l.091.091L8.7,8.338l-.181-.272Zm2.719.544.181-.091L11.6,8.7l.272.091v.362l-.181.091L11.6,8.973H11.51l-.272-.363Zm3.807,4.532-.181-.181.091-.272.453-.091-.091.272-.272.272Zm-3.9,2.356.181-.363H11.6l-.091.272-.272.091Zm.181-1.45.181-.181v.272l-.181-.091Zm0-.453v-.363l.181.091V13.5l-.181.091Zm-.272-.544-.091-.181.181-.181.181.272-.272.091Zm2.175,1.45-.181-.181.091-.363h.272l.091.272-.272.272Zm.544-.091-.181-.272.363-.272h.181l.091.272-.181.272Zm-.181-1.088v-.181l.181.091-.181.091Zm-.634-.544.181-.091.181.181v.181l-.272-.091-.091-.181Zm-1.088-1h.181l.181.272.363.363v.272h-.181l-.544-.453-.181-.181.181-.272Zm-4.35-2.81L7.885,8.7l.634-.091.362.363.453.181.362.181.091.091h.272l.091-.091.544.544.181.363v.181l.091.272v.362l.272.272.091-.091h.453l-.181.453L11.42,11.6l-.181.091-.362-.272-.272-.091v-.272l-.181-.181-.272-.453-.091-.181H9.788l-.453-.272L9.154,9.7l-.272-.091L8.7,9.335l-.181-.091-.091-.181-.181-.181H7.794l-.272.091Zm.634,6.979.091-.091.091.363.272.362-.181.363-.272-.091v-.272L8.066,16.4l.091-.453Zm0-.453.091.181H8.066Z" transform="translate(66.161 105.314)" fill="#ee2a7b" fill-rule="evenodd"/></g></g></g><g transform="translate(144 54.182)"><rect width="65.07" height="20" rx="2" fill="#f8f8f8"/><path d="M2,1A1,1,0,0,0,1,2V18a1,1,0,0,0,1,1H63.07a1,1,0,0,0,1-1V2a1,1,0,0,0-1-1H2M2,0H63.07a2,2,0,0,1,2,2V18a2,2,0,0,1-2,2H2a2,2,0,0,1-2-2V2A2,2,0,0,1,2,0Z" fill="#858585"/><g transform="translate(60.014 7.806) rotate(90)"><path d="M4.4,4.4.956,7.836a.56.56,0,0,1-.792-.792L3.208,4,.164.956A.56.56,0,0,1,.956.164L4.4,3.6a.56.56,0,0,1,0,.792Z" transform="translate(0 0)" fill="#1ab395"/></g></g><g transform="translate(16 108)"><rect width="65.07" height="20" rx="2" fill="#f8f8f8"/><path d="M2,1A1,1,0,0,0,1,2V18a1,1,0,0,0,1,1H63.07a1,1,0,0,0,1-1V2a1,1,0,0,0-1-1H2M2,0H63.07a2,2,0,0,1,2,2V18a2,2,0,0,1-2,2H2a2,2,0,0,1-2-2V2A2,2,0,0,1,2,0Z" fill="#858585"/><g transform="translate(60.014 7.806) rotate(90)"><path d="M4.4,4.4.956,7.836a.56.56,0,0,1-.792-.792L3.208,4,.164.956A.56.56,0,0,1,.956.164L4.4,3.6a.56.56,0,0,1,0,.792Z" transform="translate(0 0)" fill="#1ab395"/></g></g></svg>